<?xml version="1.0" encoding="UTF-8" standalone="no"?>
<!DOCTYPE svg PUBLIC "-//W3C//DTD SVG 1.1//EN"
 "http://www.w3.org/Graphics/SVG/1.1/DTD/svg11.dtd">
<!-- Generated by graphviz version 2.40.1 (20161225.0304)
 -->
<!-- Title: ee/debug/samples/callstacktest/callstacktest.c Pages: 1 -->
<svg width="179pt" height="151pt"
 viewBox="0.00 0.00 179.00 151.00" xmlns="http://www.w3.org/2000/svg" xmlns:xlink="http://www.w3.org/1999/xlink">
<g id="graph0" class="graph" transform="scale(1 1) rotate(0) translate(4 147)">
<title>ee/debug/samples/callstacktest/callstacktest.c</title>
<polygon fill="#ffffff" stroke="transparent" points="-4,4 -4,-147 175,-147 175,4 -4,4"/>
<!-- Node1 -->
<g id="node1" class="node">
<title>Node1</title>
<g id="a_node1"><a xlink:title=" ">
<polygon fill="#bfbfbf" stroke="#000000" points="0,-112.5 0,-142.5 171,-142.5 171,-112.5 0,-112.5"/>
<text text-anchor="start" x="8" y="-130.5" font-family="Helvetica,sans-Serif" font-size="10.00" fill="#000000">ee/debug/samples/callstacktest</text>
<text text-anchor="middle" x="85.5" y="-119.5" font-family="Helvetica,sans-Serif" font-size="10.00" fill="#000000">/callstacktest.c</text>
</a>
</g>
</g>
<!-- Node2 -->
<g id="node2" class="node">
<title>Node2</title>
<g id="a_node2"><a xlink:title=" ">
<polygon fill="#ffffff" stroke="#bfbfbf" points="7.5,-56.5 7.5,-75.5 57.5,-75.5 57.5,-56.5 7.5,-56.5"/>
<text text-anchor="middle" x="32.5" y="-63.5" font-family="Helvetica,sans-Serif" font-size="10.00" fill="#000000">stdio.h</text>
</a>
</g>
</g>
<!-- Node1&#45;&gt;Node2 -->
<g id="edge1" class="edge">
<title>Node1&#45;&gt;Node2</title>
<path fill="none" stroke="#191970" d="M72.3989,-112.2977C64.8887,-103.5831 55.43,-92.6075 47.6073,-83.5302"/>
<polygon fill="#191970" stroke="#191970" points="50.1655,-81.1372 40.986,-75.8469 44.8629,-85.707 50.1655,-81.1372"/>
</g>
<!-- Node3 -->
<g id="node3" class="node">
<title>Node3</title>
<g id="a_node3"><a xlink:href="tamtypes_8h.html" target="_top" xlink:title=" ">
<polygon fill="#ffffff" stroke="#000000" points="77.5,-.5 77.5,-19.5 149.5,-19.5 149.5,-.5 77.5,-.5"/>
<text text-anchor="middle" x="113.5" y="-7.5" font-family="Helvetica,sans-Serif" font-size="10.00" fill="#000000">tamtypes.h</text>
</a>
</g>
</g>
<!-- Node1&#45;&gt;Node3 -->
<g id="edge2" class="edge">
<title>Node1&#45;&gt;Node3</title>
<path fill="none" stroke="#191970" d="M89.1605,-112.1389C94.2281,-90.873 103.3794,-52.4702 108.9019,-29.2956"/>
<polygon fill="#191970" stroke="#191970" points="112.3085,-30.0985 111.222,-19.5595 105.4992,-28.4757 112.3085,-30.0985"/>
</g>
<!-- Node4 -->
<g id="node4" class="node">
<title>Node4</title>
<g id="a_node4"><a xlink:href="debug_8h.html" target="_top" xlink:title=" ">
<polygon fill="#ffffff" stroke="#000000" points="113.5,-56.5 113.5,-75.5 169.5,-75.5 169.5,-56.5 113.5,-56.5"/>
<text text-anchor="middle" x="141.5" y="-63.5" font-family="Helvetica,sans-Serif" font-size="10.00" fill="#000000">debug.h</text>
</a>
</g>
</g>
<!-- Node1&#45;&gt;Node4 -->
<g id="edge3" class="edge">
<title>Node1&#45;&gt;Node4</title>
<path fill="none" stroke="#191970" d="M99.3427,-112.2977C107.359,-103.4941 117.4762,-92.3833 125.79,-83.2529"/>
<polygon fill="#191970" stroke="#191970" points="128.3888,-85.5974 132.5337,-75.8469 123.2131,-80.8845 128.3888,-85.5974"/>
</g>
<!-- Node4&#45;&gt;Node3 -->
<g id="edge4" class="edge">
<title>Node4&#45;&gt;Node3</title>
<path fill="none" stroke="#191970" d="M136.6228,-56.2455C132.8487,-48.6973 127.5079,-38.0158 122.9099,-28.8197"/>
<polygon fill="#191970" stroke="#191970" points="125.924,-27.0217 118.3213,-19.6427 119.663,-30.1522 125.924,-27.0217"/>
</g>
</g>
</svg>
