<?xml version="1.0" encoding="UTF-8" standalone="no"?>
<!DOCTYPE svg PUBLIC "-//W3C//DTD SVG 1.1//EN"
 "http://www.w3.org/Graphics/SVG/1.1/DTD/svg11.dtd">
<!-- Generated by graphviz version 2.40.1 (20161225.0304)
 -->
<!-- Title: ee/draw/samples/cube/cube.c Pages: 1 -->
<!--zoomable 319 -->
<svg id="main" version="1.1" xmlns="http://www.w3.org/2000/svg" xmlns:xlink="http://www.w3.org/1999/xlink" xml:space="preserve" onload="init(evt)">
<style type="text/css"><![CDATA[
.edge:hover path { stroke: red; }
.edge:hover polygon { stroke: red; fill: red; }
]]></style>
<script type="text/javascript"><![CDATA[
var edges = document.getElementsByTagName('g');
if (edges && edges.length) {
  for (var i=0;i<edges.length;i++) {
    if (edges[i].id.substr(0,4)=='edge') {
      edges[i].setAttribute('class','edge');
    }
  }
}
]]></script>
        <defs>
                <circle id="rim" cx="0" cy="0" r="7"/>
                <circle id="rim2" cx="0" cy="0" r="3.5"/>
                <g id="zoomPlus">
                        <use xlink:href="#rim" fill="#404040">
                                <set attributeName="fill" to="#808080" begin="zoomplus.mouseover" end="zoomplus.mouseout"/>
                        </use>
                        <path d="M-4,0h8M0,-4v8" fill="none" stroke="white" stroke-width="1.5" pointer-events="none"/>
                </g>
                <g id="zoomMin">
                        <use xlink:href="#rim" fill="#404040">
                                <set attributeName="fill" to="#808080" begin="zoomminus.mouseover" end="zoomminus.mouseout"/>
                        </use>
                        <path d="M-4,0h8" fill="none" stroke="white" stroke-width="1.5" pointer-events="none"/>
                </g>
                <g id="dirArrow">
                        <path fill="none" stroke="white" stroke-width="1.5" d="M0,-3.0v7 M-2.5,-0.5L0,-3.0L2.5,-0.5"/>
                </g>
               <g id="resetDef">
                       <use xlink:href="#rim2" fill="#404040">
                               <set attributeName="fill" to="#808080" begin="reset.mouseover" end="reset.mouseout"/>
                       </use>
               </g>
        </defs>

<script type="text/javascript">
var viewWidth = 1294;
var viewHeight = 319;
var sectionId = 'dynsection-0';
</script>
<script xlink:href="svgpan.js"/>
<svg id="graph" class="graph">
<g id="viewport">
<title>ee/draw/samples/cube/cube.c</title>
<polygon fill="#ffffff" stroke="transparent" points="-4,4 -4,-315 1289.5464,-315 1289.5464,4 -4,4"/>
<!-- Node1 -->
<g id="node1" class="node">
<title>Node1</title>
<g id="a_node1"><a xlink:title=" ">
<polygon fill="#bfbfbf" stroke="#000000" points="466.5464,-280.5 466.5464,-310.5 592.5464,-310.5 592.5464,-280.5 466.5464,-280.5"/>
<text text-anchor="start" x="474.5464" y="-298.5" font-family="Helvetica,sans-Serif" font-size="10.00" fill="#000000">ee/draw/samples/cube</text>
<text text-anchor="middle" x="529.5464" y="-287.5" font-family="Helvetica,sans-Serif" font-size="10.00" fill="#000000">/cube.c</text>
</a>
</g>
</g>
<!-- Node2 -->
<g id="node2" class="node">
<title>Node2</title>
<g id="a_node2"><a xlink:href="kernel_8h.html" target="_top" xlink:title=" ">
<polygon fill="#ffffff" stroke="#000000" points="52.5464,-224.5 52.5464,-243.5 108.5464,-243.5 108.5464,-224.5 52.5464,-224.5"/>
<text text-anchor="middle" x="80.5464" y="-231.5" font-family="Helvetica,sans-Serif" font-size="10.00" fill="#000000">kernel.h</text>
</a>
</g>
</g>
<!-- Node1&#45;&gt;Node2 -->
<g id="edge1" class="edge">
<title>Node1&#45;&gt;Node2</title>
<path fill="none" stroke="#191970" d="M466.1679,-286.819C371.5097,-273.8536 196.0799,-249.8247 118.7967,-239.2392"/>
<polygon fill="#191970" stroke="#191970" points="118.9442,-235.7268 108.5617,-237.8373 117.9942,-242.662 118.9442,-235.7268"/>
</g>
<!-- Node6 -->
<g id="node6" class="node">
<title>Node6</title>
<g id="a_node6"><a xlink:href="tamtypes_8h.html" target="_top" xlink:title=" ">
<polygon fill="#ffffff" stroke="#000000" points="604.5464,-.5 604.5464,-19.5 676.5464,-19.5 676.5464,-.5 604.5464,-.5"/>
<text text-anchor="middle" x="640.5464" y="-7.5" font-family="Helvetica,sans-Serif" font-size="10.00" fill="#000000">tamtypes.h</text>
</a>
</g>
</g>
<!-- Node1&#45;&gt;Node6 -->
<g id="edge7" class="edge">
<title>Node1&#45;&gt;Node6</title>
<path fill="none" stroke="#191970" d="M466.4108,-287.5458C396.7586,-278.1092 289.6119,-261.4453 252.5464,-244 211.1504,-224.5165 173.5464,-223.7519 173.5464,-178 173.5464,-178 173.5464,-178 173.5464,-122 173.5464,-87.2309 186.0134,-74.3491 215.5464,-56 247.2002,-36.3332 490.7985,-19.2108 594.2823,-12.7464"/>
<polygon fill="#191970" stroke="#191970" points="594.6694,-16.2292 604.4342,-12.1184 594.2372,-9.2426 594.6694,-16.2292"/>
</g>
<!-- Node7 -->
<g id="node7" class="node">
<title>Node7</title>
<g id="a_node7"><a xlink:title=" ">
<polygon fill="#ffffff" stroke="#bfbfbf" points="798.0464,-224.5 798.0464,-243.5 851.0464,-243.5 851.0464,-224.5 798.0464,-224.5"/>
<text text-anchor="middle" x="824.5464" y="-231.5" font-family="Helvetica,sans-Serif" font-size="10.00" fill="#000000">stdlib.h</text>
</a>
</g>
</g>
<!-- Node1&#45;&gt;Node7 -->
<g id="edge6" class="edge">
<title>Node1&#45;&gt;Node7</title>
<path fill="none" stroke="#191970" d="M592.6455,-284.5123C643.1218,-275.378 715.8915,-261.4414 787.7261,-244.3108"/>
<polygon fill="#191970" stroke="#191970" points="788.9507,-247.6161 797.8537,-241.8726 787.3122,-240.8105 788.9507,-247.6161"/>
</g>
<!-- Node8 -->
<g id="node8" class="node">
<title>Node8</title>
<g id="a_node8"><a xlink:href="math3d_8h.html" target="_top" xlink:title=" ">
<polygon fill="#ffffff" stroke="#000000" points="609.0464,-56.5 609.0464,-75.5 672.0464,-75.5 672.0464,-56.5 609.0464,-56.5"/>
<text text-anchor="middle" x="640.5464" y="-63.5" font-family="Helvetica,sans-Serif" font-size="10.00" fill="#000000">math3d.h</text>
</a>
</g>
</g>
<!-- Node1&#45;&gt;Node8 -->
<g id="edge8" class="edge">
<title>Node1&#45;&gt;Node8</title>
<path fill="none" stroke="#191970" d="M536.8294,-280.4419C556.3386,-240.1052 609.756,-129.6611 631.3286,-85.0583"/>
<polygon fill="#191970" stroke="#191970" points="634.5557,-86.4244 635.759,-75.8981 628.2541,-83.3765 634.5557,-86.4244"/>
</g>
<!-- Node9 -->
<g id="node9" class="node">
<title>Node9</title>
<g id="a_node9"><a xlink:href="packet_8h.html" target="_top" xlink:title=" ">
<polygon fill="#ffffff" stroke="#000000" points="202.0464,-168.5 202.0464,-187.5 261.0464,-187.5 261.0464,-168.5 202.0464,-168.5"/>
<text text-anchor="middle" x="231.5464" y="-175.5" font-family="Helvetica,sans-Serif" font-size="10.00" fill="#000000">packet.h</text>
</a>
</g>
</g>
<!-- Node1&#45;&gt;Node9 -->
<g id="edge10" class="edge">
<title>Node1&#45;&gt;Node9</title>
<path fill="none" stroke="#191970" d="M466.2825,-288.2586C401.5111,-279.874 306.1285,-264.5393 275.5464,-244 258.641,-232.6462 246.5848,-212.3873 239.4163,-197.2995"/>
<polygon fill="#191970" stroke="#191970" points="242.4831,-195.5807 235.2348,-187.8532 236.0821,-198.4141 242.4831,-195.5807"/>
</g>
<!-- Node10 -->
<g id="node10" class="node">
<title>Node10</title>
<g id="a_node10"><a xlink:href="dma__tags_8h.html" target="_top" xlink:title=" ">
<polygon fill="#ffffff" stroke="#000000" points="239.5464,-56.5 239.5464,-75.5 313.5464,-75.5 313.5464,-56.5 239.5464,-56.5"/>
<text text-anchor="middle" x="276.5464" y="-63.5" font-family="Helvetica,sans-Serif" font-size="10.00" fill="#000000">dma_tags.h</text>
</a>
</g>
</g>
<!-- Node1&#45;&gt;Node10 -->
<g id="edge12" class="edge">
<title>Node1&#45;&gt;Node10</title>
<path fill="none" stroke="#191970" d="M484.6913,-280.4944C426.2757,-258.2979 326.3475,-210.6399 281.5464,-132 273.6362,-118.1152 272.8444,-99.8399 273.7716,-86.0412"/>
<polygon fill="#191970" stroke="#191970" points="277.2939,-86.0037 274.8362,-75.6978 270.3307,-85.2869 277.2939,-86.0037"/>
</g>
<!-- Node11 -->
<g id="node11" class="node">
<title>Node11</title>
<g id="a_node11"><a xlink:href="gif__tags_8h.html" target="_top" xlink:title=" ">
<polygon fill="#ffffff" stroke="#000000" points="356.0464,-112.5 356.0464,-131.5 421.0464,-131.5 421.0464,-112.5 356.0464,-112.5"/>
<text text-anchor="middle" x="388.5464" y="-119.5" font-family="Helvetica,sans-Serif" font-size="10.00" fill="#000000">gif_tags.h</text>
</a>
</g>
</g>
<!-- Node1&#45;&gt;Node11 -->
<g id="edge14" class="edge">
<title>Node1&#45;&gt;Node11</title>
<path fill="none" stroke="#191970" d="M517.2802,-280.4065C491.3252,-248.469 430.9514,-174.1793 403.0999,-139.9081"/>
<polygon fill="#191970" stroke="#191970" points="405.4832,-137.2911 396.4602,-131.738 400.0509,-141.7059 405.4832,-137.2911"/>
</g>
<!-- Node12 -->
<g id="node12" class="node">
<title>Node12</title>
<g id="a_node12"><a xlink:href="gs__psm_8h.html" target="_top" xlink:title=" ">
<polygon fill="#ffffff" stroke="#000000" points="869.0464,-224.5 869.0464,-243.5 932.0464,-243.5 932.0464,-224.5 869.0464,-224.5"/>
<text text-anchor="middle" x="900.5464" y="-231.5" font-family="Helvetica,sans-Serif" font-size="10.00" fill="#000000">gs_psm.h</text>
</a>
</g>
</g>
<!-- Node1&#45;&gt;Node12 -->
<g id="edge16" class="edge">
<title>Node1&#45;&gt;Node12</title>
<path fill="none" stroke="#191970" d="M592.6872,-287.4097C657.2973,-278.7405 760.7665,-263.7792 858.6638,-244.258"/>
<polygon fill="#191970" stroke="#191970" points="859.6167,-247.6365 868.7287,-242.2307 858.2345,-240.7743 859.6167,-247.6365"/>
</g>
<!-- Node13 -->
<g id="node13" class="node">
<title>Node13</title>
<g id="a_node13"><a xlink:href="dma_8h.html" target="_top" xlink:title=" ">
<polygon fill="#ffffff" stroke="#000000" points="291.0464,-112.5 291.0464,-131.5 338.0464,-131.5 338.0464,-112.5 291.0464,-112.5"/>
<text text-anchor="middle" x="314.5464" y="-119.5" font-family="Helvetica,sans-Serif" font-size="10.00" fill="#000000">dma.h</text>
</a>
</g>
</g>
<!-- Node1&#45;&gt;Node13 -->
<g id="edge17" class="edge">
<title>Node1&#45;&gt;Node13</title>
<path fill="none" stroke="#191970" d="M510.8426,-280.4065C470.4969,-247.8484 375.6091,-171.2762 334.3192,-137.9562"/>
<polygon fill="#191970" stroke="#191970" points="336.341,-135.0903 326.3609,-131.534 331.945,-140.5378 336.341,-135.0903"/>
</g>
<!-- Node15 -->
<g id="node15" class="node">
<title>Node15</title>
<g id="a_node15"><a xlink:href="graph_8h.html" target="_top" xlink:title=" ">
<polygon fill="#ffffff" stroke="#000000" points="950.0464,-224.5 950.0464,-243.5 1003.0464,-243.5 1003.0464,-224.5 950.0464,-224.5"/>
<text text-anchor="middle" x="976.5464" y="-231.5" font-family="Helvetica,sans-Serif" font-size="10.00" fill="#000000">graph.h</text>
</a>
</g>
</g>
<!-- Node1&#45;&gt;Node15 -->
<g id="edge21" class="edge">
<title>Node1&#45;&gt;Node15</title>
<path fill="none" stroke="#191970" d="M592.8569,-290.6338C672.0989,-283.8657 812.0271,-269.6816 939.9275,-244.0944"/>
<polygon fill="#191970" stroke="#191970" points="940.7937,-247.4901 949.8979,-242.0713 939.4016,-240.6299 940.7937,-247.4901"/>
</g>
<!-- Node17 -->
<g id="node17" class="node">
<title>Node17</title>
<g id="a_node17"><a xlink:href="draw_8h.html" target="_top" xlink:title=" ">
<polygon fill="#ffffff" stroke="#000000" points="731.0464,-224.5 731.0464,-243.5 780.0464,-243.5 780.0464,-224.5 731.0464,-224.5"/>
<text text-anchor="middle" x="755.5464" y="-231.5" font-family="Helvetica,sans-Serif" font-size="10.00" fill="#000000">draw.h</text>
</a>
</g>
</g>
<!-- Node1&#45;&gt;Node17 -->
<g id="edge23" class="edge">
<title>Node1&#45;&gt;Node17</title>
<path fill="none" stroke="#191970" d="M584.8322,-280.4554C627.2927,-268.9009 684.6146,-253.3022 720.8345,-243.4459"/>
<polygon fill="#191970" stroke="#191970" points="722.179,-246.7074 730.9091,-240.7044 720.3409,-239.953 722.179,-246.7074"/>
</g>
<!-- Node28 -->
<g id="node28" class="node">
<title>Node28</title>
<g id="a_node28"><a xlink:href="draw3d_8h.html" target="_top" xlink:title=" ">
<polygon fill="#ffffff" stroke="#000000" points="498.5464,-168.5 498.5464,-187.5 560.5464,-187.5 560.5464,-168.5 498.5464,-168.5"/>
<text text-anchor="middle" x="529.5464" y="-175.5" font-family="Helvetica,sans-Serif" font-size="10.00" fill="#000000">draw3d.h</text>
</a>
</g>
</g>
<!-- Node1&#45;&gt;Node28 -->
<g id="edge52" class="edge">
<title>Node1&#45;&gt;Node28</title>
<path fill="none" stroke="#191970" d="M529.5464,-280.1389C529.5464,-258.9692 529.5464,-220.8174 529.5464,-197.6112"/>
<polygon fill="#191970" stroke="#191970" points="533.0465,-197.5594 529.5464,-187.5595 526.0465,-197.5595 533.0465,-197.5594"/>
</g>
<!-- Node29 -->
<g id="node29" class="node">
<title>Node29</title>
<g id="a_node29"><a xlink:href="cube_2mesh__data_8c.html" target="_top" xlink:title=" ">
<polygon fill="#ffffff" stroke="#000000" points="1021.0464,-224.5 1021.0464,-243.5 1100.0464,-243.5 1100.0464,-224.5 1021.0464,-224.5"/>
<text text-anchor="middle" x="1060.5464" y="-231.5" font-family="Helvetica,sans-Serif" font-size="10.00" fill="#000000">mesh_data.c</text>
</a>
</g>
</g>
<!-- Node1&#45;&gt;Node29 -->
<g id="edge53" class="edge">
<title>Node1&#45;&gt;Node29</title>
<path fill="none" stroke="#191970" d="M592.7151,-290.7756C683.2298,-283.561 855.2091,-268.201 1010.5806,-244.1933"/>
<polygon fill="#191970" stroke="#191970" points="1011.4492,-247.6002 1020.7896,-242.5994 1010.3693,-240.6839 1011.4492,-247.6002"/>
</g>
<!-- Node3 -->
<g id="node3" class="node">
<title>Node3</title>
<g id="a_node3"><a xlink:title=" ">
<polygon fill="#ffffff" stroke="#bfbfbf" points="89.5464,-168.5 89.5464,-187.5 145.5464,-187.5 145.5464,-168.5 89.5464,-168.5"/>
<text text-anchor="middle" x="117.5464" y="-175.5" font-family="Helvetica,sans-Serif" font-size="10.00" fill="#000000">stddef.h</text>
</a>
</g>
</g>
<!-- Node2&#45;&gt;Node3 -->
<g id="edge2" class="edge">
<title>Node2&#45;&gt;Node3</title>
<path fill="none" stroke="#191970" d="M86.9913,-224.2455C92.0846,-216.5367 99.3372,-205.5598 105.4984,-196.2348"/>
<polygon fill="#191970" stroke="#191970" points="108.5829,-197.9155 111.1753,-187.6427 102.7425,-194.0566 108.5829,-197.9155"/>
</g>
<!-- Node4 -->
<g id="node4" class="node">
<title>Node4</title>
<g id="a_node4"><a xlink:title=" ">
<polygon fill="#ffffff" stroke="#bfbfbf" points="15.5464,-168.5 15.5464,-187.5 71.5464,-187.5 71.5464,-168.5 15.5464,-168.5"/>
<text text-anchor="middle" x="43.5464" y="-175.5" font-family="Helvetica,sans-Serif" font-size="10.00" fill="#000000">stdarg.h</text>
</a>
</g>
</g>
<!-- Node2&#45;&gt;Node4 -->
<g id="edge3" class="edge">
<title>Node2&#45;&gt;Node4</title>
<path fill="none" stroke="#191970" d="M74.1014,-224.2455C69.0081,-216.5367 61.7555,-205.5598 55.5944,-196.2348"/>
<polygon fill="#191970" stroke="#191970" points="58.3502,-194.0566 49.9174,-187.6427 52.5098,-197.9155 58.3502,-194.0566"/>
</g>
<!-- Node5 -->
<g id="node5" class="node">
<title>Node5</title>
<g id="a_node5"><a xlink:href="sifdma_8h.html" target="_top" xlink:title=" ">
<polygon fill="#ffffff" stroke="#000000" points="22.0464,-56.5 22.0464,-75.5 81.0464,-75.5 81.0464,-56.5 22.0464,-56.5"/>
<text text-anchor="middle" x="51.5464" y="-63.5" font-family="Helvetica,sans-Serif" font-size="10.00" fill="#000000">sifdma.h</text>
</a>
</g>
</g>
<!-- Node2&#45;&gt;Node5 -->
<g id="edge4" class="edge">
<title>Node2&#45;&gt;Node5</title>
<path fill="none" stroke="#191970" d="M52.4825,-224.5255C35.9126,-217.3142 16.3208,-205.5851 6.5464,-188 -12.9778,-152.8745 16.4092,-107.6088 36.1261,-83.289"/>
<polygon fill="#191970" stroke="#191970" points="38.8297,-85.5122 42.6009,-75.6113 33.4785,-80.9994 38.8297,-85.5122"/>
</g>
<!-- Node5&#45;&gt;Node6 -->
<g id="edge5" class="edge">
<title>Node5&#45;&gt;Node6</title>
<path fill="none" stroke="#191970" d="M81.1586,-63.1846C176.8317,-54.0883 478.1541,-25.4397 594.2806,-14.3988"/>
<polygon fill="#191970" stroke="#191970" points="594.6544,-17.8791 604.2782,-13.4482 593.9918,-10.9105 594.6544,-17.8791"/>
</g>
<!-- Node8&#45;&gt;Node6 -->
<g id="edge9" class="edge">
<title>Node8&#45;&gt;Node6</title>
<path fill="none" stroke="#191970" d="M640.5464,-56.2455C640.5464,-48.9382 640.5464,-38.6944 640.5464,-29.7046"/>
<polygon fill="#191970" stroke="#191970" points="644.0465,-29.6426 640.5464,-19.6427 637.0465,-29.6427 644.0465,-29.6426"/>
</g>
<!-- Node9&#45;&gt;Node6 -->
<g id="edge11" class="edge">
<title>Node9&#45;&gt;Node6</title>
<path fill="none" stroke="#191970" d="M227.625,-168.2627C219.138,-145.4159 202.0284,-87.8964 230.5464,-56 254.4609,-29.2523 492.1076,-16.1951 594.2643,-11.7834"/>
<polygon fill="#191970" stroke="#191970" points="594.4528,-15.2786 604.2959,-11.3592 594.157,-8.2849 594.4528,-15.2786"/>
</g>
<!-- Node10&#45;&gt;Node6 -->
<g id="edge13" class="edge">
<title>Node10&#45;&gt;Node6</title>
<path fill="none" stroke="#191970" d="M313.5555,-58.5282C318.2584,-57.6421 323.0109,-56.7775 327.5464,-56 421.9622,-39.8151 533.0097,-24.3323 594.2032,-16.1072"/>
<polygon fill="#191970" stroke="#191970" points="594.8632,-19.5501 604.3102,-14.7538 593.9341,-12.6121 594.8632,-19.5501"/>
</g>
<!-- Node11&#45;&gt;Node6 -->
<g id="edge15" class="edge">
<title>Node11&#45;&gt;Node6</title>
<path fill="none" stroke="#191970" d="M406.0665,-112.4425C430.9347,-99.0455 478.0638,-74.2765 519.5464,-56 547.2022,-43.8153 579.1904,-31.739 603.3287,-23.0193"/>
<polygon fill="#191970" stroke="#191970" points="604.5943,-26.2837 612.8269,-19.6147 602.2323,-19.6942 604.5943,-26.2837"/>
</g>
<!-- Node13&#45;&gt;Node6 -->
<g id="edge18" class="edge">
<title>Node13&#45;&gt;Node6</title>
<path fill="none" stroke="#191970" d="M318.4648,-112.0419C324.8648,-97.1954 339.0429,-69.5557 360.5464,-56 398.5994,-32.0116 524.8546,-18.839 594.1033,-13.2586"/>
<polygon fill="#191970" stroke="#191970" points="594.602,-16.7303 604.2976,-12.4588 594.0544,-9.7518 594.602,-16.7303"/>
</g>
<!-- Node14 -->
<g id="node14" class="node">
<title>Node14</title>
<g id="a_node14"><a xlink:href="packet2__types_8h.html" target="_top" xlink:title=" ">
<polygon fill="#ffffff" stroke="#000000" points="370.0464,-56.5 370.0464,-75.5 467.0464,-75.5 467.0464,-56.5 370.0464,-56.5"/>
<text text-anchor="middle" x="418.5464" y="-63.5" font-family="Helvetica,sans-Serif" font-size="10.00" fill="#000000">packet2_types.h</text>
</a>
</g>
</g>
<!-- Node13&#45;&gt;Node14 -->
<g id="edge19" class="edge">
<title>Node13&#45;&gt;Node14</title>
<path fill="none" stroke="#191970" d="M332.6618,-112.2455C348.9914,-103.4527 373.2174,-90.4079 391.7803,-80.4125"/>
<polygon fill="#191970" stroke="#191970" points="393.4932,-83.4654 400.6385,-75.6427 390.1744,-77.3021 393.4932,-83.4654"/>
</g>
<!-- Node14&#45;&gt;Node6 -->
<g id="edge20" class="edge">
<title>Node14&#45;&gt;Node6</title>
<path fill="none" stroke="#191970" d="M456.4573,-56.4369C494.669,-46.7979 553.6834,-31.9114 594.5487,-21.603"/>
<polygon fill="#191970" stroke="#191970" points="595.4249,-24.9917 604.2651,-19.152 593.7127,-18.2043 595.4249,-24.9917"/>
</g>
<!-- Node16 -->
<g id="node16" class="node">
<title>Node16</title>
<g id="a_node16"><a xlink:href="graph__vram_8h.html" target="_top" xlink:title=" ">
<polygon fill="#ffffff" stroke="#000000" points="1201.5464,-168.5 1201.5464,-187.5 1285.5464,-187.5 1285.5464,-168.5 1201.5464,-168.5"/>
<text text-anchor="middle" x="1243.5464" y="-175.5" font-family="Helvetica,sans-Serif" font-size="10.00" fill="#000000">graph_vram.h</text>
</a>
</g>
</g>
<!-- Node15&#45;&gt;Node16 -->
<g id="edge22" class="edge">
<title>Node15&#45;&gt;Node16</title>
<path fill="none" stroke="#191970" d="M1003.2254,-226.3512C1006.3587,-225.5235 1009.5174,-224.7212 1012.5464,-224 1045.7572,-216.0923 1133.9175,-198.9306 1191.2177,-187.9508"/>
<polygon fill="#191970" stroke="#191970" points="1192.0226,-191.3604 1201.1866,-186.0433 1190.7069,-184.4851 1192.0226,-191.3604"/>
</g>
<!-- Node17&#45;&gt;Node6 -->
<g id="edge24" class="edge">
<title>Node17&#45;&gt;Node6</title>
<path fill="none" stroke="#191970" d="M759.4138,-224.1269C763.9718,-211.194 770.46,-187.83 766.5464,-168 755.9201,-114.1573 751.8039,-96.2967 714.5464,-56 702.4156,-42.8797 685.7241,-32.0735 671.2636,-24.2392"/>
<polygon fill="#191970" stroke="#191970" points="672.6435,-21.0125 662.1535,-19.5258 669.4267,-27.2297 672.6435,-21.0125"/>
</g>
<!-- Node18 -->
<g id="node18" class="node">
<title>Node18</title>
<g id="a_node18"><a xlink:href="draw__blending_8h.html" target="_top" xlink:title=" ">
<polygon fill="#ffffff" stroke="#000000" points="771.0464,-56.5 771.0464,-75.5 868.0464,-75.5 868.0464,-56.5 771.0464,-56.5"/>
<text text-anchor="middle" x="819.5464" y="-63.5" font-family="Helvetica,sans-Serif" font-size="10.00" fill="#000000">draw_blending.h</text>
</a>
</g>
</g>
<!-- Node17&#45;&gt;Node18 -->
<g id="edge25" class="edge">
<title>Node17&#45;&gt;Node18</title>
<path fill="none" stroke="#191970" d="M768.5329,-224.161C778.6787,-215.7229 792.2437,-202.6351 799.5464,-188 816.0839,-154.8576 819.4137,-110.9594 819.8276,-85.8668"/>
<polygon fill="#191970" stroke="#191970" points="823.3277,-85.7749 819.8496,-75.7673 816.3278,-85.7596 823.3277,-85.7749"/>
</g>
<!-- Node19 -->
<g id="node19" class="node">
<title>Node19</title>
<g id="a_node19"><a xlink:href="draw__buffers_8h.html" target="_top" xlink:title=" ">
<polygon fill="#ffffff" stroke="#000000" points="852.0464,-112.5 852.0464,-131.5 941.0464,-131.5 941.0464,-112.5 852.0464,-112.5"/>
<text text-anchor="middle" x="896.5464" y="-119.5" font-family="Helvetica,sans-Serif" font-size="10.00" fill="#000000">draw_buffers.h</text>
</a>
</g>
</g>
<!-- Node17&#45;&gt;Node19 -->
<g id="edge27" class="edge">
<title>Node17&#45;&gt;Node19</title>
<path fill="none" stroke="#191970" d="M776.9553,-224.4202C794.2424,-216.1326 818.7053,-203.1206 837.5464,-188 855.2152,-173.8201 872.098,-154.0875 883.2418,-139.8981"/>
<polygon fill="#191970" stroke="#191970" points="886.0842,-141.9432 889.3945,-131.8788 880.5305,-137.6822 886.0842,-141.9432"/>
</g>
<!-- Node20 -->
<g id="node20" class="node">
<title>Node20</title>
<g id="a_node20"><a xlink:href="draw__dithering_8h.html" target="_top" xlink:title=" ">
<polygon fill="#ffffff" stroke="#000000" points="962.5464,-56.5 962.5464,-75.5 1060.5464,-75.5 1060.5464,-56.5 962.5464,-56.5"/>
<text text-anchor="middle" x="1011.5464" y="-63.5" font-family="Helvetica,sans-Serif" font-size="10.00" fill="#000000">draw_dithering.h</text>
</a>
</g>
</g>
<!-- Node17&#45;&gt;Node20 -->
<g id="edge29" class="edge">
<title>Node17&#45;&gt;Node20</title>
<path fill="none" stroke="#191970" d="M780.3531,-226.3993C783.4368,-225.5446 786.5561,-224.7227 789.5464,-224 872.6636,-203.9119 915.8295,-246.1257 978.5464,-188 1007.1315,-161.5074 1011.9362,-113.0446 1012.1989,-85.8538"/>
<polygon fill="#191970" stroke="#191970" points="1015.6963,-85.591 1012.0894,-75.629 1008.6967,-85.666 1015.6963,-85.591"/>
</g>
<!-- Node21 -->
<g id="node21" class="node">
<title>Node21</title>
<g id="a_node21"><a xlink:href="draw__fog_8h.html" target="_top" xlink:title=" ">
<polygon fill="#ffffff" stroke="#000000" points="1036.0464,-112.5 1036.0464,-131.5 1107.0464,-131.5 1107.0464,-112.5 1036.0464,-112.5"/>
<text text-anchor="middle" x="1071.5464" y="-119.5" font-family="Helvetica,sans-Serif" font-size="10.00" fill="#000000">draw_fog.h</text>
</a>
</g>
</g>
<!-- Node17&#45;&gt;Node21 -->
<g id="edge31" class="edge">
<title>Node17&#45;&gt;Node21</title>
<path fill="none" stroke="#191970" d="M780.3299,-226.2995C783.4176,-225.4619 786.5441,-224.6714 789.5464,-224 891.3765,-201.229 931.9525,-241.4868 1021.5464,-188 1040.1765,-176.878 1054.2194,-155.9276 1062.6079,-140.6048"/>
<polygon fill="#191970" stroke="#191970" points="1065.826,-142.0005 1067.2953,-131.508 1059.6035,-138.7941 1065.826,-142.0005"/>
</g>
<!-- Node22 -->
<g id="node22" class="node">
<title>Node22</title>
<g id="a_node22"><a xlink:href="draw__masking_8h.html" target="_top" xlink:title=" ">
<polygon fill="#ffffff" stroke="#000000" points="1117.0464,-56.5 1117.0464,-75.5 1214.0464,-75.5 1214.0464,-56.5 1117.0464,-56.5"/>
<text text-anchor="middle" x="1165.5464" y="-63.5" font-family="Helvetica,sans-Serif" font-size="10.00" fill="#000000">draw_masking.h</text>
</a>
</g>
</g>
<!-- Node17&#45;&gt;Node22 -->
<g id="edge33" class="edge">
<title>Node17&#45;&gt;Node22</title>
<path fill="none" stroke="#191970" d="M780.3208,-226.258C783.41,-225.4275 786.5394,-224.65 789.5464,-224 901.85,-199.725 939.8884,-233.1418 1045.5464,-188 1095.8648,-166.5017 1135.8931,-112.7888 1154.3925,-84.3428"/>
<polygon fill="#191970" stroke="#191970" points="1157.4408,-86.0708 1159.8246,-75.7476 1151.5235,-82.3311 1157.4408,-86.0708"/>
</g>
<!-- Node23 -->
<g id="node23" class="node">
<title>Node23</title>
<g id="a_node23"><a xlink:href="draw__primitives_8h.html" target="_top" xlink:title=" ">
<polygon fill="#ffffff" stroke="#000000" points="477.5464,-112.5 477.5464,-131.5 581.5464,-131.5 581.5464,-112.5 477.5464,-112.5"/>
<text text-anchor="middle" x="529.5464" y="-119.5" font-family="Helvetica,sans-Serif" font-size="10.00" fill="#000000">draw_primitives.h</text>
</a>
</g>
</g>
<!-- Node17&#45;&gt;Node23 -->
<g id="edge35" class="edge">
<title>Node17&#45;&gt;Node23</title>
<path fill="none" stroke="#191970" d="M736.2777,-224.4509C696.4154,-204.6961 604.7247,-159.2565 558.0158,-136.1088"/>
<polygon fill="#191970" stroke="#191970" points="559.2805,-132.8293 548.7662,-131.5249 556.1721,-139.1014 559.2805,-132.8293"/>
</g>
<!-- Node24 -->
<g id="node24" class="node">
<title>Node24</title>
<g id="a_node24"><a xlink:href="draw__sampling_8h.html" target="_top" xlink:title=" ">
<polygon fill="#ffffff" stroke="#000000" points="1177.5464,-112.5 1177.5464,-131.5 1277.5464,-131.5 1277.5464,-112.5 1177.5464,-112.5"/>
<text text-anchor="middle" x="1227.5464" y="-119.5" font-family="Helvetica,sans-Serif" font-size="10.00" fill="#000000">draw_sampling.h</text>
</a>
</g>
</g>
<!-- Node17&#45;&gt;Node24 -->
<g id="edge37" class="edge">
<title>Node17&#45;&gt;Node24</title>
<path fill="none" stroke="#191970" d="M780.2967,-226.1408C783.3901,-225.3304 786.527,-224.5896 789.5464,-224 947.3632,-193.1804 1001.5019,-250.7603 1149.5464,-188 1175.1365,-177.1516 1198.6215,-154.8582 1212.9917,-139.1938"/>
<polygon fill="#191970" stroke="#191970" points="1215.6197,-141.5055 1219.6384,-131.7023 1210.3835,-136.8597 1215.6197,-141.5055"/>
</g>
<!-- Node25 -->
<g id="node25" class="node">
<title>Node25</title>
<g id="a_node25"><a xlink:href="draw__tests_8h.html" target="_top" xlink:title=" ">
<polygon fill="#ffffff" stroke="#000000" points="890.0464,-168.5 890.0464,-187.5 969.0464,-187.5 969.0464,-168.5 890.0464,-168.5"/>
<text text-anchor="middle" x="929.5464" y="-175.5" font-family="Helvetica,sans-Serif" font-size="10.00" fill="#000000">draw_tests.h</text>
</a>
</g>
</g>
<!-- Node17&#45;&gt;Node25 -->
<g id="edge39" class="edge">
<title>Node17&#45;&gt;Node25</title>
<path fill="none" stroke="#191970" d="M780.1073,-226.0953C808.7552,-216.8753 856.4941,-201.5111 890.2979,-190.6317"/>
<polygon fill="#191970" stroke="#191970" points="891.4226,-193.9466 899.8694,-187.5512 889.278,-187.2832 891.4226,-193.9466"/>
</g>
<!-- Node26 -->
<g id="node26" class="node">
<title>Node26</title>
<g id="a_node26"><a xlink:href="draw__types_8h.html" target="_top" xlink:title=" ">
<polygon fill="#ffffff" stroke="#000000" points="637.5464,-112.5 637.5464,-131.5 719.5464,-131.5 719.5464,-112.5 637.5464,-112.5"/>
<text text-anchor="middle" x="678.5464" y="-119.5" font-family="Helvetica,sans-Serif" font-size="10.00" fill="#000000">draw_types.h</text>
</a>
</g>
</g>
<!-- Node17&#45;&gt;Node26 -->
<g id="edge42" class="edge">
<title>Node17&#45;&gt;Node26</title>
<path fill="none" stroke="#191970" d="M731.7187,-224.4746C716.1971,-216.9654 696.9601,-204.9203 686.5464,-188 678.0493,-174.1939 676.4679,-155.6703 676.7713,-141.7615"/>
<polygon fill="#191970" stroke="#191970" points="680.266,-141.9524 677.3227,-131.7746 673.2767,-141.5664 680.266,-141.9524"/>
</g>
<!-- Node27 -->
<g id="node27" class="node">
<title>Node27</title>
<g id="a_node27"><a xlink:href="draw2d_8h.html" target="_top" xlink:title=" ">
<polygon fill="#ffffff" stroke="#000000" points="695.5464,-168.5 695.5464,-187.5 757.5464,-187.5 757.5464,-168.5 695.5464,-168.5"/>
<text text-anchor="middle" x="726.5464" y="-175.5" font-family="Helvetica,sans-Serif" font-size="10.00" fill="#000000">draw2d.h</text>
</a>
</g>
</g>
<!-- Node17&#45;&gt;Node27 -->
<g id="edge44" class="edge">
<title>Node17&#45;&gt;Node27</title>
<path fill="none" stroke="#191970" d="M750.4949,-224.2455C746.5445,-216.617 740.9366,-205.7881 736.1406,-196.5267"/>
<polygon fill="#191970" stroke="#191970" points="739.2465,-194.9131 731.5399,-187.6427 733.0305,-198.1321 739.2465,-194.9131"/>
</g>
<!-- Node17&#45;&gt;Node28 -->
<g id="edge47" class="edge">
<title>Node17&#45;&gt;Node28</title>
<path fill="none" stroke="#191970" d="M730.9302,-227.9004C692.3474,-218.3401 617.2162,-199.7235 570.4259,-188.1294"/>
<polygon fill="#191970" stroke="#191970" points="571.1578,-184.705 560.6095,-185.6971 569.4741,-191.4995 571.1578,-184.705"/>
</g>
<!-- Node18&#45;&gt;Node6 -->
<g id="edge26" class="edge">
<title>Node18&#45;&gt;Node6</title>
<path fill="none" stroke="#191970" d="M788.7752,-56.3733C758.8813,-47.021 713.3371,-32.7725 680.6247,-22.5385"/>
<polygon fill="#191970" stroke="#191970" points="681.5049,-19.1466 670.916,-19.5011 679.4148,-25.8273 681.5049,-19.1466"/>
</g>
<!-- Node19&#45;&gt;Node6 -->
<g id="edge28" class="edge">
<title>Node19&#45;&gt;Node6</title>
<path fill="none" stroke="#191970" d="M896.7145,-112.3164C896.405,-97.8283 893.5558,-70.6505 877.5464,-56 850.2165,-30.9901 747.6241,-18.5862 686.7413,-13.3041"/>
<polygon fill="#191970" stroke="#191970" points="686.8731,-9.803 676.6163,-12.4579 686.29,-16.7787 686.8731,-9.803"/>
</g>
<!-- Node20&#45;&gt;Node6 -->
<g id="edge30" class="edge">
<title>Node20&#45;&gt;Node6</title>
<path fill="none" stroke="#191970" d="M962.3724,-58.15C957.7001,-57.4176 953.0339,-56.6913 948.5464,-56 855.6027,-41.6832 746.7728,-25.5857 686.5511,-16.7366"/>
<polygon fill="#191970" stroke="#191970" points="687.0024,-13.2654 676.5999,-15.2753 685.9853,-20.1911 687.0024,-13.2654"/>
</g>
<!-- Node21&#45;&gt;Node6 -->
<g id="edge32" class="edge">
<title>Node21&#45;&gt;Node6</title>
<path fill="none" stroke="#191970" d="M1074.6956,-112.4808C1078.7537,-98.2076 1083.7241,-71.3064 1069.5464,-56 1043.8689,-28.2784 792.1454,-15.6791 686.6701,-11.5857"/>
<polygon fill="#191970" stroke="#191970" points="686.7591,-8.0866 676.6335,-11.2048 686.4936,-15.0816 686.7591,-8.0866"/>
</g>
<!-- Node22&#45;&gt;Node6 -->
<g id="edge34" class="edge">
<title>Node22&#45;&gt;Node6</title>
<path fill="none" stroke="#191970" d="M1116.7478,-57.967C1111.9545,-57.2644 1107.1594,-56.5953 1102.5464,-56 950.7531,-36.413 769.9695,-20.5755 686.7083,-13.7009"/>
<polygon fill="#191970" stroke="#191970" points="686.8231,-10.1987 676.5701,-12.8685 686.2501,-17.1752 686.8231,-10.1987"/>
</g>
<!-- Node23&#45;&gt;Node6 -->
<g id="edge36" class="edge">
<title>Node23&#45;&gt;Node6</title>
<path fill="none" stroke="#191970" d="M539.0102,-112.4509C557.8513,-93.4401 600.2669,-50.6423 623.8805,-26.816"/>
<polygon fill="#191970" stroke="#191970" points="626.5532,-29.0914 631.1065,-19.5249 621.5812,-24.1639 626.5532,-29.0914"/>
</g>
<!-- Node24&#45;&gt;Node6 -->
<g id="edge38" class="edge">
<title>Node24&#45;&gt;Node6</title>
<path fill="none" stroke="#191970" d="M1230.4062,-112.3807C1234.0307,-97.9767 1238.1844,-70.9071 1223.5464,-56 1204.8057,-36.9149 821.7726,-18.0763 686.9774,-12.0139"/>
<polygon fill="#191970" stroke="#191970" points="687.1049,-8.5162 676.9586,-11.5664 686.7924,-15.5093 687.1049,-8.5162"/>
</g>
<!-- Node25&#45;&gt;Node6 -->
<g id="edge40" class="edge">
<title>Node25&#45;&gt;Node6</title>
<path fill="none" stroke="#191970" d="M936.7106,-168.4526C945.5137,-155.4838 958.3753,-131.6615 950.5464,-112 937.8692,-80.1627 927.7012,-72.279 897.5464,-56 861.9361,-36.776 750.9705,-21.9902 687.0946,-14.8039"/>
<polygon fill="#191970" stroke="#191970" points="687.2097,-11.2954 676.8856,-13.6749 686.4402,-18.253 687.2097,-11.2954"/>
</g>
<!-- Node25&#45;&gt;Node19 -->
<g id="edge41" class="edge">
<title>Node25&#45;&gt;Node19</title>
<path fill="none" stroke="#191970" d="M923.7982,-168.2455C919.3028,-160.617 912.9215,-149.7881 907.4639,-140.5267"/>
<polygon fill="#191970" stroke="#191970" points="910.321,-138.4811 902.2286,-131.6427 904.2902,-142.035 910.321,-138.4811"/>
</g>
<!-- Node26&#45;&gt;Node8 -->
<g id="edge43" class="edge">
<title>Node26&#45;&gt;Node8</title>
<path fill="none" stroke="#191970" d="M671.9273,-112.2455C666.6418,-104.4564 659.0922,-93.3308 652.7226,-83.9439"/>
<polygon fill="#191970" stroke="#191970" points="655.6008,-81.9522 647.0896,-75.6427 649.8085,-85.8827 655.6008,-81.9522"/>
</g>
<!-- Node27&#45;&gt;Node6 -->
<g id="edge45" class="edge">
<title>Node27&#45;&gt;Node6</title>
<path fill="none" stroke="#191970" d="M729.0322,-168.2467C731.9145,-155.0446 735.448,-130.9588 728.5464,-112 715.4095,-75.913 682.9204,-44.1552 661.3095,-26.0197"/>
<polygon fill="#191970" stroke="#191970" points="663.314,-23.1384 653.3491,-19.5394 658.8947,-28.567 663.314,-23.1384"/>
</g>
<!-- Node27&#45;&gt;Node26 -->
<g id="edge46" class="edge">
<title>Node27&#45;&gt;Node26</title>
<path fill="none" stroke="#191970" d="M718.1854,-168.2455C711.3713,-160.2958 701.5783,-148.8706 693.4311,-139.3656"/>
<polygon fill="#191970" stroke="#191970" points="695.9769,-136.9575 686.8115,-131.6427 690.662,-141.513 695.9769,-136.9575"/>
</g>
<!-- Node28&#45;&gt;Node6 -->
<g id="edge48" class="edge">
<title>Node28&#45;&gt;Node6</title>
<path fill="none" stroke="#191970" d="M509.0747,-168.4625C486.6257,-156.5901 455.4183,-135.0481 468.5464,-112 476.6844,-97.7125 566.973,-48.7113 613.3673,-24.1995"/>
<polygon fill="#191970" stroke="#191970" points="615.0721,-27.2574 622.2899,-19.5015 611.8108,-21.0636 615.0721,-27.2574"/>
</g>
<!-- Node28&#45;&gt;Node11 -->
<g id="edge51" class="edge">
<title>Node28&#45;&gt;Node11</title>
<path fill="none" stroke="#191970" d="M505.3076,-168.3733C482.2674,-159.2226 447.425,-145.3844 421.7963,-135.2057"/>
<polygon fill="#191970" stroke="#191970" points="423.0546,-131.9395 412.4688,-131.5011 420.4707,-138.4452 423.0546,-131.9395"/>
</g>
<!-- Node28&#45;&gt;Node23 -->
<g id="edge49" class="edge">
<title>Node28&#45;&gt;Node23</title>
<path fill="none" stroke="#191970" d="M529.5464,-168.2455C529.5464,-160.9382 529.5464,-150.6944 529.5464,-141.7046"/>
<polygon fill="#191970" stroke="#191970" points="533.0465,-141.6426 529.5464,-131.6427 526.0465,-141.6427 533.0465,-141.6426"/>
</g>
<!-- Node28&#45;&gt;Node26 -->
<g id="edge50" class="edge">
<title>Node28&#45;&gt;Node26</title>
<path fill="none" stroke="#191970" d="M555.1604,-168.3733C579.615,-159.1822 616.6518,-145.2624 643.7672,-135.0713"/>
<polygon fill="#191970" stroke="#191970" points="645.1372,-138.2956 653.2666,-131.5011 642.6745,-131.7431 645.1372,-138.2956"/>
</g>
</g>
</svg>
        <g id="navigator" transform="translate(0 0)" fill="#404254">
                <rect fill="#f2f5e9" fill-opacity="0.5" stroke="#606060" stroke-width=".5" x="0" y="0" width="60" height="60"/>
                <use id="zoomplus" xlink:href="#zoomPlus" x="17" y="9" onmousedown="handleZoom(evt,'in')"/>
                <use id="zoomminus" xlink:href="#zoomMin" x="42" y="9" onmousedown="handleZoom(evt,'out')"/>
                <use id="reset" xlink:href="#resetDef" x="30" y="36" onmousedown="handleReset()"/>
                <g id="arrowUp" xlink:href="#dirArrow" transform="translate(30 24)" onmousedown="handlePan(0,-1)">
                  <use xlink:href="#rim" fill="#404040">
                        <set attributeName="fill" to="#808080" begin="arrowUp.mouseover" end="arrowUp.mouseout"/>
                  </use>
                  <path fill="none" stroke="white" stroke-width="1.5" d="M0,-3.0v7 M-2.5,-0.5L0,-3.0L2.5,-0.5"/>
                </g>
                <g id="arrowRight" xlink:href="#dirArrow" transform="rotate(90) translate(36 -43)" onmousedown="handlePan(1,0)">
                  <use xlink:href="#rim" fill="#404040">
                        <set attributeName="fill" to="#808080" begin="arrowRight.mouseover" end="arrowRight.mouseout"/>
                  </use>
                  <path fill="none" stroke="white" stroke-width="1.5" d="M0,-3.0v7 M-2.5,-0.5L0,-3.0L2.5,-0.5"/>
                </g>
                <g id="arrowDown" xlink:href="#dirArrow" transform="rotate(180) translate(-30 -48)" onmousedown="handlePan(0,1)">
                  <use xlink:href="#rim" fill="#404040">
                        <set attributeName="fill" to="#808080" begin="arrowDown.mouseover" end="arrowDown.mouseout"/>
                  </use>
                  <path fill="none" stroke="white" stroke-width="1.5" d="M0,-3.0v7 M-2.5,-0.5L0,-3.0L2.5,-0.5"/>
                </g>
                <g id="arrowLeft" xlink:href="#dirArrow" transform="rotate(270) translate(-36 17)" onmousedown="handlePan(-1,0)">
                  <use xlink:href="#rim" fill="#404040">
                        <set attributeName="fill" to="#808080" begin="arrowLeft.mouseover" end="arrowLeft.mouseout"/>
                  </use>
                  <path fill="none" stroke="white" stroke-width="1.5" d="M0,-3.0v7 M-2.5,-0.5L0,-3.0L2.5,-0.5"/>
                </g>
        </g>
        <svg viewBox="0 0 15 15" width="100%" height="30px" preserveAspectRatio="xMaxYMin meet">
         <g id="arrow_out" transform="scale(0.3 0.3)">
          <a xlink:href="cube_8c__incl_org.svg" target="_base">
           <rect id="button" ry="5" rx="5" y="6" x="6" height="38" width="38"
                fill="#f2f5e9" fill-opacity="0.5" stroke="#606060" stroke-width="1.0"/>
           <path id="arrow"
             d="M 11.500037,31.436501 C 11.940474,20.09759 22.043105,11.32322 32.158766,21.979434 L 37.068811,17.246167 C 37.068811,17.246167 37.088388,32 37.088388,32 L 22.160133,31.978069 C 22.160133,31.978069 26.997745,27.140456 26.997745,27.140456 C 18.528582,18.264221 13.291696,25.230495 11.500037,31.436501 z"
             style="fill:#404040;"/>
          </a>
         </g>
        </svg>
</svg>
