<?xml version="1.0" encoding="UTF-8" standalone="no"?>
<!DOCTYPE svg PUBLIC "-//W3C//DTD SVG 1.1//EN"
 "http://www.w3.org/Graphics/SVG/1.1/DTD/svg11.dtd">
<!-- Generated by graphviz version 2.40.1 (20161225.0304)
 -->
<!-- Title: ee/debug/include/debug.h Pages: 1 -->
<svg width="980pt" height="95pt"
 viewBox="0.00 0.00 980.00 95.00" xmlns="http://www.w3.org/2000/svg" xmlns:xlink="http://www.w3.org/1999/xlink">
<g id="graph0" class="graph" transform="scale(1 1) rotate(0) translate(4 91)">
<title>ee/debug/include/debug.h</title>
<polygon fill="#ffffff" stroke="transparent" points="-4,4 -4,-91 976,-91 976,4 -4,4"/>
<!-- Node1 -->
<g id="node1" class="node">
<title>Node1</title>
<g id="a_node1"><a xlink:title=" ">
<polygon fill="#bfbfbf" stroke="#000000" points="442.5,-67.5 442.5,-86.5 584.5,-86.5 584.5,-67.5 442.5,-67.5"/>
<text text-anchor="middle" x="513.5" y="-74.5" font-family="Helvetica,sans-Serif" font-size="10.00" fill="#000000">ee/debug/include/debug.h</text>
</a>
</g>
</g>
<!-- Node2 -->
<g id="node2" class="node">
<title>Node2</title>
<g id="a_node2"><a xlink:href="callstacktest_8c.html" target="_top" xlink:title=" ">
<polygon fill="#ffffff" stroke="#000000" points="0,-.5 0,-30.5 171,-30.5 171,-.5 0,-.5"/>
<text text-anchor="start" x="8" y="-18.5" font-family="Helvetica,sans-Serif" font-size="10.00" fill="#000000">ee/debug/samples/callstacktest</text>
<text text-anchor="middle" x="85.5" y="-7.5" font-family="Helvetica,sans-Serif" font-size="10.00" fill="#000000">/callstacktest.c</text>
</a>
</g>
</g>
<!-- Node1&#45;&gt;Node2 -->
<g id="edge1" class="edge">
<title>Node1&#45;&gt;Node2</title>
<path fill="none" stroke="#191970" d="M432.157,-66.3287C364.6858,-57.3415 266.2697,-43.9191 180.5,-31 177.4429,-30.5395 174.3316,-30.0647 171.1897,-29.5799"/>
<polygon fill="#191970" stroke="#191970" points="431.9232,-69.8283 442.2973,-67.677 432.8459,-62.8894 431.9232,-69.8283"/>
</g>
<!-- Node3 -->
<g id="node3" class="node">
<title>Node3</title>
<g id="a_node3"><a xlink:href="helloworld_8c.html" target="_top" xlink:title=" ">
<polygon fill="#ffffff" stroke="#000000" points="189.5,-.5 189.5,-30.5 349.5,-30.5 349.5,-.5 189.5,-.5"/>
<text text-anchor="start" x="197.5" y="-18.5" font-family="Helvetica,sans-Serif" font-size="10.00" fill="#000000">ee/debug/samples/helloworld</text>
<text text-anchor="middle" x="269.5" y="-7.5" font-family="Helvetica,sans-Serif" font-size="10.00" fill="#000000">/helloworld.c</text>
</a>
</g>
</g>
<!-- Node1&#45;&gt;Node3 -->
<g id="edge2" class="edge">
<title>Node1&#45;&gt;Node3</title>
<path fill="none" stroke="#191970" d="M465.5914,-64.9247C426.5646,-55.088 371.2564,-41.1476 329.3233,-30.5784"/>
<polygon fill="#191970" stroke="#191970" points="465.0905,-68.4078 475.6427,-67.4581 466.8014,-61.6201 465.0905,-68.4078"/>
</g>
<!-- Node4 -->
<g id="node4" class="node">
<title>Node4</title>
<g id="a_node4"><a xlink:href="scr__printf_8c.html" target="_top" xlink:title=" ">
<polygon fill="#ffffff" stroke="#000000" points="368,-6 368,-25 503,-25 503,-6 368,-6"/>
<text text-anchor="middle" x="435.5" y="-13" font-family="Helvetica,sans-Serif" font-size="10.00" fill="#000000">ee/debug/src/scr_printf.c</text>
</a>
</g>
</g>
<!-- Node1&#45;&gt;Node4 -->
<g id="edge3" class="edge">
<title>Node1&#45;&gt;Node4</title>
<path fill="none" stroke="#191970" d="M493.3964,-61.1491C478.9035,-49.722 459.8194,-34.6749 447.6019,-25.0419"/>
<polygon fill="#191970" stroke="#191970" points="491.2927,-63.9475 501.3125,-67.3906 495.6268,-58.4506 491.2927,-63.9475"/>
</g>
<!-- Node5 -->
<g id="node5" class="node">
<title>Node5</title>
<g id="a_node5"><a xlink:href="samples_2tcpip__basic_2ps2ip_8c.html" target="_top" xlink:title=" ">
<polygon fill="#ffffff" stroke="#000000" points="521,-.5 521,-30.5 664,-30.5 664,-.5 521,-.5"/>
<text text-anchor="start" x="529" y="-18.5" font-family="Helvetica,sans-Serif" font-size="10.00" fill="#000000">ee/network/tcpip/samples</text>
<text text-anchor="middle" x="592.5" y="-7.5" font-family="Helvetica,sans-Serif" font-size="10.00" fill="#000000">/tcpip_basic/ps2ip.c</text>
</a>
</g>
</g>
<!-- Node1&#45;&gt;Node5 -->
<g id="edge4" class="edge">
<title>Node1&#45;&gt;Node5</title>
<path fill="none" stroke="#191970" d="M534.0035,-61.0385C546.0922,-51.6276 561.2967,-39.7911 573.1744,-30.5446"/>
<polygon fill="#191970" stroke="#191970" points="531.5846,-58.4859 525.8438,-67.3906 535.8846,-64.0095 531.5846,-58.4859"/>
</g>
<!-- Node6 -->
<g id="node6" class="node">
<title>Node6</title>
<g id="a_node6"><a xlink:href="samples_2tcpip__dhcp_2ps2ip_8c.html" target="_top" xlink:title=" ">
<polygon fill="#ffffff" stroke="#000000" points="682,-.5 682,-30.5 825,-30.5 825,-.5 682,-.5"/>
<text text-anchor="start" x="690" y="-18.5" font-family="Helvetica,sans-Serif" font-size="10.00" fill="#000000">ee/network/tcpip/samples</text>
<text text-anchor="middle" x="753.5" y="-7.5" font-family="Helvetica,sans-Serif" font-size="10.00" fill="#000000">/tcpip_dhcp/ps2ip.c</text>
</a>
</g>
</g>
<!-- Node1&#45;&gt;Node6 -->
<g id="edge5" class="edge">
<title>Node1&#45;&gt;Node6</title>
<path fill="none" stroke="#191970" d="M560.6232,-64.9247C599.0102,-55.088 653.4117,-41.1476 694.6574,-30.5784"/>
<polygon fill="#191970" stroke="#191970" points="559.5549,-61.5853 550.7367,-67.4581 561.2925,-68.3662 559.5549,-61.5853"/>
</g>
<!-- Node7 -->
<g id="node7" class="node">
<title>Node7</title>
<g id="a_node7"><a xlink:href="remote_8c.html" target="_top" xlink:title=" ">
<polygon fill="#ffffff" stroke="#000000" points="843,-.5 843,-30.5 972,-30.5 972,-.5 843,-.5"/>
<text text-anchor="start" x="851" y="-18.5" font-family="Helvetica,sans-Serif" font-size="10.00" fill="#000000">ee/rpc/remote/samples</text>
<text text-anchor="middle" x="907.5" y="-7.5" font-family="Helvetica,sans-Serif" font-size="10.00" fill="#000000">/remote.c</text>
</a>
</g>
</g>
<!-- Node1&#45;&gt;Node7 -->
<g id="edge6" class="edge">
<title>Node1&#45;&gt;Node7</title>
<path fill="none" stroke="#191970" d="M594.9852,-66.8536C660.0127,-58.3882 753.3397,-45.4149 834.5,-31 837.1789,-30.5242 839.9095,-30.0222 842.6653,-29.5014"/>
<polygon fill="#191970" stroke="#191970" points="594.2655,-63.4175 584.7979,-68.1731 595.1646,-70.3595 594.2655,-63.4175"/>
</g>
</g>
</svg>
