<?xml version="1.0" encoding="UTF-8" standalone="no"?>
<!DOCTYPE svg PUBLIC "-//W3C//DTD SVG 1.1//EN"
 "http://www.w3.org/Graphics/SVG/1.1/DTD/svg11.dtd">
<!-- Generated by graphviz version 2.40.1 (20161225.0304)
 -->
<!-- Title: ee/network/tcpip/src Pages: 1 -->
<svg width="164pt" height="303pt"
 viewBox="0.00 0.00 164.00 303.00" xmlns="http://www.w3.org/2000/svg" xmlns:xlink="http://www.w3.org/1999/xlink">
<g id="graph0" class="graph" transform="scale(1 1) rotate(0) translate(4 299)">
<title>ee/network/tcpip/src</title>
<polygon fill="#ffffff" stroke="transparent" points="-4,4 -4,-299 160,-299 160,4 -4,4"/>
<g id="clust1" class="cluster">
<title>clusterdir_ca24a423c1b235320d00c488564f2476</title>
<g id="a_clust1"><a xlink:href="dir_ca24a423c1b235320d00c488564f2476.html" target="_top" xlink:title="tcpip">
<polygon fill="#ddddee" stroke="#000000" points="8,-128 8,-287 94,-287 94,-128 8,-128"/>
<text text-anchor="middle" x="51" y="-275" font-family="Helvetica,sans-Serif" font-size="10.00" fill="#000000">tcpip</text>
</a>
</g>
</g>
<g id="clust2" class="cluster">
<title>clusterdir_72fd2ca65a98aa6f116e0a45d1317c83</title>
<g id="a_clust2"><a xlink:href="dir_72fd2ca65a98aa6f116e0a45d1317c83.html" target="_top">
<polygon fill="#eeeeff" stroke="#000000" points="16,-136 16,-260 86,-260 86,-136 16,-136"/>
</a>
</g>
</g>
<!-- dir_72fd2ca65a98aa6f116e0a45d1317c83 -->
<g id="node1" class="node">
<title>dir_72fd2ca65a98aa6f116e0a45d1317c83</title>
<text text-anchor="middle" x="51" y="-231.5" font-family="Helvetica,sans-Serif" font-size="10.00" fill="#000000">src</text>
</g>
<!-- dir_d809a6a3c5621df28b9f2ead765ca843 -->
<g id="node2" class="node">
<title>dir_d809a6a3c5621df28b9f2ead765ca843</title>
<g id="a_node2"><a xlink:href="dir_d809a6a3c5621df28b9f2ead765ca843.html" target="_top" xlink:title="include">
<polygon fill="#ffffff" stroke="#ff0000" points="78,-180 24,-180 24,-144 78,-144 78,-180"/>
<text text-anchor="middle" x="51" y="-159.5" font-family="Helvetica,sans-Serif" font-size="10.00" fill="#000000">include</text>
</a>
</g>
</g>
<!-- dir_72fd2ca65a98aa6f116e0a45d1317c83&#45;&gt;dir_d809a6a3c5621df28b9f2ead765ca843 -->
<g id="edge4" class="edge">
<title>dir_72fd2ca65a98aa6f116e0a45d1317c83&#45;&gt;dir_d809a6a3c5621df28b9f2ead765ca843</title>
<path fill="none" stroke="#000000" d="M51,-215.8314C51,-208.131 51,-198.9743 51,-190.4166"/>
<polygon fill="#000000" stroke="#000000" points="54.5001,-190.4132 51,-180.4133 47.5001,-190.4133 54.5001,-190.4132"/>
<g id="a_edge4&#45;headlabel"><a xlink:href="dir_000039_000130.html" target="_top" xlink:title="1">
<text text-anchor="middle" x="57.3393" y="-191.5079" font-family="Helvetica,sans-Serif" font-size="10.00" fill="#000000">1</text>
</a>
</g>
</g>
<!-- dir_a0a8ac7efb6662b749c1285408048e6d -->
<g id="node4" class="node">
<title>dir_a0a8ac7efb6662b749c1285408048e6d</title>
<g id="a_node4"><a xlink:href="dir_a0a8ac7efb6662b749c1285408048e6d.html" target="_top" xlink:title="erl">
<polygon fill="#ffffff" stroke="#ff0000" points="156,-180 102,-180 102,-144 156,-144 156,-180"/>
<text text-anchor="middle" x="129" y="-159.5" font-family="Helvetica,sans-Serif" font-size="10.00" fill="#000000">erl</text>
</a>
</g>
</g>
<!-- dir_72fd2ca65a98aa6f116e0a45d1317c83&#45;&gt;dir_a0a8ac7efb6662b749c1285408048e6d -->
<g id="edge3" class="edge">
<title>dir_72fd2ca65a98aa6f116e0a45d1317c83&#45;&gt;dir_a0a8ac7efb6662b749c1285408048e6d</title>
<path fill="none" stroke="#000000" d="M70.6827,-215.8314C80.1051,-207.1337 91.5401,-196.5783 101.7796,-187.1265"/>
<polygon fill="#000000" stroke="#000000" points="104.3495,-189.5175 109.3236,-180.1628 99.6016,-184.3738 104.3495,-189.5175"/>
<g id="a_edge3&#45;headlabel"><a xlink:href="dir_000039_000097.html" target="_top" xlink:title="1">
<text text-anchor="middle" x="103.634" y="-191.5419" font-family="Helvetica,sans-Serif" font-size="10.00" fill="#000000">1</text>
</a>
</g>
</g>
<!-- dir_694ec83a64f58cbdefbefce65cd1011c -->
<g id="node3" class="node">
<title>dir_694ec83a64f58cbdefbefce65cd1011c</title>
<g id="a_node3"><a xlink:href="dir_694ec83a64f58cbdefbefce65cd1011c.html" target="_top" xlink:title="kernel">
<polygon fill="#ffffff" stroke="#ff0000" points="133,-108 79,-108 79,-72 133,-72 133,-108"/>
<text text-anchor="middle" x="106" y="-87.5" font-family="Helvetica,sans-Serif" font-size="10.00" fill="#000000">kernel</text>
</a>
</g>
</g>
<!-- dir_d809a6a3c5621df28b9f2ead765ca843&#45;&gt;dir_694ec83a64f58cbdefbefce65cd1011c -->
<g id="edge7" class="edge">
<title>dir_d809a6a3c5621df28b9f2ead765ca843&#45;&gt;dir_694ec83a64f58cbdefbefce65cd1011c</title>
<path fill="none" stroke="#000000" d="M64.8788,-143.8314C71.2136,-135.5386 78.8384,-125.557 85.7926,-116.4533"/>
<polygon fill="#000000" stroke="#000000" points="88.6452,-118.4847 91.9343,-108.4133 83.0825,-114.2353 88.6452,-118.4847"/>
<g id="a_edge7&#45;headlabel"><a xlink:href="dir_000130_000025.html" target="_top" xlink:title="1">
<text text-anchor="middle" x="88.7195" y="-120.5647" font-family="Helvetica,sans-Serif" font-size="10.00" fill="#000000">1</text>
</a>
</g>
</g>
<!-- dir_bdd9a5d540de89e9fe90efdfc6973a4f -->
<g id="node5" class="node">
<title>dir_bdd9a5d540de89e9fe90efdfc6973a4f</title>
<g id="a_node5"><a xlink:href="dir_bdd9a5d540de89e9fe90efdfc6973a4f.html" target="_top" xlink:title="common">
<polygon fill="#ffffff" stroke="#ff0000" points="135.5,-36 76.5,-36 76.5,0 135.5,0 135.5,-36"/>
<text text-anchor="middle" x="106" y="-15.5" font-family="Helvetica,sans-Serif" font-size="10.00" fill="#000000">common</text>
</a>
</g>
</g>
<!-- dir_d809a6a3c5621df28b9f2ead765ca843&#45;&gt;dir_bdd9a5d540de89e9fe90efdfc6973a4f -->
<g id="edge8" class="edge">
<title>dir_d809a6a3c5621df28b9f2ead765ca843&#45;&gt;dir_bdd9a5d540de89e9fe90efdfc6973a4f</title>
<path fill="none" stroke="#000000" d="M52.7905,-143.8083C55.0888,-125.1875 60.0345,-95.7008 70,-72 73.9544,-62.5953 79.6152,-53.0879 85.2805,-44.727"/>
<polygon fill="#000000" stroke="#000000" points="88.1959,-46.6664 91.1147,-36.4815 82.4816,-42.6231 88.1959,-46.6664"/>
<g id="a_edge8&#45;headlabel"><a xlink:href="dir_000130_000000.html" target="_top" xlink:title="1">
<text text-anchor="middle" x="88.4374" y="-48.7406" font-family="Helvetica,sans-Serif" font-size="10.00" fill="#000000">1</text>
</a>
</g>
</g>
<!-- dir_694ec83a64f58cbdefbefce65cd1011c&#45;&gt;dir_a0a8ac7efb6662b749c1285408048e6d -->
<g id="edge2" class="edge">
<title>dir_694ec83a64f58cbdefbefce65cd1011c&#45;&gt;dir_a0a8ac7efb6662b749c1285408048e6d</title>
<path fill="none" stroke="#000000" d="M117.858,-108.4133C121.1021,-116.2292 124.2734,-125.5113 126.6934,-134.136"/>
<polygon fill="#000000" stroke="#000000" points="123.3007,-134.9965 129.1485,-143.8314 130.0866,-133.2781 123.3007,-134.9965"/>
<g id="a_edge2&#45;headlabel"><a xlink:href="dir_000025_000097.html" target="_top" xlink:title="1">
<text text-anchor="middle" x="119.666" y="-129.7089" font-family="Helvetica,sans-Serif" font-size="10.00" fill="#000000">1</text>
</a>
</g>
</g>
<!-- dir_694ec83a64f58cbdefbefce65cd1011c&#45;&gt;dir_bdd9a5d540de89e9fe90efdfc6973a4f -->
<g id="edge1" class="edge">
<title>dir_694ec83a64f58cbdefbefce65cd1011c&#45;&gt;dir_bdd9a5d540de89e9fe90efdfc6973a4f</title>
<path fill="none" stroke="#000000" d="M106,-71.8314C106,-64.131 106,-54.9743 106,-46.4166"/>
<polygon fill="#000000" stroke="#000000" points="109.5001,-46.4132 106,-36.4133 102.5001,-46.4133 109.5001,-46.4132"/>
<g id="a_edge1&#45;headlabel"><a xlink:href="dir_000025_000000.html" target="_top" xlink:title="24">
<text text-anchor="middle" x="112.3393" y="-47.5079" font-family="Helvetica,sans-Serif" font-size="10.00" fill="#000000">24</text>
</a>
</g>
</g>
<!-- dir_a0a8ac7efb6662b749c1285408048e6d&#45;&gt;dir_694ec83a64f58cbdefbefce65cd1011c -->
<g id="edge6" class="edge">
<title>dir_a0a8ac7efb6662b749c1285408048e6d&#45;&gt;dir_694ec83a64f58cbdefbefce65cd1011c</title>
<path fill="none" stroke="#000000" d="M117.2437,-143.8314C113.9982,-136.0463 110.8184,-126.7729 108.3828,-118.1347"/>
<polygon fill="#000000" stroke="#000000" points="111.7666,-117.2396 105.906,-108.4133 104.9833,-118.9678 111.7666,-117.2396"/>
<g id="a_edge6&#45;headlabel"><a xlink:href="dir_000097_000025.html" target="_top" xlink:title="1">
<text text-anchor="middle" x="115.4054" y="-117.522" font-family="Helvetica,sans-Serif" font-size="10.00" fill="#000000">1</text>
</a>
</g>
</g>
<!-- dir_a0a8ac7efb6662b749c1285408048e6d&#45;&gt;dir_bdd9a5d540de89e9fe90efdfc6973a4f -->
<g id="edge5" class="edge">
<title>dir_a0a8ac7efb6662b749c1285408048e6d&#45;&gt;dir_bdd9a5d540de89e9fe90efdfc6973a4f</title>
<path fill="none" stroke="#000000" d="M136.2013,-143.7225C142.4117,-125.288 149.3198,-96.1756 142,-72 139.0436,-62.2355 133.6748,-52.6229 127.97,-44.2762"/>
<polygon fill="#000000" stroke="#000000" points="130.7129,-42.0973 121.9905,-36.0831 125.0586,-46.2239 130.7129,-42.0973"/>
<g id="a_edge5&#45;headlabel"><a xlink:href="dir_000097_000000.html" target="_top" xlink:title="3">
<text text-anchor="middle" x="135.1253" y="-40.827" font-family="Helvetica,sans-Serif" font-size="10.00" fill="#000000">3</text>
</a>
</g>
</g>
</g>
</svg>
