<?xml version="1.0" encoding="UTF-8" standalone="no"?>
<!DOCTYPE svg PUBLIC "-//W3C//DTD SVG 1.1//EN"
 "http://www.w3.org/Graphics/SVG/1.1/DTD/svg11.dtd">
<!-- Generated by graphviz version 2.40.1 (20161225.0304)
 -->
<!-- Title: ee/rpc/audsrv/samples Pages: 1 -->
<!--zoomable 231 -->
<svg id="main" version="1.1" xmlns="http://www.w3.org/2000/svg" xmlns:xlink="http://www.w3.org/1999/xlink" xml:space="preserve" onload="init(evt)">
<style type="text/css"><![CDATA[
.edge:hover path { stroke: red; }
.edge:hover polygon { stroke: red; fill: red; }
]]></style>
<script type="text/javascript"><![CDATA[
var edges = document.getElementsByTagName('g');
if (edges && edges.length) {
  for (var i=0;i<edges.length;i++) {
    if (edges[i].id.substr(0,4)=='edge') {
      edges[i].setAttribute('class','edge');
    }
  }
}
]]></script>
        <defs>
                <circle id="rim" cx="0" cy="0" r="7"/>
                <circle id="rim2" cx="0" cy="0" r="3.5"/>
                <g id="zoomPlus">
                        <use xlink:href="#rim" fill="#404040">
                                <set attributeName="fill" to="#808080" begin="zoomplus.mouseover" end="zoomplus.mouseout"/>
                        </use>
                        <path d="M-4,0h8M0,-4v8" fill="none" stroke="white" stroke-width="1.5" pointer-events="none"/>
                </g>
                <g id="zoomMin">
                        <use xlink:href="#rim" fill="#404040">
                                <set attributeName="fill" to="#808080" begin="zoomminus.mouseover" end="zoomminus.mouseout"/>
                        </use>
                        <path d="M-4,0h8" fill="none" stroke="white" stroke-width="1.5" pointer-events="none"/>
                </g>
                <g id="dirArrow">
                        <path fill="none" stroke="white" stroke-width="1.5" d="M0,-3.0v7 M-2.5,-0.5L0,-3.0L2.5,-0.5"/>
                </g>
               <g id="resetDef">
                       <use xlink:href="#rim2" fill="#404040">
                               <set attributeName="fill" to="#808080" begin="reset.mouseover" end="reset.mouseout"/>
                       </use>
               </g>
        </defs>

<script type="text/javascript">
var viewWidth = 618;
var viewHeight = 231;
var sectionId = 'dynsection-0';
</script>
<script xlink:href="svgpan.js"/>
<svg id="graph" class="graph">
<g id="viewport">
<title>ee/rpc/audsrv/samples</title>
<polygon fill="#ffffff" stroke="transparent" points="-4,4 -4,-227 613.9363,-227 613.9363,4 -4,4"/>
<g id="clust1" class="cluster">
<title>clusterdir_2f702b7d905adcbb9469a6404dbe84ec</title>
<g id="a_clust1"><a xlink:href="dir_2f702b7d905adcbb9469a6404dbe84ec.html" target="_top" xlink:title="audsrv">
<polygon fill="#ddddee" stroke="#000000" points="8,-64 8,-215 497,-215 497,-64 8,-64"/>
<text text-anchor="middle" x="252.5" y="-203" font-family="Helvetica,sans-Serif" font-size="10.00" fill="#000000">audsrv</text>
</a>
</g>
</g>
<g id="clust2" class="cluster">
<title>clusterdir_9f1d4dad32d5a76206109e6adc44ba4d</title>
<g id="a_clust2"><a xlink:href="dir_9f1d4dad32d5a76206109e6adc44ba4d.html" target="_top">
<polygon fill="#eeeeff" stroke="#000000" points="16,-136 16,-188 489,-188 489,-136 16,-136"/>
</a>
</g>
</g>
<!-- dir_660bfe733945cea18d05bf7eea32d232 -->
<g id="node1" class="node">
<title>dir_660bfe733945cea18d05bf7eea32d232</title>
<g id="a_node1"><a xlink:href="dir_660bfe733945cea18d05bf7eea32d232.html" target="_top" xlink:title="include">
<polygon fill="none" stroke="#000000" points="234,-108 180,-108 180,-72 234,-72 234,-108"/>
<text text-anchor="middle" x="207" y="-87.5" font-family="Helvetica,sans-Serif" font-size="10.00" fill="#000000">include</text>
</a>
</g>
</g>
<!-- dir_9f1d4dad32d5a76206109e6adc44ba4d -->
<g id="node2" class="node">
<title>dir_9f1d4dad32d5a76206109e6adc44ba4d</title>
<text text-anchor="middle" x="452" y="-159.5" font-family="Helvetica,sans-Serif" font-size="10.00" fill="#000000">samples</text>
</g>
<!-- dir_f680b2db6ce27dd664270cae272a31d5 -->
<g id="node3" class="node">
<title>dir_f680b2db6ce27dd664270cae272a31d5</title>
<g id="a_node3"><a xlink:href="dir_f680b2db6ce27dd664270cae272a31d5.html" target="_top" xlink:title="playadpcm">
<polygon fill="#ffffff" stroke="#000000" points="404.5,-180 333.5,-180 333.5,-144 404.5,-144 404.5,-180"/>
<text text-anchor="middle" x="369" y="-159.5" font-family="Helvetica,sans-Serif" font-size="10.00" fill="#000000">playadpcm</text>
</a>
</g>
</g>
<!-- dir_f680b2db6ce27dd664270cae272a31d5&#45;&gt;dir_660bfe733945cea18d05bf7eea32d232 -->
<g id="edge11" class="edge">
<title>dir_f680b2db6ce27dd664270cae272a31d5&#45;&gt;dir_660bfe733945cea18d05bf7eea32d232</title>
<path fill="none" stroke="#000000" d="M340.0153,-143.9819C335.0786,-141.172 329.947,-138.4062 325,-136 298.5292,-123.1246 267.474,-111.1357 243.8684,-102.6272"/>
<polygon fill="#000000" stroke="#000000" points="244.8375,-99.2571 234.2428,-99.2013 242.4903,-105.8518 244.8375,-99.2571"/>
<g id="a_edge11&#45;headlabel"><a xlink:href="dir_000137_000135.html" target="_top" xlink:title="1">
<text text-anchor="middle" x="249.1761" y="-95.2874" font-family="Helvetica,sans-Serif" font-size="10.00" fill="#000000">1</text>
</a>
</g>
</g>
<!-- dir_694ec83a64f58cbdefbefce65cd1011c -->
<g id="node8" class="node">
<title>dir_694ec83a64f58cbdefbefce65cd1011c</title>
<g id="a_node8"><a xlink:href="dir_694ec83a64f58cbdefbefce65cd1011c.html" target="_top" xlink:title="kernel">
<polygon fill="#ffffff" stroke="#ff0000" points="559,-108 505,-108 505,-72 559,-72 559,-108"/>
<text text-anchor="middle" x="532" y="-87.5" font-family="Helvetica,sans-Serif" font-size="10.00" fill="#000000">kernel</text>
</a>
</g>
</g>
<!-- dir_f680b2db6ce27dd664270cae272a31d5&#45;&gt;dir_694ec83a64f58cbdefbefce65cd1011c -->
<g id="edge12" class="edge">
<title>dir_f680b2db6ce27dd664270cae272a31d5&#45;&gt;dir_694ec83a64f58cbdefbefce65cd1011c</title>
<path fill="none" stroke="#000000" d="M399.1615,-143.7374C404.0558,-141.0176 409.1201,-138.3441 414,-136 440.5335,-123.2543 471.5858,-111.2594 495.1744,-102.7157"/>
<polygon fill="#000000" stroke="#000000" points="496.5564,-105.9386 504.792,-99.2733 494.1974,-99.348 496.5564,-105.9386"/>
<g id="a_edge12&#45;headlabel"><a xlink:href="dir_000137_000025.html" target="_top" xlink:title="3">
<text text-anchor="middle" x="494.1288" y="-107.3231" font-family="Helvetica,sans-Serif" font-size="10.00" fill="#000000">3</text>
</a>
</g>
</g>
<!-- dir_bdd9a5d540de89e9fe90efdfc6973a4f -->
<g id="node9" class="node">
<title>dir_bdd9a5d540de89e9fe90efdfc6973a4f</title>
<g id="a_node9"><a xlink:href="dir_bdd9a5d540de89e9fe90efdfc6973a4f.html" target="_top" xlink:title="common">
<polygon fill="#ffffff" stroke="#ff0000" points="524.5,-36 465.5,-36 465.5,0 524.5,0 524.5,-36"/>
<text text-anchor="middle" x="495" y="-15.5" font-family="Helvetica,sans-Serif" font-size="10.00" fill="#000000">common</text>
</a>
</g>
</g>
<!-- dir_f680b2db6ce27dd664270cae272a31d5&#45;&gt;dir_bdd9a5d540de89e9fe90efdfc6973a4f -->
<g id="edge13" class="edge">
<title>dir_f680b2db6ce27dd664270cae272a31d5&#45;&gt;dir_bdd9a5d540de89e9fe90efdfc6973a4f</title>
<path fill="none" stroke="#000000" d="M396.7909,-143.8044C402.3182,-140.808 408.2082,-138.0245 414,-136 453.6654,-122.135 573.5762,-139.8358 601,-108 613.763,-93.1836 611.728,-80.3502 601,-64 586.363,-41.6923 558.324,-30.1477 534.7592,-24.2038"/>
<polygon fill="#000000" stroke="#000000" points="535.513,-20.7859 524.9861,-21.9843 533.9626,-27.6121 535.513,-20.7859"/>
<g id="a_edge13&#45;headlabel"><a xlink:href="dir_000137_000000.html" target="_top" xlink:title="1">
<text text-anchor="middle" x="539.6471" y="-16.3132" font-family="Helvetica,sans-Serif" font-size="10.00" fill="#000000">1</text>
</a>
</g>
</g>
<!-- dir_41eb87445edec2203fe126b2024ed55b -->
<g id="node4" class="node">
<title>dir_41eb87445edec2203fe126b2024ed55b</title>
<g id="a_node4"><a xlink:href="dir_41eb87445edec2203fe126b2024ed55b.html" target="_top" xlink:title="playcdda">
<polygon fill="#ffffff" stroke="#000000" points="315.5,-180 254.5,-180 254.5,-144 315.5,-144 315.5,-180"/>
<text text-anchor="middle" x="285" y="-159.5" font-family="Helvetica,sans-Serif" font-size="10.00" fill="#000000">playcdda</text>
</a>
</g>
</g>
<!-- dir_41eb87445edec2203fe126b2024ed55b&#45;&gt;dir_660bfe733945cea18d05bf7eea32d232 -->
<g id="edge4" class="edge">
<title>dir_41eb87445edec2203fe126b2024ed55b&#45;&gt;dir_660bfe733945cea18d05bf7eea32d232</title>
<path fill="none" stroke="#000000" d="M265.3173,-143.8314C255.8949,-135.1337 244.4599,-124.5783 234.2204,-115.1265"/>
<polygon fill="#000000" stroke="#000000" points="236.3984,-112.3738 226.6764,-108.1628 231.6505,-117.5175 236.3984,-112.3738"/>
<g id="a_edge4&#45;headlabel"><a xlink:href="dir_000138_000135.html" target="_top" xlink:title="1">
<text text-anchor="middle" x="240.9656" y="-110.2257" font-family="Helvetica,sans-Serif" font-size="10.00" fill="#000000">1</text>
</a>
</g>
</g>
<!-- dir_41eb87445edec2203fe126b2024ed55b&#45;&gt;dir_694ec83a64f58cbdefbefce65cd1011c -->
<g id="edge5" class="edge">
<title>dir_41eb87445edec2203fe126b2024ed55b&#45;&gt;dir_694ec83a64f58cbdefbefce65cd1011c</title>
<path fill="none" stroke="#000000" d="M309.5759,-143.923C314.5008,-140.9157 319.7732,-138.0978 325,-136 387.1274,-111.0646 407.9989,-124.0135 473,-108 480.2203,-106.2212 487.8644,-104.0831 495.1712,-101.9115"/>
<polygon fill="#000000" stroke="#000000" points="496.3095,-105.2236 504.8546,-98.96 494.2686,-98.5277 496.3095,-105.2236"/>
<g id="a_edge5&#45;headlabel"><a xlink:href="dir_000138_000025.html" target="_top" xlink:title="3">
<text text-anchor="middle" x="493.6989" y="-106.4875" font-family="Helvetica,sans-Serif" font-size="10.00" fill="#000000">3</text>
</a>
</g>
</g>
<!-- dir_41eb87445edec2203fe126b2024ed55b&#45;&gt;dir_bdd9a5d540de89e9fe90efdfc6973a4f -->
<g id="edge6" class="edge">
<title>dir_41eb87445edec2203fe126b2024ed55b&#45;&gt;dir_bdd9a5d540de89e9fe90efdfc6973a4f</title>
<path fill="none" stroke="#000000" d="M309.0243,-143.8788C314.0824,-140.7976 319.5449,-137.9638 325,-136 376.1442,-117.5885 531.8303,-148.5767 568,-108 581.0124,-93.4021 577.4484,-81.1216 568,-64 560.4729,-50.3599 547.0137,-40.2106 533.6845,-32.967"/>
<polygon fill="#000000" stroke="#000000" points="535.0624,-29.743 524.5519,-28.4092 531.9365,-36.0064 535.0624,-29.743"/>
<g id="a_edge6&#45;headlabel"><a xlink:href="dir_000138_000000.html" target="_top" xlink:title="1">
<text text-anchor="middle" x="539.5466" y="-26.3077" font-family="Helvetica,sans-Serif" font-size="10.00" fill="#000000">1</text>
</a>
</g>
</g>
<!-- dir_5bdafb587555f4e08c9e1867e5dec169 -->
<g id="node5" class="node">
<title>dir_5bdafb587555f4e08c9e1867e5dec169</title>
<g id="a_node5"><a xlink:href="dir_5bdafb587555f4e08c9e1867e5dec169.html" target="_top" xlink:title="playwav">
<polygon fill="#ffffff" stroke="#000000" points="236,-180 178,-180 178,-144 236,-144 236,-180"/>
<text text-anchor="middle" x="207" y="-159.5" font-family="Helvetica,sans-Serif" font-size="10.00" fill="#000000">playwav</text>
</a>
</g>
</g>
<!-- dir_5bdafb587555f4e08c9e1867e5dec169&#45;&gt;dir_660bfe733945cea18d05bf7eea32d232 -->
<g id="edge7" class="edge">
<title>dir_5bdafb587555f4e08c9e1867e5dec169&#45;&gt;dir_660bfe733945cea18d05bf7eea32d232</title>
<path fill="none" stroke="#000000" d="M207,-143.8314C207,-136.131 207,-126.9743 207,-118.4166"/>
<polygon fill="#000000" stroke="#000000" points="210.5001,-118.4132 207,-108.4133 203.5001,-118.4133 210.5001,-118.4132"/>
<g id="a_edge7&#45;headlabel"><a xlink:href="dir_000139_000135.html" target="_top" xlink:title="1">
<text text-anchor="middle" x="213.3393" y="-119.5079" font-family="Helvetica,sans-Serif" font-size="10.00" fill="#000000">1</text>
</a>
</g>
</g>
<!-- dir_5bdafb587555f4e08c9e1867e5dec169&#45;&gt;dir_694ec83a64f58cbdefbefce65cd1011c -->
<g id="edge8" class="edge">
<title>dir_5bdafb587555f4e08c9e1867e5dec169&#45;&gt;dir_694ec83a64f58cbdefbefce65cd1011c</title>
<path fill="none" stroke="#000000" d="M230.3894,-143.9075C235.3238,-140.8239 240.6596,-137.9819 246,-136 341.3021,-100.6314 373.5675,-129.1332 473,-108 480.2737,-106.4541 487.9423,-104.4225 495.2563,-102.2825"/>
<polygon fill="#000000" stroke="#000000" points="496.394,-105.5948 504.94,-99.3324 494.3541,-98.8986 496.394,-105.5948"/>
<g id="a_edge8&#45;headlabel"><a xlink:href="dir_000139_000025.html" target="_top" xlink:title="3">
<text text-anchor="middle" x="493.7828" y="-106.8583" font-family="Helvetica,sans-Serif" font-size="10.00" fill="#000000">3</text>
</a>
</g>
</g>
<!-- dir_5bdafb587555f4e08c9e1867e5dec169&#45;&gt;dir_bdd9a5d540de89e9fe90efdfc6973a4f -->
<g id="edge9" class="edge">
<title>dir_5bdafb587555f4e08c9e1867e5dec169&#45;&gt;dir_bdd9a5d540de89e9fe90efdfc6973a4f</title>
<path fill="none" stroke="#000000" d="M230.8751,-143.8054C235.6848,-140.8089 240.8504,-138.0252 246,-136 318.0773,-107.6543 350.4898,-145.9604 418,-108 444.3868,-93.163 465.889,-65.628 479.3985,-44.9057"/>
<polygon fill="#000000" stroke="#000000" points="482.5016,-46.5457 484.8609,-36.2169 476.5754,-42.8201 482.5016,-46.5457"/>
<g id="a_edge9&#45;headlabel"><a xlink:href="dir_000139_000000.html" target="_top" xlink:title="1">
<text text-anchor="middle" x="482.9923" y="-48.6" font-family="Helvetica,sans-Serif" font-size="10.00" fill="#000000">1</text>
</a>
</g>
</g>
<!-- dir_3633a09dd10a77519b38810e9ca4e0c9 -->
<g id="node6" class="node">
<title>dir_3633a09dd10a77519b38810e9ca4e0c9</title>
<g id="a_node6"><a xlink:href="dir_3633a09dd10a77519b38810e9ca4e0c9.html" target="_top" xlink:title="playwav2">
<polygon fill="#ffffff" stroke="#000000" points="160,-180 96,-180 96,-144 160,-144 160,-180"/>
<text text-anchor="middle" x="128" y="-159.5" font-family="Helvetica,sans-Serif" font-size="10.00" fill="#000000">playwav2</text>
</a>
</g>
</g>
<!-- dir_3633a09dd10a77519b38810e9ca4e0c9&#45;&gt;dir_660bfe733945cea18d05bf7eea32d232 -->
<g id="edge1" class="edge">
<title>dir_3633a09dd10a77519b38810e9ca4e0c9&#45;&gt;dir_660bfe733945cea18d05bf7eea32d232</title>
<path fill="none" stroke="#000000" d="M147.935,-143.8314C157.4783,-135.1337 169.0599,-124.5783 179.4306,-115.1265"/>
<polygon fill="#000000" stroke="#000000" points="182.038,-117.4857 187.0713,-108.1628 177.3228,-112.3121 182.038,-117.4857"/>
<g id="a_edge1&#45;headlabel"><a xlink:href="dir_000140_000135.html" target="_top" xlink:title="1">
<text text-anchor="middle" x="181.2938" y="-119.5055" font-family="Helvetica,sans-Serif" font-size="10.00" fill="#000000">1</text>
</a>
</g>
</g>
<!-- dir_3633a09dd10a77519b38810e9ca4e0c9&#45;&gt;dir_694ec83a64f58cbdefbefce65cd1011c -->
<g id="edge2" class="edge">
<title>dir_3633a09dd10a77519b38810e9ca4e0c9&#45;&gt;dir_694ec83a64f58cbdefbefce65cd1011c</title>
<path fill="none" stroke="#000000" d="M152.6666,-143.8722C157.8477,-140.7915 163.4349,-137.9596 169,-136 274.0423,-99.0123 307.6385,-122.9103 418,-108 443.7126,-104.5261 472.5812,-99.9611 494.8341,-96.2976"/>
<polygon fill="#000000" stroke="#000000" points="495.5778,-99.7222 504.8702,-94.6328 494.4322,-92.8165 495.5778,-99.7222"/>
<g id="a_edge2&#45;headlabel"><a xlink:href="dir_000140_000025.html" target="_top" xlink:title="3">
<text text-anchor="middle" x="492.4962" y="-100.6113" font-family="Helvetica,sans-Serif" font-size="10.00" fill="#000000">3</text>
</a>
</g>
</g>
<!-- dir_3633a09dd10a77519b38810e9ca4e0c9&#45;&gt;dir_bdd9a5d540de89e9fe90efdfc6973a4f -->
<g id="edge3" class="edge">
<title>dir_3633a09dd10a77519b38810e9ca4e0c9&#45;&gt;dir_bdd9a5d540de89e9fe90efdfc6973a4f</title>
<path fill="none" stroke="#000000" d="M153.1845,-143.8082C158.233,-140.8114 163.6389,-138.0269 169,-136 243.0878,-107.9897 270.5988,-135.167 345,-108 380.5842,-95.0067 385.5172,-83.4919 418,-64 430.571,-56.4565 444.3101,-48.2399 456.6578,-40.8655"/>
<polygon fill="#000000" stroke="#000000" points="458.5743,-43.7977 465.3664,-35.6664 454.986,-37.7874 458.5743,-43.7977"/>
<g id="a_edge3&#45;headlabel"><a xlink:href="dir_000140_000000.html" target="_top" xlink:title="1">
<text text-anchor="middle" x="456.9433" y="-45.5782" font-family="Helvetica,sans-Serif" font-size="10.00" fill="#000000">1</text>
</a>
</g>
</g>
<!-- dir_f97b581dab292c1312fdfc49f10972c5 -->
<g id="node7" class="node">
<title>dir_f97b581dab292c1312fdfc49f10972c5</title>
<g id="a_node7"><a xlink:href="dir_f97b581dab292c1312fdfc49f10972c5.html" target="_top" xlink:title="testcd">
<polygon fill="#ffffff" stroke="#000000" points="78,-180 24,-180 24,-144 78,-144 78,-180"/>
<text text-anchor="middle" x="51" y="-159.5" font-family="Helvetica,sans-Serif" font-size="10.00" fill="#000000">testcd</text>
</a>
</g>
</g>
<!-- dir_f97b581dab292c1312fdfc49f10972c5&#45;&gt;dir_660bfe733945cea18d05bf7eea32d232 -->
<g id="edge14" class="edge">
<title>dir_f97b581dab292c1312fdfc49f10972c5&#45;&gt;dir_660bfe733945cea18d05bf7eea32d232</title>
<path fill="none" stroke="#000000" d="M74.4445,-143.7539C78.5161,-140.9714 82.7956,-138.2739 87,-136 113.7356,-121.5407 145.9986,-109.444 170.335,-101.29"/>
<polygon fill="#000000" stroke="#000000" points="171.4976,-104.5922 179.9075,-98.1484 169.3147,-97.9413 171.4976,-104.5922"/>
<g id="a_edge14&#45;headlabel"><a xlink:href="dir_000141_000135.html" target="_top" xlink:title="1">
<text text-anchor="middle" x="168.9675" y="-105.9108" font-family="Helvetica,sans-Serif" font-size="10.00" fill="#000000">1</text>
</a>
</g>
</g>
<!-- dir_f97b581dab292c1312fdfc49f10972c5&#45;&gt;dir_694ec83a64f58cbdefbefce65cd1011c -->
<g id="edge15" class="edge">
<title>dir_f97b581dab292c1312fdfc49f10972c5&#45;&gt;dir_694ec83a64f58cbdefbefce65cd1011c</title>
<path fill="none" stroke="#000000" d="M72.4111,-143.8135C76.9808,-140.7377 81.9574,-137.9225 87,-136 96.5159,-132.372 389.2966,-103.7968 494.6737,-93.6"/>
<polygon fill="#000000" stroke="#000000" points="495.2319,-97.0625 504.8486,-92.6162 494.5581,-90.095 495.2319,-97.0625"/>
<g id="a_edge15&#45;headlabel"><a xlink:href="dir_000141_000025.html" target="_top" xlink:title="3">
<text text-anchor="middle" x="491.9271" y="-97.7344" font-family="Helvetica,sans-Serif" font-size="10.00" fill="#000000">3</text>
</a>
</g>
</g>
<!-- dir_f97b581dab292c1312fdfc49f10972c5&#45;&gt;dir_bdd9a5d540de89e9fe90efdfc6973a4f -->
<g id="edge16" class="edge">
<title>dir_f97b581dab292c1312fdfc49f10972c5&#45;&gt;dir_bdd9a5d540de89e9fe90efdfc6973a4f</title>
<path fill="none" stroke="#000000" d="M72.4391,-143.8858C77.0064,-140.804 81.975,-137.9682 87,-136 182.8843,-98.444 229.8951,-162.927 317,-108 336.6067,-95.6363 326.5587,-78.0429 345,-64 377.3628,-39.3561 423.0126,-27.8105 455.4345,-22.4678"/>
<polygon fill="#000000" stroke="#000000" points="456.1027,-25.9064 465.4626,-20.9423 455.05,-18.9861 456.1027,-25.9064"/>
<g id="a_edge16&#45;headlabel"><a xlink:href="dir_000141_000000.html" target="_top" xlink:title="1">
<text text-anchor="middle" x="452.976" y="-26.7539" font-family="Helvetica,sans-Serif" font-size="10.00" fill="#000000">1</text>
</a>
</g>
</g>
<!-- dir_694ec83a64f58cbdefbefce65cd1011c&#45;&gt;dir_bdd9a5d540de89e9fe90efdfc6973a4f -->
<g id="edge10" class="edge">
<title>dir_694ec83a64f58cbdefbefce65cd1011c&#45;&gt;dir_bdd9a5d540de89e9fe90efdfc6973a4f</title>
<path fill="none" stroke="#000000" d="M522.6633,-71.8314C518.5757,-63.8771 513.6896,-54.369 509.1691,-45.5723"/>
<polygon fill="#000000" stroke="#000000" points="512.1461,-43.7078 504.4624,-36.4133 505.9201,-46.9074 512.1461,-43.7078"/>
<g id="a_edge10&#45;headlabel"><a xlink:href="dir_000025_000000.html" target="_top" xlink:title="24">
<text text-anchor="middle" x="516.3144" y="-43.1073" font-family="Helvetica,sans-Serif" font-size="10.00" fill="#000000">24</text>
</a>
</g>
</g>
</g>
</svg>
        <g id="navigator" transform="translate(0 0)" fill="#404254">
                <rect fill="#f2f5e9" fill-opacity="0.5" stroke="#606060" stroke-width=".5" x="0" y="0" width="60" height="60"/>
                <use id="zoomplus" xlink:href="#zoomPlus" x="17" y="9" onmousedown="handleZoom(evt,'in')"/>
                <use id="zoomminus" xlink:href="#zoomMin" x="42" y="9" onmousedown="handleZoom(evt,'out')"/>
                <use id="reset" xlink:href="#resetDef" x="30" y="36" onmousedown="handleReset()"/>
                <g id="arrowUp" xlink:href="#dirArrow" transform="translate(30 24)" onmousedown="handlePan(0,-1)">
                  <use xlink:href="#rim" fill="#404040">
                        <set attributeName="fill" to="#808080" begin="arrowUp.mouseover" end="arrowUp.mouseout"/>
                  </use>
                  <path fill="none" stroke="white" stroke-width="1.5" d="M0,-3.0v7 M-2.5,-0.5L0,-3.0L2.5,-0.5"/>
                </g>
                <g id="arrowRight" xlink:href="#dirArrow" transform="rotate(90) translate(36 -43)" onmousedown="handlePan(1,0)">
                  <use xlink:href="#rim" fill="#404040">
                        <set attributeName="fill" to="#808080" begin="arrowRight.mouseover" end="arrowRight.mouseout"/>
                  </use>
                  <path fill="none" stroke="white" stroke-width="1.5" d="M0,-3.0v7 M-2.5,-0.5L0,-3.0L2.5,-0.5"/>
                </g>
                <g id="arrowDown" xlink:href="#dirArrow" transform="rotate(180) translate(-30 -48)" onmousedown="handlePan(0,1)">
                  <use xlink:href="#rim" fill="#404040">
                        <set attributeName="fill" to="#808080" begin="arrowDown.mouseover" end="arrowDown.mouseout"/>
                  </use>
                  <path fill="none" stroke="white" stroke-width="1.5" d="M0,-3.0v7 M-2.5,-0.5L0,-3.0L2.5,-0.5"/>
                </g>
                <g id="arrowLeft" xlink:href="#dirArrow" transform="rotate(270) translate(-36 17)" onmousedown="handlePan(-1,0)">
                  <use xlink:href="#rim" fill="#404040">
                        <set attributeName="fill" to="#808080" begin="arrowLeft.mouseover" end="arrowLeft.mouseout"/>
                  </use>
                  <path fill="none" stroke="white" stroke-width="1.5" d="M0,-3.0v7 M-2.5,-0.5L0,-3.0L2.5,-0.5"/>
                </g>
        </g>
        <svg viewBox="0 0 15 15" width="100%" height="30px" preserveAspectRatio="xMaxYMin meet">
         <g id="arrow_out" transform="scale(0.3 0.3)">
          <a xlink:href="dir_9f1d4dad32d5a76206109e6adc44ba4d_dep_org.svg" target="_base">
           <rect id="button" ry="5" rx="5" y="6" x="6" height="38" width="38"
                fill="#f2f5e9" fill-opacity="0.5" stroke="#606060" stroke-width="1.0"/>
           <path id="arrow"
             d="M 11.500037,31.436501 C 11.940474,20.09759 22.043105,11.32322 32.158766,21.979434 L 37.068811,17.246167 C 37.068811,17.246167 37.088388,32 37.088388,32 L 22.160133,31.978069 C 22.160133,31.978069 26.997745,27.140456 26.997745,27.140456 C 18.528582,18.264221 13.291696,25.230495 11.500037,31.436501 z"
             style="fill:#404040;"/>
          </a>
         </g>
        </svg>
</svg>
