<?xml version="1.0" encoding="UTF-8" standalone="no"?>
<!DOCTYPE svg PUBLIC "-//W3C//DTD SVG 1.1//EN"
 "http://www.w3.org/Graphics/SVG/1.1/DTD/svg11.dtd">
<!-- Generated by graphviz version 2.40.1 (20161225.0304)
 -->
<!-- Title: ee/font/samples Pages: 1 -->
<!--zoomable 511 -->
<svg id="main" version="1.1" xmlns="http://www.w3.org/2000/svg" xmlns:xlink="http://www.w3.org/1999/xlink" xml:space="preserve" onload="init(evt)">
<style type="text/css"><![CDATA[
.edge:hover path { stroke: red; }
.edge:hover polygon { stroke: red; fill: red; }
]]></style>
<script type="text/javascript"><![CDATA[
var edges = document.getElementsByTagName('g');
if (edges && edges.length) {
  for (var i=0;i<edges.length;i++) {
    if (edges[i].id.substr(0,4)=='edge') {
      edges[i].setAttribute('class','edge');
    }
  }
}
]]></script>
        <defs>
                <circle id="rim" cx="0" cy="0" r="7"/>
                <circle id="rim2" cx="0" cy="0" r="3.5"/>
                <g id="zoomPlus">
                        <use xlink:href="#rim" fill="#404040">
                                <set attributeName="fill" to="#808080" begin="zoomplus.mouseover" end="zoomplus.mouseout"/>
                        </use>
                        <path d="M-4,0h8M0,-4v8" fill="none" stroke="white" stroke-width="1.5" pointer-events="none"/>
                </g>
                <g id="zoomMin">
                        <use xlink:href="#rim" fill="#404040">
                                <set attributeName="fill" to="#808080" begin="zoomminus.mouseover" end="zoomminus.mouseout"/>
                        </use>
                        <path d="M-4,0h8" fill="none" stroke="white" stroke-width="1.5" pointer-events="none"/>
                </g>
                <g id="dirArrow">
                        <path fill="none" stroke="white" stroke-width="1.5" d="M0,-3.0v7 M-2.5,-0.5L0,-3.0L2.5,-0.5"/>
                </g>
               <g id="resetDef">
                       <use xlink:href="#rim2" fill="#404040">
                               <set attributeName="fill" to="#808080" begin="reset.mouseover" end="reset.mouseout"/>
                       </use>
               </g>
        </defs>

<script type="text/javascript">
var viewWidth = 384;
var viewHeight = 511;
var sectionId = 'dynsection-0';
</script>
<script xlink:href="svgpan.js"/>
<svg id="graph" class="graph">
<g id="viewport">
<title>ee/font/samples</title>
<polygon fill="#ffffff" stroke="transparent" points="-4,4 -4,-507 380,-507 380,4 -4,4"/>
<g id="clust1" class="cluster">
<title>clusterdir_6a18a5fb12cb9e6be5f051ff6b53d12a</title>
<g id="a_clust1"><a xlink:href="dir_6a18a5fb12cb9e6be5f051ff6b53d12a.html" target="_top" xlink:title="font">
<polygon fill="#ddddee" stroke="#000000" points="98,-352 98,-495 172,-495 172,-352 98,-352"/>
<text text-anchor="middle" x="135" y="-483" font-family="Helvetica,sans-Serif" font-size="10.00" fill="#000000">font</text>
</a>
</g>
</g>
<!-- dir_3a96145256e208ba8e54b2dc9687859a -->
<g id="node1" class="node">
<title>dir_3a96145256e208ba8e54b2dc9687859a</title>
<g id="a_node1"><a xlink:href="dir_3a96145256e208ba8e54b2dc9687859a.html" target="_top" xlink:title="include">
<polygon fill="none" stroke="#000000" points="160,-396 106,-396 106,-360 160,-360 160,-396"/>
<text text-anchor="middle" x="133" y="-375.5" font-family="Helvetica,sans-Serif" font-size="10.00" fill="#000000">include</text>
</a>
</g>
</g>
<!-- dir_2649a81c7f56a709216892bc1285ef27 -->
<g id="node3" class="node">
<title>dir_2649a81c7f56a709216892bc1285ef27</title>
<g id="a_node3"><a xlink:href="dir_2649a81c7f56a709216892bc1285ef27.html" target="_top" xlink:title="draw">
<polygon fill="#ffffff" stroke="#ff0000" points="179,-324 125,-324 125,-288 179,-288 179,-324"/>
<text text-anchor="middle" x="152" y="-303.5" font-family="Helvetica,sans-Serif" font-size="10.00" fill="#000000">draw</text>
</a>
</g>
</g>
<!-- dir_3a96145256e208ba8e54b2dc9687859a&#45;&gt;dir_2649a81c7f56a709216892bc1285ef27 -->
<g id="edge6" class="edge">
<title>dir_3a96145256e208ba8e54b2dc9687859a&#45;&gt;dir_2649a81c7f56a709216892bc1285ef27</title>
<path fill="none" stroke="#000000" d="M137.7945,-359.8314C139.8489,-352.0463 142.296,-342.7729 144.5756,-334.1347"/>
<polygon fill="#000000" stroke="#000000" points="147.9735,-334.9753 147.1409,-324.4133 141.2052,-333.1892 147.9735,-334.9753"/>
<g id="a_edge6&#45;headlabel"><a xlink:href="dir_000103_000013.html" target="_top" xlink:title="1">
<text text-anchor="middle" x="149.8017" y="-336.6754" font-family="Helvetica,sans-Serif" font-size="10.00" fill="#000000">1</text>
</a>
</g>
</g>
<!-- dir_bdd9a5d540de89e9fe90efdfc6973a4f -->
<g id="node6" class="node">
<title>dir_bdd9a5d540de89e9fe90efdfc6973a4f</title>
<g id="a_node6"><a xlink:href="dir_bdd9a5d540de89e9fe90efdfc6973a4f.html" target="_top" xlink:title="common">
<polygon fill="#ffffff" stroke="#ff0000" points="196.5,-36 137.5,-36 137.5,0 196.5,0 196.5,-36"/>
<text text-anchor="middle" x="167" y="-15.5" font-family="Helvetica,sans-Serif" font-size="10.00" fill="#000000">common</text>
</a>
</g>
</g>
<!-- dir_3a96145256e208ba8e54b2dc9687859a&#45;&gt;dir_bdd9a5d540de89e9fe90efdfc6973a4f -->
<g id="edge7" class="edge">
<title>dir_3a96145256e208ba8e54b2dc9687859a&#45;&gt;dir_bdd9a5d540de89e9fe90efdfc6973a4f</title>
<path fill="none" stroke="#000000" d="M105.7645,-364.2053C66.8536,-342.3336 0,-295.7677 0,-234 0,-234 0,-234 0,-162 0,-94.8849 78.3181,-52.1608 127.6876,-31.8961"/>
<polygon fill="#000000" stroke="#000000" points="129.1408,-35.0849 137.1437,-28.142 126.5579,-28.5789 129.1408,-35.0849"/>
<g id="a_edge7&#45;headlabel"><a xlink:href="dir_000103_000000.html" target="_top" xlink:title="1">
<text text-anchor="middle" x="126.8475" y="-36.5502" font-family="Helvetica,sans-Serif" font-size="10.00" fill="#000000">1</text>
</a>
</g>
</g>
<!-- dir_d075d04f2c23d73c112c5382dfa18e30 -->
<g id="node2" class="node">
<title>dir_d075d04f2c23d73c112c5382dfa18e30</title>
<g id="a_node2"><a xlink:href="dir_d075d04f2c23d73c112c5382dfa18e30.html" target="_top" xlink:title="samples">
<polygon fill="#eeeeff" stroke="#000000" points="164,-468 106,-468 106,-432 164,-432 164,-468"/>
<text text-anchor="middle" x="135" y="-447.5" font-family="Helvetica,sans-Serif" font-size="10.00" fill="#000000">samples</text>
</a>
</g>
</g>
<!-- dir_d075d04f2c23d73c112c5382dfa18e30&#45;&gt;dir_3a96145256e208ba8e54b2dc9687859a -->
<g id="edge15" class="edge">
<title>dir_d075d04f2c23d73c112c5382dfa18e30&#45;&gt;dir_3a96145256e208ba8e54b2dc9687859a</title>
<path fill="none" stroke="#000000" d="M134.4953,-431.8314C134.2814,-424.131 134.0271,-414.9743 133.7894,-406.4166"/>
<polygon fill="#000000" stroke="#000000" points="137.2879,-406.3122 133.5115,-396.4133 130.2906,-406.5066 137.2879,-406.3122"/>
<g id="a_edge15&#45;headlabel"><a xlink:href="dir_000079_000103.html" target="_top" xlink:title="1">
<text text-anchor="middle" x="140.2258" y="-407.3266" font-family="Helvetica,sans-Serif" font-size="10.00" fill="#000000">1</text>
</a>
</g>
</g>
<!-- dir_d075d04f2c23d73c112c5382dfa18e30&#45;&gt;dir_2649a81c7f56a709216892bc1285ef27 -->
<g id="edge14" class="edge">
<title>dir_d075d04f2c23d73c112c5382dfa18e30&#45;&gt;dir_2649a81c7f56a709216892bc1285ef27</title>
<path fill="none" stroke="#000000" d="M150.114,-431.7768C157.3549,-421.8586 165.2524,-408.9858 169,-396 174.4223,-377.2112 172.4433,-371.25 169,-352 167.9244,-345.9866 166.1163,-339.7306 164.0708,-333.8403"/>
<polygon fill="#000000" stroke="#000000" points="167.3039,-332.4945 160.4917,-324.38 160.7567,-334.9715 167.3039,-332.4945"/>
<g id="a_edge14&#45;headlabel"><a xlink:href="dir_000079_000013.html" target="_top" xlink:title="1">
<text text-anchor="middle" x="171.2313" y="-332.3519" font-family="Helvetica,sans-Serif" font-size="10.00" fill="#000000">1</text>
</a>
</g>
</g>
<!-- dir_694ec83a64f58cbdefbefce65cd1011c -->
<g id="node4" class="node">
<title>dir_694ec83a64f58cbdefbefce65cd1011c</title>
<g id="a_node4"><a xlink:href="dir_694ec83a64f58cbdefbefce65cd1011c.html" target="_top" xlink:title="kernel">
<polygon fill="#ffffff" stroke="#ff0000" points="194,-108 140,-108 140,-72 194,-72 194,-108"/>
<text text-anchor="middle" x="167" y="-87.5" font-family="Helvetica,sans-Serif" font-size="10.00" fill="#000000">kernel</text>
</a>
</g>
</g>
<!-- dir_d075d04f2c23d73c112c5382dfa18e30&#45;&gt;dir_694ec83a64f58cbdefbefce65cd1011c -->
<g id="edge16" class="edge">
<title>dir_d075d04f2c23d73c112c5382dfa18e30&#45;&gt;dir_694ec83a64f58cbdefbefce65cd1011c</title>
<path fill="none" stroke="#000000" d="M164.085,-443.7204C220.2163,-429.7056 338,-390.2588 338,-306 338,-306 338,-306 338,-234 338,-193.1184 345.9182,-174.7688 319,-144 290.0067,-110.8594 239.2885,-98.0577 204.4694,-93.1125"/>
<polygon fill="#000000" stroke="#000000" points="204.5756,-89.5982 194.2156,-91.8163 203.6976,-96.5429 204.5756,-89.5982"/>
<g id="a_edge16&#45;headlabel"><a xlink:href="dir_000079_000025.html" target="_top" xlink:title="1">
<text text-anchor="middle" x="208.498" y="-84.7321" font-family="Helvetica,sans-Serif" font-size="10.00" fill="#000000">1</text>
</a>
</g>
</g>
<!-- dir_933591e1cd95ed33f946db8a4302cbd1 -->
<g id="node5" class="node">
<title>dir_933591e1cd95ed33f946db8a4302cbd1</title>
<g id="a_node5"><a xlink:href="dir_933591e1cd95ed33f946db8a4302cbd1.html" target="_top" xlink:title="graph">
<polygon fill="#ffffff" stroke="#ff0000" points="234,-252 180,-252 180,-216 234,-216 234,-252"/>
<text text-anchor="middle" x="207" y="-231.5" font-family="Helvetica,sans-Serif" font-size="10.00" fill="#000000">graph</text>
</a>
</g>
</g>
<!-- dir_d075d04f2c23d73c112c5382dfa18e30&#45;&gt;dir_933591e1cd95ed33f946db8a4302cbd1 -->
<g id="edge17" class="edge">
<title>dir_d075d04f2c23d73c112c5382dfa18e30&#45;&gt;dir_933591e1cd95ed33f946db8a4302cbd1</title>
<path fill="none" stroke="#000000" d="M156.5789,-431.8731C166.5595,-422.2635 177.5975,-409.6364 184,-396 204.4263,-352.4949 207.8993,-295.7355 207.9059,-262.2436"/>
<polygon fill="#000000" stroke="#000000" points="211.4057,-262.197 207.8033,-252.2335 204.406,-262.2688 211.4057,-262.197"/>
<g id="a_edge17&#45;headlabel"><a xlink:href="dir_000079_000019.html" target="_top" xlink:title="1">
<text text-anchor="middle" x="214.2815" y="-263.2624" font-family="Helvetica,sans-Serif" font-size="10.00" fill="#000000">1</text>
</a>
</g>
</g>
<!-- dir_d075d04f2c23d73c112c5382dfa18e30&#45;&gt;dir_bdd9a5d540de89e9fe90efdfc6973a4f -->
<g id="edge18" class="edge">
<title>dir_d075d04f2c23d73c112c5382dfa18e30&#45;&gt;dir_bdd9a5d540de89e9fe90efdfc6973a4f</title>
<path fill="none" stroke="#000000" d="M164.0702,-446.4096C228.1689,-436.7032 376,-403.7241 376,-306 376,-306 376,-306 376,-162 376,-80.5671 267.0792,-41.6625 206.4994,-26.3221"/>
<polygon fill="#000000" stroke="#000000" points="207.045,-22.8529 196.5013,-23.8926 205.3921,-29.6549 207.045,-22.8529"/>
<g id="a_edge18&#45;headlabel"><a xlink:href="dir_000079_000000.html" target="_top" xlink:title="2">
<text text-anchor="middle" x="211.2084" y="-18.4426" font-family="Helvetica,sans-Serif" font-size="10.00" fill="#000000">2</text>
</a>
</g>
</g>
<!-- dir_d6c8ea3c46b2d4fe2308a65fe0836890 -->
<g id="node7" class="node">
<title>dir_d6c8ea3c46b2d4fe2308a65fe0836890</title>
<g id="a_node7"><a xlink:href="dir_d6c8ea3c46b2d4fe2308a65fe0836890.html" target="_top" xlink:title="dma">
<polygon fill="#ffffff" stroke="#ff0000" points="124,-180 70,-180 70,-144 124,-144 124,-180"/>
<text text-anchor="middle" x="97" y="-159.5" font-family="Helvetica,sans-Serif" font-size="10.00" fill="#000000">dma</text>
</a>
</g>
</g>
<!-- dir_d075d04f2c23d73c112c5382dfa18e30&#45;&gt;dir_d6c8ea3c46b2d4fe2308a65fe0836890 -->
<g id="edge19" class="edge">
<title>dir_d075d04f2c23d73c112c5382dfa18e30&#45;&gt;dir_d6c8ea3c46b2d4fe2308a65fe0836890</title>
<path fill="none" stroke="#000000" d="M117.7365,-431.5761C109.7611,-421.7997 101.152,-409.1148 97,-396 74.4105,-324.6468 84.3341,-234.8045 91.6737,-190.0381"/>
<polygon fill="#000000" stroke="#000000" points="95.1246,-190.622 93.371,-180.1733 88.2259,-189.435 95.1246,-190.622"/>
<g id="a_edge19&#45;headlabel"><a xlink:href="dir_000079_000011.html" target="_top" xlink:title="1">
<text text-anchor="middle" x="97.3133" y="-192.146" font-family="Helvetica,sans-Serif" font-size="10.00" fill="#000000">1</text>
</a>
</g>
</g>
<!-- dir_ef7db18cfb93c4891bb35babb04f0d85 -->
<g id="node8" class="node">
<title>dir_ef7db18cfb93c4891bb35babb04f0d85</title>
<g id="a_node8"><a xlink:href="dir_ef7db18cfb93c4891bb35babb04f0d85.html" target="_top" xlink:title="packet">
<polygon fill="#ffffff" stroke="#ff0000" points="310,-180 256,-180 256,-144 310,-144 310,-180"/>
<text text-anchor="middle" x="283" y="-159.5" font-family="Helvetica,sans-Serif" font-size="10.00" fill="#000000">packet</text>
</a>
</g>
</g>
<!-- dir_d075d04f2c23d73c112c5382dfa18e30&#45;&gt;dir_ef7db18cfb93c4891bb35babb04f0d85 -->
<g id="edge20" class="edge">
<title>dir_d075d04f2c23d73c112c5382dfa18e30&#45;&gt;dir_ef7db18cfb93c4891bb35babb04f0d85</title>
<path fill="none" stroke="#000000" d="M164.062,-432.5528C177.8863,-423.1102 193.7994,-410.4275 205,-396 254.0902,-332.7668 273.0785,-237.1063 279.7509,-190.0953"/>
<polygon fill="#000000" stroke="#000000" points="283.24,-190.4087 281.0943,-180.0334 276.3016,-189.4822 283.24,-190.4087"/>
<g id="a_edge20&#45;headlabel"><a xlink:href="dir_000079_000040.html" target="_top" xlink:title="1">
<text text-anchor="middle" x="285.5787" y="-191.8474" font-family="Helvetica,sans-Serif" font-size="10.00" fill="#000000">1</text>
</a>
</g>
</g>
<!-- dir_2649a81c7f56a709216892bc1285ef27&#45;&gt;dir_694ec83a64f58cbdefbefce65cd1011c -->
<g id="edge1" class="edge">
<title>dir_2649a81c7f56a709216892bc1285ef27&#45;&gt;dir_694ec83a64f58cbdefbefce65cd1011c</title>
<path fill="none" stroke="#000000" d="M153.2531,-287.9555C155.8671,-250.3144 161.9176,-163.1867 165.0469,-118.1246"/>
<polygon fill="#000000" stroke="#000000" points="168.5386,-118.3635 165.7399,-108.1451 161.5555,-117.8785 168.5386,-118.3635"/>
<g id="a_edge1&#45;headlabel"><a xlink:href="dir_000013_000025.html" target="_top" xlink:title="4">
<text text-anchor="middle" x="171.1222" y="-119.6462" font-family="Helvetica,sans-Serif" font-size="10.00" fill="#000000">4</text>
</a>
</g>
</g>
<!-- dir_2649a81c7f56a709216892bc1285ef27&#45;&gt;dir_933591e1cd95ed33f946db8a4302cbd1 -->
<g id="edge2" class="edge">
<title>dir_2649a81c7f56a709216892bc1285ef27&#45;&gt;dir_933591e1cd95ed33f946db8a4302cbd1</title>
<path fill="none" stroke="#000000" d="M159.9264,-287.8314C165.5094,-279.454 173.0357,-269.3531 180.4838,-260.1749"/>
<polygon fill="#000000" stroke="#000000" points="183.2404,-262.3344 186.9583,-252.4133 177.865,-257.8504 183.2404,-262.3344"/>
<g id="a_edge2&#45;headlabel"><a xlink:href="dir_000013_000019.html" target="_top" xlink:title="4">
<text text-anchor="middle" x="183.1181" y="-264.4134" font-family="Helvetica,sans-Serif" font-size="10.00" fill="#000000">4</text>
</a>
</g>
</g>
<!-- dir_2649a81c7f56a709216892bc1285ef27&#45;&gt;dir_bdd9a5d540de89e9fe90efdfc6973a4f -->
<g id="edge3" class="edge">
<title>dir_2649a81c7f56a709216892bc1285ef27&#45;&gt;dir_bdd9a5d540de89e9fe90efdfc6973a4f</title>
<path fill="none" stroke="#000000" d="M129.9817,-287.9721C97.7355,-259.231 43.3094,-200.4891 61,-144 74.007,-102.4664 109.035,-65.7689 135.2904,-42.8456"/>
<polygon fill="#000000" stroke="#000000" points="137.7732,-45.3287 143.1229,-36.1836 133.2379,-39.9965 137.7732,-45.3287"/>
<g id="a_edge3&#45;headlabel"><a xlink:href="dir_000013_000000.html" target="_top" xlink:title="35">
<text text-anchor="middle" x="136.8747" y="-47.3203" font-family="Helvetica,sans-Serif" font-size="10.00" fill="#000000">35</text>
</a>
</g>
</g>
<!-- dir_2649a81c7f56a709216892bc1285ef27&#45;&gt;dir_d6c8ea3c46b2d4fe2308a65fe0836890 -->
<g id="edge4" class="edge">
<title>dir_2649a81c7f56a709216892bc1285ef27&#45;&gt;dir_d6c8ea3c46b2d4fe2308a65fe0836890</title>
<path fill="none" stroke="#000000" d="M145.0342,-287.7623C135.5705,-262.9846 118.5689,-218.4714 107.5393,-189.5939"/>
<polygon fill="#000000" stroke="#000000" points="110.747,-188.1826 103.9092,-180.0896 104.2077,-190.6803 110.747,-188.1826"/>
<g id="a_edge4&#45;headlabel"><a xlink:href="dir_000013_000011.html" target="_top" xlink:title="8">
<text text-anchor="middle" x="114.6819" y="-188.0275" font-family="Helvetica,sans-Serif" font-size="10.00" fill="#000000">8</text>
</a>
</g>
</g>
<!-- dir_2649a81c7f56a709216892bc1285ef27&#45;&gt;dir_ef7db18cfb93c4891bb35babb04f0d85 -->
<g id="edge5" class="edge">
<title>dir_2649a81c7f56a709216892bc1285ef27&#45;&gt;dir_ef7db18cfb93c4891bb35babb04f0d85</title>
<path fill="none" stroke="#000000" d="M179.3359,-295.2003C199.1963,-286.1818 225.5452,-271.6331 243,-252 258.8897,-234.1273 269.3566,-208.9198 275.5831,-189.7269"/>
<polygon fill="#000000" stroke="#000000" points="278.9683,-190.625 278.5363,-180.039 272.2725,-188.5839 278.9683,-190.625"/>
<g id="a_edge5&#45;headlabel"><a xlink:href="dir_000013_000040.html" target="_top" xlink:title="3">
<text text-anchor="middle" x="280.6361" y="-192.3913" font-family="Helvetica,sans-Serif" font-size="10.00" fill="#000000">3</text>
</a>
</g>
</g>
<!-- dir_694ec83a64f58cbdefbefce65cd1011c&#45;&gt;dir_bdd9a5d540de89e9fe90efdfc6973a4f -->
<g id="edge8" class="edge">
<title>dir_694ec83a64f58cbdefbefce65cd1011c&#45;&gt;dir_bdd9a5d540de89e9fe90efdfc6973a4f</title>
<path fill="none" stroke="#000000" d="M167,-71.8314C167,-64.131 167,-54.9743 167,-46.4166"/>
<polygon fill="#000000" stroke="#000000" points="170.5001,-46.4132 167,-36.4133 163.5001,-46.4133 170.5001,-46.4132"/>
<g id="a_edge8&#45;headlabel"><a xlink:href="dir_000025_000000.html" target="_top" xlink:title="24">
<text text-anchor="middle" x="173.3393" y="-47.5079" font-family="Helvetica,sans-Serif" font-size="10.00" fill="#000000">24</text>
</a>
</g>
</g>
<!-- dir_933591e1cd95ed33f946db8a4302cbd1&#45;&gt;dir_2649a81c7f56a709216892bc1285ef27 -->
<g id="edge12" class="edge">
<title>dir_933591e1cd95ed33f946db8a4302cbd1&#45;&gt;dir_2649a81c7f56a709216892bc1285ef27</title>
<path fill="none" stroke="#000000" d="M198.9103,-252.4133C193.2898,-260.8239 185.7456,-270.9323 178.2991,-280.0923"/>
<polygon fill="#000000" stroke="#000000" points="175.5584,-277.9138 171.8312,-287.8314 180.9296,-282.4027 175.5584,-277.9138"/>
<g id="a_edge12&#45;headlabel"><a xlink:href="dir_000019_000013.html" target="_top" xlink:title="1">
<text text-anchor="middle" x="175.6849" y="-270.8348" font-family="Helvetica,sans-Serif" font-size="10.00" fill="#000000">1</text>
</a>
</g>
</g>
<!-- dir_933591e1cd95ed33f946db8a4302cbd1&#45;&gt;dir_694ec83a64f58cbdefbefce65cd1011c -->
<g id="edge9" class="edge">
<title>dir_933591e1cd95ed33f946db8a4302cbd1&#45;&gt;dir_694ec83a64f58cbdefbefce65cd1011c</title>
<path fill="none" stroke="#000000" d="M201.934,-215.7623C195.0813,-191.0928 182.7944,-146.8598 174.7703,-117.9731"/>
<polygon fill="#000000" stroke="#000000" points="178.0737,-116.788 172.0249,-108.0896 171.3291,-118.6616 178.0737,-116.788"/>
<g id="a_edge9&#45;headlabel"><a xlink:href="dir_000019_000025.html" target="_top" xlink:title="4">
<text text-anchor="middle" x="181.7714" y="-116.9916" font-family="Helvetica,sans-Serif" font-size="10.00" fill="#000000">4</text>
</a>
</g>
</g>
<!-- dir_933591e1cd95ed33f946db8a4302cbd1&#45;&gt;dir_bdd9a5d540de89e9fe90efdfc6973a4f -->
<g id="edge10" class="edge">
<title>dir_933591e1cd95ed33f946db8a4302cbd1&#45;&gt;dir_bdd9a5d540de89e9fe90efdfc6973a4f</title>
<path fill="none" stroke="#000000" d="M209.7427,-215.9697C213.687,-185.4803 218.8658,-122.1604 203,-72 199.9233,-62.2728 194.5193,-52.671 188.8193,-44.3228"/>
<polygon fill="#000000" stroke="#000000" points="191.5693,-42.1534 182.8573,-36.1243 185.908,-46.2704 191.5693,-42.1534"/>
<g id="a_edge10&#45;headlabel"><a xlink:href="dir_000019_000000.html" target="_top" xlink:title="8">
<text text-anchor="middle" x="195.9797" y="-40.8907" font-family="Helvetica,sans-Serif" font-size="10.00" fill="#000000">8</text>
</a>
</g>
</g>
<!-- dir_933591e1cd95ed33f946db8a4302cbd1&#45;&gt;dir_d6c8ea3c46b2d4fe2308a65fe0836890 -->
<g id="edge11" class="edge">
<title>dir_933591e1cd95ed33f946db8a4302cbd1&#45;&gt;dir_d6c8ea3c46b2d4fe2308a65fe0836890</title>
<path fill="none" stroke="#000000" d="M179.809,-216.2022C165.6622,-206.9425 148.1843,-195.5025 132.937,-185.5224"/>
<polygon fill="#000000" stroke="#000000" points="134.5433,-182.3907 124.2594,-179.8425 130.7097,-188.2476 134.5433,-182.3907"/>
<g id="a_edge11&#45;headlabel"><a xlink:href="dir_000019_000011.html" target="_top" xlink:title="2">
<text text-anchor="middle" x="139.1058" y="-179.4837" font-family="Helvetica,sans-Serif" font-size="10.00" fill="#000000">2</text>
</a>
</g>
</g>
<!-- dir_933591e1cd95ed33f946db8a4302cbd1&#45;&gt;dir_ef7db18cfb93c4891bb35babb04f0d85 -->
<g id="edge13" class="edge">
<title>dir_933591e1cd95ed33f946db8a4302cbd1&#45;&gt;dir_ef7db18cfb93c4891bb35babb04f0d85</title>
<path fill="none" stroke="#000000" d="M226.178,-215.8314C235.3588,-207.1337 246.5006,-196.5783 256.4776,-187.1265"/>
<polygon fill="#000000" stroke="#000000" points="258.9757,-189.5811 263.8281,-180.1628 254.1615,-184.4995 258.9757,-189.5811"/>
<g id="a_edge13&#45;headlabel"><a xlink:href="dir_000019_000040.html" target="_top" xlink:title="1">
<text text-anchor="middle" x="258.3189" y="-191.6145" font-family="Helvetica,sans-Serif" font-size="10.00" fill="#000000">1</text>
</a>
</g>
</g>
<!-- dir_d6c8ea3c46b2d4fe2308a65fe0836890&#45;&gt;dir_694ec83a64f58cbdefbefce65cd1011c -->
<g id="edge22" class="edge">
<title>dir_d6c8ea3c46b2d4fe2308a65fe0836890&#45;&gt;dir_694ec83a64f58cbdefbefce65cd1011c</title>
<path fill="none" stroke="#000000" d="M114.664,-143.8314C122.9732,-135.2848 133.0264,-124.9443 142.0918,-115.6198"/>
<polygon fill="#000000" stroke="#000000" points="144.6369,-118.023 149.0982,-108.4133 139.6179,-113.1435 144.6369,-118.023"/>
<g id="a_edge22&#45;headlabel"><a xlink:href="dir_000011_000025.html" target="_top" xlink:title="1">
<text text-anchor="middle" x="144.1669" y="-120.0795" font-family="Helvetica,sans-Serif" font-size="10.00" fill="#000000">1</text>
</a>
</g>
</g>
<!-- dir_d6c8ea3c46b2d4fe2308a65fe0836890&#45;&gt;dir_bdd9a5d540de89e9fe90efdfc6973a4f -->
<g id="edge21" class="edge">
<title>dir_d6c8ea3c46b2d4fe2308a65fe0836890&#45;&gt;dir_bdd9a5d540de89e9fe90efdfc6973a4f</title>
<path fill="none" stroke="#000000" d="M102.4945,-143.8986C108.4315,-125.3497 118.711,-95.9193 131,-72 135.7387,-62.7766 141.7229,-53.2059 147.4446,-44.7297"/>
<polygon fill="#000000" stroke="#000000" points="150.4302,-46.5661 153.2491,-36.3531 144.6766,-42.5791 150.4302,-46.5661"/>
<g id="a_edge21&#45;headlabel"><a xlink:href="dir_000011_000000.html" target="_top" xlink:title="4">
<text text-anchor="middle" x="150.7167" y="-48.6378" font-family="Helvetica,sans-Serif" font-size="10.00" fill="#000000">4</text>
</a>
</g>
</g>
<!-- dir_ef7db18cfb93c4891bb35babb04f0d85&#45;&gt;dir_bdd9a5d540de89e9fe90efdfc6973a4f -->
<g id="edge23" class="edge">
<title>dir_ef7db18cfb93c4891bb35babb04f0d85&#45;&gt;dir_bdd9a5d540de89e9fe90efdfc6973a4f</title>
<path fill="none" stroke="#000000" d="M277.8408,-143.9182C271.6643,-124.5824 259.8614,-93.7689 242,-72 231.829,-59.604 218.1693,-48.6568 205.2949,-39.9165"/>
<polygon fill="#000000" stroke="#000000" points="206.8494,-36.752 196.5597,-34.2273 203.0291,-42.6177 206.8494,-36.752"/>
<g id="a_edge23&#45;headlabel"><a xlink:href="dir_000040_000000.html" target="_top" xlink:title="1">
<text text-anchor="middle" x="211.411" y="-33.8346" font-family="Helvetica,sans-Serif" font-size="10.00" fill="#000000">1</text>
</a>
</g>
</g>
</g>
</svg>
        <g id="navigator" transform="translate(0 0)" fill="#404254">
                <rect fill="#f2f5e9" fill-opacity="0.5" stroke="#606060" stroke-width=".5" x="0" y="0" width="60" height="60"/>
                <use id="zoomplus" xlink:href="#zoomPlus" x="17" y="9" onmousedown="handleZoom(evt,'in')"/>
                <use id="zoomminus" xlink:href="#zoomMin" x="42" y="9" onmousedown="handleZoom(evt,'out')"/>
                <use id="reset" xlink:href="#resetDef" x="30" y="36" onmousedown="handleReset()"/>
                <g id="arrowUp" xlink:href="#dirArrow" transform="translate(30 24)" onmousedown="handlePan(0,-1)">
                  <use xlink:href="#rim" fill="#404040">
                        <set attributeName="fill" to="#808080" begin="arrowUp.mouseover" end="arrowUp.mouseout"/>
                  </use>
                  <path fill="none" stroke="white" stroke-width="1.5" d="M0,-3.0v7 M-2.5,-0.5L0,-3.0L2.5,-0.5"/>
                </g>
                <g id="arrowRight" xlink:href="#dirArrow" transform="rotate(90) translate(36 -43)" onmousedown="handlePan(1,0)">
                  <use xlink:href="#rim" fill="#404040">
                        <set attributeName="fill" to="#808080" begin="arrowRight.mouseover" end="arrowRight.mouseout"/>
                  </use>
                  <path fill="none" stroke="white" stroke-width="1.5" d="M0,-3.0v7 M-2.5,-0.5L0,-3.0L2.5,-0.5"/>
                </g>
                <g id="arrowDown" xlink:href="#dirArrow" transform="rotate(180) translate(-30 -48)" onmousedown="handlePan(0,1)">
                  <use xlink:href="#rim" fill="#404040">
                        <set attributeName="fill" to="#808080" begin="arrowDown.mouseover" end="arrowDown.mouseout"/>
                  </use>
                  <path fill="none" stroke="white" stroke-width="1.5" d="M0,-3.0v7 M-2.5,-0.5L0,-3.0L2.5,-0.5"/>
                </g>
                <g id="arrowLeft" xlink:href="#dirArrow" transform="rotate(270) translate(-36 17)" onmousedown="handlePan(-1,0)">
                  <use xlink:href="#rim" fill="#404040">
                        <set attributeName="fill" to="#808080" begin="arrowLeft.mouseover" end="arrowLeft.mouseout"/>
                  </use>
                  <path fill="none" stroke="white" stroke-width="1.5" d="M0,-3.0v7 M-2.5,-0.5L0,-3.0L2.5,-0.5"/>
                </g>
        </g>
        <svg viewBox="0 0 15 15" width="100%" height="30px" preserveAspectRatio="xMaxYMin meet">
         <g id="arrow_out" transform="scale(0.3 0.3)">
          <a xlink:href="dir_d075d04f2c23d73c112c5382dfa18e30_dep_org.svg" target="_base">
           <rect id="button" ry="5" rx="5" y="6" x="6" height="38" width="38"
                fill="#f2f5e9" fill-opacity="0.5" stroke="#606060" stroke-width="1.0"/>
           <path id="arrow"
             d="M 11.500037,31.436501 C 11.940474,20.09759 22.043105,11.32322 32.158766,21.979434 L 37.068811,17.246167 C 37.068811,17.246167 37.088388,32 37.088388,32 L 22.160133,31.978069 C 22.160133,31.978069 26.997745,27.140456 26.997745,27.140456 C 18.528582,18.264221 13.291696,25.230495 11.500037,31.436501 z"
             style="fill:#404040;"/>
          </a>
         </g>
        </svg>
</svg>
