<?xml version="1.0" encoding="UTF-8" standalone="no"?>
<!DOCTYPE svg PUBLIC "-//W3C//DTD SVG 1.1//EN"
 "http://www.w3.org/Graphics/SVG/1.1/DTD/svg11.dtd">
<!-- Generated by graphviz version 2.40.1 (20161225.0304)
 -->
<!-- Title: ee/rpc/filexio/src Pages: 1 -->
<svg width="264pt" height="367pt"
 viewBox="0.00 0.00 264.00 367.00" xmlns="http://www.w3.org/2000/svg" xmlns:xlink="http://www.w3.org/1999/xlink">
<g id="graph0" class="graph" transform="scale(1 1) rotate(0) translate(4 363)">
<title>ee/rpc/filexio/src</title>
<polygon fill="#ffffff" stroke="transparent" points="-4,4 -4,-363 260,-363 260,4 -4,4"/>
<g id="clust1" class="cluster">
<title>clusterdir_6b1fe306776c19ae02b5b1275d4c63ec</title>
<g id="a_clust1"><a xlink:href="dir_6b1fe306776c19ae02b5b1275d4c63ec.html" target="_top" xlink:title="filexio">
<polygon fill="#ddddee" stroke="#000000" points="8,-208 8,-351 78,-351 78,-208 8,-208"/>
<text text-anchor="middle" x="43" y="-339" font-family="Helvetica,sans-Serif" font-size="10.00" fill="#000000">filexio</text>
</a>
</g>
</g>
<!-- dir_21af483e535eeeda1b3e0ebbd7a8a7a3 -->
<g id="node1" class="node">
<title>dir_21af483e535eeeda1b3e0ebbd7a8a7a3</title>
<g id="a_node1"><a xlink:href="dir_21af483e535eeeda1b3e0ebbd7a8a7a3.html" target="_top" xlink:title="include">
<polygon fill="none" stroke="#000000" points="70,-252 16,-252 16,-216 70,-216 70,-252"/>
<text text-anchor="middle" x="43" y="-231.5" font-family="Helvetica,sans-Serif" font-size="10.00" fill="#000000">include</text>
</a>
</g>
</g>
<!-- dir_bdd9a5d540de89e9fe90efdfc6973a4f -->
<g id="node6" class="node">
<title>dir_bdd9a5d540de89e9fe90efdfc6973a4f</title>
<g id="a_node6"><a xlink:href="dir_bdd9a5d540de89e9fe90efdfc6973a4f.html" target="_top" xlink:title="common">
<polygon fill="#ffffff" stroke="#ff0000" points="165.5,-36 106.5,-36 106.5,0 165.5,0 165.5,-36"/>
<text text-anchor="middle" x="136" y="-15.5" font-family="Helvetica,sans-Serif" font-size="10.00" fill="#000000">common</text>
</a>
</g>
</g>
<!-- dir_21af483e535eeeda1b3e0ebbd7a8a7a3&#45;&gt;dir_bdd9a5d540de89e9fe90efdfc6973a4f -->
<g id="edge1" class="edge">
<title>dir_21af483e535eeeda1b3e0ebbd7a8a7a3&#45;&gt;dir_bdd9a5d540de89e9fe90efdfc6973a4f</title>
<path fill="none" stroke="#000000" d="M44.5338,-215.8732C47.8139,-184.6953 57.5068,-119.6755 84,-72 89.8186,-61.5292 98.1749,-51.6074 106.4919,-43.1933"/>
<polygon fill="#000000" stroke="#000000" points="108.9612,-45.6744 113.726,-36.2114 104.1,-40.6376 108.9612,-45.6744"/>
<g id="a_edge1&#45;headlabel"><a xlink:href="dir_000145_000000.html" target="_top" xlink:title="1">
<text text-anchor="middle" x="108.3465" y="-47.7136" font-family="Helvetica,sans-Serif" font-size="10.00" fill="#000000">1</text>
</a>
</g>
</g>
<!-- dir_2e51deef12334dd084da5d9140b29b47 -->
<g id="node2" class="node">
<title>dir_2e51deef12334dd084da5d9140b29b47</title>
<g id="a_node2"><a xlink:href="dir_2e51deef12334dd084da5d9140b29b47.html" target="_top" xlink:title="src">
<polygon fill="#eeeeff" stroke="#000000" points="70,-324 16,-324 16,-288 70,-288 70,-324"/>
<text text-anchor="middle" x="43" y="-303.5" font-family="Helvetica,sans-Serif" font-size="10.00" fill="#000000">src</text>
</a>
</g>
</g>
<!-- dir_2e51deef12334dd084da5d9140b29b47&#45;&gt;dir_21af483e535eeeda1b3e0ebbd7a8a7a3 -->
<g id="edge2" class="edge">
<title>dir_2e51deef12334dd084da5d9140b29b47&#45;&gt;dir_21af483e535eeeda1b3e0ebbd7a8a7a3</title>
<path fill="none" stroke="#000000" d="M43,-287.8314C43,-280.131 43,-270.9743 43,-262.4166"/>
<polygon fill="#000000" stroke="#000000" points="46.5001,-262.4132 43,-252.4133 39.5001,-262.4133 46.5001,-262.4132"/>
<g id="a_edge2&#45;headlabel"><a xlink:href="dir_000054_000145.html" target="_top" xlink:title="1">
<text text-anchor="middle" x="49.3393" y="-263.5079" font-family="Helvetica,sans-Serif" font-size="10.00" fill="#000000">1</text>
</a>
</g>
</g>
<!-- dir_4bdd3f0b1709457e1be42b8162664eee -->
<g id="node3" class="node">
<title>dir_4bdd3f0b1709457e1be42b8162664eee</title>
<g id="a_node3"><a xlink:href="dir_4bdd3f0b1709457e1be42b8162664eee.html" target="_top" xlink:title="libc">
<polygon fill="#ffffff" stroke="#ff0000" points="180,-252 126,-252 126,-216 180,-216 180,-252"/>
<text text-anchor="middle" x="153" y="-231.5" font-family="Helvetica,sans-Serif" font-size="10.00" fill="#000000">libc</text>
</a>
</g>
</g>
<!-- dir_2e51deef12334dd084da5d9140b29b47&#45;&gt;dir_4bdd3f0b1709457e1be42b8162664eee -->
<g id="edge3" class="edge">
<title>dir_2e51deef12334dd084da5d9140b29b47&#45;&gt;dir_4bdd3f0b1709457e1be42b8162664eee</title>
<path fill="none" stroke="#000000" d="M70.191,-288.2022C84.3378,-278.9425 101.8157,-267.5025 117.063,-257.5224"/>
<polygon fill="#000000" stroke="#000000" points="119.2903,-260.2476 125.7406,-251.8425 115.4567,-254.3907 119.2903,-260.2476"/>
<g id="a_edge3&#45;headlabel"><a xlink:href="dir_000054_000118.html" target="_top" xlink:title="1">
<text text-anchor="middle" x="117.8377" y="-262.0918" font-family="Helvetica,sans-Serif" font-size="10.00" fill="#000000">1</text>
</a>
</g>
</g>
<!-- dir_694ec83a64f58cbdefbefce65cd1011c -->
<g id="node4" class="node">
<title>dir_694ec83a64f58cbdefbefce65cd1011c</title>
<g id="a_node4"><a xlink:href="dir_694ec83a64f58cbdefbefce65cd1011c.html" target="_top" xlink:title="kernel">
<polygon fill="#ffffff" stroke="#ff0000" points="218,-180 164,-180 164,-144 218,-144 218,-180"/>
<text text-anchor="middle" x="191" y="-159.5" font-family="Helvetica,sans-Serif" font-size="10.00" fill="#000000">kernel</text>
</a>
</g>
</g>
<!-- dir_2e51deef12334dd084da5d9140b29b47&#45;&gt;dir_694ec83a64f58cbdefbefce65cd1011c -->
<g id="edge4" class="edge">
<title>dir_2e51deef12334dd084da5d9140b29b47&#45;&gt;dir_694ec83a64f58cbdefbefce65cd1011c</title>
<path fill="none" stroke="#000000" d="M70.2294,-299.7844C108.436,-290.4558 174.8799,-271.8046 189,-252 201.6313,-234.2835 201.1157,-209.2194 198.0168,-190.0388"/>
<polygon fill="#000000" stroke="#000000" points="201.4253,-189.2294 196.0964,-180.0722 194.5517,-190.5538 201.4253,-189.2294"/>
<g id="a_edge4&#45;headlabel"><a xlink:href="dir_000054_000025.html" target="_top" xlink:title="2">
<text text-anchor="middle" x="204.8933" y="-189.7219" font-family="Helvetica,sans-Serif" font-size="10.00" fill="#000000">2</text>
</a>
</g>
</g>
<!-- dir_a0a8ac7efb6662b749c1285408048e6d -->
<g id="node5" class="node">
<title>dir_a0a8ac7efb6662b749c1285408048e6d</title>
<g id="a_node5"><a xlink:href="dir_a0a8ac7efb6662b749c1285408048e6d.html" target="_top" xlink:title="erl">
<polygon fill="#ffffff" stroke="#ff0000" points="256,-108 202,-108 202,-72 256,-72 256,-108"/>
<text text-anchor="middle" x="229" y="-87.5" font-family="Helvetica,sans-Serif" font-size="10.00" fill="#000000">erl</text>
</a>
</g>
</g>
<!-- dir_2e51deef12334dd084da5d9140b29b47&#45;&gt;dir_a0a8ac7efb6662b749c1285408048e6d -->
<g id="edge5" class="edge">
<title>dir_2e51deef12334dd084da5d9140b29b47&#45;&gt;dir_a0a8ac7efb6662b749c1285408048e6d</title>
<path fill="none" stroke="#000000" d="M70.2982,-300.3749C112.0574,-291.2425 188.9718,-272.1708 208,-252 241.7739,-216.1981 239.407,-154.487 234.3787,-118.4488"/>
<polygon fill="#000000" stroke="#000000" points="237.7709,-117.4861 232.7698,-108.1459 230.8547,-118.5662 237.7709,-117.4861"/>
<g id="a_edge5&#45;headlabel"><a xlink:href="dir_000054_000097.html" target="_top" xlink:title="1">
<text text-anchor="middle" x="241.1307" y="-118.0997" font-family="Helvetica,sans-Serif" font-size="10.00" fill="#000000">1</text>
</a>
</g>
</g>
<!-- dir_2e51deef12334dd084da5d9140b29b47&#45;&gt;dir_bdd9a5d540de89e9fe90efdfc6973a4f -->
<g id="edge6" class="edge">
<title>dir_2e51deef12334dd084da5d9140b29b47&#45;&gt;dir_bdd9a5d540de89e9fe90efdfc6973a4f</title>
<path fill="none" stroke="#000000" d="M57.366,-287.9395C64.7647,-277.8634 73.3864,-264.7942 79,-252 109.9629,-181.4312 125.8868,-91.1883 132.3775,-46.1759"/>
<polygon fill="#000000" stroke="#000000" points="135.8817,-46.3877 133.7938,-36.0007 128.9486,-45.4226 135.8817,-46.3877"/>
<g id="a_edge6&#45;headlabel"><a xlink:href="dir_000054_000000.html" target="_top" xlink:title="2">
<text text-anchor="middle" x="138.1984" y="-47.8394" font-family="Helvetica,sans-Serif" font-size="10.00" fill="#000000">2</text>
</a>
</g>
</g>
<!-- dir_4bdd3f0b1709457e1be42b8162664eee&#45;&gt;dir_694ec83a64f58cbdefbefce65cd1011c -->
<g id="edge8" class="edge">
<title>dir_4bdd3f0b1709457e1be42b8162664eee&#45;&gt;dir_694ec83a64f58cbdefbefce65cd1011c</title>
<path fill="none" stroke="#000000" d="M156.6366,-215.8314C160.1324,-207.7079 165.0727,-197.9637 170.1844,-189.0118"/>
<polygon fill="#000000" stroke="#000000" points="173.1955,-190.7958 175.3059,-180.4133 167.1815,-187.2137 173.1955,-190.7958"/>
<g id="a_edge8&#45;headlabel"><a xlink:href="dir_000118_000025.html" target="_top" xlink:title="9">
<text text-anchor="middle" x="173.7954" y="-192.837" font-family="Helvetica,sans-Serif" font-size="10.00" fill="#000000">9</text>
</a>
</g>
</g>
<!-- dir_4bdd3f0b1709457e1be42b8162664eee&#45;&gt;dir_bdd9a5d540de89e9fe90efdfc6973a4f -->
<g id="edge7" class="edge">
<title>dir_4bdd3f0b1709457e1be42b8162664eee&#45;&gt;dir_bdd9a5d540de89e9fe90efdfc6973a4f</title>
<path fill="none" stroke="#000000" d="M151.5798,-215.9555C148.6173,-178.3144 141.7601,-91.1867 138.2135,-46.1246"/>
<polygon fill="#000000" stroke="#000000" points="141.702,-45.8396 137.4281,-36.1451 134.7236,-46.3889 141.702,-45.8396"/>
<g id="a_edge7&#45;headlabel"><a xlink:href="dir_000118_000000.html" target="_top" xlink:title="6">
<text text-anchor="middle" x="144.8145" y="-46.7004" font-family="Helvetica,sans-Serif" font-size="10.00" fill="#000000">6</text>
</a>
</g>
</g>
<!-- dir_694ec83a64f58cbdefbefce65cd1011c&#45;&gt;dir_4bdd3f0b1709457e1be42b8162664eee -->
<g id="edge11" class="edge">
<title>dir_694ec83a64f58cbdefbefce65cd1011c&#45;&gt;dir_4bdd3f0b1709457e1be42b8162664eee</title>
<path fill="none" stroke="#000000" d="M187.2579,-180.4133C183.77,-188.484 178.88,-198.1182 173.8218,-206.9775"/>
<polygon fill="#000000" stroke="#000000" points="170.6576,-205.45 168.5414,-215.8314 176.6696,-209.0355 170.6576,-205.45"/>
<g id="a_edge11&#45;headlabel"><a xlink:href="dir_000025_000118.html" target="_top" xlink:title="1">
<text text-anchor="middle" x="170.0602" y="-198.4085" font-family="Helvetica,sans-Serif" font-size="10.00" fill="#000000">1</text>
</a>
</g>
</g>
<!-- dir_694ec83a64f58cbdefbefce65cd1011c&#45;&gt;dir_a0a8ac7efb6662b749c1285408048e6d -->
<g id="edge10" class="edge">
<title>dir_694ec83a64f58cbdefbefce65cd1011c&#45;&gt;dir_a0a8ac7efb6662b749c1285408048e6d</title>
<path fill="none" stroke="#000000" d="M194.6366,-143.8314C198.1324,-135.7079 203.0727,-125.9637 208.1844,-117.0118"/>
<polygon fill="#000000" stroke="#000000" points="211.1955,-118.7958 213.3059,-108.4133 205.1815,-115.2137 211.1955,-118.7958"/>
<g id="a_edge10&#45;headlabel"><a xlink:href="dir_000025_000097.html" target="_top" xlink:title="1">
<text text-anchor="middle" x="211.7954" y="-120.837" font-family="Helvetica,sans-Serif" font-size="10.00" fill="#000000">1</text>
</a>
</g>
</g>
<!-- dir_694ec83a64f58cbdefbefce65cd1011c&#45;&gt;dir_bdd9a5d540de89e9fe90efdfc6973a4f -->
<g id="edge9" class="edge">
<title>dir_694ec83a64f58cbdefbefce65cd1011c&#45;&gt;dir_bdd9a5d540de89e9fe90efdfc6973a4f</title>
<path fill="none" stroke="#000000" d="M184.0342,-143.7623C174.5705,-118.9846 157.5689,-74.4714 146.5393,-45.5939"/>
<polygon fill="#000000" stroke="#000000" points="149.747,-44.1826 142.9092,-36.0896 143.2077,-46.6803 149.747,-44.1826"/>
<g id="a_edge9&#45;headlabel"><a xlink:href="dir_000025_000000.html" target="_top" xlink:title="24">
<text text-anchor="middle" x="153.6819" y="-44.0275" font-family="Helvetica,sans-Serif" font-size="10.00" fill="#000000">24</text>
</a>
</g>
</g>
<!-- dir_a0a8ac7efb6662b749c1285408048e6d&#45;&gt;dir_694ec83a64f58cbdefbefce65cd1011c -->
<g id="edge13" class="edge">
<title>dir_a0a8ac7efb6662b749c1285408048e6d&#45;&gt;dir_694ec83a64f58cbdefbefce65cd1011c</title>
<path fill="none" stroke="#000000" d="M225.2579,-108.4133C221.77,-116.484 216.88,-126.1182 211.8218,-134.9775"/>
<polygon fill="#000000" stroke="#000000" points="208.6576,-133.45 206.5414,-143.8314 214.6696,-137.0355 208.6576,-133.45"/>
<g id="a_edge13&#45;headlabel"><a xlink:href="dir_000097_000025.html" target="_top" xlink:title="1">
<text text-anchor="middle" x="208.0602" y="-126.4085" font-family="Helvetica,sans-Serif" font-size="10.00" fill="#000000">1</text>
</a>
</g>
</g>
<!-- dir_a0a8ac7efb6662b749c1285408048e6d&#45;&gt;dir_bdd9a5d540de89e9fe90efdfc6973a4f -->
<g id="edge12" class="edge">
<title>dir_a0a8ac7efb6662b749c1285408048e6d&#45;&gt;dir_bdd9a5d540de89e9fe90efdfc6973a4f</title>
<path fill="none" stroke="#000000" d="M205.5322,-71.8314C193.9673,-62.8779 179.8596,-51.9558 167.3817,-42.2955"/>
<polygon fill="#000000" stroke="#000000" points="169.5102,-39.5171 159.4603,-36.1628 165.225,-45.0521 169.5102,-39.5171"/>
<g id="a_edge12&#45;headlabel"><a xlink:href="dir_000097_000000.html" target="_top" xlink:title="3">
<text text-anchor="middle" x="174.0906" y="-36.9725" font-family="Helvetica,sans-Serif" font-size="10.00" fill="#000000">3</text>
</a>
</g>
</g>
</g>
</svg>
