<?xml version="1.0" encoding="UTF-8" standalone="no"?>
<!DOCTYPE svg PUBLIC "-//W3C//DTD SVG 1.1//EN"
 "http://www.w3.org/Graphics/SVG/1.1/DTD/svg11.dtd">
<!-- Generated by graphviz version 2.40.1 (20161225.0304)
 -->
<!-- Title: ee/iopreboot/src Pages: 1 -->
<svg width="255pt" height="303pt"
 viewBox="0.00 0.00 255.08 303.00" xmlns="http://www.w3.org/2000/svg" xmlns:xlink="http://www.w3.org/1999/xlink">
<g id="graph0" class="graph" transform="scale(1 1) rotate(0) translate(4 299)">
<title>ee/iopreboot/src</title>
<polygon fill="#ffffff" stroke="transparent" points="-4,4 -4,-299 251.0829,-299 251.0829,4 -4,4"/>
<g id="clust1" class="cluster">
<title>clusterdir_ff70674bc173ff6e32f1bc3a678b82a6</title>
<g id="a_clust1"><a xlink:href="dir_ff70674bc173ff6e32f1bc3a678b82a6.html" target="_top" xlink:title="iopreboot">
<polygon fill="#ddddee" stroke="#000000" points="8,-136 8,-287 166,-287 166,-136 8,-136"/>
<text text-anchor="middle" x="87" y="-275" font-family="Helvetica,sans-Serif" font-size="10.00" fill="#000000">iopreboot</text>
</a>
</g>
</g>
<g id="clust2" class="cluster">
<title>clusterdir_a498588c2d5275b63f4912378b4fcc14</title>
<g id="a_clust2"><a xlink:href="dir_a498588c2d5275b63f4912378b4fcc14.html" target="_top">
<polygon fill="#eeeeff" stroke="#000000" points="16,-208 16,-260 158,-260 158,-208 16,-208"/>
</a>
</g>
</g>
<!-- dir_5dc1218e3fbe6447e9a0ef568f079980 -->
<g id="node1" class="node">
<title>dir_5dc1218e3fbe6447e9a0ef568f079980</title>
<g id="a_node1"><a xlink:href="dir_5dc1218e3fbe6447e9a0ef568f079980.html" target="_top" xlink:title="include">
<polygon fill="none" stroke="#000000" points="118,-180 64,-180 64,-144 118,-144 118,-180"/>
<text text-anchor="middle" x="91" y="-159.5" font-family="Helvetica,sans-Serif" font-size="10.00" fill="#000000">include</text>
</a>
</g>
</g>
<!-- dir_a498588c2d5275b63f4912378b4fcc14 -->
<g id="node2" class="node">
<title>dir_a498588c2d5275b63f4912378b4fcc14</title>
<text text-anchor="middle" x="123" y="-231.5" font-family="Helvetica,sans-Serif" font-size="10.00" fill="#000000">src</text>
</g>
<!-- dir_a498588c2d5275b63f4912378b4fcc14&#45;&gt;dir_5dc1218e3fbe6447e9a0ef568f079980 -->
<g id="edge6" class="edge">
<title>dir_a498588c2d5275b63f4912378b4fcc14&#45;&gt;dir_5dc1218e3fbe6447e9a0ef568f079980</title>
<path fill="none" stroke="#000000" d="M114.925,-215.8314C111.3898,-207.8771 107.164,-198.369 103.2544,-189.5723"/>
<polygon fill="#000000" stroke="#000000" points="106.4435,-188.1299 99.1837,-180.4133 100.0468,-190.9729 106.4435,-188.1299"/>
<g id="a_edge6&#45;headlabel"><a xlink:href="dir_000024_000107.html" target="_top" xlink:title="1">
<text text-anchor="middle" x="110.4979" y="-187.7616" font-family="Helvetica,sans-Serif" font-size="10.00" fill="#000000">1</text>
</a>
</g>
</g>
<!-- dir_3c99d3595cafa99f0e2683197c97edf9 -->
<g id="node4" class="node">
<title>dir_3c99d3595cafa99f0e2683197c97edf9</title>
<g id="a_node4"><a xlink:href="dir_3c99d3595cafa99f0e2683197c97edf9.html" target="_top" xlink:title="sbv">
<polygon fill="#ffffff" stroke="#ff0000" points="228,-180 174,-180 174,-144 228,-144 228,-180"/>
<text text-anchor="middle" x="201" y="-159.5" font-family="Helvetica,sans-Serif" font-size="10.00" fill="#000000">sbv</text>
</a>
</g>
</g>
<!-- dir_a498588c2d5275b63f4912378b4fcc14&#45;&gt;dir_3c99d3595cafa99f0e2683197c97edf9 -->
<g id="edge5" class="edge">
<title>dir_a498588c2d5275b63f4912378b4fcc14&#45;&gt;dir_3c99d3595cafa99f0e2683197c97edf9</title>
<path fill="none" stroke="#000000" d="M142.6827,-215.8314C152.1051,-207.1337 163.5401,-196.5783 173.7796,-187.1265"/>
<polygon fill="#000000" stroke="#000000" points="176.3495,-189.5175 181.3236,-180.1628 171.6016,-184.3738 176.3495,-189.5175"/>
<g id="a_edge5&#45;headlabel"><a xlink:href="dir_000024_000077.html" target="_top" xlink:title="1">
<text text-anchor="middle" x="175.634" y="-191.5419" font-family="Helvetica,sans-Serif" font-size="10.00" fill="#000000">1</text>
</a>
</g>
</g>
<!-- dir_694ec83a64f58cbdefbefce65cd1011c -->
<g id="node5" class="node">
<title>dir_694ec83a64f58cbdefbefce65cd1011c</title>
<g id="a_node5"><a xlink:href="dir_694ec83a64f58cbdefbefce65cd1011c.html" target="_top" xlink:title="kernel">
<polygon fill="#ffffff" stroke="#ff0000" points="181,-108 127,-108 127,-72 181,-72 181,-108"/>
<text text-anchor="middle" x="154" y="-87.5" font-family="Helvetica,sans-Serif" font-size="10.00" fill="#000000">kernel</text>
</a>
</g>
</g>
<!-- dir_a498588c2d5275b63f4912378b4fcc14&#45;&gt;dir_694ec83a64f58cbdefbefce65cd1011c -->
<g id="edge7" class="edge">
<title>dir_a498588c2d5275b63f4912378b4fcc14&#45;&gt;dir_694ec83a64f58cbdefbefce65cd1011c</title>
<path fill="none" stroke="#000000" d="M126.9262,-215.7623C132.237,-191.0928 141.7594,-146.8598 147.978,-117.9731"/>
<polygon fill="#000000" stroke="#000000" points="151.4227,-118.6023 150.1057,-108.0896 144.5795,-117.129 151.4227,-118.6023"/>
<g id="a_edge7&#45;headlabel"><a xlink:href="dir_000024_000025.html" target="_top" xlink:title="6">
<text text-anchor="middle" x="153.4419" y="-120.2139" font-family="Helvetica,sans-Serif" font-size="10.00" fill="#000000">6</text>
</a>
</g>
</g>
<!-- dir_a0a8ac7efb6662b749c1285408048e6d -->
<g id="node6" class="node">
<title>dir_a0a8ac7efb6662b749c1285408048e6d</title>
<g id="a_node6"><a xlink:href="dir_a0a8ac7efb6662b749c1285408048e6d.html" target="_top" xlink:title="erl">
<polygon fill="#ffffff" stroke="#ff0000" points="208,-36 154,-36 154,0 208,0 208,-36"/>
<text text-anchor="middle" x="181" y="-15.5" font-family="Helvetica,sans-Serif" font-size="10.00" fill="#000000">erl</text>
</a>
</g>
</g>
<!-- dir_a498588c2d5275b63f4912378b4fcc14&#45;&gt;dir_a0a8ac7efb6662b749c1285408048e6d -->
<g id="edge8" class="edge">
<title>dir_a498588c2d5275b63f4912378b4fcc14&#45;&gt;dir_a0a8ac7efb6662b749c1285408048e6d</title>
<path fill="none" stroke="#000000" d="M150.1495,-229.6307C177.4162,-223.6402 218.0283,-209.979 237,-180 264.5793,-136.4192 229.1496,-77.5972 203.3848,-44.1452"/>
<polygon fill="#000000" stroke="#000000" points="206.0457,-41.8678 197.0869,-36.2117 200.5632,-46.2201 206.0457,-41.8678"/>
<g id="a_edge8&#45;headlabel"><a xlink:href="dir_000024_000097.html" target="_top" xlink:title="1">
<text text-anchor="middle" x="210.5044" y="-40.4178" font-family="Helvetica,sans-Serif" font-size="10.00" fill="#000000">1</text>
</a>
</g>
</g>
<!-- dir_cfa7e2ab114a6553389f9ee886137040 -->
<g id="node3" class="node">
<title>dir_cfa7e2ab114a6553389f9ee886137040</title>
<g id="a_node3"><a xlink:href="dir_cfa7e2ab114a6553389f9ee886137040.html" target="_top" xlink:title="imgdrv">
<polygon fill="#ffffff" stroke="#ff0000" points="78,-252 24,-252 24,-216 78,-216 78,-252"/>
<text text-anchor="middle" x="51" y="-231.5" font-family="Helvetica,sans-Serif" font-size="10.00" fill="#000000">imgdrv</text>
</a>
</g>
</g>
<!-- dir_3c99d3595cafa99f0e2683197c97edf9&#45;&gt;dir_694ec83a64f58cbdefbefce65cd1011c -->
<g id="edge1" class="edge">
<title>dir_3c99d3595cafa99f0e2683197c97edf9&#45;&gt;dir_694ec83a64f58cbdefbefce65cd1011c</title>
<path fill="none" stroke="#000000" d="M189.1399,-143.8314C183.8371,-135.7079 177.4763,-125.9637 171.6327,-117.0118"/>
<polygon fill="#000000" stroke="#000000" points="174.4169,-114.8739 166.0198,-108.4133 168.5552,-118.7003 174.4169,-114.8739"/>
<g id="a_edge1&#45;headlabel"><a xlink:href="dir_000077_000025.html" target="_top" xlink:title="15">
<text text-anchor="middle" x="178.7593" y="-113.8319" font-family="Helvetica,sans-Serif" font-size="10.00" fill="#000000">15</text>
</a>
</g>
</g>
<!-- dir_3c99d3595cafa99f0e2683197c97edf9&#45;&gt;dir_a0a8ac7efb6662b749c1285408048e6d -->
<g id="edge2" class="edge">
<title>dir_3c99d3595cafa99f0e2683197c97edf9&#45;&gt;dir_a0a8ac7efb6662b749c1285408048e6d</title>
<path fill="none" stroke="#000000" d="M198.9994,-143.6975C196.9536,-125.4905 193.5764,-96.7718 190,-72 188.7968,-63.6662 187.3485,-54.6333 185.9689,-46.3832"/>
<polygon fill="#000000" stroke="#000000" points="189.4089,-45.7349 184.2816,-36.4634 182.5081,-46.9087 189.4089,-45.7349"/>
<g id="a_edge2&#45;headlabel"><a xlink:href="dir_000077_000097.html" target="_top" xlink:title="1">
<text text-anchor="middle" x="192.8107" y="-46.3026" font-family="Helvetica,sans-Serif" font-size="10.00" fill="#000000">1</text>
</a>
</g>
</g>
<!-- dir_694ec83a64f58cbdefbefce65cd1011c&#45;&gt;dir_a0a8ac7efb6662b749c1285408048e6d -->
<g id="edge3" class="edge">
<title>dir_694ec83a64f58cbdefbefce65cd1011c&#45;&gt;dir_a0a8ac7efb6662b749c1285408048e6d</title>
<path fill="none" stroke="#000000" d="M154.8608,-71.8314C157.0685,-63.8771 160.4239,-54.369 164.0776,-45.5723"/>
<polygon fill="#000000" stroke="#000000" points="167.2841,-46.9752 168.119,-36.4133 160.8798,-44.1492 167.2841,-46.9752"/>
<g id="a_edge3&#45;headlabel"><a xlink:href="dir_000025_000097.html" target="_top" xlink:title="1">
<text text-anchor="middle" x="168.4306" y="-48.91" font-family="Helvetica,sans-Serif" font-size="10.00" fill="#000000">1</text>
</a>
</g>
</g>
<!-- dir_a0a8ac7efb6662b749c1285408048e6d&#45;&gt;dir_694ec83a64f58cbdefbefce65cd1011c -->
<g id="edge4" class="edge">
<title>dir_a0a8ac7efb6662b749c1285408048e6d&#45;&gt;dir_694ec83a64f58cbdefbefce65cd1011c</title>
<path fill="none" stroke="#000000" d="M180.071,-36.4133C177.8637,-44.3141 174.5414,-53.7132 170.9269,-62.417"/>
<polygon fill="#000000" stroke="#000000" points="167.6073,-61.27 166.7656,-71.8314 174.0097,-64.1 167.6073,-61.27"/>
<g id="a_edge4&#45;headlabel"><a xlink:href="dir_000097_000025.html" target="_top" xlink:title="1">
<text text-anchor="middle" x="166.4635" y="-54.3344" font-family="Helvetica,sans-Serif" font-size="10.00" fill="#000000">1</text>
</a>
</g>
</g>
</g>
</svg>
