<?xml version="1.0" encoding="UTF-8" standalone="no"?>
<!DOCTYPE svg PUBLIC "-//W3C//DTD SVG 1.1//EN"
 "http://www.w3.org/Graphics/SVG/1.1/DTD/svg11.dtd">
<!-- Generated by graphviz version 2.40.1 (20161225.0304)
 -->
<!-- Title: ee/rpc/pad Pages: 1 -->
<svg width="359pt" height="303pt"
 viewBox="0.00 0.00 359.01 303.00" xmlns="http://www.w3.org/2000/svg" xmlns:xlink="http://www.w3.org/1999/xlink">
<g id="graph0" class="graph" transform="scale(1 1) rotate(0) translate(4 299)">
<title>ee/rpc/pad</title>
<polygon fill="#ffffff" stroke="transparent" points="-4,4 -4,-299 355.0119,-299 355.0119,4 -4,4"/>
<g id="clust1" class="cluster">
<title>clusterdir_5b119dc963fa9b25ef41951231899460</title>
<g id="a_clust1"><a xlink:href="dir_5b119dc963fa9b25ef41951231899460.html" target="_top" xlink:title="rpc">
<polygon fill="#ddddee" stroke="#000000" points="8,-128 8,-287 242,-287 242,-128 8,-128"/>
<text text-anchor="middle" x="125" y="-275" font-family="Helvetica,sans-Serif" font-size="10.00" fill="#000000">rpc</text>
</a>
</g>
</g>
<g id="clust2" class="cluster">
<title>clusterdir_5799e6857a1212b105de941c1bfdc588</title>
<g id="a_clust2"><a xlink:href="dir_5799e6857a1212b105de941c1bfdc588.html" target="_top">
<polygon fill="#eeeeff" stroke="#000000" points="16,-136 16,-260 234,-260 234,-136 16,-136"/>
</a>
</g>
</g>
<!-- dir_5799e6857a1212b105de941c1bfdc588 -->
<g id="node1" class="node">
<title>dir_5799e6857a1212b105de941c1bfdc588</title>
<text text-anchor="middle" x="199" y="-231.5" font-family="Helvetica,sans-Serif" font-size="10.00" fill="#000000">pad</text>
</g>
<!-- dir_0ebede9b392157881872441ee7719c59 -->
<g id="node2" class="node">
<title>dir_0ebede9b392157881872441ee7719c59</title>
<g id="a_node2"><a xlink:href="dir_0ebede9b392157881872441ee7719c59.html" target="_top" xlink:title="include">
<polygon fill="#ffffff" stroke="#000000" points="99,-180 45,-180 45,-144 99,-144 99,-180"/>
<text text-anchor="middle" x="72" y="-159.5" font-family="Helvetica,sans-Serif" font-size="10.00" fill="#000000">include</text>
</a>
</g>
</g>
<!-- dir_b0191c94d7a97c356c1e8e96b473b7d4 -->
<g id="node3" class="node">
<title>dir_b0191c94d7a97c356c1e8e96b473b7d4</title>
<g id="a_node3"><a xlink:href="dir_b0191c94d7a97c356c1e8e96b473b7d4.html" target="_top" xlink:title="samples">
<polygon fill="#ffffff" stroke="#000000" points="82,-252 24,-252 24,-216 82,-216 82,-252"/>
<text text-anchor="middle" x="53" y="-231.5" font-family="Helvetica,sans-Serif" font-size="10.00" fill="#000000">samples</text>
</a>
</g>
</g>
<!-- dir_b0191c94d7a97c356c1e8e96b473b7d4&#45;&gt;dir_0ebede9b392157881872441ee7719c59 -->
<g id="edge9" class="edge">
<title>dir_b0191c94d7a97c356c1e8e96b473b7d4&#45;&gt;dir_0ebede9b392157881872441ee7719c59</title>
<path fill="none" stroke="#000000" d="M57.7945,-215.8314C59.8489,-208.0463 62.296,-198.7729 64.5756,-190.1347"/>
<polygon fill="#000000" stroke="#000000" points="67.9735,-190.9753 67.1409,-180.4133 61.2052,-189.1892 67.9735,-190.9753"/>
<g id="a_edge9&#45;headlabel"><a xlink:href="dir_000154_000153.html" target="_top" xlink:title="1">
<text text-anchor="middle" x="69.8017" y="-192.6754" font-family="Helvetica,sans-Serif" font-size="10.00" fill="#000000">1</text>
</a>
</g>
</g>
<!-- dir_bdd9a5d540de89e9fe90efdfc6973a4f -->
<g id="node5" class="node">
<title>dir_bdd9a5d540de89e9fe90efdfc6973a4f</title>
<g id="a_node5"><a xlink:href="dir_bdd9a5d540de89e9fe90efdfc6973a4f.html" target="_top" xlink:title="common">
<polygon fill="#ffffff" stroke="#ff0000" points="297.5,-36 238.5,-36 238.5,0 297.5,0 297.5,-36"/>
<text text-anchor="middle" x="268" y="-15.5" font-family="Helvetica,sans-Serif" font-size="10.00" fill="#000000">common</text>
</a>
</g>
</g>
<!-- dir_b0191c94d7a97c356c1e8e96b473b7d4&#45;&gt;dir_bdd9a5d540de89e9fe90efdfc6973a4f -->
<g id="edge11" class="edge">
<title>dir_b0191c94d7a97c356c1e8e96b473b7d4&#45;&gt;dir_bdd9a5d540de89e9fe90efdfc6973a4f</title>
<path fill="none" stroke="#000000" d="M71.6546,-215.8242C82.3352,-205.3828 95.9652,-191.9992 108,-180 156.2032,-131.9394 211.9505,-75.238 243.2838,-43.2647"/>
<polygon fill="#000000" stroke="#000000" points="245.8351,-45.6618 250.3325,-36.0689 240.8345,-40.7634 245.8351,-45.6618"/>
<g id="a_edge11&#45;headlabel"><a xlink:href="dir_000154_000000.html" target="_top" xlink:title="1">
<text text-anchor="middle" x="245.3481" y="-47.7165" font-family="Helvetica,sans-Serif" font-size="10.00" fill="#000000">1</text>
</a>
</g>
</g>
<!-- dir_694ec83a64f58cbdefbefce65cd1011c -->
<g id="node6" class="node">
<title>dir_694ec83a64f58cbdefbefce65cd1011c</title>
<g id="a_node6"><a xlink:href="dir_694ec83a64f58cbdefbefce65cd1011c.html" target="_top" xlink:title="kernel">
<polygon fill="#ffffff" stroke="#ff0000" points="304,-180 250,-180 250,-144 304,-144 304,-180"/>
<text text-anchor="middle" x="277" y="-159.5" font-family="Helvetica,sans-Serif" font-size="10.00" fill="#000000">kernel</text>
</a>
</g>
</g>
<!-- dir_b0191c94d7a97c356c1e8e96b473b7d4&#45;&gt;dir_694ec83a64f58cbdefbefce65cd1011c -->
<g id="edge10" class="edge">
<title>dir_b0191c94d7a97c356c1e8e96b473b7d4&#45;&gt;dir_694ec83a64f58cbdefbefce65cd1011c</title>
<path fill="none" stroke="#000000" d="M82.2104,-219.4457C85.1469,-218.2001 88.1108,-217.0261 91,-216 154.3848,-193.4876 174.5038,-202.1962 238,-180 238.7127,-179.7508 239.4301,-179.4932 240.1506,-179.2283"/>
<polygon fill="#000000" stroke="#000000" points="241.5929,-182.4209 249.5741,-175.4531 238.9897,-175.923 241.5929,-182.4209"/>
<g id="a_edge10&#45;headlabel"><a xlink:href="dir_000154_000025.html" target="_top" xlink:title="3">
<text text-anchor="middle" x="239.3119" y="-183.8933" font-family="Helvetica,sans-Serif" font-size="10.00" fill="#000000">3</text>
</a>
</g>
</g>
<!-- dir_85ced1b8f6efd1ca0ed52ab82124f15c -->
<g id="node4" class="node">
<title>dir_85ced1b8f6efd1ca0ed52ab82124f15c</title>
<g id="a_node4"><a xlink:href="dir_85ced1b8f6efd1ca0ed52ab82124f15c.html" target="_top" xlink:title="src">
<polygon fill="#ffffff" stroke="#000000" points="154,-252 100,-252 100,-216 154,-216 154,-252"/>
<text text-anchor="middle" x="127" y="-231.5" font-family="Helvetica,sans-Serif" font-size="10.00" fill="#000000">src</text>
</a>
</g>
</g>
<!-- dir_85ced1b8f6efd1ca0ed52ab82124f15c&#45;&gt;dir_0ebede9b392157881872441ee7719c59 -->
<g id="edge3" class="edge">
<title>dir_85ced1b8f6efd1ca0ed52ab82124f15c&#45;&gt;dir_0ebede9b392157881872441ee7719c59</title>
<path fill="none" stroke="#000000" d="M113.1212,-215.8314C106.7864,-207.5386 99.1616,-197.557 92.2074,-188.4533"/>
<polygon fill="#000000" stroke="#000000" points="94.9175,-186.2353 86.0657,-180.4133 89.3548,-190.4847 94.9175,-186.2353"/>
<g id="a_edge3&#45;headlabel"><a xlink:href="dir_000066_000153.html" target="_top" xlink:title="1">
<text text-anchor="middle" x="99.3558" y="-184.8683" font-family="Helvetica,sans-Serif" font-size="10.00" fill="#000000">1</text>
</a>
</g>
</g>
<!-- dir_85ced1b8f6efd1ca0ed52ab82124f15c&#45;&gt;dir_bdd9a5d540de89e9fe90efdfc6973a4f -->
<g id="edge6" class="edge">
<title>dir_85ced1b8f6efd1ca0ed52ab82124f15c&#45;&gt;dir_bdd9a5d540de89e9fe90efdfc6973a4f</title>
<path fill="none" stroke="#000000" d="M154.2061,-219.5062C157.1313,-218.2173 160.0987,-217.0177 163,-216 235.0571,-190.7237 282.5819,-239.0491 331,-180 361.4363,-142.8809 352.2273,-115.5322 332,-72 326.2885,-59.7079 316.2483,-49.2068 305.7899,-40.8225"/>
<polygon fill="#000000" stroke="#000000" points="307.8801,-38.0151 297.7757,-34.829 303.6878,-43.6209 307.8801,-38.0151"/>
<g id="a_edge6&#45;headlabel"><a xlink:href="dir_000066_000000.html" target="_top" xlink:title="1">
<text text-anchor="middle" x="312.4592" y="-35.3942" font-family="Helvetica,sans-Serif" font-size="10.00" fill="#000000">1</text>
</a>
</g>
</g>
<!-- dir_85ced1b8f6efd1ca0ed52ab82124f15c&#45;&gt;dir_694ec83a64f58cbdefbefce65cd1011c -->
<g id="edge4" class="edge">
<title>dir_85ced1b8f6efd1ca0ed52ab82124f15c&#45;&gt;dir_694ec83a64f58cbdefbefce65cd1011c</title>
<path fill="none" stroke="#000000" d="M154.0963,-220.3747C157.096,-218.8893 160.1099,-217.4068 163,-216 188.8442,-203.4197 218.1537,-189.5449 240.5818,-179.0097"/>
<polygon fill="#000000" stroke="#000000" points="242.1753,-182.1282 249.7424,-174.7126 239.2025,-175.7908 242.1753,-182.1282"/>
<g id="a_edge4&#45;headlabel"><a xlink:href="dir_000066_000025.html" target="_top" xlink:title="3">
<text text-anchor="middle" x="240.1268" y="-183.7252" font-family="Helvetica,sans-Serif" font-size="10.00" fill="#000000">3</text>
</a>
</g>
</g>
<!-- dir_a0a8ac7efb6662b749c1285408048e6d -->
<g id="node7" class="node">
<title>dir_a0a8ac7efb6662b749c1285408048e6d</title>
<g id="a_node7"><a xlink:href="dir_a0a8ac7efb6662b749c1285408048e6d.html" target="_top" xlink:title="erl">
<polygon fill="#ffffff" stroke="#ff0000" points="323,-108 269,-108 269,-72 323,-72 323,-108"/>
<text text-anchor="middle" x="296" y="-87.5" font-family="Helvetica,sans-Serif" font-size="10.00" fill="#000000">erl</text>
</a>
</g>
</g>
<!-- dir_85ced1b8f6efd1ca0ed52ab82124f15c&#45;&gt;dir_a0a8ac7efb6662b749c1285408048e6d -->
<g id="edge5" class="edge">
<title>dir_85ced1b8f6efd1ca0ed52ab82124f15c&#45;&gt;dir_a0a8ac7efb6662b749c1285408048e6d</title>
<path fill="none" stroke="#000000" d="M154.2322,-219.5791C157.1523,-218.2759 160.1114,-217.0531 163,-216 227.4127,-192.517 270.553,-233.8396 313,-180 326.8963,-162.374 320.3001,-136.8237 311.5849,-117.4462"/>
<polygon fill="#000000" stroke="#000000" points="314.6114,-115.6678 307.0748,-108.2213 308.3228,-118.7424 314.6114,-115.6678"/>
<g id="a_edge5&#45;headlabel"><a xlink:href="dir_000066_000097.html" target="_top" xlink:title="1">
<text text-anchor="middle" x="318.7409" y="-115.1501" font-family="Helvetica,sans-Serif" font-size="10.00" fill="#000000">1</text>
</a>
</g>
</g>
<!-- dir_694ec83a64f58cbdefbefce65cd1011c&#45;&gt;dir_bdd9a5d540de89e9fe90efdfc6973a4f -->
<g id="edge1" class="edge">
<title>dir_694ec83a64f58cbdefbefce65cd1011c&#45;&gt;dir_bdd9a5d540de89e9fe90efdfc6973a4f</title>
<path fill="none" stroke="#000000" d="M269.7561,-143.8366C266.0288,-133.513 261.8812,-120.2403 260,-108 256.8278,-87.3595 259.1182,-63.8481 262.0476,-46.0333"/>
<polygon fill="#000000" stroke="#000000" points="265.5246,-46.4743 263.8603,-36.011 258.6364,-45.2284 265.5246,-46.4743"/>
<g id="a_edge1&#45;headlabel"><a xlink:href="dir_000025_000000.html" target="_top" xlink:title="24">
<text text-anchor="middle" x="267.6789" y="-48.0168" font-family="Helvetica,sans-Serif" font-size="10.00" fill="#000000">24</text>
</a>
</g>
</g>
<!-- dir_694ec83a64f58cbdefbefce65cd1011c&#45;&gt;dir_a0a8ac7efb6662b749c1285408048e6d -->
<g id="edge2" class="edge">
<title>dir_694ec83a64f58cbdefbefce65cd1011c&#45;&gt;dir_a0a8ac7efb6662b749c1285408048e6d</title>
<path fill="none" stroke="#000000" d="M275.8421,-143.8314C277.1378,-136.0463 279.3675,-126.7729 281.9708,-118.1347"/>
<polygon fill="#000000" stroke="#000000" points="285.3685,-119.0061 285.1649,-108.4133 278.7183,-116.8211 285.3685,-119.0061"/>
<g id="a_edge2&#45;headlabel"><a xlink:href="dir_000025_000097.html" target="_top" xlink:title="1">
<text text-anchor="middle" x="286.944" y="-120.8074" font-family="Helvetica,sans-Serif" font-size="10.00" fill="#000000">1</text>
</a>
</g>
</g>
<!-- dir_a0a8ac7efb6662b749c1285408048e6d&#45;&gt;dir_bdd9a5d540de89e9fe90efdfc6973a4f -->
<g id="edge7" class="edge">
<title>dir_a0a8ac7efb6662b749c1285408048e6d&#45;&gt;dir_bdd9a5d540de89e9fe90efdfc6973a4f</title>
<path fill="none" stroke="#000000" d="M288.9344,-71.8314C285.874,-63.9617 282.2221,-54.5712 278.8318,-45.8533"/>
<polygon fill="#000000" stroke="#000000" points="282.0473,-44.4647 275.1607,-36.4133 275.5232,-47.0019 282.0473,-44.4647"/>
<g id="a_edge7&#45;headlabel"><a xlink:href="dir_000097_000000.html" target="_top" xlink:title="3">
<text text-anchor="middle" x="285.9963" y="-44.2859" font-family="Helvetica,sans-Serif" font-size="10.00" fill="#000000">3</text>
</a>
</g>
</g>
<!-- dir_a0a8ac7efb6662b749c1285408048e6d&#45;&gt;dir_694ec83a64f58cbdefbefce65cd1011c -->
<g id="edge8" class="edge">
<title>dir_a0a8ac7efb6662b749c1285408048e6d&#45;&gt;dir_694ec83a64f58cbdefbefce65cd1011c</title>
<path fill="none" stroke="#000000" d="M297.117,-108.4133C295.8018,-116.2292 293.5585,-125.5113 290.9474,-134.136"/>
<polygon fill="#000000" stroke="#000000" points="287.558,-133.2382 287.7469,-143.8314 294.2052,-135.4325 287.558,-133.2382"/>
<g id="a_edge8&#45;headlabel"><a xlink:href="dir_000097_000025.html" target="_top" xlink:title="1">
<text text-anchor="middle" x="285.9886" y="-126.4348" font-family="Helvetica,sans-Serif" font-size="10.00" fill="#000000">1</text>
</a>
</g>
</g>
</g>
</svg>
