<?xml version="1.0" encoding="UTF-8" standalone="no"?>
<!DOCTYPE svg PUBLIC "-//W3C//DTD SVG 1.1//EN"
 "http://www.w3.org/Graphics/SVG/1.1/DTD/svg11.dtd">
<!-- Generated by graphviz version 2.40.1 (20161225.0304)
 -->
<!-- Title: ee/erl/samples Pages: 1 -->
<svg width="266pt" height="175pt"
 viewBox="0.00 0.00 266.00 175.00" xmlns="http://www.w3.org/2000/svg" xmlns:xlink="http://www.w3.org/1999/xlink">
<g id="graph0" class="graph" transform="scale(1 1) rotate(0) translate(4 171)">
<title>ee/erl/samples</title>
<polygon fill="#ffffff" stroke="transparent" points="-4,4 -4,-171 262,-171 262,4 -4,4"/>
<g id="clust1" class="cluster">
<title>clusterdir_a0a8ac7efb6662b749c1285408048e6d</title>
<g id="a_clust1"><a xlink:href="dir_a0a8ac7efb6662b749c1285408048e6d.html" target="_top" xlink:title="erl">
<polygon fill="#ddddee" stroke="#000000" points="8,-8 8,-159 250,-159 250,-8 8,-8"/>
<text text-anchor="middle" x="129" y="-147" font-family="Helvetica,sans-Serif" font-size="10.00" fill="#000000">erl</text>
</a>
</g>
</g>
<g id="clust2" class="cluster">
<title>clusterdir_3a8085a82633dfc165b8720c108704e8</title>
<g id="a_clust2"><a xlink:href="dir_3a8085a82633dfc165b8720c108704e8.html" target="_top">
<polygon fill="#eeeeff" stroke="#000000" points="16,-80 16,-132 242,-132 242,-80 16,-80"/>
</a>
</g>
</g>
<!-- dir_97f09241239d7d5372d6f9efe5fe96c8 -->
<g id="node1" class="node">
<title>dir_97f09241239d7d5372d6f9efe5fe96c8</title>
<g id="a_node1"><a xlink:href="dir_97f09241239d7d5372d6f9efe5fe96c8.html" target="_top" xlink:title="include">
<polygon fill="none" stroke="#000000" points="116,-52 62,-52 62,-16 116,-16 116,-52"/>
<text text-anchor="middle" x="89" y="-31.5" font-family="Helvetica,sans-Serif" font-size="10.00" fill="#000000">include</text>
</a>
</g>
</g>
<!-- dir_3a8085a82633dfc165b8720c108704e8 -->
<g id="node2" class="node">
<title>dir_3a8085a82633dfc165b8720c108704e8</title>
<text text-anchor="middle" x="205" y="-103.5" font-family="Helvetica,sans-Serif" font-size="10.00" fill="#000000">samples</text>
</g>
<!-- dir_a3e72638149f8d496cf615d00154d2db -->
<g id="node3" class="node">
<title>dir_a3e72638149f8d496cf615d00154d2db</title>
<g id="a_node3"><a xlink:href="dir_a3e72638149f8d496cf615d00154d2db.html" target="_top" xlink:title="cpp&#45;hello">
<polygon fill="#ffffff" stroke="#000000" points="158,-124 96,-124 96,-88 158,-88 158,-124"/>
<text text-anchor="middle" x="127" y="-103.5" font-family="Helvetica,sans-Serif" font-size="10.00" fill="#000000">cpp&#45;hello</text>
</a>
</g>
</g>
<!-- dir_a3e72638149f8d496cf615d00154d2db&#45;&gt;dir_97f09241239d7d5372d6f9efe5fe96c8 -->
<g id="edge2" class="edge">
<title>dir_a3e72638149f8d496cf615d00154d2db&#45;&gt;dir_97f09241239d7d5372d6f9efe5fe96c8</title>
<path fill="none" stroke="#000000" d="M117.411,-87.8314C113.1683,-79.7925 108.0879,-70.1666 103.404,-61.2918"/>
<polygon fill="#000000" stroke="#000000" points="106.4811,-59.6235 98.7181,-52.4133 100.2904,-62.8908 106.4811,-59.6235"/>
<g id="a_edge2&#45;headlabel"><a xlink:href="dir_000100_000098.html" target="_top" xlink:title="1">
<text text-anchor="middle" x="110.6699" y="-58.9772" font-family="Helvetica,sans-Serif" font-size="10.00" fill="#000000">1</text>
</a>
</g>
</g>
<!-- dir_223f0208bd9d892d32c3241bdcd11d7a -->
<g id="node4" class="node">
<title>dir_223f0208bd9d892d32c3241bdcd11d7a</title>
<g id="a_node4"><a xlink:href="dir_223f0208bd9d892d32c3241bdcd11d7a.html" target="_top" xlink:title="hello">
<polygon fill="#ffffff" stroke="#000000" points="78,-124 24,-124 24,-88 78,-88 78,-124"/>
<text text-anchor="middle" x="51" y="-103.5" font-family="Helvetica,sans-Serif" font-size="10.00" fill="#000000">hello</text>
</a>
</g>
</g>
<!-- dir_223f0208bd9d892d32c3241bdcd11d7a&#45;&gt;dir_97f09241239d7d5372d6f9efe5fe96c8 -->
<g id="edge1" class="edge">
<title>dir_223f0208bd9d892d32c3241bdcd11d7a&#45;&gt;dir_97f09241239d7d5372d6f9efe5fe96c8</title>
<path fill="none" stroke="#000000" d="M60.589,-87.8314C64.8317,-79.7925 69.9121,-70.1666 74.596,-61.2918"/>
<polygon fill="#000000" stroke="#000000" points="77.7096,-62.8908 79.2819,-52.4133 71.5189,-59.6235 77.7096,-62.8908"/>
<g id="a_edge1&#45;headlabel"><a xlink:href="dir_000101_000098.html" target="_top" xlink:title="1">
<text text-anchor="middle" x="78.5428" y="-64.895" font-family="Helvetica,sans-Serif" font-size="10.00" fill="#000000">1</text>
</a>
</g>
</g>
</g>
</svg>
