<?xml version="1.0" encoding="UTF-8" standalone="no"?>
<!DOCTYPE svg PUBLIC "-//W3C//DTD SVG 1.1//EN"
 "http://www.w3.org/Graphics/SVG/1.1/DTD/svg11.dtd">
<!-- Generated by graphviz version 2.40.1 (20161225.0304)
 -->
<!-- Title: ee/input/src Pages: 1 -->
<svg width="143pt" height="295pt"
 viewBox="0.00 0.00 143.00 295.00" xmlns="http://www.w3.org/2000/svg" xmlns:xlink="http://www.w3.org/1999/xlink">
<g id="graph0" class="graph" transform="scale(1 1) rotate(0) translate(4 291)">
<title>ee/input/src</title>
<polygon fill="#ffffff" stroke="transparent" points="-4,4 -4,-291 139,-291 139,4 -4,4"/>
<g id="clust1" class="cluster">
<title>clusterdir_39941762bcf6eb45f8acbe5afd6e1dcf</title>
<g id="a_clust1"><a xlink:href="dir_39941762bcf6eb45f8acbe5afd6e1dcf.html" target="_top" xlink:title="input">
<polygon fill="#ddddee" stroke="#000000" points="8,-136 8,-279 78,-279 78,-136 8,-136"/>
<text text-anchor="middle" x="43" y="-267" font-family="Helvetica,sans-Serif" font-size="10.00" fill="#000000">input</text>
</a>
</g>
</g>
<!-- dir_f6f36f3eb6875262b2c2259532f4a7d0 -->
<g id="node1" class="node">
<title>dir_f6f36f3eb6875262b2c2259532f4a7d0</title>
<g id="a_node1"><a xlink:href="dir_f6f36f3eb6875262b2c2259532f4a7d0.html" target="_top" xlink:title="include">
<polygon fill="none" stroke="#000000" points="70,-180 16,-180 16,-144 70,-144 70,-180"/>
<text text-anchor="middle" x="43" y="-159.5" font-family="Helvetica,sans-Serif" font-size="10.00" fill="#000000">include</text>
</a>
</g>
</g>
<!-- dir_5b119dc963fa9b25ef41951231899460 -->
<g id="node3" class="node">
<title>dir_5b119dc963fa9b25ef41951231899460</title>
<g id="a_node3"><a xlink:href="dir_5b119dc963fa9b25ef41951231899460.html" target="_top" xlink:title="rpc">
<polygon fill="#ffffff" stroke="#ff0000" points="108,-108 54,-108 54,-72 108,-72 108,-108"/>
<text text-anchor="middle" x="81" y="-87.5" font-family="Helvetica,sans-Serif" font-size="10.00" fill="#000000">rpc</text>
</a>
</g>
</g>
<!-- dir_f6f36f3eb6875262b2c2259532f4a7d0&#45;&gt;dir_5b119dc963fa9b25ef41951231899460 -->
<g id="edge5" class="edge">
<title>dir_f6f36f3eb6875262b2c2259532f4a7d0&#45;&gt;dir_5b119dc963fa9b25ef41951231899460</title>
<path fill="none" stroke="#000000" d="M52.589,-143.8314C56.8317,-135.7925 61.9121,-126.1666 66.596,-117.2918"/>
<polygon fill="#000000" stroke="#000000" points="69.7096,-118.8908 71.2819,-108.4133 63.5189,-115.6235 69.7096,-118.8908"/>
<g id="a_edge5&#45;headlabel"><a xlink:href="dir_000106_000044.html" target="_top" xlink:title="1">
<text text-anchor="middle" x="70.5428" y="-120.895" font-family="Helvetica,sans-Serif" font-size="10.00" fill="#000000">1</text>
</a>
</g>
</g>
<!-- dir_9805d618bf049a122c516d9b6b072b3f -->
<g id="node2" class="node">
<title>dir_9805d618bf049a122c516d9b6b072b3f</title>
<g id="a_node2"><a xlink:href="dir_9805d618bf049a122c516d9b6b072b3f.html" target="_top" xlink:title="src">
<polygon fill="#eeeeff" stroke="#000000" points="70,-252 16,-252 16,-216 70,-216 70,-252"/>
<text text-anchor="middle" x="43" y="-231.5" font-family="Helvetica,sans-Serif" font-size="10.00" fill="#000000">src</text>
</a>
</g>
</g>
<!-- dir_9805d618bf049a122c516d9b6b072b3f&#45;&gt;dir_f6f36f3eb6875262b2c2259532f4a7d0 -->
<g id="edge4" class="edge">
<title>dir_9805d618bf049a122c516d9b6b072b3f&#45;&gt;dir_f6f36f3eb6875262b2c2259532f4a7d0</title>
<path fill="none" stroke="#000000" d="M43,-215.8314C43,-208.131 43,-198.9743 43,-190.4166"/>
<polygon fill="#000000" stroke="#000000" points="46.5001,-190.4132 43,-180.4133 39.5001,-190.4133 46.5001,-190.4132"/>
<g id="a_edge4&#45;headlabel"><a xlink:href="dir_000022_000106.html" target="_top" xlink:title="1">
<text text-anchor="middle" x="49.3393" y="-191.5079" font-family="Helvetica,sans-Serif" font-size="10.00" fill="#000000">1</text>
</a>
</g>
</g>
<!-- dir_9805d618bf049a122c516d9b6b072b3f&#45;&gt;dir_5b119dc963fa9b25ef41951231899460 -->
<g id="edge2" class="edge">
<title>dir_9805d618bf049a122c516d9b6b072b3f&#45;&gt;dir_5b119dc963fa9b25ef41951231899460</title>
<path fill="none" stroke="#000000" d="M58.8706,-215.8799C66.5011,-205.9899 74.8707,-193.1113 79,-180 85.2891,-160.031 85.5441,-136.3173 84.3578,-118.2457"/>
<polygon fill="#000000" stroke="#000000" points="87.8276,-117.739 83.5009,-108.0679 80.8523,-118.3263 87.8276,-117.739"/>
<g id="a_edge2&#45;headlabel"><a xlink:href="dir_000022_000044.html" target="_top" xlink:title="1">
<text text-anchor="middle" x="90.9583" y="-118.5828" font-family="Helvetica,sans-Serif" font-size="10.00" fill="#000000">1</text>
</a>
</g>
</g>
<!-- dir_a0a8ac7efb6662b749c1285408048e6d -->
<g id="node4" class="node">
<title>dir_a0a8ac7efb6662b749c1285408048e6d</title>
<g id="a_node4"><a xlink:href="dir_a0a8ac7efb6662b749c1285408048e6d.html" target="_top" xlink:title="erl">
<polygon fill="#ffffff" stroke="#ff0000" points="135,-36 81,-36 81,0 135,0 135,-36"/>
<text text-anchor="middle" x="108" y="-15.5" font-family="Helvetica,sans-Serif" font-size="10.00" fill="#000000">erl</text>
</a>
</g>
</g>
<!-- dir_9805d618bf049a122c516d9b6b072b3f&#45;&gt;dir_a0a8ac7efb6662b749c1285408048e6d -->
<g id="edge3" class="edge">
<title>dir_9805d618bf049a122c516d9b6b072b3f&#45;&gt;dir_a0a8ac7efb6662b749c1285408048e6d</title>
<path fill="none" stroke="#000000" d="M64.7319,-215.8711C75.1633,-206.1699 87.0838,-193.4632 95,-180 119.829,-137.7729 121.0404,-120.8189 117,-72 116.3055,-63.6085 115.0138,-54.5578 113.6214,-46.3092"/>
<polygon fill="#000000" stroke="#000000" points="117.0544,-45.6235 111.8413,-36.3999 110.1647,-46.8612 117.0544,-45.6235"/>
<g id="a_edge3&#45;headlabel"><a xlink:href="dir_000022_000097.html" target="_top" xlink:title="1">
<text text-anchor="middle" x="120.4844" y="-46.1595" font-family="Helvetica,sans-Serif" font-size="10.00" fill="#000000">1</text>
</a>
</g>
</g>
<!-- dir_5b119dc963fa9b25ef41951231899460&#45;&gt;dir_a0a8ac7efb6662b749c1285408048e6d -->
<g id="edge1" class="edge">
<title>dir_5b119dc963fa9b25ef41951231899460&#45;&gt;dir_a0a8ac7efb6662b749c1285408048e6d</title>
<path fill="none" stroke="#000000" d="M87.8132,-71.8314C90.7644,-63.9617 94.2858,-54.5712 97.555,-45.8533"/>
<polygon fill="#000000" stroke="#000000" points="100.8609,-47.0055 101.095,-36.4133 94.3066,-44.5476 100.8609,-47.0055"/>
<g id="a_edge1&#45;headlabel"><a xlink:href="dir_000044_000097.html" target="_top" xlink:title="16">
<text text-anchor="middle" x="102.2573" y="-48.8682" font-family="Helvetica,sans-Serif" font-size="10.00" fill="#000000">16</text>
</a>
</g>
</g>
</g>
</svg>
