<?xml version="1.0" encoding="UTF-8" standalone="no"?>
<!DOCTYPE svg PUBLIC "-//W3C//DTD SVG 1.1//EN"
 "http://www.w3.org/Graphics/SVG/1.1/DTD/svg11.dtd">
<!-- Generated by graphviz version 2.40.1 (20161225.0304)
 -->
<!-- Title: ee/debug Pages: 1 -->
<svg width="340pt" height="303pt"
 viewBox="0.00 0.00 340.00 303.00" xmlns="http://www.w3.org/2000/svg" xmlns:xlink="http://www.w3.org/1999/xlink">
<g id="graph0" class="graph" transform="scale(1 1) rotate(0) translate(4 299)">
<title>ee/debug</title>
<polygon fill="#ffffff" stroke="transparent" points="-4,4 -4,-299 336,-299 336,4 -4,4"/>
<g id="clust1" class="cluster">
<title>clusterdir_049738f1909e8dc3e45fe1f6b3faa109</title>
<g id="a_clust1"><a xlink:href="dir_049738f1909e8dc3e45fe1f6b3faa109.html" target="_top" xlink:title="ee">
<polygon fill="#ddddee" stroke="#000000" points="8,-64 8,-287 324,-287 324,-64 8,-64"/>
<text text-anchor="middle" x="166" y="-275" font-family="Helvetica,sans-Serif" font-size="10.00" fill="#000000">ee</text>
</a>
</g>
</g>
<g id="clust2" class="cluster">
<title>clusterdir_c7a9def6f98954b831c78937abc1a97c</title>
<g id="a_clust2"><a xlink:href="dir_c7a9def6f98954b831c78937abc1a97c.html" target="_top">
<polygon fill="#eeeeff" stroke="#000000" points="98,-136 98,-260 316,-260 316,-136 98,-136"/>
</a>
</g>
</g>
<!-- dir_694ec83a64f58cbdefbefce65cd1011c -->
<g id="node1" class="node">
<title>dir_694ec83a64f58cbdefbefce65cd1011c</title>
<g id="a_node1"><a xlink:href="dir_694ec83a64f58cbdefbefce65cd1011c.html" target="_top" xlink:title="kernel">
<polygon fill="#ffffff" stroke="#ff0000" points="90,-180 36,-180 36,-144 90,-144 90,-180"/>
<text text-anchor="middle" x="63" y="-159.5" font-family="Helvetica,sans-Serif" font-size="10.00" fill="#000000">kernel</text>
</a>
</g>
</g>
<!-- dir_a0a8ac7efb6662b749c1285408048e6d -->
<g id="node2" class="node">
<title>dir_a0a8ac7efb6662b749c1285408048e6d</title>
<g id="a_node2"><a xlink:href="dir_a0a8ac7efb6662b749c1285408048e6d.html" target="_top" xlink:title="erl">
<polygon fill="#ffffff" stroke="#ff0000" points="86,-108 32,-108 32,-72 86,-72 86,-108"/>
<text text-anchor="middle" x="59" y="-87.5" font-family="Helvetica,sans-Serif" font-size="10.00" fill="#000000">erl</text>
</a>
</g>
</g>
<!-- dir_694ec83a64f58cbdefbefce65cd1011c&#45;&gt;dir_a0a8ac7efb6662b749c1285408048e6d -->
<g id="edge6" class="edge">
<title>dir_694ec83a64f58cbdefbefce65cd1011c&#45;&gt;dir_a0a8ac7efb6662b749c1285408048e6d</title>
<path fill="none" stroke="#000000" d="M56.0382,-143.8314C54.86,-136.131 54.1304,-126.9743 53.9636,-118.4166"/>
<polygon fill="#000000" stroke="#000000" points="57.4634,-118.4421 54.047,-108.4133 50.4637,-118.3837 57.4634,-118.4421"/>
<g id="a_edge6&#45;headlabel"><a xlink:href="dir_000025_000097.html" target="_top" xlink:title="1">
<text text-anchor="middle" x="60.2728" y="-119.5602" font-family="Helvetica,sans-Serif" font-size="10.00" fill="#000000">1</text>
</a>
</g>
</g>
<!-- dir_bdd9a5d540de89e9fe90efdfc6973a4f -->
<g id="node7" class="node">
<title>dir_bdd9a5d540de89e9fe90efdfc6973a4f</title>
<g id="a_node7"><a xlink:href="dir_bdd9a5d540de89e9fe90efdfc6973a4f.html" target="_top" xlink:title="common">
<polygon fill="#ffffff" stroke="#ff0000" points="181.5,-36 122.5,-36 122.5,0 181.5,0 181.5,-36"/>
<text text-anchor="middle" x="152" y="-15.5" font-family="Helvetica,sans-Serif" font-size="10.00" fill="#000000">common</text>
</a>
</g>
</g>
<!-- dir_694ec83a64f58cbdefbefce65cd1011c&#45;&gt;dir_bdd9a5d540de89e9fe90efdfc6973a4f -->
<g id="edge5" class="edge">
<title>dir_694ec83a64f58cbdefbefce65cd1011c&#45;&gt;dir_bdd9a5d540de89e9fe90efdfc6973a4f</title>
<path fill="none" stroke="#000000" d="M74.2719,-143.7623C89.7196,-118.7682 117.579,-73.6924 135.4109,-44.8409"/>
<polygon fill="#000000" stroke="#000000" points="138.5394,-46.4362 140.8196,-36.0896 132.5849,-42.7559 138.5394,-46.4362"/>
<g id="a_edge5&#45;headlabel"><a xlink:href="dir_000025_000000.html" target="_top" xlink:title="24">
<text text-anchor="middle" x="139.0648" y="-48.4866" font-family="Helvetica,sans-Serif" font-size="10.00" fill="#000000">24</text>
</a>
</g>
</g>
<!-- dir_a0a8ac7efb6662b749c1285408048e6d&#45;&gt;dir_694ec83a64f58cbdefbefce65cd1011c -->
<g id="edge12" class="edge">
<title>dir_a0a8ac7efb6662b749c1285408048e6d&#45;&gt;dir_694ec83a64f58cbdefbefce65cd1011c</title>
<path fill="none" stroke="#000000" d="M65.999,-108.4133C67.1549,-116.0593 67.8707,-125.1084 68.0362,-133.5726"/>
<polygon fill="#000000" stroke="#000000" points="64.5341,-133.8 67.943,-143.8314 71.5338,-133.8636 64.5341,-133.8"/>
<g id="a_edge12&#45;headlabel"><a xlink:href="dir_000097_000025.html" target="_top" xlink:title="1">
<text text-anchor="middle" x="61.7274" y="-127.6797" font-family="Helvetica,sans-Serif" font-size="10.00" fill="#000000">1</text>
</a>
</g>
</g>
<!-- dir_a0a8ac7efb6662b749c1285408048e6d&#45;&gt;dir_bdd9a5d540de89e9fe90efdfc6973a4f -->
<g id="edge11" class="edge">
<title>dir_a0a8ac7efb6662b749c1285408048e6d&#45;&gt;dir_bdd9a5d540de89e9fe90efdfc6973a4f</title>
<path fill="none" stroke="#000000" d="M82.4678,-71.8314C94.0327,-62.8779 108.1404,-51.9558 120.6183,-42.2955"/>
<polygon fill="#000000" stroke="#000000" points="122.775,-45.0521 128.5397,-36.1628 118.4898,-39.5171 122.775,-45.0521"/>
<g id="a_edge11&#45;headlabel"><a xlink:href="dir_000097_000000.html" target="_top" xlink:title="3">
<text text-anchor="middle" x="121.6708" y="-46.9977" font-family="Helvetica,sans-Serif" font-size="10.00" fill="#000000">3</text>
</a>
</g>
</g>
<!-- dir_c7a9def6f98954b831c78937abc1a97c -->
<g id="node3" class="node">
<title>dir_c7a9def6f98954b831c78937abc1a97c</title>
<text text-anchor="middle" x="281" y="-231.5" font-family="Helvetica,sans-Serif" font-size="10.00" fill="#000000">debug</text>
</g>
<!-- dir_9a2ed50503c4a05c33e063cab27eda7b -->
<g id="node4" class="node">
<title>dir_9a2ed50503c4a05c33e063cab27eda7b</title>
<g id="a_node4"><a xlink:href="dir_9a2ed50503c4a05c33e063cab27eda7b.html" target="_top" xlink:title="include">
<polygon fill="#ffffff" stroke="#000000" points="162,-180 108,-180 108,-144 162,-144 162,-180"/>
<text text-anchor="middle" x="135" y="-159.5" font-family="Helvetica,sans-Serif" font-size="10.00" fill="#000000">include</text>
</a>
</g>
</g>
<!-- dir_9a2ed50503c4a05c33e063cab27eda7b&#45;&gt;dir_bdd9a5d540de89e9fe90efdfc6973a4f -->
<g id="edge7" class="edge">
<title>dir_9a2ed50503c4a05c33e063cab27eda7b&#45;&gt;dir_bdd9a5d540de89e9fe90efdfc6973a4f</title>
<path fill="none" stroke="#000000" d="M137.1531,-143.7623C140.0527,-119.201 145.2416,-75.2474 148.6526,-46.3541"/>
<polygon fill="#000000" stroke="#000000" points="152.1678,-46.431 149.8644,-36.0896 145.2161,-45.6103 152.1678,-46.431"/>
<g id="a_edge7&#45;headlabel"><a xlink:href="dir_000006_000000.html" target="_top" xlink:title="2">
<text text-anchor="middle" x="154.5661" y="-47.8337" font-family="Helvetica,sans-Serif" font-size="10.00" fill="#000000">2</text>
</a>
</g>
</g>
<!-- dir_a04bfadbdda785661c11ab5e0b2ae316 -->
<g id="node5" class="node">
<title>dir_a04bfadbdda785661c11ab5e0b2ae316</title>
<g id="a_node5"><a xlink:href="dir_a04bfadbdda785661c11ab5e0b2ae316.html" target="_top" xlink:title="samples">
<polygon fill="#ffffff" stroke="#ff0000" points="236,-252 178,-252 178,-216 236,-216 236,-252"/>
<text text-anchor="middle" x="207" y="-231.5" font-family="Helvetica,sans-Serif" font-size="10.00" fill="#000000">samples</text>
</a>
</g>
</g>
<!-- dir_a04bfadbdda785661c11ab5e0b2ae316&#45;&gt;dir_694ec83a64f58cbdefbefce65cd1011c -->
<g id="edge8" class="edge">
<title>dir_a04bfadbdda785661c11ab5e0b2ae316&#45;&gt;dir_694ec83a64f58cbdefbefce65cd1011c</title>
<path fill="none" stroke="#000000" d="M177.8398,-220.1364C152.247,-207.9603 116.7751,-191.061 99.5083,-182.6145"/>
<polygon fill="#000000" stroke="#000000" points="100.8277,-179.3612 90.318,-178.0213 97.6982,-185.6227 100.8277,-179.3612"/>
<g id="a_edge8&#45;headlabel"><a xlink:href="dir_000007_000025.html" target="_top" xlink:title="1">
<text text-anchor="middle" x="105.3124" y="-175.9284" font-family="Helvetica,sans-Serif" font-size="10.00" fill="#000000">1</text>
</a>
</g>
</g>
<!-- dir_a04bfadbdda785661c11ab5e0b2ae316&#45;&gt;dir_9a2ed50503c4a05c33e063cab27eda7b -->
<g id="edge9" class="edge">
<title>dir_a04bfadbdda785661c11ab5e0b2ae316&#45;&gt;dir_9a2ed50503c4a05c33e063cab27eda7b</title>
<path fill="none" stroke="#000000" d="M188.8314,-215.8314C180.2848,-207.2848 169.9443,-196.9443 160.6198,-187.6198"/>
<polygon fill="#000000" stroke="#000000" points="162.9592,-185.0095 153.4133,-180.4133 158.0095,-189.9592 162.9592,-185.0095"/>
<g id="a_edge9&#45;headlabel"><a xlink:href="dir_000007_000006.html" target="_top" xlink:title="2">
<text text-anchor="middle" x="167.5087" y="-183.0436" font-family="Helvetica,sans-Serif" font-size="10.00" fill="#000000">2</text>
</a>
</g>
</g>
<!-- dir_a04bfadbdda785661c11ab5e0b2ae316&#45;&gt;dir_bdd9a5d540de89e9fe90efdfc6973a4f -->
<g id="edge10" class="edge">
<title>dir_a04bfadbdda785661c11ab5e0b2ae316&#45;&gt;dir_bdd9a5d540de89e9fe90efdfc6973a4f</title>
<path fill="none" stroke="#000000" d="M207.5068,-215.9146C207.7886,-184.0502 205.6277,-116.3274 185,-64 182.336,-57.2422 178.4598,-50.5524 174.2933,-44.4545"/>
<polygon fill="#000000" stroke="#000000" points="176.8286,-41.9937 168.0886,-36.0051 171.1865,-46.137 176.8286,-41.9937"/>
<g id="a_edge10&#45;headlabel"><a xlink:href="dir_000007_000000.html" target="_top" xlink:title="2">
<text text-anchor="middle" x="181.2447" y="-40.7105" font-family="Helvetica,sans-Serif" font-size="10.00" fill="#000000">2</text>
</a>
</g>
</g>
<!-- dir_2348634bf16b768e7dee2a8a765970c1 -->
<g id="node6" class="node">
<title>dir_2348634bf16b768e7dee2a8a765970c1</title>
<g id="a_node6"><a xlink:href="dir_2348634bf16b768e7dee2a8a765970c1.html" target="_top" xlink:title="src">
<polygon fill="#ffffff" stroke="#000000" points="160,-252 106,-252 106,-216 160,-216 160,-252"/>
<text text-anchor="middle" x="133" y="-231.5" font-family="Helvetica,sans-Serif" font-size="10.00" fill="#000000">src</text>
</a>
</g>
</g>
<!-- dir_2348634bf16b768e7dee2a8a765970c1&#45;&gt;dir_694ec83a64f58cbdefbefce65cd1011c -->
<g id="edge1" class="edge">
<title>dir_2348634bf16b768e7dee2a8a765970c1&#45;&gt;dir_694ec83a64f58cbdefbefce65cd1011c</title>
<path fill="none" stroke="#000000" d="M115.336,-215.8314C107.0268,-207.2848 96.9736,-196.9443 87.9082,-187.6198"/>
<polygon fill="#000000" stroke="#000000" points="90.3821,-185.1435 80.9018,-180.4133 85.3631,-190.023 90.3821,-185.1435"/>
<g id="a_edge1&#45;headlabel"><a xlink:href="dir_000010_000025.html" target="_top" xlink:title="4">
<text text-anchor="middle" x="94.9235" y="-183.2416" font-family="Helvetica,sans-Serif" font-size="10.00" fill="#000000">4</text>
</a>
</g>
</g>
<!-- dir_2348634bf16b768e7dee2a8a765970c1&#45;&gt;dir_a0a8ac7efb6662b749c1285408048e6d -->
<g id="edge3" class="edge">
<title>dir_2348634bf16b768e7dee2a8a765970c1&#45;&gt;dir_a0a8ac7efb6662b749c1285408048e6d</title>
<path fill="none" stroke="#000000" d="M105.788,-228.5503C80.4324,-221.8715 44.0512,-207.8227 27,-180 16.7816,-163.3265 21.1481,-154.6594 27,-136 29.1124,-129.2643 32.5983,-122.6513 36.5093,-116.6326"/>
<polygon fill="#000000" stroke="#000000" points="39.4945,-118.4738 42.433,-108.2946 33.7881,-114.4196 39.4945,-118.4738"/>
<g id="a_edge3&#45;headlabel"><a xlink:href="dir_000010_000097.html" target="_top" xlink:title="1">
<text text-anchor="middle" x="39.7273" y="-120.5485" font-family="Helvetica,sans-Serif" font-size="10.00" fill="#000000">1</text>
</a>
</g>
</g>
<!-- dir_2348634bf16b768e7dee2a8a765970c1&#45;&gt;dir_9a2ed50503c4a05c33e063cab27eda7b -->
<g id="edge2" class="edge">
<title>dir_2348634bf16b768e7dee2a8a765970c1&#45;&gt;dir_9a2ed50503c4a05c33e063cab27eda7b</title>
<path fill="none" stroke="#000000" d="M133.5047,-215.8314C133.7186,-208.131 133.9729,-198.9743 134.2106,-190.4166"/>
<polygon fill="#000000" stroke="#000000" points="137.7094,-190.5066 134.4885,-180.4133 130.7121,-190.3122 137.7094,-190.5066"/>
<g id="a_edge2&#45;headlabel"><a xlink:href="dir_000010_000006.html" target="_top" xlink:title="2">
<text text-anchor="middle" x="140.4479" y="-191.6787" font-family="Helvetica,sans-Serif" font-size="10.00" fill="#000000">2</text>
</a>
</g>
</g>
<!-- dir_2348634bf16b768e7dee2a8a765970c1&#45;&gt;dir_bdd9a5d540de89e9fe90efdfc6973a4f -->
<g id="edge4" class="edge">
<title>dir_2348634bf16b768e7dee2a8a765970c1&#45;&gt;dir_bdd9a5d540de89e9fe90efdfc6973a4f</title>
<path fill="none" stroke="#000000" d="M150.2635,-215.5761C158.2389,-205.7997 166.848,-193.1148 171,-180 185.3448,-134.6891 172.7138,-79.1593 162.3124,-46.2855"/>
<polygon fill="#000000" stroke="#000000" points="165.5206,-44.8399 159.0507,-36.4499 158.8764,-47.0433 165.5206,-44.8399"/>
<g id="a_edge4&#45;headlabel"><a xlink:href="dir_000010_000000.html" target="_top" xlink:title="3">
<text text-anchor="middle" x="169.3469" y="-44.8581" font-family="Helvetica,sans-Serif" font-size="10.00" fill="#000000">3</text>
</a>
</g>
</g>
</g>
</svg>
