<?xml version="1.0" encoding="UTF-8" standalone="no"?>
<!DOCTYPE svg PUBLIC "-//W3C//DTD SVG 1.1//EN"
 "http://www.w3.org/Graphics/SVG/1.1/DTD/svg11.dtd">
<!-- Generated by graphviz version 2.40.1 (20161225.0304)
 -->
<!-- Title: ee/libvux Pages: 1 -->
<svg width="244pt" height="183pt"
 viewBox="0.00 0.00 244.00 183.00" xmlns="http://www.w3.org/2000/svg" xmlns:xlink="http://www.w3.org/1999/xlink">
<g id="graph0" class="graph" transform="scale(1 1) rotate(0) translate(4 179)">
<title>ee/libvux</title>
<polygon fill="#ffffff" stroke="transparent" points="-4,4 -4,-179 240,-179 240,4 -4,4"/>
<g id="clust1" class="cluster">
<title>clusterdir_049738f1909e8dc3e45fe1f6b3faa109</title>
<g id="a_clust1"><a xlink:href="dir_049738f1909e8dc3e45fe1f6b3faa109.html" target="_top" xlink:title="ee">
<polygon fill="#ddddee" stroke="#000000" points="8,-8 8,-167 228,-167 228,-8 8,-8"/>
<text text-anchor="middle" x="118" y="-155" font-family="Helvetica,sans-Serif" font-size="10.00" fill="#000000">ee</text>
</a>
</g>
</g>
<g id="clust2" class="cluster">
<title>clusterdir_53afae995724263ef157d83ff8fe3fe4</title>
<g id="a_clust2"><a xlink:href="dir_53afae995724263ef157d83ff8fe3fe4.html" target="_top">
<polygon fill="#eeeeff" stroke="#000000" points="16,-16 16,-140 158,-140 158,-16 16,-16"/>
</a>
</g>
</g>
<!-- dir_a0a8ac7efb6662b749c1285408048e6d -->
<g id="node1" class="node">
<title>dir_a0a8ac7efb6662b749c1285408048e6d</title>
<g id="a_node1"><a xlink:href="dir_a0a8ac7efb6662b749c1285408048e6d.html" target="_top" xlink:title="erl">
<polygon fill="#ffffff" stroke="#ff0000" points="220,-60 166,-60 166,-24 220,-24 220,-60"/>
<text text-anchor="middle" x="193" y="-39.5" font-family="Helvetica,sans-Serif" font-size="10.00" fill="#000000">erl</text>
</a>
</g>
</g>
<!-- dir_53afae995724263ef157d83ff8fe3fe4 -->
<g id="node2" class="node">
<title>dir_53afae995724263ef157d83ff8fe3fe4</title>
<text text-anchor="middle" x="123" y="-111.5" font-family="Helvetica,sans-Serif" font-size="10.00" fill="#000000">libvux</text>
</g>
<!-- dir_30a389187753df23749947c0b14cee5f -->
<g id="node3" class="node">
<title>dir_30a389187753df23749947c0b14cee5f</title>
<g id="a_node3"><a xlink:href="dir_30a389187753df23749947c0b14cee5f.html" target="_top" xlink:title="include">
<polygon fill="#ffffff" stroke="#000000" points="78,-60 24,-60 24,-24 78,-24 78,-60"/>
<text text-anchor="middle" x="51" y="-39.5" font-family="Helvetica,sans-Serif" font-size="10.00" fill="#000000">include</text>
</a>
</g>
</g>
<!-- dir_e45d88c07cbfec1ea295334984feb137 -->
<g id="node4" class="node">
<title>dir_e45d88c07cbfec1ea295334984feb137</title>
<g id="a_node4"><a xlink:href="dir_e45d88c07cbfec1ea295334984feb137.html" target="_top" xlink:title="src">
<polygon fill="#ffffff" stroke="#000000" points="78,-132 24,-132 24,-96 78,-96 78,-132"/>
<text text-anchor="middle" x="51" y="-111.5" font-family="Helvetica,sans-Serif" font-size="10.00" fill="#000000">src</text>
</a>
</g>
</g>
<!-- dir_e45d88c07cbfec1ea295334984feb137&#45;&gt;dir_a0a8ac7efb6662b749c1285408048e6d -->
<g id="edge2" class="edge">
<title>dir_e45d88c07cbfec1ea295334984feb137&#45;&gt;dir_a0a8ac7efb6662b749c1285408048e6d</title>
<path fill="none" stroke="#000000" d="M78.1036,-100.3897C81.102,-98.9015 84.1135,-97.4143 87,-96 117.2201,-81.1933 127.4879,-77.8457 156.503,-62.829"/>
<polygon fill="#000000" stroke="#000000" points="158.4483,-65.761 165.6807,-58.0187 155.1987,-59.561 158.4483,-65.761"/>
<g id="a_edge2&#45;headlabel"><a xlink:href="dir_000030_000097.html" target="_top" xlink:title="1">
<text text-anchor="middle" x="156.5826" y="-67.4445" font-family="Helvetica,sans-Serif" font-size="10.00" fill="#000000">1</text>
</a>
</g>
</g>
<!-- dir_e45d88c07cbfec1ea295334984feb137&#45;&gt;dir_30a389187753df23749947c0b14cee5f -->
<g id="edge1" class="edge">
<title>dir_e45d88c07cbfec1ea295334984feb137&#45;&gt;dir_30a389187753df23749947c0b14cee5f</title>
<path fill="none" stroke="#000000" d="M51,-95.8314C51,-88.131 51,-78.9743 51,-70.4166"/>
<polygon fill="#000000" stroke="#000000" points="54.5001,-70.4132 51,-60.4133 47.5001,-70.4133 54.5001,-70.4132"/>
<g id="a_edge1&#45;headlabel"><a xlink:href="dir_000030_000122.html" target="_top" xlink:title="4">
<text text-anchor="middle" x="57.3393" y="-71.5079" font-family="Helvetica,sans-Serif" font-size="10.00" fill="#000000">4</text>
</a>
</g>
</g>
</g>
</svg>
