<?xml version="1.0" encoding="UTF-8" standalone="no"?>
<!DOCTYPE svg PUBLIC "-//W3C//DTD SVG 1.1//EN"
 "http://www.w3.org/Graphics/SVG/1.1/DTD/svg11.dtd">
<!-- Generated by graphviz version 2.40.1 (20161225.0304)
 -->
<!-- Title: ee/libc/src Pages: 1 -->
<svg width="156pt" height="167pt"
 viewBox="0.00 0.00 155.50 167.00" xmlns="http://www.w3.org/2000/svg" xmlns:xlink="http://www.w3.org/1999/xlink">
<g id="graph0" class="graph" transform="scale(1 1) rotate(0) translate(4 163)">
<title>ee/libc/src</title>
<polygon fill="#ffffff" stroke="transparent" points="-4,4 -4,-163 151.5,-163 151.5,4 -4,4"/>
<g id="clust1" class="cluster">
<title>clusterdir_4bdd3f0b1709457e1be42b8162664eee</title>
<g id="a_clust1"><a xlink:href="dir_4bdd3f0b1709457e1be42b8162664eee.html" target="_top" xlink:title="libc">
<polygon fill="#ddddee" stroke="#000000" points="8,-8 8,-151 78,-151 78,-8 8,-8"/>
<text text-anchor="middle" x="43" y="-139" font-family="Helvetica,sans-Serif" font-size="10.00" fill="#000000">libc</text>
</a>
</g>
</g>
<!-- dir_39d6953f1eb69dcf4512295f197273ef -->
<g id="node1" class="node">
<title>dir_39d6953f1eb69dcf4512295f197273ef</title>
<g id="a_node1"><a xlink:href="dir_39d6953f1eb69dcf4512295f197273ef.html" target="_top" xlink:title="include">
<polygon fill="none" stroke="#000000" points="70,-52 16,-52 16,-16 70,-16 70,-52"/>
<text text-anchor="middle" x="43" y="-31.5" font-family="Helvetica,sans-Serif" font-size="10.00" fill="#000000">include</text>
</a>
</g>
</g>
<!-- dir_98e6ef8179a6a3884f43ad475401c7a7 -->
<g id="node2" class="node">
<title>dir_98e6ef8179a6a3884f43ad475401c7a7</title>
<g id="a_node2"><a xlink:href="dir_98e6ef8179a6a3884f43ad475401c7a7.html" target="_top" xlink:title="src">
<polygon fill="#eeeeff" stroke="#000000" points="70,-124 16,-124 16,-88 70,-88 70,-124"/>
<text text-anchor="middle" x="43" y="-103.5" font-family="Helvetica,sans-Serif" font-size="10.00" fill="#000000">src</text>
</a>
</g>
</g>
<!-- dir_98e6ef8179a6a3884f43ad475401c7a7&#45;&gt;dir_39d6953f1eb69dcf4512295f197273ef -->
<g id="edge3" class="edge">
<title>dir_98e6ef8179a6a3884f43ad475401c7a7&#45;&gt;dir_39d6953f1eb69dcf4512295f197273ef</title>
<path fill="none" stroke="#000000" d="M43,-87.8314C43,-80.131 43,-70.9743 43,-62.4166"/>
<polygon fill="#000000" stroke="#000000" points="46.5001,-62.4132 43,-52.4133 39.5001,-62.4133 46.5001,-62.4132"/>
<g id="a_edge3&#45;headlabel"><a xlink:href="dir_000120_000119.html" target="_top" xlink:title="4">
<text text-anchor="middle" x="49.3393" y="-63.5079" font-family="Helvetica,sans-Serif" font-size="10.00" fill="#000000">4</text>
</a>
</g>
</g>
<!-- dir_694ec83a64f58cbdefbefce65cd1011c -->
<g id="node3" class="node">
<title>dir_694ec83a64f58cbdefbefce65cd1011c</title>
<g id="a_node3"><a xlink:href="dir_694ec83a64f58cbdefbefce65cd1011c.html" target="_top" xlink:title="kernel">
<polygon fill="#ffffff" stroke="#ff0000" points="142,-124 88,-124 88,-88 142,-88 142,-124"/>
<text text-anchor="middle" x="115" y="-103.5" font-family="Helvetica,sans-Serif" font-size="10.00" fill="#000000">kernel</text>
</a>
</g>
</g>
<!-- dir_98e6ef8179a6a3884f43ad475401c7a7&#45;&gt;dir_694ec83a64f58cbdefbefce65cd1011c -->
<g id="edge4" class="edge">
<title>dir_98e6ef8179a6a3884f43ad475401c7a7&#45;&gt;dir_694ec83a64f58cbdefbefce65cd1011c</title>
<path fill="none" stroke="#000000" d="M70.2813,-106C72.7377,-106 75.1942,-106 77.6507,-106"/>
<polygon fill="#000000" stroke="#000000" points="77.7495,-109.5001 87.7495,-106 77.7495,-102.5001 77.7495,-109.5001"/>
<g id="a_edge4&#45;headlabel"><a xlink:href="dir_000120_000025.html" target="_top" xlink:title="9">
<text text-anchor="middle" x="74.1549" y="-109.8393" font-family="Helvetica,sans-Serif" font-size="10.00" fill="#000000">9</text>
</a>
</g>
</g>
<!-- dir_bdd9a5d540de89e9fe90efdfc6973a4f -->
<g id="node4" class="node">
<title>dir_bdd9a5d540de89e9fe90efdfc6973a4f</title>
<g id="a_node4"><a xlink:href="dir_bdd9a5d540de89e9fe90efdfc6973a4f.html" target="_top" xlink:title="common">
<polygon fill="#ffffff" stroke="#ff0000" points="147.5,-52 88.5,-52 88.5,-16 147.5,-16 147.5,-52"/>
<text text-anchor="middle" x="118" y="-31.5" font-family="Helvetica,sans-Serif" font-size="10.00" fill="#000000">common</text>
</a>
</g>
</g>
<!-- dir_98e6ef8179a6a3884f43ad475401c7a7&#45;&gt;dir_bdd9a5d540de89e9fe90efdfc6973a4f -->
<g id="edge5" class="edge">
<title>dir_98e6ef8179a6a3884f43ad475401c7a7&#45;&gt;dir_bdd9a5d540de89e9fe90efdfc6973a4f</title>
<path fill="none" stroke="#000000" d="M61.9257,-87.8314C70.9857,-79.1337 81.9809,-68.5783 91.8265,-59.1265"/>
<polygon fill="#000000" stroke="#000000" points="94.2904,-61.613 99.0804,-52.1628 89.4426,-56.5633 94.2904,-61.613"/>
<g id="a_edge5&#45;headlabel"><a xlink:href="dir_000120_000000.html" target="_top" xlink:title="6">
<text text-anchor="middle" x="93.6636" y="-63.6506" font-family="Helvetica,sans-Serif" font-size="10.00" fill="#000000">6</text>
</a>
</g>
</g>
<!-- dir_694ec83a64f58cbdefbefce65cd1011c&#45;&gt;dir_39d6953f1eb69dcf4512295f197273ef -->
<g id="edge2" class="edge">
<title>dir_694ec83a64f58cbdefbefce65cd1011c&#45;&gt;dir_39d6953f1eb69dcf4512295f197273ef</title>
<path fill="none" stroke="#000000" d="M96.8314,-87.8314C88.2848,-79.2848 77.9443,-68.9443 68.6198,-59.6198"/>
<polygon fill="#000000" stroke="#000000" points="70.9592,-57.0095 61.4133,-52.4133 66.0095,-61.9592 70.9592,-57.0095"/>
<g id="a_edge2&#45;headlabel"><a xlink:href="dir_000025_000119.html" target="_top" xlink:title="1">
<text text-anchor="middle" x="75.5087" y="-55.0436" font-family="Helvetica,sans-Serif" font-size="10.00" fill="#000000">1</text>
</a>
</g>
</g>
<!-- dir_694ec83a64f58cbdefbefce65cd1011c&#45;&gt;dir_bdd9a5d540de89e9fe90efdfc6973a4f -->
<g id="edge1" class="edge">
<title>dir_694ec83a64f58cbdefbefce65cd1011c&#45;&gt;dir_bdd9a5d540de89e9fe90efdfc6973a4f</title>
<path fill="none" stroke="#000000" d="M115.757,-87.8314C116.0779,-80.131 116.4594,-70.9743 116.816,-62.4166"/>
<polygon fill="#000000" stroke="#000000" points="120.3133,-62.5503 117.2328,-52.4133 113.3194,-62.2589 120.3133,-62.5503"/>
<g id="a_edge1&#45;headlabel"><a xlink:href="dir_000025_000000.html" target="_top" xlink:title="24">
<text text-anchor="middle" x="123.0006" y="-63.76" font-family="Helvetica,sans-Serif" font-size="10.00" fill="#000000">24</text>
</a>
</g>
</g>
</g>
</svg>
