<?xml version="1.0" encoding="UTF-8" standalone="no"?>
<!DOCTYPE svg PUBLIC "-//W3C//DTD SVG 1.1//EN"
 "http://www.w3.org/Graphics/SVG/1.1/DTD/svg11.dtd">
<!-- Generated by graphviz version 2.40.1 (20161225.0304)
 -->
<!-- Title: ee/input Pages: 1 -->
<svg width="182pt" height="319pt"
 viewBox="0.00 0.00 182.00 319.00" xmlns="http://www.w3.org/2000/svg" xmlns:xlink="http://www.w3.org/1999/xlink">
<g id="graph0" class="graph" transform="scale(1 1) rotate(0) translate(4 315)">
<title>ee/input</title>
<polygon fill="#ffffff" stroke="transparent" points="-4,4 -4,-315 178,-315 178,4 -4,4"/>
<g id="clust1" class="cluster">
<title>clusterdir_049738f1909e8dc3e45fe1f6b3faa109</title>
<g id="a_clust1"><a xlink:href="dir_049738f1909e8dc3e45fe1f6b3faa109.html" target="_top" xlink:title="ee">
<polygon fill="#ddddee" stroke="#000000" points="8,-8 8,-303 166,-303 166,-8 8,-8"/>
<text text-anchor="middle" x="87" y="-291" font-family="Helvetica,sans-Serif" font-size="10.00" fill="#000000">ee</text>
</a>
</g>
</g>
<g id="clust2" class="cluster">
<title>clusterdir_39941762bcf6eb45f8acbe5afd6e1dcf</title>
<g id="a_clust2"><a xlink:href="dir_39941762bcf6eb45f8acbe5afd6e1dcf.html" target="_top">
<polygon fill="#eeeeff" stroke="#000000" points="16,-152 16,-276 158,-276 158,-152 16,-152"/>
</a>
</g>
</g>
<!-- dir_5b119dc963fa9b25ef41951231899460 -->
<g id="node1" class="node">
<title>dir_5b119dc963fa9b25ef41951231899460</title>
<g id="a_node1"><a xlink:href="dir_5b119dc963fa9b25ef41951231899460.html" target="_top" xlink:title="rpc">
<polygon fill="#ffffff" stroke="#ff0000" points="98,-124 44,-124 44,-88 98,-88 98,-124"/>
<text text-anchor="middle" x="71" y="-103.5" font-family="Helvetica,sans-Serif" font-size="10.00" fill="#000000">rpc</text>
</a>
</g>
</g>
<!-- dir_a0a8ac7efb6662b749c1285408048e6d -->
<g id="node2" class="node">
<title>dir_a0a8ac7efb6662b749c1285408048e6d</title>
<g id="a_node2"><a xlink:href="dir_a0a8ac7efb6662b749c1285408048e6d.html" target="_top" xlink:title="erl">
<polygon fill="#ffffff" stroke="#ff0000" points="121,-52 67,-52 67,-16 121,-16 121,-52"/>
<text text-anchor="middle" x="94" y="-31.5" font-family="Helvetica,sans-Serif" font-size="10.00" fill="#000000">erl</text>
</a>
</g>
</g>
<!-- dir_5b119dc963fa9b25ef41951231899460&#45;&gt;dir_a0a8ac7efb6662b749c1285408048e6d -->
<g id="edge1" class="edge">
<title>dir_5b119dc963fa9b25ef41951231899460&#45;&gt;dir_a0a8ac7efb6662b749c1285408048e6d</title>
<path fill="none" stroke="#000000" d="M76.8039,-87.8314C79.2908,-80.0463 82.2531,-70.7729 85.0125,-62.1347"/>
<polygon fill="#000000" stroke="#000000" points="88.409,-63.0041 88.118,-52.4133 81.7409,-60.874 88.409,-63.0041"/>
<g id="a_edge1&#45;headlabel"><a xlink:href="dir_000044_000097.html" target="_top" xlink:title="16">
<text text-anchor="middle" x="90.0199" y="-64.7922" font-family="Helvetica,sans-Serif" font-size="10.00" fill="#000000">16</text>
</a>
</g>
</g>
<!-- dir_39941762bcf6eb45f8acbe5afd6e1dcf -->
<g id="node3" class="node">
<title>dir_39941762bcf6eb45f8acbe5afd6e1dcf</title>
<text text-anchor="middle" x="123" y="-247.5" font-family="Helvetica,sans-Serif" font-size="10.00" fill="#000000">input</text>
</g>
<!-- dir_f6f36f3eb6875262b2c2259532f4a7d0 -->
<g id="node4" class="node">
<title>dir_f6f36f3eb6875262b2c2259532f4a7d0</title>
<g id="a_node4"><a xlink:href="dir_f6f36f3eb6875262b2c2259532f4a7d0.html" target="_top" xlink:title="include">
<polygon fill="#ffffff" stroke="#000000" points="78,-196 24,-196 24,-160 78,-160 78,-196"/>
<text text-anchor="middle" x="51" y="-175.5" font-family="Helvetica,sans-Serif" font-size="10.00" fill="#000000">include</text>
</a>
</g>
</g>
<!-- dir_f6f36f3eb6875262b2c2259532f4a7d0&#45;&gt;dir_5b119dc963fa9b25ef41951231899460 -->
<g id="edge5" class="edge">
<title>dir_f6f36f3eb6875262b2c2259532f4a7d0&#45;&gt;dir_5b119dc963fa9b25ef41951231899460</title>
<path fill="none" stroke="#000000" d="M56.0468,-159.8314C58.2094,-152.0463 60.7853,-142.7729 63.1848,-134.1347"/>
<polygon fill="#000000" stroke="#000000" points="66.581,-134.9852 65.8852,-124.4133 59.8364,-133.1117 66.581,-134.9852"/>
<g id="a_edge5&#45;headlabel"><a xlink:href="dir_000106_000044.html" target="_top" xlink:title="1">
<text text-anchor="middle" x="68.3547" y="-136.7086" font-family="Helvetica,sans-Serif" font-size="10.00" fill="#000000">1</text>
</a>
</g>
</g>
<!-- dir_9805d618bf049a122c516d9b6b072b3f -->
<g id="node5" class="node">
<title>dir_9805d618bf049a122c516d9b6b072b3f</title>
<g id="a_node5"><a xlink:href="dir_9805d618bf049a122c516d9b6b072b3f.html" target="_top" xlink:title="src">
<polygon fill="#ffffff" stroke="#000000" points="78,-268 24,-268 24,-232 78,-232 78,-268"/>
<text text-anchor="middle" x="51" y="-247.5" font-family="Helvetica,sans-Serif" font-size="10.00" fill="#000000">src</text>
</a>
</g>
</g>
<!-- dir_9805d618bf049a122c516d9b6b072b3f&#45;&gt;dir_5b119dc963fa9b25ef41951231899460 -->
<g id="edge2" class="edge">
<title>dir_9805d618bf049a122c516d9b6b072b3f&#45;&gt;dir_5b119dc963fa9b25ef41951231899460</title>
<path fill="none" stroke="#000000" d="M66.9905,-231.9169C74.6538,-222.0371 83.0166,-209.1563 87,-196 93.1797,-175.5897 88.4636,-151.8092 82.5875,-133.8201"/>
<polygon fill="#000000" stroke="#000000" points="85.8213,-132.4682 79.1667,-124.224 79.2277,-134.8186 85.8213,-132.4682"/>
<g id="a_edge2&#45;headlabel"><a xlink:href="dir_000022_000044.html" target="_top" xlink:title="1">
<text text-anchor="middle" x="89.7027" y="-132.4007" font-family="Helvetica,sans-Serif" font-size="10.00" fill="#000000">1</text>
</a>
</g>
</g>
<!-- dir_9805d618bf049a122c516d9b6b072b3f&#45;&gt;dir_a0a8ac7efb6662b749c1285408048e6d -->
<g id="edge3" class="edge">
<title>dir_9805d618bf049a122c516d9b6b072b3f&#45;&gt;dir_a0a8ac7efb6662b749c1285408048e6d</title>
<path fill="none" stroke="#000000" d="M68.548,-231.9458C77.1855,-222.0738 87.0052,-209.1915 93,-196 113.0251,-151.9352 112.704,-136.0643 107,-88 105.9932,-79.5166 104.1264,-70.4376 102.1153,-62.1913"/>
<polygon fill="#000000" stroke="#000000" points="105.4472,-61.0971 99.5446,-52.2988 98.6722,-62.8576 105.4472,-61.0971"/>
<g id="a_edge3&#45;headlabel"><a xlink:href="dir_000022_000097.html" target="_top" xlink:title="1">
<text text-anchor="middle" x="109.0992" y="-61.3621" font-family="Helvetica,sans-Serif" font-size="10.00" fill="#000000">1</text>
</a>
</g>
</g>
<!-- dir_9805d618bf049a122c516d9b6b072b3f&#45;&gt;dir_f6f36f3eb6875262b2c2259532f4a7d0 -->
<g id="edge4" class="edge">
<title>dir_9805d618bf049a122c516d9b6b072b3f&#45;&gt;dir_f6f36f3eb6875262b2c2259532f4a7d0</title>
<path fill="none" stroke="#000000" d="M51,-231.8314C51,-224.131 51,-214.9743 51,-206.4166"/>
<polygon fill="#000000" stroke="#000000" points="54.5001,-206.4132 51,-196.4133 47.5001,-206.4133 54.5001,-206.4132"/>
<g id="a_edge4&#45;headlabel"><a xlink:href="dir_000022_000106.html" target="_top" xlink:title="1">
<text text-anchor="middle" x="57.3393" y="-207.5079" font-family="Helvetica,sans-Serif" font-size="10.00" fill="#000000">1</text>
</a>
</g>
</g>
</g>
</svg>
