<?xml version="1.0" encoding="UTF-8" standalone="no"?>
<!DOCTYPE svg PUBLIC "-//W3C//DTD SVG 1.1//EN"
 "http://www.w3.org/Graphics/SVG/1.1/DTD/svg11.dtd">
<!-- Generated by graphviz version 2.40.1 (20161225.0304)
 -->
<!-- Title: ee/rpc/hdd/src Pages: 1 -->
<svg width="268pt" height="367pt"
 viewBox="0.00 0.00 268.35 367.00" xmlns="http://www.w3.org/2000/svg" xmlns:xlink="http://www.w3.org/1999/xlink">
<g id="graph0" class="graph" transform="scale(1 1) rotate(0) translate(4 363)">
<title>ee/rpc/hdd/src</title>
<polygon fill="#ffffff" stroke="transparent" points="-4,4 -4,-363 264.3529,-363 264.3529,4 -4,4"/>
<g id="clust1" class="cluster">
<title>clusterdir_221acb9d8828939c8c28e19ee4eb114c</title>
<g id="a_clust1"><a xlink:href="dir_221acb9d8828939c8c28e19ee4eb114c.html" target="_top" xlink:title="hdd">
<polygon fill="#ddddee" stroke="#000000" points="8,-208 8,-351 78,-351 78,-208 8,-208"/>
<text text-anchor="middle" x="43" y="-339" font-family="Helvetica,sans-Serif" font-size="10.00" fill="#000000">hdd</text>
</a>
</g>
</g>
<!-- dir_889111e6013952a2fadab5588c28433a -->
<g id="node1" class="node">
<title>dir_889111e6013952a2fadab5588c28433a</title>
<g id="a_node1"><a xlink:href="dir_889111e6013952a2fadab5588c28433a.html" target="_top" xlink:title="include">
<polygon fill="none" stroke="#000000" points="70,-252 16,-252 16,-216 70,-216 70,-252"/>
<text text-anchor="middle" x="43" y="-231.5" font-family="Helvetica,sans-Serif" font-size="10.00" fill="#000000">include</text>
</a>
</g>
</g>
<!-- dir_bdd9a5d540de89e9fe90efdfc6973a4f -->
<g id="node6" class="node">
<title>dir_bdd9a5d540de89e9fe90efdfc6973a4f</title>
<g id="a_node6"><a xlink:href="dir_bdd9a5d540de89e9fe90efdfc6973a4f.html" target="_top" xlink:title="common">
<polygon fill="#ffffff" stroke="#ff0000" points="195.5,-36 136.5,-36 136.5,0 195.5,0 195.5,-36"/>
<text text-anchor="middle" x="166" y="-15.5" font-family="Helvetica,sans-Serif" font-size="10.00" fill="#000000">common</text>
</a>
</g>
</g>
<!-- dir_889111e6013952a2fadab5588c28433a&#45;&gt;dir_bdd9a5d540de89e9fe90efdfc6973a4f -->
<g id="edge11" class="edge">
<title>dir_889111e6013952a2fadab5588c28433a&#45;&gt;dir_bdd9a5d540de89e9fe90efdfc6973a4f</title>
<path fill="none" stroke="#000000" d="M49.0207,-215.7674C59.7428,-184.7076 84.0524,-120.2177 116,-72 122.6589,-61.9499 131.202,-51.9721 139.3355,-43.3788"/>
<polygon fill="#000000" stroke="#000000" points="141.8442,-45.8194 146.3202,-36.2164 136.8327,-40.9322 141.8442,-45.8194"/>
<g id="a_edge11&#45;headlabel"><a xlink:href="dir_000146_000000.html" target="_top" xlink:title="2">
<text text-anchor="middle" x="141.3673" y="-47.8751" font-family="Helvetica,sans-Serif" font-size="10.00" fill="#000000">2</text>
</a>
</g>
</g>
<!-- dir_649ece9c59c1ccd3cc9fc0658b53f87d -->
<g id="node2" class="node">
<title>dir_649ece9c59c1ccd3cc9fc0658b53f87d</title>
<g id="a_node2"><a xlink:href="dir_649ece9c59c1ccd3cc9fc0658b53f87d.html" target="_top" xlink:title="src">
<polygon fill="#eeeeff" stroke="#000000" points="70,-324 16,-324 16,-288 70,-288 70,-324"/>
<text text-anchor="middle" x="43" y="-303.5" font-family="Helvetica,sans-Serif" font-size="10.00" fill="#000000">src</text>
</a>
</g>
</g>
<!-- dir_649ece9c59c1ccd3cc9fc0658b53f87d&#45;&gt;dir_889111e6013952a2fadab5588c28433a -->
<g id="edge3" class="edge">
<title>dir_649ece9c59c1ccd3cc9fc0658b53f87d&#45;&gt;dir_889111e6013952a2fadab5588c28433a</title>
<path fill="none" stroke="#000000" d="M43,-287.8314C43,-280.131 43,-270.9743 43,-262.4166"/>
<polygon fill="#000000" stroke="#000000" points="46.5001,-262.4132 43,-252.4133 39.5001,-262.4133 46.5001,-262.4132"/>
<g id="a_edge3&#45;headlabel"><a xlink:href="dir_000056_000146.html" target="_top" xlink:title="1">
<text text-anchor="middle" x="49.3393" y="-263.5079" font-family="Helvetica,sans-Serif" font-size="10.00" fill="#000000">1</text>
</a>
</g>
</g>
<!-- dir_694ec83a64f58cbdefbefce65cd1011c -->
<g id="node3" class="node">
<title>dir_694ec83a64f58cbdefbefce65cd1011c</title>
<g id="a_node3"><a xlink:href="dir_694ec83a64f58cbdefbefce65cd1011c.html" target="_top" xlink:title="kernel">
<polygon fill="#ffffff" stroke="#ff0000" points="248,-180 194,-180 194,-144 248,-144 248,-180"/>
<text text-anchor="middle" x="221" y="-159.5" font-family="Helvetica,sans-Serif" font-size="10.00" fill="#000000">kernel</text>
</a>
</g>
</g>
<!-- dir_649ece9c59c1ccd3cc9fc0658b53f87d&#45;&gt;dir_694ec83a64f58cbdefbefce65cd1011c -->
<g id="edge1" class="edge">
<title>dir_649ece9c59c1ccd3cc9fc0658b53f87d&#45;&gt;dir_694ec83a64f58cbdefbefce65cd1011c</title>
<path fill="none" stroke="#000000" d="M70.0784,-302.1991C101.3065,-296.4836 152.3907,-282.8503 184,-252 201.012,-235.3965 210.501,-209.8547 215.5974,-190.2167"/>
<polygon fill="#000000" stroke="#000000" points="219.0503,-190.823 217.9378,-180.2868 212.237,-189.2172 219.0503,-190.823"/>
<g id="a_edge1&#45;headlabel"><a xlink:href="dir_000056_000025.html" target="_top" xlink:title="4">
<text text-anchor="middle" x="220.9894" y="-192.4731" font-family="Helvetica,sans-Serif" font-size="10.00" fill="#000000">4</text>
</a>
</g>
</g>
<!-- dir_6b1fe306776c19ae02b5b1275d4c63ec -->
<g id="node4" class="node">
<title>dir_6b1fe306776c19ae02b5b1275d4c63ec</title>
<g id="a_node4"><a xlink:href="dir_6b1fe306776c19ae02b5b1275d4c63ec.html" target="_top" xlink:title="filexio">
<polygon fill="#ffffff" stroke="#ff0000" points="142,-252 88,-252 88,-216 142,-216 142,-252"/>
<text text-anchor="middle" x="115" y="-231.5" font-family="Helvetica,sans-Serif" font-size="10.00" fill="#000000">filexio</text>
</a>
</g>
</g>
<!-- dir_649ece9c59c1ccd3cc9fc0658b53f87d&#45;&gt;dir_6b1fe306776c19ae02b5b1275d4c63ec -->
<g id="edge2" class="edge">
<title>dir_649ece9c59c1ccd3cc9fc0658b53f87d&#45;&gt;dir_6b1fe306776c19ae02b5b1275d4c63ec</title>
<path fill="none" stroke="#000000" d="M61.1686,-287.8314C69.7152,-279.2848 80.0557,-268.9443 89.3802,-259.6198"/>
<polygon fill="#000000" stroke="#000000" points="91.9905,-261.9592 96.5867,-252.4133 87.0408,-257.0095 91.9905,-261.9592"/>
<g id="a_edge2&#45;headlabel"><a xlink:href="dir_000056_000053.html" target="_top" xlink:title="1">
<text text-anchor="middle" x="91.4564" y="-264.0087" font-family="Helvetica,sans-Serif" font-size="10.00" fill="#000000">1</text>
</a>
</g>
</g>
<!-- dir_a0a8ac7efb6662b749c1285408048e6d -->
<g id="node5" class="node">
<title>dir_a0a8ac7efb6662b749c1285408048e6d</title>
<g id="a_node5"><a xlink:href="dir_a0a8ac7efb6662b749c1285408048e6d.html" target="_top" xlink:title="erl">
<polygon fill="#ffffff" stroke="#ff0000" points="193,-108 139,-108 139,-72 193,-72 193,-108"/>
<text text-anchor="middle" x="166" y="-87.5" font-family="Helvetica,sans-Serif" font-size="10.00" fill="#000000">erl</text>
</a>
</g>
</g>
<!-- dir_649ece9c59c1ccd3cc9fc0658b53f87d&#45;&gt;dir_a0a8ac7efb6662b749c1285408048e6d -->
<g id="edge4" class="edge">
<title>dir_649ece9c59c1ccd3cc9fc0658b53f87d&#45;&gt;dir_a0a8ac7efb6662b749c1285408048e6d</title>
<path fill="none" stroke="#000000" d="M70.1443,-300.3387C95.5474,-293.503 132.3052,-279.3414 151,-252 178.3786,-211.9584 175.7744,-152.7359 171.0935,-118.0867"/>
<polygon fill="#000000" stroke="#000000" points="174.5508,-117.5404 169.6051,-108.1708 167.6284,-118.5796 174.5508,-117.5404"/>
<g id="a_edge4&#45;headlabel"><a xlink:href="dir_000056_000097.html" target="_top" xlink:title="1">
<text text-anchor="middle" x="177.8922" y="-118.1738" font-family="Helvetica,sans-Serif" font-size="10.00" fill="#000000">1</text>
</a>
</g>
</g>
<!-- dir_649ece9c59c1ccd3cc9fc0658b53f87d&#45;&gt;dir_bdd9a5d540de89e9fe90efdfc6973a4f -->
<g id="edge5" class="edge">
<title>dir_649ece9c59c1ccd3cc9fc0658b53f87d&#45;&gt;dir_bdd9a5d540de89e9fe90efdfc6973a4f</title>
<path fill="none" stroke="#000000" d="M70.1556,-302.8835C105.5077,-297.6494 167.7546,-284.2892 210,-252 240.3615,-228.7939 246.1032,-216.6279 257,-180 272.5839,-127.6173 227.6865,-73.6169 195.5344,-43.0817"/>
<polygon fill="#000000" stroke="#000000" points="197.8064,-40.4158 188.085,-36.2032 193.0576,-45.5587 197.8064,-40.4158"/>
<g id="a_edge5&#45;headlabel"><a xlink:href="dir_000056_000000.html" target="_top" xlink:title="4">
<text text-anchor="middle" x="202.3735" y="-38.2683" font-family="Helvetica,sans-Serif" font-size="10.00" fill="#000000">4</text>
</a>
</g>
</g>
<!-- dir_694ec83a64f58cbdefbefce65cd1011c&#45;&gt;dir_a0a8ac7efb6662b749c1285408048e6d -->
<g id="edge7" class="edge">
<title>dir_694ec83a64f58cbdefbefce65cd1011c&#45;&gt;dir_a0a8ac7efb6662b749c1285408048e6d</title>
<path fill="none" stroke="#000000" d="M201.1688,-143.8314C194.0988,-135.6232 186.3665,-125.7606 179.8734,-116.7323"/>
<polygon fill="#000000" stroke="#000000" points="182.6718,-114.626 174.0897,-108.4133 176.9243,-118.6219 182.6718,-114.626"/>
<g id="a_edge7&#45;headlabel"><a xlink:href="dir_000025_000097.html" target="_top" xlink:title="1">
<text text-anchor="middle" x="187.0549" y="-113.4567" font-family="Helvetica,sans-Serif" font-size="10.00" fill="#000000">1</text>
</a>
</g>
</g>
<!-- dir_694ec83a64f58cbdefbefce65cd1011c&#45;&gt;dir_bdd9a5d540de89e9fe90efdfc6973a4f -->
<g id="edge6" class="edge">
<title>dir_694ec83a64f58cbdefbefce65cd1011c&#45;&gt;dir_bdd9a5d540de89e9fe90efdfc6973a4f</title>
<path fill="none" stroke="#000000" d="M219.2095,-143.8083C216.9112,-125.1875 211.9655,-95.7008 202,-72 198.0456,-62.5953 192.3848,-53.0879 186.7195,-44.727"/>
<polygon fill="#000000" stroke="#000000" points="189.5184,-42.6231 180.8853,-36.4815 183.8041,-46.6664 189.5184,-42.6231"/>
<g id="a_edge6&#45;headlabel"><a xlink:href="dir_000025_000000.html" target="_top" xlink:title="24">
<text text-anchor="middle" x="193.9124" y="-41.4175" font-family="Helvetica,sans-Serif" font-size="10.00" fill="#000000">24</text>
</a>
</g>
</g>
<!-- dir_6b1fe306776c19ae02b5b1275d4c63ec&#45;&gt;dir_694ec83a64f58cbdefbefce65cd1011c -->
<g id="edge10" class="edge">
<title>dir_6b1fe306776c19ae02b5b1275d4c63ec&#45;&gt;dir_694ec83a64f58cbdefbefce65cd1011c</title>
<path fill="none" stroke="#000000" d="M141.7483,-215.8314C155.0553,-206.7927 171.316,-195.7476 185.6375,-186.0198"/>
<polygon fill="#000000" stroke="#000000" points="187.9547,-188.677 194.2603,-180.1628 184.0215,-182.8864 187.9547,-188.677"/>
<g id="a_edge10&#45;headlabel"><a xlink:href="dir_000053_000025.html" target="_top" xlink:title="2">
<text text-anchor="middle" x="186.5765" y="-190.5454" font-family="Helvetica,sans-Serif" font-size="10.00" fill="#000000">2</text>
</a>
</g>
</g>
<!-- dir_6b1fe306776c19ae02b5b1275d4c63ec&#45;&gt;dir_a0a8ac7efb6662b749c1285408048e6d -->
<g id="edge9" class="edge">
<title>dir_6b1fe306776c19ae02b5b1275d4c63ec&#45;&gt;dir_a0a8ac7efb6662b749c1285408048e6d</title>
<path fill="none" stroke="#000000" d="M121.4592,-215.7623C130.2346,-190.9846 145.9997,-146.4714 156.2272,-117.5939"/>
<polygon fill="#000000" stroke="#000000" points="159.5539,-118.6844 159.5933,-108.0896 152.9555,-116.3474 159.5539,-118.6844"/>
<g id="a_edge9&#45;headlabel"><a xlink:href="dir_000053_000097.html" target="_top" xlink:title="1">
<text text-anchor="middle" x="161.0303" y="-120.5206" font-family="Helvetica,sans-Serif" font-size="10.00" fill="#000000">1</text>
</a>
</g>
</g>
<!-- dir_6b1fe306776c19ae02b5b1275d4c63ec&#45;&gt;dir_bdd9a5d540de89e9fe90efdfc6973a4f -->
<g id="edge8" class="edge">
<title>dir_6b1fe306776c19ae02b5b1275d4c63ec&#45;&gt;dir_bdd9a5d540de89e9fe90efdfc6973a4f</title>
<path fill="none" stroke="#000000" d="M113.841,-215.8894C112.4965,-185.2818 112.3774,-121.7922 130,-72 133.4039,-62.3824 138.9036,-52.8127 144.5907,-44.4602"/>
<polygon fill="#000000" stroke="#000000" points="147.5024,-46.4061 150.5051,-36.2457 141.8216,-42.316 147.5024,-46.4061"/>
<g id="a_edge8&#45;headlabel"><a xlink:href="dir_000053_000000.html" target="_top" xlink:title="3">
<text text-anchor="middle" x="147.7063" y="-48.4823" font-family="Helvetica,sans-Serif" font-size="10.00" fill="#000000">3</text>
</a>
</g>
</g>
<!-- dir_a0a8ac7efb6662b749c1285408048e6d&#45;&gt;dir_694ec83a64f58cbdefbefce65cd1011c -->
<g id="edge13" class="edge">
<title>dir_a0a8ac7efb6662b749c1285408048e6d&#45;&gt;dir_694ec83a64f58cbdefbefce65cd1011c</title>
<path fill="none" stroke="#000000" d="M186.0417,-108.4133C193.1246,-116.654 200.851,-126.5245 207.3194,-135.536"/>
<polygon fill="#000000" stroke="#000000" points="204.4981,-137.6095 213.0736,-143.8314 210.2498,-133.6197 204.4981,-137.6095"/>
<g id="a_edge13&#45;headlabel"><a xlink:href="dir_000097_000025.html" target="_top" xlink:title="1">
<text text-anchor="middle" x="200.1164" y="-133.7742" font-family="Helvetica,sans-Serif" font-size="10.00" fill="#000000">1</text>
</a>
</g>
</g>
<!-- dir_a0a8ac7efb6662b749c1285408048e6d&#45;&gt;dir_bdd9a5d540de89e9fe90efdfc6973a4f -->
<g id="edge12" class="edge">
<title>dir_a0a8ac7efb6662b749c1285408048e6d&#45;&gt;dir_bdd9a5d540de89e9fe90efdfc6973a4f</title>
<path fill="none" stroke="#000000" d="M166,-71.8314C166,-64.131 166,-54.9743 166,-46.4166"/>
<polygon fill="#000000" stroke="#000000" points="169.5001,-46.4132 166,-36.4133 162.5001,-46.4133 169.5001,-46.4132"/>
<g id="a_edge12&#45;headlabel"><a xlink:href="dir_000097_000000.html" target="_top" xlink:title="3">
<text text-anchor="middle" x="172.3393" y="-47.5079" font-family="Helvetica,sans-Serif" font-size="10.00" fill="#000000">3</text>
</a>
</g>
</g>
</g>
</svg>
