<?xml version="1.0" encoding="UTF-8" standalone="no"?>
<!DOCTYPE svg PUBLIC "-//W3C//DTD SVG 1.1//EN"
 "http://www.w3.org/Graphics/SVG/1.1/DTD/svg11.dtd">
<!-- Generated by graphviz version 2.40.1 (20161225.0304)
 -->
<!-- Title: ee/rpc/poweroff Pages: 1 -->
<svg width="365pt" height="303pt"
 viewBox="0.00 0.00 365.07 303.00" xmlns="http://www.w3.org/2000/svg" xmlns:xlink="http://www.w3.org/1999/xlink">
<g id="graph0" class="graph" transform="scale(1 1) rotate(0) translate(4 299)">
<title>ee/rpc/poweroff</title>
<polygon fill="#ffffff" stroke="transparent" points="-4,4 -4,-299 361.0693,-299 361.0693,4 -4,4"/>
<g id="clust1" class="cluster">
<title>clusterdir_5b119dc963fa9b25ef41951231899460</title>
<g id="a_clust1"><a xlink:href="dir_5b119dc963fa9b25ef41951231899460.html" target="_top" xlink:title="rpc">
<polygon fill="#ddddee" stroke="#000000" points="8,-128 8,-287 248,-287 248,-128 8,-128"/>
<text text-anchor="middle" x="128" y="-275" font-family="Helvetica,sans-Serif" font-size="10.00" fill="#000000">rpc</text>
</a>
</g>
</g>
<g id="clust2" class="cluster">
<title>clusterdir_b4755258f2e93c4a8a26138734da4ea3</title>
<g id="a_clust2"><a xlink:href="dir_b4755258f2e93c4a8a26138734da4ea3.html" target="_top">
<polygon fill="#eeeeff" stroke="#000000" points="16,-136 16,-260 240,-260 240,-136 16,-136"/>
</a>
</g>
</g>
<!-- dir_b4755258f2e93c4a8a26138734da4ea3 -->
<g id="node1" class="node">
<title>dir_b4755258f2e93c4a8a26138734da4ea3</title>
<text text-anchor="middle" x="202" y="-231.5" font-family="Helvetica,sans-Serif" font-size="10.00" fill="#000000">poweroff</text>
</g>
<!-- dir_3b98ff2c691c6f2c545fcc182457325d -->
<g id="node2" class="node">
<title>dir_3b98ff2c691c6f2c545fcc182457325d</title>
<g id="a_node2"><a xlink:href="dir_3b98ff2c691c6f2c545fcc182457325d.html" target="_top" xlink:title="include">
<polygon fill="#ffffff" stroke="#000000" points="100,-180 46,-180 46,-144 100,-144 100,-180"/>
<text text-anchor="middle" x="73" y="-159.5" font-family="Helvetica,sans-Serif" font-size="10.00" fill="#000000">include</text>
</a>
</g>
</g>
<!-- dir_90fd9368d5b23df979ac3246958fcf4e -->
<g id="node3" class="node">
<title>dir_90fd9368d5b23df979ac3246958fcf4e</title>
<g id="a_node3"><a xlink:href="dir_90fd9368d5b23df979ac3246958fcf4e.html" target="_top" xlink:title="samples">
<polygon fill="#ffffff" stroke="#000000" points="82,-252 24,-252 24,-216 82,-216 82,-252"/>
<text text-anchor="middle" x="53" y="-231.5" font-family="Helvetica,sans-Serif" font-size="10.00" fill="#000000">samples</text>
</a>
</g>
</g>
<!-- dir_90fd9368d5b23df979ac3246958fcf4e&#45;&gt;dir_3b98ff2c691c6f2c545fcc182457325d -->
<g id="edge3" class="edge">
<title>dir_90fd9368d5b23df979ac3246958fcf4e&#45;&gt;dir_3b98ff2c691c6f2c545fcc182457325d</title>
<path fill="none" stroke="#000000" d="M58.0468,-215.8314C60.2094,-208.0463 62.7853,-198.7729 65.1848,-190.1347"/>
<polygon fill="#000000" stroke="#000000" points="68.581,-190.9852 67.8852,-180.4133 61.8364,-189.1117 68.581,-190.9852"/>
<g id="a_edge3&#45;headlabel"><a xlink:href="dir_000158_000157.html" target="_top" xlink:title="1">
<text text-anchor="middle" x="70.3547" y="-192.7086" font-family="Helvetica,sans-Serif" font-size="10.00" fill="#000000">1</text>
</a>
</g>
</g>
<!-- dir_bdd9a5d540de89e9fe90efdfc6973a4f -->
<g id="node5" class="node">
<title>dir_bdd9a5d540de89e9fe90efdfc6973a4f</title>
<g id="a_node5"><a xlink:href="dir_bdd9a5d540de89e9fe90efdfc6973a4f.html" target="_top" xlink:title="common">
<polygon fill="#ffffff" stroke="#ff0000" points="303.5,-36 244.5,-36 244.5,0 303.5,0 303.5,-36"/>
<text text-anchor="middle" x="274" y="-15.5" font-family="Helvetica,sans-Serif" font-size="10.00" fill="#000000">common</text>
</a>
</g>
</g>
<!-- dir_90fd9368d5b23df979ac3246958fcf4e&#45;&gt;dir_bdd9a5d540de89e9fe90efdfc6973a4f -->
<g id="edge5" class="edge">
<title>dir_90fd9368d5b23df979ac3246958fcf4e&#45;&gt;dir_bdd9a5d540de89e9fe90efdfc6973a4f</title>
<path fill="none" stroke="#000000" d="M71.9634,-215.7956C82.8284,-205.3451 96.7065,-191.9617 109,-180 158.5444,-131.7927 216.0908,-75.1419 248.4583,-43.2175"/>
<polygon fill="#000000" stroke="#000000" points="251.0797,-45.548 255.7404,-36.0333 246.1635,-40.5649 251.0797,-45.548"/>
<g id="a_edge5&#45;headlabel"><a xlink:href="dir_000158_000000.html" target="_top" xlink:title="2">
<text text-anchor="middle" x="250.5149" y="-47.5937" font-family="Helvetica,sans-Serif" font-size="10.00" fill="#000000">2</text>
</a>
</g>
</g>
<!-- dir_694ec83a64f58cbdefbefce65cd1011c -->
<g id="node6" class="node">
<title>dir_694ec83a64f58cbdefbefce65cd1011c</title>
<g id="a_node6"><a xlink:href="dir_694ec83a64f58cbdefbefce65cd1011c.html" target="_top" xlink:title="kernel">
<polygon fill="#ffffff" stroke="#ff0000" points="310,-180 256,-180 256,-144 310,-144 310,-180"/>
<text text-anchor="middle" x="283" y="-159.5" font-family="Helvetica,sans-Serif" font-size="10.00" fill="#000000">kernel</text>
</a>
</g>
</g>
<!-- dir_90fd9368d5b23df979ac3246958fcf4e&#45;&gt;dir_694ec83a64f58cbdefbefce65cd1011c -->
<g id="edge4" class="edge">
<title>dir_90fd9368d5b23df979ac3246958fcf4e&#45;&gt;dir_694ec83a64f58cbdefbefce65cd1011c</title>
<path fill="none" stroke="#000000" d="M82.2007,-219.4182C85.1391,-218.1781 88.1062,-217.013 91,-216 156.9338,-192.9189 177.952,-202.7522 244,-180 244.7139,-179.7541 245.4323,-179.4995 246.1538,-179.2372"/>
<polygon fill="#000000" stroke="#000000" points="247.5872,-182.4338 255.5853,-175.4854 244.9998,-175.9295 247.5872,-182.4338"/>
<g id="a_edge4&#45;headlabel"><a xlink:href="dir_000158_000025.html" target="_top" xlink:title="3">
<text text-anchor="middle" x="245.2966" y="-183.9006" font-family="Helvetica,sans-Serif" font-size="10.00" fill="#000000">3</text>
</a>
</g>
</g>
<!-- dir_f8f00ca48f0867f976c806c2aee604a7 -->
<g id="node4" class="node">
<title>dir_f8f00ca48f0867f976c806c2aee604a7</title>
<g id="a_node4"><a xlink:href="dir_f8f00ca48f0867f976c806c2aee604a7.html" target="_top" xlink:title="src">
<polygon fill="#ffffff" stroke="#000000" points="154,-252 100,-252 100,-216 154,-216 154,-252"/>
<text text-anchor="middle" x="127" y="-231.5" font-family="Helvetica,sans-Serif" font-size="10.00" fill="#000000">src</text>
</a>
</g>
</g>
<!-- dir_f8f00ca48f0867f976c806c2aee604a7&#45;&gt;dir_3b98ff2c691c6f2c545fcc182457325d -->
<g id="edge8" class="edge">
<title>dir_f8f00ca48f0867f976c806c2aee604a7&#45;&gt;dir_3b98ff2c691c6f2c545fcc182457325d</title>
<path fill="none" stroke="#000000" d="M113.3735,-215.8314C107.154,-207.5386 99.6678,-197.557 92.84,-188.4533"/>
<polygon fill="#000000" stroke="#000000" points="95.61,-186.3133 86.81,-180.4133 90.01,-190.5133 95.61,-186.3133"/>
<g id="a_edge8&#45;headlabel"><a xlink:href="dir_000068_000157.html" target="_top" xlink:title="1">
<text text-anchor="middle" x="100.0381" y="-184.9854" font-family="Helvetica,sans-Serif" font-size="10.00" fill="#000000">1</text>
</a>
</g>
</g>
<!-- dir_f8f00ca48f0867f976c806c2aee604a7&#45;&gt;dir_bdd9a5d540de89e9fe90efdfc6973a4f -->
<g id="edge11" class="edge">
<title>dir_f8f00ca48f0867f976c806c2aee604a7&#45;&gt;dir_bdd9a5d540de89e9fe90efdfc6973a4f</title>
<path fill="none" stroke="#000000" d="M154.1988,-219.4851C157.1254,-218.2003 160.0951,-217.0074 163,-216 237.6114,-190.1238 286.7116,-240.8894 337,-180 367.5674,-142.9888 358.2273,-115.5322 338,-72 332.2885,-59.7079 322.2483,-49.2068 311.7899,-40.8225"/>
<polygon fill="#000000" stroke="#000000" points="313.8801,-38.0151 303.7757,-34.829 309.6878,-43.6209 313.8801,-38.0151"/>
<g id="a_edge11&#45;headlabel"><a xlink:href="dir_000068_000000.html" target="_top" xlink:title="3">
<text text-anchor="middle" x="318.4592" y="-35.3942" font-family="Helvetica,sans-Serif" font-size="10.00" fill="#000000">3</text>
</a>
</g>
</g>
<!-- dir_f8f00ca48f0867f976c806c2aee604a7&#45;&gt;dir_694ec83a64f58cbdefbefce65cd1011c -->
<g id="edge9" class="edge">
<title>dir_f8f00ca48f0867f976c806c2aee604a7&#45;&gt;dir_694ec83a64f58cbdefbefce65cd1011c</title>
<path fill="none" stroke="#000000" d="M154.0624,-220.3041C157.0685,-218.8318 160.0931,-217.3718 163,-216 198.6274,-199.1866 208.1144,-196.2549 244,-180 244.8321,-179.6231 245.6739,-179.241 246.5225,-178.8552"/>
<polygon fill="#000000" stroke="#000000" points="248.108,-181.9788 255.7475,-174.6378 245.1976,-175.6125 248.108,-181.9788"/>
<g id="a_edge9&#45;headlabel"><a xlink:href="dir_000068_000025.html" target="_top" xlink:title="2">
<text text-anchor="middle" x="246.0194" y="-183.5555" font-family="Helvetica,sans-Serif" font-size="10.00" fill="#000000">2</text>
</a>
</g>
</g>
<!-- dir_a0a8ac7efb6662b749c1285408048e6d -->
<g id="node7" class="node">
<title>dir_a0a8ac7efb6662b749c1285408048e6d</title>
<g id="a_node7"><a xlink:href="dir_a0a8ac7efb6662b749c1285408048e6d.html" target="_top" xlink:title="erl">
<polygon fill="#ffffff" stroke="#ff0000" points="329,-108 275,-108 275,-72 329,-72 329,-108"/>
<text text-anchor="middle" x="302" y="-87.5" font-family="Helvetica,sans-Serif" font-size="10.00" fill="#000000">erl</text>
</a>
</g>
</g>
<!-- dir_f8f00ca48f0867f976c806c2aee604a7&#45;&gt;dir_a0a8ac7efb6662b749c1285408048e6d -->
<g id="edge10" class="edge">
<title>dir_f8f00ca48f0867f976c806c2aee604a7&#45;&gt;dir_a0a8ac7efb6662b749c1285408048e6d</title>
<path fill="none" stroke="#000000" d="M154.2228,-219.5531C157.1447,-218.255 160.1068,-217.0405 163,-216 229.9574,-191.9205 274.702,-235.6848 319,-180 332.9732,-162.435 326.3691,-136.8784 317.6314,-117.483"/>
<polygon fill="#000000" stroke="#000000" points="320.6504,-115.6898 313.1089,-108.2483 314.3638,-118.7686 320.6504,-115.6898"/>
<g id="a_edge10&#45;headlabel"><a xlink:href="dir_000068_000097.html" target="_top" xlink:title="1">
<text text-anchor="middle" x="324.7813" y="-115.1693" font-family="Helvetica,sans-Serif" font-size="10.00" fill="#000000">1</text>
</a>
</g>
</g>
<!-- dir_694ec83a64f58cbdefbefce65cd1011c&#45;&gt;dir_bdd9a5d540de89e9fe90efdfc6973a4f -->
<g id="edge1" class="edge">
<title>dir_694ec83a64f58cbdefbefce65cd1011c&#45;&gt;dir_bdd9a5d540de89e9fe90efdfc6973a4f</title>
<path fill="none" stroke="#000000" d="M275.7561,-143.8366C272.0288,-133.513 267.8812,-120.2403 266,-108 262.8278,-87.3595 265.1182,-63.8481 268.0476,-46.0333"/>
<polygon fill="#000000" stroke="#000000" points="271.5246,-46.4743 269.8603,-36.011 264.6364,-45.2284 271.5246,-46.4743"/>
<g id="a_edge1&#45;headlabel"><a xlink:href="dir_000025_000000.html" target="_top" xlink:title="24">
<text text-anchor="middle" x="273.6789" y="-48.0168" font-family="Helvetica,sans-Serif" font-size="10.00" fill="#000000">24</text>
</a>
</g>
</g>
<!-- dir_694ec83a64f58cbdefbefce65cd1011c&#45;&gt;dir_a0a8ac7efb6662b749c1285408048e6d -->
<g id="edge2" class="edge">
<title>dir_694ec83a64f58cbdefbefce65cd1011c&#45;&gt;dir_a0a8ac7efb6662b749c1285408048e6d</title>
<path fill="none" stroke="#000000" d="M281.8421,-143.8314C283.1378,-136.0463 285.3675,-126.7729 287.9708,-118.1347"/>
<polygon fill="#000000" stroke="#000000" points="291.3685,-119.0061 291.1649,-108.4133 284.7183,-116.8211 291.3685,-119.0061"/>
<g id="a_edge2&#45;headlabel"><a xlink:href="dir_000025_000097.html" target="_top" xlink:title="1">
<text text-anchor="middle" x="292.944" y="-120.8074" font-family="Helvetica,sans-Serif" font-size="10.00" fill="#000000">1</text>
</a>
</g>
</g>
<!-- dir_a0a8ac7efb6662b749c1285408048e6d&#45;&gt;dir_bdd9a5d540de89e9fe90efdfc6973a4f -->
<g id="edge6" class="edge">
<title>dir_a0a8ac7efb6662b749c1285408048e6d&#45;&gt;dir_bdd9a5d540de89e9fe90efdfc6973a4f</title>
<path fill="none" stroke="#000000" d="M294.9344,-71.8314C291.874,-63.9617 288.2221,-54.5712 284.8318,-45.8533"/>
<polygon fill="#000000" stroke="#000000" points="288.0473,-44.4647 281.1607,-36.4133 281.5232,-47.0019 288.0473,-44.4647"/>
<g id="a_edge6&#45;headlabel"><a xlink:href="dir_000097_000000.html" target="_top" xlink:title="3">
<text text-anchor="middle" x="291.9963" y="-44.2859" font-family="Helvetica,sans-Serif" font-size="10.00" fill="#000000">3</text>
</a>
</g>
</g>
<!-- dir_a0a8ac7efb6662b749c1285408048e6d&#45;&gt;dir_694ec83a64f58cbdefbefce65cd1011c -->
<g id="edge7" class="edge">
<title>dir_a0a8ac7efb6662b749c1285408048e6d&#45;&gt;dir_694ec83a64f58cbdefbefce65cd1011c</title>
<path fill="none" stroke="#000000" d="M303.117,-108.4133C301.8018,-116.2292 299.5585,-125.5113 296.9474,-134.136"/>
<polygon fill="#000000" stroke="#000000" points="293.558,-133.2382 293.7469,-143.8314 300.2052,-135.4325 293.558,-133.2382"/>
<g id="a_edge7&#45;headlabel"><a xlink:href="dir_000097_000025.html" target="_top" xlink:title="1">
<text text-anchor="middle" x="291.9886" y="-126.4348" font-family="Helvetica,sans-Serif" font-size="10.00" fill="#000000">1</text>
</a>
</g>
</g>
</g>
</svg>
