<?xml version="1.0" encoding="UTF-8" standalone="no"?>
<!DOCTYPE svg PUBLIC "-//W3C//DTD SVG 1.1//EN"
 "http://www.w3.org/Graphics/SVG/1.1/DTD/svg11.dtd">
<!-- Generated by graphviz version 2.40.1 (20161225.0304)
 -->
<!-- Title: ee/rpc/ps2snd Pages: 1 -->
<svg width="347pt" height="303pt"
 viewBox="0.00 0.00 346.54 303.00" xmlns="http://www.w3.org/2000/svg" xmlns:xlink="http://www.w3.org/1999/xlink">
<g id="graph0" class="graph" transform="scale(1 1) rotate(0) translate(4 299)">
<title>ee/rpc/ps2snd</title>
<polygon fill="#ffffff" stroke="transparent" points="-4,4 -4,-299 342.5418,-299 342.5418,4 -4,4"/>
<g id="clust1" class="cluster">
<title>clusterdir_5b119dc963fa9b25ef41951231899460</title>
<g id="a_clust1"><a xlink:href="dir_5b119dc963fa9b25ef41951231899460.html" target="_top" xlink:title="rpc">
<polygon fill="#ddddee" stroke="#000000" points="24.5418,-200 24.5418,-287 330.5418,-287 330.5418,-200 24.5418,-200"/>
<text text-anchor="middle" x="177.5418" y="-275" font-family="Helvetica,sans-Serif" font-size="10.00" fill="#000000">rpc</text>
</a>
</g>
</g>
<g id="clust2" class="cluster">
<title>clusterdir_9257be179ffb1bae505ffa73096b7986</title>
<g id="a_clust2"><a xlink:href="dir_9257be179ffb1bae505ffa73096b7986.html" target="_top">
<polygon fill="#eeeeff" stroke="#000000" points="32.5418,-208 32.5418,-260 322.5418,-260 322.5418,-208 32.5418,-208"/>
</a>
</g>
</g>
<!-- dir_9257be179ffb1bae505ffa73096b7986 -->
<g id="node1" class="node">
<title>dir_9257be179ffb1bae505ffa73096b7986</title>
<text text-anchor="middle" x="287.5418" y="-231.5" font-family="Helvetica,sans-Serif" font-size="10.00" fill="#000000">ps2snd</text>
</g>
<!-- dir_840d45e55d4a7bd01c453be7ad942e0e -->
<g id="node2" class="node">
<title>dir_840d45e55d4a7bd01c453be7ad942e0e</title>
<g id="a_node2"><a xlink:href="dir_840d45e55d4a7bd01c453be7ad942e0e.html" target="_top" xlink:title="include">
<polygon fill="#ffffff" stroke="#000000" points="170.5418,-252 116.5418,-252 116.5418,-216 170.5418,-216 170.5418,-252"/>
<text text-anchor="middle" x="143.5418" y="-231.5" font-family="Helvetica,sans-Serif" font-size="10.00" fill="#000000">include</text>
</a>
</g>
</g>
<!-- dir_bdd9a5d540de89e9fe90efdfc6973a4f -->
<g id="node5" class="node">
<title>dir_bdd9a5d540de89e9fe90efdfc6973a4f</title>
<g id="a_node5"><a xlink:href="dir_bdd9a5d540de89e9fe90efdfc6973a4f.html" target="_top" xlink:title="common">
<polygon fill="#ffffff" stroke="#ff0000" points="124.0418,-36 65.0418,-36 65.0418,0 124.0418,0 124.0418,-36"/>
<text text-anchor="middle" x="94.5418" y="-15.5" font-family="Helvetica,sans-Serif" font-size="10.00" fill="#000000">common</text>
</a>
</g>
</g>
<!-- dir_840d45e55d4a7bd01c453be7ad942e0e&#45;&gt;dir_bdd9a5d540de89e9fe90efdfc6973a4f -->
<g id="edge3" class="edge">
<title>dir_840d45e55d4a7bd01c453be7ad942e0e&#45;&gt;dir_bdd9a5d540de89e9fe90efdfc6973a4f</title>
<path fill="none" stroke="#000000" d="M150.8909,-215.975C162.3394,-184.9508 180.9178,-120.1565 158.5418,-72 152.8302,-59.7079 142.79,-49.2068 132.3317,-40.8225"/>
<polygon fill="#000000" stroke="#000000" points="134.4219,-38.0151 124.3174,-34.829 130.2295,-43.6209 134.4219,-38.0151"/>
<g id="a_edge3&#45;headlabel"><a xlink:href="dir_000159_000000.html" target="_top" xlink:title="1">
<text text-anchor="middle" x="139.0009" y="-35.3942" font-family="Helvetica,sans-Serif" font-size="10.00" fill="#000000">1</text>
</a>
</g>
</g>
<!-- dir_bcb01560ff934e1b88a9958ec214521a -->
<g id="node3" class="node">
<title>dir_bcb01560ff934e1b88a9958ec214521a</title>
<g id="a_node3"><a xlink:href="dir_bcb01560ff934e1b88a9958ec214521a.html" target="_top" xlink:title="samples">
<polygon fill="#ffffff" stroke="#000000" points="98.5418,-252 40.5418,-252 40.5418,-216 98.5418,-216 98.5418,-252"/>
<text text-anchor="middle" x="69.5418" y="-231.5" font-family="Helvetica,sans-Serif" font-size="10.00" fill="#000000">samples</text>
</a>
</g>
</g>
<!-- dir_bcb01560ff934e1b88a9958ec214521a&#45;&gt;dir_bdd9a5d540de89e9fe90efdfc6973a4f -->
<g id="edge7" class="edge">
<title>dir_bcb01560ff934e1b88a9958ec214521a&#45;&gt;dir_bdd9a5d540de89e9fe90efdfc6973a4f</title>
<path fill="none" stroke="#000000" d="M44.0366,-215.9627C33.0664,-206.6284 21.4273,-194.2089 15.5418,-180 -2.827,-135.6538 -6.8617,-114.451 15.5418,-72 24.2275,-55.5419 40.4375,-43.1479 55.9241,-34.4123"/>
<polygon fill="#000000" stroke="#000000" points="57.6783,-37.4443 64.8964,-29.6887 54.4173,-31.2502 57.6783,-37.4443"/>
<g id="a_edge7&#45;headlabel"><a xlink:href="dir_000160_000000.html" target="_top" xlink:title="1">
<text text-anchor="middle" x="55.8202" y="-39.1312" font-family="Helvetica,sans-Serif" font-size="10.00" fill="#000000">1</text>
</a>
</g>
</g>
<!-- dir_694ec83a64f58cbdefbefce65cd1011c -->
<g id="node6" class="node">
<title>dir_694ec83a64f58cbdefbefce65cd1011c</title>
<g id="a_node6"><a xlink:href="dir_694ec83a64f58cbdefbefce65cd1011c.html" target="_top" xlink:title="kernel">
<polygon fill="#ffffff" stroke="#ff0000" points="149.5418,-180 95.5418,-180 95.5418,-144 149.5418,-144 149.5418,-180"/>
<text text-anchor="middle" x="122.5418" y="-159.5" font-family="Helvetica,sans-Serif" font-size="10.00" fill="#000000">kernel</text>
</a>
</g>
</g>
<!-- dir_bcb01560ff934e1b88a9958ec214521a&#45;&gt;dir_694ec83a64f58cbdefbefce65cd1011c -->
<g id="edge6" class="edge">
<title>dir_bcb01560ff934e1b88a9958ec214521a&#45;&gt;dir_694ec83a64f58cbdefbefce65cd1011c</title>
<path fill="none" stroke="#000000" d="M82.9159,-215.8314C88.958,-207.6232 96.218,-197.7606 102.8638,-188.7323"/>
<polygon fill="#000000" stroke="#000000" points="105.878,-190.5415 108.9876,-180.4133 100.2407,-186.3918 105.878,-190.5415"/>
<g id="a_edge6&#45;headlabel"><a xlink:href="dir_000160_000025.html" target="_top" xlink:title="2">
<text text-anchor="middle" x="106.0337" y="-192.6195" font-family="Helvetica,sans-Serif" font-size="10.00" fill="#000000">2</text>
</a>
</g>
</g>
<!-- dir_d236ca42f0241c3c711c47cabfd53918 -->
<g id="node4" class="node">
<title>dir_d236ca42f0241c3c711c47cabfd53918</title>
<g id="a_node4"><a xlink:href="dir_d236ca42f0241c3c711c47cabfd53918.html" target="_top" xlink:title="src">
<polygon fill="#ffffff" stroke="#000000" points="242.5418,-252 188.5418,-252 188.5418,-216 242.5418,-216 242.5418,-252"/>
<text text-anchor="middle" x="215.5418" y="-231.5" font-family="Helvetica,sans-Serif" font-size="10.00" fill="#000000">src</text>
</a>
</g>
</g>
<!-- dir_d236ca42f0241c3c711c47cabfd53918&#45;&gt;dir_bdd9a5d540de89e9fe90efdfc6973a4f -->
<g id="edge11" class="edge">
<title>dir_d236ca42f0241c3c711c47cabfd53918&#45;&gt;dir_bdd9a5d540de89e9fe90efdfc6973a4f</title>
<path fill="none" stroke="#000000" d="M215.5499,-215.9542C214.7079,-184.0431 209.0012,-116.8013 177.5418,-72 166.4756,-56.2407 149.2025,-43.9338 133.2731,-35.0755"/>
<polygon fill="#000000" stroke="#000000" points="134.5867,-31.812 124.1064,-30.2582 131.3303,-38.0084 134.5867,-31.812"/>
<g id="a_edge11&#45;headlabel"><a xlink:href="dir_000070_000000.html" target="_top" xlink:title="1">
<text text-anchor="middle" x="139.0895" y="-28.4707" font-family="Helvetica,sans-Serif" font-size="10.00" fill="#000000">1</text>
</a>
</g>
</g>
<!-- dir_d236ca42f0241c3c711c47cabfd53918&#45;&gt;dir_694ec83a64f58cbdefbefce65cd1011c -->
<g id="edge9" class="edge">
<title>dir_d236ca42f0241c3c711c47cabfd53918&#45;&gt;dir_694ec83a64f58cbdefbefce65cd1011c</title>
<path fill="none" stroke="#000000" d="M197.3968,-215.7312C191.8411,-210.4523 185.5947,-204.8193 179.5418,-200 172.7874,-194.6222 165.2802,-189.2387 157.9903,-184.2852"/>
<polygon fill="#000000" stroke="#000000" points="159.8544,-181.3215 149.5906,-178.6938 155.9755,-187.1486 159.8544,-181.3215"/>
<g id="a_edge9&#45;headlabel"><a xlink:href="dir_000070_000025.html" target="_top" xlink:title="3">
<text text-anchor="middle" x="164.42" y="-178.4498" font-family="Helvetica,sans-Serif" font-size="10.00" fill="#000000">3</text>
</a>
</g>
</g>
<!-- dir_a0a8ac7efb6662b749c1285408048e6d -->
<g id="node7" class="node">
<title>dir_a0a8ac7efb6662b749c1285408048e6d</title>
<g id="a_node7"><a xlink:href="dir_a0a8ac7efb6662b749c1285408048e6d.html" target="_top" xlink:title="erl">
<polygon fill="#ffffff" stroke="#ff0000" points="149.5418,-108 95.5418,-108 95.5418,-72 149.5418,-72 149.5418,-108"/>
<text text-anchor="middle" x="122.5418" y="-87.5" font-family="Helvetica,sans-Serif" font-size="10.00" fill="#000000">erl</text>
</a>
</g>
</g>
<!-- dir_d236ca42f0241c3c711c47cabfd53918&#45;&gt;dir_a0a8ac7efb6662b749c1285408048e6d -->
<g id="edge10" class="edge">
<title>dir_d236ca42f0241c3c711c47cabfd53918&#45;&gt;dir_a0a8ac7efb6662b749c1285408048e6d</title>
<path fill="none" stroke="#000000" d="M204.3094,-215.9913C192.9013,-197.7658 174.6669,-168.8128 158.5418,-144 152.8002,-135.165 146.4495,-125.579 140.7008,-116.9696"/>
<polygon fill="#000000" stroke="#000000" points="143.4508,-114.7858 134.9788,-108.4236 137.6342,-118.6803 143.4508,-114.7858"/>
<g id="a_edge10&#45;headlabel"><a xlink:href="dir_000070_000097.html" target="_top" xlink:title="1">
<text text-anchor="middle" x="147.8099" y="-113.693" font-family="Helvetica,sans-Serif" font-size="10.00" fill="#000000">1</text>
</a>
</g>
</g>
<!-- dir_bdd9a5d540de89e9fe90efdfc6973a4f&#45;&gt;dir_840d45e55d4a7bd01c453be7ad942e0e -->
<g id="edge8" class="edge">
<title>dir_bdd9a5d540de89e9fe90efdfc6973a4f&#45;&gt;dir_840d45e55d4a7bd01c453be7ad942e0e</title>
<path fill="none" stroke="#000000" d="M88.2271,-36.151C78.5051,-67.3655 63.2927,-132.4389 86.5418,-180 86.666,-180.2542 102.0102,-194.7856 116.745,-208.7084"/>
<polygon fill="#000000" stroke="#000000" points="114.6378,-211.5325 124.311,-215.8547 119.4445,-206.4436 114.6378,-211.5325"/>
<g id="a_edge8&#45;headlabel"><a xlink:href="dir_000000_000159.html" target="_top" xlink:title="1">
<text text-anchor="middle" x="110.0751" y="-208.6283" font-family="Helvetica,sans-Serif" font-size="10.00" fill="#000000">1</text>
</a>
</g>
</g>
<!-- dir_694ec83a64f58cbdefbefce65cd1011c&#45;&gt;dir_bdd9a5d540de89e9fe90efdfc6973a4f -->
<g id="edge1" class="edge">
<title>dir_694ec83a64f58cbdefbefce65cd1011c&#45;&gt;dir_bdd9a5d540de89e9fe90efdfc6973a4f</title>
<path fill="none" stroke="#000000" d="M106.5513,-143.9169C98.8879,-134.0371 90.5252,-121.1563 86.5418,-108 80.4619,-87.9194 82.9187,-64.2546 86.6517,-46.2321"/>
<polygon fill="#000000" stroke="#000000" points="90.0955,-46.8743 88.9422,-36.3424 83.276,-45.2948 90.0955,-46.8743"/>
<g id="a_edge1&#45;headlabel"><a xlink:href="dir_000025_000000.html" target="_top" xlink:title="24">
<text text-anchor="middle" x="92.0506" y="-48.5168" font-family="Helvetica,sans-Serif" font-size="10.00" fill="#000000">24</text>
</a>
</g>
</g>
<!-- dir_694ec83a64f58cbdefbefce65cd1011c&#45;&gt;dir_a0a8ac7efb6662b749c1285408048e6d -->
<g id="edge2" class="edge">
<title>dir_694ec83a64f58cbdefbefce65cd1011c&#45;&gt;dir_a0a8ac7efb6662b749c1285408048e6d</title>
<path fill="none" stroke="#000000" d="M116.5894,-143.8314C115.839,-136.131 115.6181,-126.9743 115.9267,-118.4166"/>
<polygon fill="#000000" stroke="#000000" points="119.421,-118.6161 116.5658,-108.4133 112.4352,-118.1697 119.421,-118.6161"/>
<g id="a_edge2&#45;headlabel"><a xlink:href="dir_000025_000097.html" target="_top" xlink:title="1">
<text text-anchor="middle" x="122.0254" y="-119.8844" font-family="Helvetica,sans-Serif" font-size="10.00" fill="#000000">1</text>
</a>
</g>
</g>
<!-- dir_a0a8ac7efb6662b749c1285408048e6d&#45;&gt;dir_bdd9a5d540de89e9fe90efdfc6973a4f -->
<g id="edge4" class="edge">
<title>dir_a0a8ac7efb6662b749c1285408048e6d&#45;&gt;dir_bdd9a5d540de89e9fe90efdfc6973a4f</title>
<path fill="none" stroke="#000000" d="M115.4762,-71.8314C112.4158,-63.9617 108.7639,-54.5712 105.3736,-45.8533"/>
<polygon fill="#000000" stroke="#000000" points="108.589,-44.4647 101.7025,-36.4133 102.065,-47.0019 108.589,-44.4647"/>
<g id="a_edge4&#45;headlabel"><a xlink:href="dir_000097_000000.html" target="_top" xlink:title="3">
<text text-anchor="middle" x="112.538" y="-44.2859" font-family="Helvetica,sans-Serif" font-size="10.00" fill="#000000">3</text>
</a>
</g>
</g>
<!-- dir_a0a8ac7efb6662b749c1285408048e6d&#45;&gt;dir_694ec83a64f58cbdefbefce65cd1011c -->
<g id="edge5" class="edge">
<title>dir_a0a8ac7efb6662b749c1285408048e6d&#45;&gt;dir_694ec83a64f58cbdefbefce65cd1011c</title>
<path fill="none" stroke="#000000" d="M128.5178,-108.4133C129.2489,-116.0593 129.462,-125.1084 129.1573,-133.5726"/>
<polygon fill="#000000" stroke="#000000" points="125.6466,-133.6264 128.4942,-143.8314 132.632,-134.078 125.6466,-133.6264"/>
<g id="a_edge5&#45;headlabel"><a xlink:href="dir_000097_000025.html" target="_top" xlink:title="1">
<text text-anchor="middle" x="123.045" y="-127.3562" font-family="Helvetica,sans-Serif" font-size="10.00" fill="#000000">1</text>
</a>
</g>
</g>
</g>
</svg>
