<?xml version="1.0" encoding="UTF-8" standalone="no"?>
<!DOCTYPE svg PUBLIC "-//W3C//DTD SVG 1.1//EN"
 "http://www.w3.org/Graphics/SVG/1.1/DTD/svg11.dtd">
<!-- Generated by graphviz version 2.40.1 (20161225.0304)
 -->
<!-- Title: ee/draw/samples Pages: 1 -->
<!--zoomable 473 -->
<svg id="main" version="1.1" xmlns="http://www.w3.org/2000/svg" xmlns:xlink="http://www.w3.org/1999/xlink" xml:space="preserve" onload="init(evt)">
<style type="text/css"><![CDATA[
.edge:hover path { stroke: red; }
.edge:hover polygon { stroke: red; fill: red; }
]]></style>
<script type="text/javascript"><![CDATA[
var edges = document.getElementsByTagName('g');
if (edges && edges.length) {
  for (var i=0;i<edges.length;i++) {
    if (edges[i].id.substr(0,4)=='edge') {
      edges[i].setAttribute('class','edge');
    }
  }
}
]]></script>
        <defs>
                <circle id="rim" cx="0" cy="0" r="7"/>
                <circle id="rim2" cx="0" cy="0" r="3.5"/>
                <g id="zoomPlus">
                        <use xlink:href="#rim" fill="#404040">
                                <set attributeName="fill" to="#808080" begin="zoomplus.mouseover" end="zoomplus.mouseout"/>
                        </use>
                        <path d="M-4,0h8M0,-4v8" fill="none" stroke="white" stroke-width="1.5" pointer-events="none"/>
                </g>
                <g id="zoomMin">
                        <use xlink:href="#rim" fill="#404040">
                                <set attributeName="fill" to="#808080" begin="zoomminus.mouseover" end="zoomminus.mouseout"/>
                        </use>
                        <path d="M-4,0h8" fill="none" stroke="white" stroke-width="1.5" pointer-events="none"/>
                </g>
                <g id="dirArrow">
                        <path fill="none" stroke="white" stroke-width="1.5" d="M0,-3.0v7 M-2.5,-0.5L0,-3.0L2.5,-0.5"/>
                </g>
               <g id="resetDef">
                       <use xlink:href="#rim2" fill="#404040">
                               <set attributeName="fill" to="#808080" begin="reset.mouseover" end="reset.mouseout"/>
                       </use>
               </g>
        </defs>

<script type="text/javascript">
var viewWidth = 760;
var viewHeight = 473;
var sectionId = 'dynsection-0';
</script>
<script xlink:href="svgpan.js"/>
<svg id="graph" class="graph">
<g id="viewport">
<title>ee/draw/samples</title>
<polygon fill="#ffffff" stroke="transparent" points="-4,4 -4,-469.2835 756,-469.2835 756,4 -4,4"/>
<g id="clust1" class="cluster">
<title>clusterdir_2649a81c7f56a709216892bc1285ef27</title>
<g id="a_clust1"><a xlink:href="dir_2649a81c7f56a709216892bc1285ef27.html" target="_top" xlink:title="draw">
<polygon fill="#ddddee" stroke="#000000" points="282,-280 282,-431 660,-431 660,-280 282,-280"/>
<text text-anchor="middle" x="471" y="-419" font-family="Helvetica,sans-Serif" font-size="10.00" fill="#000000">draw</text>
</a>
</g>
</g>
<g id="clust2" class="cluster">
<title>clusterdir_a34b23657241b7343cb203c117e62746</title>
<g id="a_clust2"><a xlink:href="dir_a34b23657241b7343cb203c117e62746.html" target="_top">
<polygon fill="#eeeeff" stroke="#000000" points="290,-352 290,-404 652,-404 652,-352 290,-352"/>
</a>
</g>
</g>
<!-- dir_21c98801a0c0c7d17001a0beb0986fce -->
<g id="node1" class="node">
<title>dir_21c98801a0c0c7d17001a0beb0986fce</title>
<g id="a_node1"><a xlink:href="dir_21c98801a0c0c7d17001a0beb0986fce.html" target="_top" xlink:title="include">
<polygon fill="none" stroke="#000000" points="652,-324 598,-324 598,-288 652,-288 652,-324"/>
<text text-anchor="middle" x="625" y="-303.5" font-family="Helvetica,sans-Serif" font-size="10.00" fill="#000000">include</text>
</a>
</g>
</g>
<!-- dir_bdd9a5d540de89e9fe90efdfc6973a4f -->
<g id="node9" class="node">
<title>dir_bdd9a5d540de89e9fe90efdfc6973a4f</title>
<g id="a_node9"><a xlink:href="dir_bdd9a5d540de89e9fe90efdfc6973a4f.html" target="_top" xlink:title="common">
<polygon fill="#ffffff" stroke="#ff0000" points="475.5,-36 416.5,-36 416.5,0 475.5,0 475.5,-36"/>
<text text-anchor="middle" x="446" y="-15.5" font-family="Helvetica,sans-Serif" font-size="10.00" fill="#000000">common</text>
</a>
</g>
</g>
<!-- dir_21c98801a0c0c7d17001a0beb0986fce&#45;&gt;dir_bdd9a5d540de89e9fe90efdfc6973a4f -->
<g id="edge11" class="edge">
<title>dir_21c98801a0c0c7d17001a0beb0986fce&#45;&gt;dir_bdd9a5d540de89e9fe90efdfc6973a4f</title>
<path fill="none" stroke="#000000" d="M632.7496,-287.9103C649.6409,-245.3571 684.4628,-137.5743 635,-72 617.0615,-48.2184 535.6913,-31.7592 485.748,-23.6954"/>
<polygon fill="#000000" stroke="#000000" points="486.0236,-20.1959 475.6018,-22.1025 484.9379,-27.1112 486.0236,-20.1959"/>
<g id="a_edge11&#45;headlabel"><a xlink:href="dir_000081_000000.html" target="_top" xlink:title="12">
<text text-anchor="middle" x="490.0151" y="-15.4484" font-family="Helvetica,sans-Serif" font-size="10.00" fill="#000000">12</text>
</a>
</g>
</g>
<!-- dir_ef61ae23abebf035898b2c6525d9b365 -->
<g id="node11" class="node">
<title>dir_ef61ae23abebf035898b2c6525d9b365</title>
<g id="a_node11"><a xlink:href="dir_ef61ae23abebf035898b2c6525d9b365.html" target="_top" xlink:title="math3d">
<polygon fill="#ffffff" stroke="#ff0000" points="722,-396 668,-396 668,-360 722,-360 722,-396"/>
<text text-anchor="middle" x="695" y="-375.5" font-family="Helvetica,sans-Serif" font-size="10.00" fill="#000000">math3d</text>
</a>
</g>
</g>
<!-- dir_21c98801a0c0c7d17001a0beb0986fce&#45;&gt;dir_ef61ae23abebf035898b2c6525d9b365 -->
<g id="edge12" class="edge">
<title>dir_21c98801a0c0c7d17001a0beb0986fce&#45;&gt;dir_ef61ae23abebf035898b2c6525d9b365</title>
<path fill="none" stroke="#000000" d="M642.9018,-324.4133C651.244,-332.9938 661.3041,-343.3414 670.3505,-352.6463"/>
<polygon fill="#000000" stroke="#000000" points="667.8557,-355.1012 677.336,-359.8314 672.8747,-350.2216 667.8557,-355.1012"/>
<g id="a_edge12&#45;headlabel"><a xlink:href="dir_000081_000031.html" target="_top" xlink:title="1">
<text text-anchor="middle" x="663.3143" y="-352.0031" font-family="Helvetica,sans-Serif" font-size="10.00" fill="#000000">1</text>
</a>
</g>
</g>
<!-- dir_a34b23657241b7343cb203c117e62746 -->
<g id="node2" class="node">
<title>dir_a34b23657241b7343cb203c117e62746</title>
<text text-anchor="middle" x="615" y="-375.5" font-family="Helvetica,sans-Serif" font-size="10.00" fill="#000000">samples</text>
</g>
<!-- dir_18c9a5331f23519883b641d3ab3c999d -->
<g id="node3" class="node">
<title>dir_18c9a5331f23519883b641d3ab3c999d</title>
<g id="a_node3"><a xlink:href="dir_18c9a5331f23519883b641d3ab3c999d.html" target="_top" xlink:title="cube">
<polygon fill="#ffffff" stroke="#000000" points="568,-396 514,-396 514,-360 568,-360 568,-396"/>
<text text-anchor="middle" x="541" y="-375.5" font-family="Helvetica,sans-Serif" font-size="10.00" fill="#000000">cube</text>
</a>
</g>
</g>
<!-- dir_18c9a5331f23519883b641d3ab3c999d&#45;&gt;dir_21c98801a0c0c7d17001a0beb0986fce -->
<g id="edge1" class="edge">
<title>dir_18c9a5331f23519883b641d3ab3c999d&#45;&gt;dir_21c98801a0c0c7d17001a0beb0986fce</title>
<path fill="none" stroke="#000000" d="M562.1967,-359.8314C572.4434,-351.0485 584.9003,-340.3712 596.0097,-330.8489"/>
<polygon fill="#000000" stroke="#000000" points="598.4952,-333.3282 603.81,-324.1628 593.9397,-328.0134 598.4952,-333.3282"/>
<g id="a_edge1&#45;headlabel"><a xlink:href="dir_000083_000081.html" target="_top" xlink:title="2">
<text text-anchor="middle" x="597.6138" y="-335.3232" font-family="Helvetica,sans-Serif" font-size="10.00" fill="#000000">2</text>
</a>
</g>
</g>
<!-- dir_694ec83a64f58cbdefbefce65cd1011c -->
<g id="node7" class="node">
<title>dir_694ec83a64f58cbdefbefce65cd1011c</title>
<g id="a_node7"><a xlink:href="dir_694ec83a64f58cbdefbefce65cd1011c.html" target="_top" xlink:title="kernel">
<polygon fill="#ffffff" stroke="#ff0000" points="361,-108 307,-108 307,-72 361,-72 361,-108"/>
<text text-anchor="middle" x="334" y="-87.5" font-family="Helvetica,sans-Serif" font-size="10.00" fill="#000000">kernel</text>
</a>
</g>
</g>
<!-- dir_18c9a5331f23519883b641d3ab3c999d&#45;&gt;dir_694ec83a64f58cbdefbefce65cd1011c -->
<g id="edge2" class="edge">
<title>dir_18c9a5331f23519883b641d3ab3c999d&#45;&gt;dir_694ec83a64f58cbdefbefce65cd1011c</title>
<path fill="none" stroke="#000000" d="M528.0334,-359.9928C505.0847,-328.012 459.2296,-263.566 454,-252 433.6156,-206.917 456.7399,-183.5416 427,-144 412.823,-125.1505 389.9912,-111.7547 370.4987,-103.0201"/>
<polygon fill="#000000" stroke="#000000" points="371.8236,-99.7804 361.2504,-99.1033 369.0936,-106.2261 371.8236,-99.7804"/>
<g id="a_edge2&#45;headlabel"><a xlink:href="dir_000083_000025.html" target="_top" xlink:title="1">
<text text-anchor="middle" x="376.2408" y="-96.0677" font-family="Helvetica,sans-Serif" font-size="10.00" fill="#000000">1</text>
</a>
</g>
</g>
<!-- dir_933591e1cd95ed33f946db8a4302cbd1 -->
<g id="node8" class="node">
<title>dir_933591e1cd95ed33f946db8a4302cbd1</title>
<g id="a_node8"><a xlink:href="dir_933591e1cd95ed33f946db8a4302cbd1.html" target="_top" xlink:title="graph">
<polygon fill="#ffffff" stroke="#ff0000" points="724,-324 670,-324 670,-288 724,-288 724,-324"/>
<text text-anchor="middle" x="697" y="-303.5" font-family="Helvetica,sans-Serif" font-size="10.00" fill="#000000">graph</text>
</a>
</g>
</g>
<!-- dir_18c9a5331f23519883b641d3ab3c999d&#45;&gt;dir_933591e1cd95ed33f946db8a4302cbd1 -->
<g id="edge3" class="edge">
<title>dir_18c9a5331f23519883b641d3ab3c999d&#45;&gt;dir_933591e1cd95ed33f946db8a4302cbd1</title>
<path fill="none" stroke="#000000" d="M563.9456,-359.8217C568.1461,-356.9665 572.5974,-354.2277 577,-352 610.4127,-335.0935 624.4346,-339.1757 660.2309,-325.2791"/>
<polygon fill="#000000" stroke="#000000" points="661.9075,-328.3742 669.8259,-321.335 659.2461,-321.8998 661.9075,-328.3742"/>
<g id="a_edge3&#45;headlabel"><a xlink:href="dir_000083_000019.html" target="_top" xlink:title="1">
<text text-anchor="middle" x="659.6623" y="-329.8668" font-family="Helvetica,sans-Serif" font-size="10.00" fill="#000000">1</text>
</a>
</g>
</g>
<!-- dir_18c9a5331f23519883b641d3ab3c999d&#45;&gt;dir_bdd9a5d540de89e9fe90efdfc6973a4f -->
<g id="edge4" class="edge">
<title>dir_18c9a5331f23519883b641d3ab3c999d&#45;&gt;dir_bdd9a5d540de89e9fe90efdfc6973a4f</title>
<path fill="none" stroke="#000000" d="M542.2547,-359.795C544.8528,-310.2773 546.7162,-170.2817 494,-72 488.5528,-61.8445 480.8331,-52.0231 473.1736,-43.6041"/>
<polygon fill="#000000" stroke="#000000" points="475.6513,-41.1307 466.2232,-36.2973 470.5794,-45.9552 475.6513,-41.1307"/>
<g id="a_edge4&#45;headlabel"><a xlink:href="dir_000083_000000.html" target="_top" xlink:title="3">
<text text-anchor="middle" x="480.1859" y="-39.2783" font-family="Helvetica,sans-Serif" font-size="10.00" fill="#000000">3</text>
</a>
</g>
</g>
<!-- dir_d6c8ea3c46b2d4fe2308a65fe0836890 -->
<g id="node10" class="node">
<title>dir_d6c8ea3c46b2d4fe2308a65fe0836890</title>
<g id="a_node10"><a xlink:href="dir_d6c8ea3c46b2d4fe2308a65fe0836890.html" target="_top" xlink:title="dma">
<polygon fill="#ffffff" stroke="#ff0000" points="407,-252 353,-252 353,-216 407,-216 407,-252"/>
<text text-anchor="middle" x="380" y="-231.5" font-family="Helvetica,sans-Serif" font-size="10.00" fill="#000000">dma</text>
</a>
</g>
</g>
<!-- dir_18c9a5331f23519883b641d3ab3c999d&#45;&gt;dir_d6c8ea3c46b2d4fe2308a65fe0836890 -->
<g id="edge5" class="edge">
<title>dir_18c9a5331f23519883b641d3ab3c999d&#45;&gt;dir_d6c8ea3c46b2d4fe2308a65fe0836890</title>
<path fill="none" stroke="#000000" d="M519.8786,-359.7586C508.028,-349.4106 493.047,-336.1395 480,-324 459.5216,-304.946 455.7439,-298.7646 435,-280 427.1763,-272.9228 418.5049,-265.49 410.4046,-258.7127"/>
<polygon fill="#000000" stroke="#000000" points="412.4774,-255.8846 402.5471,-252.1914 408.0068,-261.2711 412.4774,-255.8846"/>
<g id="a_edge5&#45;headlabel"><a xlink:href="dir_000083_000011.html" target="_top" xlink:title="2">
<text text-anchor="middle" x="417.0567" y="-253.4955" font-family="Helvetica,sans-Serif" font-size="10.00" fill="#000000">2</text>
</a>
</g>
</g>
<!-- dir_18c9a5331f23519883b641d3ab3c999d&#45;&gt;dir_ef61ae23abebf035898b2c6525d9b365 -->
<g id="edge6" class="edge">
<title>dir_18c9a5331f23519883b641d3ab3c999d&#45;&gt;dir_ef61ae23abebf035898b2c6525d9b365</title>
<path fill="none" stroke="#000000" d="M546.7294,-396.0384C553.2342,-413.1355 565.6695,-437.8155 586,-449 609.7538,-462.0678 623.0555,-461.7152 647,-449 664.3031,-439.8116 676.5051,-421.2922 684.2759,-405.4712"/>
<polygon fill="#000000" stroke="#000000" points="687.5944,-406.6286 688.5477,-396.0767 681.2223,-403.7311 687.5944,-406.6286"/>
<g id="a_edge6&#45;headlabel"><a xlink:href="dir_000083_000031.html" target="_top" xlink:title="1">
<text text-anchor="middle" x="688.6912" y="-408.5761" font-family="Helvetica,sans-Serif" font-size="10.00" fill="#000000">1</text>
</a>
</g>
</g>
<!-- dir_ef7db18cfb93c4891bb35babb04f0d85 -->
<g id="node12" class="node">
<title>dir_ef7db18cfb93c4891bb35babb04f0d85</title>
<g id="a_node12"><a xlink:href="dir_ef7db18cfb93c4891bb35babb04f0d85.html" target="_top" xlink:title="packet">
<polygon fill="#ffffff" stroke="#ff0000" points="517,-252 463,-252 463,-216 517,-216 517,-252"/>
<text text-anchor="middle" x="490" y="-231.5" font-family="Helvetica,sans-Serif" font-size="10.00" fill="#000000">packet</text>
</a>
</g>
</g>
<!-- dir_18c9a5331f23519883b641d3ab3c999d&#45;&gt;dir_ef7db18cfb93c4891bb35babb04f0d85 -->
<g id="edge7" class="edge">
<title>dir_18c9a5331f23519883b641d3ab3c999d&#45;&gt;dir_ef7db18cfb93c4891bb35babb04f0d85</title>
<path fill="none" stroke="#000000" d="M535.1772,-359.847C528.7776,-340.1059 518.0652,-307.6684 508,-280 505.8589,-274.1144 503.4745,-267.8432 501.1599,-261.8854"/>
<polygon fill="#000000" stroke="#000000" points="504.2999,-260.3059 497.3857,-252.2782 497.7846,-262.8655 504.2999,-260.3059"/>
<g id="a_edge7&#45;headlabel"><a xlink:href="dir_000083_000040.html" target="_top" xlink:title="1">
<text text-anchor="middle" x="508.2569" y="-260.1135" font-family="Helvetica,sans-Serif" font-size="10.00" fill="#000000">1</text>
</a>
</g>
</g>
<!-- dir_a267b8de6dbff930f068fefafb8d6584 -->
<g id="node4" class="node">
<title>dir_a267b8de6dbff930f068fefafb8d6584</title>
<g id="a_node4"><a xlink:href="dir_a267b8de6dbff930f068fefafb8d6584.html" target="_top" xlink:title="teapot">
<polygon fill="#ffffff" stroke="#000000" points="496,-396 442,-396 442,-360 496,-360 496,-396"/>
<text text-anchor="middle" x="469" y="-375.5" font-family="Helvetica,sans-Serif" font-size="10.00" fill="#000000">teapot</text>
</a>
</g>
</g>
<!-- dir_a267b8de6dbff930f068fefafb8d6584&#45;&gt;dir_21c98801a0c0c7d17001a0beb0986fce -->
<g id="edge26" class="edge">
<title>dir_a267b8de6dbff930f068fefafb8d6584&#45;&gt;dir_21c98801a0c0c7d17001a0beb0986fce</title>
<path fill="none" stroke="#000000" d="M492.4445,-359.7539C496.5161,-356.9714 500.7956,-354.2739 505,-352 531.7356,-337.5407 563.9986,-325.444 588.335,-317.29"/>
<polygon fill="#000000" stroke="#000000" points="589.4976,-320.5922 597.9075,-314.1484 587.3147,-313.9413 589.4976,-320.5922"/>
<g id="a_edge26&#45;headlabel"><a xlink:href="dir_000084_000081.html" target="_top" xlink:title="2">
<text text-anchor="middle" x="586.9675" y="-321.9108" font-family="Helvetica,sans-Serif" font-size="10.00" fill="#000000">2</text>
</a>
</g>
</g>
<!-- dir_a267b8de6dbff930f068fefafb8d6584&#45;&gt;dir_694ec83a64f58cbdefbefce65cd1011c -->
<g id="edge27" class="edge">
<title>dir_a267b8de6dbff930f068fefafb8d6584&#45;&gt;dir_694ec83a64f58cbdefbefce65cd1011c</title>
<path fill="none" stroke="#000000" d="M445.245,-359.9871C432.5259,-349.925 416.8734,-336.8539 404,-324 374.5234,-294.568 359.5293,-290.6517 344,-252 326.2736,-207.8799 327.5708,-151.5398 330.5147,-118.2572"/>
<polygon fill="#000000" stroke="#000000" points="333.9974,-118.6039 331.5064,-108.3061 327.0319,-117.9097 333.9974,-118.6039"/>
<g id="a_edge27&#45;headlabel"><a xlink:href="dir_000084_000025.html" target="_top" xlink:title="1">
<text text-anchor="middle" x="336.4663" y="-119.9623" font-family="Helvetica,sans-Serif" font-size="10.00" fill="#000000">1</text>
</a>
</g>
</g>
<!-- dir_a267b8de6dbff930f068fefafb8d6584&#45;&gt;dir_933591e1cd95ed33f946db8a4302cbd1 -->
<g id="edge28" class="edge">
<title>dir_a267b8de6dbff930f068fefafb8d6584&#45;&gt;dir_933591e1cd95ed33f946db8a4302cbd1</title>
<path fill="none" stroke="#000000" d="M490.9165,-359.8311C495.3675,-356.8323 500.1711,-354.041 505,-352 568.1237,-325.3192 593.9327,-345.6938 660.3027,-324.8632"/>
<polygon fill="#000000" stroke="#000000" points="661.5698,-328.1301 669.9451,-321.6413 659.3513,-321.491 661.5698,-328.1301"/>
<g id="a_edge28&#45;headlabel"><a xlink:href="dir_000084_000019.html" target="_top" xlink:title="1">
<text text-anchor="middle" x="659.0602" y="-329.4622" font-family="Helvetica,sans-Serif" font-size="10.00" fill="#000000">1</text>
</a>
</g>
</g>
<!-- dir_a267b8de6dbff930f068fefafb8d6584&#45;&gt;dir_bdd9a5d540de89e9fe90efdfc6973a4f -->
<g id="edge29" class="edge">
<title>dir_a267b8de6dbff930f068fefafb8d6584&#45;&gt;dir_bdd9a5d540de89e9fe90efdfc6973a4f</title>
<path fill="none" stroke="#000000" d="M445.9909,-359.9448C441.7974,-357.0759 437.365,-354.3006 433,-352 400.4162,-334.8262 383.6765,-347.1149 355,-324 296.2403,-276.6365 285.8063,-252.5472 265,-180 251.1633,-131.7542 261.1205,-106.0443 298,-72 328.1037,-44.2106 373.6482,-30.4538 406.258,-23.8222"/>
<polygon fill="#000000" stroke="#000000" points="407.1807,-27.2097 416.3551,-21.9106 405.8786,-20.3319 407.1807,-27.2097"/>
<g id="a_edge29&#45;headlabel"><a xlink:href="dir_000084_000000.html" target="_top" xlink:title="3">
<text text-anchor="middle" x="404.1769" y="-28.168" font-family="Helvetica,sans-Serif" font-size="10.00" fill="#000000">3</text>
</a>
</g>
</g>
<!-- dir_a267b8de6dbff930f068fefafb8d6584&#45;&gt;dir_d6c8ea3c46b2d4fe2308a65fe0836890 -->
<g id="edge30" class="edge">
<title>dir_a267b8de6dbff930f068fefafb8d6584&#45;&gt;dir_d6c8ea3c46b2d4fe2308a65fe0836890</title>
<path fill="none" stroke="#000000" d="M457.7281,-359.7623C442.2804,-334.7682 414.421,-289.6924 396.5891,-260.8409"/>
<polygon fill="#000000" stroke="#000000" points="399.4151,-258.7559 391.1804,-252.0896 393.4606,-262.4362 399.4151,-258.7559"/>
<g id="a_edge30&#45;headlabel"><a xlink:href="dir_000084_000011.html" target="_top" xlink:title="2">
<text text-anchor="middle" x="403.7201" y="-257.8209" font-family="Helvetica,sans-Serif" font-size="10.00" fill="#000000">2</text>
</a>
</g>
</g>
<!-- dir_a267b8de6dbff930f068fefafb8d6584&#45;&gt;dir_ef61ae23abebf035898b2c6525d9b365 -->
<g id="edge31" class="edge">
<title>dir_a267b8de6dbff930f068fefafb8d6584&#45;&gt;dir_ef61ae23abebf035898b2c6525d9b365</title>
<path fill="none" stroke="#000000" d="M474.7294,-396.0384C481.2342,-413.1355 493.6695,-437.8155 514,-449 539.8956,-463.246 620.8966,-462.8616 647,-449 664.3031,-439.8116 676.5051,-421.2922 684.2759,-405.4712"/>
<polygon fill="#000000" stroke="#000000" points="687.5944,-406.6286 688.5477,-396.0767 681.2223,-403.7311 687.5944,-406.6286"/>
<g id="a_edge31&#45;headlabel"><a xlink:href="dir_000084_000031.html" target="_top" xlink:title="1">
<text text-anchor="middle" x="688.6912" y="-408.5761" font-family="Helvetica,sans-Serif" font-size="10.00" fill="#000000">1</text>
</a>
</g>
</g>
<!-- dir_a267b8de6dbff930f068fefafb8d6584&#45;&gt;dir_ef7db18cfb93c4891bb35babb04f0d85 -->
<g id="edge32" class="edge">
<title>dir_a267b8de6dbff930f068fefafb8d6584&#45;&gt;dir_ef7db18cfb93c4891bb35babb04f0d85</title>
<path fill="none" stroke="#000000" d="M471.6597,-359.7623C475.2415,-335.201 481.6514,-291.2474 485.865,-262.3541"/>
<polygon fill="#000000" stroke="#000000" points="489.3821,-262.4901 487.3619,-252.0896 482.4554,-261.4798 489.3821,-262.4901"/>
<g id="a_edge32&#45;headlabel"><a xlink:href="dir_000084_000040.html" target="_top" xlink:title="1">
<text text-anchor="middle" x="491.6731" y="-263.9567" font-family="Helvetica,sans-Serif" font-size="10.00" fill="#000000">1</text>
</a>
</g>
</g>
<!-- dir_30bb28c96ea15021e2938feca2e3e12f -->
<g id="node5" class="node">
<title>dir_30bb28c96ea15021e2938feca2e3e12f</title>
<g id="a_node5"><a xlink:href="dir_30bb28c96ea15021e2938feca2e3e12f.html" target="_top" xlink:title="texture">
<polygon fill="#ffffff" stroke="#000000" points="424,-396 370,-396 370,-360 424,-360 424,-396"/>
<text text-anchor="middle" x="397" y="-375.5" font-family="Helvetica,sans-Serif" font-size="10.00" fill="#000000">texture</text>
</a>
</g>
</g>
<!-- dir_30bb28c96ea15021e2938feca2e3e12f&#45;&gt;dir_21c98801a0c0c7d17001a0beb0986fce -->
<g id="edge13" class="edge">
<title>dir_30bb28c96ea15021e2938feca2e3e12f&#45;&gt;dir_21c98801a0c0c7d17001a0beb0986fce</title>
<path fill="none" stroke="#000000" d="M419.4133,-359.8011C423.7428,-356.879 428.3756,-354.1226 433,-352 483.9015,-328.6359 548.0445,-316.3571 587.7886,-310.531"/>
<polygon fill="#000000" stroke="#000000" points="588.416,-313.9774 597.832,-309.1204 587.4424,-307.0454 588.416,-313.9774"/>
<g id="a_edge13&#45;headlabel"><a xlink:href="dir_000085_000081.html" target="_top" xlink:title="2">
<text text-anchor="middle" x="585.2512" y="-314.7889" font-family="Helvetica,sans-Serif" font-size="10.00" fill="#000000">2</text>
</a>
</g>
</g>
<!-- dir_30bb28c96ea15021e2938feca2e3e12f&#45;&gt;dir_694ec83a64f58cbdefbefce65cd1011c -->
<g id="edge14" class="edge">
<title>dir_30bb28c96ea15021e2938feca2e3e12f&#45;&gt;dir_694ec83a64f58cbdefbefce65cd1011c</title>
<path fill="none" stroke="#000000" d="M374.028,-359.8736C369.8304,-357.0126 365.3869,-354.2584 361,-352 326.3861,-334.1805 300.7065,-355.6238 278,-324 262.4303,-302.3159 239.7631,-244.4685 282,-144 286.5183,-133.2525 294.2414,-123.4146 302.3733,-115.1657"/>
<polygon fill="#000000" stroke="#000000" points="305.0246,-117.4752 309.8761,-108.0564 300.2099,-112.394 305.0246,-117.4752"/>
<g id="a_edge14&#45;headlabel"><a xlink:href="dir_000085_000025.html" target="_top" xlink:title="1">
<text text-anchor="middle" x="304.3682" y="-119.5086" font-family="Helvetica,sans-Serif" font-size="10.00" fill="#000000">1</text>
</a>
</g>
</g>
<!-- dir_30bb28c96ea15021e2938feca2e3e12f&#45;&gt;dir_933591e1cd95ed33f946db8a4302cbd1 -->
<g id="edge15" class="edge">
<title>dir_30bb28c96ea15021e2938feca2e3e12f&#45;&gt;dir_933591e1cd95ed33f946db8a4302cbd1</title>
<path fill="none" stroke="#000000" d="M418.4382,-359.8837C423.0056,-356.8021 427.9745,-353.9669 433,-352 526.2953,-315.486 563.1894,-353.0468 660.3875,-324.7155"/>
<polygon fill="#000000" stroke="#000000" points="661.4568,-328.0485 669.986,-321.7634 659.3989,-321.3578 661.4568,-328.0485"/>
<g id="a_edge15&#45;headlabel"><a xlink:href="dir_000085_000019.html" target="_top" xlink:title="1">
<text text-anchor="middle" x="658.8556" y="-329.319" font-family="Helvetica,sans-Serif" font-size="10.00" fill="#000000">1</text>
</a>
</g>
</g>
<!-- dir_30bb28c96ea15021e2938feca2e3e12f&#45;&gt;dir_bdd9a5d540de89e9fe90efdfc6973a4f -->
<g id="edge16" class="edge">
<title>dir_30bb28c96ea15021e2938feca2e3e12f&#45;&gt;dir_bdd9a5d540de89e9fe90efdfc6973a4f</title>
<path fill="none" stroke="#000000" d="M373.9799,-359.9655C369.7877,-357.0943 365.3585,-354.3129 361,-352 225.9958,-280.3587 38,-386.8353 38,-234 38,-234 38,-234 38,-162 38,-84.3857 303.8661,-38.2427 406.3641,-23.3373"/>
<polygon fill="#000000" stroke="#000000" points="406.9253,-26.7928 416.329,-21.9122 405.9342,-19.8633 406.9253,-26.7928"/>
<g id="a_edge16&#45;headlabel"><a xlink:href="dir_000085_000000.html" target="_top" xlink:title="3">
<text text-anchor="middle" x="403.7688" y="-27.6123" font-family="Helvetica,sans-Serif" font-size="10.00" fill="#000000">3</text>
</a>
</g>
</g>
<!-- dir_30bb28c96ea15021e2938feca2e3e12f&#45;&gt;dir_d6c8ea3c46b2d4fe2308a65fe0836890 -->
<g id="edge17" class="edge">
<title>dir_30bb28c96ea15021e2938feca2e3e12f&#45;&gt;dir_d6c8ea3c46b2d4fe2308a65fe0836890</title>
<path fill="none" stroke="#000000" d="M373.5367,-359.7886C369.4674,-357.0018 365.1935,-354.294 361,-352 331.2409,-335.7208 309.0852,-352.0423 290,-324 278.9972,-307.8334 279.7927,-296.6803 290,-280 301.5964,-261.0497 323.7361,-249.5923 343.154,-242.8516"/>
<polygon fill="#000000" stroke="#000000" points="344.2242,-246.184 352.6989,-239.8255 342.1087,-239.5113 344.2242,-246.184"/>
<g id="a_edge17&#45;headlabel"><a xlink:href="dir_000085_000011.html" target="_top" xlink:title="2">
<text text-anchor="middle" x="341.6557" y="-247.4768" font-family="Helvetica,sans-Serif" font-size="10.00" fill="#000000">2</text>
</a>
</g>
</g>
<!-- dir_30bb28c96ea15021e2938feca2e3e12f&#45;&gt;dir_ef61ae23abebf035898b2c6525d9b365 -->
<g id="edge18" class="edge">
<title>dir_30bb28c96ea15021e2938feca2e3e12f&#45;&gt;dir_ef61ae23abebf035898b2c6525d9b365</title>
<path fill="none" stroke="#000000" d="M402.7294,-396.0384C409.2342,-413.1355 421.6695,-437.8155 442,-449 481.9142,-470.9582 606.7655,-470.3657 647,-449 664.3031,-439.8116 676.5051,-421.2922 684.2759,-405.4712"/>
<polygon fill="#000000" stroke="#000000" points="687.5944,-406.6286 688.5477,-396.0767 681.2223,-403.7311 687.5944,-406.6286"/>
<g id="a_edge18&#45;headlabel"><a xlink:href="dir_000085_000031.html" target="_top" xlink:title="1">
<text text-anchor="middle" x="688.6912" y="-408.5761" font-family="Helvetica,sans-Serif" font-size="10.00" fill="#000000">1</text>
</a>
</g>
</g>
<!-- dir_30bb28c96ea15021e2938feca2e3e12f&#45;&gt;dir_ef7db18cfb93c4891bb35babb04f0d85 -->
<g id="edge19" class="edge">
<title>dir_30bb28c96ea15021e2938feca2e3e12f&#45;&gt;dir_ef7db18cfb93c4891bb35babb04f0d85</title>
<path fill="none" stroke="#000000" d="M408.7785,-359.7623C424.9205,-334.7682 454.032,-289.6924 472.6653,-260.8409"/>
<polygon fill="#000000" stroke="#000000" points="475.832,-262.3889 478.3171,-252.0896 469.9517,-258.5912 475.832,-262.3889"/>
<g id="a_edge19&#45;headlabel"><a xlink:href="dir_000085_000040.html" target="_top" xlink:title="1">
<text text-anchor="middle" x="476.2669" y="-264.4488" font-family="Helvetica,sans-Serif" font-size="10.00" fill="#000000">1</text>
</a>
</g>
</g>
<!-- dir_d7645b35e13a13de91d51b9d02b3f74e -->
<g id="node6" class="node">
<title>dir_d7645b35e13a13de91d51b9d02b3f74e</title>
<g id="a_node6"><a xlink:href="dir_d7645b35e13a13de91d51b9d02b3f74e.html" target="_top" xlink:title="vu1">
<polygon fill="#ffffff" stroke="#000000" points="352,-396 298,-396 298,-360 352,-360 352,-396"/>
<text text-anchor="middle" x="325" y="-375.5" font-family="Helvetica,sans-Serif" font-size="10.00" fill="#000000">vu1</text>
</a>
</g>
</g>
<!-- dir_d7645b35e13a13de91d51b9d02b3f74e&#45;&gt;dir_21c98801a0c0c7d17001a0beb0986fce -->
<g id="edge37" class="edge">
<title>dir_d7645b35e13a13de91d51b9d02b3f74e&#45;&gt;dir_21c98801a0c0c7d17001a0beb0986fce</title>
<path fill="none" stroke="#000000" d="M346.9136,-359.8241C351.3648,-356.8259 356.1693,-354.0367 361,-352 401.3224,-334.9996 524.9389,-318.145 587.6617,-310.4019"/>
<polygon fill="#000000" stroke="#000000" points="588.4059,-313.8371 597.9082,-309.1512 587.5578,-306.8887 588.4059,-313.8371"/>
<g id="a_edge37&#45;headlabel"><a xlink:href="dir_000086_000081.html" target="_top" xlink:title="1">
<text text-anchor="middle" x="585.1818" y="-314.5909" font-family="Helvetica,sans-Serif" font-size="10.00" fill="#000000">1</text>
</a>
</g>
</g>
<!-- dir_d7645b35e13a13de91d51b9d02b3f74e&#45;&gt;dir_694ec83a64f58cbdefbefce65cd1011c -->
<g id="edge38" class="edge">
<title>dir_d7645b35e13a13de91d51b9d02b3f74e&#45;&gt;dir_694ec83a64f58cbdefbefce65cd1011c</title>
<path fill="none" stroke="#000000" d="M297.7629,-362.0831C283.7579,-352.6349 267.4765,-339.4817 257,-324 210.9032,-255.8801 169.3401,-213.0704 214,-144 232.1735,-115.8931 268.8485,-102.2709 296.8961,-95.76"/>
<polygon fill="#000000" stroke="#000000" points="297.7286,-99.1614 306.7888,-93.6693 296.2812,-92.3127 297.7286,-99.1614"/>
<g id="a_edge38&#45;headlabel"><a xlink:href="dir_000086_000025.html" target="_top" xlink:title="1">
<text text-anchor="middle" x="294.7987" y="-100.1825" font-family="Helvetica,sans-Serif" font-size="10.00" fill="#000000">1</text>
</a>
</g>
</g>
<!-- dir_d7645b35e13a13de91d51b9d02b3f74e&#45;&gt;dir_933591e1cd95ed33f946db8a4302cbd1 -->
<g id="edge39" class="edge">
<title>dir_d7645b35e13a13de91d51b9d02b3f74e&#45;&gt;dir_933591e1cd95ed33f946db8a4302cbd1</title>
<path fill="none" stroke="#000000" d="M346.3947,-359.7701C350.9657,-356.6978 355.947,-353.8951 361,-352 484.5359,-305.6676 532.2885,-360.6035 659.8992,-324.8405"/>
<polygon fill="#000000" stroke="#000000" points="661.0235,-328.1582 669.6321,-321.9822 659.0511,-321.4419 661.0235,-328.1582"/>
<g id="a_edge39&#45;headlabel"><a xlink:href="dir_000086_000019.html" target="_top" xlink:title="1">
<text text-anchor="middle" x="658.3746" y="-329.3953" font-family="Helvetica,sans-Serif" font-size="10.00" fill="#000000">1</text>
</a>
</g>
</g>
<!-- dir_d7645b35e13a13de91d51b9d02b3f74e&#45;&gt;dir_bdd9a5d540de89e9fe90efdfc6973a4f -->
<g id="edge40" class="edge">
<title>dir_d7645b35e13a13de91d51b9d02b3f74e&#45;&gt;dir_bdd9a5d540de89e9fe90efdfc6973a4f</title>
<path fill="none" stroke="#000000" d="M297.621,-375.8343C235.0175,-370.4022 83.7539,-354.4076 44,-324 8.635,-296.9494 0,-278.5244 0,-234 0,-234 0,-234 0,-162 0,-107.2846 35.5685,-97.4591 84,-72 139.4322,-42.8609 324.1114,-26.5804 406.1447,-20.632"/>
<polygon fill="#000000" stroke="#000000" points="406.5939,-24.109 416.3208,-19.9092 406.0979,-17.1266 406.5939,-24.109"/>
<g id="a_edge40&#45;headlabel"><a xlink:href="dir_000086_000000.html" target="_top" xlink:title="2">
<text text-anchor="middle" x="403.2095" y="-24.6958" font-family="Helvetica,sans-Serif" font-size="10.00" fill="#000000">2</text>
</a>
</g>
</g>
<!-- dir_d7645b35e13a13de91d51b9d02b3f74e&#45;&gt;dir_d6c8ea3c46b2d4fe2308a65fe0836890 -->
<g id="edge41" class="edge">
<title>dir_d7645b35e13a13de91d51b9d02b3f74e&#45;&gt;dir_d6c8ea3c46b2d4fe2308a65fe0836890</title>
<path fill="none" stroke="#000000" d="M303.2328,-359.8165C293.5277,-350.2816 283.1403,-337.7355 278,-324 271.1459,-305.685 267.3886,-296.4261 278,-280 292.3243,-257.8265 320.1821,-246.2318 343.1694,-240.2329"/>
<polygon fill="#000000" stroke="#000000" points="344.0623,-243.6185 352.9949,-237.9212 342.4591,-236.8046 344.0623,-243.6185"/>
<g id="a_edge41&#45;headlabel"><a xlink:href="dir_000086_000011.html" target="_top" xlink:title="1">
<text text-anchor="middle" x="341.2135" y="-244.7055" font-family="Helvetica,sans-Serif" font-size="10.00" fill="#000000">1</text>
</a>
</g>
</g>
<!-- dir_1af66471b4b3ad2da2cd94ca709331b2 -->
<g id="node13" class="node">
<title>dir_1af66471b4b3ad2da2cd94ca709331b2</title>
<g id="a_node13"><a xlink:href="dir_1af66471b4b3ad2da2cd94ca709331b2.html" target="_top" xlink:title="packet2">
<polygon fill="#ffffff" stroke="#ff0000" points="418,-180 362,-180 362,-144 418,-144 418,-180"/>
<text text-anchor="middle" x="390" y="-159.5" font-family="Helvetica,sans-Serif" font-size="10.00" fill="#000000">packet2</text>
</a>
</g>
</g>
<!-- dir_d7645b35e13a13de91d51b9d02b3f74e&#45;&gt;dir_1af66471b4b3ad2da2cd94ca709331b2 -->
<g id="edge36" class="edge">
<title>dir_d7645b35e13a13de91d51b9d02b3f74e&#45;&gt;dir_1af66471b4b3ad2da2cd94ca709331b2</title>
<path fill="none" stroke="#000000" d="M297.953,-360.5819C286.0915,-351.3071 273.4245,-338.7593 267,-324 259.1951,-306.0695 259.3294,-297.9884 267,-280 284.4841,-238.9976 323.9775,-205.3934 353.5263,-184.6769"/>
<polygon fill="#000000" stroke="#000000" points="355.6688,-187.4522 361.9554,-178.924 351.7227,-181.6704 355.6688,-187.4522"/>
<g id="a_edge36&#45;headlabel"><a xlink:href="dir_000086_000042.html" target="_top" xlink:title="2">
<text text-anchor="middle" x="354.3004" y="-189.3236" font-family="Helvetica,sans-Serif" font-size="10.00" fill="#000000">2</text>
</a>
</g>
</g>
<!-- dir_694ec83a64f58cbdefbefce65cd1011c&#45;&gt;dir_bdd9a5d540de89e9fe90efdfc6973a4f -->
<g id="edge20" class="edge">
<title>dir_694ec83a64f58cbdefbefce65cd1011c&#45;&gt;dir_bdd9a5d540de89e9fe90efdfc6973a4f</title>
<path fill="none" stroke="#000000" d="M361.1121,-72.5708C375.6421,-63.2301 393.7451,-51.5924 409.4967,-41.4664"/>
<polygon fill="#000000" stroke="#000000" points="411.4488,-44.3723 417.968,-36.0206 407.6635,-38.4841 411.4488,-44.3723"/>
<g id="a_edge20&#45;headlabel"><a xlink:href="dir_000025_000000.html" target="_top" xlink:title="24">
<text text-anchor="middle" x="409.9605" y="-46.2044" font-family="Helvetica,sans-Serif" font-size="10.00" fill="#000000">24</text>
</a>
</g>
</g>
<!-- dir_933591e1cd95ed33f946db8a4302cbd1&#45;&gt;dir_21c98801a0c0c7d17001a0beb0986fce -->
<g id="edge24" class="edge">
<title>dir_933591e1cd95ed33f946db8a4302cbd1&#45;&gt;dir_21c98801a0c0c7d17001a0beb0986fce</title>
<path fill="none" stroke="#000000" d="M669.7495,-306C667.293,-306 664.8366,-306 662.3801,-306"/>
<polygon fill="#000000" stroke="#000000" points="662.2813,-302.5001 652.2813,-306 662.2812,-309.5001 662.2813,-302.5001"/>
<g id="a_edge24&#45;headlabel"><a xlink:href="dir_000019_000081.html" target="_top" xlink:title="1">
<text text-anchor="middle" x="665.8759" y="-297.1607" font-family="Helvetica,sans-Serif" font-size="10.00" fill="#000000">1</text>
</a>
</g>
</g>
<!-- dir_933591e1cd95ed33f946db8a4302cbd1&#45;&gt;dir_694ec83a64f58cbdefbefce65cd1011c -->
<g id="edge21" class="edge">
<title>dir_933591e1cd95ed33f946db8a4302cbd1&#45;&gt;dir_694ec83a64f58cbdefbefce65cd1011c</title>
<path fill="none" stroke="#000000" d="M679.4639,-287.8714C646.6801,-254.9194 572.6449,-184.8441 498,-144 457.1292,-121.6364 405.4362,-106.5235 371.1263,-98.1003"/>
<polygon fill="#000000" stroke="#000000" points="371.607,-94.6168 361.0677,-95.7004 369.9824,-101.4257 371.607,-94.6168"/>
<g id="a_edge21&#45;headlabel"><a xlink:href="dir_000019_000025.html" target="_top" xlink:title="4">
<text text-anchor="middle" x="375.7624" y="-90.1892" font-family="Helvetica,sans-Serif" font-size="10.00" fill="#000000">4</text>
</a>
</g>
</g>
<!-- dir_933591e1cd95ed33f946db8a4302cbd1&#45;&gt;dir_bdd9a5d540de89e9fe90efdfc6973a4f -->
<g id="edge22" class="edge">
<title>dir_933591e1cd95ed33f946db8a4302cbd1&#45;&gt;dir_bdd9a5d540de89e9fe90efdfc6973a4f</title>
<path fill="none" stroke="#000000" d="M700.1022,-287.7417C706.4181,-243.8628 715.6049,-131.7101 657,-72 633.3612,-47.9154 540.1074,-31.1643 485.8089,-23.229"/>
<polygon fill="#000000" stroke="#000000" points="486.219,-19.7521 475.825,-21.805 485.2305,-26.682 486.219,-19.7521"/>
<g id="a_edge22&#45;headlabel"><a xlink:href="dir_000019_000000.html" target="_top" xlink:title="8">
<text text-anchor="middle" x="490.1785" y="-14.9488" font-family="Helvetica,sans-Serif" font-size="10.00" fill="#000000">8</text>
</a>
</g>
</g>
<!-- dir_933591e1cd95ed33f946db8a4302cbd1&#45;&gt;dir_d6c8ea3c46b2d4fe2308a65fe0836890 -->
<g id="edge23" class="edge">
<title>dir_933591e1cd95ed33f946db8a4302cbd1&#45;&gt;dir_d6c8ea3c46b2d4fe2308a65fe0836890</title>
<path fill="none" stroke="#000000" d="M677.5003,-287.917C673.301,-284.8326 668.7027,-281.9879 664,-280 577.2709,-243.3388 546.5425,-269.374 454,-252 441.9392,-249.7357 428.897,-246.7473 417.1702,-243.8574"/>
<polygon fill="#000000" stroke="#000000" points="417.8131,-240.4102 407.2613,-241.3639 416.1048,-247.1985 417.8131,-240.4102"/>
<g id="a_edge23&#45;headlabel"><a xlink:href="dir_000019_000011.html" target="_top" xlink:title="2">
<text text-anchor="middle" x="421.9919" y="-236.0339" font-family="Helvetica,sans-Serif" font-size="10.00" fill="#000000">2</text>
</a>
</g>
</g>
<!-- dir_933591e1cd95ed33f946db8a4302cbd1&#45;&gt;dir_ef7db18cfb93c4891bb35babb04f0d85 -->
<g id="edge25" class="edge">
<title>dir_933591e1cd95ed33f946db8a4302cbd1&#45;&gt;dir_ef7db18cfb93c4891bb35babb04f0d85</title>
<path fill="none" stroke="#000000" d="M676.5672,-287.8455C672.5871,-284.9188 668.3073,-282.1495 664,-280 651.7254,-273.8745 574.4093,-254.5061 527.064,-242.9465"/>
<polygon fill="#000000" stroke="#000000" points="527.7078,-239.5011 517.1637,-240.5363 526.0521,-246.3024 527.7078,-239.5011"/>
<g id="a_edge25&#45;headlabel"><a xlink:href="dir_000019_000040.html" target="_top" xlink:title="1">
<text text-anchor="middle" x="531.872" y="-235.0925" font-family="Helvetica,sans-Serif" font-size="10.00" fill="#000000">1</text>
</a>
</g>
</g>
<!-- dir_d6c8ea3c46b2d4fe2308a65fe0836890&#45;&gt;dir_694ec83a64f58cbdefbefce65cd1011c -->
<g id="edge35" class="edge">
<title>dir_d6c8ea3c46b2d4fe2308a65fe0836890&#45;&gt;dir_694ec83a64f58cbdefbefce65cd1011c</title>
<path fill="none" stroke="#000000" d="M369.284,-215.5222C363.7521,-205.3239 357.2835,-192.271 353,-180 345.9606,-159.8343 341.0905,-136.1733 338.0444,-118.1738"/>
<polygon fill="#000000" stroke="#000000" points="341.5001,-117.6182 336.4591,-108.2995 334.5886,-118.7279 341.5001,-117.6182"/>
<g id="a_edge35&#45;headlabel"><a xlink:href="dir_000011_000025.html" target="_top" xlink:title="1">
<text text-anchor="middle" x="344.8732" y="-118.2173" font-family="Helvetica,sans-Serif" font-size="10.00" fill="#000000">1</text>
</a>
</g>
</g>
<!-- dir_d6c8ea3c46b2d4fe2308a65fe0836890&#45;&gt;dir_bdd9a5d540de89e9fe90efdfc6973a4f -->
<g id="edge33" class="edge">
<title>dir_d6c8ea3c46b2d4fe2308a65fe0836890&#45;&gt;dir_bdd9a5d540de89e9fe90efdfc6973a4f</title>
<path fill="none" stroke="#000000" d="M401.0762,-215.5347C410.6178,-205.933 421.0671,-193.4122 427,-180 446.2979,-136.3744 448.4256,-80.0155 447.6241,-46.5715"/>
<polygon fill="#000000" stroke="#000000" points="451.1075,-46.0314 447.2606,-36.1596 444.1117,-46.2757 451.1075,-46.0314"/>
<g id="a_edge33&#45;headlabel"><a xlink:href="dir_000011_000000.html" target="_top" xlink:title="4">
<text text-anchor="middle" x="454.0704" y="-47.0248" font-family="Helvetica,sans-Serif" font-size="10.00" fill="#000000">4</text>
</a>
</g>
</g>
<!-- dir_d6c8ea3c46b2d4fe2308a65fe0836890&#45;&gt;dir_1af66471b4b3ad2da2cd94ca709331b2 -->
<g id="edge34" class="edge">
<title>dir_d6c8ea3c46b2d4fe2308a65fe0836890&#45;&gt;dir_1af66471b4b3ad2da2cd94ca709331b2</title>
<path fill="none" stroke="#000000" d="M382.5234,-215.8314C383.5929,-208.131 384.8647,-198.9743 386.0532,-190.4166"/>
<polygon fill="#000000" stroke="#000000" points="389.5336,-190.7997 387.4426,-180.4133 382.6001,-189.8367 389.5336,-190.7997"/>
<g id="a_edge34&#45;headlabel"><a xlink:href="dir_000011_000042.html" target="_top" xlink:title="1">
<text text-anchor="middle" x="391.8514" y="-192.2507" font-family="Helvetica,sans-Serif" font-size="10.00" fill="#000000">1</text>
</a>
</g>
</g>
<!-- dir_ef61ae23abebf035898b2c6525d9b365&#45;&gt;dir_933591e1cd95ed33f946db8a4302cbd1 -->
<g id="edge43" class="edge">
<title>dir_ef61ae23abebf035898b2c6525d9b365&#45;&gt;dir_933591e1cd95ed33f946db8a4302cbd1</title>
<path fill="none" stroke="#000000" d="M695.5047,-359.8314C695.7186,-352.131 695.9729,-342.9743 696.2106,-334.4166"/>
<polygon fill="#000000" stroke="#000000" points="699.7094,-334.5066 696.4885,-324.4133 692.7121,-334.3122 699.7094,-334.5066"/>
<g id="a_edge43&#45;headlabel"><a xlink:href="dir_000031_000019.html" target="_top" xlink:title="1">
<text text-anchor="middle" x="702.4479" y="-335.6787" font-family="Helvetica,sans-Serif" font-size="10.00" fill="#000000">1</text>
</a>
</g>
</g>
<!-- dir_ef61ae23abebf035898b2c6525d9b365&#45;&gt;dir_bdd9a5d540de89e9fe90efdfc6973a4f -->
<g id="edge42" class="edge">
<title>dir_ef61ae23abebf035898b2c6525d9b365&#45;&gt;dir_bdd9a5d540de89e9fe90efdfc6973a4f</title>
<path fill="none" stroke="#000000" d="M710.746,-359.6429C718.5252,-349.6881 727.4171,-336.8229 733,-324 749.3195,-286.5169 752,-274.8816 752,-234 752,-234 752,-234 752,-162 752,-111.5972 725.4242,-99.2146 683,-72 650.6645,-51.2572 544.4459,-32.7053 485.7919,-23.7199"/>
<polygon fill="#000000" stroke="#000000" points="486.178,-20.2386 475.7675,-22.2065 485.133,-27.1602 486.178,-20.2386"/>
<g id="a_edge42&#45;headlabel"><a xlink:href="dir_000031_000000.html" target="_top" xlink:title="2">
<text text-anchor="middle" x="490.1562" y="-15.4677" font-family="Helvetica,sans-Serif" font-size="10.00" fill="#000000">2</text>
</a>
</g>
</g>
<!-- dir_ef7db18cfb93c4891bb35babb04f0d85&#45;&gt;dir_bdd9a5d540de89e9fe90efdfc6973a4f -->
<g id="edge44" class="edge">
<title>dir_ef7db18cfb93c4891bb35babb04f0d85&#45;&gt;dir_bdd9a5d540de89e9fe90efdfc6973a4f</title>
<path fill="none" stroke="#000000" d="M494.5902,-215.9098C498.5354,-197.6209 502.8806,-168.6195 498,-144 490.9313,-108.3428 473.6233,-70.1113 460.9089,-45.233"/>
<polygon fill="#000000" stroke="#000000" points="463.8547,-43.3128 456.1232,-36.0689 457.6498,-46.5532 463.8547,-43.3128"/>
<g id="a_edge44&#45;headlabel"><a xlink:href="dir_000040_000000.html" target="_top" xlink:title="1">
<text text-anchor="middle" x="468.0354" y="-42.6848" font-family="Helvetica,sans-Serif" font-size="10.00" fill="#000000">1</text>
</a>
</g>
</g>
<!-- dir_1af66471b4b3ad2da2cd94ca709331b2&#45;&gt;dir_21c98801a0c0c7d17001a0beb0986fce -->
<g id="edge8" class="edge">
<title>dir_1af66471b4b3ad2da2cd94ca709331b2&#45;&gt;dir_21c98801a0c0c7d17001a0beb0986fce</title>
<path fill="none" stroke="#000000" d="M418.2165,-169.926C446.734,-178.6693 491.4086,-194.4144 526,-216 534.0262,-221.0085 571.932,-256.0925 598.4361,-280.9435"/>
<polygon fill="#000000" stroke="#000000" points="596.2266,-283.67 605.9119,-287.9649 601.0189,-278.5676 596.2266,-283.67"/>
<g id="a_edge8&#45;headlabel"><a xlink:href="dir_000042_000081.html" target="_top" xlink:title="3">
<text text-anchor="middle" x="591.6627" y="-280.7787" font-family="Helvetica,sans-Serif" font-size="10.00" fill="#000000">3</text>
</a>
</g>
</g>
<!-- dir_1af66471b4b3ad2da2cd94ca709331b2&#45;&gt;dir_694ec83a64f58cbdefbefce65cd1011c -->
<g id="edge10" class="edge">
<title>dir_1af66471b4b3ad2da2cd94ca709331b2&#45;&gt;dir_694ec83a64f58cbdefbefce65cd1011c</title>
<path fill="none" stroke="#000000" d="M375.8688,-143.8314C369.4189,-135.5386 361.6555,-125.557 354.5748,-116.4533"/>
<polygon fill="#000000" stroke="#000000" points="357.2236,-114.158 348.3214,-108.4133 351.6981,-118.4556 357.2236,-114.158"/>
<g id="a_edge10&#45;headlabel"><a xlink:href="dir_000042_000025.html" target="_top" xlink:title="1">
<text text-anchor="middle" x="361.6716" y="-112.7523" font-family="Helvetica,sans-Serif" font-size="10.00" fill="#000000">1</text>
</a>
</g>
</g>
<!-- dir_1af66471b4b3ad2da2cd94ca709331b2&#45;&gt;dir_bdd9a5d540de89e9fe90efdfc6973a4f -->
<g id="edge9" class="edge">
<title>dir_1af66471b4b3ad2da2cd94ca709331b2&#45;&gt;dir_bdd9a5d540de89e9fe90efdfc6973a4f</title>
<path fill="none" stroke="#000000" d="M397.0924,-143.7623C406.7282,-118.9846 424.0389,-74.4714 435.269,-45.5939"/>
<polygon fill="#000000" stroke="#000000" points="438.6026,-46.6783 438.9651,-36.0896 432.0786,-44.1411 438.6026,-46.6783"/>
<g id="a_edge9&#45;headlabel"><a xlink:href="dir_000042_000000.html" target="_top" xlink:title="3">
<text text-anchor="middle" x="439.9461" y="-48.5575" font-family="Helvetica,sans-Serif" font-size="10.00" fill="#000000">3</text>
</a>
</g>
</g>
</g>
</svg>
        <g id="navigator" transform="translate(0 0)" fill="#404254">
                <rect fill="#f2f5e9" fill-opacity="0.5" stroke="#606060" stroke-width=".5" x="0" y="0" width="60" height="60"/>
                <use id="zoomplus" xlink:href="#zoomPlus" x="17" y="9" onmousedown="handleZoom(evt,'in')"/>
                <use id="zoomminus" xlink:href="#zoomMin" x="42" y="9" onmousedown="handleZoom(evt,'out')"/>
                <use id="reset" xlink:href="#resetDef" x="30" y="36" onmousedown="handleReset()"/>
                <g id="arrowUp" xlink:href="#dirArrow" transform="translate(30 24)" onmousedown="handlePan(0,-1)">
                  <use xlink:href="#rim" fill="#404040">
                        <set attributeName="fill" to="#808080" begin="arrowUp.mouseover" end="arrowUp.mouseout"/>
                  </use>
                  <path fill="none" stroke="white" stroke-width="1.5" d="M0,-3.0v7 M-2.5,-0.5L0,-3.0L2.5,-0.5"/>
                </g>
                <g id="arrowRight" xlink:href="#dirArrow" transform="rotate(90) translate(36 -43)" onmousedown="handlePan(1,0)">
                  <use xlink:href="#rim" fill="#404040">
                        <set attributeName="fill" to="#808080" begin="arrowRight.mouseover" end="arrowRight.mouseout"/>
                  </use>
                  <path fill="none" stroke="white" stroke-width="1.5" d="M0,-3.0v7 M-2.5,-0.5L0,-3.0L2.5,-0.5"/>
                </g>
                <g id="arrowDown" xlink:href="#dirArrow" transform="rotate(180) translate(-30 -48)" onmousedown="handlePan(0,1)">
                  <use xlink:href="#rim" fill="#404040">
                        <set attributeName="fill" to="#808080" begin="arrowDown.mouseover" end="arrowDown.mouseout"/>
                  </use>
                  <path fill="none" stroke="white" stroke-width="1.5" d="M0,-3.0v7 M-2.5,-0.5L0,-3.0L2.5,-0.5"/>
                </g>
                <g id="arrowLeft" xlink:href="#dirArrow" transform="rotate(270) translate(-36 17)" onmousedown="handlePan(-1,0)">
                  <use xlink:href="#rim" fill="#404040">
                        <set attributeName="fill" to="#808080" begin="arrowLeft.mouseover" end="arrowLeft.mouseout"/>
                  </use>
                  <path fill="none" stroke="white" stroke-width="1.5" d="M0,-3.0v7 M-2.5,-0.5L0,-3.0L2.5,-0.5"/>
                </g>
        </g>
        <svg viewBox="0 0 15 15" width="100%" height="30px" preserveAspectRatio="xMaxYMin meet">
         <g id="arrow_out" transform="scale(0.3 0.3)">
          <a xlink:href="dir_a34b23657241b7343cb203c117e62746_dep_org.svg" target="_base">
           <rect id="button" ry="5" rx="5" y="6" x="6" height="38" width="38"
                fill="#f2f5e9" fill-opacity="0.5" stroke="#606060" stroke-width="1.0"/>
           <path id="arrow"
             d="M 11.500037,31.436501 C 11.940474,20.09759 22.043105,11.32322 32.158766,21.979434 L 37.068811,17.246167 C 37.068811,17.246167 37.088388,32 37.088388,32 L 22.160133,31.978069 C 22.160133,31.978069 26.997745,27.140456 26.997745,27.140456 C 18.528582,18.264221 13.291696,25.230495 11.500037,31.436501 z"
             style="fill:#404040;"/>
          </a>
         </g>
        </svg>
</svg>
