<?xml version="1.0" encoding="UTF-8" standalone="no"?>
<!DOCTYPE svg PUBLIC "-//W3C//DTD SVG 1.1//EN"
 "http://www.w3.org/Graphics/SVG/1.1/DTD/svg11.dtd">
<!-- Generated by graphviz version 2.40.1 (20161225.0304)
 -->
<!-- Title: ee/rpc/ahx Pages: 1 -->
<svg width="254pt" height="303pt"
 viewBox="0.00 0.00 253.93 303.00" xmlns="http://www.w3.org/2000/svg" xmlns:xlink="http://www.w3.org/1999/xlink">
<g id="graph0" class="graph" transform="scale(1 1) rotate(0) translate(4 299)">
<title>ee/rpc/ahx</title>
<polygon fill="#ffffff" stroke="transparent" points="-4,4 -4,-299 249.9335,-299 249.9335,4 -4,4"/>
<g id="clust1" class="cluster">
<title>clusterdir_5b119dc963fa9b25ef41951231899460</title>
<g id="a_clust1"><a xlink:href="dir_5b119dc963fa9b25ef41951231899460.html" target="_top" xlink:title="rpc">
<polygon fill="#ddddee" stroke="#000000" points="8,-128 8,-287 166,-287 166,-128 8,-128"/>
<text text-anchor="middle" x="87" y="-275" font-family="Helvetica,sans-Serif" font-size="10.00" fill="#000000">rpc</text>
</a>
</g>
</g>
<g id="clust2" class="cluster">
<title>clusterdir_4aa16fa050235bfcc2447f6060318e0e</title>
<g id="a_clust2"><a xlink:href="dir_4aa16fa050235bfcc2447f6060318e0e.html" target="_top">
<polygon fill="#eeeeff" stroke="#000000" points="16,-136 16,-260 158,-260 158,-136 16,-136"/>
</a>
</g>
</g>
<!-- dir_4aa16fa050235bfcc2447f6060318e0e -->
<g id="node1" class="node">
<title>dir_4aa16fa050235bfcc2447f6060318e0e</title>
<text text-anchor="middle" x="123" y="-231.5" font-family="Helvetica,sans-Serif" font-size="10.00" fill="#000000">ahx</text>
</g>
<!-- dir_f880cd0723e9ab7c57124c2f1349ba73 -->
<g id="node2" class="node">
<title>dir_f880cd0723e9ab7c57124c2f1349ba73</title>
<g id="a_node2"><a xlink:href="dir_f880cd0723e9ab7c57124c2f1349ba73.html" target="_top" xlink:title="include">
<polygon fill="#ffffff" stroke="#000000" points="78,-180 24,-180 24,-144 78,-144 78,-180"/>
<text text-anchor="middle" x="51" y="-159.5" font-family="Helvetica,sans-Serif" font-size="10.00" fill="#000000">include</text>
</a>
</g>
</g>
<!-- dir_35627888e3e0e91a0397ea271ffc9b90 -->
<g id="node3" class="node">
<title>dir_35627888e3e0e91a0397ea271ffc9b90</title>
<g id="a_node3"><a xlink:href="dir_35627888e3e0e91a0397ea271ffc9b90.html" target="_top" xlink:title="src">
<polygon fill="#ffffff" stroke="#000000" points="78,-252 24,-252 24,-216 78,-216 78,-252"/>
<text text-anchor="middle" x="51" y="-231.5" font-family="Helvetica,sans-Serif" font-size="10.00" fill="#000000">src</text>
</a>
</g>
</g>
<!-- dir_35627888e3e0e91a0397ea271ffc9b90&#45;&gt;dir_f880cd0723e9ab7c57124c2f1349ba73 -->
<g id="edge4" class="edge">
<title>dir_35627888e3e0e91a0397ea271ffc9b90&#45;&gt;dir_f880cd0723e9ab7c57124c2f1349ba73</title>
<path fill="none" stroke="#000000" d="M51,-215.8314C51,-208.131 51,-198.9743 51,-190.4166"/>
<polygon fill="#000000" stroke="#000000" points="54.5001,-190.4132 51,-180.4133 47.5001,-190.4133 54.5001,-190.4132"/>
<g id="a_edge4&#45;headlabel"><a xlink:href="dir_000046_000134.html" target="_top" xlink:title="1">
<text text-anchor="middle" x="57.3393" y="-191.5079" font-family="Helvetica,sans-Serif" font-size="10.00" fill="#000000">1</text>
</a>
</g>
</g>
<!-- dir_bdd9a5d540de89e9fe90efdfc6973a4f -->
<g id="node4" class="node">
<title>dir_bdd9a5d540de89e9fe90efdfc6973a4f</title>
<g id="a_node4"><a xlink:href="dir_bdd9a5d540de89e9fe90efdfc6973a4f.html" target="_top" xlink:title="common">
<polygon fill="#ffffff" stroke="#ff0000" points="175.5,-36 116.5,-36 116.5,0 175.5,0 175.5,-36"/>
<text text-anchor="middle" x="146" y="-15.5" font-family="Helvetica,sans-Serif" font-size="10.00" fill="#000000">common</text>
</a>
</g>
</g>
<!-- dir_35627888e3e0e91a0397ea271ffc9b90&#45;&gt;dir_bdd9a5d540de89e9fe90efdfc6973a4f -->
<g id="edge3" class="edge">
<title>dir_35627888e3e0e91a0397ea271ffc9b90&#45;&gt;dir_bdd9a5d540de89e9fe90efdfc6973a4f</title>
<path fill="none" stroke="#000000" d="M64.8102,-215.6771C72.046,-205.5242 80.6895,-192.4652 87,-180 109.8124,-134.9383 128.185,-78.8979 138.0595,-45.929"/>
<polygon fill="#000000" stroke="#000000" points="141.4928,-46.6602 140.9618,-36.0787 134.7782,-44.6818 141.4928,-46.6602"/>
<g id="a_edge3&#45;headlabel"><a xlink:href="dir_000046_000000.html" target="_top" xlink:title="1">
<text text-anchor="middle" x="143.2005" y="-48.4107" font-family="Helvetica,sans-Serif" font-size="10.00" fill="#000000">1</text>
</a>
</g>
</g>
<!-- dir_694ec83a64f58cbdefbefce65cd1011c -->
<g id="node5" class="node">
<title>dir_694ec83a64f58cbdefbefce65cd1011c</title>
<g id="a_node5"><a xlink:href="dir_694ec83a64f58cbdefbefce65cd1011c.html" target="_top" xlink:title="kernel">
<polygon fill="#ffffff" stroke="#ff0000" points="228,-180 174,-180 174,-144 228,-144 228,-180"/>
<text text-anchor="middle" x="201" y="-159.5" font-family="Helvetica,sans-Serif" font-size="10.00" fill="#000000">kernel</text>
</a>
</g>
</g>
<!-- dir_35627888e3e0e91a0397ea271ffc9b90&#45;&gt;dir_694ec83a64f58cbdefbefce65cd1011c -->
<g id="edge1" class="edge">
<title>dir_35627888e3e0e91a0397ea271ffc9b90&#45;&gt;dir_694ec83a64f58cbdefbefce65cd1011c</title>
<path fill="none" stroke="#000000" d="M78.0963,-220.3747C81.096,-218.8893 84.1099,-217.4068 87,-216 112.8442,-203.4197 142.1537,-189.5449 164.5818,-179.0097"/>
<polygon fill="#000000" stroke="#000000" points="166.1753,-182.1282 173.7424,-174.7126 163.2025,-175.7908 166.1753,-182.1282"/>
<g id="a_edge1&#45;headlabel"><a xlink:href="dir_000046_000025.html" target="_top" xlink:title="2">
<text text-anchor="middle" x="164.1268" y="-183.7252" font-family="Helvetica,sans-Serif" font-size="10.00" fill="#000000">2</text>
</a>
</g>
</g>
<!-- dir_a0a8ac7efb6662b749c1285408048e6d -->
<g id="node6" class="node">
<title>dir_a0a8ac7efb6662b749c1285408048e6d</title>
<g id="a_node6"><a xlink:href="dir_a0a8ac7efb6662b749c1285408048e6d.html" target="_top" xlink:title="erl">
<polygon fill="#ffffff" stroke="#ff0000" points="228,-108 174,-108 174,-72 228,-72 228,-108"/>
<text text-anchor="middle" x="201" y="-87.5" font-family="Helvetica,sans-Serif" font-size="10.00" fill="#000000">erl</text>
</a>
</g>
</g>
<!-- dir_35627888e3e0e91a0397ea271ffc9b90&#45;&gt;dir_a0a8ac7efb6662b749c1285408048e6d -->
<g id="edge2" class="edge">
<title>dir_35627888e3e0e91a0397ea271ffc9b90&#45;&gt;dir_a0a8ac7efb6662b749c1285408048e6d</title>
<path fill="none" stroke="#000000" d="M78.2322,-219.5791C81.1523,-218.2759 84.1114,-217.0531 87,-216 151.4127,-192.517 194.553,-233.8396 237,-180 251.3086,-161.851 245.555,-149.4694 237,-128 235.2886,-123.7051 232.8356,-119.6164 230.0034,-115.8217"/>
<polygon fill="#000000" stroke="#000000" points="232.4942,-113.3489 223.3382,-108.018 227.1714,-117.8951 232.4942,-113.3489"/>
<g id="a_edge2&#45;headlabel"><a xlink:href="dir_000046_000097.html" target="_top" xlink:title="1">
<text text-anchor="middle" x="236.9877" y="-111.7382" font-family="Helvetica,sans-Serif" font-size="10.00" fill="#000000">1</text>
</a>
</g>
</g>
<!-- dir_694ec83a64f58cbdefbefce65cd1011c&#45;&gt;dir_bdd9a5d540de89e9fe90efdfc6973a4f -->
<g id="edge5" class="edge">
<title>dir_694ec83a64f58cbdefbefce65cd1011c&#45;&gt;dir_bdd9a5d540de89e9fe90efdfc6973a4f</title>
<path fill="none" stroke="#000000" d="M186.1147,-143.5185C178.7538,-133.5296 170.328,-120.6716 165,-108 156.6694,-88.1876 151.8467,-64.3321 149.1459,-46.1605"/>
<polygon fill="#000000" stroke="#000000" points="152.6059,-45.6289 147.7905,-36.1917 145.6698,-46.5721 152.6059,-45.6289"/>
<g id="a_edge5&#45;headlabel"><a xlink:href="dir_000025_000000.html" target="_top" xlink:title="24">
<text text-anchor="middle" x="155.9035" y="-46.3082" font-family="Helvetica,sans-Serif" font-size="10.00" fill="#000000">24</text>
</a>
</g>
</g>
<!-- dir_694ec83a64f58cbdefbefce65cd1011c&#45;&gt;dir_a0a8ac7efb6662b749c1285408048e6d -->
<g id="edge6" class="edge">
<title>dir_694ec83a64f58cbdefbefce65cd1011c&#45;&gt;dir_a0a8ac7efb6662b749c1285408048e6d</title>
<path fill="none" stroke="#000000" d="M195.0476,-143.8314C194.2972,-136.131 194.0763,-126.9743 194.3849,-118.4166"/>
<polygon fill="#000000" stroke="#000000" points="197.8792,-118.6161 195.024,-108.4133 190.8935,-118.1697 197.8792,-118.6161"/>
<g id="a_edge6&#45;headlabel"><a xlink:href="dir_000025_000097.html" target="_top" xlink:title="1">
<text text-anchor="middle" x="200.4836" y="-119.8844" font-family="Helvetica,sans-Serif" font-size="10.00" fill="#000000">1</text>
</a>
</g>
</g>
<!-- dir_a0a8ac7efb6662b749c1285408048e6d&#45;&gt;dir_bdd9a5d540de89e9fe90efdfc6973a4f -->
<g id="edge7" class="edge">
<title>dir_a0a8ac7efb6662b749c1285408048e6d&#45;&gt;dir_bdd9a5d540de89e9fe90efdfc6973a4f</title>
<path fill="none" stroke="#000000" d="M187.1212,-71.8314C180.7864,-63.5386 173.1616,-53.557 166.2074,-44.4533"/>
<polygon fill="#000000" stroke="#000000" points="168.9175,-42.2353 160.0657,-36.4133 163.3548,-46.4847 168.9175,-42.2353"/>
<g id="a_edge7&#45;headlabel"><a xlink:href="dir_000097_000000.html" target="_top" xlink:title="3">
<text text-anchor="middle" x="173.3558" y="-40.8683" font-family="Helvetica,sans-Serif" font-size="10.00" fill="#000000">3</text>
</a>
</g>
</g>
<!-- dir_a0a8ac7efb6662b749c1285408048e6d&#45;&gt;dir_694ec83a64f58cbdefbefce65cd1011c -->
<g id="edge8" class="edge">
<title>dir_a0a8ac7efb6662b749c1285408048e6d&#45;&gt;dir_694ec83a64f58cbdefbefce65cd1011c</title>
<path fill="none" stroke="#000000" d="M206.976,-108.4133C207.7071,-116.0593 207.9203,-125.1084 207.6155,-133.5726"/>
<polygon fill="#000000" stroke="#000000" points="204.1048,-133.6264 206.9524,-143.8314 211.0902,-134.078 204.1048,-133.6264"/>
<g id="a_edge8&#45;headlabel"><a xlink:href="dir_000097_000025.html" target="_top" xlink:title="1">
<text text-anchor="middle" x="201.5032" y="-127.3562" font-family="Helvetica,sans-Serif" font-size="10.00" fill="#000000">1</text>
</a>
</g>
</g>
</g>
</svg>
