<?xml version="1.0" encoding="UTF-8" standalone="no"?>
<!DOCTYPE svg PUBLIC "-//W3C//DTD SVG 1.1//EN"
 "http://www.w3.org/Graphics/SVG/1.1/DTD/svg11.dtd">
<!-- Generated by graphviz version 2.40.1 (20161225.0304)
 -->
<!-- Title: ee/rpc/multitap Pages: 1 -->
<svg width="358pt" height="375pt"
 viewBox="0.00 0.00 358.00 375.00" xmlns="http://www.w3.org/2000/svg" xmlns:xlink="http://www.w3.org/1999/xlink">
<g id="graph0" class="graph" transform="scale(1 1) rotate(0) translate(4 371)">
<title>ee/rpc/multitap</title>
<polygon fill="#ffffff" stroke="transparent" points="-4,4 -4,-371 353.9979,-371 353.9979,4 -4,4"/>
<g id="clust1" class="cluster">
<title>clusterdir_5b119dc963fa9b25ef41951231899460</title>
<g id="a_clust1"><a xlink:href="dir_5b119dc963fa9b25ef41951231899460.html" target="_top" xlink:title="rpc">
<polygon fill="#ddddee" stroke="#000000" points="8,-200 8,-359 308,-359 308,-200 8,-200"/>
<text text-anchor="middle" x="158" y="-347" font-family="Helvetica,sans-Serif" font-size="10.00" fill="#000000">rpc</text>
</a>
</g>
</g>
<g id="clust2" class="cluster">
<title>clusterdir_4fe02c3598ec986dac9823d5144e53a1</title>
<g id="a_clust2"><a xlink:href="dir_4fe02c3598ec986dac9823d5144e53a1.html" target="_top">
<polygon fill="#eeeeff" stroke="#000000" points="16,-208 16,-332 238,-332 238,-208 16,-208"/>
</a>
</g>
</g>
<!-- dir_5799e6857a1212b105de941c1bfdc588 -->
<g id="node1" class="node">
<title>dir_5799e6857a1212b105de941c1bfdc588</title>
<g id="a_node1"><a xlink:href="dir_5799e6857a1212b105de941c1bfdc588.html" target="_top" xlink:title="pad">
<polygon fill="#ffffff" stroke="#ff0000" points="300,-252 246,-252 246,-216 300,-216 300,-252"/>
<text text-anchor="middle" x="273" y="-231.5" font-family="Helvetica,sans-Serif" font-size="10.00" fill="#000000">pad</text>
</a>
</g>
</g>
<!-- dir_bdd9a5d540de89e9fe90efdfc6973a4f -->
<g id="node6" class="node">
<title>dir_bdd9a5d540de89e9fe90efdfc6973a4f</title>
<g id="a_node6"><a xlink:href="dir_bdd9a5d540de89e9fe90efdfc6973a4f.html" target="_top" xlink:title="common">
<polygon fill="#ffffff" stroke="#ff0000" points="239.5,-36 180.5,-36 180.5,0 239.5,0 239.5,-36"/>
<text text-anchor="middle" x="210" y="-15.5" font-family="Helvetica,sans-Serif" font-size="10.00" fill="#000000">common</text>
</a>
</g>
</g>
<!-- dir_5799e6857a1212b105de941c1bfdc588&#45;&gt;dir_bdd9a5d540de89e9fe90efdfc6973a4f -->
<g id="edge1" class="edge">
<title>dir_5799e6857a1212b105de941c1bfdc588&#45;&gt;dir_bdd9a5d540de89e9fe90efdfc6973a4f</title>
<path fill="none" stroke="#000000" d="M265.8445,-215.8702C256.4551,-191.5958 239.8941,-147.0574 229,-108 223.2883,-87.5224 218.379,-64.0045 214.9821,-46.1458"/>
<polygon fill="#000000" stroke="#000000" points="218.3825,-45.2865 213.1156,-36.0936 211.5001,-46.5645 218.3825,-45.2865"/>
<g id="a_edge1&#45;headlabel"><a xlink:href="dir_000065_000000.html" target="_top" xlink:title="2">
<text text-anchor="middle" x="221.8302" y="-45.8024" font-family="Helvetica,sans-Serif" font-size="10.00" fill="#000000">2</text>
</a>
</g>
</g>
<!-- dir_694ec83a64f58cbdefbefce65cd1011c -->
<g id="node7" class="node">
<title>dir_694ec83a64f58cbdefbefce65cd1011c</title>
<g id="a_node7"><a xlink:href="dir_694ec83a64f58cbdefbefce65cd1011c.html" target="_top" xlink:title="kernel">
<polygon fill="#ffffff" stroke="#ff0000" points="347,-180 293,-180 293,-144 347,-144 347,-180"/>
<text text-anchor="middle" x="320" y="-159.5" font-family="Helvetica,sans-Serif" font-size="10.00" fill="#000000">kernel</text>
</a>
</g>
</g>
<!-- dir_5799e6857a1212b105de941c1bfdc588&#45;&gt;dir_694ec83a64f58cbdefbefce65cd1011c -->
<g id="edge2" class="edge">
<title>dir_5799e6857a1212b105de941c1bfdc588&#45;&gt;dir_694ec83a64f58cbdefbefce65cd1011c</title>
<path fill="none" stroke="#000000" d="M284.8601,-215.8314C290.1629,-207.7079 296.5237,-197.9637 302.3673,-189.0118"/>
<polygon fill="#000000" stroke="#000000" points="305.4448,-190.7003 307.9802,-180.4133 299.5831,-186.8739 305.4448,-190.7003"/>
<g id="a_edge2&#45;headlabel"><a xlink:href="dir_000065_000025.html" target="_top" xlink:title="6">
<text text-anchor="middle" x="305.8575" y="-192.7623" font-family="Helvetica,sans-Serif" font-size="10.00" fill="#000000">6</text>
</a>
</g>
</g>
<!-- dir_a0a8ac7efb6662b749c1285408048e6d -->
<g id="node8" class="node">
<title>dir_a0a8ac7efb6662b749c1285408048e6d</title>
<g id="a_node8"><a xlink:href="dir_a0a8ac7efb6662b749c1285408048e6d.html" target="_top" xlink:title="erl">
<polygon fill="#ffffff" stroke="#ff0000" points="292,-108 238,-108 238,-72 292,-72 292,-108"/>
<text text-anchor="middle" x="265" y="-87.5" font-family="Helvetica,sans-Serif" font-size="10.00" fill="#000000">erl</text>
</a>
</g>
</g>
<!-- dir_5799e6857a1212b105de941c1bfdc588&#45;&gt;dir_a0a8ac7efb6662b749c1285408048e6d -->
<g id="edge3" class="edge">
<title>dir_5799e6857a1212b105de941c1bfdc588&#45;&gt;dir_a0a8ac7efb6662b749c1285408048e6d</title>
<path fill="none" stroke="#000000" d="M271.9868,-215.7623C270.6223,-191.201 268.1804,-147.2474 266.5752,-118.3541"/>
<polygon fill="#000000" stroke="#000000" points="270.0544,-117.88 266.005,-108.0896 263.0652,-118.2684 270.0544,-117.88"/>
<g id="a_edge3&#45;headlabel"><a xlink:href="dir_000065_000097.html" target="_top" xlink:title="1">
<text text-anchor="middle" x="273.0886" y="-118.8117" font-family="Helvetica,sans-Serif" font-size="10.00" fill="#000000">1</text>
</a>
</g>
</g>
<!-- dir_4fe02c3598ec986dac9823d5144e53a1 -->
<g id="node2" class="node">
<title>dir_4fe02c3598ec986dac9823d5144e53a1</title>
<text text-anchor="middle" x="201" y="-303.5" font-family="Helvetica,sans-Serif" font-size="10.00" fill="#000000">multitap</text>
</g>
<!-- dir_e6a8a4ea8085298a3170c9700467a79c -->
<g id="node3" class="node">
<title>dir_e6a8a4ea8085298a3170c9700467a79c</title>
<g id="a_node3"><a xlink:href="dir_e6a8a4ea8085298a3170c9700467a79c.html" target="_top" xlink:title="include">
<polygon fill="#ffffff" stroke="#000000" points="208,-252 154,-252 154,-216 208,-216 208,-252"/>
<text text-anchor="middle" x="181" y="-231.5" font-family="Helvetica,sans-Serif" font-size="10.00" fill="#000000">include</text>
</a>
</g>
</g>
<!-- dir_8159ed929e7f7d5e8481970c2fe63c79 -->
<g id="node4" class="node">
<title>dir_8159ed929e7f7d5e8481970c2fe63c79</title>
<g id="a_node4"><a xlink:href="dir_8159ed929e7f7d5e8481970c2fe63c79.html" target="_top" xlink:title="samples">
<polygon fill="#ffffff" stroke="#000000" points="154,-324 96,-324 96,-288 154,-288 154,-324"/>
<text text-anchor="middle" x="125" y="-303.5" font-family="Helvetica,sans-Serif" font-size="10.00" fill="#000000">samples</text>
</a>
</g>
</g>
<!-- dir_8159ed929e7f7d5e8481970c2fe63c79&#45;&gt;dir_5799e6857a1212b105de941c1bfdc588 -->
<g id="edge10" class="edge">
<title>dir_8159ed929e7f7d5e8481970c2fe63c79&#45;&gt;dir_5799e6857a1212b105de941c1bfdc588</title>
<path fill="none" stroke="#000000" d="M154.0253,-292.1971C157.053,-290.7735 160.0871,-289.3535 163,-288 194.9847,-273.138 205.8606,-270.1632 236.4974,-254.7472"/>
<polygon fill="#000000" stroke="#000000" points="238.3827,-257.7144 245.6965,-250.049 235.1988,-251.4804 238.3827,-257.7144"/>
<g id="a_edge10&#45;headlabel"><a xlink:href="dir_000152_000065.html" target="_top" xlink:title="1">
<text text-anchor="middle" x="236.4728" y="-259.3779" font-family="Helvetica,sans-Serif" font-size="10.00" fill="#000000">1</text>
</a>
</g>
</g>
<!-- dir_8159ed929e7f7d5e8481970c2fe63c79&#45;&gt;dir_e6a8a4ea8085298a3170c9700467a79c -->
<g id="edge13" class="edge">
<title>dir_8159ed929e7f7d5e8481970c2fe63c79&#45;&gt;dir_e6a8a4ea8085298a3170c9700467a79c</title>
<path fill="none" stroke="#000000" d="M139.1312,-287.8314C145.5811,-279.5386 153.3445,-269.557 160.4252,-260.4533"/>
<polygon fill="#000000" stroke="#000000" points="163.3019,-262.4556 166.6786,-252.4133 157.7764,-258.158 163.3019,-262.4556"/>
<g id="a_edge13&#45;headlabel"><a xlink:href="dir_000152_000151.html" target="_top" xlink:title="1">
<text text-anchor="middle" x="163.3362" y="-264.5361" font-family="Helvetica,sans-Serif" font-size="10.00" fill="#000000">1</text>
</a>
</g>
</g>
<!-- dir_8159ed929e7f7d5e8481970c2fe63c79&#45;&gt;dir_bdd9a5d540de89e9fe90efdfc6973a4f -->
<g id="edge12" class="edge">
<title>dir_8159ed929e7f7d5e8481970c2fe63c79&#45;&gt;dir_bdd9a5d540de89e9fe90efdfc6973a4f</title>
<path fill="none" stroke="#000000" d="M127.5466,-287.7995C130.7267,-266.527 136.7672,-230.3659 145,-200 160.1426,-144.1478 184.3854,-80.9424 198.5929,-45.6438"/>
<polygon fill="#000000" stroke="#000000" points="201.9728,-46.6225 202.4884,-36.0402 195.4861,-43.9912 201.9728,-46.6225"/>
<g id="a_edge12&#45;headlabel"><a xlink:href="dir_000152_000000.html" target="_top" xlink:title="2">
<text text-anchor="middle" x="203.2527" y="-48.5207" font-family="Helvetica,sans-Serif" font-size="10.00" fill="#000000">2</text>
</a>
</g>
</g>
<!-- dir_8159ed929e7f7d5e8481970c2fe63c79&#45;&gt;dir_694ec83a64f58cbdefbefce65cd1011c -->
<g id="edge11" class="edge">
<title>dir_8159ed929e7f7d5e8481970c2fe63c79&#45;&gt;dir_694ec83a64f58cbdefbefce65cd1011c</title>
<path fill="none" stroke="#000000" d="M154.1669,-291.3189C157.1121,-290.099 160.0901,-288.9657 163,-288 240.0183,-262.4409 290.5864,-314.7832 342,-252 356.5163,-234.2736 348.0674,-208.4101 337.7154,-188.9526"/>
<polygon fill="#000000" stroke="#000000" points="340.7401,-187.1912 332.7375,-180.2479 334.6635,-190.6662 340.7401,-187.1912"/>
<g id="a_edge11&#45;headlabel"><a xlink:href="dir_000152_000025.html" target="_top" xlink:title="3">
<text text-anchor="middle" x="344.9892" y="-186.4022" font-family="Helvetica,sans-Serif" font-size="10.00" fill="#000000">3</text>
</a>
</g>
</g>
<!-- dir_674d4bf0891c267e7e23627b72783290 -->
<g id="node5" class="node">
<title>dir_674d4bf0891c267e7e23627b72783290</title>
<g id="a_node5"><a xlink:href="dir_674d4bf0891c267e7e23627b72783290.html" target="_top" xlink:title="src">
<polygon fill="#ffffff" stroke="#000000" points="78,-324 24,-324 24,-288 78,-288 78,-324"/>
<text text-anchor="middle" x="51" y="-303.5" font-family="Helvetica,sans-Serif" font-size="10.00" fill="#000000">src</text>
</a>
</g>
</g>
<!-- dir_674d4bf0891c267e7e23627b72783290&#45;&gt;dir_e6a8a4ea8085298a3170c9700467a79c -->
<g id="edge7" class="edge">
<title>dir_674d4bf0891c267e7e23627b72783290&#45;&gt;dir_e6a8a4ea8085298a3170c9700467a79c</title>
<path fill="none" stroke="#000000" d="M78.2523,-290.9064C97.5793,-280.2022 123.7202,-265.7242 144.7976,-254.0506"/>
<polygon fill="#000000" stroke="#000000" points="146.7315,-256.9805 153.7836,-249.0737 143.3399,-250.857 146.7315,-256.9805"/>
<g id="a_edge7&#45;headlabel"><a xlink:href="dir_000064_000151.html" target="_top" xlink:title="1">
<text text-anchor="middle" x="144.9625" y="-258.7058" font-family="Helvetica,sans-Serif" font-size="10.00" fill="#000000">1</text>
</a>
</g>
</g>
<!-- dir_674d4bf0891c267e7e23627b72783290&#45;&gt;dir_bdd9a5d540de89e9fe90efdfc6973a4f -->
<g id="edge6" class="edge">
<title>dir_674d4bf0891c267e7e23627b72783290&#45;&gt;dir_bdd9a5d540de89e9fe90efdfc6973a4f</title>
<path fill="none" stroke="#000000" d="M57.493,-287.6297C65.2862,-266.1976 79.1705,-229.8868 94,-200 123.4073,-140.7337 133.3733,-127.0978 170,-72 176.1035,-62.8184 183.1515,-53.0571 189.615,-44.3952"/>
<polygon fill="#000000" stroke="#000000" points="192.598,-46.2528 195.8271,-36.162 187.0101,-42.0367 192.598,-46.2528"/>
<g id="a_edge6&#45;headlabel"><a xlink:href="dir_000064_000000.html" target="_top" xlink:title="1">
<text text-anchor="middle" x="192.6995" y="-48.3323" font-family="Helvetica,sans-Serif" font-size="10.00" fill="#000000">1</text>
</a>
</g>
</g>
<!-- dir_674d4bf0891c267e7e23627b72783290&#45;&gt;dir_694ec83a64f58cbdefbefce65cd1011c -->
<g id="edge4" class="edge">
<title>dir_674d4bf0891c267e7e23627b72783290&#45;&gt;dir_694ec83a64f58cbdefbefce65cd1011c</title>
<path fill="none" stroke="#000000" d="M78.1533,-291.349C81.0888,-290.0908 84.073,-288.9413 87,-288 183.409,-256.9951 242.9396,-326.072 312,-252 327.1428,-235.7583 327.9849,-209.9596 325.7117,-190.1394"/>
<polygon fill="#000000" stroke="#000000" points="329.1572,-189.5118 324.249,-180.1225 322.2307,-190.5233 329.1572,-189.5118"/>
<g id="a_edge4&#45;headlabel"><a xlink:href="dir_000064_000025.html" target="_top" xlink:title="2">
<text text-anchor="middle" x="332.486" y="-190.1585" font-family="Helvetica,sans-Serif" font-size="10.00" fill="#000000">2</text>
</a>
</g>
</g>
<!-- dir_674d4bf0891c267e7e23627b72783290&#45;&gt;dir_a0a8ac7efb6662b749c1285408048e6d -->
<g id="edge5" class="edge">
<title>dir_674d4bf0891c267e7e23627b72783290&#45;&gt;dir_a0a8ac7efb6662b749c1285408048e6d</title>
<path fill="none" stroke="#000000" d="M66.0904,-287.8616C84.2214,-266.3375 115.8501,-229.6342 145,-200 175.0441,-169.4567 211.585,-136.5144 236.3933,-114.7244"/>
<polygon fill="#000000" stroke="#000000" points="238.7906,-117.2775 244.0125,-108.0588 234.1816,-112.009 238.7906,-117.2775"/>
<g id="a_edge5&#45;headlabel"><a xlink:href="dir_000064_000097.html" target="_top" xlink:title="1">
<text text-anchor="middle" x="237.9547" y="-119.2812" font-family="Helvetica,sans-Serif" font-size="10.00" fill="#000000">1</text>
</a>
</g>
</g>
<!-- dir_694ec83a64f58cbdefbefce65cd1011c&#45;&gt;dir_bdd9a5d540de89e9fe90efdfc6973a4f -->
<g id="edge8" class="edge">
<title>dir_694ec83a64f58cbdefbefce65cd1011c&#45;&gt;dir_bdd9a5d540de89e9fe90efdfc6973a4f</title>
<path fill="none" stroke="#000000" d="M320.3117,-143.7327C319.7602,-124.2384 316.2523,-93.2902 301,-72 288.2451,-54.1959 267.6345,-41.2632 249.2511,-32.526"/>
<polygon fill="#000000" stroke="#000000" points="250.4514,-29.2286 239.8942,-28.3359 247.5904,-35.6173 250.4514,-29.2286"/>
<g id="a_edge8&#45;headlabel"><a xlink:href="dir_000025_000000.html" target="_top" xlink:title="24">
<text text-anchor="middle" x="254.8925" y="-25.6064" font-family="Helvetica,sans-Serif" font-size="10.00" fill="#000000">24</text>
</a>
</g>
</g>
<!-- dir_694ec83a64f58cbdefbefce65cd1011c&#45;&gt;dir_a0a8ac7efb6662b749c1285408048e6d -->
<g id="edge9" class="edge">
<title>dir_694ec83a64f58cbdefbefce65cd1011c&#45;&gt;dir_a0a8ac7efb6662b749c1285408048e6d</title>
<path fill="none" stroke="#000000" d="M300.1688,-143.8314C293.0988,-135.6232 285.3665,-125.7606 278.8734,-116.7323"/>
<polygon fill="#000000" stroke="#000000" points="281.6718,-114.626 273.0897,-108.4133 275.9243,-118.6219 281.6718,-114.626"/>
<g id="a_edge9&#45;headlabel"><a xlink:href="dir_000025_000097.html" target="_top" xlink:title="1">
<text text-anchor="middle" x="286.0549" y="-113.4567" font-family="Helvetica,sans-Serif" font-size="10.00" fill="#000000">1</text>
</a>
</g>
</g>
<!-- dir_a0a8ac7efb6662b749c1285408048e6d&#45;&gt;dir_bdd9a5d540de89e9fe90efdfc6973a4f -->
<g id="edge14" class="edge">
<title>dir_a0a8ac7efb6662b749c1285408048e6d&#45;&gt;dir_bdd9a5d540de89e9fe90efdfc6973a4f</title>
<path fill="none" stroke="#000000" d="M251.1212,-71.8314C244.7864,-63.5386 237.1616,-53.557 230.2074,-44.4533"/>
<polygon fill="#000000" stroke="#000000" points="232.9175,-42.2353 224.0657,-36.4133 227.3548,-46.4847 232.9175,-42.2353"/>
<g id="a_edge14&#45;headlabel"><a xlink:href="dir_000097_000000.html" target="_top" xlink:title="3">
<text text-anchor="middle" x="237.3558" y="-40.8683" font-family="Helvetica,sans-Serif" font-size="10.00" fill="#000000">3</text>
</a>
</g>
</g>
<!-- dir_a0a8ac7efb6662b749c1285408048e6d&#45;&gt;dir_694ec83a64f58cbdefbefce65cd1011c -->
<g id="edge15" class="edge">
<title>dir_a0a8ac7efb6662b749c1285408048e6d&#45;&gt;dir_694ec83a64f58cbdefbefce65cd1011c</title>
<path fill="none" stroke="#000000" d="M285.0417,-108.4133C292.1246,-116.654 299.851,-126.5245 306.3194,-135.536"/>
<polygon fill="#000000" stroke="#000000" points="303.4981,-137.6095 312.0736,-143.8314 309.2498,-133.6197 303.4981,-137.6095"/>
<g id="a_edge15&#45;headlabel"><a xlink:href="dir_000097_000025.html" target="_top" xlink:title="1">
<text text-anchor="middle" x="299.1164" y="-133.7742" font-family="Helvetica,sans-Serif" font-size="10.00" fill="#000000">1</text>
</a>
</g>
</g>
</g>
</svg>
