<?xml version="1.0" encoding="UTF-8" standalone="no"?>
<!DOCTYPE svg PUBLIC "-//W3C//DTD SVG 1.1//EN"
 "http://www.w3.org/Graphics/SVG/1.1/DTD/svg11.dtd">
<!-- Generated by graphviz version 2.40.1 (20161225.0304)
 -->
<!-- Title: ee/network Pages: 1 -->
<svg width="311pt" height="375pt"
 viewBox="0.00 0.00 310.52 375.00" xmlns="http://www.w3.org/2000/svg" xmlns:xlink="http://www.w3.org/1999/xlink">
<g id="graph0" class="graph" transform="scale(1 1) rotate(0) translate(4 371)">
<title>ee/network</title>
<polygon fill="#ffffff" stroke="transparent" points="-4,4 -4,-371 306.5218,-371 306.5218,4 -4,4"/>
<g id="clust1" class="cluster">
<title>clusterdir_049738f1909e8dc3e45fe1f6b3faa109</title>
<g id="a_clust1"><a xlink:href="dir_049738f1909e8dc3e45fe1f6b3faa109.html" target="_top" xlink:title="ee">
<polygon fill="#ddddee" stroke="#000000" points="8,-64 8,-359 240,-359 240,-64 8,-64"/>
<text text-anchor="middle" x="124" y="-347" font-family="Helvetica,sans-Serif" font-size="10.00" fill="#000000">ee</text>
</a>
</g>
</g>
<g id="clust2" class="cluster">
<title>clusterdir_b47d22a23da27aa98d6e01bcdbde3243</title>
<g id="a_clust2"><a xlink:href="dir_b47d22a23da27aa98d6e01bcdbde3243.html" target="_top">
<polygon fill="#eeeeff" stroke="#000000" points="16,-280 16,-332 232,-332 232,-280 16,-280"/>
</a>
</g>
</g>
<!-- dir_694ec83a64f58cbdefbefce65cd1011c -->
<g id="node1" class="node">
<title>dir_694ec83a64f58cbdefbefce65cd1011c</title>
<g id="a_node1"><a xlink:href="dir_694ec83a64f58cbdefbefce65cd1011c.html" target="_top" xlink:title="kernel">
<polygon fill="#ffffff" stroke="#ff0000" points="130,-180 76,-180 76,-144 130,-144 130,-180"/>
<text text-anchor="middle" x="103" y="-159.5" font-family="Helvetica,sans-Serif" font-size="10.00" fill="#000000">kernel</text>
</a>
</g>
</g>
<!-- dir_a0a8ac7efb6662b749c1285408048e6d -->
<g id="node2" class="node">
<title>dir_a0a8ac7efb6662b749c1285408048e6d</title>
<g id="a_node2"><a xlink:href="dir_a0a8ac7efb6662b749c1285408048e6d.html" target="_top" xlink:title="erl">
<polygon fill="#ffffff" stroke="#ff0000" points="112,-108 58,-108 58,-72 112,-72 112,-108"/>
<text text-anchor="middle" x="85" y="-87.5" font-family="Helvetica,sans-Serif" font-size="10.00" fill="#000000">erl</text>
</a>
</g>
</g>
<!-- dir_694ec83a64f58cbdefbefce65cd1011c&#45;&gt;dir_a0a8ac7efb6662b749c1285408048e6d -->
<g id="edge8" class="edge">
<title>dir_694ec83a64f58cbdefbefce65cd1011c&#45;&gt;dir_a0a8ac7efb6662b749c1285408048e6d</title>
<path fill="none" stroke="#000000" d="M92.5054,-143.8314C89.8299,-136.131 87.3199,-126.9743 85.4891,-118.4166"/>
<polygon fill="#000000" stroke="#000000" points="88.898,-117.604 83.6273,-108.4133 82.0162,-118.8849 88.898,-117.604"/>
<g id="a_edge8&#45;headlabel"><a xlink:href="dir_000025_000097.html" target="_top" xlink:title="1">
<text text-anchor="middle" x="92.347" y="-118.1185" font-family="Helvetica,sans-Serif" font-size="10.00" fill="#000000">1</text>
</a>
</g>
</g>
<!-- dir_bdd9a5d540de89e9fe90efdfc6973a4f -->
<g id="node8" class="node">
<title>dir_bdd9a5d540de89e9fe90efdfc6973a4f</title>
<g id="a_node8"><a xlink:href="dir_bdd9a5d540de89e9fe90efdfc6973a4f.html" target="_top" xlink:title="common">
<polygon fill="#ffffff" stroke="#ff0000" points="226.5,-36 167.5,-36 167.5,0 226.5,0 226.5,-36"/>
<text text-anchor="middle" x="197" y="-15.5" font-family="Helvetica,sans-Serif" font-size="10.00" fill="#000000">common</text>
</a>
</g>
</g>
<!-- dir_694ec83a64f58cbdefbefce65cd1011c&#45;&gt;dir_bdd9a5d540de89e9fe90efdfc6973a4f -->
<g id="edge7" class="edge">
<title>dir_694ec83a64f58cbdefbefce65cd1011c&#45;&gt;dir_bdd9a5d540de89e9fe90efdfc6973a4f</title>
<path fill="none" stroke="#000000" d="M113.8922,-143.7115C125.8319,-123.8546 145.7271,-91.3187 164,-64 168.2827,-57.5971 173.0362,-50.8032 177.5708,-44.4578"/>
<polygon fill="#000000" stroke="#000000" points="180.543,-46.32 183.5538,-36.1619 174.8655,-42.2253 180.543,-46.32"/>
<g id="a_edge7&#45;headlabel"><a xlink:href="dir_000025_000000.html" target="_top" xlink:title="24">
<text text-anchor="middle" x="180.7433" y="-48.3963" font-family="Helvetica,sans-Serif" font-size="10.00" fill="#000000">24</text>
</a>
</g>
</g>
<!-- dir_a0a8ac7efb6662b749c1285408048e6d&#45;&gt;dir_694ec83a64f58cbdefbefce65cd1011c -->
<g id="edge10" class="edge">
<title>dir_a0a8ac7efb6662b749c1285408048e6d&#45;&gt;dir_694ec83a64f58cbdefbefce65cd1011c</title>
<path fill="none" stroke="#000000" d="M95.5793,-108.4133C98.2513,-116.1442 100.7524,-125.3097 102.5687,-133.8545"/>
<polygon fill="#000000" stroke="#000000" points="99.1532,-134.6328 104.4102,-143.8314 106.0369,-133.3622 99.1532,-134.6328"/>
<g id="a_edge10&#45;headlabel"><a xlink:href="dir_000097_000025.html" target="_top" xlink:title="1">
<text text-anchor="middle" x="95.7087" y="-129.1132" font-family="Helvetica,sans-Serif" font-size="10.00" fill="#000000">1</text>
</a>
</g>
</g>
<!-- dir_a0a8ac7efb6662b749c1285408048e6d&#45;&gt;dir_bdd9a5d540de89e9fe90efdfc6973a4f -->
<g id="edge9" class="edge">
<title>dir_a0a8ac7efb6662b749c1285408048e6d&#45;&gt;dir_bdd9a5d540de89e9fe90efdfc6973a4f</title>
<path fill="none" stroke="#000000" d="M112.1121,-72.5708C126.6421,-63.2301 144.7451,-51.5924 160.4967,-41.4664"/>
<polygon fill="#000000" stroke="#000000" points="162.4488,-44.3723 168.968,-36.0206 158.6635,-38.4841 162.4488,-44.3723"/>
<g id="a_edge9&#45;headlabel"><a xlink:href="dir_000097_000000.html" target="_top" xlink:title="3">
<text text-anchor="middle" x="160.9605" y="-46.2044" font-family="Helvetica,sans-Serif" font-size="10.00" fill="#000000">3</text>
</a>
</g>
</g>
<!-- dir_c7a9def6f98954b831c78937abc1a97c -->
<g id="node3" class="node">
<title>dir_c7a9def6f98954b831c78937abc1a97c</title>
<g id="a_node3"><a xlink:href="dir_c7a9def6f98954b831c78937abc1a97c.html" target="_top" xlink:title="debug">
<polygon fill="#ffffff" stroke="#ff0000" points="110,-252 56,-252 56,-216 110,-216 110,-252"/>
<text text-anchor="middle" x="83" y="-231.5" font-family="Helvetica,sans-Serif" font-size="10.00" fill="#000000">debug</text>
</a>
</g>
</g>
<!-- dir_c7a9def6f98954b831c78937abc1a97c&#45;&gt;dir_694ec83a64f58cbdefbefce65cd1011c -->
<g id="edge12" class="edge">
<title>dir_c7a9def6f98954b831c78937abc1a97c&#45;&gt;dir_694ec83a64f58cbdefbefce65cd1011c</title>
<path fill="none" stroke="#000000" d="M88.0468,-215.8314C90.2094,-208.0463 92.7853,-198.7729 95.1848,-190.1347"/>
<polygon fill="#000000" stroke="#000000" points="98.581,-190.9852 97.8852,-180.4133 91.8364,-189.1117 98.581,-190.9852"/>
<g id="a_edge12&#45;headlabel"><a xlink:href="dir_000005_000025.html" target="_top" xlink:title="5">
<text text-anchor="middle" x="100.3547" y="-192.7086" font-family="Helvetica,sans-Serif" font-size="10.00" fill="#000000">5</text>
</a>
</g>
</g>
<!-- dir_c7a9def6f98954b831c78937abc1a97c&#45;&gt;dir_a0a8ac7efb6662b749c1285408048e6d -->
<g id="edge13" class="edge">
<title>dir_c7a9def6f98954b831c78937abc1a97c&#45;&gt;dir_a0a8ac7efb6662b749c1285408048e6d</title>
<path fill="none" stroke="#000000" d="M76.1805,-215.7996C72.6719,-205.4645 68.7683,-192.1925 67,-180 64.7035,-164.1657 64.4371,-159.7934 67,-144 68.418,-135.2621 71.0475,-126.0275 73.8671,-117.7136"/>
<polygon fill="#000000" stroke="#000000" points="77.2254,-118.7187 77.3321,-108.1244 70.642,-116.3399 77.2254,-118.7187"/>
<g id="a_edge13&#45;headlabel"><a xlink:href="dir_000005_000097.html" target="_top" xlink:title="1">
<text text-anchor="middle" x="78.6742" y="-120.5643" font-family="Helvetica,sans-Serif" font-size="10.00" fill="#000000">1</text>
</a>
</g>
</g>
<!-- dir_c7a9def6f98954b831c78937abc1a97c&#45;&gt;dir_bdd9a5d540de89e9fe90efdfc6973a4f -->
<g id="edge11" class="edge">
<title>dir_c7a9def6f98954b831c78937abc1a97c&#45;&gt;dir_bdd9a5d540de89e9fe90efdfc6973a4f</title>
<path fill="none" stroke="#000000" d="M106.174,-215.9975C117.3493,-206.3285 130.2038,-193.6125 139,-180 166.5043,-137.4361 183.0254,-80.146 191.042,-46.3371"/>
<polygon fill="#000000" stroke="#000000" points="194.535,-46.762 193.3491,-36.2337 187.7107,-45.2036 194.535,-46.762"/>
<g id="a_edge11&#45;headlabel"><a xlink:href="dir_000005_000000.html" target="_top" xlink:title="7">
<text text-anchor="middle" x="196.5029" y="-48.3984" font-family="Helvetica,sans-Serif" font-size="10.00" fill="#000000">7</text>
</a>
</g>
</g>
<!-- dir_3c99d3595cafa99f0e2683197c97edf9 -->
<g id="node4" class="node">
<title>dir_3c99d3595cafa99f0e2683197c97edf9</title>
<g id="a_node4"><a xlink:href="dir_3c99d3595cafa99f0e2683197c97edf9.html" target="_top" xlink:title="sbv">
<polygon fill="#ffffff" stroke="#ff0000" points="222,-252 168,-252 168,-216 222,-216 222,-252"/>
<text text-anchor="middle" x="195" y="-231.5" font-family="Helvetica,sans-Serif" font-size="10.00" fill="#000000">sbv</text>
</a>
</g>
</g>
<!-- dir_3c99d3595cafa99f0e2683197c97edf9&#45;&gt;dir_694ec83a64f58cbdefbefce65cd1011c -->
<g id="edge5" class="edge">
<title>dir_3c99d3595cafa99f0e2683197c97edf9&#45;&gt;dir_694ec83a64f58cbdefbefce65cd1011c</title>
<path fill="none" stroke="#000000" d="M171.7845,-215.8314C160.453,-206.9632 146.6536,-196.1637 134.3973,-186.5718"/>
<polygon fill="#000000" stroke="#000000" points="136.2402,-183.5697 126.2081,-180.1628 131.926,-189.0822 136.2402,-183.5697"/>
<g id="a_edge5&#45;headlabel"><a xlink:href="dir_000077_000025.html" target="_top" xlink:title="15">
<text text-anchor="middle" x="140.8208" y="-181.0491" font-family="Helvetica,sans-Serif" font-size="10.00" fill="#000000">15</text>
</a>
</g>
</g>
<!-- dir_3c99d3595cafa99f0e2683197c97edf9&#45;&gt;dir_a0a8ac7efb6662b749c1285408048e6d -->
<g id="edge6" class="edge">
<title>dir_3c99d3595cafa99f0e2683197c97edf9&#45;&gt;dir_a0a8ac7efb6662b749c1285408048e6d</title>
<path fill="none" stroke="#000000" d="M185.3915,-215.9523C175.038,-197.1877 157.5365,-167.3492 139,-144 131.0785,-134.0217 121.4953,-123.9259 112.6141,-115.2067"/>
<polygon fill="#000000" stroke="#000000" points="115.0041,-112.6493 105.3708,-108.2391 110.1513,-117.6942 115.0041,-112.6493"/>
<g id="a_edge6&#45;headlabel"><a xlink:href="dir_000077_000097.html" target="_top" xlink:title="1">
<text text-anchor="middle" x="119.5631" y="-110.5951" font-family="Helvetica,sans-Serif" font-size="10.00" fill="#000000">1</text>
</a>
</g>
</g>
<!-- dir_3c99d3595cafa99f0e2683197c97edf9&#45;&gt;dir_bdd9a5d540de89e9fe90efdfc6973a4f -->
<g id="edge4" class="edge">
<title>dir_3c99d3595cafa99f0e2683197c97edf9&#45;&gt;dir_bdd9a5d540de89e9fe90efdfc6973a4f</title>
<path fill="none" stroke="#000000" d="M195.1671,-215.9555C195.5149,-178.3938 196.3189,-91.5541 196.7369,-46.4103"/>
<polygon fill="#000000" stroke="#000000" points="200.2392,-46.1771 196.832,-36.1451 193.2395,-46.1122 200.2392,-46.1771"/>
<g id="a_edge4&#45;headlabel"><a xlink:href="dir_000077_000000.html" target="_top" xlink:title="9">
<text text-anchor="middle" x="203.0451" y="-47.2978" font-family="Helvetica,sans-Serif" font-size="10.00" fill="#000000">9</text>
</a>
</g>
</g>
<!-- dir_b47d22a23da27aa98d6e01bcdbde3243 -->
<g id="node5" class="node">
<title>dir_b47d22a23da27aa98d6e01bcdbde3243</title>
<text text-anchor="middle" x="196" y="-303.5" font-family="Helvetica,sans-Serif" font-size="10.00" fill="#000000">network</text>
</g>
<!-- dir_2103a4ed81746d00ca3b9488f9daf9c4 -->
<g id="node6" class="node">
<title>dir_2103a4ed81746d00ca3b9488f9daf9c4</title>
<g id="a_node6"><a xlink:href="dir_2103a4ed81746d00ca3b9488f9daf9c4.html" target="_top" xlink:title="netman">
<polygon fill="#ffffff" stroke="#ff0000" points="150,-324 96,-324 96,-288 150,-288 150,-324"/>
<text text-anchor="middle" x="123" y="-303.5" font-family="Helvetica,sans-Serif" font-size="10.00" fill="#000000">netman</text>
</a>
</g>
</g>
<!-- dir_2103a4ed81746d00ca3b9488f9daf9c4&#45;&gt;dir_694ec83a64f58cbdefbefce65cd1011c -->
<g id="edge3" class="edge">
<title>dir_2103a4ed81746d00ca3b9488f9daf9c4&#45;&gt;dir_694ec83a64f58cbdefbefce65cd1011c</title>
<path fill="none" stroke="#000000" d="M129.2179,-287.7901C134.5696,-269.4081 140.4887,-240.3358 134,-216 131.5048,-206.6419 126.9592,-197.2199 122.1039,-188.925"/>
<polygon fill="#000000" stroke="#000000" points="125.0608,-187.0521 116.7963,-180.4228 119.1229,-190.759 125.0608,-187.0521"/>
<g id="a_edge3&#45;headlabel"><a xlink:href="dir_000036_000025.html" target="_top" xlink:title="6">
<text text-anchor="middle" x="129.3728" y="-186.0978" font-family="Helvetica,sans-Serif" font-size="10.00" fill="#000000">6</text>
</a>
</g>
</g>
<!-- dir_2103a4ed81746d00ca3b9488f9daf9c4&#45;&gt;dir_a0a8ac7efb6662b749c1285408048e6d -->
<g id="edge1" class="edge">
<title>dir_2103a4ed81746d00ca3b9488f9daf9c4&#45;&gt;dir_a0a8ac7efb6662b749c1285408048e6d</title>
<path fill="none" stroke="#000000" d="M97.857,-287.7692C94.2204,-285.1533 90.5186,-282.5019 87,-280 69.3145,-267.4247 57.0215,-271.2479 47,-252 24.0744,-207.9678 49.0497,-150.0535 67.9478,-116.735"/>
<polygon fill="#000000" stroke="#000000" points="71.0197,-118.4159 73.072,-108.0217 64.9857,-114.8673 71.0197,-118.4159"/>
<g id="a_edge1&#45;headlabel"><a xlink:href="dir_000036_000097.html" target="_top" xlink:title="1">
<text text-anchor="middle" x="71.6449" y="-120.4537" font-family="Helvetica,sans-Serif" font-size="10.00" fill="#000000">1</text>
</a>
</g>
</g>
<!-- dir_2103a4ed81746d00ca3b9488f9daf9c4&#45;&gt;dir_bdd9a5d540de89e9fe90efdfc6973a4f -->
<g id="edge2" class="edge">
<title>dir_2103a4ed81746d00ca3b9488f9daf9c4&#45;&gt;dir_bdd9a5d540de89e9fe90efdfc6973a4f</title>
<path fill="none" stroke="#000000" d="M145.4422,-287.8632C149.7687,-284.9348 154.393,-282.1602 159,-280 204.2859,-258.7652 237.3464,-291.5232 268,-252 319.2079,-185.9752 307.9085,-137.4087 268,-64 260.9438,-51.0207 248.4715,-41.1393 235.9285,-33.9252"/>
<polygon fill="#000000" stroke="#000000" points="237.3366,-30.7108 226.8593,-29.1375 234.0687,-36.9012 237.3366,-30.7108"/>
<g id="a_edge2&#45;headlabel"><a xlink:href="dir_000036_000000.html" target="_top" xlink:title="9">
<text text-anchor="middle" x="241.841" y="-27.3781" font-family="Helvetica,sans-Serif" font-size="10.00" fill="#000000">9</text>
</a>
</g>
</g>
<!-- dir_ca24a423c1b235320d00c488564f2476 -->
<g id="node7" class="node">
<title>dir_ca24a423c1b235320d00c488564f2476</title>
<g id="a_node7"><a xlink:href="dir_ca24a423c1b235320d00c488564f2476.html" target="_top" xlink:title="tcpip">
<polygon fill="#ffffff" stroke="#ff0000" points="78,-324 24,-324 24,-288 78,-288 78,-324"/>
<text text-anchor="middle" x="51" y="-303.5" font-family="Helvetica,sans-Serif" font-size="10.00" fill="#000000">tcpip</text>
</a>
</g>
</g>
<!-- dir_ca24a423c1b235320d00c488564f2476&#45;&gt;dir_694ec83a64f58cbdefbefce65cd1011c -->
<g id="edge14" class="edge">
<title>dir_ca24a423c1b235320d00c488564f2476&#45;&gt;dir_694ec83a64f58cbdefbefce65cd1011c</title>
<path fill="none" stroke="#000000" d="M75.8012,-287.9586C94.2261,-274.2865 116.5747,-257.023 119,-252 128.4757,-232.3752 123.182,-207.9082 116.2372,-189.4405"/>
<polygon fill="#000000" stroke="#000000" points="119.4482,-188.0459 112.409,-180.1275 112.9739,-190.7073 119.4482,-188.0459"/>
<g id="a_edge14&#45;headlabel"><a xlink:href="dir_000038_000025.html" target="_top" xlink:title="12">
<text text-anchor="middle" x="123.4409" y="-187.7911" font-family="Helvetica,sans-Serif" font-size="10.00" fill="#000000">12</text>
</a>
</g>
</g>
<!-- dir_ca24a423c1b235320d00c488564f2476&#45;&gt;dir_a0a8ac7efb6662b749c1285408048e6d -->
<g id="edge15" class="edge">
<title>dir_ca24a423c1b235320d00c488564f2476&#45;&gt;dir_a0a8ac7efb6662b749c1285408048e6d</title>
<path fill="none" stroke="#000000" d="M43.2365,-287.7206C31.3375,-256.8642 11.9641,-193.0175 32,-144 36.4592,-133.0907 44.3025,-123.1954 52.6103,-114.9434"/>
<polygon fill="#000000" stroke="#000000" points="55.0045,-117.4965 59.9572,-108.1305 50.2448,-112.3637 55.0045,-117.4965"/>
<g id="a_edge15&#45;headlabel"><a xlink:href="dir_000038_000097.html" target="_top" xlink:title="1">
<text text-anchor="middle" x="54.2994" y="-119.5225" font-family="Helvetica,sans-Serif" font-size="10.00" fill="#000000">1</text>
</a>
</g>
</g>
<!-- dir_ca24a423c1b235320d00c488564f2476&#45;&gt;dir_c7a9def6f98954b831c78937abc1a97c -->
<g id="edge17" class="edge">
<title>dir_ca24a423c1b235320d00c488564f2476&#45;&gt;dir_c7a9def6f98954b831c78937abc1a97c</title>
<path fill="none" stroke="#000000" d="M59.075,-287.8314C62.6102,-279.8771 66.836,-270.369 70.7456,-261.5723"/>
<polygon fill="#000000" stroke="#000000" points="73.9532,-262.9729 74.8163,-252.4133 67.5565,-260.1299 73.9532,-262.9729"/>
<g id="a_edge17&#45;headlabel"><a xlink:href="dir_000038_000005.html" target="_top" xlink:title="2">
<text text-anchor="middle" x="75.0879" y="-264.9108" font-family="Helvetica,sans-Serif" font-size="10.00" fill="#000000">2</text>
</a>
</g>
</g>
<!-- dir_ca24a423c1b235320d00c488564f2476&#45;&gt;dir_3c99d3595cafa99f0e2683197c97edf9 -->
<g id="edge18" class="edge">
<title>dir_ca24a423c1b235320d00c488564f2476&#45;&gt;dir_3c99d3595cafa99f0e2683197c97edf9</title>
<path fill="none" stroke="#000000" d="M74.5174,-287.8858C78.5802,-285.0874 82.8379,-282.3504 87,-280 109.7756,-267.1383 136.8597,-255.611 158.2076,-247.3128"/>
<polygon fill="#000000" stroke="#000000" points="159.4836,-250.5721 167.5764,-243.7342 156.9858,-244.0329 159.4836,-250.5721"/>
<g id="a_edge18&#45;headlabel"><a xlink:href="dir_000038_000077.html" target="_top" xlink:title="2">
<text text-anchor="middle" x="157.1388" y="-252.0071" font-family="Helvetica,sans-Serif" font-size="10.00" fill="#000000">2</text>
</a>
</g>
</g>
<!-- dir_ca24a423c1b235320d00c488564f2476&#45;&gt;dir_bdd9a5d540de89e9fe90efdfc6973a4f -->
<g id="edge16" class="edge">
<title>dir_ca24a423c1b235320d00c488564f2476&#45;&gt;dir_bdd9a5d540de89e9fe90efdfc6973a4f</title>
<path fill="none" stroke="#000000" d="M72.9276,-287.8572C77.3776,-284.856 82.178,-282.0572 87,-280 150.5847,-252.8733 195.7361,-305.0996 240,-252 293.5011,-187.8193 270.6703,-141.723 240,-64 237.0657,-56.564 232.2992,-49.6228 226.9867,-43.5005"/>
<polygon fill="#000000" stroke="#000000" points="229.4861,-41.0498 220.0623,-36.208 224.4099,-45.8697 229.4861,-41.0498"/>
<g id="a_edge16&#45;headlabel"><a xlink:href="dir_000038_000000.html" target="_top" xlink:title="5">
<text text-anchor="middle" x="234.0202" y="-39.2015" font-family="Helvetica,sans-Serif" font-size="10.00" fill="#000000">5</text>
</a>
</g>
</g>
</g>
</svg>
