<?xml version="1.0" encoding="UTF-8" standalone="no"?>
<!DOCTYPE svg PUBLIC "-//W3C//DTD SVG 1.1//EN"
 "http://www.w3.org/Graphics/SVG/1.1/DTD/svg11.dtd">
<!-- Generated by graphviz version 2.40.1 (20161225.0304)
 -->
<!-- Title: ee/rpc/remote/samples Pages: 1 -->
<svg width="262pt" height="223pt"
 viewBox="0.00 0.00 262.00 223.00" xmlns="http://www.w3.org/2000/svg" xmlns:xlink="http://www.w3.org/1999/xlink">
<g id="graph0" class="graph" transform="scale(1 1) rotate(0) translate(4 219)">
<title>ee/rpc/remote/samples</title>
<polygon fill="#ffffff" stroke="transparent" points="-4,4 -4,-219 258,-219 258,4 -4,4"/>
<g id="clust1" class="cluster">
<title>clusterdir_ba37a805e2af6959a7cee62b248f44cb</title>
<g id="a_clust1"><a xlink:href="dir_ba37a805e2af6959a7cee62b248f44cb.html" target="_top" xlink:title="remote">
<polygon fill="#ddddee" stroke="#000000" points="8,-64 8,-207 82,-207 82,-64 8,-64"/>
<text text-anchor="middle" x="45" y="-195" font-family="Helvetica,sans-Serif" font-size="10.00" fill="#000000">remote</text>
</a>
</g>
</g>
<!-- dir_fa645703e9d75d6dc5aaf566568fec79 -->
<g id="node1" class="node">
<title>dir_fa645703e9d75d6dc5aaf566568fec79</title>
<g id="a_node1"><a xlink:href="dir_fa645703e9d75d6dc5aaf566568fec79.html" target="_top" xlink:title="include">
<polygon fill="none" stroke="#000000" points="72,-108 18,-108 18,-72 72,-72 72,-108"/>
<text text-anchor="middle" x="45" y="-87.5" font-family="Helvetica,sans-Serif" font-size="10.00" fill="#000000">include</text>
</a>
</g>
</g>
<!-- dir_a32a3bf67654f267997b3b0aaae5ec3a -->
<g id="node2" class="node">
<title>dir_a32a3bf67654f267997b3b0aaae5ec3a</title>
<g id="a_node2"><a xlink:href="dir_a32a3bf67654f267997b3b0aaae5ec3a.html" target="_top" xlink:title="samples">
<polygon fill="#eeeeff" stroke="#000000" points="74,-180 16,-180 16,-144 74,-144 74,-180"/>
<text text-anchor="middle" x="45" y="-159.5" font-family="Helvetica,sans-Serif" font-size="10.00" fill="#000000">samples</text>
</a>
</g>
</g>
<!-- dir_a32a3bf67654f267997b3b0aaae5ec3a&#45;&gt;dir_fa645703e9d75d6dc5aaf566568fec79 -->
<g id="edge5" class="edge">
<title>dir_a32a3bf67654f267997b3b0aaae5ec3a&#45;&gt;dir_fa645703e9d75d6dc5aaf566568fec79</title>
<path fill="none" stroke="#000000" d="M45,-143.8314C45,-136.131 45,-126.9743 45,-118.4166"/>
<polygon fill="#000000" stroke="#000000" points="48.5001,-118.4132 45,-108.4133 41.5001,-118.4133 48.5001,-118.4132"/>
<g id="a_edge5&#45;headlabel"><a xlink:href="dir_000162_000161.html" target="_top" xlink:title="1">
<text text-anchor="middle" x="51.3393" y="-119.5079" font-family="Helvetica,sans-Serif" font-size="10.00" fill="#000000">1</text>
</a>
</g>
</g>
<!-- dir_3c99d3595cafa99f0e2683197c97edf9 -->
<g id="node3" class="node">
<title>dir_3c99d3595cafa99f0e2683197c97edf9</title>
<g id="a_node3"><a xlink:href="dir_3c99d3595cafa99f0e2683197c97edf9.html" target="_top" xlink:title="sbv">
<polygon fill="#ffffff" stroke="#ff0000" points="144,-108 90,-108 90,-72 144,-72 144,-108"/>
<text text-anchor="middle" x="117" y="-87.5" font-family="Helvetica,sans-Serif" font-size="10.00" fill="#000000">sbv</text>
</a>
</g>
</g>
<!-- dir_a32a3bf67654f267997b3b0aaae5ec3a&#45;&gt;dir_3c99d3595cafa99f0e2683197c97edf9 -->
<g id="edge2" class="edge">
<title>dir_a32a3bf67654f267997b3b0aaae5ec3a&#45;&gt;dir_3c99d3595cafa99f0e2683197c97edf9</title>
<path fill="none" stroke="#000000" d="M63.1686,-143.8314C71.7152,-135.2848 82.0557,-124.9443 91.3802,-115.6198"/>
<polygon fill="#000000" stroke="#000000" points="93.9905,-117.9592 98.5867,-108.4133 89.0408,-113.0095 93.9905,-117.9592"/>
<g id="a_edge2&#45;headlabel"><a xlink:href="dir_000162_000077.html" target="_top" xlink:title="1">
<text text-anchor="middle" x="93.4564" y="-120.0087" font-family="Helvetica,sans-Serif" font-size="10.00" fill="#000000">1</text>
</a>
</g>
</g>
<!-- dir_694ec83a64f58cbdefbefce65cd1011c -->
<g id="node4" class="node">
<title>dir_694ec83a64f58cbdefbefce65cd1011c</title>
<g id="a_node4"><a xlink:href="dir_694ec83a64f58cbdefbefce65cd1011c.html" target="_top" xlink:title="kernel">
<polygon fill="#ffffff" stroke="#ff0000" points="199,-36 145,-36 145,0 199,0 199,-36"/>
<text text-anchor="middle" x="172" y="-15.5" font-family="Helvetica,sans-Serif" font-size="10.00" fill="#000000">kernel</text>
</a>
</g>
</g>
<!-- dir_a32a3bf67654f267997b3b0aaae5ec3a&#45;&gt;dir_694ec83a64f58cbdefbefce65cd1011c -->
<g id="edge3" class="edge">
<title>dir_a32a3bf67654f267997b3b0aaae5ec3a&#45;&gt;dir_694ec83a64f58cbdefbefce65cd1011c</title>
<path fill="none" stroke="#000000" d="M74.3476,-154.9911C99.1016,-147.5276 133.5241,-133.2191 153,-108 166.526,-90.4854 170.9758,-65.5613 172.2122,-46.3812"/>
<polygon fill="#000000" stroke="#000000" points="175.7196,-46.2544 172.6095,-36.1263 168.7249,-45.9832 175.7196,-46.2544"/>
<g id="a_edge3&#45;headlabel"><a xlink:href="dir_000162_000025.html" target="_top" xlink:title="4">
<text text-anchor="middle" x="178.4177" y="-47.4562" font-family="Helvetica,sans-Serif" font-size="10.00" fill="#000000">4</text>
</a>
</g>
</g>
<!-- dir_c7a9def6f98954b831c78937abc1a97c -->
<g id="node5" class="node">
<title>dir_c7a9def6f98954b831c78937abc1a97c</title>
<g id="a_node5"><a xlink:href="dir_c7a9def6f98954b831c78937abc1a97c.html" target="_top" xlink:title="debug">
<polygon fill="#ffffff" stroke="#ff0000" points="254,-108 200,-108 200,-72 254,-72 254,-108"/>
<text text-anchor="middle" x="227" y="-87.5" font-family="Helvetica,sans-Serif" font-size="10.00" fill="#000000">debug</text>
</a>
</g>
</g>
<!-- dir_a32a3bf67654f267997b3b0aaae5ec3a&#45;&gt;dir_c7a9def6f98954b831c78937abc1a97c -->
<g id="edge4" class="edge">
<title>dir_a32a3bf67654f267997b3b0aaae5ec3a&#45;&gt;dir_c7a9def6f98954b831c78937abc1a97c</title>
<path fill="none" stroke="#000000" d="M74.0545,-151.3368C102.6752,-140.7239 147.5678,-123.7851 186,-108 187.3932,-107.4278 188.8104,-106.839 190.24,-106.2396"/>
<polygon fill="#000000" stroke="#000000" points="191.9071,-109.3336 199.7307,-102.1892 189.1595,-102.8954 191.9071,-109.3336"/>
<g id="a_edge4&#45;headlabel"><a xlink:href="dir_000162_000005.html" target="_top" xlink:title="1">
<text text-anchor="middle" x="189.7155" y="-110.8559" font-family="Helvetica,sans-Serif" font-size="10.00" fill="#000000">1</text>
</a>
</g>
</g>
<!-- dir_3c99d3595cafa99f0e2683197c97edf9&#45;&gt;dir_694ec83a64f58cbdefbefce65cd1011c -->
<g id="edge1" class="edge">
<title>dir_3c99d3595cafa99f0e2683197c97edf9&#45;&gt;dir_694ec83a64f58cbdefbefce65cd1011c</title>
<path fill="none" stroke="#000000" d="M130.8788,-71.8314C137.2136,-63.5386 144.8384,-53.557 151.7926,-44.4533"/>
<polygon fill="#000000" stroke="#000000" points="154.6452,-46.4847 157.9343,-36.4133 149.0825,-42.2353 154.6452,-46.4847"/>
<g id="a_edge1&#45;headlabel"><a xlink:href="dir_000077_000025.html" target="_top" xlink:title="15">
<text text-anchor="middle" x="154.7195" y="-48.5647" font-family="Helvetica,sans-Serif" font-size="10.00" fill="#000000">15</text>
</a>
</g>
</g>
<!-- dir_c7a9def6f98954b831c78937abc1a97c&#45;&gt;dir_694ec83a64f58cbdefbefce65cd1011c -->
<g id="edge6" class="edge">
<title>dir_c7a9def6f98954b831c78937abc1a97c&#45;&gt;dir_694ec83a64f58cbdefbefce65cd1011c</title>
<path fill="none" stroke="#000000" d="M213.1212,-71.8314C206.7864,-63.5386 199.1616,-53.557 192.2074,-44.4533"/>
<polygon fill="#000000" stroke="#000000" points="194.9175,-42.2353 186.0657,-36.4133 189.3548,-46.4847 194.9175,-42.2353"/>
<g id="a_edge6&#45;headlabel"><a xlink:href="dir_000005_000025.html" target="_top" xlink:title="5">
<text text-anchor="middle" x="199.3558" y="-40.8683" font-family="Helvetica,sans-Serif" font-size="10.00" fill="#000000">5</text>
</a>
</g>
</g>
</g>
</svg>
