<?xml version="1.0" encoding="UTF-8" standalone="no"?>
<!DOCTYPE svg PUBLIC "-//W3C//DTD SVG 1.1//EN"
 "http://www.w3.org/Graphics/SVG/1.1/DTD/svg11.dtd">
<!-- Generated by graphviz version 2.40.1 (20161225.0304)
 -->
<!-- Title: ee/rpc/padx/samples Pages: 1 -->
<svg width="126pt" height="295pt"
 viewBox="0.00 0.00 126.00 295.00" xmlns="http://www.w3.org/2000/svg" xmlns:xlink="http://www.w3.org/1999/xlink">
<g id="graph0" class="graph" transform="scale(1 1) rotate(0) translate(4 291)">
<title>ee/rpc/padx/samples</title>
<polygon fill="#ffffff" stroke="transparent" points="-4,4 -4,-291 122,-291 122,4 -4,4"/>
<g id="clust1" class="cluster">
<title>clusterdir_05f3ddd8cc1fbd4909893445e2685f68</title>
<g id="a_clust1"><a xlink:href="dir_05f3ddd8cc1fbd4909893445e2685f68.html" target="_top" xlink:title="padx">
<polygon fill="#ddddee" stroke="#000000" points="36,-208 36,-279 110,-279 110,-208 36,-208"/>
<text text-anchor="middle" x="73" y="-267" font-family="Helvetica,sans-Serif" font-size="10.00" fill="#000000">padx</text>
</a>
</g>
</g>
<!-- dir_1e88da9e5f9455be47a924bce7d4c7ef -->
<g id="node1" class="node">
<title>dir_1e88da9e5f9455be47a924bce7d4c7ef</title>
<g id="a_node1"><a xlink:href="dir_1e88da9e5f9455be47a924bce7d4c7ef.html" target="_top" xlink:title="samples">
<polygon fill="#eeeeff" stroke="#000000" points="102,-252 44,-252 44,-216 102,-216 102,-252"/>
<text text-anchor="middle" x="73" y="-231.5" font-family="Helvetica,sans-Serif" font-size="10.00" fill="#000000">samples</text>
</a>
</g>
</g>
<!-- dir_5799e6857a1212b105de941c1bfdc588 -->
<g id="node2" class="node">
<title>dir_5799e6857a1212b105de941c1bfdc588</title>
<g id="a_node2"><a xlink:href="dir_5799e6857a1212b105de941c1bfdc588.html" target="_top" xlink:title="pad">
<polygon fill="#ffffff" stroke="#ff0000" points="100,-180 46,-180 46,-144 100,-144 100,-180"/>
<text text-anchor="middle" x="73" y="-159.5" font-family="Helvetica,sans-Serif" font-size="10.00" fill="#000000">pad</text>
</a>
</g>
</g>
<!-- dir_1e88da9e5f9455be47a924bce7d4c7ef&#45;&gt;dir_5799e6857a1212b105de941c1bfdc588 -->
<g id="edge1" class="edge">
<title>dir_1e88da9e5f9455be47a924bce7d4c7ef&#45;&gt;dir_5799e6857a1212b105de941c1bfdc588</title>
<path fill="none" stroke="#000000" d="M73,-215.8314C73,-208.131 73,-198.9743 73,-190.4166"/>
<polygon fill="#000000" stroke="#000000" points="76.5001,-190.4132 73,-180.4133 69.5001,-190.4133 76.5001,-190.4132"/>
<g id="a_edge1&#45;headlabel"><a xlink:href="dir_000156_000065.html" target="_top" xlink:title="1">
<text text-anchor="middle" x="79.3393" y="-191.5079" font-family="Helvetica,sans-Serif" font-size="10.00" fill="#000000">1</text>
</a>
</g>
</g>
<!-- dir_694ec83a64f58cbdefbefce65cd1011c -->
<g id="node3" class="node">
<title>dir_694ec83a64f58cbdefbefce65cd1011c</title>
<g id="a_node3"><a xlink:href="dir_694ec83a64f58cbdefbefce65cd1011c.html" target="_top" xlink:title="kernel">
<polygon fill="#ffffff" stroke="#ff0000" points="54,-108 0,-108 0,-72 54,-72 54,-108"/>
<text text-anchor="middle" x="27" y="-87.5" font-family="Helvetica,sans-Serif" font-size="10.00" fill="#000000">kernel</text>
</a>
</g>
</g>
<!-- dir_1e88da9e5f9455be47a924bce7d4c7ef&#45;&gt;dir_694ec83a64f58cbdefbefce65cd1011c -->
<g id="edge2" class="edge">
<title>dir_1e88da9e5f9455be47a924bce7d4c7ef&#45;&gt;dir_694ec83a64f58cbdefbefce65cd1011c</title>
<path fill="none" stroke="#000000" d="M57.6025,-215.7193C50.1014,-205.7854 41.7049,-192.9159 37,-180 29.792,-160.2124 27.3893,-136.4903 26.7367,-118.3693"/>
<polygon fill="#000000" stroke="#000000" points="30.2317,-118.0852 26.5302,-108.158 23.2332,-118.2267 30.2317,-118.0852"/>
<g id="a_edge2&#45;headlabel"><a xlink:href="dir_000156_000025.html" target="_top" xlink:title="3">
<text text-anchor="middle" x="33.143" y="-119.1217" font-family="Helvetica,sans-Serif" font-size="10.00" fill="#000000">3</text>
</a>
</g>
</g>
<!-- dir_bdd9a5d540de89e9fe90efdfc6973a4f -->
<g id="node4" class="node">
<title>dir_bdd9a5d540de89e9fe90efdfc6973a4f</title>
<g id="a_node4"><a xlink:href="dir_bdd9a5d540de89e9fe90efdfc6973a4f.html" target="_top" xlink:title="common">
<polygon fill="#ffffff" stroke="#ff0000" points="111.5,-36 52.5,-36 52.5,0 111.5,0 111.5,-36"/>
<text text-anchor="middle" x="82" y="-15.5" font-family="Helvetica,sans-Serif" font-size="10.00" fill="#000000">common</text>
</a>
</g>
</g>
<!-- dir_1e88da9e5f9455be47a924bce7d4c7ef&#45;&gt;dir_bdd9a5d540de89e9fe90efdfc6973a4f -->
<g id="edge3" class="edge">
<title>dir_1e88da9e5f9455be47a924bce7d4c7ef&#45;&gt;dir_bdd9a5d540de89e9fe90efdfc6973a4f</title>
<path fill="none" stroke="#000000" d="M88.9905,-215.9169C96.6538,-206.0371 105.0166,-193.1563 109,-180 122.9276,-134.0001 106.8081,-78.3417 94.172,-45.6874"/>
<polygon fill="#000000" stroke="#000000" points="97.3842,-44.2943 90.3994,-36.328 90.8918,-46.9113 97.3842,-44.2943"/>
<g id="a_edge3&#45;headlabel"><a xlink:href="dir_000156_000000.html" target="_top" xlink:title="2">
<text text-anchor="middle" x="101.3614" y="-44.0668" font-family="Helvetica,sans-Serif" font-size="10.00" fill="#000000">2</text>
</a>
</g>
</g>
<!-- dir_5799e6857a1212b105de941c1bfdc588&#45;&gt;dir_694ec83a64f58cbdefbefce65cd1011c -->
<g id="edge5" class="edge">
<title>dir_5799e6857a1212b105de941c1bfdc588&#45;&gt;dir_694ec83a64f58cbdefbefce65cd1011c</title>
<path fill="none" stroke="#000000" d="M61.3923,-143.8314C56.2022,-135.7079 49.9768,-125.9637 44.2575,-117.0118"/>
<polygon fill="#000000" stroke="#000000" points="47.0974,-114.9559 38.764,-108.4133 41.1985,-118.7246 47.0974,-114.9559"/>
<g id="a_edge5&#45;headlabel"><a xlink:href="dir_000065_000025.html" target="_top" xlink:title="6">
<text text-anchor="middle" x="51.4253" y="-113.9564" font-family="Helvetica,sans-Serif" font-size="10.00" fill="#000000">6</text>
</a>
</g>
</g>
<!-- dir_5799e6857a1212b105de941c1bfdc588&#45;&gt;dir_bdd9a5d540de89e9fe90efdfc6973a4f -->
<g id="edge4" class="edge">
<title>dir_5799e6857a1212b105de941c1bfdc588&#45;&gt;dir_bdd9a5d540de89e9fe90efdfc6973a4f</title>
<path fill="none" stroke="#000000" d="M74.1399,-143.7623C75.6749,-119.201 78.422,-75.2474 80.2279,-46.3541"/>
<polygon fill="#000000" stroke="#000000" points="83.7387,-46.2885 80.8694,-36.0896 76.7523,-45.8518 83.7387,-46.2885"/>
<g id="a_edge4&#45;headlabel"><a xlink:href="dir_000065_000000.html" target="_top" xlink:title="2">
<text text-anchor="middle" x="86.3483" y="-47.5532" font-family="Helvetica,sans-Serif" font-size="10.00" fill="#000000">2</text>
</a>
</g>
</g>
<!-- dir_694ec83a64f58cbdefbefce65cd1011c&#45;&gt;dir_bdd9a5d540de89e9fe90efdfc6973a4f -->
<g id="edge6" class="edge">
<title>dir_694ec83a64f58cbdefbefce65cd1011c&#45;&gt;dir_bdd9a5d540de89e9fe90efdfc6973a4f</title>
<path fill="none" stroke="#000000" d="M40.8788,-71.8314C47.2136,-63.5386 54.8384,-53.557 61.7926,-44.4533"/>
<polygon fill="#000000" stroke="#000000" points="64.6452,-46.4847 67.9343,-36.4133 59.0825,-42.2353 64.6452,-46.4847"/>
<g id="a_edge6&#45;headlabel"><a xlink:href="dir_000025_000000.html" target="_top" xlink:title="24">
<text text-anchor="middle" x="64.7195" y="-48.5647" font-family="Helvetica,sans-Serif" font-size="10.00" fill="#000000">24</text>
</a>
</g>
</g>
</g>
</svg>
