<?xml version="1.0" encoding="UTF-8" standalone="no"?>
<!DOCTYPE svg PUBLIC "-//W3C//DTD SVG 1.1//EN"
 "http://www.w3.org/Graphics/SVG/1.1/DTD/svg11.dtd">
<!-- Generated by graphviz version 2.40.1 (20161225.0304)
 -->
<!-- Title: ee/sbv Pages: 1 -->
<svg width="264pt" height="303pt"
 viewBox="0.00 0.00 264.00 303.00" xmlns="http://www.w3.org/2000/svg" xmlns:xlink="http://www.w3.org/1999/xlink">
<g id="graph0" class="graph" transform="scale(1 1) rotate(0) translate(4 299)">
<title>ee/sbv</title>
<polygon fill="#ffffff" stroke="transparent" points="-4,4 -4,-299 260,-299 260,4 -4,4"/>
<g id="clust1" class="cluster">
<title>clusterdir_049738f1909e8dc3e45fe1f6b3faa109</title>
<g id="a_clust1"><a xlink:href="dir_049738f1909e8dc3e45fe1f6b3faa109.html" target="_top" xlink:title="ee">
<polygon fill="#ddddee" stroke="#000000" points="8,-64 8,-287 248,-287 248,-64 8,-64"/>
<text text-anchor="middle" x="128" y="-275" font-family="Helvetica,sans-Serif" font-size="10.00" fill="#000000">ee</text>
</a>
</g>
</g>
<g id="clust2" class="cluster">
<title>clusterdir_3c99d3595cafa99f0e2683197c97edf9</title>
<g id="a_clust2"><a xlink:href="dir_3c99d3595cafa99f0e2683197c97edf9.html" target="_top">
<polygon fill="#eeeeff" stroke="#000000" points="98,-136 98,-260 240,-260 240,-136 98,-136"/>
</a>
</g>
</g>
<!-- dir_694ec83a64f58cbdefbefce65cd1011c -->
<g id="node1" class="node">
<title>dir_694ec83a64f58cbdefbefce65cd1011c</title>
<g id="a_node1"><a xlink:href="dir_694ec83a64f58cbdefbefce65cd1011c.html" target="_top" xlink:title="kernel">
<polygon fill="#ffffff" stroke="#ff0000" points="90,-180 36,-180 36,-144 90,-144 90,-180"/>
<text text-anchor="middle" x="63" y="-159.5" font-family="Helvetica,sans-Serif" font-size="10.00" fill="#000000">kernel</text>
</a>
</g>
</g>
<!-- dir_a0a8ac7efb6662b749c1285408048e6d -->
<g id="node2" class="node">
<title>dir_a0a8ac7efb6662b749c1285408048e6d</title>
<g id="a_node2"><a xlink:href="dir_a0a8ac7efb6662b749c1285408048e6d.html" target="_top" xlink:title="erl">
<polygon fill="#ffffff" stroke="#ff0000" points="78,-108 24,-108 24,-72 78,-72 78,-108"/>
<text text-anchor="middle" x="51" y="-87.5" font-family="Helvetica,sans-Serif" font-size="10.00" fill="#000000">erl</text>
</a>
</g>
</g>
<!-- dir_694ec83a64f58cbdefbefce65cd1011c&#45;&gt;dir_a0a8ac7efb6662b749c1285408048e6d -->
<g id="edge3" class="edge">
<title>dir_694ec83a64f58cbdefbefce65cd1011c&#45;&gt;dir_a0a8ac7efb6662b749c1285408048e6d</title>
<path fill="none" stroke="#000000" d="M54.0195,-143.8314C51.9857,-136.131 50.2387,-126.9743 49.121,-118.4166"/>
<polygon fill="#000000" stroke="#000000" points="52.597,-118.003 48.0929,-108.4133 45.6337,-118.7187 52.597,-118.003"/>
<g id="a_edge3&#45;headlabel"><a xlink:href="dir_000025_000097.html" target="_top" xlink:title="1">
<text text-anchor="middle" x="55.7889" y="-118.7885" font-family="Helvetica,sans-Serif" font-size="10.00" fill="#000000">1</text>
</a>
</g>
</g>
<!-- dir_bdd9a5d540de89e9fe90efdfc6973a4f -->
<g id="node6" class="node">
<title>dir_bdd9a5d540de89e9fe90efdfc6973a4f</title>
<g id="a_node6"><a xlink:href="dir_bdd9a5d540de89e9fe90efdfc6973a4f.html" target="_top" xlink:title="common">
<polygon fill="#ffffff" stroke="#ff0000" points="154.5,-36 95.5,-36 95.5,0 154.5,0 154.5,-36"/>
<text text-anchor="middle" x="125" y="-15.5" font-family="Helvetica,sans-Serif" font-size="10.00" fill="#000000">common</text>
</a>
</g>
</g>
<!-- dir_694ec83a64f58cbdefbefce65cd1011c&#45;&gt;dir_bdd9a5d540de89e9fe90efdfc6973a4f -->
<g id="edge2" class="edge">
<title>dir_694ec83a64f58cbdefbefce65cd1011c&#45;&gt;dir_bdd9a5d540de89e9fe90efdfc6973a4f</title>
<path fill="none" stroke="#000000" d="M71.3054,-143.5432C75.9665,-133.1278 81.8607,-119.8611 87,-108 96.0463,-87.1218 106.047,-63.4096 113.5174,-45.5674"/>
<polygon fill="#000000" stroke="#000000" points="116.7578,-46.8905 117.3853,-36.3142 110.2993,-44.1908 116.7578,-46.8905"/>
<g id="a_edge2&#45;headlabel"><a xlink:href="dir_000025_000000.html" target="_top" xlink:title="24">
<text text-anchor="middle" x="117.9912" y="-48.802" font-family="Helvetica,sans-Serif" font-size="10.00" fill="#000000">24</text>
</a>
</g>
</g>
<!-- dir_a0a8ac7efb6662b749c1285408048e6d&#45;&gt;dir_694ec83a64f58cbdefbefce65cd1011c -->
<g id="edge5" class="edge">
<title>dir_a0a8ac7efb6662b749c1285408048e6d&#45;&gt;dir_694ec83a64f58cbdefbefce65cd1011c</title>
<path fill="none" stroke="#000000" d="M60.0449,-108.4133C62.0726,-116.1442 63.8099,-125.3097 64.9142,-133.8545"/>
<polygon fill="#000000" stroke="#000000" points="61.4347,-134.2348 65.9243,-143.8314 68.3991,-133.5296 61.4347,-134.2348"/>
<g id="a_edge5&#45;headlabel"><a xlink:href="dir_000097_000025.html" target="_top" xlink:title="1">
<text text-anchor="middle" x="58.2479" y="-128.4444" font-family="Helvetica,sans-Serif" font-size="10.00" fill="#000000">1</text>
</a>
</g>
</g>
<!-- dir_a0a8ac7efb6662b749c1285408048e6d&#45;&gt;dir_bdd9a5d540de89e9fe90efdfc6973a4f -->
<g id="edge4" class="edge">
<title>dir_a0a8ac7efb6662b749c1285408048e6d&#45;&gt;dir_bdd9a5d540de89e9fe90efdfc6973a4f</title>
<path fill="none" stroke="#000000" d="M69.6733,-71.8314C78.5249,-63.219 89.2486,-52.7851 98.8895,-43.4048"/>
<polygon fill="#000000" stroke="#000000" points="101.6061,-45.645 106.3326,-36.1628 96.7246,-40.6279 101.6061,-45.645"/>
<g id="a_edge4&#45;headlabel"><a xlink:href="dir_000097_000000.html" target="_top" xlink:title="3">
<text text-anchor="middle" x="101.0098" y="-47.6866" font-family="Helvetica,sans-Serif" font-size="10.00" fill="#000000">3</text>
</a>
</g>
</g>
<!-- dir_3c99d3595cafa99f0e2683197c97edf9 -->
<g id="node3" class="node">
<title>dir_3c99d3595cafa99f0e2683197c97edf9</title>
<text text-anchor="middle" x="205" y="-231.5" font-family="Helvetica,sans-Serif" font-size="10.00" fill="#000000">sbv</text>
</g>
<!-- dir_4235aca40d92d2d6923267ff8588d97a -->
<g id="node4" class="node">
<title>dir_4235aca40d92d2d6923267ff8588d97a</title>
<g id="a_node4"><a xlink:href="dir_4235aca40d92d2d6923267ff8588d97a.html" target="_top" xlink:title="include">
<polygon fill="#ffffff" stroke="#000000" points="162,-180 108,-180 108,-144 162,-144 162,-180"/>
<text text-anchor="middle" x="135" y="-159.5" font-family="Helvetica,sans-Serif" font-size="10.00" fill="#000000">include</text>
</a>
</g>
</g>
<!-- dir_4235aca40d92d2d6923267ff8588d97a&#45;&gt;dir_bdd9a5d540de89e9fe90efdfc6973a4f -->
<g id="edge1" class="edge">
<title>dir_4235aca40d92d2d6923267ff8588d97a&#45;&gt;dir_bdd9a5d540de89e9fe90efdfc6973a4f</title>
<path fill="none" stroke="#000000" d="M134.3879,-143.9175C133.6492,-124.2368 132.2223,-91.8506 130,-64 129.5447,-58.2945 128.9556,-52.2017 128.3423,-46.3791"/>
<polygon fill="#000000" stroke="#000000" points="131.8096,-45.8891 127.2362,-36.3322 124.8517,-46.6552 131.8096,-45.8891"/>
<g id="a_edge1&#45;headlabel"><a xlink:href="dir_000166_000000.html" target="_top" xlink:title="3">
<text text-anchor="middle" x="135.0252" y="-46.6514" font-family="Helvetica,sans-Serif" font-size="10.00" fill="#000000">3</text>
</a>
</g>
</g>
<!-- dir_efd911068bd98c5b8ecc421070f7e163 -->
<g id="node5" class="node">
<title>dir_efd911068bd98c5b8ecc421070f7e163</title>
<g id="a_node5"><a xlink:href="dir_efd911068bd98c5b8ecc421070f7e163.html" target="_top" xlink:title="src">
<polygon fill="#ffffff" stroke="#000000" points="160,-252 106,-252 106,-216 160,-216 160,-252"/>
<text text-anchor="middle" x="133" y="-231.5" font-family="Helvetica,sans-Serif" font-size="10.00" fill="#000000">src</text>
</a>
</g>
</g>
<!-- dir_efd911068bd98c5b8ecc421070f7e163&#45;&gt;dir_694ec83a64f58cbdefbefce65cd1011c -->
<g id="edge7" class="edge">
<title>dir_efd911068bd98c5b8ecc421070f7e163&#45;&gt;dir_694ec83a64f58cbdefbefce65cd1011c</title>
<path fill="none" stroke="#000000" d="M115.336,-215.8314C107.0268,-207.2848 96.9736,-196.9443 87.9082,-187.6198"/>
<polygon fill="#000000" stroke="#000000" points="90.3821,-185.1435 80.9018,-180.4133 85.3631,-190.023 90.3821,-185.1435"/>
<g id="a_edge7&#45;headlabel"><a xlink:href="dir_000078_000025.html" target="_top" xlink:title="15">
<text text-anchor="middle" x="94.9235" y="-183.2416" font-family="Helvetica,sans-Serif" font-size="10.00" fill="#000000">15</text>
</a>
</g>
</g>
<!-- dir_efd911068bd98c5b8ecc421070f7e163&#45;&gt;dir_a0a8ac7efb6662b749c1285408048e6d -->
<g id="edge8" class="edge">
<title>dir_efd911068bd98c5b8ecc421070f7e163&#45;&gt;dir_a0a8ac7efb6662b749c1285408048e6d</title>
<path fill="none" stroke="#000000" d="M105.788,-228.5503C80.4324,-221.8715 44.0512,-207.8227 27,-180 15.2174,-160.7742 23.3912,-135.7905 33.2769,-117.0257"/>
<polygon fill="#000000" stroke="#000000" points="36.4485,-118.5286 38.3461,-108.1051 30.3625,-115.0702 36.4485,-118.5286"/>
<g id="a_edge8&#45;headlabel"><a xlink:href="dir_000078_000097.html" target="_top" xlink:title="1">
<text text-anchor="middle" x="37.1412" y="-120.5566" font-family="Helvetica,sans-Serif" font-size="10.00" fill="#000000">1</text>
</a>
</g>
</g>
<!-- dir_efd911068bd98c5b8ecc421070f7e163&#45;&gt;dir_4235aca40d92d2d6923267ff8588d97a -->
<g id="edge6" class="edge">
<title>dir_efd911068bd98c5b8ecc421070f7e163&#45;&gt;dir_4235aca40d92d2d6923267ff8588d97a</title>
<path fill="none" stroke="#000000" d="M133.5047,-215.8314C133.7186,-208.131 133.9729,-198.9743 134.2106,-190.4166"/>
<polygon fill="#000000" stroke="#000000" points="137.7094,-190.5066 134.4885,-180.4133 130.7121,-190.3122 137.7094,-190.5066"/>
<g id="a_edge6&#45;headlabel"><a xlink:href="dir_000078_000166.html" target="_top" xlink:title="14">
<text text-anchor="middle" x="140.4479" y="-191.6787" font-family="Helvetica,sans-Serif" font-size="10.00" fill="#000000">14</text>
</a>
</g>
</g>
<!-- dir_efd911068bd98c5b8ecc421070f7e163&#45;&gt;dir_bdd9a5d540de89e9fe90efdfc6973a4f -->
<g id="edge9" class="edge">
<title>dir_efd911068bd98c5b8ecc421070f7e163&#45;&gt;dir_bdd9a5d540de89e9fe90efdfc6973a4f</title>
<path fill="none" stroke="#000000" d="M150.2635,-215.5761C158.2389,-205.7997 166.848,-193.1148 171,-180 176.9023,-161.3564 174.2525,-155.2832 171,-136 165.5281,-103.5591 150.7386,-68.7301 139.3925,-45.3866"/>
<polygon fill="#000000" stroke="#000000" points="142.3705,-43.5152 134.7779,-36.1259 136.1053,-46.6372 142.3705,-43.5152"/>
<g id="a_edge9&#45;headlabel"><a xlink:href="dir_000078_000000.html" target="_top" xlink:title="6">
<text text-anchor="middle" x="146.5149" y="-42.9663" font-family="Helvetica,sans-Serif" font-size="10.00" fill="#000000">6</text>
</a>
</g>
</g>
</g>
</svg>
