<?xml version="1.0" encoding="UTF-8" standalone="no"?>
<!DOCTYPE svg PUBLIC "-//W3C//DTD SVG 1.1//EN"
 "http://www.w3.org/Graphics/SVG/1.1/DTD/svg11.dtd">
<!-- Generated by graphviz version 2.40.1 (20161225.0304)
 -->
<!-- Title: ee/rpc/memorycard Pages: 1 -->
<svg width="380pt" height="303pt"
 viewBox="0.00 0.00 380.07 303.00" xmlns="http://www.w3.org/2000/svg" xmlns:xlink="http://www.w3.org/1999/xlink">
<g id="graph0" class="graph" transform="scale(1 1) rotate(0) translate(4 299)">
<title>ee/rpc/memorycard</title>
<polygon fill="#ffffff" stroke="transparent" points="-4,4 -4,-299 376.0747,-299 376.0747,4 -4,4"/>
<g id="clust1" class="cluster">
<title>clusterdir_5b119dc963fa9b25ef41951231899460</title>
<g id="a_clust1"><a xlink:href="dir_5b119dc963fa9b25ef41951231899460.html" target="_top" xlink:title="rpc">
<polygon fill="#ddddee" stroke="#000000" points="8,-128 8,-287 267,-287 267,-128 8,-128"/>
<text text-anchor="middle" x="137.5" y="-275" font-family="Helvetica,sans-Serif" font-size="10.00" fill="#000000">rpc</text>
</a>
</g>
</g>
<g id="clust2" class="cluster">
<title>clusterdir_52af18bf396be92337d4eeddb9a1740b</title>
<g id="a_clust2"><a xlink:href="dir_52af18bf396be92337d4eeddb9a1740b.html" target="_top">
<polygon fill="#eeeeff" stroke="#000000" points="16,-136 16,-260 259,-260 259,-136 16,-136"/>
</a>
</g>
</g>
<!-- dir_52af18bf396be92337d4eeddb9a1740b -->
<g id="node1" class="node">
<title>dir_52af18bf396be92337d4eeddb9a1740b</title>
<text text-anchor="middle" x="212" y="-231.5" font-family="Helvetica,sans-Serif" font-size="10.00" fill="#000000">memorycard</text>
</g>
<!-- dir_76c0ea988611758bf556e82d119dc5f5 -->
<g id="node2" class="node">
<title>dir_76c0ea988611758bf556e82d119dc5f5</title>
<g id="a_node2"><a xlink:href="dir_76c0ea988611758bf556e82d119dc5f5.html" target="_top" xlink:title="include">
<polygon fill="#ffffff" stroke="#000000" points="154,-180 100,-180 100,-144 154,-144 154,-180"/>
<text text-anchor="middle" x="127" y="-159.5" font-family="Helvetica,sans-Serif" font-size="10.00" fill="#000000">include</text>
</a>
</g>
</g>
<!-- dir_bdd9a5d540de89e9fe90efdfc6973a4f -->
<g id="node5" class="node">
<title>dir_bdd9a5d540de89e9fe90efdfc6973a4f</title>
<g id="a_node5"><a xlink:href="dir_bdd9a5d540de89e9fe90efdfc6973a4f.html" target="_top" xlink:title="common">
<polygon fill="#ffffff" stroke="#ff0000" points="276.5,-36 217.5,-36 217.5,0 276.5,0 276.5,-36"/>
<text text-anchor="middle" x="247" y="-15.5" font-family="Helvetica,sans-Serif" font-size="10.00" fill="#000000">common</text>
</a>
</g>
</g>
<!-- dir_76c0ea988611758bf556e82d119dc5f5&#45;&gt;dir_bdd9a5d540de89e9fe90efdfc6973a4f -->
<g id="edge3" class="edge">
<title>dir_76c0ea988611758bf556e82d119dc5f5&#45;&gt;dir_bdd9a5d540de89e9fe90efdfc6973a4f</title>
<path fill="none" stroke="#000000" d="M136.4811,-143.672C146.7756,-124.6787 164.3933,-94.6561 184,-72 193.0895,-61.4969 204.2693,-51.245 214.6753,-42.5453"/>
<polygon fill="#000000" stroke="#000000" points="216.8976,-45.2494 222.4347,-36.2166 212.4732,-39.8249 216.8976,-45.2494"/>
<g id="a_edge3&#45;headlabel"><a xlink:href="dir_000148_000000.html" target="_top" xlink:title="1">
<text text-anchor="middle" x="215.9066" y="-47.2215" font-family="Helvetica,sans-Serif" font-size="10.00" fill="#000000">1</text>
</a>
</g>
</g>
<!-- dir_d829087eb984462a3fef8dbd4af1b7e2 -->
<g id="node3" class="node">
<title>dir_d829087eb984462a3fef8dbd4af1b7e2</title>
<g id="a_node3"><a xlink:href="dir_d829087eb984462a3fef8dbd4af1b7e2.html" target="_top" xlink:title="samples">
<polygon fill="#ffffff" stroke="#000000" points="82,-252 24,-252 24,-216 82,-216 82,-252"/>
<text text-anchor="middle" x="53" y="-231.5" font-family="Helvetica,sans-Serif" font-size="10.00" fill="#000000">samples</text>
</a>
</g>
</g>
<!-- dir_d829087eb984462a3fef8dbd4af1b7e2&#45;&gt;dir_76c0ea988611758bf556e82d119dc5f5 -->
<g id="edge11" class="edge">
<title>dir_d829087eb984462a3fef8dbd4af1b7e2&#45;&gt;dir_76c0ea988611758bf556e82d119dc5f5</title>
<path fill="none" stroke="#000000" d="M71.6733,-215.8314C80.5249,-207.219 91.2486,-196.7851 100.8895,-187.4048"/>
<polygon fill="#000000" stroke="#000000" points="103.6061,-189.645 108.3326,-180.1628 98.7246,-184.6279 103.6061,-189.645"/>
<g id="a_edge11&#45;headlabel"><a xlink:href="dir_000149_000148.html" target="_top" xlink:title="1">
<text text-anchor="middle" x="103.0098" y="-191.6866" font-family="Helvetica,sans-Serif" font-size="10.00" fill="#000000">1</text>
</a>
</g>
</g>
<!-- dir_d829087eb984462a3fef8dbd4af1b7e2&#45;&gt;dir_bdd9a5d540de89e9fe90efdfc6973a4f -->
<g id="edge12" class="edge">
<title>dir_d829087eb984462a3fef8dbd4af1b7e2&#45;&gt;dir_bdd9a5d540de89e9fe90efdfc6973a4f</title>
<path fill="none" stroke="#000000" d="M82.2063,-219.9359C114.2497,-204.4655 161.3984,-181.5667 163,-180 202.2664,-141.5882 226.8758,-80.8962 238.67,-45.724"/>
<polygon fill="#000000" stroke="#000000" points="242.0354,-46.6922 241.7898,-36.1002 235.3765,-44.5335 242.0354,-46.6922"/>
<g id="a_edge12&#45;headlabel"><a xlink:href="dir_000149_000000.html" target="_top" xlink:title="1">
<text text-anchor="middle" x="243.6278" y="-48.4872" font-family="Helvetica,sans-Serif" font-size="10.00" fill="#000000">1</text>
</a>
</g>
</g>
<!-- dir_694ec83a64f58cbdefbefce65cd1011c -->
<g id="node6" class="node">
<title>dir_694ec83a64f58cbdefbefce65cd1011c</title>
<g id="a_node6"><a xlink:href="dir_694ec83a64f58cbdefbefce65cd1011c.html" target="_top" xlink:title="kernel">
<polygon fill="#ffffff" stroke="#ff0000" points="329,-180 275,-180 275,-144 329,-144 329,-180"/>
<text text-anchor="middle" x="302" y="-159.5" font-family="Helvetica,sans-Serif" font-size="10.00" fill="#000000">kernel</text>
</a>
</g>
</g>
<!-- dir_d829087eb984462a3fef8dbd4af1b7e2&#45;&gt;dir_694ec83a64f58cbdefbefce65cd1011c -->
<g id="edge10" class="edge">
<title>dir_d829087eb984462a3fef8dbd4af1b7e2&#45;&gt;dir_694ec83a64f58cbdefbefce65cd1011c</title>
<path fill="none" stroke="#000000" d="M82.1748,-219.3429C85.1185,-218.1181 88.0939,-216.9771 91,-216 165.0286,-191.1099 188.8483,-204.5209 263,-180 263.7169,-179.7629 264.438,-179.5165 265.162,-179.2617"/>
<polygon fill="#000000" stroke="#000000" points="266.5712,-182.469 274.6151,-175.5736 264.0269,-175.9477 266.5712,-182.469"/>
<g id="a_edge10&#45;headlabel"><a xlink:href="dir_000149_000025.html" target="_top" xlink:title="4">
<text text-anchor="middle" x="264.2544" y="-183.9205" font-family="Helvetica,sans-Serif" font-size="10.00" fill="#000000">4</text>
</a>
</g>
</g>
<!-- dir_caf0af085a7c65a631c06dc345ebd7aa -->
<g id="node4" class="node">
<title>dir_caf0af085a7c65a631c06dc345ebd7aa</title>
<g id="a_node4"><a xlink:href="dir_caf0af085a7c65a631c06dc345ebd7aa.html" target="_top" xlink:title="src">
<polygon fill="#ffffff" stroke="#000000" points="154,-252 100,-252 100,-216 154,-216 154,-252"/>
<text text-anchor="middle" x="127" y="-231.5" font-family="Helvetica,sans-Serif" font-size="10.00" fill="#000000">src</text>
</a>
</g>
</g>
<!-- dir_caf0af085a7c65a631c06dc345ebd7aa&#45;&gt;dir_76c0ea988611758bf556e82d119dc5f5 -->
<g id="edge7" class="edge">
<title>dir_caf0af085a7c65a631c06dc345ebd7aa&#45;&gt;dir_76c0ea988611758bf556e82d119dc5f5</title>
<path fill="none" stroke="#000000" d="M127,-215.8314C127,-208.131 127,-198.9743 127,-190.4166"/>
<polygon fill="#000000" stroke="#000000" points="130.5001,-190.4132 127,-180.4133 123.5001,-190.4133 130.5001,-190.4132"/>
<g id="a_edge7&#45;headlabel"><a xlink:href="dir_000060_000148.html" target="_top" xlink:title="1">
<text text-anchor="middle" x="133.3393" y="-191.5079" font-family="Helvetica,sans-Serif" font-size="10.00" fill="#000000">1</text>
</a>
</g>
</g>
<!-- dir_caf0af085a7c65a631c06dc345ebd7aa&#45;&gt;dir_bdd9a5d540de89e9fe90efdfc6973a4f -->
<g id="edge9" class="edge">
<title>dir_caf0af085a7c65a631c06dc345ebd7aa&#45;&gt;dir_bdd9a5d540de89e9fe90efdfc6973a4f</title>
<path fill="none" stroke="#000000" d="M154.1375,-219.7912C157.4086,-218.3806 160.7442,-217.0755 164,-216 246.4385,-188.7664 300.5534,-246.8091 356,-180 387.0774,-142.5541 368.3373,-110.048 338,-72 324.4436,-54.998 303.9687,-42.1739 285.8713,-33.2991"/>
<polygon fill="#000000" stroke="#000000" points="287.2164,-30.0647 276.6735,-29.017 284.2619,-36.4107 287.2164,-30.0647"/>
<g id="a_edge9&#45;headlabel"><a xlink:href="dir_000060_000000.html" target="_top" xlink:title="1">
<text text-anchor="middle" x="291.6735" y="-26.5078" font-family="Helvetica,sans-Serif" font-size="10.00" fill="#000000">1</text>
</a>
</g>
</g>
<!-- dir_caf0af085a7c65a631c06dc345ebd7aa&#45;&gt;dir_694ec83a64f58cbdefbefce65cd1011c -->
<g id="edge6" class="edge">
<title>dir_caf0af085a7c65a631c06dc345ebd7aa&#45;&gt;dir_694ec83a64f58cbdefbefce65cd1011c</title>
<path fill="none" stroke="#000000" d="M154.3328,-220.3104C157.5689,-218.8066 160.8429,-217.3377 164,-216 207.1088,-197.7345 219.7074,-197.8255 263,-180 263.8447,-179.6522 264.6979,-179.2965 265.5568,-178.9344"/>
<polygon fill="#000000" stroke="#000000" points="267.0849,-182.0864 274.8528,-174.8816 264.2873,-175.6697 267.0849,-182.0864"/>
<g id="a_edge6&#45;headlabel"><a xlink:href="dir_000060_000025.html" target="_top" xlink:title="2">
<text text-anchor="middle" x="264.9244" y="-183.6256" font-family="Helvetica,sans-Serif" font-size="10.00" fill="#000000">2</text>
</a>
</g>
</g>
<!-- dir_a0a8ac7efb6662b749c1285408048e6d -->
<g id="node7" class="node">
<title>dir_a0a8ac7efb6662b749c1285408048e6d</title>
<g id="a_node7"><a xlink:href="dir_a0a8ac7efb6662b749c1285408048e6d.html" target="_top" xlink:title="erl">
<polygon fill="#ffffff" stroke="#ff0000" points="329,-108 275,-108 275,-72 329,-72 329,-108"/>
<text text-anchor="middle" x="302" y="-87.5" font-family="Helvetica,sans-Serif" font-size="10.00" fill="#000000">erl</text>
</a>
</g>
</g>
<!-- dir_caf0af085a7c65a631c06dc345ebd7aa&#45;&gt;dir_a0a8ac7efb6662b749c1285408048e6d -->
<g id="edge8" class="edge">
<title>dir_caf0af085a7c65a631c06dc345ebd7aa&#45;&gt;dir_a0a8ac7efb6662b749c1285408048e6d</title>
<path fill="none" stroke="#000000" d="M154.1576,-219.8513C157.4251,-218.4299 160.7544,-217.1059 164,-216 238.751,-190.5296 288.1357,-241.2372 338,-180 352.5929,-162.0788 346.555,-149.4694 338,-128 336.2886,-123.7051 333.8356,-119.6164 331.0034,-115.8217"/>
<polygon fill="#000000" stroke="#000000" points="333.4942,-113.3489 324.3382,-108.018 328.1714,-117.8951 333.4942,-113.3489"/>
<g id="a_edge8&#45;headlabel"><a xlink:href="dir_000060_000097.html" target="_top" xlink:title="1">
<text text-anchor="middle" x="337.9877" y="-111.7382" font-family="Helvetica,sans-Serif" font-size="10.00" fill="#000000">1</text>
</a>
</g>
</g>
<!-- dir_694ec83a64f58cbdefbefce65cd1011c&#45;&gt;dir_bdd9a5d540de89e9fe90efdfc6973a4f -->
<g id="edge1" class="edge">
<title>dir_694ec83a64f58cbdefbefce65cd1011c&#45;&gt;dir_bdd9a5d540de89e9fe90efdfc6973a4f</title>
<path fill="none" stroke="#000000" d="M287.1147,-143.5185C279.7538,-133.5296 271.328,-120.6716 266,-108 257.6694,-88.1876 252.8467,-64.3321 250.1459,-46.1605"/>
<polygon fill="#000000" stroke="#000000" points="253.6059,-45.6289 248.7905,-36.1917 246.6698,-46.5721 253.6059,-45.6289"/>
<g id="a_edge1&#45;headlabel"><a xlink:href="dir_000025_000000.html" target="_top" xlink:title="24">
<text text-anchor="middle" x="256.9035" y="-46.3082" font-family="Helvetica,sans-Serif" font-size="10.00" fill="#000000">24</text>
</a>
</g>
</g>
<!-- dir_694ec83a64f58cbdefbefce65cd1011c&#45;&gt;dir_a0a8ac7efb6662b749c1285408048e6d -->
<g id="edge2" class="edge">
<title>dir_694ec83a64f58cbdefbefce65cd1011c&#45;&gt;dir_a0a8ac7efb6662b749c1285408048e6d</title>
<path fill="none" stroke="#000000" d="M296.0476,-143.8314C295.2972,-136.131 295.0763,-126.9743 295.3849,-118.4166"/>
<polygon fill="#000000" stroke="#000000" points="298.8792,-118.6161 296.024,-108.4133 291.8935,-118.1697 298.8792,-118.6161"/>
<g id="a_edge2&#45;headlabel"><a xlink:href="dir_000025_000097.html" target="_top" xlink:title="1">
<text text-anchor="middle" x="301.4836" y="-119.8844" font-family="Helvetica,sans-Serif" font-size="10.00" fill="#000000">1</text>
</a>
</g>
</g>
<!-- dir_a0a8ac7efb6662b749c1285408048e6d&#45;&gt;dir_bdd9a5d540de89e9fe90efdfc6973a4f -->
<g id="edge4" class="edge">
<title>dir_a0a8ac7efb6662b749c1285408048e6d&#45;&gt;dir_bdd9a5d540de89e9fe90efdfc6973a4f</title>
<path fill="none" stroke="#000000" d="M288.1212,-71.8314C281.7864,-63.5386 274.1616,-53.557 267.2074,-44.4533"/>
<polygon fill="#000000" stroke="#000000" points="269.9175,-42.2353 261.0657,-36.4133 264.3548,-46.4847 269.9175,-42.2353"/>
<g id="a_edge4&#45;headlabel"><a xlink:href="dir_000097_000000.html" target="_top" xlink:title="3">
<text text-anchor="middle" x="274.3558" y="-40.8683" font-family="Helvetica,sans-Serif" font-size="10.00" fill="#000000">3</text>
</a>
</g>
</g>
<!-- dir_a0a8ac7efb6662b749c1285408048e6d&#45;&gt;dir_694ec83a64f58cbdefbefce65cd1011c -->
<g id="edge5" class="edge">
<title>dir_a0a8ac7efb6662b749c1285408048e6d&#45;&gt;dir_694ec83a64f58cbdefbefce65cd1011c</title>
<path fill="none" stroke="#000000" d="M307.976,-108.4133C308.7071,-116.0593 308.9203,-125.1084 308.6155,-133.5726"/>
<polygon fill="#000000" stroke="#000000" points="305.1048,-133.6264 307.9524,-143.8314 312.0902,-134.078 305.1048,-133.6264"/>
<g id="a_edge5&#45;headlabel"><a xlink:href="dir_000097_000025.html" target="_top" xlink:title="1">
<text text-anchor="middle" x="302.5032" y="-127.3562" font-family="Helvetica,sans-Serif" font-size="10.00" fill="#000000">1</text>
</a>
</g>
</g>
</g>
</svg>
