<?xml version="1.0" encoding="UTF-8" standalone="no"?>
<!DOCTYPE svg PUBLIC "-//W3C//DTD SVG 1.1//EN"
 "http://www.w3.org/Graphics/SVG/1.1/DTD/svg11.dtd">
<!-- Generated by graphviz version 2.40.1 (20161225.0304)
 -->
<!-- Title: ee/rpc/sior/src Pages: 1 -->
<svg width="212pt" height="295pt"
 viewBox="0.00 0.00 212.01 295.00" xmlns="http://www.w3.org/2000/svg" xmlns:xlink="http://www.w3.org/1999/xlink">
<g id="graph0" class="graph" transform="scale(1 1) rotate(0) translate(4 291)">
<title>ee/rpc/sior/src</title>
<polygon fill="#ffffff" stroke="transparent" points="-4,4 -4,-291 208.0134,-291 208.0134,4 -4,4"/>
<g id="clust1" class="cluster">
<title>clusterdir_d4a6eac35d72455d405007552e574e19</title>
<g id="a_clust1"><a xlink:href="dir_d4a6eac35d72455d405007552e574e19.html" target="_top" xlink:title="sior">
<polygon fill="#ddddee" stroke="#000000" points="8,-136 8,-279 78,-279 78,-136 8,-136"/>
<text text-anchor="middle" x="43" y="-267" font-family="Helvetica,sans-Serif" font-size="10.00" fill="#000000">sior</text>
</a>
</g>
</g>
<!-- dir_7a30004114210d8a58166e09a9078b00 -->
<g id="node1" class="node">
<title>dir_7a30004114210d8a58166e09a9078b00</title>
<g id="a_node1"><a xlink:href="dir_7a30004114210d8a58166e09a9078b00.html" target="_top" xlink:title="include">
<polygon fill="none" stroke="#000000" points="70,-180 16,-180 16,-144 70,-144 70,-180"/>
<text text-anchor="middle" x="43" y="-159.5" font-family="Helvetica,sans-Serif" font-size="10.00" fill="#000000">include</text>
</a>
</g>
</g>
<!-- dir_f569607cb6afe3f1a6eca55bcfb9e9e7 -->
<g id="node2" class="node">
<title>dir_f569607cb6afe3f1a6eca55bcfb9e9e7</title>
<g id="a_node2"><a xlink:href="dir_f569607cb6afe3f1a6eca55bcfb9e9e7.html" target="_top" xlink:title="src">
<polygon fill="#eeeeff" stroke="#000000" points="70,-252 16,-252 16,-216 70,-216 70,-252"/>
<text text-anchor="middle" x="43" y="-231.5" font-family="Helvetica,sans-Serif" font-size="10.00" fill="#000000">src</text>
</a>
</g>
</g>
<!-- dir_f569607cb6afe3f1a6eca55bcfb9e9e7&#45;&gt;dir_7a30004114210d8a58166e09a9078b00 -->
<g id="edge6" class="edge">
<title>dir_f569607cb6afe3f1a6eca55bcfb9e9e7&#45;&gt;dir_7a30004114210d8a58166e09a9078b00</title>
<path fill="none" stroke="#000000" d="M43,-215.8314C43,-208.131 43,-198.9743 43,-190.4166"/>
<polygon fill="#000000" stroke="#000000" points="46.5001,-190.4132 43,-180.4133 39.5001,-190.4133 46.5001,-190.4132"/>
<g id="a_edge6&#45;headlabel"><a xlink:href="dir_000074_000163.html" target="_top" xlink:title="1">
<text text-anchor="middle" x="49.3393" y="-191.5079" font-family="Helvetica,sans-Serif" font-size="10.00" fill="#000000">1</text>
</a>
</g>
</g>
<!-- dir_694ec83a64f58cbdefbefce65cd1011c -->
<g id="node3" class="node">
<title>dir_694ec83a64f58cbdefbefce65cd1011c</title>
<g id="a_node3"><a xlink:href="dir_694ec83a64f58cbdefbefce65cd1011c.html" target="_top" xlink:title="kernel">
<polygon fill="#ffffff" stroke="#ff0000" points="180,-180 126,-180 126,-144 180,-144 180,-180"/>
<text text-anchor="middle" x="153" y="-159.5" font-family="Helvetica,sans-Serif" font-size="10.00" fill="#000000">kernel</text>
</a>
</g>
</g>
<!-- dir_f569607cb6afe3f1a6eca55bcfb9e9e7&#45;&gt;dir_694ec83a64f58cbdefbefce65cd1011c -->
<g id="edge5" class="edge">
<title>dir_f569607cb6afe3f1a6eca55bcfb9e9e7&#45;&gt;dir_694ec83a64f58cbdefbefce65cd1011c</title>
<path fill="none" stroke="#000000" d="M70.191,-216.2022C84.3378,-206.9425 101.8157,-195.5025 117.063,-185.5224"/>
<polygon fill="#000000" stroke="#000000" points="119.2903,-188.2476 125.7406,-179.8425 115.4567,-182.3907 119.2903,-188.2476"/>
<g id="a_edge5&#45;headlabel"><a xlink:href="dir_000074_000025.html" target="_top" xlink:title="3">
<text text-anchor="middle" x="117.8377" y="-190.0918" font-family="Helvetica,sans-Serif" font-size="10.00" fill="#000000">3</text>
</a>
</g>
</g>
<!-- dir_a0a8ac7efb6662b749c1285408048e6d -->
<g id="node4" class="node">
<title>dir_a0a8ac7efb6662b749c1285408048e6d</title>
<g id="a_node4"><a xlink:href="dir_a0a8ac7efb6662b749c1285408048e6d.html" target="_top" xlink:title="erl">
<polygon fill="#ffffff" stroke="#ff0000" points="142,-108 88,-108 88,-72 142,-72 142,-108"/>
<text text-anchor="middle" x="115" y="-87.5" font-family="Helvetica,sans-Serif" font-size="10.00" fill="#000000">erl</text>
</a>
</g>
</g>
<!-- dir_f569607cb6afe3f1a6eca55bcfb9e9e7&#45;&gt;dir_a0a8ac7efb6662b749c1285408048e6d -->
<g id="edge7" class="edge">
<title>dir_f569607cb6afe3f1a6eca55bcfb9e9e7&#45;&gt;dir_a0a8ac7efb6662b749c1285408048e6d</title>
<path fill="none" stroke="#000000" d="M56.6555,-215.5973C63.846,-205.4209 72.4956,-192.3651 79,-180 89.5935,-159.8615 99.0395,-135.8887 105.595,-117.7501"/>
<polygon fill="#000000" stroke="#000000" points="108.9815,-118.6716 109.0178,-108.0768 102.3824,-116.3365 108.9815,-118.6716"/>
<g id="a_edge7&#45;headlabel"><a xlink:href="dir_000074_000097.html" target="_top" xlink:title="1">
<text text-anchor="middle" x="110.4591" y="-120.5074" font-family="Helvetica,sans-Serif" font-size="10.00" fill="#000000">1</text>
</a>
</g>
</g>
<!-- dir_bdd9a5d540de89e9fe90efdfc6973a4f -->
<g id="node5" class="node">
<title>dir_bdd9a5d540de89e9fe90efdfc6973a4f</title>
<g id="a_node5"><a xlink:href="dir_bdd9a5d540de89e9fe90efdfc6973a4f.html" target="_top" xlink:title="common">
<polygon fill="#ffffff" stroke="#ff0000" points="199.5,-36 140.5,-36 140.5,0 199.5,0 199.5,-36"/>
<text text-anchor="middle" x="170" y="-15.5" font-family="Helvetica,sans-Serif" font-size="10.00" fill="#000000">common</text>
</a>
</g>
</g>
<!-- dir_f569607cb6afe3f1a6eca55bcfb9e9e7&#45;&gt;dir_bdd9a5d540de89e9fe90efdfc6973a4f -->
<g id="edge8" class="edge">
<title>dir_f569607cb6afe3f1a6eca55bcfb9e9e7&#45;&gt;dir_bdd9a5d540de89e9fe90efdfc6973a4f</title>
<path fill="none" stroke="#000000" d="M70.2878,-227.8256C108.5672,-218.5482 175.1008,-199.9603 189,-180 216.91,-139.9192 198.5882,-80.3121 183.6613,-45.6826"/>
<polygon fill="#000000" stroke="#000000" points="186.6876,-43.8793 179.3879,-36.2005 180.3058,-46.7555 186.6876,-43.8793"/>
<g id="a_edge8&#45;headlabel"><a xlink:href="dir_000074_000000.html" target="_top" xlink:title="1">
<text text-anchor="middle" x="190.7531" y="-43.4898" font-family="Helvetica,sans-Serif" font-size="10.00" fill="#000000">1</text>
</a>
</g>
</g>
<!-- dir_694ec83a64f58cbdefbefce65cd1011c&#45;&gt;dir_a0a8ac7efb6662b749c1285408048e6d -->
<g id="edge2" class="edge">
<title>dir_694ec83a64f58cbdefbefce65cd1011c&#45;&gt;dir_a0a8ac7efb6662b749c1285408048e6d</title>
<path fill="none" stroke="#000000" d="M137.4586,-143.8314C132.4854,-135.8771 127.2571,-126.369 122.9692,-117.5723"/>
<polygon fill="#000000" stroke="#000000" points="126.1105,-116.0262 118.7421,-108.4133 119.7547,-118.9596 126.1105,-116.0262"/>
<g id="a_edge2&#45;headlabel"><a xlink:href="dir_000025_000097.html" target="_top" xlink:title="1">
<text text-anchor="middle" x="130.1947" y="-115.6003" font-family="Helvetica,sans-Serif" font-size="10.00" fill="#000000">1</text>
</a>
</g>
</g>
<!-- dir_694ec83a64f58cbdefbefce65cd1011c&#45;&gt;dir_bdd9a5d540de89e9fe90efdfc6973a4f -->
<g id="edge1" class="edge">
<title>dir_694ec83a64f58cbdefbefce65cd1011c&#45;&gt;dir_bdd9a5d540de89e9fe90efdfc6973a4f</title>
<path fill="none" stroke="#000000" d="M155.1531,-143.7623C158.0527,-119.201 163.2416,-75.2474 166.6526,-46.3541"/>
<polygon fill="#000000" stroke="#000000" points="170.1678,-46.431 167.8644,-36.0896 163.2161,-45.6103 170.1678,-46.431"/>
<g id="a_edge1&#45;headlabel"><a xlink:href="dir_000025_000000.html" target="_top" xlink:title="24">
<text text-anchor="middle" x="172.5661" y="-47.8337" font-family="Helvetica,sans-Serif" font-size="10.00" fill="#000000">24</text>
</a>
</g>
</g>
<!-- dir_a0a8ac7efb6662b749c1285408048e6d&#45;&gt;dir_694ec83a64f58cbdefbefce65cd1011c -->
<g id="edge4" class="edge">
<title>dir_a0a8ac7efb6662b749c1285408048e6d&#45;&gt;dir_694ec83a64f58cbdefbefce65cd1011c</title>
<path fill="none" stroke="#000000" d="M130.6941,-108.4133C135.6725,-116.3991 140.8936,-125.9155 145.1621,-134.6975"/>
<polygon fill="#000000" stroke="#000000" points="142.0048,-136.2089 149.3634,-143.8314 148.3643,-133.2837 142.0048,-136.2089"/>
<g id="a_edge4&#45;headlabel"><a xlink:href="dir_000097_000025.html" target="_top" xlink:title="1">
<text text-anchor="middle" x="137.9232" y="-131.6297" font-family="Helvetica,sans-Serif" font-size="10.00" fill="#000000">1</text>
</a>
</g>
</g>
<!-- dir_a0a8ac7efb6662b749c1285408048e6d&#45;&gt;dir_bdd9a5d540de89e9fe90efdfc6973a4f -->
<g id="edge3" class="edge">
<title>dir_a0a8ac7efb6662b749c1285408048e6d&#45;&gt;dir_bdd9a5d540de89e9fe90efdfc6973a4f</title>
<path fill="none" stroke="#000000" d="M128.8788,-71.8314C135.2136,-63.5386 142.8384,-53.557 149.7926,-44.4533"/>
<polygon fill="#000000" stroke="#000000" points="152.6452,-46.4847 155.9343,-36.4133 147.0825,-42.2353 152.6452,-46.4847"/>
<g id="a_edge3&#45;headlabel"><a xlink:href="dir_000097_000000.html" target="_top" xlink:title="3">
<text text-anchor="middle" x="152.7195" y="-48.5647" font-family="Helvetica,sans-Serif" font-size="10.00" fill="#000000">3</text>
</a>
</g>
</g>
</g>
</svg>
