<?xml version="1.0" encoding="UTF-8" standalone="no"?>
<!DOCTYPE svg PUBLIC "-//W3C//DTD SVG 1.1//EN"
 "http://www.w3.org/Graphics/SVG/1.1/DTD/svg11.dtd">
<!-- Generated by graphviz version 2.40.1 (20161225.0304)
 -->
<!-- Title: ee/graph/samples Pages: 1 -->
<svg width="264pt" height="295pt"
 viewBox="0.00 0.00 264.02 295.00" xmlns="http://www.w3.org/2000/svg" xmlns:xlink="http://www.w3.org/1999/xlink">
<g id="graph0" class="graph" transform="scale(1 1) rotate(0) translate(4 291)">
<title>ee/graph/samples</title>
<polygon fill="#ffffff" stroke="transparent" points="-4,4 -4,-291 260.0222,-291 260.0222,4 -4,4"/>
<g id="clust1" class="cluster">
<title>clusterdir_933591e1cd95ed33f946db8a4302cbd1</title>
<g id="a_clust1"><a xlink:href="dir_933591e1cd95ed33f946db8a4302cbd1.html" target="_top" xlink:title="graph">
<polygon fill="#ddddee" stroke="#000000" points="15.7725,-136 15.7725,-279 89.7725,-279 89.7725,-136 15.7725,-136"/>
<text text-anchor="middle" x="52.7725" y="-267" font-family="Helvetica,sans-Serif" font-size="10.00" fill="#000000">graph</text>
</a>
</g>
</g>
<!-- dir_587f58ae6bff4b1360d4911800bd5f72 -->
<g id="node1" class="node">
<title>dir_587f58ae6bff4b1360d4911800bd5f72</title>
<g id="a_node1"><a xlink:href="dir_587f58ae6bff4b1360d4911800bd5f72.html" target="_top" xlink:title="include">
<polygon fill="none" stroke="#000000" points="79.7725,-180 25.7725,-180 25.7725,-144 79.7725,-144 79.7725,-180"/>
<text text-anchor="middle" x="52.7725" y="-159.5" font-family="Helvetica,sans-Serif" font-size="10.00" fill="#000000">include</text>
</a>
</g>
</g>
<!-- dir_9d372a14fe6df2f36ff1ddf78e4242cb -->
<g id="node2" class="node">
<title>dir_9d372a14fe6df2f36ff1ddf78e4242cb</title>
<g id="a_node2"><a xlink:href="dir_9d372a14fe6df2f36ff1ddf78e4242cb.html" target="_top" xlink:title="samples">
<polygon fill="#eeeeff" stroke="#000000" points="81.7725,-252 23.7725,-252 23.7725,-216 81.7725,-216 81.7725,-252"/>
<text text-anchor="middle" x="52.7725" y="-231.5" font-family="Helvetica,sans-Serif" font-size="10.00" fill="#000000">samples</text>
</a>
</g>
</g>
<!-- dir_9d372a14fe6df2f36ff1ddf78e4242cb&#45;&gt;dir_587f58ae6bff4b1360d4911800bd5f72 -->
<g id="edge8" class="edge">
<title>dir_9d372a14fe6df2f36ff1ddf78e4242cb&#45;&gt;dir_587f58ae6bff4b1360d4911800bd5f72</title>
<path fill="none" stroke="#000000" d="M52.7725,-215.8314C52.7725,-208.131 52.7725,-198.9743 52.7725,-190.4166"/>
<polygon fill="#000000" stroke="#000000" points="56.2726,-190.4132 52.7725,-180.4133 49.2726,-190.4133 56.2726,-190.4132"/>
<g id="a_edge8&#45;headlabel"><a xlink:href="dir_000105_000104.html" target="_top" xlink:title="1">
<text text-anchor="middle" x="59.1117" y="-191.5079" font-family="Helvetica,sans-Serif" font-size="10.00" fill="#000000">1</text>
</a>
</g>
</g>
<!-- dir_2649a81c7f56a709216892bc1285ef27 -->
<g id="node3" class="node">
<title>dir_2649a81c7f56a709216892bc1285ef27</title>
<g id="a_node3"><a xlink:href="dir_2649a81c7f56a709216892bc1285ef27.html" target="_top" xlink:title="draw">
<polygon fill="#ffffff" stroke="#ff0000" points="188.7725,-252 134.7725,-252 134.7725,-216 188.7725,-216 188.7725,-252"/>
<text text-anchor="middle" x="161.7725" y="-231.5" font-family="Helvetica,sans-Serif" font-size="10.00" fill="#000000">draw</text>
</a>
</g>
</g>
<!-- dir_9d372a14fe6df2f36ff1ddf78e4242cb&#45;&gt;dir_2649a81c7f56a709216892bc1285ef27 -->
<g id="edge7" class="edge">
<title>dir_9d372a14fe6df2f36ff1ddf78e4242cb&#45;&gt;dir_2649a81c7f56a709216892bc1285ef27</title>
<path fill="none" stroke="#000000" d="M82.1514,-234C96.2501,-234 110.3489,-234 124.4477,-234"/>
<polygon fill="#000000" stroke="#000000" points="124.7138,-237.5001 134.7137,-234 124.7137,-230.5001 124.7138,-237.5001"/>
<g id="a_edge7&#45;headlabel"><a xlink:href="dir_000105_000013.html" target="_top" xlink:title="1">
<text text-anchor="middle" x="121.1191" y="-237.8393" font-family="Helvetica,sans-Serif" font-size="10.00" fill="#000000">1</text>
</a>
</g>
</g>
<!-- dir_694ec83a64f58cbdefbefce65cd1011c -->
<g id="node4" class="node">
<title>dir_694ec83a64f58cbdefbefce65cd1011c</title>
<g id="a_node4"><a xlink:href="dir_694ec83a64f58cbdefbefce65cd1011c.html" target="_top" xlink:title="kernel">
<polygon fill="#ffffff" stroke="#ff0000" points="168.7725,-108 114.7725,-108 114.7725,-72 168.7725,-72 168.7725,-108"/>
<text text-anchor="middle" x="141.7725" y="-87.5" font-family="Helvetica,sans-Serif" font-size="10.00" fill="#000000">kernel</text>
</a>
</g>
</g>
<!-- dir_9d372a14fe6df2f36ff1ddf78e4242cb&#45;&gt;dir_694ec83a64f58cbdefbefce65cd1011c -->
<g id="edge9" class="edge">
<title>dir_9d372a14fe6df2f36ff1ddf78e4242cb&#45;&gt;dir_694ec83a64f58cbdefbefce65cd1011c</title>
<path fill="none" stroke="#000000" d="M36.4651,-215.7034C20.051,-194.9661 -.5454,-160.8262 16.7725,-136 27.1734,-121.0896 71.9526,-107.1421 104.9564,-98.5995"/>
<polygon fill="#000000" stroke="#000000" points="105.9281,-101.9641 114.7698,-96.1267 104.2177,-95.1763 105.9281,-101.9641"/>
<g id="a_edge9&#45;headlabel"><a xlink:href="dir_000105_000025.html" target="_top" xlink:title="1">
<text text-anchor="middle" x="103.1362" y="-103.0955" font-family="Helvetica,sans-Serif" font-size="10.00" fill="#000000">1</text>
</a>
</g>
</g>
<!-- dir_bdd9a5d540de89e9fe90efdfc6973a4f -->
<g id="node5" class="node">
<title>dir_bdd9a5d540de89e9fe90efdfc6973a4f</title>
<g id="a_node5"><a xlink:href="dir_bdd9a5d540de89e9fe90efdfc6973a4f.html" target="_top" xlink:title="common">
<polygon fill="#ffffff" stroke="#ff0000" points="171.2725,-36 112.2725,-36 112.2725,0 171.2725,0 171.2725,-36"/>
<text text-anchor="middle" x="141.7725" y="-15.5" font-family="Helvetica,sans-Serif" font-size="10.00" fill="#000000">common</text>
</a>
</g>
</g>
<!-- dir_9d372a14fe6df2f36ff1ddf78e4242cb&#45;&gt;dir_bdd9a5d540de89e9fe90efdfc6973a4f -->
<g id="edge10" class="edge">
<title>dir_9d372a14fe6df2f36ff1ddf78e4242cb&#45;&gt;dir_bdd9a5d540de89e9fe90efdfc6973a4f</title>
<path fill="none" stroke="#000000" d="M31.0053,-215.8165C21.3002,-206.2816 10.9128,-193.7355 5.7725,-180 -1.0817,-161.685 -2.3454,-153.791 5.7725,-136 25.6401,-92.4583 70.3886,-58.7915 103.1507,-38.7621"/>
<polygon fill="#000000" stroke="#000000" points="105.2344,-41.5953 112.0428,-33.4776 101.6581,-35.5777 105.2344,-41.5953"/>
<g id="a_edge10&#45;headlabel"><a xlink:href="dir_000105_000000.html" target="_top" xlink:title="4">
<text text-anchor="middle" x="103.5948" y="-43.3725" font-family="Helvetica,sans-Serif" font-size="10.00" fill="#000000">4</text>
</a>
</g>
</g>
<!-- dir_d6c8ea3c46b2d4fe2308a65fe0836890 -->
<g id="node6" class="node">
<title>dir_d6c8ea3c46b2d4fe2308a65fe0836890</title>
<g id="a_node6"><a xlink:href="dir_d6c8ea3c46b2d4fe2308a65fe0836890.html" target="_top" xlink:title="dma">
<polygon fill="#ffffff" stroke="#ff0000" points="151.7725,-180 97.7725,-180 97.7725,-144 151.7725,-144 151.7725,-180"/>
<text text-anchor="middle" x="124.7725" y="-159.5" font-family="Helvetica,sans-Serif" font-size="10.00" fill="#000000">dma</text>
</a>
</g>
</g>
<!-- dir_9d372a14fe6df2f36ff1ddf78e4242cb&#45;&gt;dir_d6c8ea3c46b2d4fe2308a65fe0836890 -->
<g id="edge11" class="edge">
<title>dir_9d372a14fe6df2f36ff1ddf78e4242cb&#45;&gt;dir_d6c8ea3c46b2d4fe2308a65fe0836890</title>
<path fill="none" stroke="#000000" d="M70.9411,-215.8314C79.4877,-207.2848 89.8282,-196.9443 99.1526,-187.6198"/>
<polygon fill="#000000" stroke="#000000" points="101.763,-189.9592 106.3592,-180.4133 96.8132,-185.0095 101.763,-189.9592"/>
<g id="a_edge11&#45;headlabel"><a xlink:href="dir_000105_000011.html" target="_top" xlink:title="2">
<text text-anchor="middle" x="101.2289" y="-192.0087" font-family="Helvetica,sans-Serif" font-size="10.00" fill="#000000">2</text>
</a>
</g>
</g>
<!-- dir_ef7db18cfb93c4891bb35babb04f0d85 -->
<g id="node7" class="node">
<title>dir_ef7db18cfb93c4891bb35babb04f0d85</title>
<g id="a_node7"><a xlink:href="dir_ef7db18cfb93c4891bb35babb04f0d85.html" target="_top" xlink:title="packet">
<polygon fill="#ffffff" stroke="#ff0000" points="223.7725,-180 169.7725,-180 169.7725,-144 223.7725,-144 223.7725,-180"/>
<text text-anchor="middle" x="196.7725" y="-159.5" font-family="Helvetica,sans-Serif" font-size="10.00" fill="#000000">packet</text>
</a>
</g>
</g>
<!-- dir_9d372a14fe6df2f36ff1ddf78e4242cb&#45;&gt;dir_ef7db18cfb93c4891bb35babb04f0d85 -->
<g id="edge12" class="edge">
<title>dir_9d372a14fe6df2f36ff1ddf78e4242cb&#45;&gt;dir_ef7db18cfb93c4891bb35babb04f0d85</title>
<path fill="none" stroke="#000000" d="M81.913,-219.4297C104.549,-208.1117 136.0713,-192.3506 160.3678,-180.2023"/>
<polygon fill="#000000" stroke="#000000" points="162.2447,-183.1771 169.6237,-175.5744 159.1142,-176.9161 162.2447,-183.1771"/>
<g id="a_edge12&#45;headlabel"><a xlink:href="dir_000105_000040.html" target="_top" xlink:title="1">
<text text-anchor="middle" x="160.2993" y="-184.8241" font-family="Helvetica,sans-Serif" font-size="10.00" fill="#000000">1</text>
</a>
</g>
</g>
<!-- dir_2649a81c7f56a709216892bc1285ef27&#45;&gt;dir_587f58ae6bff4b1360d4911800bd5f72 -->
<g id="edge1" class="edge">
<title>dir_2649a81c7f56a709216892bc1285ef27&#45;&gt;dir_587f58ae6bff4b1360d4911800bd5f72</title>
<path fill="none" stroke="#000000" d="M134.5483,-216.0171C120.6325,-206.825 103.5201,-195.5213 88.5521,-185.6342"/>
<polygon fill="#000000" stroke="#000000" points="90.3004,-182.5945 80.0273,-180.0032 86.4422,-188.4353 90.3004,-182.5945"/>
<g id="a_edge1&#45;headlabel"><a xlink:href="dir_000013_000104.html" target="_top" xlink:title="4">
<text text-anchor="middle" x="94.8646" y="-179.7066" font-family="Helvetica,sans-Serif" font-size="10.00" fill="#000000">4</text>
</a>
</g>
</g>
<!-- dir_2649a81c7f56a709216892bc1285ef27&#45;&gt;dir_694ec83a64f58cbdefbefce65cd1011c -->
<g id="edge2" class="edge">
<title>dir_2649a81c7f56a709216892bc1285ef27&#45;&gt;dir_694ec83a64f58cbdefbefce65cd1011c</title>
<path fill="none" stroke="#000000" d="M188.8571,-221.3611C204.8168,-212.3078 223.6232,-198.4534 232.7725,-180 241.4591,-162.4797 243.0169,-152.6575 232.7725,-136 220.9518,-116.7797 198.3423,-105.2953 178.6181,-98.6082"/>
<polygon fill="#000000" stroke="#000000" points="179.5215,-95.2242 168.9339,-95.6155 177.4547,-101.9121 179.5215,-95.2242"/>
<g id="a_edge2&#45;headlabel"><a xlink:href="dir_000013_000025.html" target="_top" xlink:title="4">
<text text-anchor="middle" x="183.7941" y="-91.0727" font-family="Helvetica,sans-Serif" font-size="10.00" fill="#000000">4</text>
</a>
</g>
</g>
<!-- dir_2649a81c7f56a709216892bc1285ef27&#45;&gt;dir_bdd9a5d540de89e9fe90efdfc6973a4f -->
<g id="edge3" class="edge">
<title>dir_2649a81c7f56a709216892bc1285ef27&#45;&gt;dir_bdd9a5d540de89e9fe90efdfc6973a4f</title>
<path fill="none" stroke="#000000" d="M189.0491,-225.4732C209.7986,-217.3859 236.9045,-202.9938 249.7725,-180 259.3226,-162.935 256.4013,-154.3978 249.7725,-136 235.8415,-97.336 201.9275,-63.9419 175.7885,-42.6449"/>
<polygon fill="#000000" stroke="#000000" points="177.6215,-39.6317 167.6102,-36.164 173.2739,-45.118 177.6215,-39.6317"/>
<g id="a_edge3&#45;headlabel"><a xlink:href="dir_000013_000000.html" target="_top" xlink:title="35">
<text text-anchor="middle" x="182.2021" y="-37.139" font-family="Helvetica,sans-Serif" font-size="10.00" fill="#000000">35</text>
</a>
</g>
</g>
<!-- dir_2649a81c7f56a709216892bc1285ef27&#45;&gt;dir_d6c8ea3c46b2d4fe2308a65fe0836890 -->
<g id="edge4" class="edge">
<title>dir_2649a81c7f56a709216892bc1285ef27&#45;&gt;dir_d6c8ea3c46b2d4fe2308a65fe0836890</title>
<path fill="none" stroke="#000000" d="M152.4358,-215.8314C148.3482,-207.8771 143.4621,-198.369 138.9416,-189.5723"/>
<polygon fill="#000000" stroke="#000000" points="141.9186,-187.7078 134.2348,-180.4133 135.6926,-190.9074 141.9186,-187.7078"/>
<g id="a_edge4&#45;headlabel"><a xlink:href="dir_000013_000011.html" target="_top" xlink:title="8">
<text text-anchor="middle" x="146.0869" y="-187.1073" font-family="Helvetica,sans-Serif" font-size="10.00" fill="#000000">8</text>
</a>
</g>
</g>
<!-- dir_2649a81c7f56a709216892bc1285ef27&#45;&gt;dir_ef7db18cfb93c4891bb35babb04f0d85 -->
<g id="edge5" class="edge">
<title>dir_2649a81c7f56a709216892bc1285ef27&#45;&gt;dir_ef7db18cfb93c4891bb35babb04f0d85</title>
<path fill="none" stroke="#000000" d="M170.6045,-215.8314C174.4711,-207.8771 179.0931,-198.369 183.3693,-189.5723"/>
<polygon fill="#000000" stroke="#000000" points="186.5974,-190.9371 187.8216,-180.4133 180.3018,-187.8768 186.5974,-190.9371"/>
<g id="a_edge5&#45;headlabel"><a xlink:href="dir_000013_000040.html" target="_top" xlink:title="3">
<text text-anchor="middle" x="187.5795" y="-192.9113" font-family="Helvetica,sans-Serif" font-size="10.00" fill="#000000">3</text>
</a>
</g>
</g>
<!-- dir_694ec83a64f58cbdefbefce65cd1011c&#45;&gt;dir_bdd9a5d540de89e9fe90efdfc6973a4f -->
<g id="edge6" class="edge">
<title>dir_694ec83a64f58cbdefbefce65cd1011c&#45;&gt;dir_bdd9a5d540de89e9fe90efdfc6973a4f</title>
<path fill="none" stroke="#000000" d="M141.7725,-71.8314C141.7725,-64.131 141.7725,-54.9743 141.7725,-46.4166"/>
<polygon fill="#000000" stroke="#000000" points="145.2726,-46.4132 141.7725,-36.4133 138.2726,-46.4133 145.2726,-46.4132"/>
<g id="a_edge6&#45;headlabel"><a xlink:href="dir_000025_000000.html" target="_top" xlink:title="24">
<text text-anchor="middle" x="148.1117" y="-47.5079" font-family="Helvetica,sans-Serif" font-size="10.00" fill="#000000">24</text>
</a>
</g>
</g>
<!-- dir_d6c8ea3c46b2d4fe2308a65fe0836890&#45;&gt;dir_694ec83a64f58cbdefbefce65cd1011c -->
<g id="edge14" class="edge">
<title>dir_d6c8ea3c46b2d4fe2308a65fe0836890&#45;&gt;dir_694ec83a64f58cbdefbefce65cd1011c</title>
<path fill="none" stroke="#000000" d="M129.0623,-143.8314C130.8804,-136.131 133.0424,-126.9743 135.063,-118.4166"/>
<polygon fill="#000000" stroke="#000000" points="138.5332,-118.95 137.4249,-108.4133 131.7206,-117.3414 138.5332,-118.95"/>
<g id="a_edge14&#45;headlabel"><a xlink:href="dir_000011_000025.html" target="_top" xlink:title="1">
<text text-anchor="middle" x="140.4706" y="-120.6008" font-family="Helvetica,sans-Serif" font-size="10.00" fill="#000000">1</text>
</a>
</g>
</g>
<!-- dir_d6c8ea3c46b2d4fe2308a65fe0836890&#45;&gt;dir_bdd9a5d540de89e9fe90efdfc6973a4f -->
<g id="edge13" class="edge">
<title>dir_d6c8ea3c46b2d4fe2308a65fe0836890&#45;&gt;dir_bdd9a5d540de89e9fe90efdfc6973a4f</title>
<path fill="none" stroke="#000000" d="M115.6371,-143.8403C107.6411,-125.4973 98.3682,-96.4547 105.7725,-72 108.7289,-62.2355 114.0977,-52.6229 119.8024,-44.2762"/>
<polygon fill="#000000" stroke="#000000" points="122.7139,-46.2239 125.782,-36.0831 117.0596,-42.0973 122.7139,-46.2239"/>
<g id="a_edge13&#45;headlabel"><a xlink:href="dir_000011_000000.html" target="_top" xlink:title="4">
<text text-anchor="middle" x="122.8883" y="-48.3013" font-family="Helvetica,sans-Serif" font-size="10.00" fill="#000000">4</text>
</a>
</g>
</g>
<!-- dir_ef7db18cfb93c4891bb35babb04f0d85&#45;&gt;dir_bdd9a5d540de89e9fe90efdfc6973a4f -->
<g id="edge15" class="edge">
<title>dir_ef7db18cfb93c4891bb35babb04f0d85&#45;&gt;dir_bdd9a5d540de89e9fe90efdfc6973a4f</title>
<path fill="none" stroke="#000000" d="M194.982,-143.8083C192.6837,-125.1875 187.738,-95.7008 177.7725,-72 173.8181,-62.5953 168.1573,-53.0879 162.4919,-44.727"/>
<polygon fill="#000000" stroke="#000000" points="165.2909,-42.6231 156.6577,-36.4815 159.5766,-46.6664 165.2909,-42.6231"/>
<g id="a_edge15&#45;headlabel"><a xlink:href="dir_000040_000000.html" target="_top" xlink:title="1">
<text text-anchor="middle" x="169.6848" y="-41.4175" font-family="Helvetica,sans-Serif" font-size="10.00" fill="#000000">1</text>
</a>
</g>
</g>
</g>
</svg>
