<?xml version="1.0" encoding="UTF-8" standalone="no"?>
<!DOCTYPE svg PUBLIC "-//W3C//DTD SVG 1.1//EN"
 "http://www.w3.org/Graphics/SVG/1.1/DTD/svg11.dtd">
<!-- Generated by graphviz version 2.40.1 (20161225.0304)
 -->
<!-- Title: ee/sbv/src Pages: 1 -->
<svg width="208pt" height="295pt"
 viewBox="0.00 0.00 208.16 295.00" xmlns="http://www.w3.org/2000/svg" xmlns:xlink="http://www.w3.org/1999/xlink">
<g id="graph0" class="graph" transform="scale(1 1) rotate(0) translate(4 291)">
<title>ee/sbv/src</title>
<polygon fill="#ffffff" stroke="transparent" points="-4,4 -4,-291 204.1593,-291 204.1593,4 -4,4"/>
<g id="clust1" class="cluster">
<title>clusterdir_3c99d3595cafa99f0e2683197c97edf9</title>
<g id="a_clust1"><a xlink:href="dir_3c99d3595cafa99f0e2683197c97edf9.html" target="_top" xlink:title="sbv">
<polygon fill="#ddddee" stroke="#000000" points="8,-136 8,-279 78,-279 78,-136 8,-136"/>
<text text-anchor="middle" x="43" y="-267" font-family="Helvetica,sans-Serif" font-size="10.00" fill="#000000">sbv</text>
</a>
</g>
</g>
<!-- dir_4235aca40d92d2d6923267ff8588d97a -->
<g id="node1" class="node">
<title>dir_4235aca40d92d2d6923267ff8588d97a</title>
<g id="a_node1"><a xlink:href="dir_4235aca40d92d2d6923267ff8588d97a.html" target="_top" xlink:title="include">
<polygon fill="none" stroke="#000000" points="70,-180 16,-180 16,-144 70,-144 70,-180"/>
<text text-anchor="middle" x="43" y="-159.5" font-family="Helvetica,sans-Serif" font-size="10.00" fill="#000000">include</text>
</a>
</g>
</g>
<!-- dir_bdd9a5d540de89e9fe90efdfc6973a4f -->
<g id="node5" class="node">
<title>dir_bdd9a5d540de89e9fe90efdfc6973a4f</title>
<g id="a_node5"><a xlink:href="dir_bdd9a5d540de89e9fe90efdfc6973a4f.html" target="_top" xlink:title="common">
<polygon fill="#ffffff" stroke="#ff0000" points="162.5,-36 103.5,-36 103.5,0 162.5,0 162.5,-36"/>
<text text-anchor="middle" x="133" y="-15.5" font-family="Helvetica,sans-Serif" font-size="10.00" fill="#000000">common</text>
</a>
</g>
</g>
<!-- dir_4235aca40d92d2d6923267ff8588d97a&#45;&gt;dir_bdd9a5d540de89e9fe90efdfc6973a4f -->
<g id="edge1" class="edge">
<title>dir_4235aca40d92d2d6923267ff8588d97a&#45;&gt;dir_bdd9a5d540de89e9fe90efdfc6973a4f</title>
<path fill="none" stroke="#000000" d="M45.3596,-143.8213C48.518,-124.6806 55.4989,-94.288 70,-72 77.1908,-60.9478 87.2934,-50.8957 97.3062,-42.5413"/>
<polygon fill="#000000" stroke="#000000" points="99.6098,-45.1813 105.2597,-36.2187 95.2538,-39.7017 99.6098,-45.1813"/>
<g id="a_edge1&#45;headlabel"><a xlink:href="dir_000166_000000.html" target="_top" xlink:title="3">
<text text-anchor="middle" x="98.5628" y="-47.1407" font-family="Helvetica,sans-Serif" font-size="10.00" fill="#000000">3</text>
</a>
</g>
</g>
<!-- dir_efd911068bd98c5b8ecc421070f7e163 -->
<g id="node2" class="node">
<title>dir_efd911068bd98c5b8ecc421070f7e163</title>
<g id="a_node2"><a xlink:href="dir_efd911068bd98c5b8ecc421070f7e163.html" target="_top" xlink:title="src">
<polygon fill="#eeeeff" stroke="#000000" points="70,-252 16,-252 16,-216 70,-216 70,-252"/>
<text text-anchor="middle" x="43" y="-231.5" font-family="Helvetica,sans-Serif" font-size="10.00" fill="#000000">src</text>
</a>
</g>
</g>
<!-- dir_efd911068bd98c5b8ecc421070f7e163&#45;&gt;dir_4235aca40d92d2d6923267ff8588d97a -->
<g id="edge6" class="edge">
<title>dir_efd911068bd98c5b8ecc421070f7e163&#45;&gt;dir_4235aca40d92d2d6923267ff8588d97a</title>
<path fill="none" stroke="#000000" d="M43,-215.8314C43,-208.131 43,-198.9743 43,-190.4166"/>
<polygon fill="#000000" stroke="#000000" points="46.5001,-190.4132 43,-180.4133 39.5001,-190.4133 46.5001,-190.4132"/>
<g id="a_edge6&#45;headlabel"><a xlink:href="dir_000078_000166.html" target="_top" xlink:title="14">
<text text-anchor="middle" x="49.3393" y="-191.5079" font-family="Helvetica,sans-Serif" font-size="10.00" fill="#000000">14</text>
</a>
</g>
</g>
<!-- dir_694ec83a64f58cbdefbefce65cd1011c -->
<g id="node3" class="node">
<title>dir_694ec83a64f58cbdefbefce65cd1011c</title>
<g id="a_node3"><a xlink:href="dir_694ec83a64f58cbdefbefce65cd1011c.html" target="_top" xlink:title="kernel">
<polygon fill="#ffffff" stroke="#ff0000" points="180,-180 126,-180 126,-144 180,-144 180,-180"/>
<text text-anchor="middle" x="153" y="-159.5" font-family="Helvetica,sans-Serif" font-size="10.00" fill="#000000">kernel</text>
</a>
</g>
</g>
<!-- dir_efd911068bd98c5b8ecc421070f7e163&#45;&gt;dir_694ec83a64f58cbdefbefce65cd1011c -->
<g id="edge7" class="edge">
<title>dir_efd911068bd98c5b8ecc421070f7e163&#45;&gt;dir_694ec83a64f58cbdefbefce65cd1011c</title>
<path fill="none" stroke="#000000" d="M70.191,-216.2022C84.3378,-206.9425 101.8157,-195.5025 117.063,-185.5224"/>
<polygon fill="#000000" stroke="#000000" points="119.2903,-188.2476 125.7406,-179.8425 115.4567,-182.3907 119.2903,-188.2476"/>
<g id="a_edge7&#45;headlabel"><a xlink:href="dir_000078_000025.html" target="_top" xlink:title="15">
<text text-anchor="middle" x="117.8377" y="-190.0918" font-family="Helvetica,sans-Serif" font-size="10.00" fill="#000000">15</text>
</a>
</g>
</g>
<!-- dir_a0a8ac7efb6662b749c1285408048e6d -->
<g id="node4" class="node">
<title>dir_a0a8ac7efb6662b749c1285408048e6d</title>
<g id="a_node4"><a xlink:href="dir_a0a8ac7efb6662b749c1285408048e6d.html" target="_top" xlink:title="erl">
<polygon fill="#ffffff" stroke="#ff0000" points="133,-108 79,-108 79,-72 133,-72 133,-108"/>
<text text-anchor="middle" x="106" y="-87.5" font-family="Helvetica,sans-Serif" font-size="10.00" fill="#000000">erl</text>
</a>
</g>
</g>
<!-- dir_efd911068bd98c5b8ecc421070f7e163&#45;&gt;dir_a0a8ac7efb6662b749c1285408048e6d -->
<g id="edge8" class="edge">
<title>dir_efd911068bd98c5b8ecc421070f7e163&#45;&gt;dir_a0a8ac7efb6662b749c1285408048e6d</title>
<path fill="none" stroke="#000000" d="M57.0996,-215.8184C64.4202,-205.7069 73.0524,-192.6424 79,-180 88.3461,-160.1337 95.3277,-136.2809 99.8478,-118.1241"/>
<polygon fill="#000000" stroke="#000000" points="103.3076,-118.7043 102.224,-108.165 96.4987,-117.0797 103.3076,-118.7043"/>
<g id="a_edge8&#45;headlabel"><a xlink:href="dir_000078_000097.html" target="_top" xlink:title="1">
<text text-anchor="middle" x="105.2351" y="-120.3597" font-family="Helvetica,sans-Serif" font-size="10.00" fill="#000000">1</text>
</a>
</g>
</g>
<!-- dir_efd911068bd98c5b8ecc421070f7e163&#45;&gt;dir_bdd9a5d540de89e9fe90efdfc6973a4f -->
<g id="edge9" class="edge">
<title>dir_efd911068bd98c5b8ecc421070f7e163&#45;&gt;dir_bdd9a5d540de89e9fe90efdfc6973a4f</title>
<path fill="none" stroke="#000000" d="M70.2878,-227.8256C108.5672,-218.5482 175.1008,-199.9603 189,-180 218.472,-137.6761 182.3722,-78.4092 155.9772,-44.5386"/>
<polygon fill="#000000" stroke="#000000" points="158.5122,-42.1055 149.5215,-36.5003 153.0544,-46.4888 158.5122,-42.1055"/>
<g id="a_edge9&#45;headlabel"><a xlink:href="dir_000078_000000.html" target="_top" xlink:title="6">
<text text-anchor="middle" x="162.9767" y="-40.6303" font-family="Helvetica,sans-Serif" font-size="10.00" fill="#000000">6</text>
</a>
</g>
</g>
<!-- dir_694ec83a64f58cbdefbefce65cd1011c&#45;&gt;dir_a0a8ac7efb6662b749c1285408048e6d -->
<g id="edge3" class="edge">
<title>dir_694ec83a64f58cbdefbefce65cd1011c&#45;&gt;dir_a0a8ac7efb6662b749c1285408048e6d</title>
<path fill="none" stroke="#000000" d="M135.1875,-143.8314C129.1565,-135.7925 122.6666,-126.1666 117.2442,-117.2918"/>
<polygon fill="#000000" stroke="#000000" points="120.118,-115.2731 112.0438,-108.4133 114.0778,-118.811 120.118,-115.2731"/>
<g id="a_edge3&#45;headlabel"><a xlink:href="dir_000025_000097.html" target="_top" xlink:title="1">
<text text-anchor="middle" x="124.3847" y="-114.4398" font-family="Helvetica,sans-Serif" font-size="10.00" fill="#000000">1</text>
</a>
</g>
</g>
<!-- dir_694ec83a64f58cbdefbefce65cd1011c&#45;&gt;dir_bdd9a5d540de89e9fe90efdfc6973a4f -->
<g id="edge2" class="edge">
<title>dir_694ec83a64f58cbdefbefce65cd1011c&#45;&gt;dir_bdd9a5d540de89e9fe90efdfc6973a4f</title>
<path fill="none" stroke="#000000" d="M150.9994,-143.6975C148.9536,-125.4905 145.5764,-96.7718 142,-72 140.7968,-63.6662 139.3485,-54.6333 137.9689,-46.3832"/>
<polygon fill="#000000" stroke="#000000" points="141.4089,-45.7349 136.2816,-36.4634 134.5081,-46.9087 141.4089,-45.7349"/>
<g id="a_edge2&#45;headlabel"><a xlink:href="dir_000025_000000.html" target="_top" xlink:title="24">
<text text-anchor="middle" x="144.8107" y="-46.3026" font-family="Helvetica,sans-Serif" font-size="10.00" fill="#000000">24</text>
</a>
</g>
</g>
<!-- dir_a0a8ac7efb6662b749c1285408048e6d&#45;&gt;dir_694ec83a64f58cbdefbefce65cd1011c -->
<g id="edge5" class="edge">
<title>dir_a0a8ac7efb6662b749c1285408048e6d&#45;&gt;dir_694ec83a64f58cbdefbefce65cd1011c</title>
<path fill="none" stroke="#000000" d="M123.9958,-108.4133C130.0359,-116.484 136.5195,-126.1182 141.9202,-134.9775"/>
<polygon fill="#000000" stroke="#000000" points="139.0261,-136.9621 147.0923,-143.8314 145.0703,-133.4312 139.0261,-136.9621"/>
<g id="a_edge5&#45;headlabel"><a xlink:href="dir_000097_000025.html" target="_top" xlink:title="1">
<text text-anchor="middle" x="134.7613" y="-132.7904" font-family="Helvetica,sans-Serif" font-size="10.00" fill="#000000">1</text>
</a>
</g>
</g>
<!-- dir_a0a8ac7efb6662b749c1285408048e6d&#45;&gt;dir_bdd9a5d540de89e9fe90efdfc6973a4f -->
<g id="edge4" class="edge">
<title>dir_a0a8ac7efb6662b749c1285408048e6d&#45;&gt;dir_bdd9a5d540de89e9fe90efdfc6973a4f</title>
<path fill="none" stroke="#000000" d="M112.8132,-71.8314C115.7644,-63.9617 119.2858,-54.5712 122.555,-45.8533"/>
<polygon fill="#000000" stroke="#000000" points="125.8609,-47.0055 126.095,-36.4133 119.3066,-44.5476 125.8609,-47.0055"/>
<g id="a_edge4&#45;headlabel"><a xlink:href="dir_000097_000000.html" target="_top" xlink:title="3">
<text text-anchor="middle" x="127.2573" y="-48.8682" font-family="Helvetica,sans-Serif" font-size="10.00" fill="#000000">3</text>
</a>
</g>
</g>
</g>
</svg>
