<?xml version="1.0" encoding="UTF-8" standalone="no"?>
<!DOCTYPE svg PUBLIC "-//W3C//DTD SVG 1.1//EN"
 "http://www.w3.org/Graphics/SVG/1.1/DTD/svg11.dtd">
<!-- Generated by graphviz version 2.40.1 (20161225.0304)
 -->
<!-- Title: ee/libc Pages: 1 -->
<svg width="258pt" height="231pt"
 viewBox="0.00 0.00 257.50 231.00" xmlns="http://www.w3.org/2000/svg" xmlns:xlink="http://www.w3.org/1999/xlink">
<g id="graph0" class="graph" transform="scale(1 1) rotate(0) translate(4 227)">
<title>ee/libc</title>
<polygon fill="#ffffff" stroke="transparent" points="-4,4 -4,-227 253.5,-227 253.5,4 -4,4"/>
<g id="clust1" class="cluster">
<title>clusterdir_049738f1909e8dc3e45fe1f6b3faa109</title>
<g id="a_clust1"><a xlink:href="dir_049738f1909e8dc3e45fe1f6b3faa109.html" target="_top" xlink:title="ee">
<polygon fill="#ddddee" stroke="#000000" points="8,-56 8,-215 228,-215 228,-56 8,-56"/>
<text text-anchor="middle" x="118" y="-203" font-family="Helvetica,sans-Serif" font-size="10.00" fill="#000000">ee</text>
</a>
</g>
</g>
<g id="clust2" class="cluster">
<title>clusterdir_4bdd3f0b1709457e1be42b8162664eee</title>
<g id="a_clust2"><a xlink:href="dir_4bdd3f0b1709457e1be42b8162664eee.html" target="_top">
<polygon fill="#eeeeff" stroke="#000000" points="16,-64 16,-188 158,-188 158,-64 16,-64"/>
</a>
</g>
</g>
<!-- dir_694ec83a64f58cbdefbefce65cd1011c -->
<g id="node1" class="node">
<title>dir_694ec83a64f58cbdefbefce65cd1011c</title>
<g id="a_node1"><a xlink:href="dir_694ec83a64f58cbdefbefce65cd1011c.html" target="_top" xlink:title="kernel">
<polygon fill="#ffffff" stroke="#ff0000" points="220,-108 166,-108 166,-72 220,-72 220,-108"/>
<text text-anchor="middle" x="193" y="-87.5" font-family="Helvetica,sans-Serif" font-size="10.00" fill="#000000">kernel</text>
</a>
</g>
</g>
<!-- dir_39d6953f1eb69dcf4512295f197273ef -->
<g id="node3" class="node">
<title>dir_39d6953f1eb69dcf4512295f197273ef</title>
<g id="a_node3"><a xlink:href="dir_39d6953f1eb69dcf4512295f197273ef.html" target="_top" xlink:title="include">
<polygon fill="#ffffff" stroke="#000000" points="113,-108 59,-108 59,-72 113,-72 113,-108"/>
<text text-anchor="middle" x="86" y="-87.5" font-family="Helvetica,sans-Serif" font-size="10.00" fill="#000000">include</text>
</a>
</g>
</g>
<!-- dir_694ec83a64f58cbdefbefce65cd1011c&#45;&gt;dir_39d6953f1eb69dcf4512295f197273ef -->
<g id="edge2" class="edge">
<title>dir_694ec83a64f58cbdefbefce65cd1011c&#45;&gt;dir_39d6953f1eb69dcf4512295f197273ef</title>
<path fill="none" stroke="#000000" d="M165.8696,-90C151.7335,-90 137.5974,-90 123.4613,-90"/>
<polygon fill="#000000" stroke="#000000" points="123.168,-86.5001 113.168,-90 123.1679,-93.5001 123.168,-86.5001"/>
<g id="a_edge2&#45;headlabel"><a xlink:href="dir_000025_000119.html" target="_top" xlink:title="1">
<text text-anchor="middle" x="126.7626" y="-81.1607" font-family="Helvetica,sans-Serif" font-size="10.00" fill="#000000">1</text>
</a>
</g>
</g>
<!-- dir_bdd9a5d540de89e9fe90efdfc6973a4f -->
<g id="node5" class="node">
<title>dir_bdd9a5d540de89e9fe90efdfc6973a4f</title>
<g id="a_node5"><a xlink:href="dir_bdd9a5d540de89e9fe90efdfc6973a4f.html" target="_top" xlink:title="common">
<polygon fill="#ffffff" stroke="#ff0000" points="249.5,-36 190.5,-36 190.5,0 249.5,0 249.5,-36"/>
<text text-anchor="middle" x="220" y="-15.5" font-family="Helvetica,sans-Serif" font-size="10.00" fill="#000000">common</text>
</a>
</g>
</g>
<!-- dir_694ec83a64f58cbdefbefce65cd1011c&#45;&gt;dir_bdd9a5d540de89e9fe90efdfc6973a4f -->
<g id="edge1" class="edge">
<title>dir_694ec83a64f58cbdefbefce65cd1011c&#45;&gt;dir_bdd9a5d540de89e9fe90efdfc6973a4f</title>
<path fill="none" stroke="#000000" d="M199.8132,-71.8314C202.7644,-63.9617 206.2858,-54.5712 209.555,-45.8533"/>
<polygon fill="#000000" stroke="#000000" points="212.8609,-47.0055 213.095,-36.4133 206.3066,-44.5476 212.8609,-47.0055"/>
<g id="a_edge1&#45;headlabel"><a xlink:href="dir_000025_000000.html" target="_top" xlink:title="24">
<text text-anchor="middle" x="214.2573" y="-48.8682" font-family="Helvetica,sans-Serif" font-size="10.00" fill="#000000">24</text>
</a>
</g>
</g>
<!-- dir_4bdd3f0b1709457e1be42b8162664eee -->
<g id="node2" class="node">
<title>dir_4bdd3f0b1709457e1be42b8162664eee</title>
<text text-anchor="middle" x="123" y="-159.5" font-family="Helvetica,sans-Serif" font-size="10.00" fill="#000000">libc</text>
</g>
<!-- dir_98e6ef8179a6a3884f43ad475401c7a7 -->
<g id="node4" class="node">
<title>dir_98e6ef8179a6a3884f43ad475401c7a7</title>
<g id="a_node4"><a xlink:href="dir_98e6ef8179a6a3884f43ad475401c7a7.html" target="_top" xlink:title="src">
<polygon fill="#ffffff" stroke="#000000" points="78,-180 24,-180 24,-144 78,-144 78,-180"/>
<text text-anchor="middle" x="51" y="-159.5" font-family="Helvetica,sans-Serif" font-size="10.00" fill="#000000">src</text>
</a>
</g>
</g>
<!-- dir_98e6ef8179a6a3884f43ad475401c7a7&#45;&gt;dir_694ec83a64f58cbdefbefce65cd1011c -->
<g id="edge4" class="edge">
<title>dir_98e6ef8179a6a3884f43ad475401c7a7&#45;&gt;dir_694ec83a64f58cbdefbefce65cd1011c</title>
<path fill="none" stroke="#000000" d="M78.1036,-148.3897C81.102,-146.9015 84.1135,-145.4143 87,-144 117.2201,-129.1933 127.4879,-125.8457 156.503,-110.829"/>
<polygon fill="#000000" stroke="#000000" points="158.4483,-113.761 165.6807,-106.0187 155.1987,-107.561 158.4483,-113.761"/>
<g id="a_edge4&#45;headlabel"><a xlink:href="dir_000120_000025.html" target="_top" xlink:title="9">
<text text-anchor="middle" x="156.5826" y="-115.4445" font-family="Helvetica,sans-Serif" font-size="10.00" fill="#000000">9</text>
</a>
</g>
</g>
<!-- dir_98e6ef8179a6a3884f43ad475401c7a7&#45;&gt;dir_39d6953f1eb69dcf4512295f197273ef -->
<g id="edge3" class="edge">
<title>dir_98e6ef8179a6a3884f43ad475401c7a7&#45;&gt;dir_39d6953f1eb69dcf4512295f197273ef</title>
<path fill="none" stroke="#000000" d="M59.832,-143.8314C63.6986,-135.8771 68.3206,-126.369 72.5968,-117.5723"/>
<polygon fill="#000000" stroke="#000000" points="75.8249,-118.9371 77.0491,-108.4133 69.5293,-115.8768 75.8249,-118.9371"/>
<g id="a_edge3&#45;headlabel"><a xlink:href="dir_000120_000119.html" target="_top" xlink:title="4">
<text text-anchor="middle" x="76.807" y="-120.9113" font-family="Helvetica,sans-Serif" font-size="10.00" fill="#000000">4</text>
</a>
</g>
</g>
<!-- dir_98e6ef8179a6a3884f43ad475401c7a7&#45;&gt;dir_bdd9a5d540de89e9fe90efdfc6973a4f -->
<g id="edge5" class="edge">
<title>dir_98e6ef8179a6a3884f43ad475401c7a7&#45;&gt;dir_bdd9a5d540de89e9fe90efdfc6973a4f</title>
<path fill="none" stroke="#000000" d="M78.2407,-147.6023C81.1591,-146.2946 84.1155,-145.0644 87,-144 149.2951,-121.013 191.0936,-160.3044 232,-108 245.6447,-90.5534 240.6964,-65.1461 233.4546,-45.7724"/>
<polygon fill="#000000" stroke="#000000" points="236.5853,-44.1826 229.5449,-36.2654 230.1113,-46.845 236.5853,-44.1826"/>
<g id="a_edge5&#45;headlabel"><a xlink:href="dir_000120_000000.html" target="_top" xlink:title="6">
<text text-anchor="middle" x="240.5783" y="-43.9272" font-family="Helvetica,sans-Serif" font-size="10.00" fill="#000000">6</text>
</a>
</g>
</g>
</g>
</svg>
