<?xml version="1.0" encoding="UTF-8" standalone="no"?>
<!DOCTYPE svg PUBLIC "-//W3C//DTD SVG 1.1//EN"
 "http://www.w3.org/Graphics/SVG/1.1/DTD/svg11.dtd">
<!-- Generated by graphviz version 2.40.1 (20161225.0304)
 -->
<!-- Title: ee/math3d Pages: 1 -->
<svg width="264pt" height="303pt"
 viewBox="0.00 0.00 264.00 303.00" xmlns="http://www.w3.org/2000/svg" xmlns:xlink="http://www.w3.org/1999/xlink">
<g id="graph0" class="graph" transform="scale(1 1) rotate(0) translate(4 299)">
<title>ee/math3d</title>
<polygon fill="#ffffff" stroke="transparent" points="-4,4 -4,-299 260,-299 260,4 -4,4"/>
<g id="clust1" class="cluster">
<title>clusterdir_049738f1909e8dc3e45fe1f6b3faa109</title>
<g id="a_clust1"><a xlink:href="dir_049738f1909e8dc3e45fe1f6b3faa109.html" target="_top" xlink:title="ee">
<polygon fill="#ddddee" stroke="#000000" points="8,-64 8,-287 248,-287 248,-64 8,-64"/>
<text text-anchor="middle" x="128" y="-275" font-family="Helvetica,sans-Serif" font-size="10.00" fill="#000000">ee</text>
</a>
</g>
</g>
<g id="clust2" class="cluster">
<title>clusterdir_ef61ae23abebf035898b2c6525d9b365</title>
<g id="a_clust2"><a xlink:href="dir_ef61ae23abebf035898b2c6525d9b365.html" target="_top">
<polygon fill="#eeeeff" stroke="#000000" points="98,-136 98,-260 240,-260 240,-136 98,-136"/>
</a>
</g>
</g>
<!-- dir_a0a8ac7efb6662b749c1285408048e6d -->
<g id="node1" class="node">
<title>dir_a0a8ac7efb6662b749c1285408048e6d</title>
<g id="a_node1"><a xlink:href="dir_a0a8ac7efb6662b749c1285408048e6d.html" target="_top" xlink:title="erl">
<polygon fill="#ffffff" stroke="#ff0000" points="70,-108 16,-108 16,-72 70,-72 70,-108"/>
<text text-anchor="middle" x="43" y="-87.5" font-family="Helvetica,sans-Serif" font-size="10.00" fill="#000000">erl</text>
</a>
</g>
</g>
<!-- dir_bdd9a5d540de89e9fe90efdfc6973a4f -->
<g id="node6" class="node">
<title>dir_bdd9a5d540de89e9fe90efdfc6973a4f</title>
<g id="a_node6"><a xlink:href="dir_bdd9a5d540de89e9fe90efdfc6973a4f.html" target="_top" xlink:title="common">
<polygon fill="#ffffff" stroke="#ff0000" points="146.5,-36 87.5,-36 87.5,0 146.5,0 146.5,-36"/>
<text text-anchor="middle" x="117" y="-15.5" font-family="Helvetica,sans-Serif" font-size="10.00" fill="#000000">common</text>
</a>
</g>
</g>
<!-- dir_a0a8ac7efb6662b749c1285408048e6d&#45;&gt;dir_bdd9a5d540de89e9fe90efdfc6973a4f -->
<g id="edge3" class="edge">
<title>dir_a0a8ac7efb6662b749c1285408048e6d&#45;&gt;dir_bdd9a5d540de89e9fe90efdfc6973a4f</title>
<path fill="none" stroke="#000000" d="M61.6733,-71.8314C70.5249,-63.219 81.2486,-52.7851 90.8895,-43.4048"/>
<polygon fill="#000000" stroke="#000000" points="93.6061,-45.645 98.3326,-36.1628 88.7246,-40.6279 93.6061,-45.645"/>
<g id="a_edge3&#45;headlabel"><a xlink:href="dir_000097_000000.html" target="_top" xlink:title="3">
<text text-anchor="middle" x="93.0098" y="-47.6866" font-family="Helvetica,sans-Serif" font-size="10.00" fill="#000000">3</text>
</a>
</g>
</g>
<!-- dir_933591e1cd95ed33f946db8a4302cbd1 -->
<g id="node2" class="node">
<title>dir_933591e1cd95ed33f946db8a4302cbd1</title>
<g id="a_node2"><a xlink:href="dir_933591e1cd95ed33f946db8a4302cbd1.html" target="_top" xlink:title="graph">
<polygon fill="#ffffff" stroke="#ff0000" points="90,-180 36,-180 36,-144 90,-144 90,-180"/>
<text text-anchor="middle" x="63" y="-159.5" font-family="Helvetica,sans-Serif" font-size="10.00" fill="#000000">graph</text>
</a>
</g>
</g>
<!-- dir_933591e1cd95ed33f946db8a4302cbd1&#45;&gt;dir_a0a8ac7efb6662b749c1285408048e6d -->
<g id="edge2" class="edge">
<title>dir_933591e1cd95ed33f946db8a4302cbd1&#45;&gt;dir_a0a8ac7efb6662b749c1285408048e6d</title>
<path fill="none" stroke="#000000" d="M57.9532,-143.8314C55.7906,-136.0463 53.2147,-126.7729 50.8152,-118.1347"/>
<polygon fill="#000000" stroke="#000000" points="54.1636,-117.1117 48.1148,-108.4133 47.419,-118.9852 54.1636,-117.1117"/>
<g id="a_edge2&#45;headlabel"><a xlink:href="dir_000019_000097.html" target="_top" xlink:title="1">
<text text-anchor="middle" x="57.8613" y="-117.3153" font-family="Helvetica,sans-Serif" font-size="10.00" fill="#000000">1</text>
</a>
</g>
</g>
<!-- dir_933591e1cd95ed33f946db8a4302cbd1&#45;&gt;dir_bdd9a5d540de89e9fe90efdfc6973a4f -->
<g id="edge1" class="edge">
<title>dir_933591e1cd95ed33f946db8a4302cbd1&#45;&gt;dir_bdd9a5d540de89e9fe90efdfc6973a4f</title>
<path fill="none" stroke="#000000" d="M69.8391,-143.7623C79.1308,-118.9846 95.8232,-74.4714 106.6523,-45.5939"/>
<polygon fill="#000000" stroke="#000000" points="109.9822,-46.6819 110.2164,-36.0896 103.4279,-44.224 109.9822,-46.6819"/>
<g id="a_edge1&#45;headlabel"><a xlink:href="dir_000019_000000.html" target="_top" xlink:title="8">
<text text-anchor="middle" x="111.3787" y="-48.5445" font-family="Helvetica,sans-Serif" font-size="10.00" fill="#000000">8</text>
</a>
</g>
</g>
<!-- dir_ef61ae23abebf035898b2c6525d9b365 -->
<g id="node3" class="node">
<title>dir_ef61ae23abebf035898b2c6525d9b365</title>
<text text-anchor="middle" x="205" y="-231.5" font-family="Helvetica,sans-Serif" font-size="10.00" fill="#000000">math3d</text>
</g>
<!-- dir_b2ec982152147e07bc20d03fb22ae98b -->
<g id="node4" class="node">
<title>dir_b2ec982152147e07bc20d03fb22ae98b</title>
<g id="a_node4"><a xlink:href="dir_b2ec982152147e07bc20d03fb22ae98b.html" target="_top" xlink:title="include">
<polygon fill="#ffffff" stroke="#000000" points="162,-180 108,-180 108,-144 162,-144 162,-180"/>
<text text-anchor="middle" x="135" y="-159.5" font-family="Helvetica,sans-Serif" font-size="10.00" fill="#000000">include</text>
</a>
</g>
</g>
<!-- dir_b2ec982152147e07bc20d03fb22ae98b&#45;&gt;dir_bdd9a5d540de89e9fe90efdfc6973a4f -->
<g id="edge4" class="edge">
<title>dir_b2ec982152147e07bc20d03fb22ae98b&#45;&gt;dir_bdd9a5d540de89e9fe90efdfc6973a4f</title>
<path fill="none" stroke="#000000" d="M132.7203,-143.7623C129.6501,-119.201 124.1559,-75.2474 120.5443,-46.3541"/>
<polygon fill="#000000" stroke="#000000" points="123.9746,-45.5782 119.2612,-36.0896 117.0287,-46.4465 123.9746,-45.5782"/>
<g id="a_edge4&#45;headlabel"><a xlink:href="dir_000123_000000.html" target="_top" xlink:title="1">
<text text-anchor="middle" x="127.2377" y="-46.293" font-family="Helvetica,sans-Serif" font-size="10.00" fill="#000000">1</text>
</a>
</g>
</g>
<!-- dir_cf43a48f832f5c6078b2594de76b351f -->
<g id="node5" class="node">
<title>dir_cf43a48f832f5c6078b2594de76b351f</title>
<g id="a_node5"><a xlink:href="dir_cf43a48f832f5c6078b2594de76b351f.html" target="_top" xlink:title="src">
<polygon fill="#ffffff" stroke="#000000" points="160,-252 106,-252 106,-216 160,-216 160,-252"/>
<text text-anchor="middle" x="133" y="-231.5" font-family="Helvetica,sans-Serif" font-size="10.00" fill="#000000">src</text>
</a>
</g>
</g>
<!-- dir_cf43a48f832f5c6078b2594de76b351f&#45;&gt;dir_a0a8ac7efb6662b749c1285408048e6d -->
<g id="edge6" class="edge">
<title>dir_cf43a48f832f5c6078b2594de76b351f&#45;&gt;dir_a0a8ac7efb6662b749c1285408048e6d</title>
<path fill="none" stroke="#000000" d="M105.788,-228.5503C80.4324,-221.8715 44.0512,-207.8227 27,-180 15.4896,-161.2182 21.165,-136.3448 28.7736,-117.5071"/>
<polygon fill="#000000" stroke="#000000" points="32.0142,-118.8327 32.8479,-108.2707 25.6097,-116.0075 32.0142,-118.8327"/>
<g id="a_edge6&#45;headlabel"><a xlink:href="dir_000032_000097.html" target="_top" xlink:title="1">
<text text-anchor="middle" x="33.1613" y="-120.7674" font-family="Helvetica,sans-Serif" font-size="10.00" fill="#000000">1</text>
</a>
</g>
</g>
<!-- dir_cf43a48f832f5c6078b2594de76b351f&#45;&gt;dir_933591e1cd95ed33f946db8a4302cbd1 -->
<g id="edge5" class="edge">
<title>dir_cf43a48f832f5c6078b2594de76b351f&#45;&gt;dir_933591e1cd95ed33f946db8a4302cbd1</title>
<path fill="none" stroke="#000000" d="M115.336,-215.8314C107.0268,-207.2848 96.9736,-196.9443 87.9082,-187.6198"/>
<polygon fill="#000000" stroke="#000000" points="90.3821,-185.1435 80.9018,-180.4133 85.3631,-190.023 90.3821,-185.1435"/>
<g id="a_edge5&#45;headlabel"><a xlink:href="dir_000032_000019.html" target="_top" xlink:title="1">
<text text-anchor="middle" x="94.9235" y="-183.2416" font-family="Helvetica,sans-Serif" font-size="10.00" fill="#000000">1</text>
</a>
</g>
</g>
<!-- dir_cf43a48f832f5c6078b2594de76b351f&#45;&gt;dir_b2ec982152147e07bc20d03fb22ae98b -->
<g id="edge7" class="edge">
<title>dir_cf43a48f832f5c6078b2594de76b351f&#45;&gt;dir_b2ec982152147e07bc20d03fb22ae98b</title>
<path fill="none" stroke="#000000" d="M133.5047,-215.8314C133.7186,-208.131 133.9729,-198.9743 134.2106,-190.4166"/>
<polygon fill="#000000" stroke="#000000" points="137.7094,-190.5066 134.4885,-180.4133 130.7121,-190.3122 137.7094,-190.5066"/>
<g id="a_edge7&#45;headlabel"><a xlink:href="dir_000032_000123.html" target="_top" xlink:title="1">
<text text-anchor="middle" x="140.4479" y="-191.6787" font-family="Helvetica,sans-Serif" font-size="10.00" fill="#000000">1</text>
</a>
</g>
</g>
<!-- dir_cf43a48f832f5c6078b2594de76b351f&#45;&gt;dir_bdd9a5d540de89e9fe90efdfc6973a4f -->
<g id="edge8" class="edge">
<title>dir_cf43a48f832f5c6078b2594de76b351f&#45;&gt;dir_bdd9a5d540de89e9fe90efdfc6973a4f</title>
<path fill="none" stroke="#000000" d="M150.2635,-215.5761C158.2389,-205.7997 166.848,-193.1148 171,-180 176.9023,-161.3564 175.0596,-155.1295 171,-136 164.0121,-103.0713 146.7862,-68.384 133.6536,-45.2079"/>
<polygon fill="#000000" stroke="#000000" points="136.542,-43.2118 128.496,-36.3187 130.4873,-46.7247 136.542,-43.2118"/>
<g id="a_edge8&#45;headlabel"><a xlink:href="dir_000032_000000.html" target="_top" xlink:title="1">
<text text-anchor="middle" x="140.8017" y="-42.396" font-family="Helvetica,sans-Serif" font-size="10.00" fill="#000000">1</text>
</a>
</g>
</g>
</g>
</svg>
