<?xml version="1.0" encoding="UTF-8" standalone="no"?>
<!DOCTYPE svg PUBLIC "-//W3C//DTD SVG 1.1//EN"
 "http://www.w3.org/Graphics/SVG/1.1/DTD/svg11.dtd">
<!-- Generated by graphviz version 2.40.1 (20161225.0304)
 -->
<!-- Title: ee/mpeg Pages: 1 -->
<!--zoomable 519 -->
<svg id="main" version="1.1" xmlns="http://www.w3.org/2000/svg" xmlns:xlink="http://www.w3.org/1999/xlink" xml:space="preserve" onload="init(evt)">
<style type="text/css"><![CDATA[
.edge:hover path { stroke: red; }
.edge:hover polygon { stroke: red; fill: red; }
]]></style>
<script type="text/javascript"><![CDATA[
var edges = document.getElementsByTagName('g');
if (edges && edges.length) {
  for (var i=0;i<edges.length;i++) {
    if (edges[i].id.substr(0,4)=='edge') {
      edges[i].setAttribute('class','edge');
    }
  }
}
]]></script>
        <defs>
                <circle id="rim" cx="0" cy="0" r="7"/>
                <circle id="rim2" cx="0" cy="0" r="3.5"/>
                <g id="zoomPlus">
                        <use xlink:href="#rim" fill="#404040">
                                <set attributeName="fill" to="#808080" begin="zoomplus.mouseover" end="zoomplus.mouseout"/>
                        </use>
                        <path d="M-4,0h8M0,-4v8" fill="none" stroke="white" stroke-width="1.5" pointer-events="none"/>
                </g>
                <g id="zoomMin">
                        <use xlink:href="#rim" fill="#404040">
                                <set attributeName="fill" to="#808080" begin="zoomminus.mouseover" end="zoomminus.mouseout"/>
                        </use>
                        <path d="M-4,0h8" fill="none" stroke="white" stroke-width="1.5" pointer-events="none"/>
                </g>
                <g id="dirArrow">
                        <path fill="none" stroke="white" stroke-width="1.5" d="M0,-3.0v7 M-2.5,-0.5L0,-3.0L2.5,-0.5"/>
                </g>
               <g id="resetDef">
                       <use xlink:href="#rim2" fill="#404040">
                               <set attributeName="fill" to="#808080" begin="reset.mouseover" end="reset.mouseout"/>
                       </use>
               </g>
        </defs>

<script type="text/javascript">
var viewWidth = 453;
var viewHeight = 519;
var sectionId = 'dynsection-0';
</script>
<script xlink:href="svgpan.js"/>
<svg id="graph" class="graph">
<g id="viewport">
<title>ee/mpeg</title>
<polygon fill="#ffffff" stroke="transparent" points="-4,4 -4,-515 449,-515 449,4 -4,4"/>
<g id="clust1" class="cluster">
<title>clusterdir_049738f1909e8dc3e45fe1f6b3faa109</title>
<g id="a_clust1"><a xlink:href="dir_049738f1909e8dc3e45fe1f6b3faa109.html" target="_top" xlink:title="ee">
<polygon fill="#ddddee" stroke="#000000" points="8,-64 8,-503 384,-503 384,-64 8,-64"/>
<text text-anchor="middle" x="196" y="-491" font-family="Helvetica,sans-Serif" font-size="10.00" fill="#000000">ee</text>
</a>
</g>
</g>
<g id="clust2" class="cluster">
<title>clusterdir_5a30d30e86afe8e71e8256ba8d77d003</title>
<g id="a_clust2"><a xlink:href="dir_5a30d30e86afe8e71e8256ba8d77d003.html" target="_top">
<polygon fill="#eeeeff" stroke="#000000" points="158,-352 158,-476 376,-476 376,-352 158,-352"/>
</a>
</g>
</g>
<!-- dir_d6c8ea3c46b2d4fe2308a65fe0836890 -->
<g id="node1" class="node">
<title>dir_d6c8ea3c46b2d4fe2308a65fe0836890</title>
<g id="a_node1"><a xlink:href="dir_d6c8ea3c46b2d4fe2308a65fe0836890.html" target="_top" xlink:title="dma">
<polygon fill="#ffffff" stroke="#ff0000" points="282,-252 228,-252 228,-216 282,-216 282,-252"/>
<text text-anchor="middle" x="255" y="-231.5" font-family="Helvetica,sans-Serif" font-size="10.00" fill="#000000">dma</text>
</a>
</g>
</g>
<!-- dir_694ec83a64f58cbdefbefce65cd1011c -->
<g id="node2" class="node">
<title>dir_694ec83a64f58cbdefbefce65cd1011c</title>
<g id="a_node2"><a xlink:href="dir_694ec83a64f58cbdefbefce65cd1011c.html" target="_top" xlink:title="kernel">
<polygon fill="#ffffff" stroke="#ff0000" points="187,-180 133,-180 133,-144 187,-144 187,-180"/>
<text text-anchor="middle" x="160" y="-159.5" font-family="Helvetica,sans-Serif" font-size="10.00" fill="#000000">kernel</text>
</a>
</g>
</g>
<!-- dir_d6c8ea3c46b2d4fe2308a65fe0836890&#45;&gt;dir_694ec83a64f58cbdefbefce65cd1011c -->
<g id="edge29" class="edge">
<title>dir_d6c8ea3c46b2d4fe2308a65fe0836890&#45;&gt;dir_694ec83a64f58cbdefbefce65cd1011c</title>
<path fill="none" stroke="#000000" d="M231.0275,-215.8314C219.2139,-206.8779 204.8028,-195.9558 192.0565,-186.2955"/>
<polygon fill="#000000" stroke="#000000" points="194.0486,-183.4137 183.9648,-180.1628 189.8205,-188.9925 194.0486,-183.4137"/>
<g id="a_edge29&#45;headlabel"><a xlink:href="dir_000011_000025.html" target="_top" xlink:title="1">
<text text-anchor="middle" x="198.6284" y="-180.822" font-family="Helvetica,sans-Serif" font-size="10.00" fill="#000000">1</text>
</a>
</g>
</g>
<!-- dir_a0a8ac7efb6662b749c1285408048e6d -->
<g id="node6" class="node">
<title>dir_a0a8ac7efb6662b749c1285408048e6d</title>
<g id="a_node6"><a xlink:href="dir_a0a8ac7efb6662b749c1285408048e6d.html" target="_top" xlink:title="erl">
<polygon fill="#ffffff" stroke="#ff0000" points="187,-108 133,-108 133,-72 187,-72 187,-108"/>
<text text-anchor="middle" x="160" y="-87.5" font-family="Helvetica,sans-Serif" font-size="10.00" fill="#000000">erl</text>
</a>
</g>
</g>
<!-- dir_d6c8ea3c46b2d4fe2308a65fe0836890&#45;&gt;dir_a0a8ac7efb6662b749c1285408048e6d -->
<g id="edge30" class="edge">
<title>dir_d6c8ea3c46b2d4fe2308a65fe0836890&#45;&gt;dir_a0a8ac7efb6662b749c1285408048e6d</title>
<path fill="none" stroke="#000000" d="M248.0486,-215.8766C240.4016,-197.0503 227.0432,-167.162 211,-144 204.0716,-133.9973 195.3219,-124.032 187.0347,-115.4355"/>
<polygon fill="#000000" stroke="#000000" points="189.4544,-112.9048 179.9286,-108.2668 184.4829,-117.8328 189.4544,-112.9048"/>
<g id="a_edge30&#45;headlabel"><a xlink:href="dir_000011_000097.html" target="_top" xlink:title="1">
<text text-anchor="middle" x="194.0014" y="-110.9588" font-family="Helvetica,sans-Serif" font-size="10.00" fill="#000000">1</text>
</a>
</g>
</g>
<!-- dir_bdd9a5d540de89e9fe90efdfc6973a4f -->
<g id="node11" class="node">
<title>dir_bdd9a5d540de89e9fe90efdfc6973a4f</title>
<g id="a_node11"><a xlink:href="dir_bdd9a5d540de89e9fe90efdfc6973a4f.html" target="_top" xlink:title="common">
<polygon fill="#ffffff" stroke="#ff0000" points="341.5,-36 282.5,-36 282.5,0 341.5,0 341.5,-36"/>
<text text-anchor="middle" x="312" y="-15.5" font-family="Helvetica,sans-Serif" font-size="10.00" fill="#000000">common</text>
</a>
</g>
</g>
<!-- dir_d6c8ea3c46b2d4fe2308a65fe0836890&#45;&gt;dir_bdd9a5d540de89e9fe90efdfc6973a4f -->
<g id="edge28" class="edge">
<title>dir_d6c8ea3c46b2d4fe2308a65fe0836890&#45;&gt;dir_bdd9a5d540de89e9fe90efdfc6973a4f</title>
<path fill="none" stroke="#000000" d="M259.7617,-215.9555C269.7158,-178.235 292.7839,-90.8188 304.6534,-45.8399"/>
<polygon fill="#000000" stroke="#000000" points="308.0443,-46.7071 307.2117,-36.1451 301.2759,-44.921 308.0443,-46.7071"/>
<g id="a_edge28&#45;headlabel"><a xlink:href="dir_000011_000000.html" target="_top" xlink:title="4">
<text text-anchor="middle" x="309.8724" y="-48.4072" font-family="Helvetica,sans-Serif" font-size="10.00" fill="#000000">4</text>
</a>
</g>
</g>
<!-- dir_694ec83a64f58cbdefbefce65cd1011c&#45;&gt;dir_a0a8ac7efb6662b749c1285408048e6d -->
<g id="edge16" class="edge">
<title>dir_694ec83a64f58cbdefbefce65cd1011c&#45;&gt;dir_a0a8ac7efb6662b749c1285408048e6d</title>
<path fill="none" stroke="#000000" d="M154.0476,-143.8314C153.2972,-136.131 153.0763,-126.9743 153.3849,-118.4166"/>
<polygon fill="#000000" stroke="#000000" points="156.8792,-118.6161 154.024,-108.4133 149.8935,-118.1697 156.8792,-118.6161"/>
<g id="a_edge16&#45;headlabel"><a xlink:href="dir_000025_000097.html" target="_top" xlink:title="1">
<text text-anchor="middle" x="159.4836" y="-119.8844" font-family="Helvetica,sans-Serif" font-size="10.00" fill="#000000">1</text>
</a>
</g>
</g>
<!-- dir_694ec83a64f58cbdefbefce65cd1011c&#45;&gt;dir_bdd9a5d540de89e9fe90efdfc6973a4f -->
<g id="edge15" class="edge">
<title>dir_694ec83a64f58cbdefbefce65cd1011c&#45;&gt;dir_bdd9a5d540de89e9fe90efdfc6973a4f</title>
<path fill="none" stroke="#000000" d="M172.3158,-143.9628C187.0757,-123.1588 213.3047,-88.66 241,-64 250.8671,-55.2143 262.5663,-46.9233 273.5916,-39.8641"/>
<polygon fill="#000000" stroke="#000000" points="275.6007,-42.7363 282.2415,-34.481 271.902,-36.7932 275.6007,-42.7363"/>
<g id="a_edge15&#45;headlabel"><a xlink:href="dir_000025_000000.html" target="_top" xlink:title="24">
<text text-anchor="middle" x="274.049" y="-44.5461" font-family="Helvetica,sans-Serif" font-size="10.00" fill="#000000">24</text>
</a>
</g>
</g>
<!-- dir_2649a81c7f56a709216892bc1285ef27 -->
<g id="node3" class="node">
<title>dir_2649a81c7f56a709216892bc1285ef27</title>
<g id="a_node3"><a xlink:href="dir_2649a81c7f56a709216892bc1285ef27.html" target="_top" xlink:title="draw">
<polygon fill="#ffffff" stroke="#ff0000" points="150,-396 96,-396 96,-360 150,-360 150,-396"/>
<text text-anchor="middle" x="123" y="-375.5" font-family="Helvetica,sans-Serif" font-size="10.00" fill="#000000">draw</text>
</a>
</g>
</g>
<!-- dir_2649a81c7f56a709216892bc1285ef27&#45;&gt;dir_d6c8ea3c46b2d4fe2308a65fe0836890 -->
<g id="edge4" class="edge">
<title>dir_2649a81c7f56a709216892bc1285ef27&#45;&gt;dir_d6c8ea3c46b2d4fe2308a65fe0836890</title>
<path fill="none" stroke="#000000" d="M142.1748,-359.9975C145.9157,-357.0553 149.9419,-354.2415 154,-352 189.5566,-332.3607 214.6191,-354.8872 241,-324 255.3842,-307.1588 258.2194,-281.8053 257.8372,-262.2953"/>
<polygon fill="#000000" stroke="#000000" points="261.3256,-261.968 257.3468,-252.1487 254.3337,-262.3061 261.3256,-261.968"/>
<g id="a_edge4&#45;headlabel"><a xlink:href="dir_000013_000011.html" target="_top" xlink:title="8">
<text text-anchor="middle" x="264.335" y="-262.9214" font-family="Helvetica,sans-Serif" font-size="10.00" fill="#000000">8</text>
</a>
</g>
</g>
<!-- dir_2649a81c7f56a709216892bc1285ef27&#45;&gt;dir_694ec83a64f58cbdefbefce65cd1011c -->
<g id="edge1" class="edge">
<title>dir_2649a81c7f56a709216892bc1285ef27&#45;&gt;dir_694ec83a64f58cbdefbefce65cd1011c</title>
<path fill="none" stroke="#000000" d="M129.8072,-359.9722C138.5442,-335.8108 153.2589,-291.397 159,-252 161.9997,-231.4153 162.15,-207.9017 161.6032,-190.0719"/>
<polygon fill="#000000" stroke="#000000" points="165.0989,-189.8924 161.2046,-180.0393 158.1045,-190.1704 165.0989,-189.8924"/>
<g id="a_edge1&#45;headlabel"><a xlink:href="dir_000013_000025.html" target="_top" xlink:title="4">
<text text-anchor="middle" x="168.0786" y="-190.8715" font-family="Helvetica,sans-Serif" font-size="10.00" fill="#000000">4</text>
</a>
</g>
</g>
<!-- dir_933591e1cd95ed33f946db8a4302cbd1 -->
<g id="node4" class="node">
<title>dir_933591e1cd95ed33f946db8a4302cbd1</title>
<g id="a_node4"><a xlink:href="dir_933591e1cd95ed33f946db8a4302cbd1.html" target="_top" xlink:title="graph">
<polygon fill="#ffffff" stroke="#ff0000" points="232,-324 178,-324 178,-288 232,-288 232,-324"/>
<text text-anchor="middle" x="205" y="-303.5" font-family="Helvetica,sans-Serif" font-size="10.00" fill="#000000">graph</text>
</a>
</g>
</g>
<!-- dir_2649a81c7f56a709216892bc1285ef27&#45;&gt;dir_933591e1cd95ed33f946db8a4302cbd1 -->
<g id="edge2" class="edge">
<title>dir_2649a81c7f56a709216892bc1285ef27&#45;&gt;dir_933591e1cd95ed33f946db8a4302cbd1</title>
<path fill="none" stroke="#000000" d="M137.7397,-359.8314C146.9753,-350.9632 159.1128,-340.1637 170.5773,-330.5718"/>
<polygon fill="#000000" stroke="#000000" points="172.8666,-333.2206 178.3627,-324.1628 168.4177,-327.8162 172.8666,-333.2206"/>
<g id="a_edge2&#45;headlabel"><a xlink:href="dir_000013_000019.html" target="_top" xlink:title="4">
<text text-anchor="middle" x="171.8959" y="-335.1972" font-family="Helvetica,sans-Serif" font-size="10.00" fill="#000000">4</text>
</a>
</g>
</g>
<!-- dir_ef7db18cfb93c4891bb35babb04f0d85 -->
<g id="node5" class="node">
<title>dir_ef7db18cfb93c4891bb35babb04f0d85</title>
<g id="a_node5"><a xlink:href="dir_ef7db18cfb93c4891bb35babb04f0d85.html" target="_top" xlink:title="packet">
<polygon fill="#ffffff" stroke="#ff0000" points="150,-252 96,-252 96,-216 150,-216 150,-252"/>
<text text-anchor="middle" x="123" y="-231.5" font-family="Helvetica,sans-Serif" font-size="10.00" fill="#000000">packet</text>
</a>
</g>
</g>
<!-- dir_2649a81c7f56a709216892bc1285ef27&#45;&gt;dir_ef7db18cfb93c4891bb35babb04f0d85 -->
<g id="edge5" class="edge">
<title>dir_2649a81c7f56a709216892bc1285ef27&#45;&gt;dir_ef7db18cfb93c4891bb35babb04f0d85</title>
<path fill="none" stroke="#000000" d="M123,-359.7623C123,-335.201 123,-291.2474 123,-262.3541"/>
<polygon fill="#000000" stroke="#000000" points="126.5001,-262.0896 123,-252.0896 119.5001,-262.0897 126.5001,-262.0896"/>
<g id="a_edge5&#45;headlabel"><a xlink:href="dir_000013_000040.html" target="_top" xlink:title="3">
<text text-anchor="middle" x="129.3393" y="-263.1842" font-family="Helvetica,sans-Serif" font-size="10.00" fill="#000000">3</text>
</a>
</g>
</g>
<!-- dir_2649a81c7f56a709216892bc1285ef27&#45;&gt;dir_a0a8ac7efb6662b749c1285408048e6d -->
<g id="edge6" class="edge">
<title>dir_2649a81c7f56a709216892bc1285ef27&#45;&gt;dir_a0a8ac7efb6662b749c1285408048e6d</title>
<path fill="none" stroke="#000000" d="M113.9608,-359.6177C100.349,-329.6598 77.1722,-268.3866 87,-216 93.3308,-182.2541 97.5594,-173.5752 115,-144 120.7311,-134.2814 128.1918,-124.5395 135.3854,-116.0586"/>
<polygon fill="#000000" stroke="#000000" points="138.1771,-118.1835 142.1353,-108.3558 132.9124,-113.5701 138.1771,-118.1835"/>
<g id="a_edge6&#45;headlabel"><a xlink:href="dir_000013_000097.html" target="_top" xlink:title="1">
<text text-anchor="middle" x="137.9435" y="-120.2582" font-family="Helvetica,sans-Serif" font-size="10.00" fill="#000000">1</text>
</a>
</g>
</g>
<!-- dir_2649a81c7f56a709216892bc1285ef27&#45;&gt;dir_bdd9a5d540de89e9fe90efdfc6973a4f -->
<g id="edge3" class="edge">
<title>dir_2649a81c7f56a709216892bc1285ef27&#45;&gt;dir_bdd9a5d540de89e9fe90efdfc6973a4f</title>
<path fill="none" stroke="#000000" d="M142.1097,-359.877C145.8572,-356.9472 149.9024,-354.1686 154,-352 194.4149,-330.6108 212.1855,-344.6164 253,-324 311.2443,-294.5794 369,-299.2532 369,-234 369,-234 369,-234 369,-162 369,-118.7597 346.5055,-73.0187 329.7788,-44.9832"/>
<polygon fill="#000000" stroke="#000000" points="332.5874,-42.8688 324.3682,-36.1834 326.6244,-46.5353 332.5874,-42.8688"/>
<g id="a_edge3&#45;headlabel"><a xlink:href="dir_000013_000000.html" target="_top" xlink:title="35">
<text text-anchor="middle" x="336.8888" y="-41.9438" font-family="Helvetica,sans-Serif" font-size="10.00" fill="#000000">35</text>
</a>
</g>
</g>
<!-- dir_933591e1cd95ed33f946db8a4302cbd1&#45;&gt;dir_d6c8ea3c46b2d4fe2308a65fe0836890 -->
<g id="edge19" class="edge">
<title>dir_933591e1cd95ed33f946db8a4302cbd1&#45;&gt;dir_d6c8ea3c46b2d4fe2308a65fe0836890</title>
<path fill="none" stroke="#000000" d="M217.6171,-287.8314C223.3172,-279.6232 230.1663,-269.7606 236.4359,-260.7323"/>
<polygon fill="#000000" stroke="#000000" points="239.3838,-262.6234 242.213,-252.4133 233.6342,-258.6306 239.3838,-262.6234"/>
<g id="a_edge19&#45;headlabel"><a xlink:href="dir_000019_000011.html" target="_top" xlink:title="2">
<text text-anchor="middle" x="239.6656" y="-264.6954" font-family="Helvetica,sans-Serif" font-size="10.00" fill="#000000">2</text>
</a>
</g>
</g>
<!-- dir_933591e1cd95ed33f946db8a4302cbd1&#45;&gt;dir_694ec83a64f58cbdefbefce65cd1011c -->
<g id="edge17" class="edge">
<title>dir_933591e1cd95ed33f946db8a4302cbd1&#45;&gt;dir_694ec83a64f58cbdefbefce65cd1011c</title>
<path fill="none" stroke="#000000" d="M199.3007,-287.7623C191.5915,-263.0928 177.7687,-218.8598 168.7416,-189.9731"/>
<polygon fill="#000000" stroke="#000000" points="171.9765,-188.5904 165.653,-180.0896 165.2951,-190.6784 171.9765,-188.5904"/>
<g id="a_edge17&#45;headlabel"><a xlink:href="dir_000019_000025.html" target="_top" xlink:title="4">
<text text-anchor="middle" x="175.7586" y="-188.6746" font-family="Helvetica,sans-Serif" font-size="10.00" fill="#000000">4</text>
</a>
</g>
</g>
<!-- dir_933591e1cd95ed33f946db8a4302cbd1&#45;&gt;dir_2649a81c7f56a709216892bc1285ef27 -->
<g id="edge20" class="edge">
<title>dir_933591e1cd95ed33f946db8a4302cbd1&#45;&gt;dir_2649a81c7f56a709216892bc1285ef27</title>
<path fill="none" stroke="#000000" d="M190.2664,-324.1628C181.032,-333.0301 168.895,-343.8295 157.4302,-353.4219"/>
<polygon fill="#000000" stroke="#000000" points="155.1404,-350.7735 149.6445,-359.8314 159.5894,-356.1778 155.1404,-350.7735"/>
<g id="a_edge20&#45;headlabel"><a xlink:href="dir_000019_000013.html" target="_top" xlink:title="1">
<text text-anchor="middle" x="156.1111" y="-343.7968" font-family="Helvetica,sans-Serif" font-size="10.00" fill="#000000">1</text>
</a>
</g>
</g>
<!-- dir_933591e1cd95ed33f946db8a4302cbd1&#45;&gt;dir_ef7db18cfb93c4891bb35babb04f0d85 -->
<g id="edge21" class="edge">
<title>dir_933591e1cd95ed33f946db8a4302cbd1&#45;&gt;dir_ef7db18cfb93c4891bb35babb04f0d85</title>
<path fill="none" stroke="#000000" d="M184.3079,-287.8314C174.3052,-279.0485 162.145,-268.3712 151.3001,-258.8489"/>
<polygon fill="#000000" stroke="#000000" points="153.5092,-256.1308 143.6854,-252.1628 148.8906,-261.3909 153.5092,-256.1308"/>
<g id="a_edge21&#45;headlabel"><a xlink:href="dir_000019_000040.html" target="_top" xlink:title="1">
<text text-anchor="middle" x="158.0836" y="-253.869" font-family="Helvetica,sans-Serif" font-size="10.00" fill="#000000">1</text>
</a>
</g>
</g>
<!-- dir_933591e1cd95ed33f946db8a4302cbd1&#45;&gt;dir_a0a8ac7efb6662b749c1285408048e6d -->
<g id="edge22" class="edge">
<title>dir_933591e1cd95ed33f946db8a4302cbd1&#45;&gt;dir_a0a8ac7efb6662b749c1285408048e6d</title>
<path fill="none" stroke="#000000" d="M207.0213,-287.9286C209.7816,-257.3786 212.6573,-193.9718 196,-144 192.7738,-134.3213 187.3261,-124.7338 181.632,-116.3837"/>
<polygon fill="#000000" stroke="#000000" points="184.3908,-114.2259 175.6917,-108.1781 178.7206,-118.3307 184.3908,-114.2259"/>
<g id="a_edge22&#45;headlabel"><a xlink:href="dir_000019_000097.html" target="_top" xlink:title="1">
<text text-anchor="middle" x="188.7985" y="-112.9727" font-family="Helvetica,sans-Serif" font-size="10.00" fill="#000000">1</text>
</a>
</g>
</g>
<!-- dir_933591e1cd95ed33f946db8a4302cbd1&#45;&gt;dir_bdd9a5d540de89e9fe90efdfc6973a4f -->
<g id="edge18" class="edge">
<title>dir_933591e1cd95ed33f946db8a4302cbd1&#45;&gt;dir_bdd9a5d540de89e9fe90efdfc6973a4f</title>
<path fill="none" stroke="#000000" d="M232.3623,-296.4654C252.1819,-288.0258 277.7347,-273.6456 291,-252 330.7429,-187.1495 323.7294,-92.6172 316.9886,-46.0535"/>
<polygon fill="#000000" stroke="#000000" points="320.4333,-45.4269 315.4406,-36.0822 313.5162,-46.5008 320.4333,-45.4269"/>
<g id="a_edge18&#45;headlabel"><a xlink:href="dir_000019_000000.html" target="_top" xlink:title="8">
<text text-anchor="middle" x="323.7904" y="-46.0434" font-family="Helvetica,sans-Serif" font-size="10.00" fill="#000000">8</text>
</a>
</g>
</g>
<!-- dir_ef7db18cfb93c4891bb35babb04f0d85&#45;&gt;dir_a0a8ac7efb6662b749c1285408048e6d -->
<g id="edge32" class="edge">
<title>dir_ef7db18cfb93c4891bb35babb04f0d85&#45;&gt;dir_a0a8ac7efb6662b749c1285408048e6d</title>
<path fill="none" stroke="#000000" d="M120.2438,-215.9474C118.0945,-197.4374 116.576,-168.0375 124,-144 127.0106,-134.2521 132.3953,-124.6443 138.0979,-116.297"/>
<polygon fill="#000000" stroke="#000000" points="141.0093,-118.2447 144.0695,-108.1014 135.3518,-114.1223 141.0093,-118.2447"/>
<g id="a_edge32&#45;headlabel"><a xlink:href="dir_000040_000097.html" target="_top" xlink:title="1">
<text text-anchor="middle" x="141.1872" y="-120.3219" font-family="Helvetica,sans-Serif" font-size="10.00" fill="#000000">1</text>
</a>
</g>
</g>
<!-- dir_ef7db18cfb93c4891bb35babb04f0d85&#45;&gt;dir_bdd9a5d540de89e9fe90efdfc6973a4f -->
<g id="edge31" class="edge">
<title>dir_ef7db18cfb93c4891bb35babb04f0d85&#45;&gt;dir_bdd9a5d540de89e9fe90efdfc6973a4f</title>
<path fill="none" stroke="#000000" d="M150.2713,-216.8445C164.7293,-207.0335 182.2851,-193.9288 196,-180 237.7066,-137.6429 275.69,-79.1548 296.1559,-45.2781"/>
<polygon fill="#000000" stroke="#000000" points="299.3298,-46.7896 301.4524,-36.4096 293.32,-43.2004 299.3298,-46.7896"/>
<g id="a_edge31&#45;headlabel"><a xlink:href="dir_000040_000000.html" target="_top" xlink:title="1">
<text text-anchor="middle" x="299.9244" y="-48.8316" font-family="Helvetica,sans-Serif" font-size="10.00" fill="#000000">1</text>
</a>
</g>
</g>
<!-- dir_a0a8ac7efb6662b749c1285408048e6d&#45;&gt;dir_694ec83a64f58cbdefbefce65cd1011c -->
<g id="edge24" class="edge">
<title>dir_a0a8ac7efb6662b749c1285408048e6d&#45;&gt;dir_694ec83a64f58cbdefbefce65cd1011c</title>
<path fill="none" stroke="#000000" d="M165.976,-108.4133C166.7071,-116.0593 166.9203,-125.1084 166.6155,-133.5726"/>
<polygon fill="#000000" stroke="#000000" points="163.1048,-133.6264 165.9524,-143.8314 170.0902,-134.078 163.1048,-133.6264"/>
<g id="a_edge24&#45;headlabel"><a xlink:href="dir_000097_000025.html" target="_top" xlink:title="1">
<text text-anchor="middle" x="160.5032" y="-127.3562" font-family="Helvetica,sans-Serif" font-size="10.00" fill="#000000">1</text>
</a>
</g>
</g>
<!-- dir_a0a8ac7efb6662b749c1285408048e6d&#45;&gt;dir_bdd9a5d540de89e9fe90efdfc6973a4f -->
<g id="edge23" class="edge">
<title>dir_a0a8ac7efb6662b749c1285408048e6d&#45;&gt;dir_bdd9a5d540de89e9fe90efdfc6973a4f</title>
<path fill="none" stroke="#000000" d="M187.2019,-72.2999C192.0544,-69.3916 197.1196,-66.511 202,-64 224.9849,-52.1738 251.7197,-40.9398 273.0769,-32.5341"/>
<polygon fill="#000000" stroke="#000000" points="274.4263,-35.7648 282.4785,-28.8791 271.8899,-29.2405 274.4263,-35.7648"/>
<g id="a_edge23&#45;headlabel"><a xlink:href="dir_000097_000000.html" target="_top" xlink:title="3">
<text text-anchor="middle" x="272.1048" y="-37.2136" font-family="Helvetica,sans-Serif" font-size="10.00" fill="#000000">3</text>
</a>
</g>
</g>
<!-- dir_5a30d30e86afe8e71e8256ba8d77d003 -->
<g id="node7" class="node">
<title>dir_5a30d30e86afe8e71e8256ba8d77d003</title>
<text text-anchor="middle" x="341" y="-447.5" font-family="Helvetica,sans-Serif" font-size="10.00" fill="#000000">mpeg</text>
</g>
<!-- dir_413ea6b66ae557d0d7cb038b88135642 -->
<g id="node8" class="node">
<title>dir_413ea6b66ae557d0d7cb038b88135642</title>
<g id="a_node8"><a xlink:href="dir_413ea6b66ae557d0d7cb038b88135642.html" target="_top" xlink:title="include">
<polygon fill="#ffffff" stroke="#000000" points="344,-396 290,-396 290,-360 344,-360 344,-396"/>
<text text-anchor="middle" x="317" y="-375.5" font-family="Helvetica,sans-Serif" font-size="10.00" fill="#000000">include</text>
</a>
</g>
</g>
<!-- dir_413ea6b66ae557d0d7cb038b88135642&#45;&gt;dir_bdd9a5d540de89e9fe90efdfc6973a4f -->
<g id="edge14" class="edge">
<title>dir_413ea6b66ae557d0d7cb038b88135642&#45;&gt;dir_bdd9a5d540de89e9fe90efdfc6973a4f</title>
<path fill="none" stroke="#000000" d="M344.1952,-363.7795C359.3704,-354.46 377.3153,-340.8801 388,-324 409.8649,-289.4568 407,-274.8816 407,-234 407,-234 407,-234 407,-162 407,-117.6334 413.3801,-100.3902 388,-64 378.8242,-50.8437 364.5608,-40.7851 350.8578,-33.4787"/>
<polygon fill="#000000" stroke="#000000" points="352.0443,-30.1604 341.5301,-28.8558 348.9358,-36.4324 352.0443,-30.1604"/>
<g id="a_edge14&#45;headlabel"><a xlink:href="dir_000124_000000.html" target="_top" xlink:title="1">
<text text-anchor="middle" x="356.5258" y="-26.7127" font-family="Helvetica,sans-Serif" font-size="10.00" fill="#000000">1</text>
</a>
</g>
</g>
<!-- dir_3ba065e2cbfcd843e80f94357043a7e8 -->
<g id="node9" class="node">
<title>dir_3ba065e2cbfcd843e80f94357043a7e8</title>
<g id="a_node9"><a xlink:href="dir_3ba065e2cbfcd843e80f94357043a7e8.html" target="_top" xlink:title="samples">
<polygon fill="#ffffff" stroke="#000000" points="296,-468 238,-468 238,-432 296,-432 296,-468"/>
<text text-anchor="middle" x="267" y="-447.5" font-family="Helvetica,sans-Serif" font-size="10.00" fill="#000000">samples</text>
</a>
</g>
</g>
<!-- dir_3ba065e2cbfcd843e80f94357043a7e8&#45;&gt;dir_d6c8ea3c46b2d4fe2308a65fe0836890 -->
<g id="edge12" class="edge">
<title>dir_3ba065e2cbfcd843e80f94357043a7e8&#45;&gt;dir_d6c8ea3c46b2d4fe2308a65fe0836890</title>
<path fill="none" stroke="#000000" d="M265.9975,-431.9555C263.9108,-394.3938 259.0863,-307.5541 256.5784,-262.4103"/>
<polygon fill="#000000" stroke="#000000" points="260.0575,-261.9355 256.0081,-252.1451 253.0682,-262.3238 260.0575,-261.9355"/>
<g id="a_edge12&#45;headlabel"><a xlink:href="dir_000125_000011.html" target="_top" xlink:title="2">
<text text-anchor="middle" x="263.0917" y="-262.8671" font-family="Helvetica,sans-Serif" font-size="10.00" fill="#000000">2</text>
</a>
</g>
</g>
<!-- dir_3ba065e2cbfcd843e80f94357043a7e8&#45;&gt;dir_694ec83a64f58cbdefbefce65cd1011c -->
<g id="edge9" class="edge">
<title>dir_3ba065e2cbfcd843e80f94357043a7e8&#45;&gt;dir_694ec83a64f58cbdefbefce65cd1011c</title>
<path fill="none" stroke="#000000" d="M237.8082,-435.3926C234.868,-434.1577 231.898,-433.0008 229,-432 160.5135,-408.3489 115.2244,-452.6086 70,-396 44.9221,-364.6094 65.7852,-250.1204 87,-216 96.0131,-201.5039 110.4618,-189.6097 124.1354,-180.7099"/>
<polygon fill="#000000" stroke="#000000" points="126.2568,-183.5144 132.944,-175.2966 122.5917,-177.5505 126.2568,-183.5144"/>
<g id="a_edge9&#45;headlabel"><a xlink:href="dir_000125_000025.html" target="_top" xlink:title="2">
<text text-anchor="middle" x="124.6808" y="-185.3154" font-family="Helvetica,sans-Serif" font-size="10.00" fill="#000000">2</text>
</a>
</g>
</g>
<!-- dir_3ba065e2cbfcd843e80f94357043a7e8&#45;&gt;dir_2649a81c7f56a709216892bc1285ef27 -->
<g id="edge7" class="edge">
<title>dir_3ba065e2cbfcd843e80f94357043a7e8&#45;&gt;dir_2649a81c7f56a709216892bc1285ef27</title>
<path fill="none" stroke="#000000" d="M237.8398,-436.1364C212.247,-423.9603 176.7751,-407.061 159.5083,-398.6145"/>
<polygon fill="#000000" stroke="#000000" points="160.8277,-395.3612 150.318,-394.0213 157.6982,-401.6227 160.8277,-395.3612"/>
<g id="a_edge7&#45;headlabel"><a xlink:href="dir_000125_000013.html" target="_top" xlink:title="1">
<text text-anchor="middle" x="165.3124" y="-391.9284" font-family="Helvetica,sans-Serif" font-size="10.00" fill="#000000">1</text>
</a>
</g>
</g>
<!-- dir_3ba065e2cbfcd843e80f94357043a7e8&#45;&gt;dir_933591e1cd95ed33f946db8a4302cbd1 -->
<g id="edge10" class="edge">
<title>dir_3ba065e2cbfcd843e80f94357043a7e8&#45;&gt;dir_933591e1cd95ed33f946db8a4302cbd1</title>
<path fill="none" stroke="#000000" d="M259.1477,-431.7623C248.4795,-406.9846 229.3141,-362.4714 216.8807,-333.5939"/>
<polygon fill="#000000" stroke="#000000" points="219.9579,-331.8903 212.7886,-324.0896 213.5285,-334.6586 219.9579,-331.8903"/>
<g id="a_edge10&#45;headlabel"><a xlink:href="dir_000125_000019.html" target="_top" xlink:title="1">
<text text-anchor="middle" x="223.9872" y="-331.5691" font-family="Helvetica,sans-Serif" font-size="10.00" fill="#000000">1</text>
</a>
</g>
</g>
<!-- dir_3ba065e2cbfcd843e80f94357043a7e8&#45;&gt;dir_ef7db18cfb93c4891bb35babb04f0d85 -->
<g id="edge13" class="edge">
<title>dir_3ba065e2cbfcd843e80f94357043a7e8&#45;&gt;dir_ef7db18cfb93c4891bb35babb04f0d85</title>
<path fill="none" stroke="#000000" d="M237.7808,-435.4703C234.8461,-434.2197 231.885,-433.0379 229,-432 167.7361,-409.9604 126.9831,-447.3845 87,-396 56.1408,-356.3411 84.041,-295.5252 104.9586,-260.7898"/>
<polygon fill="#000000" stroke="#000000" points="108.0329,-262.4742 110.3521,-252.1363 102.0923,-258.7715 108.0329,-262.4742"/>
<g id="a_edge13&#45;headlabel"><a xlink:href="dir_000125_000040.html" target="_top" xlink:title="1">
<text text-anchor="middle" x="108.5412" y="-264.5266" font-family="Helvetica,sans-Serif" font-size="10.00" fill="#000000">1</text>
</a>
</g>
</g>
<!-- dir_3ba065e2cbfcd843e80f94357043a7e8&#45;&gt;dir_413ea6b66ae557d0d7cb038b88135642 -->
<g id="edge8" class="edge">
<title>dir_3ba065e2cbfcd843e80f94357043a7e8&#45;&gt;dir_413ea6b66ae557d0d7cb038b88135642</title>
<path fill="none" stroke="#000000" d="M279.6171,-431.8314C285.3172,-423.6232 292.1663,-413.7606 298.4359,-404.7323"/>
<polygon fill="#000000" stroke="#000000" points="301.3838,-406.6234 304.213,-396.4133 295.6342,-402.6306 301.3838,-406.6234"/>
<g id="a_edge8&#45;headlabel"><a xlink:href="dir_000125_000124.html" target="_top" xlink:title="1">
<text text-anchor="middle" x="301.6656" y="-408.6954" font-family="Helvetica,sans-Serif" font-size="10.00" fill="#000000">1</text>
</a>
</g>
</g>
<!-- dir_3ba065e2cbfcd843e80f94357043a7e8&#45;&gt;dir_bdd9a5d540de89e9fe90efdfc6973a4f -->
<g id="edge11" class="edge">
<title>dir_3ba065e2cbfcd843e80f94357043a7e8&#45;&gt;dir_bdd9a5d540de89e9fe90efdfc6973a4f</title>
<path fill="none" stroke="#000000" d="M296.3931,-433.751C346.9501,-404.7921 445,-343.7615 445,-306 445,-306 445,-306 445,-162 445,-115.8976 441.9118,-98.2037 411,-64 395.2744,-46.5998 371.6185,-35.273 351.374,-28.2139"/>
<polygon fill="#000000" stroke="#000000" points="352.3518,-24.8515 341.7595,-25.0834 350.1846,-31.5076 352.3518,-24.8515"/>
<g id="a_edge11&#45;headlabel"><a xlink:href="dir_000125_000000.html" target="_top" xlink:title="3">
<text text-anchor="middle" x="356.6488" y="-20.7645" font-family="Helvetica,sans-Serif" font-size="10.00" fill="#000000">3</text>
</a>
</g>
</g>
<!-- dir_c15c3f3fb57f56539c5f292b37505da8 -->
<g id="node10" class="node">
<title>dir_c15c3f3fb57f56539c5f292b37505da8</title>
<g id="a_node10"><a xlink:href="dir_c15c3f3fb57f56539c5f292b37505da8.html" target="_top" xlink:title="src">
<polygon fill="#ffffff" stroke="#000000" points="220,-468 166,-468 166,-432 220,-432 220,-468"/>
<text text-anchor="middle" x="193" y="-447.5" font-family="Helvetica,sans-Serif" font-size="10.00" fill="#000000">src</text>
</a>
</g>
</g>
<!-- dir_c15c3f3fb57f56539c5f292b37505da8&#45;&gt;dir_694ec83a64f58cbdefbefce65cd1011c -->
<g id="edge26" class="edge">
<title>dir_c15c3f3fb57f56539c5f292b37505da8&#45;&gt;dir_694ec83a64f58cbdefbefce65cd1011c</title>
<path fill="none" stroke="#000000" d="M165.7023,-443.4491C128.5789,-433.9243 65.2586,-415.2754 52,-396 29.331,-363.0437 30.9708,-250.026 52,-216 67.4014,-191.08 98.1708,-177.2755 122.9405,-169.8768"/>
<polygon fill="#000000" stroke="#000000" points="124.0668,-173.197 132.7811,-167.1711 122.211,-166.4475 124.0668,-173.197"/>
<g id="a_edge26&#45;headlabel"><a xlink:href="dir_000034_000025.html" target="_top" xlink:title="1">
<text text-anchor="middle" x="121.3535" y="-174.3876" font-family="Helvetica,sans-Serif" font-size="10.00" fill="#000000">1</text>
</a>
</g>
</g>
<!-- dir_c15c3f3fb57f56539c5f292b37505da8&#45;&gt;dir_a0a8ac7efb6662b749c1285408048e6d -->
<g id="edge27" class="edge">
<title>dir_c15c3f3fb57f56539c5f292b37505da8&#45;&gt;dir_a0a8ac7efb6662b749c1285408048e6d</title>
<path fill="none" stroke="#000000" d="M165.7166,-444.1224C125.3067,-434.8685 52.4307,-415.8966 35,-396 8.1197,-365.317 17,-346.7922 17,-306 17,-306 17,-306 17,-234 17,-173.4392 81.4682,-129.2848 123.8321,-106.8075"/>
<polygon fill="#000000" stroke="#000000" points="125.4747,-109.8985 132.7662,-102.2119 122.2727,-103.6738 125.4747,-109.8985"/>
<g id="a_edge27&#45;headlabel"><a xlink:href="dir_000034_000097.html" target="_top" xlink:title="1">
<text text-anchor="middle" x="123.5769" y="-111.5675" font-family="Helvetica,sans-Serif" font-size="10.00" fill="#000000">1</text>
</a>
</g>
</g>
<!-- dir_c15c3f3fb57f56539c5f292b37505da8&#45;&gt;dir_413ea6b66ae557d0d7cb038b88135642 -->
<g id="edge25" class="edge">
<title>dir_c15c3f3fb57f56539c5f292b37505da8&#45;&gt;dir_413ea6b66ae557d0d7cb038b88135642</title>
<path fill="none" stroke="#000000" d="M220.2123,-434.1993C238.0604,-423.8359 261.5951,-410.1706 280.988,-398.9102"/>
<polygon fill="#000000" stroke="#000000" points="282.9607,-401.812 289.8512,-393.7638 279.4458,-395.7585 282.9607,-401.812"/>
<g id="a_edge25&#45;headlabel"><a xlink:href="dir_000034_000124.html" target="_top" xlink:title="2">
<text text-anchor="middle" x="281.2779" y="-403.5723" font-family="Helvetica,sans-Serif" font-size="10.00" fill="#000000">2</text>
</a>
</g>
</g>
</g>
</svg>
        <g id="navigator" transform="translate(0 0)" fill="#404254">
                <rect fill="#f2f5e9" fill-opacity="0.5" stroke="#606060" stroke-width=".5" x="0" y="0" width="60" height="60"/>
                <use id="zoomplus" xlink:href="#zoomPlus" x="17" y="9" onmousedown="handleZoom(evt,'in')"/>
                <use id="zoomminus" xlink:href="#zoomMin" x="42" y="9" onmousedown="handleZoom(evt,'out')"/>
                <use id="reset" xlink:href="#resetDef" x="30" y="36" onmousedown="handleReset()"/>
                <g id="arrowUp" xlink:href="#dirArrow" transform="translate(30 24)" onmousedown="handlePan(0,-1)">
                  <use xlink:href="#rim" fill="#404040">
                        <set attributeName="fill" to="#808080" begin="arrowUp.mouseover" end="arrowUp.mouseout"/>
                  </use>
                  <path fill="none" stroke="white" stroke-width="1.5" d="M0,-3.0v7 M-2.5,-0.5L0,-3.0L2.5,-0.5"/>
                </g>
                <g id="arrowRight" xlink:href="#dirArrow" transform="rotate(90) translate(36 -43)" onmousedown="handlePan(1,0)">
                  <use xlink:href="#rim" fill="#404040">
                        <set attributeName="fill" to="#808080" begin="arrowRight.mouseover" end="arrowRight.mouseout"/>
                  </use>
                  <path fill="none" stroke="white" stroke-width="1.5" d="M0,-3.0v7 M-2.5,-0.5L0,-3.0L2.5,-0.5"/>
                </g>
                <g id="arrowDown" xlink:href="#dirArrow" transform="rotate(180) translate(-30 -48)" onmousedown="handlePan(0,1)">
                  <use xlink:href="#rim" fill="#404040">
                        <set attributeName="fill" to="#808080" begin="arrowDown.mouseover" end="arrowDown.mouseout"/>
                  </use>
                  <path fill="none" stroke="white" stroke-width="1.5" d="M0,-3.0v7 M-2.5,-0.5L0,-3.0L2.5,-0.5"/>
                </g>
                <g id="arrowLeft" xlink:href="#dirArrow" transform="rotate(270) translate(-36 17)" onmousedown="handlePan(-1,0)">
                  <use xlink:href="#rim" fill="#404040">
                        <set attributeName="fill" to="#808080" begin="arrowLeft.mouseover" end="arrowLeft.mouseout"/>
                  </use>
                  <path fill="none" stroke="white" stroke-width="1.5" d="M0,-3.0v7 M-2.5,-0.5L0,-3.0L2.5,-0.5"/>
                </g>
        </g>
        <svg viewBox="0 0 15 15" width="100%" height="30px" preserveAspectRatio="xMaxYMin meet">
         <g id="arrow_out" transform="scale(0.3 0.3)">
          <a xlink:href="dir_5a30d30e86afe8e71e8256ba8d77d003_dep_org.svg" target="_base">
           <rect id="button" ry="5" rx="5" y="6" x="6" height="38" width="38"
                fill="#f2f5e9" fill-opacity="0.5" stroke="#606060" stroke-width="1.0"/>
           <path id="arrow"
             d="M 11.500037,31.436501 C 11.940474,20.09759 22.043105,11.32322 32.158766,21.979434 L 37.068811,17.246167 C 37.068811,17.246167 37.088388,32 37.088388,32 L 22.160133,31.978069 C 22.160133,31.978069 26.997745,27.140456 26.997745,27.140456 C 18.528582,18.264221 13.291696,25.230495 11.500037,31.436501 z"
             style="fill:#404040;"/>
          </a>
         </g>
        </svg>
</svg>
