<?xml version="1.0" encoding="UTF-8" standalone="no"?>
<!DOCTYPE svg PUBLIC "-//W3C//DTD SVG 1.1//EN"
 "http://www.w3.org/Graphics/SVG/1.1/DTD/svg11.dtd">
<!-- Generated by graphviz version 2.40.1 (20161225.0304)
 -->
<!-- Title: ee/dma/src/dma.c Pages: 1 -->
<svg width="465pt" height="196pt"
 viewBox="0.00 0.00 464.95 196.00" xmlns="http://www.w3.org/2000/svg" xmlns:xlink="http://www.w3.org/1999/xlink">
<g id="graph0" class="graph" transform="scale(1 1) rotate(0) translate(4 192)">
<title>ee/dma/src/dma.c</title>
<polygon fill="#ffffff" stroke="transparent" points="-4,4 -4,-192 460.9497,-192 460.9497,4 -4,4"/>
<!-- Node1 -->
<g id="node1" class="node">
<title>Node1</title>
<g id="a_node1"><a xlink:title=" ">
<polygon fill="#bfbfbf" stroke="#000000" points="160.4497,-168.5 160.4497,-187.5 264.4497,-187.5 264.4497,-168.5 160.4497,-168.5"/>
<text text-anchor="middle" x="212.4497" y="-175.5" font-family="Helvetica,sans-Serif" font-size="10.00" fill="#000000">ee/dma/src/dma.c</text>
</a>
</g>
</g>
<!-- Node2 -->
<g id="node2" class="node">
<title>Node2</title>
<g id="a_node2"><a xlink:href="tamtypes_8h.html" target="_top" xlink:title=" ">
<polygon fill="#ffffff" stroke="#000000" points="33.4497,-.5 33.4497,-19.5 105.4497,-19.5 105.4497,-.5 33.4497,-.5"/>
<text text-anchor="middle" x="69.4497" y="-7.5" font-family="Helvetica,sans-Serif" font-size="10.00" fill="#000000">tamtypes.h</text>
</a>
</g>
</g>
<!-- Node1&#45;&gt;Node2 -->
<g id="edge1" class="edge">
<title>Node1&#45;&gt;Node2</title>
<path fill="none" stroke="#191970" d="M160.4249,-169.1611C115.7505,-160.7275 55.6132,-147.0989 36.4497,-132 7.9255,-109.5259 -9.9983,-88.3756 6.4497,-56 13.3107,-42.4951 26.2029,-32.0099 38.5463,-24.4839"/>
<polygon fill="#191970" stroke="#191970" points="40.35,-27.4849 47.3431,-19.5258 36.913,-21.3868 40.35,-27.4849"/>
</g>
<!-- Node3 -->
<g id="node3" class="node">
<title>Node3</title>
<g id="a_node3"><a xlink:href="dma_8h.html" target="_top" xlink:title=" ">
<polygon fill="#ffffff" stroke="#000000" points="45.9497,-112.5 45.9497,-131.5 92.9497,-131.5 92.9497,-112.5 45.9497,-112.5"/>
<text text-anchor="middle" x="69.4497" y="-119.5" font-family="Helvetica,sans-Serif" font-size="10.00" fill="#000000">dma.h</text>
</a>
</g>
</g>
<!-- Node1&#45;&gt;Node3 -->
<g id="edge2" class="edge">
<title>Node1&#45;&gt;Node3</title>
<path fill="none" stroke="#191970" d="M187.8671,-168.3733C164.3585,-159.1671 128.7347,-145.2165 102.6997,-135.021"/>
<polygon fill="#191970" stroke="#191970" points="103.8241,-131.7025 93.2363,-131.315 101.2715,-138.2206 103.8241,-131.7025"/>
</g>
<!-- Node5 -->
<g id="node5" class="node">
<title>Node5</title>
<g id="a_node5"><a xlink:href="kernel_8h.html" target="_top" xlink:title=" ">
<polygon fill="#ffffff" stroke="#000000" points="146.4497,-112.5 146.4497,-131.5 202.4497,-131.5 202.4497,-112.5 146.4497,-112.5"/>
<text text-anchor="middle" x="174.4497" y="-119.5" font-family="Helvetica,sans-Serif" font-size="10.00" fill="#000000">kernel.h</text>
</a>
</g>
</g>
<!-- Node1&#45;&gt;Node5 -->
<g id="edge6" class="edge">
<title>Node1&#45;&gt;Node5</title>
<path fill="none" stroke="#191970" d="M205.8306,-168.2455C200.5451,-160.4564 192.9956,-149.3308 186.6259,-139.9439"/>
<polygon fill="#191970" stroke="#191970" points="189.5042,-137.9522 180.9929,-131.6427 183.7118,-141.8827 189.5042,-137.9522"/>
</g>
<!-- Node9 -->
<g id="node9" class="node">
<title>Node9</title>
<g id="a_node9"><a xlink:title=" ">
<polygon fill="#ffffff" stroke="#bfbfbf" points="220.9497,-112.5 220.9497,-131.5 279.9497,-131.5 279.9497,-112.5 220.9497,-112.5"/>
<text text-anchor="middle" x="250.4497" y="-119.5" font-family="Helvetica,sans-Serif" font-size="10.00" fill="#000000">malloc.h</text>
</a>
</g>
</g>
<!-- Node1&#45;&gt;Node9 -->
<g id="edge11" class="edge">
<title>Node1&#45;&gt;Node9</title>
<path fill="none" stroke="#191970" d="M219.0688,-168.2455C224.3543,-160.4564 231.9038,-149.3308 238.2734,-139.9439"/>
<polygon fill="#191970" stroke="#191970" points="241.1876,-141.8827 243.9064,-131.6427 235.3952,-137.9522 241.1876,-141.8827"/>
</g>
<!-- Node10 -->
<g id="node10" class="node">
<title>Node10</title>
<g id="a_node10"><a xlink:title=" ">
<polygon fill="#ffffff" stroke="#bfbfbf" points="297.9497,-112.5 297.9497,-131.5 350.9497,-131.5 350.9497,-112.5 297.9497,-112.5"/>
<text text-anchor="middle" x="324.4497" y="-119.5" font-family="Helvetica,sans-Serif" font-size="10.00" fill="#000000">string.h</text>
</a>
</g>
</g>
<!-- Node1&#45;&gt;Node10 -->
<g id="edge12" class="edge">
<title>Node1&#45;&gt;Node10</title>
<path fill="none" stroke="#191970" d="M231.7032,-168.3733C249.5208,-159.4644 276.2244,-146.1127 296.4091,-136.0203"/>
<polygon fill="#191970" stroke="#191970" points="298.0684,-139.1038 305.4474,-131.5011 294.9379,-132.8428 298.0684,-139.1038"/>
</g>
<!-- Node11 -->
<g id="node11" class="node">
<title>Node11</title>
<g id="a_node11"><a xlink:href="dma__registers_8h.html" target="_top" xlink:title=" ">
<polygon fill="#ffffff" stroke="#000000" points="361.9497,-56.5 361.9497,-75.5 456.9497,-75.5 456.9497,-56.5 361.9497,-56.5"/>
<text text-anchor="middle" x="409.4497" y="-63.5" font-family="Helvetica,sans-Serif" font-size="10.00" fill="#000000">dma_registers.h</text>
</a>
</g>
</g>
<!-- Node1&#45;&gt;Node11 -->
<g id="edge13" class="edge">
<title>Node1&#45;&gt;Node11</title>
<path fill="none" stroke="#191970" d="M264.6768,-170.0921C294.7755,-163.5994 332.1347,-152.0759 360.4497,-132 377.8304,-119.6767 391.604,-99.2797 400.0665,-84.4173"/>
<polygon fill="#191970" stroke="#191970" points="403.1622,-86.0507 404.845,-75.5903 397.0063,-82.7181 403.1622,-86.0507"/>
</g>
<!-- Node3&#45;&gt;Node2 -->
<g id="edge3" class="edge">
<title>Node3&#45;&gt;Node2</title>
<path fill="none" stroke="#191970" d="M50.2397,-112.4505C36.9231,-104.663 20.2372,-92.2917 12.4497,-76 2.9237,-56.0712 22.7683,-37.4214 41.6007,-25.0653"/>
<polygon fill="#191970" stroke="#191970" points="43.6637,-27.9057 50.3514,-19.6883 39.999,-21.9416 43.6637,-27.9057"/>
</g>
<!-- Node4 -->
<g id="node4" class="node">
<title>Node4</title>
<g id="a_node4"><a xlink:href="packet2__types_8h.html" target="_top" xlink:title=" ">
<polygon fill="#ffffff" stroke="#000000" points="20.9497,-56.5 20.9497,-75.5 117.9497,-75.5 117.9497,-56.5 20.9497,-56.5"/>
<text text-anchor="middle" x="69.4497" y="-63.5" font-family="Helvetica,sans-Serif" font-size="10.00" fill="#000000">packet2_types.h</text>
</a>
</g>
</g>
<!-- Node3&#45;&gt;Node4 -->
<g id="edge4" class="edge">
<title>Node3&#45;&gt;Node4</title>
<path fill="none" stroke="#191970" d="M69.4497,-112.2455C69.4497,-104.9382 69.4497,-94.6944 69.4497,-85.7046"/>
<polygon fill="#191970" stroke="#191970" points="72.9498,-85.6426 69.4497,-75.6427 65.9498,-85.6427 72.9498,-85.6426"/>
</g>
<!-- Node4&#45;&gt;Node2 -->
<g id="edge5" class="edge">
<title>Node4&#45;&gt;Node2</title>
<path fill="none" stroke="#191970" d="M69.4497,-56.2455C69.4497,-48.9382 69.4497,-38.6944 69.4497,-29.7046"/>
<polygon fill="#191970" stroke="#191970" points="72.9498,-29.6426 69.4497,-19.6427 65.9498,-29.6427 72.9498,-29.6426"/>
</g>
<!-- Node6 -->
<g id="node6" class="node">
<title>Node6</title>
<g id="a_node6"><a xlink:title=" ">
<polygon fill="#ffffff" stroke="#bfbfbf" points="136.4497,-56.5 136.4497,-75.5 192.4497,-75.5 192.4497,-56.5 136.4497,-56.5"/>
<text text-anchor="middle" x="164.4497" y="-63.5" font-family="Helvetica,sans-Serif" font-size="10.00" fill="#000000">stddef.h</text>
</a>
</g>
</g>
<!-- Node5&#45;&gt;Node6 -->
<g id="edge7" class="edge">
<title>Node5&#45;&gt;Node6</title>
<path fill="none" stroke="#191970" d="M172.7078,-112.2455C171.4029,-104.9382 169.5737,-94.6944 167.9684,-85.7046"/>
<polygon fill="#191970" stroke="#191970" points="171.3751,-84.8717 166.1716,-75.6427 164.4841,-86.1022 171.3751,-84.8717"/>
</g>
<!-- Node7 -->
<g id="node7" class="node">
<title>Node7</title>
<g id="a_node7"><a xlink:title=" ">
<polygon fill="#ffffff" stroke="#bfbfbf" points="210.4497,-56.5 210.4497,-75.5 266.4497,-75.5 266.4497,-56.5 210.4497,-56.5"/>
<text text-anchor="middle" x="238.4497" y="-63.5" font-family="Helvetica,sans-Serif" font-size="10.00" fill="#000000">stdarg.h</text>
</a>
</g>
</g>
<!-- Node5&#45;&gt;Node7 -->
<g id="edge8" class="edge">
<title>Node5&#45;&gt;Node7</title>
<path fill="none" stroke="#191970" d="M185.5976,-112.2455C194.9583,-104.0549 208.5355,-92.1749 219.5846,-82.5069"/>
<polygon fill="#191970" stroke="#191970" points="222.2085,-84.8618 227.4295,-75.6427 217.5989,-79.5937 222.2085,-84.8618"/>
</g>
<!-- Node8 -->
<g id="node8" class="node">
<title>Node8</title>
<g id="a_node8"><a xlink:href="sifdma_8h.html" target="_top" xlink:title=" ">
<polygon fill="#ffffff" stroke="#000000" points="284.9497,-56.5 284.9497,-75.5 343.9497,-75.5 343.9497,-56.5 284.9497,-56.5"/>
<text text-anchor="middle" x="314.4497" y="-63.5" font-family="Helvetica,sans-Serif" font-size="10.00" fill="#000000">sifdma.h</text>
</a>
</g>
</g>
<!-- Node5&#45;&gt;Node8 -->
<g id="edge9" class="edge">
<title>Node5&#45;&gt;Node8</title>
<path fill="none" stroke="#191970" d="M198.5165,-112.3733C221.2925,-103.2629 255.6841,-89.5062 281.0987,-79.3404"/>
<polygon fill="#191970" stroke="#191970" points="282.712,-82.4648 290.6969,-75.5011 280.1122,-75.9654 282.712,-82.4648"/>
</g>
<!-- Node8&#45;&gt;Node2 -->
<g id="edge10" class="edge">
<title>Node8&#45;&gt;Node2</title>
<path fill="none" stroke="#191970" d="M284.6631,-58.2602C281.5552,-57.4832 278.4404,-56.7172 275.4497,-56 220.6376,-42.8564 157.3231,-28.9006 115.5117,-19.8536"/>
<polygon fill="#191970" stroke="#191970" points="116.1381,-16.4083 105.6247,-17.7191 114.6609,-23.2507 116.1381,-16.4083"/>
</g>
<!-- Node11&#45;&gt;Node2 -->
<g id="edge14" class="edge">
<title>Node11&#45;&gt;Node2</title>
<path fill="none" stroke="#191970" d="M361.7999,-57.4372C358.9754,-56.9464 356.1757,-56.4641 353.4497,-56 269.78,-41.7544 172.0585,-26.1534 115.8029,-17.2727"/>
<polygon fill="#191970" stroke="#191970" points="116.2172,-13.7949 105.794,-15.6945 115.1268,-20.7094 116.2172,-13.7949"/>
</g>
</g>
</svg>
