<?xml version="1.0" encoding="UTF-8" standalone="no"?>
<!DOCTYPE svg PUBLIC "-//W3C//DTD SVG 1.1//EN"
 "http://www.w3.org/Graphics/SVG/1.1/DTD/svg11.dtd">
<!-- Generated by graphviz version 2.40.1 (20161225.0304)
 -->
<!-- Title: ee/dma/include/dma.h Pages: 1 -->
<svg width="158pt" height="140pt"
 viewBox="0.00 0.00 158.00 140.00" xmlns="http://www.w3.org/2000/svg" xmlns:xlink="http://www.w3.org/1999/xlink">
<g id="graph0" class="graph" transform="scale(1 1) rotate(0) translate(4 136)">
<title>ee/dma/include/dma.h</title>
<polygon fill="#ffffff" stroke="transparent" points="-4,4 -4,-136 154,-136 154,4 -4,4"/>
<!-- Node1 -->
<g id="node1" class="node">
<title>Node1</title>
<g id="a_node1"><a xlink:title=" ">
<polygon fill="#bfbfbf" stroke="#000000" points="0,-112.5 0,-131.5 125,-131.5 125,-112.5 0,-112.5"/>
<text text-anchor="middle" x="62.5" y="-119.5" font-family="Helvetica,sans-Serif" font-size="10.00" fill="#000000">ee/dma/include/dma.h</text>
</a>
</g>
</g>
<!-- Node2 -->
<g id="node2" class="node">
<title>Node2</title>
<g id="a_node2"><a xlink:href="tamtypes_8h.html" target="_top" xlink:title=" ">
<polygon fill="#ffffff" stroke="#000000" points="26.5,-.5 26.5,-19.5 98.5,-19.5 98.5,-.5 26.5,-.5"/>
<text text-anchor="middle" x="62.5" y="-7.5" font-family="Helvetica,sans-Serif" font-size="10.00" fill="#000000">tamtypes.h</text>
</a>
</g>
</g>
<!-- Node1&#45;&gt;Node2 -->
<g id="edge1" class="edge">
<title>Node1&#45;&gt;Node2</title>
<path fill="none" stroke="#191970" d="M57.5415,-112.4444C53.122,-103.352 46.9805,-89.1462 44.5,-76 41.4765,-59.9762 46.8736,-42.1562 52.5286,-29.0756"/>
<polygon fill="#191970" stroke="#191970" points="55.84,-30.2613 56.9633,-19.7262 49.5154,-27.2613 55.84,-30.2613"/>
</g>
<!-- Node3 -->
<g id="node3" class="node">
<title>Node3</title>
<g id="a_node3"><a xlink:href="packet2__types_8h.html" target="_top" xlink:title=" ">
<polygon fill="#ffffff" stroke="#000000" points="53,-56.5 53,-75.5 150,-75.5 150,-56.5 53,-56.5"/>
<text text-anchor="middle" x="101.5" y="-63.5" font-family="Helvetica,sans-Serif" font-size="10.00" fill="#000000">packet2_types.h</text>
</a>
</g>
</g>
<!-- Node1&#45;&gt;Node3 -->
<g id="edge2" class="edge">
<title>Node1&#45;&gt;Node3</title>
<path fill="none" stroke="#191970" d="M69.2933,-112.2455C74.7178,-104.4564 82.4661,-93.3308 89.0033,-83.9439"/>
<polygon fill="#191970" stroke="#191970" points="91.9417,-85.849 94.7846,-75.6427 86.1975,-81.8485 91.9417,-85.849"/>
</g>
<!-- Node3&#45;&gt;Node2 -->
<g id="edge3" class="edge">
<title>Node3&#45;&gt;Node2</title>
<path fill="none" stroke="#191970" d="M94.7067,-56.2455C89.2822,-48.4564 81.5339,-37.3308 74.9967,-27.9439"/>
<polygon fill="#191970" stroke="#191970" points="77.8025,-25.8485 69.2154,-19.6427 72.0583,-29.849 77.8025,-25.8485"/>
</g>
</g>
</svg>
