<?xml version="1.0" encoding="UTF-8" standalone="no"?>
<!DOCTYPE svg PUBLIC "-//W3C//DTD SVG 1.1//EN"
 "http://www.w3.org/Graphics/SVG/1.1/DTD/svg11.dtd">
<!-- Generated by graphviz version 2.40.1 (20161225.0304)
 -->
<!-- Title: ee/draw/include/draw_types.h Pages: 1 -->
<!--zoomable 285 -->
<svg id="main" version="1.1" xmlns="http://www.w3.org/2000/svg" xmlns:xlink="http://www.w3.org/1999/xlink" xml:space="preserve" onload="init(evt)">
<style type="text/css"><![CDATA[
.edge:hover path { stroke: red; }
.edge:hover polygon { stroke: red; fill: red; }
]]></style>
<script type="text/javascript"><![CDATA[
var edges = document.getElementsByTagName('g');
if (edges && edges.length) {
  for (var i=0;i<edges.length;i++) {
    if (edges[i].id.substr(0,4)=='edge') {
      edges[i].setAttribute('class','edge');
    }
  }
}
]]></script>
        <defs>
                <circle id="rim" cx="0" cy="0" r="7"/>
                <circle id="rim2" cx="0" cy="0" r="3.5"/>
                <g id="zoomPlus">
                        <use xlink:href="#rim" fill="#404040">
                                <set attributeName="fill" to="#808080" begin="zoomplus.mouseover" end="zoomplus.mouseout"/>
                        </use>
                        <path d="M-4,0h8M0,-4v8" fill="none" stroke="white" stroke-width="1.5" pointer-events="none"/>
                </g>
                <g id="zoomMin">
                        <use xlink:href="#rim" fill="#404040">
                                <set attributeName="fill" to="#808080" begin="zoomminus.mouseover" end="zoomminus.mouseout"/>
                        </use>
                        <path d="M-4,0h8" fill="none" stroke="white" stroke-width="1.5" pointer-events="none"/>
                </g>
                <g id="dirArrow">
                        <path fill="none" stroke="white" stroke-width="1.5" d="M0,-3.0v7 M-2.5,-0.5L0,-3.0L2.5,-0.5"/>
                </g>
               <g id="resetDef">
                       <use xlink:href="#rim2" fill="#404040">
                               <set attributeName="fill" to="#808080" begin="reset.mouseover" end="reset.mouseout"/>
                       </use>
               </g>
        </defs>

<script type="text/javascript">
var viewWidth = 1818;
var viewHeight = 285;
var sectionId = 'dynsection-1';
</script>
<script xlink:href="svgpan.js"/>
<svg id="graph" class="graph">
<g id="viewport">
<title>ee/draw/include/draw_types.h</title>
<polygon fill="#ffffff" stroke="transparent" points="-4,4 -4,-281 1813.5534,-281 1813.5534,4 -4,4"/>
<!-- Node1 -->
<g id="node1" class="node">
<title>Node1</title>
<g id="a_node1"><a xlink:title=" ">
<polygon fill="#bfbfbf" stroke="#000000" points="925.5534,-246.5 925.5534,-276.5 1046.5534,-276.5 1046.5534,-246.5 925.5534,-246.5"/>
<text text-anchor="start" x="933.5534" y="-264.5" font-family="Helvetica,sans-Serif" font-size="10.00" fill="#000000">ee/draw/include/draw</text>
<text text-anchor="middle" x="986.0534" y="-253.5" font-family="Helvetica,sans-Serif" font-size="10.00" fill="#000000">_types.h</text>
</a>
</g>
</g>
<!-- Node2 -->
<g id="node2" class="node">
<title>Node2</title>
<g id="a_node2"><a xlink:href="draw_8h.html" target="_top" xlink:title=" ">
<polygon fill="#ffffff" stroke="#000000" points="921.5534,-129 921.5534,-148 1050.5534,-148 1050.5534,-129 921.5534,-129"/>
<text text-anchor="middle" x="986.0534" y="-136" font-family="Helvetica,sans-Serif" font-size="10.00" fill="#000000">ee/draw/include/draw.h</text>
</a>
</g>
</g>
<!-- Node1&#45;&gt;Node2 -->
<g id="edge1" class="edge">
<title>Node1&#45;&gt;Node2</title>
<path fill="none" stroke="#191970" d="M986.0534,-236.0615C986.0534,-208.7435 986.0534,-166.7476 986.0534,-148.0493"/>
<polygon fill="#191970" stroke="#191970" points="982.5535,-236.4178 986.0534,-246.4178 989.5535,-236.4178 982.5535,-236.4178"/>
</g>
<!-- Node17 -->
<g id="node17" class="node">
<title>Node17</title>
<g id="a_node17"><a xlink:href="draw2d_8h.html" target="_top" xlink:title=" ">
<polygon fill="#ffffff" stroke="#000000" points="1030.0534,-190.5 1030.0534,-209.5 1172.0534,-209.5 1172.0534,-190.5 1030.0534,-190.5"/>
<text text-anchor="middle" x="1101.0534" y="-197.5" font-family="Helvetica,sans-Serif" font-size="10.00" fill="#000000">ee/draw/include/draw2d.h</text>
</a>
</g>
</g>
<!-- Node1&#45;&gt;Node17 -->
<g id="edge19" class="edge">
<title>Node1&#45;&gt;Node17</title>
<path fill="none" stroke="#191970" d="M1023.1251,-241.6747C1043.2627,-230.9055 1067.2426,-218.0814 1083.2325,-209.5303"/>
<polygon fill="#191970" stroke="#191970" points="1021.3532,-238.6531 1014.1856,-246.4554 1024.6544,-244.8259 1021.3532,-238.6531"/>
</g>
<!-- Node18 -->
<g id="node18" class="node">
<title>Node18</title>
<g id="a_node18"><a xlink:href="draw3d_8h.html" target="_top" xlink:title=" ">
<polygon fill="#ffffff" stroke="#000000" points="358.0534,-190.5 358.0534,-209.5 500.0534,-209.5 500.0534,-190.5 358.0534,-190.5"/>
<text text-anchor="middle" x="429.0534" y="-197.5" font-family="Helvetica,sans-Serif" font-size="10.00" fill="#000000">ee/draw/include/draw3d.h</text>
</a>
</g>
</g>
<!-- Node1&#45;&gt;Node18 -->
<g id="edge23" class="edge">
<title>Node1&#45;&gt;Node18</title>
<path fill="none" stroke="#191970" d="M915.3489,-253.6933C808.534,-241.8996 607.1611,-219.6654 500.1282,-207.8476"/>
<polygon fill="#191970" stroke="#191970" points="915.0606,-257.1827 925.3843,-254.8013 915.8289,-250.2249 915.0606,-257.1827"/>
</g>
<!-- Node3 -->
<g id="node3" class="node">
<title>Node3</title>
<g id="a_node3"><a xlink:href="cube_8c.html" target="_top" xlink:title=" ">
<polygon fill="#ffffff" stroke="#000000" points="64.0534,-56.5 64.0534,-86.5 190.0534,-86.5 190.0534,-56.5 64.0534,-56.5"/>
<text text-anchor="start" x="72.0534" y="-74.5" font-family="Helvetica,sans-Serif" font-size="10.00" fill="#000000">ee/draw/samples/cube</text>
<text text-anchor="middle" x="127.0534" y="-63.5" font-family="Helvetica,sans-Serif" font-size="10.00" fill="#000000">/cube.c</text>
</a>
</g>
</g>
<!-- Node2&#45;&gt;Node3 -->
<g id="edge2" class="edge">
<title>Node2&#45;&gt;Node3</title>
<path fill="none" stroke="#191970" d="M911.2937,-135.0118C742.355,-126.9011 335.2703,-106.0145 199.0534,-87 196.1408,-86.5934 193.1703,-86.1348 190.176,-85.6367"/>
<polygon fill="#191970" stroke="#191970" points="911.1888,-138.5107 921.3447,-135.4928 911.5234,-131.5187 911.1888,-138.5107"/>
</g>
<!-- Node4 -->
<g id="node4" class="node">
<title>Node4</title>
<g id="a_node4"><a xlink:href="teapot_8c.html" target="_top" xlink:title=" ">
<polygon fill="#ffffff" stroke="#000000" points="208.0534,-56.5 208.0534,-86.5 342.0534,-86.5 342.0534,-56.5 208.0534,-56.5"/>
<text text-anchor="start" x="216.0534" y="-74.5" font-family="Helvetica,sans-Serif" font-size="10.00" fill="#000000">ee/draw/samples/teapot</text>
<text text-anchor="middle" x="275.0534" y="-63.5" font-family="Helvetica,sans-Serif" font-size="10.00" fill="#000000">/teapot.c</text>
</a>
</g>
</g>
<!-- Node2&#45;&gt;Node4 -->
<g id="edge3" class="edge">
<title>Node2&#45;&gt;Node4</title>
<path fill="none" stroke="#191970" d="M911.2212,-135.3499C792.1488,-129.6823 552.4253,-115.5948 351.0534,-87 348.1203,-86.5835 345.13,-86.1241 342.1141,-85.6323"/>
<polygon fill="#191970" stroke="#191970" points="911.168,-138.8511 921.3211,-135.8241 911.4963,-131.8588 911.168,-138.8511"/>
</g>
<!-- Node5 -->
<g id="node5" class="node">
<title>Node5</title>
<g id="a_node5"><a xlink:href="draw_2samples_2texture_2texture_8c.html" target="_top" xlink:title=" ">
<polygon fill="#ffffff" stroke="#000000" points="360.0534,-56.5 360.0534,-86.5 498.0534,-86.5 498.0534,-56.5 360.0534,-56.5"/>
<text text-anchor="start" x="368.0534" y="-74.5" font-family="Helvetica,sans-Serif" font-size="10.00" fill="#000000">ee/draw/samples/texture</text>
<text text-anchor="middle" x="429.0534" y="-63.5" font-family="Helvetica,sans-Serif" font-size="10.00" fill="#000000">/texture.c</text>
</a>
</g>
</g>
<!-- Node2&#45;&gt;Node5 -->
<g id="edge4" class="edge">
<title>Node2&#45;&gt;Node5</title>
<path fill="none" stroke="#191970" d="M911.2524,-132.456C816.9453,-124.3736 649.9783,-108.5274 508.0534,-87 504.8751,-86.5179 501.6302,-85.9973 498.3564,-85.4491"/>
<polygon fill="#191970" stroke="#191970" points="911.0063,-135.9476 921.2672,-133.3085 911.6001,-128.9729 911.0063,-135.9476"/>
</g>
<!-- Node6 -->
<g id="node6" class="node">
<title>Node6</title>
<g id="a_node6"><a xlink:href="draw_2samples_2vu1_2main_8c.html" target="_top" xlink:title=" ">
<polygon fill="#ffffff" stroke="#000000" points="516.5534,-56.5 516.5534,-86.5 637.5534,-86.5 637.5534,-56.5 516.5534,-56.5"/>
<text text-anchor="start" x="524.5534" y="-74.5" font-family="Helvetica,sans-Serif" font-size="10.00" fill="#000000">ee/draw/samples/vu1</text>
<text text-anchor="middle" x="577.0534" y="-63.5" font-family="Helvetica,sans-Serif" font-size="10.00" fill="#000000">/main.c</text>
</a>
</g>
</g>
<!-- Node2&#45;&gt;Node6 -->
<g id="edge5" class="edge">
<title>Node2&#45;&gt;Node6</title>
<path fill="none" stroke="#191970" d="M911.3897,-128.0957C843.5811,-118.3835 740.888,-103.0177 652.0534,-87 647.3428,-86.1506 642.4739,-85.2336 637.5844,-84.2848"/>
<polygon fill="#191970" stroke="#191970" points="911.1559,-131.5977 921.5501,-129.546 912.1451,-124.6679 911.1559,-131.5977"/>
</g>
<!-- Node7 -->
<g id="node7" class="node">
<title>Node7</title>
<g id="a_node7"><a xlink:href="draw_2src_2draw_8c.html" target="_top" xlink:title=" ">
<polygon fill="#ffffff" stroke="#000000" points="1702.5534,-62 1702.5534,-81 1809.5534,-81 1809.5534,-62 1702.5534,-62"/>
<text text-anchor="middle" x="1756.0534" y="-69" font-family="Helvetica,sans-Serif" font-size="10.00" fill="#000000">ee/draw/src/draw.c</text>
</a>
</g>
</g>
<!-- Node2&#45;&gt;Node7 -->
<g id="edge6" class="edge">
<title>Node2&#45;&gt;Node7</title>
<path fill="none" stroke="#191970" d="M1061.0156,-137.1811C1190.6197,-133.9797 1464.6379,-123.1535 1693.0534,-87 1702.5098,-85.5032 1712.632,-83.2916 1721.9353,-81.0049"/>
<polygon fill="#191970" stroke="#191970" points="1060.7212,-133.687 1050.8076,-137.4248 1060.8883,-140.685 1060.7212,-133.687"/>
</g>
<!-- Node8 -->
<g id="node8" class="node">
<title>Node8</title>
<g id="a_node8"><a xlink:href="draw2d_8c.html" target="_top" xlink:title=" ">
<polygon fill="#ffffff" stroke="#000000" points="1564.0534,-62 1564.0534,-81 1684.0534,-81 1684.0534,-62 1564.0534,-62"/>
<text text-anchor="middle" x="1624.0534" y="-69" font-family="Helvetica,sans-Serif" font-size="10.00" fill="#000000">ee/draw/src/draw2d.c</text>
</a>
</g>
</g>
<!-- Node2&#45;&gt;Node8 -->
<g id="edge7" class="edge">
<title>Node2&#45;&gt;Node8</title>
<path fill="none" stroke="#191970" d="M1061.069,-134.8405C1170.2771,-128.8056 1379.1997,-114.5888 1555.0534,-87 1565.1208,-85.4206 1575.9132,-83.236 1585.9023,-81.0047"/>
<polygon fill="#191970" stroke="#191970" points="1060.6109,-131.3602 1050.8162,-135.3992 1060.9918,-138.3498 1060.6109,-131.3602"/>
</g>
<!-- Node9 -->
<g id="node9" class="node">
<title>Node9</title>
<g id="a_node9"><a xlink:href="draw3d_8c.html" target="_top" xlink:title=" ">
<polygon fill="#ffffff" stroke="#000000" points="1232.0534,-62 1232.0534,-81 1352.0534,-81 1352.0534,-62 1232.0534,-62"/>
<text text-anchor="middle" x="1292.0534" y="-69" font-family="Helvetica,sans-Serif" font-size="10.00" fill="#000000">ee/draw/src/draw3d.c</text>
</a>
</g>
</g>
<!-- Node2&#45;&gt;Node9 -->
<g id="edge8" class="edge">
<title>Node2&#45;&gt;Node9</title>
<path fill="none" stroke="#191970" d="M1039.4818,-126.8016C1098.7072,-113.834 1193.1212,-93.1616 1248.1907,-81.1039"/>
<polygon fill="#191970" stroke="#191970" points="1038.5907,-123.4137 1029.5708,-128.9717 1040.088,-130.2517 1038.5907,-123.4137"/>
</g>
<!-- Node10 -->
<g id="node10" class="node">
<title>Node10</title>
<g id="a_node10"><a xlink:href="draw__environment_8c.html" target="_top" xlink:title=" ">
<polygon fill="#ffffff" stroke="#000000" points="1370.0534,-62 1370.0534,-81 1546.0534,-81 1546.0534,-62 1370.0534,-62"/>
<text text-anchor="middle" x="1458.0534" y="-69" font-family="Helvetica,sans-Serif" font-size="10.00" fill="#000000">ee/draw/src/draw_environment.c</text>
</a>
</g>
</g>
<!-- Node2&#45;&gt;Node10 -->
<g id="edge9" class="edge">
<title>Node2&#45;&gt;Node10</title>
<path fill="none" stroke="#191970" d="M1060.7393,-128.7346C1136.471,-118.717 1257.0089,-102.4553 1361.0534,-87 1373.6207,-85.1332 1387.0884,-83.0402 1399.868,-81.0108"/>
<polygon fill="#191970" stroke="#191970" points="1060.2707,-125.266 1050.8152,-130.0455 1061.1875,-132.2057 1060.2707,-125.266"/>
</g>
<!-- Node11 -->
<g id="node11" class="node">
<title>Node11</title>
<g id="a_node11"><a xlink:href="font_8h.html" target="_top" xlink:title=" ">
<polygon fill="#ffffff" stroke="#000000" points="1016.5534,-62 1016.5534,-81 1137.5534,-81 1137.5534,-62 1016.5534,-62"/>
<text text-anchor="middle" x="1077.0534" y="-69" font-family="Helvetica,sans-Serif" font-size="10.00" fill="#000000">ee/font/include/font.h</text>
</a>
</g>
</g>
<!-- Node2&#45;&gt;Node11 -->
<g id="edge10" class="edge">
<title>Node2&#45;&gt;Node11</title>
<path fill="none" stroke="#191970" d="M1007.573,-122.6559C1025.1162,-109.7395 1049.3186,-91.9201 1064.0395,-81.0817"/>
<polygon fill="#191970" stroke="#191970" points="1005.0691,-120.153 999.0915,-128.9005 1009.2194,-125.79 1005.0691,-120.153"/>
</g>
<!-- Node12 -->
<g id="node12" class="node">
<title>Node12</title>
<g id="a_node12"><a xlink:href="font_2samples_2font_8c.html" target="_top" xlink:title=" ">
<polygon fill="#ffffff" stroke="#000000" points="1141.0534,-.5 1141.0534,-19.5 1267.0534,-19.5 1267.0534,-.5 1141.0534,-.5"/>
<text text-anchor="middle" x="1204.0534" y="-7.5" font-family="Helvetica,sans-Serif" font-size="10.00" fill="#000000">ee/font/samples/font.c</text>
</a>
</g>
</g>
<!-- Node2&#45;&gt;Node12 -->
<g id="edge14" class="edge">
<title>Node2&#45;&gt;Node12</title>
<path fill="none" stroke="#191970" d="M1043.9107,-126.7671C1088.1696,-116.8709 1144.6378,-101.963 1163.0534,-87 1185.1512,-69.0451 1196.9044,-35.9349 1201.5892,-19.6119"/>
<polygon fill="#191970" stroke="#191970" points="1043.115,-123.3584 1034.1,-128.9243 1044.6184,-130.1951 1043.115,-123.3584"/>
</g>
<!-- Node13 -->
<g id="node13" class="node">
<title>Node13</title>
<g id="a_node13"><a xlink:href="fontx_8c.html" target="_top" xlink:title=" ">
<polygon fill="#ffffff" stroke="#000000" points="613.5534,-.5 613.5534,-19.5 718.5534,-19.5 718.5534,-.5 613.5534,-.5"/>
<text text-anchor="middle" x="666.0534" y="-7.5" font-family="Helvetica,sans-Serif" font-size="10.00" fill="#000000">ee/font/src/fontx.c</text>
</a>
</g>
</g>
<!-- Node2&#45;&gt;Node13 -->
<g id="edge15" class="edge">
<title>Node2&#45;&gt;Node13</title>
<path fill="none" stroke="#191970" d="M911.2334,-134.7735C833.2869,-129.3464 718.1208,-116.4774 686.0534,-87 666.937,-69.4276 665.1117,-36.138 665.4908,-19.6928"/>
<polygon fill="#191970" stroke="#191970" points="911.285,-138.2847 921.4964,-135.4604 911.7525,-131.3003 911.285,-138.2847"/>
</g>
<!-- Node14 -->
<g id="node14" class="node">
<title>Node14</title>
<g id="a_node14"><a xlink:href="fsfont_8c.html" target="_top" xlink:title=" ">
<polygon fill="#ffffff" stroke="#000000" points="1015.0534,-.5 1015.0534,-19.5 1123.0534,-19.5 1123.0534,-.5 1015.0534,-.5"/>
<text text-anchor="middle" x="1069.0534" y="-7.5" font-family="Helvetica,sans-Serif" font-size="10.00" fill="#000000">ee/font/src/fsfont.c</text>
</a>
</g>
</g>
<!-- Node2&#45;&gt;Node14 -->
<g id="edge16" class="edge">
<title>Node2&#45;&gt;Node14</title>
<path fill="none" stroke="#191970" d="M1047.0463,-126.753C1087.3308,-117.6131 1134.8644,-103.6964 1147.0534,-87 1155.1772,-75.8721 1153.8871,-67.9636 1147.0534,-56 1136.9166,-38.2536 1116.9608,-26.6687 1099.7725,-19.5638"/>
<polygon fill="#191970" stroke="#191970" points="1046.2636,-123.3414 1037.2534,-128.9152 1047.7729,-130.1768 1046.2636,-123.3414"/>
</g>
<!-- Node15 -->
<g id="node15" class="node">
<title>Node15</title>
<g id="a_node15"><a xlink:href="samples_2graph_8c.html" target="_top" xlink:title=" ">
<polygon fill="#ffffff" stroke="#000000" points="694.5534,-62 694.5534,-81 837.5534,-81 837.5534,-62 694.5534,-62"/>
<text text-anchor="middle" x="766.0534" y="-69" font-family="Helvetica,sans-Serif" font-size="10.00" fill="#000000">ee/graph/samples/graph.c</text>
</a>
</g>
</g>
<!-- Node2&#45;&gt;Node15 -->
<g id="edge17" class="edge">
<title>Node2&#45;&gt;Node15</title>
<path fill="none" stroke="#191970" d="M944.7248,-125.9136C901.9892,-112.8986 836.2063,-92.8647 797.5156,-81.0817"/>
<polygon fill="#191970" stroke="#191970" points="943.9469,-129.3353 954.5328,-128.9005 945.9863,-122.6389 943.9469,-129.3353"/>
</g>
<!-- Node16 -->
<g id="node16" class="node">
<title>Node16</title>
<g id="a_node16"><a xlink:href="mpeg_8c.html" target="_top" xlink:title=" ">
<polygon fill="#ffffff" stroke="#000000" points="855.5534,-62 855.5534,-81 998.5534,-81 998.5534,-62 855.5534,-62"/>
<text text-anchor="middle" x="927.0534" y="-69" font-family="Helvetica,sans-Serif" font-size="10.00" fill="#000000">ee/mpeg/samples/mpeg.c</text>
</a>
</g>
</g>
<!-- Node2&#45;&gt;Node16 -->
<g id="edge18" class="edge">
<title>Node2&#45;&gt;Node16</title>
<path fill="none" stroke="#191970" d="M970.832,-121.2147C959.5836,-108.441 944.685,-91.5224 935.491,-81.0817"/>
<polygon fill="#191970" stroke="#191970" points="968.3646,-123.7087 977.6001,-128.9005 973.618,-119.0825 968.3646,-123.7087"/>
</g>
<!-- Node11&#45;&gt;Node12 -->
<g id="edge11" class="edge">
<title>Node11&#45;&gt;Node12</title>
<path fill="none" stroke="#191970" d="M1106.2091,-57.3813C1130.1597,-45.7832 1163.4339,-29.6701 1184.349,-19.5419"/>
<polygon fill="#191970" stroke="#191970" points="1104.372,-54.3821 1096.8972,-61.8906 1107.4229,-60.6823 1104.372,-54.3821"/>
</g>
<!-- Node11&#45;&gt;Node13 -->
<g id="edge12" class="edge">
<title>Node11&#45;&gt;Node13</title>
<path fill="none" stroke="#191970" d="M1027.3508,-59.792C1020.8764,-58.4266 1014.3188,-57.1229 1008.0534,-56 906.1825,-37.7429 786.0639,-23.1792 718.713,-15.6377"/>
<polygon fill="#191970" stroke="#191970" points="1026.888,-63.2729 1037.4026,-61.971 1028.3711,-56.4318 1026.888,-63.2729"/>
</g>
<!-- Node11&#45;&gt;Node14 -->
<g id="edge13" class="edge">
<title>Node11&#45;&gt;Node14</title>
<path fill="none" stroke="#191970" d="M1074.4838,-51.7462C1073.0927,-41.0519 1071.4357,-28.314 1070.321,-19.7449"/>
<polygon fill="#191970" stroke="#191970" points="1071.0426,-52.4257 1075.8034,-61.8906 1077.9841,-51.5227 1071.0426,-52.4257"/>
</g>
<!-- Node17&#45;&gt;Node2 -->
<g id="edge20" class="edge">
<title>Node17&#45;&gt;Node2</title>
<path fill="none" stroke="#191970" d="M1074.0723,-185.571C1052.4303,-173.9972 1022.6665,-158.0801 1003.896,-148.0419"/>
<polygon fill="#191970" stroke="#191970" points="1072.6159,-188.7611 1083.0847,-190.3906 1075.917,-182.5884 1072.6159,-188.7611"/>
</g>
<!-- Node17&#45;&gt;Node7 -->
<g id="edge21" class="edge">
<title>Node17&#45;&gt;Node7</title>
<path fill="none" stroke="#191970" d="M1182.0837,-191.8444C1251.257,-184.2135 1353.1962,-171.3814 1441.0534,-154 1546.1447,-133.2091 1668.2549,-97.9929 1724.6036,-81.0998"/>
<polygon fill="#191970" stroke="#191970" points="1181.6821,-188.3673 1172.1212,-192.9324 1182.4421,-195.326 1181.6821,-188.3673"/>
</g>
<!-- Node17&#45;&gt;Node8 -->
<g id="edge22" class="edge">
<title>Node17&#45;&gt;Node8</title>
<path fill="none" stroke="#191970" d="M1182.3845,-189.7798C1237.4871,-182.0309 1311.704,-169.9823 1376.0534,-154 1459.5044,-133.2735 1555.2996,-98.0263 1599.4371,-81.1129"/>
<polygon fill="#191970" stroke="#191970" points="1181.7483,-186.3344 1172.3247,-191.1766 1182.7111,-193.2679 1181.7483,-186.3344"/>
</g>
<!-- Node18&#45;&gt;Node2 -->
<g id="edge24" class="edge">
<title>Node18&#45;&gt;Node2</title>
<path fill="none" stroke="#191970" d="M510.336,-191.0254C621.7079,-178.7285 819.5071,-156.8889 921.4055,-145.638"/>
<polygon fill="#191970" stroke="#191970" points="509.7191,-187.5721 500.1636,-192.1485 510.4873,-194.5298 509.7191,-187.5721"/>
</g>
<!-- Node18&#45;&gt;Node3 -->
<g id="edge25" class="edge">
<title>Node18&#45;&gt;Node3</title>
<path fill="none" stroke="#191970" d="M397.1394,-186.4207C340.3587,-162.2607 222.189,-111.9799 162.7802,-86.7016"/>
<polygon fill="#191970" stroke="#191970" points="395.7823,-189.6469 406.3543,-190.3416 398.523,-183.2057 395.7823,-189.6469"/>
</g>
<!-- Node18&#45;&gt;Node4 -->
<g id="edge26" class="edge">
<title>Node18&#45;&gt;Node4</title>
<path fill="none" stroke="#191970" d="M409.4222,-183.6194C379.3844,-158.5554 322.4396,-111.0398 293.2717,-86.7016"/>
<polygon fill="#191970" stroke="#191970" points="407.5579,-186.6222 417.4784,-190.3416 412.0426,-181.2475 407.5579,-186.6222"/>
</g>
<!-- Node18&#45;&gt;Node5 -->
<g id="edge27" class="edge">
<title>Node18&#45;&gt;Node5</title>
<path fill="none" stroke="#191970" d="M429.0534,-180.2718C429.0534,-154.5195 429.0534,-109.9952 429.0534,-86.7016"/>
<polygon fill="#191970" stroke="#191970" points="425.5535,-180.3416 429.0534,-190.3416 432.5535,-180.3416 425.5535,-180.3416"/>
</g>
<!-- Node18&#45;&gt;Node8 -->
<g id="edge28" class="edge">
<title>Node18&#45;&gt;Node8</title>
<path fill="none" stroke="#191970" d="M510.3178,-196.1849C696.4346,-186.5038 1167.4187,-156.6381 1555.0534,-87 1564.6,-85.285 1574.8254,-83.1524 1584.4016,-81.0232"/>
<polygon fill="#191970" stroke="#191970" points="509.8766,-192.7029 500.0698,-196.7125 510.2366,-199.6936 509.8766,-192.7029"/>
</g>
<!-- Node18&#45;&gt;Node13 -->
<g id="edge29" class="edge">
<title>Node18&#45;&gt;Node13</title>
<path fill="none" stroke="#191970" d="M347.7037,-196.5205C235.1603,-190.8588 43.3295,-177.8162 22.0534,-154 -6.9641,-121.5181 -7.6276,-87.8767 22.0534,-56 42.1162,-34.453 463.1156,-17.2868 613.3569,-11.8263"/>
<polygon fill="#191970" stroke="#191970" points="347.8441,-200.0316 358.0046,-197.0292 348.1895,-193.0401 347.8441,-200.0316"/>
</g>
<!-- Node18&#45;&gt;Node14 -->
<g id="edge30" class="edge">
<title>Node18&#45;&gt;Node14</title>
<path fill="none" stroke="#191970" d="M347.6231,-195.1626C212.1816,-184.3625 -35.9531,-151.2286 55.0534,-56 63.4239,-47.2412 806.2723,-19.5644 1015.033,-11.9535"/>
<polygon fill="#191970" stroke="#191970" points="347.7313,-198.6813 357.9712,-195.962 348.2705,-191.7021 347.7313,-198.6813"/>
</g>
<!-- Node19 -->
<g id="node19" class="node">
<title>Node19</title>
<g id="a_node19"><a xlink:href="packet2__utils_8h.html" target="_top" xlink:title=" ">
<polygon fill="#ffffff" stroke="#000000" points="490.5534,-123.5 490.5534,-153.5 599.5534,-153.5 599.5534,-123.5 490.5534,-123.5"/>
<text text-anchor="start" x="498.5534" y="-141.5" font-family="Helvetica,sans-Serif" font-size="10.00" fill="#000000">ee/packet2/include</text>
<text text-anchor="middle" x="545.0534" y="-130.5" font-family="Helvetica,sans-Serif" font-size="10.00" fill="#000000">/packet2_utils.h</text>
</a>
</g>
</g>
<!-- Node18&#45;&gt;Node19 -->
<g id="edge31" class="edge">
<title>Node18&#45;&gt;Node19</title>
<path fill="none" stroke="#191970" d="M456.1061,-185.6574C474.2927,-176.0154 498.22,-163.3298 516.6766,-153.5446"/>
<polygon fill="#191970" stroke="#191970" points="454.3741,-182.6142 447.1784,-190.3906 457.653,-188.7987 454.3741,-182.6142"/>
</g>
<!-- Node19&#45;&gt;Node6 -->
<g id="edge32" class="edge">
<title>Node19&#45;&gt;Node6</title>
<path fill="none" stroke="#191970" d="M556.6626,-114.1932C561.0609,-104.9844 565.9389,-94.771 569.8208,-86.6432"/>
<polygon fill="#191970" stroke="#191970" points="553.4663,-112.7646 552.3147,-123.2967 559.7828,-115.7815 553.4663,-112.7646"/>
</g>
</g>
</svg>
        <g id="navigator" transform="translate(0 0)" fill="#404254">
                <rect fill="#f2f5e9" fill-opacity="0.5" stroke="#606060" stroke-width=".5" x="0" y="0" width="60" height="60"/>
                <use id="zoomplus" xlink:href="#zoomPlus" x="17" y="9" onmousedown="handleZoom(evt,'in')"/>
                <use id="zoomminus" xlink:href="#zoomMin" x="42" y="9" onmousedown="handleZoom(evt,'out')"/>
                <use id="reset" xlink:href="#resetDef" x="30" y="36" onmousedown="handleReset()"/>
                <g id="arrowUp" xlink:href="#dirArrow" transform="translate(30 24)" onmousedown="handlePan(0,-1)">
                  <use xlink:href="#rim" fill="#404040">
                        <set attributeName="fill" to="#808080" begin="arrowUp.mouseover" end="arrowUp.mouseout"/>
                  </use>
                  <path fill="none" stroke="white" stroke-width="1.5" d="M0,-3.0v7 M-2.5,-0.5L0,-3.0L2.5,-0.5"/>
                </g>
                <g id="arrowRight" xlink:href="#dirArrow" transform="rotate(90) translate(36 -43)" onmousedown="handlePan(1,0)">
                  <use xlink:href="#rim" fill="#404040">
                        <set attributeName="fill" to="#808080" begin="arrowRight.mouseover" end="arrowRight.mouseout"/>
                  </use>
                  <path fill="none" stroke="white" stroke-width="1.5" d="M0,-3.0v7 M-2.5,-0.5L0,-3.0L2.5,-0.5"/>
                </g>
                <g id="arrowDown" xlink:href="#dirArrow" transform="rotate(180) translate(-30 -48)" onmousedown="handlePan(0,1)">
                  <use xlink:href="#rim" fill="#404040">
                        <set attributeName="fill" to="#808080" begin="arrowDown.mouseover" end="arrowDown.mouseout"/>
                  </use>
                  <path fill="none" stroke="white" stroke-width="1.5" d="M0,-3.0v7 M-2.5,-0.5L0,-3.0L2.5,-0.5"/>
                </g>
                <g id="arrowLeft" xlink:href="#dirArrow" transform="rotate(270) translate(-36 17)" onmousedown="handlePan(-1,0)">
                  <use xlink:href="#rim" fill="#404040">
                        <set attributeName="fill" to="#808080" begin="arrowLeft.mouseover" end="arrowLeft.mouseout"/>
                  </use>
                  <path fill="none" stroke="white" stroke-width="1.5" d="M0,-3.0v7 M-2.5,-0.5L0,-3.0L2.5,-0.5"/>
                </g>
        </g>
        <svg viewBox="0 0 15 15" width="100%" height="30px" preserveAspectRatio="xMaxYMin meet">
         <g id="arrow_out" transform="scale(0.3 0.3)">
          <a xlink:href="draw__types_8h__dep__incl_org.svg" target="_base">
           <rect id="button" ry="5" rx="5" y="6" x="6" height="38" width="38"
                fill="#f2f5e9" fill-opacity="0.5" stroke="#606060" stroke-width="1.0"/>
           <path id="arrow"
             d="M 11.500037,31.436501 C 11.940474,20.09759 22.043105,11.32322 32.158766,21.979434 L 37.068811,17.246167 C 37.068811,17.246167 37.088388,32 37.088388,32 L 22.160133,31.978069 C 22.160133,31.978069 26.997745,27.140456 26.997745,27.140456 C 18.528582,18.264221 13.291696,25.230495 11.500037,31.436501 z"
             style="fill:#404040;"/>
          </a>
         </g>
        </svg>
</svg>
