<?xml version="1.0" encoding="UTF-8" standalone="no"?>
<!DOCTYPE svg PUBLIC "-//W3C//DTD SVG 1.1//EN"
 "http://www.w3.org/Graphics/SVG/1.1/DTD/svg11.dtd">
<!-- Generated by graphviz version 2.40.1 (20161225.0304)
 -->
<!-- Title: ee/draw/samples/texture/texture.c Pages: 1 -->
<svg width="1294pt" height="319pt"
 viewBox="0.00 0.00 1293.55 319.00" xmlns="http://www.w3.org/2000/svg" xmlns:xlink="http://www.w3.org/1999/xlink">
<g id="graph0" class="graph" transform="scale(1 1) rotate(0) translate(4 315)">
<title>ee/draw/samples/texture/texture.c</title>
<polygon fill="#ffffff" stroke="transparent" points="-4,4 -4,-315 1289.5464,-315 1289.5464,4 -4,4"/>
<!-- Node1 -->
<g id="node1" class="node">
<title>Node1</title>
<g id="a_node1"><a xlink:title=" ">
<polygon fill="#bfbfbf" stroke="#000000" points="502.5464,-280.5 502.5464,-310.5 640.5464,-310.5 640.5464,-280.5 502.5464,-280.5"/>
<text text-anchor="start" x="510.5464" y="-298.5" font-family="Helvetica,sans-Serif" font-size="10.00" fill="#000000">ee/draw/samples/texture</text>
<text text-anchor="middle" x="571.5464" y="-287.5" font-family="Helvetica,sans-Serif" font-size="10.00" fill="#000000">/texture.c</text>
</a>
</g>
</g>
<!-- Node2 -->
<g id="node2" class="node">
<title>Node2</title>
<g id="a_node2"><a xlink:href="kernel_8h.html" target="_top" xlink:title=" ">
<polygon fill="#ffffff" stroke="#000000" points="52.5464,-224.5 52.5464,-243.5 108.5464,-243.5 108.5464,-224.5 52.5464,-224.5"/>
<text text-anchor="middle" x="80.5464" y="-231.5" font-family="Helvetica,sans-Serif" font-size="10.00" fill="#000000">kernel.h</text>
</a>
</g>
</g>
<!-- Node1&#45;&gt;Node2 -->
<g id="edge1" class="edge">
<title>Node1&#45;&gt;Node2</title>
<path fill="none" stroke="#191970" d="M502.2899,-286.8764C420.4193,-276.6743 280.0589,-259.1594 159.5464,-244 146.2337,-242.3254 131.6604,-240.4832 118.6958,-238.8412"/>
<polygon fill="#191970" stroke="#191970" points="119.0589,-235.3593 108.6982,-237.5743 118.1788,-242.3038 119.0589,-235.3593"/>
</g>
<!-- Node6 -->
<g id="node6" class="node">
<title>Node6</title>
<g id="a_node6"><a xlink:href="tamtypes_8h.html" target="_top" xlink:title=" ">
<polygon fill="#ffffff" stroke="#000000" points="604.5464,-.5 604.5464,-19.5 676.5464,-19.5 676.5464,-.5 604.5464,-.5"/>
<text text-anchor="middle" x="640.5464" y="-7.5" font-family="Helvetica,sans-Serif" font-size="10.00" fill="#000000">tamtypes.h</text>
</a>
</g>
</g>
<!-- Node1&#45;&gt;Node6 -->
<g id="edge7" class="edge">
<title>Node1&#45;&gt;Node6</title>
<path fill="none" stroke="#191970" d="M502.4205,-288.6699C422.3663,-280.0084 295.9289,-263.7923 252.5464,-244 210.9218,-225.0097 173.5464,-223.7519 173.5464,-178 173.5464,-178 173.5464,-178 173.5464,-122 173.5464,-87.2309 186.0134,-74.3491 215.5464,-56 247.2002,-36.3332 490.7985,-19.2108 594.2823,-12.7464"/>
<polygon fill="#191970" stroke="#191970" points="594.6694,-16.2292 604.4342,-12.1184 594.2372,-9.2426 594.6694,-16.2292"/>
</g>
<!-- Node7 -->
<g id="node7" class="node">
<title>Node7</title>
<g id="a_node7"><a xlink:title=" ">
<polygon fill="#ffffff" stroke="#bfbfbf" points="769.0464,-224.5 769.0464,-243.5 822.0464,-243.5 822.0464,-224.5 769.0464,-224.5"/>
<text text-anchor="middle" x="795.5464" y="-231.5" font-family="Helvetica,sans-Serif" font-size="10.00" fill="#000000">stdlib.h</text>
</a>
</g>
</g>
<!-- Node1&#45;&gt;Node7 -->
<g id="edge6" class="edge">
<title>Node1&#45;&gt;Node7</title>
<path fill="none" stroke="#191970" d="M627.4181,-280.4687C662.7154,-270.9281 709.5387,-258.1914 758.8996,-244.4405"/>
<polygon fill="#191970" stroke="#191970" points="760.1114,-247.7362 768.8029,-241.6775 758.2302,-240.9937 760.1114,-247.7362"/>
</g>
<!-- Node8 -->
<g id="node8" class="node">
<title>Node8</title>
<g id="a_node8"><a xlink:href="math3d_8h.html" target="_top" xlink:title=" ">
<polygon fill="#ffffff" stroke="#000000" points="609.0464,-56.5 609.0464,-75.5 672.0464,-75.5 672.0464,-56.5 609.0464,-56.5"/>
<text text-anchor="middle" x="640.5464" y="-63.5" font-family="Helvetica,sans-Serif" font-size="10.00" fill="#000000">math3d.h</text>
</a>
</g>
</g>
<!-- Node1&#45;&gt;Node8 -->
<g id="edge8" class="edge">
<title>Node1&#45;&gt;Node8</title>
<path fill="none" stroke="#191970" d="M576.0736,-280.4419C588.15,-240.275 621.1272,-130.5899 634.646,-85.6252"/>
<polygon fill="#191970" stroke="#191970" points="638.0429,-86.4824 637.5704,-75.8981 631.3394,-84.4669 638.0429,-86.4824"/>
</g>
<!-- Node9 -->
<g id="node9" class="node">
<title>Node9</title>
<g id="a_node9"><a xlink:href="packet_8h.html" target="_top" xlink:title=" ">
<polygon fill="#ffffff" stroke="#000000" points="202.0464,-168.5 202.0464,-187.5 261.0464,-187.5 261.0464,-168.5 202.0464,-168.5"/>
<text text-anchor="middle" x="231.5464" y="-175.5" font-family="Helvetica,sans-Serif" font-size="10.00" fill="#000000">packet.h</text>
</a>
</g>
</g>
<!-- Node1&#45;&gt;Node9 -->
<g id="edge10" class="edge">
<title>Node1&#45;&gt;Node9</title>
<path fill="none" stroke="#191970" d="M502.3251,-289.7764C426.8821,-282.4496 312.0368,-267.7787 275.5464,-244 258.485,-232.8821 246.4529,-212.5866 239.3327,-197.4257"/>
<polygon fill="#191970" stroke="#191970" points="242.3945,-195.6911 235.1867,-187.926 235.9789,-198.4912 242.3945,-195.6911"/>
</g>
<!-- Node10 -->
<g id="node10" class="node">
<title>Node10</title>
<g id="a_node10"><a xlink:href="dma__tags_8h.html" target="_top" xlink:title=" ">
<polygon fill="#ffffff" stroke="#000000" points="239.5464,-56.5 239.5464,-75.5 313.5464,-75.5 313.5464,-56.5 239.5464,-56.5"/>
<text text-anchor="middle" x="276.5464" y="-63.5" font-family="Helvetica,sans-Serif" font-size="10.00" fill="#000000">dma_tags.h</text>
</a>
</g>
</g>
<!-- Node1&#45;&gt;Node10 -->
<g id="edge12" class="edge">
<title>Node1&#45;&gt;Node10</title>
<path fill="none" stroke="#191970" d="M511.2447,-280.4276C442.3637,-259.6867 332.6101,-215.0982 281.5464,-132 273.0964,-118.2491 272.4135,-99.7201 273.5184,-85.7953"/>
<polygon fill="#191970" stroke="#191970" points="277.0029,-86.1297 274.6736,-75.7941 270.0492,-85.3264 277.0029,-86.1297"/>
</g>
<!-- Node11 -->
<g id="node11" class="node">
<title>Node11</title>
<g id="a_node11"><a xlink:href="gif__tags_8h.html" target="_top" xlink:title=" ">
<polygon fill="#ffffff" stroke="#000000" points="356.0464,-112.5 356.0464,-131.5 421.0464,-131.5 421.0464,-112.5 356.0464,-112.5"/>
<text text-anchor="middle" x="388.5464" y="-119.5" font-family="Helvetica,sans-Serif" font-size="10.00" fill="#000000">gif_tags.h</text>
</a>
</g>
</g>
<!-- Node1&#45;&gt;Node11 -->
<g id="edge14" class="edge">
<title>Node1&#45;&gt;Node11</title>
<path fill="none" stroke="#191970" d="M555.6264,-280.4065C521.6535,-248.1972 442.2458,-172.9117 406.5213,-139.0418"/>
<polygon fill="#191970" stroke="#191970" points="408.4826,-136.0783 398.8176,-131.738 403.6664,-141.1582 408.4826,-136.0783"/>
</g>
<!-- Node12 -->
<g id="node12" class="node">
<title>Node12</title>
<g id="a_node12"><a xlink:href="gs__psm_8h.html" target="_top" xlink:title=" ">
<polygon fill="#ffffff" stroke="#000000" points="840.0464,-224.5 840.0464,-243.5 903.0464,-243.5 903.0464,-224.5 840.0464,-224.5"/>
<text text-anchor="middle" x="871.5464" y="-231.5" font-family="Helvetica,sans-Serif" font-size="10.00" fill="#000000">gs_psm.h</text>
</a>
</g>
</g>
<!-- Node1&#45;&gt;Node12 -->
<g id="edge16" class="edge">
<title>Node1&#45;&gt;Node12</title>
<path fill="none" stroke="#191970" d="M640.7162,-282.7629C690.8581,-273.3069 760.5133,-259.7149 829.9143,-244.2987"/>
<polygon fill="#191970" stroke="#191970" points="830.7072,-247.7079 839.7033,-242.1115 829.1807,-240.8763 830.7072,-247.7079"/>
</g>
<!-- Node13 -->
<g id="node13" class="node">
<title>Node13</title>
<g id="a_node13"><a xlink:href="dma_8h.html" target="_top" xlink:title=" ">
<polygon fill="#ffffff" stroke="#000000" points="291.0464,-112.5 291.0464,-131.5 338.0464,-131.5 338.0464,-112.5 291.0464,-112.5"/>
<text text-anchor="middle" x="314.5464" y="-119.5" font-family="Helvetica,sans-Serif" font-size="10.00" fill="#000000">dma.h</text>
</a>
</g>
</g>
<!-- Node1&#45;&gt;Node13 -->
<g id="edge17" class="edge">
<title>Node1&#45;&gt;Node13</title>
<path fill="none" stroke="#191970" d="M549.1889,-280.4065C500.6589,-247.6441 386.1114,-170.3133 337.2601,-137.334"/>
<polygon fill="#191970" stroke="#191970" points="338.9153,-134.2285 328.6688,-131.534 334.9986,-140.0302 338.9153,-134.2285"/>
</g>
<!-- Node15 -->
<g id="node15" class="node">
<title>Node15</title>
<g id="a_node15"><a xlink:href="graph_8h.html" target="_top" xlink:title=" ">
<polygon fill="#ffffff" stroke="#000000" points="921.0464,-224.5 921.0464,-243.5 974.0464,-243.5 974.0464,-224.5 921.0464,-224.5"/>
<text text-anchor="middle" x="947.5464" y="-231.5" font-family="Helvetica,sans-Serif" font-size="10.00" fill="#000000">graph.h</text>
</a>
</g>
</g>
<!-- Node1&#45;&gt;Node15 -->
<g id="edge21" class="edge">
<title>Node1&#45;&gt;Node15</title>
<path fill="none" stroke="#191970" d="M640.5993,-287.7126C707.5916,-279.5597 812.2197,-265.2496 911.0325,-244.1321"/>
<polygon fill="#191970" stroke="#191970" points="911.8497,-247.5364 920.8829,-241.9999 910.3687,-240.6948 911.8497,-247.5364"/>
</g>
<!-- Node17 -->
<g id="node17" class="node">
<title>Node17</title>
<g id="a_node17"><a xlink:href="draw_8h.html" target="_top" xlink:title=" ">
<polygon fill="#ffffff" stroke="#000000" points="702.0464,-224.5 702.0464,-243.5 751.0464,-243.5 751.0464,-224.5 702.0464,-224.5"/>
<text text-anchor="middle" x="726.5464" y="-231.5" font-family="Helvetica,sans-Serif" font-size="10.00" fill="#000000">draw.h</text>
</a>
</g>
</g>
<!-- Node1&#45;&gt;Node17 -->
<g id="edge23" class="edge">
<title>Node1&#45;&gt;Node17</title>
<path fill="none" stroke="#191970" d="M609.4636,-280.4554C634.9855,-270.329 668.336,-257.0964 692.9119,-247.3453"/>
<polygon fill="#191970" stroke="#191970" points="694.5226,-250.4717 702.5269,-243.5303 691.9409,-243.9651 694.5226,-250.4717"/>
</g>
<!-- Node28 -->
<g id="node28" class="node">
<title>Node28</title>
<g id="a_node28"><a xlink:href="draw3d_8h.html" target="_top" xlink:title=" ">
<polygon fill="#ffffff" stroke="#000000" points="500.5464,-168.5 500.5464,-187.5 562.5464,-187.5 562.5464,-168.5 500.5464,-168.5"/>
<text text-anchor="middle" x="531.5464" y="-175.5" font-family="Helvetica,sans-Serif" font-size="10.00" fill="#000000">draw3d.h</text>
</a>
</g>
</g>
<!-- Node1&#45;&gt;Node28 -->
<g id="edge52" class="edge">
<title>Node1&#45;&gt;Node28</title>
<path fill="none" stroke="#191970" d="M566.3171,-280.1389C559.0776,-258.873 546.0043,-220.4702 538.1151,-197.2956"/>
<polygon fill="#191970" stroke="#191970" points="541.3366,-195.898 534.8006,-187.5595 534.7101,-198.1539 541.3366,-195.898"/>
</g>
<!-- Node29 -->
<g id="node29" class="node">
<title>Node29</title>
<g id="a_node29"><a xlink:title=" ">
<polygon fill="#ffffff" stroke="#bfbfbf" points="992.5464,-224.5 992.5464,-243.5 1046.5464,-243.5 1046.5464,-224.5 992.5464,-224.5"/>
<text text-anchor="middle" x="1019.5464" y="-231.5" font-family="Helvetica,sans-Serif" font-size="10.00" fill="#000000">flower.c</text>
</a>
</g>
</g>
<!-- Node1&#45;&gt;Node29 -->
<g id="edge53" class="edge">
<title>Node1&#45;&gt;Node29</title>
<path fill="none" stroke="#191970" d="M640.5673,-289.9874C720.6365,-282.8955 856.6857,-268.6962 982.3378,-243.9946"/>
<polygon fill="#191970" stroke="#191970" points="983.3992,-247.352 992.522,-241.9646 982.0308,-240.487 983.3992,-247.352"/>
</g>
<!-- Node30 -->
<g id="node30" class="node">
<title>Node30</title>
<g id="a_node30"><a xlink:href="texture_2mesh__data_8c.html" target="_top" xlink:title=" ">
<polygon fill="#ffffff" stroke="#000000" points="1065.0464,-224.5 1065.0464,-243.5 1144.0464,-243.5 1144.0464,-224.5 1065.0464,-224.5"/>
<text text-anchor="middle" x="1104.5464" y="-231.5" font-family="Helvetica,sans-Serif" font-size="10.00" fill="#000000">mesh_data.c</text>
</a>
</g>
</g>
<!-- Node1&#45;&gt;Node30 -->
<g id="edge54" class="edge">
<title>Node1&#45;&gt;Node30</title>
<path fill="none" stroke="#191970" d="M640.7442,-290.2244C732.9002,-282.7333 901.1501,-267.4387 1054.9178,-243.9607"/>
<polygon fill="#191970" stroke="#191970" points="1055.6744,-247.3855 1065.0243,-242.4024 1054.6077,-240.4672 1055.6744,-247.3855"/>
</g>
<!-- Node3 -->
<g id="node3" class="node">
<title>Node3</title>
<g id="a_node3"><a xlink:title=" ">
<polygon fill="#ffffff" stroke="#bfbfbf" points="89.5464,-168.5 89.5464,-187.5 145.5464,-187.5 145.5464,-168.5 89.5464,-168.5"/>
<text text-anchor="middle" x="117.5464" y="-175.5" font-family="Helvetica,sans-Serif" font-size="10.00" fill="#000000">stddef.h</text>
</a>
</g>
</g>
<!-- Node2&#45;&gt;Node3 -->
<g id="edge2" class="edge">
<title>Node2&#45;&gt;Node3</title>
<path fill="none" stroke="#191970" d="M86.9913,-224.2455C92.0846,-216.5367 99.3372,-205.5598 105.4984,-196.2348"/>
<polygon fill="#191970" stroke="#191970" points="108.5829,-197.9155 111.1753,-187.6427 102.7425,-194.0566 108.5829,-197.9155"/>
</g>
<!-- Node4 -->
<g id="node4" class="node">
<title>Node4</title>
<g id="a_node4"><a xlink:title=" ">
<polygon fill="#ffffff" stroke="#bfbfbf" points="15.5464,-168.5 15.5464,-187.5 71.5464,-187.5 71.5464,-168.5 15.5464,-168.5"/>
<text text-anchor="middle" x="43.5464" y="-175.5" font-family="Helvetica,sans-Serif" font-size="10.00" fill="#000000">stdarg.h</text>
</a>
</g>
</g>
<!-- Node2&#45;&gt;Node4 -->
<g id="edge3" class="edge">
<title>Node2&#45;&gt;Node4</title>
<path fill="none" stroke="#191970" d="M74.1014,-224.2455C69.0081,-216.5367 61.7555,-205.5598 55.5944,-196.2348"/>
<polygon fill="#191970" stroke="#191970" points="58.3502,-194.0566 49.9174,-187.6427 52.5098,-197.9155 58.3502,-194.0566"/>
</g>
<!-- Node5 -->
<g id="node5" class="node">
<title>Node5</title>
<g id="a_node5"><a xlink:href="sifdma_8h.html" target="_top" xlink:title=" ">
<polygon fill="#ffffff" stroke="#000000" points="22.0464,-56.5 22.0464,-75.5 81.0464,-75.5 81.0464,-56.5 22.0464,-56.5"/>
<text text-anchor="middle" x="51.5464" y="-63.5" font-family="Helvetica,sans-Serif" font-size="10.00" fill="#000000">sifdma.h</text>
</a>
</g>
</g>
<!-- Node2&#45;&gt;Node5 -->
<g id="edge4" class="edge">
<title>Node2&#45;&gt;Node5</title>
<path fill="none" stroke="#191970" d="M52.4825,-224.5255C35.9126,-217.3142 16.3208,-205.5851 6.5464,-188 -12.9778,-152.8745 16.4092,-107.6088 36.1261,-83.289"/>
<polygon fill="#191970" stroke="#191970" points="38.8297,-85.5122 42.6009,-75.6113 33.4785,-80.9994 38.8297,-85.5122"/>
</g>
<!-- Node5&#45;&gt;Node6 -->
<g id="edge5" class="edge">
<title>Node5&#45;&gt;Node6</title>
<path fill="none" stroke="#191970" d="M81.1586,-63.1846C176.8317,-54.0883 478.1541,-25.4397 594.2806,-14.3988"/>
<polygon fill="#191970" stroke="#191970" points="594.6544,-17.8791 604.2782,-13.4482 593.9918,-10.9105 594.6544,-17.8791"/>
</g>
<!-- Node8&#45;&gt;Node6 -->
<g id="edge9" class="edge">
<title>Node8&#45;&gt;Node6</title>
<path fill="none" stroke="#191970" d="M640.5464,-56.2455C640.5464,-48.9382 640.5464,-38.6944 640.5464,-29.7046"/>
<polygon fill="#191970" stroke="#191970" points="644.0465,-29.6426 640.5464,-19.6427 637.0465,-29.6427 644.0465,-29.6426"/>
</g>
<!-- Node9&#45;&gt;Node6 -->
<g id="edge11" class="edge">
<title>Node9&#45;&gt;Node6</title>
<path fill="none" stroke="#191970" d="M227.625,-168.2627C219.138,-145.4159 202.0284,-87.8964 230.5464,-56 254.4609,-29.2523 492.1076,-16.1951 594.2643,-11.7834"/>
<polygon fill="#191970" stroke="#191970" points="594.4528,-15.2786 604.2959,-11.3592 594.157,-8.2849 594.4528,-15.2786"/>
</g>
<!-- Node10&#45;&gt;Node6 -->
<g id="edge13" class="edge">
<title>Node10&#45;&gt;Node6</title>
<path fill="none" stroke="#191970" d="M313.5555,-58.5282C318.2584,-57.6421 323.0109,-56.7775 327.5464,-56 421.9622,-39.8151 533.0097,-24.3323 594.2032,-16.1072"/>
<polygon fill="#191970" stroke="#191970" points="594.8632,-19.5501 604.3102,-14.7538 593.9341,-12.6121 594.8632,-19.5501"/>
</g>
<!-- Node11&#45;&gt;Node6 -->
<g id="edge15" class="edge">
<title>Node11&#45;&gt;Node6</title>
<path fill="none" stroke="#191970" d="M406.0665,-112.4425C430.9347,-99.0455 478.0638,-74.2765 519.5464,-56 547.2022,-43.8153 579.1904,-31.739 603.3287,-23.0193"/>
<polygon fill="#191970" stroke="#191970" points="604.5943,-26.2837 612.8269,-19.6147 602.2323,-19.6942 604.5943,-26.2837"/>
</g>
<!-- Node13&#45;&gt;Node6 -->
<g id="edge18" class="edge">
<title>Node13&#45;&gt;Node6</title>
<path fill="none" stroke="#191970" d="M318.4648,-112.0419C324.8648,-97.1954 339.0429,-69.5557 360.5464,-56 398.5994,-32.0116 524.8546,-18.839 594.1033,-13.2586"/>
<polygon fill="#191970" stroke="#191970" points="594.602,-16.7303 604.2976,-12.4588 594.0544,-9.7518 594.602,-16.7303"/>
</g>
<!-- Node14 -->
<g id="node14" class="node">
<title>Node14</title>
<g id="a_node14"><a xlink:href="packet2__types_8h.html" target="_top" xlink:title=" ">
<polygon fill="#ffffff" stroke="#000000" points="370.0464,-56.5 370.0464,-75.5 467.0464,-75.5 467.0464,-56.5 370.0464,-56.5"/>
<text text-anchor="middle" x="418.5464" y="-63.5" font-family="Helvetica,sans-Serif" font-size="10.00" fill="#000000">packet2_types.h</text>
</a>
</g>
</g>
<!-- Node13&#45;&gt;Node14 -->
<g id="edge19" class="edge">
<title>Node13&#45;&gt;Node14</title>
<path fill="none" stroke="#191970" d="M332.6618,-112.2455C348.9914,-103.4527 373.2174,-90.4079 391.7803,-80.4125"/>
<polygon fill="#191970" stroke="#191970" points="393.4932,-83.4654 400.6385,-75.6427 390.1744,-77.3021 393.4932,-83.4654"/>
</g>
<!-- Node14&#45;&gt;Node6 -->
<g id="edge20" class="edge">
<title>Node14&#45;&gt;Node6</title>
<path fill="none" stroke="#191970" d="M456.4573,-56.4369C494.669,-46.7979 553.6834,-31.9114 594.5487,-21.603"/>
<polygon fill="#191970" stroke="#191970" points="595.4249,-24.9917 604.2651,-19.152 593.7127,-18.2043 595.4249,-24.9917"/>
</g>
<!-- Node16 -->
<g id="node16" class="node">
<title>Node16</title>
<g id="a_node16"><a xlink:href="graph__vram_8h.html" target="_top" xlink:title=" ">
<polygon fill="#ffffff" stroke="#000000" points="1201.5464,-168.5 1201.5464,-187.5 1285.5464,-187.5 1285.5464,-168.5 1201.5464,-168.5"/>
<text text-anchor="middle" x="1243.5464" y="-175.5" font-family="Helvetica,sans-Serif" font-size="10.00" fill="#000000">graph_vram.h</text>
</a>
</g>
</g>
<!-- Node15&#45;&gt;Node16 -->
<g id="edge22" class="edge">
<title>Node15&#45;&gt;Node16</title>
<path fill="none" stroke="#191970" d="M974.2102,-226.2854C977.3462,-225.4696 980.5097,-224.688 983.5464,-224 1073.3381,-203.6558 1096.896,-204.0923 1187.5464,-188 1188.8044,-187.7767 1190.0783,-187.5504 1191.3633,-187.322"/>
<polygon fill="#191970" stroke="#191970" points="1192.1188,-190.7426 1201.3508,-185.5444 1190.8922,-183.8509 1192.1188,-190.7426"/>
</g>
<!-- Node17&#45;&gt;Node6 -->
<g id="edge24" class="edge">
<title>Node17&#45;&gt;Node6</title>
<path fill="none" stroke="#191970" d="M738.9676,-224.18C748.548,-215.7529 761.0599,-202.6707 766.5464,-188 769.66,-179.6743 768.2675,-176.7207 766.5464,-168 755.9201,-114.1573 751.8039,-96.2967 714.5464,-56 702.4156,-42.8797 685.7241,-32.0735 671.2636,-24.2392"/>
<polygon fill="#191970" stroke="#191970" points="672.6435,-21.0125 662.1535,-19.5258 669.4267,-27.2297 672.6435,-21.0125"/>
</g>
<!-- Node18 -->
<g id="node18" class="node">
<title>Node18</title>
<g id="a_node18"><a xlink:href="draw__blending_8h.html" target="_top" xlink:title=" ">
<polygon fill="#ffffff" stroke="#000000" points="771.0464,-56.5 771.0464,-75.5 868.0464,-75.5 868.0464,-56.5 771.0464,-56.5"/>
<text text-anchor="middle" x="819.5464" y="-63.5" font-family="Helvetica,sans-Serif" font-size="10.00" fill="#000000">draw_blending.h</text>
</a>
</g>
</g>
<!-- Node17&#45;&gt;Node18 -->
<g id="edge25" class="edge">
<title>Node17&#45;&gt;Node18</title>
<path fill="none" stroke="#191970" d="M751.1424,-224.8321C767.5071,-217.424 788.0397,-205.3539 799.5464,-188 820.2104,-156.8353 822.0117,-111.5856 821.0537,-85.8553"/>
<polygon fill="#191970" stroke="#191970" points="824.5459,-85.6153 820.4994,-75.8237 817.5566,-86.0016 824.5459,-85.6153"/>
</g>
<!-- Node19 -->
<g id="node19" class="node">
<title>Node19</title>
<g id="a_node19"><a xlink:href="draw__buffers_8h.html" target="_top" xlink:title=" ">
<polygon fill="#ffffff" stroke="#000000" points="852.0464,-112.5 852.0464,-131.5 941.0464,-131.5 941.0464,-112.5 852.0464,-112.5"/>
<text text-anchor="middle" x="896.5464" y="-119.5" font-family="Helvetica,sans-Serif" font-size="10.00" fill="#000000">draw_buffers.h</text>
</a>
</g>
</g>
<!-- Node17&#45;&gt;Node19 -->
<g id="edge27" class="edge">
<title>Node17&#45;&gt;Node19</title>
<path fill="none" stroke="#191970" d="M751.3114,-225.207C779.4009,-214.98 823.1707,-198.2002 837.5464,-188 856.2306,-174.7426 873.1597,-154.5472 884.0429,-139.9883"/>
<polygon fill="#191970" stroke="#191970" points="886.9682,-141.916 889.9995,-131.7641 881.299,-137.8099 886.9682,-141.916"/>
</g>
<!-- Node20 -->
<g id="node20" class="node">
<title>Node20</title>
<g id="a_node20"><a xlink:href="draw__dithering_8h.html" target="_top" xlink:title=" ">
<polygon fill="#ffffff" stroke="#000000" points="962.5464,-56.5 962.5464,-75.5 1060.5464,-75.5 1060.5464,-56.5 962.5464,-56.5"/>
<text text-anchor="middle" x="1011.5464" y="-63.5" font-family="Helvetica,sans-Serif" font-size="10.00" fill="#000000">draw_dithering.h</text>
</a>
</g>
</g>
<!-- Node17&#45;&gt;Node20 -->
<g id="edge29" class="edge">
<title>Node17&#45;&gt;Node20</title>
<path fill="none" stroke="#191970" d="M751.3363,-226.3279C754.4229,-225.4854 757.5474,-224.6859 760.5464,-224 856.2754,-202.1045 905.7072,-253.8628 978.5464,-188 1007.4547,-161.8604 1012.1341,-113.2608 1012.2897,-85.9531"/>
<polygon fill="#191970" stroke="#191970" points="1015.7854,-85.6277 1012.1369,-75.6809 1008.7862,-85.7319 1015.7854,-85.6277"/>
</g>
<!-- Node21 -->
<g id="node21" class="node">
<title>Node21</title>
<g id="a_node21"><a xlink:href="draw__fog_8h.html" target="_top" xlink:title=" ">
<polygon fill="#ffffff" stroke="#000000" points="1036.0464,-112.5 1036.0464,-131.5 1107.0464,-131.5 1107.0464,-112.5 1036.0464,-112.5"/>
<text text-anchor="middle" x="1071.5464" y="-119.5" font-family="Helvetica,sans-Serif" font-size="10.00" fill="#000000">draw_fog.h</text>
</a>
</g>
</g>
<!-- Node17&#45;&gt;Node21 -->
<g id="edge31" class="edge">
<title>Node17&#45;&gt;Node21</title>
<path fill="none" stroke="#191970" d="M751.3191,-226.2503C754.4087,-225.4211 757.5385,-224.646 760.5464,-224 875.0339,-199.4112 920.4993,-247.1734 1021.5464,-188 1040.2697,-177.0356 1054.2959,-156.057 1062.655,-140.6844"/>
<polygon fill="#191970" stroke="#191970" points="1065.8873,-142.0508 1067.3222,-131.5536 1059.6543,-138.8648 1065.8873,-142.0508"/>
</g>
<!-- Node22 -->
<g id="node22" class="node">
<title>Node22</title>
<g id="a_node22"><a xlink:href="draw__masking_8h.html" target="_top" xlink:title=" ">
<polygon fill="#ffffff" stroke="#000000" points="1117.0464,-56.5 1117.0464,-75.5 1214.0464,-75.5 1214.0464,-56.5 1117.0464,-56.5"/>
<text text-anchor="middle" x="1165.5464" y="-63.5" font-family="Helvetica,sans-Serif" font-size="10.00" fill="#000000">draw_masking.h</text>
</a>
</g>
</g>
<!-- Node17&#45;&gt;Node22 -->
<g id="edge33" class="edge">
<title>Node17&#45;&gt;Node22</title>
<path fill="none" stroke="#191970" d="M751.3121,-226.2169C754.4028,-225.3935 757.5349,-224.6288 760.5464,-224 885.524,-197.9036 927.7902,-237.3348 1045.5464,-188 1096.0146,-166.8559 1135.9772,-112.9876 1154.4279,-84.4265"/>
<polygon fill="#191970" stroke="#191970" points="1157.4938,-86.1253 1159.8445,-75.7945 1151.5645,-82.4046 1157.4938,-86.1253"/>
</g>
<!-- Node23 -->
<g id="node23" class="node">
<title>Node23</title>
<g id="a_node23"><a xlink:href="draw__primitives_8h.html" target="_top" xlink:title=" ">
<polygon fill="#ffffff" stroke="#000000" points="477.5464,-112.5 477.5464,-131.5 581.5464,-131.5 581.5464,-112.5 477.5464,-112.5"/>
<text text-anchor="middle" x="529.5464" y="-119.5" font-family="Helvetica,sans-Serif" font-size="10.00" fill="#000000">draw_primitives.h</text>
</a>
</g>
</g>
<!-- Node17&#45;&gt;Node23 -->
<g id="edge35" class="edge">
<title>Node17&#45;&gt;Node23</title>
<path fill="none" stroke="#191970" d="M709.7502,-224.4509C675.2211,-204.8201 596.0794,-159.8259 555.1339,-136.5472"/>
<polygon fill="#191970" stroke="#191970" points="556.7231,-133.4247 546.3,-131.5249 553.2634,-139.51 556.7231,-133.4247"/>
</g>
<!-- Node24 -->
<g id="node24" class="node">
<title>Node24</title>
<g id="a_node24"><a xlink:href="draw__sampling_8h.html" target="_top" xlink:title=" ">
<polygon fill="#ffffff" stroke="#000000" points="1177.5464,-112.5 1177.5464,-131.5 1277.5464,-131.5 1277.5464,-112.5 1177.5464,-112.5"/>
<text text-anchor="middle" x="1227.5464" y="-119.5" font-family="Helvetica,sans-Serif" font-size="10.00" fill="#000000">draw_sampling.h</text>
</a>
</g>
</g>
<!-- Node17&#45;&gt;Node24 -->
<g id="edge37" class="edge">
<title>Node17&#45;&gt;Node24</title>
<path fill="none" stroke="#191970" d="M751.2925,-226.1191C754.3866,-225.3125 757.5248,-224.5785 760.5464,-224 931.0767,-191.3509 989.4407,-255.1769 1149.5464,-188 1175.1764,-177.2462 1198.6524,-154.9315 1213.0097,-139.2365"/>
<polygon fill="#191970" stroke="#191970" points="1215.6465,-141.5382 1219.6495,-131.7287 1210.4029,-136.9008 1215.6465,-141.5382"/>
</g>
<!-- Node25 -->
<g id="node25" class="node">
<title>Node25</title>
<g id="a_node25"><a xlink:href="draw__tests_8h.html" target="_top" xlink:title=" ">
<polygon fill="#ffffff" stroke="#000000" points="890.0464,-168.5 890.0464,-187.5 969.0464,-187.5 969.0464,-168.5 890.0464,-168.5"/>
<text text-anchor="middle" x="929.5464" y="-175.5" font-family="Helvetica,sans-Serif" font-size="10.00" fill="#000000">draw_tests.h</text>
</a>
</g>
</g>
<!-- Node17&#45;&gt;Node25 -->
<g id="edge39" class="edge">
<title>Node17&#45;&gt;Node25</title>
<path fill="none" stroke="#191970" d="M751.4119,-226.6234C754.4855,-225.7302 757.5863,-224.8381 760.5464,-224 802.2209,-212.201 849.8396,-199.2911 883.8859,-190.1593"/>
<polygon fill="#191970" stroke="#191970" points="884.7988,-193.5383 893.5528,-187.5702 882.9877,-186.7766 884.7988,-193.5383"/>
</g>
<!-- Node26 -->
<g id="node26" class="node">
<title>Node26</title>
<g id="a_node26"><a xlink:href="draw__types_8h.html" target="_top" xlink:title=" ">
<polygon fill="#ffffff" stroke="#000000" points="637.5464,-112.5 637.5464,-131.5 719.5464,-131.5 719.5464,-112.5 637.5464,-112.5"/>
<text text-anchor="middle" x="678.5464" y="-119.5" font-family="Helvetica,sans-Serif" font-size="10.00" fill="#000000">draw_types.h</text>
</a>
</g>
</g>
<!-- Node17&#45;&gt;Node26 -->
<g id="edge42" class="edge">
<title>Node17&#45;&gt;Node26</title>
<path fill="none" stroke="#191970" d="M714.9677,-224.3328C705.618,-215.8063 692.9931,-202.5068 686.5464,-188 680.1013,-173.4971 678.2718,-155.5333 677.959,-142.0104"/>
<polygon fill="#191970" stroke="#191970" points="681.4592,-141.878 677.9849,-131.869 674.4592,-141.86 681.4592,-141.878"/>
</g>
<!-- Node27 -->
<g id="node27" class="node">
<title>Node27</title>
<g id="a_node27"><a xlink:href="draw2d_8h.html" target="_top" xlink:title=" ">
<polygon fill="#ffffff" stroke="#000000" points="695.5464,-168.5 695.5464,-187.5 757.5464,-187.5 757.5464,-168.5 695.5464,-168.5"/>
<text text-anchor="middle" x="726.5464" y="-175.5" font-family="Helvetica,sans-Serif" font-size="10.00" fill="#000000">draw2d.h</text>
</a>
</g>
</g>
<!-- Node17&#45;&gt;Node27 -->
<g id="edge44" class="edge">
<title>Node17&#45;&gt;Node27</title>
<path fill="none" stroke="#191970" d="M726.5464,-224.2455C726.5464,-216.9382 726.5464,-206.6944 726.5464,-197.7046"/>
<polygon fill="#191970" stroke="#191970" points="730.0465,-197.6426 726.5464,-187.6427 723.0465,-197.6427 730.0465,-197.6426"/>
</g>
<!-- Node17&#45;&gt;Node28 -->
<g id="edge47" class="edge">
<title>Node17&#45;&gt;Node28</title>
<path fill="none" stroke="#191970" d="M701.8495,-226.9076C669.3238,-217.5669 611.6846,-201.0141 572.5636,-189.7793"/>
<polygon fill="#191970" stroke="#191970" points="573.3747,-186.3708 562.797,-186.9746 571.4424,-193.0989 573.3747,-186.3708"/>
</g>
<!-- Node18&#45;&gt;Node6 -->
<g id="edge26" class="edge">
<title>Node18&#45;&gt;Node6</title>
<path fill="none" stroke="#191970" d="M788.7752,-56.3733C758.8813,-47.021 713.3371,-32.7725 680.6247,-22.5385"/>
<polygon fill="#191970" stroke="#191970" points="681.5049,-19.1466 670.916,-19.5011 679.4148,-25.8273 681.5049,-19.1466"/>
</g>
<!-- Node19&#45;&gt;Node6 -->
<g id="edge28" class="edge">
<title>Node19&#45;&gt;Node6</title>
<path fill="none" stroke="#191970" d="M896.7145,-112.3164C896.405,-97.8283 893.5558,-70.6505 877.5464,-56 850.2165,-30.9901 747.6241,-18.5862 686.7413,-13.3041"/>
<polygon fill="#191970" stroke="#191970" points="686.8731,-9.803 676.6163,-12.4579 686.29,-16.7787 686.8731,-9.803"/>
</g>
<!-- Node20&#45;&gt;Node6 -->
<g id="edge30" class="edge">
<title>Node20&#45;&gt;Node6</title>
<path fill="none" stroke="#191970" d="M962.3724,-58.15C957.7001,-57.4176 953.0339,-56.6913 948.5464,-56 855.6027,-41.6832 746.7728,-25.5857 686.5511,-16.7366"/>
<polygon fill="#191970" stroke="#191970" points="687.0024,-13.2654 676.5999,-15.2753 685.9853,-20.1911 687.0024,-13.2654"/>
</g>
<!-- Node21&#45;&gt;Node6 -->
<g id="edge32" class="edge">
<title>Node21&#45;&gt;Node6</title>
<path fill="none" stroke="#191970" d="M1074.6956,-112.4808C1078.7537,-98.2076 1083.7241,-71.3064 1069.5464,-56 1043.8689,-28.2784 792.1454,-15.6791 686.6701,-11.5857"/>
<polygon fill="#191970" stroke="#191970" points="686.7591,-8.0866 676.6335,-11.2048 686.4936,-15.0816 686.7591,-8.0866"/>
</g>
<!-- Node22&#45;&gt;Node6 -->
<g id="edge34" class="edge">
<title>Node22&#45;&gt;Node6</title>
<path fill="none" stroke="#191970" d="M1116.7478,-57.967C1111.9545,-57.2644 1107.1594,-56.5953 1102.5464,-56 950.7531,-36.413 769.9695,-20.5755 686.7083,-13.7009"/>
<polygon fill="#191970" stroke="#191970" points="686.8231,-10.1987 676.5701,-12.8685 686.2501,-17.1752 686.8231,-10.1987"/>
</g>
<!-- Node23&#45;&gt;Node6 -->
<g id="edge36" class="edge">
<title>Node23&#45;&gt;Node6</title>
<path fill="none" stroke="#191970" d="M539.0102,-112.4509C557.8513,-93.4401 600.2669,-50.6423 623.8805,-26.816"/>
<polygon fill="#191970" stroke="#191970" points="626.5532,-29.0914 631.1065,-19.5249 621.5812,-24.1639 626.5532,-29.0914"/>
</g>
<!-- Node24&#45;&gt;Node6 -->
<g id="edge38" class="edge">
<title>Node24&#45;&gt;Node6</title>
<path fill="none" stroke="#191970" d="M1230.4062,-112.3807C1234.0307,-97.9767 1238.1844,-70.9071 1223.5464,-56 1204.8057,-36.9149 821.7726,-18.0763 686.9774,-12.0139"/>
<polygon fill="#191970" stroke="#191970" points="687.1049,-8.5162 676.9586,-11.5664 686.7924,-15.5093 687.1049,-8.5162"/>
</g>
<!-- Node25&#45;&gt;Node6 -->
<g id="edge40" class="edge">
<title>Node25&#45;&gt;Node6</title>
<path fill="none" stroke="#191970" d="M936.7106,-168.4526C945.5137,-155.4838 958.3753,-131.6615 950.5464,-112 937.8692,-80.1627 927.7012,-72.279 897.5464,-56 861.9361,-36.776 750.9705,-21.9902 687.0946,-14.8039"/>
<polygon fill="#191970" stroke="#191970" points="687.2097,-11.2954 676.8856,-13.6749 686.4402,-18.253 687.2097,-11.2954"/>
</g>
<!-- Node25&#45;&gt;Node19 -->
<g id="edge41" class="edge">
<title>Node25&#45;&gt;Node19</title>
<path fill="none" stroke="#191970" d="M923.7982,-168.2455C919.3028,-160.617 912.9215,-149.7881 907.4639,-140.5267"/>
<polygon fill="#191970" stroke="#191970" points="910.321,-138.4811 902.2286,-131.6427 904.2902,-142.035 910.321,-138.4811"/>
</g>
<!-- Node26&#45;&gt;Node8 -->
<g id="edge43" class="edge">
<title>Node26&#45;&gt;Node8</title>
<path fill="none" stroke="#191970" d="M671.9273,-112.2455C666.6418,-104.4564 659.0922,-93.3308 652.7226,-83.9439"/>
<polygon fill="#191970" stroke="#191970" points="655.6008,-81.9522 647.0896,-75.6427 649.8085,-85.8827 655.6008,-81.9522"/>
</g>
<!-- Node27&#45;&gt;Node6 -->
<g id="edge45" class="edge">
<title>Node27&#45;&gt;Node6</title>
<path fill="none" stroke="#191970" d="M729.0322,-168.2467C731.9145,-155.0446 735.448,-130.9588 728.5464,-112 715.4095,-75.913 682.9204,-44.1552 661.3095,-26.0197"/>
<polygon fill="#191970" stroke="#191970" points="663.314,-23.1384 653.3491,-19.5394 658.8947,-28.567 663.314,-23.1384"/>
</g>
<!-- Node27&#45;&gt;Node26 -->
<g id="edge46" class="edge">
<title>Node27&#45;&gt;Node26</title>
<path fill="none" stroke="#191970" d="M718.1854,-168.2455C711.3713,-160.2958 701.5783,-148.8706 693.4311,-139.3656"/>
<polygon fill="#191970" stroke="#191970" points="695.9769,-136.9575 686.8115,-131.6427 690.662,-141.513 695.9769,-136.9575"/>
</g>
<!-- Node28&#45;&gt;Node6 -->
<g id="edge48" class="edge">
<title>Node28&#45;&gt;Node6</title>
<path fill="none" stroke="#191970" d="M510.0727,-168.3729C486.9965,-156.5739 455.2967,-135.2617 468.5464,-112 476.6844,-97.7125 566.973,-48.7113 613.3673,-24.1995"/>
<polygon fill="#191970" stroke="#191970" points="615.0721,-27.2574 622.2899,-19.5015 611.8108,-21.0636 615.0721,-27.2574"/>
</g>
<!-- Node28&#45;&gt;Node11 -->
<g id="edge51" class="edge">
<title>Node28&#45;&gt;Node11</title>
<path fill="none" stroke="#191970" d="M506.9638,-168.3733C483.5968,-159.2226 448.2601,-145.3844 422.2679,-135.2057"/>
<polygon fill="#191970" stroke="#191970" points="423.3959,-131.8886 412.8082,-131.5011 420.8433,-138.4066 423.3959,-131.8886"/>
</g>
<!-- Node28&#45;&gt;Node23 -->
<g id="edge49" class="edge">
<title>Node28&#45;&gt;Node23</title>
<path fill="none" stroke="#191970" d="M531.198,-168.2455C530.937,-160.9382 530.5712,-150.6944 530.2501,-141.7046"/>
<polygon fill="#191970" stroke="#191970" points="533.7455,-141.5113 529.8907,-131.6427 526.75,-141.7613 533.7455,-141.5113"/>
</g>
<!-- Node28&#45;&gt;Node26 -->
<g id="edge50" class="edge">
<title>Node28&#45;&gt;Node26</title>
<path fill="none" stroke="#191970" d="M556.8166,-168.3733C580.943,-159.1822 617.4826,-145.2624 644.2341,-135.0713"/>
<polygon fill="#191970" stroke="#191970" points="645.507,-138.3318 653.6059,-131.5011 643.015,-131.7904 645.507,-138.3318"/>
</g>
</g>
</svg>
