<?xml version="1.0" encoding="UTF-8" standalone="no"?>
<!DOCTYPE svg PUBLIC "-//W3C//DTD SVG 1.1//EN"
 "http://www.w3.org/Graphics/SVG/1.1/DTD/svg11.dtd">
<!-- Generated by graphviz version 2.40.1 (20161225.0304)
 -->
<!-- Title: ee/draw/include/draw3d.h Pages: 1 -->
<svg width="270pt" height="196pt"
 viewBox="0.00 0.00 269.83 196.00" xmlns="http://www.w3.org/2000/svg" xmlns:xlink="http://www.w3.org/1999/xlink">
<g id="graph0" class="graph" transform="scale(1 1) rotate(0) translate(4 192)">
<title>ee/draw/include/draw3d.h</title>
<polygon fill="#ffffff" stroke="transparent" points="-4,4 -4,-192 265.8289,-192 265.8289,4 -4,4"/>
<!-- Node1 -->
<g id="node1" class="node">
<title>Node1</title>
<g id="a_node1"><a xlink:title=" ">
<polygon fill="#bfbfbf" stroke="#000000" points="31.3289,-168.5 31.3289,-187.5 173.3289,-187.5 173.3289,-168.5 31.3289,-168.5"/>
<text text-anchor="middle" x="102.3289" y="-175.5" font-family="Helvetica,sans-Serif" font-size="10.00" fill="#000000">ee/draw/include/draw3d.h</text>
</a>
</g>
</g>
<!-- Node2 -->
<g id="node2" class="node">
<title>Node2</title>
<g id="a_node2"><a xlink:href="tamtypes_8h.html" target="_top" xlink:title=" ">
<polygon fill="#ffffff" stroke="#000000" points="83.3289,-.5 83.3289,-19.5 155.3289,-19.5 155.3289,-.5 83.3289,-.5"/>
<text text-anchor="middle" x="119.3289" y="-7.5" font-family="Helvetica,sans-Serif" font-size="10.00" fill="#000000">tamtypes.h</text>
</a>
</g>
</g>
<!-- Node1&#45;&gt;Node2 -->
<g id="edge1" class="edge">
<title>Node1&#45;&gt;Node2</title>
<path fill="none" stroke="#191970" d="M84.5587,-168.393C49.6473,-148.2471 -22.0429,-99.816 7.3289,-56 22.0253,-34.0762 49.249,-22.5925 73.1756,-16.5818"/>
<polygon fill="#191970" stroke="#191970" points="74.1962,-19.9397 83.1819,-14.3264 72.657,-13.111 74.1962,-19.9397"/>
</g>
<!-- Node3 -->
<g id="node3" class="node">
<title>Node3</title>
<g id="a_node3"><a xlink:href="draw__primitives_8h.html" target="_top" xlink:title=" ">
<polygon fill="#ffffff" stroke="#000000" points="16.3289,-56.5 16.3289,-75.5 120.3289,-75.5 120.3289,-56.5 16.3289,-56.5"/>
<text text-anchor="middle" x="68.3289" y="-63.5" font-family="Helvetica,sans-Serif" font-size="10.00" fill="#000000">draw_primitives.h</text>
</a>
</g>
</g>
<!-- Node1&#45;&gt;Node3 -->
<g id="edge2" class="edge">
<title>Node1&#45;&gt;Node3</title>
<path fill="none" stroke="#191970" d="M99.0104,-168.1611C95.9024,-158.8685 91.1733,-144.5274 87.3289,-132 82.5736,-116.5045 77.5111,-98.8555 73.8085,-85.7094"/>
<polygon fill="#191970" stroke="#191970" points="77.1208,-84.5581 71.0547,-75.8718 70.3799,-86.4451 77.1208,-84.5581"/>
</g>
<!-- Node4 -->
<g id="node4" class="node">
<title>Node4</title>
<g id="a_node4"><a xlink:href="draw__types_8h.html" target="_top" xlink:title=" ">
<polygon fill="#ffffff" stroke="#000000" points="96.3289,-112.5 96.3289,-131.5 178.3289,-131.5 178.3289,-112.5 96.3289,-112.5"/>
<text text-anchor="middle" x="137.3289" y="-119.5" font-family="Helvetica,sans-Serif" font-size="10.00" fill="#000000">draw_types.h</text>
</a>
</g>
</g>
<!-- Node1&#45;&gt;Node4 -->
<g id="edge4" class="edge">
<title>Node1&#45;&gt;Node4</title>
<path fill="none" stroke="#191970" d="M108.4254,-168.2455C113.2434,-160.5367 120.104,-149.5598 125.9321,-140.2348"/>
<polygon fill="#191970" stroke="#191970" points="128.9701,-141.9777 131.3022,-131.6427 123.0341,-138.2677 128.9701,-141.9777"/>
</g>
<!-- Node6 -->
<g id="node6" class="node">
<title>Node6</title>
<g id="a_node6"><a xlink:href="gif__tags_8h.html" target="_top" xlink:title=" ">
<polygon fill="#ffffff" stroke="#000000" points="196.8289,-112.5 196.8289,-131.5 261.8289,-131.5 261.8289,-112.5 196.8289,-112.5"/>
<text text-anchor="middle" x="229.3289" y="-119.5" font-family="Helvetica,sans-Serif" font-size="10.00" fill="#000000">gif_tags.h</text>
</a>
</g>
</g>
<!-- Node1&#45;&gt;Node6 -->
<g id="edge7" class="edge">
<title>Node1&#45;&gt;Node6</title>
<path fill="none" stroke="#191970" d="M124.1609,-168.3733C144.6392,-159.3435 175.4687,-145.7494 198.4608,-135.6111"/>
<polygon fill="#191970" stroke="#191970" points="200.0438,-138.7383 207.7817,-131.5011 197.2196,-132.3333 200.0438,-138.7383"/>
</g>
<!-- Node3&#45;&gt;Node2 -->
<g id="edge3" class="edge">
<title>Node3&#45;&gt;Node2</title>
<path fill="none" stroke="#191970" d="M77.2124,-56.2455C84.5254,-48.2155 95.068,-36.6394 103.7755,-27.0781"/>
<polygon fill="#191970" stroke="#191970" points="106.4015,-29.3928 110.5471,-19.6427 101.2261,-24.6795 106.4015,-29.3928"/>
</g>
<!-- Node5 -->
<g id="node5" class="node">
<title>Node5</title>
<g id="a_node5"><a xlink:href="math3d_8h.html" target="_top" xlink:title=" ">
<polygon fill="#ffffff" stroke="#000000" points="138.8289,-56.5 138.8289,-75.5 201.8289,-75.5 201.8289,-56.5 138.8289,-56.5"/>
<text text-anchor="middle" x="170.3289" y="-63.5" font-family="Helvetica,sans-Serif" font-size="10.00" fill="#000000">math3d.h</text>
</a>
</g>
</g>
<!-- Node4&#45;&gt;Node5 -->
<g id="edge5" class="edge">
<title>Node4&#45;&gt;Node5</title>
<path fill="none" stroke="#191970" d="M143.077,-112.2455C147.5724,-104.617 153.9537,-93.7881 159.4113,-84.5267"/>
<polygon fill="#191970" stroke="#191970" points="162.585,-86.035 164.6466,-75.6427 156.5542,-82.4811 162.585,-86.035"/>
</g>
<!-- Node5&#45;&gt;Node2 -->
<g id="edge6" class="edge">
<title>Node5&#45;&gt;Node2</title>
<path fill="none" stroke="#191970" d="M161.4453,-56.2455C154.1323,-48.2155 143.5897,-36.6394 134.8822,-27.0781"/>
<polygon fill="#191970" stroke="#191970" points="137.4316,-24.6795 128.1106,-19.6427 132.2562,-29.3928 137.4316,-24.6795"/>
</g>
<!-- Node6&#45;&gt;Node2 -->
<g id="edge8" class="edge">
<title>Node6&#45;&gt;Node2</title>
<path fill="none" stroke="#191970" d="M229.0951,-112.3744C228.2752,-98.4457 224.8825,-72.5327 211.3289,-56 199.0062,-40.9687 180.5311,-30.4037 163.3629,-23.2244"/>
<polygon fill="#191970" stroke="#191970" points="164.5951,-19.9483 154.0068,-19.5773 162.0527,-26.4703 164.5951,-19.9483"/>
</g>
</g>
</svg>
