<?xml version="1.0" encoding="UTF-8" standalone="no"?>
<!DOCTYPE svg PUBLIC "-//W3C//DTD SVG 1.1//EN"
 "http://www.w3.org/Graphics/SVG/1.1/DTD/svg11.dtd">
<!-- Generated by graphviz version 2.40.1 (20161225.0304)
 -->
<!-- Title: ee/draw/include/draw2d.h Pages: 1 -->
<svg width="155pt" height="196pt"
 viewBox="0.00 0.00 155.00 196.00" xmlns="http://www.w3.org/2000/svg" xmlns:xlink="http://www.w3.org/1999/xlink">
<g id="graph0" class="graph" transform="scale(1 1) rotate(0) translate(4 192)">
<title>ee/draw/include/draw2d.h</title>
<polygon fill="#ffffff" stroke="transparent" points="-4,4 -4,-192 151,-192 151,4 -4,4"/>
<!-- Node1 -->
<g id="node1" class="node">
<title>Node1</title>
<g id="a_node1"><a xlink:title=" ">
<polygon fill="#bfbfbf" stroke="#000000" points="0,-168.5 0,-187.5 142,-187.5 142,-168.5 0,-168.5"/>
<text text-anchor="middle" x="71" y="-175.5" font-family="Helvetica,sans-Serif" font-size="10.00" fill="#000000">ee/draw/include/draw2d.h</text>
</a>
</g>
</g>
<!-- Node2 -->
<g id="node2" class="node">
<title>Node2</title>
<g id="a_node2"><a xlink:href="tamtypes_8h.html" target="_top" xlink:title=" ">
<polygon fill="#ffffff" stroke="#000000" points="31,-.5 31,-19.5 103,-19.5 103,-.5 31,-.5"/>
<text text-anchor="middle" x="67" y="-7.5" font-family="Helvetica,sans-Serif" font-size="10.00" fill="#000000">tamtypes.h</text>
</a>
</g>
</g>
<!-- Node1&#45;&gt;Node2 -->
<g id="edge1" class="edge">
<title>Node1&#45;&gt;Node2</title>
<path fill="none" stroke="#191970" d="M66.8632,-168.3507C63.1769,-159.1921 58.0567,-144.9416 56,-132 50.2945,-96.0998 57.1121,-53.7508 62.2731,-29.5696"/>
<polygon fill="#191970" stroke="#191970" points="65.748,-30.0717 64.5442,-19.5455 58.921,-28.5249 65.748,-30.0717"/>
</g>
<!-- Node3 -->
<g id="node3" class="node">
<title>Node3</title>
<g id="a_node3"><a xlink:href="draw__types_8h.html" target="_top" xlink:title=" ">
<polygon fill="#ffffff" stroke="#000000" points="65,-112.5 65,-131.5 147,-131.5 147,-112.5 65,-112.5"/>
<text text-anchor="middle" x="106" y="-119.5" font-family="Helvetica,sans-Serif" font-size="10.00" fill="#000000">draw_types.h</text>
</a>
</g>
</g>
<!-- Node1&#45;&gt;Node3 -->
<g id="edge2" class="edge">
<title>Node1&#45;&gt;Node3</title>
<path fill="none" stroke="#191970" d="M77.0965,-168.2455C81.9145,-160.5367 88.7751,-149.5598 94.6032,-140.2348"/>
<polygon fill="#191970" stroke="#191970" points="97.6413,-141.9777 99.9733,-131.6427 91.7053,-138.2677 97.6413,-141.9777"/>
</g>
<!-- Node4 -->
<g id="node4" class="node">
<title>Node4</title>
<g id="a_node4"><a xlink:href="math3d_8h.html" target="_top" xlink:title=" ">
<polygon fill="#ffffff" stroke="#000000" points="69.5,-56.5 69.5,-75.5 132.5,-75.5 132.5,-56.5 69.5,-56.5"/>
<text text-anchor="middle" x="101" y="-63.5" font-family="Helvetica,sans-Serif" font-size="10.00" fill="#000000">math3d.h</text>
</a>
</g>
</g>
<!-- Node3&#45;&gt;Node4 -->
<g id="edge3" class="edge">
<title>Node3&#45;&gt;Node4</title>
<path fill="none" stroke="#191970" d="M105.1291,-112.2455C104.4766,-104.9382 103.562,-94.6944 102.7593,-85.7046"/>
<polygon fill="#191970" stroke="#191970" points="106.2365,-85.2918 101.861,-75.6427 99.2642,-85.9143 106.2365,-85.2918"/>
</g>
<!-- Node4&#45;&gt;Node2 -->
<g id="edge4" class="edge">
<title>Node4&#45;&gt;Node2</title>
<path fill="none" stroke="#191970" d="M95.0777,-56.2455C90.3973,-48.5367 83.7327,-37.5598 78.0711,-28.2348"/>
<polygon fill="#191970" stroke="#191970" points="81.0361,-26.3741 72.8545,-19.6427 75.0525,-30.007 81.0361,-26.3741"/>
</g>
</g>
</svg>
