<?xml version="1.0" encoding="UTF-8" standalone="no"?>
<!DOCTYPE svg PUBLIC "-//W3C//DTD SVG 1.1//EN"
 "http://www.w3.org/Graphics/SVG/1.1/DTD/svg11.dtd">
<!-- Generated by graphviz version 2.40.1 (20161225.0304)
 -->
<!-- Title: ee/draw/src/draw2d.c Pages: 1 -->
<svg width="962pt" height="308pt"
 viewBox="0.00 0.00 961.50 308.00" xmlns="http://www.w3.org/2000/svg" xmlns:xlink="http://www.w3.org/1999/xlink">
<g id="graph0" class="graph" transform="scale(1 1) rotate(0) translate(4 304)">
<title>ee/draw/src/draw2d.c</title>
<polygon fill="#ffffff" stroke="transparent" points="-4,4 -4,-304 957.5,-304 957.5,4 -4,4"/>
<!-- Node1 -->
<g id="node1" class="node">
<title>Node1</title>
<g id="a_node1"><a xlink:title=" ">
<polygon fill="#bfbfbf" stroke="#000000" points="680.5,-280.5 680.5,-299.5 800.5,-299.5 800.5,-280.5 680.5,-280.5"/>
<text text-anchor="middle" x="740.5" y="-287.5" font-family="Helvetica,sans-Serif" font-size="10.00" fill="#000000">ee/draw/src/draw2d.c</text>
</a>
</g>
</g>
<!-- Node2 -->
<g id="node2" class="node">
<title>Node2</title>
<g id="a_node2"><a xlink:title=" ">
<polygon fill="#ffffff" stroke="#bfbfbf" points="407,-224.5 407,-243.5 458,-243.5 458,-224.5 407,-224.5"/>
<text text-anchor="middle" x="432.5" y="-231.5" font-family="Helvetica,sans-Serif" font-size="10.00" fill="#000000">math.h</text>
</a>
</g>
</g>
<!-- Node1&#45;&gt;Node2 -->
<g id="edge1" class="edge">
<title>Node1&#45;&gt;Node2</title>
<path fill="none" stroke="#191970" d="M680.4975,-282.0373C627,-274.4607 546.4199,-261.8797 468.0714,-244.1669"/>
<polygon fill="#191970" stroke="#191970" points="468.5623,-240.6887 458.0331,-241.866 466.9984,-247.5118 468.5623,-240.6887"/>
</g>
<!-- Node3 -->
<g id="node3" class="node">
<title>Node3</title>
<g id="a_node3"><a xlink:href="draw_8h.html" target="_top" xlink:title=" ">
<polygon fill="#ffffff" stroke="#000000" points="476,-224.5 476,-243.5 525,-243.5 525,-224.5 476,-224.5"/>
<text text-anchor="middle" x="500.5" y="-231.5" font-family="Helvetica,sans-Serif" font-size="10.00" fill="#000000">draw.h</text>
</a>
</g>
</g>
<!-- Node1&#45;&gt;Node3 -->
<g id="edge2" class="edge">
<title>Node1&#45;&gt;Node3</title>
<path fill="none" stroke="#191970" d="M699.5152,-280.4369C653.1601,-269.6207 578.4871,-252.197 534.9955,-242.0489"/>
<polygon fill="#191970" stroke="#191970" points="535.7011,-238.6196 525.1673,-239.7557 534.1104,-245.4365 535.7011,-238.6196"/>
</g>
<!-- Node15 -->
<g id="node15" class="node">
<title>Node15</title>
<g id="a_node15"><a xlink:href="draw2d_8h.html" target="_top" xlink:title=" ">
<polygon fill="#ffffff" stroke="#000000" points="670.5,-168.5 670.5,-187.5 732.5,-187.5 732.5,-168.5 670.5,-168.5"/>
<text text-anchor="middle" x="701.5" y="-175.5" font-family="Helvetica,sans-Serif" font-size="10.00" fill="#000000">draw2d.h</text>
</a>
</g>
</g>
<!-- Node1&#45;&gt;Node15 -->
<g id="edge33" class="edge">
<title>Node1&#45;&gt;Node15</title>
<path fill="none" stroke="#191970" d="M737.1749,-280.4509C730.7565,-262.0186 716.5517,-221.2254 708.131,-197.043"/>
<polygon fill="#191970" stroke="#191970" points="711.4106,-195.8177 704.8167,-187.5249 704.7999,-198.1197 711.4106,-195.8177"/>
</g>
<!-- Node16 -->
<g id="node16" class="node">
<title>Node16</title>
<g id="a_node16"><a xlink:href="draw3d_8h.html" target="_top" xlink:title=" ">
<polygon fill="#ffffff" stroke="#000000" points="750.5,-168.5 750.5,-187.5 812.5,-187.5 812.5,-168.5 750.5,-168.5"/>
<text text-anchor="middle" x="781.5" y="-175.5" font-family="Helvetica,sans-Serif" font-size="10.00" fill="#000000">draw3d.h</text>
</a>
</g>
</g>
<!-- Node1&#45;&gt;Node16 -->
<g id="edge34" class="edge">
<title>Node1&#45;&gt;Node16</title>
<path fill="none" stroke="#191970" d="M743.9956,-280.4509C750.7432,-262.0186 765.6764,-221.2254 774.5289,-197.043"/>
<polygon fill="#191970" stroke="#191970" points="777.8622,-198.1187 778.0132,-187.5249 771.2888,-195.7123 777.8622,-198.1187"/>
</g>
<!-- Node17 -->
<g id="node17" class="node">
<title>Node17</title>
<g id="a_node17"><a xlink:href="gif__tags_8h.html" target="_top" xlink:title=" ">
<polygon fill="#ffffff" stroke="#000000" points="846,-112.5 846,-131.5 911,-131.5 911,-112.5 846,-112.5"/>
<text text-anchor="middle" x="878.5" y="-119.5" font-family="Helvetica,sans-Serif" font-size="10.00" fill="#000000">gif_tags.h</text>
</a>
</g>
</g>
<!-- Node1&#45;&gt;Node17 -->
<g id="edge35" class="edge">
<title>Node1&#45;&gt;Node17</title>
<path fill="none" stroke="#191970" d="M748.3149,-280.4862C770.6016,-253.3545 834.7345,-175.2798 863.8313,-139.8576"/>
<polygon fill="#191970" stroke="#191970" points="866.7842,-141.7768 870.4271,-131.8279 861.3751,-137.3336 866.7842,-141.7768"/>
</g>
<!-- Node18 -->
<g id="node18" class="node">
<title>Node18</title>
<g id="a_node18"><a xlink:href="gs__gp_8h.html" target="_top" xlink:title=" ">
<polygon fill="#ffffff" stroke="#000000" points="899.5,-224.5 899.5,-243.5 953.5,-243.5 953.5,-224.5 899.5,-224.5"/>
<text text-anchor="middle" x="926.5" y="-231.5" font-family="Helvetica,sans-Serif" font-size="10.00" fill="#000000">gs_gp.h</text>
</a>
</g>
</g>
<!-- Node1&#45;&gt;Node18 -->
<g id="edge36" class="edge">
<title>Node1&#45;&gt;Node18</title>
<path fill="none" stroke="#191970" d="M772.4745,-280.3733C805.0893,-270.5537 855.6321,-255.3366 889.8456,-245.0357"/>
<polygon fill="#191970" stroke="#191970" points="890.9008,-248.3733 899.4672,-242.1389 888.8827,-241.6705 890.9008,-248.3733"/>
</g>
<!-- Node4 -->
<g id="node4" class="node">
<title>Node4</title>
<g id="a_node4"><a xlink:href="tamtypes_8h.html" target="_top" xlink:title=" ">
<polygon fill="#ffffff" stroke="#000000" points="507.5,-.5 507.5,-19.5 579.5,-19.5 579.5,-.5 507.5,-.5"/>
<text text-anchor="middle" x="543.5" y="-7.5" font-family="Helvetica,sans-Serif" font-size="10.00" fill="#000000">tamtypes.h</text>
</a>
</g>
</g>
<!-- Node3&#45;&gt;Node4 -->
<g id="edge3" class="edge">
<title>Node3&#45;&gt;Node4</title>
<path fill="none" stroke="#191970" d="M475.7952,-224.3537C413.8601,-198.8107 260.9285,-126.5325 318.5,-56 340.6187,-28.9017 438.1186,-17.3401 497.2746,-12.7476"/>
<polygon fill="#191970" stroke="#191970" points="497.7754,-16.2203 507.4907,-11.9939 497.2603,-9.2392 497.7754,-16.2203"/>
</g>
<!-- Node5 -->
<g id="node5" class="node">
<title>Node5</title>
<g id="a_node5"><a xlink:href="draw__blending_8h.html" target="_top" xlink:title=" ">
<polygon fill="#ffffff" stroke="#000000" points="328,-56.5 328,-75.5 425,-75.5 425,-56.5 328,-56.5"/>
<text text-anchor="middle" x="376.5" y="-63.5" font-family="Helvetica,sans-Serif" font-size="10.00" fill="#000000">draw_blending.h</text>
</a>
</g>
</g>
<!-- Node3&#45;&gt;Node5 -->
<g id="edge4" class="edge">
<title>Node3&#45;&gt;Node5</title>
<path fill="none" stroke="#191970" d="M493.4779,-224.4862C473.537,-197.4695 416.3132,-119.9405 390.0146,-84.3102"/>
<polygon fill="#191970" stroke="#191970" points="392.5085,-81.7951 383.7539,-75.8279 386.8765,-85.9521 392.5085,-81.7951"/>
</g>
<!-- Node6 -->
<g id="node6" class="node">
<title>Node6</title>
<g id="a_node6"><a xlink:href="draw__buffers_8h.html" target="_top" xlink:title=" ">
<polygon fill="#ffffff" stroke="#000000" points="0,-112.5 0,-131.5 89,-131.5 89,-112.5 0,-112.5"/>
<text text-anchor="middle" x="44.5" y="-119.5" font-family="Helvetica,sans-Serif" font-size="10.00" fill="#000000">draw_buffers.h</text>
</a>
</g>
</g>
<!-- Node3&#45;&gt;Node6 -->
<g id="edge6" class="edge">
<title>Node3&#45;&gt;Node6</title>
<path fill="none" stroke="#191970" d="M475.755,-226.1131C472.6607,-225.3074 469.5221,-224.5754 466.5,-224 379.2614,-207.3915 138.8666,-242.1753 68.5,-188 54.3514,-177.107 48.5364,-157.077 46.1506,-141.9293"/>
<polygon fill="#191970" stroke="#191970" points="49.6209,-141.472 44.9493,-131.9628 42.6712,-142.3098 49.6209,-141.472"/>
</g>
<!-- Node7 -->
<g id="node7" class="node">
<title>Node7</title>
<g id="a_node7"><a xlink:href="draw__dithering_8h.html" target="_top" xlink:title=" ">
<polygon fill="#ffffff" stroke="#000000" points="443.5,-56.5 443.5,-75.5 541.5,-75.5 541.5,-56.5 443.5,-56.5"/>
<text text-anchor="middle" x="492.5" y="-63.5" font-family="Helvetica,sans-Serif" font-size="10.00" fill="#000000">draw_dithering.h</text>
</a>
</g>
</g>
<!-- Node3&#45;&gt;Node7 -->
<g id="edge8" class="edge">
<title>Node3&#45;&gt;Node7</title>
<path fill="none" stroke="#191970" d="M500.047,-224.4862C498.7823,-197.9293 495.1936,-122.5651 493.4603,-86.1655"/>
<polygon fill="#191970" stroke="#191970" points="496.9398,-85.6501 492.968,-75.8279 489.9477,-85.9831 496.9398,-85.6501"/>
</g>
<!-- Node8 -->
<g id="node8" class="node">
<title>Node8</title>
<g id="a_node8"><a xlink:href="draw__fog_8h.html" target="_top" xlink:title=" ">
<polygon fill="#ffffff" stroke="#000000" points="560,-56.5 560,-75.5 631,-75.5 631,-56.5 560,-56.5"/>
<text text-anchor="middle" x="595.5" y="-63.5" font-family="Helvetica,sans-Serif" font-size="10.00" fill="#000000">draw_fog.h</text>
</a>
</g>
</g>
<!-- Node3&#45;&gt;Node8 -->
<g id="edge10" class="edge">
<title>Node3&#45;&gt;Node8</title>
<path fill="none" stroke="#191970" d="M501.5796,-224.3084C504.3964,-202.5178 513.5624,-148.697 538.5,-112 546.7903,-99.8003 559.2698,-89.2123 570.4404,-81.28"/>
<polygon fill="#191970" stroke="#191970" points="572.6731,-83.9962 579.0133,-75.5078 568.7635,-78.1897 572.6731,-83.9962"/>
</g>
<!-- Node9 -->
<g id="node9" class="node">
<title>Node9</title>
<g id="a_node9"><a xlink:href="draw__masking_8h.html" target="_top" xlink:title=" ">
<polygon fill="#ffffff" stroke="#000000" points="146,-112.5 146,-131.5 243,-131.5 243,-112.5 146,-112.5"/>
<text text-anchor="middle" x="194.5" y="-119.5" font-family="Helvetica,sans-Serif" font-size="10.00" fill="#000000">draw_masking.h</text>
</a>
</g>
</g>
<!-- Node3&#45;&gt;Node9 -->
<g id="edge12" class="edge">
<title>Node3&#45;&gt;Node9</title>
<path fill="none" stroke="#191970" d="M475.7249,-226.2612C472.6357,-225.4301 469.5066,-224.6516 466.5,-224 410.7849,-211.9252 255.2589,-225.7048 212.5,-188 199.5804,-176.6075 195.5223,-156.9404 194.4317,-142.0307"/>
<polygon fill="#191970" stroke="#191970" points="197.9206,-141.646 194.0785,-131.7724 190.9247,-141.8869 197.9206,-141.646"/>
</g>
<!-- Node10 -->
<g id="node10" class="node">
<title>Node10</title>
<g id="a_node10"><a xlink:href="draw__primitives_8h.html" target="_top" xlink:title=" ">
<polygon fill="#ffffff" stroke="#000000" points="547.5,-112.5 547.5,-131.5 651.5,-131.5 651.5,-112.5 547.5,-112.5"/>
<text text-anchor="middle" x="599.5" y="-119.5" font-family="Helvetica,sans-Serif" font-size="10.00" fill="#000000">draw_primitives.h</text>
</a>
</g>
</g>
<!-- Node3&#45;&gt;Node10 -->
<g id="edge14" class="edge">
<title>Node3&#45;&gt;Node10</title>
<path fill="none" stroke="#191970" d="M508.9407,-224.4509C525.6719,-205.5227 563.2465,-163.014 584.3602,-139.1279"/>
<polygon fill="#191970" stroke="#191970" points="587.0802,-141.3354 591.0807,-131.5249 581.8354,-136.6994 587.0802,-141.3354"/>
</g>
<!-- Node11 -->
<g id="node11" class="node">
<title>Node11</title>
<g id="a_node11"><a xlink:href="draw__sampling_8h.html" target="_top" xlink:title=" ">
<polygon fill="#ffffff" stroke="#000000" points="221.5,-168.5 221.5,-187.5 321.5,-187.5 321.5,-168.5 221.5,-168.5"/>
<text text-anchor="middle" x="271.5" y="-175.5" font-family="Helvetica,sans-Serif" font-size="10.00" fill="#000000">draw_sampling.h</text>
</a>
</g>
</g>
<!-- Node3&#45;&gt;Node11 -->
<g id="edge16" class="edge">
<title>Node3&#45;&gt;Node11</title>
<path fill="none" stroke="#191970" d="M475.6614,-226.5251C472.5831,-225.6488 469.4739,-224.7875 466.5,-224 418.8649,-211.3863 364.2344,-198.6461 324.9387,-189.7823"/>
<polygon fill="#191970" stroke="#191970" points="325.5642,-186.3356 315.0401,-187.5583 324.0296,-193.1654 325.5642,-186.3356"/>
</g>
<!-- Node12 -->
<g id="node12" class="node">
<title>Node12</title>
<g id="a_node12"><a xlink:href="draw__tests_8h.html" target="_top" xlink:title=" ">
<polygon fill="#ffffff" stroke="#000000" points="78,-168.5 78,-187.5 157,-187.5 157,-168.5 78,-168.5"/>
<text text-anchor="middle" x="117.5" y="-175.5" font-family="Helvetica,sans-Serif" font-size="10.00" fill="#000000">draw_tests.h</text>
</a>
</g>
</g>
<!-- Node3&#45;&gt;Node12 -->
<g id="edge18" class="edge">
<title>Node3&#45;&gt;Node12</title>
<path fill="none" stroke="#191970" d="M475.7348,-226.2144C472.644,-225.3914 469.5117,-224.6275 466.5,-224 340.6476,-197.7778 306.7549,-206.2379 179.5,-188 175.5455,-187.4332 171.4529,-186.8239 167.3427,-186.1957"/>
<polygon fill="#191970" stroke="#191970" points="167.578,-182.6902 157.1584,-184.609 166.5004,-189.6068 167.578,-182.6902"/>
</g>
<!-- Node13 -->
<g id="node13" class="node">
<title>Node13</title>
<g id="a_node13"><a xlink:href="draw__types_8h.html" target="_top" xlink:title=" ">
<polygon fill="#ffffff" stroke="#000000" points="669.5,-112.5 669.5,-131.5 751.5,-131.5 751.5,-112.5 669.5,-112.5"/>
<text text-anchor="middle" x="710.5" y="-119.5" font-family="Helvetica,sans-Serif" font-size="10.00" fill="#000000">draw_types.h</text>
</a>
</g>
</g>
<!-- Node3&#45;&gt;Node13 -->
<g id="edge21" class="edge">
<title>Node3&#45;&gt;Node13</title>
<path fill="none" stroke="#191970" d="M518.4045,-224.4509C555.3672,-204.7375 640.2877,-159.4465 683.7731,-136.2543"/>
<polygon fill="#191970" stroke="#191970" points="685.4644,-139.3191 692.6408,-131.5249 682.1702,-133.1426 685.4644,-139.3191"/>
</g>
<!-- Node3&#45;&gt;Node15 -->
<g id="edge24" class="edge">
<title>Node3&#45;&gt;Node15</title>
<path fill="none" stroke="#191970" d="M525.1465,-227.1333C558.8739,-217.7366 619.8504,-200.7482 660.512,-189.4195"/>
<polygon fill="#191970" stroke="#191970" points="661.6893,-192.7249 670.3831,-186.6694 659.8106,-185.9817 661.6893,-192.7249"/>
</g>
<!-- Node3&#45;&gt;Node16 -->
<g id="edge27" class="edge">
<title>Node3&#45;&gt;Node16</title>
<path fill="none" stroke="#191970" d="M525.2265,-229.7551C567.3207,-222.427 655.7995,-206.5844 740.1053,-188.2212"/>
<polygon fill="#191970" stroke="#191970" points="741.0793,-191.5908 750.0966,-186.0285 739.5787,-184.7536 741.0793,-191.5908"/>
</g>
<!-- Node5&#45;&gt;Node4 -->
<g id="edge5" class="edge">
<title>Node5&#45;&gt;Node4</title>
<path fill="none" stroke="#191970" d="M405.2083,-56.3733C432.8577,-47.1016 474.8576,-33.0178 505.3166,-22.804"/>
<polygon fill="#191970" stroke="#191970" points="506.7979,-25.9989 515.1663,-19.5011 504.5724,-19.3621 506.7979,-25.9989"/>
</g>
<!-- Node6&#45;&gt;Node4 -->
<g id="edge7" class="edge">
<title>Node6&#45;&gt;Node4</title>
<path fill="none" stroke="#191970" d="M49.901,-112.3302C58.8581,-97.3389 78.3223,-68.8767 103.5,-56 171.3739,-21.287 398.5671,-12.7495 497.1749,-10.6657"/>
<polygon fill="#191970" stroke="#191970" points="497.4991,-14.16 507.4278,-10.4627 497.3605,-7.1614 497.4991,-14.16"/>
</g>
<!-- Node7&#45;&gt;Node4 -->
<g id="edge9" class="edge">
<title>Node7&#45;&gt;Node4</title>
<path fill="none" stroke="#191970" d="M501.3835,-56.2455C508.6966,-48.2155 519.2391,-36.6394 527.9467,-27.0781"/>
<polygon fill="#191970" stroke="#191970" points="530.5727,-29.3928 534.7183,-19.6427 525.3972,-24.6795 530.5727,-29.3928"/>
</g>
<!-- Node8&#45;&gt;Node4 -->
<g id="edge11" class="edge">
<title>Node8&#45;&gt;Node4</title>
<path fill="none" stroke="#191970" d="M586.4423,-56.2455C578.9858,-48.2155 568.2366,-36.6394 559.3583,-27.0781"/>
<polygon fill="#191970" stroke="#191970" points="561.8232,-24.589 552.4539,-19.6427 556.6937,-29.3522 561.8232,-24.589"/>
</g>
<!-- Node9&#45;&gt;Node4 -->
<g id="edge13" class="edge">
<title>Node9&#45;&gt;Node4</title>
<path fill="none" stroke="#191970" d="M199.1638,-112.4862C206.9525,-97.7084 224.0909,-69.5338 247.5,-56 289.0714,-31.9659 424.6933,-18.6697 497.0452,-13.126"/>
<polygon fill="#191970" stroke="#191970" points="497.531,-16.5996 507.2423,-12.364 497.0092,-9.619 497.531,-16.5996"/>
</g>
<!-- Node10&#45;&gt;Node4 -->
<g id="edge15" class="edge">
<title>Node10&#45;&gt;Node4</title>
<path fill="none" stroke="#191970" d="M612.7319,-112.318C628.7144,-99.3976 651.9941,-75.8412 639.5,-56 628.3465,-38.2878 608.2718,-27.2442 589.3528,-20.4355"/>
<polygon fill="#191970" stroke="#191970" points="590.2108,-17.0337 579.6181,-17.2482 588.0325,-23.6862 590.2108,-17.0337"/>
</g>
<!-- Node11&#45;&gt;Node4 -->
<g id="edge17" class="edge">
<title>Node11&#45;&gt;Node4</title>
<path fill="none" stroke="#191970" d="M269.1695,-168.1943C264.342,-145.1997 256.0095,-87.3839 285.5,-56 313.6693,-26.0221 430.7686,-15.4432 497.1114,-11.8152"/>
<polygon fill="#191970" stroke="#191970" points="497.495,-15.3002 507.3018,-11.2907 497.1351,-8.3094 497.495,-15.3002"/>
</g>
<!-- Node12&#45;&gt;Node4 -->
<g id="edge19" class="edge">
<title>Node12&#45;&gt;Node4</title>
<path fill="none" stroke="#191970" d="M118.2139,-168.1138C119.65,-154.3263 123.9228,-129.0961 136.5,-112 163.3085,-75.5594 179.196,-72.0309 221.5,-56 270.9252,-37.2706 420.2412,-21.336 496.9337,-14.1236"/>
<polygon fill="#191970" stroke="#191970" points="497.6222,-17.5748 507.2554,-13.1644 496.9744,-10.6048 497.6222,-17.5748"/>
</g>
<!-- Node12&#45;&gt;Node6 -->
<g id="edge20" class="edge">
<title>Node12&#45;&gt;Node6</title>
<path fill="none" stroke="#191970" d="M104.7844,-168.2455C93.898,-159.8943 78.0117,-147.7076 65.28,-137.9408"/>
<polygon fill="#191970" stroke="#191970" points="67.1346,-134.9523 57.0699,-131.6427 62.8739,-140.5063 67.1346,-134.9523"/>
</g>
<!-- Node14 -->
<g id="node14" class="node">
<title>Node14</title>
<g id="a_node14"><a xlink:href="math3d_8h.html" target="_top" xlink:title=" ">
<polygon fill="#ffffff" stroke="#000000" points="688,-56.5 688,-75.5 751,-75.5 751,-56.5 688,-56.5"/>
<text text-anchor="middle" x="719.5" y="-63.5" font-family="Helvetica,sans-Serif" font-size="10.00" fill="#000000">math3d.h</text>
</a>
</g>
</g>
<!-- Node13&#45;&gt;Node14 -->
<g id="edge22" class="edge">
<title>Node13&#45;&gt;Node14</title>
<path fill="none" stroke="#191970" d="M712.0677,-112.2455C713.2421,-104.9382 714.8884,-94.6944 716.3332,-85.7046"/>
<polygon fill="#191970" stroke="#191970" points="719.8191,-86.0714 717.9503,-75.6427 712.9078,-84.9606 719.8191,-86.0714"/>
</g>
<!-- Node14&#45;&gt;Node4 -->
<g id="edge23" class="edge">
<title>Node14&#45;&gt;Node4</title>
<path fill="none" stroke="#191970" d="M689.2445,-56.3733C659.8517,-47.021 615.0708,-32.7725 582.9066,-22.5385"/>
<polygon fill="#191970" stroke="#191970" points="583.9512,-19.198 573.3607,-19.5011 581.8287,-25.8685 583.9512,-19.198"/>
</g>
<!-- Node15&#45;&gt;Node4 -->
<g id="edge25" class="edge">
<title>Node15&#45;&gt;Node4</title>
<path fill="none" stroke="#191970" d="M721.6561,-168.4543C735.3815,-160.7394 752.4635,-148.4561 760.5,-132 767.3603,-117.9523 777.2199,-77.4957 759.5,-56 738.3777,-30.3769 646.947,-18.3684 590.0249,-13.2814"/>
<polygon fill="#191970" stroke="#191970" points="590.0841,-9.7738 579.8226,-12.4103 589.4886,-16.7484 590.0841,-9.7738"/>
</g>
<!-- Node15&#45;&gt;Node13 -->
<g id="edge26" class="edge">
<title>Node15&#45;&gt;Node13</title>
<path fill="none" stroke="#191970" d="M703.0677,-168.2455C704.2421,-160.9382 705.8884,-150.6944 707.3332,-141.7046"/>
<polygon fill="#191970" stroke="#191970" points="710.8191,-142.0714 708.9503,-131.6427 703.9078,-140.9606 710.8191,-142.0714"/>
</g>
<!-- Node16&#45;&gt;Node4 -->
<g id="edge28" class="edge">
<title>Node16&#45;&gt;Node4</title>
<path fill="none" stroke="#191970" d="M784.8407,-168.3706C792.0137,-145.7569 806.1051,-88.7047 778.5,-56 754.7357,-27.8455 651.226,-16.6264 589.7892,-12.3881"/>
<polygon fill="#191970" stroke="#191970" points="589.7795,-8.8801 579.5726,-11.7207 589.3231,-15.8652 589.7795,-8.8801"/>
</g>
<!-- Node16&#45;&gt;Node10 -->
<g id="edge29" class="edge">
<title>Node16&#45;&gt;Node10</title>
<path fill="none" stroke="#191970" d="M750.2131,-168.3733C719.8182,-159.021 673.5107,-144.7725 640.25,-134.5385"/>
<polygon fill="#191970" stroke="#191970" points="640.9658,-131.0968 630.3786,-131.5011 638.9071,-137.7873 640.9658,-131.0968"/>
</g>
<!-- Node16&#45;&gt;Node13 -->
<g id="edge30" class="edge">
<title>Node16&#45;&gt;Node13</title>
<path fill="none" stroke="#191970" d="M769.1327,-168.2455C758.5446,-159.8943 743.0936,-147.7076 730.7107,-137.9408"/>
<polygon fill="#191970" stroke="#191970" points="732.7447,-135.0875 722.7255,-131.6427 728.4097,-140.5837 732.7447,-135.0875"/>
</g>
<!-- Node16&#45;&gt;Node17 -->
<g id="edge31" class="edge">
<title>Node16&#45;&gt;Node17</title>
<path fill="none" stroke="#191970" d="M798.3961,-168.2455C813.418,-159.5731 835.6043,-146.7645 852.821,-136.825"/>
<polygon fill="#191970" stroke="#191970" points="854.8871,-139.6737 861.7975,-131.6427 851.3872,-133.6114 854.8871,-139.6737"/>
</g>
<!-- Node17&#45;&gt;Node4 -->
<g id="edge32" class="edge">
<title>Node17&#45;&gt;Node4</title>
<path fill="none" stroke="#191970" d="M874.4425,-112.0266C867.8332,-97.1601 853.2563,-69.4945 831.5,-56 791.9236,-31.4524 660.5183,-18.4314 589.6894,-13.0466"/>
<polygon fill="#191970" stroke="#191970" points="589.928,-9.5548 579.6969,-12.3071 589.4112,-16.5357 589.928,-9.5548"/>
</g>
<!-- Node18&#45;&gt;Node4 -->
<g id="edge37" class="edge">
<title>Node18&#45;&gt;Node4</title>
<path fill="none" stroke="#191970" d="M928.3488,-224.2006C931.9198,-202.643 937.8916,-150.0022 919.5,-112 903.1802,-78.2788 890.4536,-71.8307 856.5,-56 810.0267,-34.332 664.8373,-19.801 589.6548,-13.5228"/>
<polygon fill="#191970" stroke="#191970" points="589.7812,-10.0215 579.5284,-12.6918 589.2086,-16.998 589.7812,-10.0215"/>
</g>
</g>
</svg>
