<?xml version="1.0" encoding="UTF-8" standalone="no"?>
<!DOCTYPE svg PUBLIC "-//W3C//DTD SVG 1.1//EN"
 "http://www.w3.org/Graphics/SVG/1.1/DTD/svg11.dtd">
<!-- Generated by graphviz version 2.40.1 (20161225.0304)
 -->
<!-- Title: ee/draw/include/draw2d.h Pages: 1 -->
<svg width="1755pt" height="207pt"
 viewBox="0.00 0.00 1754.50 207.00" xmlns="http://www.w3.org/2000/svg" xmlns:xlink="http://www.w3.org/1999/xlink">
<g id="graph0" class="graph" transform="scale(1 1) rotate(0) translate(4 203)">
<title>ee/draw/include/draw2d.h</title>
<polygon fill="#ffffff" stroke="transparent" points="-4,4 -4,-203 1750.5,-203 1750.5,4 -4,4"/>
<!-- Node1 -->
<g id="node1" class="node">
<title>Node1</title>
<g id="a_node1"><a xlink:title=" ">
<polygon fill="#bfbfbf" stroke="#000000" points="114.5,-179.5 114.5,-198.5 256.5,-198.5 256.5,-179.5 114.5,-179.5"/>
<text text-anchor="middle" x="185.5" y="-186.5" font-family="Helvetica,sans-Serif" font-size="10.00" fill="#000000">ee/draw/include/draw2d.h</text>
</a>
</g>
</g>
<!-- Node2 -->
<g id="node2" class="node">
<title>Node2</title>
<g id="a_node2"><a xlink:href="draw_8h.html" target="_top" xlink:title=" ">
<polygon fill="#ffffff" stroke="#000000" points="525,-123.5 525,-142.5 654,-142.5 654,-123.5 525,-123.5"/>
<text text-anchor="middle" x="589.5" y="-130.5" font-family="Helvetica,sans-Serif" font-size="10.00" fill="#000000">ee/draw/include/draw.h</text>
</a>
</g>
</g>
<!-- Node1&#45;&gt;Node2 -->
<g id="edge1" class="edge">
<title>Node1&#45;&gt;Node2</title>
<path fill="none" stroke="#191970" d="M264.4936,-178.0504C340.493,-167.5158 454.0054,-151.7814 524.8005,-141.9682"/>
<polygon fill="#191970" stroke="#191970" points="263.9157,-174.5969 254.491,-179.4369 264.8769,-181.5306 263.9157,-174.5969"/>
</g>
<!-- Node7 -->
<g id="node7" class="node">
<title>Node7</title>
<g id="a_node7"><a xlink:href="draw_2src_2draw_8c.html" target="_top" xlink:title=" ">
<polygon fill="#ffffff" stroke="#000000" points="0,-62 0,-81 107,-81 107,-62 0,-62"/>
<text text-anchor="middle" x="53.5" y="-69" font-family="Helvetica,sans-Serif" font-size="10.00" fill="#000000">ee/draw/src/draw.c</text>
</a>
</g>
</g>
<!-- Node1&#45;&gt;Node7 -->
<g id="edge19" class="edge">
<title>Node1&#45;&gt;Node7</title>
<path fill="none" stroke="#191970" d="M167.2102,-172.7193C139.3449,-147.915 87.1104,-101.4184 64.4514,-81.2484"/>
<polygon fill="#191970" stroke="#191970" points="164.9013,-175.3498 174.6979,-179.3845 169.5556,-170.1212 164.9013,-175.3498"/>
</g>
<!-- Node8 -->
<g id="node8" class="node">
<title>Node8</title>
<g id="a_node8"><a xlink:href="draw2d_8c.html" target="_top" xlink:title=" ">
<polygon fill="#ffffff" stroke="#000000" points="125.5,-62 125.5,-81 245.5,-81 245.5,-62 125.5,-62"/>
<text text-anchor="middle" x="185.5" y="-69" font-family="Helvetica,sans-Serif" font-size="10.00" fill="#000000">ee/draw/src/draw2d.c</text>
</a>
</g>
</g>
<!-- Node1&#45;&gt;Node8 -->
<g id="edge20" class="edge">
<title>Node1&#45;&gt;Node8</title>
<path fill="none" stroke="#191970" d="M185.5,-169.0662C185.5,-143.5834 185.5,-100.4662 185.5,-81.2484"/>
<polygon fill="#191970" stroke="#191970" points="182.0001,-169.3844 185.5,-179.3845 189.0001,-169.3845 182.0001,-169.3844"/>
</g>
<!-- Node3 -->
<g id="node3" class="node">
<title>Node3</title>
<g id="a_node3"><a xlink:href="cube_8c.html" target="_top" xlink:title=" ">
<polygon fill="#ffffff" stroke="#000000" points="840.5,-56.5 840.5,-86.5 966.5,-86.5 966.5,-56.5 840.5,-56.5"/>
<text text-anchor="start" x="848.5" y="-74.5" font-family="Helvetica,sans-Serif" font-size="10.00" fill="#000000">ee/draw/samples/cube</text>
<text text-anchor="middle" x="903.5" y="-63.5" font-family="Helvetica,sans-Serif" font-size="10.00" fill="#000000">/cube.c</text>
</a>
</g>
</g>
<!-- Node2&#45;&gt;Node3 -->
<g id="edge2" class="edge">
<title>Node2&#45;&gt;Node3</title>
<path fill="none" stroke="#191970" d="M651.6113,-121.6214C700.5438,-112.5539 770.4559,-99.3705 831.5,-87 834.3823,-86.4159 837.3278,-85.8117 840.302,-85.1956"/>
<polygon fill="#191970" stroke="#191970" points="650.6953,-118.2314 641.4988,-123.4921 651.9686,-125.1146 650.6953,-118.2314"/>
</g>
<!-- Node4 -->
<g id="node4" class="node">
<title>Node4</title>
<g id="a_node4"><a xlink:href="teapot_8c.html" target="_top" xlink:title=" ">
<polygon fill="#ffffff" stroke="#000000" points="984.5,-56.5 984.5,-86.5 1118.5,-86.5 1118.5,-56.5 984.5,-56.5"/>
<text text-anchor="start" x="992.5" y="-74.5" font-family="Helvetica,sans-Serif" font-size="10.00" fill="#000000">ee/draw/samples/teapot</text>
<text text-anchor="middle" x="1051.5" y="-63.5" font-family="Helvetica,sans-Serif" font-size="10.00" fill="#000000">/teapot.c</text>
</a>
</g>
</g>
<!-- Node2&#45;&gt;Node4 -->
<g id="edge3" class="edge">
<title>Node2&#45;&gt;Node4</title>
<path fill="none" stroke="#191970" d="M664.4763,-125.9171C742.4387,-118.1191 867.8978,-104.3537 975.5,-87 978.4247,-86.5283 981.4081,-86.0232 984.4183,-85.4939"/>
<polygon fill="#191970" stroke="#191970" points="663.8734,-122.4597 654.2684,-126.9312 664.5655,-129.4254 663.8734,-122.4597"/>
</g>
<!-- Node5 -->
<g id="node5" class="node">
<title>Node5</title>
<g id="a_node5"><a xlink:href="draw_2samples_2texture_2texture_8c.html" target="_top" xlink:title=" ">
<polygon fill="#ffffff" stroke="#000000" points="1136.5,-56.5 1136.5,-86.5 1274.5,-86.5 1274.5,-56.5 1136.5,-56.5"/>
<text text-anchor="start" x="1144.5" y="-74.5" font-family="Helvetica,sans-Serif" font-size="10.00" fill="#000000">ee/draw/samples/texture</text>
<text text-anchor="middle" x="1205.5" y="-63.5" font-family="Helvetica,sans-Serif" font-size="10.00" fill="#000000">/texture.c</text>
</a>
</g>
</g>
<!-- Node2&#45;&gt;Node5 -->
<g id="edge4" class="edge">
<title>Node2&#45;&gt;Node5</title>
<path fill="none" stroke="#191970" d="M664.4645,-129.2211C768.6928,-123.3692 963.119,-110.287 1127.5,-87 1130.3707,-86.5933 1133.2953,-86.1491 1136.2456,-85.6761"/>
<polygon fill="#191970" stroke="#191970" points="664.1475,-125.7332 654.3567,-129.7817 664.5352,-132.7224 664.1475,-125.7332"/>
</g>
<!-- Node6 -->
<g id="node6" class="node">
<title>Node6</title>
<g id="a_node6"><a xlink:href="draw_2samples_2vu1_2main_8c.html" target="_top" xlink:title=" ">
<polygon fill="#ffffff" stroke="#000000" points="1293,-56.5 1293,-86.5 1414,-86.5 1414,-56.5 1293,-56.5"/>
<text text-anchor="start" x="1301" y="-74.5" font-family="Helvetica,sans-Serif" font-size="10.00" fill="#000000">ee/draw/samples/vu1</text>
<text text-anchor="middle" x="1353.5" y="-63.5" font-family="Helvetica,sans-Serif" font-size="10.00" fill="#000000">/main.c</text>
</a>
</g>
</g>
<!-- Node2&#45;&gt;Node6 -->
<g id="edge5" class="edge">
<title>Node2&#45;&gt;Node6</title>
<path fill="none" stroke="#191970" d="M664.4864,-131.7517C792.1789,-128.7963 1059.7546,-118.9983 1283.5,-87 1286.5804,-86.5595 1289.7268,-86.0571 1292.8968,-85.5093"/>
<polygon fill="#191970" stroke="#191970" points="664.3427,-128.254 654.4236,-131.9771 664.4995,-135.2522 664.3427,-128.254"/>
</g>
<!-- Node2&#45;&gt;Node7 -->
<g id="edge6" class="edge">
<title>Node2&#45;&gt;Node7</title>
<path fill="none" stroke="#191970" d="M514.6195,-129.0632C420.9894,-123.3745 256.0344,-110.8218 116.5,-87 107.2845,-85.4267 97.4222,-83.2443 88.3013,-81.013"/>
<polygon fill="#191970" stroke="#191970" points="514.6525,-132.5713 524.8436,-129.6743 515.0702,-125.5838 514.6525,-132.5713"/>
</g>
<!-- Node2&#45;&gt;Node8 -->
<g id="edge7" class="edge">
<title>Node2&#45;&gt;Node8</title>
<path fill="none" stroke="#191970" d="M514.7506,-124.0524C447.7176,-115.6787 346.7695,-102.204 259.5,-87 249.4136,-85.2428 238.6039,-83.1174 228.4479,-81.0114"/>
<polygon fill="#191970" stroke="#191970" points="514.4441,-127.5411 524.7995,-125.3012 515.3075,-120.5946 514.4441,-127.5411"/>
</g>
<!-- Node9 -->
<g id="node9" class="node">
<title>Node9</title>
<g id="a_node9"><a xlink:href="draw3d_8c.html" target="_top" xlink:title=" ">
<polygon fill="#ffffff" stroke="#000000" points="1432.5,-62 1432.5,-81 1552.5,-81 1552.5,-62 1432.5,-62"/>
<text text-anchor="middle" x="1492.5" y="-69" font-family="Helvetica,sans-Serif" font-size="10.00" fill="#000000">ee/draw/src/draw3d.c</text>
</a>
</g>
</g>
<!-- Node2&#45;&gt;Node9 -->
<g id="edge8" class="edge">
<title>Node2&#45;&gt;Node9</title>
<path fill="none" stroke="#191970" d="M664.2614,-130.4679C840.4912,-124.2415 1278.008,-107.2115 1423.5,-87 1433.9584,-85.5471 1445.177,-83.3212 1455.4647,-81.0055"/>
<polygon fill="#191970" stroke="#191970" points="663.916,-126.9778 654.0452,-130.8271 664.162,-133.9735 663.916,-126.9778"/>
</g>
<!-- Node10 -->
<g id="node10" class="node">
<title>Node10</title>
<g id="a_node10"><a xlink:href="draw__environment_8c.html" target="_top" xlink:title=" ">
<polygon fill="#ffffff" stroke="#000000" points="1570.5,-62 1570.5,-81 1746.5,-81 1746.5,-62 1570.5,-62"/>
<text text-anchor="middle" x="1658.5" y="-69" font-family="Helvetica,sans-Serif" font-size="10.00" fill="#000000">ee/draw/src/draw_environment.c</text>
</a>
</g>
</g>
<!-- Node2&#45;&gt;Node10 -->
<g id="edge9" class="edge">
<title>Node2&#45;&gt;Node10</title>
<path fill="none" stroke="#191970" d="M664.6606,-132.2849C828.179,-130.1062 1228.3128,-121.3971 1561.5,-87 1575.9192,-85.5114 1591.4569,-83.3025 1605.7807,-81.0158"/>
<polygon fill="#191970" stroke="#191970" points="664.1895,-128.7906 654.2354,-132.4192 664.2797,-135.79 664.1895,-128.7906"/>
</g>
<!-- Node11 -->
<g id="node11" class="node">
<title>Node11</title>
<g id="a_node11"><a xlink:href="font_8h.html" target="_top" xlink:title=" ">
<polygon fill="#ffffff" stroke="#000000" points="302,-62 302,-81 423,-81 423,-62 302,-62"/>
<text text-anchor="middle" x="362.5" y="-69" font-family="Helvetica,sans-Serif" font-size="10.00" fill="#000000">ee/font/include/font.h</text>
</a>
</g>
</g>
<!-- Node2&#45;&gt;Node11 -->
<g id="edge10" class="edge">
<title>Node2&#45;&gt;Node11</title>
<path fill="none" stroke="#191970" d="M544.3611,-120.7707C501.2542,-109.092 437.1803,-91.7328 397.7197,-81.0419"/>
<polygon fill="#191970" stroke="#191970" points="543.4639,-124.1538 554.0313,-123.3906 545.2945,-117.3974 543.4639,-124.1538"/>
</g>
<!-- Node12 -->
<g id="node12" class="node">
<title>Node12</title>
<g id="a_node12"><a xlink:href="font_2samples_2font_8c.html" target="_top" xlink:title=" ">
<polygon fill="#ffffff" stroke="#000000" points="188.5,-.5 188.5,-19.5 314.5,-19.5 314.5,-.5 188.5,-.5"/>
<text text-anchor="middle" x="251.5" y="-7.5" font-family="Helvetica,sans-Serif" font-size="10.00" fill="#000000">ee/font/samples/font.c</text>
</a>
</g>
</g>
<!-- Node2&#45;&gt;Node12 -->
<g id="edge14" class="edge">
<title>Node2&#45;&gt;Node12</title>
<path fill="none" stroke="#191970" d="M514.6938,-128.9889C438.6591,-123.6006 327.2571,-111.6871 292.5,-87 269.1634,-70.4247 257.9373,-36.3543 253.6597,-19.6559"/>
<polygon fill="#191970" stroke="#191970" points="514.4951,-132.4834 524.7111,-129.6757 514.974,-125.4998 514.4951,-132.4834"/>
</g>
<!-- Node13 -->
<g id="node13" class="node">
<title>Node13</title>
<g id="a_node13"><a xlink:href="fontx_8c.html" target="_top" xlink:title=" ">
<polygon fill="#ffffff" stroke="#000000" points="333,-.5 333,-19.5 438,-19.5 438,-.5 333,-.5"/>
<text text-anchor="middle" x="385.5" y="-7.5" font-family="Helvetica,sans-Serif" font-size="10.00" fill="#000000">ee/font/src/fontx.c</text>
</a>
</g>
</g>
<!-- Node2&#45;&gt;Node13 -->
<g id="edge15" class="edge">
<title>Node2&#45;&gt;Node13</title>
<path fill="none" stroke="#191970" d="M558.9795,-119.0496C540.7957,-110.4176 517.4475,-98.7672 497.5,-87 460.1044,-64.94 418.6056,-34.8129 398.2206,-19.6114"/>
<polygon fill="#191970" stroke="#191970" points="557.6941,-122.3126 568.2336,-123.3943 560.669,-115.9762 557.6941,-122.3126"/>
</g>
<!-- Node14 -->
<g id="node14" class="node">
<title>Node14</title>
<g id="a_node14"><a xlink:href="fsfont_8c.html" target="_top" xlink:title=" ">
<polygon fill="#ffffff" stroke="#000000" points="456.5,-.5 456.5,-19.5 564.5,-19.5 564.5,-.5 456.5,-.5"/>
<text text-anchor="middle" x="510.5" y="-7.5" font-family="Helvetica,sans-Serif" font-size="10.00" fill="#000000">ee/font/src/fsfont.c</text>
</a>
</g>
</g>
<!-- Node2&#45;&gt;Node14 -->
<g id="edge16" class="edge">
<title>Node2&#45;&gt;Node14</title>
<path fill="none" stroke="#191970" d="M548.3965,-119.4361C533.4193,-112.2753 518.0707,-101.8146 509.5,-87 497.1816,-65.7072 503.0875,-35.2445 507.384,-19.7935"/>
<polygon fill="#191970" stroke="#191970" points="547.0463,-122.6658 557.61,-123.4777 549.8583,-116.2554 547.0463,-122.6658"/>
</g>
<!-- Node15 -->
<g id="node15" class="node">
<title>Node15</title>
<g id="a_node15"><a xlink:href="samples_2graph_8c.html" target="_top" xlink:title=" ">
<polygon fill="#ffffff" stroke="#000000" points="518,-62 518,-81 661,-81 661,-62 518,-62"/>
<text text-anchor="middle" x="589.5" y="-69" font-family="Helvetica,sans-Serif" font-size="10.00" fill="#000000">ee/graph/samples/graph.c</text>
</a>
</g>
</g>
<!-- Node2&#45;&gt;Node15 -->
<g id="edge17" class="edge">
<title>Node2&#45;&gt;Node15</title>
<path fill="none" stroke="#191970" d="M589.5,-113.2462C589.5,-102.5519 589.5,-89.814 589.5,-81.2449"/>
<polygon fill="#191970" stroke="#191970" points="586.0001,-113.3906 589.5,-123.3906 593.0001,-113.3907 586.0001,-113.3906"/>
</g>
<!-- Node16 -->
<g id="node16" class="node">
<title>Node16</title>
<g id="a_node16"><a xlink:href="mpeg_8c.html" target="_top" xlink:title=" ">
<polygon fill="#ffffff" stroke="#000000" points="679,-62 679,-81 822,-81 822,-62 679,-62"/>
<text text-anchor="middle" x="750.5" y="-69" font-family="Helvetica,sans-Serif" font-size="10.00" fill="#000000">ee/mpeg/samples/mpeg.c</text>
</a>
</g>
</g>
<!-- Node2&#45;&gt;Node16 -->
<g id="edge18" class="edge">
<title>Node2&#45;&gt;Node16</title>
<path fill="none" stroke="#191970" d="M624.0578,-119.7993C654.5628,-108.1468 698.2989,-91.4402 725.5204,-81.0419"/>
<polygon fill="#191970" stroke="#191970" points="622.749,-116.5526 614.6563,-123.3906 625.2469,-123.0917 622.749,-116.5526"/>
</g>
<!-- Node11&#45;&gt;Node12 -->
<g id="edge11" class="edge">
<title>Node11&#45;&gt;Node12</title>
<path fill="none" stroke="#191970" d="M336.1759,-56.915C315.3107,-45.3546 286.7584,-29.535 268.722,-19.5419"/>
<polygon fill="#191970" stroke="#191970" points="334.7128,-60.1057 345.1563,-61.8906 338.1053,-53.9827 334.7128,-60.1057"/>
</g>
<!-- Node11&#45;&gt;Node13 -->
<g id="edge12" class="edge">
<title>Node11&#45;&gt;Node13</title>
<path fill="none" stroke="#191970" d="M369.636,-52.4189C373.6858,-41.5901 378.5834,-28.4944 381.8556,-19.7449"/>
<polygon fill="#191970" stroke="#191970" points="366.3185,-51.2982 366.0938,-61.8906 372.875,-53.7502 366.3185,-51.2982"/>
</g>
<!-- Node11&#45;&gt;Node14 -->
<g id="edge13" class="edge">
<title>Node11&#45;&gt;Node14</title>
<path fill="none" stroke="#191970" d="M394.9985,-57.9955C423.0044,-46.358 462.7306,-29.8501 487.5374,-19.5419"/>
<polygon fill="#191970" stroke="#191970" points="393.5164,-54.8212 385.625,-61.8906 396.2025,-61.2853 393.5164,-54.8212"/>
</g>
</g>
</svg>
