<?xml version="1.0" encoding="UTF-8" standalone="no"?>
<!DOCTYPE svg PUBLIC "-//W3C//DTD SVG 1.1//EN"
 "http://www.w3.org/Graphics/SVG/1.1/DTD/svg11.dtd">
<!-- Generated by graphviz version 2.40.1 (20161225.0304)
 -->
<!-- Title: ee/rpc/tcpips/samples/echo.c Pages: 1 -->
<svg width="532pt" height="207pt"
 viewBox="0.00 0.00 532.15 207.00" xmlns="http://www.w3.org/2000/svg" xmlns:xlink="http://www.w3.org/1999/xlink">
<g id="graph0" class="graph" transform="scale(1 1) rotate(0) translate(4 203)">
<title>ee/rpc/tcpips/samples/echo.c</title>
<polygon fill="#ffffff" stroke="transparent" points="-4,4 -4,-203 528.1471,-203 528.1471,4 -4,4"/>
<!-- Node1 -->
<g id="node1" class="node">
<title>Node1</title>
<g id="a_node1"><a xlink:title=" ">
<polygon fill="#bfbfbf" stroke="#000000" points="211.6471,-168.5 211.6471,-198.5 334.6471,-198.5 334.6471,-168.5 211.6471,-168.5"/>
<text text-anchor="start" x="219.6471" y="-186.5" font-family="Helvetica,sans-Serif" font-size="10.00" fill="#000000">ee/rpc/tcpips/samples</text>
<text text-anchor="middle" x="273.1471" y="-175.5" font-family="Helvetica,sans-Serif" font-size="10.00" fill="#000000">/echo.c</text>
</a>
</g>
</g>
<!-- Node2 -->
<g id="node2" class="node">
<title>Node2</title>
<g id="a_node2"><a xlink:href="tamtypes_8h.html" target="_top" xlink:title=" ">
<polygon fill="#ffffff" stroke="#000000" points="241.1471,-.5 241.1471,-19.5 313.1471,-19.5 313.1471,-.5 241.1471,-.5"/>
<text text-anchor="middle" x="277.1471" y="-7.5" font-family="Helvetica,sans-Serif" font-size="10.00" fill="#000000">tamtypes.h</text>
</a>
</g>
</g>
<!-- Node1&#45;&gt;Node2 -->
<g id="edge1" class="edge">
<title>Node1&#45;&gt;Node2</title>
<path fill="none" stroke="#191970" d="M211.5793,-176.113C117.0468,-162.3535 -46.9515,-127.4758 13.1471,-56 40.4514,-23.5268 162.8523,-13.9757 230.9873,-11.168"/>
<polygon fill="#191970" stroke="#191970" points="231.1712,-14.6636 241.0312,-10.7867 230.9056,-7.6687 231.1712,-14.6636"/>
</g>
<!-- Node3 -->
<g id="node3" class="node">
<title>Node3</title>
<g id="a_node3"><a xlink:href="kernel_8h.html" target="_top" xlink:title=" ">
<polygon fill="#ffffff" stroke="#000000" points="96.1471,-112.5 96.1471,-131.5 152.1471,-131.5 152.1471,-112.5 96.1471,-112.5"/>
<text text-anchor="middle" x="124.1471" y="-119.5" font-family="Helvetica,sans-Serif" font-size="10.00" fill="#000000">kernel.h</text>
</a>
</g>
</g>
<!-- Node1&#45;&gt;Node3 -->
<g id="edge2" class="edge">
<title>Node1&#45;&gt;Node3</title>
<path fill="none" stroke="#191970" d="M236.6976,-168.4554C212.2728,-158.374 180.389,-145.2139 156.7951,-135.4755"/>
<polygon fill="#191970" stroke="#191970" points="157.8158,-132.1104 147.2368,-131.5303 155.145,-138.5809 157.8158,-132.1104"/>
</g>
<!-- Node7 -->
<g id="node7" class="node">
<title>Node7</title>
<g id="a_node7"><a xlink:href="sifrpc_8h.html" target="_top" xlink:title=" ">
<polygon fill="#ffffff" stroke="#000000" points="170.6471,-112.5 170.6471,-131.5 223.6471,-131.5 223.6471,-112.5 170.6471,-112.5"/>
<text text-anchor="middle" x="197.1471" y="-119.5" font-family="Helvetica,sans-Serif" font-size="10.00" fill="#000000">sifrpc.h</text>
</a>
</g>
</g>
<!-- Node1&#45;&gt;Node7 -->
<g id="edge7" class="edge">
<title>Node1&#45;&gt;Node7</title>
<path fill="none" stroke="#191970" d="M254.3606,-168.2977C243.0418,-159.1384 228.6366,-147.4816 217.1125,-138.1562"/>
<polygon fill="#191970" stroke="#191970" points="219.291,-135.4167 209.3157,-131.8469 214.8877,-140.8583 219.291,-135.4167"/>
</g>
<!-- Node9 -->
<g id="node9" class="node">
<title>Node9</title>
<g id="a_node9"><a xlink:href="loadfile_8h.html" target="_top" xlink:title=" ">
<polygon fill="#ffffff" stroke="#000000" points="242.1471,-112.5 242.1471,-131.5 304.1471,-131.5 304.1471,-112.5 242.1471,-112.5"/>
<text text-anchor="middle" x="273.1471" y="-119.5" font-family="Helvetica,sans-Serif" font-size="10.00" fill="#000000">loadfile.h</text>
</a>
</g>
</g>
<!-- Node1&#45;&gt;Node9 -->
<g id="edge10" class="edge">
<title>Node1&#45;&gt;Node9</title>
<path fill="none" stroke="#191970" d="M273.1471,-168.2977C273.1471,-160.3834 273.1471,-150.6043 273.1471,-142.0759"/>
<polygon fill="#191970" stroke="#191970" points="276.6472,-141.8469 273.1471,-131.8469 269.6472,-141.847 276.6472,-141.8469"/>
</g>
<!-- Node10 -->
<g id="node10" class="node">
<title>Node10</title>
<g id="a_node10"><a xlink:title=" ">
<polygon fill="#ffffff" stroke="#bfbfbf" points="322.1471,-112.5 322.1471,-131.5 372.1471,-131.5 372.1471,-112.5 322.1471,-112.5"/>
<text text-anchor="middle" x="347.1471" y="-119.5" font-family="Helvetica,sans-Serif" font-size="10.00" fill="#000000">stdio.h</text>
</a>
</g>
</g>
<!-- Node1&#45;&gt;Node10 -->
<g id="edge12" class="edge">
<title>Node1&#45;&gt;Node10</title>
<path fill="none" stroke="#191970" d="M291.4393,-168.2977C302.3532,-159.2274 316.2142,-147.7077 327.3795,-138.4285"/>
<polygon fill="#191970" stroke="#191970" points="329.8451,-140.9303 335.2988,-131.8469 325.371,-135.5468 329.8451,-140.9303"/>
</g>
<!-- Node11 -->
<g id="node11" class="node">
<title>Node11</title>
<g id="a_node11"><a xlink:title=" ">
<polygon fill="#ffffff" stroke="#bfbfbf" points="390.6471,-112.5 390.6471,-131.5 443.6471,-131.5 443.6471,-112.5 390.6471,-112.5"/>
<text text-anchor="middle" x="417.1471" y="-119.5" font-family="Helvetica,sans-Serif" font-size="10.00" fill="#000000">string.h</text>
</a>
</g>
</g>
<!-- Node1&#45;&gt;Node11 -->
<g id="edge13" class="edge">
<title>Node1&#45;&gt;Node11</title>
<path fill="none" stroke="#191970" d="M308.3735,-168.4554C331.9787,-158.374 362.7926,-145.2139 385.5948,-135.4755"/>
<polygon fill="#191970" stroke="#191970" points="387.0105,-138.6767 394.8322,-131.5303 384.2611,-132.2393 387.0105,-138.6767"/>
</g>
<!-- Node12 -->
<g id="node12" class="node">
<title>Node12</title>
<g id="a_node12"><a xlink:href="ps2ips_8h.html" target="_top" xlink:title=" ">
<polygon fill="#ffffff" stroke="#000000" points="461.6471,-112.5 461.6471,-131.5 518.6471,-131.5 518.6471,-112.5 461.6471,-112.5"/>
<text text-anchor="middle" x="490.1471" y="-119.5" font-family="Helvetica,sans-Serif" font-size="10.00" fill="#000000">ps2ips.h</text>
</a>
</g>
</g>
<!-- Node1&#45;&gt;Node12 -->
<g id="edge14" class="edge">
<title>Node1&#45;&gt;Node12</title>
<path fill="none" stroke="#191970" d="M326.2313,-168.4554C365.0595,-157.4511 416.8306,-142.7786 451.7153,-132.892"/>
<polygon fill="#191970" stroke="#191970" points="452.8569,-136.2064 461.5236,-130.1122 450.9481,-129.4716 452.8569,-136.2064"/>
</g>
<!-- Node4 -->
<g id="node4" class="node">
<title>Node4</title>
<g id="a_node4"><a xlink:title=" ">
<polygon fill="#ffffff" stroke="#bfbfbf" points="22.1471,-56.5 22.1471,-75.5 78.1471,-75.5 78.1471,-56.5 22.1471,-56.5"/>
<text text-anchor="middle" x="50.1471" y="-63.5" font-family="Helvetica,sans-Serif" font-size="10.00" fill="#000000">stddef.h</text>
</a>
</g>
</g>
<!-- Node3&#45;&gt;Node4 -->
<g id="edge3" class="edge">
<title>Node3&#45;&gt;Node4</title>
<path fill="none" stroke="#191970" d="M111.2573,-112.2455C100.2218,-103.8943 84.1179,-91.7076 71.2118,-81.9408"/>
<polygon fill="#191970" stroke="#191970" points="72.9754,-78.8862 62.8892,-75.6427 68.7513,-84.4681 72.9754,-78.8862"/>
</g>
<!-- Node5 -->
<g id="node5" class="node">
<title>Node5</title>
<g id="a_node5"><a xlink:title=" ">
<polygon fill="#ffffff" stroke="#bfbfbf" points="96.1471,-56.5 96.1471,-75.5 152.1471,-75.5 152.1471,-56.5 96.1471,-56.5"/>
<text text-anchor="middle" x="124.1471" y="-63.5" font-family="Helvetica,sans-Serif" font-size="10.00" fill="#000000">stdarg.h</text>
</a>
</g>
</g>
<!-- Node3&#45;&gt;Node5 -->
<g id="edge4" class="edge">
<title>Node3&#45;&gt;Node5</title>
<path fill="none" stroke="#191970" d="M124.1471,-112.2455C124.1471,-104.9382 124.1471,-94.6944 124.1471,-85.7046"/>
<polygon fill="#191970" stroke="#191970" points="127.6472,-85.6426 124.1471,-75.6427 120.6472,-85.6427 127.6472,-85.6426"/>
</g>
<!-- Node6 -->
<g id="node6" class="node">
<title>Node6</title>
<g id="a_node6"><a xlink:href="sifdma_8h.html" target="_top" xlink:title=" ">
<polygon fill="#ffffff" stroke="#000000" points="170.6471,-56.5 170.6471,-75.5 229.6471,-75.5 229.6471,-56.5 170.6471,-56.5"/>
<text text-anchor="middle" x="200.1471" y="-63.5" font-family="Helvetica,sans-Serif" font-size="10.00" fill="#000000">sifdma.h</text>
</a>
</g>
</g>
<!-- Node3&#45;&gt;Node6 -->
<g id="edge5" class="edge">
<title>Node3&#45;&gt;Node6</title>
<path fill="none" stroke="#191970" d="M137.3853,-112.2455C148.8281,-103.814 165.5768,-91.4729 178.8946,-81.6598"/>
<polygon fill="#191970" stroke="#191970" points="181.0863,-84.3924 187.0606,-75.6427 176.9339,-78.757 181.0863,-84.3924"/>
</g>
<!-- Node6&#45;&gt;Node2 -->
<g id="edge6" class="edge">
<title>Node6&#45;&gt;Node2</title>
<path fill="none" stroke="#191970" d="M213.5595,-56.2455C225.1528,-47.814 242.1219,-35.4729 255.615,-25.6598"/>
<polygon fill="#191970" stroke="#191970" points="257.8597,-28.355 263.8885,-19.6427 253.7425,-22.6938 257.8597,-28.355"/>
</g>
<!-- Node8 -->
<g id="node8" class="node">
<title>Node8</title>
<g id="a_node8"><a xlink:href="sifcmd_8h.html" target="_top" xlink:title=" ">
<polygon fill="#ffffff" stroke="#000000" points="247.6471,-56.5 247.6471,-75.5 306.6471,-75.5 306.6471,-56.5 247.6471,-56.5"/>
<text text-anchor="middle" x="277.1471" y="-63.5" font-family="Helvetica,sans-Serif" font-size="10.00" fill="#000000">sifcmd.h</text>
</a>
</g>
</g>
<!-- Node7&#45;&gt;Node8 -->
<g id="edge8" class="edge">
<title>Node7&#45;&gt;Node8</title>
<path fill="none" stroke="#191970" d="M211.0821,-112.2455C223.2418,-103.7337 241.0936,-91.2375 255.1756,-81.3801"/>
<polygon fill="#191970" stroke="#191970" points="257.1867,-84.2447 263.3719,-75.6427 253.1724,-78.51 257.1867,-84.2447"/>
</g>
<!-- Node8&#45;&gt;Node2 -->
<g id="edge9" class="edge">
<title>Node8&#45;&gt;Node2</title>
<path fill="none" stroke="#191970" d="M277.1471,-56.2455C277.1471,-48.9382 277.1471,-38.6944 277.1471,-29.7046"/>
<polygon fill="#191970" stroke="#191970" points="280.6472,-29.6426 277.1471,-19.6427 273.6472,-29.6427 280.6472,-29.6426"/>
</g>
<!-- Node9&#45;&gt;Node2 -->
<g id="edge11" class="edge">
<title>Node9&#45;&gt;Node2</title>
<path fill="none" stroke="#191970" d="M286.1752,-112.3141C296.2264,-103.9649 309.3597,-90.922 315.1471,-76 321.9572,-58.4415 309.4251,-39.9899 296.9665,-27.0747"/>
<polygon fill="#191970" stroke="#191970" points="299.0309,-24.2049 289.3923,-19.8062 294.184,-29.2555 299.0309,-24.2049"/>
</g>
<!-- Node13 -->
<g id="node13" class="node">
<title>Node13</title>
<g id="a_node13"><a xlink:href="tcpip_8h.html" target="_top" xlink:title=" ">
<polygon fill="#ffffff" stroke="#000000" points="376.1471,-56.5 376.1471,-75.5 426.1471,-75.5 426.1471,-56.5 376.1471,-56.5"/>
<text text-anchor="middle" x="401.1471" y="-63.5" font-family="Helvetica,sans-Serif" font-size="10.00" fill="#000000">tcpip.h</text>
</a>
</g>
</g>
<!-- Node12&#45;&gt;Node13 -->
<g id="edge15" class="edge">
<title>Node12&#45;&gt;Node13</title>
<path fill="none" stroke="#191970" d="M474.6445,-112.2455C460.9892,-103.6534 440.8814,-91.0014 425.1482,-81.1018"/>
<polygon fill="#191970" stroke="#191970" points="426.8,-78.006 416.4721,-75.6427 423.072,-83.9307 426.8,-78.006"/>
</g>
<!-- Node14 -->
<g id="node14" class="node">
<title>Node14</title>
<g id="a_node14"><a xlink:title=" ">
<polygon fill="#ffffff" stroke="#bfbfbf" points="456.1471,-56.5 456.1471,-75.5 524.1471,-75.5 524.1471,-56.5 456.1471,-56.5"/>
<text text-anchor="middle" x="490.1471" y="-63.5" font-family="Helvetica,sans-Serif" font-size="10.00" fill="#000000">sys/time.h</text>
</a>
</g>
</g>
<!-- Node12&#45;&gt;Node14 -->
<g id="edge17" class="edge">
<title>Node12&#45;&gt;Node14</title>
<path fill="none" stroke="#191970" d="M490.1471,-112.2455C490.1471,-104.9382 490.1471,-94.6944 490.1471,-85.7046"/>
<polygon fill="#191970" stroke="#191970" points="493.6472,-85.6426 490.1471,-75.6427 486.6472,-85.6427 493.6472,-85.6426"/>
</g>
<!-- Node13&#45;&gt;Node2 -->
<g id="edge16" class="edge">
<title>Node13&#45;&gt;Node2</title>
<path fill="none" stroke="#191970" d="M379.8308,-56.3733C359.9255,-47.3838 330.0035,-33.8706 307.5871,-23.7471"/>
<polygon fill="#191970" stroke="#191970" points="308.7396,-20.4272 298.1853,-19.5011 305.8585,-26.8068 308.7396,-20.4272"/>
</g>
</g>
</svg>
