<?xml version="1.0" encoding="UTF-8" standalone="no"?>
<!DOCTYPE svg PUBLIC "-//W3C//DTD SVG 1.1//EN"
 "http://www.w3.org/Graphics/SVG/1.1/DTD/svg11.dtd">
<!-- Generated by graphviz version 2.40.1 (20161225.0304)
 -->
<!-- Title: ee/eedebug/include/ee_debug.h Pages: 1 -->
<svg width="209pt" height="151pt"
 viewBox="0.00 0.00 208.58 151.00" xmlns="http://www.w3.org/2000/svg" xmlns:xlink="http://www.w3.org/1999/xlink">
<g id="graph0" class="graph" transform="scale(1 1) rotate(0) translate(4 147)">
<title>ee/eedebug/include/ee_debug.h</title>
<polygon fill="#ffffff" stroke="transparent" points="-4,4 -4,-147 204.5806,-147 204.5806,4 -4,4"/>
<!-- Node1 -->
<g id="node1" class="node">
<title>Node1</title>
<g id="a_node1"><a xlink:title=" ">
<polygon fill="#bfbfbf" stroke="#000000" points="2.5806,-112.5 2.5806,-142.5 114.5806,-142.5 114.5806,-112.5 2.5806,-112.5"/>
<text text-anchor="start" x="10.5806" y="-130.5" font-family="Helvetica,sans-Serif" font-size="10.00" fill="#000000">ee/eedebug/include</text>
<text text-anchor="middle" x="58.5806" y="-119.5" font-family="Helvetica,sans-Serif" font-size="10.00" fill="#000000">/ee_debug.h</text>
</a>
</g>
</g>
<!-- Node2 -->
<g id="node2" class="node">
<title>Node2</title>
<g id="a_node2"><a xlink:href="tamtypes_8h.html" target="_top" xlink:title=" ">
<polygon fill="#ffffff" stroke="#000000" points="36.5806,-.5 36.5806,-19.5 108.5806,-19.5 108.5806,-.5 36.5806,-.5"/>
<text text-anchor="middle" x="72.5806" y="-7.5" font-family="Helvetica,sans-Serif" font-size="10.00" fill="#000000">tamtypes.h</text>
</a>
</g>
</g>
<!-- Node1&#45;&gt;Node2 -->
<g id="edge1" class="edge">
<title>Node1&#45;&gt;Node2</title>
<path fill="none" stroke="#191970" d="M33.544,-112.3501C14.1282,-98.5391 -7.7256,-77.1259 3.5806,-56 11.0322,-42.0767 24.7655,-31.6399 38.0296,-24.258"/>
<polygon fill="#191970" stroke="#191970" points="39.7532,-27.3075 47.0545,-19.6302 36.5591,-21.0787 39.7532,-27.3075"/>
</g>
<!-- Node3 -->
<g id="node3" class="node">
<title>Node3</title>
<g id="a_node3"><a xlink:href="ee__cop0__defs_8h.html" target="_top" xlink:title=" ">
<polygon fill="#ffffff" stroke="#000000" points="12.5806,-56.5 12.5806,-75.5 104.5806,-75.5 104.5806,-56.5 12.5806,-56.5"/>
<text text-anchor="middle" x="58.5806" y="-63.5" font-family="Helvetica,sans-Serif" font-size="10.00" fill="#000000">ee_cop0_defs.h</text>
</a>
</g>
</g>
<!-- Node1&#45;&gt;Node3 -->
<g id="edge2" class="edge">
<title>Node1&#45;&gt;Node3</title>
<path fill="none" stroke="#191970" d="M58.5806,-112.2977C58.5806,-104.3834 58.5806,-94.6043 58.5806,-86.0759"/>
<polygon fill="#191970" stroke="#191970" points="62.0807,-85.8469 58.5806,-75.8469 55.0807,-85.847 62.0807,-85.8469"/>
</g>
<!-- Node4 -->
<g id="node4" class="node">
<title>Node4</title>
<g id="a_node4"><a xlink:href="ps2__debug_8h.html" target="_top" xlink:title=" ">
<polygon fill="#ffffff" stroke="#000000" points="122.5806,-56.5 122.5806,-75.5 200.5806,-75.5 200.5806,-56.5 122.5806,-56.5"/>
<text text-anchor="middle" x="161.5806" y="-63.5" font-family="Helvetica,sans-Serif" font-size="10.00" fill="#000000">ps2_debug.h</text>
</a>
</g>
</g>
<!-- Node1&#45;&gt;Node4 -->
<g id="edge3" class="edge">
<title>Node1&#45;&gt;Node4</title>
<path fill="none" stroke="#191970" d="M83.7773,-112.4554C99.9078,-102.8241 120.7444,-90.3828 136.7943,-80.7996"/>
<polygon fill="#191970" stroke="#191970" points="138.8276,-83.662 145.6193,-75.5303 135.239,-77.6518 138.8276,-83.662"/>
</g>
<!-- Node4&#45;&gt;Node2 -->
<g id="edge4" class="edge">
<title>Node4&#45;&gt;Node2</title>
<path fill="none" stroke="#191970" d="M146.078,-56.2455C132.4227,-47.6534 112.3149,-35.0014 96.5817,-25.1018"/>
<polygon fill="#191970" stroke="#191970" points="98.2335,-22.006 87.9056,-19.6427 94.5055,-27.9307 98.2335,-22.006"/>
</g>
</g>
</svg>
