<?xml version="1.0" encoding="UTF-8" standalone="no"?>
<!DOCTYPE svg PUBLIC "-//W3C//DTD SVG 1.1//EN"
 "http://www.w3.org/Graphics/SVG/1.1/DTD/svg11.dtd">
<!-- Generated by graphviz version 2.40.1 (20161225.0304)
 -->
<!-- Title: ee/erl/include/erl.h Pages: 1 -->
<!--zoomable 95 -->
<svg id="main" version="1.1" xmlns="http://www.w3.org/2000/svg" xmlns:xlink="http://www.w3.org/1999/xlink" xml:space="preserve" onload="init(evt)">
<style type="text/css"><![CDATA[
.edge:hover path { stroke: red; }
.edge:hover polygon { stroke: red; fill: red; }
]]></style>
<script type="text/javascript"><![CDATA[
var edges = document.getElementsByTagName('g');
if (edges && edges.length) {
  for (var i=0;i<edges.length;i++) {
    if (edges[i].id.substr(0,4)=='edge') {
      edges[i].setAttribute('class','edge');
    }
  }
}
]]></script>
        <defs>
                <circle id="rim" cx="0" cy="0" r="7"/>
                <circle id="rim2" cx="0" cy="0" r="3.5"/>
                <g id="zoomPlus">
                        <use xlink:href="#rim" fill="#404040">
                                <set attributeName="fill" to="#808080" begin="zoomplus.mouseover" end="zoomplus.mouseout"/>
                        </use>
                        <path d="M-4,0h8M0,-4v8" fill="none" stroke="white" stroke-width="1.5" pointer-events="none"/>
                </g>
                <g id="zoomMin">
                        <use xlink:href="#rim" fill="#404040">
                                <set attributeName="fill" to="#808080" begin="zoomminus.mouseover" end="zoomminus.mouseout"/>
                        </use>
                        <path d="M-4,0h8" fill="none" stroke="white" stroke-width="1.5" pointer-events="none"/>
                </g>
                <g id="dirArrow">
                        <path fill="none" stroke="white" stroke-width="1.5" d="M0,-3.0v7 M-2.5,-0.5L0,-3.0L2.5,-0.5"/>
                </g>
               <g id="resetDef">
                       <use xlink:href="#rim2" fill="#404040">
                               <set attributeName="fill" to="#808080" begin="reset.mouseover" end="reset.mouseout"/>
                       </use>
               </g>
        </defs>

<script type="text/javascript">
var viewWidth = 5259;
var viewHeight = 95;
var sectionId = 'dynsection-1';
</script>
<script xlink:href="svgpan.js"/>
<svg id="graph" class="graph">
<g id="viewport">
<title>ee/erl/include/erl.h</title>
<polygon fill="#ffffff" stroke="transparent" points="-4,4 -4,-91 5255,-91 5255,4 -4,4"/>
<!-- Node1 -->
<g id="node1" class="node">
<title>Node1</title>
<g id="a_node1"><a xlink:title=" ">
<polygon fill="#bfbfbf" stroke="#000000" points="2719,-67.5 2719,-86.5 2826,-86.5 2826,-67.5 2719,-67.5"/>
<text text-anchor="middle" x="2772.5" y="-74.5" font-family="Helvetica,sans-Serif" font-size="10.00" fill="#000000">ee/erl/include/erl.h</text>
</a>
</g>
</g>
<!-- Node2 -->
<g id="node2" class="node">
<title>Node2</title>
<g id="a_node2"><a xlink:href="debug_2src_2erl-support_8c.html" target="_top" xlink:title=" ">
<polygon fill="#ffffff" stroke="#000000" points="0,-6 0,-25 143,-25 143,-6 0,-6"/>
<text text-anchor="middle" x="71.5" y="-13" font-family="Helvetica,sans-Serif" font-size="10.00" fill="#000000">ee/debug/src/erl&#45;support.c</text>
</a>
</g>
</g>
<!-- Node1&#45;&gt;Node2 -->
<g id="edge1" class="edge">
<title>Node1&#45;&gt;Node2</title>
<path fill="none" stroke="#191970" d="M2708.7851,-76.5457C2332.9128,-73.7771 412.6373,-58.3791 151.5,-31 138.9777,-29.6871 125.4931,-27.4137 113.2288,-25.0062"/>
<polygon fill="#191970" stroke="#191970" points="2708.91,-80.0466 2718.9354,-76.6201 2708.9614,-73.0468 2708.91,-80.0466"/>
</g>
<!-- Node3 -->
<g id="node3" class="node">
<title>Node3</title>
<g id="a_node3"><a xlink:href="dma_2src_2erl-support_8c.html" target="_top" xlink:title=" ">
<polygon fill="#ffffff" stroke="#000000" points="161,-6 161,-25 296,-25 296,-6 161,-6"/>
<text text-anchor="middle" x="228.5" y="-13" font-family="Helvetica,sans-Serif" font-size="10.00" fill="#000000">ee/dma/src/erl&#45;support.c</text>
</a>
</g>
</g>
<!-- Node1&#45;&gt;Node3 -->
<g id="edge2" class="edge">
<title>Node1&#45;&gt;Node3</title>
<path fill="none" stroke="#191970" d="M2708.7684,-76.5085C2346.0321,-73.6179 549.4026,-58.0267 304.5,-31 292.5875,-29.6854 279.7722,-27.4114 268.1216,-25.0041"/>
<polygon fill="#191970" stroke="#191970" points="2708.8017,-80.0087 2718.8292,-76.5883 2708.8573,-73.009 2708.8017,-80.0087"/>
</g>
<!-- Node4 -->
<g id="node4" class="node">
<title>Node4</title>
<g id="a_node4"><a xlink:href="draw_2src_2erl-support_8c.html" target="_top" xlink:title=" ">
<polygon fill="#ffffff" stroke="#000000" points="314,-6 314,-25 451,-25 451,-6 314,-6"/>
<text text-anchor="middle" x="382.5" y="-13" font-family="Helvetica,sans-Serif" font-size="10.00" fill="#000000">ee/draw/src/erl&#45;support.c</text>
</a>
</g>
</g>
<!-- Node1&#45;&gt;Node4 -->
<g id="edge3" class="edge">
<title>Node1&#45;&gt;Node4</title>
<path fill="none" stroke="#191970" d="M2708.6378,-76.4122C2359.405,-73.1064 688.1276,-56.0808 459.5,-31 447.5717,-29.6914 434.7455,-27.451 423.0481,-25.0739"/>
<polygon fill="#191970" stroke="#191970" points="2708.7901,-79.9137 2718.8227,-76.5082 2708.8562,-72.914 2708.7901,-79.9137"/>
</g>
<!-- Node5 -->
<g id="node5" class="node">
<title>Node5</title>
<g id="a_node5"><a xlink:href="eedebug_2src_2erl-support_8c.html" target="_top" xlink:title=" ">
<polygon fill="#ffffff" stroke="#000000" points="469,-.5 469,-30.5 576,-30.5 576,-.5 469,-.5"/>
<text text-anchor="start" x="477" y="-18.5" font-family="Helvetica,sans-Serif" font-size="10.00" fill="#000000">ee/eedebug/src/erl</text>
<text text-anchor="middle" x="522.5" y="-7.5" font-family="Helvetica,sans-Serif" font-size="10.00" fill="#000000">&#45;support.c</text>
</a>
</g>
</g>
<!-- Node1&#45;&gt;Node5 -->
<g id="edge4" class="edge">
<title>Node1&#45;&gt;Node5</title>
<path fill="none" stroke="#191970" d="M2708.8401,-76.5117C2371.4377,-73.8097 799.4593,-59.7593 584.5,-31 581.7507,-30.6322 578.9471,-30.1884 576.126,-29.6869"/>
<polygon fill="#191970" stroke="#191970" points="2708.8987,-80.0122 2718.9263,-76.592 2708.9546,-73.0124 2708.8987,-80.0122"/>
</g>
<!-- Node6 -->
<g id="node6" class="node">
<title>Node6</title>
<g id="a_node6"><a xlink:href="cpp-hello_8cc.html" target="_top" xlink:title=" ">
<polygon fill="#ffffff" stroke="#000000" points="594,-.5 594,-30.5 703,-30.5 703,-.5 594,-.5"/>
<text text-anchor="start" x="602" y="-18.5" font-family="Helvetica,sans-Serif" font-size="10.00" fill="#000000">ee/erl/samples/cpp</text>
<text text-anchor="middle" x="648.5" y="-7.5" font-family="Helvetica,sans-Serif" font-size="10.00" fill="#000000">&#45;hello/cpp&#45;hello.cc</text>
</a>
</g>
</g>
<!-- Node1&#45;&gt;Node6 -->
<g id="edge5" class="edge">
<title>Node1&#45;&gt;Node6</title>
<path fill="none" stroke="#191970" d="M2708.6865,-76.393C2383.0595,-73.186 914.1582,-57.358 712.5,-31 709.4393,-30.5999 706.3123,-30.1119 703.1671,-29.5588"/>
<polygon fill="#191970" stroke="#191970" points="2708.8529,-79.8947 2718.8868,-76.493 2708.9216,-72.8951 2708.8529,-79.8947"/>
</g>
<!-- Node7 -->
<g id="node7" class="node">
<title>Node7</title>
<g id="a_node7"><a xlink:href="hello_8c.html" target="_top" xlink:title=" ">
<polygon fill="#ffffff" stroke="#000000" points="721.5,-.5 721.5,-30.5 837.5,-30.5 837.5,-.5 721.5,-.5"/>
<text text-anchor="start" x="729.5" y="-18.5" font-family="Helvetica,sans-Serif" font-size="10.00" fill="#000000">ee/erl/samples/hello</text>
<text text-anchor="middle" x="779.5" y="-7.5" font-family="Helvetica,sans-Serif" font-size="10.00" fill="#000000">/hello.c</text>
</a>
</g>
</g>
<!-- Node1&#45;&gt;Node7 -->
<g id="edge6" class="edge">
<title>Node1&#45;&gt;Node7</title>
<path fill="none" stroke="#191970" d="M2708.3451,-76.2437C2395.1473,-72.4471 1034.2396,-54.7071 846.5,-31 843.6572,-30.641 840.7585,-30.2131 837.8395,-29.7324"/>
<polygon fill="#191970" stroke="#191970" points="2708.5667,-79.7465 2718.6082,-76.3677 2708.6513,-72.7471 2708.5667,-79.7465"/>
</g>
<!-- Node8 -->
<g id="node8" class="node">
<title>Node8</title>
<g id="a_node8"><a xlink:href="erl_8c.html" target="_top" xlink:title=" ">
<polygon fill="#ffffff" stroke="#000000" points="855.5,-6 855.5,-25 941.5,-25 941.5,-6 855.5,-6"/>
<text text-anchor="middle" x="898.5" y="-13" font-family="Helvetica,sans-Serif" font-size="10.00" fill="#000000">ee/erl/src/erl.c</text>
</a>
</g>
</g>
<!-- Node1&#45;&gt;Node8 -->
<g id="edge7" class="edge">
<title>Node1&#45;&gt;Node8</title>
<path fill="none" stroke="#191970" d="M2708.383,-76.386C2405.6446,-73.3513 1126.6372,-58.9673 950.5,-31 942.2197,-29.6852 933.4118,-27.4112 925.4439,-25.0039"/>
<polygon fill="#191970" stroke="#191970" points="2708.7026,-79.8893 2718.7371,-76.4892 2708.7725,-72.8896 2708.7026,-79.8893"/>
</g>
<!-- Node9 -->
<g id="node9" class="node">
<title>Node9</title>
<g id="a_node9"><a xlink:href="erl-loader_8c.html" target="_top" xlink:title=" ">
<polygon fill="#ffffff" stroke="#000000" points="959.5,-.5 959.5,-30.5 1071.5,-30.5 1071.5,-.5 959.5,-.5"/>
<text text-anchor="start" x="967.5" y="-18.5" font-family="Helvetica,sans-Serif" font-size="10.00" fill="#000000">ee/erl&#45;loader/src/erl</text>
<text text-anchor="middle" x="1015.5" y="-7.5" font-family="Helvetica,sans-Serif" font-size="10.00" fill="#000000">&#45;loader.c</text>
</a>
</g>
</g>
<!-- Node1&#45;&gt;Node9 -->
<g id="edge8" class="edge">
<title>Node1&#45;&gt;Node9</title>
<path fill="none" stroke="#191970" d="M2708.3338,-76.0419C2419.1268,-71.617 1243.8254,-52.4582 1080.5,-31 1077.6244,-30.6222 1074.6906,-30.1704 1071.7373,-29.6626"/>
<polygon fill="#191970" stroke="#191970" points="2708.594,-79.5461 2718.6462,-76.1991 2708.7008,-72.547 2708.594,-79.5461"/>
</g>
<!-- Node10 -->
<g id="node10" class="node">
<title>Node10</title>
<g id="a_node10"><a xlink:href="font_2src_2erl-support_8c.html" target="_top" xlink:title=" ">
<polygon fill="#ffffff" stroke="#000000" points="1090,-6 1090,-25 1223,-25 1223,-6 1090,-6"/>
<text text-anchor="middle" x="1156.5" y="-13" font-family="Helvetica,sans-Serif" font-size="10.00" fill="#000000">ee/font/src/erl&#45;support.c</text>
</a>
</g>
</g>
<!-- Node1&#45;&gt;Node10 -->
<g id="edge9" class="edge">
<title>Node1&#45;&gt;Node10</title>
<path fill="none" stroke="#191970" d="M2708.5348,-76.5743C2455.5594,-74.661 1524.5032,-65.3851 1231.5,-31 1219.8793,-29.6363 1207.3855,-27.3785 1195.992,-25.0026"/>
<polygon fill="#191970" stroke="#191970" points="2708.6344,-80.0751 2718.6603,-76.6497 2708.6866,-73.0753 2708.6344,-80.0751"/>
</g>
<!-- Node11 -->
<g id="node11" class="node">
<title>Node11</title>
<g id="a_node11"><a xlink:href="graph_2src_2erl-support_8c.html" target="_top" xlink:title=" ">
<polygon fill="#ffffff" stroke="#000000" points="1241,-6 1241,-25 1382,-25 1382,-6 1241,-6"/>
<text text-anchor="middle" x="1311.5" y="-13" font-family="Helvetica,sans-Serif" font-size="10.00" fill="#000000">ee/graph/src/erl&#45;support.c</text>
</a>
</g>
</g>
<!-- Node1&#45;&gt;Node11 -->
<g id="edge10" class="edge">
<title>Node1&#45;&gt;Node11</title>
<path fill="none" stroke="#191970" d="M2708.6542,-76.2141C2472.9268,-73.1036 1651.783,-60.3633 1391.5,-31 1379.2695,-29.6202 1366.1125,-27.3881 1354.0711,-25.0424"/>
<polygon fill="#191970" stroke="#191970" points="2708.7304,-79.7153 2718.7754,-76.3464 2708.822,-72.7159 2708.7304,-79.7153"/>
</g>
<!-- Node12 -->
<g id="node12" class="node">
<title>Node12</title>
<g id="a_node12"><a xlink:href="input_2src_2erl-support_8c.html" target="_top" xlink:title=" ">
<polygon fill="#ffffff" stroke="#000000" points="1400.5,-6 1400.5,-25 1538.5,-25 1538.5,-6 1400.5,-6"/>
<text text-anchor="middle" x="1469.5" y="-13" font-family="Helvetica,sans-Serif" font-size="10.00" fill="#000000">ee/input/src/erl&#45;support.c</text>
</a>
</g>
</g>
<!-- Node1&#45;&gt;Node12 -->
<g id="edge11" class="edge">
<title>Node1&#45;&gt;Node12</title>
<path fill="none" stroke="#191970" d="M2708.6845,-75.9416C2490.5837,-72.1149 1775.7263,-57.7898 1547.5,-31 1535.5703,-29.5997 1522.7405,-27.361 1511.0003,-25.0155"/>
<polygon fill="#191970" stroke="#191970" points="2708.6314,-79.4411 2718.6909,-76.1159 2708.7534,-72.4422 2708.6314,-79.4411"/>
</g>
<!-- Node13 -->
<g id="node13" class="node">
<title>Node13</title>
<g id="a_node13"><a xlink:href="iopreboot_2src_2erl-support_8c.html" target="_top" xlink:title=" ">
<polygon fill="#ffffff" stroke="#000000" points="1557,-.5 1557,-30.5 1668,-30.5 1668,-.5 1557,-.5"/>
<text text-anchor="start" x="1565" y="-18.5" font-family="Helvetica,sans-Serif" font-size="10.00" fill="#000000">ee/iopreboot/src/erl</text>
<text text-anchor="middle" x="1612.5" y="-7.5" font-family="Helvetica,sans-Serif" font-size="10.00" fill="#000000">&#45;support.c</text>
</a>
</g>
</g>
<!-- Node1&#45;&gt;Node13 -->
<g id="edge12" class="edge">
<title>Node1&#45;&gt;Node13</title>
<path fill="none" stroke="#191970" d="M2708.7226,-75.9303C2506.1231,-72.2788 1878.7182,-58.9534 1677.5,-31 1674.3975,-30.569 1671.2264,-30.0565 1668.0356,-29.4845"/>
<polygon fill="#191970" stroke="#191970" points="2708.8397,-79.4329 2718.9006,-76.112 2708.9647,-72.434 2708.8397,-79.4329"/>
</g>
<!-- Node14 -->
<g id="node14" class="node">
<title>Node14</title>
<g id="a_node14"><a xlink:href="kernel_2src_2erl-support_8c.html" target="_top" xlink:title=" ">
<polygon fill="#ffffff" stroke="#000000" points="1686.5,-6 1686.5,-25 1830.5,-25 1830.5,-6 1686.5,-6"/>
<text text-anchor="middle" x="1758.5" y="-13" font-family="Helvetica,sans-Serif" font-size="10.00" fill="#000000">ee/kernel/src/erl&#45;support.c</text>
</a>
</g>
</g>
<!-- Node1&#45;&gt;Node14 -->
<g id="edge13" class="edge">
<title>Node1&#45;&gt;Node14</title>
<path fill="none" stroke="#191970" d="M2708.4982,-75.0123C2526.5049,-69.1744 2008.319,-51.2136 1839.5,-31 1827.4163,-29.5532 1814.4271,-27.3583 1802.4659,-25.0717"/>
<polygon fill="#191970" stroke="#191970" points="2708.6054,-78.5174 2718.712,-75.3385 2708.8289,-71.521 2708.6054,-78.5174"/>
</g>
<!-- Node15 -->
<g id="node15" class="node">
<title>Node15</title>
<g id="a_node15"><a xlink:href="libgs_2src_2erl-support_8c.html" target="_top" xlink:title=" ">
<polygon fill="#ffffff" stroke="#000000" points="1849,-6 1849,-25 1986,-25 1986,-6 1849,-6"/>
<text text-anchor="middle" x="1917.5" y="-13" font-family="Helvetica,sans-Serif" font-size="10.00" fill="#000000">ee/libgs/src/erl&#45;support.c</text>
</a>
</g>
</g>
<!-- Node1&#45;&gt;Node15 -->
<g id="edge14" class="edge">
<title>Node1&#45;&gt;Node15</title>
<path fill="none" stroke="#191970" d="M2708.9432,-76.2412C2575.8564,-73.9942 2258.3419,-65.1856 1994.5,-31 1983.0053,-29.5107 1970.655,-27.3015 1959.2844,-25.0148"/>
<polygon fill="#191970" stroke="#191970" points="2708.9095,-79.7411 2718.965,-76.4038 2709.0231,-72.742 2708.9095,-79.7411"/>
</g>
<!-- Node16 -->
<g id="node16" class="node">
<title>Node16</title>
<g id="a_node16"><a xlink:href="libvux_2src_2erl-support_8c.html" target="_top" xlink:title=" ">
<polygon fill="#ffffff" stroke="#000000" points="2004,-6 2004,-25 2147,-25 2147,-6 2004,-6"/>
<text text-anchor="middle" x="2075.5" y="-13" font-family="Helvetica,sans-Serif" font-size="10.00" fill="#000000">ee/libvux/src/erl&#45;support.c</text>
</a>
</g>
</g>
<!-- Node1&#45;&gt;Node16 -->
<g id="edge15" class="edge">
<title>Node1&#45;&gt;Node16</title>
<path fill="none" stroke="#191970" d="M2708.492,-74.6963C2596.1428,-70.1033 2356.3115,-57.8456 2155.5,-31 2143.8614,-29.4441 2131.3603,-27.2678 2119.7793,-25.0369"/>
<polygon fill="#191970" stroke="#191970" points="2708.5038,-78.1995 2718.6364,-75.1043 2708.7851,-71.2052 2708.5038,-78.1995"/>
</g>
<!-- Node17 -->
<g id="node17" class="node">
<title>Node17</title>
<g id="a_node17"><a xlink:href="math3d_2src_2erl-support_8c.html" target="_top" xlink:title=" ">
<polygon fill="#ffffff" stroke="#000000" points="2165,-6 2165,-25 2316,-25 2316,-6 2165,-6"/>
<text text-anchor="middle" x="2240.5" y="-13" font-family="Helvetica,sans-Serif" font-size="10.00" fill="#000000">ee/math3d/src/erl&#45;support.c</text>
</a>
</g>
</g>
<!-- Node1&#45;&gt;Node17 -->
<g id="edge16" class="edge">
<title>Node1&#45;&gt;Node17</title>
<path fill="none" stroke="#191970" d="M2708.9023,-72.0851C2621.8793,-64.992 2460.9254,-50.5588 2324.5,-31 2312.7564,-29.3164 2300.1495,-27.1713 2288.3656,-25.0177"/>
<polygon fill="#191970" stroke="#191970" points="2708.6354,-75.5749 2718.8852,-72.893 2709.2001,-68.5977 2708.6354,-75.5749"/>
</g>
<!-- Node18 -->
<g id="node18" class="node">
<title>Node18</title>
<g id="a_node18"><a xlink:href="mpeg_2src_2erl-support_8c.html" target="_top" xlink:title=" ">
<polygon fill="#ffffff" stroke="#000000" points="2334,-6 2334,-25 2475,-25 2475,-6 2334,-6"/>
<text text-anchor="middle" x="2404.5" y="-13" font-family="Helvetica,sans-Serif" font-size="10.00" fill="#000000">ee/mpeg/src/erl&#45;support.c</text>
</a>
</g>
</g>
<!-- Node1&#45;&gt;Node18 -->
<g id="edge17" class="edge">
<title>Node1&#45;&gt;Node18</title>
<path fill="none" stroke="#191970" d="M2708.6518,-67.5103C2650.0181,-58.6358 2560.7718,-44.7256 2483.5,-31 2473.179,-29.1667 2462.1248,-27.0772 2451.6529,-25.039"/>
<polygon fill="#191970" stroke="#191970" points="2708.4624,-71.0212 2718.8729,-69.0532 2709.5073,-64.0997 2708.4624,-71.0212"/>
</g>
<!-- Node19 -->
<g id="node19" class="node">
<title>Node19</title>
<g id="a_node19"><a xlink:href="network_2netman_2src_2erl-support_8c.html" target="_top" xlink:title=" ">
<polygon fill="#ffffff" stroke="#000000" points="2493,-.5 2493,-30.5 2622,-30.5 2622,-.5 2493,-.5"/>
<text text-anchor="start" x="2501" y="-18.5" font-family="Helvetica,sans-Serif" font-size="10.00" fill="#000000">ee/network/netman/src</text>
<text text-anchor="middle" x="2557.5" y="-7.5" font-family="Helvetica,sans-Serif" font-size="10.00" fill="#000000">/erl&#45;support.c</text>
</a>
</g>
</g>
<!-- Node1&#45;&gt;Node19 -->
<g id="edge18" class="edge">
<title>Node1&#45;&gt;Node19</title>
<path fill="none" stroke="#191970" d="M2729.1593,-64.6025C2694.8022,-54.7748 2646.6571,-41.0031 2610.0949,-30.5446"/>
<polygon fill="#191970" stroke="#191970" points="2728.3293,-68.0054 2738.9063,-67.3906 2730.2544,-61.2753 2728.3293,-68.0054"/>
</g>
<!-- Node20 -->
<g id="node20" class="node">
<title>Node20</title>
<g id="a_node20"><a xlink:href="network_2tcpip_2src_2erl-support_8c.html" target="_top" xlink:title=" ">
<polygon fill="#ffffff" stroke="#000000" points="2640.5,-.5 2640.5,-30.5 2756.5,-30.5 2756.5,-.5 2640.5,-.5"/>
<text text-anchor="start" x="2648.5" y="-18.5" font-family="Helvetica,sans-Serif" font-size="10.00" fill="#000000">ee/network/tcpip/src</text>
<text text-anchor="middle" x="2698.5" y="-7.5" font-family="Helvetica,sans-Serif" font-size="10.00" fill="#000000">/erl&#45;support.c</text>
</a>
</g>
</g>
<!-- Node1&#45;&gt;Node20 -->
<g id="edge19" class="edge">
<title>Node1&#45;&gt;Node20</title>
<path fill="none" stroke="#191970" d="M2752.9636,-60.7637C2741.6943,-51.398 2727.6204,-39.7014 2716.6024,-30.5446"/>
<polygon fill="#191970" stroke="#191970" points="2751.0097,-63.6907 2760.9375,-67.3906 2755.4838,-58.3072 2751.0097,-63.6907"/>
</g>
<!-- Node21 -->
<g id="node21" class="node">
<title>Node21</title>
<g id="a_node21"><a xlink:href="packet_2src_2erl-support_8c.html" target="_top" xlink:title=" ">
<polygon fill="#ffffff" stroke="#000000" points="2774.5,-6 2774.5,-25 2920.5,-25 2920.5,-6 2774.5,-6"/>
<text text-anchor="middle" x="2847.5" y="-13" font-family="Helvetica,sans-Serif" font-size="10.00" fill="#000000">ee/packet/src/erl&#45;support.c</text>
</a>
</g>
</g>
<!-- Node1&#45;&gt;Node21 -->
<g id="edge20" class="edge">
<title>Node1&#45;&gt;Node21</title>
<path fill="none" stroke="#191970" d="M2792.1717,-60.8692C2805.9663,-49.5576 2823.9558,-34.8062 2835.616,-25.2449"/>
<polygon fill="#191970" stroke="#191970" points="2789.7322,-58.3433 2784.2188,-67.3906 2794.1707,-63.7562 2789.7322,-58.3433"/>
</g>
<!-- Node22 -->
<g id="node22" class="node">
<title>Node22</title>
<g id="a_node22"><a xlink:href="packet2_2src_2erl-support_8c.html" target="_top" xlink:title=" ">
<polygon fill="#ffffff" stroke="#000000" points="2938.5,-.5 2938.5,-30.5 3042.5,-30.5 3042.5,-.5 2938.5,-.5"/>
<text text-anchor="start" x="2946.5" y="-18.5" font-family="Helvetica,sans-Serif" font-size="10.00" fill="#000000">ee/packet2/src/erl</text>
<text text-anchor="middle" x="2990.5" y="-7.5" font-family="Helvetica,sans-Serif" font-size="10.00" fill="#000000">&#45;support.c</text>
</a>
</g>
</g>
<!-- Node1&#45;&gt;Node22 -->
<g id="edge21" class="edge">
<title>Node1&#45;&gt;Node22</title>
<path fill="none" stroke="#191970" d="M2816.5515,-64.5726C2851.7745,-54.6359 2901.2401,-40.6811 2938.4221,-30.1917"/>
<polygon fill="#191970" stroke="#191970" points="2815.2365,-61.3069 2806.5625,-67.3906 2817.1372,-68.044 2815.2365,-61.3069"/>
</g>
<!-- Node23 -->
<g id="node23" class="node">
<title>Node23</title>
<g id="a_node23"><a xlink:href="rpc_2ahx_2src_2erl-support_8c.html" target="_top" xlink:title=" ">
<polygon fill="#ffffff" stroke="#000000" points="3061,-.5 3061,-30.5 3162,-30.5 3162,-.5 3061,-.5"/>
<text text-anchor="start" x="3069" y="-18.5" font-family="Helvetica,sans-Serif" font-size="10.00" fill="#000000">ee/rpc/ahx/src/erl</text>
<text text-anchor="middle" x="3111.5" y="-7.5" font-family="Helvetica,sans-Serif" font-size="10.00" fill="#000000">&#45;support.c</text>
</a>
</g>
</g>
<!-- Node1&#45;&gt;Node23 -->
<g id="edge22" class="edge">
<title>Node1&#45;&gt;Node23</title>
<path fill="none" stroke="#191970" d="M2836.1568,-68.1604C2892.9032,-59.8874 2978.0951,-46.5004 3051.5,-31 3054.5527,-30.3554 3057.6837,-29.6579 3060.8361,-28.9278"/>
<polygon fill="#191970" stroke="#191970" points="2835.6469,-64.6976 2826.2517,-69.5946 2836.6501,-71.6253 2835.6469,-64.6976"/>
</g>
<!-- Node24 -->
<g id="node24" class="node">
<title>Node24</title>
<g id="a_node24"><a xlink:href="rpc_2audsrv_2src_2erl-support_8c.html" target="_top" xlink:title=" ">
<polygon fill="#ffffff" stroke="#000000" points="3180.5,-.5 3180.5,-30.5 3296.5,-30.5 3296.5,-.5 3180.5,-.5"/>
<text text-anchor="start" x="3188.5" y="-18.5" font-family="Helvetica,sans-Serif" font-size="10.00" fill="#000000">ee/rpc/audsrv/src/erl</text>
<text text-anchor="middle" x="3238.5" y="-7.5" font-family="Helvetica,sans-Serif" font-size="10.00" fill="#000000">&#45;support.c</text>
</a>
</g>
</g>
<!-- Node1&#45;&gt;Node24 -->
<g id="edge23" class="edge">
<title>Node1&#45;&gt;Node24</title>
<path fill="none" stroke="#191970" d="M2836.2959,-71.8754C2915.3353,-65.0145 3053.955,-51.306 3171.5,-31 3174.4412,-30.4919 3177.447,-29.9352 3180.4765,-29.3443"/>
<polygon fill="#191970" stroke="#191970" points="2835.6812,-68.4152 2826.0173,-72.7581 2836.2802,-75.3895 2835.6812,-68.4152"/>
</g>
<!-- Node25 -->
<g id="node25" class="node">
<title>Node25</title>
<g id="a_node25"><a xlink:href="rpc_2camera_2src_2erl-support_8c.html" target="_top" xlink:title=" ">
<polygon fill="#ffffff" stroke="#000000" points="3315,-.5 3315,-30.5 3434,-30.5 3434,-.5 3315,-.5"/>
<text text-anchor="start" x="3323" y="-18.5" font-family="Helvetica,sans-Serif" font-size="10.00" fill="#000000">ee/rpc/camera/src/erl</text>
<text text-anchor="middle" x="3374.5" y="-7.5" font-family="Helvetica,sans-Serif" font-size="10.00" fill="#000000">&#45;support.c</text>
</a>
</g>
</g>
<!-- Node1&#45;&gt;Node25 -->
<g id="edge24" class="edge">
<title>Node1&#45;&gt;Node25</title>
<path fill="none" stroke="#191970" d="M2836.3939,-74.2739C2936.7629,-69.3657 3137.2886,-57.0304 3305.5,-31 3308.5333,-30.5306 3311.6322,-30.0051 3314.755,-29.4388"/>
<polygon fill="#191970" stroke="#191970" points="2835.9407,-70.7916 2826.1201,-74.7674 2836.2766,-77.7835 2835.9407,-70.7916"/>
</g>
<!-- Node26 -->
<g id="node26" class="node">
<title>Node26</title>
<g id="a_node26"><a xlink:href="rpc_2cdvd_2src_2erl-support_8c.html" target="_top" xlink:title=" ">
<polygon fill="#ffffff" stroke="#000000" points="3452.5,-.5 3452.5,-30.5 3558.5,-30.5 3558.5,-.5 3452.5,-.5"/>
<text text-anchor="start" x="3460.5" y="-18.5" font-family="Helvetica,sans-Serif" font-size="10.00" fill="#000000">ee/rpc/cdvd/src/erl</text>
<text text-anchor="middle" x="3505.5" y="-7.5" font-family="Helvetica,sans-Serif" font-size="10.00" fill="#000000">&#45;support.c</text>
</a>
</g>
</g>
<!-- Node1&#45;&gt;Node26 -->
<g id="edge25" class="edge">
<title>Node1&#45;&gt;Node26</title>
<path fill="none" stroke="#191970" d="M2836.2121,-74.0713C2980.2922,-67.2145 3327.6294,-49.3085 3443.5,-31 3446.3494,-30.5498 3449.2595,-30.0311 3452.1887,-29.4626"/>
<polygon fill="#191970" stroke="#191970" points="2836.0187,-70.5765 2826.1956,-74.5458 2836.35,-77.5686 2836.0187,-70.5765"/>
</g>
<!-- Node27 -->
<g id="node27" class="node">
<title>Node27</title>
<g id="a_node27"><a xlink:href="rpc_2filexio_2src_2erl-support_8c.html" target="_top" xlink:title=" ">
<polygon fill="#ffffff" stroke="#000000" points="3577,-.5 3577,-30.5 3674,-30.5 3674,-.5 3577,-.5"/>
<text text-anchor="start" x="3585" y="-18.5" font-family="Helvetica,sans-Serif" font-size="10.00" fill="#000000">ee/rpc/filexio/src</text>
<text text-anchor="middle" x="3625.5" y="-7.5" font-family="Helvetica,sans-Serif" font-size="10.00" fill="#000000">/erl&#45;support.c</text>
</a>
</g>
</g>
<!-- Node1&#45;&gt;Node27 -->
<g id="edge26" class="edge">
<title>Node1&#45;&gt;Node27</title>
<path fill="none" stroke="#191970" d="M2836.4676,-74.9782C2999.4224,-69.5583 3427.1733,-53.5693 3567.5,-31 3570.5872,-30.5035 3573.7473,-29.9105 3576.9209,-29.2504"/>
<polygon fill="#191970" stroke="#191970" points="2836.0018,-71.4916 2826.1228,-75.3199 2836.2329,-78.4878 2836.0018,-71.4916"/>
</g>
<!-- Node28 -->
<g id="node28" class="node">
<title>Node28</title>
<g id="a_node28"><a xlink:href="rpc_2hdd_2src_2erl-support_8c.html" target="_top" xlink:title=" ">
<polygon fill="#ffffff" stroke="#000000" points="3692,-.5 3692,-30.5 3793,-30.5 3793,-.5 3692,-.5"/>
<text text-anchor="start" x="3700" y="-18.5" font-family="Helvetica,sans-Serif" font-size="10.00" fill="#000000">ee/rpc/hdd/src/erl</text>
<text text-anchor="middle" x="3742.5" y="-7.5" font-family="Helvetica,sans-Serif" font-size="10.00" fill="#000000">&#45;support.c</text>
</a>
</g>
</g>
<!-- Node1&#45;&gt;Node28 -->
<g id="edge27" class="edge">
<title>Node1&#45;&gt;Node28</title>
<path fill="none" stroke="#191970" d="M2836.3221,-75.4916C3015.3405,-70.9879 3519.8149,-56.3549 3683.5,-31 3686.2211,-30.5785 3688.9981,-30.0827 3691.7915,-29.5321"/>
<polygon fill="#191970" stroke="#191970" points="2836.1788,-71.994 2826.2692,-75.7424 2836.3534,-78.9918 2836.1788,-71.994"/>
</g>
<!-- Node29 -->
<g id="node29" class="node">
<title>Node29</title>
<g id="a_node29"><a xlink:href="rpc_2keyboard_2src_2erl-support_8c.html" target="_top" xlink:title=" ">
<polygon fill="#ffffff" stroke="#000000" points="3811,-.5 3811,-30.5 3924,-30.5 3924,-.5 3811,-.5"/>
<text text-anchor="start" x="3819" y="-18.5" font-family="Helvetica,sans-Serif" font-size="10.00" fill="#000000">ee/rpc/keyboard/src</text>
<text text-anchor="middle" x="3867.5" y="-7.5" font-family="Helvetica,sans-Serif" font-size="10.00" fill="#000000">/erl&#45;support.c</text>
</a>
</g>
</g>
<!-- Node1&#45;&gt;Node29 -->
<g id="edge28" class="edge">
<title>Node1&#45;&gt;Node29</title>
<path fill="none" stroke="#191970" d="M2836.1112,-75.7381C3030.4276,-71.6337 3614.4219,-57.3816 3802.5,-31 3805.2573,-30.6132 3808.0689,-30.1628 3810.9003,-29.6639"/>
<polygon fill="#191970" stroke="#191970" points="2835.9839,-72.2399 2826.0595,-75.9486 2836.1306,-79.2383 2835.9839,-72.2399"/>
</g>
<!-- Node30 -->
<g id="node30" class="node">
<title>Node30</title>
<g id="a_node30"><a xlink:href="rpc_2memorycard_2src_2erl-support_8c.html" target="_top" xlink:title=" ">
<polygon fill="#ffffff" stroke="#000000" points="3942,-.5 3942,-30.5 4071,-30.5 4071,-.5 3942,-.5"/>
<text text-anchor="start" x="3950" y="-18.5" font-family="Helvetica,sans-Serif" font-size="10.00" fill="#000000">ee/rpc/memorycard/src</text>
<text text-anchor="middle" x="4006.5" y="-7.5" font-family="Helvetica,sans-Serif" font-size="10.00" fill="#000000">/erl&#45;support.c</text>
</a>
</g>
</g>
<!-- Node1&#45;&gt;Node30 -->
<g id="edge29" class="edge">
<title>Node1&#45;&gt;Node30</title>
<path fill="none" stroke="#191970" d="M2836.4779,-75.8954C3047.2463,-72.0318 3718.5769,-57.8776 3933.5,-31 3936.1998,-30.6624 3938.9478,-30.2758 3941.7181,-29.8507"/>
<polygon fill="#191970" stroke="#191970" points="2836.1363,-72.4009 2826.2016,-76.0823 2836.2636,-79.3998 2836.1363,-72.4009"/>
</g>
<!-- Node31 -->
<g id="node31" class="node">
<title>Node31</title>
<g id="a_node31"><a xlink:href="rpc_2mouse_2src_2erl-support_8c.html" target="_top" xlink:title=" ">
<polygon fill="#ffffff" stroke="#000000" points="4089.5,-.5 4089.5,-30.5 4205.5,-30.5 4205.5,-.5 4089.5,-.5"/>
<text text-anchor="start" x="4097.5" y="-18.5" font-family="Helvetica,sans-Serif" font-size="10.00" fill="#000000">ee/rpc/mouse/src/erl</text>
<text text-anchor="middle" x="4147.5" y="-7.5" font-family="Helvetica,sans-Serif" font-size="10.00" fill="#000000">&#45;support.c</text>
</a>
</g>
</g>
<!-- Node1&#45;&gt;Node31 -->
<g id="edge30" class="edge">
<title>Node1&#45;&gt;Node31</title>
<path fill="none" stroke="#191970" d="M2836.403,-76.3787C3064.177,-73.9106 3835.7611,-63.3074 4080.5,-31 4083.3408,-30.625 4086.2377,-30.1841 4089.1554,-29.6929"/>
<polygon fill="#191970" stroke="#191970" points="2836.252,-72.8801 2826.29,-76.4868 2836.3269,-79.8797 2836.252,-72.8801"/>
</g>
<!-- Node32 -->
<g id="node32" class="node">
<title>Node32</title>
<g id="a_node32"><a xlink:href="rpc_2multitap_2src_2erl-support_8c.html" target="_top" xlink:title=" ">
<polygon fill="#ffffff" stroke="#000000" points="4223.5,-.5 4223.5,-30.5 4331.5,-30.5 4331.5,-.5 4223.5,-.5"/>
<text text-anchor="start" x="4231.5" y="-18.5" font-family="Helvetica,sans-Serif" font-size="10.00" fill="#000000">ee/rpc/multitap/src</text>
<text text-anchor="middle" x="4277.5" y="-7.5" font-family="Helvetica,sans-Serif" font-size="10.00" fill="#000000">/erl&#45;support.c</text>
</a>
</g>
</g>
<!-- Node1&#45;&gt;Node32 -->
<g id="edge31" class="edge">
<title>Node1&#45;&gt;Node32</title>
<path fill="none" stroke="#191970" d="M2836.3795,-76.739C3078.8818,-75.4721 3942.5034,-68.3778 4214.5,-31 4217.4013,-30.6013 4220.3631,-30.1237 4223.3432,-29.5874"/>
<polygon fill="#191970" stroke="#191970" points="2836.3,-73.2392 2826.318,-76.79 2836.3356,-80.2391 2836.3,-73.2392"/>
</g>
<!-- Node33 -->
<g id="node33" class="node">
<title>Node33</title>
<g id="a_node33"><a xlink:href="rpc_2pad_2src_2erl-support_8c.html" target="_top" xlink:title=" ">
<polygon fill="#ffffff" stroke="#000000" points="4350,-.5 4350,-30.5 4451,-30.5 4451,-.5 4350,-.5"/>
<text text-anchor="start" x="4358" y="-18.5" font-family="Helvetica,sans-Serif" font-size="10.00" fill="#000000">ee/rpc/pad/src/erl</text>
<text text-anchor="middle" x="4400.5" y="-7.5" font-family="Helvetica,sans-Serif" font-size="10.00" fill="#000000">&#45;support.c</text>
</a>
</g>
</g>
<!-- Node1&#45;&gt;Node33 -->
<g id="edge32" class="edge">
<title>Node1&#45;&gt;Node33</title>
<path fill="none" stroke="#191970" d="M2836.427,-75.9686C3111.8682,-71.4098 4190.174,-52.3479 4340.5,-31 4343.589,-30.5613 4346.7481,-30.0231 4349.9218,-29.4136"/>
<polygon fill="#191970" stroke="#191970" points="2836.1445,-72.4727 2826.2036,-76.1372 2836.26,-79.4717 2836.1445,-72.4727"/>
</g>
<!-- Node34 -->
<g id="node34" class="node">
<title>Node34</title>
<g id="a_node34"><a xlink:href="rpc_2poweroff_2src_2erl-support_8c.html" target="_top" xlink:title=" ">
<polygon fill="#ffffff" stroke="#000000" points="4469.5,-.5 4469.5,-30.5 4579.5,-30.5 4579.5,-.5 4469.5,-.5"/>
<text text-anchor="start" x="4477.5" y="-18.5" font-family="Helvetica,sans-Serif" font-size="10.00" fill="#000000">ee/rpc/poweroff/src</text>
<text text-anchor="middle" x="4524.5" y="-7.5" font-family="Helvetica,sans-Serif" font-size="10.00" fill="#000000">/erl&#45;support.c</text>
</a>
</g>
</g>
<!-- Node1&#45;&gt;Node34 -->
<g id="edge33" class="edge">
<title>Node1&#45;&gt;Node34</title>
<path fill="none" stroke="#191970" d="M2836.5163,-76.053C3125.0474,-71.6769 4297.5991,-52.6997 4460.5,-31 4463.4464,-30.6075 4466.4544,-30.1349 4469.4812,-29.6024"/>
<polygon fill="#191970" stroke="#191970" points="2836.1739,-72.5577 2826.228,-76.2086 2836.2798,-79.5569 2836.1739,-72.5577"/>
</g>
<!-- Node35 -->
<g id="node35" class="node">
<title>Node35</title>
<g id="a_node35"><a xlink:href="rpc_2ps2snd_2src_2erl-support_8c.html" target="_top" xlink:title=" ">
<polygon fill="#ffffff" stroke="#000000" points="4598,-.5 4598,-30.5 4715,-30.5 4715,-.5 4598,-.5"/>
<text text-anchor="start" x="4606" y="-18.5" font-family="Helvetica,sans-Serif" font-size="10.00" fill="#000000">ee/rpc/ps2snd/src/erl</text>
<text text-anchor="middle" x="4656.5" y="-7.5" font-family="Helvetica,sans-Serif" font-size="10.00" fill="#000000">&#45;support.c</text>
</a>
</g>
</g>
<!-- Node1&#45;&gt;Node35 -->
<g id="edge34" class="edge">
<title>Node1&#45;&gt;Node35</title>
<path fill="none" stroke="#191970" d="M2836.3709,-76.1359C3137.9519,-71.954 4412.1239,-53.1121 4588.5,-31 4591.5036,-30.6234 4594.569,-30.1726 4597.6556,-29.6656"/>
<polygon fill="#191970" stroke="#191970" points="2836.0071,-72.6405 2826.0564,-76.2784 2836.1039,-79.6398 2836.0071,-72.6405"/>
</g>
<!-- Node36 -->
<g id="node36" class="node">
<title>Node36</title>
<g id="a_node36"><a xlink:href="rpc_2remote_2src_2erl-support_8c.html" target="_top" xlink:title=" ">
<polygon fill="#ffffff" stroke="#000000" points="4733.5,-.5 4733.5,-30.5 4851.5,-30.5 4851.5,-.5 4733.5,-.5"/>
<text text-anchor="start" x="4741.5" y="-18.5" font-family="Helvetica,sans-Serif" font-size="10.00" fill="#000000">ee/rpc/remote/src/erl</text>
<text text-anchor="middle" x="4792.5" y="-7.5" font-family="Helvetica,sans-Serif" font-size="10.00" fill="#000000">&#45;support.c</text>
</a>
</g>
</g>
<!-- Node1&#45;&gt;Node36 -->
<g id="edge35" class="edge">
<title>Node1&#45;&gt;Node36</title>
<path fill="none" stroke="#191970" d="M2836.483,-76.2554C3151.9228,-72.4817 4533.9773,-54.7151 4724.5,-31 4727.3838,-30.641 4730.3245,-30.2132 4733.2861,-29.7324"/>
<polygon fill="#191970" stroke="#191970" points="2836.1083,-72.7595 2826.1508,-76.3785 2836.1918,-79.759 2836.1083,-72.7595"/>
</g>
<!-- Node37 -->
<g id="node37" class="node">
<title>Node37</title>
<g id="a_node37"><a xlink:href="rpc_2sior_2src_2erl-support_8c.html" target="_top" xlink:title=" ">
<polygon fill="#ffffff" stroke="#000000" points="4870,-.5 4870,-30.5 4971,-30.5 4971,-.5 4870,-.5"/>
<text text-anchor="start" x="4878" y="-18.5" font-family="Helvetica,sans-Serif" font-size="10.00" fill="#000000">ee/rpc/sior/src/erl</text>
<text text-anchor="middle" x="4920.5" y="-7.5" font-family="Helvetica,sans-Serif" font-size="10.00" fill="#000000">&#45;support.c</text>
</a>
</g>
</g>
<!-- Node1&#45;&gt;Node37 -->
<g id="edge36" class="edge">
<title>Node1&#45;&gt;Node37</title>
<path fill="none" stroke="#191970" d="M2836.6511,-76.468C3165.6601,-73.6215 4656.1958,-59.2529 4860.5,-31 4863.5906,-30.5726 4866.7509,-30.0431 4869.9256,-29.4402"/>
<polygon fill="#191970" stroke="#191970" points="2836.3166,-72.9707 2826.3472,-76.5567 2836.3769,-79.9704 2836.3166,-72.9707"/>
</g>
<!-- Node38 -->
<g id="node38" class="node">
<title>Node38</title>
<g id="a_node38"><a xlink:href="rpc_2tcpips_2src_2erl-support_8c.html" target="_top" xlink:title=" ">
<polygon fill="#ffffff" stroke="#000000" points="4989.5,-.5 4989.5,-30.5 5101.5,-30.5 5101.5,-.5 4989.5,-.5"/>
<text text-anchor="start" x="4997.5" y="-18.5" font-family="Helvetica,sans-Serif" font-size="10.00" fill="#000000">ee/rpc/tcpips/src/erl</text>
<text text-anchor="middle" x="5045.5" y="-7.5" font-family="Helvetica,sans-Serif" font-size="10.00" fill="#000000">&#45;support.c</text>
</a>
</g>
</g>
<!-- Node1&#45;&gt;Node38 -->
<g id="edge37" class="edge">
<title>Node1&#45;&gt;Node38</title>
<path fill="none" stroke="#191970" d="M2836.1839,-76.4834C3175.475,-73.6226 4763.3016,-58.835 4980.5,-31 4983.3768,-30.6313 4986.3115,-30.1868 4989.2656,-29.6849"/>
<polygon fill="#191970" stroke="#191970" points="2836.0138,-72.9846 2826.0436,-76.5685 2836.0726,-79.9844 2836.0138,-72.9846"/>
</g>
<!-- Node39 -->
<g id="node39" class="node">
<title>Node39</title>
<g id="a_node39"><a xlink:href="sbv_2src_2erl-support_8c.html" target="_top" xlink:title=" ">
<polygon fill="#ffffff" stroke="#000000" points="5120,-6 5120,-25 5251,-25 5251,-6 5120,-6"/>
<text text-anchor="middle" x="5185.5" y="-13" font-family="Helvetica,sans-Serif" font-size="10.00" fill="#000000">ee/sbv/src/erl&#45;support.c</text>
</a>
</g>
</g>
<!-- Node1&#45;&gt;Node39 -->
<g id="edge38" class="edge">
<title>Node1&#45;&gt;Node39</title>
<path fill="none" stroke="#191970" d="M2836.4836,-76.4453C3188.2476,-73.3013 4879.3407,-56.9366 5110.5,-31 5122.1275,-29.6954 5134.6234,-27.4561 5146.0167,-25.079"/>
<polygon fill="#191970" stroke="#191970" points="2836.1956,-72.9476 2826.2272,-76.5366 2836.258,-79.9473 2836.1956,-72.9476"/>
</g>
</g>
</svg>
        <g id="navigator" transform="translate(0 0)" fill="#404254">
                <rect fill="#f2f5e9" fill-opacity="0.5" stroke="#606060" stroke-width=".5" x="0" y="0" width="60" height="60"/>
                <use id="zoomplus" xlink:href="#zoomPlus" x="17" y="9" onmousedown="handleZoom(evt,'in')"/>
                <use id="zoomminus" xlink:href="#zoomMin" x="42" y="9" onmousedown="handleZoom(evt,'out')"/>
                <use id="reset" xlink:href="#resetDef" x="30" y="36" onmousedown="handleReset()"/>
                <g id="arrowUp" xlink:href="#dirArrow" transform="translate(30 24)" onmousedown="handlePan(0,-1)">
                  <use xlink:href="#rim" fill="#404040">
                        <set attributeName="fill" to="#808080" begin="arrowUp.mouseover" end="arrowUp.mouseout"/>
                  </use>
                  <path fill="none" stroke="white" stroke-width="1.5" d="M0,-3.0v7 M-2.5,-0.5L0,-3.0L2.5,-0.5"/>
                </g>
                <g id="arrowRight" xlink:href="#dirArrow" transform="rotate(90) translate(36 -43)" onmousedown="handlePan(1,0)">
                  <use xlink:href="#rim" fill="#404040">
                        <set attributeName="fill" to="#808080" begin="arrowRight.mouseover" end="arrowRight.mouseout"/>
                  </use>
                  <path fill="none" stroke="white" stroke-width="1.5" d="M0,-3.0v7 M-2.5,-0.5L0,-3.0L2.5,-0.5"/>
                </g>
                <g id="arrowDown" xlink:href="#dirArrow" transform="rotate(180) translate(-30 -48)" onmousedown="handlePan(0,1)">
                  <use xlink:href="#rim" fill="#404040">
                        <set attributeName="fill" to="#808080" begin="arrowDown.mouseover" end="arrowDown.mouseout"/>
                  </use>
                  <path fill="none" stroke="white" stroke-width="1.5" d="M0,-3.0v7 M-2.5,-0.5L0,-3.0L2.5,-0.5"/>
                </g>
                <g id="arrowLeft" xlink:href="#dirArrow" transform="rotate(270) translate(-36 17)" onmousedown="handlePan(-1,0)">
                  <use xlink:href="#rim" fill="#404040">
                        <set attributeName="fill" to="#808080" begin="arrowLeft.mouseover" end="arrowLeft.mouseout"/>
                  </use>
                  <path fill="none" stroke="white" stroke-width="1.5" d="M0,-3.0v7 M-2.5,-0.5L0,-3.0L2.5,-0.5"/>
                </g>
        </g>
        <svg viewBox="0 0 15 15" width="100%" height="30px" preserveAspectRatio="xMaxYMin meet">
         <g id="arrow_out" transform="scale(0.3 0.3)">
          <a xlink:href="erl_8h__dep__incl_org.svg" target="_base">
           <rect id="button" ry="5" rx="5" y="6" x="6" height="38" width="38"
                fill="#f2f5e9" fill-opacity="0.5" stroke="#606060" stroke-width="1.0"/>
           <path id="arrow"
             d="M 11.500037,31.436501 C 11.940474,20.09759 22.043105,11.32322 32.158766,21.979434 L 37.068811,17.246167 C 37.068811,17.246167 37.088388,32 37.088388,32 L 22.160133,31.978069 C 22.160133,31.978069 26.997745,27.140456 26.997745,27.140456 C 18.528582,18.264221 13.291696,25.230495 11.500037,31.436501 z"
             style="fill:#404040;"/>
          </a>
         </g>
        </svg>
</svg>
