<?xml version="1.0" encoding="UTF-8" standalone="no"?>
<!DOCTYPE svg PUBLIC "-//W3C//DTD SVG 1.1//EN"
 "http://www.w3.org/Graphics/SVG/1.1/DTD/svg11.dtd">
<!-- Generated by graphviz version 2.40.1 (20161225.0304)
 -->
<!-- Title: ee/erl/src/erl.c Pages: 1 -->
<svg width="698pt" height="196pt"
 viewBox="0.00 0.00 698.00 196.00" xmlns="http://www.w3.org/2000/svg" xmlns:xlink="http://www.w3.org/1999/xlink">
<g id="graph0" class="graph" transform="scale(1 1) rotate(0) translate(4 192)">
<title>ee/erl/src/erl.c</title>
<polygon fill="#ffffff" stroke="transparent" points="-4,4 -4,-192 694,-192 694,4 -4,4"/>
<!-- Node1 -->
<g id="node1" class="node">
<title>Node1</title>
<g id="a_node1"><a xlink:title=" ">
<polygon fill="#bfbfbf" stroke="#000000" points="316.5,-168.5 316.5,-187.5 402.5,-187.5 402.5,-168.5 316.5,-168.5"/>
<text text-anchor="middle" x="359.5" y="-175.5" font-family="Helvetica,sans-Serif" font-size="10.00" fill="#000000">ee/erl/src/erl.c</text>
</a>
</g>
</g>
<!-- Node2 -->
<g id="node2" class="node">
<title>Node2</title>
<g id="a_node2"><a xlink:title=" ">
<polygon fill="#ffffff" stroke="#bfbfbf" points="0,-112.5 0,-131.5 53,-131.5 53,-112.5 0,-112.5"/>
<text text-anchor="middle" x="26.5" y="-119.5" font-family="Helvetica,sans-Serif" font-size="10.00" fill="#000000">stdlib.h</text>
</a>
</g>
</g>
<!-- Node1&#45;&gt;Node2 -->
<g id="edge1" class="edge">
<title>Node1&#45;&gt;Node2</title>
<path fill="none" stroke="#191970" d="M316.2573,-172.3312C259.0819,-164.575 155.3076,-149.5931 67.5,-132 66.0632,-131.7121 64.6007,-131.4082 63.1252,-131.0925"/>
<polygon fill="#191970" stroke="#191970" points="63.8603,-127.6704 53.3351,-128.883 62.3192,-134.4987 63.8603,-127.6704"/>
</g>
<!-- Node3 -->
<g id="node3" class="node">
<title>Node3</title>
<g id="a_node3"><a xlink:title=" ">
<polygon fill="#ffffff" stroke="#bfbfbf" points="87.5,-.5 87.5,-19.5 137.5,-19.5 137.5,-.5 87.5,-.5"/>
<text text-anchor="middle" x="112.5" y="-7.5" font-family="Helvetica,sans-Serif" font-size="10.00" fill="#000000">stdio.h</text>
</a>
</g>
</g>
<!-- Node1&#45;&gt;Node3 -->
<g id="edge2" class="edge">
<title>Node1&#45;&gt;Node3</title>
<path fill="none" stroke="#191970" d="M316.3642,-176.4099C251.14,-173.027 132.0802,-162.7064 104.5,-132 79.2065,-103.8395 93.0335,-55.7122 103.7524,-29.1003"/>
<polygon fill="#191970" stroke="#191970" points="107.0426,-30.3077 107.7578,-19.737 100.6068,-27.5545 107.0426,-30.3077"/>
</g>
<!-- Node4 -->
<g id="node4" class="node">
<title>Node4</title>
<g id="a_node4"><a xlink:title=" ">
<polygon fill="#ffffff" stroke="#bfbfbf" points="459,-112.5 459,-131.5 512,-131.5 512,-112.5 459,-112.5"/>
<text text-anchor="middle" x="485.5" y="-119.5" font-family="Helvetica,sans-Serif" font-size="10.00" fill="#000000">string.h</text>
</a>
</g>
</g>
<!-- Node1&#45;&gt;Node4 -->
<g id="edge3" class="edge">
<title>Node1&#45;&gt;Node4</title>
<path fill="none" stroke="#191970" d="M381.1602,-168.3733C401.4772,-159.3435 432.064,-145.7494 454.875,-135.6111"/>
<polygon fill="#191970" stroke="#191970" points="456.4059,-138.7609 464.1225,-131.5011 453.5628,-132.3642 456.4059,-138.7609"/>
</g>
<!-- Node5 -->
<g id="node5" class="node">
<title>Node5</title>
<g id="a_node5"><a xlink:title=" ">
<polygon fill="#ffffff" stroke="#bfbfbf" points="530,-112.5 530,-131.5 597,-131.5 597,-112.5 530,-112.5"/>
<text text-anchor="middle" x="563.5" y="-119.5" font-family="Helvetica,sans-Serif" font-size="10.00" fill="#000000">sys/fcntl.h</text>
</a>
</g>
</g>
<!-- Node1&#45;&gt;Node5 -->
<g id="edge4" class="edge">
<title>Node1&#45;&gt;Node5</title>
<path fill="none" stroke="#191970" d="M394.5689,-168.3733C429.2439,-158.8546 482.3954,-144.264 519.7998,-133.9961"/>
<polygon fill="#191970" stroke="#191970" points="521.187,-137.2449 529.9037,-131.2225 519.3339,-130.4946 521.187,-137.2449"/>
</g>
<!-- Node6 -->
<g id="node6" class="node">
<title>Node6</title>
<g id="a_node6"><a xlink:title=" ">
<polygon fill="#ffffff" stroke="#bfbfbf" points="615,-112.5 615,-131.5 690,-131.5 690,-112.5 615,-112.5"/>
<text text-anchor="middle" x="652.5" y="-119.5" font-family="Helvetica,sans-Serif" font-size="10.00" fill="#000000">sys/unistd.h</text>
</a>
</g>
</g>
<!-- Node1&#45;&gt;Node6 -->
<g id="edge5" class="edge">
<title>Node1&#45;&gt;Node6</title>
<path fill="none" stroke="#191970" d="M402.8561,-170.331C450.2132,-161.8641 528.5509,-147.5952 605.0595,-132.252"/>
<polygon fill="#191970" stroke="#191970" points="605.7514,-135.683 614.8637,-130.2778 604.3695,-128.8208 605.7514,-135.683"/>
</g>
<!-- Node7 -->
<g id="node7" class="node">
<title>Node7</title>
<g id="a_node7"><a xlink:href="erl_8h.html" target="_top" xlink:title=" ">
<polygon fill="#ffffff" stroke="#000000" points="423.5,-56.5 423.5,-75.5 461.5,-75.5 461.5,-56.5 423.5,-56.5"/>
<text text-anchor="middle" x="442.5" y="-63.5" font-family="Helvetica,sans-Serif" font-size="10.00" fill="#000000">erl.h</text>
</a>
</g>
</g>
<!-- Node1&#45;&gt;Node7 -->
<g id="edge6" class="edge">
<title>Node1&#45;&gt;Node7</title>
<path fill="none" stroke="#191970" d="M371.2834,-168.245C381.4225,-159.4612 396.0284,-145.8393 406.5,-132 417.5454,-117.4024 427.2934,-98.9901 433.8504,-85.3242"/>
<polygon fill="#191970" stroke="#191970" points="437.1707,-86.4845 438.2112,-75.9408 430.8227,-83.5343 437.1707,-86.4845"/>
</g>
<!-- Node8 -->
<g id="node8" class="node">
<title>Node8</title>
<g id="a_node8"><a xlink:href="tamtypes_8h.html" target="_top" xlink:title=" ">
<polygon fill="#ffffff" stroke="#000000" points="330.5,-.5 330.5,-19.5 402.5,-19.5 402.5,-.5 330.5,-.5"/>
<text text-anchor="middle" x="366.5" y="-7.5" font-family="Helvetica,sans-Serif" font-size="10.00" fill="#000000">tamtypes.h</text>
</a>
</g>
</g>
<!-- Node1&#45;&gt;Node8 -->
<g id="edge15" class="edge">
<title>Node1&#45;&gt;Node8</title>
<path fill="none" stroke="#191970" d="M362.5098,-168.2212C368.5074,-147.5534 381.0005,-97.8878 376.5,-56 375.5637,-47.285 373.6567,-37.7985 371.7568,-29.7166"/>
<polygon fill="#191970" stroke="#191970" points="375.0899,-28.6187 369.2621,-19.7707 368.3002,-30.3218 375.0899,-28.6187"/>
</g>
<!-- Node9 -->
<g id="node9" class="node">
<title>Node9</title>
<g id="a_node9"><a xlink:href="hashtab_8h.html" target="_top" xlink:title=" ">
<polygon fill="#ffffff" stroke="#000000" points="114,-112.5 114,-131.5 179,-131.5 179,-112.5 114,-112.5"/>
<text text-anchor="middle" x="146.5" y="-119.5" font-family="Helvetica,sans-Serif" font-size="10.00" fill="#000000">hashtab.h</text>
</a>
</g>
</g>
<!-- Node1&#45;&gt;Node9 -->
<g id="edge8" class="edge">
<title>Node1&#45;&gt;Node9</title>
<path fill="none" stroke="#191970" d="M322.884,-168.3733C285.6812,-158.5922 228.1085,-143.4557 188.9366,-133.1571"/>
<polygon fill="#191970" stroke="#191970" points="189.7122,-129.7421 179.1509,-130.5843 187.9323,-136.512 189.7122,-129.7421"/>
</g>
<!-- Node12 -->
<g id="node12" class="node">
<title>Node12</title>
<g id="a_node12"><a xlink:href="recycle_8h.html" target="_top" xlink:title=" ">
<polygon fill="#ffffff" stroke="#000000" points="215,-112.5 215,-131.5 276,-131.5 276,-112.5 215,-112.5"/>
<text text-anchor="middle" x="245.5" y="-119.5" font-family="Helvetica,sans-Serif" font-size="10.00" fill="#000000">recycle.h</text>
</a>
</g>
</g>
<!-- Node1&#45;&gt;Node12 -->
<g id="edge13" class="edge">
<title>Node1&#45;&gt;Node12</title>
<path fill="none" stroke="#191970" d="M339.9027,-168.3733C321.7669,-159.4644 294.5865,-146.1127 274.0413,-136.0203"/>
<polygon fill="#191970" stroke="#191970" points="275.3603,-132.7688 264.8416,-131.5011 272.2739,-139.0517 275.3603,-132.7688"/>
</g>
<!-- Node13 -->
<g id="node13" class="node">
<title>Node13</title>
<g id="a_node13"><a xlink:href="kernel_8h.html" target="_top" xlink:title=" ">
<polygon fill="#ffffff" stroke="#000000" points="303.5,-112.5 303.5,-131.5 359.5,-131.5 359.5,-112.5 303.5,-112.5"/>
<text text-anchor="middle" x="331.5" y="-119.5" font-family="Helvetica,sans-Serif" font-size="10.00" fill="#000000">kernel.h</text>
</a>
</g>
</g>
<!-- Node1&#45;&gt;Node13 -->
<g id="edge16" class="edge">
<title>Node1&#45;&gt;Node13</title>
<path fill="none" stroke="#191970" d="M354.6228,-168.2455C350.8487,-160.6973 345.5079,-150.0158 340.9099,-140.8197"/>
<polygon fill="#191970" stroke="#191970" points="343.924,-139.0217 336.3213,-131.6427 337.663,-142.1522 343.924,-139.0217"/>
</g>
<!-- Node7&#45;&gt;Node8 -->
<g id="edge7" class="edge">
<title>Node7&#45;&gt;Node8</title>
<path fill="none" stroke="#191970" d="M429.2618,-56.2455C417.819,-47.814 401.0704,-35.4729 387.7525,-25.6598"/>
<polygon fill="#191970" stroke="#191970" points="389.7133,-22.757 379.5865,-19.6427 385.5609,-28.3924 389.7133,-22.757"/>
</g>
<!-- Node10 -->
<g id="node10" class="node">
<title>Node10</title>
<g id="a_node10"><a xlink:href="standard_8h.html" target="_top" xlink:title=" ">
<polygon fill="#ffffff" stroke="#000000" points="109.5,-56.5 109.5,-75.5 177.5,-75.5 177.5,-56.5 109.5,-56.5"/>
<text text-anchor="middle" x="143.5" y="-63.5" font-family="Helvetica,sans-Serif" font-size="10.00" fill="#000000">standard.h</text>
</a>
</g>
</g>
<!-- Node9&#45;&gt;Node10 -->
<g id="edge9" class="edge">
<title>Node9&#45;&gt;Node10</title>
<path fill="none" stroke="#191970" d="M145.9774,-112.2455C145.586,-104.9382 145.0372,-94.6944 144.5556,-85.7046"/>
<polygon fill="#191970" stroke="#191970" points="148.0466,-85.4411 144.0166,-75.6427 141.0566,-85.8156 148.0466,-85.4411"/>
</g>
<!-- Node10&#45;&gt;Node3 -->
<g id="edge10" class="edge">
<title>Node10&#45;&gt;Node3</title>
<path fill="none" stroke="#191970" d="M138.1002,-56.2455C133.8773,-48.617 127.8827,-37.7881 122.7559,-28.5267"/>
<polygon fill="#191970" stroke="#191970" points="125.7432,-26.6965 117.8379,-19.6427 119.619,-30.0867 125.7432,-26.6965"/>
</g>
<!-- Node10&#45;&gt;Node8 -->
<g id="edge12" class="edge">
<title>Node10&#45;&gt;Node8</title>
<path fill="none" stroke="#191970" d="M177.855,-57.3727C216.0851,-47.7723 278.0479,-32.2122 320.4548,-21.5629"/>
<polygon fill="#191970" stroke="#191970" points="321.4082,-24.9323 330.2545,-19.102 319.7032,-18.1431 321.4082,-24.9323"/>
</g>
<!-- Node11 -->
<g id="node11" class="node">
<title>Node11</title>
<g id="a_node11"><a xlink:title=" ">
<polygon fill="#ffffff" stroke="#bfbfbf" points="220.5,-.5 220.5,-19.5 276.5,-19.5 276.5,-.5 220.5,-.5"/>
<text text-anchor="middle" x="248.5" y="-7.5" font-family="Helvetica,sans-Serif" font-size="10.00" fill="#000000">stddef.h</text>
</a>
</g>
</g>
<!-- Node10&#45;&gt;Node11 -->
<g id="edge11" class="edge">
<title>Node10&#45;&gt;Node11</title>
<path fill="none" stroke="#191970" d="M161.7896,-56.2455C178.2762,-47.4527 202.7352,-34.4079 221.4765,-24.4125"/>
<polygon fill="#191970" stroke="#191970" points="223.2435,-27.4368 230.42,-19.6427 219.9494,-21.2604 223.2435,-27.4368"/>
</g>
<!-- Node12&#45;&gt;Node10 -->
<g id="edge14" class="edge">
<title>Node12&#45;&gt;Node10</title>
<path fill="none" stroke="#191970" d="M227.733,-112.2455C211.7905,-103.4928 188.1741,-90.527 170.0011,-80.5496"/>
<polygon fill="#191970" stroke="#191970" points="171.5137,-77.3873 161.0634,-75.6427 168.1448,-83.5233 171.5137,-77.3873"/>
</g>
<!-- Node13&#45;&gt;Node11 -->
<g id="edge17" class="edge">
<title>Node13&#45;&gt;Node11</title>
<path fill="none" stroke="#191970" d="M324.4235,-112.4509C310.5188,-93.688 279.4433,-51.7548 261.6599,-27.758"/>
<polygon fill="#191970" stroke="#191970" points="264.3247,-25.4753 255.5586,-19.5249 258.7006,-29.6431 264.3247,-25.4753"/>
</g>
<!-- Node14 -->
<g id="node14" class="node">
<title>Node14</title>
<g id="a_node14"><a xlink:title=" ">
<polygon fill="#ffffff" stroke="#bfbfbf" points="195.5,-56.5 195.5,-75.5 251.5,-75.5 251.5,-56.5 195.5,-56.5"/>
<text text-anchor="middle" x="223.5" y="-63.5" font-family="Helvetica,sans-Serif" font-size="10.00" fill="#000000">stdarg.h</text>
</a>
</g>
</g>
<!-- Node13&#45;&gt;Node14 -->
<g id="edge18" class="edge">
<title>Node13&#45;&gt;Node14</title>
<path fill="none" stroke="#191970" d="M312.6878,-112.2455C295.6527,-103.4125 270.3425,-90.2887 251.0319,-80.2758"/>
<polygon fill="#191970" stroke="#191970" points="252.5853,-77.1388 242.0966,-75.6427 249.363,-83.353 252.5853,-77.1388"/>
</g>
<!-- Node15 -->
<g id="node15" class="node">
<title>Node15</title>
<g id="a_node15"><a xlink:href="sifdma_8h.html" target="_top" xlink:title=" ">
<polygon fill="#ffffff" stroke="#000000" points="308,-56.5 308,-75.5 367,-75.5 367,-56.5 308,-56.5"/>
<text text-anchor="middle" x="337.5" y="-63.5" font-family="Helvetica,sans-Serif" font-size="10.00" fill="#000000">sifdma.h</text>
</a>
</g>
</g>
<!-- Node13&#45;&gt;Node15 -->
<g id="edge19" class="edge">
<title>Node13&#45;&gt;Node15</title>
<path fill="none" stroke="#191970" d="M332.5451,-112.2455C333.328,-104.9382 334.4256,-94.6944 335.3888,-85.7046"/>
<polygon fill="#191970" stroke="#191970" points="338.8815,-85.9587 336.4669,-75.6427 331.9214,-85.2129 338.8815,-85.9587"/>
</g>
<!-- Node15&#45;&gt;Node8 -->
<g id="edge20" class="edge">
<title>Node15&#45;&gt;Node8</title>
<path fill="none" stroke="#191970" d="M342.5514,-56.2455C346.5019,-48.617 352.1097,-37.7881 356.9058,-28.5267"/>
<polygon fill="#191970" stroke="#191970" points="360.0159,-30.1321 361.5065,-19.6427 353.7999,-26.9131 360.0159,-30.1321"/>
</g>
</g>
</svg>
