<?xml version="1.0" encoding="UTF-8" standalone="no"?>
<!DOCTYPE svg PUBLIC "-//W3C//DTD SVG 1.1//EN"
 "http://www.w3.org/Graphics/SVG/1.1/DTD/svg11.dtd">
<!-- Generated by graphviz version 2.40.1 (20161225.0304)
 -->
<!-- Title: common/include/errno.h Pages: 1 -->
<svg width="3012pt" height="95pt"
 viewBox="0.00 0.00 3011.50 95.00" xmlns="http://www.w3.org/2000/svg" xmlns:xlink="http://www.w3.org/1999/xlink">
<g id="graph0" class="graph" transform="scale(1 1) rotate(0) translate(4 91)">
<title>common/include/errno.h</title>
<polygon fill="#ffffff" stroke="transparent" points="-4,4 -4,-91 3007.5,-91 3007.5,4 -4,4"/>
<!-- Node1 -->
<g id="node1" class="node">
<title>Node1</title>
<g id="a_node1"><a xlink:title=" ">
<polygon fill="#bfbfbf" stroke="#000000" points="1420,-67.5 1420,-86.5 1555,-86.5 1555,-67.5 1420,-67.5"/>
<text text-anchor="middle" x="1487.5" y="-74.5" font-family="Helvetica,sans-Serif" font-size="10.00" fill="#000000">common/include/errno.h</text>
</a>
</g>
</g>
<!-- Node2 -->
<g id="node2" class="node">
<title>Node2</title>
<g id="a_node2"><a xlink:href="loader_8c.html" target="_top" xlink:title=" ">
<polygon fill="#ffffff" stroke="#000000" points="0,-.5 0,-30.5 129,-30.5 129,-.5 0,-.5"/>
<text text-anchor="start" x="8" y="-18.5" font-family="Helvetica,sans-Serif" font-size="10.00" fill="#000000">ee/elf&#45;loader/src/loader</text>
<text text-anchor="middle" x="64.5" y="-7.5" font-family="Helvetica,sans-Serif" font-size="10.00" fill="#000000">/loader.c</text>
</a>
</g>
</g>
<!-- Node1&#45;&gt;Node2 -->
<g id="edge1" class="edge">
<title>Node1&#45;&gt;Node2</title>
<path fill="none" stroke="#191970" d="M1409.7806,-76.1414C1161.0485,-73.1118 386.3243,-61.4175 137.5,-31 134.7993,-30.6699 132.0505,-30.2896 129.2796,-29.8696"/>
<polygon fill="#191970" stroke="#191970" points="1409.7764,-79.6415 1419.818,-76.2624 1409.8609,-72.642 1409.7764,-79.6415"/>
</g>
<!-- Node3 -->
<g id="node3" class="node">
<title>Node3</title>
<g id="a_node3"><a xlink:href="graph__config_8c.html" target="_top" xlink:title=" ">
<polygon fill="#ffffff" stroke="#000000" points="147,-.5 147,-30.5 254,-30.5 254,-.5 147,-.5"/>
<text text-anchor="start" x="155" y="-18.5" font-family="Helvetica,sans-Serif" font-size="10.00" fill="#000000">ee/graph/src/graph</text>
<text text-anchor="middle" x="200.5" y="-7.5" font-family="Helvetica,sans-Serif" font-size="10.00" fill="#000000">_config.c</text>
</a>
</g>
</g>
<!-- Node1&#45;&gt;Node3 -->
<g id="edge2" class="edge">
<title>Node1&#45;&gt;Node3</title>
<path fill="none" stroke="#191970" d="M1409.8669,-76.1897C1176.7815,-73.424 485.4291,-62.7012 262.5,-31 259.7538,-30.6095 256.9528,-30.1474 254.1337,-29.6315"/>
<polygon fill="#191970" stroke="#191970" points="1409.915,-79.6904 1419.9553,-76.3078 1409.997,-72.6909 1409.915,-79.6904"/>
</g>
<!-- Node4 -->
<g id="node4" class="node">
<title>Node4</title>
<g id="a_node4"><a xlink:href="ps2sdkapi_8c.html" target="_top" xlink:title=" ">
<polygon fill="#ffffff" stroke="#000000" points="272,-6 272,-25 399,-25 399,-6 272,-6"/>
<text text-anchor="middle" x="335.5" y="-13" font-family="Helvetica,sans-Serif" font-size="10.00" fill="#000000">ee/libc/src/ps2sdkapi.c</text>
</a>
</g>
</g>
<!-- Node1&#45;&gt;Node4 -->
<g id="edge3" class="edge">
<title>Node1&#45;&gt;Node4</title>
<path fill="none" stroke="#191970" d="M1409.7513,-75.3693C1195.9768,-70.6169 602.3814,-55.5422 408.5,-31 397.4459,-29.6007 385.5805,-27.3924 374.6963,-25.0764"/>
<polygon fill="#191970" stroke="#191970" points="1409.8705,-78.8727 1419.9454,-75.5945 1410.0251,-71.8744 1409.8705,-78.8727"/>
</g>
<!-- Node5 -->
<g id="node5" class="node">
<title>Node5</title>
<g id="a_node5"><a xlink:href="sleep_8c.html" target="_top" xlink:title=" ">
<polygon fill="#ffffff" stroke="#000000" points="417.5,-6 417.5,-25 521.5,-25 521.5,-6 417.5,-6"/>
<text text-anchor="middle" x="469.5" y="-13" font-family="Helvetica,sans-Serif" font-size="10.00" fill="#000000">ee/libc/src/sleep.c</text>
</a>
</g>
</g>
<!-- Node1&#45;&gt;Node5 -->
<g id="edge4" class="edge">
<title>Node1&#45;&gt;Node5</title>
<path fill="none" stroke="#191970" d="M1409.7054,-75.275C1212.9928,-70.5893 699.3897,-56.2542 530.5,-31 521.0982,-29.5941 511.0416,-27.3537 501.861,-25.0082"/>
<polygon fill="#191970" stroke="#191970" points="1409.8764,-78.7799 1419.9563,-75.5172 1410.0418,-71.7818 1409.8764,-78.7799"/>
</g>
<!-- Node6 -->
<g id="node6" class="node">
<title>Node6</title>
<g id="a_node6"><a xlink:href="libgs_2src_2dma_8c.html" target="_top" xlink:title=" ">
<polygon fill="#ffffff" stroke="#000000" points="540,-6 540,-25 645,-25 645,-6 540,-6"/>
<text text-anchor="middle" x="592.5" y="-13" font-family="Helvetica,sans-Serif" font-size="10.00" fill="#000000">ee/libgs/src/dma.c</text>
</a>
</g>
</g>
<!-- Node1&#45;&gt;Node6 -->
<g id="edge5" class="edge">
<title>Node1&#45;&gt;Node6</title>
<path fill="none" stroke="#191970" d="M1409.7378,-74.6373C1231.532,-68.9102 797.8898,-53.1128 653.5,-31 644.2112,-29.5775 634.2793,-27.3614 625.1845,-25.0456"/>
<polygon fill="#191970" stroke="#191970" points="1409.7167,-78.1383 1419.8234,-74.9594 1409.9402,-71.1419 1409.7167,-78.1383"/>
</g>
<!-- Node7 -->
<g id="node7" class="node">
<title>Node7</title>
<g id="a_node7"><a xlink:href="DoubleBuff_8c.html" target="_top" xlink:title=" ">
<polygon fill="#ffffff" stroke="#000000" points="663,-6 663,-25 800,-25 800,-6 663,-6"/>
<text text-anchor="middle" x="731.5" y="-13" font-family="Helvetica,sans-Serif" font-size="10.00" fill="#000000">ee/libgs/src/DoubleBuff.c</text>
</a>
</g>
</g>
<!-- Node1&#45;&gt;Node7 -->
<g id="edge6" class="edge">
<title>Node1&#45;&gt;Node7</title>
<path fill="none" stroke="#191970" d="M1409.3773,-75.0312C1282.7219,-71.0945 1024.9182,-59.9862 808.5,-31 797.147,-29.4794 784.9541,-27.2879 773.6948,-25.0295"/>
<polygon fill="#191970" stroke="#191970" points="1409.6425,-78.5408 1419.7443,-75.3464 1409.8554,-71.544 1409.6425,-78.5408"/>
</g>
<!-- Node8 -->
<g id="node8" class="node">
<title>Node8</title>
<g id="a_node8"><a xlink:href="libgs_2src_2draw_8c.html" target="_top" xlink:title=" ">
<polygon fill="#ffffff" stroke="#000000" points="818,-6 818,-25 925,-25 925,-6 818,-6"/>
<text text-anchor="middle" x="871.5" y="-13" font-family="Helvetica,sans-Serif" font-size="10.00" fill="#000000">ee/libgs/src/draw.c</text>
</a>
</g>
</g>
<!-- Node1&#45;&gt;Node8 -->
<g id="edge7" class="edge">
<title>Node1&#45;&gt;Node8</title>
<path fill="none" stroke="#191970" d="M1409.5671,-74.5105C1301.8941,-70.168 1101.8424,-58.8429 933.5,-31 924.305,-29.4792 914.4689,-27.2876 905.4024,-25.0291"/>
<polygon fill="#191970" stroke="#191970" points="1409.5645,-78.013 1419.6945,-74.9093 1409.84,-71.0185 1409.5645,-78.013"/>
</g>
<!-- Node9 -->
<g id="node9" class="node">
<title>Node9</title>
<g id="a_node9"><a xlink:href="libgs_8c.html" target="_top" xlink:title=" ">
<polygon fill="#ffffff" stroke="#000000" points="943,-6 943,-25 1050,-25 1050,-6 943,-6"/>
<text text-anchor="middle" x="996.5" y="-13" font-family="Helvetica,sans-Serif" font-size="10.00" fill="#000000">ee/libgs/src/libgs.c</text>
</a>
</g>
</g>
<!-- Node1&#45;&gt;Node9 -->
<g id="edge8" class="edge">
<title>Node1&#45;&gt;Node9</title>
<path fill="none" stroke="#191970" d="M1409.8715,-71.9179C1323.5899,-65.5182 1180.3419,-52.6556 1058.5,-31 1049.5424,-29.4079 1039.962,-27.2455 1031.0769,-25.0414"/>
<polygon fill="#191970" stroke="#191970" points="1409.6186,-75.4086 1419.8474,-72.6478 1410.1295,-68.4273 1409.6186,-75.4086"/>
</g>
<!-- Node10 -->
<g id="node10" class="node">
<title>Node10</title>
<g id="a_node10"><a xlink:href="lowlevel_8c.html" target="_top" xlink:title=" ">
<polygon fill="#ffffff" stroke="#000000" points="1068,-6 1068,-25 1193,-25 1193,-6 1068,-6"/>
<text text-anchor="middle" x="1130.5" y="-13" font-family="Helvetica,sans-Serif" font-size="10.00" fill="#000000">ee/libgs/src/lowlevel.c</text>
</a>
</g>
</g>
<!-- Node1&#45;&gt;Node10 -->
<g id="edge9" class="edge">
<title>Node1&#45;&gt;Node10</title>
<path fill="none" stroke="#191970" d="M1412.4248,-65.9731C1354.8476,-57.2527 1273.4752,-44.3581 1202.5,-31 1192.95,-29.2026 1182.7246,-27.1063 1173.0666,-25.047"/>
<polygon fill="#191970" stroke="#191970" points="1412.1208,-69.4668 1422.5311,-67.498 1413.1652,-62.5451 1412.1208,-69.4668"/>
</g>
<!-- Node11 -->
<g id="node11" class="node">
<title>Node11</title>
<g id="a_node11"><a xlink:href="packets_8c.html" target="_top" xlink:title=" ">
<polygon fill="#ffffff" stroke="#000000" points="1211.5,-6 1211.5,-25 1333.5,-25 1333.5,-6 1211.5,-6"/>
<text text-anchor="middle" x="1272.5" y="-13" font-family="Helvetica,sans-Serif" font-size="10.00" fill="#000000">ee/libgs/src/packets.c</text>
</a>
</g>
</g>
<!-- Node1&#45;&gt;Node11 -->
<g id="edge10" class="edge">
<title>Node1&#45;&gt;Node11</title>
<path fill="none" stroke="#191970" d="M1444.2305,-64.6229C1403.4086,-52.9459 1343.075,-35.6877 1305.8579,-25.0419"/>
<polygon fill="#191970" stroke="#191970" points="1443.3293,-68.0054 1453.9063,-67.3906 1445.2544,-61.2753 1443.3293,-68.0054"/>
</g>
<!-- Node12 -->
<g id="node12" class="node">
<title>Node12</title>
<g id="a_node12"><a xlink:href="primitives_8c.html" target="_top" xlink:title=" ">
<polygon fill="#ffffff" stroke="#000000" points="1352,-6 1352,-25 1485,-25 1485,-6 1352,-6"/>
<text text-anchor="middle" x="1418.5" y="-13" font-family="Helvetica,sans-Serif" font-size="10.00" fill="#000000">ee/libgs/src/primitives.c</text>
</a>
</g>
</g>
<!-- Node1&#45;&gt;Node12 -->
<g id="edge11" class="edge">
<title>Node1&#45;&gt;Node12</title>
<path fill="none" stroke="#191970" d="M1469.0419,-60.5482C1456.3992,-49.2798 1440.0594,-34.716 1429.4333,-25.2449"/>
<polygon fill="#191970" stroke="#191970" points="1466.9248,-63.3497 1476.7188,-67.3906 1471.5824,-58.1241 1466.9248,-63.3497"/>
</g>
<!-- Node13 -->
<g id="node13" class="node">
<title>Node13</title>
<g id="a_node13"><a xlink:href="sync_8c.html" target="_top" xlink:title=" ">
<polygon fill="#ffffff" stroke="#000000" points="1503.5,-6 1503.5,-25 1609.5,-25 1609.5,-6 1503.5,-6"/>
<text text-anchor="middle" x="1556.5" y="-13" font-family="Helvetica,sans-Serif" font-size="10.00" fill="#000000">ee/libgs/src/sync.c</text>
</a>
</g>
</g>
<!-- Node1&#45;&gt;Node13 -->
<g id="edge12" class="edge">
<title>Node1&#45;&gt;Node13</title>
<path fill="none" stroke="#191970" d="M1505.9581,-60.5482C1518.6008,-49.2798 1534.9406,-34.716 1545.5667,-25.2449"/>
<polygon fill="#191970" stroke="#191970" points="1503.4176,-58.1241 1498.2813,-67.3906 1508.0752,-63.3497 1503.4176,-58.1241"/>
</g>
<!-- Node14 -->
<g id="node14" class="node">
<title>Node14</title>
<g id="a_node14"><a xlink:href="libgs_2src_2texture_8c.html" target="_top" xlink:title=" ">
<polygon fill="#ffffff" stroke="#000000" points="1628,-6 1628,-25 1747,-25 1747,-6 1628,-6"/>
<text text-anchor="middle" x="1687.5" y="-13" font-family="Helvetica,sans-Serif" font-size="10.00" fill="#000000">ee/libgs/src/texture.c</text>
</a>
</g>
</g>
<!-- Node1&#45;&gt;Node14 -->
<g id="edge13" class="edge">
<title>Node1&#45;&gt;Node14</title>
<path fill="none" stroke="#191970" d="M1528.4754,-64.4001C1566.4357,-52.7273 1622.0684,-35.6202 1656.4694,-25.0419"/>
<polygon fill="#191970" stroke="#191970" points="1527.2796,-61.106 1518.75,-67.3906 1529.337,-67.7968 1527.2796,-61.106"/>
</g>
<!-- Node15 -->
<g id="node15" class="node">
<title>Node15</title>
<g id="a_node15"><a xlink:href="Zbuffer_8c.html" target="_top" xlink:title=" ">
<polygon fill="#ffffff" stroke="#000000" points="1765.5,-6 1765.5,-25 1883.5,-25 1883.5,-6 1765.5,-6"/>
<text text-anchor="middle" x="1824.5" y="-13" font-family="Helvetica,sans-Serif" font-size="10.00" fill="#000000">ee/libgs/src/Zbuffer.c</text>
</a>
</g>
</g>
<!-- Node1&#45;&gt;Node15 -->
<g id="edge14" class="edge">
<title>Node1&#45;&gt;Node15</title>
<path fill="none" stroke="#191970" d="M1558.7184,-65.9116C1613.0538,-57.1881 1689.683,-44.3178 1756.5,-31 1765.5248,-29.2012 1775.1843,-27.1043 1784.3063,-25.0449"/>
<polygon fill="#191970" stroke="#191970" points="1558.1614,-62.4561 1548.8396,-67.4914 1559.2669,-69.3683 1558.1614,-62.4561"/>
</g>
<!-- Node16 -->
<g id="node16" class="node">
<title>Node16</title>
<g id="a_node16"><a xlink:href="netman_8c.html" target="_top" xlink:title=" ">
<polygon fill="#ffffff" stroke="#000000" points="1902,-.5 1902,-30.5 2031,-30.5 2031,-.5 1902,-.5"/>
<text text-anchor="start" x="1910" y="-18.5" font-family="Helvetica,sans-Serif" font-size="10.00" fill="#000000">ee/network/netman/src</text>
<text text-anchor="middle" x="1966.5" y="-7.5" font-family="Helvetica,sans-Serif" font-size="10.00" fill="#000000">/netman.c</text>
</a>
</g>
</g>
<!-- Node1&#45;&gt;Node16 -->
<g id="edge15" class="edge">
<title>Node1&#45;&gt;Node16</title>
<path fill="none" stroke="#191970" d="M1565.3322,-70.3356C1647.0903,-62.827 1779.2739,-49.2474 1892.5,-31 1895.6101,-30.4988 1898.7875,-29.9553 1901.9921,-29.3819"/>
<polygon fill="#191970" stroke="#191970" points="1564.7651,-66.8727 1555.124,-71.2656 1565.4003,-73.8438 1564.7651,-66.8727"/>
</g>
<!-- Node17 -->
<g id="node17" class="node">
<title>Node17</title>
<g id="a_node17"><a xlink:href="rpc__client_8c.html" target="_top" xlink:title=" ">
<polygon fill="#ffffff" stroke="#000000" points="2049,-.5 2049,-30.5 2178,-30.5 2178,-.5 2049,-.5"/>
<text text-anchor="start" x="2057" y="-18.5" font-family="Helvetica,sans-Serif" font-size="10.00" fill="#000000">ee/network/netman/src</text>
<text text-anchor="middle" x="2113.5" y="-7.5" font-family="Helvetica,sans-Serif" font-size="10.00" fill="#000000">/rpc_client.c</text>
</a>
</g>
</g>
<!-- Node1&#45;&gt;Node17 -->
<g id="edge16" class="edge">
<title>Node1&#45;&gt;Node17</title>
<path fill="none" stroke="#191970" d="M1565.1572,-73.6359C1672.4799,-68.2832 1871.9912,-55.7969 2040.5,-31 2043.1918,-30.6039 2045.9332,-30.1685 2048.698,-29.7028"/>
<polygon fill="#191970" stroke="#191970" points="1564.8792,-70.1452 1555.063,-74.1318 1565.2228,-77.1368 1564.8792,-70.1452"/>
</g>
<!-- Node18 -->
<g id="node18" class="node">
<title>Node18</title>
<g id="a_node18"><a xlink:href="rpc__server_8c.html" target="_top" xlink:title=" ">
<polygon fill="#ffffff" stroke="#000000" points="2196,-.5 2196,-30.5 2325,-30.5 2325,-.5 2196,-.5"/>
<text text-anchor="start" x="2204" y="-18.5" font-family="Helvetica,sans-Serif" font-size="10.00" fill="#000000">ee/network/netman/src</text>
<text text-anchor="middle" x="2260.5" y="-7.5" font-family="Helvetica,sans-Serif" font-size="10.00" fill="#000000">/rpc_server.c</text>
</a>
</g>
</g>
<!-- Node1&#45;&gt;Node18 -->
<g id="edge17" class="edge">
<title>Node1&#45;&gt;Node18</title>
<path fill="none" stroke="#191970" d="M1565.634,-75.5216C1695.3637,-72.2497 1963.15,-62.0259 2187.5,-31 2190.1951,-30.6273 2192.9393,-30.2114 2195.7064,-29.762"/>
<polygon fill="#191970" stroke="#191970" points="1565.3128,-72.0283 1555.4016,-75.7724 1565.4844,-79.0262 1565.3128,-72.0283"/>
</g>
<!-- Node19 -->
<g id="node19" class="node">
<title>Node19</title>
<g id="a_node19"><a xlink:href="cc_8h.html" target="_top" xlink:title=" ">
<polygon fill="#ffffff" stroke="#000000" points="2343.5,-.5 2343.5,-30.5 2459.5,-30.5 2459.5,-.5 2343.5,-.5"/>
<text text-anchor="start" x="2351.5" y="-18.5" font-family="Helvetica,sans-Serif" font-size="10.00" fill="#000000">ee/network/tcpip/src</text>
<text text-anchor="middle" x="2401.5" y="-7.5" font-family="Helvetica,sans-Serif" font-size="10.00" fill="#000000">/include/arch/cc.h</text>
</a>
</g>
</g>
<!-- Node1&#45;&gt;Node19 -->
<g id="edge18" class="edge">
<title>Node1&#45;&gt;Node19</title>
<path fill="none" stroke="#191970" d="M1565.4539,-74.4943C1745.7491,-68.4188 2187.3565,-51.8558 2334.5,-31 2337.337,-30.5979 2340.231,-30.1349 2343.1463,-29.6261"/>
<polygon fill="#191970" stroke="#191970" points="1565.1305,-71.0031 1555.2534,-74.8362 1565.3651,-77.9991 1565.1305,-71.0031"/>
</g>
<!-- Node20 -->
<g id="node20" class="node">
<title>Node20</title>
<g id="a_node20"><a xlink:href="fileXio__rpc_8c.html" target="_top" xlink:title=" ">
<polygon fill="#ffffff" stroke="#000000" points="2478,-.5 2478,-30.5 2575,-30.5 2575,-.5 2478,-.5"/>
<text text-anchor="start" x="2486" y="-18.5" font-family="Helvetica,sans-Serif" font-size="10.00" fill="#000000">ee/rpc/filexio/src</text>
<text text-anchor="middle" x="2526.5" y="-7.5" font-family="Helvetica,sans-Serif" font-size="10.00" fill="#000000">/fileXio_rpc.c</text>
</a>
</g>
</g>
<!-- Node1&#45;&gt;Node20 -->
<g id="edge19" class="edge">
<title>Node1&#45;&gt;Node20</title>
<path fill="none" stroke="#191970" d="M1565.1648,-75.5065C1765.2746,-71.314 2294.9278,-57.9431 2468.5,-31 2471.5898,-30.5204 2474.752,-29.9403 2477.9271,-29.2899"/>
<polygon fill="#191970" stroke="#191970" points="1564.9546,-72.01 1555.0294,-75.7169 1565.0999,-79.0085 1564.9546,-72.01"/>
</g>
<!-- Node21 -->
<g id="node21" class="node">
<title>Node21</title>
<g id="a_node21"><a xlink:href="libhdd_8c.html" target="_top" xlink:title=" ">
<polygon fill="#ffffff" stroke="#000000" points="2593.5,-6 2593.5,-25 2719.5,-25 2719.5,-6 2593.5,-6"/>
<text text-anchor="middle" x="2656.5" y="-13" font-family="Helvetica,sans-Serif" font-size="10.00" fill="#000000">ee/rpc/hdd/src/libhdd.c</text>
</a>
</g>
</g>
<!-- Node1&#45;&gt;Node21 -->
<g id="edge20" class="edge">
<title>Node1&#45;&gt;Node21</title>
<path fill="none" stroke="#191970" d="M1565.3986,-75.4574C1781.7608,-70.8983 2387.0678,-56.2045 2584.5,-31 2595.5346,-29.5913 2607.3847,-27.3499 2618.2215,-25.0045"/>
<polygon fill="#191970" stroke="#191970" points="1565.0094,-71.9647 1555.0848,-75.6733 1565.1559,-78.9632 1565.0094,-71.9647"/>
</g>
<!-- Node22 -->
<g id="node22" class="node">
<title>Node22</title>
<g id="a_node22"><a xlink:href="samples_2poweroff_8c.html" target="_top" xlink:title=" ">
<polygon fill="#ffffff" stroke="#000000" points="2738,-.5 2738,-30.5 2875,-30.5 2875,-.5 2738,-.5"/>
<text text-anchor="start" x="2746" y="-18.5" font-family="Helvetica,sans-Serif" font-size="10.00" fill="#000000">ee/rpc/poweroff/samples</text>
<text text-anchor="middle" x="2806.5" y="-7.5" font-family="Helvetica,sans-Serif" font-size="10.00" fill="#000000">/poweroff.c</text>
</a>
</g>
</g>
<!-- Node1&#45;&gt;Node22 -->
<g id="edge21" class="edge">
<title>Node1&#45;&gt;Node22</title>
<path fill="none" stroke="#191970" d="M1565.26,-75.7382C1800.3972,-71.6662 2501.6766,-57.5695 2728.5,-31 2731.5168,-30.6466 2734.5911,-30.2395 2737.6908,-29.7905"/>
<polygon fill="#191970" stroke="#191970" points="1565.0237,-72.2416 1555.0854,-75.9132 1565.1441,-79.2406 1565.0237,-72.2416"/>
</g>
<!-- Node23 -->
<g id="node23" class="node">
<title>Node23</title>
<g id="a_node23"><a xlink:href="src_2poweroff_8c.html" target="_top" xlink:title=" ">
<polygon fill="#ffffff" stroke="#000000" points="2893.5,-.5 2893.5,-30.5 3003.5,-30.5 3003.5,-.5 2893.5,-.5"/>
<text text-anchor="start" x="2901.5" y="-18.5" font-family="Helvetica,sans-Serif" font-size="10.00" fill="#000000">ee/rpc/poweroff/src</text>
<text text-anchor="middle" x="2948.5" y="-7.5" font-family="Helvetica,sans-Serif" font-size="10.00" fill="#000000">/poweroff.c</text>
</a>
</g>
</g>
<!-- Node1&#45;&gt;Node23 -->
<g id="edge22" class="edge">
<title>Node1&#45;&gt;Node23</title>
<path fill="none" stroke="#191970" d="M1565.3094,-76.533C1819.9127,-74.6758 2626.5861,-66.1008 2884.5,-31 2887.4453,-30.5992 2890.4524,-30.1199 2893.4785,-29.5822"/>
<polygon fill="#191970" stroke="#191970" points="1565.0178,-73.0349 1555.0431,-76.6064 1565.0679,-80.0347 1565.0178,-73.0349"/>
</g>
</g>
</svg>
