<?xml version="1.0" encoding="UTF-8" standalone="no"?>
<!DOCTYPE svg PUBLIC "-//W3C//DTD SVG 1.1//EN"
 "http://www.w3.org/Graphics/SVG/1.1/DTD/svg11.dtd">
<!-- Generated by graphviz version 2.40.1 (20161225.0304)
 -->
<!-- Title: ee/kernel/src/fileio.c Pages: 1 -->
<svg width="458pt" height="196pt"
 viewBox="0.00 0.00 457.84 196.00" xmlns="http://www.w3.org/2000/svg" xmlns:xlink="http://www.w3.org/1999/xlink">
<g id="graph0" class="graph" transform="scale(1 1) rotate(0) translate(4 192)">
<title>ee/kernel/src/fileio.c</title>
<polygon fill="#ffffff" stroke="transparent" points="-4,4 -4,-192 453.8419,-192 453.8419,4 -4,4"/>
<!-- Node1 -->
<g id="node1" class="node">
<title>Node1</title>
<g id="a_node1"><a xlink:title=" ">
<polygon fill="#bfbfbf" stroke="#000000" points="145.8419,-168.5 145.8419,-187.5 260.8419,-187.5 260.8419,-168.5 145.8419,-168.5"/>
<text text-anchor="middle" x="203.3419" y="-175.5" font-family="Helvetica,sans-Serif" font-size="10.00" fill="#000000">ee/kernel/src/fileio.c</text>
</a>
</g>
</g>
<!-- Node2 -->
<g id="node2" class="node">
<title>Node2</title>
<g id="a_node2"><a xlink:href="tamtypes_8h.html" target="_top" xlink:title=" ">
<polygon fill="#ffffff" stroke="#000000" points="160.3419,-.5 160.3419,-19.5 232.3419,-19.5 232.3419,-.5 160.3419,-.5"/>
<text text-anchor="middle" x="196.3419" y="-7.5" font-family="Helvetica,sans-Serif" font-size="10.00" fill="#000000">tamtypes.h</text>
</a>
</g>
</g>
<!-- Node1&#45;&gt;Node2 -->
<g id="edge1" class="edge">
<title>Node1&#45;&gt;Node2</title>
<path fill="none" stroke="#191970" d="M152.4572,-168.4503C110.7617,-159.7981 55.8814,-146.254 38.3419,-132 10.2853,-109.199 -12.9611,-84.4542 9.3419,-56 26.4791,-34.1364 100.1659,-21.2743 149.7638,-14.9401"/>
<polygon fill="#191970" stroke="#191970" points="150.455,-18.3816 159.9528,-13.6867 149.6002,-11.4339 150.455,-18.3816"/>
</g>
<!-- Node3 -->
<g id="node3" class="node">
<title>Node3</title>
<g id="a_node3"><a xlink:href="ps2lib__err_8h.html" target="_top" xlink:title=" ">
<polygon fill="#ffffff" stroke="#000000" points="47.8419,-112.5 47.8419,-131.5 120.8419,-131.5 120.8419,-112.5 47.8419,-112.5"/>
<text text-anchor="middle" x="84.3419" y="-119.5" font-family="Helvetica,sans-Serif" font-size="10.00" fill="#000000">ps2lib_err.h</text>
</a>
</g>
</g>
<!-- Node1&#45;&gt;Node3 -->
<g id="edge2" class="edge">
<title>Node1&#45;&gt;Node3</title>
<path fill="none" stroke="#191970" d="M182.8851,-168.3733C163.8681,-159.4241 135.3244,-145.9917 113.8443,-135.8835"/>
<polygon fill="#191970" stroke="#191970" points="115.0703,-132.5923 104.5318,-131.5011 112.0897,-138.926 115.0703,-132.5923"/>
</g>
<!-- Node4 -->
<g id="node4" class="node">
<title>Node4</title>
<g id="a_node4"><a xlink:href="kernel_8h.html" target="_top" xlink:title=" ">
<polygon fill="#ffffff" stroke="#000000" points="139.3419,-112.5 139.3419,-131.5 195.3419,-131.5 195.3419,-112.5 139.3419,-112.5"/>
<text text-anchor="middle" x="167.3419" y="-119.5" font-family="Helvetica,sans-Serif" font-size="10.00" fill="#000000">kernel.h</text>
</a>
</g>
</g>
<!-- Node1&#45;&gt;Node4 -->
<g id="edge3" class="edge">
<title>Node1&#45;&gt;Node4</title>
<path fill="none" stroke="#191970" d="M197.0712,-168.2455C192.1155,-160.5367 185.0589,-149.5598 179.0643,-140.2348"/>
<polygon fill="#191970" stroke="#191970" points="181.8925,-138.1618 173.5408,-131.6427 176.0043,-141.9471 181.8925,-138.1618"/>
</g>
<!-- Node8 -->
<g id="node8" class="node">
<title>Node8</title>
<g id="a_node8"><a xlink:href="sifrpc_8h.html" target="_top" xlink:title=" ">
<polygon fill="#ffffff" stroke="#000000" points="213.8419,-112.5 213.8419,-131.5 266.8419,-131.5 266.8419,-112.5 213.8419,-112.5"/>
<text text-anchor="middle" x="240.3419" y="-119.5" font-family="Helvetica,sans-Serif" font-size="10.00" fill="#000000">sifrpc.h</text>
</a>
</g>
</g>
<!-- Node1&#45;&gt;Node8 -->
<g id="edge8" class="edge">
<title>Node1&#45;&gt;Node8</title>
<path fill="none" stroke="#191970" d="M209.7868,-168.2455C214.8801,-160.5367 222.1328,-149.5598 228.2939,-140.2348"/>
<polygon fill="#191970" stroke="#191970" points="231.3784,-141.9155 233.9709,-131.6427 225.5381,-138.0566 231.3784,-141.9155"/>
</g>
<!-- Node10 -->
<g id="node10" class="node">
<title>Node10</title>
<g id="a_node10"><a xlink:href="fileio_8h.html" target="_top" xlink:title=" ">
<polygon fill="#ffffff" stroke="#000000" points="285.3419,-112.5 285.3419,-131.5 335.3419,-131.5 335.3419,-112.5 285.3419,-112.5"/>
<text text-anchor="middle" x="310.3419" y="-119.5" font-family="Helvetica,sans-Serif" font-size="10.00" fill="#000000">fileio.h</text>
</a>
</g>
</g>
<!-- Node1&#45;&gt;Node10 -->
<g id="edge11" class="edge">
<title>Node1&#45;&gt;Node10</title>
<path fill="none" stroke="#191970" d="M221.9799,-168.2455C238.7806,-159.4527 263.7054,-146.4079 282.8037,-136.4125"/>
<polygon fill="#191970" stroke="#191970" points="284.6805,-139.3807 291.9175,-131.6427 281.4346,-133.1787 284.6805,-139.3807"/>
</g>
<!-- Node14 -->
<g id="node14" class="node">
<title>Node14</title>
<g id="a_node14"><a xlink:title=" ">
<polygon fill="#ffffff" stroke="#bfbfbf" points="353.8419,-112.5 353.8419,-131.5 406.8419,-131.5 406.8419,-112.5 353.8419,-112.5"/>
<text text-anchor="middle" x="380.3419" y="-119.5" font-family="Helvetica,sans-Serif" font-size="10.00" fill="#000000">string.h</text>
</a>
</g>
</g>
<!-- Node1&#45;&gt;Node14 -->
<g id="edge15" class="edge">
<title>Node1&#45;&gt;Node14</title>
<path fill="none" stroke="#191970" d="M233.7693,-168.3733C264.404,-158.6809 311.6602,-143.7298 344.1885,-133.4384"/>
<polygon fill="#191970" stroke="#191970" points="345.2975,-136.7586 353.7759,-130.4051 343.1859,-130.0846 345.2975,-136.7586"/>
</g>
<!-- Node5 -->
<g id="node5" class="node">
<title>Node5</title>
<g id="a_node5"><a xlink:title=" ">
<polygon fill="#ffffff" stroke="#bfbfbf" points="18.3419,-56.5 18.3419,-75.5 74.3419,-75.5 74.3419,-56.5 18.3419,-56.5"/>
<text text-anchor="middle" x="46.3419" y="-63.5" font-family="Helvetica,sans-Serif" font-size="10.00" fill="#000000">stddef.h</text>
</a>
</g>
</g>
<!-- Node4&#45;&gt;Node5 -->
<g id="edge4" class="edge">
<title>Node4&#45;&gt;Node5</title>
<path fill="none" stroke="#191970" d="M146.5413,-112.3733C127.1176,-103.3838 97.9195,-89.8706 76.0455,-79.7471"/>
<polygon fill="#191970" stroke="#191970" points="77.4164,-76.5249 66.8711,-75.5011 74.4763,-82.8776 77.4164,-76.5249"/>
</g>
<!-- Node6 -->
<g id="node6" class="node">
<title>Node6</title>
<g id="a_node6"><a xlink:title=" ">
<polygon fill="#ffffff" stroke="#bfbfbf" points="92.3419,-56.5 92.3419,-75.5 148.3419,-75.5 148.3419,-56.5 92.3419,-56.5"/>
<text text-anchor="middle" x="120.3419" y="-63.5" font-family="Helvetica,sans-Serif" font-size="10.00" fill="#000000">stdarg.h</text>
</a>
</g>
</g>
<!-- Node4&#45;&gt;Node6 -->
<g id="edge5" class="edge">
<title>Node4&#45;&gt;Node6</title>
<path fill="none" stroke="#191970" d="M159.1551,-112.2455C152.483,-104.2958 142.894,-92.8706 134.9166,-83.3656"/>
<polygon fill="#191970" stroke="#191970" points="137.5445,-81.0524 128.4349,-75.6427 132.1827,-85.5525 137.5445,-81.0524"/>
</g>
<!-- Node7 -->
<g id="node7" class="node">
<title>Node7</title>
<g id="a_node7"><a xlink:href="sifdma_8h.html" target="_top" xlink:title=" ">
<polygon fill="#ffffff" stroke="#000000" points="166.8419,-56.5 166.8419,-75.5 225.8419,-75.5 225.8419,-56.5 166.8419,-56.5"/>
<text text-anchor="middle" x="196.3419" y="-63.5" font-family="Helvetica,sans-Serif" font-size="10.00" fill="#000000">sifdma.h</text>
</a>
</g>
</g>
<!-- Node4&#45;&gt;Node7 -->
<g id="edge6" class="edge">
<title>Node4&#45;&gt;Node7</title>
<path fill="none" stroke="#191970" d="M172.3933,-112.2455C176.3438,-104.617 181.9516,-93.7881 186.7477,-84.5267"/>
<polygon fill="#191970" stroke="#191970" points="189.8578,-86.1321 191.3484,-75.6427 183.6418,-82.9131 189.8578,-86.1321"/>
</g>
<!-- Node7&#45;&gt;Node2 -->
<g id="edge7" class="edge">
<title>Node7&#45;&gt;Node2</title>
<path fill="none" stroke="#191970" d="M196.3419,-56.2455C196.3419,-48.9382 196.3419,-38.6944 196.3419,-29.7046"/>
<polygon fill="#191970" stroke="#191970" points="199.842,-29.6426 196.3419,-19.6427 192.842,-29.6427 199.842,-29.6426"/>
</g>
<!-- Node9 -->
<g id="node9" class="node">
<title>Node9</title>
<g id="a_node9"><a xlink:href="sifcmd_8h.html" target="_top" xlink:title=" ">
<polygon fill="#ffffff" stroke="#000000" points="243.8419,-56.5 243.8419,-75.5 302.8419,-75.5 302.8419,-56.5 243.8419,-56.5"/>
<text text-anchor="middle" x="273.3419" y="-63.5" font-family="Helvetica,sans-Serif" font-size="10.00" fill="#000000">sifcmd.h</text>
</a>
</g>
</g>
<!-- Node8&#45;&gt;Node9 -->
<g id="edge9" class="edge">
<title>Node8&#45;&gt;Node9</title>
<path fill="none" stroke="#191970" d="M246.0901,-112.2455C250.5854,-104.617 256.9668,-93.7881 262.4244,-84.5267"/>
<polygon fill="#191970" stroke="#191970" points="265.598,-86.035 267.6596,-75.6427 259.5673,-82.4811 265.598,-86.035"/>
</g>
<!-- Node9&#45;&gt;Node2 -->
<g id="edge10" class="edge">
<title>Node9&#45;&gt;Node2</title>
<path fill="none" stroke="#191970" d="M259.9295,-56.2455C248.3362,-47.814 231.3672,-35.4729 217.8741,-25.6598"/>
<polygon fill="#191970" stroke="#191970" points="219.7466,-22.6938 209.6006,-19.6427 215.6294,-28.355 219.7466,-22.6938"/>
</g>
<!-- Node11 -->
<g id="node11" class="node">
<title>Node11</title>
<g id="a_node11"><a xlink:href="io__common_8h.html" target="_top" xlink:title=" ">
<polygon fill="#ffffff" stroke="#000000" points="320.8419,-56.5 320.8419,-75.5 403.8419,-75.5 403.8419,-56.5 320.8419,-56.5"/>
<text text-anchor="middle" x="362.3419" y="-63.5" font-family="Helvetica,sans-Serif" font-size="10.00" fill="#000000">io_common.h</text>
</a>
</g>
</g>
<!-- Node10&#45;&gt;Node11 -->
<g id="edge12" class="edge">
<title>Node10&#45;&gt;Node11</title>
<path fill="none" stroke="#191970" d="M319.3996,-112.2455C326.8561,-104.2155 337.6053,-92.6394 346.4836,-83.0781"/>
<polygon fill="#191970" stroke="#191970" points="349.1482,-85.3522 353.388,-75.6427 344.0187,-80.589 349.1482,-85.3522"/>
</g>
<!-- Node12 -->
<g id="node12" class="node">
<title>Node12</title>
<g id="a_node12"><a xlink:title=" ">
<polygon fill="#ffffff" stroke="#bfbfbf" points="289.8419,-.5 289.8419,-19.5 356.8419,-19.5 356.8419,-.5 289.8419,-.5"/>
<text text-anchor="middle" x="323.3419" y="-7.5" font-family="Helvetica,sans-Serif" font-size="10.00" fill="#000000">sys/fcntl.h</text>
</a>
</g>
</g>
<!-- Node11&#45;&gt;Node12 -->
<g id="edge13" class="edge">
<title>Node11&#45;&gt;Node12</title>
<path fill="none" stroke="#191970" d="M355.5486,-56.2455C350.1241,-48.4564 342.3758,-37.3308 335.8386,-27.9439"/>
<polygon fill="#191970" stroke="#191970" points="338.6445,-25.8485 330.0573,-19.6427 332.9002,-29.849 338.6445,-25.8485"/>
</g>
<!-- Node13 -->
<g id="node13" class="node">
<title>Node13</title>
<g id="a_node13"><a xlink:title=" ">
<polygon fill="#ffffff" stroke="#bfbfbf" points="374.8419,-.5 374.8419,-19.5 449.8419,-19.5 449.8419,-.5 374.8419,-.5"/>
<text text-anchor="middle" x="412.3419" y="-7.5" font-family="Helvetica,sans-Serif" font-size="10.00" fill="#000000">sys/unistd.h</text>
</a>
</g>
</g>
<!-- Node11&#45;&gt;Node13 -->
<g id="edge14" class="edge">
<title>Node11&#45;&gt;Node13</title>
<path fill="none" stroke="#191970" d="M371.0512,-56.2455C378.1492,-48.2958 388.3503,-36.8706 396.8369,-27.3656"/>
<polygon fill="#191970" stroke="#191970" points="399.683,-29.4331 403.7324,-19.6427 394.4614,-24.771 399.683,-29.4331"/>
</g>
</g>
</svg>
