<?xml version="1.0" encoding="UTF-8" standalone="no"?>
<!DOCTYPE svg PUBLIC "-//W3C//DTD SVG 1.1//EN"
 "http://www.w3.org/Graphics/SVG/1.1/DTD/svg11.dtd">
<!-- Generated by graphviz version 2.40.1 (20161225.0304)
 -->
<!-- Title: ee/rpc/filexio/src/fileXio_rpc.c Pages: 1 -->
<svg width="863pt" height="263pt"
 viewBox="0.00 0.00 862.59 263.00" xmlns="http://www.w3.org/2000/svg" xmlns:xlink="http://www.w3.org/1999/xlink">
<g id="graph0" class="graph" transform="scale(1 1) rotate(0) translate(4 259)">
<title>ee/rpc/filexio/src/fileXio_rpc.c</title>
<polygon fill="#ffffff" stroke="transparent" points="-4,4 -4,-259 858.5874,-259 858.5874,4 -4,4"/>
<!-- Node1 -->
<g id="node1" class="node">
<title>Node1</title>
<g id="a_node1"><a xlink:title=" ">
<polygon fill="#bfbfbf" stroke="#000000" points="358.5874,-224.5 358.5874,-254.5 455.5874,-254.5 455.5874,-224.5 358.5874,-224.5"/>
<text text-anchor="start" x="366.5874" y="-242.5" font-family="Helvetica,sans-Serif" font-size="10.00" fill="#000000">ee/rpc/filexio/src</text>
<text text-anchor="middle" x="407.0874" y="-231.5" font-family="Helvetica,sans-Serif" font-size="10.00" fill="#000000">/fileXio_rpc.c</text>
</a>
</g>
</g>
<!-- Node2 -->
<g id="node2" class="node">
<title>Node2</title>
<g id="a_node2"><a xlink:href="tamtypes_8h.html" target="_top" xlink:title=" ">
<polygon fill="#ffffff" stroke="#000000" points="120.0874,-56.5 120.0874,-75.5 192.0874,-75.5 192.0874,-56.5 120.0874,-56.5"/>
<text text-anchor="middle" x="156.0874" y="-63.5" font-family="Helvetica,sans-Serif" font-size="10.00" fill="#000000">tamtypes.h</text>
</a>
</g>
</g>
<!-- Node1&#45;&gt;Node2 -->
<g id="edge1" class="edge">
<title>Node1&#45;&gt;Node2</title>
<path fill="none" stroke="#191970" d="M358.4999,-234.5838C280.5266,-226.2304 131.2284,-208.1946 82.0874,-188 42.6146,-171.7785 23.5692,-169.9697 4.0874,-132 -18.3828,-88.2059 57.0763,-73.4697 109.6024,-68.5122"/>
<polygon fill="#191970" stroke="#191970" points="110.0997,-71.9826 119.766,-67.6454 109.5047,-65.0079 110.0997,-71.9826"/>
</g>
<!-- Node3 -->
<g id="node3" class="node">
<title>Node3</title>
<g id="a_node3"><a xlink:href="kernel_8h.html" target="_top" xlink:title=" ">
<polygon fill="#ffffff" stroke="#000000" points="91.0874,-168.5 91.0874,-187.5 147.0874,-187.5 147.0874,-168.5 91.0874,-168.5"/>
<text text-anchor="middle" x="119.0874" y="-175.5" font-family="Helvetica,sans-Serif" font-size="10.00" fill="#000000">kernel.h</text>
</a>
</g>
</g>
<!-- Node1&#45;&gt;Node3 -->
<g id="edge2" class="edge">
<title>Node1&#45;&gt;Node3</title>
<path fill="none" stroke="#191970" d="M358.4595,-229.7286C308.7737,-219.6487 229.4315,-203.2871 161.0874,-188 159.853,-187.7239 158.5989,-187.4407 157.333,-187.1527"/>
<polygon fill="#191970" stroke="#191970" points="158.0613,-183.7288 147.5295,-184.8832 156.4825,-190.5484 158.0613,-183.7288"/>
</g>
<!-- Node5 -->
<g id="node5" class="node">
<title>Node5</title>
<g id="a_node5"><a xlink:title=" ">
<polygon fill="#ffffff" stroke="#bfbfbf" points="165.0874,-112.5 165.0874,-131.5 221.0874,-131.5 221.0874,-112.5 165.0874,-112.5"/>
<text text-anchor="middle" x="193.0874" y="-119.5" font-family="Helvetica,sans-Serif" font-size="10.00" fill="#000000">stdarg.h</text>
</a>
</g>
</g>
<!-- Node1&#45;&gt;Node5 -->
<g id="edge13" class="edge">
<title>Node1&#45;&gt;Node5</title>
<path fill="none" stroke="#191970" d="M358.457,-234.581C302.0964,-227.7664 214.3385,-213.3338 194.0874,-188 183.8239,-175.1606 184.7478,-155.9891 187.5446,-141.6121"/>
<polygon fill="#191970" stroke="#191970" points="190.9844,-142.2753 189.894,-131.7368 184.1745,-140.6551 190.9844,-142.2753"/>
</g>
<!-- Node7 -->
<g id="node7" class="node">
<title>Node7</title>
<g id="a_node7"><a xlink:href="sifrpc_8h.html" target="_top" xlink:title=" ">
<polygon fill="#ffffff" stroke="#000000" points="203.5874,-168.5 203.5874,-187.5 256.5874,-187.5 256.5874,-168.5 203.5874,-168.5"/>
<text text-anchor="middle" x="230.0874" y="-175.5" font-family="Helvetica,sans-Serif" font-size="10.00" fill="#000000">sifrpc.h</text>
</a>
</g>
</g>
<!-- Node1&#45;&gt;Node7 -->
<g id="edge7" class="edge">
<title>Node1&#45;&gt;Node7</title>
<path fill="none" stroke="#191970" d="M363.7883,-224.4554C333.8512,-214.0535 294.4814,-200.3742 266.2282,-190.5574"/>
<polygon fill="#191970" stroke="#191970" points="267.3268,-187.2339 256.732,-187.2579 265.0293,-193.8462 267.3268,-187.2339"/>
</g>
<!-- Node9 -->
<g id="node9" class="node">
<title>Node9</title>
<g id="a_node9"><a xlink:title=" ">
<polygon fill="#ffffff" stroke="#bfbfbf" points="275.0874,-168.5 275.0874,-187.5 325.0874,-187.5 325.0874,-168.5 275.0874,-168.5"/>
<text text-anchor="middle" x="300.0874" y="-175.5" font-family="Helvetica,sans-Serif" font-size="10.00" fill="#000000">stdio.h</text>
</a>
</g>
</g>
<!-- Node1&#45;&gt;Node9 -->
<g id="edge10" class="edge">
<title>Node1&#45;&gt;Node9</title>
<path fill="none" stroke="#191970" d="M380.9123,-224.4554C363.9987,-214.734 342.1045,-202.15 325.3702,-192.5317"/>
<polygon fill="#191970" stroke="#191970" points="327.0827,-189.4791 316.6686,-187.5303 323.5944,-195.548 327.0827,-189.4791"/>
</g>
<!-- Node10 -->
<g id="node10" class="node">
<title>Node10</title>
<g id="a_node10"><a xlink:title=" ">
<polygon fill="#ffffff" stroke="#bfbfbf" points="343.5874,-168.5 343.5874,-187.5 396.5874,-187.5 396.5874,-168.5 343.5874,-168.5"/>
<text text-anchor="middle" x="370.0874" y="-175.5" font-family="Helvetica,sans-Serif" font-size="10.00" fill="#000000">string.h</text>
</a>
</g>
</g>
<!-- Node1&#45;&gt;Node10 -->
<g id="edge11" class="edge">
<title>Node1&#45;&gt;Node10</title>
<path fill="none" stroke="#191970" d="M397.9413,-224.2977C392.9124,-215.9388 386.6319,-205.4997 381.3083,-196.6509"/>
<polygon fill="#191970" stroke="#191970" points="384.1659,-194.6114 376.0116,-187.8469 378.1677,-198.2201 384.1659,-194.6114"/>
</g>
<!-- Node11 -->
<g id="node11" class="node">
<title>Node11</title>
<g id="a_node11"><a xlink:title=" ">
<polygon fill="#ffffff" stroke="#bfbfbf" points="414.5874,-168.5 414.5874,-187.5 473.5874,-187.5 473.5874,-168.5 414.5874,-168.5"/>
<text text-anchor="middle" x="444.0874" y="-175.5" font-family="Helvetica,sans-Serif" font-size="10.00" fill="#000000">malloc.h</text>
</a>
</g>
</g>
<!-- Node1&#45;&gt;Node11 -->
<g id="edge12" class="edge">
<title>Node1&#45;&gt;Node11</title>
<path fill="none" stroke="#191970" d="M416.2335,-224.2977C421.2625,-215.9388 427.5429,-205.4997 432.8665,-196.6509"/>
<polygon fill="#191970" stroke="#191970" points="436.0071,-198.2201 438.1632,-187.8469 430.0089,-194.6114 436.0071,-198.2201"/>
</g>
<!-- Node12 -->
<g id="node12" class="node">
<title>Node12</title>
<g id="a_node12"><a xlink:title=" ">
<polygon fill="#ffffff" stroke="#bfbfbf" points="491.5874,-168.5 491.5874,-187.5 558.5874,-187.5 558.5874,-168.5 491.5874,-168.5"/>
<text text-anchor="middle" x="525.0874" y="-175.5" font-family="Helvetica,sans-Serif" font-size="10.00" fill="#000000">sys/fcntl.h</text>
</a>
</g>
</g>
<!-- Node1&#45;&gt;Node12 -->
<g id="edge14" class="edge">
<title>Node1&#45;&gt;Node12</title>
<path fill="none" stroke="#191970" d="M435.9535,-224.4554C454.7785,-214.644 479.1984,-201.9167 497.7166,-192.2653"/>
<polygon fill="#191970" stroke="#191970" points="499.5514,-195.2559 506.8016,-187.5303 496.3161,-189.0484 499.5514,-195.2559"/>
</g>
<!-- Node13 -->
<g id="node13" class="node">
<title>Node13</title>
<g id="a_node13"><a xlink:title=" ">
<polygon fill="#ffffff" stroke="#bfbfbf" points="648.0874,-112.5 648.0874,-131.5 712.0874,-131.5 712.0874,-112.5 648.0874,-112.5"/>
<text text-anchor="middle" x="680.0874" y="-119.5" font-family="Helvetica,sans-Serif" font-size="10.00" fill="#000000">sys/stat.h</text>
</a>
</g>
</g>
<!-- Node1&#45;&gt;Node13 -->
<g id="edge15" class="edge">
<title>Node1&#45;&gt;Node13</title>
<path fill="none" stroke="#191970" d="M455.8117,-235.5816C520.9799,-229.3668 631.7407,-215.0811 661.0874,-188 673.7962,-176.2724 678.2033,-156.6498 679.6361,-141.8418"/>
<polygon fill="#191970" stroke="#191970" points="683.1413,-141.8568 680.2402,-131.6669 676.1536,-141.4419 683.1413,-141.8568"/>
</g>
<!-- Node14 -->
<g id="node14" class="node">
<title>Node14</title>
<g id="a_node14"><a xlink:href="ps2sdkapi_8h.html" target="_top" xlink:title=" ">
<polygon fill="#ffffff" stroke="#000000" points="576.5874,-168.5 576.5874,-187.5 651.5874,-187.5 651.5874,-168.5 576.5874,-168.5"/>
<text text-anchor="middle" x="614.0874" y="-175.5" font-family="Helvetica,sans-Serif" font-size="10.00" fill="#000000">ps2sdkapi.h</text>
</a>
</g>
</g>
<!-- Node1&#45;&gt;Node14 -->
<g id="edge16" class="edge">
<title>Node1&#45;&gt;Node14</title>
<path fill="none" stroke="#191970" d="M455.6197,-225.081C490.9239,-214.5921 538.2485,-200.5318 571.9665,-190.5142"/>
<polygon fill="#191970" stroke="#191970" points="573.3764,-193.7466 581.9655,-187.5435 571.3828,-187.0365 573.3764,-193.7466"/>
</g>
<!-- Node17 -->
<g id="node17" class="node">
<title>Node17</title>
<g id="a_node17"><a xlink:href="fileXio__rpc_8h.html" target="_top" xlink:title=" ">
<polygon fill="#ffffff" stroke="#000000" points="708.5874,-168.5 708.5874,-187.5 785.5874,-187.5 785.5874,-168.5 708.5874,-168.5"/>
<text text-anchor="middle" x="747.0874" y="-175.5" font-family="Helvetica,sans-Serif" font-size="10.00" fill="#000000">fileXio_rpc.h</text>
</a>
</g>
</g>
<!-- Node1&#45;&gt;Node17 -->
<g id="edge20" class="edge">
<title>Node1&#45;&gt;Node17</title>
<path fill="none" stroke="#191970" d="M455.6068,-230.9298C512.6939,-220.8147 610.3225,-203.4175 694.0874,-188 695.5263,-187.7352 696.987,-187.4654 698.4615,-187.1923"/>
<polygon fill="#191970" stroke="#191970" points="699.1176,-190.6304 708.3076,-185.3583 697.8358,-183.7487 699.1176,-190.6304"/>
</g>
<!-- Node21 -->
<g id="node21" class="node">
<title>Node21</title>
<g id="a_node21"><a xlink:href="errno_8h.html" target="_top" xlink:title=" ">
<polygon fill="#ffffff" stroke="#000000" points="803.5874,-168.5 803.5874,-187.5 854.5874,-187.5 854.5874,-168.5 803.5874,-168.5"/>
<text text-anchor="middle" x="829.0874" y="-175.5" font-family="Helvetica,sans-Serif" font-size="10.00" fill="#000000">errno.h</text>
</a>
</g>
</g>
<!-- Node1&#45;&gt;Node21 -->
<g id="edge26" class="edge">
<title>Node1&#45;&gt;Node21</title>
<path fill="none" stroke="#191970" d="M455.888,-235.4556C527.9569,-228.9506 667.1411,-214.3559 793.7104,-188.0424"/>
<polygon fill="#191970" stroke="#191970" points="794.513,-191.4502 803.5755,-185.9619 793.0684,-184.6009 794.513,-191.4502"/>
</g>
<!-- Node4 -->
<g id="node4" class="node">
<title>Node4</title>
<g id="a_node4"><a xlink:title=" ">
<polygon fill="#ffffff" stroke="#bfbfbf" points="91.0874,-112.5 91.0874,-131.5 147.0874,-131.5 147.0874,-112.5 91.0874,-112.5"/>
<text text-anchor="middle" x="119.0874" y="-119.5" font-family="Helvetica,sans-Serif" font-size="10.00" fill="#000000">stddef.h</text>
</a>
</g>
</g>
<!-- Node3&#45;&gt;Node4 -->
<g id="edge3" class="edge">
<title>Node3&#45;&gt;Node4</title>
<path fill="none" stroke="#191970" d="M119.0874,-168.2455C119.0874,-160.9382 119.0874,-150.6944 119.0874,-141.7046"/>
<polygon fill="#191970" stroke="#191970" points="122.5875,-141.6426 119.0874,-131.6427 115.5875,-141.6427 122.5875,-141.6426"/>
</g>
<!-- Node3&#45;&gt;Node5 -->
<g id="edge4" class="edge">
<title>Node3&#45;&gt;Node5</title>
<path fill="none" stroke="#191970" d="M131.9772,-168.2455C143.0128,-159.8943 159.1166,-147.7076 172.0228,-137.9408"/>
<polygon fill="#191970" stroke="#191970" points="174.4833,-140.4681 180.3453,-131.6427 170.2592,-134.8862 174.4833,-140.4681"/>
</g>
<!-- Node6 -->
<g id="node6" class="node">
<title>Node6</title>
<g id="a_node6"><a xlink:href="sifdma_8h.html" target="_top" xlink:title=" ">
<polygon fill="#ffffff" stroke="#000000" points="13.5874,-112.5 13.5874,-131.5 72.5874,-131.5 72.5874,-112.5 13.5874,-112.5"/>
<text text-anchor="middle" x="43.0874" y="-119.5" font-family="Helvetica,sans-Serif" font-size="10.00" fill="#000000">sifdma.h</text>
</a>
</g>
</g>
<!-- Node3&#45;&gt;Node6 -->
<g id="edge5" class="edge">
<title>Node3&#45;&gt;Node6</title>
<path fill="none" stroke="#191970" d="M105.8492,-168.2455C94.4064,-159.814 77.6578,-147.4729 64.3399,-137.6598"/>
<polygon fill="#191970" stroke="#191970" points="66.3007,-134.757 56.1739,-131.6427 62.1483,-140.3924 66.3007,-134.757"/>
</g>
<!-- Node6&#45;&gt;Node2 -->
<g id="edge6" class="edge">
<title>Node6&#45;&gt;Node2</title>
<path fill="none" stroke="#191970" d="M62.5128,-112.3733C80.4896,-103.4644 107.4315,-90.1127 127.7965,-80.0203"/>
<polygon fill="#191970" stroke="#191970" points="129.5096,-83.0776 136.9155,-75.5011 126.4013,-76.8055 129.5096,-83.0776"/>
</g>
<!-- Node8 -->
<g id="node8" class="node">
<title>Node8</title>
<g id="a_node8"><a xlink:href="sifcmd_8h.html" target="_top" xlink:title=" ">
<polygon fill="#ffffff" stroke="#000000" points="239.5874,-112.5 239.5874,-131.5 298.5874,-131.5 298.5874,-112.5 239.5874,-112.5"/>
<text text-anchor="middle" x="269.0874" y="-119.5" font-family="Helvetica,sans-Serif" font-size="10.00" fill="#000000">sifcmd.h</text>
</a>
</g>
</g>
<!-- Node7&#45;&gt;Node8 -->
<g id="edge8" class="edge">
<title>Node7&#45;&gt;Node8</title>
<path fill="none" stroke="#191970" d="M236.8807,-168.2455C242.3053,-160.4564 250.0535,-149.3308 256.5907,-139.9439"/>
<polygon fill="#191970" stroke="#191970" points="259.5291,-141.849 262.372,-131.6427 253.7849,-137.8485 259.5291,-141.849"/>
</g>
<!-- Node8&#45;&gt;Node2 -->
<g id="edge9" class="edge">
<title>Node8&#45;&gt;Node2</title>
<path fill="none" stroke="#191970" d="M249.662,-112.3733C231.6853,-103.4644 204.7433,-90.1127 184.3784,-80.0203"/>
<polygon fill="#191970" stroke="#191970" points="185.7736,-76.8055 175.2593,-75.5011 182.6652,-83.0776 185.7736,-76.8055"/>
</g>
<!-- Node14&#45;&gt;Node13 -->
<g id="edge19" class="edge">
<title>Node14&#45;&gt;Node13</title>
<path fill="none" stroke="#191970" d="M625.5837,-168.2455C635.3316,-159.9746 649.5133,-147.9416 660.9672,-138.2232"/>
<polygon fill="#191970" stroke="#191970" points="663.3621,-140.7813 668.7228,-131.6427 658.8333,-135.4437 663.3621,-140.7813"/>
</g>
<!-- Node15 -->
<g id="node15" class="node">
<title>Node15</title>
<g id="a_node15"><a xlink:title=" ">
<polygon fill="#ffffff" stroke="#bfbfbf" points="492.0874,-112.5 492.0874,-131.5 546.0874,-131.5 546.0874,-112.5 492.0874,-112.5"/>
<text text-anchor="middle" x="519.0874" y="-119.5" font-family="Helvetica,sans-Serif" font-size="10.00" fill="#000000">dirent.h</text>
</a>
</g>
</g>
<!-- Node14&#45;&gt;Node15 -->
<g id="edge17" class="edge">
<title>Node14&#45;&gt;Node15</title>
<path fill="none" stroke="#191970" d="M597.5397,-168.2455C582.8275,-159.5731 561.0986,-146.7645 544.2369,-136.825"/>
<polygon fill="#191970" stroke="#191970" points="545.8376,-133.7057 535.4455,-131.6427 542.2828,-139.736 545.8376,-133.7057"/>
</g>
<!-- Node16 -->
<g id="node16" class="node">
<title>Node16</title>
<g id="a_node16"><a xlink:title=" ">
<polygon fill="#ffffff" stroke="#bfbfbf" points="564.5874,-112.5 564.5874,-131.5 629.5874,-131.5 629.5874,-112.5 564.5874,-112.5"/>
<text text-anchor="middle" x="597.0874" y="-119.5" font-family="Helvetica,sans-Serif" font-size="10.00" fill="#000000">inttypes.h</text>
</a>
</g>
</g>
<!-- Node14&#45;&gt;Node16 -->
<g id="edge18" class="edge">
<title>Node14&#45;&gt;Node16</title>
<path fill="none" stroke="#191970" d="M611.1262,-168.2455C608.8836,-160.8579 605.7297,-150.4689 602.9793,-141.4087"/>
<polygon fill="#191970" stroke="#191970" points="606.2686,-140.1948 600.0146,-131.6427 599.5705,-142.2282 606.2686,-140.1948"/>
</g>
<!-- Node17&#45;&gt;Node13 -->
<g id="edge25" class="edge">
<title>Node17&#45;&gt;Node13</title>
<path fill="none" stroke="#191970" d="M735.4169,-168.2455C725.5213,-159.9746 711.1247,-147.9416 699.4973,-138.2232"/>
<polygon fill="#191970" stroke="#191970" points="701.5416,-135.3703 691.6242,-131.6427 697.0524,-140.7413 701.5416,-135.3703"/>
</g>
<!-- Node18 -->
<g id="node18" class="node">
<title>Node18</title>
<g id="a_node18"><a xlink:href="fileXio_8h.html" target="_top" xlink:title=" ">
<polygon fill="#ffffff" stroke="#000000" points="730.0874,-112.5 730.0874,-131.5 786.0874,-131.5 786.0874,-112.5 730.0874,-112.5"/>
<text text-anchor="middle" x="758.0874" y="-119.5" font-family="Helvetica,sans-Serif" font-size="10.00" fill="#000000">fileXio.h</text>
</a>
</g>
</g>
<!-- Node17&#45;&gt;Node18 -->
<g id="edge21" class="edge">
<title>Node17&#45;&gt;Node18</title>
<path fill="none" stroke="#191970" d="M749.0035,-168.2455C750.4388,-160.9382 752.451,-150.6944 754.2169,-141.7046"/>
<polygon fill="#191970" stroke="#191970" points="757.7002,-142.1298 756.1933,-131.6427 750.8314,-140.7805 757.7002,-142.1298"/>
</g>
<!-- Node18&#45;&gt;Node2 -->
<g id="edge22" class="edge">
<title>Node18&#45;&gt;Node2</title>
<path fill="none" stroke="#191970" d="M729.9248,-113.8192C726.9575,-113.1282 723.9717,-112.5028 721.0874,-112 530.4914,-78.7725 299.4404,-69.4509 202.4606,-66.9138"/>
<polygon fill="#191970" stroke="#191970" points="202.4863,-63.4135 192.402,-66.6627 202.3115,-70.4113 202.4863,-63.4135"/>
</g>
<!-- Node19 -->
<g id="node19" class="node">
<title>Node19</title>
<g id="a_node19"><a xlink:href="iox__stat_8h.html" target="_top" xlink:title=" ">
<polygon fill="#ffffff" stroke="#000000" points="725.5874,-56.5 725.5874,-75.5 790.5874,-75.5 790.5874,-56.5 725.5874,-56.5"/>
<text text-anchor="middle" x="758.0874" y="-63.5" font-family="Helvetica,sans-Serif" font-size="10.00" fill="#000000">iox_stat.h</text>
</a>
</g>
</g>
<!-- Node18&#45;&gt;Node19 -->
<g id="edge23" class="edge">
<title>Node18&#45;&gt;Node19</title>
<path fill="none" stroke="#191970" d="M758.0874,-112.2455C758.0874,-104.9382 758.0874,-94.6944 758.0874,-85.7046"/>
<polygon fill="#191970" stroke="#191970" points="761.5875,-85.6426 758.0874,-75.6427 754.5875,-85.6427 761.5875,-85.6426"/>
</g>
<!-- Node20 -->
<g id="node20" class="node">
<title>Node20</title>
<g id="a_node20"><a xlink:title=" ">
<polygon fill="#ffffff" stroke="#bfbfbf" points="724.0874,-.5 724.0874,-19.5 792.0874,-19.5 792.0874,-.5 724.0874,-.5"/>
<text text-anchor="middle" x="758.0874" y="-7.5" font-family="Helvetica,sans-Serif" font-size="10.00" fill="#000000">sys/time.h</text>
</a>
</g>
</g>
<!-- Node19&#45;&gt;Node20 -->
<g id="edge24" class="edge">
<title>Node19&#45;&gt;Node20</title>
<path fill="none" stroke="#191970" d="M758.0874,-56.2455C758.0874,-48.9382 758.0874,-38.6944 758.0874,-29.7046"/>
<polygon fill="#191970" stroke="#191970" points="761.5875,-29.6426 758.0874,-19.6427 754.5875,-29.6427 761.5875,-29.6426"/>
</g>
</g>
</svg>
