<?xml version="1.0" encoding="UTF-8" standalone="no"?>
<!DOCTYPE svg PUBLIC "-//W3C//DTD SVG 1.1//EN"
 "http://www.w3.org/Graphics/SVG/1.1/DTD/svg11.dtd">
<!-- Generated by graphviz version 2.40.1 (20161225.0304)
 -->
<!-- Title: ee/font/src/fontx.c Pages: 1 -->
<!--zoomable 364 -->
<svg id="main" version="1.1" xmlns="http://www.w3.org/2000/svg" xmlns:xlink="http://www.w3.org/1999/xlink" xml:space="preserve" onload="init(evt)">
<style type="text/css"><![CDATA[
.edge:hover path { stroke: red; }
.edge:hover polygon { stroke: red; fill: red; }
]]></style>
<script type="text/javascript"><![CDATA[
var edges = document.getElementsByTagName('g');
if (edges && edges.length) {
  for (var i=0;i<edges.length;i++) {
    if (edges[i].id.substr(0,4)=='edge') {
      edges[i].setAttribute('class','edge');
    }
  }
}
]]></script>
        <defs>
                <circle id="rim" cx="0" cy="0" r="7"/>
                <circle id="rim2" cx="0" cy="0" r="3.5"/>
                <g id="zoomPlus">
                        <use xlink:href="#rim" fill="#404040">
                                <set attributeName="fill" to="#808080" begin="zoomplus.mouseover" end="zoomplus.mouseout"/>
                        </use>
                        <path d="M-4,0h8M0,-4v8" fill="none" stroke="white" stroke-width="1.5" pointer-events="none"/>
                </g>
                <g id="zoomMin">
                        <use xlink:href="#rim" fill="#404040">
                                <set attributeName="fill" to="#808080" begin="zoomminus.mouseover" end="zoomminus.mouseout"/>
                        </use>
                        <path d="M-4,0h8" fill="none" stroke="white" stroke-width="1.5" pointer-events="none"/>
                </g>
                <g id="dirArrow">
                        <path fill="none" stroke="white" stroke-width="1.5" d="M0,-3.0v7 M-2.5,-0.5L0,-3.0L2.5,-0.5"/>
                </g>
               <g id="resetDef">
                       <use xlink:href="#rim2" fill="#404040">
                               <set attributeName="fill" to="#808080" begin="reset.mouseover" end="reset.mouseout"/>
                       </use>
               </g>
        </defs>

<script type="text/javascript">
var viewWidth = 923;
var viewHeight = 364;
var sectionId = 'dynsection-0';
</script>
<script xlink:href="svgpan.js"/>
<svg id="graph" class="graph">
<g id="viewport">
<title>ee/font/src/fontx.c</title>
<polygon fill="#ffffff" stroke="transparent" points="-4,4 -4,-360 919,-360 919,4 -4,4"/>
<!-- Node1 -->
<g id="node1" class="node">
<title>Node1</title>
<g id="a_node1"><a xlink:title=" ">
<polygon fill="#bfbfbf" stroke="#000000" points="255.5,-336.5 255.5,-355.5 360.5,-355.5 360.5,-336.5 255.5,-336.5"/>
<text text-anchor="middle" x="308" y="-343.5" font-family="Helvetica,sans-Serif" font-size="10.00" fill="#000000">ee/font/src/fontx.c</text>
</a>
</g>
</g>
<!-- Node2 -->
<g id="node2" class="node">
<title>Node2</title>
<g id="a_node2"><a xlink:href="draw_8h.html" target="_top" xlink:title=" ">
<polygon fill="#ffffff" stroke="#000000" points="547.5,-224.5 547.5,-243.5 596.5,-243.5 596.5,-224.5 547.5,-224.5"/>
<text text-anchor="middle" x="572" y="-231.5" font-family="Helvetica,sans-Serif" font-size="10.00" fill="#000000">draw.h</text>
</a>
</g>
</g>
<!-- Node1&#45;&gt;Node2 -->
<g id="edge1" class="edge">
<title>Node1&#45;&gt;Node2</title>
<path fill="none" stroke="#191970" d="M265.4817,-336.4571C226.352,-325.7677 177.6589,-306.4138 201,-280 223.1204,-254.9675 449.6142,-240.4468 537.4513,-235.7206"/>
<polygon fill="#191970" stroke="#191970" points="537.6512,-239.215 547.4528,-235.1928 537.2822,-232.2248 537.6512,-239.215"/>
</g>
<!-- Node15 -->
<g id="node15" class="node">
<title>Node15</title>
<g id="a_node15"><a xlink:href="draw3d_8h.html" target="_top" xlink:title=" ">
<polygon fill="#ffffff" stroke="#000000" points="131,-168.5 131,-187.5 193,-187.5 193,-168.5 131,-168.5"/>
<text text-anchor="middle" x="162" y="-175.5" font-family="Helvetica,sans-Serif" font-size="10.00" fill="#000000">draw3d.h</text>
</a>
</g>
</g>
<!-- Node1&#45;&gt;Node15 -->
<g id="edge32" class="edge">
<title>Node1&#45;&gt;Node15</title>
<path fill="none" stroke="#191970" d="M255.2928,-336.6736C232.5134,-330.0666 207.3804,-318.8739 191,-300 165.8908,-271.0685 161.5982,-224.2705 161.3684,-197.8356"/>
<polygon fill="#191970" stroke="#191970" points="164.871,-197.5987 161.479,-187.5616 157.8715,-197.5233 164.871,-197.5987"/>
</g>
<!-- Node16 -->
<g id="node16" class="node">
<title>Node16</title>
<g id="a_node16"><a xlink:href="gif__tags_8h.html" target="_top" xlink:title=" ">
<polygon fill="#ffffff" stroke="#000000" points="53.5,-112.5 53.5,-131.5 118.5,-131.5 118.5,-112.5 53.5,-112.5"/>
<text text-anchor="middle" x="86" y="-119.5" font-family="Helvetica,sans-Serif" font-size="10.00" fill="#000000">gif_tags.h</text>
</a>
</g>
</g>
<!-- Node1&#45;&gt;Node16 -->
<g id="edge33" class="edge">
<title>Node1&#45;&gt;Node16</title>
<path fill="none" stroke="#191970" d="M255.2462,-337.5405C228.6643,-331.0246 197.4081,-319.6561 175,-300 125.0982,-256.2268 99.9701,-177.9007 90.5373,-141.5393"/>
<polygon fill="#191970" stroke="#191970" points="93.8996,-140.5557 88.1037,-131.6867 87.1038,-142.2343 93.8996,-140.5557"/>
</g>
<!-- Node17 -->
<g id="node17" class="node">
<title>Node17</title>
<g id="a_node17"><a xlink:href="gs__gp_8h.html" target="_top" xlink:title=" ">
<polygon fill="#ffffff" stroke="#000000" points="0,-224.5 0,-243.5 54,-243.5 54,-224.5 0,-224.5"/>
<text text-anchor="middle" x="27" y="-231.5" font-family="Helvetica,sans-Serif" font-size="10.00" fill="#000000">gs_gp.h</text>
</a>
</g>
</g>
<!-- Node1&#45;&gt;Node17 -->
<g id="edge34" class="edge">
<title>Node1&#45;&gt;Node17</title>
<path fill="none" stroke="#191970" d="M255.4542,-339.4029C198.1328,-331.4962 110.7035,-317.1445 82,-300 62.7003,-288.4724 47.0617,-267.6415 37.4629,-252.4575"/>
<polygon fill="#191970" stroke="#191970" points="40.4461,-250.6267 32.2881,-243.8667 34.4499,-254.2387 40.4461,-250.6267"/>
</g>
<!-- Node18 -->
<g id="node18" class="node">
<title>Node18</title>
<g id="a_node18"><a xlink:title=" ">
<polygon fill="#ffffff" stroke="#bfbfbf" points="210,-280.5 210,-299.5 260,-299.5 260,-280.5 210,-280.5"/>
<text text-anchor="middle" x="235" y="-287.5" font-family="Helvetica,sans-Serif" font-size="10.00" fill="#000000">stdio.h</text>
</a>
</g>
</g>
<!-- Node1&#45;&gt;Node18 -->
<g id="edge36" class="edge">
<title>Node1&#45;&gt;Node18</title>
<path fill="none" stroke="#191970" d="M295.2844,-336.2455C284.398,-327.8943 268.5117,-315.7076 255.78,-305.9408"/>
<polygon fill="#191970" stroke="#191970" points="257.6346,-302.9523 247.5699,-299.6427 253.3739,-308.5063 257.6346,-302.9523"/>
</g>
<!-- Node19 -->
<g id="node19" class="node">
<title>Node19</title>
<g id="a_node19"><a xlink:title=" ">
<polygon fill="#ffffff" stroke="#bfbfbf" points="278.5,-280.5 278.5,-299.5 337.5,-299.5 337.5,-280.5 278.5,-280.5"/>
<text text-anchor="middle" x="308" y="-287.5" font-family="Helvetica,sans-Serif" font-size="10.00" fill="#000000">malloc.h</text>
</a>
</g>
</g>
<!-- Node1&#45;&gt;Node19 -->
<g id="edge37" class="edge">
<title>Node1&#45;&gt;Node19</title>
<path fill="none" stroke="#191970" d="M308,-336.2455C308,-328.9382 308,-318.6944 308,-309.7046"/>
<polygon fill="#191970" stroke="#191970" points="311.5001,-309.6426 308,-299.6427 304.5001,-309.6427 311.5001,-309.6426"/>
</g>
<!-- Node20 -->
<g id="node20" class="node">
<title>Node20</title>
<g id="a_node20"><a xlink:title=" ">
<polygon fill="#ffffff" stroke="#bfbfbf" points="355.5,-280.5 355.5,-299.5 422.5,-299.5 422.5,-280.5 355.5,-280.5"/>
<text text-anchor="middle" x="389" y="-287.5" font-family="Helvetica,sans-Serif" font-size="10.00" fill="#000000">sys/fcntl.h</text>
</a>
</g>
</g>
<!-- Node1&#45;&gt;Node20 -->
<g id="edge38" class="edge">
<title>Node1&#45;&gt;Node20</title>
<path fill="none" stroke="#191970" d="M322.1091,-336.2455C334.4209,-327.7337 352.4958,-315.2375 366.7538,-305.3801"/>
<polygon fill="#191970" stroke="#191970" points="368.8174,-308.2085 375.0526,-299.6427 364.8366,-302.4506 368.8174,-308.2085"/>
</g>
<!-- Node21 -->
<g id="node21" class="node">
<title>Node21</title>
<g id="a_node21"><a xlink:title=" ">
<polygon fill="#ffffff" stroke="#bfbfbf" points="440.5,-280.5 440.5,-299.5 493.5,-299.5 493.5,-280.5 440.5,-280.5"/>
<text text-anchor="middle" x="467" y="-287.5" font-family="Helvetica,sans-Serif" font-size="10.00" fill="#000000">string.h</text>
</a>
</g>
</g>
<!-- Node1&#45;&gt;Node21 -->
<g id="edge39" class="edge">
<title>Node1&#45;&gt;Node21</title>
<path fill="none" stroke="#191970" d="M335.3331,-336.3733C361.6229,-327.114 401.5394,-313.0553 430.5299,-302.8448"/>
<polygon fill="#191970" stroke="#191970" points="432.0189,-306.0312 440.2882,-299.4079 429.6934,-299.4287 432.0189,-306.0312"/>
</g>
<!-- Node22 -->
<g id="node22" class="node">
<title>Node22</title>
<g id="a_node22"><a xlink:title=" ">
<polygon fill="#ffffff" stroke="#bfbfbf" points="511.5,-280.5 511.5,-299.5 558.5,-299.5 558.5,-280.5 511.5,-280.5"/>
<text text-anchor="middle" x="535" y="-287.5" font-family="Helvetica,sans-Serif" font-size="10.00" fill="#000000">fcntl.h</text>
</a>
</g>
</g>
<!-- Node1&#45;&gt;Node22 -->
<g id="edge40" class="edge">
<title>Node1&#45;&gt;Node22</title>
<path fill="none" stroke="#191970" d="M351.7256,-336.4385C389.0145,-328.1037 444.2502,-315.3328 501.3345,-300.0604"/>
<polygon fill="#191970" stroke="#191970" points="502.513,-303.3677 511.2571,-297.3851 500.6907,-296.6091 502.513,-303.3677"/>
</g>
<!-- Node23 -->
<g id="node23" class="node">
<title>Node23</title>
<g id="a_node23"><a xlink:title=" ">
<polygon fill="#ffffff" stroke="#bfbfbf" points="577,-280.5 577,-299.5 633,-299.5 633,-280.5 577,-280.5"/>
<text text-anchor="middle" x="605" y="-287.5" font-family="Helvetica,sans-Serif" font-size="10.00" fill="#000000">unistd.h</text>
</a>
</g>
</g>
<!-- Node1&#45;&gt;Node23 -->
<g id="edge41" class="edge">
<title>Node1&#45;&gt;Node23</title>
<path fill="none" stroke="#191970" d="M360.8299,-337.9119C413.3465,-329.5681 496.0823,-315.6018 567,-300 567.0999,-299.978 567.2,-299.9559 567.3002,-299.9338"/>
<polygon fill="#191970" stroke="#191970" points="567.9109,-303.3859 576.8404,-297.6838 566.304,-296.5728 567.9109,-303.3859"/>
</g>
<!-- Node24 -->
<g id="node24" class="node">
<title>Node24</title>
<g id="a_node24"><a xlink:href="font_8h.html" target="_top" xlink:title=" ">
<polygon fill="#ffffff" stroke="#000000" points="651.5,-280.5 651.5,-299.5 696.5,-299.5 696.5,-280.5 651.5,-280.5"/>
<text text-anchor="middle" x="674" y="-287.5" font-family="Helvetica,sans-Serif" font-size="10.00" fill="#000000">font.h</text>
</a>
</g>
</g>
<!-- Node1&#45;&gt;Node24 -->
<g id="edge42" class="edge">
<title>Node1&#45;&gt;Node24</title>
<path fill="none" stroke="#191970" d="M360.5465,-341.4848C424.7439,-335.3664 536.7089,-322.7524 641.5991,-299.7566"/>
<polygon fill="#191970" stroke="#191970" points="642.401,-303.1638 651.4003,-297.5724 640.8784,-296.3314 642.401,-303.1638"/>
</g>
<!-- Node3 -->
<g id="node3" class="node">
<title>Node3</title>
<g id="a_node3"><a xlink:href="tamtypes_8h.html" target="_top" xlink:title=" ">
<polygon fill="#ffffff" stroke="#000000" points="405,-.5 405,-19.5 477,-19.5 477,-.5 405,-.5"/>
<text text-anchor="middle" x="441" y="-7.5" font-family="Helvetica,sans-Serif" font-size="10.00" fill="#000000">tamtypes.h</text>
</a>
</g>
</g>
<!-- Node2&#45;&gt;Node3 -->
<g id="edge2" class="edge">
<title>Node2&#45;&gt;Node3</title>
<path fill="none" stroke="#191970" d="M575.1099,-224.1915C581.4617,-202.1615 593.5175,-147.8824 571,-112 551.7714,-81.3585 526.6158,-98.1309 498,-76 480.3162,-62.3238 464.0692,-42.4672 453.4845,-28.1095"/>
<polygon fill="#191970" stroke="#191970" points="456.0536,-25.6851 447.3884,-19.5888 450.3605,-29.7582 456.0536,-25.6851"/>
</g>
<!-- Node4 -->
<g id="node4" class="node">
<title>Node4</title>
<g id="a_node4"><a xlink:href="draw__blending_8h.html" target="_top" xlink:title=" ">
<polygon fill="#ffffff" stroke="#000000" points="507.5,-56.5 507.5,-75.5 604.5,-75.5 604.5,-56.5 507.5,-56.5"/>
<text text-anchor="middle" x="556" y="-63.5" font-family="Helvetica,sans-Serif" font-size="10.00" fill="#000000">draw_blending.h</text>
</a>
</g>
</g>
<!-- Node2&#45;&gt;Node4 -->
<g id="edge3" class="edge">
<title>Node2&#45;&gt;Node4</title>
<path fill="none" stroke="#191970" d="M581.6492,-224.4346C589.65,-215.7723 600.4262,-202.2221 605,-188 615.3412,-155.8442 618.4171,-142.9987 605,-112 599.7663,-99.9081 589.6158,-89.5335 579.9045,-81.7139"/>
<polygon fill="#191970" stroke="#191970" points="581.7234,-78.7038 571.618,-75.5209 577.5329,-84.3109 581.7234,-78.7038"/>
</g>
<!-- Node5 -->
<g id="node5" class="node">
<title>Node5</title>
<g id="a_node5"><a xlink:href="draw__buffers_8h.html" target="_top" xlink:title=" ">
<polygon fill="#ffffff" stroke="#000000" points="473.5,-112.5 473.5,-131.5 562.5,-131.5 562.5,-112.5 473.5,-112.5"/>
<text text-anchor="middle" x="518" y="-119.5" font-family="Helvetica,sans-Serif" font-size="10.00" fill="#000000">draw_buffers.h</text>
</a>
</g>
</g>
<!-- Node2&#45;&gt;Node5 -->
<g id="edge5" class="edge">
<title>Node2&#45;&gt;Node5</title>
<path fill="none" stroke="#191970" d="M567.396,-224.4509C558.4691,-205.936 538.6642,-164.8591 527.0251,-140.7187"/>
<polygon fill="#191970" stroke="#191970" points="530.0881,-139.0125 522.5924,-131.5249 523.7827,-142.0527 530.0881,-139.0125"/>
</g>
<!-- Node6 -->
<g id="node6" class="node">
<title>Node6</title>
<g id="a_node6"><a xlink:href="draw__dithering_8h.html" target="_top" xlink:title=" ">
<polygon fill="#ffffff" stroke="#000000" points="623,-56.5 623,-75.5 721,-75.5 721,-56.5 623,-56.5"/>
<text text-anchor="middle" x="672" y="-63.5" font-family="Helvetica,sans-Serif" font-size="10.00" fill="#000000">draw_dithering.h</text>
</a>
</g>
</g>
<!-- Node2&#45;&gt;Node6 -->
<g id="edge7" class="edge">
<title>Node2&#45;&gt;Node6</title>
<path fill="none" stroke="#191970" d="M585.4198,-224.3407C596.4642,-215.8191 611.8933,-202.5223 622,-188 644.7801,-155.2674 659.7114,-110.5838 666.9265,-85.3753"/>
<polygon fill="#191970" stroke="#191970" points="670.3473,-86.1354 669.6231,-75.5653 663.5977,-84.2799 670.3473,-86.1354"/>
</g>
<!-- Node7 -->
<g id="node7" class="node">
<title>Node7</title>
<g id="a_node7"><a xlink:href="draw__fog_8h.html" target="_top" xlink:title=" ">
<polygon fill="#ffffff" stroke="#000000" points="739.5,-56.5 739.5,-75.5 810.5,-75.5 810.5,-56.5 739.5,-56.5"/>
<text text-anchor="middle" x="775" y="-63.5" font-family="Helvetica,sans-Serif" font-size="10.00" fill="#000000">draw_fog.h</text>
</a>
</g>
</g>
<!-- Node2&#45;&gt;Node7 -->
<g id="edge9" class="edge">
<title>Node2&#45;&gt;Node7</title>
<path fill="none" stroke="#191970" d="M588.0689,-224.4661C602.5907,-215.6137 624.3337,-201.7629 642,-188 686.3849,-153.4221 733.9406,-107.3275 758.3814,-82.8851"/>
<polygon fill="#191970" stroke="#191970" points="760.9039,-85.312 765.4711,-75.7521 755.9392,-80.3773 760.9039,-85.312"/>
</g>
<!-- Node8 -->
<g id="node8" class="node">
<title>Node8</title>
<g id="a_node8"><a xlink:href="draw__masking_8h.html" target="_top" xlink:title=" ">
<polygon fill="#ffffff" stroke="#000000" points="746.5,-112.5 746.5,-131.5 843.5,-131.5 843.5,-112.5 746.5,-112.5"/>
<text text-anchor="middle" x="795" y="-119.5" font-family="Helvetica,sans-Serif" font-size="10.00" fill="#000000">draw_masking.h</text>
</a>
</g>
</g>
<!-- Node2&#45;&gt;Node8 -->
<g id="edge11" class="edge">
<title>Node2&#45;&gt;Node8</title>
<path fill="none" stroke="#191970" d="M596.6335,-230.3297C628.2902,-224.8149 684.1495,-212.337 726,-188 747.8018,-175.3217 768.0603,-154.4022 780.9096,-139.5148"/>
<polygon fill="#191970" stroke="#191970" points="783.8385,-141.4686 787.5745,-131.5543 778.4713,-136.9749 783.8385,-141.4686"/>
</g>
<!-- Node9 -->
<g id="node9" class="node">
<title>Node9</title>
<g id="a_node9"><a xlink:href="draw__primitives_8h.html" target="_top" xlink:title=" ">
<polygon fill="#ffffff" stroke="#000000" points="313,-112.5 313,-131.5 417,-131.5 417,-112.5 313,-112.5"/>
<text text-anchor="middle" x="365" y="-119.5" font-family="Helvetica,sans-Serif" font-size="10.00" fill="#000000">draw_primitives.h</text>
</a>
</g>
</g>
<!-- Node2&#45;&gt;Node9 -->
<g id="edge13" class="edge">
<title>Node2&#45;&gt;Node9</title>
<path fill="none" stroke="#191970" d="M547.335,-228.9728C519.0172,-222.4728 471.8618,-209.3767 436,-188 414.2481,-175.034 393.5378,-154.5088 380.1594,-139.79"/>
<polygon fill="#191970" stroke="#191970" points="382.4241,-137.0675 373.1772,-131.8958 377.1807,-141.7051 382.4241,-137.0675"/>
</g>
<!-- Node10 -->
<g id="node10" class="node">
<title>Node10</title>
<g id="a_node10"><a xlink:href="draw__sampling_8h.html" target="_top" xlink:title=" ">
<polygon fill="#ffffff" stroke="#000000" points="786,-168.5 786,-187.5 886,-187.5 886,-168.5 786,-168.5"/>
<text text-anchor="middle" x="836" y="-175.5" font-family="Helvetica,sans-Serif" font-size="10.00" fill="#000000">draw_sampling.h</text>
</a>
</g>
</g>
<!-- Node2&#45;&gt;Node10 -->
<g id="edge15" class="edge">
<title>Node2&#45;&gt;Node10</title>
<path fill="none" stroke="#191970" d="M596.8365,-228.7317C638.7327,-219.8446 724.4098,-201.6706 781.0196,-189.6625"/>
<polygon fill="#191970" stroke="#191970" points="781.8303,-193.0685 790.8863,-187.5696 780.3777,-186.2209 781.8303,-193.0685"/>
</g>
<!-- Node11 -->
<g id="node11" class="node">
<title>Node11</title>
<g id="a_node11"><a xlink:href="draw__tests_8h.html" target="_top" xlink:title=" ">
<polygon fill="#ffffff" stroke="#000000" points="445.5,-168.5 445.5,-187.5 524.5,-187.5 524.5,-168.5 445.5,-168.5"/>
<text text-anchor="middle" x="485" y="-175.5" font-family="Helvetica,sans-Serif" font-size="10.00" fill="#000000">draw_tests.h</text>
</a>
</g>
</g>
<!-- Node2&#45;&gt;Node11 -->
<g id="edge17" class="edge">
<title>Node2&#45;&gt;Node11</title>
<path fill="none" stroke="#191970" d="M556.8458,-224.2455C543.4973,-215.6534 523.8414,-203.0014 508.4617,-193.1018"/>
<polygon fill="#191970" stroke="#191970" points="510.2836,-190.1121 499.9806,-187.6427 506.4949,-195.9982 510.2836,-190.1121"/>
</g>
<!-- Node12 -->
<g id="node12" class="node">
<title>Node12</title>
<g id="a_node12"><a xlink:href="draw__types_8h.html" target="_top" xlink:title=" ">
<polygon fill="#ffffff" stroke="#000000" points="175,-112.5 175,-131.5 257,-131.5 257,-112.5 175,-112.5"/>
<text text-anchor="middle" x="216" y="-119.5" font-family="Helvetica,sans-Serif" font-size="10.00" fill="#000000">draw_types.h</text>
</a>
</g>
</g>
<!-- Node2&#45;&gt;Node12 -->
<g id="edge20" class="edge">
<title>Node2&#45;&gt;Node12</title>
<path fill="none" stroke="#191970" d="M547.3247,-233.5639C479.5896,-231.9053 292.6413,-224.0877 245,-188 230.389,-176.9324 223.0043,-156.9275 219.3597,-141.8334"/>
<polygon fill="#191970" stroke="#191970" points="222.7611,-140.9975 217.3171,-131.9084 215.9048,-142.4086 222.7611,-140.9975"/>
</g>
<!-- Node14 -->
<g id="node14" class="node">
<title>Node14</title>
<g id="a_node14"><a xlink:href="draw2d_8h.html" target="_top" xlink:title=" ">
<polygon fill="#ffffff" stroke="#000000" points="254,-168.5 254,-187.5 316,-187.5 316,-168.5 254,-168.5"/>
<text text-anchor="middle" x="285" y="-175.5" font-family="Helvetica,sans-Serif" font-size="10.00" fill="#000000">draw2d.h</text>
</a>
</g>
</g>
<!-- Node2&#45;&gt;Node14 -->
<g id="edge23" class="edge">
<title>Node2&#45;&gt;Node14</title>
<path fill="none" stroke="#191970" d="M547.2821,-229.177C497.9256,-219.5465 386.7167,-197.8472 326.1696,-186.0331"/>
<polygon fill="#191970" stroke="#191970" points="326.6771,-182.5662 316.1919,-184.0862 325.3365,-189.4366 326.6771,-182.5662"/>
</g>
<!-- Node2&#45;&gt;Node15 -->
<g id="edge26" class="edge">
<title>Node2&#45;&gt;Node15</title>
<path fill="none" stroke="#191970" d="M547.3217,-231.5441C488.6354,-225.5559 336.2153,-209.1327 210,-188 207.7831,-187.6288 205.5128,-187.2278 203.2238,-186.8071"/>
<polygon fill="#191970" stroke="#191970" points="203.6571,-183.3262 193.1749,-184.8675 202.3304,-190.1993 203.6571,-183.3262"/>
</g>
<!-- Node4&#45;&gt;Node3 -->
<g id="edge4" class="edge">
<title>Node4&#45;&gt;Node3</title>
<path fill="none" stroke="#191970" d="M536.2308,-56.3733C517.8531,-47.4241 490.2688,-33.9917 469.5107,-23.8835"/>
<polygon fill="#191970" stroke="#191970" points="471.0343,-20.7325 460.5112,-19.5011 467.9696,-27.026 471.0343,-20.7325"/>
</g>
<!-- Node5&#45;&gt;Node3 -->
<g id="edge6" class="edge">
<title>Node5&#45;&gt;Node3</title>
<path fill="none" stroke="#191970" d="M503.1156,-112.28C491.3347,-103.9111 475.217,-90.8581 465,-76 455.2971,-61.8895 449.0168,-43.3956 445.3243,-29.5755"/>
<polygon fill="#191970" stroke="#191970" points="448.6766,-28.5498 442.9017,-19.6672 441.8769,-30.2123 448.6766,-28.5498"/>
</g>
<!-- Node6&#45;&gt;Node3 -->
<g id="edge8" class="edge">
<title>Node6&#45;&gt;Node3</title>
<path fill="none" stroke="#191970" d="M632.5522,-56.4369C592.23,-46.6618 529.6465,-31.4901 487.0731,-21.1692"/>
<polygon fill="#191970" stroke="#191970" points="487.7847,-17.7404 477.2416,-18.7858 486.1354,-24.5434 487.7847,-17.7404"/>
</g>
<!-- Node7&#45;&gt;Node3 -->
<g id="edge10" class="edge">
<title>Node7&#45;&gt;Node3</title>
<path fill="none" stroke="#191970" d="M739.1793,-57.8338C736.0795,-57.1897 732.9874,-56.5691 730,-56 644.7253,-39.754 544.539,-24.7025 487.3344,-16.4882"/>
<polygon fill="#191970" stroke="#191970" points="487.5612,-12.9852 477.1666,-15.0353 486.5709,-19.9148 487.5612,-12.9852"/>
</g>
<!-- Node8&#45;&gt;Node3 -->
<g id="edge12" class="edge">
<title>Node8&#45;&gt;Node3</title>
<path fill="none" stroke="#191970" d="M804.1689,-112.3679C816.3243,-98.4311 834.6256,-72.5081 820,-56 798.239,-31.4382 583.3472,-17.35 487.1474,-12.2294"/>
<polygon fill="#191970" stroke="#191970" points="487.2885,-8.7321 477.1194,-11.7053 486.9231,-15.7225 487.2885,-8.7321"/>
</g>
<!-- Node9&#45;&gt;Node3 -->
<g id="edge14" class="edge">
<title>Node9&#45;&gt;Node3</title>
<path fill="none" stroke="#191970" d="M366.9252,-112.3489C369.9552,-98.8408 376.7878,-73.9405 389,-56 396.8422,-44.4793 408.2082,-33.9817 418.3151,-25.9331"/>
<polygon fill="#191970" stroke="#191970" points="420.5642,-28.6198 426.4038,-19.7796 416.3259,-23.0487 420.5642,-28.6198"/>
</g>
<!-- Node10&#45;&gt;Node3 -->
<g id="edge16" class="edge">
<title>Node10&#45;&gt;Node3</title>
<path fill="none" stroke="#191970" d="M840.6849,-168.4115C844.8602,-159.2959 850.6614,-145.0744 853,-132 859.0944,-97.9283 862.5621,-78.1919 836,-56 809.6735,-34.0049 586.1233,-18.4352 487.4669,-12.5721"/>
<polygon fill="#191970" stroke="#191970" points="487.3833,-9.0612 477.1956,-11.97 486.9736,-16.0493 487.3833,-9.0612"/>
</g>
<!-- Node11&#45;&gt;Node3 -->
<g id="edge18" class="edge">
<title>Node11&#45;&gt;Node3</title>
<path fill="none" stroke="#191970" d="M479.9111,-168.3611C475.2468,-159.2099 468.4143,-144.9643 464,-132 452.1251,-97.1246 445.854,-54.4319 442.9975,-29.9091"/>
<polygon fill="#191970" stroke="#191970" points="446.4509,-29.2905 441.8886,-19.7283 439.4921,-30.0485 446.4509,-29.2905"/>
</g>
<!-- Node11&#45;&gt;Node5 -->
<g id="edge19" class="edge">
<title>Node11&#45;&gt;Node5</title>
<path fill="none" stroke="#191970" d="M490.7482,-168.2455C495.2435,-160.617 501.6248,-149.7881 507.0825,-140.5267"/>
<polygon fill="#191970" stroke="#191970" points="510.2561,-142.035 512.3177,-131.6427 504.2253,-138.4811 510.2561,-142.035"/>
</g>
<!-- Node13 -->
<g id="node13" class="node">
<title>Node13</title>
<g id="a_node13"><a xlink:href="math3d_8h.html" target="_top" xlink:title=" ">
<polygon fill="#ffffff" stroke="#000000" points="189.5,-56.5 189.5,-75.5 252.5,-75.5 252.5,-56.5 189.5,-56.5"/>
<text text-anchor="middle" x="221" y="-63.5" font-family="Helvetica,sans-Serif" font-size="10.00" fill="#000000">math3d.h</text>
</a>
</g>
</g>
<!-- Node12&#45;&gt;Node13 -->
<g id="edge21" class="edge">
<title>Node12&#45;&gt;Node13</title>
<path fill="none" stroke="#191970" d="M216.8709,-112.2455C217.5234,-104.9382 218.438,-94.6944 219.2407,-85.7046"/>
<polygon fill="#191970" stroke="#191970" points="222.7358,-85.9143 220.139,-75.6427 215.7635,-85.2918 222.7358,-85.9143"/>
</g>
<!-- Node13&#45;&gt;Node3 -->
<g id="edge22" class="edge">
<title>Node13&#45;&gt;Node3</title>
<path fill="none" stroke="#191970" d="M252.5206,-57.9766C289.8087,-48.4851 352.2014,-32.6033 394.9117,-21.7316"/>
<polygon fill="#191970" stroke="#191970" points="395.9537,-25.078 404.7813,-19.2193 394.2269,-18.2943 395.9537,-25.078"/>
</g>
<!-- Node14&#45;&gt;Node3 -->
<g id="edge24" class="edge">
<title>Node14&#45;&gt;Node3</title>
<path fill="none" stroke="#191970" d="M285.9201,-168.2588C287.6011,-154.6435 292.1629,-129.6167 304,-112 331.1274,-71.6272 379.7375,-41.1151 411.163,-24.4026"/>
<polygon fill="#191970" stroke="#191970" points="413.0485,-27.3678 420.3212,-19.6634 409.8313,-21.1509 413.0485,-27.3678"/>
</g>
<!-- Node14&#45;&gt;Node12 -->
<g id="edge25" class="edge">
<title>Node14&#45;&gt;Node12</title>
<path fill="none" stroke="#191970" d="M272.9811,-168.2455C262.7902,-159.9746 247.9638,-147.9416 235.9893,-138.2232"/>
<polygon fill="#191970" stroke="#191970" points="237.8514,-135.2268 227.8812,-131.6427 233.4402,-140.662 237.8514,-135.2268"/>
</g>
<!-- Node15&#45;&gt;Node3 -->
<g id="edge27" class="edge">
<title>Node15&#45;&gt;Node3</title>
<path fill="none" stroke="#191970" d="M159.9065,-168.2877C155.5158,-144.9821 148.2034,-85.6297 180,-56 210.4343,-27.6398 328.0956,-16.3932 394.5732,-12.2337"/>
<polygon fill="#191970" stroke="#191970" points="395.0077,-15.7141 404.7818,-11.6254 394.5913,-8.7265 395.0077,-15.7141"/>
</g>
<!-- Node15&#45;&gt;Node9 -->
<g id="edge28" class="edge">
<title>Node15&#45;&gt;Node9</title>
<path fill="none" stroke="#191970" d="M193.2739,-169.3727C227.2711,-159.9942 281.8856,-144.9281 320.3803,-134.3089"/>
<polygon fill="#191970" stroke="#191970" points="321.5787,-137.6091 330.2878,-131.5758 319.7171,-130.8612 321.5787,-137.6091"/>
</g>
<!-- Node15&#45;&gt;Node12 -->
<g id="edge29" class="edge">
<title>Node15&#45;&gt;Node12</title>
<path fill="none" stroke="#191970" d="M171.4061,-168.2455C179.1493,-160.2155 190.312,-148.6394 199.5318,-139.0781"/>
<polygon fill="#191970" stroke="#191970" points="202.2798,-141.2706 206.7017,-131.6427 197.2409,-136.4117 202.2798,-141.2706"/>
</g>
<!-- Node15&#45;&gt;Node16 -->
<g id="edge30" class="edge">
<title>Node15&#45;&gt;Node16</title>
<path fill="none" stroke="#191970" d="M148.7618,-168.2455C137.319,-159.814 120.5704,-147.4729 107.2525,-137.6598"/>
<polygon fill="#191970" stroke="#191970" points="109.2133,-134.757 99.0865,-131.6427 105.0609,-140.3924 109.2133,-134.757"/>
</g>
<!-- Node16&#45;&gt;Node3 -->
<g id="edge31" class="edge">
<title>Node16&#45;&gt;Node3</title>
<path fill="none" stroke="#191970" d="M89.8261,-112.4856C96.3086,-97.707 110.9358,-69.5313 133,-56 175.9728,-29.6461 319.7695,-17.278 394.7011,-12.5041"/>
<polygon fill="#191970" stroke="#191970" points="395.0344,-15.9902 404.7995,-11.8802 394.6027,-9.0036 395.0344,-15.9902"/>
</g>
<!-- Node17&#45;&gt;Node3 -->
<g id="edge35" class="edge">
<title>Node17&#45;&gt;Node3</title>
<path fill="none" stroke="#191970" d="M26.146,-224.4315C24.6686,-202.8928 23.5306,-149.5541 44,-112 62.2494,-78.5189 74.2514,-71.7022 109,-56 134.5155,-44.4701 309.3333,-24.2751 394.526,-14.9622"/>
<polygon fill="#191970" stroke="#191970" points="395.1381,-18.4163 404.7009,-13.8551 394.3809,-11.4574 395.1381,-18.4163"/>
</g>
<!-- Node24&#45;&gt;Node2 -->
<g id="edge43" class="edge">
<title>Node24&#45;&gt;Node2</title>
<path fill="none" stroke="#191970" d="M656.233,-280.2455C640.2905,-271.4928 616.6741,-258.527 598.5011,-248.5496"/>
<polygon fill="#191970" stroke="#191970" points="600.0137,-245.3873 589.5634,-243.6427 596.6448,-251.5233 600.0137,-245.3873"/>
</g>
<!-- Node24&#45;&gt;Node3 -->
<g id="edge44" class="edge">
<title>Node24&#45;&gt;Node3</title>
<path fill="none" stroke="#191970" d="M696.6727,-284.6176C756.6663,-269.7199 915,-225.868 915,-178 915,-178 915,-178 915,-122 915,-83.2415 892.304,-74.0405 858,-56 794.5449,-22.6289 582.0744,-13.3798 487.3081,-10.8876"/>
<polygon fill="#191970" stroke="#191970" points="487.2449,-7.385 477.1608,-10.6349 487.0705,-14.3828 487.2449,-7.385"/>
</g>
</g>
</svg>
        <g id="navigator" transform="translate(0 0)" fill="#404254">
                <rect fill="#f2f5e9" fill-opacity="0.5" stroke="#606060" stroke-width=".5" x="0" y="0" width="60" height="60"/>
                <use id="zoomplus" xlink:href="#zoomPlus" x="17" y="9" onmousedown="handleZoom(evt,'in')"/>
                <use id="zoomminus" xlink:href="#zoomMin" x="42" y="9" onmousedown="handleZoom(evt,'out')"/>
                <use id="reset" xlink:href="#resetDef" x="30" y="36" onmousedown="handleReset()"/>
                <g id="arrowUp" xlink:href="#dirArrow" transform="translate(30 24)" onmousedown="handlePan(0,-1)">
                  <use xlink:href="#rim" fill="#404040">
                        <set attributeName="fill" to="#808080" begin="arrowUp.mouseover" end="arrowUp.mouseout"/>
                  </use>
                  <path fill="none" stroke="white" stroke-width="1.5" d="M0,-3.0v7 M-2.5,-0.5L0,-3.0L2.5,-0.5"/>
                </g>
                <g id="arrowRight" xlink:href="#dirArrow" transform="rotate(90) translate(36 -43)" onmousedown="handlePan(1,0)">
                  <use xlink:href="#rim" fill="#404040">
                        <set attributeName="fill" to="#808080" begin="arrowRight.mouseover" end="arrowRight.mouseout"/>
                  </use>
                  <path fill="none" stroke="white" stroke-width="1.5" d="M0,-3.0v7 M-2.5,-0.5L0,-3.0L2.5,-0.5"/>
                </g>
                <g id="arrowDown" xlink:href="#dirArrow" transform="rotate(180) translate(-30 -48)" onmousedown="handlePan(0,1)">
                  <use xlink:href="#rim" fill="#404040">
                        <set attributeName="fill" to="#808080" begin="arrowDown.mouseover" end="arrowDown.mouseout"/>
                  </use>
                  <path fill="none" stroke="white" stroke-width="1.5" d="M0,-3.0v7 M-2.5,-0.5L0,-3.0L2.5,-0.5"/>
                </g>
                <g id="arrowLeft" xlink:href="#dirArrow" transform="rotate(270) translate(-36 17)" onmousedown="handlePan(-1,0)">
                  <use xlink:href="#rim" fill="#404040">
                        <set attributeName="fill" to="#808080" begin="arrowLeft.mouseover" end="arrowLeft.mouseout"/>
                  </use>
                  <path fill="none" stroke="white" stroke-width="1.5" d="M0,-3.0v7 M-2.5,-0.5L0,-3.0L2.5,-0.5"/>
                </g>
        </g>
        <svg viewBox="0 0 15 15" width="100%" height="30px" preserveAspectRatio="xMaxYMin meet">
         <g id="arrow_out" transform="scale(0.3 0.3)">
          <a xlink:href="fontx_8c__incl_org.svg" target="_base">
           <rect id="button" ry="5" rx="5" y="6" x="6" height="38" width="38"
                fill="#f2f5e9" fill-opacity="0.5" stroke="#606060" stroke-width="1.0"/>
           <path id="arrow"
             d="M 11.500037,31.436501 C 11.940474,20.09759 22.043105,11.32322 32.158766,21.979434 L 37.068811,17.246167 C 37.068811,17.246167 37.088388,32 37.088388,32 L 22.160133,31.978069 C 22.160133,31.978069 26.997745,27.140456 26.997745,27.140456 C 18.528582,18.264221 13.291696,25.230495 11.500037,31.436501 z"
             style="fill:#404040;"/>
          </a>
         </g>
        </svg>
</svg>
