<?xml version="1.0" encoding="UTF-8" standalone="no"?>
<!DOCTYPE svg PUBLIC "-//W3C//DTD SVG 1.1//EN"
 "http://www.w3.org/Graphics/SVG/1.1/DTD/svg11.dtd">
<!-- Generated by graphviz version 2.40.1 (20161225.0304)
 -->
<!-- Title: ee/font/include/font.h Pages: 1 -->
<svg width="937pt" height="308pt"
 viewBox="0.00 0.00 936.59 308.00" xmlns="http://www.w3.org/2000/svg" xmlns:xlink="http://www.w3.org/1999/xlink">
<g id="graph0" class="graph" transform="scale(1 1) rotate(0) translate(4 304)">
<title>ee/font/include/font.h</title>
<polygon fill="#ffffff" stroke="transparent" points="-4,4 -4,-304 932.587,-304 932.587,4 -4,4"/>
<!-- Node1 -->
<g id="node1" class="node">
<title>Node1</title>
<g id="a_node1"><a xlink:title=" ">
<polygon fill="#bfbfbf" stroke="#000000" points="155.587,-280.5 155.587,-299.5 276.587,-299.5 276.587,-280.5 155.587,-280.5"/>
<text text-anchor="middle" x="216.087" y="-287.5" font-family="Helvetica,sans-Serif" font-size="10.00" fill="#000000">ee/font/include/font.h</text>
</a>
</g>
</g>
<!-- Node2 -->
<g id="node2" class="node">
<title>Node2</title>
<g id="a_node2"><a xlink:href="draw_8h.html" target="_top" xlink:title=" ">
<polygon fill="#ffffff" stroke="#000000" points="420.587,-224.5 420.587,-243.5 469.587,-243.5 469.587,-224.5 420.587,-224.5"/>
<text text-anchor="middle" x="445.087" y="-231.5" font-family="Helvetica,sans-Serif" font-size="10.00" fill="#000000">draw.h</text>
</a>
</g>
</g>
<!-- Node1&#45;&gt;Node2 -->
<g id="edge1" class="edge">
<title>Node1&#45;&gt;Node2</title>
<path fill="none" stroke="#191970" d="M255.1933,-280.4369C298.7661,-269.7815 368.5614,-252.7137 410.3019,-242.5064"/>
<polygon fill="#191970" stroke="#191970" points="411.394,-245.8425 420.2764,-240.0672 409.7312,-239.0429 411.394,-245.8425"/>
</g>
<!-- Node3 -->
<g id="node3" class="node">
<title>Node3</title>
<g id="a_node3"><a xlink:href="tamtypes_8h.html" target="_top" xlink:title=" ">
<polygon fill="#ffffff" stroke="#000000" points="403.087,-.5 403.087,-19.5 475.087,-19.5 475.087,-.5 403.087,-.5"/>
<text text-anchor="middle" x="439.087" y="-7.5" font-family="Helvetica,sans-Serif" font-size="10.00" fill="#000000">tamtypes.h</text>
</a>
</g>
</g>
<!-- Node1&#45;&gt;Node3 -->
<g id="edge32" class="edge">
<title>Node1&#45;&gt;Node3</title>
<path fill="none" stroke="#191970" d="M155.3387,-284.1546C91.7608,-274.2959 1.087,-247.9702 1.087,-178 1.087,-178 1.087,-178 1.087,-122 1.087,-91.4754 -3.261,-75.6627 20.087,-56 48.1599,-32.3583 289.5356,-17.5217 392.6723,-12.2082"/>
<polygon fill="#191970" stroke="#191970" points="392.9854,-15.6969 402.7951,-11.6945 392.6306,-8.7059 392.9854,-15.6969"/>
</g>
<!-- Node2&#45;&gt;Node3 -->
<g id="edge2" class="edge">
<title>Node2&#45;&gt;Node3</title>
<path fill="none" stroke="#191970" d="M469.7676,-231.3955C525.5951,-225.2103 659.8439,-208.6026 700.087,-188 761.9851,-156.3111 829.8935,-108.3194 784.087,-56 764.7037,-33.8607 575.079,-18.7807 485.5045,-12.8349"/>
<polygon fill="#191970" stroke="#191970" points="485.5589,-9.3311 475.352,-12.1717 485.1026,-16.3162 485.5589,-9.3311"/>
</g>
<!-- Node4 -->
<g id="node4" class="node">
<title>Node4</title>
<g id="a_node4"><a xlink:href="draw__blending_8h.html" target="_top" xlink:title=" ">
<polygon fill="#ffffff" stroke="#000000" points="831.587,-56.5 831.587,-75.5 928.587,-75.5 928.587,-56.5 831.587,-56.5"/>
<text text-anchor="middle" x="880.087" y="-63.5" font-family="Helvetica,sans-Serif" font-size="10.00" fill="#000000">draw_blending.h</text>
</a>
</g>
</g>
<!-- Node2&#45;&gt;Node4 -->
<g id="edge3" class="edge">
<title>Node2&#45;&gt;Node4</title>
<path fill="none" stroke="#191970" d="M469.8086,-232.2793C548.326,-226.6315 788.5558,-207.8806 817.087,-188 852.1541,-163.5652 869.0041,-113.513 875.9533,-85.7131"/>
<polygon fill="#191970" stroke="#191970" points="879.4453,-86.1458 878.2835,-75.6149 872.6246,-84.5718 879.4453,-86.1458"/>
</g>
<!-- Node5 -->
<g id="node5" class="node">
<title>Node5</title>
<g id="a_node5"><a xlink:href="draw__buffers_8h.html" target="_top" xlink:title=" ">
<polygon fill="#ffffff" stroke="#000000" points="349.587,-112.5 349.587,-131.5 438.587,-131.5 438.587,-112.5 349.587,-112.5"/>
<text text-anchor="middle" x="394.087" y="-119.5" font-family="Helvetica,sans-Serif" font-size="10.00" fill="#000000">draw_buffers.h</text>
</a>
</g>
</g>
<!-- Node2&#45;&gt;Node5 -->
<g id="edge5" class="edge">
<title>Node2&#45;&gt;Node5</title>
<path fill="none" stroke="#191970" d="M443.3215,-224.2443C440.7022,-211.0394 435.1025,-186.9505 426.087,-168 421.3604,-158.0648 414.5648,-147.9303 408.4506,-139.7116"/>
<polygon fill="#191970" stroke="#191970" points="411.0996,-137.4155 402.2138,-131.6454 405.5618,-141.6973 411.0996,-137.4155"/>
</g>
<!-- Node6 -->
<g id="node6" class="node">
<title>Node6</title>
<g id="a_node6"><a xlink:href="draw__dithering_8h.html" target="_top" xlink:title=" ">
<polygon fill="#ffffff" stroke="#000000" points="29.087,-56.5 29.087,-75.5 127.087,-75.5 127.087,-56.5 29.087,-56.5"/>
<text text-anchor="middle" x="78.087" y="-63.5" font-family="Helvetica,sans-Serif" font-size="10.00" fill="#000000">draw_dithering.h</text>
</a>
</g>
</g>
<!-- Node2&#45;&gt;Node6 -->
<g id="edge7" class="edge">
<title>Node2&#45;&gt;Node6</title>
<path fill="none" stroke="#191970" d="M420.498,-232.3414C360.5473,-227.9237 208.6533,-214.3712 166.087,-188 125.9286,-163.1206 98.5849,-112.4877 85.9968,-84.9183"/>
<polygon fill="#191970" stroke="#191970" points="89.1232,-83.3328 81.8987,-75.5832 82.7136,-86.1466 89.1232,-83.3328"/>
</g>
<!-- Node7 -->
<g id="node7" class="node">
<title>Node7</title>
<g id="a_node7"><a xlink:href="draw__fog_8h.html" target="_top" xlink:title=" ">
<polygon fill="#ffffff" stroke="#000000" points="145.587,-56.5 145.587,-75.5 216.587,-75.5 216.587,-56.5 145.587,-56.5"/>
<text text-anchor="middle" x="181.087" y="-63.5" font-family="Helvetica,sans-Serif" font-size="10.00" fill="#000000">draw_fog.h</text>
</a>
</g>
</g>
<!-- Node2&#45;&gt;Node7 -->
<g id="edge9" class="edge">
<title>Node2&#45;&gt;Node7</title>
<path fill="none" stroke="#191970" d="M420.2556,-231.4329C365.4705,-225.4427 236.0907,-209.4093 198.087,-188 169.0166,-171.6233 159.9791,-163.1747 148.087,-132 141.5698,-114.9154 152.5787,-96.3647 163.5961,-83.2939"/>
<polygon fill="#191970" stroke="#191970" points="166.4942,-85.3106 170.6532,-75.5662 161.3253,-80.5902 166.4942,-85.3106"/>
</g>
<!-- Node8 -->
<g id="node8" class="node">
<title>Node8</title>
<g id="a_node8"><a xlink:href="draw__masking_8h.html" target="_top" xlink:title=" ">
<polygon fill="#ffffff" stroke="#000000" points="157.587,-112.5 157.587,-131.5 254.587,-131.5 254.587,-112.5 157.587,-112.5"/>
<text text-anchor="middle" x="206.087" y="-119.5" font-family="Helvetica,sans-Serif" font-size="10.00" fill="#000000">draw_masking.h</text>
</a>
</g>
</g>
<!-- Node2&#45;&gt;Node8 -->
<g id="edge11" class="edge">
<title>Node2&#45;&gt;Node8</title>
<path fill="none" stroke="#191970" d="M420.2022,-232.8501C365.4991,-229.7619 237.4687,-219.2817 210.087,-188 199.242,-175.6103 199.2942,-156.3846 201.4368,-141.8729"/>
<polygon fill="#191970" stroke="#191970" points="204.9061,-142.364 203.3369,-131.886 198.0295,-141.0556 204.9061,-142.364"/>
</g>
<!-- Node9 -->
<g id="node9" class="node">
<title>Node9</title>
<g id="a_node9"><a xlink:href="draw__primitives_8h.html" target="_top" xlink:title=" ">
<polygon fill="#ffffff" stroke="#000000" points="595.087,-112.5 595.087,-131.5 699.087,-131.5 699.087,-112.5 595.087,-112.5"/>
<text text-anchor="middle" x="647.087" y="-119.5" font-family="Helvetica,sans-Serif" font-size="10.00" fill="#000000">draw_primitives.h</text>
</a>
</g>
</g>
<!-- Node2&#45;&gt;Node9 -->
<g id="edge13" class="edge">
<title>Node2&#45;&gt;Node9</title>
<path fill="none" stroke="#191970" d="M469.7412,-226.2915C493.6397,-218.3286 530.5145,-204.7266 560.087,-188 585.3813,-173.6932 611.5756,-152.8575 628.5239,-138.4403"/>
<polygon fill="#191970" stroke="#191970" points="631.2133,-140.742 636.4903,-131.5547 626.6359,-135.446 631.2133,-140.742"/>
</g>
<!-- Node10 -->
<g id="node10" class="node">
<title>Node10</title>
<g id="a_node10"><a xlink:href="draw__sampling_8h.html" target="_top" xlink:title=" ">
<polygon fill="#ffffff" stroke="#000000" points="219.087,-168.5 219.087,-187.5 319.087,-187.5 319.087,-168.5 219.087,-168.5"/>
<text text-anchor="middle" x="269.087" y="-175.5" font-family="Helvetica,sans-Serif" font-size="10.00" fill="#000000">draw_sampling.h</text>
</a>
</g>
</g>
<!-- Node2&#45;&gt;Node10 -->
<g id="edge15" class="edge">
<title>Node2&#45;&gt;Node10</title>
<path fill="none" stroke="#191970" d="M420.2438,-226.0953C391.2666,-216.8753 342.979,-201.5111 308.7866,-190.6317"/>
<polygon fill="#191970" stroke="#191970" points="309.6956,-187.2481 299.1051,-187.5512 307.5731,-193.9185 309.6956,-187.2481"/>
</g>
<!-- Node11 -->
<g id="node11" class="node">
<title>Node11</title>
<g id="a_node11"><a xlink:href="draw__tests_8h.html" target="_top" xlink:title=" ">
<polygon fill="#ffffff" stroke="#000000" points="337.587,-168.5 337.587,-187.5 416.587,-187.5 416.587,-168.5 337.587,-168.5"/>
<text text-anchor="middle" x="377.087" y="-175.5" font-family="Helvetica,sans-Serif" font-size="10.00" fill="#000000">draw_tests.h</text>
</a>
</g>
</g>
<!-- Node2&#45;&gt;Node11 -->
<g id="edge17" class="edge">
<title>Node2&#45;&gt;Node11</title>
<path fill="none" stroke="#191970" d="M433.2423,-224.2455C423.1991,-215.9746 408.5876,-203.9416 396.7866,-194.2232"/>
<polygon fill="#191970" stroke="#191970" points="398.7403,-191.298 388.796,-187.6427 394.2903,-196.7015 398.7403,-191.298"/>
</g>
<!-- Node12 -->
<g id="node12" class="node">
<title>Node12</title>
<g id="a_node12"><a xlink:href="draw__types_8h.html" target="_top" xlink:title=" ">
<polygon fill="#ffffff" stroke="#000000" points="495.087,-112.5 495.087,-131.5 577.087,-131.5 577.087,-112.5 495.087,-112.5"/>
<text text-anchor="middle" x="536.087" y="-119.5" font-family="Helvetica,sans-Serif" font-size="10.00" fill="#000000">draw_types.h</text>
</a>
</g>
</g>
<!-- Node2&#45;&gt;Node12 -->
<g id="edge20" class="edge">
<title>Node2&#45;&gt;Node12</title>
<path fill="none" stroke="#191970" d="M469.9751,-230.1338C493.6141,-224.9961 527.8786,-213.4038 544.087,-188 552.8931,-174.1981 549.4846,-155.4287 544.6938,-141.4338"/>
<polygon fill="#191970" stroke="#191970" points="547.8386,-139.8651 540.9401,-131.8238 541.3184,-142.4119 547.8386,-139.8651"/>
</g>
<!-- Node14 -->
<g id="node14" class="node">
<title>Node14</title>
<g id="a_node14"><a xlink:href="draw2d_8h.html" target="_top" xlink:title=" ">
<polygon fill="#ffffff" stroke="#000000" points="473.087,-168.5 473.087,-187.5 535.087,-187.5 535.087,-168.5 473.087,-168.5"/>
<text text-anchor="middle" x="504.087" y="-175.5" font-family="Helvetica,sans-Serif" font-size="10.00" fill="#000000">draw2d.h</text>
</a>
</g>
</g>
<!-- Node2&#45;&gt;Node14 -->
<g id="edge23" class="edge">
<title>Node2&#45;&gt;Node14</title>
<path fill="none" stroke="#191970" d="M455.364,-224.2455C463.9088,-216.1352 476.2648,-204.4075 486.3955,-194.7919"/>
<polygon fill="#191970" stroke="#191970" points="489.0842,-197.0655 493.9278,-187.6427 484.2652,-191.9884 489.0842,-197.0655"/>
</g>
<!-- Node15 -->
<g id="node15" class="node">
<title>Node15</title>
<g id="a_node15"><a xlink:href="draw3d_8h.html" target="_top" xlink:title=" ">
<polygon fill="#ffffff" stroke="#000000" points="629.087,-168.5 629.087,-187.5 691.087,-187.5 691.087,-168.5 629.087,-168.5"/>
<text text-anchor="middle" x="660.087" y="-175.5" font-family="Helvetica,sans-Serif" font-size="10.00" fill="#000000">draw3d.h</text>
</a>
</g>
</g>
<!-- Node2&#45;&gt;Node15 -->
<g id="edge26" class="edge">
<title>Node2&#45;&gt;Node15</title>
<path fill="none" stroke="#191970" d="M469.7502,-227.5761C506.1794,-218.0876 574.8111,-200.2114 618.9413,-188.717"/>
<polygon fill="#191970" stroke="#191970" points="619.9861,-192.0617 628.781,-186.1541 618.2217,-185.2877 619.9861,-192.0617"/>
</g>
<!-- Node4&#45;&gt;Node3 -->
<g id="edge4" class="edge">
<title>Node4&#45;&gt;Node3</title>
<path fill="none" stroke="#191970" d="M831.2742,-58.0727C826.4838,-57.3486 821.6932,-56.6456 817.087,-56 697.5904,-39.2508 556.3379,-23.0016 485.0979,-15.0537"/>
<polygon fill="#191970" stroke="#191970" points="485.4317,-11.5693 475.106,-13.9422 484.6577,-18.5264 485.4317,-11.5693"/>
</g>
<!-- Node5&#45;&gt;Node3 -->
<g id="edge6" class="edge">
<title>Node5&#45;&gt;Node3</title>
<path fill="none" stroke="#191970" d="M397.9237,-112.4509C405.3295,-94.0186 421.7197,-53.2254 431.4358,-29.043"/>
<polygon fill="#191970" stroke="#191970" points="434.7795,-30.1088 435.2601,-19.5249 428.2841,-27.499 434.7795,-30.1088"/>
</g>
<!-- Node6&#45;&gt;Node3 -->
<g id="edge8" class="edge">
<title>Node6&#45;&gt;Node3</title>
<path fill="none" stroke="#191970" d="M127.1231,-57.4743C130.1553,-56.9692 133.162,-56.4741 136.087,-56 226.7572,-41.3026 332.9301,-25.509 392.4645,-16.7814"/>
<polygon fill="#191970" stroke="#191970" points="393.2826,-20.199 402.6703,-15.2875 392.2688,-13.2728 393.2826,-20.199"/>
</g>
<!-- Node7&#45;&gt;Node3 -->
<g id="edge10" class="edge">
<title>Node7&#45;&gt;Node3</title>
<path fill="none" stroke="#191970" d="M216.6899,-58.2722C262.6003,-48.3072 342.528,-30.9585 393.0231,-19.9984"/>
<polygon fill="#191970" stroke="#191970" points="393.9896,-23.3702 403.0196,-17.8286 392.5048,-16.5294 393.9896,-23.3702"/>
</g>
<!-- Node8&#45;&gt;Node3 -->
<g id="edge12" class="edge">
<title>Node8&#45;&gt;Node3</title>
<path fill="none" stroke="#191970" d="M212.6244,-112.3375C222.9189,-97.877 244.3071,-70.7347 269.087,-56 307.3576,-33.2435 357.0978,-21.4919 392.8749,-15.5888"/>
<polygon fill="#191970" stroke="#191970" points="393.6946,-19.0034 403.0371,-14.0066 392.6177,-12.0867 393.6946,-19.0034"/>
</g>
<!-- Node9&#45;&gt;Node3 -->
<g id="edge14" class="edge">
<title>Node9&#45;&gt;Node3</title>
<path fill="none" stroke="#191970" d="M638.4645,-112.1414C625.5502,-97.9223 599.8301,-71.6512 573.087,-56 545.6988,-39.9713 511.8818,-28.4151 485.0722,-20.8946"/>
<polygon fill="#191970" stroke="#191970" points="485.7358,-17.4482 475.1683,-18.2089 483.9037,-24.2042 485.7358,-17.4482"/>
</g>
<!-- Node10&#45;&gt;Node3 -->
<g id="edge16" class="edge">
<title>Node10&#45;&gt;Node3</title>
<path fill="none" stroke="#191970" d="M274.2984,-168.4032C286.6429,-146.3437 319.6124,-91.2216 359.087,-56 373.5406,-43.1036 392.1862,-32.1283 407.8402,-24.136"/>
<polygon fill="#191970" stroke="#191970" points="409.7136,-27.1148 417.1362,-19.5547 406.6191,-20.8359 409.7136,-27.1148"/>
</g>
<!-- Node11&#45;&gt;Node3 -->
<g id="edge18" class="edge">
<title>Node11&#45;&gt;Node3</title>
<path fill="none" stroke="#191970" d="M365.2949,-168.072C351.8365,-155.4602 332.7038,-132.8255 341.087,-112 356.1149,-74.668 392.0609,-43.3341 415.9861,-25.6169"/>
<polygon fill="#191970" stroke="#191970" points="418.1159,-28.3964 424.1958,-19.7196 414.032,-22.7111 418.1159,-28.3964"/>
</g>
<!-- Node11&#45;&gt;Node5 -->
<g id="edge19" class="edge">
<title>Node11&#45;&gt;Node5</title>
<path fill="none" stroke="#191970" d="M380.0482,-168.2455C382.2909,-160.8579 385.4447,-150.4689 388.1951,-141.4087"/>
<polygon fill="#191970" stroke="#191970" points="391.604,-142.2282 391.1598,-131.6427 384.9058,-140.1948 391.604,-142.2282"/>
</g>
<!-- Node13 -->
<g id="node13" class="node">
<title>Node13</title>
<g id="a_node13"><a xlink:href="math3d_8h.html" target="_top" xlink:title=" ">
<polygon fill="#ffffff" stroke="#000000" points="500.587,-56.5 500.587,-75.5 563.587,-75.5 563.587,-56.5 500.587,-56.5"/>
<text text-anchor="middle" x="532.087" y="-63.5" font-family="Helvetica,sans-Serif" font-size="10.00" fill="#000000">math3d.h</text>
</a>
</g>
</g>
<!-- Node12&#45;&gt;Node13 -->
<g id="edge21" class="edge">
<title>Node12&#45;&gt;Node13</title>
<path fill="none" stroke="#191970" d="M535.3903,-112.2455C534.8683,-104.9382 534.1366,-94.6944 533.4945,-85.7046"/>
<polygon fill="#191970" stroke="#191970" points="536.9794,-85.3679 532.7758,-75.6427 529.9972,-85.8667 536.9794,-85.3679"/>
</g>
<!-- Node13&#45;&gt;Node3 -->
<g id="edge22" class="edge">
<title>Node13&#45;&gt;Node3</title>
<path fill="none" stroke="#191970" d="M515.8877,-56.2455C501.4852,-47.5731 480.2138,-34.7645 463.7071,-24.825"/>
<polygon fill="#191970" stroke="#191970" points="465.473,-21.8028 455.1007,-19.6427 461.8621,-27.7996 465.473,-21.8028"/>
</g>
<!-- Node14&#45;&gt;Node3 -->
<g id="edge24" class="edge">
<title>Node14&#45;&gt;Node3</title>
<path fill="none" stroke="#191970" d="M500.3492,-168.4909C496.6984,-159.193 490.9913,-144.631 486.087,-132 471.9889,-95.69 455.6723,-53.2392 446.4465,-29.1963"/>
<polygon fill="#191970" stroke="#191970" points="449.6959,-27.8946 442.8467,-19.8113 443.1602,-30.4015 449.6959,-27.8946"/>
</g>
<!-- Node14&#45;&gt;Node12 -->
<g id="edge25" class="edge">
<title>Node14&#45;&gt;Node12</title>
<path fill="none" stroke="#191970" d="M509.661,-168.2455C514.0201,-160.617 520.2081,-149.7881 525.5003,-140.5267"/>
<polygon fill="#191970" stroke="#191970" points="528.6543,-142.0616 530.5769,-131.6427 522.5766,-138.5886 528.6543,-142.0616"/>
</g>
<!-- Node15&#45;&gt;Node3 -->
<g id="edge27" class="edge">
<title>Node15&#45;&gt;Node3</title>
<path fill="none" stroke="#191970" d="M675.9674,-168.2903C694.4226,-155.7221 720.8196,-132.9445 708.087,-112 684.1927,-72.6949 555.4271,-37.1466 485.069,-20.2964"/>
<polygon fill="#191970" stroke="#191970" points="485.6685,-16.8418 475.1316,-17.9478 484.0584,-23.6541 485.6685,-16.8418"/>
</g>
<!-- Node15&#45;&gt;Node9 -->
<g id="edge28" class="edge">
<title>Node15&#45;&gt;Node9</title>
<path fill="none" stroke="#191970" d="M657.8226,-168.2455C656.1076,-160.8579 653.6959,-150.4689 651.5926,-141.4087"/>
<polygon fill="#191970" stroke="#191970" points="654.9962,-140.5922 649.3255,-131.6427 648.1775,-142.1751 654.9962,-140.5922"/>
</g>
<!-- Node15&#45;&gt;Node12 -->
<g id="edge29" class="edge">
<title>Node15&#45;&gt;Node12</title>
<path fill="none" stroke="#191970" d="M638.7707,-168.3733C618.8654,-159.3838 588.9434,-145.8706 566.527,-135.7471"/>
<polygon fill="#191970" stroke="#191970" points="567.6795,-132.4272 557.1252,-131.5011 564.7984,-138.8068 567.6795,-132.4272"/>
</g>
<!-- Node16 -->
<g id="node16" class="node">
<title>Node16</title>
<g id="a_node16"><a xlink:href="gif__tags_8h.html" target="_top" xlink:title=" ">
<polygon fill="#ffffff" stroke="#000000" points="709.587,-56.5 709.587,-75.5 774.587,-75.5 774.587,-56.5 709.587,-56.5"/>
<text text-anchor="middle" x="742.087" y="-63.5" font-family="Helvetica,sans-Serif" font-size="10.00" fill="#000000">gif_tags.h</text>
</a>
</g>
</g>
<!-- Node15&#45;&gt;Node16 -->
<g id="edge30" class="edge">
<title>Node15&#45;&gt;Node16</title>
<path fill="none" stroke="#191970" d="M691.4414,-168.8461C709.3335,-161.8461 730.2908,-150.2279 741.087,-132 749.2894,-118.1514 748.7924,-99.632 746.6728,-85.7356"/>
<polygon fill="#191970" stroke="#191970" points="750.0806,-84.9217 744.7602,-75.7596 743.2058,-86.2398 750.0806,-84.9217"/>
</g>
<!-- Node16&#45;&gt;Node3 -->
<g id="edge31" class="edge">
<title>Node16&#45;&gt;Node3</title>
<path fill="none" stroke="#191970" d="M709.4985,-58.9259C704.6716,-57.9189 699.7532,-56.9154 695.087,-56 621.9179,-41.646 536.6316,-26.6711 485.3014,-17.8481"/>
<polygon fill="#191970" stroke="#191970" points="485.6387,-14.3549 475.191,-16.1144 484.4556,-21.2542 485.6387,-14.3549"/>
</g>
</g>
</svg>
