<?xml version="1.0" encoding="UTF-8" standalone="no"?>
<!DOCTYPE svg PUBLIC "-//W3C//DTD SVG 1.1//EN"
 "http://www.w3.org/Graphics/SVG/1.1/DTD/svg11.dtd">
<!-- Generated by graphviz version 2.40.1 (20161225.0304)
 -->
<!-- Title: ee/graph/include/graph.h Pages: 1 -->
<svg width="1587pt" height="95pt"
 viewBox="0.00 0.00 1586.50 95.00" xmlns="http://www.w3.org/2000/svg" xmlns:xlink="http://www.w3.org/1999/xlink">
<g id="graph0" class="graph" transform="scale(1 1) rotate(0) translate(4 91)">
<title>ee/graph/include/graph.h</title>
<polygon fill="#ffffff" stroke="transparent" points="-4,4 -4,-91 1582.5,-91 1582.5,4 -4,4"/>
<!-- Node1 -->
<g id="node1" class="node">
<title>Node1</title>
<g id="a_node1"><a xlink:title=" ">
<polygon fill="#bfbfbf" stroke="#000000" points="739.5,-67.5 739.5,-86.5 876.5,-86.5 876.5,-67.5 739.5,-67.5"/>
<text text-anchor="middle" x="808" y="-74.5" font-family="Helvetica,sans-Serif" font-size="10.00" fill="#000000">ee/graph/include/graph.h</text>
</a>
</g>
</g>
<!-- Node2 -->
<g id="node2" class="node">
<title>Node2</title>
<g id="a_node2"><a xlink:href="cube_8c.html" target="_top" xlink:title=" ">
<polygon fill="#ffffff" stroke="#000000" points="0,-.5 0,-30.5 126,-30.5 126,-.5 0,-.5"/>
<text text-anchor="start" x="8" y="-18.5" font-family="Helvetica,sans-Serif" font-size="10.00" fill="#000000">ee/draw/samples/cube</text>
<text text-anchor="middle" x="63" y="-7.5" font-family="Helvetica,sans-Serif" font-size="10.00" fill="#000000">/cube.c</text>
</a>
</g>
</g>
<!-- Node1&#45;&gt;Node2 -->
<g id="edge1" class="edge">
<title>Node1&#45;&gt;Node2</title>
<path fill="none" stroke="#191970" d="M729.0284,-75.2781C602.9042,-71.7038 348.4623,-61.1127 135,-31 132.088,-30.5892 129.118,-30.1271 126.1241,-29.6263"/>
<polygon fill="#191970" stroke="#191970" points="729.2646,-78.7858 739.3574,-75.5632 729.4578,-71.7885 729.2646,-78.7858"/>
</g>
<!-- Node3 -->
<g id="node3" class="node">
<title>Node3</title>
<g id="a_node3"><a xlink:href="teapot_8c.html" target="_top" xlink:title=" ">
<polygon fill="#ffffff" stroke="#000000" points="144,-.5 144,-30.5 278,-30.5 278,-.5 144,-.5"/>
<text text-anchor="start" x="152" y="-18.5" font-family="Helvetica,sans-Serif" font-size="10.00" fill="#000000">ee/draw/samples/teapot</text>
<text text-anchor="middle" x="211" y="-7.5" font-family="Helvetica,sans-Serif" font-size="10.00" fill="#000000">/teapot.c</text>
</a>
</g>
</g>
<!-- Node1&#45;&gt;Node3 -->
<g id="edge2" class="edge">
<title>Node1&#45;&gt;Node3</title>
<path fill="none" stroke="#191970" d="M729.1926,-72.8256C626.8743,-66.7693 442.9349,-53.7108 287,-31 284.0684,-30.573 281.0794,-30.105 278.0645,-29.6061"/>
<polygon fill="#191970" stroke="#191970" points="729.2539,-76.3351 739.4412,-73.4249 729.6626,-69.347 729.2539,-76.3351"/>
</g>
<!-- Node4 -->
<g id="node4" class="node">
<title>Node4</title>
<g id="a_node4"><a xlink:href="draw_2samples_2texture_2texture_8c.html" target="_top" xlink:title=" ">
<polygon fill="#ffffff" stroke="#000000" points="296,-.5 296,-30.5 434,-30.5 434,-.5 296,-.5"/>
<text text-anchor="start" x="304" y="-18.5" font-family="Helvetica,sans-Serif" font-size="10.00" fill="#000000">ee/draw/samples/texture</text>
<text text-anchor="middle" x="365" y="-7.5" font-family="Helvetica,sans-Serif" font-size="10.00" fill="#000000">/texture.c</text>
</a>
</g>
</g>
<!-- Node1&#45;&gt;Node4 -->
<g id="edge3" class="edge">
<title>Node1&#45;&gt;Node4</title>
<path fill="none" stroke="#191970" d="M728.9897,-68.6766C654.9043,-60.4856 541.1482,-46.9161 443,-31 440.138,-30.5359 437.2207,-30.0436 434.2764,-29.5309"/>
<polygon fill="#191970" stroke="#191970" points="728.8518,-72.1824 739.1745,-69.7964 729.6169,-65.2244 728.8518,-72.1824"/>
</g>
<!-- Node5 -->
<g id="node5" class="node">
<title>Node5</title>
<g id="a_node5"><a xlink:href="draw_2samples_2vu1_2main_8c.html" target="_top" xlink:title=" ">
<polygon fill="#ffffff" stroke="#000000" points="452.5,-.5 452.5,-30.5 573.5,-30.5 573.5,-.5 452.5,-.5"/>
<text text-anchor="start" x="460.5" y="-18.5" font-family="Helvetica,sans-Serif" font-size="10.00" fill="#000000">ee/draw/samples/vu1</text>
<text text-anchor="middle" x="513" y="-7.5" font-family="Helvetica,sans-Serif" font-size="10.00" fill="#000000">/main.c</text>
</a>
</g>
</g>
<!-- Node1&#45;&gt;Node5 -->
<g id="edge4" class="edge">
<title>Node1&#45;&gt;Node5</title>
<path fill="none" stroke="#191970" d="M750.138,-65.4393C704.6611,-56.2882 639.7381,-43.0808 583,-31 579.9564,-30.352 576.8398,-29.6827 573.6933,-29.0025"/>
<polygon fill="#191970" stroke="#191970" points="749.617,-68.9045 760.1106,-67.4438 750.9964,-62.0418 749.617,-68.9045"/>
</g>
<!-- Node6 -->
<g id="node6" class="node">
<title>Node6</title>
<g id="a_node6"><a xlink:href="font_2samples_2font_8c.html" target="_top" xlink:title=" ">
<polygon fill="#ffffff" stroke="#000000" points="592,-6 592,-25 718,-25 718,-6 592,-6"/>
<text text-anchor="middle" x="655" y="-13" font-family="Helvetica,sans-Serif" font-size="10.00" fill="#000000">ee/font/samples/font.c</text>
</a>
</g>
</g>
<!-- Node1&#45;&gt;Node6 -->
<g id="edge5" class="edge">
<title>Node1&#45;&gt;Node6</title>
<path fill="none" stroke="#191970" d="M774.7821,-63.6477C745.8106,-52.0023 704.4953,-35.3952 678.7384,-25.0419"/>
<polygon fill="#191970" stroke="#191970" points="773.5099,-66.9084 784.0938,-67.3906 776.1206,-60.4135 773.5099,-66.9084"/>
</g>
<!-- Node7 -->
<g id="node7" class="node">
<title>Node7</title>
<g id="a_node7"><a xlink:href="samples_2graph_8c.html" target="_top" xlink:title=" ">
<polygon fill="#ffffff" stroke="#000000" points="736.5,-6 736.5,-25 879.5,-25 879.5,-6 736.5,-6"/>
<text text-anchor="middle" x="808" y="-13" font-family="Helvetica,sans-Serif" font-size="10.00" fill="#000000">ee/graph/samples/graph.c</text>
</a>
</g>
</g>
<!-- Node1&#45;&gt;Node7 -->
<g id="edge6" class="edge">
<title>Node1&#45;&gt;Node7</title>
<path fill="none" stroke="#191970" d="M808,-57.2462C808,-46.5519 808,-33.814 808,-25.2449"/>
<polygon fill="#191970" stroke="#191970" points="804.5001,-57.3906 808,-67.3906 811.5001,-57.3907 804.5001,-57.3906"/>
</g>
<!-- Node8 -->
<g id="node8" class="node">
<title>Node8</title>
<g id="a_node8"><a xlink:href="src_2graph_8c.html" target="_top" xlink:title=" ">
<polygon fill="#ffffff" stroke="#000000" points="898,-6 898,-25 1014,-25 1014,-6 898,-6"/>
<text text-anchor="middle" x="956" y="-13" font-family="Helvetica,sans-Serif" font-size="10.00" fill="#000000">ee/graph/src/graph.c</text>
</a>
</g>
</g>
<!-- Node1&#45;&gt;Node8 -->
<g id="edge7" class="edge">
<title>Node1&#45;&gt;Node8</title>
<path fill="none" stroke="#191970" d="M840.4985,-63.4955C868.5044,-51.858 908.2306,-35.3501 933.0374,-25.0419"/>
<polygon fill="#191970" stroke="#191970" points="839.0164,-60.3212 831.125,-67.3906 841.7025,-66.7853 839.0164,-60.3212"/>
</g>
<!-- Node9 -->
<g id="node9" class="node">
<title>Node9</title>
<g id="a_node9"><a xlink:href="graph__config_8c.html" target="_top" xlink:title=" ">
<polygon fill="#ffffff" stroke="#000000" points="1032.5,-.5 1032.5,-30.5 1139.5,-30.5 1139.5,-.5 1032.5,-.5"/>
<text text-anchor="start" x="1040.5" y="-18.5" font-family="Helvetica,sans-Serif" font-size="10.00" fill="#000000">ee/graph/src/graph</text>
<text text-anchor="middle" x="1086" y="-7.5" font-family="Helvetica,sans-Serif" font-size="10.00" fill="#000000">_config.c</text>
</a>
</g>
</g>
<!-- Node1&#45;&gt;Node9 -->
<g id="edge8" class="edge">
<title>Node1&#45;&gt;Node9</title>
<path fill="none" stroke="#191970" d="M864.4512,-65.4123C907.8763,-56.3799 969.3337,-43.3398 1023,-31 1026.0736,-30.2933 1029.2286,-29.5557 1032.4102,-28.8025"/>
<polygon fill="#191970" stroke="#191970" points="863.7239,-61.9886 854.6439,-67.4478 865.1465,-68.8425 863.7239,-61.9886"/>
</g>
<!-- Node10 -->
<g id="node10" class="node">
<title>Node10</title>
<g id="a_node10"><a xlink:href="graph__mode_8c.html" target="_top" xlink:title=" ">
<polygon fill="#ffffff" stroke="#000000" points="1157.5,-.5 1157.5,-30.5 1264.5,-30.5 1264.5,-.5 1157.5,-.5"/>
<text text-anchor="start" x="1165.5" y="-18.5" font-family="Helvetica,sans-Serif" font-size="10.00" fill="#000000">ee/graph/src/graph</text>
<text text-anchor="middle" x="1211" y="-7.5" font-family="Helvetica,sans-Serif" font-size="10.00" fill="#000000">_mode.c</text>
</a>
</g>
</g>
<!-- Node1&#45;&gt;Node10 -->
<g id="edge9" class="edge">
<title>Node1&#45;&gt;Node10</title>
<path fill="none" stroke="#191970" d="M886.5986,-68.9029C955.9729,-61.161 1059.6713,-48.1364 1149,-31 1151.7241,-30.4774 1154.5075,-29.9091 1157.3125,-29.3089"/>
<polygon fill="#191970" stroke="#191970" points="886.1726,-65.4286 876.6179,-70.0066 886.9421,-72.3861 886.1726,-65.4286"/>
</g>
<!-- Node11 -->
<g id="node11" class="node">
<title>Node11</title>
<g id="a_node11"><a xlink:href="math3d_8c.html" target="_top" xlink:title=" ">
<polygon fill="#ffffff" stroke="#000000" points="1282.5,-6 1282.5,-25 1417.5,-25 1417.5,-6 1282.5,-6"/>
<text text-anchor="middle" x="1350" y="-13" font-family="Helvetica,sans-Serif" font-size="10.00" fill="#000000">ee/math3d/src/math3d.c</text>
</a>
</g>
</g>
<!-- Node1&#45;&gt;Node11 -->
<g id="edge10" class="edge">
<title>Node1&#45;&gt;Node11</title>
<path fill="none" stroke="#191970" d="M886.7407,-71.7085C979.6427,-64.8926 1138.6018,-51.4345 1274,-31 1284.7854,-29.3723 1296.3542,-27.2228 1307.131,-25.0448"/>
<polygon fill="#191970" stroke="#191970" points="886.296,-68.2314 876.576,-72.447 886.8033,-75.213 886.296,-68.2314"/>
</g>
<!-- Node12 -->
<g id="node12" class="node">
<title>Node12</title>
<g id="a_node12"><a xlink:href="mpeg_8c.html" target="_top" xlink:title=" ">
<polygon fill="#ffffff" stroke="#000000" points="1435.5,-6 1435.5,-25 1578.5,-25 1578.5,-6 1435.5,-6"/>
<text text-anchor="middle" x="1507" y="-13" font-family="Helvetica,sans-Serif" font-size="10.00" fill="#000000">ee/mpeg/samples/mpeg.c</text>
</a>
</g>
</g>
<!-- Node1&#45;&gt;Node12 -->
<g id="edge11" class="edge">
<title>Node1&#45;&gt;Node12</title>
<path fill="none" stroke="#191970" d="M886.524,-74.1157C1004.3483,-69.1219 1233.6947,-56.8186 1427,-31 1438.6388,-29.4455 1451.14,-27.2696 1462.7209,-25.0388"/>
<polygon fill="#191970" stroke="#191970" points="886.3548,-70.6196 876.5096,-74.5339 886.647,-77.6135 886.3548,-70.6196"/>
</g>
</g>
</svg>
