<?xml version="1.0" encoding="UTF-8" standalone="no"?>
<!DOCTYPE svg PUBLIC "-//W3C//DTD SVG 1.1//EN"
 "http://www.w3.org/Graphics/SVG/1.1/DTD/svg11.dtd">
<!-- Generated by graphviz version 2.40.1 (20161225.0304)
 -->
<!-- Title: common/include/gs_psm.h Pages: 1 -->
<svg width="1299pt" height="95pt"
 viewBox="0.00 0.00 1298.50 95.00" xmlns="http://www.w3.org/2000/svg" xmlns:xlink="http://www.w3.org/1999/xlink">
<g id="graph0" class="graph" transform="scale(1 1) rotate(0) translate(4 91)">
<title>common/include/gs_psm.h</title>
<polygon fill="#ffffff" stroke="transparent" points="-4,4 -4,-91 1294.5,-91 1294.5,4 -4,4"/>
<!-- Node1 -->
<g id="node1" class="node">
<title>Node1</title>
<g id="a_node1"><a xlink:title=" ">
<polygon fill="#bfbfbf" stroke="#000000" points="571.5,-67.5 571.5,-86.5 718.5,-86.5 718.5,-67.5 571.5,-67.5"/>
<text text-anchor="middle" x="645" y="-74.5" font-family="Helvetica,sans-Serif" font-size="10.00" fill="#000000">common/include/gs_psm.h</text>
</a>
</g>
</g>
<!-- Node2 -->
<g id="node2" class="node">
<title>Node2</title>
<g id="a_node2"><a xlink:href="cube_8c.html" target="_top" xlink:title=" ">
<polygon fill="#ffffff" stroke="#000000" points="0,-.5 0,-30.5 126,-30.5 126,-.5 0,-.5"/>
<text text-anchor="start" x="8" y="-18.5" font-family="Helvetica,sans-Serif" font-size="10.00" fill="#000000">ee/draw/samples/cube</text>
<text text-anchor="middle" x="63" y="-7.5" font-family="Helvetica,sans-Serif" font-size="10.00" fill="#000000">/cube.c</text>
</a>
</g>
</g>
<!-- Node1&#45;&gt;Node2 -->
<g id="edge1" class="edge">
<title>Node1&#45;&gt;Node2</title>
<path fill="none" stroke="#191970" d="M561.0031,-72.5759C459.6088,-66.5099 284.1247,-53.6901 135,-31 132.0926,-30.5576 129.1264,-30.0696 126.1356,-29.5478"/>
<polygon fill="#191970" stroke="#191970" points="560.9946,-76.0814 571.1836,-73.1771 561.4073,-69.0935 560.9946,-76.0814"/>
</g>
<!-- Node3 -->
<g id="node3" class="node">
<title>Node3</title>
<g id="a_node3"><a xlink:href="teapot_8c.html" target="_top" xlink:title=" ">
<polygon fill="#ffffff" stroke="#000000" points="144,-.5 144,-30.5 278,-30.5 278,-.5 144,-.5"/>
<text text-anchor="start" x="152" y="-18.5" font-family="Helvetica,sans-Serif" font-size="10.00" fill="#000000">ee/draw/samples/teapot</text>
<text text-anchor="middle" x="211" y="-7.5" font-family="Helvetica,sans-Serif" font-size="10.00" fill="#000000">/teapot.c</text>
</a>
</g>
</g>
<!-- Node1&#45;&gt;Node3 -->
<g id="edge2" class="edge">
<title>Node1&#45;&gt;Node3</title>
<path fill="none" stroke="#191970" d="M561.3847,-68.0143C488.6683,-59.7808 380.5799,-46.5333 287,-31 284.0775,-30.5149 281.0959,-29.9987 278.0872,-29.4603"/>
<polygon fill="#191970" stroke="#191970" points="561.0766,-71.5016 571.4054,-69.1425 561.8598,-64.5456 561.0766,-71.5016"/>
</g>
<!-- Node4 -->
<g id="node4" class="node">
<title>Node4</title>
<g id="a_node4"><a xlink:href="draw_2samples_2texture_2texture_8c.html" target="_top" xlink:title=" ">
<polygon fill="#ffffff" stroke="#000000" points="296,-.5 296,-30.5 434,-30.5 434,-.5 296,-.5"/>
<text text-anchor="start" x="304" y="-18.5" font-family="Helvetica,sans-Serif" font-size="10.00" fill="#000000">ee/draw/samples/texture</text>
<text text-anchor="middle" x="365" y="-7.5" font-family="Helvetica,sans-Serif" font-size="10.00" fill="#000000">/texture.c</text>
</a>
</g>
</g>
<!-- Node1&#45;&gt;Node4 -->
<g id="edge3" class="edge">
<title>Node1&#45;&gt;Node4</title>
<path fill="none" stroke="#191970" d="M591.7115,-65.2956C546.7617,-55.4227 482.1401,-41.229 433.3806,-30.5193"/>
<polygon fill="#191970" stroke="#191970" points="591.0392,-68.7312 601.5572,-67.4581 592.5409,-61.8942 591.0392,-68.7312"/>
</g>
<!-- Node5 -->
<g id="node5" class="node">
<title>Node5</title>
<g id="a_node5"><a xlink:href="draw_2samples_2vu1_2main_8c.html" target="_top" xlink:title=" ">
<polygon fill="#ffffff" stroke="#000000" points="452.5,-.5 452.5,-30.5 573.5,-30.5 573.5,-.5 452.5,-.5"/>
<text text-anchor="start" x="460.5" y="-18.5" font-family="Helvetica,sans-Serif" font-size="10.00" fill="#000000">ee/draw/samples/vu1</text>
<text text-anchor="middle" x="513" y="-7.5" font-family="Helvetica,sans-Serif" font-size="10.00" fill="#000000">/main.c</text>
</a>
</g>
</g>
<!-- Node1&#45;&gt;Node5 -->
<g id="edge4" class="edge">
<title>Node1&#45;&gt;Node5</title>
<path fill="none" stroke="#191970" d="M615.0665,-63.0537C594.2714,-53.3651 566.5822,-40.4644 545.2908,-30.5446"/>
<polygon fill="#191970" stroke="#191970" points="613.8324,-66.3399 624.375,-67.3906 616.7887,-59.9948 613.8324,-66.3399"/>
</g>
<!-- Node6 -->
<g id="node6" class="node">
<title>Node6</title>
<g id="a_node6"><a xlink:href="draw_2src_2draw_8c.html" target="_top" xlink:title=" ">
<polygon fill="#ffffff" stroke="#000000" points="591.5,-6 591.5,-25 698.5,-25 698.5,-6 591.5,-6"/>
<text text-anchor="middle" x="645" y="-13" font-family="Helvetica,sans-Serif" font-size="10.00" fill="#000000">ee/draw/src/draw.c</text>
</a>
</g>
</g>
<!-- Node1&#45;&gt;Node6 -->
<g id="edge5" class="edge">
<title>Node1&#45;&gt;Node6</title>
<path fill="none" stroke="#191970" d="M645,-57.2462C645,-46.5519 645,-33.814 645,-25.2449"/>
<polygon fill="#191970" stroke="#191970" points="641.5001,-57.3906 645,-67.3906 648.5001,-57.3907 641.5001,-57.3906"/>
</g>
<!-- Node7 -->
<g id="node7" class="node">
<title>Node7</title>
<g id="a_node7"><a xlink:href="font_2samples_2font_8c.html" target="_top" xlink:title=" ">
<polygon fill="#ffffff" stroke="#000000" points="717,-6 717,-25 843,-25 843,-6 717,-6"/>
<text text-anchor="middle" x="780" y="-13" font-family="Helvetica,sans-Serif" font-size="10.00" fill="#000000">ee/font/samples/font.c</text>
</a>
</g>
</g>
<!-- Node1&#45;&gt;Node7 -->
<g id="edge6" class="edge">
<title>Node1&#45;&gt;Node7</title>
<path fill="none" stroke="#191970" d="M675.3157,-63.1895C700.8217,-51.5701 736.6241,-35.2601 759.0544,-25.0419"/>
<polygon fill="#191970" stroke="#191970" points="673.743,-60.0598 666.0938,-67.3906 676.645,-66.43 673.743,-60.0598"/>
</g>
<!-- Node8 -->
<g id="node8" class="node">
<title>Node8</title>
<g id="a_node8"><a xlink:href="samples_2graph_8c.html" target="_top" xlink:title=" ">
<polygon fill="#ffffff" stroke="#000000" points="861.5,-6 861.5,-25 1004.5,-25 1004.5,-6 861.5,-6"/>
<text text-anchor="middle" x="933" y="-13" font-family="Helvetica,sans-Serif" font-size="10.00" fill="#000000">ee/graph/samples/graph.c</text>
</a>
</g>
</g>
<!-- Node1&#45;&gt;Node8 -->
<g id="edge7" class="edge">
<title>Node1&#45;&gt;Node8</title>
<path fill="none" stroke="#191970" d="M699.5423,-65.3529C754.1889,-53.6836 837.2985,-35.9363 888.2112,-25.0643"/>
<polygon fill="#191970" stroke="#191970" points="698.7326,-61.9469 689.684,-67.4581 700.1945,-68.7925 698.7326,-61.9469"/>
</g>
<!-- Node9 -->
<g id="node9" class="node">
<title>Node9</title>
<g id="a_node9"><a xlink:href="graph__vram_8c.html" target="_top" xlink:title=" ">
<polygon fill="#ffffff" stroke="#000000" points="1022.5,-.5 1022.5,-30.5 1129.5,-30.5 1129.5,-.5 1022.5,-.5"/>
<text text-anchor="start" x="1030.5" y="-18.5" font-family="Helvetica,sans-Serif" font-size="10.00" fill="#000000">ee/graph/src/graph</text>
<text text-anchor="middle" x="1076" y="-7.5" font-family="Helvetica,sans-Serif" font-size="10.00" fill="#000000">_vram.c</text>
</a>
</g>
</g>
<!-- Node1&#45;&gt;Node9 -->
<g id="edge8" class="edge">
<title>Node1&#45;&gt;Node9</title>
<path fill="none" stroke="#191970" d="M728.9043,-69.4602C803.9867,-62.021 916.8696,-49.1267 1014,-31 1016.7267,-30.4911 1019.5121,-29.9338 1022.3188,-29.3424"/>
<polygon fill="#191970" stroke="#191970" points="728.1771,-66.0146 718.5664,-70.4737 728.8602,-72.9812 728.1771,-66.0146"/>
</g>
<!-- Node10 -->
<g id="node10" class="node">
<title>Node10</title>
<g id="a_node10"><a xlink:href="mpeg_8c.html" target="_top" xlink:title=" ">
<polygon fill="#ffffff" stroke="#000000" points="1147.5,-6 1147.5,-25 1290.5,-25 1290.5,-6 1147.5,-6"/>
<text text-anchor="middle" x="1219" y="-13" font-family="Helvetica,sans-Serif" font-size="10.00" fill="#000000">ee/mpeg/samples/mpeg.c</text>
</a>
</g>
</g>
<!-- Node1&#45;&gt;Node10 -->
<g id="edge9" class="edge">
<title>Node1&#45;&gt;Node10</title>
<path fill="none" stroke="#191970" d="M728.6903,-71.7315C827.1807,-64.9483 995.5013,-51.5316 1139,-31 1150.3437,-29.377 1162.518,-27.2292 1173.8616,-25.0514"/>
<polygon fill="#191970" stroke="#191970" points="728.2389,-68.2541 718.5003,-72.4268 728.7154,-75.2378 728.2389,-68.2541"/>
</g>
</g>
</svg>
