<?xml version="1.0" encoding="UTF-8" standalone="no"?>
<!DOCTYPE svg PUBLIC "-//W3C//DTD SVG 1.1//EN"
 "http://www.w3.org/Graphics/SVG/1.1/DTD/svg11.dtd">
<!-- Generated by graphviz version 2.40.1 (20161225.0304)
 -->
<!-- Title: ee/debug/samples/helloworld/helloworld.c Pages: 1 -->
<svg width="281pt" height="207pt"
 viewBox="0.00 0.00 281.00 207.00" xmlns="http://www.w3.org/2000/svg" xmlns:xlink="http://www.w3.org/1999/xlink">
<g id="graph0" class="graph" transform="scale(1 1) rotate(0) translate(4 203)">
<title>ee/debug/samples/helloworld/helloworld.c</title>
<polygon fill="#ffffff" stroke="transparent" points="-4,4 -4,-203 277,-203 277,4 -4,4"/>
<!-- Node1 -->
<g id="node1" class="node">
<title>Node1</title>
<g id="a_node1"><a xlink:title=" ">
<polygon fill="#bfbfbf" stroke="#000000" points="54,-168.5 54,-198.5 214,-198.5 214,-168.5 54,-168.5"/>
<text text-anchor="start" x="62" y="-186.5" font-family="Helvetica,sans-Serif" font-size="10.00" fill="#000000">ee/debug/samples/helloworld</text>
<text text-anchor="middle" x="134" y="-175.5" font-family="Helvetica,sans-Serif" font-size="10.00" fill="#000000">/helloworld.c</text>
</a>
</g>
</g>
<!-- Node2 -->
<g id="node2" class="node">
<title>Node2</title>
<g id="a_node2"><a xlink:title=" ">
<polygon fill="#ffffff" stroke="#bfbfbf" points="0,-112.5 0,-131.5 50,-131.5 50,-112.5 0,-112.5"/>
<text text-anchor="middle" x="25" y="-119.5" font-family="Helvetica,sans-Serif" font-size="10.00" fill="#000000">stdio.h</text>
</a>
</g>
</g>
<!-- Node1&#45;&gt;Node2 -->
<g id="edge1" class="edge">
<title>Node1&#45;&gt;Node2</title>
<path fill="none" stroke="#191970" d="M107.3356,-168.4554C90.1059,-158.734 67.8025,-146.15 50.7554,-136.5317"/>
<polygon fill="#191970" stroke="#191970" points="52.3204,-133.3961 41.8911,-131.5303 48.8806,-139.4926 52.3204,-133.3961"/>
</g>
<!-- Node3 -->
<g id="node3" class="node">
<title>Node3</title>
<g id="a_node3"><a xlink:href="tamtypes_8h.html" target="_top" xlink:title=" ">
<polygon fill="#ffffff" stroke="#000000" points="100,-.5 100,-19.5 172,-19.5 172,-.5 100,-.5"/>
<text text-anchor="middle" x="136" y="-7.5" font-family="Helvetica,sans-Serif" font-size="10.00" fill="#000000">tamtypes.h</text>
</a>
</g>
</g>
<!-- Node1&#45;&gt;Node3 -->
<g id="edge2" class="edge">
<title>Node1&#45;&gt;Node3</title>
<path fill="none" stroke="#191970" d="M120.0003,-168.088C112.2112,-158.4659 103.2521,-145.3947 99,-132 88.7791,-99.8026 86.5684,-87.7876 98,-56 101.9436,-45.0341 109.7597,-34.8227 117.2831,-26.8204"/>
<polygon fill="#191970" stroke="#191970" points="119.9193,-29.1354 124.5547,-19.6084 114.9899,-24.1653 119.9193,-29.1354"/>
</g>
<!-- Node4 -->
<g id="node4" class="node">
<title>Node4</title>
<g id="a_node4"><a xlink:href="sifrpc_8h.html" target="_top" xlink:title=" ">
<polygon fill="#ffffff" stroke="#000000" points="107.5,-112.5 107.5,-131.5 160.5,-131.5 160.5,-112.5 107.5,-112.5"/>
<text text-anchor="middle" x="134" y="-119.5" font-family="Helvetica,sans-Serif" font-size="10.00" fill="#000000">sifrpc.h</text>
</a>
</g>
</g>
<!-- Node1&#45;&gt;Node4 -->
<g id="edge3" class="edge">
<title>Node1&#45;&gt;Node4</title>
<path fill="none" stroke="#191970" d="M134,-168.2977C134,-160.3834 134,-150.6043 134,-142.0759"/>
<polygon fill="#191970" stroke="#191970" points="137.5001,-141.8469 134,-131.8469 130.5001,-141.847 137.5001,-141.8469"/>
</g>
<!-- Node6 -->
<g id="node6" class="node">
<title>Node6</title>
<g id="a_node6"><a xlink:href="debug_8h.html" target="_top" xlink:title=" ">
<polygon fill="#ffffff" stroke="#000000" points="184,-56.5 184,-75.5 240,-75.5 240,-56.5 184,-56.5"/>
<text text-anchor="middle" x="212" y="-63.5" font-family="Helvetica,sans-Serif" font-size="10.00" fill="#000000">debug.h</text>
</a>
</g>
</g>
<!-- Node1&#45;&gt;Node6 -->
<g id="edge6" class="edge">
<title>Node1&#45;&gt;Node6</title>
<path fill="none" stroke="#191970" d="M144.8867,-168.2959C152.12,-158.1044 161.7655,-144.3411 170,-132 180.5547,-116.1816 192.1278,-97.9233 200.4479,-84.626"/>
<polygon fill="#191970" stroke="#191970" points="203.5511,-86.264 205.8703,-75.9261 197.6105,-82.5614 203.5511,-86.264"/>
</g>
<!-- Node7 -->
<g id="node7" class="node">
<title>Node7</title>
<g id="a_node7"><a xlink:title=" ">
<polygon fill="#ffffff" stroke="#bfbfbf" points="217,-112.5 217,-131.5 273,-131.5 273,-112.5 217,-112.5"/>
<text text-anchor="middle" x="245" y="-119.5" font-family="Helvetica,sans-Serif" font-size="10.00" fill="#000000">unistd.h</text>
</a>
</g>
</g>
<!-- Node1&#45;&gt;Node7 -->
<g id="edge8" class="edge">
<title>Node1&#45;&gt;Node7</title>
<path fill="none" stroke="#191970" d="M161.1537,-168.4554C178.6995,-158.734 201.4122,-146.15 218.7721,-136.5317"/>
<polygon fill="#191970" stroke="#191970" points="220.748,-139.4383 227.7989,-131.5303 217.3555,-133.3153 220.748,-139.4383"/>
</g>
<!-- Node5 -->
<g id="node5" class="node">
<title>Node5</title>
<g id="a_node5"><a xlink:href="sifcmd_8h.html" target="_top" xlink:title=" ">
<polygon fill="#ffffff" stroke="#000000" points="106.5,-56.5 106.5,-75.5 165.5,-75.5 165.5,-56.5 106.5,-56.5"/>
<text text-anchor="middle" x="136" y="-63.5" font-family="Helvetica,sans-Serif" font-size="10.00" fill="#000000">sifcmd.h</text>
</a>
</g>
</g>
<!-- Node4&#45;&gt;Node5 -->
<g id="edge4" class="edge">
<title>Node4&#45;&gt;Node5</title>
<path fill="none" stroke="#191970" d="M134.3484,-112.2455C134.6093,-104.9382 134.9752,-94.6944 135.2963,-85.7046"/>
<polygon fill="#191970" stroke="#191970" points="138.7964,-85.7613 135.6556,-75.6427 131.8008,-85.5113 138.7964,-85.7613"/>
</g>
<!-- Node5&#45;&gt;Node3 -->
<g id="edge5" class="edge">
<title>Node5&#45;&gt;Node3</title>
<path fill="none" stroke="#191970" d="M136,-56.2455C136,-48.9382 136,-38.6944 136,-29.7046"/>
<polygon fill="#191970" stroke="#191970" points="139.5001,-29.6426 136,-19.6427 132.5001,-29.6427 139.5001,-29.6426"/>
</g>
<!-- Node6&#45;&gt;Node3 -->
<g id="edge7" class="edge">
<title>Node6&#45;&gt;Node3</title>
<path fill="none" stroke="#191970" d="M198.7618,-56.2455C187.319,-47.814 170.5704,-35.4729 157.2525,-25.6598"/>
<polygon fill="#191970" stroke="#191970" points="159.2133,-22.757 149.0865,-19.6427 155.0609,-28.3924 159.2133,-22.757"/>
</g>
</g>
</svg>
