<?xml version="1.0" encoding="UTF-8" standalone="no"?>
<!DOCTYPE svg PUBLIC "-//W3C//DTD SVG 1.1//EN"
 "http://www.w3.org/Graphics/SVG/1.1/DTD/svg11.dtd">
<!-- Generated by graphviz version 2.40.1 (20161225.0304)
 -->
<!-- Title: ee/input/src/input.c Pages: 1 -->
<svg width="242pt" height="140pt"
 viewBox="0.00 0.00 242.00 140.00" xmlns="http://www.w3.org/2000/svg" xmlns:xlink="http://www.w3.org/1999/xlink">
<g id="graph0" class="graph" transform="scale(1 1) rotate(0) translate(4 136)">
<title>ee/input/src/input.c</title>
<polygon fill="#ffffff" stroke="transparent" points="-4,4 -4,-136 238,-136 238,4 -4,4"/>
<!-- Node1 -->
<g id="node1" class="node">
<title>Node1</title>
<g id="a_node1"><a xlink:title=" ">
<polygon fill="#bfbfbf" stroke="#000000" points="72,-112.5 72,-131.5 182,-131.5 182,-112.5 72,-112.5"/>
<text text-anchor="middle" x="127" y="-119.5" font-family="Helvetica,sans-Serif" font-size="10.00" fill="#000000">ee/input/src/input.c</text>
</a>
</g>
</g>
<!-- Node2 -->
<g id="node2" class="node">
<title>Node2</title>
<g id="a_node2"><a xlink:title=" ">
<polygon fill="#ffffff" stroke="#bfbfbf" points="0,-56.5 0,-75.5 50,-75.5 50,-56.5 0,-56.5"/>
<text text-anchor="middle" x="25" y="-63.5" font-family="Helvetica,sans-Serif" font-size="10.00" fill="#000000">stdio.h</text>
</a>
</g>
</g>
<!-- Node1&#45;&gt;Node2 -->
<g id="edge1" class="edge">
<title>Node1&#45;&gt;Node2</title>
<path fill="none" stroke="#191970" d="M109.233,-112.2455C93.2905,-103.4928 69.6741,-90.527 51.5011,-80.5496"/>
<polygon fill="#191970" stroke="#191970" points="53.0137,-77.3873 42.5634,-75.6427 49.6448,-83.5233 53.0137,-77.3873"/>
</g>
<!-- Node3 -->
<g id="node3" class="node">
<title>Node3</title>
<g id="a_node3"><a xlink:title=" ">
<polygon fill="#ffffff" stroke="#bfbfbf" points="68.5,-56.5 68.5,-75.5 127.5,-75.5 127.5,-56.5 68.5,-56.5"/>
<text text-anchor="middle" x="98" y="-63.5" font-family="Helvetica,sans-Serif" font-size="10.00" fill="#000000">malloc.h</text>
</a>
</g>
</g>
<!-- Node1&#45;&gt;Node3 -->
<g id="edge2" class="edge">
<title>Node1&#45;&gt;Node3</title>
<path fill="none" stroke="#191970" d="M121.9486,-112.2455C117.9981,-104.617 112.3903,-93.7881 107.5942,-84.5267"/>
<polygon fill="#191970" stroke="#191970" points="110.7001,-82.9131 102.9935,-75.6427 104.4841,-86.1321 110.7001,-82.9131"/>
</g>
<!-- Node4 -->
<g id="node4" class="node">
<title>Node4</title>
<g id="a_node4"><a xlink:href="libpad_8h.html" target="_top" xlink:title=" ">
<polygon fill="#ffffff" stroke="#000000" points="154,-.5 154,-19.5 210,-19.5 210,-.5 154,-.5"/>
<text text-anchor="middle" x="182" y="-7.5" font-family="Helvetica,sans-Serif" font-size="10.00" fill="#000000">libpad.h</text>
</a>
</g>
</g>
<!-- Node1&#45;&gt;Node4 -->
<g id="edge3" class="edge">
<title>Node1&#45;&gt;Node4</title>
<path fill="none" stroke="#191970" d="M131.6893,-112.4509C140.7814,-93.936 160.9531,-52.8591 172.8078,-28.7187"/>
<polygon fill="#191970" stroke="#191970" points="176.0563,-30.0438 177.3226,-19.5249 169.773,-26.9582 176.0563,-30.0438"/>
</g>
<!-- Node5 -->
<g id="node5" class="node">
<title>Node5</title>
<g id="a_node5"><a xlink:href="input_8h.html" target="_top" xlink:title=" ">
<polygon fill="#ffffff" stroke="#000000" points="184,-56.5 184,-75.5 234,-75.5 234,-56.5 184,-56.5"/>
<text text-anchor="middle" x="209" y="-63.5" font-family="Helvetica,sans-Serif" font-size="10.00" fill="#000000">input.h</text>
</a>
</g>
</g>
<!-- Node1&#45;&gt;Node5 -->
<g id="edge4" class="edge">
<title>Node1&#45;&gt;Node5</title>
<path fill="none" stroke="#191970" d="M141.2833,-112.2455C153.747,-103.7337 172.0451,-91.2375 186.4792,-81.3801"/>
<polygon fill="#191970" stroke="#191970" points="188.5962,-84.1726 194.8804,-75.6427 184.6485,-78.392 188.5962,-84.1726"/>
</g>
<!-- Node5&#45;&gt;Node4 -->
<g id="edge5" class="edge">
<title>Node5&#45;&gt;Node4</title>
<path fill="none" stroke="#191970" d="M204.297,-56.2455C200.6576,-48.6973 195.5076,-38.0158 191.0738,-28.8197"/>
<polygon fill="#191970" stroke="#191970" points="194.1449,-27.1303 186.6491,-19.6427 187.8395,-30.1704 194.1449,-27.1303"/>
</g>
</g>
</svg>
