<?xml version="1.0" encoding="UTF-8" standalone="no"?>
<!DOCTYPE svg PUBLIC "-//W3C//DTD SVG 1.1//EN"
 "http://www.w3.org/Graphics/SVG/1.1/DTD/svg11.dtd">
<!-- Generated by graphviz version 2.40.1 (20161225.0304)
 -->
<!-- Title: ee/kernel/src/iopcontrol.c Pages: 1 -->
<svg width="523pt" height="196pt"
 viewBox="0.00 0.00 522.79 196.00" xmlns="http://www.w3.org/2000/svg" xmlns:xlink="http://www.w3.org/1999/xlink">
<g id="graph0" class="graph" transform="scale(1 1) rotate(0) translate(4 192)">
<title>ee/kernel/src/iopcontrol.c</title>
<polygon fill="#ffffff" stroke="transparent" points="-4,4 -4,-192 518.7904,-192 518.7904,4 -4,4"/>
<!-- Node1 -->
<g id="node1" class="node">
<title>Node1</title>
<g id="a_node1"><a xlink:title=" ">
<polygon fill="#bfbfbf" stroke="#000000" points="186.7904,-168.5 186.7904,-187.5 326.7904,-187.5 326.7904,-168.5 186.7904,-168.5"/>
<text text-anchor="middle" x="256.7904" y="-175.5" font-family="Helvetica,sans-Serif" font-size="10.00" fill="#000000">ee/kernel/src/iopcontrol.c</text>
</a>
</g>
</g>
<!-- Node2 -->
<g id="node2" class="node">
<title>Node2</title>
<g id="a_node2"><a xlink:href="tamtypes_8h.html" target="_top" xlink:title=" ">
<polygon fill="#ffffff" stroke="#000000" points="154.7904,-.5 154.7904,-19.5 226.7904,-19.5 226.7904,-.5 154.7904,-.5"/>
<text text-anchor="middle" x="190.7904" y="-7.5" font-family="Helvetica,sans-Serif" font-size="10.00" fill="#000000">tamtypes.h</text>
</a>
</g>
</g>
<!-- Node1&#45;&gt;Node2 -->
<g id="edge1" class="edge">
<title>Node1&#45;&gt;Node2</title>
<path fill="none" stroke="#191970" d="M205.0157,-168.4399C170.7774,-161.0343 125.4338,-149.122 87.7904,-132 46.9477,-113.4229 24.9622,-115.5599 3.7904,-76 -.4039,-68.1629 -1.6932,-62.9959 3.7904,-56 20.9275,-34.1364 94.6143,-21.2743 144.2122,-14.9401"/>
<polygon fill="#191970" stroke="#191970" points="144.9034,-18.3816 154.4012,-13.6867 144.0487,-11.4339 144.9034,-18.3816"/>
</g>
<!-- Node3 -->
<g id="node3" class="node">
<title>Node3</title>
<g id="a_node3"><a xlink:href="kernel_8h.html" target="_top" xlink:title=" ">
<polygon fill="#ffffff" stroke="#000000" points="96.7904,-112.5 96.7904,-131.5 152.7904,-131.5 152.7904,-112.5 96.7904,-112.5"/>
<text text-anchor="middle" x="124.7904" y="-119.5" font-family="Helvetica,sans-Serif" font-size="10.00" fill="#000000">kernel.h</text>
</a>
</g>
</g>
<!-- Node1&#45;&gt;Node3 -->
<g id="edge2" class="edge">
<title>Node1&#45;&gt;Node3</title>
<path fill="none" stroke="#191970" d="M234.0987,-168.3733C212.7193,-159.3032 180.4847,-145.6279 156.5541,-135.4755"/>
<polygon fill="#191970" stroke="#191970" points="157.7586,-132.1846 147.1859,-131.5011 155.0247,-138.6287 157.7586,-132.1846"/>
</g>
<!-- Node7 -->
<g id="node7" class="node">
<title>Node7</title>
<g id="a_node7"><a xlink:href="sifcmd_8h.html" target="_top" xlink:title=" ">
<polygon fill="#ffffff" stroke="#000000" points="238.2904,-56.5 238.2904,-75.5 297.2904,-75.5 297.2904,-56.5 238.2904,-56.5"/>
<text text-anchor="middle" x="267.7904" y="-63.5" font-family="Helvetica,sans-Serif" font-size="10.00" fill="#000000">sifcmd.h</text>
</a>
</g>
</g>
<!-- Node1&#45;&gt;Node7 -->
<g id="edge7" class="edge">
<title>Node1&#45;&gt;Node7</title>
<path fill="none" stroke="#191970" d="M245.6596,-168.4408C232.4269,-155.8471 213.1542,-132.8496 221.7904,-112 226.6216,-100.3363 236.0041,-90.0881 245.0421,-82.243"/>
<polygon fill="#191970" stroke="#191970" points="247.517,-84.7436 253.1051,-75.7423 243.1234,-79.2942 247.517,-84.7436"/>
</g>
<!-- Node8 -->
<g id="node8" class="node">
<title>Node8</title>
<g id="a_node8"><a xlink:href="sifrpc_8h.html" target="_top" xlink:title=" ">
<polygon fill="#ffffff" stroke="#000000" points="230.2904,-112.5 230.2904,-131.5 283.2904,-131.5 283.2904,-112.5 230.2904,-112.5"/>
<text text-anchor="middle" x="256.7904" y="-119.5" font-family="Helvetica,sans-Serif" font-size="10.00" fill="#000000">sifrpc.h</text>
</a>
</g>
</g>
<!-- Node1&#45;&gt;Node8 -->
<g id="edge9" class="edge">
<title>Node1&#45;&gt;Node8</title>
<path fill="none" stroke="#191970" d="M256.7904,-168.2455C256.7904,-160.9382 256.7904,-150.6944 256.7904,-141.7046"/>
<polygon fill="#191970" stroke="#191970" points="260.2905,-141.6426 256.7904,-131.6427 253.2905,-141.6427 260.2905,-141.6426"/>
</g>
<!-- Node9 -->
<g id="node9" class="node">
<title>Node9</title>
<g id="a_node9"><a xlink:title=" ">
<polygon fill="#ffffff" stroke="#bfbfbf" points="301.2904,-112.5 301.2904,-131.5 354.2904,-131.5 354.2904,-112.5 301.2904,-112.5"/>
<text text-anchor="middle" x="327.7904" y="-119.5" font-family="Helvetica,sans-Serif" font-size="10.00" fill="#000000">string.h</text>
</a>
</g>
</g>
<!-- Node1&#45;&gt;Node9 -->
<g id="edge11" class="edge">
<title>Node1&#45;&gt;Node9</title>
<path fill="none" stroke="#191970" d="M269.1576,-168.2455C279.7458,-159.8943 295.1968,-147.7076 307.5797,-137.9408"/>
<polygon fill="#191970" stroke="#191970" points="309.8807,-140.5837 315.5648,-131.6427 305.5456,-135.0875 309.8807,-140.5837"/>
</g>
<!-- Node10 -->
<g id="node10" class="node">
<title>Node10</title>
<g id="a_node10"><a xlink:title=" ">
<polygon fill="#ffffff" stroke="#bfbfbf" points="372.7904,-112.5 372.7904,-131.5 422.7904,-131.5 422.7904,-112.5 372.7904,-112.5"/>
<text text-anchor="middle" x="397.7904" y="-119.5" font-family="Helvetica,sans-Serif" font-size="10.00" fill="#000000">stdio.h</text>
</a>
</g>
</g>
<!-- Node1&#45;&gt;Node10 -->
<g id="edge12" class="edge">
<title>Node1&#45;&gt;Node10</title>
<path fill="none" stroke="#191970" d="M281.0291,-168.3733C304.0693,-159.2226 338.9118,-145.3844 364.5404,-135.2057"/>
<polygon fill="#191970" stroke="#191970" points="365.866,-138.4452 373.8679,-131.5011 363.2821,-131.9395 365.866,-138.4452"/>
</g>
<!-- Node11 -->
<g id="node11" class="node">
<title>Node11</title>
<g id="a_node11"><a xlink:href="iopcontrol_8h.html" target="_top" xlink:title=" ">
<polygon fill="#ffffff" stroke="#000000" points="440.7904,-112.5 440.7904,-131.5 514.7904,-131.5 514.7904,-112.5 440.7904,-112.5"/>
<text text-anchor="middle" x="477.7904" y="-119.5" font-family="Helvetica,sans-Serif" font-size="10.00" fill="#000000">iopcontrol.h</text>
</a>
</g>
</g>
<!-- Node1&#45;&gt;Node11 -->
<g id="edge13" class="edge">
<title>Node1&#45;&gt;Node11</title>
<path fill="none" stroke="#191970" d="M294.5305,-168.4369C332.1488,-158.9047 390.0197,-144.2405 430.6414,-133.9472"/>
<polygon fill="#191970" stroke="#191970" points="431.7406,-137.2794 440.5745,-131.4303 430.0211,-130.4939 431.7406,-137.2794"/>
</g>
<!-- Node4 -->
<g id="node4" class="node">
<title>Node4</title>
<g id="a_node4"><a xlink:title=" ">
<polygon fill="#ffffff" stroke="#bfbfbf" points="12.7904,-56.5 12.7904,-75.5 68.7904,-75.5 68.7904,-56.5 12.7904,-56.5"/>
<text text-anchor="middle" x="40.7904" y="-63.5" font-family="Helvetica,sans-Serif" font-size="10.00" fill="#000000">stddef.h</text>
</a>
</g>
</g>
<!-- Node3&#45;&gt;Node4 -->
<g id="edge3" class="edge">
<title>Node3&#45;&gt;Node4</title>
<path fill="none" stroke="#191970" d="M110.1587,-112.2455C97.3909,-103.7337 78.6466,-91.2375 63.8605,-81.3801"/>
<polygon fill="#191970" stroke="#191970" points="65.5163,-78.2775 55.2544,-75.6427 61.6334,-84.1019 65.5163,-78.2775"/>
</g>
<!-- Node5 -->
<g id="node5" class="node">
<title>Node5</title>
<g id="a_node5"><a xlink:title=" ">
<polygon fill="#ffffff" stroke="#bfbfbf" points="86.7904,-56.5 86.7904,-75.5 142.7904,-75.5 142.7904,-56.5 86.7904,-56.5"/>
<text text-anchor="middle" x="114.7904" y="-63.5" font-family="Helvetica,sans-Serif" font-size="10.00" fill="#000000">stdarg.h</text>
</a>
</g>
</g>
<!-- Node3&#45;&gt;Node5 -->
<g id="edge4" class="edge">
<title>Node3&#45;&gt;Node5</title>
<path fill="none" stroke="#191970" d="M123.0485,-112.2455C121.7436,-104.9382 119.9143,-94.6944 118.309,-85.7046"/>
<polygon fill="#191970" stroke="#191970" points="121.7157,-84.8717 116.5123,-75.6427 114.8247,-86.1022 121.7157,-84.8717"/>
</g>
<!-- Node6 -->
<g id="node6" class="node">
<title>Node6</title>
<g id="a_node6"><a xlink:href="sifdma_8h.html" target="_top" xlink:title=" ">
<polygon fill="#ffffff" stroke="#000000" points="161.2904,-56.5 161.2904,-75.5 220.2904,-75.5 220.2904,-56.5 161.2904,-56.5"/>
<text text-anchor="middle" x="190.7904" y="-63.5" font-family="Helvetica,sans-Serif" font-size="10.00" fill="#000000">sifdma.h</text>
</a>
</g>
</g>
<!-- Node3&#45;&gt;Node6 -->
<g id="edge5" class="edge">
<title>Node3&#45;&gt;Node6</title>
<path fill="none" stroke="#191970" d="M136.2867,-112.2455C146.0345,-103.9746 160.2163,-91.9416 171.6701,-82.2232"/>
<polygon fill="#191970" stroke="#191970" points="174.0651,-84.7813 179.4258,-75.6427 169.5362,-79.4437 174.0651,-84.7813"/>
</g>
<!-- Node6&#45;&gt;Node2 -->
<g id="edge6" class="edge">
<title>Node6&#45;&gt;Node2</title>
<path fill="none" stroke="#191970" d="M190.7904,-56.2455C190.7904,-48.9382 190.7904,-38.6944 190.7904,-29.7046"/>
<polygon fill="#191970" stroke="#191970" points="194.2905,-29.6426 190.7904,-19.6427 187.2905,-29.6427 194.2905,-29.6426"/>
</g>
<!-- Node7&#45;&gt;Node2 -->
<g id="edge8" class="edge">
<title>Node7&#45;&gt;Node2</title>
<path fill="none" stroke="#191970" d="M254.378,-56.2455C242.7846,-47.814 225.8156,-35.4729 212.3225,-25.6598"/>
<polygon fill="#191970" stroke="#191970" points="214.195,-22.6938 204.049,-19.6427 210.0778,-28.355 214.195,-22.6938"/>
</g>
<!-- Node8&#45;&gt;Node7 -->
<g id="edge10" class="edge">
<title>Node8&#45;&gt;Node7</title>
<path fill="none" stroke="#191970" d="M258.7064,-112.2455C260.1418,-104.9382 262.154,-94.6944 263.9198,-85.7046"/>
<polygon fill="#191970" stroke="#191970" points="267.4031,-86.1298 265.8963,-75.6427 260.5344,-84.7805 267.4031,-86.1298"/>
</g>
</g>
</svg>
