<?xml version="1.0" encoding="UTF-8" standalone="no"?>
<!DOCTYPE svg PUBLIC "-//W3C//DTD SVG 1.1//EN"
 "http://www.w3.org/Graphics/SVG/1.1/DTD/svg11.dtd">
<!-- Generated by graphviz version 2.40.1 (20161225.0304)
 -->
<!-- Title: common/include/iox_stat.h Pages: 1 -->
<svg width="352pt" height="229pt"
 viewBox="0.00 0.00 351.50 229.00" xmlns="http://www.w3.org/2000/svg" xmlns:xlink="http://www.w3.org/1999/xlink">
<g id="graph0" class="graph" transform="scale(1 1) rotate(0) translate(4 225)">
<title>common/include/iox_stat.h</title>
<polygon fill="#ffffff" stroke="transparent" points="-4,4 -4,-225 347.5,-225 347.5,4 -4,4"/>
<!-- Node1 -->
<g id="node1" class="node">
<title>Node1</title>
<g id="a_node1"><a xlink:title=" ">
<polygon fill="#bfbfbf" stroke="#000000" points="81.5,-190.5 81.5,-220.5 197.5,-220.5 197.5,-190.5 81.5,-190.5"/>
<text text-anchor="start" x="89.5" y="-208.5" font-family="Helvetica,sans-Serif" font-size="10.00" fill="#000000">common/include/iox</text>
<text text-anchor="middle" x="139.5" y="-197.5" font-family="Helvetica,sans-Serif" font-size="10.00" fill="#000000">_stat.h</text>
</a>
</g>
</g>
<!-- Node2 -->
<g id="node2" class="node">
<title>Node2</title>
<g id="a_node2"><a xlink:href="ps2sdkapi_8c.html" target="_top" xlink:title=" ">
<polygon fill="#ffffff" stroke="#000000" points="0,-134.5 0,-153.5 127,-153.5 127,-134.5 0,-134.5"/>
<text text-anchor="middle" x="63.5" y="-141.5" font-family="Helvetica,sans-Serif" font-size="10.00" fill="#000000">ee/libc/src/ps2sdkapi.c</text>
</a>
</g>
</g>
<!-- Node1&#45;&gt;Node2 -->
<g id="edge1" class="edge">
<title>Node1&#45;&gt;Node2</title>
<path fill="none" stroke="#191970" d="M112.7357,-183.8421C100.0953,-173.6133 85.6323,-161.9097 75.6686,-153.8469"/>
<polygon fill="#191970" stroke="#191970" points="110.7381,-186.728 120.7135,-190.2977 115.1415,-181.2864 110.7381,-186.728"/>
</g>
<!-- Node3 -->
<g id="node3" class="node">
<title>Node3</title>
<g id="a_node3"><a xlink:href="fileXio_8h.html" target="_top" xlink:title=" ">
<polygon fill="#ffffff" stroke="#000000" points="145.5,-134.5 145.5,-153.5 285.5,-153.5 285.5,-134.5 145.5,-134.5"/>
<text text-anchor="middle" x="215.5" y="-141.5" font-family="Helvetica,sans-Serif" font-size="10.00" fill="#000000">common/include/fileXio.h</text>
</a>
</g>
</g>
<!-- Node1&#45;&gt;Node3 -->
<g id="edge2" class="edge">
<title>Node1&#45;&gt;Node3</title>
<path fill="none" stroke="#191970" d="M166.2643,-183.8421C178.9047,-173.6133 193.3677,-161.9097 203.3314,-153.8469"/>
<polygon fill="#191970" stroke="#191970" points="163.8585,-181.2864 158.2865,-190.2977 168.2619,-186.728 163.8585,-181.2864"/>
</g>
<!-- Node4 -->
<g id="node4" class="node">
<title>Node4</title>
<g id="a_node4"><a xlink:href="fileXio__rpc_8h.html" target="_top" xlink:title=" ">
<polygon fill="#ffffff" stroke="#000000" points="156.5,-67.5 156.5,-97.5 274.5,-97.5 274.5,-67.5 156.5,-67.5"/>
<text text-anchor="start" x="164.5" y="-85.5" font-family="Helvetica,sans-Serif" font-size="10.00" fill="#000000">ee/rpc/filexio/include</text>
<text text-anchor="middle" x="215.5" y="-74.5" font-family="Helvetica,sans-Serif" font-size="10.00" fill="#000000">/fileXio_rpc.h</text>
</a>
</g>
</g>
<!-- Node3&#45;&gt;Node4 -->
<g id="edge3" class="edge">
<title>Node3&#45;&gt;Node4</title>
<path fill="none" stroke="#191970" d="M215.5,-124.3693C215.5,-115.681 215.5,-105.6241 215.5,-97.5446"/>
<polygon fill="#191970" stroke="#191970" points="212.0001,-124.3906 215.5,-134.3906 219.0001,-124.3907 212.0001,-124.3906"/>
</g>
<!-- Node5 -->
<g id="node5" class="node">
<title>Node5</title>
<g id="a_node5"><a xlink:href="fileXio__rpc_8c.html" target="_top" xlink:title=" ">
<polygon fill="#ffffff" stroke="#000000" points="102,-.5 102,-30.5 199,-30.5 199,-.5 102,-.5"/>
<text text-anchor="start" x="110" y="-18.5" font-family="Helvetica,sans-Serif" font-size="10.00" fill="#000000">ee/rpc/filexio/src</text>
<text text-anchor="middle" x="150.5" y="-7.5" font-family="Helvetica,sans-Serif" font-size="10.00" fill="#000000">/fileXio_rpc.c</text>
</a>
</g>
</g>
<!-- Node4&#45;&gt;Node5 -->
<g id="edge4" class="edge">
<title>Node4&#45;&gt;Node5</title>
<path fill="none" stroke="#191970" d="M193.5992,-59.9253C184.2445,-50.2828 173.5743,-39.2843 165.1911,-30.6432"/>
<polygon fill="#191970" stroke="#191970" points="191.2752,-62.5564 200.7505,-67.2967 196.2994,-57.6821 191.2752,-62.5564"/>
</g>
<!-- Node6 -->
<g id="node6" class="node">
<title>Node6</title>
<g id="a_node6"><a xlink:href="libhdd_8c.html" target="_top" xlink:title=" ">
<polygon fill="#ffffff" stroke="#000000" points="217.5,-6 217.5,-25 343.5,-25 343.5,-6 217.5,-6"/>
<text text-anchor="middle" x="280.5" y="-13" font-family="Helvetica,sans-Serif" font-size="10.00" fill="#000000">ee/rpc/hdd/src/libhdd.c</text>
</a>
</g>
</g>
<!-- Node4&#45;&gt;Node6 -->
<g id="edge5" class="edge">
<title>Node4&#45;&gt;Node6</title>
<path fill="none" stroke="#191970" d="M237.4596,-59.8648C248.9721,-47.998 262.4634,-34.0916 271.2303,-25.055"/>
<polygon fill="#191970" stroke="#191970" points="234.7006,-57.6821 230.2495,-67.2967 239.7248,-62.5564 234.7006,-57.6821"/>
</g>
</g>
</svg>
