<?xml version="1.0" encoding="UTF-8" standalone="no"?>
<!DOCTYPE svg PUBLIC "-//W3C//DTD SVG 1.1//EN"
 "http://www.w3.org/Graphics/SVG/1.1/DTD/svg11.dtd">
<!-- Generated by graphviz version 2.40.1 (20161225.0304)
 -->
<!-- Title: common/include/libcdvd&#45;common.h Pages: 1 -->
<!--zoomable 240 -->
<svg id="main" version="1.1" xmlns="http://www.w3.org/2000/svg" xmlns:xlink="http://www.w3.org/1999/xlink" xml:space="preserve" onload="init(evt)">
<style type="text/css"><![CDATA[
.edge:hover path { stroke: red; }
.edge:hover polygon { stroke: red; fill: red; }
]]></style>
<script type="text/javascript"><![CDATA[
var edges = document.getElementsByTagName('g');
if (edges && edges.length) {
  for (var i=0;i<edges.length;i++) {
    if (edges[i].id.substr(0,4)=='edge') {
      edges[i].setAttribute('class','edge');
    }
  }
}
]]></script>
        <defs>
                <circle id="rim" cx="0" cy="0" r="7"/>
                <circle id="rim2" cx="0" cy="0" r="3.5"/>
                <g id="zoomPlus">
                        <use xlink:href="#rim" fill="#404040">
                                <set attributeName="fill" to="#808080" begin="zoomplus.mouseover" end="zoomplus.mouseout"/>
                        </use>
                        <path d="M-4,0h8M0,-4v8" fill="none" stroke="white" stroke-width="1.5" pointer-events="none"/>
                </g>
                <g id="zoomMin">
                        <use xlink:href="#rim" fill="#404040">
                                <set attributeName="fill" to="#808080" begin="zoomminus.mouseover" end="zoomminus.mouseout"/>
                        </use>
                        <path d="M-4,0h8" fill="none" stroke="white" stroke-width="1.5" pointer-events="none"/>
                </g>
                <g id="dirArrow">
                        <path fill="none" stroke="white" stroke-width="1.5" d="M0,-3.0v7 M-2.5,-0.5L0,-3.0L2.5,-0.5"/>
                </g>
               <g id="resetDef">
                       <use xlink:href="#rim2" fill="#404040">
                               <set attributeName="fill" to="#808080" begin="reset.mouseover" end="reset.mouseout"/>
                       </use>
               </g>
        </defs>

<script type="text/javascript">
var viewWidth = 1393;
var viewHeight = 240;
var sectionId = 'dynsection-1';
</script>
<script xlink:href="svgpan.js"/>
<svg id="graph" class="graph">
<g id="viewport">
<title>common/include/libcdvd&#45;common.h</title>
<polygon fill="#ffffff" stroke="transparent" points="-4,4 -4,-236 1388.5,-236 1388.5,4 -4,4"/>
<!-- Node1 -->
<g id="node1" class="node">
<title>Node1</title>
<g id="a_node1"><a xlink:title=" ">
<polygon fill="#bfbfbf" stroke="#000000" points="1052.5,-201.5 1052.5,-231.5 1188.5,-231.5 1188.5,-201.5 1052.5,-201.5"/>
<text text-anchor="start" x="1060.5" y="-219.5" font-family="Helvetica,sans-Serif" font-size="10.00" fill="#000000">common/include/libcdvd</text>
<text text-anchor="middle" x="1120.5" y="-208.5" font-family="Helvetica,sans-Serif" font-size="10.00" fill="#000000">&#45;common.h</text>
</a>
</g>
</g>
<!-- Node2 -->
<g id="node2" class="node">
<title>Node2</title>
<g id="a_node2"><a xlink:href="libcdvd_8h.html" target="_top" xlink:title=" ">
<polygon fill="#ffffff" stroke="#000000" points="1065,-134.5 1065,-164.5 1176,-164.5 1176,-134.5 1065,-134.5"/>
<text text-anchor="start" x="1073" y="-152.5" font-family="Helvetica,sans-Serif" font-size="10.00" fill="#000000">ee/rpc/cdvd/include</text>
<text text-anchor="middle" x="1120.5" y="-141.5" font-family="Helvetica,sans-Serif" font-size="10.00" fill="#000000">/libcdvd.h</text>
</a>
</g>
</g>
<!-- Node1&#45;&gt;Node2 -->
<g id="edge1" class="edge">
<title>Node1&#45;&gt;Node2</title>
<path fill="none" stroke="#191970" d="M1120.5,-191.0249C1120.5,-182.128 1120.5,-172.4287 1120.5,-164.6432"/>
<polygon fill="#191970" stroke="#191970" points="1117.0001,-191.2966 1120.5,-201.2967 1124.0001,-191.2967 1117.0001,-191.2966"/>
</g>
<!-- Node3 -->
<g id="node3" class="node">
<title>Node3</title>
<g id="a_node3"><a xlink:href="osd__config_8h.html" target="_top" xlink:title=" ">
<polygon fill="#ffffff" stroke="#000000" points="688,-67.5 688,-97.5 809,-97.5 809,-67.5 688,-67.5"/>
<text text-anchor="start" x="696" y="-85.5" font-family="Helvetica,sans-Serif" font-size="10.00" fill="#000000">ee/kernel/include/osd</text>
<text text-anchor="middle" x="748.5" y="-74.5" font-family="Helvetica,sans-Serif" font-size="10.00" fill="#000000">_config.h</text>
</a>
</g>
</g>
<!-- Node2&#45;&gt;Node3 -->
<g id="edge2" class="edge">
<title>Node2&#45;&gt;Node3</title>
<path fill="none" stroke="#191970" d="M1054.8558,-137.677C985.4092,-125.1691 876.7313,-105.5954 809.2137,-93.435"/>
<polygon fill="#191970" stroke="#191970" points="1054.3458,-141.1414 1064.8078,-139.4694 1055.5866,-134.2522 1054.3458,-141.1414"/>
</g>
<!-- Node13 -->
<g id="node13" class="node">
<title>Node13</title>
<g id="a_node13"><a xlink:href="scmd_8c.html" target="_top" xlink:title=" ">
<polygon fill="#ffffff" stroke="#000000" points="1244.5,-6 1244.5,-25 1372.5,-25 1372.5,-6 1244.5,-6"/>
<text text-anchor="middle" x="1308.5" y="-13" font-family="Helvetica,sans-Serif" font-size="10.00" fill="#000000">ee/rpc/cdvd/src/scmd.c</text>
</a>
</g>
</g>
<!-- Node2&#45;&gt;Node13 -->
<g id="edge15" class="edge">
<title>Node2&#45;&gt;Node13</title>
<path fill="none" stroke="#191970" d="M1101.6648,-126.2136C1089.7316,-108.4722 1078.8868,-84.2406 1092.5,-67 1095.2213,-63.5536 1203.5414,-38.913 1265.7266,-25.0018"/>
<polygon fill="#191970" stroke="#191970" points="1098.8293,-128.2654 1107.5079,-134.3425 1104.5132,-124.1797 1098.8293,-128.2654"/>
</g>
<!-- Node14 -->
<g id="node14" class="node">
<title>Node14</title>
<g id="a_node14"><a xlink:href="libcdvd_8c.html" target="_top" xlink:title=" ">
<polygon fill="#ffffff" stroke="#000000" points="1101,-73 1101,-92 1238,-92 1238,-73 1101,-73"/>
<text text-anchor="middle" x="1169.5" y="-80" font-family="Helvetica,sans-Serif" font-size="10.00" fill="#000000">ee/rpc/cdvd/src/libcdvd.c</text>
</a>
</g>
</g>
<!-- Node2&#45;&gt;Node14 -->
<g id="edge13" class="edge">
<title>Node2&#45;&gt;Node14</title>
<path fill="none" stroke="#191970" d="M1137.5516,-126.1845C1146.1189,-114.47 1156.0291,-100.9195 1162.512,-92.055"/>
<polygon fill="#191970" stroke="#191970" points="1134.697,-124.1588 1131.6189,-134.2967 1140.3472,-128.2911 1134.697,-124.1588"/>
</g>
<!-- Node15 -->
<g id="node15" class="node">
<title>Node15</title>
<g id="a_node15"><a xlink:href="ncmd_8c.html" target="_top" xlink:title=" ">
<polygon fill="#ffffff" stroke="#000000" points="1256.5,-73 1256.5,-92 1384.5,-92 1384.5,-73 1256.5,-73"/>
<text text-anchor="middle" x="1320.5" y="-80" font-family="Helvetica,sans-Serif" font-size="10.00" fill="#000000">ee/rpc/cdvd/src/ncmd.c</text>
</a>
</g>
</g>
<!-- Node2&#45;&gt;Node15 -->
<g id="edge14" class="edge">
<title>Node2&#45;&gt;Node15</title>
<path fill="none" stroke="#191970" d="M1175.2395,-131.1623C1213.0589,-118.4928 1261.8245,-102.1563 1292.126,-92.0053"/>
<polygon fill="#191970" stroke="#191970" points="1173.7542,-127.9686 1165.3839,-134.4639 1175.9778,-134.6061 1173.7542,-127.9686"/>
</g>
<!-- Node4 -->
<g id="node4" class="node">
<title>Node4</title>
<g id="a_node4"><a xlink:href="scr__printf_8c.html" target="_top" xlink:title=" ">
<polygon fill="#ffffff" stroke="#000000" points="0,-6 0,-25 135,-25 135,-6 0,-6"/>
<text text-anchor="middle" x="67.5" y="-13" font-family="Helvetica,sans-Serif" font-size="10.00" fill="#000000">ee/debug/src/scr_printf.c</text>
</a>
</g>
</g>
<!-- Node3&#45;&gt;Node4 -->
<g id="edge3" class="edge">
<title>Node3&#45;&gt;Node4</title>
<path fill="none" stroke="#191970" d="M677.4184,-79.1329C564.0475,-73.1604 335.4874,-58.6534 143.5,-31 132.5706,-29.4258 120.8453,-27.2697 109.9552,-25.0661"/>
<polygon fill="#191970" stroke="#191970" points="677.5265,-82.6432 687.6948,-79.6675 677.8902,-75.6526 677.5265,-82.6432"/>
</g>
<!-- Node5 -->
<g id="node5" class="node">
<title>Node5</title>
<g id="a_node5"><a xlink:href="graph__mode_8c.html" target="_top" xlink:title=" ">
<polygon fill="#ffffff" stroke="#000000" points="153,-.5 153,-30.5 260,-30.5 260,-.5 153,-.5"/>
<text text-anchor="start" x="161" y="-18.5" font-family="Helvetica,sans-Serif" font-size="10.00" fill="#000000">ee/graph/src/graph</text>
<text text-anchor="middle" x="206.5" y="-7.5" font-family="Helvetica,sans-Serif" font-size="10.00" fill="#000000">_mode.c</text>
</a>
</g>
</g>
<!-- Node3&#45;&gt;Node5 -->
<g id="edge4" class="edge">
<title>Node3&#45;&gt;Node5</title>
<path fill="none" stroke="#191970" d="M677.4088,-77.85C583.5046,-71.0259 413.2089,-56.2863 269.5,-31 266.3939,-30.4535 263.2136,-29.8411 260.0125,-29.1837"/>
<polygon fill="#191970" stroke="#191970" points="677.4171,-81.3595 687.642,-78.5843 677.9181,-74.3775 677.4171,-81.3595"/>
</g>
<!-- Node6 -->
<g id="node6" class="node">
<title>Node6</title>
<g id="a_node6"><a xlink:href="libosd_8c.html" target="_top" xlink:title=" ">
<polygon fill="#ffffff" stroke="#000000" points="278.5,-6 278.5,-25 398.5,-25 398.5,-6 278.5,-6"/>
<text text-anchor="middle" x="338.5" y="-13" font-family="Helvetica,sans-Serif" font-size="10.00" fill="#000000">ee/kernel/src/libosd.c</text>
</a>
</g>
</g>
<!-- Node3&#45;&gt;Node6 -->
<g id="edge5" class="edge">
<title>Node3&#45;&gt;Node6</title>
<path fill="none" stroke="#191970" d="M677.5815,-73.2861C608.4352,-63.9501 500.4151,-48.4296 407.5,-31 398.2082,-29.257 388.2637,-27.1602 378.8996,-25.0802"/>
<polygon fill="#191970" stroke="#191970" points="677.5387,-76.8117 687.9157,-74.6744 678.4707,-69.874 677.5387,-76.8117"/>
</g>
<!-- Node7 -->
<g id="node7" class="node">
<title>Node7</title>
<g id="a_node7"><a xlink:href="libosd__common_8c.html" target="_top" xlink:title=" ">
<polygon fill="#ffffff" stroke="#000000" points="416.5,-.5 416.5,-30.5 528.5,-30.5 528.5,-.5 416.5,-.5"/>
<text text-anchor="start" x="424.5" y="-18.5" font-family="Helvetica,sans-Serif" font-size="10.00" fill="#000000">ee/kernel/src/libosd</text>
<text text-anchor="middle" x="472.5" y="-7.5" font-family="Helvetica,sans-Serif" font-size="10.00" fill="#000000">_common.c</text>
</a>
</g>
</g>
<!-- Node3&#45;&gt;Node7 -->
<g id="edge6" class="edge">
<title>Node3&#45;&gt;Node7</title>
<path fill="none" stroke="#191970" d="M677.9593,-65.376C631.6194,-54.1268 571.82,-39.6103 528.6971,-29.142"/>
<polygon fill="#191970" stroke="#191970" points="677.3872,-68.8387 687.9306,-67.7966 679.0385,-62.0362 677.3872,-68.8387"/>
</g>
<!-- Node8 -->
<g id="node8" class="node">
<title>Node8</title>
<g id="a_node8"><a xlink:href="libosd__full_8c.html" target="_top" xlink:title=" ">
<polygon fill="#ffffff" stroke="#000000" points="546.5,-.5 546.5,-30.5 658.5,-30.5 658.5,-.5 546.5,-.5"/>
<text text-anchor="start" x="554.5" y="-18.5" font-family="Helvetica,sans-Serif" font-size="10.00" fill="#000000">ee/kernel/src/libosd</text>
<text text-anchor="middle" x="602.5" y="-7.5" font-family="Helvetica,sans-Serif" font-size="10.00" fill="#000000">_full.c</text>
</a>
</g>
</g>
<!-- Node3&#45;&gt;Node8 -->
<g id="edge7" class="edge">
<title>Node3&#45;&gt;Node8</title>
<path fill="none" stroke="#191970" d="M706.3879,-63.1746C683.8118,-52.8143 656.4032,-40.2364 635.4082,-30.6017"/>
<polygon fill="#191970" stroke="#191970" points="705.1862,-66.474 715.7348,-67.4639 708.1059,-60.112 705.1862,-66.474"/>
</g>
<!-- Node9 -->
<g id="node9" class="node">
<title>Node9</title>
<g id="a_node9"><a xlink:href="osd__config_8c.html" target="_top" xlink:title=" ">
<polygon fill="#ffffff" stroke="#000000" points="677,-6 677,-25 820,-25 820,-6 677,-6"/>
<text text-anchor="middle" x="748.5" y="-13" font-family="Helvetica,sans-Serif" font-size="10.00" fill="#000000">ee/kernel/src/osd_config.c</text>
</a>
</g>
</g>
<!-- Node3&#45;&gt;Node9 -->
<g id="edge8" class="edge">
<title>Node3&#45;&gt;Node9</title>
<path fill="none" stroke="#191970" d="M748.5,-57.1199C748.5,-45.9072 748.5,-33.4031 748.5,-25.055"/>
<polygon fill="#191970" stroke="#191970" points="745.0001,-57.2966 748.5,-67.2967 752.0001,-57.2967 745.0001,-57.2966"/>
</g>
<!-- Node10 -->
<g id="node10" class="node">
<title>Node10</title>
<g id="a_node10"><a xlink:href="osd_8c.html" target="_top" xlink:title=" ">
<polygon fill="#ffffff" stroke="#000000" points="838.5,-.5 838.5,-30.5 952.5,-30.5 952.5,-.5 838.5,-.5"/>
<text text-anchor="start" x="846.5" y="-18.5" font-family="Helvetica,sans-Serif" font-size="10.00" fill="#000000">ee/kernel/src/osdsrc</text>
<text text-anchor="middle" x="895.5" y="-7.5" font-family="Helvetica,sans-Serif" font-size="10.00" fill="#000000">/src/osd.c</text>
</a>
</g>
</g>
<!-- Node3&#45;&gt;Node10 -->
<g id="edge9" class="edge">
<title>Node3&#45;&gt;Node10</title>
<path fill="none" stroke="#191970" d="M790.5964,-63.3132C813.3847,-52.9267 841.1333,-40.2794 862.3664,-30.6017"/>
<polygon fill="#191970" stroke="#191970" points="789.1375,-60.1317 781.4897,-67.4639 792.0407,-66.5013 789.1375,-60.1317"/>
</g>
<!-- Node11 -->
<g id="node11" class="node">
<title>Node11</title>
<g id="a_node11"><a xlink:href="osdsrc_8c.html" target="_top" xlink:title=" ">
<polygon fill="#ffffff" stroke="#000000" points="970.5,-.5 970.5,-30.5 1084.5,-30.5 1084.5,-.5 970.5,-.5"/>
<text text-anchor="start" x="978.5" y="-18.5" font-family="Helvetica,sans-Serif" font-size="10.00" fill="#000000">ee/kernel/src/osdsrc</text>
<text text-anchor="middle" x="1027.5" y="-7.5" font-family="Helvetica,sans-Serif" font-size="10.00" fill="#000000">/src/osdsrc.c</text>
</a>
</g>
</g>
<!-- Node3&#45;&gt;Node11 -->
<g id="edge10" class="edge">
<title>Node3&#45;&gt;Node11</title>
<path fill="none" stroke="#191970" d="M818.8194,-65.6133C865.6985,-54.3555 926.5339,-39.7463 970.4117,-29.2094"/>
<polygon fill="#191970" stroke="#191970" points="817.9451,-62.2236 809.0388,-67.962 819.5797,-69.0301 817.9451,-62.2236"/>
</g>
<!-- Node12 -->
<g id="node12" class="node">
<title>Node12</title>
<g id="a_node12"><a xlink:href="timezone_8c.html" target="_top" xlink:title=" ">
<polygon fill="#ffffff" stroke="#000000" points="1103,-6 1103,-25 1226,-25 1226,-6 1103,-6"/>
<text text-anchor="middle" x="1164.5" y="-13" font-family="Helvetica,sans-Serif" font-size="10.00" fill="#000000">ee/libc/src/timezone.c</text>
</a>
</g>
</g>
<!-- Node3&#45;&gt;Node12 -->
<g id="edge11" class="edge">
<title>Node3&#45;&gt;Node12</title>
<path fill="none" stroke="#191970" d="M819.1702,-73.3562C889.0657,-63.9821 998.9746,-48.3531 1093.5,-31 1103.0552,-29.2459 1113.2856,-27.1447 1122.9207,-25.0639"/>
<polygon fill="#191970" stroke="#191970" points="818.6035,-69.9007 809.1546,-74.6933 819.5299,-76.8391 818.6035,-69.9007"/>
</g>
<!-- Node3&#45;&gt;Node13 -->
<g id="edge12" class="edge">
<title>Node3&#45;&gt;Node13</title>
<path fill="none" stroke="#191970" d="M819.1911,-77.341C914.2188,-69.8781 1088.249,-54.354 1235.5,-31 1245.8649,-29.3561 1256.979,-27.2008 1267.3306,-25.0222"/>
<polygon fill="#191970" stroke="#191970" points="818.8214,-73.8591 809.1232,-78.1247 819.3647,-80.838 818.8214,-73.8591"/>
</g>
</g>
</svg>
        <g id="navigator" transform="translate(0 0)" fill="#404254">
                <rect fill="#f2f5e9" fill-opacity="0.5" stroke="#606060" stroke-width=".5" x="0" y="0" width="60" height="60"/>
                <use id="zoomplus" xlink:href="#zoomPlus" x="17" y="9" onmousedown="handleZoom(evt,'in')"/>
                <use id="zoomminus" xlink:href="#zoomMin" x="42" y="9" onmousedown="handleZoom(evt,'out')"/>
                <use id="reset" xlink:href="#resetDef" x="30" y="36" onmousedown="handleReset()"/>
                <g id="arrowUp" xlink:href="#dirArrow" transform="translate(30 24)" onmousedown="handlePan(0,-1)">
                  <use xlink:href="#rim" fill="#404040">
                        <set attributeName="fill" to="#808080" begin="arrowUp.mouseover" end="arrowUp.mouseout"/>
                  </use>
                  <path fill="none" stroke="white" stroke-width="1.5" d="M0,-3.0v7 M-2.5,-0.5L0,-3.0L2.5,-0.5"/>
                </g>
                <g id="arrowRight" xlink:href="#dirArrow" transform="rotate(90) translate(36 -43)" onmousedown="handlePan(1,0)">
                  <use xlink:href="#rim" fill="#404040">
                        <set attributeName="fill" to="#808080" begin="arrowRight.mouseover" end="arrowRight.mouseout"/>
                  </use>
                  <path fill="none" stroke="white" stroke-width="1.5" d="M0,-3.0v7 M-2.5,-0.5L0,-3.0L2.5,-0.5"/>
                </g>
                <g id="arrowDown" xlink:href="#dirArrow" transform="rotate(180) translate(-30 -48)" onmousedown="handlePan(0,1)">
                  <use xlink:href="#rim" fill="#404040">
                        <set attributeName="fill" to="#808080" begin="arrowDown.mouseover" end="arrowDown.mouseout"/>
                  </use>
                  <path fill="none" stroke="white" stroke-width="1.5" d="M0,-3.0v7 M-2.5,-0.5L0,-3.0L2.5,-0.5"/>
                </g>
                <g id="arrowLeft" xlink:href="#dirArrow" transform="rotate(270) translate(-36 17)" onmousedown="handlePan(-1,0)">
                  <use xlink:href="#rim" fill="#404040">
                        <set attributeName="fill" to="#808080" begin="arrowLeft.mouseover" end="arrowLeft.mouseout"/>
                  </use>
                  <path fill="none" stroke="white" stroke-width="1.5" d="M0,-3.0v7 M-2.5,-0.5L0,-3.0L2.5,-0.5"/>
                </g>
        </g>
        <svg viewBox="0 0 15 15" width="100%" height="30px" preserveAspectRatio="xMaxYMin meet">
         <g id="arrow_out" transform="scale(0.3 0.3)">
          <a xlink:href="libcdvd-common_8h__dep__incl_org.svg" target="_base">
           <rect id="button" ry="5" rx="5" y="6" x="6" height="38" width="38"
                fill="#f2f5e9" fill-opacity="0.5" stroke="#606060" stroke-width="1.0"/>
           <path id="arrow"
             d="M 11.500037,31.436501 C 11.940474,20.09759 22.043105,11.32322 32.158766,21.979434 L 37.068811,17.246167 C 37.068811,17.246167 37.088388,32 37.088388,32 L 22.160133,31.978069 C 22.160133,31.978069 26.997745,27.140456 26.997745,27.140456 C 18.528582,18.264221 13.291696,25.230495 11.500037,31.436501 z"
             style="fill:#404040;"/>
          </a>
         </g>
        </svg>
</svg>
