<?xml version="1.0" encoding="UTF-8" standalone="no"?>
<!DOCTYPE svg PUBLIC "-//W3C//DTD SVG 1.1//EN"
 "http://www.w3.org/Graphics/SVG/1.1/DTD/svg11.dtd">
<!-- Generated by graphviz version 2.40.1 (20161225.0304)
 -->
<!-- Title: ee/libgs/include/libgs.h Pages: 1 -->
<!--zoomable 95 -->
<svg id="main" version="1.1" xmlns="http://www.w3.org/2000/svg" xmlns:xlink="http://www.w3.org/1999/xlink" xml:space="preserve" onload="init(evt)">
<style type="text/css"><![CDATA[
.edge:hover path { stroke: red; }
.edge:hover polygon { stroke: red; fill: red; }
]]></style>
<script type="text/javascript"><![CDATA[
var edges = document.getElementsByTagName('g');
if (edges && edges.length) {
  for (var i=0;i<edges.length;i++) {
    if (edges[i].id.substr(0,4)=='edge') {
      edges[i].setAttribute('class','edge');
    }
  }
}
]]></script>
        <defs>
                <circle id="rim" cx="0" cy="0" r="7"/>
                <circle id="rim2" cx="0" cy="0" r="3.5"/>
                <g id="zoomPlus">
                        <use xlink:href="#rim" fill="#404040">
                                <set attributeName="fill" to="#808080" begin="zoomplus.mouseover" end="zoomplus.mouseout"/>
                        </use>
                        <path d="M-4,0h8M0,-4v8" fill="none" stroke="white" stroke-width="1.5" pointer-events="none"/>
                </g>
                <g id="zoomMin">
                        <use xlink:href="#rim" fill="#404040">
                                <set attributeName="fill" to="#808080" begin="zoomminus.mouseover" end="zoomminus.mouseout"/>
                        </use>
                        <path d="M-4,0h8" fill="none" stroke="white" stroke-width="1.5" pointer-events="none"/>
                </g>
                <g id="dirArrow">
                        <path fill="none" stroke="white" stroke-width="1.5" d="M0,-3.0v7 M-2.5,-0.5L0,-3.0L2.5,-0.5"/>
                </g>
               <g id="resetDef">
                       <use xlink:href="#rim2" fill="#404040">
                               <set attributeName="fill" to="#808080" begin="reset.mouseover" end="reset.mouseout"/>
                       </use>
               </g>
        </defs>

<script type="text/javascript">
var viewWidth = 1638;
var viewHeight = 95;
var sectionId = 'dynsection-1';
</script>
<script xlink:href="svgpan.js"/>
<svg id="graph" class="graph">
<g id="viewport">
<title>ee/libgs/include/libgs.h</title>
<polygon fill="#ffffff" stroke="transparent" points="-4,4 -4,-91 1633.5,-91 1633.5,4 -4,4"/>
<!-- Node1 -->
<g id="node1" class="node">
<title>Node1</title>
<g id="a_node1"><a xlink:title=" ">
<polygon fill="#bfbfbf" stroke="#000000" points="745.5,-67.5 745.5,-86.5 873.5,-86.5 873.5,-67.5 745.5,-67.5"/>
<text text-anchor="middle" x="809.5" y="-74.5" font-family="Helvetica,sans-Serif" font-size="10.00" fill="#000000">ee/libgs/include/libgs.h</text>
</a>
</g>
</g>
<!-- Node2 -->
<g id="node2" class="node">
<title>Node2</title>
<g id="a_node2"><a xlink:href="libgs_2samples_2libgs__doublebuffer_2main_8c.html" target="_top" xlink:title=" ">
<polygon fill="#ffffff" stroke="#000000" points="0,-.5 0,-30.5 125,-30.5 125,-.5 0,-.5"/>
<text text-anchor="start" x="8" y="-18.5" font-family="Helvetica,sans-Serif" font-size="10.00" fill="#000000">ee/libgs/samples/libgs</text>
<text text-anchor="middle" x="62.5" y="-7.5" font-family="Helvetica,sans-Serif" font-size="10.00" fill="#000000">_doublebuffer/main.c</text>
</a>
</g>
</g>
<!-- Node1&#45;&gt;Node2 -->
<g id="edge1" class="edge">
<title>Node1&#45;&gt;Node2</title>
<path fill="none" stroke="#191970" d="M735.1193,-75.5083C610.2254,-72.2066 350.7018,-61.9276 133.5,-31 130.752,-30.6087 127.952,-30.1702 125.1292,-29.6955"/>
<polygon fill="#191970" stroke="#191970" points="735.2427,-79.0125 745.3293,-75.7705 735.4225,-72.0148 735.2427,-79.0125"/>
</g>
<!-- Node3 -->
<g id="node3" class="node">
<title>Node3</title>
<g id="a_node3"><a xlink:href="libgs_2samples_2libgs__draw_2main_8c.html" target="_top" xlink:title=" ">
<polygon fill="#ffffff" stroke="#000000" points="143,-.5 143,-30.5 268,-30.5 268,-.5 143,-.5"/>
<text text-anchor="start" x="151" y="-18.5" font-family="Helvetica,sans-Serif" font-size="10.00" fill="#000000">ee/libgs/samples/libgs</text>
<text text-anchor="middle" x="205.5" y="-7.5" font-family="Helvetica,sans-Serif" font-size="10.00" fill="#000000">_draw/main.c</text>
</a>
</g>
</g>
<!-- Node1&#45;&gt;Node3 -->
<g id="edge2" class="edge">
<title>Node1&#45;&gt;Node3</title>
<path fill="none" stroke="#191970" d="M735.1688,-73.6137C631.8354,-68.2185 439.1308,-55.6648 276.5,-31 273.7557,-30.5838 270.9587,-30.1247 268.1384,-29.633"/>
<polygon fill="#191970" stroke="#191970" points="735.0234,-77.1107 745.19,-74.129 735.3829,-70.12 735.0234,-77.1107"/>
</g>
<!-- Node4 -->
<g id="node4" class="node">
<title>Node4</title>
<g id="a_node4"><a xlink:href="libgs_2src_2dma_8c.html" target="_top" xlink:title=" ">
<polygon fill="#ffffff" stroke="#000000" points="286,-6 286,-25 391,-25 391,-6 286,-6"/>
<text text-anchor="middle" x="338.5" y="-13" font-family="Helvetica,sans-Serif" font-size="10.00" fill="#000000">ee/libgs/src/dma.c</text>
</a>
</g>
</g>
<!-- Node1&#45;&gt;Node4 -->
<g id="edge3" class="edge">
<title>Node1&#45;&gt;Node4</title>
<path fill="none" stroke="#191970" d="M735.1556,-71.7414C652.6705,-65.1927 515.8493,-52.2057 399.5,-31 390.6852,-29.3934 381.2588,-27.2258 372.517,-25.0213"/>
<polygon fill="#191970" stroke="#191970" points="734.9449,-75.2355 745.1877,-72.5273 735.4917,-68.2569 734.9449,-75.2355"/>
</g>
<!-- Node5 -->
<g id="node5" class="node">
<title>Node5</title>
<g id="a_node5"><a xlink:href="DoubleBuff_8c.html" target="_top" xlink:title=" ">
<polygon fill="#ffffff" stroke="#000000" points="409,-6 409,-25 546,-25 546,-6 409,-6"/>
<text text-anchor="middle" x="477.5" y="-13" font-family="Helvetica,sans-Serif" font-size="10.00" fill="#000000">ee/libgs/src/DoubleBuff.c</text>
</a>
</g>
</g>
<!-- Node1&#45;&gt;Node5 -->
<g id="edge4" class="edge">
<title>Node1&#45;&gt;Node5</title>
<path fill="none" stroke="#191970" d="M744.7162,-65.6853C693.1355,-56.5869 619.125,-43.3321 554.5,-31 544.722,-29.1341 534.2593,-27.072 524.2976,-25.0773"/>
<polygon fill="#191970" stroke="#191970" points="744.2682,-69.1602 754.7238,-67.448 745.4826,-62.2663 744.2682,-69.1602"/>
</g>
<!-- Node6 -->
<g id="node6" class="node">
<title>Node6</title>
<g id="a_node6"><a xlink:href="libgs_2src_2draw_8c.html" target="_top" xlink:title=" ">
<polygon fill="#ffffff" stroke="#000000" points="564,-6 564,-25 671,-25 671,-6 564,-6"/>
<text text-anchor="middle" x="617.5" y="-13" font-family="Helvetica,sans-Serif" font-size="10.00" fill="#000000">ee/libgs/src/draw.c</text>
</a>
</g>
</g>
<!-- Node1&#45;&gt;Node6 -->
<g id="edge5" class="edge">
<title>Node1&#45;&gt;Node6</title>
<path fill="none" stroke="#191970" d="M769.6974,-64.2507C733.2676,-52.5818 680.1738,-35.5752 647.2893,-25.0419"/>
<polygon fill="#191970" stroke="#191970" points="768.9089,-67.6733 779.5,-67.3906 771.0443,-61.0069 768.9089,-67.6733"/>
</g>
<!-- Node7 -->
<g id="node7" class="node">
<title>Node7</title>
<g id="a_node7"><a xlink:href="libgs_8c.html" target="_top" xlink:title=" ">
<polygon fill="#ffffff" stroke="#000000" points="689,-6 689,-25 796,-25 796,-6 689,-6"/>
<text text-anchor="middle" x="742.5" y="-13" font-family="Helvetica,sans-Serif" font-size="10.00" fill="#000000">ee/libgs/src/libgs.c</text>
</a>
</g>
</g>
<!-- Node1&#45;&gt;Node7 -->
<g id="edge6" class="edge">
<title>Node1&#45;&gt;Node7</title>
<path fill="none" stroke="#191970" d="M791.5769,-60.5482C779.3007,-49.2798 763.4345,-34.716 753.1163,-25.2449"/>
<polygon fill="#191970" stroke="#191970" points="789.2975,-63.2068 799.0313,-67.3906 794.031,-58.0499 789.2975,-63.2068"/>
</g>
<!-- Node8 -->
<g id="node8" class="node">
<title>Node8</title>
<g id="a_node8"><a xlink:href="lowlevel_8c.html" target="_top" xlink:title=" ">
<polygon fill="#ffffff" stroke="#000000" points="814,-6 814,-25 939,-25 939,-6 814,-6"/>
<text text-anchor="middle" x="876.5" y="-13" font-family="Helvetica,sans-Serif" font-size="10.00" fill="#000000">ee/libgs/src/lowlevel.c</text>
</a>
</g>
</g>
<!-- Node1&#45;&gt;Node8 -->
<g id="edge7" class="edge">
<title>Node1&#45;&gt;Node8</title>
<path fill="none" stroke="#191970" d="M827.4231,-60.5482C839.6993,-49.2798 855.5655,-34.716 865.8837,-25.2449"/>
<polygon fill="#191970" stroke="#191970" points="824.969,-58.0499 819.9688,-67.3906 829.7025,-63.2068 824.969,-58.0499"/>
</g>
<!-- Node9 -->
<g id="node9" class="node">
<title>Node9</title>
<g id="a_node9"><a xlink:href="packets_8c.html" target="_top" xlink:title=" ">
<polygon fill="#ffffff" stroke="#000000" points="957.5,-6 957.5,-25 1079.5,-25 1079.5,-6 957.5,-6"/>
<text text-anchor="middle" x="1018.5" y="-13" font-family="Helvetica,sans-Serif" font-size="10.00" fill="#000000">ee/libgs/src/packets.c</text>
</a>
</g>
</g>
<!-- Node1&#45;&gt;Node9 -->
<g id="edge8" class="edge">
<title>Node1&#45;&gt;Node9</title>
<path fill="none" stroke="#191970" d="M851.8139,-64.5488C891.4926,-52.873 949.971,-35.6652 986.0731,-25.0419"/>
<polygon fill="#191970" stroke="#191970" points="850.7615,-61.21 842.1563,-67.3906 852.7376,-67.9253 850.7615,-61.21"/>
</g>
<!-- Node10 -->
<g id="node10" class="node">
<title>Node10</title>
<g id="a_node10"><a xlink:href="primitives_8c.html" target="_top" xlink:title=" ">
<polygon fill="#ffffff" stroke="#000000" points="1098,-6 1098,-25 1231,-25 1231,-6 1098,-6"/>
<text text-anchor="middle" x="1164.5" y="-13" font-family="Helvetica,sans-Serif" font-size="10.00" fill="#000000">ee/libgs/src/primitives.c</text>
</a>
</g>
</g>
<!-- Node1&#45;&gt;Node10 -->
<g id="edge9" class="edge">
<title>Node1&#45;&gt;Node10</title>
<path fill="none" stroke="#191970" d="M881.292,-65.9276C937.7186,-57.0406 1018.2492,-43.9502 1088.5,-31 1098.4322,-29.1691 1109.0679,-27.0806 1119.1424,-25.0426"/>
<polygon fill="#191970" stroke="#191970" points="880.7321,-62.4725 871.3963,-67.482 881.8183,-69.3878 880.7321,-62.4725"/>
</g>
<!-- Node11 -->
<g id="node11" class="node">
<title>Node11</title>
<g id="a_node11"><a xlink:href="sync_8c.html" target="_top" xlink:title=" ">
<polygon fill="#ffffff" stroke="#000000" points="1249.5,-6 1249.5,-25 1355.5,-25 1355.5,-6 1249.5,-6"/>
<text text-anchor="middle" x="1302.5" y="-13" font-family="Helvetica,sans-Serif" font-size="10.00" fill="#000000">ee/libgs/src/sync.c</text>
</a>
</g>
</g>
<!-- Node1&#45;&gt;Node11 -->
<g id="edge10" class="edge">
<title>Node1&#45;&gt;Node11</title>
<path fill="none" stroke="#191970" d="M884.0049,-72.1994C970.2779,-65.9134 1116.4354,-53.0192 1240.5,-31 1249.458,-29.4101 1259.0385,-27.2484 1267.9236,-25.0444"/>
<polygon fill="#191970" stroke="#191970" points="883.5097,-68.7259 873.7862,-72.9334 884.0113,-75.7079 883.5097,-68.7259"/>
</g>
<!-- Node12 -->
<g id="node12" class="node">
<title>Node12</title>
<g id="a_node12"><a xlink:href="libgs_2src_2texture_8c.html" target="_top" xlink:title=" ">
<polygon fill="#ffffff" stroke="#000000" points="1374,-6 1374,-25 1493,-25 1493,-6 1374,-6"/>
<text text-anchor="middle" x="1433.5" y="-13" font-family="Helvetica,sans-Serif" font-size="10.00" fill="#000000">ee/libgs/src/texture.c</text>
</a>
</g>
</g>
<!-- Node1&#45;&gt;Node12 -->
<g id="edge11" class="edge">
<title>Node1&#45;&gt;Node12</title>
<path fill="none" stroke="#191970" d="M883.5377,-74.1211C990.298,-69.233 1193.448,-57.1725 1364.5,-31 1374.5733,-29.4587 1385.3678,-27.2875 1395.357,-25.0569"/>
<polygon fill="#191970" stroke="#191970" points="883.3439,-70.6262 873.5113,-74.572 883.6585,-77.6191 883.3439,-70.6262"/>
</g>
<!-- Node13 -->
<g id="node13" class="node">
<title>Node13</title>
<g id="a_node13"><a xlink:href="Zbuffer_8c.html" target="_top" xlink:title=" ">
<polygon fill="#ffffff" stroke="#000000" points="1511.5,-6 1511.5,-25 1629.5,-25 1629.5,-6 1511.5,-6"/>
<text text-anchor="middle" x="1570.5" y="-13" font-family="Helvetica,sans-Serif" font-size="10.00" fill="#000000">ee/libgs/src/Zbuffer.c</text>
</a>
</g>
</g>
<!-- Node1&#45;&gt;Node13 -->
<g id="edge12" class="edge">
<title>Node1&#45;&gt;Node13</title>
<path fill="none" stroke="#191970" d="M883.9033,-75.9049C1011.2457,-73.1742 1278.8869,-63.6979 1502.5,-31 1512.6838,-29.5109 1523.6016,-27.3018 1533.6432,-25.0151"/>
<polygon fill="#191970" stroke="#191970" points="883.7954,-72.4063 873.8698,-76.1122 883.9401,-79.4048 883.7954,-72.4063"/>
</g>
</g>
</svg>
        <g id="navigator" transform="translate(0 0)" fill="#404254">
                <rect fill="#f2f5e9" fill-opacity="0.5" stroke="#606060" stroke-width=".5" x="0" y="0" width="60" height="60"/>
                <use id="zoomplus" xlink:href="#zoomPlus" x="17" y="9" onmousedown="handleZoom(evt,'in')"/>
                <use id="zoomminus" xlink:href="#zoomMin" x="42" y="9" onmousedown="handleZoom(evt,'out')"/>
                <use id="reset" xlink:href="#resetDef" x="30" y="36" onmousedown="handleReset()"/>
                <g id="arrowUp" xlink:href="#dirArrow" transform="translate(30 24)" onmousedown="handlePan(0,-1)">
                  <use xlink:href="#rim" fill="#404040">
                        <set attributeName="fill" to="#808080" begin="arrowUp.mouseover" end="arrowUp.mouseout"/>
                  </use>
                  <path fill="none" stroke="white" stroke-width="1.5" d="M0,-3.0v7 M-2.5,-0.5L0,-3.0L2.5,-0.5"/>
                </g>
                <g id="arrowRight" xlink:href="#dirArrow" transform="rotate(90) translate(36 -43)" onmousedown="handlePan(1,0)">
                  <use xlink:href="#rim" fill="#404040">
                        <set attributeName="fill" to="#808080" begin="arrowRight.mouseover" end="arrowRight.mouseout"/>
                  </use>
                  <path fill="none" stroke="white" stroke-width="1.5" d="M0,-3.0v7 M-2.5,-0.5L0,-3.0L2.5,-0.5"/>
                </g>
                <g id="arrowDown" xlink:href="#dirArrow" transform="rotate(180) translate(-30 -48)" onmousedown="handlePan(0,1)">
                  <use xlink:href="#rim" fill="#404040">
                        <set attributeName="fill" to="#808080" begin="arrowDown.mouseover" end="arrowDown.mouseout"/>
                  </use>
                  <path fill="none" stroke="white" stroke-width="1.5" d="M0,-3.0v7 M-2.5,-0.5L0,-3.0L2.5,-0.5"/>
                </g>
                <g id="arrowLeft" xlink:href="#dirArrow" transform="rotate(270) translate(-36 17)" onmousedown="handlePan(-1,0)">
                  <use xlink:href="#rim" fill="#404040">
                        <set attributeName="fill" to="#808080" begin="arrowLeft.mouseover" end="arrowLeft.mouseout"/>
                  </use>
                  <path fill="none" stroke="white" stroke-width="1.5" d="M0,-3.0v7 M-2.5,-0.5L0,-3.0L2.5,-0.5"/>
                </g>
        </g>
        <svg viewBox="0 0 15 15" width="100%" height="30px" preserveAspectRatio="xMaxYMin meet">
         <g id="arrow_out" transform="scale(0.3 0.3)">
          <a xlink:href="libgs_8h__dep__incl_org.svg" target="_base">
           <rect id="button" ry="5" rx="5" y="6" x="6" height="38" width="38"
                fill="#f2f5e9" fill-opacity="0.5" stroke="#606060" stroke-width="1.0"/>
           <path id="arrow"
             d="M 11.500037,31.436501 C 11.940474,20.09759 22.043105,11.32322 32.158766,21.979434 L 37.068811,17.246167 C 37.068811,17.246167 37.088388,32 37.088388,32 L 22.160133,31.978069 C 22.160133,31.978069 26.997745,27.140456 26.997745,27.140456 C 18.528582,18.264221 13.291696,25.230495 11.500037,31.436501 z"
             style="fill:#404040;"/>
          </a>
         </g>
        </svg>
</svg>
