<?xml version="1.0" encoding="UTF-8" standalone="no"?>
<!DOCTYPE svg PUBLIC "-//W3C//DTD SVG 1.1//EN"
 "http://www.w3.org/Graphics/SVG/1.1/DTD/svg11.dtd">
<!-- Generated by graphviz version 2.40.1 (20161225.0304)
 -->
<!-- Title: ee/rpc/hdd/src/libhdd.c Pages: 1 -->
<svg width="1150pt" height="252pt"
 viewBox="0.00 0.00 1149.50 252.00" xmlns="http://www.w3.org/2000/svg" xmlns:xlink="http://www.w3.org/1999/xlink">
<g id="graph0" class="graph" transform="scale(1 1) rotate(0) translate(4 248)">
<title>ee/rpc/hdd/src/libhdd.c</title>
<polygon fill="#ffffff" stroke="transparent" points="-4,4 -4,-248 1145.5,-248 1145.5,4 -4,4"/>
<!-- Node1 -->
<g id="node1" class="node">
<title>Node1</title>
<g id="a_node1"><a xlink:title=" ">
<polygon fill="#bfbfbf" stroke="#000000" points="546,-224.5 546,-243.5 672,-243.5 672,-224.5 546,-224.5"/>
<text text-anchor="middle" x="609" y="-231.5" font-family="Helvetica,sans-Serif" font-size="10.00" fill="#000000">ee/rpc/hdd/src/libhdd.c</text>
</a>
</g>
</g>
<!-- Node2 -->
<g id="node2" class="node">
<title>Node2</title>
<g id="a_node2"><a xlink:title=" ">
<polygon fill="#ffffff" stroke="#bfbfbf" points="0,-168.5 0,-187.5 50,-187.5 50,-168.5 0,-168.5"/>
<text text-anchor="middle" x="25" y="-175.5" font-family="Helvetica,sans-Serif" font-size="10.00" fill="#000000">stdio.h</text>
</a>
</g>
</g>
<!-- Node1&#45;&gt;Node2 -->
<g id="edge1" class="edge">
<title>Node1&#45;&gt;Node2</title>
<path fill="none" stroke="#191970" d="M545.6306,-232.0788C443.5694,-228.2181 236.7361,-217.2253 64,-188 62.7207,-187.7836 61.4219,-187.5459 60.113,-187.2913"/>
<polygon fill="#191970" stroke="#191970" points="60.5615,-183.8064 50.0431,-185.0769 59.0581,-190.643 60.5615,-183.8064"/>
</g>
<!-- Node3 -->
<g id="node3" class="node">
<title>Node3</title>
<g id="a_node3"><a xlink:href="tamtypes_8h.html" target="_top" xlink:title=" ">
<polygon fill="#ffffff" stroke="#000000" points="267,-56.5 267,-75.5 339,-75.5 339,-56.5 267,-56.5"/>
<text text-anchor="middle" x="303" y="-63.5" font-family="Helvetica,sans-Serif" font-size="10.00" fill="#000000">tamtypes.h</text>
</a>
</g>
</g>
<!-- Node1&#45;&gt;Node3 -->
<g id="edge2" class="edge">
<title>Node1&#45;&gt;Node3</title>
<path fill="none" stroke="#191970" d="M545.751,-231.4426C422.2089,-225.952 157.8854,-211.5849 124,-188 94.5789,-167.5223 74.5845,-139.9729 97,-112 116.6438,-87.4859 202.3738,-75.1747 256.8596,-69.7166"/>
<polygon fill="#191970" stroke="#191970" points="257.359,-73.1849 266.9788,-68.7453 256.6901,-66.2169 257.359,-73.1849"/>
</g>
<!-- Node4 -->
<g id="node4" class="node">
<title>Node4</title>
<g id="a_node4"><a xlink:href="errno_8h.html" target="_top" xlink:title=" ">
<polygon fill="#ffffff" stroke="#000000" points="704.5,-168.5 704.5,-187.5 755.5,-187.5 755.5,-168.5 704.5,-168.5"/>
<text text-anchor="middle" x="730" y="-175.5" font-family="Helvetica,sans-Serif" font-size="10.00" fill="#000000">errno.h</text>
</a>
</g>
</g>
<!-- Node1&#45;&gt;Node4 -->
<g id="edge3" class="edge">
<title>Node1&#45;&gt;Node4</title>
<path fill="none" stroke="#191970" d="M629.8006,-224.3733C649.2243,-215.3838 678.4224,-201.8706 700.2964,-191.7471"/>
<polygon fill="#191970" stroke="#191970" points="701.8656,-194.8776 709.4708,-187.5011 698.9255,-188.5249 701.8656,-194.8776"/>
</g>
<!-- Node5 -->
<g id="node5" class="node">
<title>Node5</title>
<g id="a_node5"><a xlink:href="kernel_8h.html" target="_top" xlink:title=" ">
<polygon fill="#ffffff" stroke="#000000" points="394,-168.5 394,-187.5 450,-187.5 450,-168.5 394,-168.5"/>
<text text-anchor="middle" x="422" y="-175.5" font-family="Helvetica,sans-Serif" font-size="10.00" fill="#000000">kernel.h</text>
</a>
</g>
</g>
<!-- Node1&#45;&gt;Node5 -->
<g id="edge4" class="edge">
<title>Node1&#45;&gt;Node5</title>
<path fill="none" stroke="#191970" d="M576.8536,-224.3733C544.3485,-214.6391 494.1313,-199.6008 459.7525,-189.3056"/>
<polygon fill="#191970" stroke="#191970" points="460.6507,-185.921 450.0669,-186.4051 458.6425,-192.6268 460.6507,-185.921"/>
</g>
<!-- Node9 -->
<g id="node9" class="node">
<title>Node9</title>
<g id="a_node9"><a xlink:title=" ">
<polygon fill="#ffffff" stroke="#bfbfbf" points="773.5,-168.5 773.5,-187.5 826.5,-187.5 826.5,-168.5 773.5,-168.5"/>
<text text-anchor="middle" x="800" y="-175.5" font-family="Helvetica,sans-Serif" font-size="10.00" fill="#000000">string.h</text>
</a>
</g>
</g>
<!-- Node1&#45;&gt;Node9 -->
<g id="edge9" class="edge">
<title>Node1&#45;&gt;Node9</title>
<path fill="none" stroke="#191970" d="M641.8341,-224.3733C675.7139,-214.4399 728.433,-198.983 763.5755,-188.6794"/>
<polygon fill="#191970" stroke="#191970" points="764.8223,-191.9613 773.4336,-185.7891 762.8528,-185.244 764.8223,-191.9613"/>
</g>
<!-- Node10 -->
<g id="node10" class="node">
<title>Node10</title>
<g id="a_node10"><a xlink:href="sifrpc_8h.html" target="_top" xlink:title=" ">
<polygon fill="#ffffff" stroke="#000000" points="133.5,-168.5 133.5,-187.5 186.5,-187.5 186.5,-168.5 133.5,-168.5"/>
<text text-anchor="middle" x="160" y="-175.5" font-family="Helvetica,sans-Serif" font-size="10.00" fill="#000000">sifrpc.h</text>
</a>
</g>
</g>
<!-- Node1&#45;&gt;Node10 -->
<g id="edge10" class="edge">
<title>Node1&#45;&gt;Node10</title>
<path fill="none" stroke="#191970" d="M545.8172,-226.1882C472.1543,-217.0706 346.7411,-201.5165 239,-188 225.2539,-186.2755 210.1642,-184.3688 196.8892,-182.6868"/>
<polygon fill="#191970" stroke="#191970" points="197.0532,-179.1796 186.6923,-181.3938 196.1725,-186.124 197.0532,-179.1796"/>
</g>
<!-- Node12 -->
<g id="node12" class="node">
<title>Node12</title>
<g id="a_node12"><a xlink:href="loadfile_8h.html" target="_top" xlink:title=" ">
<polygon fill="#ffffff" stroke="#000000" points="184,-112.5 184,-131.5 246,-131.5 246,-112.5 184,-112.5"/>
<text text-anchor="middle" x="215" y="-119.5" font-family="Helvetica,sans-Serif" font-size="10.00" fill="#000000">loadfile.h</text>
</a>
</g>
</g>
<!-- Node1&#45;&gt;Node12 -->
<g id="edge13" class="edge">
<title>Node1&#45;&gt;Node12</title>
<path fill="none" stroke="#191970" d="M545.945,-229.113C466.5529,-222.234 335.1892,-208.2327 291,-188 266.3323,-176.7055 243.6329,-154.8368 229.5866,-139.3731"/>
<polygon fill="#191970" stroke="#191970" points="231.9442,-136.7535 222.7158,-131.5489 226.6843,-141.3724 231.9442,-136.7535"/>
</g>
<!-- Node13 -->
<g id="node13" class="node">
<title>Node13</title>
<g id="a_node13"><a xlink:href="iopheap_8h.html" target="_top" xlink:title=" ">
<polygon fill="#ffffff" stroke="#000000" points="844.5,-168.5 844.5,-187.5 909.5,-187.5 909.5,-168.5 844.5,-168.5"/>
<text text-anchor="middle" x="877" y="-175.5" font-family="Helvetica,sans-Serif" font-size="10.00" fill="#000000">iopheap.h</text>
</a>
</g>
</g>
<!-- Node1&#45;&gt;Node13 -->
<g id="edge15" class="edge">
<title>Node1&#45;&gt;Node13</title>
<path fill="none" stroke="#191970" d="M658.4765,-224.4167C702.1805,-215.8415 767.8807,-202.6839 834.6141,-188.0306"/>
<polygon fill="#191970" stroke="#191970" points="835.4534,-191.4297 844.465,-185.8582 833.9459,-184.594 835.4534,-191.4297"/>
</g>
<!-- Node14 -->
<g id="node14" class="node">
<title>Node14</title>
<g id="a_node14"><a xlink:title=" ">
<polygon fill="#ffffff" stroke="#bfbfbf" points="927.5,-168.5 927.5,-187.5 986.5,-187.5 986.5,-168.5 927.5,-168.5"/>
<text text-anchor="middle" x="957" y="-175.5" font-family="Helvetica,sans-Serif" font-size="10.00" fill="#000000">malloc.h</text>
</a>
</g>
</g>
<!-- Node1&#45;&gt;Node14 -->
<g id="edge16" class="edge">
<title>Node1&#45;&gt;Node14</title>
<path fill="none" stroke="#191970" d="M672.0633,-226.5492C732.5408,-218.9656 826.5745,-206.031 917.3539,-187.958"/>
<polygon fill="#191970" stroke="#191970" points="918.1506,-191.368 927.2624,-185.962 916.7682,-184.5058 918.1506,-191.368"/>
</g>
<!-- Node15 -->
<g id="node15" class="node">
<title>Node15</title>
<g id="a_node15"><a xlink:title=" ">
<polygon fill="#ffffff" stroke="#bfbfbf" points="981.5,-112.5 981.5,-131.5 1048.5,-131.5 1048.5,-112.5 981.5,-112.5"/>
<text text-anchor="middle" x="1015" y="-119.5" font-family="Helvetica,sans-Serif" font-size="10.00" fill="#000000">sys/fcntl.h</text>
</a>
</g>
</g>
<!-- Node1&#45;&gt;Node15 -->
<g id="edge17" class="edge">
<title>Node1&#45;&gt;Node15</title>
<path fill="none" stroke="#191970" d="M672.106,-230.2936C775.4637,-223.6676 971.8326,-208.5385 996,-188 1009.1773,-176.8014 1013.5221,-157.1084 1014.8128,-142.14"/>
<polygon fill="#191970" stroke="#191970" points="1018.3238,-141.9876 1015.3002,-131.8334 1011.3317,-141.6568 1018.3238,-141.9876"/>
</g>
<!-- Node16 -->
<g id="node16" class="node">
<title>Node16</title>
<g id="a_node16"><a xlink:title=" ">
<polygon fill="#ffffff" stroke="#bfbfbf" points="812,-112.5 812,-131.5 876,-131.5 876,-112.5 812,-112.5"/>
<text text-anchor="middle" x="844" y="-119.5" font-family="Helvetica,sans-Serif" font-size="10.00" fill="#000000">sys/stat.h</text>
</a>
</g>
</g>
<!-- Node1&#45;&gt;Node16 -->
<g id="edge18" class="edge">
<title>Node1&#45;&gt;Node16</title>
<path fill="none" stroke="#191970" d="M619.0269,-224.352C634.2771,-210.1571 664.7373,-183.6401 695,-168 713.6863,-158.3427 764.5855,-143.4609 801.7068,-133.2553"/>
<polygon fill="#191970" stroke="#191970" points="803.047,-136.5176 811.7733,-130.509 801.2046,-129.7644 803.047,-136.5176"/>
</g>
<!-- Node17 -->
<g id="node17" class="node">
<title>Node17</title>
<g id="a_node17"><a xlink:href="ioctl_8h.html" target="_top" xlink:title=" ">
<polygon fill="#ffffff" stroke="#000000" points="300,-168.5 300,-187.5 366,-187.5 366,-168.5 300,-168.5"/>
<text text-anchor="middle" x="333" y="-175.5" font-family="Helvetica,sans-Serif" font-size="10.00" fill="#000000">sys/ioctl.h</text>
</a>
</g>
</g>
<!-- Node1&#45;&gt;Node17 -->
<g id="edge19" class="edge">
<title>Node1&#45;&gt;Node17</title>
<path fill="none" stroke="#191970" d="M561.8675,-224.4369C509.7253,-213.8573 426.4266,-196.9561 376.0029,-186.7252"/>
<polygon fill="#191970" stroke="#191970" points="376.5666,-183.2684 366.0703,-184.7099 375.1746,-190.1286 376.5666,-183.2684"/>
</g>
<!-- Node18 -->
<g id="node18" class="node">
<title>Node18</title>
<g id="a_node18"><a xlink:href="libhdd_8h.html" target="_top" xlink:title=" ">
<polygon fill="#ffffff" stroke="#000000" points="496,-168.5 496,-187.5 552,-187.5 552,-168.5 496,-168.5"/>
<text text-anchor="middle" x="524" y="-175.5" font-family="Helvetica,sans-Serif" font-size="10.00" fill="#000000">libhdd.h</text>
</a>
</g>
</g>
<!-- Node1&#45;&gt;Node18 -->
<g id="edge21" class="edge">
<title>Node1&#45;&gt;Node18</title>
<path fill="none" stroke="#191970" d="M594.1941,-224.2455C581.2744,-215.7337 562.3069,-203.2375 547.3448,-193.3801"/>
<polygon fill="#191970" stroke="#191970" points="548.9124,-190.2216 538.6362,-187.6427 545.0613,-196.067 548.9124,-190.2216"/>
</g>
<!-- Node21 -->
<g id="node21" class="node">
<title>Node21</title>
<g id="a_node21"><a xlink:href="fileXio__rpc_8h.html" target="_top" xlink:title=" ">
<polygon fill="#ffffff" stroke="#000000" points="570.5,-168.5 570.5,-187.5 647.5,-187.5 647.5,-168.5 570.5,-168.5"/>
<text text-anchor="middle" x="609" y="-175.5" font-family="Helvetica,sans-Serif" font-size="10.00" fill="#000000">fileXio_rpc.h</text>
</a>
</g>
</g>
<!-- Node1&#45;&gt;Node21 -->
<g id="edge26" class="edge">
<title>Node1&#45;&gt;Node21</title>
<path fill="none" stroke="#191970" d="M609,-224.2455C609,-216.9382 609,-206.6944 609,-197.7046"/>
<polygon fill="#191970" stroke="#191970" points="612.5001,-197.6426 609,-187.6427 605.5001,-197.6427 612.5001,-197.6426"/>
</g>
<!-- Node25 -->
<g id="node25" class="node">
<title>Node25</title>
<g id="a_node25"><a xlink:href="io__common_8h.html" target="_top" xlink:title=" ">
<polygon fill="#ffffff" stroke="#000000" points="1043.5,-168.5 1043.5,-187.5 1126.5,-187.5 1126.5,-168.5 1043.5,-168.5"/>
<text text-anchor="middle" x="1085" y="-175.5" font-family="Helvetica,sans-Serif" font-size="10.00" fill="#000000">io_common.h</text>
</a>
</g>
</g>
<!-- Node1&#45;&gt;Node25 -->
<g id="edge32" class="edge">
<title>Node1&#45;&gt;Node25</title>
<path fill="none" stroke="#191970" d="M672.14,-228.4268C754.4656,-220.853 902.8487,-206.1506 1029,-188 1030.4663,-187.789 1031.953,-187.5684 1033.4528,-187.3401"/>
<polygon fill="#191970" stroke="#191970" points="1034.1386,-190.775 1043.4607,-185.7401 1033.0335,-183.8628 1034.1386,-190.775"/>
</g>
<!-- Node6 -->
<g id="node6" class="node">
<title>Node6</title>
<g id="a_node6"><a xlink:title=" ">
<polygon fill="#ffffff" stroke="#bfbfbf" points="380,-112.5 380,-131.5 436,-131.5 436,-112.5 380,-112.5"/>
<text text-anchor="middle" x="408" y="-119.5" font-family="Helvetica,sans-Serif" font-size="10.00" fill="#000000">stddef.h</text>
</a>
</g>
</g>
<!-- Node5&#45;&gt;Node6 -->
<g id="edge5" class="edge">
<title>Node5&#45;&gt;Node6</title>
<path fill="none" stroke="#191970" d="M419.5614,-168.2455C417.7145,-160.8579 415.1172,-150.4689 412.8522,-141.4087"/>
<polygon fill="#191970" stroke="#191970" points="416.2316,-140.4952 410.4107,-131.6427 409.4406,-142.193 416.2316,-140.4952"/>
</g>
<!-- Node7 -->
<g id="node7" class="node">
<title>Node7</title>
<g id="a_node7"><a xlink:title=" ">
<polygon fill="#ffffff" stroke="#bfbfbf" points="454,-112.5 454,-131.5 510,-131.5 510,-112.5 454,-112.5"/>
<text text-anchor="middle" x="482" y="-119.5" font-family="Helvetica,sans-Serif" font-size="10.00" fill="#000000">stdarg.h</text>
</a>
</g>
</g>
<!-- Node5&#45;&gt;Node7 -->
<g id="edge6" class="edge">
<title>Node5&#45;&gt;Node7</title>
<path fill="none" stroke="#191970" d="M432.4512,-168.2455C441.2269,-160.0549 453.9554,-148.1749 464.314,-138.5069"/>
<polygon fill="#191970" stroke="#191970" points="466.7461,-141.0246 471.6686,-131.6427 461.9699,-135.9072 466.7461,-141.0246"/>
</g>
<!-- Node8 -->
<g id="node8" class="node">
<title>Node8</title>
<g id="a_node8"><a xlink:href="sifdma_8h.html" target="_top" xlink:title=" ">
<polygon fill="#ffffff" stroke="#000000" points="302.5,-112.5 302.5,-131.5 361.5,-131.5 361.5,-112.5 302.5,-112.5"/>
<text text-anchor="middle" x="332" y="-119.5" font-family="Helvetica,sans-Serif" font-size="10.00" fill="#000000">sifdma.h</text>
</a>
</g>
</g>
<!-- Node5&#45;&gt;Node8 -->
<g id="edge7" class="edge">
<title>Node5&#45;&gt;Node8</title>
<path fill="none" stroke="#191970" d="M406.3232,-168.2455C392.5144,-159.6534 372.1807,-147.0014 356.2708,-137.1018"/>
<polygon fill="#191970" stroke="#191970" points="357.8368,-133.954 347.4972,-131.6427 354.1387,-139.8974 357.8368,-133.954"/>
</g>
<!-- Node8&#45;&gt;Node3 -->
<g id="edge8" class="edge">
<title>Node8&#45;&gt;Node3</title>
<path fill="none" stroke="#191970" d="M326.9486,-112.2455C322.9981,-104.617 317.3903,-93.7881 312.5942,-84.5267"/>
<polygon fill="#191970" stroke="#191970" points="315.7001,-82.9131 307.9935,-75.6427 309.4841,-86.1321 315.7001,-82.9131"/>
</g>
<!-- Node11 -->
<g id="node11" class="node">
<title>Node11</title>
<g id="a_node11"><a xlink:href="sifcmd_8h.html" target="_top" xlink:title=" ">
<polygon fill="#ffffff" stroke="#000000" points="106.5,-112.5 106.5,-131.5 165.5,-131.5 165.5,-112.5 106.5,-112.5"/>
<text text-anchor="middle" x="136" y="-119.5" font-family="Helvetica,sans-Serif" font-size="10.00" fill="#000000">sifcmd.h</text>
</a>
</g>
</g>
<!-- Node10&#45;&gt;Node11 -->
<g id="edge11" class="edge">
<title>Node10&#45;&gt;Node11</title>
<path fill="none" stroke="#191970" d="M155.8195,-168.2455C152.619,-160.7776 148.104,-150.2427 144.1916,-141.1137"/>
<polygon fill="#191970" stroke="#191970" points="147.2888,-139.4554 140.1326,-131.6427 140.8548,-142.2129 147.2888,-139.4554"/>
</g>
<!-- Node11&#45;&gt;Node3 -->
<g id="edge12" class="edge">
<title>Node11&#45;&gt;Node3</title>
<path fill="none" stroke="#191970" d="M164.7083,-112.3733C192.3577,-103.1016 234.3576,-89.0178 264.8166,-78.804"/>
<polygon fill="#191970" stroke="#191970" points="266.2979,-81.9989 274.6663,-75.5011 264.0724,-75.3621 266.2979,-81.9989"/>
</g>
<!-- Node12&#45;&gt;Node3 -->
<g id="edge14" class="edge">
<title>Node12&#45;&gt;Node3</title>
<path fill="none" stroke="#191970" d="M230.3284,-112.2455C243.8303,-103.6534 263.7122,-91.0014 279.2686,-81.1018"/>
<polygon fill="#191970" stroke="#191970" points="281.2897,-83.9643 287.8472,-75.6427 277.5315,-78.0587 281.2897,-83.9643"/>
</g>
<!-- Node17&#45;&gt;Node3 -->
<g id="edge20" class="edge">
<title>Node17&#45;&gt;Node3</title>
<path fill="none" stroke="#191970" d="M320.5788,-168.18C310.9984,-159.7529 298.4865,-146.6707 293,-132 287.3624,-116.9253 290.7843,-98.7832 295.0954,-85.3381"/>
<polygon fill="#191970" stroke="#191970" points="298.4679,-86.3047 298.5875,-75.7106 291.8874,-83.9178 298.4679,-86.3047"/>
</g>
<!-- Node18&#45;&gt;Node3 -->
<g id="edge22" class="edge">
<title>Node18&#45;&gt;Node3</title>
<path fill="none" stroke="#191970" d="M526.5387,-168.1209C529.5542,-153.8763 532.6122,-127.5737 519,-112 497.1466,-86.9975 405.9742,-74.7697 349.2955,-69.476"/>
<polygon fill="#191970" stroke="#191970" points="349.4106,-65.9724 339.1383,-68.5668 348.7864,-72.9445 349.4106,-65.9724"/>
</g>
<!-- Node19 -->
<g id="node19" class="node">
<title>Node19</title>
<g id="a_node19"><a xlink:href="hdd-ioctl_8h.html" target="_top" xlink:title=" ">
<polygon fill="#ffffff" stroke="#000000" points="566,-112.5 566,-131.5 634,-131.5 634,-112.5 566,-112.5"/>
<text text-anchor="middle" x="600" y="-119.5" font-family="Helvetica,sans-Serif" font-size="10.00" fill="#000000">hdd&#45;ioctl.h</text>
</a>
</g>
</g>
<!-- Node18&#45;&gt;Node19 -->
<g id="edge23" class="edge">
<title>Node18&#45;&gt;Node19</title>
<path fill="none" stroke="#191970" d="M537.2382,-168.2455C548.681,-159.814 565.4296,-147.4729 578.7475,-137.6598"/>
<polygon fill="#191970" stroke="#191970" points="580.9391,-140.3924 586.9135,-131.6427 576.7867,-134.757 580.9391,-140.3924"/>
</g>
<!-- Node20 -->
<g id="node20" class="node">
<title>Node20</title>
<g id="a_node20"><a xlink:href="libpwroff_8h.html" target="_top" xlink:title=" ">
<polygon fill="#ffffff" stroke="#000000" points="652,-112.5 652,-131.5 720,-131.5 720,-112.5 652,-112.5"/>
<text text-anchor="middle" x="686" y="-119.5" font-family="Helvetica,sans-Serif" font-size="10.00" fill="#000000">libpwroff.h</text>
</a>
</g>
</g>
<!-- Node18&#45;&gt;Node20 -->
<g id="edge25" class="edge">
<title>Node18&#45;&gt;Node20</title>
<path fill="none" stroke="#191970" d="M551.8488,-168.3733C578.6703,-159.1016 619.4127,-145.0178 648.9598,-134.804"/>
<polygon fill="#191970" stroke="#191970" points="650.2069,-138.0762 658.5146,-131.5011 647.9198,-131.4603 650.2069,-138.0762"/>
</g>
<!-- Node19&#45;&gt;Node3 -->
<g id="edge24" class="edge">
<title>Node19&#45;&gt;Node3</title>
<path fill="none" stroke="#191970" d="M565.9309,-114.8027C561.2537,-113.8437 556.5104,-112.8863 552,-112 481.378,-98.1221 399.2444,-83.1808 349.208,-74.2124"/>
<polygon fill="#191970" stroke="#191970" points="349.7979,-70.7624 339.3377,-72.4461 348.5648,-77.653 349.7979,-70.7624"/>
</g>
<!-- Node21&#45;&gt;Node16 -->
<g id="edge31" class="edge">
<title>Node21&#45;&gt;Node16</title>
<path fill="none" stroke="#191970" d="M647.6659,-168.9089C684.7676,-160.1683 742.644,-146.489 801.8745,-132.2608"/>
<polygon fill="#191970" stroke="#191970" points="802.8711,-135.621 811.7758,-129.8802 801.2346,-128.815 802.8711,-135.621"/>
</g>
<!-- Node22 -->
<g id="node22" class="node">
<title>Node22</title>
<g id="a_node22"><a xlink:href="fileXio_8h.html" target="_top" xlink:title=" ">
<polygon fill="#ffffff" stroke="#000000" points="738,-112.5 738,-131.5 794,-131.5 794,-112.5 738,-112.5"/>
<text text-anchor="middle" x="766" y="-119.5" font-family="Helvetica,sans-Serif" font-size="10.00" fill="#000000">fileXio.h</text>
</a>
</g>
</g>
<!-- Node21&#45;&gt;Node22 -->
<g id="edge27" class="edge">
<title>Node21&#45;&gt;Node22</title>
<path fill="none" stroke="#191970" d="M635.9893,-168.3733C661.8699,-159.1419 701.1248,-145.1402 729.7289,-134.9375"/>
<polygon fill="#191970" stroke="#191970" points="731.12,-138.1573 739.3629,-131.5011 728.7683,-131.5642 731.12,-138.1573"/>
</g>
<!-- Node22&#45;&gt;Node3 -->
<g id="edge28" class="edge">
<title>Node22&#45;&gt;Node3</title>
<path fill="none" stroke="#191970" d="M737.8233,-113.8972C734.8588,-113.191 731.8774,-112.5408 729,-112 592.2144,-86.2938 427.8212,-73.5917 349.2393,-68.6165"/>
<polygon fill="#191970" stroke="#191970" points="349.3816,-65.1186 339.184,-67.9926 348.9481,-72.1052 349.3816,-65.1186"/>
</g>
<!-- Node23 -->
<g id="node23" class="node">
<title>Node23</title>
<g id="a_node23"><a xlink:href="iox__stat_8h.html" target="_top" xlink:title=" ">
<polygon fill="#ffffff" stroke="#000000" points="733.5,-56.5 733.5,-75.5 798.5,-75.5 798.5,-56.5 733.5,-56.5"/>
<text text-anchor="middle" x="766" y="-63.5" font-family="Helvetica,sans-Serif" font-size="10.00" fill="#000000">iox_stat.h</text>
</a>
</g>
</g>
<!-- Node22&#45;&gt;Node23 -->
<g id="edge29" class="edge">
<title>Node22&#45;&gt;Node23</title>
<path fill="none" stroke="#191970" d="M766,-112.2455C766,-104.9382 766,-94.6944 766,-85.7046"/>
<polygon fill="#191970" stroke="#191970" points="769.5001,-85.6426 766,-75.6427 762.5001,-85.6427 769.5001,-85.6426"/>
</g>
<!-- Node24 -->
<g id="node24" class="node">
<title>Node24</title>
<g id="a_node24"><a xlink:title=" ">
<polygon fill="#ffffff" stroke="#bfbfbf" points="732,-.5 732,-19.5 800,-19.5 800,-.5 732,-.5"/>
<text text-anchor="middle" x="766" y="-7.5" font-family="Helvetica,sans-Serif" font-size="10.00" fill="#000000">sys/time.h</text>
</a>
</g>
</g>
<!-- Node23&#45;&gt;Node24 -->
<g id="edge30" class="edge">
<title>Node23&#45;&gt;Node24</title>
<path fill="none" stroke="#191970" d="M766,-56.2455C766,-48.9382 766,-38.6944 766,-29.7046"/>
<polygon fill="#191970" stroke="#191970" points="769.5001,-29.6426 766,-19.6427 762.5001,-29.6427 769.5001,-29.6426"/>
</g>
<!-- Node25&#45;&gt;Node15 -->
<g id="edge33" class="edge">
<title>Node25&#45;&gt;Node15</title>
<path fill="none" stroke="#191970" d="M1072.8069,-168.2455C1062.3679,-159.8943 1047.1345,-147.7076 1034.926,-137.9408"/>
<polygon fill="#191970" stroke="#191970" points="1037.0485,-135.1566 1027.0533,-131.6427 1032.6756,-140.6227 1037.0485,-135.1566"/>
</g>
<!-- Node26 -->
<g id="node26" class="node">
<title>Node26</title>
<g id="a_node26"><a xlink:title=" ">
<polygon fill="#ffffff" stroke="#bfbfbf" points="1066.5,-112.5 1066.5,-131.5 1141.5,-131.5 1141.5,-112.5 1066.5,-112.5"/>
<text text-anchor="middle" x="1104" y="-119.5" font-family="Helvetica,sans-Serif" font-size="10.00" fill="#000000">sys/unistd.h</text>
</a>
</g>
</g>
<!-- Node25&#45;&gt;Node26 -->
<g id="edge34" class="edge">
<title>Node25&#45;&gt;Node26</title>
<path fill="none" stroke="#191970" d="M1088.3095,-168.2455C1090.8433,-160.7776 1094.4177,-150.2427 1097.515,-141.1137"/>
<polygon fill="#191970" stroke="#191970" points="1100.8298,-142.237 1100.7284,-131.6427 1094.2009,-139.9879 1100.8298,-142.237"/>
</g>
</g>
</svg>
