<?xml version="1.0" encoding="UTF-8" standalone="no"?>
<!DOCTYPE svg PUBLIC "-//W3C//DTD SVG 1.1//EN"
 "http://www.w3.org/Graphics/SVG/1.1/DTD/svg11.dtd">
<!-- Generated by graphviz version 2.40.1 (20161225.0304)
 -->
<!-- Title: ee/rpc/keyboard/src/libkbd.c Pages: 1 -->
<svg width="331pt" height="207pt"
 viewBox="0.00 0.00 330.57 207.00" xmlns="http://www.w3.org/2000/svg" xmlns:xlink="http://www.w3.org/1999/xlink">
<g id="graph0" class="graph" transform="scale(1 1) rotate(0) translate(4 203)">
<title>ee/rpc/keyboard/src/libkbd.c</title>
<polygon fill="#ffffff" stroke="transparent" points="-4,4 -4,-203 326.5651,-203 326.5651,4 -4,4"/>
<!-- Node1 -->
<g id="node1" class="node">
<title>Node1</title>
<g id="a_node1"><a xlink:title=" ">
<polygon fill="#bfbfbf" stroke="#000000" points="60.5651,-168.5 60.5651,-198.5 173.5651,-198.5 173.5651,-168.5 60.5651,-168.5"/>
<text text-anchor="start" x="68.5651" y="-186.5" font-family="Helvetica,sans-Serif" font-size="10.00" fill="#000000">ee/rpc/keyboard/src</text>
<text text-anchor="middle" x="117.0651" y="-175.5" font-family="Helvetica,sans-Serif" font-size="10.00" fill="#000000">/libkbd.c</text>
</a>
</g>
</g>
<!-- Node2 -->
<g id="node2" class="node">
<title>Node2</title>
<g id="a_node2"><a xlink:href="tamtypes_8h.html" target="_top" xlink:title=" ">
<polygon fill="#ffffff" stroke="#000000" points="107.0651,-.5 107.0651,-19.5 179.0651,-19.5 179.0651,-.5 107.0651,-.5"/>
<text text-anchor="middle" x="143.0651" y="-7.5" font-family="Helvetica,sans-Serif" font-size="10.00" fill="#000000">tamtypes.h</text>
</a>
</g>
</g>
<!-- Node1&#45;&gt;Node2 -->
<g id="edge1" class="edge">
<title>Node1&#45;&gt;Node2</title>
<path fill="none" stroke="#191970" d="M60.9161,-168.4979C42.7719,-160.7009 24.6284,-149.0918 14.0651,-132 -3.693,-103.2669 -5.3994,-83.6057 14.0651,-56 23.9987,-41.9115 64.0646,-29.0251 96.9418,-20.4988"/>
<polygon fill="#191970" stroke="#191970" points="98.0313,-23.8338 106.8729,-17.9962 96.3208,-17.046 98.0313,-23.8338"/>
</g>
<!-- Node3 -->
<g id="node3" class="node">
<title>Node3</title>
<g id="a_node3"><a xlink:title=" ">
<polygon fill="#ffffff" stroke="#bfbfbf" points="23.5651,-112.5 23.5651,-131.5 70.5651,-131.5 70.5651,-112.5 23.5651,-112.5"/>
<text text-anchor="middle" x="47.0651" y="-119.5" font-family="Helvetica,sans-Serif" font-size="10.00" fill="#000000">fcntl.h</text>
</a>
</g>
</g>
<!-- Node1&#45;&gt;Node3 -->
<g id="edge2" class="edge">
<title>Node1&#45;&gt;Node3</title>
<path fill="none" stroke="#191970" d="M99.7617,-168.2977C89.5389,-159.3163 76.5827,-147.9334 66.0755,-138.702"/>
<polygon fill="#191970" stroke="#191970" points="68.0955,-135.8178 58.273,-131.8469 63.4753,-141.0766 68.0955,-135.8178"/>
</g>
<!-- Node4 -->
<g id="node4" class="node">
<title>Node4</title>
<g id="a_node4"><a xlink:title=" ">
<polygon fill="#ffffff" stroke="#bfbfbf" points="89.0651,-112.5 89.0651,-131.5 145.0651,-131.5 145.0651,-112.5 89.0651,-112.5"/>
<text text-anchor="middle" x="117.0651" y="-119.5" font-family="Helvetica,sans-Serif" font-size="10.00" fill="#000000">unistd.h</text>
</a>
</g>
</g>
<!-- Node1&#45;&gt;Node4 -->
<g id="edge3" class="edge">
<title>Node1&#45;&gt;Node4</title>
<path fill="none" stroke="#191970" d="M117.0651,-168.2977C117.0651,-160.3834 117.0651,-150.6043 117.0651,-142.0759"/>
<polygon fill="#191970" stroke="#191970" points="120.5652,-141.8469 117.0651,-131.8469 113.5652,-141.847 120.5652,-141.8469"/>
</g>
<!-- Node5 -->
<g id="node5" class="node">
<title>Node5</title>
<g id="a_node5"><a xlink:href="ps2sdkapi_8h.html" target="_top" xlink:title=" ">
<polygon fill="#ffffff" stroke="#000000" points="163.5651,-112.5 163.5651,-131.5 238.5651,-131.5 238.5651,-112.5 163.5651,-112.5"/>
<text text-anchor="middle" x="201.0651" y="-119.5" font-family="Helvetica,sans-Serif" font-size="10.00" fill="#000000">ps2sdkapi.h</text>
</a>
</g>
</g>
<!-- Node1&#45;&gt;Node5 -->
<g id="edge4" class="edge">
<title>Node1&#45;&gt;Node5</title>
<path fill="none" stroke="#191970" d="M137.8291,-168.2977C150.4609,-159.0495 166.5704,-147.2551 179.3681,-137.8853"/>
<polygon fill="#191970" stroke="#191970" points="181.6146,-140.5784 187.6156,-131.8469 177.4794,-134.9303 181.6146,-140.5784"/>
</g>
<!-- Node9 -->
<g id="node9" class="node">
<title>Node9</title>
<g id="a_node9"><a xlink:href="libkbd_8h.html" target="_top" xlink:title=" ">
<polygon fill="#ffffff" stroke="#000000" points="260.0651,-112.5 260.0651,-131.5 316.0651,-131.5 316.0651,-112.5 260.0651,-112.5"/>
<text text-anchor="middle" x="288.0651" y="-119.5" font-family="Helvetica,sans-Serif" font-size="10.00" fill="#000000">libkbd.h</text>
</a>
</g>
</g>
<!-- Node1&#45;&gt;Node9 -->
<g id="edge8" class="edge">
<title>Node1&#45;&gt;Node9</title>
<path fill="none" stroke="#191970" d="M158.8964,-168.4554C187.4282,-158.194 224.8286,-144.7429 252.038,-134.9571"/>
<polygon fill="#191970" stroke="#191970" points="253.3407,-138.2081 261.5661,-131.5303 250.9717,-131.6212 253.3407,-138.2081"/>
</g>
<!-- Node6 -->
<g id="node6" class="node">
<title>Node6</title>
<g id="a_node6"><a xlink:title=" ">
<polygon fill="#ffffff" stroke="#bfbfbf" points="23.0651,-56.5 23.0651,-75.5 77.0651,-75.5 77.0651,-56.5 23.0651,-56.5"/>
<text text-anchor="middle" x="50.0651" y="-63.5" font-family="Helvetica,sans-Serif" font-size="10.00" fill="#000000">dirent.h</text>
</a>
</g>
</g>
<!-- Node5&#45;&gt;Node6 -->
<g id="edge5" class="edge">
<title>Node5&#45;&gt;Node6</title>
<path fill="none" stroke="#191970" d="M175.1072,-112.3733C150.3243,-103.1822 112.7905,-89.2624 85.311,-79.0713"/>
<polygon fill="#191970" stroke="#191970" points="86.2772,-75.6968 75.6842,-75.5011 83.8431,-82.26 86.2772,-75.6968"/>
</g>
<!-- Node7 -->
<g id="node7" class="node">
<title>Node7</title>
<g id="a_node7"><a xlink:title=" ">
<polygon fill="#ffffff" stroke="#bfbfbf" points="95.5651,-56.5 95.5651,-75.5 160.5651,-75.5 160.5651,-56.5 95.5651,-56.5"/>
<text text-anchor="middle" x="128.0651" y="-63.5" font-family="Helvetica,sans-Serif" font-size="10.00" fill="#000000">inttypes.h</text>
</a>
</g>
</g>
<!-- Node5&#45;&gt;Node7 -->
<g id="edge6" class="edge">
<title>Node5&#45;&gt;Node7</title>
<path fill="none" stroke="#191970" d="M188.3494,-112.2455C177.463,-103.8943 161.5768,-91.7076 148.8451,-81.9408"/>
<polygon fill="#191970" stroke="#191970" points="150.6996,-78.9523 140.635,-75.6427 146.439,-84.5063 150.6996,-78.9523"/>
</g>
<!-- Node8 -->
<g id="node8" class="node">
<title>Node8</title>
<g id="a_node8"><a xlink:title=" ">
<polygon fill="#ffffff" stroke="#bfbfbf" points="179.0651,-56.5 179.0651,-75.5 243.0651,-75.5 243.0651,-56.5 179.0651,-56.5"/>
<text text-anchor="middle" x="211.0651" y="-63.5" font-family="Helvetica,sans-Serif" font-size="10.00" fill="#000000">sys/stat.h</text>
</a>
</g>
</g>
<!-- Node5&#45;&gt;Node8 -->
<g id="edge7" class="edge">
<title>Node5&#45;&gt;Node8</title>
<path fill="none" stroke="#191970" d="M202.8069,-112.2455C204.1118,-104.9382 205.9411,-94.6944 207.5464,-85.7046"/>
<polygon fill="#191970" stroke="#191970" points="211.0307,-86.1022 209.3432,-75.6427 204.1397,-84.8717 211.0307,-86.1022"/>
</g>
<!-- Node10 -->
<g id="node10" class="node">
<title>Node10</title>
<g id="a_node10"><a xlink:href="ps2kbd_8h.html" target="_top" xlink:title=" ">
<polygon fill="#ffffff" stroke="#000000" points="261.5651,-56.5 261.5651,-75.5 322.5651,-75.5 322.5651,-56.5 261.5651,-56.5"/>
<text text-anchor="middle" x="292.0651" y="-63.5" font-family="Helvetica,sans-Serif" font-size="10.00" fill="#000000">ps2kbd.h</text>
</a>
</g>
</g>
<!-- Node9&#45;&gt;Node10 -->
<g id="edge9" class="edge">
<title>Node9&#45;&gt;Node10</title>
<path fill="none" stroke="#191970" d="M288.7618,-112.2455C289.2838,-104.9382 290.0155,-94.6944 290.6576,-85.7046"/>
<polygon fill="#191970" stroke="#191970" points="294.1548,-85.8667 291.3763,-75.6427 287.1726,-85.3679 294.1548,-85.8667"/>
</g>
<!-- Node10&#45;&gt;Node2 -->
<g id="edge10" class="edge">
<title>Node10&#45;&gt;Node2</title>
<path fill="none" stroke="#191970" d="M266.4511,-56.3733C241.9964,-47.1822 204.9597,-33.2624 177.8442,-23.0713"/>
<polygon fill="#191970" stroke="#191970" points="178.9369,-19.7431 168.3448,-19.5011 176.4742,-26.2956 178.9369,-19.7431"/>
</g>
</g>
</svg>
