<?xml version="1.0" encoding="UTF-8" standalone="no"?>
<!DOCTYPE svg PUBLIC "-//W3C//DTD SVG 1.1//EN"
 "http://www.w3.org/Graphics/SVG/1.1/DTD/svg11.dtd">
<!-- Generated by graphviz version 2.40.1 (20161225.0304)
 -->
<!-- Title: ee/rpc/memorycard/src/libmc.c Pages: 1 -->
<svg width="430pt" height="207pt"
 viewBox="0.00 0.00 430.01 207.00" xmlns="http://www.w3.org/2000/svg" xmlns:xlink="http://www.w3.org/1999/xlink">
<g id="graph0" class="graph" transform="scale(1 1) rotate(0) translate(4 203)">
<title>ee/rpc/memorycard/src/libmc.c</title>
<polygon fill="#ffffff" stroke="transparent" points="-4,4 -4,-203 426.0103,-203 426.0103,4 -4,4"/>
<!-- Node1 -->
<g id="node1" class="node">
<title>Node1</title>
<g id="a_node1"><a xlink:title=" ">
<polygon fill="#bfbfbf" stroke="#000000" points="152.0103,-168.5 152.0103,-198.5 281.0103,-198.5 281.0103,-168.5 152.0103,-168.5"/>
<text text-anchor="start" x="160.0103" y="-186.5" font-family="Helvetica,sans-Serif" font-size="10.00" fill="#000000">ee/rpc/memorycard/src</text>
<text text-anchor="middle" x="216.5103" y="-175.5" font-family="Helvetica,sans-Serif" font-size="10.00" fill="#000000">/libmc.c</text>
</a>
</g>
</g>
<!-- Node2 -->
<g id="node2" class="node">
<title>Node2</title>
<g id="a_node2"><a xlink:href="tamtypes_8h.html" target="_top" xlink:title=" ">
<polygon fill="#ffffff" stroke="#000000" points="200.5103,-.5 200.5103,-19.5 272.5103,-19.5 272.5103,-.5 200.5103,-.5"/>
<text text-anchor="middle" x="236.5103" y="-7.5" font-family="Helvetica,sans-Serif" font-size="10.00" fill="#000000">tamtypes.h</text>
</a>
</g>
</g>
<!-- Node1&#45;&gt;Node2 -->
<g id="edge1" class="edge">
<title>Node1&#45;&gt;Node2</title>
<path fill="none" stroke="#191970" d="M151.7065,-169.7795C75.7166,-150.7618 -34.4056,-112.253 11.5103,-56 33.6291,-28.9017 131.1289,-17.3401 190.2849,-12.7476"/>
<polygon fill="#191970" stroke="#191970" points="190.7857,-16.2203 200.5011,-11.9939 190.2706,-9.2392 190.7857,-16.2203"/>
</g>
<!-- Node3 -->
<g id="node3" class="node">
<title>Node3</title>
<g id="a_node3"><a xlink:href="kernel_8h.html" target="_top" xlink:title=" ">
<polygon fill="#ffffff" stroke="#000000" points="98.5103,-112.5 98.5103,-131.5 154.5103,-131.5 154.5103,-112.5 98.5103,-112.5"/>
<text text-anchor="middle" x="126.5103" y="-119.5" font-family="Helvetica,sans-Serif" font-size="10.00" fill="#000000">kernel.h</text>
</a>
</g>
</g>
<!-- Node1&#45;&gt;Node3 -->
<g id="edge2" class="edge">
<title>Node1&#45;&gt;Node3</title>
<path fill="none" stroke="#191970" d="M194.2631,-168.2977C180.5136,-158.9022 162.9183,-146.8787 149.1047,-137.4395"/>
<polygon fill="#191970" stroke="#191970" points="150.8829,-134.4155 140.6517,-131.6633 146.9335,-140.195 150.8829,-134.4155"/>
</g>
<!-- Node7 -->
<g id="node7" class="node">
<title>Node7</title>
<g id="a_node7"><a xlink:href="sifrpc_8h.html" target="_top" xlink:title=" ">
<polygon fill="#ffffff" stroke="#000000" points="190.0103,-112.5 190.0103,-131.5 243.0103,-131.5 243.0103,-112.5 190.0103,-112.5"/>
<text text-anchor="middle" x="216.5103" y="-119.5" font-family="Helvetica,sans-Serif" font-size="10.00" fill="#000000">sifrpc.h</text>
</a>
</g>
</g>
<!-- Node1&#45;&gt;Node7 -->
<g id="edge7" class="edge">
<title>Node1&#45;&gt;Node7</title>
<path fill="none" stroke="#191970" d="M216.5103,-168.2977C216.5103,-160.3834 216.5103,-150.6043 216.5103,-142.0759"/>
<polygon fill="#191970" stroke="#191970" points="220.0104,-141.8469 216.5103,-131.8469 213.0104,-141.847 220.0104,-141.8469"/>
</g>
<!-- Node9 -->
<g id="node9" class="node">
<title>Node9</title>
<g id="a_node9"><a xlink:title=" ">
<polygon fill="#ffffff" stroke="#bfbfbf" points="261.0103,-112.5 261.0103,-131.5 314.0103,-131.5 314.0103,-112.5 261.0103,-112.5"/>
<text text-anchor="middle" x="287.5103" y="-119.5" font-family="Helvetica,sans-Serif" font-size="10.00" fill="#000000">string.h</text>
</a>
</g>
</g>
<!-- Node1&#45;&gt;Node9 -->
<g id="edge10" class="edge">
<title>Node1&#45;&gt;Node9</title>
<path fill="none" stroke="#191970" d="M234.0609,-168.2977C244.5324,-159.2274 257.8315,-147.7077 268.5441,-138.4285"/>
<polygon fill="#191970" stroke="#191970" points="270.8752,-141.0398 276.1423,-131.8469 266.2921,-135.7487 270.8752,-141.0398"/>
</g>
<!-- Node10 -->
<g id="node10" class="node">
<title>Node10</title>
<g id="a_node10"><a xlink:href="libmc_8h.html" target="_top" xlink:title=" ">
<polygon fill="#ffffff" stroke="#000000" points="341.0103,-112.5 341.0103,-131.5 394.0103,-131.5 394.0103,-112.5 341.0103,-112.5"/>
<text text-anchor="middle" x="367.5103" y="-119.5" font-family="Helvetica,sans-Serif" font-size="10.00" fill="#000000">libmc.h</text>
</a>
</g>
</g>
<!-- Node1&#45;&gt;Node10 -->
<g id="edge11" class="edge">
<title>Node1&#45;&gt;Node10</title>
<path fill="none" stroke="#191970" d="M253.4491,-168.4554C278.3123,-158.329 310.8022,-145.0964 334.7439,-135.3453"/>
<polygon fill="#191970" stroke="#191970" points="336.1696,-138.5438 344.1107,-131.5303 333.5291,-132.0609 336.1696,-138.5438"/>
</g>
<!-- Node4 -->
<g id="node4" class="node">
<title>Node4</title>
<g id="a_node4"><a xlink:title=" ">
<polygon fill="#ffffff" stroke="#bfbfbf" points="20.5103,-56.5 20.5103,-75.5 76.5103,-75.5 76.5103,-56.5 20.5103,-56.5"/>
<text text-anchor="middle" x="48.5103" y="-63.5" font-family="Helvetica,sans-Serif" font-size="10.00" fill="#000000">stddef.h</text>
</a>
</g>
</g>
<!-- Node3&#45;&gt;Node4 -->
<g id="edge3" class="edge">
<title>Node3&#45;&gt;Node4</title>
<path fill="none" stroke="#191970" d="M112.9238,-112.2455C101.1799,-103.814 83.9905,-91.4729 70.3222,-81.6598"/>
<polygon fill="#191970" stroke="#191970" points="72.1057,-78.6316 61.9412,-75.6427 68.0232,-84.3179 72.1057,-78.6316"/>
</g>
<!-- Node5 -->
<g id="node5" class="node">
<title>Node5</title>
<g id="a_node5"><a xlink:title=" ">
<polygon fill="#ffffff" stroke="#bfbfbf" points="94.5103,-56.5 94.5103,-75.5 150.5103,-75.5 150.5103,-56.5 94.5103,-56.5"/>
<text text-anchor="middle" x="122.5103" y="-63.5" font-family="Helvetica,sans-Serif" font-size="10.00" fill="#000000">stdarg.h</text>
</a>
</g>
</g>
<!-- Node3&#45;&gt;Node5 -->
<g id="edge4" class="edge">
<title>Node3&#45;&gt;Node5</title>
<path fill="none" stroke="#191970" d="M125.8136,-112.2455C125.2916,-104.9382 124.5599,-94.6944 123.9178,-85.7046"/>
<polygon fill="#191970" stroke="#191970" points="127.4028,-85.3679 123.1991,-75.6427 120.4206,-85.8667 127.4028,-85.3679"/>
</g>
<!-- Node6 -->
<g id="node6" class="node">
<title>Node6</title>
<g id="a_node6"><a xlink:href="sifdma_8h.html" target="_top" xlink:title=" ">
<polygon fill="#ffffff" stroke="#000000" points="169.0103,-56.5 169.0103,-75.5 228.0103,-75.5 228.0103,-56.5 169.0103,-56.5"/>
<text text-anchor="middle" x="198.5103" y="-63.5" font-family="Helvetica,sans-Serif" font-size="10.00" fill="#000000">sifdma.h</text>
</a>
</g>
</g>
<!-- Node3&#45;&gt;Node6 -->
<g id="edge5" class="edge">
<title>Node3&#45;&gt;Node6</title>
<path fill="none" stroke="#191970" d="M139.0518,-112.2455C149.7891,-103.8943 165.4577,-91.7076 178.015,-81.9408"/>
<polygon fill="#191970" stroke="#191970" points="180.3679,-84.5449 186.1126,-75.6427 176.0703,-79.0194 180.3679,-84.5449"/>
</g>
<!-- Node6&#45;&gt;Node2 -->
<g id="edge6" class="edge">
<title>Node6&#45;&gt;Node2</title>
<path fill="none" stroke="#191970" d="M205.1294,-56.2455C210.4149,-48.4564 217.9645,-37.3308 224.3341,-27.9439"/>
<polygon fill="#191970" stroke="#191970" points="227.2482,-29.8827 229.9671,-19.6427 221.4559,-25.9522 227.2482,-29.8827"/>
</g>
<!-- Node8 -->
<g id="node8" class="node">
<title>Node8</title>
<g id="a_node8"><a xlink:href="sifcmd_8h.html" target="_top" xlink:title=" ">
<polygon fill="#ffffff" stroke="#000000" points="246.0103,-56.5 246.0103,-75.5 305.0103,-75.5 305.0103,-56.5 246.0103,-56.5"/>
<text text-anchor="middle" x="275.5103" y="-63.5" font-family="Helvetica,sans-Serif" font-size="10.00" fill="#000000">sifcmd.h</text>
</a>
</g>
</g>
<!-- Node7&#45;&gt;Node8 -->
<g id="edge8" class="edge">
<title>Node7&#45;&gt;Node8</title>
<path fill="none" stroke="#191970" d="M226.7874,-112.2455C235.3322,-104.1352 247.6881,-92.4075 257.8189,-82.7919"/>
<polygon fill="#191970" stroke="#191970" points="260.5075,-85.0655 265.3511,-75.6427 255.6885,-79.9884 260.5075,-85.0655"/>
</g>
<!-- Node8&#45;&gt;Node2 -->
<g id="edge9" class="edge">
<title>Node8&#45;&gt;Node2</title>
<path fill="none" stroke="#191970" d="M268.7171,-56.2455C263.2925,-48.4564 255.5443,-37.3308 249.007,-27.9439"/>
<polygon fill="#191970" stroke="#191970" points="251.8129,-25.8485 243.2258,-19.6427 246.0686,-29.849 251.8129,-25.8485"/>
</g>
<!-- Node11 -->
<g id="node11" class="node">
<title>Node11</title>
<g id="a_node11"><a xlink:href="libmc-common_8h.html" target="_top" xlink:title=" ">
<polygon fill="#ffffff" stroke="#000000" points="323.0103,-56.5 323.0103,-75.5 422.0103,-75.5 422.0103,-56.5 323.0103,-56.5"/>
<text text-anchor="middle" x="372.5103" y="-63.5" font-family="Helvetica,sans-Serif" font-size="10.00" fill="#000000">libmc&#45;common.h</text>
</a>
</g>
</g>
<!-- Node10&#45;&gt;Node11 -->
<g id="edge12" class="edge">
<title>Node10&#45;&gt;Node11</title>
<path fill="none" stroke="#191970" d="M368.3813,-112.2455C369.0337,-104.9382 369.9483,-94.6944 370.751,-85.7046"/>
<polygon fill="#191970" stroke="#191970" points="374.2461,-85.9143 371.6494,-75.6427 367.2738,-85.2918 374.2461,-85.9143"/>
</g>
<!-- Node11&#45;&gt;Node2 -->
<g id="edge13" class="edge">
<title>Node11&#45;&gt;Node2</title>
<path fill="none" stroke="#191970" d="M349.1311,-56.3733C327.0059,-47.2629 293.5969,-33.5062 268.9084,-23.3404"/>
<polygon fill="#191970" stroke="#191970" points="270.1639,-20.0723 259.5845,-19.5011 267.4986,-26.5451 270.1639,-20.0723"/>
</g>
</g>
</svg>
