<?xml version="1.0" encoding="UTF-8" standalone="no"?>
<!DOCTYPE svg PUBLIC "-//W3C//DTD SVG 1.1//EN"
 "http://www.w3.org/Graphics/SVG/1.1/DTD/svg11.dtd">
<!-- Generated by graphviz version 2.40.1 (20161225.0304)
 -->
<!-- Title: ee/rpc/poweroff/include/libpwroff.h Pages: 1 -->
<svg width="408pt" height="162pt"
 viewBox="0.00 0.00 408.00 162.00" xmlns="http://www.w3.org/2000/svg" xmlns:xlink="http://www.w3.org/1999/xlink">
<g id="graph0" class="graph" transform="scale(1 1) rotate(0) translate(4 158)">
<title>ee/rpc/poweroff/include/libpwroff.h</title>
<polygon fill="#ffffff" stroke="transparent" points="-4,4 -4,-158 404,-158 404,4 -4,4"/>
<!-- Node1 -->
<g id="node1" class="node">
<title>Node1</title>
<g id="a_node1"><a xlink:title=" ">
<polygon fill="#bfbfbf" stroke="#000000" points="137.5,-123.5 137.5,-153.5 268.5,-153.5 268.5,-123.5 137.5,-123.5"/>
<text text-anchor="start" x="145.5" y="-141.5" font-family="Helvetica,sans-Serif" font-size="10.00" fill="#000000">ee/rpc/poweroff/include</text>
<text text-anchor="middle" x="203" y="-130.5" font-family="Helvetica,sans-Serif" font-size="10.00" fill="#000000">/libpwroff.h</text>
</a>
</g>
</g>
<!-- Node2 -->
<g id="node2" class="node">
<title>Node2</title>
<g id="a_node2"><a xlink:href="libhdd_8h.html" target="_top" xlink:title=" ">
<polygon fill="#ffffff" stroke="#000000" points="10,-56.5 10,-86.5 116,-86.5 116,-56.5 10,-56.5"/>
<text text-anchor="start" x="18" y="-74.5" font-family="Helvetica,sans-Serif" font-size="10.00" fill="#000000">ee/rpc/hdd/include</text>
<text text-anchor="middle" x="63" y="-63.5" font-family="Helvetica,sans-Serif" font-size="10.00" fill="#000000">/libhdd.h</text>
</a>
</g>
</g>
<!-- Node1&#45;&gt;Node2 -->
<g id="edge1" class="edge">
<title>Node1&#45;&gt;Node2</title>
<path fill="none" stroke="#191970" d="M162.362,-119.0518C140.8498,-108.7567 114.819,-96.2991 94.7983,-86.7177"/>
<polygon fill="#191970" stroke="#191970" points="161.0501,-122.3041 171.5813,-123.4639 164.0719,-115.9899 161.0501,-122.3041"/>
</g>
<!-- Node4 -->
<g id="node4" class="node">
<title>Node4</title>
<g id="a_node4"><a xlink:href="samples_2poweroff_8c.html" target="_top" xlink:title=" ">
<polygon fill="#ffffff" stroke="#000000" points="134.5,-56.5 134.5,-86.5 271.5,-86.5 271.5,-56.5 134.5,-56.5"/>
<text text-anchor="start" x="142.5" y="-74.5" font-family="Helvetica,sans-Serif" font-size="10.00" fill="#000000">ee/rpc/poweroff/samples</text>
<text text-anchor="middle" x="203" y="-63.5" font-family="Helvetica,sans-Serif" font-size="10.00" fill="#000000">/poweroff.c</text>
</a>
</g>
</g>
<!-- Node1&#45;&gt;Node4 -->
<g id="edge3" class="edge">
<title>Node1&#45;&gt;Node4</title>
<path fill="none" stroke="#191970" d="M203,-113.0249C203,-104.128 203,-94.4287 203,-86.6432"/>
<polygon fill="#191970" stroke="#191970" points="199.5001,-113.2966 203,-123.2967 206.5001,-113.2967 199.5001,-113.2966"/>
</g>
<!-- Node5 -->
<g id="node5" class="node">
<title>Node5</title>
<g id="a_node5"><a xlink:href="src_2poweroff_8c.html" target="_top" xlink:title=" ">
<polygon fill="#ffffff" stroke="#000000" points="290,-56.5 290,-86.5 400,-86.5 400,-56.5 290,-56.5"/>
<text text-anchor="start" x="298" y="-74.5" font-family="Helvetica,sans-Serif" font-size="10.00" fill="#000000">ee/rpc/poweroff/src</text>
<text text-anchor="middle" x="345" y="-63.5" font-family="Helvetica,sans-Serif" font-size="10.00" fill="#000000">/poweroff.c</text>
</a>
</g>
</g>
<!-- Node1&#45;&gt;Node5 -->
<g id="edge4" class="edge">
<title>Node1&#45;&gt;Node5</title>
<path fill="none" stroke="#191970" d="M243.9253,-119.1902C265.8011,-108.8685 292.3496,-96.3421 312.7475,-86.7177"/>
<polygon fill="#191970" stroke="#191970" points="242.4179,-116.0313 234.8676,-123.4639 245.405,-122.362 242.4179,-116.0313"/>
</g>
<!-- Node3 -->
<g id="node3" class="node">
<title>Node3</title>
<g id="a_node3"><a xlink:href="libhdd_8c.html" target="_top" xlink:title=" ">
<polygon fill="#ffffff" stroke="#000000" points="0,-.5 0,-19.5 126,-19.5 126,-.5 0,-.5"/>
<text text-anchor="middle" x="63" y="-7.5" font-family="Helvetica,sans-Serif" font-size="10.00" fill="#000000">ee/rpc/hdd/src/libhdd.c</text>
</a>
</g>
</g>
<!-- Node2&#45;&gt;Node3 -->
<g id="edge2" class="edge">
<title>Node2&#45;&gt;Node3</title>
<path fill="none" stroke="#191970" d="M63,-46.2849C63,-36.9858 63,-26.9883 63,-19.8469"/>
<polygon fill="#191970" stroke="#191970" points="59.5001,-46.2977 63,-56.2977 66.5001,-46.2978 59.5001,-46.2977"/>
</g>
</g>
</svg>
