<?xml version="1.0" encoding="UTF-8" standalone="no"?>
<!DOCTYPE svg PUBLIC "-//W3C//DTD SVG 1.1//EN"
 "http://www.w3.org/Graphics/SVG/1.1/DTD/svg11.dtd">
<!-- Generated by graphviz version 2.40.1 (20161225.0304)
 -->
<!-- Title: ee/rpc/multitap/samples/mtap_sample.c Pages: 1 -->
<svg width="615pt" height="207pt"
 viewBox="0.00 0.00 615.41 207.00" xmlns="http://www.w3.org/2000/svg" xmlns:xlink="http://www.w3.org/1999/xlink">
<g id="graph0" class="graph" transform="scale(1 1) rotate(0) translate(4 203)">
<title>ee/rpc/multitap/samples/mtap_sample.c</title>
<polygon fill="#ffffff" stroke="transparent" points="-4,4 -4,-203 611.4088,-203 611.4088,4 -4,4"/>
<!-- Node1 -->
<g id="node1" class="node">
<title>Node1</title>
<g id="a_node1"><a xlink:title=" ">
<polygon fill="#bfbfbf" stroke="#000000" points="249.4088,-168.5 249.4088,-198.5 384.4088,-198.5 384.4088,-168.5 249.4088,-168.5"/>
<text text-anchor="start" x="257.4088" y="-186.5" font-family="Helvetica,sans-Serif" font-size="10.00" fill="#000000">ee/rpc/multitap/samples</text>
<text text-anchor="middle" x="316.9088" y="-175.5" font-family="Helvetica,sans-Serif" font-size="10.00" fill="#000000">/mtap_sample.c</text>
</a>
</g>
</g>
<!-- Node2 -->
<g id="node2" class="node">
<title>Node2</title>
<g id="a_node2"><a xlink:href="tamtypes_8h.html" target="_top" xlink:title=" ">
<polygon fill="#ffffff" stroke="#000000" points="231.9088,-.5 231.9088,-19.5 303.9088,-19.5 303.9088,-.5 231.9088,-.5"/>
<text text-anchor="middle" x="267.9088" y="-7.5" font-family="Helvetica,sans-Serif" font-size="10.00" fill="#000000">tamtypes.h</text>
</a>
</g>
</g>
<!-- Node1&#45;&gt;Node2 -->
<g id="edge1" class="edge">
<title>Node1&#45;&gt;Node2</title>
<path fill="none" stroke="#191970" d="M249.2553,-174.9528C202.5624,-167.4689 139.7905,-154.2175 87.9088,-132 46.6626,-114.337 25.0807,-115.5599 3.9088,-76 -.2854,-68.1629 -1.8117,-62.8035 3.9088,-56 31.2131,-23.5268 153.614,-13.9757 221.7491,-11.168"/>
<polygon fill="#191970" stroke="#191970" points="221.9329,-14.6636 231.7929,-10.7867 221.6673,-7.6687 221.9329,-14.6636"/>
</g>
<!-- Node3 -->
<g id="node3" class="node">
<title>Node3</title>
<g id="a_node3"><a xlink:href="kernel_8h.html" target="_top" xlink:title=" ">
<polygon fill="#ffffff" stroke="#000000" points="96.9088,-112.5 96.9088,-131.5 152.9088,-131.5 152.9088,-112.5 96.9088,-112.5"/>
<text text-anchor="middle" x="124.9088" y="-119.5" font-family="Helvetica,sans-Serif" font-size="10.00" fill="#000000">kernel.h</text>
</a>
</g>
</g>
<!-- Node1&#45;&gt;Node3 -->
<g id="edge2" class="edge">
<title>Node1&#45;&gt;Node3</title>
<path fill="none" stroke="#191970" d="M269.9404,-168.4554C237.0252,-157.9123 193.598,-144.002 162.8705,-134.1596"/>
<polygon fill="#191970" stroke="#191970" points="163.5613,-130.7057 152.9702,-130.9884 161.4259,-137.3721 163.5613,-130.7057"/>
</g>
<!-- Node7 -->
<g id="node7" class="node">
<title>Node7</title>
<g id="a_node7"><a xlink:href="sifrpc_8h.html" target="_top" xlink:title=" ">
<polygon fill="#ffffff" stroke="#000000" points="182.4088,-112.5 182.4088,-131.5 235.4088,-131.5 235.4088,-112.5 182.4088,-112.5"/>
<text text-anchor="middle" x="208.9088" y="-119.5" font-family="Helvetica,sans-Serif" font-size="10.00" fill="#000000">sifrpc.h</text>
</a>
</g>
</g>
<!-- Node1&#45;&gt;Node7 -->
<g id="edge7" class="edge">
<title>Node1&#45;&gt;Node7</title>
<path fill="none" stroke="#191970" d="M290.4891,-168.4554C273.4174,-158.734 251.3186,-146.15 234.4279,-136.5317"/>
<polygon fill="#191970" stroke="#191970" points="236.0668,-133.4373 225.645,-131.5303 232.6029,-139.5202 236.0668,-133.4373"/>
</g>
<!-- Node9 -->
<g id="node9" class="node">
<title>Node9</title>
<g id="a_node9"><a xlink:href="loadfile_8h.html" target="_top" xlink:title=" ">
<polygon fill="#ffffff" stroke="#000000" points="315.9088,-56.5 315.9088,-75.5 377.9088,-75.5 377.9088,-56.5 315.9088,-56.5"/>
<text text-anchor="middle" x="346.9088" y="-63.5" font-family="Helvetica,sans-Serif" font-size="10.00" fill="#000000">loadfile.h</text>
</a>
</g>
</g>
<!-- Node1&#45;&gt;Node9 -->
<g id="edge10" class="edge">
<title>Node1&#45;&gt;Node9</title>
<path fill="none" stroke="#191970" d="M301.1698,-168.3069C288.0812,-153.7443 273.0626,-131.2027 282.9088,-112 289.8418,-98.4789 302.8025,-88.0326 315.2569,-80.5377"/>
<polygon fill="#191970" stroke="#191970" points="317.1017,-83.5168 324.1428,-75.6001 313.7016,-77.3979 317.1017,-83.5168"/>
</g>
<!-- Node10 -->
<g id="node10" class="node">
<title>Node10</title>
<g id="a_node10"><a xlink:title=" ">
<polygon fill="#ffffff" stroke="#bfbfbf" points="291.9088,-112.5 291.9088,-131.5 341.9088,-131.5 341.9088,-112.5 291.9088,-112.5"/>
<text text-anchor="middle" x="316.9088" y="-119.5" font-family="Helvetica,sans-Serif" font-size="10.00" fill="#000000">stdio.h</text>
</a>
</g>
</g>
<!-- Node1&#45;&gt;Node10 -->
<g id="edge12" class="edge">
<title>Node1&#45;&gt;Node10</title>
<path fill="none" stroke="#191970" d="M316.9088,-168.2977C316.9088,-160.3834 316.9088,-150.6043 316.9088,-142.0759"/>
<polygon fill="#191970" stroke="#191970" points="320.4089,-141.8469 316.9088,-131.8469 313.4089,-141.847 320.4089,-141.8469"/>
</g>
<!-- Node11 -->
<g id="node11" class="node">
<title>Node11</title>
<g id="a_node11"><a xlink:title=" ">
<polygon fill="#ffffff" stroke="#bfbfbf" points="360.4088,-112.5 360.4088,-131.5 413.4088,-131.5 413.4088,-112.5 360.4088,-112.5"/>
<text text-anchor="middle" x="386.9088" y="-119.5" font-family="Helvetica,sans-Serif" font-size="10.00" fill="#000000">string.h</text>
</a>
</g>
</g>
<!-- Node1&#45;&gt;Node11 -->
<g id="edge13" class="edge">
<title>Node1&#45;&gt;Node11</title>
<path fill="none" stroke="#191970" d="M334.2122,-168.2977C344.435,-159.3163 357.3912,-147.9334 367.8984,-138.702"/>
<polygon fill="#191970" stroke="#191970" points="370.4986,-141.0766 375.701,-131.8469 365.8784,-135.8178 370.4986,-141.0766"/>
</g>
<!-- Node12 -->
<g id="node12" class="node">
<title>Node12</title>
<g id="a_node12"><a xlink:href="gs__privileged_8h.html" target="_top" xlink:title=" ">
<polygon fill="#ffffff" stroke="#000000" points="396.4088,-56.5 396.4088,-75.5 487.4088,-75.5 487.4088,-56.5 396.4088,-56.5"/>
<text text-anchor="middle" x="441.9088" y="-63.5" font-family="Helvetica,sans-Serif" font-size="10.00" fill="#000000">gs_privileged.h</text>
</a>
</g>
</g>
<!-- Node1&#45;&gt;Node12 -->
<g id="edge14" class="edge">
<title>Node1&#45;&gt;Node12</title>
<path fill="none" stroke="#191970" d="M368.5119,-168.4948C387.9852,-160.4975 408.8154,-148.7521 422.9088,-132 433.8113,-119.0408 438.4647,-100.1456 440.4471,-85.8902"/>
<polygon fill="#191970" stroke="#191970" points="443.9584,-85.9678 441.5327,-75.6544 436.9975,-85.2295 443.9584,-85.9678"/>
</g>
<!-- Node13 -->
<g id="node13" class="node">
<title>Node13</title>
<g id="a_node13"><a xlink:href="libpad_8h.html" target="_top" xlink:title=" ">
<polygon fill="#ffffff" stroke="#000000" points="469.9088,-112.5 469.9088,-131.5 525.9088,-131.5 525.9088,-112.5 469.9088,-112.5"/>
<text text-anchor="middle" x="497.9088" y="-119.5" font-family="Helvetica,sans-Serif" font-size="10.00" fill="#000000">libpad.h</text>
</a>
</g>
</g>
<!-- Node1&#45;&gt;Node13 -->
<g id="edge16" class="edge">
<title>Node1&#45;&gt;Node13</title>
<path fill="none" stroke="#191970" d="M361.1864,-168.4554C391.5192,-158.149 431.3218,-144.6249 460.1533,-134.8286"/>
<polygon fill="#191970" stroke="#191970" points="461.5179,-138.0615 469.8603,-131.5303 459.2659,-131.4336 461.5179,-138.0615"/>
</g>
<!-- Node14 -->
<g id="node14" class="node">
<title>Node14</title>
<g id="a_node14"><a xlink:href="libmtap_8h.html" target="_top" xlink:title=" ">
<polygon fill="#ffffff" stroke="#000000" points="544.4088,-112.5 544.4088,-131.5 607.4088,-131.5 607.4088,-112.5 544.4088,-112.5"/>
<text text-anchor="middle" x="575.9088" y="-119.5" font-family="Helvetica,sans-Serif" font-size="10.00" fill="#000000">libmtap.h</text>
</a>
</g>
</g>
<!-- Node1&#45;&gt;Node14 -->
<g id="edge17" class="edge">
<title>Node1&#45;&gt;Node14</title>
<path fill="none" stroke="#191970" d="M381.3255,-168.4115C422.3667,-158.7683 476.9332,-145.8921 534.1716,-132.1654"/>
<polygon fill="#191970" stroke="#191970" points="535.2234,-135.5124 544.1303,-129.7749 533.5895,-128.7057 535.2234,-135.5124"/>
</g>
<!-- Node4 -->
<g id="node4" class="node">
<title>Node4</title>
<g id="a_node4"><a xlink:title=" ">
<polygon fill="#ffffff" stroke="#bfbfbf" points="12.9088,-56.5 12.9088,-75.5 68.9088,-75.5 68.9088,-56.5 12.9088,-56.5"/>
<text text-anchor="middle" x="40.9088" y="-63.5" font-family="Helvetica,sans-Serif" font-size="10.00" fill="#000000">stddef.h</text>
</a>
</g>
</g>
<!-- Node3&#45;&gt;Node4 -->
<g id="edge3" class="edge">
<title>Node3&#45;&gt;Node4</title>
<path fill="none" stroke="#191970" d="M110.2772,-112.2455C97.5094,-103.7337 78.7651,-91.2375 63.979,-81.3801"/>
<polygon fill="#191970" stroke="#191970" points="65.6348,-78.2775 55.3729,-75.6427 61.7519,-84.1019 65.6348,-78.2775"/>
</g>
<!-- Node5 -->
<g id="node5" class="node">
<title>Node5</title>
<g id="a_node5"><a xlink:title=" ">
<polygon fill="#ffffff" stroke="#bfbfbf" points="86.9088,-56.5 86.9088,-75.5 142.9088,-75.5 142.9088,-56.5 86.9088,-56.5"/>
<text text-anchor="middle" x="114.9088" y="-63.5" font-family="Helvetica,sans-Serif" font-size="10.00" fill="#000000">stdarg.h</text>
</a>
</g>
</g>
<!-- Node3&#45;&gt;Node5 -->
<g id="edge4" class="edge">
<title>Node3&#45;&gt;Node5</title>
<path fill="none" stroke="#191970" d="M123.167,-112.2455C121.8621,-104.9382 120.0328,-94.6944 118.4275,-85.7046"/>
<polygon fill="#191970" stroke="#191970" points="121.8342,-84.8717 116.6308,-75.6427 114.9432,-86.1022 121.8342,-84.8717"/>
</g>
<!-- Node6 -->
<g id="node6" class="node">
<title>Node6</title>
<g id="a_node6"><a xlink:href="sifdma_8h.html" target="_top" xlink:title=" ">
<polygon fill="#ffffff" stroke="#000000" points="161.4088,-56.5 161.4088,-75.5 220.4088,-75.5 220.4088,-56.5 161.4088,-56.5"/>
<text text-anchor="middle" x="190.9088" y="-63.5" font-family="Helvetica,sans-Serif" font-size="10.00" fill="#000000">sifdma.h</text>
</a>
</g>
</g>
<!-- Node3&#45;&gt;Node6 -->
<g id="edge5" class="edge">
<title>Node3&#45;&gt;Node6</title>
<path fill="none" stroke="#191970" d="M136.4052,-112.2455C146.153,-103.9746 160.3348,-91.9416 171.7886,-82.2232"/>
<polygon fill="#191970" stroke="#191970" points="174.1836,-84.7813 179.5443,-75.6427 169.6547,-79.4437 174.1836,-84.7813"/>
</g>
<!-- Node6&#45;&gt;Node2 -->
<g id="edge6" class="edge">
<title>Node6&#45;&gt;Node2</title>
<path fill="none" stroke="#191970" d="M204.3212,-56.2455C215.9146,-47.814 232.8836,-35.4729 246.3767,-25.6598"/>
<polygon fill="#191970" stroke="#191970" points="248.6214,-28.355 254.6502,-19.6427 244.5042,-22.6938 248.6214,-28.355"/>
</g>
<!-- Node8 -->
<g id="node8" class="node">
<title>Node8</title>
<g id="a_node8"><a xlink:href="sifcmd_8h.html" target="_top" xlink:title=" ">
<polygon fill="#ffffff" stroke="#000000" points="238.4088,-56.5 238.4088,-75.5 297.4088,-75.5 297.4088,-56.5 238.4088,-56.5"/>
<text text-anchor="middle" x="267.9088" y="-63.5" font-family="Helvetica,sans-Serif" font-size="10.00" fill="#000000">sifcmd.h</text>
</a>
</g>
</g>
<!-- Node7&#45;&gt;Node8 -->
<g id="edge8" class="edge">
<title>Node7&#45;&gt;Node8</title>
<path fill="none" stroke="#191970" d="M219.1859,-112.2455C227.7307,-104.1352 240.0866,-92.4075 250.2174,-82.7919"/>
<polygon fill="#191970" stroke="#191970" points="252.906,-85.0655 257.7496,-75.6427 248.087,-79.9884 252.906,-85.0655"/>
</g>
<!-- Node8&#45;&gt;Node2 -->
<g id="edge9" class="edge">
<title>Node8&#45;&gt;Node2</title>
<path fill="none" stroke="#191970" d="M267.9088,-56.2455C267.9088,-48.9382 267.9088,-38.6944 267.9088,-29.7046"/>
<polygon fill="#191970" stroke="#191970" points="271.4089,-29.6426 267.9088,-19.6427 264.4089,-29.6427 271.4089,-29.6426"/>
</g>
<!-- Node9&#45;&gt;Node2 -->
<g id="edge11" class="edge">
<title>Node9&#45;&gt;Node2</title>
<path fill="none" stroke="#191970" d="M333.1481,-56.2455C321.2536,-47.814 303.8438,-35.4729 290.0003,-25.6598"/>
<polygon fill="#191970" stroke="#191970" points="291.6942,-22.5704 281.5119,-19.6427 287.6461,-28.2811 291.6942,-22.5704"/>
</g>
<!-- Node12&#45;&gt;Node2 -->
<g id="edge15" class="edge">
<title>Node12&#45;&gt;Node2</title>
<path fill="none" stroke="#191970" d="M411.9972,-56.3733C383.0636,-47.0613 339.0477,-32.8953 307.2795,-22.671"/>
<polygon fill="#191970" stroke="#191970" points="308.0216,-19.2331 297.4302,-19.5011 305.877,-25.8965 308.0216,-19.2331"/>
</g>
</g>
</svg>
