<?xml version="1.0" encoding="UTF-8" standalone="no"?>
<!DOCTYPE svg PUBLIC "-//W3C//DTD SVG 1.1//EN"
 "http://www.w3.org/Graphics/SVG/1.1/DTD/svg11.dtd">
<!-- Generated by graphviz version 2.40.1 (20161225.0304)
 -->
<!-- Title: ee/network/netman/src/netman.c Pages: 1 -->
<svg width="611pt" height="207pt"
 viewBox="0.00 0.00 610.50 207.00" xmlns="http://www.w3.org/2000/svg" xmlns:xlink="http://www.w3.org/1999/xlink">
<g id="graph0" class="graph" transform="scale(1 1) rotate(0) translate(4 203)">
<title>ee/network/netman/src/netman.c</title>
<polygon fill="#ffffff" stroke="transparent" points="-4,4 -4,-203 606.5,-203 606.5,4 -4,4"/>
<!-- Node1 -->
<g id="node1" class="node">
<title>Node1</title>
<g id="a_node1"><a xlink:title=" ">
<polygon fill="#bfbfbf" stroke="#000000" points="195,-168.5 195,-198.5 324,-198.5 324,-168.5 195,-168.5"/>
<text text-anchor="start" x="203" y="-186.5" font-family="Helvetica,sans-Serif" font-size="10.00" fill="#000000">ee/network/netman/src</text>
<text text-anchor="middle" x="259.5" y="-175.5" font-family="Helvetica,sans-Serif" font-size="10.00" fill="#000000">/netman.c</text>
</a>
</g>
</g>
<!-- Node2 -->
<g id="node2" class="node">
<title>Node2</title>
<g id="a_node2"><a xlink:href="errno_8h.html" target="_top" xlink:title=" ">
<polygon fill="#ffffff" stroke="#000000" points="0,-112.5 0,-131.5 51,-131.5 51,-112.5 0,-112.5"/>
<text text-anchor="middle" x="25.5" y="-119.5" font-family="Helvetica,sans-Serif" font-size="10.00" fill="#000000">errno.h</text>
</a>
</g>
</g>
<!-- Node1&#45;&gt;Node2 -->
<g id="edge1" class="edge">
<title>Node1&#45;&gt;Node2</title>
<path fill="none" stroke="#191970" d="M198.969,-168.4832C161.5578,-159.07 112.3358,-146.4495 60.7504,-132.2901"/>
<polygon fill="#191970" stroke="#191970" points="61.6636,-128.9113 51.0931,-129.6287 59.8039,-135.6598 61.6636,-128.9113"/>
</g>
<!-- Node3 -->
<g id="node3" class="node">
<title>Node3</title>
<g id="a_node3"><a xlink:title=" ">
<polygon fill="#ffffff" stroke="#bfbfbf" points="69,-112.5 69,-131.5 122,-131.5 122,-112.5 69,-112.5"/>
<text text-anchor="middle" x="95.5" y="-119.5" font-family="Helvetica,sans-Serif" font-size="10.00" fill="#000000">string.h</text>
</a>
</g>
</g>
<!-- Node1&#45;&gt;Node3 -->
<g id="edge2" class="edge">
<title>Node1&#45;&gt;Node3</title>
<path fill="none" stroke="#191970" d="M219.3811,-168.4554C192.1373,-158.239 156.4623,-144.8609 130.3962,-135.0861"/>
<polygon fill="#191970" stroke="#191970" points="131.5064,-131.7645 120.9142,-131.5303 129.0485,-138.3188 131.5064,-131.7645"/>
</g>
<!-- Node4 -->
<g id="node4" class="node">
<title>Node4</title>
<g id="a_node4"><a xlink:href="kernel_8h.html" target="_top" xlink:title=" ">
<polygon fill="#ffffff" stroke="#000000" points="140.5,-112.5 140.5,-131.5 196.5,-131.5 196.5,-112.5 140.5,-112.5"/>
<text text-anchor="middle" x="168.5" y="-119.5" font-family="Helvetica,sans-Serif" font-size="10.00" fill="#000000">kernel.h</text>
</a>
</g>
</g>
<!-- Node1&#45;&gt;Node4 -->
<g id="edge3" class="edge">
<title>Node1&#45;&gt;Node4</title>
<path fill="none" stroke="#191970" d="M237.0056,-168.2977C223.1033,-158.9022 205.3124,-146.8787 191.3454,-137.4395"/>
<polygon fill="#191970" stroke="#191970" points="193.0436,-134.3629 182.7985,-131.6633 189.124,-140.1626 193.0436,-134.3629"/>
</g>
<!-- Node9 -->
<g id="node9" class="node">
<title>Node9</title>
<g id="a_node9"><a xlink:href="netman_8h.html" target="_top" xlink:title=" ">
<polygon fill="#ffffff" stroke="#000000" points="240,-56.5 240,-75.5 303,-75.5 303,-56.5 240,-56.5"/>
<text text-anchor="middle" x="271.5" y="-63.5" font-family="Helvetica,sans-Serif" font-size="10.00" fill="#000000">netman.h</text>
</a>
</g>
</g>
<!-- Node1&#45;&gt;Node9 -->
<g id="edge8" class="edge">
<title>Node1&#45;&gt;Node9</title>
<path fill="none" stroke="#191970" d="M251.753,-168.3187C245.3474,-153.7646 238.1079,-131.229 243.5,-112 246.2878,-102.0584 251.8812,-92.1336 257.3407,-84.0613"/>
<polygon fill="#191970" stroke="#191970" points="260.2676,-85.9866 263.2911,-75.8323 254.5952,-81.8849 260.2676,-85.9866"/>
</g>
<!-- Node10 -->
<g id="node10" class="node">
<title>Node10</title>
<g id="a_node10"><a xlink:href="netman__rpc_8h.html" target="_top" xlink:title=" ">
<polygon fill="#ffffff" stroke="#000000" points="253,-112.5 253,-131.5 336,-131.5 336,-112.5 253,-112.5"/>
<text text-anchor="middle" x="294.5" y="-119.5" font-family="Helvetica,sans-Serif" font-size="10.00" fill="#000000">netman_rpc.h</text>
</a>
</g>
</g>
<!-- Node1&#45;&gt;Node10 -->
<g id="edge10" class="edge">
<title>Node1&#45;&gt;Node10</title>
<path fill="none" stroke="#191970" d="M268.1517,-168.2977C272.9088,-159.9388 278.8498,-149.4997 283.8857,-140.6509"/>
<polygon fill="#191970" stroke="#191970" points="286.9917,-142.2692 288.8961,-131.8469 280.9079,-138.8069 286.9917,-142.2692"/>
</g>
<!-- Node11 -->
<g id="node11" class="node">
<title>Node11</title>
<g id="a_node11"><a xlink:title=" ">
<polygon fill="#ffffff" stroke="#bfbfbf" points="354,-112.5 354,-131.5 417,-131.5 417,-112.5 354,-112.5"/>
<text text-anchor="middle" x="385.5" y="-119.5" font-family="Helvetica,sans-Serif" font-size="10.00" fill="#000000">internal.h</text>
</a>
</g>
</g>
<!-- Node1&#45;&gt;Node11 -->
<g id="edge13" class="edge">
<title>Node1&#45;&gt;Node11</title>
<path fill="none" stroke="#191970" d="M290.3231,-168.4554C310.6088,-158.554 336.9788,-145.683 356.8162,-136.0004"/>
<polygon fill="#191970" stroke="#191970" points="358.523,-139.062 365.9745,-131.5303 355.4526,-132.7714 358.523,-139.062"/>
</g>
<!-- Node12 -->
<g id="node12" class="node">
<title>Node12</title>
<g id="a_node12"><a xlink:href="rpc__client_8h.html" target="_top" xlink:title=" ">
<polygon fill="#ffffff" stroke="#000000" points="435,-112.5 435,-131.5 508,-131.5 508,-112.5 435,-112.5"/>
<text text-anchor="middle" x="471.5" y="-119.5" font-family="Helvetica,sans-Serif" font-size="10.00" fill="#000000">rpc_client.h</text>
</a>
</g>
</g>
<!-- Node1&#45;&gt;Node12 -->
<g id="edge14" class="edge">
<title>Node1&#45;&gt;Node12</title>
<path fill="none" stroke="#191970" d="M311.361,-168.4554C347.5095,-157.9689 395.1405,-144.1515 429.0357,-134.3187"/>
<polygon fill="#191970" stroke="#191970" points="430.0186,-137.6779 438.6475,-131.5303 428.0683,-130.9551 430.0186,-137.6779"/>
</g>
<!-- Node13 -->
<g id="node13" class="node">
<title>Node13</title>
<g id="a_node13"><a xlink:href="rpc__server_8h.html" target="_top" xlink:title=" ">
<polygon fill="#ffffff" stroke="#000000" points="526.5,-112.5 526.5,-131.5 602.5,-131.5 602.5,-112.5 526.5,-112.5"/>
<text text-anchor="middle" x="564.5" y="-119.5" font-family="Helvetica,sans-Serif" font-size="10.00" fill="#000000">rpc_server.h</text>
</a>
</g>
</g>
<!-- Node1&#45;&gt;Node13 -->
<g id="edge15" class="edge">
<title>Node1&#45;&gt;Node13</title>
<path fill="none" stroke="#191970" d="M324.2237,-170.8153C374.0867,-160.9889 445.0211,-146.8937 516.2399,-132.2427"/>
<polygon fill="#191970" stroke="#191970" points="517.201,-135.6183 526.2889,-130.1721 515.7883,-128.7623 517.201,-135.6183"/>
</g>
<!-- Node5 -->
<g id="node5" class="node">
<title>Node5</title>
<g id="a_node5"><a xlink:title=" ">
<polygon fill="#ffffff" stroke="#bfbfbf" points="14.5,-56.5 14.5,-75.5 70.5,-75.5 70.5,-56.5 14.5,-56.5"/>
<text text-anchor="middle" x="42.5" y="-63.5" font-family="Helvetica,sans-Serif" font-size="10.00" fill="#000000">stddef.h</text>
</a>
</g>
</g>
<!-- Node4&#45;&gt;Node5 -->
<g id="edge4" class="edge">
<title>Node4&#45;&gt;Node5</title>
<path fill="none" stroke="#191970" d="M146.8398,-112.3733C126.5228,-103.3435 95.936,-89.7494 73.125,-79.6111"/>
<polygon fill="#191970" stroke="#191970" points="74.4372,-76.3642 63.8775,-75.5011 71.5941,-82.7609 74.4372,-76.3642"/>
</g>
<!-- Node6 -->
<g id="node6" class="node">
<title>Node6</title>
<g id="a_node6"><a xlink:title=" ">
<polygon fill="#ffffff" stroke="#bfbfbf" points="88.5,-56.5 88.5,-75.5 144.5,-75.5 144.5,-56.5 88.5,-56.5"/>
<text text-anchor="middle" x="116.5" y="-63.5" font-family="Helvetica,sans-Serif" font-size="10.00" fill="#000000">stdarg.h</text>
</a>
</g>
</g>
<!-- Node4&#45;&gt;Node6 -->
<g id="edge5" class="edge">
<title>Node4&#45;&gt;Node6</title>
<path fill="none" stroke="#191970" d="M159.4423,-112.2455C151.9858,-104.2155 141.2366,-92.6394 132.3583,-83.0781"/>
<polygon fill="#191970" stroke="#191970" points="134.8232,-80.589 125.4539,-75.6427 129.6937,-85.3522 134.8232,-80.589"/>
</g>
<!-- Node7 -->
<g id="node7" class="node">
<title>Node7</title>
<g id="a_node7"><a xlink:href="sifdma_8h.html" target="_top" xlink:title=" ">
<polygon fill="#ffffff" stroke="#000000" points="163,-56.5 163,-75.5 222,-75.5 222,-56.5 163,-56.5"/>
<text text-anchor="middle" x="192.5" y="-63.5" font-family="Helvetica,sans-Serif" font-size="10.00" fill="#000000">sifdma.h</text>
</a>
</g>
</g>
<!-- Node4&#45;&gt;Node7 -->
<g id="edge6" class="edge">
<title>Node4&#45;&gt;Node7</title>
<path fill="none" stroke="#191970" d="M172.6805,-112.2455C175.881,-104.7776 180.396,-94.2427 184.3084,-85.1137"/>
<polygon fill="#191970" stroke="#191970" points="187.6452,-86.2129 188.3674,-75.6427 181.2112,-83.4554 187.6452,-86.2129"/>
</g>
<!-- Node8 -->
<g id="node8" class="node">
<title>Node8</title>
<g id="a_node8"><a xlink:href="tamtypes_8h.html" target="_top" xlink:title=" ">
<polygon fill="#ffffff" stroke="#000000" points="235.5,-.5 235.5,-19.5 307.5,-19.5 307.5,-.5 235.5,-.5"/>
<text text-anchor="middle" x="271.5" y="-7.5" font-family="Helvetica,sans-Serif" font-size="10.00" fill="#000000">tamtypes.h</text>
</a>
</g>
</g>
<!-- Node7&#45;&gt;Node8 -->
<g id="edge7" class="edge">
<title>Node7&#45;&gt;Node8</title>
<path fill="none" stroke="#191970" d="M206.2607,-56.2455C218.1552,-47.814 235.565,-35.4729 249.4085,-25.6598"/>
<polygon fill="#191970" stroke="#191970" points="251.7628,-28.2811 257.8969,-19.6427 247.7146,-22.5704 251.7628,-28.2811"/>
</g>
<!-- Node9&#45;&gt;Node8 -->
<g id="edge9" class="edge">
<title>Node9&#45;&gt;Node8</title>
<path fill="none" stroke="#191970" d="M271.5,-56.2455C271.5,-48.9382 271.5,-38.6944 271.5,-29.7046"/>
<polygon fill="#191970" stroke="#191970" points="275.0001,-29.6426 271.5,-19.6427 268.0001,-29.6427 275.0001,-29.6426"/>
</g>
<!-- Node10&#45;&gt;Node8 -->
<g id="edge11" class="edge">
<title>Node10&#45;&gt;Node8</title>
<path fill="none" stroke="#191970" d="M300.855,-112.4151C308.6433,-99.4039 319.9418,-75.5337 312.5,-56 308.2725,-44.9034 300.0029,-34.7814 291.9912,-26.8751"/>
<polygon fill="#191970" stroke="#191970" points="293.9607,-23.9323 284.2248,-19.7534 289.2297,-29.0916 293.9607,-23.9323"/>
</g>
<!-- Node10&#45;&gt;Node9 -->
<g id="edge12" class="edge">
<title>Node10&#45;&gt;Node9</title>
<path fill="none" stroke="#191970" d="M290.4937,-112.2455C287.4265,-104.7776 283.0997,-94.2427 279.3503,-85.1137"/>
<polygon fill="#191970" stroke="#191970" points="282.4972,-83.5631 275.4604,-75.6427 276.0221,-86.2226 282.4972,-83.5631"/>
</g>
</g>
</svg>
