<?xml version="1.0" encoding="UTF-8" standalone="no"?>
<!DOCTYPE svg PUBLIC "-//W3C//DTD SVG 1.1//EN"
 "http://www.w3.org/Graphics/SVG/1.1/DTD/svg11.dtd">
<!-- Generated by graphviz version 2.40.1 (20161225.0304)
 -->
<!-- Title: common/include/netman.h Pages: 1 -->
<!--zoomable 162 -->
<svg id="main" version="1.1" xmlns="http://www.w3.org/2000/svg" xmlns:xlink="http://www.w3.org/1999/xlink" xml:space="preserve" onload="init(evt)">
<style type="text/css"><![CDATA[
.edge:hover path { stroke: red; }
.edge:hover polygon { stroke: red; fill: red; }
]]></style>
<script type="text/javascript"><![CDATA[
var edges = document.getElementsByTagName('g');
if (edges && edges.length) {
  for (var i=0;i<edges.length;i++) {
    if (edges[i].id.substr(0,4)=='edge') {
      edges[i].setAttribute('class','edge');
    }
  }
}
]]></script>
        <defs>
                <circle id="rim" cx="0" cy="0" r="7"/>
                <circle id="rim2" cx="0" cy="0" r="3.5"/>
                <g id="zoomPlus">
                        <use xlink:href="#rim" fill="#404040">
                                <set attributeName="fill" to="#808080" begin="zoomplus.mouseover" end="zoomplus.mouseout"/>
                        </use>
                        <path d="M-4,0h8M0,-4v8" fill="none" stroke="white" stroke-width="1.5" pointer-events="none"/>
                </g>
                <g id="zoomMin">
                        <use xlink:href="#rim" fill="#404040">
                                <set attributeName="fill" to="#808080" begin="zoomminus.mouseover" end="zoomminus.mouseout"/>
                        </use>
                        <path d="M-4,0h8" fill="none" stroke="white" stroke-width="1.5" pointer-events="none"/>
                </g>
                <g id="dirArrow">
                        <path fill="none" stroke="white" stroke-width="1.5" d="M0,-3.0v7 M-2.5,-0.5L0,-3.0L2.5,-0.5"/>
                </g>
               <g id="resetDef">
                       <use xlink:href="#rim2" fill="#404040">
                               <set attributeName="fill" to="#808080" begin="reset.mouseover" end="reset.mouseout"/>
                       </use>
               </g>
        </defs>

<script type="text/javascript">
var viewWidth = 809;
var viewHeight = 162;
var sectionId = 'dynsection-1';
</script>
<script xlink:href="svgpan.js"/>
<svg id="graph" class="graph">
<g id="viewport">
<title>common/include/netman.h</title>
<polygon fill="#ffffff" stroke="transparent" points="-4,4 -4,-158 804.5,-158 804.5,4 -4,4"/>
<!-- Node1 -->
<g id="node1" class="node">
<title>Node1</title>
<g id="a_node1"><a xlink:title=" ">
<polygon fill="#bfbfbf" stroke="#000000" points="260,-134.5 260,-153.5 407,-153.5 407,-134.5 260,-134.5"/>
<text text-anchor="middle" x="333.5" y="-141.5" font-family="Helvetica,sans-Serif" font-size="10.00" fill="#000000">common/include/netman.h</text>
</a>
</g>
</g>
<!-- Node2 -->
<g id="node2" class="node">
<title>Node2</title>
<g id="a_node2"><a xlink:href="netman_8c.html" target="_top" xlink:title=" ">
<polygon fill="#ffffff" stroke="#000000" points="0,-.5 0,-30.5 129,-30.5 129,-.5 0,-.5"/>
<text text-anchor="start" x="8" y="-18.5" font-family="Helvetica,sans-Serif" font-size="10.00" fill="#000000">ee/network/netman/src</text>
<text text-anchor="middle" x="64.5" y="-7.5" font-family="Helvetica,sans-Serif" font-size="10.00" fill="#000000">/netman.c</text>
</a>
</g>
</g>
<!-- Node1&#45;&gt;Node2 -->
<g id="edge1" class="edge">
<title>Node1&#45;&gt;Node2</title>
<path fill="none" stroke="#191970" d="M249.7913,-132.9494C216.7513,-126.1491 179.3874,-115.2791 148.5,-98 117.817,-80.8352 90.4453,-49.4938 75.7862,-30.7741"/>
<polygon fill="#191970" stroke="#191970" points="249.4075,-136.4407 259.8943,-134.9317 250.7553,-129.5717 249.4075,-136.4407"/>
</g>
<!-- Node3 -->
<g id="node3" class="node">
<title>Node3</title>
<g id="a_node3"><a xlink:href="rpc__client_8c.html" target="_top" xlink:title=" ">
<polygon fill="#ffffff" stroke="#000000" points="147,-.5 147,-30.5 276,-30.5 276,-.5 147,-.5"/>
<text text-anchor="start" x="155" y="-18.5" font-family="Helvetica,sans-Serif" font-size="10.00" fill="#000000">ee/network/netman/src</text>
<text text-anchor="middle" x="211.5" y="-7.5" font-family="Helvetica,sans-Serif" font-size="10.00" fill="#000000">/rpc_client.c</text>
</a>
</g>
</g>
<!-- Node1&#45;&gt;Node3 -->
<g id="edge2" class="edge">
<title>Node1&#45;&gt;Node3</title>
<path fill="none" stroke="#191970" d="M253.8379,-132.6864C213.5497,-125.1627 170.6393,-113.7426 158.5,-98 141.2434,-75.6211 168.6514,-47.576 190.0555,-30.6227"/>
<polygon fill="#191970" stroke="#191970" points="253.2693,-136.1402 263.7313,-134.4682 254.5101,-129.251 253.2693,-136.1402"/>
</g>
<!-- Node4 -->
<g id="node4" class="node">
<title>Node4</title>
<g id="a_node4"><a xlink:href="rpc__server_8c.html" target="_top" xlink:title=" ">
<polygon fill="#ffffff" stroke="#000000" points="294,-.5 294,-30.5 423,-30.5 423,-.5 294,-.5"/>
<text text-anchor="start" x="302" y="-18.5" font-family="Helvetica,sans-Serif" font-size="10.00" fill="#000000">ee/network/netman/src</text>
<text text-anchor="middle" x="358.5" y="-7.5" font-family="Helvetica,sans-Serif" font-size="10.00" fill="#000000">/rpc_server.c</text>
</a>
</g>
</g>
<!-- Node1&#45;&gt;Node4 -->
<g id="edge3" class="edge">
<title>Node1&#45;&gt;Node4</title>
<path fill="none" stroke="#191970" d="M337.3382,-124.2718C342.3484,-98.5195 351.0107,-53.9952 355.5425,-30.7016"/>
<polygon fill="#191970" stroke="#191970" points="333.8533,-123.8572 335.3791,-134.3416 340.7244,-125.1941 333.8533,-123.8572"/>
</g>
<!-- Node5 -->
<g id="node5" class="node">
<title>Node5</title>
<g id="a_node5"><a xlink:href="samples_2tcpip__basic_2ps2ip_8c.html" target="_top" xlink:title=" ">
<polygon fill="#ffffff" stroke="#000000" points="362,-67.5 362,-97.5 505,-97.5 505,-67.5 362,-67.5"/>
<text text-anchor="start" x="370" y="-85.5" font-family="Helvetica,sans-Serif" font-size="10.00" fill="#000000">ee/network/tcpip/samples</text>
<text text-anchor="middle" x="433.5" y="-74.5" font-family="Helvetica,sans-Serif" font-size="10.00" fill="#000000">/tcpip_basic/ps2ip.c</text>
</a>
</g>
</g>
<!-- Node1&#45;&gt;Node5 -->
<g id="edge4" class="edge">
<title>Node1&#45;&gt;Node5</title>
<path fill="none" stroke="#191970" d="M357.6893,-129.1236C373.2548,-119.5508 393.4183,-107.1502 409.0372,-97.5446"/>
<polygon fill="#191970" stroke="#191970" points="355.8095,-126.1707 349.125,-134.3906 359.4766,-132.1333 355.8095,-126.1707"/>
</g>
<!-- Node6 -->
<g id="node6" class="node">
<title>Node6</title>
<g id="a_node6"><a xlink:href="samples_2tcpip__dhcp_2ps2ip_8c.html" target="_top" xlink:title=" ">
<polygon fill="#ffffff" stroke="#000000" points="523,-67.5 523,-97.5 666,-97.5 666,-67.5 523,-67.5"/>
<text text-anchor="start" x="531" y="-85.5" font-family="Helvetica,sans-Serif" font-size="10.00" fill="#000000">ee/network/tcpip/samples</text>
<text text-anchor="middle" x="594.5" y="-74.5" font-family="Helvetica,sans-Serif" font-size="10.00" fill="#000000">/tcpip_dhcp/ps2ip.c</text>
</a>
</g>
</g>
<!-- Node1&#45;&gt;Node6 -->
<g id="edge5" class="edge">
<title>Node1&#45;&gt;Node6</title>
<path fill="none" stroke="#191970" d="M383.9669,-132.1084C425.8308,-122.2439 485.5952,-108.1615 530.7595,-97.5193"/>
<polygon fill="#191970" stroke="#191970" points="382.9256,-128.7578 373.9949,-134.4581 384.5311,-135.5712 382.9256,-128.7578"/>
</g>
<!-- Node7 -->
<g id="node7" class="node">
<title>Node7</title>
<g id="a_node7"><a xlink:href="src_2ps2ip_8c.html" target="_top" xlink:title=" ">
<polygon fill="#ffffff" stroke="#000000" points="684.5,-67.5 684.5,-97.5 800.5,-97.5 800.5,-67.5 684.5,-67.5"/>
<text text-anchor="start" x="692.5" y="-85.5" font-family="Helvetica,sans-Serif" font-size="10.00" fill="#000000">ee/network/tcpip/src</text>
<text text-anchor="middle" x="742.5" y="-74.5" font-family="Helvetica,sans-Serif" font-size="10.00" fill="#000000">/ps2ip.c</text>
</a>
</g>
</g>
<!-- Node1&#45;&gt;Node7 -->
<g id="edge6" class="edge">
<title>Node1&#45;&gt;Node7</title>
<path fill="none" stroke="#191970" d="M417.2098,-134.9584C486.6617,-126.9262 587.8693,-113.9934 675.5,-98 678.4363,-97.4641 681.438,-96.8851 684.4645,-96.2764"/>
<polygon fill="#191970" stroke="#191970" points="416.7342,-131.49 407.1986,-136.1078 417.5326,-138.4443 416.7342,-131.49"/>
</g>
<!-- Node8 -->
<g id="node8" class="node">
<title>Node8</title>
<g id="a_node8"><a xlink:href="netman__rpc_8h.html" target="_top" xlink:title=" ">
<polygon fill="#ffffff" stroke="#000000" points="167.5,-67.5 167.5,-97.5 305.5,-97.5 305.5,-67.5 167.5,-67.5"/>
<text text-anchor="start" x="175.5" y="-85.5" font-family="Helvetica,sans-Serif" font-size="10.00" fill="#000000">common/include/netman</text>
<text text-anchor="middle" x="236.5" y="-74.5" font-family="Helvetica,sans-Serif" font-size="10.00" fill="#000000">_rpc.h</text>
</a>
</g>
</g>
<!-- Node1&#45;&gt;Node8 -->
<g id="edge7" class="edge">
<title>Node1&#45;&gt;Node8</title>
<path fill="none" stroke="#191970" d="M309.6119,-128.8545C294.5727,-119.3193 275.2376,-107.0605 260.2289,-97.5446"/>
<polygon fill="#191970" stroke="#191970" points="308.024,-131.9919 318.3438,-134.3906 311.7723,-126.08 308.024,-131.9919"/>
</g>
<!-- Node8&#45;&gt;Node2 -->
<g id="edge8" class="edge">
<title>Node8&#45;&gt;Node2</title>
<path fill="none" stroke="#191970" d="M188.3078,-63.7275C161.4477,-53.2645 128.4441,-40.4084 103.2685,-30.6017"/>
<polygon fill="#191970" stroke="#191970" points="187.3114,-67.0954 197.8998,-67.4639 189.8522,-60.5728 187.3114,-67.0954"/>
</g>
<!-- Node8&#45;&gt;Node3 -->
<g id="edge9" class="edge">
<title>Node8&#45;&gt;Node3</title>
<path fill="none" stroke="#191970" d="M227.3217,-57.9021C223.914,-48.7696 220.1513,-38.6854 217.1504,-30.6432"/>
<polygon fill="#191970" stroke="#191970" points="224.052,-59.1512 230.8271,-67.2967 230.6103,-56.704 224.052,-59.1512"/>
</g>
<!-- Node8&#45;&gt;Node4 -->
<g id="edge10" class="edge">
<title>Node8&#45;&gt;Node4</title>
<path fill="none" stroke="#191970" d="M272.6718,-62.6352C291.2688,-52.422 313.5781,-40.1702 330.7901,-30.7177"/>
<polygon fill="#191970" stroke="#191970" points="270.9596,-59.5823 263.8792,-67.4639 274.3292,-65.718 270.9596,-59.5823"/>
</g>
</g>
</svg>
        <g id="navigator" transform="translate(0 0)" fill="#404254">
                <rect fill="#f2f5e9" fill-opacity="0.5" stroke="#606060" stroke-width=".5" x="0" y="0" width="60" height="60"/>
                <use id="zoomplus" xlink:href="#zoomPlus" x="17" y="9" onmousedown="handleZoom(evt,'in')"/>
                <use id="zoomminus" xlink:href="#zoomMin" x="42" y="9" onmousedown="handleZoom(evt,'out')"/>
                <use id="reset" xlink:href="#resetDef" x="30" y="36" onmousedown="handleReset()"/>
                <g id="arrowUp" xlink:href="#dirArrow" transform="translate(30 24)" onmousedown="handlePan(0,-1)">
                  <use xlink:href="#rim" fill="#404040">
                        <set attributeName="fill" to="#808080" begin="arrowUp.mouseover" end="arrowUp.mouseout"/>
                  </use>
                  <path fill="none" stroke="white" stroke-width="1.5" d="M0,-3.0v7 M-2.5,-0.5L0,-3.0L2.5,-0.5"/>
                </g>
                <g id="arrowRight" xlink:href="#dirArrow" transform="rotate(90) translate(36 -43)" onmousedown="handlePan(1,0)">
                  <use xlink:href="#rim" fill="#404040">
                        <set attributeName="fill" to="#808080" begin="arrowRight.mouseover" end="arrowRight.mouseout"/>
                  </use>
                  <path fill="none" stroke="white" stroke-width="1.5" d="M0,-3.0v7 M-2.5,-0.5L0,-3.0L2.5,-0.5"/>
                </g>
                <g id="arrowDown" xlink:href="#dirArrow" transform="rotate(180) translate(-30 -48)" onmousedown="handlePan(0,1)">
                  <use xlink:href="#rim" fill="#404040">
                        <set attributeName="fill" to="#808080" begin="arrowDown.mouseover" end="arrowDown.mouseout"/>
                  </use>
                  <path fill="none" stroke="white" stroke-width="1.5" d="M0,-3.0v7 M-2.5,-0.5L0,-3.0L2.5,-0.5"/>
                </g>
                <g id="arrowLeft" xlink:href="#dirArrow" transform="rotate(270) translate(-36 17)" onmousedown="handlePan(-1,0)">
                  <use xlink:href="#rim" fill="#404040">
                        <set attributeName="fill" to="#808080" begin="arrowLeft.mouseover" end="arrowLeft.mouseout"/>
                  </use>
                  <path fill="none" stroke="white" stroke-width="1.5" d="M0,-3.0v7 M-2.5,-0.5L0,-3.0L2.5,-0.5"/>
                </g>
        </g>
        <svg viewBox="0 0 15 15" width="100%" height="30px" preserveAspectRatio="xMaxYMin meet">
         <g id="arrow_out" transform="scale(0.3 0.3)">
          <a xlink:href="netman_8h__dep__incl_org.svg" target="_base">
           <rect id="button" ry="5" rx="5" y="6" x="6" height="38" width="38"
                fill="#f2f5e9" fill-opacity="0.5" stroke="#606060" stroke-width="1.0"/>
           <path id="arrow"
             d="M 11.500037,31.436501 C 11.940474,20.09759 22.043105,11.32322 32.158766,21.979434 L 37.068811,17.246167 C 37.068811,17.246167 37.088388,32 37.088388,32 L 22.160133,31.978069 C 22.160133,31.978069 26.997745,27.140456 26.997745,27.140456 C 18.528582,18.264221 13.291696,25.230495 11.500037,31.436501 z"
             style="fill:#404040;"/>
          </a>
         </g>
        </svg>
</svg>
