<?xml version="1.0" encoding="UTF-8" standalone="no"?>
<!DOCTYPE svg PUBLIC "-//W3C//DTD SVG 1.1//EN"
 "http://www.w3.org/Graphics/SVG/1.1/DTD/svg11.dtd">
<!-- Generated by graphviz version 2.40.1 (20161225.0304)
 -->
<!-- Title: ee/kernel/src/osd_config.c Pages: 1 -->
<!--zoomable 252 -->
<svg id="main" version="1.1" xmlns="http://www.w3.org/2000/svg" xmlns:xlink="http://www.w3.org/1999/xlink" xml:space="preserve" onload="init(evt)">
<style type="text/css"><![CDATA[
.edge:hover path { stroke: red; }
.edge:hover polygon { stroke: red; fill: red; }
]]></style>
<script type="text/javascript"><![CDATA[
var edges = document.getElementsByTagName('g');
if (edges && edges.length) {
  for (var i=0;i<edges.length;i++) {
    if (edges[i].id.substr(0,4)=='edge') {
      edges[i].setAttribute('class','edge');
    }
  }
}
]]></script>
        <defs>
                <circle id="rim" cx="0" cy="0" r="7"/>
                <circle id="rim2" cx="0" cy="0" r="3.5"/>
                <g id="zoomPlus">
                        <use xlink:href="#rim" fill="#404040">
                                <set attributeName="fill" to="#808080" begin="zoomplus.mouseover" end="zoomplus.mouseout"/>
                        </use>
                        <path d="M-4,0h8M0,-4v8" fill="none" stroke="white" stroke-width="1.5" pointer-events="none"/>
                </g>
                <g id="zoomMin">
                        <use xlink:href="#rim" fill="#404040">
                                <set attributeName="fill" to="#808080" begin="zoomminus.mouseover" end="zoomminus.mouseout"/>
                        </use>
                        <path d="M-4,0h8" fill="none" stroke="white" stroke-width="1.5" pointer-events="none"/>
                </g>
                <g id="dirArrow">
                        <path fill="none" stroke="white" stroke-width="1.5" d="M0,-3.0v7 M-2.5,-0.5L0,-3.0L2.5,-0.5"/>
                </g>
               <g id="resetDef">
                       <use xlink:href="#rim2" fill="#404040">
                               <set attributeName="fill" to="#808080" begin="reset.mouseover" end="reset.mouseout"/>
                       </use>
               </g>
        </defs>

<script type="text/javascript">
var viewWidth = 667;
var viewHeight = 252;
var sectionId = 'dynsection-0';
</script>
<script xlink:href="svgpan.js"/>
<svg id="graph" class="graph">
<g id="viewport">
<title>ee/kernel/src/osd_config.c</title>
<polygon fill="#ffffff" stroke="transparent" points="-4,4 -4,-248 663.0903,-248 663.0903,4 -4,4"/>
<!-- Node1 -->
<g id="node1" class="node">
<title>Node1</title>
<g id="a_node1"><a xlink:title=" ">
<polygon fill="#bfbfbf" stroke="#000000" points="256.0903,-224.5 256.0903,-243.5 399.0903,-243.5 399.0903,-224.5 256.0903,-224.5"/>
<text text-anchor="middle" x="327.5903" y="-231.5" font-family="Helvetica,sans-Serif" font-size="10.00" fill="#000000">ee/kernel/src/osd_config.c</text>
</a>
</g>
</g>
<!-- Node2 -->
<g id="node2" class="node">
<title>Node2</title>
<g id="a_node2"><a xlink:href="tamtypes_8h.html" target="_top" xlink:title=" ">
<polygon fill="#ffffff" stroke="#000000" points="381.5903,-.5 381.5903,-19.5 453.5903,-19.5 453.5903,-.5 381.5903,-.5"/>
<text text-anchor="middle" x="417.5903" y="-7.5" font-family="Helvetica,sans-Serif" font-size="10.00" fill="#000000">tamtypes.h</text>
</a>
</g>
</g>
<!-- Node1&#45;&gt;Node2 -->
<g id="edge1" class="edge">
<title>Node1&#45;&gt;Node2</title>
<path fill="none" stroke="#191970" d="M256.0571,-231.049C144.2165,-223.756 -52.7572,-198.5729 13.5903,-112 57.1612,-55.147 275.0802,-25.2156 371.5327,-14.5758"/>
<polygon fill="#191970" stroke="#191970" points="372.0124,-18.0445 381.578,-13.4892 371.2596,-11.085 372.0124,-18.0445"/>
</g>
<!-- Node3 -->
<g id="node3" class="node">
<title>Node3</title>
<g id="a_node3"><a xlink:href="kernel_8h.html" target="_top" xlink:title=" ">
<polygon fill="#ffffff" stroke="#000000" points="96.5903,-168.5 96.5903,-187.5 152.5903,-187.5 152.5903,-168.5 96.5903,-168.5"/>
<text text-anchor="middle" x="124.5903" y="-175.5" font-family="Helvetica,sans-Serif" font-size="10.00" fill="#000000">kernel.h</text>
</a>
</g>
</g>
<!-- Node1&#45;&gt;Node3 -->
<g id="edge2" class="edge">
<title>Node1&#45;&gt;Node3</title>
<path fill="none" stroke="#191970" d="M292.6934,-224.3733C256.5304,-214.3973 200.1723,-198.8502 162.8234,-188.5471"/>
<polygon fill="#191970" stroke="#191970" points="163.3965,-185.0745 152.8258,-185.7891 161.5349,-191.8224 163.3965,-185.0745"/>
</g>
<!-- Node7 -->
<g id="node7" class="node">
<title>Node7</title>
<g id="a_node7"><a xlink:href="ps2sdkapi_8h.html" target="_top" xlink:title=" ">
<polygon fill="#ffffff" stroke="#000000" points="171.0903,-168.5 171.0903,-187.5 246.0903,-187.5 246.0903,-168.5 171.0903,-168.5"/>
<text text-anchor="middle" x="208.5903" y="-175.5" font-family="Helvetica,sans-Serif" font-size="10.00" fill="#000000">ps2sdkapi.h</text>
</a>
</g>
</g>
<!-- Node1&#45;&gt;Node7 -->
<g id="edge7" class="edge">
<title>Node1&#45;&gt;Node7</title>
<path fill="none" stroke="#191970" d="M307.1335,-224.3733C288.1166,-215.4241 259.5728,-201.9917 238.0928,-191.8835"/>
<polygon fill="#191970" stroke="#191970" points="239.3187,-188.5923 228.7802,-187.5011 236.3381,-194.926 239.3187,-188.5923"/>
</g>
<!-- Node11 -->
<g id="node11" class="node">
<title>Node11</title>
<g id="a_node11"><a xlink:title=" ">
<polygon fill="#ffffff" stroke="#bfbfbf" points="264.5903,-168.5 264.5903,-187.5 314.5903,-187.5 314.5903,-168.5 264.5903,-168.5"/>
<text text-anchor="middle" x="289.5903" y="-175.5" font-family="Helvetica,sans-Serif" font-size="10.00" fill="#000000">stdio.h</text>
</a>
</g>
</g>
<!-- Node1&#45;&gt;Node11 -->
<g id="edge11" class="edge">
<title>Node1&#45;&gt;Node11</title>
<path fill="none" stroke="#191970" d="M320.9712,-224.2455C315.6858,-216.4564 308.1362,-205.3308 301.7666,-195.9439"/>
<polygon fill="#191970" stroke="#191970" points="304.6448,-193.9522 296.1336,-187.6427 298.8525,-197.8827 304.6448,-193.9522"/>
</g>
<!-- Node12 -->
<g id="node12" class="node">
<title>Node12</title>
<g id="a_node12"><a xlink:title=" ">
<polygon fill="#ffffff" stroke="#bfbfbf" points="333.0903,-168.5 333.0903,-187.5 400.0903,-187.5 400.0903,-168.5 333.0903,-168.5"/>
<text text-anchor="middle" x="366.5903" y="-175.5" font-family="Helvetica,sans-Serif" font-size="10.00" fill="#000000">sys/fcntl.h</text>
</a>
</g>
</g>
<!-- Node1&#45;&gt;Node12 -->
<g id="edge12" class="edge">
<title>Node1&#45;&gt;Node12</title>
<path fill="none" stroke="#191970" d="M334.3836,-224.2455C339.8082,-216.4564 347.5564,-205.3308 354.0936,-195.9439"/>
<polygon fill="#191970" stroke="#191970" points="357.032,-197.849 359.8749,-187.6427 351.2878,-193.8485 357.032,-197.849"/>
</g>
<!-- Node13 -->
<g id="node13" class="node">
<title>Node13</title>
<g id="a_node13"><a xlink:title=" ">
<polygon fill="#ffffff" stroke="#bfbfbf" points="418.0903,-168.5 418.0903,-187.5 493.0903,-187.5 493.0903,-168.5 418.0903,-168.5"/>
<text text-anchor="middle" x="455.5903" y="-175.5" font-family="Helvetica,sans-Serif" font-size="10.00" fill="#000000">sys/unistd.h</text>
</a>
</g>
</g>
<!-- Node1&#45;&gt;Node13 -->
<g id="edge13" class="edge">
<title>Node1&#45;&gt;Node13</title>
<path fill="none" stroke="#191970" d="M349.5943,-224.3733C370.2338,-215.3435 401.3061,-201.7494 424.4792,-191.6111"/>
<polygon fill="#191970" stroke="#191970" points="426.1148,-194.7159 433.8735,-187.5011 423.309,-188.3028 426.1148,-194.7159"/>
</g>
<!-- Node14 -->
<g id="node14" class="node">
<title>Node14</title>
<g id="a_node14"><a xlink:title=" ">
<polygon fill="#ffffff" stroke="#bfbfbf" points="511.0903,-168.5 511.0903,-187.5 564.0903,-187.5 564.0903,-168.5 511.0903,-168.5"/>
<text text-anchor="middle" x="537.5903" y="-175.5" font-family="Helvetica,sans-Serif" font-size="10.00" fill="#000000">string.h</text>
</a>
</g>
</g>
<!-- Node1&#45;&gt;Node14 -->
<g id="edge14" class="edge">
<title>Node1&#45;&gt;Node14</title>
<path fill="none" stroke="#191970" d="M364.8625,-224.4476C398.255,-215.835 448.8175,-202.6606 501.0793,-188.3807"/>
<polygon fill="#191970" stroke="#191970" points="502.1342,-191.7207 510.8537,-185.7023 500.2843,-184.9695 502.1342,-191.7207"/>
</g>
<!-- Node15 -->
<g id="node15" class="node">
<title>Node15</title>
<g id="a_node15"><a xlink:href="osd__config_8h.html" target="_top" xlink:title=" ">
<polygon fill="#ffffff" stroke="#000000" points="582.0903,-168.5 582.0903,-187.5 659.0903,-187.5 659.0903,-168.5 582.0903,-168.5"/>
<text text-anchor="middle" x="620.5903" y="-175.5" font-family="Helvetica,sans-Serif" font-size="10.00" fill="#000000">osd_config.h</text>
</a>
</g>
</g>
<!-- Node1&#45;&gt;Node15 -->
<g id="edge15" class="edge">
<title>Node1&#45;&gt;Node15</title>
<path fill="none" stroke="#191970" d="M380.9295,-224.4198C428.5667,-215.7746 500.5158,-202.4994 571.8225,-188.3222"/>
<polygon fill="#191970" stroke="#191970" points="572.7554,-191.7052 581.8774,-186.3162 571.3858,-184.8405 572.7554,-191.7052"/>
</g>
<!-- Node4 -->
<g id="node4" class="node">
<title>Node4</title>
<g id="a_node4"><a xlink:title=" ">
<polygon fill="#ffffff" stroke="#bfbfbf" points="22.5903,-112.5 22.5903,-131.5 78.5903,-131.5 78.5903,-112.5 22.5903,-112.5"/>
<text text-anchor="middle" x="50.5903" y="-119.5" font-family="Helvetica,sans-Serif" font-size="10.00" fill="#000000">stddef.h</text>
</a>
</g>
</g>
<!-- Node3&#45;&gt;Node4 -->
<g id="edge3" class="edge">
<title>Node3&#45;&gt;Node4</title>
<path fill="none" stroke="#191970" d="M111.7005,-168.2455C100.665,-159.8943 84.5611,-147.7076 71.655,-137.9408"/>
<polygon fill="#191970" stroke="#191970" points="73.4186,-134.8862 63.3324,-131.6427 69.1945,-140.4681 73.4186,-134.8862"/>
</g>
<!-- Node5 -->
<g id="node5" class="node">
<title>Node5</title>
<g id="a_node5"><a xlink:title=" ">
<polygon fill="#ffffff" stroke="#bfbfbf" points="96.5903,-112.5 96.5903,-131.5 152.5903,-131.5 152.5903,-112.5 96.5903,-112.5"/>
<text text-anchor="middle" x="124.5903" y="-119.5" font-family="Helvetica,sans-Serif" font-size="10.00" fill="#000000">stdarg.h</text>
</a>
</g>
</g>
<!-- Node3&#45;&gt;Node5 -->
<g id="edge4" class="edge">
<title>Node3&#45;&gt;Node5</title>
<path fill="none" stroke="#191970" d="M124.5903,-168.2455C124.5903,-160.9382 124.5903,-150.6944 124.5903,-141.7046"/>
<polygon fill="#191970" stroke="#191970" points="128.0904,-141.6426 124.5903,-131.6427 121.0904,-141.6427 128.0904,-141.6426"/>
</g>
<!-- Node6 -->
<g id="node6" class="node">
<title>Node6</title>
<g id="a_node6"><a xlink:href="sifdma_8h.html" target="_top" xlink:title=" ">
<polygon fill="#ffffff" stroke="#000000" points="230.0903,-56.5 230.0903,-75.5 289.0903,-75.5 289.0903,-56.5 230.0903,-56.5"/>
<text text-anchor="middle" x="259.5903" y="-63.5" font-family="Helvetica,sans-Serif" font-size="10.00" fill="#000000">sifdma.h</text>
</a>
</g>
</g>
<!-- Node3&#45;&gt;Node6 -->
<g id="edge5" class="edge">
<title>Node3&#45;&gt;Node6</title>
<path fill="none" stroke="#191970" d="M135.0757,-168.3704C149.4006,-155.3085 176.0055,-131.381 199.5903,-112 212.1968,-101.6405 226.7082,-90.4951 238.3018,-81.7699"/>
<polygon fill="#191970" stroke="#191970" points="240.6083,-84.4155 246.5188,-75.6225 236.415,-78.8104 240.6083,-84.4155"/>
</g>
<!-- Node6&#45;&gt;Node2 -->
<g id="edge6" class="edge">
<title>Node6&#45;&gt;Node2</title>
<path fill="none" stroke="#191970" d="M286.7515,-56.3733C312.797,-47.1419 352.3019,-33.1402 381.0882,-22.9375"/>
<polygon fill="#191970" stroke="#191970" points="382.5274,-26.1408 390.7836,-19.5011 380.1888,-19.5429 382.5274,-26.1408"/>
</g>
<!-- Node8 -->
<g id="node8" class="node">
<title>Node8</title>
<g id="a_node8"><a xlink:title=" ">
<polygon fill="#ffffff" stroke="#bfbfbf" points="208.5903,-112.5 208.5903,-131.5 262.5903,-131.5 262.5903,-112.5 208.5903,-112.5"/>
<text text-anchor="middle" x="235.5903" y="-119.5" font-family="Helvetica,sans-Serif" font-size="10.00" fill="#000000">dirent.h</text>
</a>
</g>
</g>
<!-- Node7&#45;&gt;Node8 -->
<g id="edge8" class="edge">
<title>Node7&#45;&gt;Node8</title>
<path fill="none" stroke="#191970" d="M213.2934,-168.2455C216.9327,-160.6973 222.0827,-150.0158 226.5165,-140.8197"/>
<polygon fill="#191970" stroke="#191970" points="229.7508,-142.1704 230.9412,-131.6427 223.4454,-139.1303 229.7508,-142.1704"/>
</g>
<!-- Node9 -->
<g id="node9" class="node">
<title>Node9</title>
<g id="a_node9"><a xlink:title=" ">
<polygon fill="#ffffff" stroke="#bfbfbf" points="281.0903,-112.5 281.0903,-131.5 346.0903,-131.5 346.0903,-112.5 281.0903,-112.5"/>
<text text-anchor="middle" x="313.5903" y="-119.5" font-family="Helvetica,sans-Serif" font-size="10.00" fill="#000000">inttypes.h</text>
</a>
</g>
</g>
<!-- Node7&#45;&gt;Node9 -->
<g id="edge9" class="edge">
<title>Node7&#45;&gt;Node9</title>
<path fill="none" stroke="#191970" d="M226.8799,-168.2455C243.3666,-159.4527 267.8255,-146.4079 286.5669,-136.4125"/>
<polygon fill="#191970" stroke="#191970" points="288.3338,-139.4368 295.5103,-131.6427 285.0397,-133.2604 288.3338,-139.4368"/>
</g>
<!-- Node10 -->
<g id="node10" class="node">
<title>Node10</title>
<g id="a_node10"><a xlink:title=" ">
<polygon fill="#ffffff" stroke="#bfbfbf" points="364.5903,-112.5 364.5903,-131.5 428.5903,-131.5 428.5903,-112.5 364.5903,-112.5"/>
<text text-anchor="middle" x="396.5903" y="-119.5" font-family="Helvetica,sans-Serif" font-size="10.00" fill="#000000">sys/stat.h</text>
</a>
</g>
</g>
<!-- Node7&#45;&gt;Node10 -->
<g id="edge10" class="edge">
<title>Node7&#45;&gt;Node10</title>
<path fill="none" stroke="#191970" d="M240.9087,-168.3733C272.4409,-158.9807 320.5524,-144.6496 354.9404,-134.4064"/>
<polygon fill="#191970" stroke="#191970" points="356.109,-137.7103 364.6937,-131.5011 354.1106,-131.0016 356.109,-137.7103"/>
</g>
<!-- Node15&#45;&gt;Node2 -->
<g id="edge16" class="edge">
<title>Node15&#45;&gt;Node2</title>
<path fill="none" stroke="#191970" d="M609.0945,-168.4862C575.8242,-140.9521 479.1583,-60.9528 437.2983,-26.31"/>
<polygon fill="#191970" stroke="#191970" points="439.4011,-23.5072 429.4657,-19.8279 434.9382,-28.9 439.4011,-23.5072"/>
</g>
<!-- Node16 -->
<g id="node16" class="node">
<title>Node16</title>
<g id="a_node16"><a xlink:href="libcdvd_8h.html" target="_top" xlink:title=" ">
<polygon fill="#ffffff" stroke="#000000" points="579.0903,-112.5 579.0903,-131.5 640.0903,-131.5 640.0903,-112.5 579.0903,-112.5"/>
<text text-anchor="middle" x="609.5903" y="-119.5" font-family="Helvetica,sans-Serif" font-size="10.00" fill="#000000">libcdvd.h</text>
</a>
</g>
</g>
<!-- Node15&#45;&gt;Node16 -->
<g id="edge17" class="edge">
<title>Node15&#45;&gt;Node16</title>
<path fill="none" stroke="#191970" d="M618.6743,-168.2455C617.2389,-160.9382 615.2267,-150.6944 613.4609,-141.7046"/>
<polygon fill="#191970" stroke="#191970" points="616.8463,-140.7805 611.4844,-131.6427 609.9776,-142.1298 616.8463,-140.7805"/>
</g>
<!-- Node17 -->
<g id="node17" class="node">
<title>Node17</title>
<g id="a_node17"><a xlink:href="libcdvd-common_8h.html" target="_top" xlink:title=" ">
<polygon fill="#ffffff" stroke="#000000" points="536.0903,-56.5 536.0903,-75.5 643.0903,-75.5 643.0903,-56.5 536.0903,-56.5"/>
<text text-anchor="middle" x="589.5903" y="-63.5" font-family="Helvetica,sans-Serif" font-size="10.00" fill="#000000">libcdvd&#45;common.h</text>
</a>
</g>
</g>
<!-- Node16&#45;&gt;Node17 -->
<g id="edge18" class="edge">
<title>Node16&#45;&gt;Node17</title>
<path fill="none" stroke="#191970" d="M606.1066,-112.2455C603.4395,-104.7776 599.677,-94.2427 596.4167,-85.1137"/>
<polygon fill="#191970" stroke="#191970" points="599.6937,-83.8829 593.0341,-75.6427 593.1015,-86.2373 599.6937,-83.8829"/>
</g>
<!-- Node17&#45;&gt;Node2 -->
<g id="edge19" class="edge">
<title>Node17&#45;&gt;Node2</title>
<path fill="none" stroke="#191970" d="M560.0225,-56.3733C531.4215,-47.0613 487.9115,-32.8953 456.5085,-22.671"/>
<polygon fill="#191970" stroke="#191970" points="457.3646,-19.269 446.7723,-19.5011 455.1975,-25.9251 457.3646,-19.269"/>
</g>
</g>
</svg>
        <g id="navigator" transform="translate(0 0)" fill="#404254">
                <rect fill="#f2f5e9" fill-opacity="0.5" stroke="#606060" stroke-width=".5" x="0" y="0" width="60" height="60"/>
                <use id="zoomplus" xlink:href="#zoomPlus" x="17" y="9" onmousedown="handleZoom(evt,'in')"/>
                <use id="zoomminus" xlink:href="#zoomMin" x="42" y="9" onmousedown="handleZoom(evt,'out')"/>
                <use id="reset" xlink:href="#resetDef" x="30" y="36" onmousedown="handleReset()"/>
                <g id="arrowUp" xlink:href="#dirArrow" transform="translate(30 24)" onmousedown="handlePan(0,-1)">
                  <use xlink:href="#rim" fill="#404040">
                        <set attributeName="fill" to="#808080" begin="arrowUp.mouseover" end="arrowUp.mouseout"/>
                  </use>
                  <path fill="none" stroke="white" stroke-width="1.5" d="M0,-3.0v7 M-2.5,-0.5L0,-3.0L2.5,-0.5"/>
                </g>
                <g id="arrowRight" xlink:href="#dirArrow" transform="rotate(90) translate(36 -43)" onmousedown="handlePan(1,0)">
                  <use xlink:href="#rim" fill="#404040">
                        <set attributeName="fill" to="#808080" begin="arrowRight.mouseover" end="arrowRight.mouseout"/>
                  </use>
                  <path fill="none" stroke="white" stroke-width="1.5" d="M0,-3.0v7 M-2.5,-0.5L0,-3.0L2.5,-0.5"/>
                </g>
                <g id="arrowDown" xlink:href="#dirArrow" transform="rotate(180) translate(-30 -48)" onmousedown="handlePan(0,1)">
                  <use xlink:href="#rim" fill="#404040">
                        <set attributeName="fill" to="#808080" begin="arrowDown.mouseover" end="arrowDown.mouseout"/>
                  </use>
                  <path fill="none" stroke="white" stroke-width="1.5" d="M0,-3.0v7 M-2.5,-0.5L0,-3.0L2.5,-0.5"/>
                </g>
                <g id="arrowLeft" xlink:href="#dirArrow" transform="rotate(270) translate(-36 17)" onmousedown="handlePan(-1,0)">
                  <use xlink:href="#rim" fill="#404040">
                        <set attributeName="fill" to="#808080" begin="arrowLeft.mouseover" end="arrowLeft.mouseout"/>
                  </use>
                  <path fill="none" stroke="white" stroke-width="1.5" d="M0,-3.0v7 M-2.5,-0.5L0,-3.0L2.5,-0.5"/>
                </g>
        </g>
        <svg viewBox="0 0 15 15" width="100%" height="30px" preserveAspectRatio="xMaxYMin meet">
         <g id="arrow_out" transform="scale(0.3 0.3)">
          <a xlink:href="osd__config_8c__incl_org.svg" target="_base">
           <rect id="button" ry="5" rx="5" y="6" x="6" height="38" width="38"
                fill="#f2f5e9" fill-opacity="0.5" stroke="#606060" stroke-width="1.0"/>
           <path id="arrow"
             d="M 11.500037,31.436501 C 11.940474,20.09759 22.043105,11.32322 32.158766,21.979434 L 37.068811,17.246167 C 37.068811,17.246167 37.088388,32 37.088388,32 L 22.160133,31.978069 C 22.160133,31.978069 26.997745,27.140456 26.997745,27.140456 C 18.528582,18.264221 13.291696,25.230495 11.500037,31.436501 z"
             style="fill:#404040;"/>
          </a>
         </g>
        </svg>
</svg>
