<?xml version="1.0" encoding="UTF-8" standalone="no"?>
<!DOCTYPE svg PUBLIC "-//W3C//DTD SVG 1.1//EN"
 "http://www.w3.org/Graphics/SVG/1.1/DTD/svg11.dtd">
<!-- Generated by graphviz version 2.40.1 (20161225.0304)
 -->
<!-- Title: ee/kernel/include/osd_config.h Pages: 1 -->
<svg width="1381pt" height="106pt"
 viewBox="0.00 0.00 1380.50 106.00" xmlns="http://www.w3.org/2000/svg" xmlns:xlink="http://www.w3.org/1999/xlink">
<g id="graph0" class="graph" transform="scale(1 1) rotate(0) translate(4 102)">
<title>ee/kernel/include/osd_config.h</title>
<polygon fill="#ffffff" stroke="transparent" points="-4,4 -4,-102 1376.5,-102 1376.5,4 -4,4"/>
<!-- Node1 -->
<g id="node1" class="node">
<title>Node1</title>
<g id="a_node1"><a xlink:title=" ">
<polygon fill="#bfbfbf" stroke="#000000" points="615,-67.5 615,-97.5 736,-97.5 736,-67.5 615,-67.5"/>
<text text-anchor="start" x="623" y="-85.5" font-family="Helvetica,sans-Serif" font-size="10.00" fill="#000000">ee/kernel/include/osd</text>
<text text-anchor="middle" x="675.5" y="-74.5" font-family="Helvetica,sans-Serif" font-size="10.00" fill="#000000">_config.h</text>
</a>
</g>
</g>
<!-- Node2 -->
<g id="node2" class="node">
<title>Node2</title>
<g id="a_node2"><a xlink:href="scr__printf_8c.html" target="_top" xlink:title=" ">
<polygon fill="#ffffff" stroke="#000000" points="0,-6 0,-25 135,-25 135,-6 0,-6"/>
<text text-anchor="middle" x="67.5" y="-13" font-family="Helvetica,sans-Serif" font-size="10.00" fill="#000000">ee/debug/src/scr_printf.c</text>
</a>
</g>
</g>
<!-- Node1&#45;&gt;Node2 -->
<g id="edge1" class="edge">
<title>Node1&#45;&gt;Node2</title>
<path fill="none" stroke="#191970" d="M604.4017,-77.9938C502.1026,-70.9719 307.6318,-55.6124 143.5,-31 132.7131,-29.3824 121.1437,-27.2368 110.3669,-25.0591"/>
<polygon fill="#191970" stroke="#191970" points="604.3961,-81.5014 614.6105,-78.6878 604.8709,-74.5175 604.3961,-81.5014"/>
</g>
<!-- Node3 -->
<g id="node3" class="node">
<title>Node3</title>
<g id="a_node3"><a xlink:href="graph__mode_8c.html" target="_top" xlink:title=" ">
<polygon fill="#ffffff" stroke="#000000" points="153,-.5 153,-30.5 260,-30.5 260,-.5 153,-.5"/>
<text text-anchor="start" x="161" y="-18.5" font-family="Helvetica,sans-Serif" font-size="10.00" fill="#000000">ee/graph/src/graph</text>
<text text-anchor="middle" x="206.5" y="-7.5" font-family="Helvetica,sans-Serif" font-size="10.00" fill="#000000">_mode.c</text>
</a>
</g>
</g>
<!-- Node1&#45;&gt;Node3 -->
<g id="edge2" class="edge">
<title>Node1&#45;&gt;Node3</title>
<path fill="none" stroke="#191970" d="M604.8565,-76.0286C523.5577,-68.006 386.2304,-52.6887 269.5,-31 266.3992,-30.4239 263.2231,-29.7883 260.0252,-29.1133"/>
<polygon fill="#191970" stroke="#191970" points="604.6813,-79.5281 614.9745,-77.0179 605.3626,-72.5613 604.6813,-79.5281"/>
</g>
<!-- Node4 -->
<g id="node4" class="node">
<title>Node4</title>
<g id="a_node4"><a xlink:href="libosd_8c.html" target="_top" xlink:title=" ">
<polygon fill="#ffffff" stroke="#000000" points="278.5,-6 278.5,-25 398.5,-25 398.5,-6 278.5,-6"/>
<text text-anchor="middle" x="338.5" y="-13" font-family="Helvetica,sans-Serif" font-size="10.00" fill="#000000">ee/kernel/src/libosd.c</text>
</a>
</g>
</g>
<!-- Node1&#45;&gt;Node4 -->
<g id="edge3" class="edge">
<title>Node1&#45;&gt;Node4</title>
<path fill="none" stroke="#191970" d="M605.1518,-69.6005C551.0267,-59.526 474.417,-44.942 407.5,-31 398.6055,-29.1468 389.0877,-27.0699 380.0501,-25.0534"/>
<polygon fill="#191970" stroke="#191970" points="604.518,-73.0425 614.9891,-71.4279 605.7966,-66.1603 604.518,-73.0425"/>
</g>
<!-- Node5 -->
<g id="node5" class="node">
<title>Node5</title>
<g id="a_node5"><a xlink:href="libosd__common_8c.html" target="_top" xlink:title=" ">
<polygon fill="#ffffff" stroke="#000000" points="416.5,-.5 416.5,-30.5 528.5,-30.5 528.5,-.5 416.5,-.5"/>
<text text-anchor="start" x="424.5" y="-18.5" font-family="Helvetica,sans-Serif" font-size="10.00" fill="#000000">ee/kernel/src/libosd</text>
<text text-anchor="middle" x="472.5" y="-7.5" font-family="Helvetica,sans-Serif" font-size="10.00" fill="#000000">_common.c</text>
</a>
</g>
</g>
<!-- Node1&#45;&gt;Node5 -->
<g id="edge4" class="edge">
<title>Node1&#45;&gt;Node5</title>
<path fill="none" stroke="#191970" d="M620.2837,-64.2759C588.2904,-53.7165 548.4901,-40.5805 518.2559,-30.6017"/>
<polygon fill="#191970" stroke="#191970" points="619.3497,-67.6533 629.9428,-67.4639 621.5437,-61.006 619.3497,-67.6533"/>
</g>
<!-- Node6 -->
<g id="node6" class="node">
<title>Node6</title>
<g id="a_node6"><a xlink:href="libosd__full_8c.html" target="_top" xlink:title=" ">
<polygon fill="#ffffff" stroke="#000000" points="546.5,-.5 546.5,-30.5 658.5,-30.5 658.5,-.5 546.5,-.5"/>
<text text-anchor="start" x="554.5" y="-18.5" font-family="Helvetica,sans-Serif" font-size="10.00" fill="#000000">ee/kernel/src/libosd</text>
<text text-anchor="middle" x="602.5" y="-7.5" font-family="Helvetica,sans-Serif" font-size="10.00" fill="#000000">_full.c</text>
</a>
</g>
</g>
<!-- Node1&#45;&gt;Node6 -->
<g id="edge5" class="edge">
<title>Node1&#45;&gt;Node6</title>
<path fill="none" stroke="#191970" d="M651.526,-60.4965C640.8733,-50.7193 628.6007,-39.4554 618.9993,-30.6432"/>
<polygon fill="#191970" stroke="#191970" points="649.2011,-63.1134 658.9352,-67.2967 653.9344,-57.9562 649.2011,-63.1134"/>
</g>
<!-- Node7 -->
<g id="node7" class="node">
<title>Node7</title>
<g id="a_node7"><a xlink:href="osd__config_8c.html" target="_top" xlink:title=" ">
<polygon fill="#ffffff" stroke="#000000" points="677,-6 677,-25 820,-25 820,-6 677,-6"/>
<text text-anchor="middle" x="748.5" y="-13" font-family="Helvetica,sans-Serif" font-size="10.00" fill="#000000">ee/kernel/src/osd_config.c</text>
</a>
</g>
</g>
<!-- Node1&#45;&gt;Node7 -->
<g id="edge6" class="edge">
<title>Node1&#45;&gt;Node7</title>
<path fill="none" stroke="#191970" d="M699.7935,-60.2032C712.8026,-48.2634 728.1497,-34.1776 738.0894,-25.055"/>
<polygon fill="#191970" stroke="#191970" points="697.0656,-57.9562 692.0648,-67.2967 701.7989,-63.1134 697.0656,-57.9562"/>
</g>
<!-- Node8 -->
<g id="node8" class="node">
<title>Node8</title>
<g id="a_node8"><a xlink:href="osd_8c.html" target="_top" xlink:title=" ">
<polygon fill="#ffffff" stroke="#000000" points="838.5,-.5 838.5,-30.5 952.5,-30.5 952.5,-.5 838.5,-.5"/>
<text text-anchor="start" x="846.5" y="-18.5" font-family="Helvetica,sans-Serif" font-size="10.00" fill="#000000">ee/kernel/src/osdsrc</text>
<text text-anchor="middle" x="895.5" y="-7.5" font-family="Helvetica,sans-Serif" font-size="10.00" fill="#000000">/src/osd.c</text>
</a>
</g>
</g>
<!-- Node1&#45;&gt;Node8 -->
<g id="edge7" class="edge">
<title>Node1&#45;&gt;Node8</title>
<path fill="none" stroke="#191970" d="M734.4455,-64.5484C769.2685,-53.9432 812.8637,-40.6665 845.9124,-30.6017"/>
<polygon fill="#191970" stroke="#191970" points="733.4188,-61.2023 724.8723,-67.4639 735.4582,-67.8987 733.4188,-61.2023"/>
</g>
<!-- Node9 -->
<g id="node9" class="node">
<title>Node9</title>
<g id="a_node9"><a xlink:href="osdsrc_8c.html" target="_top" xlink:title=" ">
<polygon fill="#ffffff" stroke="#000000" points="970.5,-.5 970.5,-30.5 1084.5,-30.5 1084.5,-.5 970.5,-.5"/>
<text text-anchor="start" x="978.5" y="-18.5" font-family="Helvetica,sans-Serif" font-size="10.00" fill="#000000">ee/kernel/src/osdsrc</text>
<text text-anchor="middle" x="1027.5" y="-7.5" font-family="Helvetica,sans-Serif" font-size="10.00" fill="#000000">/src/osdsrc.c</text>
</a>
</g>
</g>
<!-- Node1&#45;&gt;Node9 -->
<g id="edge8" class="edge">
<title>Node1&#45;&gt;Node9</title>
<path fill="none" stroke="#191970" d="M746.3703,-70.8034C804.3672,-60.9759 888.45,-46.144 961.5,-31 964.3813,-30.4027 967.3292,-29.7742 970.3033,-29.1264"/>
<polygon fill="#191970" stroke="#191970" points="745.4914,-67.4022 736.2138,-72.5184 746.657,-74.3045 745.4914,-67.4022"/>
</g>
<!-- Node10 -->
<g id="node10" class="node">
<title>Node10</title>
<g id="a_node10"><a xlink:href="timezone_8c.html" target="_top" xlink:title=" ">
<polygon fill="#ffffff" stroke="#000000" points="1103,-6 1103,-25 1226,-25 1226,-6 1103,-6"/>
<text text-anchor="middle" x="1164.5" y="-13" font-family="Helvetica,sans-Serif" font-size="10.00" fill="#000000">ee/libc/src/timezone.c</text>
</a>
</g>
</g>
<!-- Node1&#45;&gt;Node10 -->
<g id="edge9" class="edge">
<title>Node1&#45;&gt;Node10</title>
<path fill="none" stroke="#191970" d="M746.4466,-75.7762C829.8361,-67.4076 972.2386,-51.6609 1093.5,-31 1103.45,-29.3047 1114.1148,-27.1553 1124.076,-25.0011"/>
<polygon fill="#191970" stroke="#191970" points="745.9298,-72.3103 736.3262,-76.7847 746.6239,-79.2758 745.9298,-72.3103"/>
</g>
<!-- Node11 -->
<g id="node11" class="node">
<title>Node11</title>
<g id="a_node11"><a xlink:href="scmd_8c.html" target="_top" xlink:title=" ">
<polygon fill="#ffffff" stroke="#000000" points="1244.5,-6 1244.5,-25 1372.5,-25 1372.5,-6 1244.5,-6"/>
<text text-anchor="middle" x="1308.5" y="-13" font-family="Helvetica,sans-Serif" font-size="10.00" fill="#000000">ee/rpc/cdvd/src/scmd.c</text>
</a>
</g>
</g>
<!-- Node1&#45;&gt;Node11 -->
<g id="edge10" class="edge">
<title>Node1&#45;&gt;Node11</title>
<path fill="none" stroke="#191970" d="M746.2679,-78.6664C852.8274,-72.2909 1060.631,-57.5119 1235.5,-31 1246.004,-29.4075 1257.2687,-27.2449 1267.729,-25.0408"/>
<polygon fill="#191970" stroke="#191970" points="746.0521,-75.1729 736.2762,-79.2572 746.4654,-82.1607 746.0521,-75.1729"/>
</g>
</g>
</svg>
