<?xml version="1.0" encoding="UTF-8" standalone="no"?>
<!DOCTYPE svg PUBLIC "-//W3C//DTD SVG 1.1//EN"
 "http://www.w3.org/Graphics/SVG/1.1/DTD/svg11.dtd">
<!-- Generated by graphviz version 2.40.1 (20161225.0304)
 -->
<!-- Title: ee/kernel/src/osdsrc/src/osdsrc.c Pages: 1 -->
<svg width="318pt" height="263pt"
 viewBox="0.00 0.00 317.50 263.00" xmlns="http://www.w3.org/2000/svg" xmlns:xlink="http://www.w3.org/1999/xlink">
<g id="graph0" class="graph" transform="scale(1 1) rotate(0) translate(4 259)">
<title>ee/kernel/src/osdsrc/src/osdsrc.c</title>
<polygon fill="#ffffff" stroke="transparent" points="-4,4 -4,-259 313.5,-259 313.5,4 -4,4"/>
<!-- Node1 -->
<g id="node1" class="node">
<title>Node1</title>
<g id="a_node1"><a xlink:title=" ">
<polygon fill="#bfbfbf" stroke="#000000" points="107,-224.5 107,-254.5 221,-254.5 221,-224.5 107,-224.5"/>
<text text-anchor="start" x="115" y="-242.5" font-family="Helvetica,sans-Serif" font-size="10.00" fill="#000000">ee/kernel/src/osdsrc</text>
<text text-anchor="middle" x="164" y="-231.5" font-family="Helvetica,sans-Serif" font-size="10.00" fill="#000000">/src/osdsrc.c</text>
</a>
</g>
</g>
<!-- Node2 -->
<g id="node2" class="node">
<title>Node2</title>
<g id="a_node2"><a xlink:href="syscallnr_8h.html" target="_top" xlink:title=" ">
<polygon fill="#ffffff" stroke="#000000" points="0,-168.5 0,-187.5 68,-187.5 68,-168.5 0,-168.5"/>
<text text-anchor="middle" x="34" y="-175.5" font-family="Helvetica,sans-Serif" font-size="10.00" fill="#000000">syscallnr.h</text>
</a>
</g>
</g>
<!-- Node1&#45;&gt;Node2 -->
<g id="edge1" class="edge">
<title>Node1&#45;&gt;Node2</title>
<path fill="none" stroke="#191970" d="M132.1984,-224.4554C111.1735,-214.509 83.8141,-201.5659 63.3157,-191.8686"/>
<polygon fill="#191970" stroke="#191970" points="64.6816,-188.6429 54.1454,-187.5303 61.6881,-194.9706 64.6816,-188.6429"/>
</g>
<!-- Node3 -->
<g id="node3" class="node">
<title>Node3</title>
<g id="a_node3"><a xlink:href="osd__config_8h.html" target="_top" xlink:title=" ">
<polygon fill="#ffffff" stroke="#000000" points="86.5,-168.5 86.5,-187.5 163.5,-187.5 163.5,-168.5 86.5,-168.5"/>
<text text-anchor="middle" x="125" y="-175.5" font-family="Helvetica,sans-Serif" font-size="10.00" fill="#000000">osd_config.h</text>
</a>
</g>
</g>
<!-- Node1&#45;&gt;Node3 -->
<g id="edge2" class="edge">
<title>Node1&#45;&gt;Node3</title>
<path fill="none" stroke="#191970" d="M154.3595,-224.2977C149.0023,-215.8498 142.2978,-205.2773 136.6487,-196.369"/>
<polygon fill="#191970" stroke="#191970" points="139.5556,-194.4176 131.2444,-187.8469 133.6441,-198.1664 139.5556,-194.4176"/>
</g>
<!-- Node7 -->
<g id="node7" class="node">
<title>Node7</title>
<g id="a_node7"><a xlink:href="osd_8h.html" target="_top" xlink:title=" ">
<polygon fill="#ffffff" stroke="#000000" points="181.5,-168.5 181.5,-187.5 224.5,-187.5 224.5,-168.5 181.5,-168.5"/>
<text text-anchor="middle" x="203" y="-175.5" font-family="Helvetica,sans-Serif" font-size="10.00" fill="#000000">osd.h</text>
</a>
</g>
</g>
<!-- Node1&#45;&gt;Node7 -->
<g id="edge7" class="edge">
<title>Node1&#45;&gt;Node7</title>
<path fill="none" stroke="#191970" d="M173.6405,-224.2977C178.9977,-215.8498 185.7022,-205.2773 191.3513,-196.369"/>
<polygon fill="#191970" stroke="#191970" points="194.3559,-198.1664 196.7556,-187.8469 188.4444,-194.4176 194.3559,-198.1664"/>
</g>
<!-- Node8 -->
<g id="node8" class="node">
<title>Node8</title>
<g id="a_node8"><a xlink:href="ExecPS2_8h.html" target="_top" xlink:title=" ">
<polygon fill="#ffffff" stroke="#000000" points="242.5,-168.5 242.5,-187.5 309.5,-187.5 309.5,-168.5 242.5,-168.5"/>
<text text-anchor="middle" x="276" y="-175.5" font-family="Helvetica,sans-Serif" font-size="10.00" fill="#000000">ExecPS2.h</text>
</a>
</g>
</g>
<!-- Node1&#45;&gt;Node8 -->
<g id="edge8" class="edge">
<title>Node1&#45;&gt;Node8</title>
<path fill="none" stroke="#191970" d="M191.3983,-224.4554C209.1022,-214.734 232.0195,-202.15 249.5358,-192.5317"/>
<polygon fill="#191970" stroke="#191970" points="251.5631,-195.4115 258.644,-187.5303 248.1939,-189.2756 251.5631,-195.4115"/>
</g>
<!-- Node4 -->
<g id="node4" class="node">
<title>Node4</title>
<g id="a_node4"><a xlink:href="tamtypes_8h.html" target="_top" xlink:title=" ">
<polygon fill="#ffffff" stroke="#000000" points="95,-.5 95,-19.5 167,-19.5 167,-.5 95,-.5"/>
<text text-anchor="middle" x="131" y="-7.5" font-family="Helvetica,sans-Serif" font-size="10.00" fill="#000000">tamtypes.h</text>
</a>
</g>
</g>
<!-- Node3&#45;&gt;Node4 -->
<g id="edge3" class="edge">
<title>Node3&#45;&gt;Node4</title>
<path fill="none" stroke="#191970" d="M121.6564,-168.4087C114.9046,-147.6898 101.0212,-97.2883 110,-56 112.0425,-46.6079 116.1789,-36.8357 120.2447,-28.7264"/>
<polygon fill="#191970" stroke="#191970" points="123.3909,-30.2651 125.0235,-19.7968 117.2191,-26.9622 123.3909,-30.2651"/>
</g>
<!-- Node5 -->
<g id="node5" class="node">
<title>Node5</title>
<g id="a_node5"><a xlink:href="libcdvd_8h.html" target="_top" xlink:title=" ">
<polygon fill="#ffffff" stroke="#000000" points="129.5,-112.5 129.5,-131.5 190.5,-131.5 190.5,-112.5 129.5,-112.5"/>
<text text-anchor="middle" x="160" y="-119.5" font-family="Helvetica,sans-Serif" font-size="10.00" fill="#000000">libcdvd.h</text>
</a>
</g>
</g>
<!-- Node3&#45;&gt;Node5 -->
<g id="edge4" class="edge">
<title>Node3&#45;&gt;Node5</title>
<path fill="none" stroke="#191970" d="M131.0965,-168.2455C135.9145,-160.5367 142.7751,-149.5598 148.6032,-140.2348"/>
<polygon fill="#191970" stroke="#191970" points="151.6413,-141.9777 153.9733,-131.6427 145.7053,-138.2677 151.6413,-141.9777"/>
</g>
<!-- Node6 -->
<g id="node6" class="node">
<title>Node6</title>
<g id="a_node6"><a xlink:href="libcdvd-common_8h.html" target="_top" xlink:title=" ">
<polygon fill="#ffffff" stroke="#000000" points="118.5,-56.5 118.5,-75.5 225.5,-75.5 225.5,-56.5 118.5,-56.5"/>
<text text-anchor="middle" x="172" y="-63.5" font-family="Helvetica,sans-Serif" font-size="10.00" fill="#000000">libcdvd&#45;common.h</text>
</a>
</g>
</g>
<!-- Node5&#45;&gt;Node6 -->
<g id="edge5" class="edge">
<title>Node5&#45;&gt;Node6</title>
<path fill="none" stroke="#191970" d="M162.0902,-112.2455C163.6561,-104.9382 165.8512,-94.6944 167.7776,-85.7046"/>
<polygon fill="#191970" stroke="#191970" points="171.2607,-86.1541 169.9337,-75.6427 164.416,-84.6873 171.2607,-86.1541"/>
</g>
<!-- Node6&#45;&gt;Node4 -->
<g id="edge6" class="edge">
<title>Node6&#45;&gt;Node4</title>
<path fill="none" stroke="#191970" d="M164.8583,-56.2455C159.1556,-48.4564 151.01,-37.3308 144.1375,-27.9439"/>
<polygon fill="#191970" stroke="#191970" points="146.7913,-25.6437 138.0598,-19.6427 141.1432,-29.7789 146.7913,-25.6437"/>
</g>
</g>
</svg>
