<?xml version="1.0" encoding="UTF-8" standalone="no"?>
<!DOCTYPE svg PUBLIC "-//W3C//DTD SVG 1.1//EN"
 "http://www.w3.org/Graphics/SVG/1.1/DTD/svg11.dtd">
<!-- Generated by graphviz version 2.40.1 (20161225.0304)
 -->
<!-- Title: ee/packet/include/packet.h Pages: 1 -->
<svg width="1053pt" height="95pt"
 viewBox="0.00 0.00 1053.00 95.00" xmlns="http://www.w3.org/2000/svg" xmlns:xlink="http://www.w3.org/1999/xlink">
<g id="graph0" class="graph" transform="scale(1 1) rotate(0) translate(4 91)">
<title>ee/packet/include/packet.h</title>
<polygon fill="#ffffff" stroke="transparent" points="-4,4 -4,-91 1049,-91 1049,4 -4,4"/>
<!-- Node1 -->
<g id="node1" class="node">
<title>Node1</title>
<g id="a_node1"><a xlink:title=" ">
<polygon fill="#bfbfbf" stroke="#000000" points="441,-67.5 441,-86.5 589,-86.5 589,-67.5 441,-67.5"/>
<text text-anchor="middle" x="515" y="-74.5" font-family="Helvetica,sans-Serif" font-size="10.00" fill="#000000">ee/packet/include/packet.h</text>
</a>
</g>
</g>
<!-- Node2 -->
<g id="node2" class="node">
<title>Node2</title>
<g id="a_node2"><a xlink:href="cube_8c.html" target="_top" xlink:title=" ">
<polygon fill="#ffffff" stroke="#000000" points="0,-.5 0,-30.5 126,-30.5 126,-.5 0,-.5"/>
<text text-anchor="start" x="8" y="-18.5" font-family="Helvetica,sans-Serif" font-size="10.00" fill="#000000">ee/draw/samples/cube</text>
<text text-anchor="middle" x="63" y="-7.5" font-family="Helvetica,sans-Serif" font-size="10.00" fill="#000000">/cube.c</text>
</a>
</g>
</g>
<!-- Node1&#45;&gt;Node2 -->
<g id="edge1" class="edge">
<title>Node1&#45;&gt;Node2</title>
<path fill="none" stroke="#191970" d="M430.6449,-69.0263C353.4286,-61.1973 236.1384,-47.9713 135,-31 132.0997,-30.5133 129.1393,-29.989 126.1532,-29.4377"/>
<polygon fill="#191970" stroke="#191970" points="430.4978,-72.5291 440.798,-70.048 431.1987,-65.5643 430.4978,-72.5291"/>
</g>
<!-- Node3 -->
<g id="node3" class="node">
<title>Node3</title>
<g id="a_node3"><a xlink:href="teapot_8c.html" target="_top" xlink:title=" ">
<polygon fill="#ffffff" stroke="#000000" points="144,-.5 144,-30.5 278,-30.5 278,-.5 144,-.5"/>
<text text-anchor="start" x="152" y="-18.5" font-family="Helvetica,sans-Serif" font-size="10.00" fill="#000000">ee/draw/samples/teapot</text>
<text text-anchor="middle" x="211" y="-7.5" font-family="Helvetica,sans-Serif" font-size="10.00" fill="#000000">/teapot.c</text>
</a>
</g>
</g>
<!-- Node1&#45;&gt;Node3 -->
<g id="edge2" class="edge">
<title>Node1&#45;&gt;Node3</title>
<path fill="none" stroke="#191970" d="M457.5849,-65.451C411.4762,-56.168 345.0696,-42.7795 287,-31 284.0966,-30.411 281.1309,-29.8088 278.1352,-29.2"/>
<polygon fill="#191970" stroke="#191970" points="456.9014,-68.8836 467.3955,-67.4259 458.2828,-62.0212 456.9014,-68.8836"/>
</g>
<!-- Node4 -->
<g id="node4" class="node">
<title>Node4</title>
<g id="a_node4"><a xlink:href="draw_2samples_2texture_2texture_8c.html" target="_top" xlink:title=" ">
<polygon fill="#ffffff" stroke="#000000" points="296,-.5 296,-30.5 434,-30.5 434,-.5 296,-.5"/>
<text text-anchor="start" x="304" y="-18.5" font-family="Helvetica,sans-Serif" font-size="10.00" fill="#000000">ee/draw/samples/texture</text>
<text text-anchor="middle" x="365" y="-7.5" font-family="Helvetica,sans-Serif" font-size="10.00" fill="#000000">/texture.c</text>
</a>
</g>
</g>
<!-- Node1&#45;&gt;Node4 -->
<g id="edge3" class="edge">
<title>Node1&#45;&gt;Node4</title>
<path fill="none" stroke="#191970" d="M482.26,-63.5766C458.4952,-53.833 426.3268,-40.644 401.6941,-30.5446"/>
<polygon fill="#191970" stroke="#191970" points="480.9822,-66.8354 491.5625,-67.3906 483.6377,-60.3586 480.9822,-66.8354"/>
</g>
<!-- Node5 -->
<g id="node5" class="node">
<title>Node5</title>
<g id="a_node5"><a xlink:href="font_2samples_2font_8c.html" target="_top" xlink:title=" ">
<polygon fill="#ffffff" stroke="#000000" points="452,-6 452,-25 578,-25 578,-6 452,-6"/>
<text text-anchor="middle" x="515" y="-13" font-family="Helvetica,sans-Serif" font-size="10.00" fill="#000000">ee/font/samples/font.c</text>
</a>
</g>
</g>
<!-- Node1&#45;&gt;Node5 -->
<g id="edge4" class="edge">
<title>Node1&#45;&gt;Node5</title>
<path fill="none" stroke="#191970" d="M515,-57.2462C515,-46.5519 515,-33.814 515,-25.2449"/>
<polygon fill="#191970" stroke="#191970" points="511.5001,-57.3906 515,-67.3906 518.5001,-57.3907 511.5001,-57.3906"/>
</g>
<!-- Node6 -->
<g id="node6" class="node">
<title>Node6</title>
<g id="a_node6"><a xlink:href="samples_2graph_8c.html" target="_top" xlink:title=" ">
<polygon fill="#ffffff" stroke="#000000" points="596.5,-6 596.5,-25 739.5,-25 739.5,-6 596.5,-6"/>
<text text-anchor="middle" x="668" y="-13" font-family="Helvetica,sans-Serif" font-size="10.00" fill="#000000">ee/graph/samples/graph.c</text>
</a>
</g>
</g>
<!-- Node1&#45;&gt;Node6 -->
<g id="edge5" class="edge">
<title>Node1&#45;&gt;Node6</title>
<path fill="none" stroke="#191970" d="M548.2179,-63.6477C577.1894,-52.0023 618.5047,-35.3952 644.2616,-25.0419"/>
<polygon fill="#191970" stroke="#191970" points="546.8794,-60.4135 538.9063,-67.3906 549.4901,-66.9084 546.8794,-60.4135"/>
</g>
<!-- Node7 -->
<g id="node7" class="node">
<title>Node7</title>
<g id="a_node7"><a xlink:href="mpeg_8c.html" target="_top" xlink:title=" ">
<polygon fill="#ffffff" stroke="#000000" points="757.5,-6 757.5,-25 900.5,-25 900.5,-6 757.5,-6"/>
<text text-anchor="middle" x="829" y="-13" font-family="Helvetica,sans-Serif" font-size="10.00" fill="#000000">ee/mpeg/samples/mpeg.c</text>
</a>
</g>
</g>
<!-- Node1&#45;&gt;Node7 -->
<g id="edge6" class="edge">
<title>Node1&#45;&gt;Node7</title>
<path fill="none" stroke="#191970" d="M573.7413,-65.4949C633.4012,-53.81 724.7151,-35.9252 780.4261,-25.0137"/>
<polygon fill="#191970" stroke="#191970" points="572.8588,-62.1012 563.718,-67.4581 574.2043,-68.9707 572.8588,-62.1012"/>
</g>
<!-- Node8 -->
<g id="node8" class="node">
<title>Node8</title>
<g id="a_node8"><a xlink:href="packet_8c.html" target="_top" xlink:title=" ">
<polygon fill="#ffffff" stroke="#000000" points="919,-6 919,-25 1045,-25 1045,-6 919,-6"/>
<text text-anchor="middle" x="982" y="-13" font-family="Helvetica,sans-Serif" font-size="10.00" fill="#000000">ee/packet/src/packet.c</text>
</a>
</g>
</g>
<!-- Node1&#45;&gt;Node8 -->
<g id="edge7" class="edge">
<title>Node1&#45;&gt;Node8</title>
<path fill="none" stroke="#191970" d="M599.235,-69.5566C679.4308,-61.9121 803.3653,-48.6452 910,-31 920.0919,-29.3301 930.9076,-27.1902 941.0092,-25.0371"/>
<polygon fill="#191970" stroke="#191970" points="598.8159,-66.0806 589.1899,-70.5066 599.475,-73.0495 598.8159,-66.0806"/>
</g>
</g>
</svg>
