<?xml version="1.0" encoding="UTF-8" standalone="no"?>
<!DOCTYPE svg PUBLIC "-//W3C//DTD SVG 1.1//EN"
 "http://www.w3.org/Graphics/SVG/1.1/DTD/svg11.dtd">
<!-- Generated by graphviz version 2.40.1 (20161225.0304)
 -->
<!-- Title: ee/packet/include/packet.h Pages: 1 -->
<!--zoomable 95 -->
<svg id="main" version="1.1" xmlns="http://www.w3.org/2000/svg" xmlns:xlink="http://www.w3.org/1999/xlink" xml:space="preserve" onload="init(evt)">
<style type="text/css"><![CDATA[
.edge:hover path { stroke: red; }
.edge:hover polygon { stroke: red; fill: red; }
]]></style>
<script type="text/javascript"><![CDATA[
var edges = document.getElementsByTagName('g');
if (edges && edges.length) {
  for (var i=0;i<edges.length;i++) {
    if (edges[i].id.substr(0,4)=='edge') {
      edges[i].setAttribute('class','edge');
    }
  }
}
]]></script>
        <defs>
                <circle id="rim" cx="0" cy="0" r="7"/>
                <circle id="rim2" cx="0" cy="0" r="3.5"/>
                <g id="zoomPlus">
                        <use xlink:href="#rim" fill="#404040">
                                <set attributeName="fill" to="#808080" begin="zoomplus.mouseover" end="zoomplus.mouseout"/>
                        </use>
                        <path d="M-4,0h8M0,-4v8" fill="none" stroke="white" stroke-width="1.5" pointer-events="none"/>
                </g>
                <g id="zoomMin">
                        <use xlink:href="#rim" fill="#404040">
                                <set attributeName="fill" to="#808080" begin="zoomminus.mouseover" end="zoomminus.mouseout"/>
                        </use>
                        <path d="M-4,0h8" fill="none" stroke="white" stroke-width="1.5" pointer-events="none"/>
                </g>
                <g id="dirArrow">
                        <path fill="none" stroke="white" stroke-width="1.5" d="M0,-3.0v7 M-2.5,-0.5L0,-3.0L2.5,-0.5"/>
                </g>
               <g id="resetDef">
                       <use xlink:href="#rim2" fill="#404040">
                               <set attributeName="fill" to="#808080" begin="reset.mouseover" end="reset.mouseout"/>
                       </use>
               </g>
        </defs>

<script type="text/javascript">
var viewWidth = 1053;
var viewHeight = 95;
var sectionId = 'dynsection-1';
</script>
<script xlink:href="svgpan.js"/>
<svg id="graph" class="graph">
<g id="viewport">
<title>ee/packet/include/packet.h</title>
<polygon fill="#ffffff" stroke="transparent" points="-4,4 -4,-91 1049,-91 1049,4 -4,4"/>
<!-- Node1 -->
<g id="node1" class="node">
<title>Node1</title>
<g id="a_node1"><a xlink:title=" ">
<polygon fill="#bfbfbf" stroke="#000000" points="441,-67.5 441,-86.5 589,-86.5 589,-67.5 441,-67.5"/>
<text text-anchor="middle" x="515" y="-74.5" font-family="Helvetica,sans-Serif" font-size="10.00" fill="#000000">ee/packet/include/packet.h</text>
</a>
</g>
</g>
<!-- Node2 -->
<g id="node2" class="node">
<title>Node2</title>
<g id="a_node2"><a xlink:href="cube_8c.html" target="_top" xlink:title=" ">
<polygon fill="#ffffff" stroke="#000000" points="0,-.5 0,-30.5 126,-30.5 126,-.5 0,-.5"/>
<text text-anchor="start" x="8" y="-18.5" font-family="Helvetica,sans-Serif" font-size="10.00" fill="#000000">ee/draw/samples/cube</text>
<text text-anchor="middle" x="63" y="-7.5" font-family="Helvetica,sans-Serif" font-size="10.00" fill="#000000">/cube.c</text>
</a>
</g>
</g>
<!-- Node1&#45;&gt;Node2 -->
<g id="edge1" class="edge">
<title>Node1&#45;&gt;Node2</title>
<path fill="none" stroke="#191970" d="M430.6449,-69.0263C353.4286,-61.1973 236.1384,-47.9713 135,-31 132.0997,-30.5133 129.1393,-29.989 126.1532,-29.4377"/>
<polygon fill="#191970" stroke="#191970" points="430.4978,-72.5291 440.798,-70.048 431.1987,-65.5643 430.4978,-72.5291"/>
</g>
<!-- Node3 -->
<g id="node3" class="node">
<title>Node3</title>
<g id="a_node3"><a xlink:href="teapot_8c.html" target="_top" xlink:title=" ">
<polygon fill="#ffffff" stroke="#000000" points="144,-.5 144,-30.5 278,-30.5 278,-.5 144,-.5"/>
<text text-anchor="start" x="152" y="-18.5" font-family="Helvetica,sans-Serif" font-size="10.00" fill="#000000">ee/draw/samples/teapot</text>
<text text-anchor="middle" x="211" y="-7.5" font-family="Helvetica,sans-Serif" font-size="10.00" fill="#000000">/teapot.c</text>
</a>
</g>
</g>
<!-- Node1&#45;&gt;Node3 -->
<g id="edge2" class="edge">
<title>Node1&#45;&gt;Node3</title>
<path fill="none" stroke="#191970" d="M457.5849,-65.451C411.4762,-56.168 345.0696,-42.7795 287,-31 284.0966,-30.411 281.1309,-29.8088 278.1352,-29.2"/>
<polygon fill="#191970" stroke="#191970" points="456.9014,-68.8836 467.3955,-67.4259 458.2828,-62.0212 456.9014,-68.8836"/>
</g>
<!-- Node4 -->
<g id="node4" class="node">
<title>Node4</title>
<g id="a_node4"><a xlink:href="draw_2samples_2texture_2texture_8c.html" target="_top" xlink:title=" ">
<polygon fill="#ffffff" stroke="#000000" points="296,-.5 296,-30.5 434,-30.5 434,-.5 296,-.5"/>
<text text-anchor="start" x="304" y="-18.5" font-family="Helvetica,sans-Serif" font-size="10.00" fill="#000000">ee/draw/samples/texture</text>
<text text-anchor="middle" x="365" y="-7.5" font-family="Helvetica,sans-Serif" font-size="10.00" fill="#000000">/texture.c</text>
</a>
</g>
</g>
<!-- Node1&#45;&gt;Node4 -->
<g id="edge3" class="edge">
<title>Node1&#45;&gt;Node4</title>
<path fill="none" stroke="#191970" d="M482.26,-63.5766C458.4952,-53.833 426.3268,-40.644 401.6941,-30.5446"/>
<polygon fill="#191970" stroke="#191970" points="480.9822,-66.8354 491.5625,-67.3906 483.6377,-60.3586 480.9822,-66.8354"/>
</g>
<!-- Node5 -->
<g id="node5" class="node">
<title>Node5</title>
<g id="a_node5"><a xlink:href="font_2samples_2font_8c.html" target="_top" xlink:title=" ">
<polygon fill="#ffffff" stroke="#000000" points="452,-6 452,-25 578,-25 578,-6 452,-6"/>
<text text-anchor="middle" x="515" y="-13" font-family="Helvetica,sans-Serif" font-size="10.00" fill="#000000">ee/font/samples/font.c</text>
</a>
</g>
</g>
<!-- Node1&#45;&gt;Node5 -->
<g id="edge4" class="edge">
<title>Node1&#45;&gt;Node5</title>
<path fill="none" stroke="#191970" d="M515,-57.2462C515,-46.5519 515,-33.814 515,-25.2449"/>
<polygon fill="#191970" stroke="#191970" points="511.5001,-57.3906 515,-67.3906 518.5001,-57.3907 511.5001,-57.3906"/>
</g>
<!-- Node6 -->
<g id="node6" class="node">
<title>Node6</title>
<g id="a_node6"><a xlink:href="samples_2graph_8c.html" target="_top" xlink:title=" ">
<polygon fill="#ffffff" stroke="#000000" points="596.5,-6 596.5,-25 739.5,-25 739.5,-6 596.5,-6"/>
<text text-anchor="middle" x="668" y="-13" font-family="Helvetica,sans-Serif" font-size="10.00" fill="#000000">ee/graph/samples/graph.c</text>
</a>
</g>
</g>
<!-- Node1&#45;&gt;Node6 -->
<g id="edge5" class="edge">
<title>Node1&#45;&gt;Node6</title>
<path fill="none" stroke="#191970" d="M548.2179,-63.6477C577.1894,-52.0023 618.5047,-35.3952 644.2616,-25.0419"/>
<polygon fill="#191970" stroke="#191970" points="546.8794,-60.4135 538.9063,-67.3906 549.4901,-66.9084 546.8794,-60.4135"/>
</g>
<!-- Node7 -->
<g id="node7" class="node">
<title>Node7</title>
<g id="a_node7"><a xlink:href="mpeg_8c.html" target="_top" xlink:title=" ">
<polygon fill="#ffffff" stroke="#000000" points="757.5,-6 757.5,-25 900.5,-25 900.5,-6 757.5,-6"/>
<text text-anchor="middle" x="829" y="-13" font-family="Helvetica,sans-Serif" font-size="10.00" fill="#000000">ee/mpeg/samples/mpeg.c</text>
</a>
</g>
</g>
<!-- Node1&#45;&gt;Node7 -->
<g id="edge6" class="edge">
<title>Node1&#45;&gt;Node7</title>
<path fill="none" stroke="#191970" d="M573.7413,-65.4949C633.4012,-53.81 724.7151,-35.9252 780.4261,-25.0137"/>
<polygon fill="#191970" stroke="#191970" points="572.8588,-62.1012 563.718,-67.4581 574.2043,-68.9707 572.8588,-62.1012"/>
</g>
<!-- Node8 -->
<g id="node8" class="node">
<title>Node8</title>
<g id="a_node8"><a xlink:href="packet_8c.html" target="_top" xlink:title=" ">
<polygon fill="#ffffff" stroke="#000000" points="919,-6 919,-25 1045,-25 1045,-6 919,-6"/>
<text text-anchor="middle" x="982" y="-13" font-family="Helvetica,sans-Serif" font-size="10.00" fill="#000000">ee/packet/src/packet.c</text>
</a>
</g>
</g>
<!-- Node1&#45;&gt;Node8 -->
<g id="edge7" class="edge">
<title>Node1&#45;&gt;Node8</title>
<path fill="none" stroke="#191970" d="M599.235,-69.5566C679.4308,-61.9121 803.3653,-48.6452 910,-31 920.0919,-29.3301 930.9076,-27.1902 941.0092,-25.0371"/>
<polygon fill="#191970" stroke="#191970" points="598.8159,-66.0806 589.1899,-70.5066 599.475,-73.0495 598.8159,-66.0806"/>
</g>
</g>
</svg>
        <g id="navigator" transform="translate(0 0)" fill="#404254">
                <rect fill="#f2f5e9" fill-opacity="0.5" stroke="#606060" stroke-width=".5" x="0" y="0" width="60" height="60"/>
                <use id="zoomplus" xlink:href="#zoomPlus" x="17" y="9" onmousedown="handleZoom(evt,'in')"/>
                <use id="zoomminus" xlink:href="#zoomMin" x="42" y="9" onmousedown="handleZoom(evt,'out')"/>
                <use id="reset" xlink:href="#resetDef" x="30" y="36" onmousedown="handleReset()"/>
                <g id="arrowUp" xlink:href="#dirArrow" transform="translate(30 24)" onmousedown="handlePan(0,-1)">
                  <use xlink:href="#rim" fill="#404040">
                        <set attributeName="fill" to="#808080" begin="arrowUp.mouseover" end="arrowUp.mouseout"/>
                  </use>
                  <path fill="none" stroke="white" stroke-width="1.5" d="M0,-3.0v7 M-2.5,-0.5L0,-3.0L2.5,-0.5"/>
                </g>
                <g id="arrowRight" xlink:href="#dirArrow" transform="rotate(90) translate(36 -43)" onmousedown="handlePan(1,0)">
                  <use xlink:href="#rim" fill="#404040">
                        <set attributeName="fill" to="#808080" begin="arrowRight.mouseover" end="arrowRight.mouseout"/>
                  </use>
                  <path fill="none" stroke="white" stroke-width="1.5" d="M0,-3.0v7 M-2.5,-0.5L0,-3.0L2.5,-0.5"/>
                </g>
                <g id="arrowDown" xlink:href="#dirArrow" transform="rotate(180) translate(-30 -48)" onmousedown="handlePan(0,1)">
                  <use xlink:href="#rim" fill="#404040">
                        <set attributeName="fill" to="#808080" begin="arrowDown.mouseover" end="arrowDown.mouseout"/>
                  </use>
                  <path fill="none" stroke="white" stroke-width="1.5" d="M0,-3.0v7 M-2.5,-0.5L0,-3.0L2.5,-0.5"/>
                </g>
                <g id="arrowLeft" xlink:href="#dirArrow" transform="rotate(270) translate(-36 17)" onmousedown="handlePan(-1,0)">
                  <use xlink:href="#rim" fill="#404040">
                        <set attributeName="fill" to="#808080" begin="arrowLeft.mouseover" end="arrowLeft.mouseout"/>
                  </use>
                  <path fill="none" stroke="white" stroke-width="1.5" d="M0,-3.0v7 M-2.5,-0.5L0,-3.0L2.5,-0.5"/>
                </g>
        </g>
        <svg viewBox="0 0 15 15" width="100%" height="30px" preserveAspectRatio="xMaxYMin meet">
         <g id="arrow_out" transform="scale(0.3 0.3)">
          <a xlink:href="packet_8h__dep__incl_org.svg" target="_base">
           <rect id="button" ry="5" rx="5" y="6" x="6" height="38" width="38"
                fill="#f2f5e9" fill-opacity="0.5" stroke="#606060" stroke-width="1.0"/>
           <path id="arrow"
             d="M 11.500037,31.436501 C 11.940474,20.09759 22.043105,11.32322 32.158766,21.979434 L 37.068811,17.246167 C 37.068811,17.246167 37.088388,32 37.088388,32 L 22.160133,31.978069 C 22.160133,31.978069 26.997745,27.140456 26.997745,27.140456 C 18.528582,18.264221 13.291696,25.230495 11.500037,31.436501 z"
             style="fill:#404040;"/>
          </a>
         </g>
        </svg>
</svg>
