<?xml version="1.0" encoding="UTF-8" standalone="no"?>
<!DOCTYPE svg PUBLIC "-//W3C//DTD SVG 1.1//EN"
 "http://www.w3.org/Graphics/SVG/1.1/DTD/svg11.dtd">
<!-- Generated by graphviz version 2.40.1 (20161225.0304)
 -->
<!-- Title: ee/sbv/src/patch_enable_lmb.c Pages: 1 -->
<svg width="585pt" height="207pt"
 viewBox="0.00 0.00 584.76 207.00" xmlns="http://www.w3.org/2000/svg" xmlns:xlink="http://www.w3.org/1999/xlink">
<g id="graph0" class="graph" transform="scale(1 1) rotate(0) translate(4 203)">
<title>ee/sbv/src/patch_enable_lmb.c</title>
<polygon fill="#ffffff" stroke="transparent" points="-4,4 -4,-203 580.7648,-203 580.7648,4 -4,4"/>
<!-- Node1 -->
<g id="node1" class="node">
<title>Node1</title>
<g id="a_node1"><a xlink:title=" ">
<polygon fill="#bfbfbf" stroke="#000000" points="258.7648,-168.5 258.7648,-198.5 392.7648,-198.5 392.7648,-168.5 258.7648,-168.5"/>
<text text-anchor="start" x="266.7648" y="-186.5" font-family="Helvetica,sans-Serif" font-size="10.00" fill="#000000">ee/sbv/src/patch_enable</text>
<text text-anchor="middle" x="325.7648" y="-175.5" font-family="Helvetica,sans-Serif" font-size="10.00" fill="#000000">_lmb.c</text>
</a>
</g>
</g>
<!-- Node2 -->
<g id="node2" class="node">
<title>Node2</title>
<g id="a_node2"><a xlink:href="tamtypes_8h.html" target="_top" xlink:title=" ">
<polygon fill="#ffffff" stroke="#000000" points="269.7648,-.5 269.7648,-19.5 341.7648,-19.5 341.7648,-.5 269.7648,-.5"/>
<text text-anchor="middle" x="305.7648" y="-7.5" font-family="Helvetica,sans-Serif" font-size="10.00" fill="#000000">tamtypes.h</text>
</a>
</g>
</g>
<!-- Node1&#45;&gt;Node2 -->
<g id="edge1" class="edge">
<title>Node1&#45;&gt;Node2</title>
<path fill="none" stroke="#191970" d="M258.6903,-174.8369C192.1193,-165.4567 95.3107,-149.4753 61.7648,-132 29.986,-115.4453 17.7671,-108.9831 3.7648,-76 .2913,-67.8179 -2.0281,-62.742 3.7648,-56 20.1797,-36.8955 178.5356,-20.814 259.132,-13.7892"/>
<polygon fill="#191970" stroke="#191970" points="259.8342,-17.2418 269.4978,-12.8983 259.2347,-10.2675 259.8342,-17.2418"/>
</g>
<!-- Node3 -->
<g id="node3" class="node">
<title>Node3</title>
<g id="a_node3"><a xlink:href="kernel_8h.html" target="_top" xlink:title=" ">
<polygon fill="#ffffff" stroke="#000000" points="70.7648,-112.5 70.7648,-131.5 126.7648,-131.5 126.7648,-112.5 70.7648,-112.5"/>
<text text-anchor="middle" x="98.7648" y="-119.5" font-family="Helvetica,sans-Serif" font-size="10.00" fill="#000000">kernel.h</text>
</a>
</g>
</g>
<!-- Node1&#45;&gt;Node3 -->
<g id="edge2" class="edge">
<title>Node1&#45;&gt;Node3</title>
<path fill="none" stroke="#191970" d="M270.2344,-168.4554C228.7226,-157.2088 173.0689,-142.1308 136.5837,-132.2461"/>
<polygon fill="#191970" stroke="#191970" points="137.3962,-128.8401 126.8289,-129.6033 135.5657,-135.5965 137.3962,-128.8401"/>
</g>
<!-- Node7 -->
<g id="node7" class="node">
<title>Node7</title>
<g id="a_node7"><a xlink:href="iopheap_8h.html" target="_top" xlink:title=" ">
<polygon fill="#ffffff" stroke="#000000" points="145.2648,-112.5 145.2648,-131.5 210.2648,-131.5 210.2648,-112.5 145.2648,-112.5"/>
<text text-anchor="middle" x="177.7648" y="-119.5" font-family="Helvetica,sans-Serif" font-size="10.00" fill="#000000">iopheap.h</text>
</a>
</g>
</g>
<!-- Node1&#45;&gt;Node7 -->
<g id="edge7" class="edge">
<title>Node1&#45;&gt;Node7</title>
<path fill="none" stroke="#191970" d="M289.5599,-168.4554C265.299,-158.374 233.6292,-145.2139 210.1936,-135.4755"/>
<polygon fill="#191970" stroke="#191970" points="211.2771,-132.1356 200.6996,-131.5303 208.591,-138.5997 211.2771,-132.1356"/>
</g>
<!-- Node8 -->
<g id="node8" class="node">
<title>Node8</title>
<g id="a_node8"><a xlink:href="sifrpc_8h.html" target="_top" xlink:title=" ">
<polygon fill="#ffffff" stroke="#000000" points="228.2648,-112.5 228.2648,-131.5 281.2648,-131.5 281.2648,-112.5 228.2648,-112.5"/>
<text text-anchor="middle" x="254.7648" y="-119.5" font-family="Helvetica,sans-Serif" font-size="10.00" fill="#000000">sifrpc.h</text>
</a>
</g>
</g>
<!-- Node1&#45;&gt;Node8 -->
<g id="edge8" class="edge">
<title>Node1&#45;&gt;Node8</title>
<path fill="none" stroke="#191970" d="M308.2142,-168.2977C297.7427,-159.2274 284.4437,-147.7077 273.731,-138.4285"/>
<polygon fill="#191970" stroke="#191970" points="275.983,-135.7487 266.1328,-131.8469 271.3999,-141.0398 275.983,-135.7487"/>
</g>
<!-- Node10 -->
<g id="node10" class="node">
<title>Node10</title>
<g id="a_node10"><a xlink:title=" ">
<polygon fill="#ffffff" stroke="#bfbfbf" points="299.2648,-112.5 299.2648,-131.5 352.2648,-131.5 352.2648,-112.5 299.2648,-112.5"/>
<text text-anchor="middle" x="325.7648" y="-119.5" font-family="Helvetica,sans-Serif" font-size="10.00" fill="#000000">string.h</text>
</a>
</g>
</g>
<!-- Node1&#45;&gt;Node10 -->
<g id="edge11" class="edge">
<title>Node1&#45;&gt;Node10</title>
<path fill="none" stroke="#191970" d="M325.7648,-168.2977C325.7648,-160.3834 325.7648,-150.6043 325.7648,-142.0759"/>
<polygon fill="#191970" stroke="#191970" points="329.2649,-141.8469 325.7648,-131.8469 322.2649,-141.847 329.2649,-141.8469"/>
</g>
<!-- Node11 -->
<g id="node11" class="node">
<title>Node11</title>
<g id="a_node11"><a xlink:href="smem_8h.html" target="_top" xlink:title=" ">
<polygon fill="#ffffff" stroke="#000000" points="315.7648,-56.5 315.7648,-75.5 371.7648,-75.5 371.7648,-56.5 315.7648,-56.5"/>
<text text-anchor="middle" x="343.7648" y="-63.5" font-family="Helvetica,sans-Serif" font-size="10.00" fill="#000000">smem.h</text>
</a>
</g>
</g>
<!-- Node1&#45;&gt;Node11 -->
<g id="edge12" class="edge">
<title>Node1&#45;&gt;Node11</title>
<path fill="none" stroke="#191970" d="M340.2477,-168.184C348.2888,-158.596 357.5057,-145.5269 361.7648,-132 366.7106,-116.2923 361.0184,-98.2383 354.7609,-84.9876"/>
<polygon fill="#191970" stroke="#191970" points="357.7562,-83.1617 350.0325,-75.9095 351.5479,-86.3954 357.7562,-83.1617"/>
</g>
<!-- Node12 -->
<g id="node12" class="node">
<title>Node12</title>
<g id="a_node12"><a xlink:href="smod_8h.html" target="_top" xlink:title=" ">
<polygon fill="#ffffff" stroke="#000000" points="390.2648,-56.5 390.2648,-75.5 443.2648,-75.5 443.2648,-56.5 390.2648,-56.5"/>
<text text-anchor="middle" x="416.7648" y="-63.5" font-family="Helvetica,sans-Serif" font-size="10.00" fill="#000000">smod.h</text>
</a>
</g>
</g>
<!-- Node1&#45;&gt;Node12 -->
<g id="edge14" class="edge">
<title>Node1&#45;&gt;Node12</title>
<path fill="none" stroke="#191970" d="M342.465,-168.0801C352.6603,-158.2493 365.6373,-144.9621 375.7648,-132 387.5268,-116.946 398.8231,-98.3487 406.5691,-84.736"/>
<polygon fill="#191970" stroke="#191970" points="409.7238,-86.2652 411.5378,-75.8268 403.6103,-82.8556 409.7238,-86.2652"/>
</g>
<!-- Node13 -->
<g id="node13" class="node">
<title>Node13</title>
<g id="a_node13"><a xlink:href="slib_8h.html" target="_top" xlink:title=" ">
<polygon fill="#ffffff" stroke="#000000" points="447.2648,-112.5 447.2648,-131.5 490.2648,-131.5 490.2648,-112.5 447.2648,-112.5"/>
<text text-anchor="middle" x="468.7648" y="-119.5" font-family="Helvetica,sans-Serif" font-size="10.00" fill="#000000">slib.h</text>
</a>
</g>
</g>
<!-- Node1&#45;&gt;Node13 -->
<g id="edge16" class="edge">
<title>Node1&#45;&gt;Node13</title>
<path fill="none" stroke="#191970" d="M360.7466,-168.4554C384.2273,-158.3571 414.8906,-145.1697 437.5457,-135.4264"/>
<polygon fill="#191970" stroke="#191970" points="439.2243,-138.5145 447.028,-131.3484 436.4587,-132.084 439.2243,-138.5145"/>
</g>
<!-- Node14 -->
<g id="node14" class="node">
<title>Node14</title>
<g id="a_node14"><a xlink:href="common_8h.html" target="_top" xlink:title=" ">
<polygon fill="#ffffff" stroke="#000000" points="508.7648,-112.5 508.7648,-131.5 576.7648,-131.5 576.7648,-112.5 508.7648,-112.5"/>
<text text-anchor="middle" x="542.7648" y="-119.5" font-family="Helvetica,sans-Serif" font-size="10.00" fill="#000000">common.h</text>
</a>
</g>
</g>
<!-- Node1&#45;&gt;Node14 -->
<g id="edge18" class="edge">
<title>Node1&#45;&gt;Node14</title>
<path fill="none" stroke="#191970" d="M378.849,-168.4554C415.85,-157.9689 464.6044,-144.1515 499.299,-134.3187"/>
<polygon fill="#191970" stroke="#191970" points="500.4708,-137.6245 509.1375,-131.5303 498.5621,-130.8897 500.4708,-137.6245"/>
</g>
<!-- Node4 -->
<g id="node4" class="node">
<title>Node4</title>
<g id="a_node4"><a xlink:title=" ">
<polygon fill="#ffffff" stroke="#bfbfbf" points="12.7648,-56.5 12.7648,-75.5 68.7648,-75.5 68.7648,-56.5 12.7648,-56.5"/>
<text text-anchor="middle" x="40.7648" y="-63.5" font-family="Helvetica,sans-Serif" font-size="10.00" fill="#000000">stddef.h</text>
</a>
</g>
</g>
<!-- Node3&#45;&gt;Node4 -->
<g id="edge3" class="edge">
<title>Node3&#45;&gt;Node4</title>
<path fill="none" stroke="#191970" d="M88.662,-112.2455C80.262,-104.1352 68.1155,-92.4075 58.1564,-82.7919"/>
<polygon fill="#191970" stroke="#191970" points="60.377,-80.0707 50.7519,-75.6427 55.5148,-85.1066 60.377,-80.0707"/>
</g>
<!-- Node5 -->
<g id="node5" class="node">
<title>Node5</title>
<g id="a_node5"><a xlink:title=" ">
<polygon fill="#ffffff" stroke="#bfbfbf" points="86.7648,-56.5 86.7648,-75.5 142.7648,-75.5 142.7648,-56.5 86.7648,-56.5"/>
<text text-anchor="middle" x="114.7648" y="-63.5" font-family="Helvetica,sans-Serif" font-size="10.00" fill="#000000">stdarg.h</text>
</a>
</g>
</g>
<!-- Node3&#45;&gt;Node5 -->
<g id="edge4" class="edge">
<title>Node3&#45;&gt;Node5</title>
<path fill="none" stroke="#191970" d="M101.5518,-112.2455C103.6626,-104.8579 106.6309,-94.4689 109.2195,-85.4087"/>
<polygon fill="#191970" stroke="#191970" points="112.6278,-86.2195 112.0098,-75.6427 105.8971,-84.2964 112.6278,-86.2195"/>
</g>
<!-- Node6 -->
<g id="node6" class="node">
<title>Node6</title>
<g id="a_node6"><a xlink:href="sifdma_8h.html" target="_top" xlink:title=" ">
<polygon fill="#ffffff" stroke="#000000" points="161.2648,-56.5 161.2648,-75.5 220.2648,-75.5 220.2648,-56.5 161.2648,-56.5"/>
<text text-anchor="middle" x="190.7648" y="-63.5" font-family="Helvetica,sans-Serif" font-size="10.00" fill="#000000">sifdma.h</text>
</a>
</g>
</g>
<!-- Node3&#45;&gt;Node6 -->
<g id="edge5" class="edge">
<title>Node3&#45;&gt;Node6</title>
<path fill="none" stroke="#191970" d="M114.79,-112.2455C128.9056,-103.6534 149.6912,-91.0014 165.9547,-81.1018"/>
<polygon fill="#191970" stroke="#191970" points="168.2011,-83.8319 174.9233,-75.6427 164.5614,-77.8525 168.2011,-83.8319"/>
</g>
<!-- Node6&#45;&gt;Node2 -->
<g id="edge6" class="edge">
<title>Node6&#45;&gt;Node2</title>
<path fill="none" stroke="#191970" d="M210.534,-56.3733C228.9117,-47.4241 256.4961,-33.9917 277.2541,-23.8835"/>
<polygon fill="#191970" stroke="#191970" points="278.7952,-27.026 286.2536,-19.5011 275.7305,-20.7325 278.7952,-27.026"/>
</g>
<!-- Node9 -->
<g id="node9" class="node">
<title>Node9</title>
<g id="a_node9"><a xlink:href="sifcmd_8h.html" target="_top" xlink:title=" ">
<polygon fill="#ffffff" stroke="#000000" points="238.2648,-56.5 238.2648,-75.5 297.2648,-75.5 297.2648,-56.5 238.2648,-56.5"/>
<text text-anchor="middle" x="267.7648" y="-63.5" font-family="Helvetica,sans-Serif" font-size="10.00" fill="#000000">sifcmd.h</text>
</a>
</g>
</g>
<!-- Node8&#45;&gt;Node9 -->
<g id="edge9" class="edge">
<title>Node8&#45;&gt;Node9</title>
<path fill="none" stroke="#191970" d="M257.0292,-112.2455C258.7442,-104.8579 261.156,-94.4689 263.2592,-85.4087"/>
<polygon fill="#191970" stroke="#191970" points="266.6743,-86.1751 265.5263,-75.6427 259.8556,-84.5922 266.6743,-86.1751"/>
</g>
<!-- Node9&#45;&gt;Node2 -->
<g id="edge10" class="edge">
<title>Node9&#45;&gt;Node2</title>
<path fill="none" stroke="#191970" d="M274.3839,-56.2455C279.6694,-48.4564 287.2189,-37.3308 293.5886,-27.9439"/>
<polygon fill="#191970" stroke="#191970" points="296.5027,-29.8827 299.2216,-19.6427 290.7103,-25.9522 296.5027,-29.8827"/>
</g>
<!-- Node11&#45;&gt;Node2 -->
<g id="edge13" class="edge">
<title>Node11&#45;&gt;Node2</title>
<path fill="none" stroke="#191970" d="M337.1457,-56.2455C331.8602,-48.4564 324.3107,-37.3308 317.9411,-27.9439"/>
<polygon fill="#191970" stroke="#191970" points="320.8193,-25.9522 312.3081,-19.6427 315.0269,-29.8827 320.8193,-25.9522"/>
</g>
<!-- Node12&#45;&gt;Node2 -->
<g id="edge15" class="edge">
<title>Node12&#45;&gt;Node2</title>
<path fill="none" stroke="#191970" d="M397.6832,-56.3733C380.0247,-47.4644 353.5596,-34.1127 333.555,-24.0203"/>
<polygon fill="#191970" stroke="#191970" points="335.1021,-20.8806 324.5974,-19.5011 331.949,-27.1303 335.1021,-20.8806"/>
</g>
<!-- Node13&#45;&gt;Node2 -->
<g id="edge17" class="edge">
<title>Node13&#45;&gt;Node2</title>
<path fill="none" stroke="#191970" d="M469.2075,-112.0986C469.2888,-97.8262 467.2724,-71.4894 452.7648,-56 438.8369,-41.1295 389.4054,-27.6636 351.6719,-19.199"/>
<polygon fill="#191970" stroke="#191970" points="352.3874,-15.7728 341.8701,-17.0522 350.8897,-22.6107 352.3874,-15.7728"/>
</g>
</g>
</svg>
