<?xml version="1.0" encoding="UTF-8" standalone="no"?>
<!DOCTYPE svg PUBLIC "-//W3C//DTD SVG 1.1//EN"
 "http://www.w3.org/Graphics/SVG/1.1/DTD/svg11.dtd">
<!-- Generated by graphviz version 2.40.1 (20161225.0304)
 -->
<!-- Title: ee/rpc/audsrv/samples/playadpcm/playadpcm.c Pages: 1 -->
<svg width="440pt" height="207pt"
 viewBox="0.00 0.00 440.00 207.00" xmlns="http://www.w3.org/2000/svg" xmlns:xlink="http://www.w3.org/1999/xlink">
<g id="graph0" class="graph" transform="scale(1 1) rotate(0) translate(4 203)">
<title>ee/rpc/audsrv/samples/playadpcm/playadpcm.c</title>
<polygon fill="#ffffff" stroke="transparent" points="-4,4 -4,-203 436,-203 436,4 -4,4"/>
<!-- Node1 -->
<g id="node1" class="node">
<title>Node1</title>
<g id="a_node1"><a xlink:title=" ">
<polygon fill="#bfbfbf" stroke="#000000" points="166.5,-168.5 166.5,-198.5 305.5,-198.5 305.5,-168.5 166.5,-168.5"/>
<text text-anchor="start" x="174.5" y="-186.5" font-family="Helvetica,sans-Serif" font-size="10.00" fill="#000000">ee/rpc/audsrv/samples</text>
<text text-anchor="middle" x="236" y="-175.5" font-family="Helvetica,sans-Serif" font-size="10.00" fill="#000000">/playadpcm/playadpcm.c</text>
</a>
</g>
</g>
<!-- Node2 -->
<g id="node2" class="node">
<title>Node2</title>
<g id="a_node2"><a xlink:title=" ">
<polygon fill="#ffffff" stroke="#bfbfbf" points="11,-112.5 11,-131.5 61,-131.5 61,-112.5 11,-112.5"/>
<text text-anchor="middle" x="36" y="-119.5" font-family="Helvetica,sans-Serif" font-size="10.00" fill="#000000">stdio.h</text>
</a>
</g>
</g>
<!-- Node1&#45;&gt;Node2 -->
<g id="edge1" class="edge">
<title>Node1&#45;&gt;Node2</title>
<path fill="none" stroke="#191970" d="M187.0745,-168.4554C151.1779,-157.4172 103.2788,-142.6882 71.1244,-132.8008"/>
<polygon fill="#191970" stroke="#191970" points="71.8602,-129.3653 61.2731,-129.7715 69.8027,-136.0561 71.8602,-129.3653"/>
</g>
<!-- Node3 -->
<g id="node3" class="node">
<title>Node3</title>
<g id="a_node3"><a xlink:title=" ">
<polygon fill="#ffffff" stroke="#bfbfbf" points="79.5,-112.5 79.5,-131.5 132.5,-131.5 132.5,-112.5 79.5,-112.5"/>
<text text-anchor="middle" x="106" y="-119.5" font-family="Helvetica,sans-Serif" font-size="10.00" fill="#000000">string.h</text>
</a>
</g>
</g>
<!-- Node1&#45;&gt;Node3 -->
<g id="edge2" class="edge">
<title>Node1&#45;&gt;Node3</title>
<path fill="none" stroke="#191970" d="M204.1984,-168.4554C183.1735,-158.509 155.8141,-145.5659 135.3157,-135.8686"/>
<polygon fill="#191970" stroke="#191970" points="136.6816,-132.6429 126.1454,-131.5303 133.6881,-138.9706 136.6816,-132.6429"/>
</g>
<!-- Node4 -->
<g id="node4" class="node">
<title>Node4</title>
<g id="a_node4"><a xlink:href="kernel_8h.html" target="_top" xlink:title=" ">
<polygon fill="#ffffff" stroke="#000000" points="151,-112.5 151,-131.5 207,-131.5 207,-112.5 151,-112.5"/>
<text text-anchor="middle" x="179" y="-119.5" font-family="Helvetica,sans-Serif" font-size="10.00" fill="#000000">kernel.h</text>
</a>
</g>
</g>
<!-- Node1&#45;&gt;Node4 -->
<g id="edge3" class="edge">
<title>Node1&#45;&gt;Node4</title>
<path fill="none" stroke="#191970" d="M221.9101,-168.2977C213.7507,-159.4941 203.4528,-148.3833 194.9905,-139.2529"/>
<polygon fill="#191970" stroke="#191970" points="197.4911,-136.8021 188.1264,-131.8469 192.3571,-141.5604 197.4911,-136.8021"/>
</g>
<!-- Node8 -->
<g id="node8" class="node">
<title>Node8</title>
<g id="a_node8"><a xlink:href="tamtypes_8h.html" target="_top" xlink:title=" ">
<polygon fill="#ffffff" stroke="#000000" points="229,-.5 229,-19.5 301,-19.5 301,-.5 229,-.5"/>
<text text-anchor="middle" x="265" y="-7.5" font-family="Helvetica,sans-Serif" font-size="10.00" fill="#000000">tamtypes.h</text>
</a>
</g>
</g>
<!-- Node1&#45;&gt;Node8 -->
<g id="edge13" class="edge">
<title>Node1&#45;&gt;Node8</title>
<path fill="none" stroke="#191970" d="M238.2157,-168.1608C241.7223,-144.1826 248.8851,-96.3811 256,-56 257.5144,-47.4049 259.3395,-37.9378 260.9492,-29.838"/>
<polygon fill="#191970" stroke="#191970" points="264.4174,-30.3449 262.9614,-19.8506 257.5553,-28.9623 264.4174,-30.3449"/>
</g>
<!-- Node9 -->
<g id="node9" class="node">
<title>Node9</title>
<g id="a_node9"><a xlink:href="sifrpc_8h.html" target="_top" xlink:title=" ">
<polygon fill="#ffffff" stroke="#000000" points="264.5,-112.5 264.5,-131.5 317.5,-131.5 317.5,-112.5 264.5,-112.5"/>
<text text-anchor="middle" x="291" y="-119.5" font-family="Helvetica,sans-Serif" font-size="10.00" fill="#000000">sifrpc.h</text>
</a>
</g>
</g>
<!-- Node1&#45;&gt;Node9 -->
<g id="edge8" class="edge">
<title>Node1&#45;&gt;Node9</title>
<path fill="none" stroke="#191970" d="M249.5955,-168.2977C257.3891,-159.5831 267.2047,-148.6075 275.3226,-139.5302"/>
<polygon fill="#191970" stroke="#191970" points="278.1365,-141.6341 282.1938,-131.8469 272.9187,-136.9678 278.1365,-141.6341"/>
</g>
<!-- Node11 -->
<g id="node11" class="node">
<title>Node11</title>
<g id="a_node11"><a xlink:href="loadfile_8h.html" target="_top" xlink:title=" ">
<polygon fill="#ffffff" stroke="#000000" points="342,-56.5 342,-75.5 404,-75.5 404,-56.5 342,-56.5"/>
<text text-anchor="middle" x="373" y="-63.5" font-family="Helvetica,sans-Serif" font-size="10.00" fill="#000000">loadfile.h</text>
</a>
</g>
</g>
<!-- Node1&#45;&gt;Node11 -->
<g id="edge11" class="edge">
<title>Node1&#45;&gt;Node11</title>
<path fill="none" stroke="#191970" d="M270.7954,-168.4138C288.8371,-159.5078 310.4894,-147.0318 327,-132 342.1042,-118.2486 354.9638,-98.6687 363.2138,-84.408"/>
<polygon fill="#191970" stroke="#191970" points="366.3545,-85.9618 368.1598,-75.5219 360.2381,-82.5574 366.3545,-85.9618"/>
</g>
<!-- Node12 -->
<g id="node12" class="node">
<title>Node12</title>
<g id="a_node12"><a xlink:href="audsrv_8h.html" target="_top" xlink:title=" ">
<polygon fill="#ffffff" stroke="#000000" points="374,-112.5 374,-131.5 432,-131.5 432,-112.5 374,-112.5"/>
<text text-anchor="middle" x="403" y="-119.5" font-family="Helvetica,sans-Serif" font-size="10.00" fill="#000000">audsrv.h</text>
</a>
</g>
</g>
<!-- Node1&#45;&gt;Node12 -->
<g id="edge14" class="edge">
<title>Node1&#45;&gt;Node12</title>
<path fill="none" stroke="#191970" d="M276.8528,-168.4554C304.595,-158.239 340.9225,-144.8609 367.4655,-135.0861"/>
<polygon fill="#191970" stroke="#191970" points="368.9465,-138.2705 377.1209,-131.5303 366.5275,-131.7018 368.9465,-138.2705"/>
</g>
<!-- Node5 -->
<g id="node5" class="node">
<title>Node5</title>
<g id="a_node5"><a xlink:title=" ">
<polygon fill="#ffffff" stroke="#bfbfbf" points="0,-56.5 0,-75.5 56,-75.5 56,-56.5 0,-56.5"/>
<text text-anchor="middle" x="28" y="-63.5" font-family="Helvetica,sans-Serif" font-size="10.00" fill="#000000">stddef.h</text>
</a>
</g>
</g>
<!-- Node4&#45;&gt;Node5 -->
<g id="edge4" class="edge">
<title>Node4&#45;&gt;Node5</title>
<path fill="none" stroke="#191970" d="M153.0422,-112.3733C128.2593,-103.1822 90.7254,-89.2624 63.246,-79.0713"/>
<polygon fill="#191970" stroke="#191970" points="64.2121,-75.6968 53.6191,-75.5011 61.7781,-82.26 64.2121,-75.6968"/>
</g>
<!-- Node6 -->
<g id="node6" class="node">
<title>Node6</title>
<g id="a_node6"><a xlink:title=" ">
<polygon fill="#ffffff" stroke="#bfbfbf" points="74,-56.5 74,-75.5 130,-75.5 130,-56.5 74,-56.5"/>
<text text-anchor="middle" x="102" y="-63.5" font-family="Helvetica,sans-Serif" font-size="10.00" fill="#000000">stdarg.h</text>
</a>
</g>
</g>
<!-- Node4&#45;&gt;Node6 -->
<g id="edge5" class="edge">
<title>Node4&#45;&gt;Node6</title>
<path fill="none" stroke="#191970" d="M165.5876,-112.2455C153.9943,-103.814 137.0252,-91.4729 123.5322,-81.6598"/>
<polygon fill="#191970" stroke="#191970" points="125.4047,-78.6938 115.2587,-75.6427 121.2874,-84.355 125.4047,-78.6938"/>
</g>
<!-- Node7 -->
<g id="node7" class="node">
<title>Node7</title>
<g id="a_node7"><a xlink:href="sifdma_8h.html" target="_top" xlink:title=" ">
<polygon fill="#ffffff" stroke="#000000" points="148.5,-56.5 148.5,-75.5 207.5,-75.5 207.5,-56.5 148.5,-56.5"/>
<text text-anchor="middle" x="178" y="-63.5" font-family="Helvetica,sans-Serif" font-size="10.00" fill="#000000">sifdma.h</text>
</a>
</g>
</g>
<!-- Node4&#45;&gt;Node7 -->
<g id="edge6" class="edge">
<title>Node4&#45;&gt;Node7</title>
<path fill="none" stroke="#191970" d="M178.8258,-112.2455C178.6953,-104.9382 178.5124,-94.6944 178.3519,-85.7046"/>
<polygon fill="#191970" stroke="#191970" points="181.8503,-85.5786 178.1722,-75.6427 174.8514,-85.7036 181.8503,-85.5786"/>
</g>
<!-- Node7&#45;&gt;Node8 -->
<g id="edge7" class="edge">
<title>Node7&#45;&gt;Node8</title>
<path fill="none" stroke="#191970" d="M193.1542,-56.2455C206.5027,-47.6534 226.1586,-35.0014 241.5383,-25.1018"/>
<polygon fill="#191970" stroke="#191970" points="243.5051,-27.9982 250.0194,-19.6427 239.7164,-22.1121 243.5051,-27.9982"/>
</g>
<!-- Node10 -->
<g id="node10" class="node">
<title>Node10</title>
<g id="a_node10"><a xlink:href="sifcmd_8h.html" target="_top" xlink:title=" ">
<polygon fill="#ffffff" stroke="#000000" points="264.5,-56.5 264.5,-75.5 323.5,-75.5 323.5,-56.5 264.5,-56.5"/>
<text text-anchor="middle" x="294" y="-63.5" font-family="Helvetica,sans-Serif" font-size="10.00" fill="#000000">sifcmd.h</text>
</a>
</g>
</g>
<!-- Node9&#45;&gt;Node10 -->
<g id="edge9" class="edge">
<title>Node9&#45;&gt;Node10</title>
<path fill="none" stroke="#191970" d="M291.5226,-112.2455C291.914,-104.9382 292.4628,-94.6944 292.9444,-85.7046"/>
<polygon fill="#191970" stroke="#191970" points="296.4434,-85.8156 293.4834,-75.6427 289.4534,-85.4411 296.4434,-85.8156"/>
</g>
<!-- Node10&#45;&gt;Node8 -->
<g id="edge10" class="edge">
<title>Node10&#45;&gt;Node8</title>
<path fill="none" stroke="#191970" d="M288.9486,-56.2455C284.9981,-48.617 279.3903,-37.7881 274.5942,-28.5267"/>
<polygon fill="#191970" stroke="#191970" points="277.7001,-26.9131 269.9935,-19.6427 271.4841,-30.1321 277.7001,-26.9131"/>
</g>
<!-- Node11&#45;&gt;Node8 -->
<g id="edge12" class="edge">
<title>Node11&#45;&gt;Node8</title>
<path fill="none" stroke="#191970" d="M354.1878,-56.2455C337.1527,-47.4125 311.8425,-34.2887 292.5319,-24.2758"/>
<polygon fill="#191970" stroke="#191970" points="294.0853,-21.1388 283.5966,-19.6427 290.863,-27.353 294.0853,-21.1388"/>
</g>
</g>
</svg>
