<?xml version="1.0" encoding="UTF-8" standalone="no"?>
<!DOCTYPE svg PUBLIC "-//W3C//DTD SVG 1.1//EN"
 "http://www.w3.org/Graphics/SVG/1.1/DTD/svg11.dtd">
<!-- Generated by graphviz version 2.40.1 (20161225.0304)
 -->
<!-- Title: common/include/ps2_reg_defs.h Pages: 1 -->
<svg width="185pt" height="151pt"
 viewBox="0.00 0.00 184.50 151.00" xmlns="http://www.w3.org/2000/svg" xmlns:xlink="http://www.w3.org/1999/xlink">
<g id="graph0" class="graph" transform="scale(1 1) rotate(0) translate(4 147)">
<title>common/include/ps2_reg_defs.h</title>
<polygon fill="#ffffff" stroke="transparent" points="-4,4 -4,-147 180.5,-147 180.5,4 -4,4"/>
<!-- Node1 -->
<g id="node1" class="node">
<title>Node1</title>
<g id="a_node1"><a xlink:title=" ">
<polygon fill="#bfbfbf" stroke="#000000" points="0,-112.5 0,-142.5 118,-142.5 118,-112.5 0,-112.5"/>
<text text-anchor="start" x="8" y="-130.5" font-family="Helvetica,sans-Serif" font-size="10.00" fill="#000000">common/include/ps2</text>
<text text-anchor="middle" x="59" y="-119.5" font-family="Helvetica,sans-Serif" font-size="10.00" fill="#000000">_reg_defs.h</text>
</a>
</g>
</g>
<!-- Node2 -->
<g id="node2" class="node">
<title>Node2</title>
<g id="a_node2"><a xlink:href="tamtypes_8h.html" target="_top" xlink:title=" ">
<polygon fill="#ffffff" stroke="#000000" points="23,-.5 23,-19.5 95,-19.5 95,-.5 23,-.5"/>
<text text-anchor="middle" x="59" y="-7.5" font-family="Helvetica,sans-Serif" font-size="10.00" fill="#000000">tamtypes.h</text>
</a>
</g>
</g>
<!-- Node1&#45;&gt;Node2 -->
<g id="edge1" class="edge">
<title>Node1&#45;&gt;Node2</title>
<path fill="none" stroke="#191970" d="M42.1193,-112.1071C33.0757,-102.6844 22.8257,-89.8094 18,-76 15.0677,-67.6087 14.8355,-64.3065 18,-56 22.2275,-44.9034 30.4971,-34.7814 38.5088,-26.8751"/>
<polygon fill="#191970" stroke="#191970" points="41.2703,-29.0916 46.2752,-19.7534 36.5393,-23.9323 41.2703,-29.0916"/>
</g>
<!-- Node3 -->
<g id="node3" class="node">
<title>Node3</title>
<g id="a_node3"><a xlink:href="ee__regs_8h.html" target="_top" xlink:title=" ">
<polygon fill="#ffffff" stroke="#000000" points="27,-56.5 27,-75.5 91,-75.5 91,-56.5 27,-56.5"/>
<text text-anchor="middle" x="59" y="-63.5" font-family="Helvetica,sans-Serif" font-size="10.00" fill="#000000">ee_regs.h</text>
</a>
</g>
</g>
<!-- Node1&#45;&gt;Node3 -->
<g id="edge2" class="edge">
<title>Node1&#45;&gt;Node3</title>
<path fill="none" stroke="#191970" d="M59,-112.2977C59,-104.3834 59,-94.6043 59,-86.0759"/>
<polygon fill="#191970" stroke="#191970" points="62.5001,-85.8469 59,-75.8469 55.5001,-85.847 62.5001,-85.8469"/>
</g>
<!-- Node4 -->
<g id="node4" class="node">
<title>Node4</title>
<g id="a_node4"><a xlink:href="iop__regs_8h.html" target="_top" xlink:title=" ">
<polygon fill="#ffffff" stroke="#000000" points="109.5,-56.5 109.5,-75.5 176.5,-75.5 176.5,-56.5 109.5,-56.5"/>
<text text-anchor="middle" x="143" y="-63.5" font-family="Helvetica,sans-Serif" font-size="10.00" fill="#000000">iop_regs.h</text>
</a>
</g>
</g>
<!-- Node1&#45;&gt;Node4 -->
<g id="edge4" class="edge">
<title>Node1&#45;&gt;Node4</title>
<path fill="none" stroke="#191970" d="M79.7641,-112.2977C92.3958,-103.0495 108.5053,-91.2551 121.3031,-81.8853"/>
<polygon fill="#191970" stroke="#191970" points="123.5495,-84.5784 129.5505,-75.8469 119.4143,-78.9303 123.5495,-84.5784"/>
</g>
<!-- Node3&#45;&gt;Node2 -->
<g id="edge3" class="edge">
<title>Node3&#45;&gt;Node2</title>
<path fill="none" stroke="#191970" d="M59,-56.2455C59,-48.9382 59,-38.6944 59,-29.7046"/>
<polygon fill="#191970" stroke="#191970" points="62.5001,-29.6426 59,-19.6427 55.5001,-29.6427 62.5001,-29.6426"/>
</g>
<!-- Node4&#45;&gt;Node2 -->
<g id="edge5" class="edge">
<title>Node4&#45;&gt;Node2</title>
<path fill="none" stroke="#191970" d="M128.3683,-56.2455C115.6006,-47.7337 96.8562,-35.2375 82.0701,-25.3801"/>
<polygon fill="#191970" stroke="#191970" points="83.726,-22.2775 73.464,-19.6427 79.8431,-28.1019 83.726,-22.2775"/>
</g>
</g>
</svg>
