<?xml version="1.0" encoding="UTF-8" standalone="no"?>
<!DOCTYPE svg PUBLIC "-//W3C//DTD SVG 1.1//EN"
 "http://www.w3.org/Graphics/SVG/1.1/DTD/svg11.dtd">
<!-- Generated by graphviz version 2.40.1 (20161225.0304)
 -->
<!-- Title: ee/rpc/tcpips/src/ps2ipc.c Pages: 1 -->
<svg width="521pt" height="196pt"
 viewBox="0.00 0.00 521.49 196.00" xmlns="http://www.w3.org/2000/svg" xmlns:xlink="http://www.w3.org/1999/xlink">
<g id="graph0" class="graph" transform="scale(1 1) rotate(0) translate(4 192)">
<title>ee/rpc/tcpips/src/ps2ipc.c</title>
<polygon fill="#ffffff" stroke="transparent" points="-4,4 -4,-192 517.494,-192 517.494,4 -4,4"/>
<!-- Node1 -->
<g id="node1" class="node">
<title>Node1</title>
<g id="a_node1"><a xlink:title=" ">
<polygon fill="#bfbfbf" stroke="#000000" points="179.494,-168.5 179.494,-187.5 318.494,-187.5 318.494,-168.5 179.494,-168.5"/>
<text text-anchor="middle" x="248.994" y="-175.5" font-family="Helvetica,sans-Serif" font-size="10.00" fill="#000000">ee/rpc/tcpips/src/ps2ipc.c</text>
</a>
</g>
</g>
<!-- Node2 -->
<g id="node2" class="node">
<title>Node2</title>
<g id="a_node2"><a xlink:href="tamtypes_8h.html" target="_top" xlink:title=" ">
<polygon fill="#ffffff" stroke="#000000" points="81.994,-.5 81.994,-19.5 153.994,-19.5 153.994,-.5 81.994,-.5"/>
<text text-anchor="middle" x="117.994" y="-7.5" font-family="Helvetica,sans-Serif" font-size="10.00" fill="#000000">tamtypes.h</text>
</a>
</g>
</g>
<!-- Node1&#45;&gt;Node2 -->
<g id="edge1" class="edge">
<title>Node1&#45;&gt;Node2</title>
<path fill="none" stroke="#191970" d="M185.0854,-168.458C134.2503,-159.984 67.9733,-146.6925 44.994,-132 18.5563,-115.0963 12.0857,-105.7128 1.994,-76 -9.4488,-42.3091 34.576,-25.289 71.641,-17.0625"/>
<polygon fill="#191970" stroke="#191970" points="72.7649,-20.405 81.8588,-14.9688 71.3597,-13.5474 72.7649,-20.405"/>
</g>
<!-- Node3 -->
<g id="node3" class="node">
<title>Node3</title>
<g id="a_node3"><a xlink:title=" ">
<polygon fill="#ffffff" stroke="#bfbfbf" points="460.494,-112.5 460.494,-131.5 513.494,-131.5 513.494,-112.5 460.494,-112.5"/>
<text text-anchor="middle" x="486.994" y="-119.5" font-family="Helvetica,sans-Serif" font-size="10.00" fill="#000000">string.h</text>
</a>
</g>
</g>
<!-- Node1&#45;&gt;Node3 -->
<g id="edge2" class="edge">
<title>Node1&#45;&gt;Node3</title>
<path fill="none" stroke="#191970" d="M293.6685,-168.4587C332.5329,-160.0165 390.593,-147.0654 450.3093,-132.0869"/>
<polygon fill="#191970" stroke="#191970" points="451.4553,-135.4075 460.2949,-129.567 449.7424,-128.6203 451.4553,-135.4075"/>
</g>
<!-- Node4 -->
<g id="node4" class="node">
<title>Node4</title>
<g id="a_node4"><a xlink:href="kernel_8h.html" target="_top" xlink:title=" ">
<polygon fill="#ffffff" stroke="#000000" points="183.994,-112.5 183.994,-131.5 239.994,-131.5 239.994,-112.5 183.994,-112.5"/>
<text text-anchor="middle" x="211.994" y="-119.5" font-family="Helvetica,sans-Serif" font-size="10.00" fill="#000000">kernel.h</text>
</a>
</g>
</g>
<!-- Node1&#45;&gt;Node4 -->
<g id="edge3" class="edge">
<title>Node1&#45;&gt;Node4</title>
<path fill="none" stroke="#191970" d="M242.5491,-168.2455C237.4558,-160.5367 230.2032,-149.5598 224.042,-140.2348"/>
<polygon fill="#191970" stroke="#191970" points="226.7979,-138.0566 218.3651,-131.6427 220.9575,-141.9155 226.7979,-138.0566"/>
</g>
<!-- Node8 -->
<g id="node8" class="node">
<title>Node8</title>
<g id="a_node8"><a xlink:href="sifrpc_8h.html" target="_top" xlink:title=" ">
<polygon fill="#ffffff" stroke="#000000" points="54.494,-112.5 54.494,-131.5 107.494,-131.5 107.494,-112.5 54.494,-112.5"/>
<text text-anchor="middle" x="80.994" y="-119.5" font-family="Helvetica,sans-Serif" font-size="10.00" fill="#000000">sifrpc.h</text>
</a>
</g>
</g>
<!-- Node1&#45;&gt;Node8 -->
<g id="edge8" class="edge">
<title>Node1&#45;&gt;Node8</title>
<path fill="none" stroke="#191970" d="M220.1138,-168.3733C191.5854,-158.8638 147.8703,-144.2921 117.0714,-134.0258"/>
<polygon fill="#191970" stroke="#191970" points="118.1549,-130.6977 107.5612,-130.8557 115.9412,-137.3385 118.1549,-130.6977"/>
</g>
<!-- Node10 -->
<g id="node10" class="node">
<title>Node10</title>
<g id="a_node10"><a xlink:href="ps2ips_8h.html" target="_top" xlink:title=" ">
<polygon fill="#ffffff" stroke="#000000" points="294.494,-112.5 294.494,-131.5 351.494,-131.5 351.494,-112.5 294.494,-112.5"/>
<text text-anchor="middle" x="322.994" y="-119.5" font-family="Helvetica,sans-Serif" font-size="10.00" fill="#000000">ps2ips.h</text>
</a>
</g>
</g>
<!-- Node1&#45;&gt;Node10 -->
<g id="edge11" class="edge">
<title>Node1&#45;&gt;Node10</title>
<path fill="none" stroke="#191970" d="M261.8838,-168.2455C272.9194,-159.8943 289.0232,-147.7076 301.9294,-137.9408"/>
<polygon fill="#191970" stroke="#191970" points="304.3899,-140.4681 310.2519,-131.6427 300.1658,-134.8862 304.3899,-140.4681"/>
</g>
<!-- Node13 -->
<g id="node13" class="node">
<title>Node13</title>
<g id="a_node13"><a xlink:href="ps2ip__rpc_8h.html" target="_top" xlink:title=" ">
<polygon fill="#ffffff" stroke="#000000" points="369.994,-112.5 369.994,-131.5 441.994,-131.5 441.994,-112.5 369.994,-112.5"/>
<text text-anchor="middle" x="405.994" y="-119.5" font-family="Helvetica,sans-Serif" font-size="10.00" fill="#000000">ps2ip_rpc.h</text>
</a>
</g>
</g>
<!-- Node1&#45;&gt;Node13 -->
<g id="edge15" class="edge">
<title>Node1&#45;&gt;Node13</title>
<path fill="none" stroke="#191970" d="M275.9833,-168.3733C301.864,-159.1419 341.1188,-145.1402 369.7229,-134.9375"/>
<polygon fill="#191970" stroke="#191970" points="371.114,-138.1573 379.3569,-131.5011 368.7623,-131.5642 371.114,-138.1573"/>
</g>
<!-- Node5 -->
<g id="node5" class="node">
<title>Node5</title>
<g id="a_node5"><a xlink:title=" ">
<polygon fill="#ffffff" stroke="#bfbfbf" points="165.994,-56.5 165.994,-75.5 221.994,-75.5 221.994,-56.5 165.994,-56.5"/>
<text text-anchor="middle" x="193.994" y="-63.5" font-family="Helvetica,sans-Serif" font-size="10.00" fill="#000000">stddef.h</text>
</a>
</g>
</g>
<!-- Node4&#45;&gt;Node5 -->
<g id="edge4" class="edge">
<title>Node4&#45;&gt;Node5</title>
<path fill="none" stroke="#191970" d="M208.8587,-112.2455C206.4841,-104.8579 203.1447,-94.4689 200.2325,-85.4087"/>
<polygon fill="#191970" stroke="#191970" points="203.4857,-84.0919 197.0934,-75.6427 196.8215,-86.234 203.4857,-84.0919"/>
</g>
<!-- Node6 -->
<g id="node6" class="node">
<title>Node6</title>
<g id="a_node6"><a xlink:title=" ">
<polygon fill="#ffffff" stroke="#bfbfbf" points="239.994,-56.5 239.994,-75.5 295.994,-75.5 295.994,-56.5 239.994,-56.5"/>
<text text-anchor="middle" x="267.994" y="-63.5" font-family="Helvetica,sans-Serif" font-size="10.00" fill="#000000">stdarg.h</text>
</a>
</g>
</g>
<!-- Node4&#45;&gt;Node6 -->
<g id="edge5" class="edge">
<title>Node4&#45;&gt;Node6</title>
<path fill="none" stroke="#191970" d="M221.7485,-112.2455C229.8588,-104.1352 241.5865,-92.4075 251.2021,-82.7919"/>
<polygon fill="#191970" stroke="#191970" points="253.7551,-85.1887 258.3513,-75.6427 248.8054,-80.2389 253.7551,-85.1887"/>
</g>
<!-- Node7 -->
<g id="node7" class="node">
<title>Node7</title>
<g id="a_node7"><a xlink:href="sifdma_8h.html" target="_top" xlink:title=" ">
<polygon fill="#ffffff" stroke="#000000" points="88.494,-56.5 88.494,-75.5 147.494,-75.5 147.494,-56.5 88.494,-56.5"/>
<text text-anchor="middle" x="117.994" y="-63.5" font-family="Helvetica,sans-Serif" font-size="10.00" fill="#000000">sifdma.h</text>
</a>
</g>
</g>
<!-- Node4&#45;&gt;Node7 -->
<g id="edge6" class="edge">
<title>Node4&#45;&gt;Node7</title>
<path fill="none" stroke="#191970" d="M195.6205,-112.2455C181.0632,-103.5731 159.563,-90.7645 142.8788,-80.825"/>
<polygon fill="#191970" stroke="#191970" points="144.5623,-77.7539 134.1799,-75.6427 140.9796,-83.7676 144.5623,-77.7539"/>
</g>
<!-- Node7&#45;&gt;Node2 -->
<g id="edge7" class="edge">
<title>Node7&#45;&gt;Node2</title>
<path fill="none" stroke="#191970" d="M117.994,-56.2455C117.994,-48.9382 117.994,-38.6944 117.994,-29.7046"/>
<polygon fill="#191970" stroke="#191970" points="121.4941,-29.6426 117.994,-19.6427 114.4941,-29.6427 121.4941,-29.6426"/>
</g>
<!-- Node9 -->
<g id="node9" class="node">
<title>Node9</title>
<g id="a_node9"><a xlink:href="sifcmd_8h.html" target="_top" xlink:title=" ">
<polygon fill="#ffffff" stroke="#000000" points="11.494,-56.5 11.494,-75.5 70.494,-75.5 70.494,-56.5 11.494,-56.5"/>
<text text-anchor="middle" x="40.994" y="-63.5" font-family="Helvetica,sans-Serif" font-size="10.00" fill="#000000">sifcmd.h</text>
</a>
</g>
</g>
<!-- Node8&#45;&gt;Node9 -->
<g id="edge9" class="edge">
<title>Node8&#45;&gt;Node9</title>
<path fill="none" stroke="#191970" d="M74.0265,-112.2455C68.4629,-104.4564 60.516,-93.3308 53.8111,-83.9439"/>
<polygon fill="#191970" stroke="#191970" points="56.5421,-81.7457 47.8816,-75.6427 50.846,-85.8144 56.5421,-81.7457"/>
</g>
<!-- Node9&#45;&gt;Node2 -->
<g id="edge10" class="edge">
<title>Node9&#45;&gt;Node2</title>
<path fill="none" stroke="#191970" d="M54.4064,-56.2455C65.9997,-47.814 82.9688,-35.4729 96.4618,-25.6598"/>
<polygon fill="#191970" stroke="#191970" points="98.7066,-28.355 104.7353,-19.6427 94.5893,-22.6938 98.7066,-28.355"/>
</g>
<!-- Node11 -->
<g id="node11" class="node">
<title>Node11</title>
<g id="a_node11"><a xlink:href="tcpip_8h.html" target="_top" xlink:title=" ">
<polygon fill="#ffffff" stroke="#000000" points="399.994,-56.5 399.994,-75.5 449.994,-75.5 449.994,-56.5 399.994,-56.5"/>
<text text-anchor="middle" x="424.994" y="-63.5" font-family="Helvetica,sans-Serif" font-size="10.00" fill="#000000">tcpip.h</text>
</a>
</g>
</g>
<!-- Node10&#45;&gt;Node11 -->
<g id="edge12" class="edge">
<title>Node10&#45;&gt;Node11</title>
<path fill="none" stroke="#191970" d="M340.7611,-112.2455C356.7035,-103.4928 380.3199,-90.527 398.4929,-80.5496"/>
<polygon fill="#191970" stroke="#191970" points="400.3492,-83.5233 407.4306,-75.6427 396.9804,-77.3873 400.3492,-83.5233"/>
</g>
<!-- Node12 -->
<g id="node12" class="node">
<title>Node12</title>
<g id="a_node12"><a xlink:title=" ">
<polygon fill="#ffffff" stroke="#bfbfbf" points="313.994,-56.5 313.994,-75.5 381.994,-75.5 381.994,-56.5 313.994,-56.5"/>
<text text-anchor="middle" x="347.994" y="-63.5" font-family="Helvetica,sans-Serif" font-size="10.00" fill="#000000">sys/time.h</text>
</a>
</g>
</g>
<!-- Node10&#45;&gt;Node12 -->
<g id="edge14" class="edge">
<title>Node10&#45;&gt;Node12</title>
<path fill="none" stroke="#191970" d="M327.3487,-112.2455C330.7184,-104.6973 335.487,-94.0158 339.5924,-84.8197"/>
<polygon fill="#191970" stroke="#191970" points="342.8087,-86.2009 343.6892,-75.6427 336.4167,-83.3473 342.8087,-86.2009"/>
</g>
<!-- Node11&#45;&gt;Node2 -->
<g id="edge13" class="edge">
<title>Node11&#45;&gt;Node2</title>
<path fill="none" stroke="#191970" d="M399.8313,-58.2363C396.8659,-57.4293 393.8719,-56.6632 390.994,-56 312.0129,-37.7992 218.6271,-23.617 164.0845,-16.0566"/>
<polygon fill="#191970" stroke="#191970" points="164.4201,-12.5699 154.0371,-14.678 163.4685,-19.5049 164.4201,-12.5699"/>
</g>
<!-- Node13&#45;&gt;Node2 -->
<g id="edge16" class="edge">
<title>Node13&#45;&gt;Node2</title>
<path fill="none" stroke="#191970" d="M423.2735,-112.3973C444.5822,-99.3659 476.0164,-75.4729 458.994,-56 439.8719,-34.1252 252.878,-18.9318 164.2039,-12.898"/>
<polygon fill="#191970" stroke="#191970" points="164.3616,-9.4008 154.15,-12.2245 163.8937,-16.3851 164.3616,-9.4008"/>
</g>
<!-- Node13&#45;&gt;Node11 -->
<g id="edge17" class="edge">
<title>Node13&#45;&gt;Node11</title>
<path fill="none" stroke="#191970" d="M409.3036,-112.2455C411.8373,-104.7776 415.4117,-94.2427 418.509,-85.1137"/>
<polygon fill="#191970" stroke="#191970" points="421.8238,-86.237 421.7224,-75.6427 415.1949,-83.9879 421.8238,-86.237"/>
</g>
<!-- Node13&#45;&gt;Node12 -->
<g id="edge18" class="edge">
<title>Node13&#45;&gt;Node12</title>
<path fill="none" stroke="#191970" d="M395.8912,-112.2455C387.4912,-104.1352 375.3446,-92.4075 365.3856,-82.7919"/>
<polygon fill="#191970" stroke="#191970" points="367.6062,-80.0707 357.9811,-75.6427 362.744,-85.1066 367.6062,-80.0707"/>
</g>
</g>
</svg>
