<?xml version="1.0" encoding="UTF-8" standalone="no"?>
<!DOCTYPE svg PUBLIC "-//W3C//DTD SVG 1.1//EN"
 "http://www.w3.org/Graphics/SVG/1.1/DTD/svg11.dtd">
<!-- Generated by graphviz version 2.40.1 (20161225.0304)
 -->
<!-- Title: common/include/ps2ip_rpc.h Pages: 1 -->
<svg width="183pt" height="151pt"
 viewBox="0.00 0.00 182.50 151.00" xmlns="http://www.w3.org/2000/svg" xmlns:xlink="http://www.w3.org/1999/xlink">
<g id="graph0" class="graph" transform="scale(1 1) rotate(0) translate(4 147)">
<title>common/include/ps2ip_rpc.h</title>
<polygon fill="#ffffff" stroke="transparent" points="-4,4 -4,-147 178.5,-147 178.5,4 -4,4"/>
<!-- Node1 -->
<g id="node1" class="node">
<title>Node1</title>
<g id="a_node1"><a xlink:title=" ">
<polygon fill="#bfbfbf" stroke="#000000" points="0,-112.5 0,-142.5 127,-142.5 127,-112.5 0,-112.5"/>
<text text-anchor="start" x="8" y="-130.5" font-family="Helvetica,sans-Serif" font-size="10.00" fill="#000000">common/include/ps2ip</text>
<text text-anchor="middle" x="63.5" y="-119.5" font-family="Helvetica,sans-Serif" font-size="10.00" fill="#000000">_rpc.h</text>
</a>
</g>
</g>
<!-- Node2 -->
<g id="node2" class="node">
<title>Node2</title>
<g id="a_node2"><a xlink:href="tamtypes_8h.html" target="_top" xlink:title=" ">
<polygon fill="#ffffff" stroke="#000000" points=".5,-.5 .5,-19.5 72.5,-19.5 72.5,-.5 .5,-.5"/>
<text text-anchor="middle" x="36.5" y="-7.5" font-family="Helvetica,sans-Serif" font-size="10.00" fill="#000000">tamtypes.h</text>
</a>
</g>
</g>
<!-- Node1&#45;&gt;Node2 -->
<g id="edge1" class="edge">
<title>Node1&#45;&gt;Node2</title>
<path fill="none" stroke="#191970" d="M50.1597,-112.49C42.4802,-102.8135 33.5677,-89.5445 29.5,-76 24.9429,-60.826 27.3005,-42.9121 30.4596,-29.579"/>
<polygon fill="#191970" stroke="#191970" points="33.9217,-30.1853 33.1675,-19.6174 27.1669,-28.349 33.9217,-30.1853"/>
</g>
<!-- Node3 -->
<g id="node3" class="node">
<title>Node3</title>
<g id="a_node3"><a xlink:href="tcpip_8h.html" target="_top" xlink:title=" ">
<polygon fill="#ffffff" stroke="#000000" points="38.5,-56.5 38.5,-75.5 88.5,-75.5 88.5,-56.5 38.5,-56.5"/>
<text text-anchor="middle" x="63.5" y="-63.5" font-family="Helvetica,sans-Serif" font-size="10.00" fill="#000000">tcpip.h</text>
</a>
</g>
</g>
<!-- Node1&#45;&gt;Node3 -->
<g id="edge2" class="edge">
<title>Node1&#45;&gt;Node3</title>
<path fill="none" stroke="#191970" d="M63.5,-112.2977C63.5,-104.3834 63.5,-94.6043 63.5,-86.0759"/>
<polygon fill="#191970" stroke="#191970" points="67.0001,-85.8469 63.5,-75.8469 60.0001,-85.847 67.0001,-85.8469"/>
</g>
<!-- Node4 -->
<g id="node4" class="node">
<title>Node4</title>
<g id="a_node4"><a xlink:title=" ">
<polygon fill="#ffffff" stroke="#bfbfbf" points="106.5,-56.5 106.5,-75.5 174.5,-75.5 174.5,-56.5 106.5,-56.5"/>
<text text-anchor="middle" x="140.5" y="-63.5" font-family="Helvetica,sans-Serif" font-size="10.00" fill="#000000">sys/time.h</text>
</a>
</g>
</g>
<!-- Node1&#45;&gt;Node4 -->
<g id="edge4" class="edge">
<title>Node1&#45;&gt;Node4</title>
<path fill="none" stroke="#191970" d="M82.5337,-112.2977C94.0015,-103.1384 108.5962,-91.4816 120.2719,-82.1562"/>
<polygon fill="#191970" stroke="#191970" points="122.5419,-84.8225 128.1713,-75.8469 118.1734,-79.3529 122.5419,-84.8225"/>
</g>
<!-- Node3&#45;&gt;Node2 -->
<g id="edge3" class="edge">
<title>Node3&#45;&gt;Node2</title>
<path fill="none" stroke="#191970" d="M58.797,-56.2455C55.1576,-48.6973 50.0076,-38.0158 45.5738,-28.8197"/>
<polygon fill="#191970" stroke="#191970" points="48.6449,-27.1303 41.1491,-19.6427 42.3395,-30.1704 48.6449,-27.1303"/>
</g>
</g>
</svg>
