<?xml version="1.0" encoding="UTF-8" standalone="no"?>
<!DOCTYPE svg PUBLIC "-//W3C//DTD SVG 1.1//EN"
 "http://www.w3.org/Graphics/SVG/1.1/DTD/svg11.dtd">
<!-- Generated by graphviz version 2.40.1 (20161225.0304)
 -->
<!-- Title: ee/rpc/mouse/include/ps2mouse.h Pages: 1 -->
<svg width="164pt" height="162pt"
 viewBox="0.00 0.00 164.00 162.00" xmlns="http://www.w3.org/2000/svg" xmlns:xlink="http://www.w3.org/1999/xlink">
<g id="graph0" class="graph" transform="scale(1 1) rotate(0) translate(4 158)">
<title>ee/rpc/mouse/include/ps2mouse.h</title>
<polygon fill="#ffffff" stroke="transparent" points="-4,4 -4,-158 160,-158 160,4 -4,4"/>
<!-- Node1 -->
<g id="node1" class="node">
<title>Node1</title>
<g id="a_node1"><a xlink:title=" ">
<polygon fill="#bfbfbf" stroke="#000000" points="17.5,-123.5 17.5,-153.5 138.5,-153.5 138.5,-123.5 17.5,-123.5"/>
<text text-anchor="start" x="25.5" y="-141.5" font-family="Helvetica,sans-Serif" font-size="10.00" fill="#000000">ee/rpc/mouse/include</text>
<text text-anchor="middle" x="78" y="-130.5" font-family="Helvetica,sans-Serif" font-size="10.00" fill="#000000">/ps2mouse.h</text>
</a>
</g>
</g>
<!-- Node2 -->
<g id="node2" class="node">
<title>Node2</title>
<g id="a_node2"><a xlink:href="libmouse_8h.html" target="_top" xlink:title=" ">
<polygon fill="#ffffff" stroke="#000000" points="17.5,-56.5 17.5,-86.5 138.5,-86.5 138.5,-56.5 17.5,-56.5"/>
<text text-anchor="start" x="25.5" y="-74.5" font-family="Helvetica,sans-Serif" font-size="10.00" fill="#000000">ee/rpc/mouse/include</text>
<text text-anchor="middle" x="78" y="-63.5" font-family="Helvetica,sans-Serif" font-size="10.00" fill="#000000">/libmouse.h</text>
</a>
</g>
</g>
<!-- Node1&#45;&gt;Node2 -->
<g id="edge1" class="edge">
<title>Node1&#45;&gt;Node2</title>
<path fill="none" stroke="#191970" d="M78,-113.0249C78,-104.128 78,-94.4287 78,-86.6432"/>
<polygon fill="#191970" stroke="#191970" points="74.5001,-113.2966 78,-123.2967 81.5001,-113.2967 74.5001,-113.2966"/>
</g>
<!-- Node3 -->
<g id="node3" class="node">
<title>Node3</title>
<g id="a_node3"><a xlink:href="libmouse_8c.html" target="_top" xlink:title=" ">
<polygon fill="#ffffff" stroke="#000000" points="0,-.5 0,-19.5 156,-19.5 156,-.5 0,-.5"/>
<text text-anchor="middle" x="78" y="-7.5" font-family="Helvetica,sans-Serif" font-size="10.00" fill="#000000">ee/rpc/mouse/src/libmouse.c</text>
</a>
</g>
</g>
<!-- Node2&#45;&gt;Node3 -->
<g id="edge2" class="edge">
<title>Node2&#45;&gt;Node3</title>
<path fill="none" stroke="#191970" d="M78,-46.2849C78,-36.9858 78,-26.9883 78,-19.8469"/>
<polygon fill="#191970" stroke="#191970" points="74.5001,-46.2977 78,-56.2977 81.5001,-46.2978 74.5001,-46.2977"/>
</g>
</g>
</svg>
