<?xml version="1.0" encoding="UTF-8" standalone="no"?>
<!DOCTYPE svg PUBLIC "-//W3C//DTD SVG 1.1//EN"
 "http://www.w3.org/Graphics/SVG/1.1/DTD/svg11.dtd">
<!-- Generated by graphviz version 2.40.1 (20161225.0304)
 -->
<!-- Title: common/include/ps2snd.h Pages: 1 -->
<svg width="178pt" height="196pt"
 viewBox="0.00 0.00 177.50 196.00" xmlns="http://www.w3.org/2000/svg" xmlns:xlink="http://www.w3.org/1999/xlink">
<g id="graph0" class="graph" transform="scale(1 1) rotate(0) translate(4 192)">
<title>common/include/ps2snd.h</title>
<polygon fill="#ffffff" stroke="transparent" points="-4,4 -4,-192 173.5,-192 173.5,4 -4,4"/>
<!-- Node1 -->
<g id="node1" class="node">
<title>Node1</title>
<g id="a_node1"><a xlink:title=" ">
<polygon fill="#bfbfbf" stroke="#000000" points="0,-168.5 0,-187.5 144,-187.5 144,-168.5 0,-168.5"/>
<text text-anchor="middle" x="72" y="-175.5" font-family="Helvetica,sans-Serif" font-size="10.00" fill="#000000">common/include/ps2snd.h</text>
</a>
</g>
</g>
<!-- Node2 -->
<g id="node2" class="node">
<title>Node2</title>
<g id="a_node2"><a xlink:href="tamtypes_8h.html" target="_top" xlink:title=" ">
<polygon fill="#ffffff" stroke="#000000" points="48,-.5 48,-19.5 120,-19.5 120,-.5 48,-.5"/>
<text text-anchor="middle" x="84" y="-7.5" font-family="Helvetica,sans-Serif" font-size="10.00" fill="#000000">tamtypes.h</text>
</a>
</g>
</g>
<!-- Node1&#45;&gt;Node2 -->
<g id="edge1" class="edge">
<title>Node1&#45;&gt;Node2</title>
<path fill="none" stroke="#191970" d="M70.0167,-168.4043C66.0616,-147.6771 58.2148,-97.2601 66,-56 67.7441,-46.7566 71.2981,-36.9893 74.7909,-28.844"/>
<polygon fill="#191970" stroke="#191970" points="78.0628,-30.1052 79.0415,-19.5556 71.6976,-27.1923 78.0628,-30.1052"/>
</g>
<!-- Node3 -->
<g id="node3" class="node">
<title>Node3</title>
<g id="a_node3"><a xlink:href="libsd_8h.html" target="_top" xlink:title=" ">
<polygon fill="#ffffff" stroke="#000000" points="85.5,-112.5 85.5,-131.5 134.5,-131.5 134.5,-112.5 85.5,-112.5"/>
<text text-anchor="middle" x="110" y="-119.5" font-family="Helvetica,sans-Serif" font-size="10.00" fill="#000000">libsd.h</text>
</a>
</g>
</g>
<!-- Node1&#45;&gt;Node3 -->
<g id="edge2" class="edge">
<title>Node1&#45;&gt;Node3</title>
<path fill="none" stroke="#191970" d="M78.6191,-168.2455C83.9046,-160.4564 91.4541,-149.3308 97.8238,-139.9439"/>
<polygon fill="#191970" stroke="#191970" points="100.7379,-141.8827 103.4568,-131.6427 94.9455,-137.9522 100.7379,-141.8827"/>
</g>
<!-- Node4 -->
<g id="node4" class="node">
<title>Node4</title>
<g id="a_node4"><a xlink:href="libsd-common_8h.html" target="_top" xlink:title=" ">
<polygon fill="#ffffff" stroke="#000000" points="74.5,-56.5 74.5,-75.5 169.5,-75.5 169.5,-56.5 74.5,-56.5"/>
<text text-anchor="middle" x="122" y="-63.5" font-family="Helvetica,sans-Serif" font-size="10.00" fill="#000000">libsd&#45;common.h</text>
</a>
</g>
</g>
<!-- Node3&#45;&gt;Node4 -->
<g id="edge3" class="edge">
<title>Node3&#45;&gt;Node4</title>
<path fill="none" stroke="#191970" d="M112.0902,-112.2455C113.6561,-104.9382 115.8512,-94.6944 117.7776,-85.7046"/>
<polygon fill="#191970" stroke="#191970" points="121.2607,-86.1541 119.9337,-75.6427 114.416,-84.6873 121.2607,-86.1541"/>
</g>
<!-- Node4&#45;&gt;Node2 -->
<g id="edge4" class="edge">
<title>Node4&#45;&gt;Node2</title>
<path fill="none" stroke="#191970" d="M115.3809,-56.2455C110.0954,-48.4564 102.5459,-37.3308 96.1762,-27.9439"/>
<polygon fill="#191970" stroke="#191970" points="99.0545,-25.9522 90.5432,-19.6427 93.2621,-29.8827 99.0545,-25.9522"/>
</g>
</g>
</svg>
