<?xml version="1.0" encoding="UTF-8" standalone="no"?>
<!DOCTYPE svg PUBLIC "-//W3C//DTD SVG 1.1//EN"
 "http://www.w3.org/Graphics/SVG/1.1/DTD/svg11.dtd">
<!-- Generated by graphviz version 2.40.1 (20161225.0304)
 -->
<!-- Title: ee/libc/src/ps2sdkapi.c Pages: 1 -->
<!--zoomable 196 -->
<svg id="main" version="1.1" xmlns="http://www.w3.org/2000/svg" xmlns:xlink="http://www.w3.org/1999/xlink" xml:space="preserve" onload="init(evt)">
<style type="text/css"><![CDATA[
.edge:hover path { stroke: red; }
.edge:hover polygon { stroke: red; fill: red; }
]]></style>
<script type="text/javascript"><![CDATA[
var edges = document.getElementsByTagName('g');
if (edges && edges.length) {
  for (var i=0;i<edges.length;i++) {
    if (edges[i].id.substr(0,4)=='edge') {
      edges[i].setAttribute('class','edge');
    }
  }
}
]]></script>
        <defs>
                <circle id="rim" cx="0" cy="0" r="7"/>
                <circle id="rim2" cx="0" cy="0" r="3.5"/>
                <g id="zoomPlus">
                        <use xlink:href="#rim" fill="#404040">
                                <set attributeName="fill" to="#808080" begin="zoomplus.mouseover" end="zoomplus.mouseout"/>
                        </use>
                        <path d="M-4,0h8M0,-4v8" fill="none" stroke="white" stroke-width="1.5" pointer-events="none"/>
                </g>
                <g id="zoomMin">
                        <use xlink:href="#rim" fill="#404040">
                                <set attributeName="fill" to="#808080" begin="zoomminus.mouseover" end="zoomminus.mouseout"/>
                        </use>
                        <path d="M-4,0h8" fill="none" stroke="white" stroke-width="1.5" pointer-events="none"/>
                </g>
                <g id="dirArrow">
                        <path fill="none" stroke="white" stroke-width="1.5" d="M0,-3.0v7 M-2.5,-0.5L0,-3.0L2.5,-0.5"/>
                </g>
               <g id="resetDef">
                       <use xlink:href="#rim2" fill="#404040">
                               <set attributeName="fill" to="#808080" begin="reset.mouseover" end="reset.mouseout"/>
                       </use>
               </g>
        </defs>

<script type="text/javascript">
var viewWidth = 1374;
var viewHeight = 196;
var sectionId = 'dynsection-0';
</script>
<script xlink:href="svgpan.js"/>
<svg id="graph" class="graph">
<g id="viewport">
<title>ee/libc/src/ps2sdkapi.c</title>
<polygon fill="#ffffff" stroke="transparent" points="-4,4 -4,-192 1369.5,-192 1369.5,4 -4,4"/>
<!-- Node1 -->
<g id="node1" class="node">
<title>Node1</title>
<g id="a_node1"><a xlink:title=" ">
<polygon fill="#bfbfbf" stroke="#000000" points="578.5,-168.5 578.5,-187.5 705.5,-187.5 705.5,-168.5 578.5,-168.5"/>
<text text-anchor="middle" x="642" y="-175.5" font-family="Helvetica,sans-Serif" font-size="10.00" fill="#000000">ee/libc/src/ps2sdkapi.c</text>
</a>
</g>
</g>
<!-- Node2 -->
<g id="node2" class="node">
<title>Node2</title>
<g id="a_node2"><a xlink:title=" ">
<polygon fill="#ffffff" stroke="#bfbfbf" points="0,-112.5 0,-131.5 50,-131.5 50,-112.5 0,-112.5"/>
<text text-anchor="middle" x="25" y="-119.5" font-family="Helvetica,sans-Serif" font-size="10.00" fill="#000000">stdio.h</text>
</a>
</g>
</g>
<!-- Node1&#45;&gt;Node2 -->
<g id="edge1" class="edge">
<title>Node1&#45;&gt;Node2</title>
<path fill="none" stroke="#191970" d="M578.0566,-174.6326C451.8977,-167.7215 174.0105,-151.1056 59.9787,-131.7738"/>
<polygon fill="#191970" stroke="#191970" points="60.5691,-128.324 50.1103,-130.0162 59.3417,-135.2155 60.5691,-128.324"/>
</g>
<!-- Node3 -->
<g id="node3" class="node">
<title>Node3</title>
<g id="a_node3"><a xlink:title=" ">
<polygon fill="#ffffff" stroke="#bfbfbf" points="68.5,-112.5 68.5,-131.5 121.5,-131.5 121.5,-112.5 68.5,-112.5"/>
<text text-anchor="middle" x="95" y="-119.5" font-family="Helvetica,sans-Serif" font-size="10.00" fill="#000000">stdlib.h</text>
</a>
</g>
</g>
<!-- Node1&#45;&gt;Node3 -->
<g id="edge2" class="edge">
<title>Node1&#45;&gt;Node3</title>
<path fill="none" stroke="#191970" d="M578.1087,-175.2393C481.7452,-170.3894 293.7097,-158.2521 136,-132 134.5545,-131.7594 133.0847,-131.4953 131.6031,-131.213"/>
<polygon fill="#191970" stroke="#191970" points="132.296,-127.7822 121.7883,-129.1382 130.8482,-134.6308 132.296,-127.7822"/>
</g>
<!-- Node4 -->
<g id="node4" class="node">
<title>Node4</title>
<g id="a_node4"><a xlink:title=" ">
<polygon fill="#ffffff" stroke="#bfbfbf" points="46,-56.5 46,-75.5 102,-75.5 102,-56.5 46,-56.5"/>
<text text-anchor="middle" x="74" y="-63.5" font-family="Helvetica,sans-Serif" font-size="10.00" fill="#000000">stdarg.h</text>
</a>
</g>
</g>
<!-- Node1&#45;&gt;Node4 -->
<g id="edge3" class="edge">
<title>Node1&#45;&gt;Node4</title>
<path fill="none" stroke="#191970" d="M578.1251,-175.7757C466.8926,-171.243 242.4757,-158.9929 169,-132 139.1921,-121.0494 109.9627,-98.4461 91.9696,-82.7632"/>
<polygon fill="#191970" stroke="#191970" points="93.8699,-79.7666 84.0859,-75.7016 89.1995,-84.9807 93.8699,-79.7666"/>
</g>
<!-- Node5 -->
<g id="node5" class="node">
<title>Node5</title>
<g id="a_node5"><a xlink:href="errno_8h.html" target="_top" xlink:title=" ">
<polygon fill="#ffffff" stroke="#000000" points="348.5,-112.5 348.5,-131.5 399.5,-131.5 399.5,-112.5 348.5,-112.5"/>
<text text-anchor="middle" x="374" y="-119.5" font-family="Helvetica,sans-Serif" font-size="10.00" fill="#000000">errno.h</text>
</a>
</g>
</g>
<!-- Node1&#45;&gt;Node5 -->
<g id="edge4" class="edge">
<title>Node1&#45;&gt;Node5</title>
<path fill="none" stroke="#191970" d="M585.8936,-168.4666C540.6165,-160.4341 475.1022,-148.0499 409.6312,-132.2491"/>
<polygon fill="#191970" stroke="#191970" points="410.0962,-128.7599 399.5514,-129.7888 408.4363,-135.5603 410.0962,-128.7599"/>
</g>
<!-- Node6 -->
<g id="node6" class="node">
<title>Node6</title>
<g id="a_node6"><a xlink:title=" ">
<polygon fill="#ffffff" stroke="#bfbfbf" points="417.5,-112.5 417.5,-131.5 470.5,-131.5 470.5,-112.5 417.5,-112.5"/>
<text text-anchor="middle" x="444" y="-119.5" font-family="Helvetica,sans-Serif" font-size="10.00" fill="#000000">string.h</text>
</a>
</g>
</g>
<!-- Node1&#45;&gt;Node6 -->
<g id="edge5" class="edge">
<title>Node1&#45;&gt;Node6</title>
<path fill="none" stroke="#191970" d="M607.9621,-168.4289C577.0415,-159.7266 529.9066,-146.442 480.6301,-132.4577"/>
<polygon fill="#191970" stroke="#191970" points="481.3262,-129.017 470.7505,-129.6526 479.4143,-135.7509 481.3262,-129.017"/>
</g>
<!-- Node7 -->
<g id="node7" class="node">
<title>Node7</title>
<g id="a_node7"><a xlink:href="kernel_8h.html" target="_top" xlink:title=" ">
<polygon fill="#ffffff" stroke="#000000" points="178,-112.5 178,-131.5 234,-131.5 234,-112.5 178,-112.5"/>
<text text-anchor="middle" x="206" y="-119.5" font-family="Helvetica,sans-Serif" font-size="10.00" fill="#000000">kernel.h</text>
</a>
</g>
</g>
<!-- Node1&#45;&gt;Node7 -->
<g id="edge6" class="edge">
<title>Node1&#45;&gt;Node7</title>
<path fill="none" stroke="#191970" d="M578.3255,-173.6043C501.2844,-167.6294 367.5616,-155.1587 244.1806,-131.9876"/>
<polygon fill="#191970" stroke="#191970" points="244.6593,-128.5159 234.1808,-130.0814 243.3485,-135.392 244.6593,-128.5159"/>
</g>
<!-- Node10 -->
<g id="node10" class="node">
<title>Node10</title>
<g id="a_node10"><a xlink:href="tamtypes_8h.html" target="_top" xlink:title=" ">
<polygon fill="#ffffff" stroke="#000000" points="246,-.5 246,-19.5 318,-19.5 318,-.5 246,-.5"/>
<text text-anchor="middle" x="282" y="-7.5" font-family="Helvetica,sans-Serif" font-size="10.00" fill="#000000">tamtypes.h</text>
</a>
</g>
</g>
<!-- Node1&#45;&gt;Node10 -->
<g id="edge23" class="edge">
<title>Node1&#45;&gt;Node10</title>
<path fill="none" stroke="#191970" d="M578.3875,-175.303C500.9102,-170.8495 375.802,-159.5264 339,-132 305.4339,-106.894 290.9255,-57.1107 285.2448,-29.5323"/>
<polygon fill="#191970" stroke="#191970" points="288.6512,-28.7067 283.3728,-19.5204 281.7705,-29.9933 288.6512,-28.7067"/>
</g>
<!-- Node11 -->
<g id="node11" class="node">
<title>Node11</title>
<g id="a_node11"><a xlink:title=" ">
<polygon fill="#ffffff" stroke="#bfbfbf" points="488.5,-112.5 488.5,-131.5 547.5,-131.5 547.5,-112.5 488.5,-112.5"/>
<text text-anchor="middle" x="518" y="-119.5" font-family="Helvetica,sans-Serif" font-size="10.00" fill="#000000">malloc.h</text>
</a>
</g>
</g>
<!-- Node1&#45;&gt;Node11 -->
<g id="edge11" class="edge">
<title>Node1&#45;&gt;Node11</title>
<path fill="none" stroke="#191970" d="M620.6836,-168.3733C600.7784,-159.3838 570.8564,-145.8706 548.44,-135.7471"/>
<polygon fill="#191970" stroke="#191970" points="549.5925,-132.4272 539.0382,-131.5011 546.7113,-138.8068 549.5925,-132.4272"/>
</g>
<!-- Node12 -->
<g id="node12" class="node">
<title>Node12</title>
<g id="a_node12"><a xlink:href="sio_8h.html" target="_top" xlink:title=" ">
<polygon fill="#ffffff" stroke="#000000" points="252,-112.5 252,-131.5 292,-131.5 292,-112.5 252,-112.5"/>
<text text-anchor="middle" x="272" y="-119.5" font-family="Helvetica,sans-Serif" font-size="10.00" fill="#000000">sio.h</text>
</a>
</g>
</g>
<!-- Node1&#45;&gt;Node12 -->
<g id="edge12" class="edge">
<title>Node1&#45;&gt;Node12</title>
<path fill="none" stroke="#191970" d="M578.3423,-172.1584C510.3992,-165.2564 399.8407,-152.105 306,-132 304.714,-131.7245 303.4058,-131.4253 302.0879,-131.1082"/>
<polygon fill="#191970" stroke="#191970" points="302.5717,-127.6152 292.008,-128.4263 300.7718,-134.3799 302.5717,-127.6152"/>
</g>
<!-- Node13 -->
<g id="node13" class="node">
<title>Node13</title>
<g id="a_node13"><a xlink:title=" ">
<polygon fill="#ffffff" stroke="#bfbfbf" points="566,-112.5 566,-131.5 614,-131.5 614,-112.5 566,-112.5"/>
<text text-anchor="middle" x="590" y="-119.5" font-family="Helvetica,sans-Serif" font-size="10.00" fill="#000000">time.h</text>
</a>
</g>
</g>
<!-- Node1&#45;&gt;Node13 -->
<g id="edge15" class="edge">
<title>Node1&#45;&gt;Node13</title>
<path fill="none" stroke="#191970" d="M632.9423,-168.2455C625.4858,-160.2155 614.7366,-148.6394 605.8583,-139.0781"/>
<polygon fill="#191970" stroke="#191970" points="608.3232,-136.589 598.9539,-131.6427 603.1937,-141.3522 608.3232,-136.589"/>
</g>
<!-- Node14 -->
<g id="node14" class="node">
<title>Node14</title>
<g id="a_node14"><a xlink:title=" ">
<polygon fill="#ffffff" stroke="#bfbfbf" points="638,-56.5 638,-75.5 706,-75.5 706,-56.5 638,-56.5"/>
<text text-anchor="middle" x="672" y="-63.5" font-family="Helvetica,sans-Serif" font-size="10.00" fill="#000000">sys/time.h</text>
</a>
</g>
</g>
<!-- Node1&#45;&gt;Node14 -->
<g id="edge16" class="edge">
<title>Node1&#45;&gt;Node14</title>
<path fill="none" stroke="#191970" d="M644.5578,-168.4509C649.4729,-150.1013 660.3239,-109.5908 666.8118,-85.3693"/>
<polygon fill="#191970" stroke="#191970" points="670.2421,-86.09 669.4487,-75.5249 663.4804,-84.2788 670.2421,-86.09"/>
</g>
<!-- Node15 -->
<g id="node15" class="node">
<title>Node15</title>
<g id="a_node15"><a xlink:title=" ">
<polygon fill="#ffffff" stroke="#bfbfbf" points="753.5,-112.5 753.5,-131.5 826.5,-131.5 826.5,-112.5 753.5,-112.5"/>
<text text-anchor="middle" x="790" y="-119.5" font-family="Helvetica,sans-Serif" font-size="10.00" fill="#000000">sys/times.h</text>
</a>
</g>
</g>
<!-- Node1&#45;&gt;Node15 -->
<g id="edge17" class="edge">
<title>Node1&#45;&gt;Node15</title>
<path fill="none" stroke="#191970" d="M667.4421,-168.3733C691.7326,-159.1822 728.5208,-145.2624 755.4543,-135.0713"/>
<polygon fill="#191970" stroke="#191970" points="756.7757,-138.3136 764.8899,-131.5011 754.2984,-131.7666 756.7757,-138.3136"/>
</g>
<!-- Node16 -->
<g id="node16" class="node">
<title>Node16</title>
<g id="a_node16"><a xlink:title=" ">
<polygon fill="#ffffff" stroke="#bfbfbf" points="812,-56.5 812,-75.5 876,-75.5 876,-56.5 812,-56.5"/>
<text text-anchor="middle" x="844" y="-63.5" font-family="Helvetica,sans-Serif" font-size="10.00" fill="#000000">sys/stat.h</text>
</a>
</g>
</g>
<!-- Node1&#45;&gt;Node16 -->
<g id="edge18" class="edge">
<title>Node1&#45;&gt;Node16</title>
<path fill="none" stroke="#191970" d="M705.9344,-170.5758C755.2153,-163.4797 817.7691,-151.0166 835,-132 846.1379,-119.7078 847.6201,-100.4704 846.7701,-85.9295"/>
<polygon fill="#191970" stroke="#191970" points="850.2477,-85.5283 845.7869,-75.9183 843.2812,-86.2126 850.2477,-85.5283"/>
</g>
<!-- Node17 -->
<g id="node17" class="node">
<title>Node17</title>
<g id="a_node17"><a xlink:title=" ">
<polygon fill="#ffffff" stroke="#bfbfbf" points="1015,-112.5 1015,-131.5 1087,-131.5 1087,-112.5 1015,-112.5"/>
<text text-anchor="middle" x="1051" y="-119.5" font-family="Helvetica,sans-Serif" font-size="10.00" fill="#000000">sys/types.h</text>
</a>
</g>
</g>
<!-- Node1&#45;&gt;Node17 -->
<g id="edge19" class="edge">
<title>Node1&#45;&gt;Node17</title>
<path fill="none" stroke="#191970" d="M705.7476,-171.1954C777.6747,-163.2013 898.0651,-148.867 1001,-132 1002.2531,-131.7947 1003.5227,-131.581 1004.8031,-131.3604"/>
<polygon fill="#191970" stroke="#191970" points="1005.5168,-134.7882 1014.7335,-129.563 1004.27,-127.9001 1005.5168,-134.7882"/>
</g>
<!-- Node18 -->
<g id="node18" class="node">
<title>Node18</title>
<g id="a_node18"><a xlink:title=" ">
<polygon fill="#ffffff" stroke="#bfbfbf" points="1105.5,-112.5 1105.5,-131.5 1158.5,-131.5 1158.5,-112.5 1105.5,-112.5"/>
<text text-anchor="middle" x="1132" y="-119.5" font-family="Helvetica,sans-Serif" font-size="10.00" fill="#000000">stdint.h</text>
</a>
</g>
</g>
<!-- Node1&#45;&gt;Node18 -->
<g id="edge20" class="edge">
<title>Node1&#45;&gt;Node18</title>
<path fill="none" stroke="#191970" d="M705.6495,-174.9688C791.9333,-170.1032 950.8516,-158.4648 1095.4395,-131.799"/>
<polygon fill="#191970" stroke="#191970" points="1096.1975,-135.218 1105.3823,-129.937 1094.9089,-128.3376 1096.1975,-135.218"/>
</g>
<!-- Node19 -->
<g id="node19" class="node">
<title>Node19</title>
<g id="a_node19"><a xlink:title=" ">
<polygon fill="#ffffff" stroke="#bfbfbf" points="1176.5,-112.5 1176.5,-131.5 1229.5,-131.5 1229.5,-112.5 1176.5,-112.5"/>
<text text-anchor="middle" x="1203" y="-119.5" font-family="Helvetica,sans-Serif" font-size="10.00" fill="#000000">limits.h</text>
</a>
</g>
</g>
<!-- Node1&#45;&gt;Node19 -->
<g id="edge21" class="edge">
<title>Node1&#45;&gt;Node19</title>
<path fill="none" stroke="#191970" d="M705.6803,-176.3494C803.2414,-172.9601 995.5398,-162.8827 1166.4438,-131.9979"/>
<polygon fill="#191970" stroke="#191970" points="1167.168,-135.4235 1176.3718,-130.1756 1165.9043,-128.5385 1167.168,-135.4235"/>
</g>
<!-- Node20 -->
<g id="node20" class="node">
<title>Node20</title>
<g id="a_node20"><a xlink:title=" ">
<polygon fill="#ffffff" stroke="#bfbfbf" points="966.5,-56.5 966.5,-75.5 1031.5,-75.5 1031.5,-56.5 966.5,-56.5"/>
<text text-anchor="middle" x="999" y="-63.5" font-family="Helvetica,sans-Serif" font-size="10.00" fill="#000000">inttypes.h</text>
</a>
</g>
</g>
<!-- Node1&#45;&gt;Node20 -->
<g id="edge22" class="edge">
<title>Node1&#45;&gt;Node20</title>
<path fill="none" stroke="#191970" d="M705.7549,-176.0832C788.6225,-172.4134 927.5336,-161.8739 968,-132 982.9158,-120.9886 990.9111,-100.9757 995.0224,-85.8643"/>
<polygon fill="#191970" stroke="#191970" points="998.4773,-86.463 997.3732,-75.9259 991.6653,-84.8517 998.4773,-86.463"/>
</g>
<!-- Node21 -->
<g id="node21" class="node">
<title>Node21</title>
<g id="a_node21"><a xlink:href="fileio_8h.html" target="_top" xlink:title=" ">
<polygon fill="#ffffff" stroke="#000000" points="1286,-112.5 1286,-131.5 1336,-131.5 1336,-112.5 1286,-112.5"/>
<text text-anchor="middle" x="1311" y="-119.5" font-family="Helvetica,sans-Serif" font-size="10.00" fill="#000000">fileio.h</text>
</a>
</g>
</g>
<!-- Node1&#45;&gt;Node21 -->
<g id="edge24" class="edge">
<title>Node1&#45;&gt;Node21</title>
<path fill="none" stroke="#191970" d="M705.9289,-177.0838C820.2385,-174.614 1066.9018,-165.508 1272,-132 1273.2805,-131.7908 1274.5804,-131.5594 1275.8901,-131.31"/>
<polygon fill="#191970" stroke="#191970" points="1276.936,-134.6644 1285.9639,-129.1195 1275.4486,-127.8243 1276.936,-134.6644"/>
</g>
<!-- Node22 -->
<g id="node22" class="node">
<title>Node22</title>
<g id="a_node22"><a xlink:href="io__common_8h.html" target="_top" xlink:title=" ">
<polygon fill="#ffffff" stroke="#000000" points="1242.5,-56.5 1242.5,-75.5 1325.5,-75.5 1325.5,-56.5 1242.5,-56.5"/>
<text text-anchor="middle" x="1284" y="-63.5" font-family="Helvetica,sans-Serif" font-size="10.00" fill="#000000">io_common.h</text>
</a>
</g>
</g>
<!-- Node1&#45;&gt;Node22 -->
<g id="edge28" class="edge">
<title>Node1&#45;&gt;Node22</title>
<path fill="none" stroke="#191970" d="M705.7583,-176.1912C850.2626,-171.6506 1193.7048,-158.2141 1239,-132 1257.1171,-121.515 1269.5138,-100.4504 1276.6375,-84.9266"/>
<polygon fill="#191970" stroke="#191970" points="1279.8719,-86.2645 1280.5646,-75.6923 1273.4302,-83.525 1279.8719,-86.2645"/>
</g>
<!-- Node25 -->
<g id="node25" class="node">
<title>Node25</title>
<g id="a_node25"><a xlink:href="iox__stat_8h.html" target="_top" xlink:title=" ">
<polygon fill="#ffffff" stroke="#000000" points="670.5,-112.5 670.5,-131.5 735.5,-131.5 735.5,-112.5 670.5,-112.5"/>
<text text-anchor="middle" x="703" y="-119.5" font-family="Helvetica,sans-Serif" font-size="10.00" fill="#000000">iox_stat.h</text>
</a>
</g>
</g>
<!-- Node1&#45;&gt;Node25 -->
<g id="edge29" class="edge">
<title>Node1&#45;&gt;Node25</title>
<path fill="none" stroke="#191970" d="M652.6254,-168.2455C661.5473,-160.0549 674.488,-148.1749 685.0192,-138.5069"/>
<polygon fill="#191970" stroke="#191970" points="687.4968,-140.9837 692.4964,-131.6427 682.7629,-135.8271 687.4968,-140.9837"/>
</g>
<!-- Node26 -->
<g id="node26" class="node">
<title>Node26</title>
<g id="a_node26"><a xlink:href="ps2sdkapi_8h.html" target="_top" xlink:title=" ">
<polygon fill="#ffffff" stroke="#000000" points="883.5,-112.5 883.5,-131.5 958.5,-131.5 958.5,-112.5 883.5,-112.5"/>
<text text-anchor="middle" x="921" y="-119.5" font-family="Helvetica,sans-Serif" font-size="10.00" fill="#000000">ps2sdkapi.h</text>
</a>
</g>
</g>
<!-- Node1&#45;&gt;Node26 -->
<g id="edge31" class="edge">
<title>Node1&#45;&gt;Node26</title>
<path fill="none" stroke="#191970" d="M689.6448,-168.4369C741.0047,-158.1281 822.2682,-141.8171 873.5517,-131.5237"/>
<polygon fill="#191970" stroke="#191970" points="874.2753,-134.9483 883.3909,-129.5488 872.8977,-128.0852 874.2753,-134.9483"/>
</g>
<!-- Node7&#45;&gt;Node4 -->
<g id="edge8" class="edge">
<title>Node7&#45;&gt;Node4</title>
<path fill="none" stroke="#191970" d="M183.3084,-112.3733C161.9289,-103.3032 129.6943,-89.6279 105.7638,-79.4755"/>
<polygon fill="#191970" stroke="#191970" points="106.9683,-76.1846 96.3955,-75.5011 104.2344,-82.6287 106.9683,-76.1846"/>
</g>
<!-- Node8 -->
<g id="node8" class="node">
<title>Node8</title>
<g id="a_node8"><a xlink:title=" ">
<polygon fill="#ffffff" stroke="#bfbfbf" points="198,-56.5 198,-75.5 254,-75.5 254,-56.5 198,-56.5"/>
<text text-anchor="middle" x="226" y="-63.5" font-family="Helvetica,sans-Serif" font-size="10.00" fill="#000000">stddef.h</text>
</a>
</g>
</g>
<!-- Node7&#45;&gt;Node8 -->
<g id="edge7" class="edge">
<title>Node7&#45;&gt;Node8</title>
<path fill="none" stroke="#191970" d="M209.4837,-112.2455C212.1508,-104.7776 215.9133,-94.2427 219.1737,-85.1137"/>
<polygon fill="#191970" stroke="#191970" points="222.4889,-86.2373 222.5562,-75.6427 215.8967,-83.8829 222.4889,-86.2373"/>
</g>
<!-- Node9 -->
<g id="node9" class="node">
<title>Node9</title>
<g id="a_node9"><a xlink:href="sifdma_8h.html" target="_top" xlink:title=" ">
<polygon fill="#ffffff" stroke="#000000" points="120.5,-56.5 120.5,-75.5 179.5,-75.5 179.5,-56.5 120.5,-56.5"/>
<text text-anchor="middle" x="150" y="-63.5" font-family="Helvetica,sans-Serif" font-size="10.00" fill="#000000">sifdma.h</text>
</a>
</g>
</g>
<!-- Node7&#45;&gt;Node9 -->
<g id="edge9" class="edge">
<title>Node7&#45;&gt;Node9</title>
<path fill="none" stroke="#191970" d="M196.2455,-112.2455C188.1352,-104.1352 176.4075,-92.4075 166.7919,-82.7919"/>
<polygon fill="#191970" stroke="#191970" points="169.1887,-80.2389 159.6427,-75.6427 164.2389,-85.1887 169.1887,-80.2389"/>
</g>
<!-- Node9&#45;&gt;Node10 -->
<g id="edge10" class="edge">
<title>Node9&#45;&gt;Node10</title>
<path fill="none" stroke="#191970" d="M172.6916,-56.3733C194.0711,-47.3032 226.3057,-33.6279 250.2362,-23.4755"/>
<polygon fill="#191970" stroke="#191970" points="251.7656,-26.6287 259.6045,-19.5011 249.0317,-20.1846 251.7656,-26.6287"/>
</g>
<!-- Node12&#45;&gt;Node8 -->
<g id="edge14" class="edge">
<title>Node12&#45;&gt;Node8</title>
<path fill="none" stroke="#191970" d="M263.9874,-112.2455C257.5232,-104.3761 248.2615,-93.101 240.5017,-83.6542"/>
<polygon fill="#191970" stroke="#191970" points="242.9727,-81.1484 233.9208,-75.6427 237.5636,-85.5916 242.9727,-81.1484"/>
</g>
<!-- Node12&#45;&gt;Node10 -->
<g id="edge13" class="edge">
<title>Node12&#45;&gt;Node10</title>
<path fill="none" stroke="#191970" d="M272.8526,-112.4509C274.4836,-94.184 278.0754,-53.9553 280.2413,-29.6976"/>
<polygon fill="#191970" stroke="#191970" points="283.7463,-29.7966 281.1496,-19.5249 276.774,-29.174 283.7463,-29.7966"/>
</g>
<!-- Node21&#45;&gt;Node22 -->
<g id="edge25" class="edge">
<title>Node21&#45;&gt;Node22</title>
<path fill="none" stroke="#191970" d="M1306.297,-112.2455C1302.6576,-104.6973 1297.5076,-94.0158 1293.0738,-84.8197"/>
<polygon fill="#191970" stroke="#191970" points="1296.1449,-83.1303 1288.6491,-75.6427 1289.8395,-86.1704 1296.1449,-83.1303"/>
</g>
<!-- Node23 -->
<g id="node23" class="node">
<title>Node23</title>
<g id="a_node23"><a xlink:title=" ">
<polygon fill="#ffffff" stroke="#bfbfbf" points="1205.5,-.5 1205.5,-19.5 1272.5,-19.5 1272.5,-.5 1205.5,-.5"/>
<text text-anchor="middle" x="1239" y="-7.5" font-family="Helvetica,sans-Serif" font-size="10.00" fill="#000000">sys/fcntl.h</text>
</a>
</g>
</g>
<!-- Node22&#45;&gt;Node23 -->
<g id="edge26" class="edge">
<title>Node22&#45;&gt;Node23</title>
<path fill="none" stroke="#191970" d="M1276.1616,-56.2455C1269.838,-48.3761 1260.7776,-37.101 1253.1864,-27.6542"/>
<polygon fill="#191970" stroke="#191970" points="1255.7408,-25.2454 1246.7486,-19.6427 1250.2842,-29.6302 1255.7408,-25.2454"/>
</g>
<!-- Node24 -->
<g id="node24" class="node">
<title>Node24</title>
<g id="a_node24"><a xlink:title=" ">
<polygon fill="#ffffff" stroke="#bfbfbf" points="1290.5,-.5 1290.5,-19.5 1365.5,-19.5 1365.5,-.5 1290.5,-.5"/>
<text text-anchor="middle" x="1328" y="-7.5" font-family="Helvetica,sans-Serif" font-size="10.00" fill="#000000">sys/unistd.h</text>
</a>
</g>
</g>
<!-- Node22&#45;&gt;Node24 -->
<g id="edge27" class="edge">
<title>Node22&#45;&gt;Node24</title>
<path fill="none" stroke="#191970" d="M1291.6642,-56.2455C1297.8473,-48.3761 1306.7063,-37.101 1314.1289,-27.6542"/>
<polygon fill="#191970" stroke="#191970" points="1316.9975,-29.6683 1320.4236,-19.6427 1311.4932,-25.3435 1316.9975,-29.6683"/>
</g>
<!-- Node25&#45;&gt;Node14 -->
<g id="edge30" class="edge">
<title>Node25&#45;&gt;Node14</title>
<path fill="none" stroke="#191970" d="M697.6002,-112.2455C693.3773,-104.617 687.3827,-93.7881 682.2559,-84.5267"/>
<polygon fill="#191970" stroke="#191970" points="685.2432,-82.6965 677.3379,-75.6427 679.119,-86.0867 685.2432,-82.6965"/>
</g>
<!-- Node26&#45;&gt;Node16 -->
<g id="edge34" class="edge">
<title>Node26&#45;&gt;Node16</title>
<path fill="none" stroke="#191970" d="M907.5876,-112.2455C895.9943,-103.814 879.0252,-91.4729 865.5322,-81.6598"/>
<polygon fill="#191970" stroke="#191970" points="867.4047,-78.6938 857.2587,-75.6427 863.2874,-84.355 867.4047,-78.6938"/>
</g>
<!-- Node26&#45;&gt;Node20 -->
<g id="edge33" class="edge">
<title>Node26&#45;&gt;Node20</title>
<path fill="none" stroke="#191970" d="M934.5866,-112.2455C946.3305,-103.814 963.5199,-91.4729 977.1882,-81.6598"/>
<polygon fill="#191970" stroke="#191970" points="979.4871,-84.3179 985.5691,-75.6427 975.4046,-78.6316 979.4871,-84.3179"/>
</g>
<!-- Node27 -->
<g id="node27" class="node">
<title>Node27</title>
<g id="a_node27"><a xlink:title=" ">
<polygon fill="#ffffff" stroke="#bfbfbf" points="894,-56.5 894,-75.5 948,-75.5 948,-56.5 894,-56.5"/>
<text text-anchor="middle" x="921" y="-63.5" font-family="Helvetica,sans-Serif" font-size="10.00" fill="#000000">dirent.h</text>
</a>
</g>
</g>
<!-- Node26&#45;&gt;Node27 -->
<g id="edge32" class="edge">
<title>Node26&#45;&gt;Node27</title>
<path fill="none" stroke="#191970" d="M921,-112.2455C921,-104.9382 921,-94.6944 921,-85.7046"/>
<polygon fill="#191970" stroke="#191970" points="924.5001,-85.6426 921,-75.6427 917.5001,-85.6427 924.5001,-85.6426"/>
</g>
</g>
</svg>
        <g id="navigator" transform="translate(0 0)" fill="#404254">
                <rect fill="#f2f5e9" fill-opacity="0.5" stroke="#606060" stroke-width=".5" x="0" y="0" width="60" height="60"/>
                <use id="zoomplus" xlink:href="#zoomPlus" x="17" y="9" onmousedown="handleZoom(evt,'in')"/>
                <use id="zoomminus" xlink:href="#zoomMin" x="42" y="9" onmousedown="handleZoom(evt,'out')"/>
                <use id="reset" xlink:href="#resetDef" x="30" y="36" onmousedown="handleReset()"/>
                <g id="arrowUp" xlink:href="#dirArrow" transform="translate(30 24)" onmousedown="handlePan(0,-1)">
                  <use xlink:href="#rim" fill="#404040">
                        <set attributeName="fill" to="#808080" begin="arrowUp.mouseover" end="arrowUp.mouseout"/>
                  </use>
                  <path fill="none" stroke="white" stroke-width="1.5" d="M0,-3.0v7 M-2.5,-0.5L0,-3.0L2.5,-0.5"/>
                </g>
                <g id="arrowRight" xlink:href="#dirArrow" transform="rotate(90) translate(36 -43)" onmousedown="handlePan(1,0)">
                  <use xlink:href="#rim" fill="#404040">
                        <set attributeName="fill" to="#808080" begin="arrowRight.mouseover" end="arrowRight.mouseout"/>
                  </use>
                  <path fill="none" stroke="white" stroke-width="1.5" d="M0,-3.0v7 M-2.5,-0.5L0,-3.0L2.5,-0.5"/>
                </g>
                <g id="arrowDown" xlink:href="#dirArrow" transform="rotate(180) translate(-30 -48)" onmousedown="handlePan(0,1)">
                  <use xlink:href="#rim" fill="#404040">
                        <set attributeName="fill" to="#808080" begin="arrowDown.mouseover" end="arrowDown.mouseout"/>
                  </use>
                  <path fill="none" stroke="white" stroke-width="1.5" d="M0,-3.0v7 M-2.5,-0.5L0,-3.0L2.5,-0.5"/>
                </g>
                <g id="arrowLeft" xlink:href="#dirArrow" transform="rotate(270) translate(-36 17)" onmousedown="handlePan(-1,0)">
                  <use xlink:href="#rim" fill="#404040">
                        <set attributeName="fill" to="#808080" begin="arrowLeft.mouseover" end="arrowLeft.mouseout"/>
                  </use>
                  <path fill="none" stroke="white" stroke-width="1.5" d="M0,-3.0v7 M-2.5,-0.5L0,-3.0L2.5,-0.5"/>
                </g>
        </g>
        <svg viewBox="0 0 15 15" width="100%" height="30px" preserveAspectRatio="xMaxYMin meet">
         <g id="arrow_out" transform="scale(0.3 0.3)">
          <a xlink:href="ps2sdkapi_8c__incl_org.svg" target="_base">
           <rect id="button" ry="5" rx="5" y="6" x="6" height="38" width="38"
                fill="#f2f5e9" fill-opacity="0.5" stroke="#606060" stroke-width="1.0"/>
           <path id="arrow"
             d="M 11.500037,31.436501 C 11.940474,20.09759 22.043105,11.32322 32.158766,21.979434 L 37.068811,17.246167 C 37.068811,17.246167 37.088388,32 37.088388,32 L 22.160133,31.978069 C 22.160133,31.978069 26.997745,27.140456 26.997745,27.140456 C 18.528582,18.264221 13.291696,25.230495 11.500037,31.436501 z"
             style="fill:#404040;"/>
          </a>
         </g>
        </svg>
</svg>
