<?xml version="1.0" encoding="UTF-8" standalone="no"?>
<!DOCTYPE svg PUBLIC "-//W3C//DTD SVG 1.1//EN"
 "http://www.w3.org/Graphics/SVG/1.1/DTD/svg11.dtd">
<!-- Generated by graphviz version 2.40.1 (20161225.0304)
 -->
<!-- Title: ee/rpc/ps2snd/src/ps2snd.c Pages: 1 -->
<svg width="425pt" height="252pt"
 viewBox="0.00 0.00 424.50 252.00" xmlns="http://www.w3.org/2000/svg" xmlns:xlink="http://www.w3.org/1999/xlink">
<g id="graph0" class="graph" transform="scale(1 1) rotate(0) translate(4 248)">
<title>ee/rpc/ps2snd/src/ps2snd.c</title>
<polygon fill="#ffffff" stroke="transparent" points="-4,4 -4,-248 420.5,-248 420.5,4 -4,4"/>
<!-- Node1 -->
<g id="node1" class="node">
<title>Node1</title>
<g id="a_node1"><a xlink:title=" ">
<polygon fill="#bfbfbf" stroke="#000000" points="114.5,-224.5 114.5,-243.5 261.5,-243.5 261.5,-224.5 114.5,-224.5"/>
<text text-anchor="middle" x="188" y="-231.5" font-family="Helvetica,sans-Serif" font-size="10.00" fill="#000000">ee/rpc/ps2snd/src/ps2snd.c</text>
</a>
</g>
</g>
<!-- Node2 -->
<g id="node2" class="node">
<title>Node2</title>
<g id="a_node2"><a xlink:title=" ">
<polygon fill="#ffffff" stroke="#bfbfbf" points="2.5,-168.5 2.5,-187.5 55.5,-187.5 55.5,-168.5 2.5,-168.5"/>
<text text-anchor="middle" x="29" y="-175.5" font-family="Helvetica,sans-Serif" font-size="10.00" fill="#000000">string.h</text>
</a>
</g>
</g>
<!-- Node1&#45;&gt;Node2 -->
<g id="edge1" class="edge">
<title>Node1&#45;&gt;Node2</title>
<path fill="none" stroke="#191970" d="M160.6669,-224.3733C134.3771,-215.114 94.4606,-201.0553 65.4701,-190.8448"/>
<polygon fill="#191970" stroke="#191970" points="66.3066,-187.4287 55.7118,-187.4079 63.9811,-194.0312 66.3066,-187.4287"/>
</g>
<!-- Node3 -->
<g id="node3" class="node">
<title>Node3</title>
<g id="a_node3"><a xlink:href="kernel_8h.html" target="_top" xlink:title=" ">
<polygon fill="#ffffff" stroke="#000000" points="74,-168.5 74,-187.5 130,-187.5 130,-168.5 74,-168.5"/>
<text text-anchor="middle" x="102" y="-175.5" font-family="Helvetica,sans-Serif" font-size="10.00" fill="#000000">kernel.h</text>
</a>
</g>
</g>
<!-- Node1&#45;&gt;Node3 -->
<g id="edge2" class="edge">
<title>Node1&#45;&gt;Node3</title>
<path fill="none" stroke="#191970" d="M173.0199,-224.2455C159.8249,-215.6534 140.3949,-203.0014 125.1921,-193.1018"/>
<polygon fill="#191970" stroke="#191970" points="127.0983,-190.1665 116.8084,-187.6427 123.2785,-196.0325 127.0983,-190.1665"/>
</g>
<!-- Node8 -->
<g id="node8" class="node">
<title>Node8</title>
<g id="a_node8"><a xlink:href="sifrpc_8h.html" target="_top" xlink:title=" ">
<polygon fill="#ffffff" stroke="#000000" points="197.5,-112.5 197.5,-131.5 250.5,-131.5 250.5,-112.5 197.5,-112.5"/>
<text text-anchor="middle" x="224" y="-119.5" font-family="Helvetica,sans-Serif" font-size="10.00" fill="#000000">sifrpc.h</text>
</a>
</g>
</g>
<!-- Node1&#45;&gt;Node8 -->
<g id="edge7" class="edge">
<title>Node1&#45;&gt;Node8</title>
<path fill="none" stroke="#191970" d="M183.1269,-224.2137C177.2459,-210.9742 169.0747,-186.8462 177,-168 181.9978,-156.1153 191.7314,-145.765 201.0503,-137.908"/>
<polygon fill="#191970" stroke="#191970" points="203.2957,-140.5951 209.0035,-131.6692 198.9752,-135.0874 203.2957,-140.5951"/>
</g>
<!-- Node10 -->
<g id="node10" class="node">
<title>Node10</title>
<g id="a_node10"><a xlink:href="iopheap_8h.html" target="_top" xlink:title=" ">
<polygon fill="#ffffff" stroke="#000000" points="186.5,-168.5 186.5,-187.5 251.5,-187.5 251.5,-168.5 186.5,-168.5"/>
<text text-anchor="middle" x="219" y="-175.5" font-family="Helvetica,sans-Serif" font-size="10.00" fill="#000000">iopheap.h</text>
</a>
</g>
</g>
<!-- Node1&#45;&gt;Node10 -->
<g id="edge10" class="edge">
<title>Node1&#45;&gt;Node10</title>
<path fill="none" stroke="#191970" d="M193.3998,-224.2455C197.6227,-216.617 203.6173,-205.7881 208.7441,-196.5267"/>
<polygon fill="#191970" stroke="#191970" points="211.881,-198.0867 213.6621,-187.6427 205.7568,-194.6965 211.881,-198.0867"/>
</g>
<!-- Node11 -->
<g id="node11" class="node">
<title>Node11</title>
<g id="a_node11"><a xlink:title=" ">
<polygon fill="#ffffff" stroke="#bfbfbf" points="270,-168.5 270,-187.5 320,-187.5 320,-168.5 270,-168.5"/>
<text text-anchor="middle" x="295" y="-175.5" font-family="Helvetica,sans-Serif" font-size="10.00" fill="#000000">stdio.h</text>
</a>
</g>
</g>
<!-- Node1&#45;&gt;Node11 -->
<g id="edge11" class="edge">
<title>Node1&#45;&gt;Node11</title>
<path fill="none" stroke="#191970" d="M206.638,-224.2455C223.4386,-215.4527 248.3634,-202.4079 267.4618,-192.4125"/>
<polygon fill="#191970" stroke="#191970" points="269.3386,-195.3807 276.5756,-187.6427 266.0927,-189.1787 269.3386,-195.3807"/>
</g>
<!-- Node12 -->
<g id="node12" class="node">
<title>Node12</title>
<g id="a_node12"><a xlink:href="ps2snd_8h.html" target="_top" xlink:title=" ">
<polygon fill="#ffffff" stroke="#000000" points="338,-168.5 338,-187.5 398,-187.5 398,-168.5 338,-168.5"/>
<text text-anchor="middle" x="368" y="-175.5" font-family="Helvetica,sans-Serif" font-size="10.00" fill="#000000">ps2snd.h</text>
</a>
</g>
</g>
<!-- Node1&#45;&gt;Node12 -->
<g id="edge12" class="edge">
<title>Node1&#45;&gt;Node12</title>
<path fill="none" stroke="#191970" d="M218.9431,-224.3733C249.095,-214.9927 295.0803,-200.6861 327.9965,-190.4455"/>
<polygon fill="#191970" stroke="#191970" points="329.2515,-193.7206 337.7603,-187.4079 327.1719,-187.0366 329.2515,-193.7206"/>
</g>
<!-- Node4 -->
<g id="node4" class="node">
<title>Node4</title>
<g id="a_node4"><a xlink:title=" ">
<polygon fill="#ffffff" stroke="#bfbfbf" points="0,-112.5 0,-131.5 56,-131.5 56,-112.5 0,-112.5"/>
<text text-anchor="middle" x="28" y="-119.5" font-family="Helvetica,sans-Serif" font-size="10.00" fill="#000000">stddef.h</text>
</a>
</g>
</g>
<!-- Node3&#45;&gt;Node4 -->
<g id="edge3" class="edge">
<title>Node3&#45;&gt;Node4</title>
<path fill="none" stroke="#191970" d="M89.1102,-168.2455C78.0746,-159.8943 61.9708,-147.7076 49.0647,-137.9408"/>
<polygon fill="#191970" stroke="#191970" points="50.8283,-134.8862 40.7421,-131.6427 46.6041,-140.4681 50.8283,-134.8862"/>
</g>
<!-- Node5 -->
<g id="node5" class="node">
<title>Node5</title>
<g id="a_node5"><a xlink:title=" ">
<polygon fill="#ffffff" stroke="#bfbfbf" points="74,-112.5 74,-131.5 130,-131.5 130,-112.5 74,-112.5"/>
<text text-anchor="middle" x="102" y="-119.5" font-family="Helvetica,sans-Serif" font-size="10.00" fill="#000000">stdarg.h</text>
</a>
</g>
</g>
<!-- Node3&#45;&gt;Node5 -->
<g id="edge4" class="edge">
<title>Node3&#45;&gt;Node5</title>
<path fill="none" stroke="#191970" d="M102,-168.2455C102,-160.9382 102,-150.6944 102,-141.7046"/>
<polygon fill="#191970" stroke="#191970" points="105.5001,-141.6426 102,-131.6427 98.5001,-141.6427 105.5001,-141.6426"/>
</g>
<!-- Node6 -->
<g id="node6" class="node">
<title>Node6</title>
<g id="a_node6"><a xlink:href="sifdma_8h.html" target="_top" xlink:title=" ">
<polygon fill="#ffffff" stroke="#000000" points="128.5,-56.5 128.5,-75.5 187.5,-75.5 187.5,-56.5 128.5,-56.5"/>
<text text-anchor="middle" x="158" y="-63.5" font-family="Helvetica,sans-Serif" font-size="10.00" fill="#000000">sifdma.h</text>
</a>
</g>
</g>
<!-- Node3&#45;&gt;Node6 -->
<g id="edge5" class="edge">
<title>Node3&#45;&gt;Node6</title>
<path fill="none" stroke="#191970" d="M111.804,-168.2386C120.1241,-159.4506 131.8222,-145.8263 139,-132 146.5541,-117.4489 151.4747,-99.4888 154.4115,-85.9794"/>
<polygon fill="#191970" stroke="#191970" points="157.9079,-86.3416 156.426,-75.851 151.0424,-84.976 157.9079,-86.3416"/>
</g>
<!-- Node7 -->
<g id="node7" class="node">
<title>Node7</title>
<g id="a_node7"><a xlink:href="tamtypes_8h.html" target="_top" xlink:title=" ">
<polygon fill="#ffffff" stroke="#000000" points="228,-.5 228,-19.5 300,-19.5 300,-.5 228,-.5"/>
<text text-anchor="middle" x="264" y="-7.5" font-family="Helvetica,sans-Serif" font-size="10.00" fill="#000000">tamtypes.h</text>
</a>
</g>
</g>
<!-- Node6&#45;&gt;Node7 -->
<g id="edge6" class="edge">
<title>Node6&#45;&gt;Node7</title>
<path fill="none" stroke="#191970" d="M176.4638,-56.2455C193.1074,-47.4527 217.7993,-34.4079 236.7192,-24.4125"/>
<polygon fill="#191970" stroke="#191970" points="238.5408,-27.4086 245.7478,-19.6427 235.2709,-21.2193 238.5408,-27.4086"/>
</g>
<!-- Node9 -->
<g id="node9" class="node">
<title>Node9</title>
<g id="a_node9"><a xlink:href="sifcmd_8h.html" target="_top" xlink:title=" ">
<polygon fill="#ffffff" stroke="#000000" points="205.5,-56.5 205.5,-75.5 264.5,-75.5 264.5,-56.5 205.5,-56.5"/>
<text text-anchor="middle" x="235" y="-63.5" font-family="Helvetica,sans-Serif" font-size="10.00" fill="#000000">sifcmd.h</text>
</a>
</g>
</g>
<!-- Node8&#45;&gt;Node9 -->
<g id="edge8" class="edge">
<title>Node8&#45;&gt;Node9</title>
<path fill="none" stroke="#191970" d="M225.9161,-112.2455C227.3514,-104.9382 229.3636,-94.6944 231.1295,-85.7046"/>
<polygon fill="#191970" stroke="#191970" points="234.6127,-86.1298 233.1059,-75.6427 227.744,-84.7805 234.6127,-86.1298"/>
</g>
<!-- Node9&#45;&gt;Node7 -->
<g id="edge9" class="edge">
<title>Node9&#45;&gt;Node7</title>
<path fill="none" stroke="#191970" d="M240.0514,-56.2455C244.0019,-48.617 249.6097,-37.7881 254.4058,-28.5267"/>
<polygon fill="#191970" stroke="#191970" points="257.5159,-30.1321 259.0065,-19.6427 251.2999,-26.9131 257.5159,-30.1321"/>
</g>
<!-- Node12&#45;&gt;Node7 -->
<g id="edge13" class="edge">
<title>Node12&#45;&gt;Node7</title>
<path fill="none" stroke="#191970" d="M360.3679,-168.3634C353.2452,-159.2139 342.4733,-144.9695 334,-132 310.7574,-96.4241 286.7675,-52.8396 273.7867,-28.5742"/>
<polygon fill="#191970" stroke="#191970" points="276.8627,-26.904 269.079,-19.7162 270.6814,-30.1891 276.8627,-26.904"/>
</g>
<!-- Node13 -->
<g id="node13" class="node">
<title>Node13</title>
<g id="a_node13"><a xlink:href="libsd_8h.html" target="_top" xlink:title=" ">
<polygon fill="#ffffff" stroke="#000000" points="343.5,-112.5 343.5,-131.5 392.5,-131.5 392.5,-112.5 343.5,-112.5"/>
<text text-anchor="middle" x="368" y="-119.5" font-family="Helvetica,sans-Serif" font-size="10.00" fill="#000000">libsd.h</text>
</a>
</g>
</g>
<!-- Node12&#45;&gt;Node13 -->
<g id="edge14" class="edge">
<title>Node12&#45;&gt;Node13</title>
<path fill="none" stroke="#191970" d="M368,-168.2455C368,-160.9382 368,-150.6944 368,-141.7046"/>
<polygon fill="#191970" stroke="#191970" points="371.5001,-141.6426 368,-131.6427 364.5001,-141.6427 371.5001,-141.6426"/>
</g>
<!-- Node14 -->
<g id="node14" class="node">
<title>Node14</title>
<g id="a_node14"><a xlink:href="libsd-common_8h.html" target="_top" xlink:title=" ">
<polygon fill="#ffffff" stroke="#000000" points="321.5,-56.5 321.5,-75.5 416.5,-75.5 416.5,-56.5 321.5,-56.5"/>
<text text-anchor="middle" x="369" y="-63.5" font-family="Helvetica,sans-Serif" font-size="10.00" fill="#000000">libsd&#45;common.h</text>
</a>
</g>
</g>
<!-- Node13&#45;&gt;Node14 -->
<g id="edge15" class="edge">
<title>Node13&#45;&gt;Node14</title>
<path fill="none" stroke="#191970" d="M368.1742,-112.2455C368.3047,-104.9382 368.4876,-94.6944 368.6481,-85.7046"/>
<polygon fill="#191970" stroke="#191970" points="372.1486,-85.7036 368.8278,-75.6427 365.1497,-85.5786 372.1486,-85.7036"/>
</g>
<!-- Node14&#45;&gt;Node7 -->
<g id="edge16" class="edge">
<title>Node14&#45;&gt;Node7</title>
<path fill="none" stroke="#191970" d="M350.7104,-56.2455C334.2238,-47.4527 309.7648,-34.4079 291.0235,-24.4125"/>
<polygon fill="#191970" stroke="#191970" points="292.5506,-21.2604 282.08,-19.6427 289.2565,-27.4368 292.5506,-21.2604"/>
</g>
</g>
</svg>
