<?xml version="1.0" encoding="UTF-8" standalone="no"?>
<!DOCTYPE svg PUBLIC "-//W3C//DTD SVG 1.1//EN"
 "http://www.w3.org/Graphics/SVG/1.1/DTD/svg11.dtd">
<!-- Generated by graphviz version 2.40.1 (20161225.0304)
 -->
<!-- Title: ee/erl/src/recycle.c Pages: 1 -->
<svg width="314pt" height="196pt"
 viewBox="0.00 0.00 313.50 196.00" xmlns="http://www.w3.org/2000/svg" xmlns:xlink="http://www.w3.org/1999/xlink">
<g id="graph0" class="graph" transform="scale(1 1) rotate(0) translate(4 192)">
<title>ee/erl/src/recycle.c</title>
<polygon fill="#ffffff" stroke="transparent" points="-4,4 -4,-192 309.5,-192 309.5,4 -4,4"/>
<!-- Node1 -->
<g id="node1" class="node">
<title>Node1</title>
<g id="a_node1"><a xlink:title=" ">
<polygon fill="#bfbfbf" stroke="#000000" points="75.5,-168.5 75.5,-187.5 183.5,-187.5 183.5,-168.5 75.5,-168.5"/>
<text text-anchor="middle" x="129.5" y="-175.5" font-family="Helvetica,sans-Serif" font-size="10.00" fill="#000000">ee/erl/src/recycle.c</text>
</a>
</g>
</g>
<!-- Node2 -->
<g id="node2" class="node">
<title>Node2</title>
<g id="a_node2"><a xlink:title=" ">
<polygon fill="#ffffff" stroke="#bfbfbf" points="0,-112.5 0,-131.5 53,-131.5 53,-112.5 0,-112.5"/>
<text text-anchor="middle" x="26.5" y="-119.5" font-family="Helvetica,sans-Serif" font-size="10.00" fill="#000000">string.h</text>
</a>
</g>
</g>
<!-- Node1&#45;&gt;Node2 -->
<g id="edge1" class="edge">
<title>Node1&#45;&gt;Node2</title>
<path fill="none" stroke="#191970" d="M111.5588,-168.2455C95.46,-159.4928 71.6121,-146.527 53.2609,-136.5496"/>
<polygon fill="#191970" stroke="#191970" points="54.6929,-133.3444 44.2356,-131.6427 51.3493,-139.4942 54.6929,-133.3444"/>
</g>
<!-- Node3 -->
<g id="node3" class="node">
<title>Node3</title>
<g id="a_node3"><a xlink:title=" ">
<polygon fill="#ffffff" stroke="#bfbfbf" points="71,-112.5 71,-131.5 130,-131.5 130,-112.5 71,-112.5"/>
<text text-anchor="middle" x="100.5" y="-119.5" font-family="Helvetica,sans-Serif" font-size="10.00" fill="#000000">malloc.h</text>
</a>
</g>
</g>
<!-- Node1&#45;&gt;Node3 -->
<g id="edge2" class="edge">
<title>Node1&#45;&gt;Node3</title>
<path fill="none" stroke="#191970" d="M124.4486,-168.2455C120.4981,-160.617 114.8903,-149.7881 110.0942,-140.5267"/>
<polygon fill="#191970" stroke="#191970" points="113.2001,-138.9131 105.4935,-131.6427 106.9841,-142.1321 113.2001,-138.9131"/>
</g>
<!-- Node4 -->
<g id="node4" class="node">
<title>Node4</title>
<g id="a_node4"><a xlink:href="standard_8h.html" target="_top" xlink:title=" ">
<polygon fill="#ffffff" stroke="#000000" points="153.5,-56.5 153.5,-75.5 221.5,-75.5 221.5,-56.5 153.5,-56.5"/>
<text text-anchor="middle" x="187.5" y="-63.5" font-family="Helvetica,sans-Serif" font-size="10.00" fill="#000000">standard.h</text>
</a>
</g>
</g>
<!-- Node1&#45;&gt;Node4 -->
<g id="edge3" class="edge">
<title>Node1&#45;&gt;Node4</title>
<path fill="none" stroke="#191970" d="M134.445,-168.4509C144.0331,-149.936 165.3051,-108.8591 177.8064,-84.7187"/>
<polygon fill="#191970" stroke="#191970" points="181.0769,-86.0144 182.5675,-75.5249 174.8609,-82.7953 181.0769,-86.0144"/>
</g>
<!-- Node8 -->
<g id="node8" class="node">
<title>Node8</title>
<g id="a_node8"><a xlink:href="recycle_8h.html" target="_top" xlink:title=" ">
<polygon fill="#ffffff" stroke="#000000" points="187,-112.5 187,-131.5 248,-131.5 248,-112.5 187,-112.5"/>
<text text-anchor="middle" x="217.5" y="-119.5" font-family="Helvetica,sans-Serif" font-size="10.00" fill="#000000">recycle.h</text>
</a>
</g>
</g>
<!-- Node1&#45;&gt;Node8 -->
<g id="edge7" class="edge">
<title>Node1&#45;&gt;Node8</title>
<path fill="none" stroke="#191970" d="M144.8284,-168.2455C158.3303,-159.6534 178.2122,-147.0014 193.7686,-137.1018"/>
<polygon fill="#191970" stroke="#191970" points="195.7897,-139.9643 202.3472,-131.6427 192.0315,-134.0587 195.7897,-139.9643"/>
</g>
<!-- Node5 -->
<g id="node5" class="node">
<title>Node5</title>
<g id="a_node5"><a xlink:title=" ">
<polygon fill="#ffffff" stroke="#bfbfbf" points="91.5,-.5 91.5,-19.5 141.5,-19.5 141.5,-.5 91.5,-.5"/>
<text text-anchor="middle" x="116.5" y="-7.5" font-family="Helvetica,sans-Serif" font-size="10.00" fill="#000000">stdio.h</text>
</a>
</g>
</g>
<!-- Node4&#45;&gt;Node5 -->
<g id="edge4" class="edge">
<title>Node4&#45;&gt;Node5</title>
<path fill="none" stroke="#191970" d="M175.1327,-56.2455C164.5446,-47.8943 149.0936,-35.7076 136.7107,-25.9408"/>
<polygon fill="#191970" stroke="#191970" points="138.7447,-23.0875 128.7255,-19.6427 134.4097,-28.5837 138.7447,-23.0875"/>
</g>
<!-- Node6 -->
<g id="node6" class="node">
<title>Node6</title>
<g id="a_node6"><a xlink:title=" ">
<polygon fill="#ffffff" stroke="#bfbfbf" points="159.5,-.5 159.5,-19.5 215.5,-19.5 215.5,-.5 159.5,-.5"/>
<text text-anchor="middle" x="187.5" y="-7.5" font-family="Helvetica,sans-Serif" font-size="10.00" fill="#000000">stddef.h</text>
</a>
</g>
</g>
<!-- Node4&#45;&gt;Node6 -->
<g id="edge5" class="edge">
<title>Node4&#45;&gt;Node6</title>
<path fill="none" stroke="#191970" d="M187.5,-56.2455C187.5,-48.9382 187.5,-38.6944 187.5,-29.7046"/>
<polygon fill="#191970" stroke="#191970" points="191.0001,-29.6426 187.5,-19.6427 184.0001,-29.6427 191.0001,-29.6426"/>
</g>
<!-- Node7 -->
<g id="node7" class="node">
<title>Node7</title>
<g id="a_node7"><a xlink:href="tamtypes_8h.html" target="_top" xlink:title=" ">
<polygon fill="#ffffff" stroke="#000000" points="233.5,-.5 233.5,-19.5 305.5,-19.5 305.5,-.5 233.5,-.5"/>
<text text-anchor="middle" x="269.5" y="-7.5" font-family="Helvetica,sans-Serif" font-size="10.00" fill="#000000">tamtypes.h</text>
</a>
</g>
</g>
<!-- Node4&#45;&gt;Node7 -->
<g id="edge6" class="edge">
<title>Node4&#45;&gt;Node7</title>
<path fill="none" stroke="#191970" d="M201.7833,-56.2455C214.247,-47.7337 232.5451,-35.2375 246.9792,-25.3801"/>
<polygon fill="#191970" stroke="#191970" points="249.0962,-28.1726 255.3804,-19.6427 245.1485,-22.392 249.0962,-28.1726"/>
</g>
<!-- Node8&#45;&gt;Node4 -->
<g id="edge8" class="edge">
<title>Node8&#45;&gt;Node4</title>
<path fill="none" stroke="#191970" d="M212.2744,-112.2455C208.1877,-104.617 202.3865,-93.7881 197.425,-84.5267"/>
<polygon fill="#191970" stroke="#191970" points="200.4732,-82.8047 192.6657,-75.6427 194.3028,-86.1103 200.4732,-82.8047"/>
</g>
</g>
</svg>
