<?xml version="1.0" encoding="UTF-8" standalone="no"?>
<!DOCTYPE svg PUBLIC "-//W3C//DTD SVG 1.1//EN"
 "http://www.w3.org/Graphics/SVG/1.1/DTD/svg11.dtd">
<!-- Generated by graphviz version 2.40.1 (20161225.0304)
 -->
<!-- Title: ee/erl/include/recycle.h Pages: 1 -->
<svg width="350pt" height="84pt"
 viewBox="0.00 0.00 350.00 84.00" xmlns="http://www.w3.org/2000/svg" xmlns:xlink="http://www.w3.org/1999/xlink">
<g id="graph0" class="graph" transform="scale(1 1) rotate(0) translate(4 80)">
<title>ee/erl/include/recycle.h</title>
<polygon fill="#ffffff" stroke="transparent" points="-4,4 -4,-80 346,-80 346,4 -4,4"/>
<!-- Node1 -->
<g id="node1" class="node">
<title>Node1</title>
<g id="a_node1"><a xlink:title=" ">
<polygon fill="#bfbfbf" stroke="#000000" points="95,-56.5 95,-75.5 225,-75.5 225,-56.5 95,-56.5"/>
<text text-anchor="middle" x="160" y="-63.5" font-family="Helvetica,sans-Serif" font-size="10.00" fill="#000000">ee/erl/include/recycle.h</text>
</a>
</g>
</g>
<!-- Node2 -->
<g id="node2" class="node">
<title>Node2</title>
<g id="a_node2"><a xlink:href="erl_8c.html" target="_top" xlink:title=" ">
<polygon fill="#ffffff" stroke="#000000" points="0,-.5 0,-19.5 86,-19.5 86,-.5 0,-.5"/>
<text text-anchor="middle" x="43" y="-7.5" font-family="Helvetica,sans-Serif" font-size="10.00" fill="#000000">ee/erl/src/erl.c</text>
</a>
</g>
</g>
<!-- Node1&#45;&gt;Node2 -->
<g id="edge1" class="edge">
<title>Node1&#45;&gt;Node2</title>
<path fill="none" stroke="#191970" d="M130.6958,-51.9741C109.512,-41.8348 81.4597,-28.408 62.8506,-19.5011"/>
<polygon fill="#191970" stroke="#191970" points="129.3559,-55.2129 139.887,-56.3733 132.378,-48.8989 129.3559,-55.2129"/>
</g>
<!-- Node3 -->
<g id="node3" class="node">
<title>Node3</title>
<g id="a_node3"><a xlink:href="hashtab_8c.html" target="_top" xlink:title=" ">
<polygon fill="#ffffff" stroke="#000000" points="104,-.5 104,-19.5 216,-19.5 216,-.5 104,-.5"/>
<text text-anchor="middle" x="160" y="-7.5" font-family="Helvetica,sans-Serif" font-size="10.00" fill="#000000">ee/erl/src/hashtab.c</text>
</a>
</g>
</g>
<!-- Node1&#45;&gt;Node3 -->
<g id="edge2" class="edge">
<title>Node1&#45;&gt;Node3</title>
<path fill="none" stroke="#191970" d="M160,-46.1575C160,-37.155 160,-26.9199 160,-19.6427"/>
<polygon fill="#191970" stroke="#191970" points="156.5001,-46.2455 160,-56.2455 163.5001,-46.2456 156.5001,-46.2455"/>
</g>
<!-- Node4 -->
<g id="node4" class="node">
<title>Node4</title>
<g id="a_node4"><a xlink:href="recycle_8c.html" target="_top" xlink:title=" ">
<polygon fill="#ffffff" stroke="#000000" points="234,-.5 234,-19.5 342,-19.5 342,-.5 234,-.5"/>
<text text-anchor="middle" x="288" y="-7.5" font-family="Helvetica,sans-Serif" font-size="10.00" fill="#000000">ee/erl/src/recycle.c</text>
</a>
</g>
</g>
<!-- Node1&#45;&gt;Node4 -->
<g id="edge3" class="edge">
<title>Node1&#45;&gt;Node4</title>
<path fill="none" stroke="#191970" d="M191.4348,-52.2473C214.6809,-42.0771 245.7411,-28.4883 266.2831,-19.5011"/>
<polygon fill="#191970" stroke="#191970" points="189.7627,-49.1585 182.004,-56.3733 192.5685,-55.5716 189.7627,-49.1585"/>
</g>
</g>
</svg>
