<?xml version="1.0" encoding="UTF-8" standalone="no"?>
<!DOCTYPE svg PUBLIC "-//W3C//DTD SVG 1.1//EN"
 "http://www.w3.org/Graphics/SVG/1.1/DTD/svg11.dtd">
<!-- Generated by graphviz version 2.40.1 (20161225.0304)
 -->
<!-- Title: ee/rpc/multitap/src/erl&#45;support.c Pages: 1 -->
<svg width="116pt" height="151pt"
 viewBox="0.00 0.00 116.00 151.00" xmlns="http://www.w3.org/2000/svg" xmlns:xlink="http://www.w3.org/1999/xlink">
<g id="graph0" class="graph" transform="scale(1 1) rotate(0) translate(4 147)">
<title>ee/rpc/multitap/src/erl&#45;support.c</title>
<polygon fill="#ffffff" stroke="transparent" points="-4,4 -4,-147 112,-147 112,4 -4,4"/>
<!-- Node1 -->
<g id="node1" class="node">
<title>Node1</title>
<g id="a_node1"><a xlink:title=" ">
<polygon fill="#bfbfbf" stroke="#000000" points="0,-112.5 0,-142.5 108,-142.5 108,-112.5 0,-112.5"/>
<text text-anchor="start" x="8" y="-130.5" font-family="Helvetica,sans-Serif" font-size="10.00" fill="#000000">ee/rpc/multitap/src</text>
<text text-anchor="middle" x="54" y="-119.5" font-family="Helvetica,sans-Serif" font-size="10.00" fill="#000000">/erl&#45;support.c</text>
</a>
</g>
</g>
<!-- Node2 -->
<g id="node2" class="node">
<title>Node2</title>
<g id="a_node2"><a xlink:href="erl_8h.html" target="_top" xlink:title=" ">
<polygon fill="#ffffff" stroke="#000000" points="35,-56.5 35,-75.5 73,-75.5 73,-56.5 35,-56.5"/>
<text text-anchor="middle" x="54" y="-63.5" font-family="Helvetica,sans-Serif" font-size="10.00" fill="#000000">erl.h</text>
</a>
</g>
</g>
<!-- Node1&#45;&gt;Node2 -->
<g id="edge1" class="edge">
<title>Node1&#45;&gt;Node2</title>
<path fill="none" stroke="#191970" d="M54,-112.2977C54,-104.3834 54,-94.6043 54,-86.0759"/>
<polygon fill="#191970" stroke="#191970" points="57.5001,-85.8469 54,-75.8469 50.5001,-85.847 57.5001,-85.8469"/>
</g>
<!-- Node3 -->
<g id="node3" class="node">
<title>Node3</title>
<g id="a_node3"><a xlink:href="tamtypes_8h.html" target="_top" xlink:title=" ">
<polygon fill="#ffffff" stroke="#000000" points="18,-.5 18,-19.5 90,-19.5 90,-.5 18,-.5"/>
<text text-anchor="middle" x="54" y="-7.5" font-family="Helvetica,sans-Serif" font-size="10.00" fill="#000000">tamtypes.h</text>
</a>
</g>
</g>
<!-- Node2&#45;&gt;Node3 -->
<g id="edge2" class="edge">
<title>Node2&#45;&gt;Node3</title>
<path fill="none" stroke="#191970" d="M54,-56.2455C54,-48.9382 54,-38.6944 54,-29.7046"/>
<polygon fill="#191970" stroke="#191970" points="57.5001,-29.6426 54,-19.6427 50.5001,-29.6427 57.5001,-29.6426"/>
</g>
</g>
</svg>
