<?xml version="1.0" encoding="UTF-8" standalone="no"?>
<!DOCTYPE svg PUBLIC "-//W3C//DTD SVG 1.1//EN"
 "http://www.w3.org/Graphics/SVG/1.1/DTD/svg11.dtd">
<!-- Generated by graphviz version 2.40.1 (20161225.0304)
 -->
<!-- Title: ee/rpc/cdvd/src/internal.h Pages: 1 -->
<svg width="438pt" height="84pt"
 viewBox="0.00 0.00 437.50 84.00" xmlns="http://www.w3.org/2000/svg" xmlns:xlink="http://www.w3.org/1999/xlink">
<g id="graph0" class="graph" transform="scale(1 1) rotate(0) translate(4 80)">
<title>ee/rpc/cdvd/src/internal.h</title>
<polygon fill="#ffffff" stroke="transparent" points="-4,4 -4,-80 433.5,-80 433.5,4 -4,4"/>
<!-- Node1 -->
<g id="node1" class="node">
<title>Node1</title>
<g id="a_node1"><a xlink:title=" ">
<polygon fill="#bfbfbf" stroke="#000000" points="149.5,-56.5 149.5,-75.5 289.5,-75.5 289.5,-56.5 149.5,-56.5"/>
<text text-anchor="middle" x="219.5" y="-63.5" font-family="Helvetica,sans-Serif" font-size="10.00" fill="#000000">ee/rpc/cdvd/src/internal.h</text>
</a>
</g>
</g>
<!-- Node2 -->
<g id="node2" class="node">
<title>Node2</title>
<g id="a_node2"><a xlink:href="libcdvd_8c.html" target="_top" xlink:title=" ">
<polygon fill="#ffffff" stroke="#000000" points="0,-.5 0,-19.5 137,-19.5 137,-.5 0,-.5"/>
<text text-anchor="middle" x="68.5" y="-7.5" font-family="Helvetica,sans-Serif" font-size="10.00" fill="#000000">ee/rpc/cdvd/src/libcdvd.c</text>
</a>
</g>
</g>
<!-- Node1&#45;&gt;Node2 -->
<g id="edge1" class="edge">
<title>Node1&#45;&gt;Node2</title>
<path fill="none" stroke="#191970" d="M183.877,-52.7888C156.3062,-42.5639 118.7851,-28.6488 94.1191,-19.5011"/>
<polygon fill="#191970" stroke="#191970" points="182.9491,-56.1776 193.5422,-56.3733 185.3832,-49.6144 182.9491,-56.1776"/>
</g>
<!-- Node3 -->
<g id="node3" class="node">
<title>Node3</title>
<g id="a_node3"><a xlink:href="ncmd_8c.html" target="_top" xlink:title=" ">
<polygon fill="#ffffff" stroke="#000000" points="155.5,-.5 155.5,-19.5 283.5,-19.5 283.5,-.5 155.5,-.5"/>
<text text-anchor="middle" x="219.5" y="-7.5" font-family="Helvetica,sans-Serif" font-size="10.00" fill="#000000">ee/rpc/cdvd/src/ncmd.c</text>
</a>
</g>
</g>
<!-- Node1&#45;&gt;Node3 -->
<g id="edge2" class="edge">
<title>Node1&#45;&gt;Node3</title>
<path fill="none" stroke="#191970" d="M219.5,-46.1575C219.5,-37.155 219.5,-26.9199 219.5,-19.6427"/>
<polygon fill="#191970" stroke="#191970" points="216.0001,-46.2455 219.5,-56.2455 223.0001,-46.2456 216.0001,-46.2455"/>
</g>
<!-- Node4 -->
<g id="node4" class="node">
<title>Node4</title>
<g id="a_node4"><a xlink:href="scmd_8c.html" target="_top" xlink:title=" ">
<polygon fill="#ffffff" stroke="#000000" points="301.5,-.5 301.5,-19.5 429.5,-19.5 429.5,-.5 301.5,-.5"/>
<text text-anchor="middle" x="365.5" y="-7.5" font-family="Helvetica,sans-Serif" font-size="10.00" fill="#000000">ee/rpc/cdvd/src/scmd.c</text>
</a>
</g>
</g>
<!-- Node1&#45;&gt;Node4 -->
<g id="edge3" class="edge">
<title>Node1&#45;&gt;Node4</title>
<path fill="none" stroke="#191970" d="M253.9435,-52.7888C280.6013,-42.5639 316.88,-28.6488 340.7292,-19.5011"/>
<polygon fill="#191970" stroke="#191970" points="252.6816,-49.5241 244.5983,-56.3733 255.1885,-56.0598 252.6816,-49.5241"/>
</g>
</g>
</svg>
