<?xml version="1.0" encoding="UTF-8" standalone="no"?>
<!DOCTYPE svg PUBLIC "-//W3C//DTD SVG 1.1//EN"
 "http://www.w3.org/Graphics/SVG/1.1/DTD/svg11.dtd">
<!-- Generated by graphviz version 2.40.1 (20161225.0304)
 -->
<!-- Title: ee/sbv/include/sbv_patches.h Pages: 1 -->
<svg width="638pt" height="106pt"
 viewBox="0.00 0.00 637.50 106.00" xmlns="http://www.w3.org/2000/svg" xmlns:xlink="http://www.w3.org/1999/xlink">
<g id="graph0" class="graph" transform="scale(1 1) rotate(0) translate(4 102)">
<title>ee/sbv/include/sbv_patches.h</title>
<polygon fill="#ffffff" stroke="transparent" points="-4,4 -4,-102 633.5,-102 633.5,4 -4,4"/>
<!-- Node1 -->
<g id="node1" class="node">
<title>Node1</title>
<g id="a_node1"><a xlink:title=" ">
<polygon fill="#bfbfbf" stroke="#000000" points="276.5,-67.5 276.5,-97.5 383.5,-97.5 383.5,-67.5 276.5,-67.5"/>
<text text-anchor="start" x="284.5" y="-85.5" font-family="Helvetica,sans-Serif" font-size="10.00" fill="#000000">ee/sbv/include/sbv</text>
<text text-anchor="middle" x="330" y="-74.5" font-family="Helvetica,sans-Serif" font-size="10.00" fill="#000000">_patches.h</text>
</a>
</g>
</g>
<!-- Node2 -->
<g id="node2" class="node">
<title>Node2</title>
<g id="a_node2"><a xlink:href="SifIopRebootBuffer_8c.html" target="_top" xlink:title=" ">
<polygon fill="#ffffff" stroke="#000000" points="0,-.5 0,-30.5 160,-30.5 160,-.5 0,-.5"/>
<text text-anchor="start" x="8" y="-18.5" font-family="Helvetica,sans-Serif" font-size="10.00" fill="#000000">ee/iopreboot/src/SifIopReboot</text>
<text text-anchor="middle" x="80" y="-7.5" font-family="Helvetica,sans-Serif" font-size="10.00" fill="#000000">Buffer.c</text>
</a>
</g>
</g>
<!-- Node1&#45;&gt;Node2 -->
<g id="edge1" class="edge">
<title>Node1&#45;&gt;Node2</title>
<path fill="none" stroke="#191970" d="M266.6676,-65.5269C226.4571,-54.7505 174.8868,-40.9297 136.1438,-30.5465"/>
<polygon fill="#191970" stroke="#191970" points="265.8035,-68.9188 276.3687,-68.1268 267.6156,-62.1574 265.8035,-68.9188"/>
</g>
<!-- Node3 -->
<g id="node3" class="node">
<title>Node3</title>
<g id="a_node3"><a xlink:href="samples_2tcpip__basic_2ps2ip_8c.html" target="_top" xlink:title=" ">
<polygon fill="#ffffff" stroke="#000000" points="178.5,-.5 178.5,-30.5 321.5,-30.5 321.5,-.5 178.5,-.5"/>
<text text-anchor="start" x="186.5" y="-18.5" font-family="Helvetica,sans-Serif" font-size="10.00" fill="#000000">ee/network/tcpip/samples</text>
<text text-anchor="middle" x="250" y="-7.5" font-family="Helvetica,sans-Serif" font-size="10.00" fill="#000000">/tcpip_basic/ps2ip.c</text>
</a>
</g>
</g>
<!-- Node1&#45;&gt;Node3 -->
<g id="edge2" class="edge">
<title>Node1&#45;&gt;Node3</title>
<path fill="none" stroke="#191970" d="M304.0667,-60.7808C292.3144,-50.9383 278.7056,-39.541 268.0814,-30.6432"/>
<polygon fill="#191970" stroke="#191970" points="301.933,-63.5592 311.8468,-67.2967 306.4275,-58.1927 301.933,-63.5592"/>
</g>
<!-- Node4 -->
<g id="node4" class="node">
<title>Node4</title>
<g id="a_node4"><a xlink:href="samples_2tcpip__dhcp_2ps2ip_8c.html" target="_top" xlink:title=" ">
<polygon fill="#ffffff" stroke="#000000" points="339.5,-.5 339.5,-30.5 482.5,-30.5 482.5,-.5 339.5,-.5"/>
<text text-anchor="start" x="347.5" y="-18.5" font-family="Helvetica,sans-Serif" font-size="10.00" fill="#000000">ee/network/tcpip/samples</text>
<text text-anchor="middle" x="411" y="-7.5" font-family="Helvetica,sans-Serif" font-size="10.00" fill="#000000">/tcpip_dhcp/ps2ip.c</text>
</a>
</g>
</g>
<!-- Node1&#45;&gt;Node4 -->
<g id="edge3" class="edge">
<title>Node1&#45;&gt;Node4</title>
<path fill="none" stroke="#191970" d="M356.2575,-60.7808C368.1567,-50.9383 381.9356,-39.541 392.6926,-30.6432"/>
<polygon fill="#191970" stroke="#191970" points="353.8549,-58.2259 348.3802,-67.2967 358.3165,-63.6198 353.8549,-58.2259"/>
</g>
<!-- Node5 -->
<g id="node5" class="node">
<title>Node5</title>
<g id="a_node5"><a xlink:href="remote_8c.html" target="_top" xlink:title=" ">
<polygon fill="#ffffff" stroke="#000000" points="500.5,-.5 500.5,-30.5 629.5,-30.5 629.5,-.5 500.5,-.5"/>
<text text-anchor="start" x="508.5" y="-18.5" font-family="Helvetica,sans-Serif" font-size="10.00" fill="#000000">ee/rpc/remote/samples</text>
<text text-anchor="middle" x="565" y="-7.5" font-family="Helvetica,sans-Serif" font-size="10.00" fill="#000000">/remote.c</text>
</a>
</g>
</g>
<!-- Node1&#45;&gt;Node5 -->
<g id="edge4" class="edge">
<title>Node1&#45;&gt;Node5</title>
<path fill="none" stroke="#191970" d="M392.4881,-64.6842C429.7636,-54.0568 476.5785,-40.7095 512.0314,-30.6017"/>
<polygon fill="#191970" stroke="#191970" points="391.3957,-61.3561 382.7386,-67.4639 393.315,-68.0879 391.3957,-61.3561"/>
</g>
</g>
</svg>
