<?xml version="1.0" encoding="UTF-8" standalone="no"?>
<!DOCTYPE svg PUBLIC "-//W3C//DTD SVG 1.1//EN"
 "http://www.w3.org/Graphics/SVG/1.1/DTD/svg11.dtd">
<!-- Generated by graphviz version 2.40.1 (20161225.0304)
 -->
<!-- Title: ee/debug/src/screenshot.c Pages: 1 -->
<svg width="351pt" height="196pt"
 viewBox="0.00 0.00 351.00 196.00" xmlns="http://www.w3.org/2000/svg" xmlns:xlink="http://www.w3.org/1999/xlink">
<g id="graph0" class="graph" transform="scale(1 1) rotate(0) translate(4 192)">
<title>ee/debug/src/screenshot.c</title>
<polygon fill="#ffffff" stroke="transparent" points="-4,4 -4,-192 347,-192 347,4 -4,4"/>
<!-- Node1 -->
<g id="node1" class="node">
<title>Node1</title>
<g id="a_node1"><a xlink:title=" ">
<polygon fill="#bfbfbf" stroke="#000000" points="92,-168.5 92,-187.5 235,-187.5 235,-168.5 92,-168.5"/>
<text text-anchor="middle" x="163.5" y="-175.5" font-family="Helvetica,sans-Serif" font-size="10.00" fill="#000000">ee/debug/src/screenshot.c</text>
</a>
</g>
</g>
<!-- Node2 -->
<g id="node2" class="node">
<title>Node2</title>
<g id="a_node2"><a xlink:href="screenshot_8h.html" target="_top" xlink:title=" ">
<polygon fill="#ffffff" stroke="#000000" points="0,-112.5 0,-131.5 79,-131.5 79,-112.5 0,-112.5"/>
<text text-anchor="middle" x="39.5" y="-119.5" font-family="Helvetica,sans-Serif" font-size="10.00" fill="#000000">screenshot.h</text>
</a>
</g>
</g>
<!-- Node1&#45;&gt;Node2 -->
<g id="edge1" class="edge">
<title>Node1&#45;&gt;Node2</title>
<path fill="none" stroke="#191970" d="M142.1836,-168.3733C122.2784,-159.3838 92.3564,-145.8706 69.94,-135.7471"/>
<polygon fill="#191970" stroke="#191970" points="71.0925,-132.4272 60.5382,-131.5011 68.2113,-138.8068 71.0925,-132.4272"/>
</g>
<!-- Node3 -->
<g id="node3" class="node">
<title>Node3</title>
<g id="a_node3"><a xlink:href="tamtypes_8h.html" target="_top" xlink:title=" ">
<polygon fill="#ffffff" stroke="#000000" points="174.5,-.5 174.5,-19.5 246.5,-19.5 246.5,-.5 174.5,-.5"/>
<text text-anchor="middle" x="210.5" y="-7.5" font-family="Helvetica,sans-Serif" font-size="10.00" fill="#000000">tamtypes.h</text>
</a>
</g>
</g>
<!-- Node1&#45;&gt;Node3 -->
<g id="edge2" class="edge">
<title>Node1&#45;&gt;Node3</title>
<path fill="none" stroke="#191970" d="M152.3498,-168.3293C143.4329,-159.8007 131.6079,-146.5 126.5,-132 115.2772,-100.1411 109.2819,-85.0598 126.5,-56 135.3436,-41.0742 150.9332,-30.6736 166.3002,-23.589"/>
<polygon fill="#191970" stroke="#191970" points="167.9211,-26.7041 175.7773,-19.5956 165.2029,-20.2534 167.9211,-26.7041"/>
</g>
<!-- Node4 -->
<g id="node4" class="node">
<title>Node4</title>
<g id="a_node4"><a xlink:href="kernel_8h.html" target="_top" xlink:title=" ">
<polygon fill="#ffffff" stroke="#000000" points="135.5,-112.5 135.5,-131.5 191.5,-131.5 191.5,-112.5 135.5,-112.5"/>
<text text-anchor="middle" x="163.5" y="-119.5" font-family="Helvetica,sans-Serif" font-size="10.00" fill="#000000">kernel.h</text>
</a>
</g>
</g>
<!-- Node1&#45;&gt;Node4 -->
<g id="edge3" class="edge">
<title>Node1&#45;&gt;Node4</title>
<path fill="none" stroke="#191970" d="M163.5,-168.2455C163.5,-160.9382 163.5,-150.6944 163.5,-141.7046"/>
<polygon fill="#191970" stroke="#191970" points="167.0001,-141.6426 163.5,-131.6427 160.0001,-141.6427 167.0001,-141.6426"/>
</g>
<!-- Node8 -->
<g id="node8" class="node">
<title>Node8</title>
<g id="a_node8"><a xlink:title=" ">
<polygon fill="#ffffff" stroke="#bfbfbf" points="210,-112.5 210,-131.5 257,-131.5 257,-112.5 210,-112.5"/>
<text text-anchor="middle" x="233.5" y="-119.5" font-family="Helvetica,sans-Serif" font-size="10.00" fill="#000000">fcntl.h</text>
</a>
</g>
</g>
<!-- Node1&#45;&gt;Node8 -->
<g id="edge8" class="edge">
<title>Node1&#45;&gt;Node8</title>
<path fill="none" stroke="#191970" d="M175.6931,-168.2455C186.1321,-159.8943 201.3655,-147.7076 213.574,-137.9408"/>
<polygon fill="#191970" stroke="#191970" points="215.8244,-140.6227 221.4467,-131.6427 211.4515,-135.1566 215.8244,-140.6227"/>
</g>
<!-- Node9 -->
<g id="node9" class="node">
<title>Node9</title>
<g id="a_node9"><a xlink:title=" ">
<polygon fill="#ffffff" stroke="#bfbfbf" points="275.5,-112.5 275.5,-131.5 331.5,-131.5 331.5,-112.5 275.5,-112.5"/>
<text text-anchor="middle" x="303.5" y="-119.5" font-family="Helvetica,sans-Serif" font-size="10.00" fill="#000000">unistd.h</text>
</a>
</g>
</g>
<!-- Node1&#45;&gt;Node9 -->
<g id="edge9" class="edge">
<title>Node1&#45;&gt;Node9</title>
<path fill="none" stroke="#191970" d="M187.5669,-168.3733C210.3428,-159.2629 244.7344,-145.5062 270.149,-135.3404"/>
<polygon fill="#191970" stroke="#191970" points="271.7623,-138.4648 279.7472,-131.5011 269.1625,-131.9654 271.7623,-138.4648"/>
</g>
<!-- Node5 -->
<g id="node5" class="node">
<title>Node5</title>
<g id="a_node5"><a xlink:title=" ">
<polygon fill="#ffffff" stroke="#bfbfbf" points="135.5,-56.5 135.5,-75.5 191.5,-75.5 191.5,-56.5 135.5,-56.5"/>
<text text-anchor="middle" x="163.5" y="-63.5" font-family="Helvetica,sans-Serif" font-size="10.00" fill="#000000">stddef.h</text>
</a>
</g>
</g>
<!-- Node4&#45;&gt;Node5 -->
<g id="edge4" class="edge">
<title>Node4&#45;&gt;Node5</title>
<path fill="none" stroke="#191970" d="M163.5,-112.2455C163.5,-104.9382 163.5,-94.6944 163.5,-85.7046"/>
<polygon fill="#191970" stroke="#191970" points="167.0001,-85.6426 163.5,-75.6427 160.0001,-85.6427 167.0001,-85.6426"/>
</g>
<!-- Node6 -->
<g id="node6" class="node">
<title>Node6</title>
<g id="a_node6"><a xlink:title=" ">
<polygon fill="#ffffff" stroke="#bfbfbf" points="209.5,-56.5 209.5,-75.5 265.5,-75.5 265.5,-56.5 209.5,-56.5"/>
<text text-anchor="middle" x="237.5" y="-63.5" font-family="Helvetica,sans-Serif" font-size="10.00" fill="#000000">stdarg.h</text>
</a>
</g>
</g>
<!-- Node4&#45;&gt;Node6 -->
<g id="edge5" class="edge">
<title>Node4&#45;&gt;Node6</title>
<path fill="none" stroke="#191970" d="M176.3898,-112.2455C187.4254,-103.8943 203.5292,-91.7076 216.4353,-81.9408"/>
<polygon fill="#191970" stroke="#191970" points="218.8959,-84.4681 224.7579,-75.6427 214.6717,-78.8862 218.8959,-84.4681"/>
</g>
<!-- Node7 -->
<g id="node7" class="node">
<title>Node7</title>
<g id="a_node7"><a xlink:href="sifdma_8h.html" target="_top" xlink:title=" ">
<polygon fill="#ffffff" stroke="#000000" points="284,-56.5 284,-75.5 343,-75.5 343,-56.5 284,-56.5"/>
<text text-anchor="middle" x="313.5" y="-63.5" font-family="Helvetica,sans-Serif" font-size="10.00" fill="#000000">sifdma.h</text>
</a>
</g>
</g>
<!-- Node4&#45;&gt;Node7 -->
<g id="edge6" class="edge">
<title>Node4&#45;&gt;Node7</title>
<path fill="none" stroke="#191970" d="M189.2859,-112.3733C213.9047,-103.1822 251.19,-89.2624 278.4875,-79.0713"/>
<polygon fill="#191970" stroke="#191970" points="279.9063,-82.2777 288.0506,-75.5011 277.458,-75.7198 279.9063,-82.2777"/>
</g>
<!-- Node7&#45;&gt;Node3 -->
<g id="edge7" class="edge">
<title>Node7&#45;&gt;Node3</title>
<path fill="none" stroke="#191970" d="M295.5588,-56.2455C279.46,-47.4928 255.6121,-34.527 237.2609,-24.5496"/>
<polygon fill="#191970" stroke="#191970" points="238.6929,-21.3444 228.2356,-19.6427 235.3493,-27.4942 238.6929,-21.3444"/>
</g>
</g>
</svg>
