<?xml version="1.0" encoding="UTF-8" standalone="no"?>
<!DOCTYPE svg PUBLIC "-//W3C//DTD SVG 1.1//EN"
 "http://www.w3.org/Graphics/SVG/1.1/DTD/svg11.dtd">
<!-- Generated by graphviz version 2.40.1 (20161225.0304)
 -->
<!-- Title: ee/kernel/src/sio.c Pages: 1 -->
<svg width="376pt" height="196pt"
 viewBox="0.00 0.00 376.00 196.00" xmlns="http://www.w3.org/2000/svg" xmlns:xlink="http://www.w3.org/1999/xlink">
<g id="graph0" class="graph" transform="scale(1 1) rotate(0) translate(4 192)">
<title>ee/kernel/src/sio.c</title>
<polygon fill="#ffffff" stroke="transparent" points="-4,4 -4,-192 372,-192 372,4 -4,4"/>
<!-- Node1 -->
<g id="node1" class="node">
<title>Node1</title>
<g id="a_node1"><a xlink:title=" ">
<polygon fill="#bfbfbf" stroke="#000000" points="121.5,-168.5 121.5,-187.5 226.5,-187.5 226.5,-168.5 121.5,-168.5"/>
<text text-anchor="middle" x="174" y="-175.5" font-family="Helvetica,sans-Serif" font-size="10.00" fill="#000000">ee/kernel/src/sio.c</text>
</a>
</g>
</g>
<!-- Node2 -->
<g id="node2" class="node">
<title>Node2</title>
<g id="a_node2"><a xlink:title=" ">
<polygon fill="#ffffff" stroke="#bfbfbf" points="0,-112.5 0,-131.5 50,-131.5 50,-112.5 0,-112.5"/>
<text text-anchor="middle" x="25" y="-119.5" font-family="Helvetica,sans-Serif" font-size="10.00" fill="#000000">stdio.h</text>
</a>
</g>
</g>
<!-- Node1&#45;&gt;Node2 -->
<g id="edge1" class="edge">
<title>Node1&#45;&gt;Node2</title>
<path fill="none" stroke="#191970" d="M148.386,-168.3733C123.9313,-159.1822 86.8946,-145.2624 59.7791,-135.0713"/>
<polygon fill="#191970" stroke="#191970" points="60.8719,-131.7431 50.2798,-131.5011 58.4091,-138.2956 60.8719,-131.7431"/>
</g>
<!-- Node3 -->
<g id="node3" class="node">
<title>Node3</title>
<g id="a_node3"><a xlink:title=" ">
<polygon fill="#ffffff" stroke="#bfbfbf" points="148,-56.5 148,-75.5 204,-75.5 204,-56.5 148,-56.5"/>
<text text-anchor="middle" x="176" y="-63.5" font-family="Helvetica,sans-Serif" font-size="10.00" fill="#000000">stddef.h</text>
</a>
</g>
</g>
<!-- Node1&#45;&gt;Node3 -->
<g id="edge2" class="edge">
<title>Node1&#45;&gt;Node3</title>
<path fill="none" stroke="#191970" d="M174.1705,-168.4509C174.4967,-150.184 175.2151,-109.9553 175.6483,-85.6976"/>
<polygon fill="#191970" stroke="#191970" points="179.1507,-85.5858 175.8299,-75.5249 172.1518,-85.4608 179.1507,-85.5858"/>
</g>
<!-- Node4 -->
<g id="node4" class="node">
<title>Node4</title>
<g id="a_node4"><a xlink:title=" ">
<polygon fill="#ffffff" stroke="#bfbfbf" points="230,-56.5 230,-75.5 286,-75.5 286,-56.5 230,-56.5"/>
<text text-anchor="middle" x="258" y="-63.5" font-family="Helvetica,sans-Serif" font-size="10.00" fill="#000000">stdarg.h</text>
</a>
</g>
</g>
<!-- Node1&#45;&gt;Node4 -->
<g id="edge3" class="edge">
<title>Node1&#45;&gt;Node4</title>
<path fill="none" stroke="#191970" d="M181.1618,-168.4509C195.234,-149.688 226.6839,-107.7548 244.6815,-83.758"/>
<polygon fill="#191970" stroke="#191970" points="247.6563,-85.6249 250.8563,-75.5249 242.0563,-81.4249 247.6563,-85.6249"/>
</g>
<!-- Node5 -->
<g id="node5" class="node">
<title>Node5</title>
<g id="a_node5"><a xlink:href="tamtypes_8h.html" target="_top" xlink:title=" ">
<polygon fill="#ffffff" stroke="#000000" points="84,-.5 84,-19.5 156,-19.5 156,-.5 84,-.5"/>
<text text-anchor="middle" x="120" y="-7.5" font-family="Helvetica,sans-Serif" font-size="10.00" fill="#000000">tamtypes.h</text>
</a>
</g>
</g>
<!-- Node1&#45;&gt;Node5 -->
<g id="edge4" class="edge">
<title>Node1&#45;&gt;Node5</title>
<path fill="none" stroke="#191970" d="M144.0542,-168.4983C126.9946,-161.3713 107.0676,-149.7417 97,-132 78.2184,-98.9019 96.2847,-53.4259 109.3052,-28.3902"/>
<polygon fill="#191970" stroke="#191970" points="112.3974,-30.0304 114.1257,-19.5775 106.2561,-26.6712 112.3974,-30.0304"/>
</g>
<!-- Node6 -->
<g id="node6" class="node">
<title>Node6</title>
<g id="a_node6"><a xlink:href="kernel_8h.html" target="_top" xlink:title=" ">
<polygon fill="#ffffff" stroke="#000000" points="312,-112.5 312,-131.5 368,-131.5 368,-112.5 312,-112.5"/>
<text text-anchor="middle" x="340" y="-119.5" font-family="Helvetica,sans-Serif" font-size="10.00" fill="#000000">kernel.h</text>
</a>
</g>
</g>
<!-- Node1&#45;&gt;Node6 -->
<g id="edge5" class="edge">
<title>Node1&#45;&gt;Node6</title>
<path fill="none" stroke="#191970" d="M202.5364,-168.3733C230.0202,-159.1016 271.7686,-145.0178 302.0452,-134.804"/>
<polygon fill="#191970" stroke="#191970" points="303.4794,-138.0141 311.836,-131.5011 301.2418,-131.3813 303.4794,-138.0141"/>
</g>
<!-- Node8 -->
<g id="node8" class="node">
<title>Node8</title>
<g id="a_node8"><a xlink:title=" ">
<polygon fill="#ffffff" stroke="#bfbfbf" points="240.5,-112.5 240.5,-131.5 293.5,-131.5 293.5,-112.5 240.5,-112.5"/>
<text text-anchor="middle" x="267" y="-119.5" font-family="Helvetica,sans-Serif" font-size="10.00" fill="#000000">string.h</text>
</a>
</g>
</g>
<!-- Node1&#45;&gt;Node8 -->
<g id="edge10" class="edge">
<title>Node1&#45;&gt;Node8</title>
<path fill="none" stroke="#191970" d="M190.1994,-168.2455C204.6018,-159.5731 225.8732,-146.7645 242.3799,-136.825"/>
<polygon fill="#191970" stroke="#191970" points="244.225,-139.7996 250.9863,-131.6427 240.614,-133.8028 244.225,-139.7996"/>
</g>
<!-- Node9 -->
<g id="node9" class="node">
<title>Node9</title>
<g id="a_node9"><a xlink:href="sio_8h.html" target="_top" xlink:title=" ">
<polygon fill="#ffffff" stroke="#000000" points="106,-112.5 106,-131.5 146,-131.5 146,-112.5 106,-112.5"/>
<text text-anchor="middle" x="126" y="-119.5" font-family="Helvetica,sans-Serif" font-size="10.00" fill="#000000">sio.h</text>
</a>
</g>
</g>
<!-- Node1&#45;&gt;Node9 -->
<g id="edge11" class="edge">
<title>Node1&#45;&gt;Node9</title>
<path fill="none" stroke="#191970" d="M165.639,-168.2455C158.825,-160.2958 149.0319,-148.8706 140.8848,-139.3656"/>
<polygon fill="#191970" stroke="#191970" points="143.4305,-136.9575 134.2651,-131.6427 138.1157,-141.513 143.4305,-136.9575"/>
</g>
<!-- Node6&#45;&gt;Node3 -->
<g id="edge6" class="edge">
<title>Node6&#45;&gt;Node3</title>
<path fill="none" stroke="#191970" d="M311.8074,-112.3733C284.6547,-103.1016 243.4093,-89.0178 213.4975,-78.804"/>
<polygon fill="#191970" stroke="#191970" points="214.4192,-75.4204 203.8247,-75.5011 212.1572,-82.0449 214.4192,-75.4204"/>
</g>
<!-- Node6&#45;&gt;Node4 -->
<g id="edge7" class="edge">
<title>Node6&#45;&gt;Node4</title>
<path fill="none" stroke="#191970" d="M325.7167,-112.2455C313.253,-103.7337 294.9549,-91.2375 280.5208,-81.3801"/>
<polygon fill="#191970" stroke="#191970" points="282.3515,-78.392 272.1196,-75.6427 278.4038,-84.1726 282.3515,-78.392"/>
</g>
<!-- Node7 -->
<g id="node7" class="node">
<title>Node7</title>
<g id="a_node7"><a xlink:href="sifdma_8h.html" target="_top" xlink:title=" ">
<polygon fill="#ffffff" stroke="#000000" points="308.5,-56.5 308.5,-75.5 367.5,-75.5 367.5,-56.5 308.5,-56.5"/>
<text text-anchor="middle" x="338" y="-63.5" font-family="Helvetica,sans-Serif" font-size="10.00" fill="#000000">sifdma.h</text>
</a>
</g>
</g>
<!-- Node6&#45;&gt;Node7 -->
<g id="edge8" class="edge">
<title>Node6&#45;&gt;Node7</title>
<path fill="none" stroke="#191970" d="M339.6516,-112.2455C339.3907,-104.9382 339.0248,-94.6944 338.7037,-85.7046"/>
<polygon fill="#191970" stroke="#191970" points="342.1992,-85.5113 338.3444,-75.6427 335.2036,-85.7613 342.1992,-85.5113"/>
</g>
<!-- Node7&#45;&gt;Node5 -->
<g id="edge9" class="edge">
<title>Node7&#45;&gt;Node5</title>
<path fill="none" stroke="#191970" d="M308.1451,-58.3309C271.4401,-48.902 208.7563,-32.7998 165.9088,-21.7931"/>
<polygon fill="#191970" stroke="#191970" points="166.5661,-18.3484 156.0097,-19.2502 164.8244,-25.1282 166.5661,-18.3484"/>
</g>
<!-- Node9&#45;&gt;Node3 -->
<g id="edge13" class="edge">
<title>Node9&#45;&gt;Node3</title>
<path fill="none" stroke="#191970" d="M134.7093,-112.2455C141.8073,-104.2958 152.0084,-92.8706 160.495,-83.3656"/>
<polygon fill="#191970" stroke="#191970" points="163.3411,-85.4331 167.3905,-75.6427 158.1195,-80.771 163.3411,-85.4331"/>
</g>
<!-- Node9&#45;&gt;Node5 -->
<g id="edge12" class="edge">
<title>Node9&#45;&gt;Node5</title>
<path fill="none" stroke="#191970" d="M125.4884,-112.4509C124.5099,-94.184 122.3547,-53.9553 121.0552,-29.6976"/>
<polygon fill="#191970" stroke="#191970" points="124.5403,-29.3233 120.5103,-19.5249 117.5503,-29.6978 124.5403,-29.3233"/>
</g>
</g>
</svg>
