<?xml version="1.0" encoding="UTF-8" standalone="no"?>
<!DOCTYPE svg PUBLIC "-//W3C//DTD SVG 1.1//EN"
 "http://www.w3.org/Graphics/SVG/1.1/DTD/svg11.dtd">
<!-- Generated by graphviz version 2.40.1 (20161225.0304)
 -->
<!-- Title: ee/rpc/sior/src/sior_rpc.c Pages: 1 -->
<svg width="652pt" height="207pt"
 viewBox="0.00 0.00 652.29 207.00" xmlns="http://www.w3.org/2000/svg" xmlns:xlink="http://www.w3.org/1999/xlink">
<g id="graph0" class="graph" transform="scale(1 1) rotate(0) translate(4 203)">
<title>ee/rpc/sior/src/sior_rpc.c</title>
<polygon fill="#ffffff" stroke="transparent" points="-4,4 -4,-203 648.29,-203 648.29,4 -4,4"/>
<!-- Node1 -->
<g id="node1" class="node">
<title>Node1</title>
<g id="a_node1"><a xlink:title=" ">
<polygon fill="#bfbfbf" stroke="#000000" points="244.29,-168.5 244.29,-198.5 350.29,-198.5 350.29,-168.5 244.29,-168.5"/>
<text text-anchor="start" x="252.29" y="-186.5" font-family="Helvetica,sans-Serif" font-size="10.00" fill="#000000">ee/rpc/sior/src/sior</text>
<text text-anchor="middle" x="297.29" y="-175.5" font-family="Helvetica,sans-Serif" font-size="10.00" fill="#000000">_rpc.c</text>
</a>
</g>
</g>
<!-- Node2 -->
<g id="node2" class="node">
<title>Node2</title>
<g id="a_node2"><a xlink:href="tamtypes_8h.html" target="_top" xlink:title=" ">
<polygon fill="#ffffff" stroke="#000000" points="40.29,-.5 40.29,-19.5 112.29,-19.5 112.29,-.5 40.29,-.5"/>
<text text-anchor="middle" x="76.29" y="-7.5" font-family="Helvetica,sans-Serif" font-size="10.00" fill="#000000">tamtypes.h</text>
</a>
</g>
</g>
<!-- Node1&#45;&gt;Node2 -->
<g id="edge1" class="edge">
<title>Node1&#45;&gt;Node2</title>
<path fill="none" stroke="#191970" d="M244.2834,-180.1063C174.1118,-174.5337 55.5871,-161.0261 24.29,-132 -.9539,-108.5879 -6.7482,-86.4657 9.29,-56 16.483,-42.3365 29.7702,-31.9486 42.6267,-24.5328"/>
<polygon fill="#191970" stroke="#191970" points="44.6269,-27.4336 51.8188,-19.6538 41.345,-21.2506 44.6269,-27.4336"/>
</g>
<!-- Node3 -->
<g id="node3" class="node">
<title>Node3</title>
<g id="a_node3"><a xlink:href="kernel_8h.html" target="_top" xlink:title=" ">
<polygon fill="#ffffff" stroke="#000000" points="186.29,-112.5 186.29,-131.5 242.29,-131.5 242.29,-112.5 186.29,-112.5"/>
<text text-anchor="middle" x="214.29" y="-119.5" font-family="Helvetica,sans-Serif" font-size="10.00" fill="#000000">kernel.h</text>
</a>
</g>
</g>
<!-- Node1&#45;&gt;Node3 -->
<g id="edge2" class="edge">
<title>Node1&#45;&gt;Node3</title>
<path fill="none" stroke="#191970" d="M276.7732,-168.2977C264.2918,-159.0495 248.3741,-147.2551 235.7287,-137.8853"/>
<polygon fill="#191970" stroke="#191970" points="237.6978,-134.9882 227.5794,-131.8469 233.5304,-140.6126 237.6978,-134.9882"/>
</g>
<!-- Node5 -->
<g id="node5" class="node">
<title>Node5</title>
<g id="a_node5"><a xlink:title=" ">
<polygon fill="#ffffff" stroke="#bfbfbf" points="285.29,-56.5 285.29,-75.5 341.29,-75.5 341.29,-56.5 285.29,-56.5"/>
<text text-anchor="middle" x="313.29" y="-63.5" font-family="Helvetica,sans-Serif" font-size="10.00" fill="#000000">stdarg.h</text>
</a>
</g>
</g>
<!-- Node1&#45;&gt;Node5 -->
<g id="edge10" class="edge">
<title>Node1&#45;&gt;Node5</title>
<path fill="none" stroke="#191970" d="M292.9406,-168.242C289.4431,-153.6324 285.791,-131.0581 290.29,-112 292.5607,-102.3814 297.1675,-92.4809 301.6659,-84.3404"/>
<polygon fill="#191970" stroke="#191970" points="304.6873,-86.1071 306.7503,-75.7151 298.657,-82.5524 304.6873,-86.1071"/>
</g>
<!-- Node7 -->
<g id="node7" class="node">
<title>Node7</title>
<g id="a_node7"><a xlink:href="sifrpc_8h.html" target="_top" xlink:title=" ">
<polygon fill="#ffffff" stroke="#000000" points="32.79,-112.5 32.79,-131.5 85.79,-131.5 85.79,-112.5 32.79,-112.5"/>
<text text-anchor="middle" x="59.29" y="-119.5" font-family="Helvetica,sans-Serif" font-size="10.00" fill="#000000">sifrpc.h</text>
</a>
</g>
</g>
<!-- Node1&#45;&gt;Node7 -->
<g id="edge7" class="edge">
<title>Node1&#45;&gt;Node7</title>
<path fill="none" stroke="#191970" d="M244.1744,-169.7747C199.0559,-158.116 135.4861,-141.6893 95.8691,-131.4521"/>
<polygon fill="#191970" stroke="#191970" points="96.6533,-128.0399 86.0957,-128.9267 94.902,-134.8173 96.6533,-128.0399"/>
</g>
<!-- Node9 -->
<g id="node9" class="node">
<title>Node9</title>
<g id="a_node9"><a xlink:title=" ">
<polygon fill="#ffffff" stroke="#bfbfbf" points="298.79,-112.5 298.79,-131.5 351.79,-131.5 351.79,-112.5 298.79,-112.5"/>
<text text-anchor="middle" x="325.29" y="-119.5" font-family="Helvetica,sans-Serif" font-size="10.00" fill="#000000">string.h</text>
</a>
</g>
</g>
<!-- Node1&#45;&gt;Node9 -->
<g id="edge11" class="edge">
<title>Node1&#45;&gt;Node9</title>
<path fill="none" stroke="#191970" d="M304.2114,-168.2977C307.9361,-160.1166 312.568,-149.943 316.5404,-141.2179"/>
<polygon fill="#191970" stroke="#191970" points="319.8486,-142.3983 320.8069,-131.8469 313.4778,-139.4978 319.8486,-142.3983"/>
</g>
<!-- Node10 -->
<g id="node10" class="node">
<title>Node10</title>
<g id="a_node10"><a xlink:title=" ">
<polygon fill="#ffffff" stroke="#bfbfbf" points="369.79,-112.5 369.79,-131.5 428.79,-131.5 428.79,-112.5 369.79,-112.5"/>
<text text-anchor="middle" x="399.29" y="-119.5" font-family="Helvetica,sans-Serif" font-size="10.00" fill="#000000">malloc.h</text>
</a>
</g>
</g>
<!-- Node1&#45;&gt;Node10 -->
<g id="edge12" class="edge">
<title>Node1&#45;&gt;Node10</title>
<path fill="none" stroke="#191970" d="M322.242,-168.4554C338.216,-158.8241 358.8503,-146.3828 374.7443,-136.7996"/>
<polygon fill="#191970" stroke="#191970" points="376.7271,-139.6912 383.4836,-131.5303 373.1126,-133.6965 376.7271,-139.6912"/>
</g>
<!-- Node11 -->
<g id="node11" class="node">
<title>Node11</title>
<g id="a_node11"><a xlink:title=" ">
<polygon fill="#ffffff" stroke="#bfbfbf" points="446.79,-112.5 446.79,-131.5 493.79,-131.5 493.79,-112.5 446.79,-112.5"/>
<text text-anchor="middle" x="470.29" y="-119.5" font-family="Helvetica,sans-Serif" font-size="10.00" fill="#000000">fcntl.h</text>
</a>
</g>
</g>
<!-- Node1&#45;&gt;Node11 -->
<g id="edge13" class="edge">
<title>Node1&#45;&gt;Node11</title>
<path fill="none" stroke="#191970" d="M339.6106,-168.4554C369.5452,-157.8139 409.129,-143.7422 436.8568,-133.8852"/>
<polygon fill="#191970" stroke="#191970" points="438.2461,-137.106 446.496,-130.4586 435.9013,-130.5104 438.2461,-137.106"/>
</g>
<!-- Node12 -->
<g id="node12" class="node">
<title>Node12</title>
<g id="a_node12"><a xlink:title=" ">
<polygon fill="#ffffff" stroke="#bfbfbf" points="512.29,-112.5 512.29,-131.5 562.29,-131.5 562.29,-112.5 512.29,-112.5"/>
<text text-anchor="middle" x="537.29" y="-119.5" font-family="Helvetica,sans-Serif" font-size="10.00" fill="#000000">stdio.h</text>
</a>
</g>
</g>
<!-- Node1&#45;&gt;Node12 -->
<g id="edge14" class="edge">
<title>Node1&#45;&gt;Node12</title>
<path fill="none" stroke="#191970" d="M350.3687,-170.8649C389.7832,-161.3379 445.0805,-147.6702 502.1517,-132.2379"/>
<polygon fill="#191970" stroke="#191970" points="503.3395,-135.5422 512.0717,-129.5423 501.5039,-128.7871 503.3395,-135.5422"/>
</g>
<!-- Node13 -->
<g id="node13" class="node">
<title>Node13</title>
<g id="a_node13"><a xlink:href="sio_8h.html" target="_top" xlink:title=" ">
<polygon fill="#ffffff" stroke="#000000" points="128.29,-112.5 128.29,-131.5 168.29,-131.5 168.29,-112.5 128.29,-112.5"/>
<text text-anchor="middle" x="148.29" y="-119.5" font-family="Helvetica,sans-Serif" font-size="10.00" fill="#000000">sio.h</text>
</a>
</g>
</g>
<!-- Node1&#45;&gt;Node13 -->
<g id="edge15" class="edge">
<title>Node1&#45;&gt;Node13</title>
<path fill="none" stroke="#191970" d="M260.8405,-168.4554C235.2465,-157.8914 201.4624,-143.947 177.6086,-134.1013"/>
<polygon fill="#191970" stroke="#191970" points="178.9408,-130.8648 168.3618,-130.2847 176.27,-137.3353 178.9408,-130.8648"/>
</g>
<!-- Node14 -->
<g id="node14" class="node">
<title>Node14</title>
<g id="a_node14"><a xlink:href="sior__rpc_8h.html" target="_top" xlink:title=" ">
<polygon fill="#ffffff" stroke="#000000" points="580.29,-112.5 580.29,-131.5 644.29,-131.5 644.29,-112.5 580.29,-112.5"/>
<text text-anchor="middle" x="612.29" y="-119.5" font-family="Helvetica,sans-Serif" font-size="10.00" fill="#000000">sior_rpc.h</text>
</a>
</g>
</g>
<!-- Node1&#45;&gt;Node14 -->
<g id="edge18" class="edge">
<title>Node1&#45;&gt;Node14</title>
<path fill="none" stroke="#191970" d="M350.4982,-174.3679C403.668,-165.0472 487.9731,-149.7414 570.0965,-132.1767"/>
<polygon fill="#191970" stroke="#191970" points="571.059,-135.5498 580.0985,-130.0237 569.5859,-128.7065 571.059,-135.5498"/>
</g>
<!-- Node4 -->
<g id="node4" class="node">
<title>Node4</title>
<g id="a_node4"><a xlink:title=" ">
<polygon fill="#ffffff" stroke="#bfbfbf" points="133.29,-56.5 133.29,-75.5 189.29,-75.5 189.29,-56.5 133.29,-56.5"/>
<text text-anchor="middle" x="161.29" y="-63.5" font-family="Helvetica,sans-Serif" font-size="10.00" fill="#000000">stddef.h</text>
</a>
</g>
</g>
<!-- Node3&#45;&gt;Node4 -->
<g id="edge3" class="edge">
<title>Node3&#45;&gt;Node4</title>
<path fill="none" stroke="#191970" d="M205.0581,-112.2455C197.4583,-104.2155 186.5023,-92.6394 177.4533,-83.0781"/>
<polygon fill="#191970" stroke="#191970" points="179.832,-80.4998 170.4161,-75.6427 174.748,-85.3115 179.832,-80.4998"/>
</g>
<!-- Node3&#45;&gt;Node5 -->
<g id="edge4" class="edge">
<title>Node3&#45;&gt;Node5</title>
<path fill="none" stroke="#191970" d="M231.5345,-112.2455C246.8661,-103.5731 269.5099,-90.7645 287.0816,-80.825"/>
<polygon fill="#191970" stroke="#191970" points="289.2624,-83.6126 296.2431,-75.6427 285.8159,-77.5198 289.2624,-83.6126"/>
</g>
<!-- Node6 -->
<g id="node6" class="node">
<title>Node6</title>
<g id="a_node6"><a xlink:href="sifdma_8h.html" target="_top" xlink:title=" ">
<polygon fill="#ffffff" stroke="#000000" points="207.79,-56.5 207.79,-75.5 266.79,-75.5 266.79,-56.5 207.79,-56.5"/>
<text text-anchor="middle" x="237.29" y="-63.5" font-family="Helvetica,sans-Serif" font-size="10.00" fill="#000000">sifdma.h</text>
</a>
</g>
</g>
<!-- Node3&#45;&gt;Node6 -->
<g id="edge5" class="edge">
<title>Node3&#45;&gt;Node6</title>
<path fill="none" stroke="#191970" d="M218.2963,-112.2455C221.3635,-104.7776 225.6903,-94.2427 229.4397,-85.1137"/>
<polygon fill="#191970" stroke="#191970" points="232.768,-86.2226 233.3296,-75.6427 226.2928,-83.5631 232.768,-86.2226"/>
</g>
<!-- Node6&#45;&gt;Node2 -->
<g id="edge6" class="edge">
<title>Node6&#45;&gt;Node2</title>
<path fill="none" stroke="#191970" d="M209.6131,-56.3733C182.9572,-47.1016 142.4663,-33.0178 113.1016,-22.804"/>
<polygon fill="#191970" stroke="#191970" points="114.2006,-19.4807 103.6057,-19.5011 111.9009,-26.0921 114.2006,-19.4807"/>
</g>
<!-- Node8 -->
<g id="node8" class="node">
<title>Node8</title>
<g id="a_node8"><a xlink:href="sifcmd_8h.html" target="_top" xlink:title=" ">
<polygon fill="#ffffff" stroke="#000000" points="17.79,-56.5 17.79,-75.5 76.79,-75.5 76.79,-56.5 17.79,-56.5"/>
<text text-anchor="middle" x="47.29" y="-63.5" font-family="Helvetica,sans-Serif" font-size="10.00" fill="#000000">sifcmd.h</text>
</a>
</g>
</g>
<!-- Node7&#45;&gt;Node8 -->
<g id="edge8" class="edge">
<title>Node7&#45;&gt;Node8</title>
<path fill="none" stroke="#191970" d="M57.1998,-112.2455C55.6339,-104.9382 53.4388,-94.6944 51.5124,-85.7046"/>
<polygon fill="#191970" stroke="#191970" points="54.874,-84.6873 49.3563,-75.6427 48.0294,-86.1541 54.874,-84.6873"/>
</g>
<!-- Node8&#45;&gt;Node2 -->
<g id="edge9" class="edge">
<title>Node8&#45;&gt;Node2</title>
<path fill="none" stroke="#191970" d="M52.3414,-56.2455C56.2919,-48.617 61.8997,-37.7881 66.6958,-28.5267"/>
<polygon fill="#191970" stroke="#191970" points="69.8059,-30.1321 71.2965,-19.6427 63.5899,-26.9131 69.8059,-30.1321"/>
</g>
<!-- Node13&#45;&gt;Node2 -->
<g id="edge16" class="edge">
<title>Node13&#45;&gt;Node2</title>
<path fill="none" stroke="#191970" d="M142.1513,-112.4509C130.1426,-93.7707 103.3696,-52.1238 87.9104,-28.0761"/>
<polygon fill="#191970" stroke="#191970" points="90.7649,-26.044 82.4132,-19.5249 84.8766,-29.8294 90.7649,-26.044"/>
</g>
<!-- Node13&#45;&gt;Node4 -->
<g id="edge17" class="edge">
<title>Node13&#45;&gt;Node4</title>
<path fill="none" stroke="#191970" d="M150.5544,-112.2455C152.2694,-104.8579 154.6812,-94.4689 156.7844,-85.4087"/>
<polygon fill="#191970" stroke="#191970" points="160.1995,-86.1751 159.0515,-75.6427 153.3808,-84.5922 160.1995,-86.1751"/>
</g>
</g>
</svg>
