<?xml version="1.0" encoding="UTF-8" standalone="no"?>
<!DOCTYPE svg PUBLIC "-//W3C//DTD SVG 1.1//EN"
 "http://www.w3.org/Graphics/SVG/1.1/DTD/svg11.dtd">
<!-- Generated by graphviz version 2.40.1 (20161225.0304)
 -->
<!-- Title: ee/libc/src/sleep.c Pages: 1 -->
<!--zoomable 196 -->
<svg id="main" version="1.1" xmlns="http://www.w3.org/2000/svg" xmlns:xlink="http://www.w3.org/1999/xlink" xml:space="preserve" onload="init(evt)">
<style type="text/css"><![CDATA[
.edge:hover path { stroke: red; }
.edge:hover polygon { stroke: red; fill: red; }
]]></style>
<script type="text/javascript"><![CDATA[
var edges = document.getElementsByTagName('g');
if (edges && edges.length) {
  for (var i=0;i<edges.length;i++) {
    if (edges[i].id.substr(0,4)=='edge') {
      edges[i].setAttribute('class','edge');
    }
  }
}
]]></script>
        <defs>
                <circle id="rim" cx="0" cy="0" r="7"/>
                <circle id="rim2" cx="0" cy="0" r="3.5"/>
                <g id="zoomPlus">
                        <use xlink:href="#rim" fill="#404040">
                                <set attributeName="fill" to="#808080" begin="zoomplus.mouseover" end="zoomplus.mouseout"/>
                        </use>
                        <path d="M-4,0h8M0,-4v8" fill="none" stroke="white" stroke-width="1.5" pointer-events="none"/>
                </g>
                <g id="zoomMin">
                        <use xlink:href="#rim" fill="#404040">
                                <set attributeName="fill" to="#808080" begin="zoomminus.mouseover" end="zoomminus.mouseout"/>
                        </use>
                        <path d="M-4,0h8" fill="none" stroke="white" stroke-width="1.5" pointer-events="none"/>
                </g>
                <g id="dirArrow">
                        <path fill="none" stroke="white" stroke-width="1.5" d="M0,-3.0v7 M-2.5,-0.5L0,-3.0L2.5,-0.5"/>
                </g>
               <g id="resetDef">
                       <use xlink:href="#rim2" fill="#404040">
                               <set attributeName="fill" to="#808080" begin="reset.mouseover" end="reset.mouseout"/>
                       </use>
               </g>
        </defs>

<script type="text/javascript">
var viewWidth = 519;
var viewHeight = 196;
var sectionId = 'dynsection-0';
</script>
<script xlink:href="svgpan.js"/>
<svg id="graph" class="graph">
<g id="viewport">
<title>ee/libc/src/sleep.c</title>
<polygon fill="#ffffff" stroke="transparent" points="-4,4 -4,-192 515,-192 515,4 -4,4"/>
<!-- Node1 -->
<g id="node1" class="node">
<title>Node1</title>
<g id="a_node1"><a xlink:title=" ">
<polygon fill="#bfbfbf" stroke="#000000" points="190,-168.5 190,-187.5 294,-187.5 294,-168.5 190,-168.5"/>
<text text-anchor="middle" x="242" y="-175.5" font-family="Helvetica,sans-Serif" font-size="10.00" fill="#000000">ee/libc/src/sleep.c</text>
</a>
</g>
</g>
<!-- Node2 -->
<g id="node2" class="node">
<title>Node2</title>
<g id="a_node2"><a xlink:href="kernel_8h.html" target="_top" xlink:title=" ">
<polygon fill="#ffffff" stroke="#000000" points="74,-112.5 74,-131.5 130,-131.5 130,-112.5 74,-112.5"/>
<text text-anchor="middle" x="102" y="-119.5" font-family="Helvetica,sans-Serif" font-size="10.00" fill="#000000">kernel.h</text>
</a>
</g>
</g>
<!-- Node1&#45;&gt;Node2 -->
<g id="edge1" class="edge">
<title>Node1&#45;&gt;Node2</title>
<path fill="none" stroke="#191970" d="M217.9331,-168.3733C195.1572,-159.2629 160.7656,-145.5062 135.351,-135.3404"/>
<polygon fill="#191970" stroke="#191970" points="136.3375,-131.9654 125.7528,-131.5011 133.7377,-138.4648 136.3375,-131.9654"/>
</g>
<!-- Node7 -->
<g id="node7" class="node">
<title>Node7</title>
<g id="a_node7"><a xlink:href="errno_8h.html" target="_top" xlink:title=" ">
<polygon fill="#ffffff" stroke="#000000" points="148.5,-112.5 148.5,-131.5 199.5,-131.5 199.5,-112.5 148.5,-112.5"/>
<text text-anchor="middle" x="174" y="-119.5" font-family="Helvetica,sans-Serif" font-size="10.00" fill="#000000">errno.h</text>
</a>
</g>
</g>
<!-- Node1&#45;&gt;Node7 -->
<g id="edge6" class="edge">
<title>Node1&#45;&gt;Node7</title>
<path fill="none" stroke="#191970" d="M230.1553,-168.2455C220.112,-159.9746 205.5005,-147.9416 193.6996,-138.2232"/>
<polygon fill="#191970" stroke="#191970" points="195.6533,-135.298 185.709,-131.6427 191.2033,-140.7015 195.6533,-135.298"/>
</g>
<!-- Node8 -->
<g id="node8" class="node">
<title>Node8</title>
<g id="a_node8"><a xlink:title=" ">
<polygon fill="#ffffff" stroke="#bfbfbf" points="218,-112.5 218,-131.5 266,-131.5 266,-112.5 218,-112.5"/>
<text text-anchor="middle" x="242" y="-119.5" font-family="Helvetica,sans-Serif" font-size="10.00" fill="#000000">time.h</text>
</a>
</g>
</g>
<!-- Node1&#45;&gt;Node8 -->
<g id="edge7" class="edge">
<title>Node1&#45;&gt;Node8</title>
<path fill="none" stroke="#191970" d="M242,-168.2455C242,-160.9382 242,-150.6944 242,-141.7046"/>
<polygon fill="#191970" stroke="#191970" points="245.5001,-141.6426 242,-131.6427 238.5001,-141.6427 245.5001,-141.6426"/>
</g>
<!-- Node9 -->
<g id="node9" class="node">
<title>Node9</title>
<g id="a_node9"><a xlink:title=" ">
<polygon fill="#ffffff" stroke="#bfbfbf" points="284,-112.5 284,-131.5 340,-131.5 340,-112.5 284,-112.5"/>
<text text-anchor="middle" x="312" y="-119.5" font-family="Helvetica,sans-Serif" font-size="10.00" fill="#000000">unistd.h</text>
</a>
</g>
</g>
<!-- Node1&#45;&gt;Node9 -->
<g id="edge8" class="edge">
<title>Node1&#45;&gt;Node9</title>
<path fill="none" stroke="#191970" d="M254.1931,-168.2455C264.6321,-159.8943 279.8655,-147.7076 292.074,-137.9408"/>
<polygon fill="#191970" stroke="#191970" points="294.3244,-140.6227 299.9467,-131.6427 289.9515,-135.1566 294.3244,-140.6227"/>
</g>
<!-- Node10 -->
<g id="node10" class="node">
<title>Node10</title>
<g id="a_node10"><a xlink:href="ps2sdkapi_8h.html" target="_top" xlink:title=" ">
<polygon fill="#ffffff" stroke="#000000" points="358.5,-112.5 358.5,-131.5 433.5,-131.5 433.5,-112.5 358.5,-112.5"/>
<text text-anchor="middle" x="396" y="-119.5" font-family="Helvetica,sans-Serif" font-size="10.00" fill="#000000">ps2sdkapi.h</text>
</a>
</g>
</g>
<!-- Node1&#45;&gt;Node10 -->
<g id="edge9" class="edge">
<title>Node1&#45;&gt;Node10</title>
<path fill="none" stroke="#191970" d="M268.4735,-168.3733C293.8597,-159.1419 332.3645,-145.1402 360.422,-134.9375"/>
<polygon fill="#191970" stroke="#191970" points="361.6701,-138.2079 369.8719,-131.5011 359.2778,-131.6293 361.6701,-138.2079"/>
</g>
<!-- Node3 -->
<g id="node3" class="node">
<title>Node3</title>
<g id="a_node3"><a xlink:title=" ">
<polygon fill="#ffffff" stroke="#bfbfbf" points="0,-56.5 0,-75.5 56,-75.5 56,-56.5 0,-56.5"/>
<text text-anchor="middle" x="28" y="-63.5" font-family="Helvetica,sans-Serif" font-size="10.00" fill="#000000">stddef.h</text>
</a>
</g>
</g>
<!-- Node2&#45;&gt;Node3 -->
<g id="edge2" class="edge">
<title>Node2&#45;&gt;Node3</title>
<path fill="none" stroke="#191970" d="M89.1102,-112.2455C78.0746,-103.8943 61.9708,-91.7076 49.0647,-81.9408"/>
<polygon fill="#191970" stroke="#191970" points="50.8283,-78.8862 40.7421,-75.6427 46.6041,-84.4681 50.8283,-78.8862"/>
</g>
<!-- Node4 -->
<g id="node4" class="node">
<title>Node4</title>
<g id="a_node4"><a xlink:title=" ">
<polygon fill="#ffffff" stroke="#bfbfbf" points="74,-56.5 74,-75.5 130,-75.5 130,-56.5 74,-56.5"/>
<text text-anchor="middle" x="102" y="-63.5" font-family="Helvetica,sans-Serif" font-size="10.00" fill="#000000">stdarg.h</text>
</a>
</g>
</g>
<!-- Node2&#45;&gt;Node4 -->
<g id="edge3" class="edge">
<title>Node2&#45;&gt;Node4</title>
<path fill="none" stroke="#191970" d="M102,-112.2455C102,-104.9382 102,-94.6944 102,-85.7046"/>
<polygon fill="#191970" stroke="#191970" points="105.5001,-85.6426 102,-75.6427 98.5001,-85.6427 105.5001,-85.6426"/>
</g>
<!-- Node5 -->
<g id="node5" class="node">
<title>Node5</title>
<g id="a_node5"><a xlink:href="sifdma_8h.html" target="_top" xlink:title=" ">
<polygon fill="#ffffff" stroke="#000000" points="148.5,-56.5 148.5,-75.5 207.5,-75.5 207.5,-56.5 148.5,-56.5"/>
<text text-anchor="middle" x="178" y="-63.5" font-family="Helvetica,sans-Serif" font-size="10.00" fill="#000000">sifdma.h</text>
</a>
</g>
</g>
<!-- Node2&#45;&gt;Node5 -->
<g id="edge4" class="edge">
<title>Node2&#45;&gt;Node5</title>
<path fill="none" stroke="#191970" d="M115.2382,-112.2455C126.681,-103.814 143.4296,-91.4729 156.7475,-81.6598"/>
<polygon fill="#191970" stroke="#191970" points="158.9391,-84.3924 164.9135,-75.6427 154.7867,-78.757 158.9391,-84.3924"/>
</g>
<!-- Node6 -->
<g id="node6" class="node">
<title>Node6</title>
<g id="a_node6"><a xlink:href="tamtypes_8h.html" target="_top" xlink:title=" ">
<polygon fill="#ffffff" stroke="#000000" points="142,-.5 142,-19.5 214,-19.5 214,-.5 142,-.5"/>
<text text-anchor="middle" x="178" y="-7.5" font-family="Helvetica,sans-Serif" font-size="10.00" fill="#000000">tamtypes.h</text>
</a>
</g>
</g>
<!-- Node5&#45;&gt;Node6 -->
<g id="edge5" class="edge">
<title>Node5&#45;&gt;Node6</title>
<path fill="none" stroke="#191970" d="M178,-56.2455C178,-48.9382 178,-38.6944 178,-29.7046"/>
<polygon fill="#191970" stroke="#191970" points="181.5001,-29.6426 178,-19.6427 174.5001,-29.6427 181.5001,-29.6426"/>
</g>
<!-- Node11 -->
<g id="node11" class="node">
<title>Node11</title>
<g id="a_node11"><a xlink:title=" ">
<polygon fill="#ffffff" stroke="#bfbfbf" points="291,-56.5 291,-75.5 345,-75.5 345,-56.5 291,-56.5"/>
<text text-anchor="middle" x="318" y="-63.5" font-family="Helvetica,sans-Serif" font-size="10.00" fill="#000000">dirent.h</text>
</a>
</g>
</g>
<!-- Node10&#45;&gt;Node11 -->
<g id="edge10" class="edge">
<title>Node10&#45;&gt;Node11</title>
<path fill="none" stroke="#191970" d="M382.4134,-112.2455C370.6695,-103.814 353.4801,-91.4729 339.8118,-81.6598"/>
<polygon fill="#191970" stroke="#191970" points="341.5954,-78.6316 331.4309,-75.6427 337.5129,-84.3179 341.5954,-78.6316"/>
</g>
<!-- Node12 -->
<g id="node12" class="node">
<title>Node12</title>
<g id="a_node12"><a xlink:title=" ">
<polygon fill="#ffffff" stroke="#bfbfbf" points="363.5,-56.5 363.5,-75.5 428.5,-75.5 428.5,-56.5 363.5,-56.5"/>
<text text-anchor="middle" x="396" y="-63.5" font-family="Helvetica,sans-Serif" font-size="10.00" fill="#000000">inttypes.h</text>
</a>
</g>
</g>
<!-- Node10&#45;&gt;Node12 -->
<g id="edge11" class="edge">
<title>Node10&#45;&gt;Node12</title>
<path fill="none" stroke="#191970" d="M396,-112.2455C396,-104.9382 396,-94.6944 396,-85.7046"/>
<polygon fill="#191970" stroke="#191970" points="399.5001,-85.6426 396,-75.6427 392.5001,-85.6427 399.5001,-85.6426"/>
</g>
<!-- Node13 -->
<g id="node13" class="node">
<title>Node13</title>
<g id="a_node13"><a xlink:title=" ">
<polygon fill="#ffffff" stroke="#bfbfbf" points="447,-56.5 447,-75.5 511,-75.5 511,-56.5 447,-56.5"/>
<text text-anchor="middle" x="479" y="-63.5" font-family="Helvetica,sans-Serif" font-size="10.00" fill="#000000">sys/stat.h</text>
</a>
</g>
</g>
<!-- Node10&#45;&gt;Node13 -->
<g id="edge12" class="edge">
<title>Node10&#45;&gt;Node13</title>
<path fill="none" stroke="#191970" d="M410.4575,-112.2455C423.0732,-103.7337 441.5944,-91.2375 456.2045,-81.3801"/>
<polygon fill="#191970" stroke="#191970" points="458.3761,-84.1371 464.7082,-75.6427 454.4609,-78.3343 458.3761,-84.1371"/>
</g>
</g>
</svg>
        <g id="navigator" transform="translate(0 0)" fill="#404254">
                <rect fill="#f2f5e9" fill-opacity="0.5" stroke="#606060" stroke-width=".5" x="0" y="0" width="60" height="60"/>
                <use id="zoomplus" xlink:href="#zoomPlus" x="17" y="9" onmousedown="handleZoom(evt,'in')"/>
                <use id="zoomminus" xlink:href="#zoomMin" x="42" y="9" onmousedown="handleZoom(evt,'out')"/>
                <use id="reset" xlink:href="#resetDef" x="30" y="36" onmousedown="handleReset()"/>
                <g id="arrowUp" xlink:href="#dirArrow" transform="translate(30 24)" onmousedown="handlePan(0,-1)">
                  <use xlink:href="#rim" fill="#404040">
                        <set attributeName="fill" to="#808080" begin="arrowUp.mouseover" end="arrowUp.mouseout"/>
                  </use>
                  <path fill="none" stroke="white" stroke-width="1.5" d="M0,-3.0v7 M-2.5,-0.5L0,-3.0L2.5,-0.5"/>
                </g>
                <g id="arrowRight" xlink:href="#dirArrow" transform="rotate(90) translate(36 -43)" onmousedown="handlePan(1,0)">
                  <use xlink:href="#rim" fill="#404040">
                        <set attributeName="fill" to="#808080" begin="arrowRight.mouseover" end="arrowRight.mouseout"/>
                  </use>
                  <path fill="none" stroke="white" stroke-width="1.5" d="M0,-3.0v7 M-2.5,-0.5L0,-3.0L2.5,-0.5"/>
                </g>
                <g id="arrowDown" xlink:href="#dirArrow" transform="rotate(180) translate(-30 -48)" onmousedown="handlePan(0,1)">
                  <use xlink:href="#rim" fill="#404040">
                        <set attributeName="fill" to="#808080" begin="arrowDown.mouseover" end="arrowDown.mouseout"/>
                  </use>
                  <path fill="none" stroke="white" stroke-width="1.5" d="M0,-3.0v7 M-2.5,-0.5L0,-3.0L2.5,-0.5"/>
                </g>
                <g id="arrowLeft" xlink:href="#dirArrow" transform="rotate(270) translate(-36 17)" onmousedown="handlePan(-1,0)">
                  <use xlink:href="#rim" fill="#404040">
                        <set attributeName="fill" to="#808080" begin="arrowLeft.mouseover" end="arrowLeft.mouseout"/>
                  </use>
                  <path fill="none" stroke="white" stroke-width="1.5" d="M0,-3.0v7 M-2.5,-0.5L0,-3.0L2.5,-0.5"/>
                </g>
        </g>
        <svg viewBox="0 0 15 15" width="100%" height="30px" preserveAspectRatio="xMaxYMin meet">
         <g id="arrow_out" transform="scale(0.3 0.3)">
          <a xlink:href="sleep_8c__incl_org.svg" target="_base">
           <rect id="button" ry="5" rx="5" y="6" x="6" height="38" width="38"
                fill="#f2f5e9" fill-opacity="0.5" stroke="#606060" stroke-width="1.0"/>
           <path id="arrow"
             d="M 11.500037,31.436501 C 11.940474,20.09759 22.043105,11.32322 32.158766,21.979434 L 37.068811,17.246167 C 37.068811,17.246167 37.088388,32 37.088388,32 L 22.160133,31.978069 C 22.160133,31.978069 26.997745,27.140456 26.997745,27.140456 C 18.528582,18.264221 13.291696,25.230495 11.500037,31.436501 z"
             style="fill:#404040;"/>
          </a>
         </g>
        </svg>
</svg>
