<?xml version="1.0" encoding="UTF-8" standalone="no"?>
<!DOCTYPE svg PUBLIC "-//W3C//DTD SVG 1.1//EN"
 "http://www.w3.org/Graphics/SVG/1.1/DTD/svg11.dtd">
<!-- Generated by graphviz version 2.40.1 (20161225.0304)
 -->
<!-- Title: ee/sbv/include/slib.h Pages: 1 -->
<svg width="824pt" height="95pt"
 viewBox="0.00 0.00 824.00 95.00" xmlns="http://www.w3.org/2000/svg" xmlns:xlink="http://www.w3.org/1999/xlink">
<g id="graph0" class="graph" transform="scale(1 1) rotate(0) translate(4 91)">
<title>ee/sbv/include/slib.h</title>
<polygon fill="#ffffff" stroke="transparent" points="-4,4 -4,-91 820,-91 820,4 -4,4"/>
<!-- Node1 -->
<g id="node1" class="node">
<title>Node1</title>
<g id="a_node1"><a xlink:title=" ">
<polygon fill="#bfbfbf" stroke="#000000" points="379,-67.5 379,-86.5 495,-86.5 495,-67.5 379,-67.5"/>
<text text-anchor="middle" x="437" y="-74.5" font-family="Helvetica,sans-Serif" font-size="10.00" fill="#000000">ee/sbv/include/slib.h</text>
</a>
</g>
</g>
<!-- Node2 -->
<g id="node2" class="node">
<title>Node2</title>
<g id="a_node2"><a xlink:href="common_8c.html" target="_top" xlink:title=" ">
<polygon fill="#ffffff" stroke="#000000" points="0,-6 0,-25 120,-25 120,-6 0,-6"/>
<text text-anchor="middle" x="60" y="-13" font-family="Helvetica,sans-Serif" font-size="10.00" fill="#000000">ee/sbv/src/common.c</text>
</a>
</g>
</g>
<!-- Node1&#45;&gt;Node2 -->
<g id="edge1" class="edge">
<title>Node1&#45;&gt;Node2</title>
<path fill="none" stroke="#191970" d="M368.7484,-68.2562C306.1771,-59.8967 211.0606,-46.3239 129,-31 119.5861,-29.2421 109.5033,-27.1164 100.033,-25.0104"/>
<polygon fill="#191970" stroke="#191970" points="368.5141,-71.7558 378.888,-69.6033 369.436,-64.8167 368.5141,-71.7558"/>
</g>
<!-- Node3 -->
<g id="node3" class="node">
<title>Node3</title>
<g id="a_node3"><a xlink:href="patch__disable__prefix__check_8c.html" target="_top" xlink:title=" ">
<polygon fill="#ffffff" stroke="#000000" points="138.5,-.5 138.5,-30.5 275.5,-30.5 275.5,-.5 138.5,-.5"/>
<text text-anchor="start" x="146.5" y="-18.5" font-family="Helvetica,sans-Serif" font-size="10.00" fill="#000000">ee/sbv/src/patch_disable</text>
<text text-anchor="middle" x="207" y="-7.5" font-family="Helvetica,sans-Serif" font-size="10.00" fill="#000000">_prefix_check.c</text>
</a>
</g>
</g>
<!-- Node1&#45;&gt;Node3 -->
<g id="edge2" class="edge">
<title>Node1&#45;&gt;Node3</title>
<path fill="none" stroke="#191970" d="M391.3698,-64.7989C354.6093,-54.9694 302.7497,-41.1026 263.3908,-30.5784"/>
<polygon fill="#191970" stroke="#191970" points="390.7501,-68.2561 401.3149,-67.4581 392.5584,-61.4937 390.7501,-68.2561"/>
</g>
<!-- Node4 -->
<g id="node4" class="node">
<title>Node4</title>
<g id="a_node4"><a xlink:href="patch__enable__lmb_8c.html" target="_top" xlink:title=" ">
<polygon fill="#ffffff" stroke="#000000" points="294,-.5 294,-30.5 428,-30.5 428,-.5 294,-.5"/>
<text text-anchor="start" x="302" y="-18.5" font-family="Helvetica,sans-Serif" font-size="10.00" fill="#000000">ee/sbv/src/patch_enable</text>
<text text-anchor="middle" x="361" y="-7.5" font-family="Helvetica,sans-Serif" font-size="10.00" fill="#000000">_lmb.c</text>
</a>
</g>
</g>
<!-- Node1&#45;&gt;Node4 -->
<g id="edge3" class="edge">
<title>Node1&#45;&gt;Node4</title>
<path fill="none" stroke="#191970" d="M417.2752,-61.0385C405.6455,-51.6276 391.0183,-39.7911 379.5917,-30.5446"/>
<polygon fill="#191970" stroke="#191970" points="415.1496,-63.8209 425.125,-67.3906 419.553,-58.3793 415.1496,-63.8209"/>
</g>
<!-- Node5 -->
<g id="node5" class="node">
<title>Node5</title>
<g id="a_node5"><a xlink:href="patch__fileio_8c.html" target="_top" xlink:title=" ">
<polygon fill="#ffffff" stroke="#000000" points="446,-6 446,-25 580,-25 580,-6 446,-6"/>
<text text-anchor="middle" x="513" y="-13" font-family="Helvetica,sans-Serif" font-size="10.00" fill="#000000">ee/sbv/src/patch_fileio.c</text>
</a>
</g>
</g>
<!-- Node1&#45;&gt;Node5 -->
<g id="edge4" class="edge">
<title>Node1&#45;&gt;Node5</title>
<path fill="none" stroke="#191970" d="M456.934,-60.8692C470.9125,-49.5576 489.1419,-34.8062 500.9576,-25.2449"/>
<polygon fill="#191970" stroke="#191970" points="454.447,-58.3793 448.875,-67.3906 458.8504,-63.8209 454.447,-58.3793"/>
</g>
<!-- Node6 -->
<g id="node6" class="node">
<title>Node6</title>
<g id="a_node6"><a xlink:href="slib_8c.html" target="_top" xlink:title=" ">
<polygon fill="#ffffff" stroke="#000000" points="598.5,-6 598.5,-25 693.5,-25 693.5,-6 598.5,-6"/>
<text text-anchor="middle" x="646" y="-13" font-family="Helvetica,sans-Serif" font-size="10.00" fill="#000000">ee/sbv/src/slib.c</text>
</a>
</g>
</g>
<!-- Node1&#45;&gt;Node6 -->
<g id="edge5" class="edge">
<title>Node1&#45;&gt;Node6</title>
<path fill="none" stroke="#191970" d="M479.3139,-64.5488C518.9926,-52.873 577.471,-35.6652 613.5731,-25.0419"/>
<polygon fill="#191970" stroke="#191970" points="478.2615,-61.21 469.6563,-67.3906 480.2376,-67.9253 478.2615,-61.21"/>
</g>
<!-- Node7 -->
<g id="node7" class="node">
<title>Node7</title>
<g id="a_node7"><a xlink:href="smod_8c.html" target="_top" xlink:title=" ">
<polygon fill="#ffffff" stroke="#000000" points="712,-6 712,-25 816,-25 816,-6 712,-6"/>
<text text-anchor="middle" x="764" y="-13" font-family="Helvetica,sans-Serif" font-size="10.00" fill="#000000">ee/sbv/src/smod.c</text>
</a>
</g>
</g>
<!-- Node1&#45;&gt;Node7 -->
<g id="edge6" class="edge">
<title>Node1&#45;&gt;Node7</title>
<path fill="none" stroke="#191970" d="M505.2294,-66.6953C559.1302,-58.1951 636.1481,-45.2515 703,-31 711.2287,-29.2458 720.026,-27.1446 728.3054,-25.0638"/>
<polygon fill="#191970" stroke="#191970" points="504.442,-63.2759 495.1048,-68.2826 505.5263,-70.1914 504.442,-63.2759"/>
</g>
</g>
</svg>
