<?xml version="1.0" encoding="UTF-8" standalone="no"?>
<!DOCTYPE svg PUBLIC "-//W3C//DTD SVG 1.1//EN"
 "http://www.w3.org/Graphics/SVG/1.1/DTD/svg11.dtd">
<!-- Generated by graphviz version 2.40.1 (20161225.0304)
 -->
<!-- Title: ee/rpc/poweroff/src/poweroff.c Pages: 1 -->
<!--zoomable 207 -->
<svg id="main" version="1.1" xmlns="http://www.w3.org/2000/svg" xmlns:xlink="http://www.w3.org/1999/xlink" xml:space="preserve" onload="init(evt)">
<style type="text/css"><![CDATA[
.edge:hover path { stroke: red; }
.edge:hover polygon { stroke: red; fill: red; }
]]></style>
<script type="text/javascript"><![CDATA[
var edges = document.getElementsByTagName('g');
if (edges && edges.length) {
  for (var i=0;i<edges.length;i++) {
    if (edges[i].id.substr(0,4)=='edge') {
      edges[i].setAttribute('class','edge');
    }
  }
}
]]></script>
        <defs>
                <circle id="rim" cx="0" cy="0" r="7"/>
                <circle id="rim2" cx="0" cy="0" r="3.5"/>
                <g id="zoomPlus">
                        <use xlink:href="#rim" fill="#404040">
                                <set attributeName="fill" to="#808080" begin="zoomplus.mouseover" end="zoomplus.mouseout"/>
                        </use>
                        <path d="M-4,0h8M0,-4v8" fill="none" stroke="white" stroke-width="1.5" pointer-events="none"/>
                </g>
                <g id="zoomMin">
                        <use xlink:href="#rim" fill="#404040">
                                <set attributeName="fill" to="#808080" begin="zoomminus.mouseover" end="zoomminus.mouseout"/>
                        </use>
                        <path d="M-4,0h8" fill="none" stroke="white" stroke-width="1.5" pointer-events="none"/>
                </g>
                <g id="dirArrow">
                        <path fill="none" stroke="white" stroke-width="1.5" d="M0,-3.0v7 M-2.5,-0.5L0,-3.0L2.5,-0.5"/>
                </g>
               <g id="resetDef">
                       <use xlink:href="#rim2" fill="#404040">
                               <set attributeName="fill" to="#808080" begin="reset.mouseover" end="reset.mouseout"/>
                       </use>
               </g>
        </defs>

<script type="text/javascript">
var viewWidth = 564;
var viewHeight = 207;
var sectionId = 'dynsection-0';
</script>
<script xlink:href="svgpan.js"/>
<svg id="graph" class="graph">
<g id="viewport">
<title>ee/rpc/poweroff/src/poweroff.c</title>
<polygon fill="#ffffff" stroke="transparent" points="-4,4 -4,-203 559.5,-203 559.5,4 -4,4"/>
<!-- Node1 -->
<g id="node1" class="node">
<title>Node1</title>
<g id="a_node1"><a xlink:title=" ">
<polygon fill="#bfbfbf" stroke="#000000" points="207,-168.5 207,-198.5 317,-198.5 317,-168.5 207,-168.5"/>
<text text-anchor="start" x="215" y="-186.5" font-family="Helvetica,sans-Serif" font-size="10.00" fill="#000000">ee/rpc/poweroff/src</text>
<text text-anchor="middle" x="262" y="-175.5" font-family="Helvetica,sans-Serif" font-size="10.00" fill="#000000">/poweroff.c</text>
</a>
</g>
</g>
<!-- Node2 -->
<g id="node2" class="node">
<title>Node2</title>
<g id="a_node2"><a xlink:href="libpwroff_8h.html" target="_top" xlink:title=" ">
<polygon fill="#ffffff" stroke="#000000" points="0,-112.5 0,-131.5 68,-131.5 68,-112.5 0,-112.5"/>
<text text-anchor="middle" x="34" y="-119.5" font-family="Helvetica,sans-Serif" font-size="10.00" fill="#000000">libpwroff.h</text>
</a>
</g>
</g>
<!-- Node1&#45;&gt;Node2 -->
<g id="edge1" class="edge">
<title>Node1&#45;&gt;Node2</title>
<path fill="none" stroke="#191970" d="M206.8076,-168.6126C167.2948,-157.9545 114.8025,-143.7954 78.0802,-133.8901"/>
<polygon fill="#191970" stroke="#191970" points="78.7312,-130.4406 68.1647,-131.2155 76.9081,-137.1991 78.7312,-130.4406"/>
</g>
<!-- Node3 -->
<g id="node3" class="node">
<title>Node3</title>
<g id="a_node3"><a xlink:href="errno_8h.html" target="_top" xlink:title=" ">
<polygon fill="#ffffff" stroke="#000000" points="86.5,-112.5 86.5,-131.5 137.5,-131.5 137.5,-112.5 86.5,-112.5"/>
<text text-anchor="middle" x="112" y="-119.5" font-family="Helvetica,sans-Serif" font-size="10.00" fill="#000000">errno.h</text>
</a>
</g>
</g>
<!-- Node1&#45;&gt;Node3 -->
<g id="edge2" class="edge">
<title>Node1&#45;&gt;Node3</title>
<path fill="none" stroke="#191970" d="M225.3059,-168.4554C200.6073,-158.329 168.3326,-145.0964 144.5494,-135.3453"/>
<polygon fill="#191970" stroke="#191970" points="145.825,-132.0855 135.2447,-131.5303 143.1694,-138.5623 145.825,-132.0855"/>
</g>
<!-- Node4 -->
<g id="node4" class="node">
<title>Node4</title>
<g id="a_node4"><a xlink:title=" ">
<polygon fill="#ffffff" stroke="#bfbfbf" points="156,-112.5 156,-131.5 206,-131.5 206,-112.5 156,-112.5"/>
<text text-anchor="middle" x="181" y="-119.5" font-family="Helvetica,sans-Serif" font-size="10.00" fill="#000000">stdio.h</text>
</a>
</g>
</g>
<!-- Node1&#45;&gt;Node4 -->
<g id="edge3" class="edge">
<title>Node1&#45;&gt;Node4</title>
<path fill="none" stroke="#191970" d="M241.9775,-168.2977C229.914,-159.1384 214.5612,-147.4816 202.2789,-138.1562"/>
<polygon fill="#191970" stroke="#191970" points="204.0501,-135.1065 193.9691,-131.8469 199.8171,-140.6816 204.0501,-135.1065"/>
</g>
<!-- Node5 -->
<g id="node5" class="node">
<title>Node5</title>
<g id="a_node5"><a xlink:href="tamtypes_8h.html" target="_top" xlink:title=" ">
<polygon fill="#ffffff" stroke="#000000" points="404,-.5 404,-19.5 476,-19.5 476,-.5 404,-.5"/>
<text text-anchor="middle" x="440" y="-7.5" font-family="Helvetica,sans-Serif" font-size="10.00" fill="#000000">tamtypes.h</text>
</a>
</g>
</g>
<!-- Node1&#45;&gt;Node5 -->
<g id="edge4" class="edge">
<title>Node1&#45;&gt;Node5</title>
<path fill="none" stroke="#191970" d="M254.9848,-168.2411C244.1816,-142.2046 227.2641,-88.8339 253,-56 270.1372,-34.1364 343.824,-21.2743 393.4219,-14.9401"/>
<polygon fill="#191970" stroke="#191970" points="394.1131,-18.3816 403.6109,-13.6867 393.2583,-11.4339 394.1131,-18.3816"/>
</g>
<!-- Node6 -->
<g id="node6" class="node">
<title>Node6</title>
<g id="a_node6"><a xlink:href="kernel_8h.html" target="_top" xlink:title=" ">
<polygon fill="#ffffff" stroke="#000000" points="262,-112.5 262,-131.5 318,-131.5 318,-112.5 262,-112.5"/>
<text text-anchor="middle" x="290" y="-119.5" font-family="Helvetica,sans-Serif" font-size="10.00" fill="#000000">kernel.h</text>
</a>
</g>
</g>
<!-- Node1&#45;&gt;Node6 -->
<g id="edge5" class="edge">
<title>Node1&#45;&gt;Node6</title>
<path fill="none" stroke="#191970" d="M268.9214,-168.2977C272.6461,-160.1166 277.278,-149.943 281.2504,-141.2179"/>
<polygon fill="#191970" stroke="#191970" points="284.5586,-142.3983 285.5168,-131.8469 278.1878,-139.4978 284.5586,-142.3983"/>
</g>
<!-- Node10 -->
<g id="node10" class="node">
<title>Node10</title>
<g id="a_node10"><a xlink:title=" ">
<polygon fill="#ffffff" stroke="#bfbfbf" points="336.5,-112.5 336.5,-131.5 389.5,-131.5 389.5,-112.5 336.5,-112.5"/>
<text text-anchor="middle" x="363" y="-119.5" font-family="Helvetica,sans-Serif" font-size="10.00" fill="#000000">string.h</text>
</a>
</g>
</g>
<!-- Node1&#45;&gt;Node10 -->
<g id="edge10" class="edge">
<title>Node1&#45;&gt;Node10</title>
<path fill="none" stroke="#191970" d="M286.7074,-168.4554C302.5247,-158.8241 322.9567,-146.3828 338.6949,-136.7996"/>
<polygon fill="#191970" stroke="#191970" points="340.6277,-139.7206 347.3486,-131.5303 336.9871,-133.7418 340.6277,-139.7206"/>
</g>
<!-- Node11 -->
<g id="node11" class="node">
<title>Node11</title>
<g id="a_node11"><a xlink:href="sifrpc_8h.html" target="_top" xlink:title=" ">
<polygon fill="#ffffff" stroke="#000000" points="407.5,-112.5 407.5,-131.5 460.5,-131.5 460.5,-112.5 407.5,-112.5"/>
<text text-anchor="middle" x="434" y="-119.5" font-family="Helvetica,sans-Serif" font-size="10.00" fill="#000000">sifrpc.h</text>
</a>
</g>
</g>
<!-- Node1&#45;&gt;Node11 -->
<g id="edge11" class="edge">
<title>Node1&#45;&gt;Node11</title>
<path fill="none" stroke="#191970" d="M304.0759,-168.4554C332.7746,-158.194 370.3937,-144.7429 397.7623,-134.9571"/>
<polygon fill="#191970" stroke="#191970" points="399.1083,-138.1929 407.3461,-131.5303 396.7515,-131.6015 399.1083,-138.1929"/>
</g>
<!-- Node13 -->
<g id="node13" class="node">
<title>Node13</title>
<g id="a_node13"><a xlink:href="pwroff__rpc_8h.html" target="_top" xlink:title=" ">
<polygon fill="#ffffff" stroke="#000000" points="478.5,-112.5 478.5,-131.5 555.5,-131.5 555.5,-112.5 478.5,-112.5"/>
<text text-anchor="middle" x="517" y="-119.5" font-family="Helvetica,sans-Serif" font-size="10.00" fill="#000000">pwroff_rpc.h</text>
</a>
</g>
</g>
<!-- Node1&#45;&gt;Node13 -->
<g id="edge14" class="edge">
<title>Node1&#45;&gt;Node13</title>
<path fill="none" stroke="#191970" d="M317.0173,-170.2311C362.0184,-159.3779 425.0587,-144.1741 468.2626,-133.7543"/>
<polygon fill="#191970" stroke="#191970" points="469.3508,-137.0923 478.2515,-131.3452 467.7096,-130.2874 469.3508,-137.0923"/>
</g>
<!-- Node7 -->
<g id="node7" class="node">
<title>Node7</title>
<g id="a_node7"><a xlink:title=" ">
<polygon fill="#ffffff" stroke="#bfbfbf" points="262,-56.5 262,-75.5 318,-75.5 318,-56.5 262,-56.5"/>
<text text-anchor="middle" x="290" y="-63.5" font-family="Helvetica,sans-Serif" font-size="10.00" fill="#000000">stddef.h</text>
</a>
</g>
</g>
<!-- Node6&#45;&gt;Node7 -->
<g id="edge6" class="edge">
<title>Node6&#45;&gt;Node7</title>
<path fill="none" stroke="#191970" d="M290,-112.2455C290,-104.9382 290,-94.6944 290,-85.7046"/>
<polygon fill="#191970" stroke="#191970" points="293.5001,-85.6426 290,-75.6427 286.5001,-85.6427 293.5001,-85.6426"/>
</g>
<!-- Node8 -->
<g id="node8" class="node">
<title>Node8</title>
<g id="a_node8"><a xlink:title=" ">
<polygon fill="#ffffff" stroke="#bfbfbf" points="336,-56.5 336,-75.5 392,-75.5 392,-56.5 336,-56.5"/>
<text text-anchor="middle" x="364" y="-63.5" font-family="Helvetica,sans-Serif" font-size="10.00" fill="#000000">stdarg.h</text>
</a>
</g>
</g>
<!-- Node6&#45;&gt;Node8 -->
<g id="edge7" class="edge">
<title>Node6&#45;&gt;Node8</title>
<path fill="none" stroke="#191970" d="M302.8898,-112.2455C313.9254,-103.8943 330.0292,-91.7076 342.9353,-81.9408"/>
<polygon fill="#191970" stroke="#191970" points="345.3959,-84.4681 351.2579,-75.6427 341.1717,-78.8862 345.3959,-84.4681"/>
</g>
<!-- Node9 -->
<g id="node9" class="node">
<title>Node9</title>
<g id="a_node9"><a xlink:href="sifdma_8h.html" target="_top" xlink:title=" ">
<polygon fill="#ffffff" stroke="#000000" points="410.5,-56.5 410.5,-75.5 469.5,-75.5 469.5,-56.5 410.5,-56.5"/>
<text text-anchor="middle" x="440" y="-63.5" font-family="Helvetica,sans-Serif" font-size="10.00" fill="#000000">sifdma.h</text>
</a>
</g>
</g>
<!-- Node6&#45;&gt;Node9 -->
<g id="edge8" class="edge">
<title>Node6&#45;&gt;Node9</title>
<path fill="none" stroke="#191970" d="M315.7859,-112.3733C340.4047,-103.1822 377.69,-89.2624 404.9875,-79.0713"/>
<polygon fill="#191970" stroke="#191970" points="406.4063,-82.2777 414.5506,-75.5011 403.958,-75.7198 406.4063,-82.2777"/>
</g>
<!-- Node9&#45;&gt;Node5 -->
<g id="edge9" class="edge">
<title>Node9&#45;&gt;Node5</title>
<path fill="none" stroke="#191970" d="M440,-56.2455C440,-48.9382 440,-38.6944 440,-29.7046"/>
<polygon fill="#191970" stroke="#191970" points="443.5001,-29.6426 440,-19.6427 436.5001,-29.6427 443.5001,-29.6426"/>
</g>
<!-- Node12 -->
<g id="node12" class="node">
<title>Node12</title>
<g id="a_node12"><a xlink:href="sifcmd_8h.html" target="_top" xlink:title=" ">
<polygon fill="#ffffff" stroke="#000000" points="487.5,-56.5 487.5,-75.5 546.5,-75.5 546.5,-56.5 487.5,-56.5"/>
<text text-anchor="middle" x="517" y="-63.5" font-family="Helvetica,sans-Serif" font-size="10.00" fill="#000000">sifcmd.h</text>
</a>
</g>
</g>
<!-- Node11&#45;&gt;Node12 -->
<g id="edge12" class="edge">
<title>Node11&#45;&gt;Node12</title>
<path fill="none" stroke="#191970" d="M448.4575,-112.2455C461.0732,-103.7337 479.5944,-91.2375 494.2045,-81.3801"/>
<polygon fill="#191970" stroke="#191970" points="496.3761,-84.1371 502.7082,-75.6427 492.4609,-78.3343 496.3761,-84.1371"/>
</g>
<!-- Node12&#45;&gt;Node5 -->
<g id="edge13" class="edge">
<title>Node12&#45;&gt;Node5</title>
<path fill="none" stroke="#191970" d="M503.5876,-56.2455C491.9943,-47.814 475.0252,-35.4729 461.5322,-25.6598"/>
<polygon fill="#191970" stroke="#191970" points="463.4047,-22.6938 453.2587,-19.6427 459.2874,-28.355 463.4047,-22.6938"/>
</g>
</g>
</svg>
        <g id="navigator" transform="translate(0 0)" fill="#404254">
                <rect fill="#f2f5e9" fill-opacity="0.5" stroke="#606060" stroke-width=".5" x="0" y="0" width="60" height="60"/>
                <use id="zoomplus" xlink:href="#zoomPlus" x="17" y="9" onmousedown="handleZoom(evt,'in')"/>
                <use id="zoomminus" xlink:href="#zoomMin" x="42" y="9" onmousedown="handleZoom(evt,'out')"/>
                <use id="reset" xlink:href="#resetDef" x="30" y="36" onmousedown="handleReset()"/>
                <g id="arrowUp" xlink:href="#dirArrow" transform="translate(30 24)" onmousedown="handlePan(0,-1)">
                  <use xlink:href="#rim" fill="#404040">
                        <set attributeName="fill" to="#808080" begin="arrowUp.mouseover" end="arrowUp.mouseout"/>
                  </use>
                  <path fill="none" stroke="white" stroke-width="1.5" d="M0,-3.0v7 M-2.5,-0.5L0,-3.0L2.5,-0.5"/>
                </g>
                <g id="arrowRight" xlink:href="#dirArrow" transform="rotate(90) translate(36 -43)" onmousedown="handlePan(1,0)">
                  <use xlink:href="#rim" fill="#404040">
                        <set attributeName="fill" to="#808080" begin="arrowRight.mouseover" end="arrowRight.mouseout"/>
                  </use>
                  <path fill="none" stroke="white" stroke-width="1.5" d="M0,-3.0v7 M-2.5,-0.5L0,-3.0L2.5,-0.5"/>
                </g>
                <g id="arrowDown" xlink:href="#dirArrow" transform="rotate(180) translate(-30 -48)" onmousedown="handlePan(0,1)">
                  <use xlink:href="#rim" fill="#404040">
                        <set attributeName="fill" to="#808080" begin="arrowDown.mouseover" end="arrowDown.mouseout"/>
                  </use>
                  <path fill="none" stroke="white" stroke-width="1.5" d="M0,-3.0v7 M-2.5,-0.5L0,-3.0L2.5,-0.5"/>
                </g>
                <g id="arrowLeft" xlink:href="#dirArrow" transform="rotate(270) translate(-36 17)" onmousedown="handlePan(-1,0)">
                  <use xlink:href="#rim" fill="#404040">
                        <set attributeName="fill" to="#808080" begin="arrowLeft.mouseover" end="arrowLeft.mouseout"/>
                  </use>
                  <path fill="none" stroke="white" stroke-width="1.5" d="M0,-3.0v7 M-2.5,-0.5L0,-3.0L2.5,-0.5"/>
                </g>
        </g>
        <svg viewBox="0 0 15 15" width="100%" height="30px" preserveAspectRatio="xMaxYMin meet">
         <g id="arrow_out" transform="scale(0.3 0.3)">
          <a xlink:href="src_2poweroff_8c__incl_org.svg" target="_base">
           <rect id="button" ry="5" rx="5" y="6" x="6" height="38" width="38"
                fill="#f2f5e9" fill-opacity="0.5" stroke="#606060" stroke-width="1.0"/>
           <path id="arrow"
             d="M 11.500037,31.436501 C 11.940474,20.09759 22.043105,11.32322 32.158766,21.979434 L 37.068811,17.246167 C 37.068811,17.246167 37.088388,32 37.088388,32 L 22.160133,31.978069 C 22.160133,31.978069 26.997745,27.140456 26.997745,27.140456 C 18.528582,18.264221 13.291696,25.230495 11.500037,31.436501 z"
             style="fill:#404040;"/>
          </a>
         </g>
        </svg>
</svg>
