<?xml version="1.0" encoding="UTF-8" standalone="no"?>
<!DOCTYPE svg PUBLIC "-//W3C//DTD SVG 1.1//EN"
 "http://www.w3.org/Graphics/SVG/1.1/DTD/svg11.dtd">
<!-- Generated by graphviz version 2.40.1 (20161225.0304)
 -->
<!-- Title: ee/network/tcpip/src/ps2ip.c Pages: 1 -->
<svg width="1161pt" height="151pt"
 viewBox="0.00 0.00 1160.50 151.00" xmlns="http://www.w3.org/2000/svg" xmlns:xlink="http://www.w3.org/1999/xlink">
<g id="graph0" class="graph" transform="scale(1 1) rotate(0) translate(4 147)">
<title>ee/network/tcpip/src/ps2ip.c</title>
<polygon fill="#ffffff" stroke="transparent" points="-4,4 -4,-147 1156.5,-147 1156.5,4 -4,4"/>
<!-- Node1 -->
<g id="node1" class="node">
<title>Node1</title>
<g id="a_node1"><a xlink:title=" ">
<polygon fill="#bfbfbf" stroke="#000000" points="464,-112.5 464,-142.5 580,-142.5 580,-112.5 464,-112.5"/>
<text text-anchor="start" x="472" y="-130.5" font-family="Helvetica,sans-Serif" font-size="10.00" fill="#000000">ee/network/tcpip/src</text>
<text text-anchor="middle" x="522" y="-119.5" font-family="Helvetica,sans-Serif" font-size="10.00" fill="#000000">/ps2ip.c</text>
</a>
</g>
</g>
<!-- Node2 -->
<g id="node2" class="node">
<title>Node2</title>
<g id="a_node2"><a xlink:title=" ">
<polygon fill="#ffffff" stroke="#bfbfbf" points="0,-56.5 0,-75.5 50,-75.5 50,-56.5 0,-56.5"/>
<text text-anchor="middle" x="25" y="-63.5" font-family="Helvetica,sans-Serif" font-size="10.00" fill="#000000">stdio.h</text>
</a>
</g>
</g>
<!-- Node1&#45;&gt;Node2 -->
<g id="edge1" class="edge">
<title>Node1&#45;&gt;Node2</title>
<path fill="none" stroke="#191970" d="M463.7518,-124.3055C377.3891,-118.8478 210.2896,-105.5239 60.0019,-75.8992"/>
<polygon fill="#191970" stroke="#191970" points="60.6203,-72.4537 50.1281,-73.9242 59.2473,-79.3177 60.6203,-72.4537"/>
</g>
<!-- Node3 -->
<g id="node3" class="node">
<title>Node3</title>
<g id="a_node3"><a xlink:title=" ">
<polygon fill="#ffffff" stroke="#bfbfbf" points="68.5,-56.5 68.5,-75.5 121.5,-75.5 121.5,-56.5 68.5,-56.5"/>
<text text-anchor="middle" x="95" y="-63.5" font-family="Helvetica,sans-Serif" font-size="10.00" fill="#000000">string.h</text>
</a>
</g>
</g>
<!-- Node1&#45;&gt;Node3 -->
<g id="edge2" class="edge">
<title>Node1&#45;&gt;Node3</title>
<path fill="none" stroke="#191970" d="M463.7669,-122.5591C388.8415,-115.602 254.597,-101.1104 131.6172,-76.1082"/>
<polygon fill="#191970" stroke="#191970" points="132.1528,-72.6451 121.652,-74.0538 130.7393,-79.5009 132.1528,-72.6451"/>
</g>
<!-- Node4 -->
<g id="node4" class="node">
<title>Node4</title>
<g id="a_node4"><a xlink:href="netman_8h.html" target="_top" xlink:title=" ">
<polygon fill="#ffffff" stroke="#000000" points="139.5,-56.5 139.5,-75.5 202.5,-75.5 202.5,-56.5 139.5,-56.5"/>
<text text-anchor="middle" x="171" y="-63.5" font-family="Helvetica,sans-Serif" font-size="10.00" fill="#000000">netman.h</text>
</a>
</g>
</g>
<!-- Node1&#45;&gt;Node4 -->
<g id="edge3" class="edge">
<title>Node1&#45;&gt;Node4</title>
<path fill="none" stroke="#191970" d="M463.7701,-119.1523C403.4244,-110.2029 306.1835,-94.9501 212.6464,-76.0114"/>
<polygon fill="#191970" stroke="#191970" points="213.2295,-72.5584 202.7314,-73.987 211.8291,-79.4169 213.2295,-72.5584"/>
</g>
<!-- Node6 -->
<g id="node6" class="node">
<title>Node6</title>
<g id="a_node6"><a xlink:title=" ">
<polygon fill="#ffffff" stroke="#bfbfbf" points="221,-56.5 221,-75.5 301,-75.5 301,-56.5 221,-56.5"/>
<text text-anchor="middle" x="261" y="-63.5" font-family="Helvetica,sans-Serif" font-size="10.00" fill="#000000">lwip/memp.h</text>
</a>
</g>
</g>
<!-- Node1&#45;&gt;Node6 -->
<g id="edge5" class="edge">
<title>Node1&#45;&gt;Node6</title>
<path fill="none" stroke="#191970" d="M463.7514,-113.7747C417.8946,-102.9694 354.6573,-88.0687 311.0588,-77.7955"/>
<polygon fill="#191970" stroke="#191970" points="311.7817,-74.37 301.2455,-75.4831 310.1762,-81.1834 311.7817,-74.37"/>
</g>
<!-- Node7 -->
<g id="node7" class="node">
<title>Node7</title>
<g id="a_node7"><a xlink:title=" ">
<polygon fill="#ffffff" stroke="#bfbfbf" points="319.5,-56.5 319.5,-75.5 384.5,-75.5 384.5,-56.5 319.5,-56.5"/>
<text text-anchor="middle" x="352" y="-63.5" font-family="Helvetica,sans-Serif" font-size="10.00" fill="#000000">lwip/sys.h</text>
</a>
</g>
</g>
<!-- Node1&#45;&gt;Node7 -->
<g id="edge6" class="edge">
<title>Node1&#45;&gt;Node7</title>
<path fill="none" stroke="#191970" d="M480.4133,-112.4554C452.0484,-102.194 414.8667,-88.7429 387.8164,-78.9571"/>
<polygon fill="#191970" stroke="#191970" points="388.9382,-75.641 378.344,-75.5303 386.5569,-82.2235 388.9382,-75.641"/>
</g>
<!-- Node8 -->
<g id="node8" class="node">
<title>Node8</title>
<g id="a_node8"><a xlink:title=" ">
<polygon fill="#ffffff" stroke="#bfbfbf" points="403,-56.5 403,-75.5 467,-75.5 467,-56.5 403,-56.5"/>
<text text-anchor="middle" x="435" y="-63.5" font-family="Helvetica,sans-Serif" font-size="10.00" fill="#000000">lwip/tcp.h</text>
</a>
</g>
</g>
<!-- Node1&#45;&gt;Node8 -->
<g id="edge7" class="edge">
<title>Node1&#45;&gt;Node8</title>
<path fill="none" stroke="#191970" d="M500.4944,-112.2977C487.2032,-102.9022 470.1943,-90.8787 456.8412,-81.4395"/>
<polygon fill="#191970" stroke="#191970" points="458.8561,-78.5776 448.67,-75.6633 454.8154,-84.2937 458.8561,-78.5776"/>
</g>
<!-- Node9 -->
<g id="node9" class="node">
<title>Node9</title>
<g id="a_node9"><a xlink:title=" ">
<polygon fill="#ffffff" stroke="#bfbfbf" points="485.5,-56.5 485.5,-75.5 558.5,-75.5 558.5,-56.5 485.5,-56.5"/>
<text text-anchor="middle" x="522" y="-63.5" font-family="Helvetica,sans-Serif" font-size="10.00" fill="#000000">lwip/tcpip.h</text>
</a>
</g>
</g>
<!-- Node1&#45;&gt;Node9 -->
<g id="edge8" class="edge">
<title>Node1&#45;&gt;Node9</title>
<path fill="none" stroke="#191970" d="M522,-112.2977C522,-104.3834 522,-94.6043 522,-86.0759"/>
<polygon fill="#191970" stroke="#191970" points="525.5001,-85.8469 522,-75.8469 518.5001,-85.847 525.5001,-85.8469"/>
</g>
<!-- Node10 -->
<g id="node10" class="node">
<title>Node10</title>
<g id="a_node10"><a xlink:title=" ">
<polygon fill="#ffffff" stroke="#bfbfbf" points="576.5,-56.5 576.5,-75.5 647.5,-75.5 647.5,-56.5 576.5,-56.5"/>
<text text-anchor="middle" x="612" y="-63.5" font-family="Helvetica,sans-Serif" font-size="10.00" fill="#000000">lwip/netif.h</text>
</a>
</g>
</g>
<!-- Node1&#45;&gt;Node10 -->
<g id="edge9" class="edge">
<title>Node1&#45;&gt;Node10</title>
<path fill="none" stroke="#191970" d="M544.2472,-112.2977C557.9967,-102.9022 575.5921,-90.8787 589.4057,-81.4395"/>
<polygon fill="#191970" stroke="#191970" points="591.5768,-84.195 597.8586,-75.6633 587.6275,-78.4155 591.5768,-84.195"/>
</g>
<!-- Node11 -->
<g id="node11" class="node">
<title>Node11</title>
<g id="a_node11"><a xlink:title=" ">
<polygon fill="#ffffff" stroke="#bfbfbf" points="666,-56.5 666,-75.5 738,-75.5 738,-56.5 666,-56.5"/>
<text text-anchor="middle" x="702" y="-63.5" font-family="Helvetica,sans-Serif" font-size="10.00" fill="#000000">lwip/dhcp.h</text>
</a>
</g>
</g>
<!-- Node1&#45;&gt;Node11 -->
<g id="edge10" class="edge">
<title>Node1&#45;&gt;Node11</title>
<path fill="none" stroke="#191970" d="M566.033,-112.4554C596.1981,-102.149 635.7808,-88.6249 664.453,-78.8286"/>
<polygon fill="#191970" stroke="#191970" points="665.7751,-82.0756 674.1064,-75.5303 663.5118,-75.4515 665.7751,-82.0756"/>
</g>
<!-- Node12 -->
<g id="node12" class="node">
<title>Node12</title>
<g id="a_node12"><a xlink:title=" ">
<polygon fill="#ffffff" stroke="#bfbfbf" points="756.5,-56.5 756.5,-75.5 851.5,-75.5 851.5,-56.5 756.5,-56.5"/>
<text text-anchor="middle" x="804" y="-63.5" font-family="Helvetica,sans-Serif" font-size="10.00" fill="#000000">lwip/prot/dhcp.h</text>
</a>
</g>
</g>
<!-- Node1&#45;&gt;Node12 -->
<g id="edge11" class="edge">
<title>Node1&#45;&gt;Node12</title>
<path fill="none" stroke="#191970" d="M580.0887,-114.8317C630.0636,-103.9329 701.5906,-88.334 750.2604,-77.7198"/>
<polygon fill="#191970" stroke="#191970" points="751.2586,-81.0845 760.2831,-75.534 749.767,-74.2452 751.2586,-81.0845"/>
</g>
<!-- Node13 -->
<g id="node13" class="node">
<title>Node13</title>
<g id="a_node13"><a xlink:title=" ">
<polygon fill="#ffffff" stroke="#bfbfbf" points="870,-56.5 870,-75.5 938,-75.5 938,-56.5 870,-56.5"/>
<text text-anchor="middle" x="904" y="-63.5" font-family="Helvetica,sans-Serif" font-size="10.00" fill="#000000">lwip/inet.h</text>
</a>
</g>
</g>
<!-- Node1&#45;&gt;Node13 -->
<g id="edge12" class="edge">
<title>Node1&#45;&gt;Node13</title>
<path fill="none" stroke="#191970" d="M580.2316,-119.9302C647.7609,-110.8504 762.3153,-94.5174 860,-76 860.101,-75.9809 860.2022,-75.9616 860.3034,-75.9424"/>
<polygon fill="#191970" stroke="#191970" points="860.8317,-79.4064 869.9411,-73.9962 859.4461,-72.5449 860.8317,-79.4064"/>
</g>
<!-- Node14 -->
<g id="node14" class="node">
<title>Node14</title>
<g id="a_node14"><a xlink:title=" ">
<polygon fill="#ffffff" stroke="#bfbfbf" points="956.5,-56.5 956.5,-75.5 1039.5,-75.5 1039.5,-56.5 956.5,-56.5"/>
<text text-anchor="middle" x="998" y="-63.5" font-family="Helvetica,sans-Serif" font-size="10.00" fill="#000000">netif/etharp.h</text>
</a>
</g>
</g>
<!-- Node1&#45;&gt;Node14 -->
<g id="edge13" class="edge">
<title>Node1&#45;&gt;Node14</title>
<path fill="none" stroke="#191970" d="M580.2756,-121.8002C660.3341,-113.668 809.0301,-97.4852 946.0333,-76.0536"/>
<polygon fill="#191970" stroke="#191970" points="946.9631,-79.4503 956.2956,-74.4348 945.8723,-72.5358 946.9631,-79.4503"/>
</g>
<!-- Node15 -->
<g id="node15" class="node">
<title>Node15</title>
<g id="a_node15"><a xlink:href="ps2ip__internal_8h.html" target="_top" xlink:title=" ">
<polygon fill="#ffffff" stroke="#000000" points="1057.5,-56.5 1057.5,-75.5 1152.5,-75.5 1152.5,-56.5 1057.5,-56.5"/>
<text text-anchor="middle" x="1105" y="-63.5" font-family="Helvetica,sans-Serif" font-size="10.00" fill="#000000">ps2ip_internal.h</text>
</a>
</g>
</g>
<!-- Node1&#45;&gt;Node15 -->
<g id="edge14" class="edge">
<title>Node1&#45;&gt;Node15</title>
<path fill="none" stroke="#191970" d="M580.2738,-123.3239C675.8204,-116.1432 871.9369,-100.0072 1047.4503,-76.1307"/>
<polygon fill="#191970" stroke="#191970" points="1047.9504,-79.5949 1057.3819,-74.7682 1046.9989,-72.6599 1047.9504,-79.5949"/>
</g>
<!-- Node5 -->
<g id="node5" class="node">
<title>Node5</title>
<g id="a_node5"><a xlink:href="tamtypes_8h.html" target="_top" xlink:title=" ">
<polygon fill="#ffffff" stroke="#000000" points="135,-.5 135,-19.5 207,-19.5 207,-.5 135,-.5"/>
<text text-anchor="middle" x="171" y="-7.5" font-family="Helvetica,sans-Serif" font-size="10.00" fill="#000000">tamtypes.h</text>
</a>
</g>
</g>
<!-- Node4&#45;&gt;Node5 -->
<g id="edge4" class="edge">
<title>Node4&#45;&gt;Node5</title>
<path fill="none" stroke="#191970" d="M171,-56.2455C171,-48.9382 171,-38.6944 171,-29.7046"/>
<polygon fill="#191970" stroke="#191970" points="174.5001,-29.6426 171,-19.6427 167.5001,-29.6427 174.5001,-29.6426"/>
</g>
<!-- Node16 -->
<g id="node16" class="node">
<title>Node16</title>
<g id="a_node16"><a xlink:title=" ">
<polygon fill="#ffffff" stroke="#bfbfbf" points="1062,-.5 1062,-19.5 1148,-19.5 1148,-.5 1062,-.5"/>
<text text-anchor="middle" x="1105" y="-7.5" font-family="Helvetica,sans-Serif" font-size="10.00" fill="#000000">lwip/sockets.h</text>
</a>
</g>
</g>
<!-- Node15&#45;&gt;Node16 -->
<g id="edge15" class="edge">
<title>Node15&#45;&gt;Node16</title>
<path fill="none" stroke="#191970" d="M1105,-56.2455C1105,-48.9382 1105,-38.6944 1105,-29.7046"/>
<polygon fill="#191970" stroke="#191970" points="1108.5001,-29.6426 1105,-19.6427 1101.5001,-29.6427 1108.5001,-29.6426"/>
</g>
</g>
</svg>
