<?xml version="1.0" encoding="UTF-8" standalone="no"?>
<!DOCTYPE svg PUBLIC "-//W3C//DTD SVG 1.1//EN"
 "http://www.w3.org/Graphics/SVG/1.1/DTD/svg11.dtd">
<!-- Generated by graphviz version 2.40.1 (20161225.0304)
 -->
<!-- Title: GS_TRIANGLE_F3_P Pages: 1 -->
<svg width="265pt" height="184pt"
 viewBox="0.00 0.00 265.00 184.00" xmlns="http://www.w3.org/2000/svg" xmlns:xlink="http://www.w3.org/1999/xlink">
<g id="graph0" class="graph" transform="scale(1 1) rotate(0) translate(4 180)">
<title>GS_TRIANGLE_F3_P</title>
<polygon fill="#ffffff" stroke="transparent" points="-4,4 -4,-180 261,-180 261,4 -4,4"/>
<!-- Node1 -->
<g id="node1" class="node">
<title>Node1</title>
<g id="a_node1"><a xlink:title=" ">
<polygon fill="#bfbfbf" stroke="#000000" points="74.5,-.5 74.5,-19.5 186.5,-19.5 186.5,-.5 74.5,-.5"/>
<text text-anchor="middle" x="130.5" y="-7.5" font-family="Helvetica,sans-Serif" font-size="10.00" fill="#000000">GS_TRIANGLE_F3_P</text>
</a>
</g>
</g>
<!-- Node2 -->
<g id="node2" class="node">
<title>Node2</title>
<g id="a_node2"><a xlink:href="structGS__R__PRIM.html" target="_top" xlink:title=" ">
<polygon fill="#ffffff" stroke="#000000" points="0,-89.5 0,-108.5 71,-108.5 71,-89.5 0,-89.5"/>
<text text-anchor="middle" x="35.5" y="-96.5" font-family="Helvetica,sans-Serif" font-size="10.00" fill="#000000">GS_R_PRIM</text>
</a>
</g>
</g>
<!-- Node2&#45;&gt;Node1 -->
<g id="edge1" class="edge">
<title>Node2&#45;&gt;Node1</title>
<path fill="none" stroke="#9a32cd" stroke-dasharray="5,2" d="M53.0234,-82.5306C66.0985,-70.2478 84.4057,-53.0625 100.5,-38 107.0541,-31.866 114.424,-24.9872 120.2189,-19.5827"/>
<polygon fill="#9a32cd" stroke="#9a32cd" points="50.5161,-80.0838 45.6249,-89.482 55.3094,-85.1853 50.5161,-80.0838"/>
<text text-anchor="middle" x="113.5" y="-52" font-family="Helvetica,sans-Serif" font-size="10.00" fill="#000000"> prim</text>
</g>
<!-- Node3 -->
<g id="node3" class="node">
<title>Node3</title>
<g id="a_node3"><a xlink:href="structGS__PRIM.html" target="_top" xlink:title=" ">
<polygon fill="#ffffff" stroke="#000000" points="6,-156.5 6,-175.5 65,-175.5 65,-156.5 6,-156.5"/>
<text text-anchor="middle" x="35.5" y="-163.5" font-family="Helvetica,sans-Serif" font-size="10.00" fill="#000000">GS_PRIM</text>
</a>
</g>
</g>
<!-- Node3&#45;&gt;Node2 -->
<g id="edge2" class="edge">
<title>Node3&#45;&gt;Node2</title>
<path fill="none" stroke="#9a32cd" stroke-dasharray="5,2" d="M35.5,-146.1079C35.5,-133.714 35.5,-118.3263 35.5,-108.5817"/>
<polygon fill="#9a32cd" stroke="#9a32cd" points="32.0001,-146.4005 35.5,-156.4005 39.0001,-146.4006 32.0001,-146.4005"/>
<text text-anchor="middle" x="48" y="-130" font-family="Helvetica,sans-Serif" font-size="10.00" fill="#000000"> data</text>
</g>
<!-- Node4 -->
<g id="node4" class="node">
<title>Node4</title>
<g id="a_node4"><a xlink:href="structGS__R__RGBAQ.html" target="_top" xlink:title=" ">
<polygon fill="#ffffff" stroke="#000000" points="89,-89.5 89,-108.5 172,-108.5 172,-89.5 89,-89.5"/>
<text text-anchor="middle" x="130.5" y="-96.5" font-family="Helvetica,sans-Serif" font-size="10.00" fill="#000000">GS_R_RGBAQ</text>
</a>
</g>
</g>
<!-- Node4&#45;&gt;Node1 -->
<g id="edge3" class="edge">
<title>Node4&#45;&gt;Node1</title>
<path fill="none" stroke="#9a32cd" stroke-dasharray="5,2" d="M130.5,-79.2379C130.5,-60.7654 130.5,-33.957 130.5,-19.7259"/>
<polygon fill="#9a32cd" stroke="#9a32cd" points="127.0001,-79.4754 130.5,-89.4754 134.0001,-79.4755 127.0001,-79.4754"/>
<text text-anchor="middle" x="149" y="-52" font-family="Helvetica,sans-Serif" font-size="10.00" fill="#000000"> rgbaq0</text>
</g>
<!-- Node5 -->
<g id="node5" class="node">
<title>Node5</title>
<g id="a_node5"><a xlink:href="structGS__RGBAQ.html" target="_top" xlink:title=" ">
<polygon fill="#ffffff" stroke="#000000" points="95,-156.5 95,-175.5 166,-175.5 166,-156.5 95,-156.5"/>
<text text-anchor="middle" x="130.5" y="-163.5" font-family="Helvetica,sans-Serif" font-size="10.00" fill="#000000">GS_RGBAQ</text>
</a>
</g>
</g>
<!-- Node5&#45;&gt;Node4 -->
<g id="edge4" class="edge">
<title>Node5&#45;&gt;Node4</title>
<path fill="none" stroke="#9a32cd" stroke-dasharray="5,2" d="M130.5,-146.1079C130.5,-133.714 130.5,-118.3263 130.5,-108.5817"/>
<polygon fill="#9a32cd" stroke="#9a32cd" points="127.0001,-146.4005 130.5,-156.4005 134.0001,-146.4006 127.0001,-146.4005"/>
<text text-anchor="middle" x="143" y="-130" font-family="Helvetica,sans-Serif" font-size="10.00" fill="#000000"> data</text>
</g>
<!-- Node6 -->
<g id="node6" class="node">
<title>Node6</title>
<g id="a_node6"><a xlink:href="structGS__R__XYZ.html" target="_top" xlink:title=" ">
<polygon fill="#ffffff" stroke="#000000" points="190,-89.5 190,-108.5 257,-108.5 257,-89.5 190,-89.5"/>
<text text-anchor="middle" x="223.5" y="-96.5" font-family="Helvetica,sans-Serif" font-size="10.00" fill="#000000">GS_R_XYZ</text>
</a>
</g>
</g>
<!-- Node6&#45;&gt;Node1 -->
<g id="edge5" class="edge">
<title>Node6&#45;&gt;Node1</title>
<path fill="none" stroke="#9a32cd" stroke-dasharray="5,2" d="M210.3618,-81.1719C200.4634,-68.379 186.1338,-51.1495 171.5,-38 163.9345,-31.2019 154.6325,-24.7218 146.8021,-19.7109"/>
<polygon fill="#9a32cd" stroke="#9a32cd" points="207.6271,-83.3582 216.456,-89.215 213.2065,-79.1308 207.6271,-83.3582"/>
<text text-anchor="middle" x="214" y="-63" font-family="Helvetica,sans-Serif" font-size="10.00" fill="#000000"> xyz0</text>
<text text-anchor="middle" x="214" y="-52" font-family="Helvetica,sans-Serif" font-size="10.00" fill="#000000">xyz1</text>
<text text-anchor="middle" x="214" y="-41" font-family="Helvetica,sans-Serif" font-size="10.00" fill="#000000">xyz2</text>
</g>
<!-- Node7 -->
<g id="node7" class="node">
<title>Node7</title>
<g id="a_node7"><a xlink:href="structGS__XYZ.html" target="_top" xlink:title=" ">
<polygon fill="#ffffff" stroke="#000000" points="196,-156.5 196,-175.5 251,-175.5 251,-156.5 196,-156.5"/>
<text text-anchor="middle" x="223.5" y="-163.5" font-family="Helvetica,sans-Serif" font-size="10.00" fill="#000000">GS_XYZ</text>
</a>
</g>
</g>
<!-- Node7&#45;&gt;Node6 -->
<g id="edge6" class="edge">
<title>Node7&#45;&gt;Node6</title>
<path fill="none" stroke="#9a32cd" stroke-dasharray="5,2" d="M223.5,-146.1079C223.5,-133.714 223.5,-118.3263 223.5,-108.5817"/>
<polygon fill="#9a32cd" stroke="#9a32cd" points="220.0001,-146.4005 223.5,-156.4005 227.0001,-146.4006 220.0001,-146.4005"/>
<text text-anchor="middle" x="236" y="-130" font-family="Helvetica,sans-Serif" font-size="10.00" fill="#000000"> data</text>
</g>
</g>
</svg>
