<?xml version="1.0" encoding="UTF-8" standalone="no"?>
<!DOCTYPE svg PUBLIC "-//W3C//DTD SVG 1.1//EN"
 "http://www.w3.org/Graphics/SVG/1.1/DTD/svg11.dtd">
<!-- Generated by graphviz version 2.40.1 (20161225.0304)
 -->
<!-- Title: GS_TRIANGLE_FT3_P Pages: 1 -->
<svg width="346pt" height="184pt"
 viewBox="0.00 0.00 346.00 184.00" xmlns="http://www.w3.org/2000/svg" xmlns:xlink="http://www.w3.org/1999/xlink">
<g id="graph0" class="graph" transform="scale(1 1) rotate(0) translate(4 180)">
<title>GS_TRIANGLE_FT3_P</title>
<polygon fill="#ffffff" stroke="transparent" points="-4,4 -4,-180 342,-180 342,4 -4,4"/>
<!-- Node1 -->
<g id="node1" class="node">
<title>Node1</title>
<g id="a_node1"><a xlink:title=" ">
<polygon fill="#bfbfbf" stroke="#000000" points="116.5,-.5 116.5,-19.5 234.5,-19.5 234.5,-.5 116.5,-.5"/>
<text text-anchor="middle" x="175.5" y="-7.5" font-family="Helvetica,sans-Serif" font-size="10.00" fill="#000000">GS_TRIANGLE_FT3_P</text>
</a>
</g>
</g>
<!-- Node2 -->
<g id="node2" class="node">
<title>Node2</title>
<g id="a_node2"><a xlink:href="structGS__R__PRIM.html" target="_top" xlink:title=" ">
<polygon fill="#ffffff" stroke="#000000" points="0,-89.5 0,-108.5 71,-108.5 71,-89.5 0,-89.5"/>
<text text-anchor="middle" x="35.5" y="-96.5" font-family="Helvetica,sans-Serif" font-size="10.00" fill="#000000">GS_R_PRIM</text>
</a>
</g>
</g>
<!-- Node2&#45;&gt;Node1 -->
<g id="edge1" class="edge">
<title>Node2&#45;&gt;Node1</title>
<path fill="none" stroke="#9a32cd" stroke-dasharray="5,2" d="M53.1986,-82.2287C67.7652,-69.0324 89.3814,-50.7968 110.5,-38 122.4797,-30.7409 136.6797,-24.3945 148.7469,-19.5873"/>
<polygon fill="#9a32cd" stroke="#9a32cd" points="50.4703,-79.9837 45.4936,-89.3369 55.2169,-85.1286 50.4703,-79.9837"/>
<text text-anchor="middle" x="123.5" y="-52" font-family="Helvetica,sans-Serif" font-size="10.00" fill="#000000"> prim</text>
</g>
<!-- Node3 -->
<g id="node3" class="node">
<title>Node3</title>
<g id="a_node3"><a xlink:href="structGS__PRIM.html" target="_top" xlink:title=" ">
<polygon fill="#ffffff" stroke="#000000" points="6,-156.5 6,-175.5 65,-175.5 65,-156.5 6,-156.5"/>
<text text-anchor="middle" x="35.5" y="-163.5" font-family="Helvetica,sans-Serif" font-size="10.00" fill="#000000">GS_PRIM</text>
</a>
</g>
</g>
<!-- Node3&#45;&gt;Node2 -->
<g id="edge2" class="edge">
<title>Node3&#45;&gt;Node2</title>
<path fill="none" stroke="#9a32cd" stroke-dasharray="5,2" d="M35.5,-146.1079C35.5,-133.714 35.5,-118.3263 35.5,-108.5817"/>
<polygon fill="#9a32cd" stroke="#9a32cd" points="32.0001,-146.4005 35.5,-156.4005 39.0001,-146.4006 32.0001,-146.4005"/>
<text text-anchor="middle" x="48" y="-130" font-family="Helvetica,sans-Serif" font-size="10.00" fill="#000000"> data</text>
</g>
<!-- Node4 -->
<g id="node4" class="node">
<title>Node4</title>
<g id="a_node4"><a xlink:href="structGS__R__RGBAQ.html" target="_top" xlink:title=" ">
<polygon fill="#ffffff" stroke="#000000" points="89,-89.5 89,-108.5 172,-108.5 172,-89.5 89,-89.5"/>
<text text-anchor="middle" x="130.5" y="-96.5" font-family="Helvetica,sans-Serif" font-size="10.00" fill="#000000">GS_R_RGBAQ</text>
</a>
</g>
</g>
<!-- Node4&#45;&gt;Node1 -->
<g id="edge3" class="edge">
<title>Node4&#45;&gt;Node1</title>
<path fill="none" stroke="#9a32cd" stroke-dasharray="5,2" d="M136.6845,-79.4476C140.9293,-67.1719 147.1202,-51.2191 154.5,-38 158.1136,-31.5272 163.0523,-24.8646 167.2325,-19.6632"/>
<polygon fill="#9a32cd" stroke="#9a32cd" points="133.3001,-78.5342 133.4743,-89.1276 139.9442,-80.7377 133.3001,-78.5342"/>
<text text-anchor="middle" x="173" y="-52" font-family="Helvetica,sans-Serif" font-size="10.00" fill="#000000"> rgbaq0</text>
</g>
<!-- Node5 -->
<g id="node5" class="node">
<title>Node5</title>
<g id="a_node5"><a xlink:href="structGS__RGBAQ.html" target="_top" xlink:title=" ">
<polygon fill="#ffffff" stroke="#000000" points="95,-156.5 95,-175.5 166,-175.5 166,-156.5 95,-156.5"/>
<text text-anchor="middle" x="130.5" y="-163.5" font-family="Helvetica,sans-Serif" font-size="10.00" fill="#000000">GS_RGBAQ</text>
</a>
</g>
</g>
<!-- Node5&#45;&gt;Node4 -->
<g id="edge4" class="edge">
<title>Node5&#45;&gt;Node4</title>
<path fill="none" stroke="#9a32cd" stroke-dasharray="5,2" d="M130.5,-146.1079C130.5,-133.714 130.5,-118.3263 130.5,-108.5817"/>
<polygon fill="#9a32cd" stroke="#9a32cd" points="127.0001,-146.4005 130.5,-156.4005 134.0001,-146.4006 127.0001,-146.4005"/>
<text text-anchor="middle" x="143" y="-130" font-family="Helvetica,sans-Serif" font-size="10.00" fill="#000000"> data</text>
</g>
<!-- Node6 -->
<g id="node6" class="node">
<title>Node6</title>
<g id="a_node6"><a xlink:href="structGS__R__UV.html" target="_top" xlink:title=" ">
<polygon fill="#ffffff" stroke="#000000" points="190.5,-89.5 190.5,-108.5 252.5,-108.5 252.5,-89.5 190.5,-89.5"/>
<text text-anchor="middle" x="221.5" y="-96.5" font-family="Helvetica,sans-Serif" font-size="10.00" fill="#000000">GS_R_UV</text>
</a>
</g>
</g>
<!-- Node6&#45;&gt;Node1 -->
<g id="edge5" class="edge">
<title>Node6&#45;&gt;Node1</title>
<path fill="none" stroke="#9a32cd" stroke-dasharray="5,2" d="M212.6556,-80.2613C206.8322,-68.1159 198.937,-52.0066 191.5,-38 188.1918,-31.7693 184.2641,-24.889 181.1282,-19.5079"/>
<polygon fill="#9a32cd" stroke="#9a32cd" points="209.5464,-81.8728 217.0045,-89.398 215.8669,-78.8644 209.5464,-81.8728"/>
<text text-anchor="middle" x="219.5" y="-63" font-family="Helvetica,sans-Serif" font-size="10.00" fill="#000000"> uv0</text>
<text text-anchor="middle" x="219.5" y="-52" font-family="Helvetica,sans-Serif" font-size="10.00" fill="#000000">uv1</text>
<text text-anchor="middle" x="219.5" y="-41" font-family="Helvetica,sans-Serif" font-size="10.00" fill="#000000">uv2</text>
</g>
<!-- Node7 -->
<g id="node7" class="node">
<title>Node7</title>
<g id="a_node7"><a xlink:href="structGS__UV.html" target="_top" xlink:title=" ">
<polygon fill="#ffffff" stroke="#000000" points="196.5,-156.5 196.5,-175.5 246.5,-175.5 246.5,-156.5 196.5,-156.5"/>
<text text-anchor="middle" x="221.5" y="-163.5" font-family="Helvetica,sans-Serif" font-size="10.00" fill="#000000">GS_UV</text>
</a>
</g>
</g>
<!-- Node7&#45;&gt;Node6 -->
<g id="edge6" class="edge">
<title>Node7&#45;&gt;Node6</title>
<path fill="none" stroke="#9a32cd" stroke-dasharray="5,2" d="M221.5,-146.1079C221.5,-133.714 221.5,-118.3263 221.5,-108.5817"/>
<polygon fill="#9a32cd" stroke="#9a32cd" points="218.0001,-146.4005 221.5,-156.4005 225.0001,-146.4006 218.0001,-146.4005"/>
<text text-anchor="middle" x="234" y="-130" font-family="Helvetica,sans-Serif" font-size="10.00" fill="#000000"> data</text>
</g>
<!-- Node8 -->
<g id="node8" class="node">
<title>Node8</title>
<g id="a_node8"><a xlink:href="structGS__R__XYZ.html" target="_top" xlink:title=" ">
<polygon fill="#ffffff" stroke="#000000" points="271,-89.5 271,-108.5 338,-108.5 338,-89.5 271,-89.5"/>
<text text-anchor="middle" x="304.5" y="-96.5" font-family="Helvetica,sans-Serif" font-size="10.00" fill="#000000">GS_R_XYZ</text>
</a>
</g>
</g>
<!-- Node8&#45;&gt;Node1 -->
<g id="edge7" class="edge">
<title>Node8&#45;&gt;Node1</title>
<path fill="none" stroke="#9a32cd" stroke-dasharray="5,2" d="M288.0505,-82.3368C274.4943,-69.2018 254.3382,-50.996 234.5,-38 223.5933,-30.855 210.5795,-24.479 199.5527,-19.6229"/>
<polygon fill="#9a32cd" stroke="#9a32cd" points="285.6403,-84.8755 295.2173,-89.4067 290.5563,-79.8922 285.6403,-84.8755"/>
<text text-anchor="middle" x="290" y="-63" font-family="Helvetica,sans-Serif" font-size="10.00" fill="#000000"> xyz0</text>
<text text-anchor="middle" x="290" y="-52" font-family="Helvetica,sans-Serif" font-size="10.00" fill="#000000">xyz1</text>
<text text-anchor="middle" x="290" y="-41" font-family="Helvetica,sans-Serif" font-size="10.00" fill="#000000">xyz2</text>
</g>
<!-- Node9 -->
<g id="node9" class="node">
<title>Node9</title>
<g id="a_node9"><a xlink:href="structGS__XYZ.html" target="_top" xlink:title=" ">
<polygon fill="#ffffff" stroke="#000000" points="277,-156.5 277,-175.5 332,-175.5 332,-156.5 277,-156.5"/>
<text text-anchor="middle" x="304.5" y="-163.5" font-family="Helvetica,sans-Serif" font-size="10.00" fill="#000000">GS_XYZ</text>
</a>
</g>
</g>
<!-- Node9&#45;&gt;Node8 -->
<g id="edge8" class="edge">
<title>Node9&#45;&gt;Node8</title>
<path fill="none" stroke="#9a32cd" stroke-dasharray="5,2" d="M304.5,-146.1079C304.5,-133.714 304.5,-118.3263 304.5,-108.5817"/>
<polygon fill="#9a32cd" stroke="#9a32cd" points="301.0001,-146.4005 304.5,-156.4005 308.0001,-146.4006 301.0001,-146.4005"/>
<text text-anchor="middle" x="317" y="-130" font-family="Helvetica,sans-Serif" font-size="10.00" fill="#000000"> data</text>
</g>
</g>
</svg>
