<?xml version="1.0" encoding="UTF-8" standalone="no"?>
<!DOCTYPE svg PUBLIC "-//W3C//DTD SVG 1.1//EN"
 "http://www.w3.org/Graphics/SVG/1.1/DTD/svg11.dtd">
<!-- Generated by graphviz version 2.40.1 (20161225.0304)
 -->
<!-- Title: loosy_t Pages: 1 -->
<svg width="207pt" height="320pt"
 viewBox="0.00 0.00 206.50 320.00" xmlns="http://www.w3.org/2000/svg" xmlns:xlink="http://www.w3.org/1999/xlink">
<g id="graph0" class="graph" transform="scale(1 1) rotate(0) translate(4 316)">
<title>loosy_t</title>
<polygon fill="#ffffff" stroke="transparent" points="-4,4 -4,-316 202.5,-316 202.5,4 -4,4"/>
<!-- Node1 -->
<g id="node1" class="node">
<title>Node1</title>
<g id="a_node1"><a xlink:title=" ">
<polygon fill="#bfbfbf" stroke="#000000" points="49.5,-.5 49.5,-19.5 101.5,-19.5 101.5,-.5 49.5,-.5"/>
<text text-anchor="middle" x="75.5" y="-7.5" font-family="Helvetica,sans-Serif" font-size="10.00" fill="#000000">loosy_t</text>
</a>
</g>
</g>
<!-- Node1&#45;&gt;Node1 -->
<g id="edge1" class="edge">
<title>Node1&#45;&gt;Node1</title>
<path fill="none" stroke="#9a32cd" stroke-dasharray="5,2" d="M111.9746,-15.2135C116.5156,-14.2896 119.5,-12.5518 119.5,-10 119.5,-5.8125 111.4631,-3.8169 101.6994,-4.0132"/>
<polygon fill="#9a32cd" stroke="#9a32cd" points="111.4085,-11.7461 101.6994,-15.9868 111.9339,-18.7263 111.4085,-11.7461"/>
<text text-anchor="middle" x="132" y="-7.5" font-family="Helvetica,sans-Serif" font-size="10.00" fill="#000000"> next</text>
</g>
<!-- Node2 -->
<g id="node2" class="node">
<title>Node2</title>
<g id="a_node2"><a xlink:href="structerl__record__t.html" target="_top" xlink:title=" ">
<polygon fill="#ffffff" stroke="#000000" points="38.5,-68.5 38.5,-87.5 112.5,-87.5 112.5,-68.5 38.5,-68.5"/>
<text text-anchor="middle" x="75.5" y="-75.5" font-family="Helvetica,sans-Serif" font-size="10.00" fill="#000000">erl_loader_t</text>
</a>
</g>
</g>
<!-- Node2&#45;&gt;Node1 -->
<g id="edge2" class="edge">
<title>Node2&#45;&gt;Node1</title>
<path fill="none" stroke="#9a32cd" stroke-dasharray="5,2" d="M75.5,-58.1951C75.5,-45.5514 75.5,-29.7157 75.5,-19.7247"/>
<polygon fill="#9a32cd" stroke="#9a32cd" points="72.0001,-58.2572 75.5,-68.2573 79.0001,-58.2573 72.0001,-58.2572"/>
<text text-anchor="middle" x="83.5" y="-41" font-family="Helvetica,sans-Serif" font-size="10.00" fill="#000000"> erl</text>
</g>
<!-- Node2&#45;&gt;Node2 -->
<g id="edge9" class="edge">
<title>Node2&#45;&gt;Node2</title>
<path fill="none" stroke="#9a32cd" stroke-dasharray="5,2" d="M122.6857,-83.2299C127.4569,-82.192 130.5,-80.4487 130.5,-78 130.5,-74.082 122.7097,-71.97 112.5153,-71.6639"/>
<polygon fill="#9a32cd" stroke="#9a32cd" points="122.0782,-79.7752 112.5153,-84.3361 122.8352,-86.7342 122.0782,-79.7752"/>
<text text-anchor="middle" x="143" y="-81" font-family="Helvetica,sans-Serif" font-size="10.00" fill="#000000"> next</text>
<text text-anchor="middle" x="143" y="-70" font-family="Helvetica,sans-Serif" font-size="10.00" fill="#000000">prev</text>
</g>
<!-- Node3 -->
<g id="node3" class="node">
<title>Node3</title>
<g id="a_node3"><a xlink:href="structhtab.html" target="_top" xlink:title=" ">
<polygon fill="#ffffff" stroke="#000000" points="56.5,-136.5 56.5,-155.5 94.5,-155.5 94.5,-136.5 56.5,-136.5"/>
<text text-anchor="middle" x="75.5" y="-143.5" font-family="Helvetica,sans-Serif" font-size="10.00" fill="#000000">htab</text>
</a>
</g>
</g>
<!-- Node3&#45;&gt;Node2 -->
<g id="edge3" class="edge">
<title>Node3&#45;&gt;Node2</title>
<path fill="none" stroke="#9a32cd" stroke-dasharray="5,2" d="M75.5,-126.1951C75.5,-113.5514 75.5,-97.7157 75.5,-87.7247"/>
<polygon fill="#9a32cd" stroke="#9a32cd" points="72.0001,-126.2572 75.5,-136.2573 79.0001,-126.2573 72.0001,-126.2572"/>
<text text-anchor="middle" x="98" y="-110" font-family="Helvetica,sans-Serif" font-size="10.00" fill="#000000"> symbols</text>
</g>
<!-- Node4 -->
<g id="node4" class="node">
<title>Node4</title>
<g id="a_node4"><a xlink:href="structhitem.html" target="_top" xlink:title=" ">
<polygon fill="#ffffff" stroke="#000000" points="0,-214.5 0,-233.5 45,-233.5 45,-214.5 0,-214.5"/>
<text text-anchor="middle" x="22.5" y="-221.5" font-family="Helvetica,sans-Serif" font-size="10.00" fill="#000000">hitem</text>
</a>
</g>
</g>
<!-- Node4&#45;&gt;Node3 -->
<g id="edge4" class="edge">
<title>Node4&#45;&gt;Node3</title>
<path fill="none" stroke="#9a32cd" stroke-dasharray="5,2" d="M34.6816,-206.0723C45.341,-190.385 60.4175,-168.197 68.948,-155.6426"/>
<polygon fill="#9a32cd" stroke="#9a32cd" points="31.7241,-204.1973 28.9988,-214.4357 37.514,-208.1315 31.7241,-204.1973"/>
<text text-anchor="middle" x="68" y="-188" font-family="Helvetica,sans-Serif" font-size="10.00" fill="#000000"> ipos</text>
<text text-anchor="middle" x="68" y="-177" font-family="Helvetica,sans-Serif" font-size="10.00" fill="#000000">table</text>
</g>
<!-- Node4&#45;&gt;Node4 -->
<g id="edge5" class="edge">
<title>Node4&#45;&gt;Node4</title>
<path fill="none" stroke="#9a32cd" stroke-dasharray="5,2" d="M55.5033,-230.3326C60.0015,-229.2767 63,-227.1659 63,-224 63,-218.8047 54.925,-216.4506 45.3991,-216.9376"/>
<polygon fill="#9a32cd" stroke="#9a32cd" points="55.121,-226.851 45.3991,-231.0624 55.6253,-233.8328 55.121,-226.851"/>
<text text-anchor="middle" x="75.5" y="-221.5" font-family="Helvetica,sans-Serif" font-size="10.00" fill="#000000"> next</text>
</g>
<!-- Node5 -->
<g id="node5" class="node">
<title>Node5</title>
<g id="a_node5"><a xlink:href="structreroot.html" target="_top" xlink:title=" ">
<polygon fill="#ffffff" stroke="#000000" points="106.5,-214.5 106.5,-233.5 152.5,-233.5 152.5,-214.5 106.5,-214.5"/>
<text text-anchor="middle" x="129.5" y="-221.5" font-family="Helvetica,sans-Serif" font-size="10.00" fill="#000000">reroot</text>
</a>
</g>
</g>
<!-- Node5&#45;&gt;Node3 -->
<g id="edge6" class="edge">
<title>Node5&#45;&gt;Node3</title>
<path fill="none" stroke="#9a32cd" stroke-dasharray="5,2" d="M117.0885,-206.0723C106.2281,-190.385 90.8671,-168.197 82.1756,-155.6426"/>
<polygon fill="#9a32cd" stroke="#9a32cd" points="114.3087,-208.206 122.8785,-214.4357 120.0641,-204.2215 114.3087,-208.206"/>
<text text-anchor="middle" x="124.5" y="-182.5" font-family="Helvetica,sans-Serif" font-size="10.00" fill="#000000"> space</text>
</g>
<!-- Node6 -->
<g id="node6" class="node">
<title>Node6</title>
<g id="a_node6"><a xlink:href="structrecycle.html" target="_top" xlink:title=" ">
<polygon fill="#ffffff" stroke="#000000" points="103.5,-292.5 103.5,-311.5 155.5,-311.5 155.5,-292.5 103.5,-292.5"/>
<text text-anchor="middle" x="129.5" y="-299.5" font-family="Helvetica,sans-Serif" font-size="10.00" fill="#000000">recycle</text>
</a>
</g>
</g>
<!-- Node6&#45;&gt;Node5 -->
<g id="edge7" class="edge">
<title>Node6&#45;&gt;Node5</title>
<path fill="none" stroke="#9a32cd" stroke-dasharray="5,2" d="M129.5,-282.2866C129.5,-266.7395 129.5,-245.7276 129.5,-233.6426"/>
<polygon fill="#9a32cd" stroke="#9a32cd" points="126.0001,-282.4356 129.5,-292.4357 133.0001,-282.4357 126.0001,-282.4356"/>
<text text-anchor="middle" x="142" y="-266" font-family="Helvetica,sans-Serif" font-size="10.00" fill="#000000"> list</text>
<text text-anchor="middle" x="142" y="-255" font-family="Helvetica,sans-Serif" font-size="10.00" fill="#000000">trash</text>
</g>
<!-- Node6&#45;&gt;Node6 -->
<g id="edge8" class="edge">
<title>Node6&#45;&gt;Node6</title>
<path fill="none" stroke="#9a32cd" stroke-dasharray="5,2" d="M165.9746,-308.191C170.5156,-307.0939 173.5,-305.0302 173.5,-302 173.5,-297.0273 165.4631,-294.6576 155.6994,-294.8907"/>
<polygon fill="#9a32cd" stroke="#9a32cd" points="165.3481,-304.733 155.6994,-309.1093 165.9713,-311.7052 165.3481,-304.733"/>
<text text-anchor="middle" x="186" y="-299.5" font-family="Helvetica,sans-Serif" font-size="10.00" fill="#000000"> next</text>
</g>
</g>
</svg>
