<?xml version="1.0" encoding="UTF-8" standalone="no"?>
<!DOCTYPE svg PUBLIC "-//W3C//DTD SVG 1.1//EN"
 "http://www.w3.org/Graphics/SVG/1.1/DTD/svg11.dtd">
<!-- Generated by graphviz version 2.40.1 (20161225.0304)
 -->
<!-- Title: NetIF Pages: 1 -->
<svg width="171pt" height="197pt"
 viewBox="0.00 0.00 170.50 197.00" xmlns="http://www.w3.org/2000/svg" xmlns:xlink="http://www.w3.org/1999/xlink">
<g id="graph0" class="graph" transform="scale(1 1) rotate(0) translate(4 193)">
<title>NetIF</title>
<polygon fill="#ffffff" stroke="transparent" points="-4,4 -4,-193 166.5,-193 166.5,4 -4,4"/>
<!-- Node1 -->
<g id="node1" class="node">
<title>Node1</title>
<g id="a_node1"><a xlink:title=" ">
<polygon fill="#bfbfbf" stroke="#000000" points="7.5,-.5 7.5,-19.5 49.5,-19.5 49.5,-.5 7.5,-.5"/>
<text text-anchor="middle" x="28.5" y="-7.5" font-family="Helvetica,sans-Serif" font-size="10.00" fill="#000000">NetIF</text>
</a>
</g>
</g>
<!-- Node2 -->
<g id="node2" class="node">
<title>Node2</title>
<g id="a_node2"><a xlink:href="structnetif.html" target="_top" xlink:title=" ">
<polygon fill="#ffffff" stroke="#000000" points="49.5,-96 49.5,-115 91.5,-115 91.5,-96 49.5,-96"/>
<text text-anchor="middle" x="70.5" y="-103" font-family="Helvetica,sans-Serif" font-size="10.00" fill="#000000">NetIF</text>
</a>
</g>
</g>
<!-- Node2&#45;&gt;Node1 -->
<g id="edge1" class="edge">
<title>Node2&#45;&gt;Node1</title>
<path fill="none" stroke="#9a32cd" stroke-dasharray="5,2" d="M62.1915,-86.6081C53.3419,-66.4857 39.6805,-35.4224 32.7888,-19.7519"/>
<polygon fill="#9a32cd" stroke="#9a32cd" points="59.0896,-88.2491 66.3193,-95.994 65.4973,-85.431 59.0896,-88.2491"/>
<text text-anchor="middle" x="80" y="-63" font-family="Helvetica,sans-Serif" font-size="10.00" fill="#000000"> linkoutput</text>
<text text-anchor="middle" x="80" y="-52" font-family="Helvetica,sans-Serif" font-size="10.00" fill="#000000">next</text>
<text text-anchor="middle" x="80" y="-41" font-family="Helvetica,sans-Serif" font-size="10.00" fill="#000000">output</text>
</g>
<!-- Node2&#45;&gt;Node2 -->
<g id="edge2" class="edge">
<title>Node2&#45;&gt;Node2</title>
<path fill="none" stroke="#9a32cd" stroke-dasharray="5,2" d="M101.9062,-112.2584C106.4452,-111.1805 109.5,-108.9277 109.5,-105.5 109.5,-99.875 101.2734,-97.4141 91.7615,-98.1172"/>
<polygon fill="#9a32cd" stroke="#9a32cd" points="101.5275,-108.775 91.7615,-112.8828 101.9576,-115.7618 101.5275,-108.775"/>
<text text-anchor="middle" x="136" y="-114" font-family="Helvetica,sans-Serif" font-size="10.00" fill="#000000"> linkoutput</text>
<text text-anchor="middle" x="136" y="-103" font-family="Helvetica,sans-Serif" font-size="10.00" fill="#000000">next</text>
<text text-anchor="middle" x="136" y="-92" font-family="Helvetica,sans-Serif" font-size="10.00" fill="#000000">output</text>
</g>
<!-- Node3 -->
<g id="node3" class="node">
<title>Node3</title>
<g id="a_node3"><a xlink:href="structpbuf.html" target="_top" xlink:title=" ">
<polygon fill="#ffffff" stroke="#000000" points="0,-169.5 0,-188.5 39,-188.5 39,-169.5 0,-169.5"/>
<text text-anchor="middle" x="19.5" y="-176.5" font-family="Helvetica,sans-Serif" font-size="10.00" fill="#000000">PBuf</text>
</a>
</g>
</g>
<!-- Node3&#45;&gt;Node1 -->
<g id="edge5" class="edge">
<title>Node3&#45;&gt;Node1</title>
<path fill="none" stroke="#9a32cd" stroke-dasharray="5,2" d="M16.4633,-159.1881C14.9393,-148.2515 13.2591,-134.4084 12.5,-122 11.6045,-107.3607 11.037,-103.5935 12.5,-89 15.0404,-63.6584 22.0556,-34.4203 25.899,-19.6344"/>
<polygon fill="#9a32cd" stroke="#9a32cd" points="13.0393,-159.963 17.9498,-169.3511 19.9656,-158.9498 13.0393,-159.963"/>
<text text-anchor="middle" x="26.5" y="-103" font-family="Helvetica,sans-Serif" font-size="10.00" fill="#000000"> input</text>
</g>
<!-- Node3&#45;&gt;Node2 -->
<g id="edge3" class="edge">
<title>Node3&#45;&gt;Node2</title>
<path fill="none" stroke="#9a32cd" stroke-dasharray="5,2" d="M32.1109,-160.8255C42.0816,-146.456 55.6192,-126.9459 63.6682,-115.3458"/>
<polygon fill="#9a32cd" stroke="#9a32cd" points="28.9927,-159.18 26.1674,-169.3912 34.7438,-163.1706 28.9927,-159.18"/>
<text text-anchor="middle" x="60.5" y="-143" font-family="Helvetica,sans-Serif" font-size="10.00" fill="#000000"> input</text>
</g>
<!-- Node3&#45;&gt;Node3 -->
<g id="edge4" class="edge">
<title>Node3&#45;&gt;Node3</title>
<path fill="none" stroke="#9a32cd" stroke-dasharray="5,2" d="M49.3313,-184.4764C53.8972,-183.6438 57,-181.8184 57,-179 57,-174.375 48.6443,-172.4238 39.1788,-173.1465"/>
<polygon fill="#9a32cd" stroke="#9a32cd" points="49.042,-180.9846 39.1788,-184.8535 49.3019,-187.9798 49.042,-180.9846"/>
<text text-anchor="middle" x="69.5" y="-176.5" font-family="Helvetica,sans-Serif" font-size="10.00" fill="#000000"> next</text>
</g>
</g>
</svg>
