<?xml version="1.0" encoding="UTF-8" standalone="no"?>
<!DOCTYPE svg PUBLIC "-//W3C//DTD SVG 1.1//EN"
 "http://www.w3.org/Graphics/SVG/1.1/DTD/svg11.dtd">
<!-- Generated by graphviz version 2.40.1 (20161225.0304)
 -->
<!-- Title: _MPEGContext Pages: 1 -->
<svg width="467pt" height="195pt"
 viewBox="0.00 0.00 467.00 195.00" xmlns="http://www.w3.org/2000/svg" xmlns:xlink="http://www.w3.org/1999/xlink">
<g id="graph0" class="graph" transform="scale(1 1) rotate(0) translate(4 191)">
<title>_MPEGContext</title>
<polygon fill="#ffffff" stroke="transparent" points="-4,4 -4,-191 463,-191 463,4 -4,4"/>
<!-- Node1 -->
<g id="node1" class="node">
<title>Node1</title>
<g id="a_node1"><a xlink:title=" ">
<polygon fill="#bfbfbf" stroke="#000000" points="196,-.5 196,-19.5 284,-19.5 284,-.5 196,-.5"/>
<text text-anchor="middle" x="240" y="-7.5" font-family="Helvetica,sans-Serif" font-size="10.00" fill="#000000">_MPEGContext</text>
</a>
</g>
</g>
<!-- Node2 -->
<g id="node2" class="node">
<title>Node2</title>
<g id="a_node2"><a xlink:href="structMPEGSequenceInfo.html" target="_top" xlink:title=" ">
<polygon fill="#ffffff" stroke="#000000" points="0,-100.5 0,-119.5 110,-119.5 110,-100.5 0,-100.5"/>
<text text-anchor="middle" x="55" y="-107.5" font-family="Helvetica,sans-Serif" font-size="10.00" fill="#000000">MPEGSequenceInfo</text>
</a>
</g>
</g>
<!-- Node2&#45;&gt;Node1 -->
<g id="edge1" class="edge">
<title>Node2&#45;&gt;Node1</title>
<path fill="none" stroke="#9a32cd" stroke-dasharray="5,2" d="M73.6719,-93.8572C92.9521,-77.8622 124.4465,-53.5632 155,-38 169.9519,-30.3838 187.4164,-24.2104 202.6122,-19.6179"/>
<polygon fill="#9a32cd" stroke="#9a32cd" points="71.3495,-91.2372 65.9576,-100.3574 75.8601,-96.5903 71.3495,-91.2372"/>
<text text-anchor="middle" x="169" y="-57.5" font-family="Helvetica,sans-Serif" font-size="10.00" fill="#000000"> m_SI</text>
</g>
<!-- Node3 -->
<g id="node3" class="node">
<title>Node3</title>
<g id="a_node3"><a xlink:href="struct__MPEGMacroBlock8.html" target="_top" xlink:title=" ">
<polygon fill="#ffffff" stroke="#000000" points="128,-100.5 128,-119.5 240,-119.5 240,-100.5 128,-100.5"/>
<text text-anchor="middle" x="184" y="-107.5" font-family="Helvetica,sans-Serif" font-size="10.00" fill="#000000">_MPEGMacroBlock8</text>
</a>
</g>
</g>
<!-- Node3&#45;&gt;Node1 -->
<g id="edge2" class="edge">
<title>Node3&#45;&gt;Node1</title>
<path fill="none" stroke="#9a32cd" stroke-dasharray="5,2" d="M185.2968,-90.3424C187.1189,-74.9801 191.4956,-53.676 202,-38 207.018,-30.5116 214.7396,-24.2889 221.915,-19.6267"/>
<polygon fill="#9a32cd" stroke="#9a32cd" points="181.8106,-90.032 184.3703,-100.313 188.7806,-90.6798 181.8106,-90.032"/>
<text text-anchor="middle" x="238.5" y="-74" font-family="Helvetica,sans-Serif" font-size="10.00" fill="#000000"> m_pAuxFrame</text>
<text text-anchor="middle" x="238.5" y="-63" font-family="Helvetica,sans-Serif" font-size="10.00" fill="#000000">m_pBckFrame</text>
<text text-anchor="middle" x="238.5" y="-52" font-family="Helvetica,sans-Serif" font-size="10.00" fill="#000000">m_pCurFrame</text>
<text text-anchor="middle" x="238.5" y="-41" font-family="Helvetica,sans-Serif" font-size="10.00" fill="#000000">m_pFwdFrame</text>
</g>
<!-- Node4 -->
<g id="node4" class="node">
<title>Node4</title>
<g id="a_node4"><a xlink:href="struct__MPEGMBXY.html" target="_top" xlink:title=" ">
<polygon fill="#ffffff" stroke="#000000" points="258.5,-100.5 258.5,-119.5 335.5,-119.5 335.5,-100.5 258.5,-100.5"/>
<text text-anchor="middle" x="297" y="-107.5" font-family="Helvetica,sans-Serif" font-size="10.00" fill="#000000">_MPEGMBXY</text>
</a>
</g>
</g>
<!-- Node4&#45;&gt;Node1 -->
<g id="edge3" class="edge">
<title>Node4&#45;&gt;Node1</title>
<path fill="none" stroke="#9a32cd" stroke-dasharray="5,2" d="M294.2676,-90.4318C291.4003,-75.1193 285.75,-53.8386 275,-38 270.0182,-30.66 262.5327,-24.3047 255.7613,-19.5126"/>
<polygon fill="#9a32cd" stroke="#9a32cd" points="290.8242,-91.0621 295.8967,-100.3637 297.7319,-89.929 290.8242,-91.0621"/>
<text text-anchor="middle" x="318" y="-57.5" font-family="Helvetica,sans-Serif" font-size="10.00" fill="#000000"> m_pMBXY</text>
</g>
<!-- Node5 -->
<g id="node5" class="node">
<title>Node5</title>
<g id="a_node5"><a xlink:href="struct__MPEGMotions.html" target="_top" xlink:title=" ">
<polygon fill="#ffffff" stroke="#000000" points="354,-100.5 354,-119.5 442,-119.5 442,-100.5 354,-100.5"/>
<text text-anchor="middle" x="398" y="-107.5" font-family="Helvetica,sans-Serif" font-size="10.00" fill="#000000">_MPEGMotions</text>
</a>
</g>
</g>
<!-- Node5&#45;&gt;Node1 -->
<g id="edge4" class="edge">
<title>Node5&#45;&gt;Node1</title>
<path fill="none" stroke="#9a32cd" stroke-dasharray="5,2" d="M389.6742,-91.2106C381.4208,-74.7442 367.2304,-51.4045 348,-38 337.5123,-30.6896 309.1262,-23.4737 284.0877,-18.1985"/>
<polygon fill="#9a32cd" stroke="#9a32cd" points="386.5945,-92.8852 394.0379,-100.4248 392.9209,-89.889 386.5945,-92.8852"/>
<text text-anchor="middle" x="421" y="-63" font-family="Helvetica,sans-Serif" font-size="10.00" fill="#000000"> m_MC</text>
<text text-anchor="middle" x="421" y="-52" font-family="Helvetica,sans-Serif" font-size="10.00" fill="#000000">m_pCurMotions</text>
</g>
<!-- Node6 -->
<g id="node6" class="node">
<title>Node6</title>
<g id="a_node6"><a xlink:href="struct__MPEGMotion.html" target="_top" xlink:title=" ">
<polygon fill="#ffffff" stroke="#000000" points="356.5,-167.5 356.5,-186.5 439.5,-186.5 439.5,-167.5 356.5,-167.5"/>
<text text-anchor="middle" x="398" y="-174.5" font-family="Helvetica,sans-Serif" font-size="10.00" fill="#000000">_MPEGMotion</text>
</a>
</g>
</g>
<!-- Node6&#45;&gt;Node5 -->
<g id="edge5" class="edge">
<title>Node6&#45;&gt;Node5</title>
<path fill="none" stroke="#9a32cd" stroke-dasharray="5,2" d="M398,-157.1079C398,-144.714 398,-129.3263 398,-119.5817"/>
<polygon fill="#9a32cd" stroke="#9a32cd" points="394.5001,-157.4005 398,-167.4005 401.5001,-157.4006 394.5001,-157.4005"/>
<text text-anchor="middle" x="424" y="-141" font-family="Helvetica,sans-Serif" font-size="10.00" fill="#000000"> m_Motion</text>
</g>
</g>
</svg>
