<?xml version="1.0" encoding="UTF-8" standalone="no"?>
<!DOCTYPE svg PUBLIC "-//W3C//DTD SVG 1.1//EN"
 "http://www.w3.org/Graphics/SVG/1.1/DTD/svg11.dtd">
<!-- Generated by graphviz version 2.40.1 (20161225.0304)
 -->
<!-- Title: VU_FLAT_LIGHT Pages: 1 -->
<svg width="190pt" height="95pt"
 viewBox="0.00 0.00 190.00 95.00" xmlns="http://www.w3.org/2000/svg" xmlns:xlink="http://www.w3.org/1999/xlink">
<g id="graph0" class="graph" transform="scale(1 1) rotate(0) translate(4 91)">
<title>VU_FLAT_LIGHT</title>
<polygon fill="#ffffff" stroke="transparent" points="-4,4 -4,-91 186,-91 186,4 -4,4"/>
<!-- Node1 -->
<g id="node1" class="node">
<title>Node1</title>
<g id="a_node1"><a xlink:title=" ">
<polygon fill="#bfbfbf" stroke="#000000" points="41.5,-.5 41.5,-19.5 134.5,-19.5 134.5,-.5 41.5,-.5"/>
<text text-anchor="middle" x="88" y="-7.5" font-family="Helvetica,sans-Serif" font-size="10.00" fill="#000000">VU_FLAT_LIGHT</text>
</a>
</g>
</g>
<!-- Node2 -->
<g id="node2" class="node">
<title>Node2</title>
<g id="a_node2"><a xlink:href="structVU__VECTOR.html" target="_top" xlink:title=" ">
<polygon fill="#ffffff" stroke="#000000" points="0,-67.5 0,-86.5 76,-86.5 76,-67.5 0,-67.5"/>
<text text-anchor="middle" x="38" y="-74.5" font-family="Helvetica,sans-Serif" font-size="10.00" fill="#000000">VU_VECTOR</text>
</a>
</g>
</g>
<!-- Node2&#45;&gt;Node1 -->
<g id="edge1" class="edge">
<title>Node2&#45;&gt;Node1</title>
<path fill="none" stroke="#9a32cd" stroke-dasharray="5,2" d="M51.1727,-59.3486C60.6721,-46.6194 73.1321,-29.9229 80.8495,-19.5817"/>
<polygon fill="#9a32cd" stroke="#9a32cd" points="48.3396,-57.2929 45.1638,-67.4005 53.9497,-61.4795 48.3396,-57.2929"/>
<text text-anchor="middle" x="89" y="-41" font-family="Helvetica,sans-Serif" font-size="10.00" fill="#000000"> direction</text>
</g>
<!-- Node3 -->
<g id="node3" class="node">
<title>Node3</title>
<g id="a_node3"><a xlink:href="structVU__FCVECTOR.html" target="_top" xlink:title=" ">
<polygon fill="#ffffff" stroke="#000000" points="94,-67.5 94,-86.5 182,-86.5 182,-67.5 94,-67.5"/>
<text text-anchor="middle" x="138" y="-74.5" font-family="Helvetica,sans-Serif" font-size="10.00" fill="#000000">VU_FCVECTOR</text>
</a>
</g>
</g>
<!-- Node3&#45;&gt;Node1 -->
<g id="edge2" class="edge">
<title>Node3&#45;&gt;Node1</title>
<path fill="none" stroke="#9a32cd" stroke-dasharray="5,2" d="M128.77,-58.2551C125.1554,-51.6104 120.7383,-44.2393 116,-38 111.0107,-31.4302 104.5466,-24.8672 99.0865,-19.7482"/>
<polygon fill="#9a32cd" stroke="#9a32cd" points="125.7255,-59.9872 133.4353,-67.2543 131.9401,-56.7655 125.7255,-59.9872"/>
<text text-anchor="middle" x="136" y="-41" font-family="Helvetica,sans-Serif" font-size="10.00" fill="#000000"> color</text>
</g>
</g>
</svg>
