<?xml version="1.0" encoding="UTF-8" standalone="no"?>
<!DOCTYPE svg PUBLIC "-//W3C//DTD SVG 1.1//EN"
 "http://www.w3.org/Graphics/SVG/1.1/DTD/svg11.dtd">
<!-- Generated by graphviz version 2.40.1 (20161225.0304)
 -->
<!-- Title: GS_DISPENV Pages: 1 -->
<svg width="172pt" height="95pt"
 viewBox="0.00 0.00 171.50 95.00" xmlns="http://www.w3.org/2000/svg" xmlns:xlink="http://www.w3.org/1999/xlink">
<g id="graph0" class="graph" transform="scale(1 1) rotate(0) translate(4 91)">
<title>GS_DISPENV</title>
<polygon fill="#ffffff" stroke="transparent" points="-4,4 -4,-91 167.5,-91 167.5,4 -4,4"/>
<!-- Node1 -->
<g id="node1" class="node">
<title>Node1</title>
<g id="a_node1"><a xlink:title=" ">
<polygon fill="#bfbfbf" stroke="#000000" points="43.5,-.5 43.5,-19.5 121.5,-19.5 121.5,-.5 43.5,-.5"/>
<text text-anchor="middle" x="82.5" y="-7.5" font-family="Helvetica,sans-Serif" font-size="10.00" fill="#000000">GS_DISPENV</text>
</a>
</g>
</g>
<!-- Node2 -->
<g id="node2" class="node">
<title>Node2</title>
<g id="a_node2"><a xlink:href="structGS__DISPLAY.html" target="_top" xlink:title=" ">
<polygon fill="#ffffff" stroke="#000000" points="0,-67.5 0,-86.5 75,-86.5 75,-67.5 0,-67.5"/>
<text text-anchor="middle" x="37.5" y="-74.5" font-family="Helvetica,sans-Serif" font-size="10.00" fill="#000000">GS_DISPLAY</text>
</a>
</g>
</g>
<!-- Node2&#45;&gt;Node1 -->
<g id="edge1" class="edge">
<title>Node2&#45;&gt;Node1</title>
<path fill="none" stroke="#9a32cd" stroke-dasharray="5,2" d="M49.6028,-58.9803C58.1202,-46.2989 69.1857,-29.8235 76.0646,-19.5817"/>
<polygon fill="#9a32cd" stroke="#9a32cd" points="46.6175,-57.1477 43.9474,-67.4005 52.4285,-61.0506 46.6175,-57.1477"/>
<text text-anchor="middle" x="75.5" y="-41" font-family="Helvetica,sans-Serif" font-size="10.00" fill="#000000"> disp</text>
</g>
<!-- Node3 -->
<g id="node3" class="node">
<title>Node3</title>
<g id="a_node3"><a xlink:href="structGS__DISPFB.html" target="_top" xlink:title=" ">
<polygon fill="#ffffff" stroke="#000000" points="93.5,-67.5 93.5,-86.5 163.5,-86.5 163.5,-67.5 93.5,-67.5"/>
<text text-anchor="middle" x="128.5" y="-74.5" font-family="Helvetica,sans-Serif" font-size="10.00" fill="#000000">GS_DISPFB</text>
</a>
</g>
</g>
<!-- Node3&#45;&gt;Node1 -->
<g id="edge2" class="edge">
<title>Node3&#45;&gt;Node1</title>
<path fill="none" stroke="#9a32cd" stroke-dasharray="5,2" d="M116.1283,-58.9803C107.4216,-46.2989 96.1102,-29.8235 89.0785,-19.5817"/>
<polygon fill="#9a32cd" stroke="#9a32cd" points="113.3638,-61.1375 121.9093,-67.4005 119.1346,-57.1755 113.3638,-61.1375"/>
<text text-anchor="middle" x="124.5" y="-41" font-family="Helvetica,sans-Serif" font-size="10.00" fill="#000000"> dispfb</text>
</g>
</g>
</svg>
