<?xml version="1.0" encoding="UTF-8" standalone="no"?>
<!DOCTYPE svg PUBLIC "-//W3C//DTD SVG 1.1//EN"
 "http://www.w3.org/Graphics/SVG/1.1/DTD/svg11.dtd">
<!-- Generated by graphviz version 2.40.1 (20161225.0304)
 -->
<!-- Title: GS_POINT_P Pages: 1 -->
<svg width="265pt" height="162pt"
 viewBox="0.00 0.00 265.00 162.00" xmlns="http://www.w3.org/2000/svg" xmlns:xlink="http://www.w3.org/1999/xlink">
<g id="graph0" class="graph" transform="scale(1 1) rotate(0) translate(4 158)">
<title>GS_POINT_P</title>
<polygon fill="#ffffff" stroke="transparent" points="-4,4 -4,-158 261,-158 261,4 -4,4"/>
<!-- Node1 -->
<g id="node1" class="node">
<title>Node1</title>
<g id="a_node1"><a xlink:title=" ">
<polygon fill="#bfbfbf" stroke="#000000" points="92,-.5 92,-19.5 169,-19.5 169,-.5 92,-.5"/>
<text text-anchor="middle" x="130.5" y="-7.5" font-family="Helvetica,sans-Serif" font-size="10.00" fill="#000000">GS_POINT_P</text>
</a>
</g>
</g>
<!-- Node2 -->
<g id="node2" class="node">
<title>Node2</title>
<g id="a_node2"><a xlink:href="structGS__R__PRIM.html" target="_top" xlink:title=" ">
<polygon fill="#ffffff" stroke="#000000" points="0,-67.5 0,-86.5 71,-86.5 71,-67.5 0,-67.5"/>
<text text-anchor="middle" x="35.5" y="-74.5" font-family="Helvetica,sans-Serif" font-size="10.00" fill="#000000">GS_R_PRIM</text>
</a>
</g>
</g>
<!-- Node2&#45;&gt;Node1 -->
<g id="edge1" class="edge">
<title>Node2&#45;&gt;Node1</title>
<path fill="none" stroke="#9a32cd" stroke-dasharray="5,2" d="M57.4632,-61.5102C75.8154,-48.567 101.4051,-30.5195 116.9141,-19.5817"/>
<polygon fill="#9a32cd" stroke="#9a32cd" points="55.266,-58.7768 49.1112,-67.4005 59.3005,-64.4973 55.266,-58.7768"/>
<text text-anchor="middle" x="102.5" y="-41" font-family="Helvetica,sans-Serif" font-size="10.00" fill="#000000"> prim</text>
</g>
<!-- Node3 -->
<g id="node3" class="node">
<title>Node3</title>
<g id="a_node3"><a xlink:href="structGS__PRIM.html" target="_top" xlink:title=" ">
<polygon fill="#ffffff" stroke="#000000" points="6,-134.5 6,-153.5 65,-153.5 65,-134.5 6,-134.5"/>
<text text-anchor="middle" x="35.5" y="-141.5" font-family="Helvetica,sans-Serif" font-size="10.00" fill="#000000">GS_PRIM</text>
</a>
</g>
</g>
<!-- Node3&#45;&gt;Node2 -->
<g id="edge2" class="edge">
<title>Node3&#45;&gt;Node2</title>
<path fill="none" stroke="#9a32cd" stroke-dasharray="5,2" d="M35.5,-124.1079C35.5,-111.714 35.5,-96.3263 35.5,-86.5817"/>
<polygon fill="#9a32cd" stroke="#9a32cd" points="32.0001,-124.4005 35.5,-134.4005 39.0001,-124.4006 32.0001,-124.4005"/>
<text text-anchor="middle" x="48" y="-108" font-family="Helvetica,sans-Serif" font-size="10.00" fill="#000000"> data</text>
</g>
<!-- Node4 -->
<g id="node4" class="node">
<title>Node4</title>
<g id="a_node4"><a xlink:href="structGS__R__RGBAQ.html" target="_top" xlink:title=" ">
<polygon fill="#ffffff" stroke="#000000" points="89,-67.5 89,-86.5 172,-86.5 172,-67.5 89,-67.5"/>
<text text-anchor="middle" x="130.5" y="-74.5" font-family="Helvetica,sans-Serif" font-size="10.00" fill="#000000">GS_R_RGBAQ</text>
</a>
</g>
</g>
<!-- Node4&#45;&gt;Node1 -->
<g id="edge3" class="edge">
<title>Node4&#45;&gt;Node1</title>
<path fill="none" stroke="#9a32cd" stroke-dasharray="5,2" d="M130.5,-57.1079C130.5,-44.714 130.5,-29.3263 130.5,-19.5817"/>
<polygon fill="#9a32cd" stroke="#9a32cd" points="127.0001,-57.4005 130.5,-67.4005 134.0001,-57.4006 127.0001,-57.4005"/>
<text text-anchor="middle" x="149" y="-41" font-family="Helvetica,sans-Serif" font-size="10.00" fill="#000000"> rgbaq0</text>
</g>
<!-- Node5 -->
<g id="node5" class="node">
<title>Node5</title>
<g id="a_node5"><a xlink:href="structGS__RGBAQ.html" target="_top" xlink:title=" ">
<polygon fill="#ffffff" stroke="#000000" points="95,-134.5 95,-153.5 166,-153.5 166,-134.5 95,-134.5"/>
<text text-anchor="middle" x="130.5" y="-141.5" font-family="Helvetica,sans-Serif" font-size="10.00" fill="#000000">GS_RGBAQ</text>
</a>
</g>
</g>
<!-- Node5&#45;&gt;Node4 -->
<g id="edge4" class="edge">
<title>Node5&#45;&gt;Node4</title>
<path fill="none" stroke="#9a32cd" stroke-dasharray="5,2" d="M130.5,-124.1079C130.5,-111.714 130.5,-96.3263 130.5,-86.5817"/>
<polygon fill="#9a32cd" stroke="#9a32cd" points="127.0001,-124.4005 130.5,-134.4005 134.0001,-124.4006 127.0001,-124.4005"/>
<text text-anchor="middle" x="143" y="-108" font-family="Helvetica,sans-Serif" font-size="10.00" fill="#000000"> data</text>
</g>
<!-- Node6 -->
<g id="node6" class="node">
<title>Node6</title>
<g id="a_node6"><a xlink:href="structGS__R__XYZ.html" target="_top" xlink:title=" ">
<polygon fill="#ffffff" stroke="#000000" points="190,-67.5 190,-86.5 257,-86.5 257,-67.5 190,-67.5"/>
<text text-anchor="middle" x="223.5" y="-74.5" font-family="Helvetica,sans-Serif" font-size="10.00" fill="#000000">GS_R_XYZ</text>
</a>
</g>
</g>
<!-- Node6&#45;&gt;Node1 -->
<g id="edge5" class="edge">
<title>Node6&#45;&gt;Node1</title>
<path fill="none" stroke="#9a32cd" stroke-dasharray="5,2" d="M202.7346,-61.0958C193.2779,-53.9386 181.8971,-45.4436 171.5,-38 162.8094,-31.7781 152.9184,-25.0143 145.0289,-19.6934"/>
<polygon fill="#9a32cd" stroke="#9a32cd" points="200.7161,-63.9579 210.795,-67.2242 204.9529,-58.3856 200.7161,-63.9579"/>
<text text-anchor="middle" x="199" y="-41" font-family="Helvetica,sans-Serif" font-size="10.00" fill="#000000"> xyz0</text>
</g>
<!-- Node7 -->
<g id="node7" class="node">
<title>Node7</title>
<g id="a_node7"><a xlink:href="structGS__XYZ.html" target="_top" xlink:title=" ">
<polygon fill="#ffffff" stroke="#000000" points="196,-134.5 196,-153.5 251,-153.5 251,-134.5 196,-134.5"/>
<text text-anchor="middle" x="223.5" y="-141.5" font-family="Helvetica,sans-Serif" font-size="10.00" fill="#000000">GS_XYZ</text>
</a>
</g>
</g>
<!-- Node7&#45;&gt;Node6 -->
<g id="edge6" class="edge">
<title>Node7&#45;&gt;Node6</title>
<path fill="none" stroke="#9a32cd" stroke-dasharray="5,2" d="M223.5,-124.1079C223.5,-111.714 223.5,-96.3263 223.5,-86.5817"/>
<polygon fill="#9a32cd" stroke="#9a32cd" points="220.0001,-124.4005 223.5,-134.4005 227.0001,-124.4006 220.0001,-124.4005"/>
<text text-anchor="middle" x="236" y="-108" font-family="Helvetica,sans-Serif" font-size="10.00" fill="#000000"> data</text>
</g>
</g>
</svg>
