<?xml version="1.0" encoding="UTF-8" standalone="no"?>
<!DOCTYPE svg PUBLIC "-//W3C//DTD SVG 1.1//EN"
 "http://www.w3.org/Graphics/SVG/1.1/DTD/svg11.dtd">
<!-- Generated by graphviz version 2.40.1 (20161225.0304)
 -->
<!-- Title: texrect_t Pages: 1 -->
<svg width="202pt" height="106pt"
 viewBox="0.00 0.00 201.50 106.00" xmlns="http://www.w3.org/2000/svg" xmlns:xlink="http://www.w3.org/1999/xlink">
<g id="graph0" class="graph" transform="scale(1 1) rotate(0) translate(4 102)">
<title>texrect_t</title>
<polygon fill="#ffffff" stroke="transparent" points="-4,4 -4,-102 197.5,-102 197.5,4 -4,4"/>
<!-- Node1 -->
<g id="node1" class="node">
<title>Node1</title>
<g id="a_node1"><a xlink:title=" ">
<polygon fill="#bfbfbf" stroke="#000000" points="70.5,-.5 70.5,-19.5 130.5,-19.5 130.5,-.5 70.5,-.5"/>
<text text-anchor="middle" x="100.5" y="-7.5" font-family="Helvetica,sans-Serif" font-size="10.00" fill="#000000">texrect_t</text>
</a>
</g>
</g>
<!-- Node2 -->
<g id="node2" class="node">
<title>Node2</title>
<g id="a_node2"><a xlink:href="structvertex__t.html" target="_top" xlink:title=" ">
<polygon fill="#ffffff" stroke="#000000" points="0,-78.5 0,-97.5 57,-97.5 57,-78.5 0,-78.5"/>
<text text-anchor="middle" x="28.5" y="-85.5" font-family="Helvetica,sans-Serif" font-size="10.00" fill="#000000">vertex_t</text>
</a>
</g>
</g>
<!-- Node2&#45;&gt;Node1 -->
<g id="edge1" class="edge">
<title>Node2&#45;&gt;Node1</title>
<path fill="none" stroke="#9a32cd" stroke-dasharray="5,2" d="M44.243,-70.9451C58.7605,-55.2178 79.7939,-32.4316 91.5992,-19.6426"/>
<polygon fill="#9a32cd" stroke="#9a32cd" points="41.5396,-68.7136 37.3286,-78.4357 46.6833,-73.4616 41.5396,-68.7136"/>
<text text-anchor="middle" x="81.5" y="-52" font-family="Helvetica,sans-Serif" font-size="10.00" fill="#000000"> v0</text>
<text text-anchor="middle" x="81.5" y="-41" font-family="Helvetica,sans-Serif" font-size="10.00" fill="#000000">v1</text>
</g>
<!-- Node3 -->
<g id="node3" class="node">
<title>Node3</title>
<g id="a_node3"><a xlink:href="uniontexel__t.html" target="_top" xlink:title=" ">
<polygon fill="#ffffff" stroke="#000000" points="75.5,-78.5 75.5,-97.5 125.5,-97.5 125.5,-78.5 75.5,-78.5"/>
<text text-anchor="middle" x="100.5" y="-85.5" font-family="Helvetica,sans-Serif" font-size="10.00" fill="#000000">texel_t</text>
</a>
</g>
</g>
<!-- Node3&#45;&gt;Node1 -->
<g id="edge2" class="edge">
<title>Node3&#45;&gt;Node1</title>
<path fill="none" stroke="#9a32cd" stroke-dasharray="5,2" d="M100.5,-68.2866C100.5,-52.7395 100.5,-31.7276 100.5,-19.6426"/>
<polygon fill="#9a32cd" stroke="#9a32cd" points="97.0001,-68.4356 100.5,-78.4357 104.0001,-68.4357 97.0001,-68.4356"/>
<text text-anchor="middle" x="107" y="-52" font-family="Helvetica,sans-Serif" font-size="10.00" fill="#000000"> t0</text>
<text text-anchor="middle" x="107" y="-41" font-family="Helvetica,sans-Serif" font-size="10.00" fill="#000000">t1</text>
</g>
<!-- Node4 -->
<g id="node4" class="node">
<title>Node4</title>
<g id="a_node4"><a xlink:href="unioncolor__t.html" target="_top" xlink:title=" ">
<polygon fill="#ffffff" stroke="#000000" points="143.5,-78.5 143.5,-97.5 193.5,-97.5 193.5,-78.5 143.5,-78.5"/>
<text text-anchor="middle" x="168.5" y="-85.5" font-family="Helvetica,sans-Serif" font-size="10.00" fill="#000000">color_t</text>
</a>
</g>
</g>
<!-- Node4&#45;&gt;Node1 -->
<g id="edge3" class="edge">
<title>Node4&#45;&gt;Node1</title>
<path fill="none" stroke="#9a32cd" stroke-dasharray="5,2" d="M153.2527,-70.5105C139.5569,-54.8005 119.9535,-32.3143 108.9063,-19.6426"/>
<polygon fill="#9a32cd" stroke="#9a32cd" points="150.9523,-73.1979 160.1619,-78.4357 156.2287,-68.5979 150.9523,-73.1979"/>
<text text-anchor="middle" x="156.5" y="-46.5" font-family="Helvetica,sans-Serif" font-size="10.00" fill="#000000"> color</text>
</g>
</g>
</svg>
