<?xml version="1.0" encoding="UTF-8" standalone="no"?>
<!DOCTYPE svg PUBLIC "-//W3C//DTD SVG 1.1//EN"
 "http://www.w3.org/Graphics/SVG/1.1/DTD/svg11.dtd">
<!-- Generated by graphviz version 2.40.1 (20161225.0304)
 -->
<!-- Title: GS_TRIANGLE_GT3ST Pages: 1 -->
<svg width="253pt" height="184pt"
 viewBox="0.00 0.00 253.00 184.00" xmlns="http://www.w3.org/2000/svg" xmlns:xlink="http://www.w3.org/1999/xlink">
<g id="graph0" class="graph" transform="scale(1 1) rotate(0) translate(4 180)">
<title>GS_TRIANGLE_GT3ST</title>
<polygon fill="#ffffff" stroke="transparent" points="-4,4 -4,-180 249,-180 249,4 -4,4"/>
<!-- Node1 -->
<g id="node1" class="node">
<title>Node1</title>
<g id="a_node1"><a xlink:title=" ">
<polygon fill="#bfbfbf" stroke="#000000" points="70,-.5 70,-19.5 191,-19.5 191,-.5 70,-.5"/>
<text text-anchor="middle" x="130.5" y="-7.5" font-family="Helvetica,sans-Serif" font-size="10.00" fill="#000000">GS_TRIANGLE_GT3ST</text>
</a>
</g>
</g>
<!-- Node2 -->
<g id="node2" class="node">
<title>Node2</title>
<g id="a_node2"><a xlink:href="structGS__R__RGBAQ.html" target="_top" xlink:title=" ">
<polygon fill="#ffffff" stroke="#000000" points="0,-89.5 0,-108.5 83,-108.5 83,-89.5 0,-89.5"/>
<text text-anchor="middle" x="41.5" y="-96.5" font-family="Helvetica,sans-Serif" font-size="10.00" fill="#000000">GS_R_RGBAQ</text>
</a>
</g>
</g>
<!-- Node2&#45;&gt;Node1 -->
<g id="edge1" class="edge">
<title>Node2&#45;&gt;Node1</title>
<path fill="none" stroke="#9a32cd" stroke-dasharray="5,2" d="M53.642,-80.716C62.6507,-67.922 75.7154,-50.884 89.5,-38 96.9307,-31.0548 106.2222,-24.5632 114.0804,-19.5827"/>
<polygon fill="#9a32cd" stroke="#9a32cd" points="50.6186,-78.936 47.8467,-89.1618 56.3905,-82.8965 50.6186,-78.936"/>
<text text-anchor="middle" x="108" y="-63" font-family="Helvetica,sans-Serif" font-size="10.00" fill="#000000"> rgbaq0</text>
<text text-anchor="middle" x="108" y="-52" font-family="Helvetica,sans-Serif" font-size="10.00" fill="#000000">rgbaq1</text>
<text text-anchor="middle" x="108" y="-41" font-family="Helvetica,sans-Serif" font-size="10.00" fill="#000000">rgbaq2</text>
</g>
<!-- Node3 -->
<g id="node3" class="node">
<title>Node3</title>
<g id="a_node3"><a xlink:href="structGS__RGBAQ.html" target="_top" xlink:title=" ">
<polygon fill="#ffffff" stroke="#000000" points="6,-156.5 6,-175.5 77,-175.5 77,-156.5 6,-156.5"/>
<text text-anchor="middle" x="41.5" y="-163.5" font-family="Helvetica,sans-Serif" font-size="10.00" fill="#000000">GS_RGBAQ</text>
</a>
</g>
</g>
<!-- Node3&#45;&gt;Node2 -->
<g id="edge2" class="edge">
<title>Node3&#45;&gt;Node2</title>
<path fill="none" stroke="#9a32cd" stroke-dasharray="5,2" d="M41.5,-146.1079C41.5,-133.714 41.5,-118.3263 41.5,-108.5817"/>
<polygon fill="#9a32cd" stroke="#9a32cd" points="38.0001,-146.4005 41.5,-156.4005 45.0001,-146.4006 38.0001,-146.4005"/>
<text text-anchor="middle" x="54" y="-130" font-family="Helvetica,sans-Serif" font-size="10.00" fill="#000000"> data</text>
</g>
<!-- Node4 -->
<g id="node4" class="node">
<title>Node4</title>
<g id="a_node4"><a xlink:href="structGS__R__ST.html" target="_top" xlink:title=" ">
<polygon fill="#ffffff" stroke="#000000" points="101,-89.5 101,-108.5 160,-108.5 160,-89.5 101,-89.5"/>
<text text-anchor="middle" x="130.5" y="-96.5" font-family="Helvetica,sans-Serif" font-size="10.00" fill="#000000">GS_R_ST</text>
</a>
</g>
</g>
<!-- Node4&#45;&gt;Node1 -->
<g id="edge3" class="edge">
<title>Node4&#45;&gt;Node1</title>
<path fill="none" stroke="#9a32cd" stroke-dasharray="5,2" d="M130.5,-79.2379C130.5,-60.7654 130.5,-33.957 130.5,-19.7259"/>
<polygon fill="#9a32cd" stroke="#9a32cd" points="127.0001,-79.4754 130.5,-89.4754 134.0001,-79.4755 127.0001,-79.4754"/>
<text text-anchor="middle" x="140" y="-63" font-family="Helvetica,sans-Serif" font-size="10.00" fill="#000000"> st0</text>
<text text-anchor="middle" x="140" y="-52" font-family="Helvetica,sans-Serif" font-size="10.00" fill="#000000">st1</text>
<text text-anchor="middle" x="140" y="-41" font-family="Helvetica,sans-Serif" font-size="10.00" fill="#000000">st2</text>
</g>
<!-- Node5 -->
<g id="node5" class="node">
<title>Node5</title>
<g id="a_node5"><a xlink:href="structGS__ST.html" target="_top" xlink:title=" ">
<polygon fill="#ffffff" stroke="#000000" points="107,-156.5 107,-175.5 154,-175.5 154,-156.5 107,-156.5"/>
<text text-anchor="middle" x="130.5" y="-163.5" font-family="Helvetica,sans-Serif" font-size="10.00" fill="#000000">GS_ST</text>
</a>
</g>
</g>
<!-- Node5&#45;&gt;Node4 -->
<g id="edge4" class="edge">
<title>Node5&#45;&gt;Node4</title>
<path fill="none" stroke="#9a32cd" stroke-dasharray="5,2" d="M130.5,-146.1079C130.5,-133.714 130.5,-118.3263 130.5,-108.5817"/>
<polygon fill="#9a32cd" stroke="#9a32cd" points="127.0001,-146.4005 130.5,-156.4005 134.0001,-146.4006 127.0001,-146.4005"/>
<text text-anchor="middle" x="143" y="-130" font-family="Helvetica,sans-Serif" font-size="10.00" fill="#000000"> data</text>
</g>
<!-- Node6 -->
<g id="node6" class="node">
<title>Node6</title>
<g id="a_node6"><a xlink:href="structGS__R__XYZ.html" target="_top" xlink:title=" ">
<polygon fill="#ffffff" stroke="#000000" points="178,-89.5 178,-108.5 245,-108.5 245,-89.5 178,-89.5"/>
<text text-anchor="middle" x="211.5" y="-96.5" font-family="Helvetica,sans-Serif" font-size="10.00" fill="#000000">GS_R_XYZ</text>
</a>
</g>
</g>
<!-- Node6&#45;&gt;Node1 -->
<g id="edge5" class="edge">
<title>Node6&#45;&gt;Node1</title>
<path fill="none" stroke="#9a32cd" stroke-dasharray="5,2" d="M196.0673,-82.0431C179.2649,-63.5812 152.9756,-34.6954 139.3516,-19.7259"/>
<polygon fill="#9a32cd" stroke="#9a32cd" points="193.5122,-84.4356 202.8316,-89.4754 198.6892,-79.724 193.5122,-84.4356"/>
<text text-anchor="middle" x="198" y="-63" font-family="Helvetica,sans-Serif" font-size="10.00" fill="#000000"> xyz0</text>
<text text-anchor="middle" x="198" y="-52" font-family="Helvetica,sans-Serif" font-size="10.00" fill="#000000">xyz1</text>
<text text-anchor="middle" x="198" y="-41" font-family="Helvetica,sans-Serif" font-size="10.00" fill="#000000">xyz2</text>
</g>
<!-- Node7 -->
<g id="node7" class="node">
<title>Node7</title>
<g id="a_node7"><a xlink:href="structGS__XYZ.html" target="_top" xlink:title=" ">
<polygon fill="#ffffff" stroke="#000000" points="184,-156.5 184,-175.5 239,-175.5 239,-156.5 184,-156.5"/>
<text text-anchor="middle" x="211.5" y="-163.5" font-family="Helvetica,sans-Serif" font-size="10.00" fill="#000000">GS_XYZ</text>
</a>
</g>
</g>
<!-- Node7&#45;&gt;Node6 -->
<g id="edge6" class="edge">
<title>Node7&#45;&gt;Node6</title>
<path fill="none" stroke="#9a32cd" stroke-dasharray="5,2" d="M211.5,-146.1079C211.5,-133.714 211.5,-118.3263 211.5,-108.5817"/>
<polygon fill="#9a32cd" stroke="#9a32cd" points="208.0001,-146.4005 211.5,-156.4005 215.0001,-146.4006 208.0001,-146.4005"/>
<text text-anchor="middle" x="224" y="-130" font-family="Helvetica,sans-Serif" font-size="10.00" fill="#000000"> data</text>
</g>
</g>
</svg>
