<?xml version="1.0" encoding="UTF-8" standalone="no"?>
<!DOCTYPE svg PUBLIC "-//W3C//DTD SVG 1.1//EN"
 "http://www.w3.org/Graphics/SVG/1.1/DTD/svg11.dtd">
<!-- Generated by graphviz version 2.40.1 (20161225.0304)
 -->
<!-- Title: erl_loader_t Pages: 1 -->
<svg width="248pt" height="331pt"
 viewBox="0.00 0.00 247.50 331.00" xmlns="http://www.w3.org/2000/svg" xmlns:xlink="http://www.w3.org/1999/xlink">
<g id="graph0" class="graph" transform="scale(1 1) rotate(0) translate(4 327)">
<title>erl_loader_t</title>
<polygon fill="#ffffff" stroke="transparent" points="-4,4 -4,-327 243.5,-327 243.5,4 -4,4"/>
<!-- Node1 -->
<g id="node1" class="node">
<title>Node1</title>
<g id="a_node1"><a xlink:title=" ">
<polygon fill="#bfbfbf" stroke="#000000" points="38.5,-.5 38.5,-19.5 112.5,-19.5 112.5,-.5 38.5,-.5"/>
<text text-anchor="middle" x="75.5" y="-7.5" font-family="Helvetica,sans-Serif" font-size="10.00" fill="#000000">erl_loader_t</text>
</a>
</g>
</g>
<!-- Node2 -->
<g id="node2" class="node">
<title>Node2</title>
<g id="a_node2"><a xlink:href="structhtab.html" target="_top" xlink:title=" ">
<polygon fill="#ffffff" stroke="#000000" points="56.5,-147.5 56.5,-166.5 94.5,-166.5 94.5,-147.5 56.5,-147.5"/>
<text text-anchor="middle" x="75.5" y="-154.5" font-family="Helvetica,sans-Serif" font-size="10.00" fill="#000000">htab</text>
</a>
</g>
</g>
<!-- Node2&#45;&gt;Node1 -->
<g id="edge1" class="edge">
<title>Node2&#45;&gt;Node1</title>
<path fill="none" stroke="#9a32cd" stroke-dasharray="5,2" d="M72.4633,-137.1881C70.9393,-126.2515 69.2591,-112.4084 68.5,-100 66.7105,-70.7477 71.2705,-36.2086 73.8585,-19.7149"/>
<polygon fill="#9a32cd" stroke="#9a32cd" points="69.0393,-137.963 73.9498,-147.3511 75.9656,-136.9498 69.0393,-137.963"/>
<text text-anchor="middle" x="91" y="-86.5" font-family="Helvetica,sans-Serif" font-size="10.00" fill="#000000"> symbols</text>
</g>
<!-- Node6 -->
<g id="node6" class="node">
<title>Node6</title>
<g id="a_node6"><a xlink:href="structerl__record__t.html" target="_top" xlink:title=" ">
<polygon fill="#ffffff" stroke="#000000" points="122.5,-79.5 122.5,-98.5 196.5,-98.5 196.5,-79.5 122.5,-79.5"/>
<text text-anchor="middle" x="159.5" y="-86.5" font-family="Helvetica,sans-Serif" font-size="10.00" fill="#000000">erl_loader_t</text>
</a>
</g>
</g>
<!-- Node2&#45;&gt;Node6 -->
<g id="edge8" class="edge">
<title>Node2&#45;&gt;Node6</title>
<path fill="none" stroke="#9a32cd" stroke-dasharray="5,2" d="M95.4124,-140.8805C111.7103,-127.6869 134.2104,-109.4725 147.758,-98.5054"/>
<polygon fill="#9a32cd" stroke="#9a32cd" points="93.1054,-138.2449 87.5352,-147.2573 97.5098,-143.6856 93.1054,-138.2449"/>
<text text-anchor="middle" x="145" y="-121" font-family="Helvetica,sans-Serif" font-size="10.00" fill="#000000"> symbols</text>
</g>
<!-- Node3 -->
<g id="node3" class="node">
<title>Node3</title>
<g id="a_node3"><a xlink:href="structhitem.html" target="_top" xlink:title=" ">
<polygon fill="#ffffff" stroke="#000000" points="0,-225.5 0,-244.5 45,-244.5 45,-225.5 0,-225.5"/>
<text text-anchor="middle" x="22.5" y="-232.5" font-family="Helvetica,sans-Serif" font-size="10.00" fill="#000000">hitem</text>
</a>
</g>
</g>
<!-- Node3&#45;&gt;Node2 -->
<g id="edge2" class="edge">
<title>Node3&#45;&gt;Node2</title>
<path fill="none" stroke="#9a32cd" stroke-dasharray="5,2" d="M34.6816,-217.0723C45.341,-201.385 60.4175,-179.197 68.948,-166.6426"/>
<polygon fill="#9a32cd" stroke="#9a32cd" points="31.7241,-215.1973 28.9988,-225.4357 37.514,-219.1315 31.7241,-215.1973"/>
<text text-anchor="middle" x="68" y="-199" font-family="Helvetica,sans-Serif" font-size="10.00" fill="#000000"> ipos</text>
<text text-anchor="middle" x="68" y="-188" font-family="Helvetica,sans-Serif" font-size="10.00" fill="#000000">table</text>
</g>
<!-- Node3&#45;&gt;Node3 -->
<g id="edge3" class="edge">
<title>Node3&#45;&gt;Node3</title>
<path fill="none" stroke="#9a32cd" stroke-dasharray="5,2" d="M55.5033,-241.3326C60.0015,-240.2767 63,-238.1659 63,-235 63,-229.8047 54.925,-227.4506 45.3991,-227.9376"/>
<polygon fill="#9a32cd" stroke="#9a32cd" points="55.121,-237.851 45.3991,-242.0624 55.6253,-244.8328 55.121,-237.851"/>
<text text-anchor="middle" x="75.5" y="-232.5" font-family="Helvetica,sans-Serif" font-size="10.00" fill="#000000"> next</text>
</g>
<!-- Node4 -->
<g id="node4" class="node">
<title>Node4</title>
<g id="a_node4"><a xlink:href="structreroot.html" target="_top" xlink:title=" ">
<polygon fill="#ffffff" stroke="#000000" points="106.5,-225.5 106.5,-244.5 152.5,-244.5 152.5,-225.5 106.5,-225.5"/>
<text text-anchor="middle" x="129.5" y="-232.5" font-family="Helvetica,sans-Serif" font-size="10.00" fill="#000000">reroot</text>
</a>
</g>
</g>
<!-- Node4&#45;&gt;Node2 -->
<g id="edge4" class="edge">
<title>Node4&#45;&gt;Node2</title>
<path fill="none" stroke="#9a32cd" stroke-dasharray="5,2" d="M117.0885,-217.0723C106.2281,-201.385 90.8671,-179.197 82.1756,-166.6426"/>
<polygon fill="#9a32cd" stroke="#9a32cd" points="114.3087,-219.206 122.8785,-225.4357 120.0641,-215.2215 114.3087,-219.206"/>
<text text-anchor="middle" x="124.5" y="-193.5" font-family="Helvetica,sans-Serif" font-size="10.00" fill="#000000"> space</text>
</g>
<!-- Node5 -->
<g id="node5" class="node">
<title>Node5</title>
<g id="a_node5"><a xlink:href="structrecycle.html" target="_top" xlink:title=" ">
<polygon fill="#ffffff" stroke="#000000" points="103.5,-303.5 103.5,-322.5 155.5,-322.5 155.5,-303.5 103.5,-303.5"/>
<text text-anchor="middle" x="129.5" y="-310.5" font-family="Helvetica,sans-Serif" font-size="10.00" fill="#000000">recycle</text>
</a>
</g>
</g>
<!-- Node5&#45;&gt;Node4 -->
<g id="edge5" class="edge">
<title>Node5&#45;&gt;Node4</title>
<path fill="none" stroke="#9a32cd" stroke-dasharray="5,2" d="M129.5,-293.2866C129.5,-277.7395 129.5,-256.7276 129.5,-244.6426"/>
<polygon fill="#9a32cd" stroke="#9a32cd" points="126.0001,-293.4356 129.5,-303.4357 133.0001,-293.4357 126.0001,-293.4356"/>
<text text-anchor="middle" x="142" y="-277" font-family="Helvetica,sans-Serif" font-size="10.00" fill="#000000"> list</text>
<text text-anchor="middle" x="142" y="-266" font-family="Helvetica,sans-Serif" font-size="10.00" fill="#000000">trash</text>
</g>
<!-- Node5&#45;&gt;Node5 -->
<g id="edge6" class="edge">
<title>Node5&#45;&gt;Node5</title>
<path fill="none" stroke="#9a32cd" stroke-dasharray="5,2" d="M165.9746,-319.191C170.5156,-318.0939 173.5,-316.0302 173.5,-313 173.5,-308.0273 165.4631,-305.6576 155.6994,-305.8907"/>
<polygon fill="#9a32cd" stroke="#9a32cd" points="165.3481,-315.733 155.6994,-320.1093 165.9713,-322.7052 165.3481,-315.733"/>
<text text-anchor="middle" x="186" y="-310.5" font-family="Helvetica,sans-Serif" font-size="10.00" fill="#000000"> next</text>
</g>
<!-- Node6&#45;&gt;Node1 -->
<g id="edge7" class="edge">
<title>Node6&#45;&gt;Node1</title>
<path fill="none" stroke="#9a32cd" stroke-dasharray="5,2" d="M141.5522,-72.1205C124.4958,-56.0793 99.4564,-32.5305 85.6219,-19.5194"/>
<polygon fill="#9a32cd" stroke="#9a32cd" points="139.5175,-75.0117 149.2,-79.313 144.3132,-69.9125 139.5175,-75.0117"/>
<text text-anchor="middle" x="139" y="-52" font-family="Helvetica,sans-Serif" font-size="10.00" fill="#000000"> next</text>
<text text-anchor="middle" x="139" y="-41" font-family="Helvetica,sans-Serif" font-size="10.00" fill="#000000">prev</text>
</g>
<!-- Node6&#45;&gt;Node6 -->
<g id="edge9" class="edge">
<title>Node6&#45;&gt;Node6</title>
<path fill="none" stroke="#9a32cd" stroke-dasharray="5,2" d="M206.6857,-94.2299C211.4569,-93.192 214.5,-91.4487 214.5,-89 214.5,-85.082 206.7097,-82.97 196.5153,-82.6639"/>
<polygon fill="#9a32cd" stroke="#9a32cd" points="206.0782,-90.7752 196.5153,-95.3361 206.8352,-97.7342 206.0782,-90.7752"/>
<text text-anchor="middle" x="227" y="-92" font-family="Helvetica,sans-Serif" font-size="10.00" fill="#000000"> next</text>
<text text-anchor="middle" x="227" y="-81" font-family="Helvetica,sans-Serif" font-size="10.00" fill="#000000">prev</text>
</g>
</g>
</svg>
