<?xml version="1.0" encoding="UTF-8" standalone="no"?>
<!DOCTYPE svg PUBLIC "-//W3C//DTD SVG 1.1//EN"
 "http://www.w3.org/Graphics/SVG/1.1/DTD/svg11.dtd">
<!-- Generated by graphviz version 2.40.1 (20161225.0304)
 -->
<!-- Title: ee/network/tcpip/src/sys_arch.c Pages: 1 -->
<svg width="1043pt" height="263pt"
 viewBox="0.00 0.00 1043.00 263.00" xmlns="http://www.w3.org/2000/svg" xmlns:xlink="http://www.w3.org/1999/xlink">
<g id="graph0" class="graph" transform="scale(1 1) rotate(0) translate(4 259)">
<title>ee/network/tcpip/src/sys_arch.c</title>
<polygon fill="#ffffff" stroke="transparent" points="-4,4 -4,-259 1039,-259 1039,4 -4,4"/>
<!-- Node1 -->
<g id="node1" class="node">
<title>Node1</title>
<g id="a_node1"><a xlink:title=" ">
<polygon fill="#bfbfbf" stroke="#000000" points="361.5,-224.5 361.5,-254.5 477.5,-254.5 477.5,-224.5 361.5,-224.5"/>
<text text-anchor="start" x="369.5" y="-242.5" font-family="Helvetica,sans-Serif" font-size="10.00" fill="#000000">ee/network/tcpip/src</text>
<text text-anchor="middle" x="419.5" y="-231.5" font-family="Helvetica,sans-Serif" font-size="10.00" fill="#000000">/sys_arch.c</text>
</a>
</g>
</g>
<!-- Node2 -->
<g id="node2" class="node">
<title>Node2</title>
<g id="a_node2"><a xlink:title=" ">
<polygon fill="#ffffff" stroke="#bfbfbf" points="0,-168.5 0,-187.5 53,-187.5 53,-168.5 0,-168.5"/>
<text text-anchor="middle" x="26.5" y="-175.5" font-family="Helvetica,sans-Serif" font-size="10.00" fill="#000000">stdlib.h</text>
</a>
</g>
</g>
<!-- Node1&#45;&gt;Node2 -->
<g id="edge1" class="edge">
<title>Node1&#45;&gt;Node2</title>
<path fill="none" stroke="#191970" d="M361.287,-233.4153C292.3682,-225.6967 174.0221,-210.8268 63.159,-187.9065"/>
<polygon fill="#191970" stroke="#191970" points="63.6482,-184.4331 53.1431,-185.8092 62.2135,-191.2845 63.6482,-184.4331"/>
</g>
<!-- Node3 -->
<g id="node3" class="node">
<title>Node3</title>
<g id="a_node3"><a xlink:title=" ">
<polygon fill="#ffffff" stroke="#bfbfbf" points="71.5,-168.5 71.5,-187.5 121.5,-187.5 121.5,-168.5 71.5,-168.5"/>
<text text-anchor="middle" x="96.5" y="-175.5" font-family="Helvetica,sans-Serif" font-size="10.00" fill="#000000">stdio.h</text>
</a>
</g>
</g>
<!-- Node1&#45;&gt;Node3 -->
<g id="edge2" class="edge">
<title>Node1&#45;&gt;Node3</title>
<path fill="none" stroke="#191970" d="M361.2689,-231.0458C304.8055,-222.4154 216.5951,-207.792 131.4925,-188.043"/>
<polygon fill="#191970" stroke="#191970" points="132.2042,-184.615 121.6689,-185.7369 130.6044,-191.4297 132.2042,-184.615"/>
</g>
<!-- Node4 -->
<g id="node4" class="node">
<title>Node4</title>
<g id="a_node4"><a xlink:title=" ">
<polygon fill="#ffffff" stroke="#bfbfbf" points="140,-168.5 140,-187.5 193,-187.5 193,-168.5 140,-168.5"/>
<text text-anchor="middle" x="166.5" y="-175.5" font-family="Helvetica,sans-Serif" font-size="10.00" fill="#000000">string.h</text>
</a>
</g>
</g>
<!-- Node1&#45;&gt;Node4 -->
<g id="edge3" class="edge">
<title>Node1&#45;&gt;Node4</title>
<path fill="none" stroke="#191970" d="M361.459,-225.4157C318.8511,-215.0727 259.574,-200.6755 207.5,-188 206.0762,-187.6534 204.6247,-187.3 203.1584,-186.9428"/>
<polygon fill="#191970" stroke="#191970" points="203.9498,-183.5333 193.4054,-184.566 202.2923,-190.3343 203.9498,-183.5333"/>
</g>
<!-- Node5 -->
<g id="node5" class="node">
<title>Node5</title>
<g id="a_node5"><a xlink:href="kernel_8h.html" target="_top" xlink:title=" ">
<polygon fill="#ffffff" stroke="#000000" points="482.5,-112.5 482.5,-131.5 538.5,-131.5 538.5,-112.5 482.5,-112.5"/>
<text text-anchor="middle" x="510.5" y="-119.5" font-family="Helvetica,sans-Serif" font-size="10.00" fill="#000000">kernel.h</text>
</a>
</g>
</g>
<!-- Node1&#45;&gt;Node5 -->
<g id="edge4" class="edge">
<title>Node1&#45;&gt;Node5</title>
<path fill="none" stroke="#191970" d="M361.4824,-235.5786C296.1268,-228.9911 203.5371,-211.7929 240.5,-168 255.2686,-150.5025 400.6589,-133.2947 471.7531,-125.8458"/>
<polygon fill="#191970" stroke="#191970" points="472.4999,-129.2873 482.0868,-124.7771 471.7797,-122.3245 472.4999,-129.2873"/>
</g>
<!-- Node10 -->
<g id="node10" class="node">
<title>Node10</title>
<g id="a_node10"><a xlink:title=" ">
<polygon fill="#ffffff" stroke="#bfbfbf" points="249.5,-168.5 249.5,-187.5 297.5,-187.5 297.5,-168.5 249.5,-168.5"/>
<text text-anchor="middle" x="273.5" y="-175.5" font-family="Helvetica,sans-Serif" font-size="10.00" fill="#000000">time.h</text>
</a>
</g>
</g>
<!-- Node1&#45;&gt;Node10 -->
<g id="edge9" class="edge">
<title>Node1&#45;&gt;Node10</title>
<path fill="none" stroke="#191970" d="M383.7844,-224.4554C359.8513,-214.374 328.6095,-201.2139 305.4906,-191.4755"/>
<polygon fill="#191970" stroke="#191970" points="306.6993,-188.1868 296.1248,-187.5303 303.9819,-194.6379 306.6993,-188.1868"/>
</g>
<!-- Node11 -->
<g id="node11" class="node">
<title>Node11</title>
<g id="a_node11"><a xlink:title=" ">
<polygon fill="#ffffff" stroke="#bfbfbf" points="316,-168.5 316,-187.5 369,-187.5 369,-168.5 316,-168.5"/>
<text text-anchor="middle" x="342.5" y="-175.5" font-family="Helvetica,sans-Serif" font-size="10.00" fill="#000000">limits.h</text>
</a>
</g>
</g>
<!-- Node1&#45;&gt;Node11 -->
<g id="edge10" class="edge">
<title>Node1&#45;&gt;Node11</title>
<path fill="none" stroke="#191970" d="M400.4663,-224.2977C388.9985,-215.1384 374.4038,-203.4816 362.7281,-194.1562"/>
<polygon fill="#191970" stroke="#191970" points="364.8266,-191.3529 354.8287,-187.8469 360.4581,-196.8225 364.8266,-191.3529"/>
</g>
<!-- Node12 -->
<g id="node12" class="node">
<title>Node12</title>
<g id="a_node12"><a xlink:title=" ">
<polygon fill="#ffffff" stroke="#bfbfbf" points="387,-168.5 387,-187.5 452,-187.5 452,-168.5 387,-168.5"/>
<text text-anchor="middle" x="419.5" y="-175.5" font-family="Helvetica,sans-Serif" font-size="10.00" fill="#000000">lwip/sys.h</text>
</a>
</g>
</g>
<!-- Node1&#45;&gt;Node12 -->
<g id="edge11" class="edge">
<title>Node1&#45;&gt;Node12</title>
<path fill="none" stroke="#191970" d="M419.5,-224.2977C419.5,-216.3834 419.5,-206.6043 419.5,-198.0759"/>
<polygon fill="#191970" stroke="#191970" points="423.0001,-197.8469 419.5,-187.8469 416.0001,-197.847 423.0001,-197.8469"/>
</g>
<!-- Node13 -->
<g id="node13" class="node">
<title>Node13</title>
<g id="a_node13"><a xlink:title=" ">
<polygon fill="#ffffff" stroke="#bfbfbf" points="470,-168.5 470,-187.5 535,-187.5 535,-168.5 470,-168.5"/>
<text text-anchor="middle" x="502.5" y="-175.5" font-family="Helvetica,sans-Serif" font-size="10.00" fill="#000000">lwip/opt.h</text>
</a>
</g>
</g>
<!-- Node1&#45;&gt;Node13 -->
<g id="edge12" class="edge">
<title>Node1&#45;&gt;Node13</title>
<path fill="none" stroke="#191970" d="M440.0169,-224.2977C452.4982,-215.0495 468.4159,-203.2551 481.0614,-193.8853"/>
<polygon fill="#191970" stroke="#191970" points="483.2596,-196.6126 489.2106,-187.8469 479.0922,-190.9882 483.2596,-196.6126"/>
</g>
<!-- Node14 -->
<g id="node14" class="node">
<title>Node14</title>
<g id="a_node14"><a xlink:title=" ">
<polygon fill="#ffffff" stroke="#bfbfbf" points="553,-168.5 553,-187.5 626,-187.5 626,-168.5 553,-168.5"/>
<text text-anchor="middle" x="589.5" y="-175.5" font-family="Helvetica,sans-Serif" font-size="10.00" fill="#000000">lwip/stats.h</text>
</a>
</g>
</g>
<!-- Node1&#45;&gt;Node14 -->
<g id="edge13" class="edge">
<title>Node1&#45;&gt;Node14</title>
<path fill="none" stroke="#191970" d="M461.0867,-224.4554C489.4516,-214.194 526.6333,-200.7429 553.6836,-190.9571"/>
<polygon fill="#191970" stroke="#191970" points="554.9431,-194.2235 563.156,-187.5303 552.5618,-187.641 554.9431,-194.2235"/>
</g>
<!-- Node15 -->
<g id="node15" class="node">
<title>Node15</title>
<g id="a_node15"><a xlink:title=" ">
<polygon fill="#ffffff" stroke="#bfbfbf" points="644,-168.5 644,-187.5 723,-187.5 723,-168.5 644,-168.5"/>
<text text-anchor="middle" x="683.5" y="-175.5" font-family="Helvetica,sans-Serif" font-size="10.00" fill="#000000">lwip/debug.h</text>
</a>
</g>
</g>
<!-- Node1&#45;&gt;Node15 -->
<g id="edge14" class="edge">
<title>Node1&#45;&gt;Node15</title>
<path fill="none" stroke="#191970" d="M477.7627,-225.9274C524.5325,-215.0322 589.4864,-199.9009 633.8203,-189.5731"/>
<polygon fill="#191970" stroke="#191970" points="634.8417,-192.929 643.7868,-187.2514 633.2535,-186.1115 634.8417,-192.929"/>
</g>
<!-- Node16 -->
<g id="node16" class="node">
<title>Node16</title>
<g id="a_node16"><a xlink:title=" ">
<polygon fill="#ffffff" stroke="#bfbfbf" points="741.5,-168.5 741.5,-187.5 811.5,-187.5 811.5,-168.5 741.5,-168.5"/>
<text text-anchor="middle" x="776.5" y="-175.5" font-family="Helvetica,sans-Serif" font-size="10.00" fill="#000000">lwip/pbuf.h</text>
</a>
</g>
</g>
<!-- Node1&#45;&gt;Node16 -->
<g id="edge15" class="edge">
<title>Node1&#45;&gt;Node16</title>
<path fill="none" stroke="#191970" d="M477.7487,-230.8664C538.4031,-221.6554 636.3914,-206.1565 731.1218,-187.9843"/>
<polygon fill="#191970" stroke="#191970" points="732.01,-191.3775 741.1651,-186.0451 730.6829,-184.5044 732.01,-191.3775"/>
</g>
<!-- Node17 -->
<g id="node17" class="node">
<title>Node17</title>
<g id="a_node17"><a xlink:href="sys__arch_8h.html" target="_top" xlink:title=" ">
<polygon fill="#ffffff" stroke="#000000" points="829.5,-168.5 829.5,-187.5 921.5,-187.5 921.5,-168.5 829.5,-168.5"/>
<text text-anchor="middle" x="875.5" y="-175.5" font-family="Helvetica,sans-Serif" font-size="10.00" fill="#000000">arch/sys_arch.h</text>
</a>
</g>
</g>
<!-- Node1&#45;&gt;Node17 -->
<g id="edge16" class="edge">
<title>Node1&#45;&gt;Node17</title>
<path fill="none" stroke="#191970" d="M477.7407,-232.9849C553.9078,-224.2497 691.7216,-207.7101 819.362,-188.115"/>
<polygon fill="#191970" stroke="#191970" points="819.9675,-191.5631 829.316,-186.5774 818.8988,-184.6451 819.9675,-191.5631"/>
</g>
<!-- Node19 -->
<g id="node19" class="node">
<title>Node19</title>
<g id="a_node19"><a xlink:href="ps2ip__internal_8h.html" target="_top" xlink:title=" ">
<polygon fill="#ffffff" stroke="#000000" points="940,-168.5 940,-187.5 1035,-187.5 1035,-168.5 940,-168.5"/>
<text text-anchor="middle" x="987.5" y="-175.5" font-family="Helvetica,sans-Serif" font-size="10.00" fill="#000000">ps2ip_internal.h</text>
</a>
</g>
</g>
<!-- Node1&#45;&gt;Node19 -->
<g id="edge19" class="edge">
<title>Node1&#45;&gt;Node19</title>
<path fill="none" stroke="#191970" d="M477.5225,-235.0448C570.6664,-227.5866 759.5037,-211.2073 930.0447,-187.9705"/>
<polygon fill="#191970" stroke="#191970" points="930.5244,-191.4375 939.9552,-186.6094 929.5719,-184.5026 930.5244,-191.4375"/>
</g>
<!-- Node6 -->
<g id="node6" class="node">
<title>Node6</title>
<g id="a_node6"><a xlink:title=" ">
<polygon fill="#ffffff" stroke="#bfbfbf" points="408.5,-56.5 408.5,-75.5 464.5,-75.5 464.5,-56.5 408.5,-56.5"/>
<text text-anchor="middle" x="436.5" y="-63.5" font-family="Helvetica,sans-Serif" font-size="10.00" fill="#000000">stddef.h</text>
</a>
</g>
</g>
<!-- Node5&#45;&gt;Node6 -->
<g id="edge5" class="edge">
<title>Node5&#45;&gt;Node6</title>
<path fill="none" stroke="#191970" d="M497.6102,-112.2455C486.5746,-103.8943 470.4708,-91.7076 457.5647,-81.9408"/>
<polygon fill="#191970" stroke="#191970" points="459.3283,-78.8862 449.2421,-75.6427 455.1041,-84.4681 459.3283,-78.8862"/>
</g>
<!-- Node7 -->
<g id="node7" class="node">
<title>Node7</title>
<g id="a_node7"><a xlink:title=" ">
<polygon fill="#ffffff" stroke="#bfbfbf" points="482.5,-56.5 482.5,-75.5 538.5,-75.5 538.5,-56.5 482.5,-56.5"/>
<text text-anchor="middle" x="510.5" y="-63.5" font-family="Helvetica,sans-Serif" font-size="10.00" fill="#000000">stdarg.h</text>
</a>
</g>
</g>
<!-- Node5&#45;&gt;Node7 -->
<g id="edge6" class="edge">
<title>Node5&#45;&gt;Node7</title>
<path fill="none" stroke="#191970" d="M510.5,-112.2455C510.5,-104.9382 510.5,-94.6944 510.5,-85.7046"/>
<polygon fill="#191970" stroke="#191970" points="514.0001,-85.6426 510.5,-75.6427 507.0001,-85.6427 514.0001,-85.6426"/>
</g>
<!-- Node8 -->
<g id="node8" class="node">
<title>Node8</title>
<g id="a_node8"><a xlink:href="sifdma_8h.html" target="_top" xlink:title=" ">
<polygon fill="#ffffff" stroke="#000000" points="557,-56.5 557,-75.5 616,-75.5 616,-56.5 557,-56.5"/>
<text text-anchor="middle" x="586.5" y="-63.5" font-family="Helvetica,sans-Serif" font-size="10.00" fill="#000000">sifdma.h</text>
</a>
</g>
</g>
<!-- Node5&#45;&gt;Node8 -->
<g id="edge7" class="edge">
<title>Node5&#45;&gt;Node8</title>
<path fill="none" stroke="#191970" d="M523.7382,-112.2455C535.181,-103.814 551.9296,-91.4729 565.2475,-81.6598"/>
<polygon fill="#191970" stroke="#191970" points="567.4391,-84.3924 573.4135,-75.6427 563.2867,-78.757 567.4391,-84.3924"/>
</g>
<!-- Node9 -->
<g id="node9" class="node">
<title>Node9</title>
<g id="a_node9"><a xlink:href="tamtypes_8h.html" target="_top" xlink:title=" ">
<polygon fill="#ffffff" stroke="#000000" points="550.5,-.5 550.5,-19.5 622.5,-19.5 622.5,-.5 550.5,-.5"/>
<text text-anchor="middle" x="586.5" y="-7.5" font-family="Helvetica,sans-Serif" font-size="10.00" fill="#000000">tamtypes.h</text>
</a>
</g>
</g>
<!-- Node8&#45;&gt;Node9 -->
<g id="edge8" class="edge">
<title>Node8&#45;&gt;Node9</title>
<path fill="none" stroke="#191970" d="M586.5,-56.2455C586.5,-48.9382 586.5,-38.6944 586.5,-29.7046"/>
<polygon fill="#191970" stroke="#191970" points="590.0001,-29.6426 586.5,-19.6427 583.0001,-29.6427 590.0001,-29.6426"/>
</g>
<!-- Node17&#45;&gt;Node5 -->
<g id="edge17" class="edge">
<title>Node17&#45;&gt;Node5</title>
<path fill="none" stroke="#191970" d="M829.3054,-169.4884C826.3274,-168.9745 823.3727,-168.4742 820.5,-168 722.7614,-151.8675 607.2454,-135.4147 548.676,-127.2572"/>
<polygon fill="#191970" stroke="#191970" points="549.1449,-123.7887 538.7583,-125.8794 548.1816,-130.7222 549.1449,-123.7887"/>
</g>
<!-- Node18 -->
<g id="node18" class="node">
<title>Node18</title>
<g id="a_node18"><a xlink:title=" ">
<polygon fill="#ffffff" stroke="#bfbfbf" points="846,-112.5 846,-131.5 905,-131.5 905,-112.5 846,-112.5"/>
<text text-anchor="middle" x="875.5" y="-119.5" font-family="Helvetica,sans-Serif" font-size="10.00" fill="#000000">malloc.h</text>
</a>
</g>
</g>
<!-- Node17&#45;&gt;Node18 -->
<g id="edge18" class="edge">
<title>Node17&#45;&gt;Node18</title>
<path fill="none" stroke="#191970" d="M875.5,-168.2455C875.5,-160.9382 875.5,-150.6944 875.5,-141.7046"/>
<polygon fill="#191970" stroke="#191970" points="879.0001,-141.6426 875.5,-131.6427 872.0001,-141.6427 879.0001,-141.6426"/>
</g>
<!-- Node20 -->
<g id="node20" class="node">
<title>Node20</title>
<g id="a_node20"><a xlink:title=" ">
<polygon fill="#ffffff" stroke="#bfbfbf" points="944.5,-112.5 944.5,-131.5 1030.5,-131.5 1030.5,-112.5 944.5,-112.5"/>
<text text-anchor="middle" x="987.5" y="-119.5" font-family="Helvetica,sans-Serif" font-size="10.00" fill="#000000">lwip/sockets.h</text>
</a>
</g>
</g>
<!-- Node19&#45;&gt;Node20 -->
<g id="edge20" class="edge">
<title>Node19&#45;&gt;Node20</title>
<path fill="none" stroke="#191970" d="M987.5,-168.2455C987.5,-160.9382 987.5,-150.6944 987.5,-141.7046"/>
<polygon fill="#191970" stroke="#191970" points="991.0001,-141.6426 987.5,-131.6427 984.0001,-141.6427 991.0001,-141.6426"/>
</g>
</g>
</svg>
