<?xml version="1.0" encoding="UTF-8" standalone="no"?>
<!DOCTYPE svg PUBLIC "-//W3C//DTD SVG 1.1//EN"
 "http://www.w3.org/Graphics/SVG/1.1/DTD/svg11.dtd">
<!-- Generated by graphviz version 2.40.1 (20161225.0304)
 -->
<!-- Title: ee/kernel/include/syscallnr.h Pages: 1 -->
<svg width="520pt" height="95pt"
 viewBox="0.00 0.00 520.00 95.00" xmlns="http://www.w3.org/2000/svg" xmlns:xlink="http://www.w3.org/1999/xlink">
<g id="graph0" class="graph" transform="scale(1 1) rotate(0) translate(4 91)">
<title>ee/kernel/include/syscallnr.h</title>
<polygon fill="#ffffff" stroke="transparent" points="-4,4 -4,-91 516,-91 516,4 -4,4"/>
<!-- Node1 -->
<g id="node1" class="node">
<title>Node1</title>
<g id="a_node1"><a xlink:title=" ">
<polygon fill="#bfbfbf" stroke="#000000" points="181.5,-67.5 181.5,-86.5 336.5,-86.5 336.5,-67.5 181.5,-67.5"/>
<text text-anchor="middle" x="259" y="-74.5" font-family="Helvetica,sans-Serif" font-size="10.00" fill="#000000">ee/kernel/include/syscallnr.h</text>
</a>
</g>
</g>
<!-- Node2 -->
<g id="node2" class="node">
<title>Node2</title>
<g id="a_node2"><a xlink:href="libosd_8c.html" target="_top" xlink:title=" ">
<polygon fill="#ffffff" stroke="#000000" points="0,-6 0,-25 120,-25 120,-6 0,-6"/>
<text text-anchor="middle" x="60" y="-13" font-family="Helvetica,sans-Serif" font-size="10.00" fill="#000000">ee/kernel/src/libosd.c</text>
</a>
</g>
</g>
<!-- Node1&#45;&gt;Node2 -->
<g id="edge1" class="edge">
<title>Node1&#45;&gt;Node2</title>
<path fill="none" stroke="#191970" d="M218.2294,-64.4001C180.459,-52.7273 125.1045,-35.6202 90.8754,-25.0419"/>
<polygon fill="#191970" stroke="#191970" points="217.3186,-67.7818 227.9063,-67.3906 219.3856,-61.0939 217.3186,-67.7818"/>
</g>
<!-- Node3 -->
<g id="node3" class="node">
<title>Node3</title>
<g id="a_node3"><a xlink:href="libosd__common_8c.html" target="_top" xlink:title=" ">
<polygon fill="#ffffff" stroke="#000000" points="138,-.5 138,-30.5 250,-30.5 250,-.5 138,-.5"/>
<text text-anchor="start" x="146" y="-18.5" font-family="Helvetica,sans-Serif" font-size="10.00" fill="#000000">ee/kernel/src/libosd</text>
<text text-anchor="middle" x="194" y="-7.5" font-family="Helvetica,sans-Serif" font-size="10.00" fill="#000000">_common.c</text>
</a>
</g>
</g>
<!-- Node1&#45;&gt;Node3 -->
<g id="edge2" class="edge">
<title>Node1&#45;&gt;Node3</title>
<path fill="none" stroke="#191970" d="M241.5478,-60.4875C231.6988,-51.1689 219.4838,-39.6116 209.9008,-30.5446"/>
<polygon fill="#191970" stroke="#191970" points="239.1743,-63.0602 248.8438,-67.3906 243.9853,-57.9754 239.1743,-63.0602"/>
</g>
<!-- Node4 -->
<g id="node4" class="node">
<title>Node4</title>
<g id="a_node4"><a xlink:href="libosd__full_8c.html" target="_top" xlink:title=" ">
<polygon fill="#ffffff" stroke="#000000" points="268,-.5 268,-30.5 380,-30.5 380,-.5 268,-.5"/>
<text text-anchor="start" x="276" y="-18.5" font-family="Helvetica,sans-Serif" font-size="10.00" fill="#000000">ee/kernel/src/libosd</text>
<text text-anchor="middle" x="324" y="-7.5" font-family="Helvetica,sans-Serif" font-size="10.00" fill="#000000">_full.c</text>
</a>
</g>
</g>
<!-- Node1&#45;&gt;Node4 -->
<g id="edge3" class="edge">
<title>Node1&#45;&gt;Node4</title>
<path fill="none" stroke="#191970" d="M276.4522,-60.4875C286.3012,-51.1689 298.5162,-39.6116 308.0992,-30.5446"/>
<polygon fill="#191970" stroke="#191970" points="274.0147,-57.9754 269.1563,-67.3906 278.8257,-63.0602 274.0147,-57.9754"/>
</g>
<!-- Node5 -->
<g id="node5" class="node">
<title>Node5</title>
<g id="a_node5"><a xlink:href="osdsrc_8c.html" target="_top" xlink:title=" ">
<polygon fill="#ffffff" stroke="#000000" points="398,-.5 398,-30.5 512,-30.5 512,-.5 398,-.5"/>
<text text-anchor="start" x="406" y="-18.5" font-family="Helvetica,sans-Serif" font-size="10.00" fill="#000000">ee/kernel/src/osdsrc</text>
<text text-anchor="middle" x="455" y="-7.5" font-family="Helvetica,sans-Serif" font-size="10.00" fill="#000000">/src/osdsrc.c</text>
</a>
</g>
</g>
<!-- Node1&#45;&gt;Node5 -->
<g id="edge4" class="edge">
<title>Node1&#45;&gt;Node5</title>
<path fill="none" stroke="#191970" d="M299.3199,-64.3486C330.5841,-54.5386 374.008,-40.9133 407.053,-30.5446"/>
<polygon fill="#191970" stroke="#191970" points="298.1185,-61.0573 289.625,-67.3906 300.2142,-67.7362 298.1185,-61.0573"/>
</g>
</g>
</svg>
