<?xml version="1.0" encoding="UTF-8" standalone="no"?>
<!DOCTYPE svg PUBLIC "-//W3C//DTD SVG 1.1//EN"
 "http://www.w3.org/Graphics/SVG/1.1/DTD/svg11.dtd">
<!-- Generated by graphviz version 2.40.1 (20161225.0304)
 -->
<!-- Title: ee/libc/src/terminate.c Pages: 1 -->
<svg width="322pt" height="196pt"
 viewBox="0.00 0.00 321.50 196.00" xmlns="http://www.w3.org/2000/svg" xmlns:xlink="http://www.w3.org/1999/xlink">
<g id="graph0" class="graph" transform="scale(1 1) rotate(0) translate(4 192)">
<title>ee/libc/src/terminate.c</title>
<polygon fill="#ffffff" stroke="transparent" points="-4,4 -4,-192 317.5,-192 317.5,4 -4,4"/>
<!-- Node1 -->
<g id="node1" class="node">
<title>Node1</title>
<g id="a_node1"><a xlink:title=" ">
<polygon fill="#bfbfbf" stroke="#000000" points="15.5,-168.5 15.5,-187.5 140.5,-187.5 140.5,-168.5 15.5,-168.5"/>
<text text-anchor="middle" x="78" y="-175.5" font-family="Helvetica,sans-Serif" font-size="10.00" fill="#000000">ee/libc/src/terminate.c</text>
</a>
</g>
</g>
<!-- Node2 -->
<g id="node2" class="node">
<title>Node2</title>
<g id="a_node2"><a xlink:title=" ">
<polygon fill="#ffffff" stroke="#bfbfbf" points="0,-112.5 0,-131.5 50,-131.5 50,-112.5 0,-112.5"/>
<text text-anchor="middle" x="25" y="-119.5" font-family="Helvetica,sans-Serif" font-size="10.00" fill="#000000">stdio.h</text>
</a>
</g>
</g>
<!-- Node1&#45;&gt;Node2 -->
<g id="edge1" class="edge">
<title>Node1&#45;&gt;Node2</title>
<path fill="none" stroke="#191970" d="M68.7681,-168.2455C61.1683,-160.2155 50.2123,-148.6394 41.1632,-139.0781"/>
<polygon fill="#191970" stroke="#191970" points="43.542,-136.4998 34.1261,-131.6427 38.4579,-141.3115 43.542,-136.4998"/>
</g>
<!-- Node3 -->
<g id="node3" class="node">
<title>Node3</title>
<g id="a_node3"><a xlink:href="tamtypes_8h.html" target="_top" xlink:title=" ">
<polygon fill="#ffffff" stroke="#000000" points="145,-.5 145,-19.5 217,-19.5 217,-.5 145,-.5"/>
<text text-anchor="middle" x="181" y="-7.5" font-family="Helvetica,sans-Serif" font-size="10.00" fill="#000000">tamtypes.h</text>
</a>
</g>
</g>
<!-- Node1&#45;&gt;Node3 -->
<g id="edge2" class="edge">
<title>Node1&#45;&gt;Node3</title>
<path fill="none" stroke="#191970" d="M76.8258,-168.4088C74.6488,-146.3613 72.2419,-91.2625 97,-56 107.2856,-41.3504 123.7755,-30.8871 139.4326,-23.6799"/>
<polygon fill="#191970" stroke="#191970" points="141.1792,-26.7404 149.0107,-19.6048 138.4387,-20.2992 141.1792,-26.7404"/>
</g>
<!-- Node4 -->
<g id="node4" class="node">
<title>Node4</title>
<g id="a_node4"><a xlink:href="kernel_8h.html" target="_top" xlink:title=" ">
<polygon fill="#ffffff" stroke="#000000" points="143,-112.5 143,-131.5 199,-131.5 199,-112.5 143,-112.5"/>
<text text-anchor="middle" x="171" y="-119.5" font-family="Helvetica,sans-Serif" font-size="10.00" fill="#000000">kernel.h</text>
</a>
</g>
</g>
<!-- Node1&#45;&gt;Node4 -->
<g id="edge3" class="edge">
<title>Node1&#45;&gt;Node4</title>
<path fill="none" stroke="#191970" d="M94.1994,-168.2455C108.6018,-159.5731 129.8732,-146.7645 146.3799,-136.825"/>
<polygon fill="#191970" stroke="#191970" points="148.225,-139.7996 154.9863,-131.6427 144.614,-133.8028 148.225,-139.7996"/>
</g>
<!-- Node5 -->
<g id="node5" class="node">
<title>Node5</title>
<g id="a_node5"><a xlink:title=" ">
<polygon fill="#ffffff" stroke="#bfbfbf" points="106,-56.5 106,-75.5 162,-75.5 162,-56.5 106,-56.5"/>
<text text-anchor="middle" x="134" y="-63.5" font-family="Helvetica,sans-Serif" font-size="10.00" fill="#000000">stddef.h</text>
</a>
</g>
</g>
<!-- Node4&#45;&gt;Node5 -->
<g id="edge4" class="edge">
<title>Node4&#45;&gt;Node5</title>
<path fill="none" stroke="#191970" d="M164.5551,-112.2455C159.4618,-104.5367 152.2092,-93.5598 146.048,-84.2348"/>
<polygon fill="#191970" stroke="#191970" points="148.8038,-82.0566 140.3711,-75.6427 142.9635,-85.9155 148.8038,-82.0566"/>
</g>
<!-- Node6 -->
<g id="node6" class="node">
<title>Node6</title>
<g id="a_node6"><a xlink:title=" ">
<polygon fill="#ffffff" stroke="#bfbfbf" points="180,-56.5 180,-75.5 236,-75.5 236,-56.5 180,-56.5"/>
<text text-anchor="middle" x="208" y="-63.5" font-family="Helvetica,sans-Serif" font-size="10.00" fill="#000000">stdarg.h</text>
</a>
</g>
</g>
<!-- Node4&#45;&gt;Node6 -->
<g id="edge5" class="edge">
<title>Node4&#45;&gt;Node6</title>
<path fill="none" stroke="#191970" d="M177.4449,-112.2455C182.5382,-104.5367 189.7908,-93.5598 195.952,-84.2348"/>
<polygon fill="#191970" stroke="#191970" points="199.0365,-85.9155 201.6289,-75.6427 193.1962,-82.0566 199.0365,-85.9155"/>
</g>
<!-- Node7 -->
<g id="node7" class="node">
<title>Node7</title>
<g id="a_node7"><a xlink:href="sifdma_8h.html" target="_top" xlink:title=" ">
<polygon fill="#ffffff" stroke="#000000" points="254.5,-56.5 254.5,-75.5 313.5,-75.5 313.5,-56.5 254.5,-56.5"/>
<text text-anchor="middle" x="284" y="-63.5" font-family="Helvetica,sans-Serif" font-size="10.00" fill="#000000">sifdma.h</text>
</a>
</g>
</g>
<!-- Node4&#45;&gt;Node7 -->
<g id="edge6" class="edge">
<title>Node4&#45;&gt;Node7</title>
<path fill="none" stroke="#191970" d="M190.4254,-112.3733C208.4021,-103.4644 235.3441,-90.1127 255.709,-80.0203"/>
<polygon fill="#191970" stroke="#191970" points="257.4222,-83.0776 264.8281,-75.5011 254.3139,-76.8055 257.4222,-83.0776"/>
</g>
<!-- Node7&#45;&gt;Node3 -->
<g id="edge7" class="edge">
<title>Node7&#45;&gt;Node3</title>
<path fill="none" stroke="#191970" d="M266.0588,-56.2455C249.96,-47.4928 226.1121,-34.527 207.7609,-24.5496"/>
<polygon fill="#191970" stroke="#191970" points="209.1929,-21.3444 198.7356,-19.6427 205.8493,-27.4942 209.1929,-21.3444"/>
</g>
</g>
</svg>
