<?xml version="1.0" encoding="UTF-8" standalone="no"?>
<!DOCTYPE svg PUBLIC "-//W3C//DTD SVG 1.1//EN"
 "http://www.w3.org/Graphics/SVG/1.1/DTD/svg11.dtd">
<!-- Generated by graphviz version 2.40.1 (20161225.0304)
 -->
<!-- Title: nCmdSendParams_t Pages: 1 -->
<svg width="238pt" height="95pt"
 viewBox="0.00 0.00 238.00 95.00" xmlns="http://www.w3.org/2000/svg" xmlns:xlink="http://www.w3.org/1999/xlink">
<g id="graph0" class="graph" transform="scale(1 1) rotate(0) translate(4 91)">
<title>nCmdSendParams_t</title>
<polygon fill="#ffffff" stroke="transparent" points="-4,4 -4,-91 234,-91 234,4 -4,4"/>
<!-- Node1 -->
<g id="node1" class="node">
<title>Node1</title>
<g id="a_node1"><a xlink:title=" ">
<polygon fill="#bfbfbf" stroke="#000000" points="54.5,-.5 54.5,-19.5 168.5,-19.5 168.5,-.5 54.5,-.5"/>
<text text-anchor="middle" x="111.5" y="-7.5" font-family="Helvetica,sans-Serif" font-size="10.00" fill="#000000">nCmdSendParams_t</text>
</a>
</g>
</g>
<!-- Node2 -->
<g id="node2" class="node">
<title>Node2</title>
<g id="a_node2"><a xlink:href="structcdvdNcmdParam.html" target="_top" xlink:title=" ">
<polygon fill="#ffffff" stroke="#000000" points="0,-67.5 0,-86.5 99,-86.5 99,-67.5 0,-67.5"/>
<text text-anchor="middle" x="49.5" y="-74.5" font-family="Helvetica,sans-Serif" font-size="10.00" fill="#000000">cdvdNcmdParam</text>
</a>
</g>
</g>
<!-- Node2&#45;&gt;Node1 -->
<g id="edge1" class="edge">
<title>Node2&#45;&gt;Node1</title>
<path fill="none" stroke="#9a32cd" stroke-dasharray="5,2" d="M65.4953,-59.7147C77.3158,-46.941 92.9718,-30.0224 102.6334,-19.5817"/>
<polygon fill="#9a32cd" stroke="#9a32cd" points="62.6061,-57.6837 58.3831,-67.4005 67.7439,-62.4381 62.6061,-57.6837"/>
<text text-anchor="middle" x="100" y="-41" font-family="Helvetica,sans-Serif" font-size="10.00" fill="#000000"> ncmd</text>
</g>
<!-- Node3 -->
<g id="node3" class="node">
<title>Node3</title>
<g id="a_node3"><a xlink:href="structcdvdReadKeyParam.html" target="_top" xlink:title=" ">
<polygon fill="#ffffff" stroke="#000000" points="117,-67.5 117,-86.5 230,-86.5 230,-67.5 117,-67.5"/>
<text text-anchor="middle" x="173.5" y="-74.5" font-family="Helvetica,sans-Serif" font-size="10.00" fill="#000000">cdvdReadKeyParam</text>
</a>
</g>
</g>
<!-- Node3&#45;&gt;Node1 -->
<g id="edge2" class="edge">
<title>Node3&#45;&gt;Node1</title>
<path fill="none" stroke="#9a32cd" stroke-dasharray="5,2" d="M157.5047,-59.7147C145.6842,-46.941 130.0282,-30.0224 120.3666,-19.5817"/>
<polygon fill="#9a32cd" stroke="#9a32cd" points="155.2561,-62.4381 164.6169,-67.4005 160.3939,-57.6837 155.2561,-62.4381"/>
<text text-anchor="middle" x="167" y="-41" font-family="Helvetica,sans-Serif" font-size="10.00" fill="#000000"> readKey</text>
</g>
</g>
</svg>
