<?xml version="1.0" encoding="UTF-8" standalone="no"?>
<!DOCTYPE svg PUBLIC "-//W3C//DTD SVG 1.1//EN"
 "http://www.w3.org/Graphics/SVG/1.1/DTD/svg11.dtd">
<!-- Generated by graphviz version 2.40.1 (20161225.0304)
 -->
<!-- Title: ee/libvux/src/vux.c Pages: 1 -->
<svg width="116pt" height="140pt"
 viewBox="0.00 0.00 116.00 140.00" xmlns="http://www.w3.org/2000/svg" xmlns:xlink="http://www.w3.org/1999/xlink">
<g id="graph0" class="graph" transform="scale(1 1) rotate(0) translate(4 136)">
<title>ee/libvux/src/vux.c</title>
<polygon fill="#ffffff" stroke="transparent" points="-4,4 -4,-136 112,-136 112,4 -4,4"/>
<!-- Node1 -->
<g id="node1" class="node">
<title>Node1</title>
<g id="a_node1"><a xlink:title=" ">
<polygon fill="#bfbfbf" stroke="#000000" points="0,-112.5 0,-131.5 108,-131.5 108,-112.5 0,-112.5"/>
<text text-anchor="middle" x="54" y="-119.5" font-family="Helvetica,sans-Serif" font-size="10.00" fill="#000000">ee/libvux/src/vux.c</text>
</a>
</g>
</g>
<!-- Node2 -->
<g id="node2" class="node">
<title>Node2</title>
<g id="a_node2"><a xlink:href="libvux_8h.html" target="_top" xlink:title=" ">
<polygon fill="#ffffff" stroke="#000000" points="26,-.5 26,-19.5 82,-19.5 82,-.5 26,-.5"/>
<text text-anchor="middle" x="54" y="-7.5" font-family="Helvetica,sans-Serif" font-size="10.00" fill="#000000">libvux.h</text>
</a>
</g>
</g>
<!-- Node1&#45;&gt;Node2 -->
<g id="edge1" class="edge">
<title>Node1&#45;&gt;Node2</title>
<path fill="none" stroke="#191970" d="M52.3414,-112.1657C50.8641,-102.8764 48.8142,-88.5375 48,-76 46.9965,-60.5485 48.7063,-43.1031 50.5538,-30.0303"/>
<polygon fill="#191970" stroke="#191970" points="54.0622,-30.2481 52.1482,-19.8276 47.1461,-29.1673 54.0622,-30.2481"/>
</g>
<!-- Node3 -->
<g id="node3" class="node">
<title>Node3</title>
<g id="a_node3"><a xlink:href="vux_8h.html" target="_top" xlink:title=" ">
<polygon fill="#ffffff" stroke="#000000" points="57,-56.5 57,-75.5 101,-75.5 101,-56.5 57,-56.5"/>
<text text-anchor="middle" x="79" y="-63.5" font-family="Helvetica,sans-Serif" font-size="10.00" fill="#000000">vux.h</text>
</a>
</g>
</g>
<!-- Node1&#45;&gt;Node3 -->
<g id="edge2" class="edge">
<title>Node1&#45;&gt;Node3</title>
<path fill="none" stroke="#191970" d="M58.3547,-112.2455C61.7244,-104.6973 66.493,-94.0158 70.5983,-84.8197"/>
<polygon fill="#191970" stroke="#191970" points="73.8147,-86.2009 74.6952,-75.6427 67.4227,-83.3473 73.8147,-86.2009"/>
</g>
<!-- Node3&#45;&gt;Node2 -->
<g id="edge3" class="edge">
<title>Node3&#45;&gt;Node2</title>
<path fill="none" stroke="#191970" d="M74.6453,-56.2455C71.2756,-48.6973 66.507,-38.0158 62.4017,-28.8197"/>
<polygon fill="#191970" stroke="#191970" points="65.5773,-27.3473 58.3048,-19.6427 59.1853,-30.2009 65.5773,-27.3473"/>
</g>
</g>
</svg>
