<?xml version="1.0" encoding="UTF-8" standalone="no"?>
<!DOCTYPE svg PUBLIC "-//W3C//DTD SVG 1.1//EN"
 "http://www.w3.org/Graphics/SVG/1.1/DTD/svg11.dtd">
<!-- Generated by graphviz version 2.40.1 (20161225.0304)
 -->
<!-- Title: iop/sound/ahx/src/AHX.c Pages: 1 -->
<svg width="326pt" height="252pt"
 viewBox="0.00 0.00 326.00 252.00" xmlns="http://www.w3.org/2000/svg" xmlns:xlink="http://www.w3.org/1999/xlink">
<g id="graph0" class="graph" transform="scale(1 1) rotate(0) translate(4 248)">
<title>iop/sound/ahx/src/AHX.c</title>
<polygon fill="#ffffff" stroke="transparent" points="-4,4 -4,-248 322,-248 322,4 -4,4"/>
<!-- Node1 -->
<g id="node1" class="node">
<title>Node1</title>
<g id="a_node1"><a xlink:title=" ">
<polygon fill="#bfbfbf" stroke="#000000" points="116,-224.5 116,-243.5 250,-243.5 250,-224.5 116,-224.5"/>
<text text-anchor="middle" x="183" y="-231.5" font-family="Helvetica,sans-Serif" font-size="10.00" fill="#000000">iop/sound/ahx/src/AHX.c</text>
</a>
</g>
</g>
<!-- Node2 -->
<g id="node2" class="node">
<title>Node2</title>
<g id="a_node2"><a xlink:href="stdio_8h.html" target="_top" xlink:title=" ">
<polygon fill="#ffffff" stroke="#000000" points="120,-168.5 120,-187.5 170,-187.5 170,-168.5 120,-168.5"/>
<text text-anchor="middle" x="145" y="-175.5" font-family="Helvetica,sans-Serif" font-size="10.00" fill="#000000">stdio.h</text>
</a>
</g>
</g>
<!-- Node1&#45;&gt;Node2 -->
<g id="edge1" class="edge">
<title>Node1&#45;&gt;Node2</title>
<path fill="none" stroke="#191970" d="M176.3809,-224.2455C171.0954,-216.4564 163.5459,-205.3308 157.1762,-195.9439"/>
<polygon fill="#191970" stroke="#191970" points="160.0545,-193.9522 151.5432,-187.6427 154.2621,-197.8827 160.0545,-193.9522"/>
</g>
<!-- Node8 -->
<g id="node8" class="node">
<title>Node8</title>
<g id="a_node8"><a xlink:href="sysclib_8h.html" target="_top" xlink:title=" ">
<polygon fill="#ffffff" stroke="#000000" points="42.5,-168.5 42.5,-187.5 101.5,-187.5 101.5,-168.5 42.5,-168.5"/>
<text text-anchor="middle" x="72" y="-175.5" font-family="Helvetica,sans-Serif" font-size="10.00" fill="#000000">sysclib.h</text>
</a>
</g>
</g>
<!-- Node1&#45;&gt;Node8 -->
<g id="edge7" class="edge">
<title>Node1&#45;&gt;Node8</title>
<path fill="none" stroke="#191970" d="M163.9184,-224.3733C146.2598,-215.4644 119.7947,-202.1127 99.7902,-192.0203"/>
<polygon fill="#191970" stroke="#191970" points="101.3372,-188.8806 90.8326,-187.5011 98.1842,-195.1303 101.3372,-188.8806"/>
</g>
<!-- Node10 -->
<g id="node10" class="node">
<title>Node10</title>
<g id="a_node10"><a xlink:href="sysmem_8h.html" target="_top" xlink:title=" ">
<polygon fill="#ffffff" stroke="#000000" points="188,-168.5 188,-187.5 256,-187.5 256,-168.5 188,-168.5"/>
<text text-anchor="middle" x="222" y="-175.5" font-family="Helvetica,sans-Serif" font-size="10.00" fill="#000000">sysmem.h</text>
</a>
</g>
</g>
<!-- Node1&#45;&gt;Node10 -->
<g id="edge13" class="edge">
<title>Node1&#45;&gt;Node10</title>
<path fill="none" stroke="#191970" d="M189.7933,-224.2455C195.2178,-216.4564 202.9661,-205.3308 209.5033,-195.9439"/>
<polygon fill="#191970" stroke="#191970" points="212.4417,-197.849 215.2846,-187.6427 206.6975,-193.8485 212.4417,-197.849"/>
</g>
<!-- Node11 -->
<g id="node11" class="node">
<title>Node11</title>
<g id="a_node11"><a xlink:href="ahx_8h.html" target="_top" xlink:title=" ">
<polygon fill="#ffffff" stroke="#000000" points="274,-168.5 274,-187.5 318,-187.5 318,-168.5 274,-168.5"/>
<text text-anchor="middle" x="296" y="-175.5" font-family="Helvetica,sans-Serif" font-size="10.00" fill="#000000">ahx.h</text>
</a>
</g>
</g>
<!-- Node1&#45;&gt;Node11 -->
<g id="edge17" class="edge">
<title>Node1&#45;&gt;Node11</title>
<path fill="none" stroke="#191970" d="M202.4254,-224.3733C220.4021,-215.4644 247.3441,-202.1127 267.709,-192.0203"/>
<polygon fill="#191970" stroke="#191970" points="269.4222,-195.0776 276.8281,-187.5011 266.3139,-188.8055 269.4222,-195.0776"/>
</g>
<!-- Node3 -->
<g id="node3" class="node">
<title>Node3</title>
<g id="a_node3"><a xlink:title=" ">
<polygon fill="#ffffff" stroke="#bfbfbf" points="156,-112.5 156,-131.5 212,-131.5 212,-112.5 156,-112.5"/>
<text text-anchor="middle" x="184" y="-119.5" font-family="Helvetica,sans-Serif" font-size="10.00" fill="#000000">stdarg.h</text>
</a>
</g>
</g>
<!-- Node2&#45;&gt;Node3 -->
<g id="edge2" class="edge">
<title>Node2&#45;&gt;Node3</title>
<path fill="none" stroke="#191970" d="M151.7933,-168.2455C157.2178,-160.4564 164.9661,-149.3308 171.5033,-139.9439"/>
<polygon fill="#191970" stroke="#191970" points="174.4417,-141.849 177.2846,-131.6427 168.6975,-137.8485 174.4417,-141.849"/>
</g>
<!-- Node4 -->
<g id="node4" class="node">
<title>Node4</title>
<g id="a_node4"><a xlink:href="irx_8h.html" target="_top" xlink:title=" ">
<polygon fill="#ffffff" stroke="#000000" points="100,-112.5 100,-131.5 138,-131.5 138,-112.5 100,-112.5"/>
<text text-anchor="middle" x="119" y="-119.5" font-family="Helvetica,sans-Serif" font-size="10.00" fill="#000000">irx.h</text>
</a>
</g>
</g>
<!-- Node2&#45;&gt;Node4 -->
<g id="edge3" class="edge">
<title>Node2&#45;&gt;Node4</title>
<path fill="none" stroke="#191970" d="M140.4711,-168.2455C136.9666,-160.6973 132.0073,-150.0158 127.7377,-140.8197"/>
<polygon fill="#191970" stroke="#191970" points="130.8627,-139.2389 123.477,-131.6427 124.5136,-142.1867 130.8627,-139.2389"/>
</g>
<!-- Node5 -->
<g id="node5" class="node">
<title>Node5</title>
<g id="a_node5"><a xlink:href="types_8h.html" target="_top" xlink:title=" ">
<polygon fill="#ffffff" stroke="#000000" points="91.5,-56.5 91.5,-75.5 144.5,-75.5 144.5,-56.5 91.5,-56.5"/>
<text text-anchor="middle" x="118" y="-63.5" font-family="Helvetica,sans-Serif" font-size="10.00" fill="#000000">types.h</text>
</a>
</g>
</g>
<!-- Node4&#45;&gt;Node5 -->
<g id="edge4" class="edge">
<title>Node4&#45;&gt;Node5</title>
<path fill="none" stroke="#191970" d="M118.8258,-112.2455C118.6953,-104.9382 118.5124,-94.6944 118.3519,-85.7046"/>
<polygon fill="#191970" stroke="#191970" points="121.8503,-85.5786 118.1722,-75.6427 114.8514,-85.7036 121.8503,-85.5786"/>
</g>
<!-- Node6 -->
<g id="node6" class="node">
<title>Node6</title>
<g id="a_node6"><a xlink:title=" ">
<polygon fill="#ffffff" stroke="#bfbfbf" points="90,-.5 90,-19.5 146,-19.5 146,-.5 90,-.5"/>
<text text-anchor="middle" x="118" y="-7.5" font-family="Helvetica,sans-Serif" font-size="10.00" fill="#000000">stddef.h</text>
</a>
</g>
</g>
<!-- Node5&#45;&gt;Node6 -->
<g id="edge5" class="edge">
<title>Node5&#45;&gt;Node6</title>
<path fill="none" stroke="#191970" d="M118,-56.2455C118,-48.9382 118,-38.6944 118,-29.7046"/>
<polygon fill="#191970" stroke="#191970" points="121.5001,-29.6426 118,-19.6427 114.5001,-29.6427 121.5001,-29.6426"/>
</g>
<!-- Node7 -->
<g id="node7" class="node">
<title>Node7</title>
<g id="a_node7"><a xlink:href="tamtypes_8h.html" target="_top" xlink:title=" ">
<polygon fill="#ffffff" stroke="#000000" points="0,-.5 0,-19.5 72,-19.5 72,-.5 0,-.5"/>
<text text-anchor="middle" x="36" y="-7.5" font-family="Helvetica,sans-Serif" font-size="10.00" fill="#000000">tamtypes.h</text>
</a>
</g>
</g>
<!-- Node5&#45;&gt;Node7 -->
<g id="edge6" class="edge">
<title>Node5&#45;&gt;Node7</title>
<path fill="none" stroke="#191970" d="M103.7167,-56.2455C91.253,-47.7337 72.9549,-35.2375 58.5208,-25.3801"/>
<polygon fill="#191970" stroke="#191970" points="60.3515,-22.392 50.1196,-19.6427 56.4038,-28.1726 60.3515,-22.392"/>
</g>
<!-- Node8&#45;&gt;Node3 -->
<g id="edge10" class="edge">
<title>Node8&#45;&gt;Node3</title>
<path fill="none" stroke="#191970" d="M91.2535,-168.3733C109.0712,-159.4644 135.7747,-146.1127 155.9594,-136.0203"/>
<polygon fill="#191970" stroke="#191970" points="157.6187,-139.1038 164.9978,-131.5011 154.4882,-132.8428 157.6187,-139.1038"/>
</g>
<!-- Node8&#45;&gt;Node4 -->
<g id="edge9" class="edge">
<title>Node8&#45;&gt;Node4</title>
<path fill="none" stroke="#191970" d="M80.1868,-168.2455C86.8589,-160.2958 96.4479,-148.8706 104.4253,-139.3656"/>
<polygon fill="#191970" stroke="#191970" points="107.1592,-141.5525 110.907,-131.6427 101.7974,-137.0524 107.1592,-141.5525"/>
</g>
<!-- Node8&#45;&gt;Node5 -->
<g id="edge8" class="edge">
<title>Node8&#45;&gt;Node5</title>
<path fill="none" stroke="#191970" d="M73.9812,-168.3419C76.8451,-155.2475 82.7209,-131.2836 91,-112 95.0437,-102.5815 100.6382,-92.7081 105.6864,-84.5339"/>
<polygon fill="#191970" stroke="#191970" points="108.8015,-86.159 111.2361,-75.8477 102.9027,-82.3902 108.8015,-86.159"/>
</g>
<!-- Node9 -->
<g id="node9" class="node">
<title>Node9</title>
<g id="a_node9"><a xlink:href="setjmp_8h.html" target="_top" xlink:title=" ">
<polygon fill="#ffffff" stroke="#000000" points="5.5,-56.5 5.5,-75.5 64.5,-75.5 64.5,-56.5 5.5,-56.5"/>
<text text-anchor="middle" x="35" y="-63.5" font-family="Helvetica,sans-Serif" font-size="10.00" fill="#000000">setjmp.h</text>
</a>
</g>
</g>
<!-- Node8&#45;&gt;Node9 -->
<g id="edge11" class="edge">
<title>Node8&#45;&gt;Node9</title>
<path fill="none" stroke="#191970" d="M68.8454,-168.4509C62.7562,-150.0186 49.2798,-109.2254 41.291,-85.043"/>
<polygon fill="#191970" stroke="#191970" points="44.6069,-83.9223 38.1466,-75.5249 37.9602,-86.1181 44.6069,-83.9223"/>
</g>
<!-- Node9&#45;&gt;Node7 -->
<g id="edge12" class="edge">
<title>Node9&#45;&gt;Node7</title>
<path fill="none" stroke="#191970" d="M35.1742,-56.2455C35.3047,-48.9382 35.4876,-38.6944 35.6481,-29.7046"/>
<polygon fill="#191970" stroke="#191970" points="39.1486,-29.7036 35.8278,-19.6427 32.1497,-29.5786 39.1486,-29.7036"/>
</g>
<!-- Node10&#45;&gt;Node3 -->
<g id="edge16" class="edge">
<title>Node10&#45;&gt;Node3</title>
<path fill="none" stroke="#191970" d="M215.3809,-168.2455C210.0954,-160.4564 202.5459,-149.3308 196.1762,-139.9439"/>
<polygon fill="#191970" stroke="#191970" points="199.0545,-137.9522 190.5432,-131.6427 193.2621,-141.8827 199.0545,-137.9522"/>
</g>
<!-- Node10&#45;&gt;Node4 -->
<g id="edge15" class="edge">
<title>Node10&#45;&gt;Node4</title>
<path fill="none" stroke="#191970" d="M204.0588,-168.2455C187.96,-159.4928 164.1121,-146.527 145.7609,-136.5496"/>
<polygon fill="#191970" stroke="#191970" points="147.1929,-133.3444 136.7356,-131.6427 143.8493,-139.4942 147.1929,-133.3444"/>
</g>
<!-- Node10&#45;&gt;Node5 -->
<g id="edge14" class="edge">
<title>Node10&#45;&gt;Node5</title>
<path fill="none" stroke="#191970" d="M224.9054,-168.0951C228.3262,-154.2855 232.2292,-129.0291 221,-112 206.2556,-89.64 177.869,-78.0423 154.6242,-72.0894"/>
<polygon fill="#191970" stroke="#191970" points="155.2343,-68.6383 144.7035,-69.8009 153.6608,-75.4591 155.2343,-68.6383"/>
</g>
</g>
</svg>
