<?xml version="1.0" encoding="UTF-8" standalone="no"?>
<!DOCTYPE svg PUBLIC "-//W3C//DTD SVG 1.1//EN"
 "http://www.w3.org/Graphics/SVG/1.1/DTD/svg11.dtd">
<!-- Generated by graphviz version 2.40.1 (20161225.0304)
 -->
<!-- Title: iop/system/alloc/include/alloc.h Pages: 1 -->
<svg width="185pt" height="207pt"
 viewBox="0.00 0.00 184.50 207.00" xmlns="http://www.w3.org/2000/svg" xmlns:xlink="http://www.w3.org/1999/xlink">
<g id="graph0" class="graph" transform="scale(1 1) rotate(0) translate(4 203)">
<title>iop/system/alloc/include/alloc.h</title>
<polygon fill="#ffffff" stroke="transparent" points="-4,4 -4,-203 180.5,-203 180.5,4 -4,4"/>
<!-- Node1 -->
<g id="node1" class="node">
<title>Node1</title>
<g id="a_node1"><a xlink:title=" ">
<polygon fill="#bfbfbf" stroke="#000000" points="0,-168.5 0,-198.5 135,-198.5 135,-168.5 0,-168.5"/>
<text text-anchor="start" x="8" y="-186.5" font-family="Helvetica,sans-Serif" font-size="10.00" fill="#000000">iop/system/alloc/include</text>
<text text-anchor="middle" x="67.5" y="-175.5" font-family="Helvetica,sans-Serif" font-size="10.00" fill="#000000">/alloc.h</text>
</a>
</g>
</g>
<!-- Node2 -->
<g id="node2" class="node">
<title>Node2</title>
<g id="a_node2"><a xlink:title=" ">
<polygon fill="#ffffff" stroke="#bfbfbf" points="9,-112.5 9,-131.5 62,-131.5 62,-112.5 9,-112.5"/>
<text text-anchor="middle" x="35.5" y="-119.5" font-family="Helvetica,sans-Serif" font-size="10.00" fill="#000000">types.h</text>
</a>
</g>
</g>
<!-- Node1&#45;&gt;Node2 -->
<g id="edge1" class="edge">
<title>Node1&#45;&gt;Node2</title>
<path fill="none" stroke="#191970" d="M59.5899,-168.2977C55.2868,-160.0277 49.9242,-149.7215 45.3518,-140.9339"/>
<polygon fill="#191970" stroke="#191970" points="48.3443,-139.1024 40.6236,-131.8469 42.1346,-142.3335 48.3443,-139.1024"/>
</g>
<!-- Node3 -->
<g id="node3" class="node">
<title>Node3</title>
<g id="a_node3"><a xlink:href="irx_8h.html" target="_top" xlink:title=" ">
<polygon fill="#ffffff" stroke="#000000" points="80.5,-112.5 80.5,-131.5 118.5,-131.5 118.5,-112.5 80.5,-112.5"/>
<text text-anchor="middle" x="99.5" y="-119.5" font-family="Helvetica,sans-Serif" font-size="10.00" fill="#000000">irx.h</text>
</a>
</g>
</g>
<!-- Node1&#45;&gt;Node3 -->
<g id="edge2" class="edge">
<title>Node1&#45;&gt;Node3</title>
<path fill="none" stroke="#191970" d="M75.4101,-168.2977C79.7132,-160.0277 85.0758,-149.7215 89.6482,-140.9339"/>
<polygon fill="#191970" stroke="#191970" points="92.8654,-142.3335 94.3764,-131.8469 86.6557,-139.1024 92.8654,-142.3335"/>
</g>
<!-- Node4 -->
<g id="node4" class="node">
<title>Node4</title>
<g id="a_node4"><a xlink:href="types_8h.html" target="_top" xlink:title=" ">
<polygon fill="#ffffff" stroke="#000000" points="73,-56.5 73,-75.5 126,-75.5 126,-56.5 73,-56.5"/>
<text text-anchor="middle" x="99.5" y="-63.5" font-family="Helvetica,sans-Serif" font-size="10.00" fill="#000000">types.h</text>
</a>
</g>
</g>
<!-- Node3&#45;&gt;Node4 -->
<g id="edge3" class="edge">
<title>Node3&#45;&gt;Node4</title>
<path fill="none" stroke="#191970" d="M99.5,-112.2455C99.5,-104.9382 99.5,-94.6944 99.5,-85.7046"/>
<polygon fill="#191970" stroke="#191970" points="103.0001,-85.6426 99.5,-75.6427 96.0001,-85.6427 103.0001,-85.6426"/>
</g>
<!-- Node5 -->
<g id="node5" class="node">
<title>Node5</title>
<g id="a_node5"><a xlink:title=" ">
<polygon fill="#ffffff" stroke="#bfbfbf" points="30.5,-.5 30.5,-19.5 86.5,-19.5 86.5,-.5 30.5,-.5"/>
<text text-anchor="middle" x="58.5" y="-7.5" font-family="Helvetica,sans-Serif" font-size="10.00" fill="#000000">stddef.h</text>
</a>
</g>
</g>
<!-- Node4&#45;&gt;Node5 -->
<g id="edge4" class="edge">
<title>Node4&#45;&gt;Node5</title>
<path fill="none" stroke="#191970" d="M92.3583,-56.2455C86.6556,-48.4564 78.51,-37.3308 71.6375,-27.9439"/>
<polygon fill="#191970" stroke="#191970" points="74.2913,-25.6437 65.5598,-19.6427 68.6432,-29.7789 74.2913,-25.6437"/>
</g>
<!-- Node6 -->
<g id="node6" class="node">
<title>Node6</title>
<g id="a_node6"><a xlink:href="tamtypes_8h.html" target="_top" xlink:title=" ">
<polygon fill="#ffffff" stroke="#000000" points="104.5,-.5 104.5,-19.5 176.5,-19.5 176.5,-.5 104.5,-.5"/>
<text text-anchor="middle" x="140.5" y="-7.5" font-family="Helvetica,sans-Serif" font-size="10.00" fill="#000000">tamtypes.h</text>
</a>
</g>
</g>
<!-- Node4&#45;&gt;Node6 -->
<g id="edge5" class="edge">
<title>Node4&#45;&gt;Node6</title>
<path fill="none" stroke="#191970" d="M106.6417,-56.2455C112.3444,-48.4564 120.49,-37.3308 127.3625,-27.9439"/>
<polygon fill="#191970" stroke="#191970" points="130.3568,-29.7789 133.4402,-19.6427 124.7087,-25.6437 130.3568,-29.7789"/>
</g>
</g>
</svg>
