<?xml version="1.0" encoding="UTF-8" standalone="no"?>
<!DOCTYPE svg PUBLIC "-//W3C//DTD SVG 1.1//EN"
 "http://www.w3.org/Graphics/SVG/1.1/DTD/svg11.dtd">
<!-- Generated by graphviz version 2.40.1 (20161225.0304)
 -->
<!-- Title: iop/system/alloc/src/alloc.c Pages: 1 -->
<!--zoomable 319 -->
<svg id="main" version="1.1" xmlns="http://www.w3.org/2000/svg" xmlns:xlink="http://www.w3.org/1999/xlink" xml:space="preserve" onload="init(evt)">
<style type="text/css"><![CDATA[
.edge:hover path { stroke: red; }
.edge:hover polygon { stroke: red; fill: red; }
]]></style>
<script type="text/javascript"><![CDATA[
var edges = document.getElementsByTagName('g');
if (edges && edges.length) {
  for (var i=0;i<edges.length;i++) {
    if (edges[i].id.substr(0,4)=='edge') {
      edges[i].setAttribute('class','edge');
    }
  }
}
]]></script>
        <defs>
                <circle id="rim" cx="0" cy="0" r="7"/>
                <circle id="rim2" cx="0" cy="0" r="3.5"/>
                <g id="zoomPlus">
                        <use xlink:href="#rim" fill="#404040">
                                <set attributeName="fill" to="#808080" begin="zoomplus.mouseover" end="zoomplus.mouseout"/>
                        </use>
                        <path d="M-4,0h8M0,-4v8" fill="none" stroke="white" stroke-width="1.5" pointer-events="none"/>
                </g>
                <g id="zoomMin">
                        <use xlink:href="#rim" fill="#404040">
                                <set attributeName="fill" to="#808080" begin="zoomminus.mouseover" end="zoomminus.mouseout"/>
                        </use>
                        <path d="M-4,0h8" fill="none" stroke="white" stroke-width="1.5" pointer-events="none"/>
                </g>
                <g id="dirArrow">
                        <path fill="none" stroke="white" stroke-width="1.5" d="M0,-3.0v7 M-2.5,-0.5L0,-3.0L2.5,-0.5"/>
                </g>
               <g id="resetDef">
                       <use xlink:href="#rim2" fill="#404040">
                               <set attributeName="fill" to="#808080" begin="reset.mouseover" end="reset.mouseout"/>
                       </use>
               </g>
        </defs>

<script type="text/javascript">
var viewWidth = 524;
var viewHeight = 319;
var sectionId = 'dynsection-0';
</script>
<script xlink:href="svgpan.js"/>
<svg id="graph" class="graph">
<g id="viewport">
<title>iop/system/alloc/src/alloc.c</title>
<polygon fill="#ffffff" stroke="transparent" points="-4,4 -4,-315 519.5,-315 519.5,4 -4,4"/>
<!-- Node1 -->
<g id="node1" class="node">
<title>Node1</title>
<g id="a_node1"><a xlink:title=" ">
<polygon fill="#bfbfbf" stroke="#000000" points="389,-280.5 389,-310.5 503,-310.5 503,-280.5 389,-280.5"/>
<text text-anchor="start" x="397" y="-298.5" font-family="Helvetica,sans-Serif" font-size="10.00" fill="#000000">iop/system/alloc/src</text>
<text text-anchor="middle" x="446" y="-287.5" font-family="Helvetica,sans-Serif" font-size="10.00" fill="#000000">/alloc.c</text>
</a>
</g>
</g>
<!-- Node2 -->
<g id="node2" class="node">
<title>Node2</title>
<g id="a_node2"><a xlink:title=" ">
<polygon fill="#ffffff" stroke="#bfbfbf" points="280,-112.5 280,-131.5 336,-131.5 336,-112.5 280,-112.5"/>
<text text-anchor="middle" x="308" y="-119.5" font-family="Helvetica,sans-Serif" font-size="10.00" fill="#000000">stdarg.h</text>
</a>
</g>
</g>
<!-- Node1&#45;&gt;Node2 -->
<g id="edge1" class="edge">
<title>Node1&#45;&gt;Node2</title>
<path fill="none" stroke="#191970" d="M456.1482,-280.462C472.1049,-254.7589 498.7247,-201.8774 473,-168 457.7241,-147.8828 390.0627,-134.2084 346.2684,-127.2848"/>
<polygon fill="#191970" stroke="#191970" points="346.6494,-123.8025 336.2351,-125.75 345.5908,-130.722 346.6494,-123.8025"/>
</g>
<!-- Node3 -->
<g id="node3" class="node">
<title>Node3</title>
<g id="a_node3"><a xlink:title=" ">
<polygon fill="#ffffff" stroke="#bfbfbf" points="411.5,-168.5 411.5,-187.5 464.5,-187.5 464.5,-168.5 411.5,-168.5"/>
<text text-anchor="middle" x="438" y="-175.5" font-family="Helvetica,sans-Serif" font-size="10.00" fill="#000000">types.h</text>
</a>
</g>
</g>
<!-- Node1&#45;&gt;Node3 -->
<g id="edge2" class="edge">
<title>Node1&#45;&gt;Node3</title>
<path fill="none" stroke="#191970" d="M444.9541,-280.1389C443.5128,-258.9692 440.9152,-220.8174 439.3352,-197.6112"/>
<polygon fill="#191970" stroke="#191970" points="442.8221,-197.2986 438.6509,-187.5595 435.8383,-197.7742 442.8221,-197.2986"/>
</g>
<!-- Node4 -->
<g id="node4" class="node">
<title>Node4</title>
<g id="a_node4"><a xlink:href="defs_8h.html" target="_top" xlink:title=" ">
<polygon fill="#ffffff" stroke="#000000" points="468.5,-112.5 468.5,-131.5 515.5,-131.5 515.5,-112.5 468.5,-112.5"/>
<text text-anchor="middle" x="492" y="-119.5" font-family="Helvetica,sans-Serif" font-size="10.00" fill="#000000">defs.h</text>
</a>
</g>
</g>
<!-- Node1&#45;&gt;Node4 -->
<g id="edge3" class="edge">
<title>Node1&#45;&gt;Node4</title>
<path fill="none" stroke="#191970" d="M473.1057,-280.329C485.9215,-271.5469 499.9355,-259.2098 507,-244 522.6529,-210.2994 510.0728,-166.0015 500.4248,-141.1136"/>
<polygon fill="#191970" stroke="#191970" points="503.6027,-139.6387 496.5603,-131.7232 497.1294,-142.3027 503.6027,-139.6387"/>
</g>
<!-- Node8 -->
<g id="node8" class="node">
<title>Node8</title>
<g id="a_node8"><a xlink:href="alloc_8h.html" target="_top" xlink:title=" ">
<polygon fill="#ffffff" stroke="#000000" points="368.5,-224.5 368.5,-243.5 417.5,-243.5 417.5,-224.5 368.5,-224.5"/>
<text text-anchor="middle" x="393" y="-231.5" font-family="Helvetica,sans-Serif" font-size="10.00" fill="#000000">alloc.h</text>
</a>
</g>
</g>
<!-- Node1&#45;&gt;Node8 -->
<g id="edge7" class="edge">
<title>Node1&#45;&gt;Node8</title>
<path fill="none" stroke="#191970" d="M432.8989,-280.2977C425.3887,-271.5831 415.93,-260.6075 408.1073,-251.5302"/>
<polygon fill="#191970" stroke="#191970" points="410.6655,-249.1372 401.486,-243.8469 405.3629,-253.707 410.6655,-249.1372"/>
</g>
<!-- Node10 -->
<g id="node10" class="node">
<title>Node10</title>
<g id="a_node10"><a xlink:href="system_2alloc_2src_2irx__imports_8h.html" target="_top" xlink:title=" ">
<polygon fill="#ffffff" stroke="#000000" points="160.5,-224.5 160.5,-243.5 241.5,-243.5 241.5,-224.5 160.5,-224.5"/>
<text text-anchor="middle" x="201" y="-231.5" font-family="Helvetica,sans-Serif" font-size="10.00" fill="#000000">irx_imports.h</text>
</a>
</g>
</g>
<!-- Node1&#45;&gt;Node10 -->
<g id="edge11" class="edge">
<title>Node1&#45;&gt;Node10</title>
<path fill="none" stroke="#191970" d="M388.8676,-281.1586C346.3732,-270.4916 289.0373,-256.0991 248.924,-246.0299"/>
<polygon fill="#191970" stroke="#191970" points="249.6676,-242.608 239.1163,-243.568 247.9632,-249.3974 249.6676,-242.608"/>
</g>
<!-- Node5 -->
<g id="node5" class="node">
<title>Node5</title>
<g id="a_node5"><a xlink:href="types_8h.html" target="_top" xlink:title=" ">
<polygon fill="#ffffff" stroke="#000000" points="225.5,-56.5 225.5,-75.5 278.5,-75.5 278.5,-56.5 225.5,-56.5"/>
<text text-anchor="middle" x="252" y="-63.5" font-family="Helvetica,sans-Serif" font-size="10.00" fill="#000000">types.h</text>
</a>
</g>
</g>
<!-- Node4&#45;&gt;Node5 -->
<g id="edge4" class="edge">
<title>Node4&#45;&gt;Node5</title>
<path fill="none" stroke="#191970" d="M468.1105,-116.4258C426.0477,-106.6111 338.5183,-86.1876 288.7249,-74.5691"/>
<polygon fill="#191970" stroke="#191970" points="289.236,-71.0945 278.7023,-72.2305 287.6454,-77.9113 289.236,-71.0945"/>
</g>
<!-- Node6 -->
<g id="node6" class="node">
<title>Node6</title>
<g id="a_node6"><a xlink:title=" ">
<polygon fill="#ffffff" stroke="#bfbfbf" points="224,-.5 224,-19.5 280,-19.5 280,-.5 224,-.5"/>
<text text-anchor="middle" x="252" y="-7.5" font-family="Helvetica,sans-Serif" font-size="10.00" fill="#000000">stddef.h</text>
</a>
</g>
</g>
<!-- Node5&#45;&gt;Node6 -->
<g id="edge5" class="edge">
<title>Node5&#45;&gt;Node6</title>
<path fill="none" stroke="#191970" d="M252,-56.2455C252,-48.9382 252,-38.6944 252,-29.7046"/>
<polygon fill="#191970" stroke="#191970" points="255.5001,-29.6426 252,-19.6427 248.5001,-29.6427 255.5001,-29.6426"/>
</g>
<!-- Node7 -->
<g id="node7" class="node">
<title>Node7</title>
<g id="a_node7"><a xlink:href="tamtypes_8h.html" target="_top" xlink:title=" ">
<polygon fill="#ffffff" stroke="#000000" points="332,-.5 332,-19.5 404,-19.5 404,-.5 332,-.5"/>
<text text-anchor="middle" x="368" y="-7.5" font-family="Helvetica,sans-Serif" font-size="10.00" fill="#000000">tamtypes.h</text>
</a>
</g>
</g>
<!-- Node5&#45;&gt;Node7 -->
<g id="edge6" class="edge">
<title>Node5&#45;&gt;Node7</title>
<path fill="none" stroke="#191970" d="M271.9411,-56.3733C290.4786,-47.4241 318.3028,-33.9917 339.2413,-23.8835"/>
<polygon fill="#191970" stroke="#191970" points="340.8352,-27.0006 348.3191,-19.5011 337.7919,-20.6967 340.8352,-27.0006"/>
</g>
<!-- Node8&#45;&gt;Node3 -->
<g id="edge8" class="edge">
<title>Node8&#45;&gt;Node3</title>
<path fill="none" stroke="#191970" d="M400.8384,-224.2455C407.162,-216.3761 416.2224,-205.101 423.8136,-195.6542"/>
<polygon fill="#191970" stroke="#191970" points="426.7158,-197.6302 430.2514,-187.6427 421.2592,-193.2454 426.7158,-197.6302"/>
</g>
<!-- Node9 -->
<g id="node9" class="node">
<title>Node9</title>
<g id="a_node9"><a xlink:href="irx_8h.html" target="_top" xlink:title=" ">
<polygon fill="#ffffff" stroke="#000000" points="186,-112.5 186,-131.5 224,-131.5 224,-112.5 186,-112.5"/>
<text text-anchor="middle" x="205" y="-119.5" font-family="Helvetica,sans-Serif" font-size="10.00" fill="#000000">irx.h</text>
</a>
</g>
</g>
<!-- Node8&#45;&gt;Node9 -->
<g id="edge9" class="edge">
<title>Node8&#45;&gt;Node9</title>
<path fill="none" stroke="#191970" d="M378.0364,-224.3824C357.6271,-211.334 319.8409,-187.4219 287,-168 268.6779,-157.1644 247.7443,-145.4317 231.6142,-136.5275"/>
<polygon fill="#191970" stroke="#191970" points="233.177,-133.3926 222.7282,-131.6399 229.8034,-139.5261 233.177,-133.3926"/>
</g>
<!-- Node9&#45;&gt;Node5 -->
<g id="edge10" class="edge">
<title>Node9&#45;&gt;Node5</title>
<path fill="none" stroke="#191970" d="M213.1868,-112.2455C219.8589,-104.2958 229.4479,-92.8706 237.4253,-83.3656"/>
<polygon fill="#191970" stroke="#191970" points="240.1592,-85.5525 243.907,-75.6427 234.7974,-81.0524 240.1592,-85.5525"/>
</g>
<!-- Node10&#45;&gt;Node9 -->
<g id="edge12" class="edge">
<title>Node10&#45;&gt;Node9</title>
<path fill="none" stroke="#191970" d="M168.5754,-224.4583C137.991,-213.6488 99.0366,-194.0867 115,-168 128.2236,-146.3906 155.157,-134.5245 176.1306,-128.2849"/>
<polygon fill="#191970" stroke="#191970" points="177.1209,-131.643 185.8618,-125.6558 175.2951,-124.8852 177.1209,-131.643"/>
</g>
<!-- Node11 -->
<g id="node11" class="node">
<title>Node11</title>
<g id="a_node11"><a xlink:href="loadcore_8h.html" target="_top" xlink:title=" ">
<polygon fill="#ffffff" stroke="#000000" points="210,-168.5 210,-187.5 278,-187.5 278,-168.5 210,-168.5"/>
<text text-anchor="middle" x="244" y="-175.5" font-family="Helvetica,sans-Serif" font-size="10.00" fill="#000000">loadcore.h</text>
</a>
</g>
</g>
<!-- Node10&#45;&gt;Node11 -->
<g id="edge13" class="edge">
<title>Node10&#45;&gt;Node11</title>
<path fill="none" stroke="#191970" d="M208.49,-224.2455C214.5326,-216.3761 223.1903,-205.101 230.4441,-195.6542"/>
<polygon fill="#191970" stroke="#191970" points="233.2815,-197.7058 236.5958,-187.6427 227.7295,-193.4426 233.2815,-197.7058"/>
</g>
<!-- Node12 -->
<g id="node12" class="node">
<title>Node12</title>
<g id="a_node12"><a xlink:href="sysmem_8h.html" target="_top" xlink:title=" ">
<polygon fill="#ffffff" stroke="#000000" points="124,-168.5 124,-187.5 192,-187.5 192,-168.5 124,-168.5"/>
<text text-anchor="middle" x="158" y="-175.5" font-family="Helvetica,sans-Serif" font-size="10.00" fill="#000000">sysmem.h</text>
</a>
</g>
</g>
<!-- Node10&#45;&gt;Node12 -->
<g id="edge16" class="edge">
<title>Node10&#45;&gt;Node12</title>
<path fill="none" stroke="#191970" d="M193.51,-224.2455C187.4674,-216.3761 178.8097,-205.101 171.5559,-195.6542"/>
<polygon fill="#191970" stroke="#191970" points="174.2705,-193.4426 165.4042,-187.6427 168.7185,-197.7058 174.2705,-193.4426"/>
</g>
<!-- Node13 -->
<g id="node13" class="node">
<title>Node13</title>
<g id="a_node13"><a xlink:href="sysclib_8h.html" target="_top" xlink:title=" ">
<polygon fill="#ffffff" stroke="#000000" points="334.5,-168.5 334.5,-187.5 393.5,-187.5 393.5,-168.5 334.5,-168.5"/>
<text text-anchor="middle" x="364" y="-175.5" font-family="Helvetica,sans-Serif" font-size="10.00" fill="#000000">sysclib.h</text>
</a>
</g>
</g>
<!-- Node10&#45;&gt;Node13 -->
<g id="edge20" class="edge">
<title>Node10&#45;&gt;Node13</title>
<path fill="none" stroke="#191970" d="M229.0207,-224.3733C256.0078,-215.1016 297.0017,-201.0178 326.7311,-190.804"/>
<polygon fill="#191970" stroke="#191970" points="328.0248,-194.0605 336.3449,-187.5011 325.7503,-187.4403 328.0248,-194.0605"/>
</g>
<!-- Node15 -->
<g id="node15" class="node">
<title>Node15</title>
<g id="a_node15"><a xlink:href="thsemap_8h.html" target="_top" xlink:title=" ">
<polygon fill="#ffffff" stroke="#000000" points="0,-168.5 0,-187.5 68,-187.5 68,-168.5 0,-168.5"/>
<text text-anchor="middle" x="34" y="-175.5" font-family="Helvetica,sans-Serif" font-size="10.00" fill="#000000">thsemap.h</text>
</a>
</g>
</g>
<!-- Node10&#45;&gt;Node15 -->
<g id="edge26" class="edge">
<title>Node10&#45;&gt;Node15</title>
<path fill="none" stroke="#191970" d="M172.2917,-224.3733C144.6423,-215.1016 102.6424,-201.0178 72.1834,-190.804"/>
<polygon fill="#191970" stroke="#191970" points="72.9276,-187.3621 62.3337,-187.5011 70.7021,-193.9989 72.9276,-187.3621"/>
</g>
<!-- Node11&#45;&gt;Node5 -->
<g id="edge14" class="edge">
<title>Node11&#45;&gt;Node5</title>
<path fill="none" stroke="#191970" d="M244.6821,-168.4509C245.9869,-150.184 248.8603,-109.9553 250.593,-85.6976"/>
<polygon fill="#191970" stroke="#191970" points="254.0982,-85.7489 251.3197,-75.5249 247.116,-85.2501 254.0982,-85.7489"/>
</g>
<!-- Node11&#45;&gt;Node9 -->
<g id="edge15" class="edge">
<title>Node11&#45;&gt;Node9</title>
<path fill="none" stroke="#191970" d="M237.2067,-168.2455C231.7822,-160.4564 224.0339,-149.3308 217.4967,-139.9439"/>
<polygon fill="#191970" stroke="#191970" points="220.3025,-137.8485 211.7154,-131.6427 214.5583,-141.849 220.3025,-137.8485"/>
</g>
<!-- Node12&#45;&gt;Node2 -->
<g id="edge19" class="edge">
<title>Node12&#45;&gt;Node2</title>
<path fill="none" stroke="#191970" d="M183.7859,-168.3733C208.4047,-159.1822 245.69,-145.2624 272.9875,-135.0713"/>
<polygon fill="#191970" stroke="#191970" points="274.4063,-138.2777 282.5506,-131.5011 271.958,-131.7198 274.4063,-138.2777"/>
</g>
<!-- Node12&#45;&gt;Node5 -->
<g id="edge17" class="edge">
<title>Node12&#45;&gt;Node5</title>
<path fill="none" stroke="#191970" d="M158.6373,-168.0564C159.9823,-154.2008 164.1476,-128.8902 177,-112 187.471,-98.2393 203.347,-87.6537 217.8003,-80.1259"/>
<polygon fill="#191970" stroke="#191970" points="219.5749,-83.1543 227.0217,-75.618 216.5005,-76.8655 219.5749,-83.1543"/>
</g>
<!-- Node12&#45;&gt;Node9 -->
<g id="edge18" class="edge">
<title>Node12&#45;&gt;Node9</title>
<path fill="none" stroke="#191970" d="M166.1868,-168.2455C172.8589,-160.2958 182.4479,-148.8706 190.4253,-139.3656"/>
<polygon fill="#191970" stroke="#191970" points="193.1592,-141.5525 196.907,-131.6427 187.7974,-137.0524 193.1592,-141.5525"/>
</g>
<!-- Node13&#45;&gt;Node2 -->
<g id="edge23" class="edge">
<title>Node13&#45;&gt;Node2</title>
<path fill="none" stroke="#191970" d="M354.2455,-168.2455C346.1352,-160.1352 334.4075,-148.4075 324.7919,-138.7919"/>
<polygon fill="#191970" stroke="#191970" points="327.1887,-136.2389 317.6427,-131.6427 322.2389,-141.1887 327.1887,-136.2389"/>
</g>
<!-- Node13&#45;&gt;Node5 -->
<g id="edge21" class="edge">
<title>Node13&#45;&gt;Node5</title>
<path fill="none" stroke="#191970" d="M363.6085,-168.3585C362.5626,-154.4099 358.7588,-128.4724 345,-112 330.3799,-94.4966 307.4735,-83.0549 288.0532,-75.9604"/>
<polygon fill="#191970" stroke="#191970" points="289.1597,-72.6399 278.5652,-72.7286 286.9026,-79.2661 289.1597,-72.6399"/>
</g>
<!-- Node13&#45;&gt;Node9 -->
<g id="edge22" class="edge">
<title>Node13&#45;&gt;Node9</title>
<path fill="none" stroke="#191970" d="M336.6669,-168.3733C307.9149,-158.2468 262.8642,-142.3799 233.6324,-132.0844"/>
<polygon fill="#191970" stroke="#191970" points="234.6,-128.7145 224.0052,-128.6936 232.2745,-135.3169 234.6,-128.7145"/>
</g>
<!-- Node14 -->
<g id="node14" class="node">
<title>Node14</title>
<g id="a_node14"><a xlink:href="setjmp_8h.html" target="_top" xlink:title=" ">
<polygon fill="#ffffff" stroke="#000000" points="355.5,-56.5 355.5,-75.5 414.5,-75.5 414.5,-56.5 355.5,-56.5"/>
<text text-anchor="middle" x="385" y="-63.5" font-family="Helvetica,sans-Serif" font-size="10.00" fill="#000000">setjmp.h</text>
</a>
</g>
</g>
<!-- Node13&#45;&gt;Node14 -->
<g id="edge24" class="edge">
<title>Node13&#45;&gt;Node14</title>
<path fill="none" stroke="#191970" d="M367.5522,-168.2683C370.7745,-159.0515 375.4058,-144.7615 378,-132 381.0892,-116.8039 382.8649,-99.3454 383.8544,-86.2026"/>
<polygon fill="#191970" stroke="#191970" points="387.3662,-86.1387 384.5349,-75.9293 380.3815,-85.6761 387.3662,-86.1387"/>
</g>
<!-- Node14&#45;&gt;Node7 -->
<g id="edge25" class="edge">
<title>Node14&#45;&gt;Node7</title>
<path fill="none" stroke="#191970" d="M382.0388,-56.2455C379.7962,-48.8579 376.6423,-38.4689 373.8919,-29.4087"/>
<polygon fill="#191970" stroke="#191970" points="377.1812,-28.1948 370.9272,-19.6427 370.483,-30.2282 377.1812,-28.1948"/>
</g>
<!-- Node15&#45;&gt;Node5 -->
<g id="edge27" class="edge">
<title>Node15&#45;&gt;Node5</title>
<path fill="none" stroke="#191970" d="M52.5866,-168.4509C91.0379,-148.6961 179.4828,-103.2565 224.5383,-80.1088"/>
<polygon fill="#191970" stroke="#191970" points="226.1651,-83.2079 233.4605,-75.5249 222.9663,-76.9816 226.1651,-83.2079"/>
</g>
<!-- Node15&#45;&gt;Node9 -->
<g id="edge28" class="edge">
<title>Node15&#45;&gt;Node9</title>
<path fill="none" stroke="#191970" d="M63.3959,-168.3733C94.7961,-158.0902 144.2714,-141.8877 175.6528,-131.6108"/>
<polygon fill="#191970" stroke="#191970" points="177.1352,-134.8083 185.5493,-128.3698 174.9566,-128.1559 177.1352,-134.8083"/>
</g>
</g>
</svg>
        <g id="navigator" transform="translate(0 0)" fill="#404254">
                <rect fill="#f2f5e9" fill-opacity="0.5" stroke="#606060" stroke-width=".5" x="0" y="0" width="60" height="60"/>
                <use id="zoomplus" xlink:href="#zoomPlus" x="17" y="9" onmousedown="handleZoom(evt,'in')"/>
                <use id="zoomminus" xlink:href="#zoomMin" x="42" y="9" onmousedown="handleZoom(evt,'out')"/>
                <use id="reset" xlink:href="#resetDef" x="30" y="36" onmousedown="handleReset()"/>
                <g id="arrowUp" xlink:href="#dirArrow" transform="translate(30 24)" onmousedown="handlePan(0,-1)">
                  <use xlink:href="#rim" fill="#404040">
                        <set attributeName="fill" to="#808080" begin="arrowUp.mouseover" end="arrowUp.mouseout"/>
                  </use>
                  <path fill="none" stroke="white" stroke-width="1.5" d="M0,-3.0v7 M-2.5,-0.5L0,-3.0L2.5,-0.5"/>
                </g>
                <g id="arrowRight" xlink:href="#dirArrow" transform="rotate(90) translate(36 -43)" onmousedown="handlePan(1,0)">
                  <use xlink:href="#rim" fill="#404040">
                        <set attributeName="fill" to="#808080" begin="arrowRight.mouseover" end="arrowRight.mouseout"/>
                  </use>
                  <path fill="none" stroke="white" stroke-width="1.5" d="M0,-3.0v7 M-2.5,-0.5L0,-3.0L2.5,-0.5"/>
                </g>
                <g id="arrowDown" xlink:href="#dirArrow" transform="rotate(180) translate(-30 -48)" onmousedown="handlePan(0,1)">
                  <use xlink:href="#rim" fill="#404040">
                        <set attributeName="fill" to="#808080" begin="arrowDown.mouseover" end="arrowDown.mouseout"/>
                  </use>
                  <path fill="none" stroke="white" stroke-width="1.5" d="M0,-3.0v7 M-2.5,-0.5L0,-3.0L2.5,-0.5"/>
                </g>
                <g id="arrowLeft" xlink:href="#dirArrow" transform="rotate(270) translate(-36 17)" onmousedown="handlePan(-1,0)">
                  <use xlink:href="#rim" fill="#404040">
                        <set attributeName="fill" to="#808080" begin="arrowLeft.mouseover" end="arrowLeft.mouseout"/>
                  </use>
                  <path fill="none" stroke="white" stroke-width="1.5" d="M0,-3.0v7 M-2.5,-0.5L0,-3.0L2.5,-0.5"/>
                </g>
        </g>
        <svg viewBox="0 0 15 15" width="100%" height="30px" preserveAspectRatio="xMaxYMin meet">
         <g id="arrow_out" transform="scale(0.3 0.3)">
          <a xlink:href="alloc_8c__incl_org.svg" target="_base">
           <rect id="button" ry="5" rx="5" y="6" x="6" height="38" width="38"
                fill="#f2f5e9" fill-opacity="0.5" stroke="#606060" stroke-width="1.0"/>
           <path id="arrow"
             d="M 11.500037,31.436501 C 11.940474,20.09759 22.043105,11.32322 32.158766,21.979434 L 37.068811,17.246167 C 37.068811,17.246167 37.088388,32 37.088388,32 L 22.160133,31.978069 C 22.160133,31.978069 26.997745,27.140456 26.997745,27.140456 C 18.528582,18.264221 13.291696,25.230495 11.500037,31.436501 z"
             style="fill:#404040;"/>
          </a>
         </g>
        </svg>
</svg>
