<?xml version="1.0" encoding="UTF-8" standalone="no"?>
<!DOCTYPE svg PUBLIC "-//W3C//DTD SVG 1.1//EN"
 "http://www.w3.org/Graphics/SVG/1.1/DTD/svg11.dtd">
<!-- Generated by graphviz version 2.40.1 (20161225.0304)
 -->
<!-- Title: iop/dev9/atad/include/atad.h Pages: 1 -->
<svg width="1171pt" height="106pt"
 viewBox="0.00 0.00 1171.00 106.00" xmlns="http://www.w3.org/2000/svg" xmlns:xlink="http://www.w3.org/1999/xlink">
<g id="graph0" class="graph" transform="scale(1 1) rotate(0) translate(4 102)">
<title>iop/dev9/atad/include/atad.h</title>
<polygon fill="#ffffff" stroke="transparent" points="-4,4 -4,-102 1167,-102 1167,4 -4,4"/>
<!-- Node1 -->
<g id="node1" class="node">
<title>Node1</title>
<g id="a_node1"><a xlink:title=" ">
<polygon fill="#bfbfbf" stroke="#000000" points="564.5,-67.5 564.5,-97.5 686.5,-97.5 686.5,-67.5 564.5,-67.5"/>
<text text-anchor="start" x="572.5" y="-85.5" font-family="Helvetica,sans-Serif" font-size="10.00" fill="#000000">iop/dev9/atad/include</text>
<text text-anchor="middle" x="625.5" y="-74.5" font-family="Helvetica,sans-Serif" font-size="10.00" fill="#000000">/atad.h</text>
</a>
</g>
</g>
<!-- Node2 -->
<g id="node2" class="node">
<title>Node2</title>
<g id="a_node2"><a xlink:href="ps2atad_8c.html" target="_top" xlink:title=" ">
<polygon fill="#ffffff" stroke="#000000" points="0,-6 0,-25 151,-25 151,-6 0,-6"/>
<text text-anchor="middle" x="75.5" y="-13" font-family="Helvetica,sans-Serif" font-size="10.00" fill="#000000">iop/dev9/atad/src/ps2atad.c</text>
</a>
</g>
</g>
<!-- Node1&#45;&gt;Node2 -->
<g id="edge1" class="edge">
<title>Node1&#45;&gt;Node2</title>
<path fill="none" stroke="#191970" d="M554.4234,-76.1893C463.0379,-67.7176 299.5453,-51.352 160.5,-31 148.7747,-29.2838 136.1916,-27.1507 124.3966,-25.0215"/>
<polygon fill="#191970" stroke="#191970" points="554.1126,-79.6754 564.3917,-77.1085 554.7554,-72.7049 554.1126,-79.6754"/>
</g>
<!-- Node3 -->
<g id="node3" class="node">
<title>Node3</title>
<g id="a_node3"><a xlink:href="hdproatad_8c.html" target="_top" xlink:title=" ">
<polygon fill="#ffffff" stroke="#000000" points="169.5,-.5 169.5,-30.5 285.5,-30.5 285.5,-.5 169.5,-.5"/>
<text text-anchor="start" x="177.5" y="-18.5" font-family="Helvetica,sans-Serif" font-size="10.00" fill="#000000">iop/dev9/hdpro_atad</text>
<text text-anchor="middle" x="227.5" y="-7.5" font-family="Helvetica,sans-Serif" font-size="10.00" fill="#000000">/src/hdproatad.c</text>
</a>
</g>
</g>
<!-- Node1&#45;&gt;Node3 -->
<g id="edge2" class="edge">
<title>Node1&#45;&gt;Node3</title>
<path fill="none" stroke="#191970" d="M554.2047,-72.941C486.994,-63.5674 383.5727,-48.2088 294.5,-31 291.5694,-30.4338 288.5722,-29.8304 285.5494,-29.2024"/>
<polygon fill="#191970" stroke="#191970" points="553.8761,-76.4288 564.2623,-74.3367 554.8383,-69.4953 553.8761,-76.4288"/>
</g>
<!-- Node4 -->
<g id="node4" class="node">
<title>Node4</title>
<g id="a_node4"><a xlink:href="hdd_8c.html" target="_top" xlink:title=" ">
<polygon fill="#ffffff" stroke="#000000" points="303.5,-6 303.5,-25 423.5,-25 423.5,-6 303.5,-6"/>
<text text-anchor="middle" x="363.5" y="-13" font-family="Helvetica,sans-Serif" font-size="10.00" fill="#000000">iop/hdd/apa/src/hdd.c</text>
</a>
</g>
</g>
<!-- Node1&#45;&gt;Node4 -->
<g id="edge3" class="edge">
<title>Node1&#45;&gt;Node4</title>
<path fill="none" stroke="#191970" d="M556.9337,-64.9659C506.9772,-52.1907 441.2095,-35.3723 400.6699,-25.0053"/>
<polygon fill="#191970" stroke="#191970" points="556.1467,-68.3772 566.7021,-67.4639 557.881,-61.5954 556.1467,-68.3772"/>
</g>
<!-- Node5 -->
<g id="node5" class="node">
<title>Node5</title>
<g id="a_node5"><a xlink:href="hdd__fio_8c.html" target="_top" xlink:title=" ">
<polygon fill="#ffffff" stroke="#000000" points="441.5,-.5 441.5,-30.5 553.5,-30.5 553.5,-.5 441.5,-.5"/>
<text text-anchor="start" x="449.5" y="-18.5" font-family="Helvetica,sans-Serif" font-size="10.00" fill="#000000">iop/hdd/apa/src/hdd</text>
<text text-anchor="middle" x="497.5" y="-7.5" font-family="Helvetica,sans-Serif" font-size="10.00" fill="#000000">_fio.c</text>
</a>
</g>
</g>
<!-- Node1&#45;&gt;Node5 -->
<g id="edge4" class="edge">
<title>Node1&#45;&gt;Node5</title>
<path fill="none" stroke="#191970" d="M587.8151,-62.7743C568.2505,-52.5335 544.7132,-40.2132 526.5727,-30.7177"/>
<polygon fill="#191970" stroke="#191970" points="586.2915,-65.9272 596.7743,-67.4639 589.5378,-59.7255 586.2915,-65.9272"/>
</g>
<!-- Node6 -->
<g id="node6" class="node">
<title>Node6</title>
<g id="a_node6"><a xlink:href="hdd_2apa_2src_2irx__imports_8h.html" target="_top" xlink:title=" ">
<polygon fill="#ffffff" stroke="#000000" points="572,-.5 572,-30.5 679,-30.5 679,-.5 572,-.5"/>
<text text-anchor="start" x="580" y="-18.5" font-family="Helvetica,sans-Serif" font-size="10.00" fill="#000000">iop/hdd/apa/src/irx</text>
<text text-anchor="middle" x="625.5" y="-7.5" font-family="Helvetica,sans-Serif" font-size="10.00" fill="#000000">_imports.h</text>
</a>
</g>
</g>
<!-- Node1&#45;&gt;Node6 -->
<g id="edge5" class="edge">
<title>Node1&#45;&gt;Node6</title>
<path fill="none" stroke="#191970" d="M625.5,-57.0249C625.5,-48.128 625.5,-38.4287 625.5,-30.6432"/>
<polygon fill="#191970" stroke="#191970" points="622.0001,-57.2966 625.5,-67.2967 629.0001,-57.2967 622.0001,-57.2966"/>
</g>
<!-- Node7 -->
<g id="node7" class="node">
<title>Node7</title>
<g id="a_node7"><a xlink:href="apa_8c.html" target="_top" xlink:title=" ">
<polygon fill="#ffffff" stroke="#000000" points="697,-.5 697,-30.5 800,-30.5 800,-.5 697,-.5"/>
<text text-anchor="start" x="705" y="-18.5" font-family="Helvetica,sans-Serif" font-size="10.00" fill="#000000">iop/hdd/libapa/src</text>
<text text-anchor="middle" x="748.5" y="-7.5" font-family="Helvetica,sans-Serif" font-size="10.00" fill="#000000">/apa.c</text>
</a>
</g>
</g>
<!-- Node1&#45;&gt;Node7 -->
<g id="edge6" class="edge">
<title>Node1&#45;&gt;Node7</title>
<path fill="none" stroke="#191970" d="M661.9683,-62.6352C680.7177,-52.422 703.2099,-40.1702 720.563,-30.7177"/>
<polygon fill="#191970" stroke="#191970" points="660.211,-59.6067 653.1036,-67.4639 663.5595,-65.7539 660.211,-59.6067"/>
</g>
<!-- Node8 -->
<g id="node8" class="node">
<title>Node8</title>
<g id="a_node8"><a xlink:href="free_8c.html" target="_top" xlink:title=" ">
<polygon fill="#ffffff" stroke="#000000" points="818,-.5 818,-30.5 921,-30.5 921,-.5 818,-.5"/>
<text text-anchor="start" x="826" y="-18.5" font-family="Helvetica,sans-Serif" font-size="10.00" fill="#000000">iop/hdd/libapa/src</text>
<text text-anchor="middle" x="869.5" y="-7.5" font-family="Helvetica,sans-Serif" font-size="10.00" fill="#000000">/free.c</text>
</a>
</g>
</g>
<!-- Node1&#45;&gt;Node8 -->
<g id="edge7" class="edge">
<title>Node1&#45;&gt;Node8</title>
<path fill="none" stroke="#191970" d="M689.9111,-64.8133C729.871,-53.8407 780.528,-39.9308 817.8459,-29.6837"/>
<polygon fill="#191970" stroke="#191970" points="688.9746,-61.4409 680.2584,-67.4639 690.8282,-68.191 688.9746,-61.4409"/>
</g>
<!-- Node9 -->
<g id="node9" class="node">
<title>Node9</title>
<g id="a_node9"><a xlink:href="libapa_2src_2journal_8c.html" target="_top" xlink:title=" ">
<polygon fill="#ffffff" stroke="#000000" points="939,-.5 939,-30.5 1042,-30.5 1042,-.5 939,-.5"/>
<text text-anchor="start" x="947" y="-18.5" font-family="Helvetica,sans-Serif" font-size="10.00" fill="#000000">iop/hdd/libapa/src</text>
<text text-anchor="middle" x="990.5" y="-7.5" font-family="Helvetica,sans-Serif" font-size="10.00" fill="#000000">/journal.c</text>
</a>
</g>
</g>
<!-- Node1&#45;&gt;Node9 -->
<g id="edge8" class="edge">
<title>Node1&#45;&gt;Node9</title>
<path fill="none" stroke="#191970" d="M696.6224,-72.2528C758.6452,-62.8974 850.8983,-47.9699 930.5,-31 933.2358,-30.4168 936.0347,-29.7921 938.8558,-29.1405"/>
<polygon fill="#191970" stroke="#191970" points="695.9228,-68.8185 686.5524,-73.7628 696.9609,-75.7411 695.9228,-68.8185"/>
</g>
<!-- Node10 -->
<g id="node10" class="node">
<title>Node10</title>
<g id="a_node10"><a xlink:href="password_8c.html" target="_top" xlink:title=" ">
<polygon fill="#ffffff" stroke="#000000" points="1060,-.5 1060,-30.5 1163,-30.5 1163,-.5 1060,-.5"/>
<text text-anchor="start" x="1068" y="-18.5" font-family="Helvetica,sans-Serif" font-size="10.00" fill="#000000">iop/hdd/libapa/src</text>
<text text-anchor="middle" x="1111.5" y="-7.5" font-family="Helvetica,sans-Serif" font-size="10.00" fill="#000000">/password.c</text>
</a>
</g>
</g>
<!-- Node1&#45;&gt;Node10 -->
<g id="edge9" class="edge">
<title>Node1&#45;&gt;Node10</title>
<path fill="none" stroke="#191970" d="M696.6068,-76.8064C781.5429,-69.3379 927.6934,-54.3688 1051.5,-31 1054.2487,-30.4812 1057.058,-29.9079 1059.8872,-29.2965"/>
<polygon fill="#191970" stroke="#191970" points="696.217,-73.327 686.5578,-77.68 696.8234,-80.3007 696.217,-73.327"/>
</g>
</g>
</svg>
