<?xml version="1.0" encoding="UTF-8" standalone="no"?>
<!DOCTYPE svg PUBLIC "-//W3C//DTD SVG 1.1//EN"
 "http://www.w3.org/Graphics/SVG/1.1/DTD/svg11.dtd">
<!-- Generated by graphviz version 2.40.1 (20161225.0304)
 -->
<!-- Title: iop/sound/libsd/src/batch.c Pages: 1 -->
<svg width="377pt" height="263pt"
 viewBox="0.00 0.00 376.50 263.00" xmlns="http://www.w3.org/2000/svg" xmlns:xlink="http://www.w3.org/1999/xlink">
<g id="graph0" class="graph" transform="scale(1 1) rotate(0) translate(4 259)">
<title>iop/sound/libsd/src/batch.c</title>
<polygon fill="#ffffff" stroke="transparent" points="-4,4 -4,-259 372.5,-259 372.5,4 -4,4"/>
<!-- Node1 -->
<g id="node1" class="node">
<title>Node1</title>
<g id="a_node1"><a xlink:title=" ">
<polygon fill="#bfbfbf" stroke="#000000" points="130,-224.5 130,-254.5 237,-254.5 237,-224.5 130,-224.5"/>
<text text-anchor="start" x="138" y="-242.5" font-family="Helvetica,sans-Serif" font-size="10.00" fill="#000000">iop/sound/libsd/src</text>
<text text-anchor="middle" x="183.5" y="-231.5" font-family="Helvetica,sans-Serif" font-size="10.00" fill="#000000">/batch.c</text>
</a>
</g>
</g>
<!-- Node2 -->
<g id="node2" class="node">
<title>Node2</title>
<g id="a_node2"><a xlink:title=" ">
<polygon fill="#ffffff" stroke="#bfbfbf" points="0,-168.5 0,-187.5 53,-187.5 53,-168.5 0,-168.5"/>
<text text-anchor="middle" x="26.5" y="-175.5" font-family="Helvetica,sans-Serif" font-size="10.00" fill="#000000">types.h</text>
</a>
</g>
</g>
<!-- Node1&#45;&gt;Node2 -->
<g id="edge1" class="edge">
<title>Node1&#45;&gt;Node2</title>
<path fill="none" stroke="#191970" d="M145.0935,-224.4554C119.1274,-214.284 85.161,-200.9787 60.237,-191.2155"/>
<polygon fill="#191970" stroke="#191970" points="61.4171,-187.9188 50.8294,-187.5303 58.864,-194.4366 61.4171,-187.9188"/>
</g>
<!-- Node3 -->
<g id="node3" class="node">
<title>Node3</title>
<g id="a_node3"><a xlink:href="sifman_8h.html" target="_top" xlink:title=" ">
<polygon fill="#ffffff" stroke="#000000" points="154,-168.5 154,-187.5 213,-187.5 213,-168.5 154,-168.5"/>
<text text-anchor="middle" x="183.5" y="-175.5" font-family="Helvetica,sans-Serif" font-size="10.00" fill="#000000">sifman.h</text>
</a>
</g>
</g>
<!-- Node1&#45;&gt;Node3 -->
<g id="edge2" class="edge">
<title>Node1&#45;&gt;Node3</title>
<path fill="none" stroke="#191970" d="M183.5,-224.2977C183.5,-216.3834 183.5,-206.6043 183.5,-198.0759"/>
<polygon fill="#191970" stroke="#191970" points="187.0001,-197.8469 183.5,-187.8469 180.0001,-197.847 187.0001,-197.8469"/>
</g>
<!-- Node8 -->
<g id="node8" class="node">
<title>Node8</title>
<g id="a_node8"><a xlink:href="intrman_8h.html" target="_top" xlink:title=" ">
<polygon fill="#ffffff" stroke="#000000" points="71.5,-168.5 71.5,-187.5 135.5,-187.5 135.5,-168.5 71.5,-168.5"/>
<text text-anchor="middle" x="103.5" y="-175.5" font-family="Helvetica,sans-Serif" font-size="10.00" fill="#000000">intrman.h</text>
</a>
</g>
</g>
<!-- Node1&#45;&gt;Node8 -->
<g id="edge8" class="edge">
<title>Node1&#45;&gt;Node8</title>
<path fill="none" stroke="#191970" d="M163.7247,-224.2977C151.8102,-215.1384 136.6468,-203.4816 124.5162,-194.1562"/>
<polygon fill="#191970" stroke="#191970" points="126.3703,-191.1668 116.309,-187.8469 122.104,-196.7165 126.3703,-191.1668"/>
</g>
<!-- Node9 -->
<g id="node9" class="node">
<title>Node9</title>
<g id="a_node9"><a xlink:href="libsd_8h.html" target="_top" xlink:title=" ">
<polygon fill="#ffffff" stroke="#000000" points="231,-168.5 231,-187.5 280,-187.5 280,-168.5 231,-168.5"/>
<text text-anchor="middle" x="255.5" y="-175.5" font-family="Helvetica,sans-Serif" font-size="10.00" fill="#000000">libsd.h</text>
</a>
</g>
</g>
<!-- Node1&#45;&gt;Node9 -->
<g id="edge11" class="edge">
<title>Node1&#45;&gt;Node9</title>
<path fill="none" stroke="#191970" d="M201.2978,-224.2977C211.9167,-215.2274 225.4031,-203.7077 236.2667,-194.4285"/>
<polygon fill="#191970" stroke="#191970" points="238.6413,-197.0031 243.9719,-187.8469 234.0949,-191.6805 238.6413,-197.0031"/>
</g>
<!-- Node11 -->
<g id="node11" class="node">
<title>Node11</title>
<g id="a_node11"><a xlink:href="spu2regs_8h.html" target="_top" xlink:title=" ">
<polygon fill="#ffffff" stroke="#000000" points="298.5,-168.5 298.5,-187.5 368.5,-187.5 368.5,-168.5 298.5,-168.5"/>
<text text-anchor="middle" x="333.5" y="-175.5" font-family="Helvetica,sans-Serif" font-size="10.00" fill="#000000">spu2regs.h</text>
</a>
</g>
</g>
<!-- Node1&#45;&gt;Node11 -->
<g id="edge16" class="edge">
<title>Node1&#45;&gt;Node11</title>
<path fill="none" stroke="#191970" d="M220.1941,-224.4554C244.8927,-214.329 277.1674,-201.0964 300.9506,-191.3453"/>
<polygon fill="#191970" stroke="#191970" points="302.3306,-194.5623 310.2553,-187.5303 299.675,-188.0855 302.3306,-194.5623"/>
</g>
<!-- Node4 -->
<g id="node4" class="node">
<title>Node4</title>
<g id="a_node4"><a xlink:href="types_8h.html" target="_top" xlink:title=" ">
<polygon fill="#ffffff" stroke="#000000" points="155,-56.5 155,-75.5 208,-75.5 208,-56.5 155,-56.5"/>
<text text-anchor="middle" x="181.5" y="-63.5" font-family="Helvetica,sans-Serif" font-size="10.00" fill="#000000">types.h</text>
</a>
</g>
</g>
<!-- Node3&#45;&gt;Node4 -->
<g id="edge3" class="edge">
<title>Node3&#45;&gt;Node4</title>
<path fill="none" stroke="#191970" d="M183.3295,-168.4509C183.0033,-150.184 182.2849,-109.9553 181.8517,-85.6976"/>
<polygon fill="#191970" stroke="#191970" points="185.3482,-85.4608 181.6701,-75.5249 178.3493,-85.5858 185.3482,-85.4608"/>
</g>
<!-- Node7 -->
<g id="node7" class="node">
<title>Node7</title>
<g id="a_node7"><a xlink:href="irx_8h.html" target="_top" xlink:title=" ">
<polygon fill="#ffffff" stroke="#000000" points="131.5,-112.5 131.5,-131.5 169.5,-131.5 169.5,-112.5 131.5,-112.5"/>
<text text-anchor="middle" x="150.5" y="-119.5" font-family="Helvetica,sans-Serif" font-size="10.00" fill="#000000">irx.h</text>
</a>
</g>
</g>
<!-- Node3&#45;&gt;Node7 -->
<g id="edge6" class="edge">
<title>Node3&#45;&gt;Node7</title>
<path fill="none" stroke="#191970" d="M177.7518,-168.2455C173.2565,-160.617 166.8752,-149.7881 161.4175,-140.5267"/>
<polygon fill="#191970" stroke="#191970" points="164.2747,-138.4811 156.1823,-131.6427 158.2439,-142.035 164.2747,-138.4811"/>
</g>
<!-- Node5 -->
<g id="node5" class="node">
<title>Node5</title>
<g id="a_node5"><a xlink:title=" ">
<polygon fill="#ffffff" stroke="#bfbfbf" points="153.5,-.5 153.5,-19.5 209.5,-19.5 209.5,-.5 153.5,-.5"/>
<text text-anchor="middle" x="181.5" y="-7.5" font-family="Helvetica,sans-Serif" font-size="10.00" fill="#000000">stddef.h</text>
</a>
</g>
</g>
<!-- Node4&#45;&gt;Node5 -->
<g id="edge4" class="edge">
<title>Node4&#45;&gt;Node5</title>
<path fill="none" stroke="#191970" d="M181.5,-56.2455C181.5,-48.9382 181.5,-38.6944 181.5,-29.7046"/>
<polygon fill="#191970" stroke="#191970" points="185.0001,-29.6426 181.5,-19.6427 178.0001,-29.6427 185.0001,-29.6426"/>
</g>
<!-- Node6 -->
<g id="node6" class="node">
<title>Node6</title>
<g id="a_node6"><a xlink:href="tamtypes_8h.html" target="_top" xlink:title=" ">
<polygon fill="#ffffff" stroke="#000000" points="232.5,-.5 232.5,-19.5 304.5,-19.5 304.5,-.5 232.5,-.5"/>
<text text-anchor="middle" x="268.5" y="-7.5" font-family="Helvetica,sans-Serif" font-size="10.00" fill="#000000">tamtypes.h</text>
</a>
</g>
</g>
<!-- Node4&#45;&gt;Node6 -->
<g id="edge5" class="edge">
<title>Node4&#45;&gt;Node6</title>
<path fill="none" stroke="#191970" d="M196.6542,-56.2455C210.0027,-47.6534 229.6586,-35.0014 245.0383,-25.1018"/>
<polygon fill="#191970" stroke="#191970" points="247.0051,-27.9982 253.5194,-19.6427 243.2164,-22.1121 247.0051,-27.9982"/>
</g>
<!-- Node7&#45;&gt;Node4 -->
<g id="edge7" class="edge">
<title>Node7&#45;&gt;Node4</title>
<path fill="none" stroke="#191970" d="M155.8998,-112.2455C160.1227,-104.617 166.1173,-93.7881 171.2441,-84.5267"/>
<polygon fill="#191970" stroke="#191970" points="174.381,-86.0867 176.1621,-75.6427 168.2568,-82.6965 174.381,-86.0867"/>
</g>
<!-- Node8&#45;&gt;Node4 -->
<g id="edge9" class="edge">
<title>Node8&#45;&gt;Node4</title>
<path fill="none" stroke="#191970" d="M104.4063,-168.2495C106.0709,-154.6232 110.6135,-129.5834 122.5,-112 130.905,-99.5667 143.7423,-88.9859 155.2985,-81.1182"/>
<polygon fill="#191970" stroke="#191970" points="157.2816,-84.0041 163.7913,-75.6449 153.4896,-78.1201 157.2816,-84.0041"/>
</g>
<!-- Node8&#45;&gt;Node7 -->
<g id="edge10" class="edge">
<title>Node8&#45;&gt;Node7</title>
<path fill="none" stroke="#191970" d="M111.6868,-168.2455C118.3589,-160.2958 127.9479,-148.8706 135.9253,-139.3656"/>
<polygon fill="#191970" stroke="#191970" points="138.6592,-141.5525 142.407,-131.6427 133.2974,-137.0524 138.6592,-141.5525"/>
</g>
<!-- Node9&#45;&gt;Node4 -->
<g id="edge12" class="edge">
<title>Node9&#45;&gt;Node4</title>
<path fill="none" stroke="#191970" d="M249.1908,-168.4509C236.8485,-149.7707 209.3318,-108.1238 193.4432,-84.0761"/>
<polygon fill="#191970" stroke="#191970" points="196.226,-81.9388 187.7932,-75.5249 190.3857,-85.7977 196.226,-81.9388"/>
</g>
<!-- Node9&#45;&gt;Node7 -->
<g id="edge13" class="edge">
<title>Node9&#45;&gt;Node7</title>
<path fill="none" stroke="#191970" d="M237.2104,-168.2455C220.7238,-159.4527 196.2648,-146.4079 177.5235,-136.4125"/>
<polygon fill="#191970" stroke="#191970" points="179.0506,-133.2604 168.58,-131.6427 175.7565,-139.4368 179.0506,-133.2604"/>
</g>
<!-- Node10 -->
<g id="node10" class="node">
<title>Node10</title>
<g id="a_node10"><a xlink:href="libsd-common_8h.html" target="_top" xlink:title=" ">
<polygon fill="#ffffff" stroke="#000000" points="226,-56.5 226,-75.5 321,-75.5 321,-56.5 226,-56.5"/>
<text text-anchor="middle" x="273.5" y="-63.5" font-family="Helvetica,sans-Serif" font-size="10.00" fill="#000000">libsd&#45;common.h</text>
</a>
</g>
</g>
<!-- Node9&#45;&gt;Node10 -->
<g id="edge14" class="edge">
<title>Node9&#45;&gt;Node10</title>
<path fill="none" stroke="#191970" d="M257.0347,-168.4509C259.9704,-150.184 266.4358,-109.9553 270.3343,-85.6976"/>
<polygon fill="#191970" stroke="#191970" points="273.838,-85.9536 271.9692,-75.5249 266.9267,-84.8428 273.838,-85.9536"/>
</g>
<!-- Node10&#45;&gt;Node6 -->
<g id="edge15" class="edge">
<title>Node10&#45;&gt;Node6</title>
<path fill="none" stroke="#191970" d="M272.6291,-56.2455C271.9766,-48.9382 271.062,-38.6944 270.2593,-29.7046"/>
<polygon fill="#191970" stroke="#191970" points="273.7365,-29.2918 269.361,-19.6427 266.7642,-29.9143 273.7365,-29.2918"/>
</g>
</g>
</svg>
