<?xml version="1.0" encoding="UTF-8" standalone="no"?>
<!DOCTYPE svg PUBLIC "-//W3C//DTD SVG 1.1//EN"
 "http://www.w3.org/Graphics/SVG/1.1/DTD/svg11.dtd">
<!-- Generated by graphviz version 2.40.1 (20161225.0304)
 -->
<!-- Title: iop/fs/bdm/include/bdm.h Pages: 1 -->
<!--zoomable 240 -->
<svg id="main" version="1.1" xmlns="http://www.w3.org/2000/svg" xmlns:xlink="http://www.w3.org/1999/xlink" xml:space="preserve" onload="init(evt)">
<style type="text/css"><![CDATA[
.edge:hover path { stroke: red; }
.edge:hover polygon { stroke: red; fill: red; }
]]></style>
<script type="text/javascript"><![CDATA[
var edges = document.getElementsByTagName('g');
if (edges && edges.length) {
  for (var i=0;i<edges.length;i++) {
    if (edges[i].id.substr(0,4)=='edge') {
      edges[i].setAttribute('class','edge');
    }
  }
}
]]></script>
        <defs>
                <circle id="rim" cx="0" cy="0" r="7"/>
                <circle id="rim2" cx="0" cy="0" r="3.5"/>
                <g id="zoomPlus">
                        <use xlink:href="#rim" fill="#404040">
                                <set attributeName="fill" to="#808080" begin="zoomplus.mouseover" end="zoomplus.mouseout"/>
                        </use>
                        <path d="M-4,0h8M0,-4v8" fill="none" stroke="white" stroke-width="1.5" pointer-events="none"/>
                </g>
                <g id="zoomMin">
                        <use xlink:href="#rim" fill="#404040">
                                <set attributeName="fill" to="#808080" begin="zoomminus.mouseover" end="zoomminus.mouseout"/>
                        </use>
                        <path d="M-4,0h8" fill="none" stroke="white" stroke-width="1.5" pointer-events="none"/>
                </g>
                <g id="dirArrow">
                        <path fill="none" stroke="white" stroke-width="1.5" d="M0,-3.0v7 M-2.5,-0.5L0,-3.0L2.5,-0.5"/>
                </g>
               <g id="resetDef">
                       <use xlink:href="#rim2" fill="#404040">
                               <set attributeName="fill" to="#808080" begin="reset.mouseover" end="reset.mouseout"/>
                       </use>
               </g>
        </defs>

<script type="text/javascript">
var viewWidth = 1492;
var viewHeight = 240;
var sectionId = 'dynsection-1';
</script>
<script xlink:href="svgpan.js"/>
<svg id="graph" class="graph">
<g id="viewport">
<title>iop/fs/bdm/include/bdm.h</title>
<polygon fill="#ffffff" stroke="transparent" points="-4,4 -4,-236 1487.5,-236 1487.5,4 -4,4"/>
<!-- Node1 -->
<g id="node1" class="node">
<title>Node1</title>
<g id="a_node1"><a xlink:title=" ">
<polygon fill="#bfbfbf" stroke="#000000" points="635,-201.5 635,-231.5 742,-231.5 742,-201.5 635,-201.5"/>
<text text-anchor="start" x="643" y="-219.5" font-family="Helvetica,sans-Serif" font-size="10.00" fill="#000000">iop/fs/bdm/include</text>
<text text-anchor="middle" x="688.5" y="-208.5" font-family="Helvetica,sans-Serif" font-size="10.00" fill="#000000">/bdm.h</text>
</a>
</g>
</g>
<!-- Node2 -->
<g id="node2" class="node">
<title>Node2</title>
<g id="a_node2"><a xlink:href="bdm_8c.html" target="_top" xlink:title=" ">
<polygon fill="#ffffff" stroke="#000000" points="0,-140 0,-159 119,-159 119,-140 0,-140"/>
<text text-anchor="middle" x="59.5" y="-147" font-family="Helvetica,sans-Serif" font-size="10.00" fill="#000000">iop/fs/bdm/src/bdm.c</text>
</a>
</g>
</g>
<!-- Node1&#45;&gt;Node2 -->
<g id="edge1" class="edge">
<title>Node1&#45;&gt;Node2</title>
<path fill="none" stroke="#191970" d="M624.895,-213.3337C520.6726,-207.5454 307.2342,-193.1728 128.5,-165 118.5551,-163.4324 107.9017,-161.2788 98.0141,-159.0754"/>
<polygon fill="#191970" stroke="#191970" points="624.7617,-216.8316 634.9381,-213.8836 625.1445,-209.842 624.7617,-216.8316"/>
</g>
<!-- Node3 -->
<g id="node3" class="node">
<title>Node3</title>
<g id="a_node3"><a xlink:href="fs_2bdm_2src_2irx__imports_8h.html" target="_top" xlink:title=" ">
<polygon fill="#ffffff" stroke="#000000" points="137,-134.5 137,-164.5 238,-164.5 238,-134.5 137,-134.5"/>
<text text-anchor="start" x="145" y="-152.5" font-family="Helvetica,sans-Serif" font-size="10.00" fill="#000000">iop/fs/bdm/src/irx</text>
<text text-anchor="middle" x="187.5" y="-141.5" font-family="Helvetica,sans-Serif" font-size="10.00" fill="#000000">_imports.h</text>
</a>
</g>
</g>
<!-- Node1&#45;&gt;Node3 -->
<g id="edge2" class="edge">
<title>Node1&#45;&gt;Node3</title>
<path fill="none" stroke="#191970" d="M624.7175,-211.802C538.5933,-204.8333 380.568,-189.8376 247.5,-165 244.433,-164.4275 241.2908,-163.7859 238.13,-163.098"/>
<polygon fill="#191970" stroke="#191970" points="624.6105,-215.3045 634.8575,-212.6122 625.1681,-208.3268 624.6105,-215.3045"/>
</g>
<!-- Node4 -->
<g id="node4" class="node">
<title>Node4</title>
<g id="a_node4"><a xlink:href="fs_2bdm_2src_2main_8c.html" target="_top" xlink:title=" ">
<polygon fill="#ffffff" stroke="#000000" points="256.5,-140 256.5,-159 378.5,-159 378.5,-140 256.5,-140"/>
<text text-anchor="middle" x="317.5" y="-147" font-family="Helvetica,sans-Serif" font-size="10.00" fill="#000000">iop/fs/bdm/src/main.c</text>
</a>
</g>
</g>
<!-- Node1&#45;&gt;Node4 -->
<g id="edge3" class="edge">
<title>Node1&#45;&gt;Node4</title>
<path fill="none" stroke="#191970" d="M624.55,-206.4802C563.5048,-196.6979 469.0157,-180.9887 387.5,-165 378.2171,-163.1792 368.2764,-161.0734 358.8868,-159.0123"/>
<polygon fill="#191970" stroke="#191970" points="624.3729,-209.9962 634.7998,-208.1174 625.4771,-203.0838 624.3729,-209.9962"/>
</g>
<!-- Node5 -->
<g id="node5" class="node">
<title>Node5</title>
<g id="a_node5"><a xlink:href="fs_2bdm_2src_2part__driver_8c.html" target="_top" xlink:title=" ">
<polygon fill="#ffffff" stroke="#000000" points="396.5,-134.5 396.5,-164.5 504.5,-164.5 504.5,-134.5 396.5,-134.5"/>
<text text-anchor="start" x="404.5" y="-152.5" font-family="Helvetica,sans-Serif" font-size="10.00" fill="#000000">iop/fs/bdm/src/part</text>
<text text-anchor="middle" x="450.5" y="-141.5" font-family="Helvetica,sans-Serif" font-size="10.00" fill="#000000">_driver.c</text>
</a>
</g>
</g>
<!-- Node1&#45;&gt;Node5 -->
<g id="edge4" class="edge">
<title>Node1&#45;&gt;Node5</title>
<path fill="none" stroke="#191970" d="M625.2142,-198.6842C587.4629,-188.0568 540.0502,-174.7095 504.1448,-164.6017"/>
<polygon fill="#191970" stroke="#191970" points="624.5138,-202.1231 635.0882,-201.4639 626.4108,-195.385 624.5138,-202.1231"/>
</g>
<!-- Node6 -->
<g id="node6" class="node">
<title>Node6</title>
<g id="a_node6"><a xlink:href="fs_2bdmfs__vfat_2src_2include_2fat__driver_8h.html" target="_top" xlink:title=" ">
<polygon fill="#ffffff" stroke="#000000" points="517,-67.5 517,-97.5 636,-97.5 636,-67.5 517,-67.5"/>
<text text-anchor="start" x="525" y="-85.5" font-family="Helvetica,sans-Serif" font-size="10.00" fill="#000000">iop/fs/bdmfs_vfat/src</text>
<text text-anchor="middle" x="576.5" y="-74.5" font-family="Helvetica,sans-Serif" font-size="10.00" fill="#000000">/include/fat_driver.h</text>
</a>
</g>
</g>
<!-- Node1&#45;&gt;Node6 -->
<g id="edge5" class="edge">
<title>Node1&#45;&gt;Node6</title>
<path fill="none" stroke="#191970" d="M624.7988,-199.9362C593.8537,-190.471 561.4329,-177.9346 552.5,-165 538.2591,-144.3796 553.0453,-115.2937 564.8936,-97.7337"/>
<polygon fill="#191970" stroke="#191970" points="624.1797,-203.4035 634.7625,-202.8981 626.1743,-196.6937 624.1797,-203.4035"/>
</g>
<!-- Node8 -->
<g id="node8" class="node">
<title>Node8</title>
<g id="a_node8"><a xlink:href="fs_2bdmfs__vfat_2src_2include_2scache_8h.html" target="_top" xlink:title=" ">
<polygon fill="#ffffff" stroke="#000000" points="561,-134.5 561,-164.5 680,-164.5 680,-134.5 561,-134.5"/>
<text text-anchor="start" x="569" y="-152.5" font-family="Helvetica,sans-Serif" font-size="10.00" fill="#000000">iop/fs/bdmfs_vfat/src</text>
<text text-anchor="middle" x="620.5" y="-141.5" font-family="Helvetica,sans-Serif" font-size="10.00" fill="#000000">/include/scache.h</text>
</a>
</g>
</g>
<!-- Node1&#45;&gt;Node8 -->
<g id="edge7" class="edge">
<title>Node1&#45;&gt;Node8</title>
<path fill="none" stroke="#191970" d="M665.8786,-194.2113C656.0233,-184.5009 644.7261,-173.3698 635.8692,-164.6432"/>
<polygon fill="#191970" stroke="#191970" points="663.49,-196.7713 673.0697,-201.2967 668.403,-191.785 663.49,-196.7713"/>
</g>
<!-- Node9 -->
<g id="node9" class="node">
<title>Node9</title>
<g id="a_node9"><a xlink:href="fs_2bdmfs__vfat_2src_2irx__imports_8h.html" target="_top" xlink:title=" ">
<polygon fill="#ffffff" stroke="#000000" points="698,-134.5 698,-164.5 817,-164.5 817,-134.5 698,-134.5"/>
<text text-anchor="start" x="706" y="-152.5" font-family="Helvetica,sans-Serif" font-size="10.00" fill="#000000">iop/fs/bdmfs_vfat/src</text>
<text text-anchor="middle" x="757.5" y="-141.5" font-family="Helvetica,sans-Serif" font-size="10.00" fill="#000000">/irx_imports.h</text>
</a>
</g>
</g>
<!-- Node1&#45;&gt;Node9 -->
<g id="edge9" class="edge">
<title>Node1&#45;&gt;Node9</title>
<path fill="none" stroke="#191970" d="M711.454,-194.2113C721.4543,-184.5009 732.9176,-173.3698 741.9048,-164.6432"/>
<polygon fill="#191970" stroke="#191970" points="708.8932,-191.8193 704.1572,-201.2967 713.7697,-196.8413 708.8932,-191.8193"/>
</g>
<!-- Node10 -->
<g id="node10" class="node">
<title>Node10</title>
<g id="a_node10"><a xlink:href="fs_2bdmfs__vfat_2src_2main_8c.html" target="_top" xlink:title=" ">
<polygon fill="#ffffff" stroke="#000000" points="835,-134.5 835,-164.5 954,-164.5 954,-134.5 835,-134.5"/>
<text text-anchor="start" x="843" y="-152.5" font-family="Helvetica,sans-Serif" font-size="10.00" fill="#000000">iop/fs/bdmfs_vfat/src</text>
<text text-anchor="middle" x="894.5" y="-141.5" font-family="Helvetica,sans-Serif" font-size="10.00" fill="#000000">/main.c</text>
</a>
</g>
</g>
<!-- Node1&#45;&gt;Node10 -->
<g id="edge10" class="edge">
<title>Node1&#45;&gt;Node10</title>
<path fill="none" stroke="#191970" d="M744.5323,-198.2759C776.9985,-187.7165 817.3869,-174.5805 848.0679,-164.6017"/>
<polygon fill="#191970" stroke="#191970" points="743.1575,-195.0425 734.7304,-201.4639 745.3226,-201.6993 743.1575,-195.0425"/>
</g>
<!-- Node11 -->
<g id="node11" class="node">
<title>Node11</title>
<g id="a_node11"><a xlink:href="iLink_2IEEE1394__bd_2src_2irx__imports_8h.html" target="_top" xlink:title=" ">
<polygon fill="#ffffff" stroke="#000000" points="972,-134.5 972,-164.5 1091,-164.5 1091,-134.5 972,-134.5"/>
<text text-anchor="start" x="980" y="-152.5" font-family="Helvetica,sans-Serif" font-size="10.00" fill="#000000">iop/iLink/IEEE1394</text>
<text text-anchor="middle" x="1031.5" y="-141.5" font-family="Helvetica,sans-Serif" font-size="10.00" fill="#000000">_bd/src/irx_imports.h</text>
</a>
</g>
</g>
<!-- Node1&#45;&gt;Node11 -->
<g id="edge11" class="edge">
<title>Node1&#45;&gt;Node11</title>
<path fill="none" stroke="#191970" d="M752.2075,-205.296C808.033,-195.305 891.3035,-179.9826 963.5,-165 966.2268,-164.4341 969.0126,-163.8448 971.8246,-163.2408"/>
<polygon fill="#191970" stroke="#191970" points="751.3411,-201.8952 742.1119,-207.0982 752.5713,-208.7863 751.3411,-201.8952"/>
</g>
<!-- Node12 -->
<g id="node12" class="node">
<title>Node12</title>
<g id="a_node12"><a xlink:href="iLink_2IEEE1394__bd_2src_2scsi_8c.html" target="_top" xlink:title=" ">
<polygon fill="#ffffff" stroke="#000000" points="1109.5,-134.5 1109.5,-164.5 1215.5,-164.5 1215.5,-134.5 1109.5,-134.5"/>
<text text-anchor="start" x="1117.5" y="-152.5" font-family="Helvetica,sans-Serif" font-size="10.00" fill="#000000">iop/iLink/IEEE1394</text>
<text text-anchor="middle" x="1162.5" y="-141.5" font-family="Helvetica,sans-Serif" font-size="10.00" fill="#000000">_bd/src/scsi.c</text>
</a>
</g>
</g>
<!-- Node1&#45;&gt;Node12 -->
<g id="edge12" class="edge">
<title>Node1&#45;&gt;Node12</title>
<path fill="none" stroke="#191970" d="M752.2247,-210.94C833.5004,-203.2987 978.1855,-187.8477 1100.5,-165 1103.4448,-164.4499 1106.458,-163.8435 1109.4926,-163.1987"/>
<polygon fill="#191970" stroke="#191970" points="751.7835,-207.4659 742.1509,-211.8776 752.4323,-214.4357 751.7835,-207.4659"/>
</g>
<!-- Node13 -->
<g id="node13" class="node">
<title>Node13</title>
<g id="a_node13"><a xlink:href="usb_2usbmass__bd_2src_2irx__imports_8h.html" target="_top" xlink:title=" ">
<polygon fill="#ffffff" stroke="#000000" points="1233.5,-134.5 1233.5,-164.5 1349.5,-164.5 1349.5,-134.5 1233.5,-134.5"/>
<text text-anchor="start" x="1241.5" y="-152.5" font-family="Helvetica,sans-Serif" font-size="10.00" fill="#000000">iop/usb/usbmass_bd</text>
<text text-anchor="middle" x="1291.5" y="-141.5" font-family="Helvetica,sans-Serif" font-size="10.00" fill="#000000">/src/irx_imports.h</text>
</a>
</g>
</g>
<!-- Node1&#45;&gt;Node13 -->
<g id="edge13" class="edge">
<title>Node1&#45;&gt;Node13</title>
<path fill="none" stroke="#191970" d="M752.0656,-213.1065C852.7852,-207.1209 1055.0141,-192.6239 1224.5,-165 1227.4459,-164.5199 1230.4554,-163.9857 1233.488,-163.4126"/>
<polygon fill="#191970" stroke="#191970" points="751.8311,-209.6141 742.053,-213.6933 752.2407,-216.6021 751.8311,-209.6141"/>
</g>
<!-- Node14 -->
<g id="node14" class="node">
<title>Node14</title>
<g id="a_node14"><a xlink:href="usb_2usbmass__bd_2src_2scsi_8c.html" target="_top" xlink:title=" ">
<polygon fill="#ffffff" stroke="#000000" points="1367.5,-134.5 1367.5,-164.5 1483.5,-164.5 1483.5,-134.5 1367.5,-134.5"/>
<text text-anchor="start" x="1375.5" y="-152.5" font-family="Helvetica,sans-Serif" font-size="10.00" fill="#000000">iop/usb/usbmass_bd</text>
<text text-anchor="middle" x="1425.5" y="-141.5" font-family="Helvetica,sans-Serif" font-size="10.00" fill="#000000">/src/scsi.c</text>
</a>
</g>
</g>
<!-- Node1&#45;&gt;Node14 -->
<g id="edge14" class="edge">
<title>Node1&#45;&gt;Node14</title>
<path fill="none" stroke="#191970" d="M752.3011,-214.7931C871.8527,-210.8878 1137.4791,-198.8629 1358.5,-165 1361.4504,-164.548 1364.4634,-164.0364 1367.4989,-163.4813"/>
<polygon fill="#191970" stroke="#191970" points="752.1083,-211.2974 742.2249,-215.1142 752.3313,-218.2938 752.1083,-211.2974"/>
</g>
<!-- Node7 -->
<g id="node7" class="node">
<title>Node7</title>
<g id="a_node7"><a xlink:href="fs_2bdmfs__vfat_2src_2include_2fat_8h.html" target="_top" xlink:title=" ">
<polygon fill="#ffffff" stroke="#000000" points="517,-.5 517,-30.5 636,-30.5 636,-.5 517,-.5"/>
<text text-anchor="start" x="525" y="-18.5" font-family="Helvetica,sans-Serif" font-size="10.00" fill="#000000">iop/fs/bdmfs_vfat/src</text>
<text text-anchor="middle" x="576.5" y="-7.5" font-family="Helvetica,sans-Serif" font-size="10.00" fill="#000000">/include/fat.h</text>
</a>
</g>
</g>
<!-- Node6&#45;&gt;Node7 -->
<g id="edge6" class="edge">
<title>Node6&#45;&gt;Node7</title>
<path fill="none" stroke="#191970" d="M576.5,-57.0249C576.5,-48.128 576.5,-38.4287 576.5,-30.6432"/>
<polygon fill="#191970" stroke="#191970" points="573.0001,-57.2966 576.5,-67.2967 580.0001,-57.2967 573.0001,-57.2966"/>
</g>
<!-- Node8&#45;&gt;Node6 -->
<g id="edge8" class="edge">
<title>Node8&#45;&gt;Node6</title>
<path fill="none" stroke="#191970" d="M604.9184,-125.7735C598.7728,-116.4154 591.8948,-105.9421 586.4448,-97.6432"/>
<polygon fill="#191970" stroke="#191970" points="602.1008,-127.8592 610.5157,-134.2967 607.9519,-124.0167 602.1008,-127.8592"/>
</g>
</g>
</svg>
        <g id="navigator" transform="translate(0 0)" fill="#404254">
                <rect fill="#f2f5e9" fill-opacity="0.5" stroke="#606060" stroke-width=".5" x="0" y="0" width="60" height="60"/>
                <use id="zoomplus" xlink:href="#zoomPlus" x="17" y="9" onmousedown="handleZoom(evt,'in')"/>
                <use id="zoomminus" xlink:href="#zoomMin" x="42" y="9" onmousedown="handleZoom(evt,'out')"/>
                <use id="reset" xlink:href="#resetDef" x="30" y="36" onmousedown="handleReset()"/>
                <g id="arrowUp" xlink:href="#dirArrow" transform="translate(30 24)" onmousedown="handlePan(0,-1)">
                  <use xlink:href="#rim" fill="#404040">
                        <set attributeName="fill" to="#808080" begin="arrowUp.mouseover" end="arrowUp.mouseout"/>
                  </use>
                  <path fill="none" stroke="white" stroke-width="1.5" d="M0,-3.0v7 M-2.5,-0.5L0,-3.0L2.5,-0.5"/>
                </g>
                <g id="arrowRight" xlink:href="#dirArrow" transform="rotate(90) translate(36 -43)" onmousedown="handlePan(1,0)">
                  <use xlink:href="#rim" fill="#404040">
                        <set attributeName="fill" to="#808080" begin="arrowRight.mouseover" end="arrowRight.mouseout"/>
                  </use>
                  <path fill="none" stroke="white" stroke-width="1.5" d="M0,-3.0v7 M-2.5,-0.5L0,-3.0L2.5,-0.5"/>
                </g>
                <g id="arrowDown" xlink:href="#dirArrow" transform="rotate(180) translate(-30 -48)" onmousedown="handlePan(0,1)">
                  <use xlink:href="#rim" fill="#404040">
                        <set attributeName="fill" to="#808080" begin="arrowDown.mouseover" end="arrowDown.mouseout"/>
                  </use>
                  <path fill="none" stroke="white" stroke-width="1.5" d="M0,-3.0v7 M-2.5,-0.5L0,-3.0L2.5,-0.5"/>
                </g>
                <g id="arrowLeft" xlink:href="#dirArrow" transform="rotate(270) translate(-36 17)" onmousedown="handlePan(-1,0)">
                  <use xlink:href="#rim" fill="#404040">
                        <set attributeName="fill" to="#808080" begin="arrowLeft.mouseover" end="arrowLeft.mouseout"/>
                  </use>
                  <path fill="none" stroke="white" stroke-width="1.5" d="M0,-3.0v7 M-2.5,-0.5L0,-3.0L2.5,-0.5"/>
                </g>
        </g>
        <svg viewBox="0 0 15 15" width="100%" height="30px" preserveAspectRatio="xMaxYMin meet">
         <g id="arrow_out" transform="scale(0.3 0.3)">
          <a xlink:href="bdm_8h__dep__incl_org.svg" target="_base">
           <rect id="button" ry="5" rx="5" y="6" x="6" height="38" width="38"
                fill="#f2f5e9" fill-opacity="0.5" stroke="#606060" stroke-width="1.0"/>
           <path id="arrow"
             d="M 11.500037,31.436501 C 11.940474,20.09759 22.043105,11.32322 32.158766,21.979434 L 37.068811,17.246167 C 37.068811,17.246167 37.088388,32 37.088388,32 L 22.160133,31.978069 C 22.160133,31.978069 26.997745,27.140456 26.997745,27.140456 C 18.528582,18.264221 13.291696,25.230495 11.500037,31.436501 z"
             style="fill:#404040;"/>
          </a>
         </g>
        </svg>
</svg>
