<?xml version="1.0" encoding="UTF-8" standalone="no"?>
<!DOCTYPE svg PUBLIC "-//W3C//DTD SVG 1.1//EN"
 "http://www.w3.org/Graphics/SVG/1.1/DTD/svg11.dtd">
<!-- Generated by graphviz version 2.40.1 (20161225.0304)
 -->
<!-- Title: iop/hdd/libpfs/src/bitmap.c Pages: 1 -->
<svg width="349pt" height="263pt"
 viewBox="0.00 0.00 349.00 263.00" xmlns="http://www.w3.org/2000/svg" xmlns:xlink="http://www.w3.org/1999/xlink">
<g id="graph0" class="graph" transform="scale(1 1) rotate(0) translate(4 259)">
<title>iop/hdd/libpfs/src/bitmap.c</title>
<polygon fill="#ffffff" stroke="transparent" points="-4,4 -4,-259 345,-259 345,4 -4,4"/>
<!-- Node1 -->
<g id="node1" class="node">
<title>Node1</title>
<g id="a_node1"><a xlink:title=" ">
<polygon fill="#bfbfbf" stroke="#000000" points="114.5,-224.5 114.5,-254.5 214.5,-254.5 214.5,-224.5 114.5,-224.5"/>
<text text-anchor="start" x="122.5" y="-242.5" font-family="Helvetica,sans-Serif" font-size="10.00" fill="#000000">iop/hdd/libpfs/src</text>
<text text-anchor="middle" x="164.5" y="-231.5" font-family="Helvetica,sans-Serif" font-size="10.00" fill="#000000">/bitmap.c</text>
</a>
</g>
</g>
<!-- Node2 -->
<g id="node2" class="node">
<title>Node2</title>
<g id="a_node2"><a xlink:href="errno_8h.html" target="_top" xlink:title=" ">
<polygon fill="#ffffff" stroke="#000000" points="0,-168.5 0,-187.5 51,-187.5 51,-168.5 0,-168.5"/>
<text text-anchor="middle" x="25.5" y="-175.5" font-family="Helvetica,sans-Serif" font-size="10.00" fill="#000000">errno.h</text>
</a>
</g>
</g>
<!-- Node1&#45;&gt;Node2 -->
<g id="edge1" class="edge">
<title>Node1&#45;&gt;Node2</title>
<path fill="none" stroke="#191970" d="M130.4968,-224.4554C107.8129,-214.419 78.2327,-201.3314 56.2521,-191.6061"/>
<polygon fill="#191970" stroke="#191970" points="57.6011,-188.3758 47.0401,-187.5303 54.7688,-194.7772 57.6011,-188.3758"/>
</g>
<!-- Node3 -->
<g id="node3" class="node">
<title>Node3</title>
<g id="a_node3"><a xlink:href="stdio_8h.html" target="_top" xlink:title=" ">
<polygon fill="#ffffff" stroke="#000000" points="69.5,-168.5 69.5,-187.5 119.5,-187.5 119.5,-168.5 69.5,-168.5"/>
<text text-anchor="middle" x="94.5" y="-175.5" font-family="Helvetica,sans-Serif" font-size="10.00" fill="#000000">stdio.h</text>
</a>
</g>
</g>
<!-- Node1&#45;&gt;Node3 -->
<g id="edge2" class="edge">
<title>Node1&#45;&gt;Node3</title>
<path fill="none" stroke="#191970" d="M147.1966,-224.2977C136.9738,-215.3163 124.0177,-203.9334 113.5104,-194.702"/>
<polygon fill="#191970" stroke="#191970" points="115.5305,-191.8178 105.7079,-187.8469 110.9103,-197.0766 115.5305,-191.8178"/>
</g>
<!-- Node9 -->
<g id="node9" class="node">
<title>Node9</title>
<g id="a_node9"><a xlink:href="limits_8h.html" target="_top" xlink:title=" ">
<polygon fill="#ffffff" stroke="#000000" points="138,-168.5 138,-187.5 191,-187.5 191,-168.5 138,-168.5"/>
<text text-anchor="middle" x="164.5" y="-175.5" font-family="Helvetica,sans-Serif" font-size="10.00" fill="#000000">limits.h</text>
</a>
</g>
</g>
<!-- Node1&#45;&gt;Node9 -->
<g id="edge8" class="edge">
<title>Node1&#45;&gt;Node9</title>
<path fill="none" stroke="#191970" d="M164.5,-224.2977C164.5,-216.3834 164.5,-206.6043 164.5,-198.0759"/>
<polygon fill="#191970" stroke="#191970" points="168.0001,-197.8469 164.5,-187.8469 161.0001,-197.847 168.0001,-197.8469"/>
</g>
<!-- Node10 -->
<g id="node10" class="node">
<title>Node10</title>
<g id="a_node10"><a xlink:href="pfs-opt_8h.html" target="_top" xlink:title=" ">
<polygon fill="#ffffff" stroke="#000000" points="209.5,-168.5 209.5,-187.5 269.5,-187.5 269.5,-168.5 209.5,-168.5"/>
<text text-anchor="middle" x="239.5" y="-175.5" font-family="Helvetica,sans-Serif" font-size="10.00" fill="#000000">pfs&#45;opt.h</text>
</a>
</g>
</g>
<!-- Node1&#45;&gt;Node10 -->
<g id="edge9" class="edge">
<title>Node1&#45;&gt;Node10</title>
<path fill="none" stroke="#191970" d="M183.0393,-224.2977C194.1008,-215.2274 208.1491,-203.7077 219.4653,-194.4285"/>
<polygon fill="#191970" stroke="#191970" points="221.9781,-196.8942 227.4916,-187.8469 217.5396,-191.4813 221.9781,-196.8942"/>
</g>
<!-- Node11 -->
<g id="node11" class="node">
<title>Node11</title>
<g id="a_node11"><a xlink:href="libpfs_8h.html" target="_top" xlink:title=" ">
<polygon fill="#ffffff" stroke="#000000" points="288,-168.5 288,-187.5 341,-187.5 341,-168.5 288,-168.5"/>
<text text-anchor="middle" x="314.5" y="-175.5" font-family="Helvetica,sans-Serif" font-size="10.00" fill="#000000">libpfs.h</text>
</a>
</g>
</g>
<!-- Node1&#45;&gt;Node11 -->
<g id="edge10" class="edge">
<title>Node1&#45;&gt;Node11</title>
<path fill="none" stroke="#191970" d="M201.1941,-224.4554C225.8927,-214.329 258.1674,-201.0964 281.9506,-191.3453"/>
<polygon fill="#191970" stroke="#191970" points="283.3306,-194.5623 291.2553,-187.5303 280.675,-188.0855 283.3306,-194.5623"/>
</g>
<!-- Node4 -->
<g id="node4" class="node">
<title>Node4</title>
<g id="a_node4"><a xlink:title=" ">
<polygon fill="#ffffff" stroke="#bfbfbf" points="33.5,-112.5 33.5,-131.5 89.5,-131.5 89.5,-112.5 33.5,-112.5"/>
<text text-anchor="middle" x="61.5" y="-119.5" font-family="Helvetica,sans-Serif" font-size="10.00" fill="#000000">stdarg.h</text>
</a>
</g>
</g>
<!-- Node3&#45;&gt;Node4 -->
<g id="edge3" class="edge">
<title>Node3&#45;&gt;Node4</title>
<path fill="none" stroke="#191970" d="M88.7518,-168.2455C84.2565,-160.617 77.8752,-149.7881 72.4175,-140.5267"/>
<polygon fill="#191970" stroke="#191970" points="75.2747,-138.4811 67.1823,-131.6427 69.2439,-142.035 75.2747,-138.4811"/>
</g>
<!-- Node5 -->
<g id="node5" class="node">
<title>Node5</title>
<g id="a_node5"><a xlink:href="irx_8h.html" target="_top" xlink:title=" ">
<polygon fill="#ffffff" stroke="#000000" points="107.5,-112.5 107.5,-131.5 145.5,-131.5 145.5,-112.5 107.5,-112.5"/>
<text text-anchor="middle" x="126.5" y="-119.5" font-family="Helvetica,sans-Serif" font-size="10.00" fill="#000000">irx.h</text>
</a>
</g>
</g>
<!-- Node3&#45;&gt;Node5 -->
<g id="edge4" class="edge">
<title>Node3&#45;&gt;Node5</title>
<path fill="none" stroke="#191970" d="M100.074,-168.2455C104.4331,-160.617 110.6211,-149.7881 115.9133,-140.5267"/>
<polygon fill="#191970" stroke="#191970" points="119.0673,-142.0616 120.9899,-131.6427 112.9896,-138.5886 119.0673,-142.0616"/>
</g>
<!-- Node6 -->
<g id="node6" class="node">
<title>Node6</title>
<g id="a_node6"><a xlink:href="types_8h.html" target="_top" xlink:title=" ">
<polygon fill="#ffffff" stroke="#000000" points="100,-56.5 100,-75.5 153,-75.5 153,-56.5 100,-56.5"/>
<text text-anchor="middle" x="126.5" y="-63.5" font-family="Helvetica,sans-Serif" font-size="10.00" fill="#000000">types.h</text>
</a>
</g>
</g>
<!-- Node5&#45;&gt;Node6 -->
<g id="edge5" class="edge">
<title>Node5&#45;&gt;Node6</title>
<path fill="none" stroke="#191970" d="M126.5,-112.2455C126.5,-104.9382 126.5,-94.6944 126.5,-85.7046"/>
<polygon fill="#191970" stroke="#191970" points="130.0001,-85.6426 126.5,-75.6427 123.0001,-85.6427 130.0001,-85.6426"/>
</g>
<!-- Node7 -->
<g id="node7" class="node">
<title>Node7</title>
<g id="a_node7"><a xlink:title=" ">
<polygon fill="#ffffff" stroke="#bfbfbf" points="57.5,-.5 57.5,-19.5 113.5,-19.5 113.5,-.5 57.5,-.5"/>
<text text-anchor="middle" x="85.5" y="-7.5" font-family="Helvetica,sans-Serif" font-size="10.00" fill="#000000">stddef.h</text>
</a>
</g>
</g>
<!-- Node6&#45;&gt;Node7 -->
<g id="edge6" class="edge">
<title>Node6&#45;&gt;Node7</title>
<path fill="none" stroke="#191970" d="M119.3583,-56.2455C113.6556,-48.4564 105.51,-37.3308 98.6375,-27.9439"/>
<polygon fill="#191970" stroke="#191970" points="101.2913,-25.6437 92.5598,-19.6427 95.6432,-29.7789 101.2913,-25.6437"/>
</g>
<!-- Node8 -->
<g id="node8" class="node">
<title>Node8</title>
<g id="a_node8"><a xlink:href="tamtypes_8h.html" target="_top" xlink:title=" ">
<polygon fill="#ffffff" stroke="#000000" points="131.5,-.5 131.5,-19.5 203.5,-19.5 203.5,-.5 131.5,-.5"/>
<text text-anchor="middle" x="167.5" y="-7.5" font-family="Helvetica,sans-Serif" font-size="10.00" fill="#000000">tamtypes.h</text>
</a>
</g>
</g>
<!-- Node6&#45;&gt;Node8 -->
<g id="edge7" class="edge">
<title>Node6&#45;&gt;Node8</title>
<path fill="none" stroke="#191970" d="M133.6417,-56.2455C139.3444,-48.4564 147.49,-37.3308 154.3625,-27.9439"/>
<polygon fill="#191970" stroke="#191970" points="157.3568,-29.7789 160.4402,-19.6427 151.7087,-25.6437 157.3568,-29.7789"/>
</g>
<!-- Node12 -->
<g id="node12" class="node">
<title>Node12</title>
<g id="a_node12"><a xlink:title=" ">
<polygon fill="#ffffff" stroke="#bfbfbf" points="288,-112.5 288,-131.5 341,-131.5 341,-112.5 288,-112.5"/>
<text text-anchor="middle" x="314.5" y="-119.5" font-family="Helvetica,sans-Serif" font-size="10.00" fill="#000000">types.h</text>
</a>
</g>
</g>
<!-- Node11&#45;&gt;Node12 -->
<g id="edge11" class="edge">
<title>Node11&#45;&gt;Node12</title>
<path fill="none" stroke="#191970" d="M314.5,-168.2455C314.5,-160.9382 314.5,-150.6944 314.5,-141.7046"/>
<polygon fill="#191970" stroke="#191970" points="318.0001,-141.6426 314.5,-131.6427 311.0001,-141.6427 318.0001,-141.6426"/>
</g>
</g>
</svg>
