<?xml version="1.0" encoding="UTF-8" standalone="no"?>
<!DOCTYPE svg PUBLIC "-//W3C//DTD SVG 1.1//EN"
 "http://www.w3.org/Graphics/SVG/1.1/DTD/svg11.dtd">
<!-- Generated by graphviz version 2.40.1 (20161225.0304)
 -->
<!-- Title: iop/kernel/include/cdvdman.h Pages: 1 -->
<svg width="188pt" height="207pt"
 viewBox="0.00 0.00 187.50 207.00" xmlns="http://www.w3.org/2000/svg" xmlns:xlink="http://www.w3.org/1999/xlink">
<g id="graph0" class="graph" transform="scale(1 1) rotate(0) translate(4 203)">
<title>iop/kernel/include/cdvdman.h</title>
<polygon fill="#ffffff" stroke="transparent" points="-4,4 -4,-203 183.5,-203 183.5,4 -4,4"/>
<!-- Node1 -->
<g id="node1" class="node">
<title>Node1</title>
<g id="a_node1"><a xlink:title=" ">
<polygon fill="#bfbfbf" stroke="#000000" points="23,-168.5 23,-198.5 127,-198.5 127,-168.5 23,-168.5"/>
<text text-anchor="start" x="31" y="-186.5" font-family="Helvetica,sans-Serif" font-size="10.00" fill="#000000">iop/kernel/include</text>
<text text-anchor="middle" x="75" y="-175.5" font-family="Helvetica,sans-Serif" font-size="10.00" fill="#000000">/cdvdman.h</text>
</a>
</g>
</g>
<!-- Node2 -->
<g id="node2" class="node">
<title>Node2</title>
<g id="a_node2"><a xlink:href="types_8h.html" target="_top" xlink:title=" ">
<polygon fill="#ffffff" stroke="#000000" points="1.5,-56.5 1.5,-75.5 54.5,-75.5 54.5,-56.5 1.5,-56.5"/>
<text text-anchor="middle" x="28" y="-63.5" font-family="Helvetica,sans-Serif" font-size="10.00" fill="#000000">types.h</text>
</a>
</g>
</g>
<!-- Node1&#45;&gt;Node2 -->
<g id="edge1" class="edge">
<title>Node1&#45;&gt;Node2</title>
<path fill="none" stroke="#191970" d="M65.5088,-168.156C59.603,-158.1365 52.1739,-144.6176 47,-132 40.7798,-116.8307 35.7602,-98.9165 32.446,-85.5821"/>
<polygon fill="#191970" stroke="#191970" points="35.795,-84.5367 30.0742,-75.6191 28.9853,-86.1579 35.795,-84.5367"/>
</g>
<!-- Node5 -->
<g id="node5" class="node">
<title>Node5</title>
<g id="a_node5"><a xlink:href="irx_8h.html" target="_top" xlink:title=" ">
<polygon fill="#ffffff" stroke="#000000" points="56,-112.5 56,-131.5 94,-131.5 94,-112.5 56,-112.5"/>
<text text-anchor="middle" x="75" y="-119.5" font-family="Helvetica,sans-Serif" font-size="10.00" fill="#000000">irx.h</text>
</a>
</g>
</g>
<!-- Node1&#45;&gt;Node5 -->
<g id="edge4" class="edge">
<title>Node1&#45;&gt;Node5</title>
<path fill="none" stroke="#191970" d="M75,-168.2977C75,-160.3834 75,-150.6043 75,-142.0759"/>
<polygon fill="#191970" stroke="#191970" points="78.5001,-141.8469 75,-131.8469 71.5001,-141.847 78.5001,-141.8469"/>
</g>
<!-- Node6 -->
<g id="node6" class="node">
<title>Node6</title>
<g id="a_node6"><a xlink:href="libcdvd-common_8h.html" target="_top" xlink:title=" ">
<polygon fill="#ffffff" stroke="#000000" points="72.5,-56.5 72.5,-75.5 179.5,-75.5 179.5,-56.5 72.5,-56.5"/>
<text text-anchor="middle" x="126" y="-63.5" font-family="Helvetica,sans-Serif" font-size="10.00" fill="#000000">libcdvd&#45;common.h</text>
</a>
</g>
</g>
<!-- Node1&#45;&gt;Node6 -->
<g id="edge6" class="edge">
<title>Node1&#45;&gt;Node6</title>
<path fill="none" stroke="#191970" d="M84.256,-168.0558C90.0681,-157.9963 97.481,-144.4705 103,-132 109.7523,-116.7429 115.8863,-98.8352 120.1183,-85.5256"/>
<polygon fill="#191970" stroke="#191970" points="123.5815,-86.1741 123.1976,-75.5862 116.895,-84.1025 123.5815,-86.1741"/>
</g>
<!-- Node3 -->
<g id="node3" class="node">
<title>Node3</title>
<g id="a_node3"><a xlink:title=" ">
<polygon fill="#ffffff" stroke="#bfbfbf" points="0,-.5 0,-19.5 56,-19.5 56,-.5 0,-.5"/>
<text text-anchor="middle" x="28" y="-7.5" font-family="Helvetica,sans-Serif" font-size="10.00" fill="#000000">stddef.h</text>
</a>
</g>
</g>
<!-- Node2&#45;&gt;Node3 -->
<g id="edge2" class="edge">
<title>Node2&#45;&gt;Node3</title>
<path fill="none" stroke="#191970" d="M28,-56.2455C28,-48.9382 28,-38.6944 28,-29.7046"/>
<polygon fill="#191970" stroke="#191970" points="31.5001,-29.6426 28,-19.6427 24.5001,-29.6427 31.5001,-29.6426"/>
</g>
<!-- Node4 -->
<g id="node4" class="node">
<title>Node4</title>
<g id="a_node4"><a xlink:href="tamtypes_8h.html" target="_top" xlink:title=" ">
<polygon fill="#ffffff" stroke="#000000" points="82,-.5 82,-19.5 154,-19.5 154,-.5 82,-.5"/>
<text text-anchor="middle" x="118" y="-7.5" font-family="Helvetica,sans-Serif" font-size="10.00" fill="#000000">tamtypes.h</text>
</a>
</g>
</g>
<!-- Node2&#45;&gt;Node4 -->
<g id="edge3" class="edge">
<title>Node2&#45;&gt;Node4</title>
<path fill="none" stroke="#191970" d="M43.6768,-56.2455C57.4856,-47.6534 77.8193,-35.0014 93.7292,-25.1018"/>
<polygon fill="#191970" stroke="#191970" points="95.8613,-27.8974 102.5028,-19.6427 92.1632,-21.954 95.8613,-27.8974"/>
</g>
<!-- Node5&#45;&gt;Node2 -->
<g id="edge5" class="edge">
<title>Node5&#45;&gt;Node2</title>
<path fill="none" stroke="#191970" d="M66.8132,-112.2455C60.1411,-104.2958 50.5521,-92.8706 42.5747,-83.3656"/>
<polygon fill="#191970" stroke="#191970" points="45.2026,-81.0524 36.093,-75.6427 39.8408,-85.5525 45.2026,-81.0524"/>
</g>
<!-- Node6&#45;&gt;Node4 -->
<g id="edge7" class="edge">
<title>Node6&#45;&gt;Node4</title>
<path fill="none" stroke="#191970" d="M124.6065,-56.2455C123.5626,-48.9382 122.0992,-38.6944 120.8149,-29.7046"/>
<polygon fill="#191970" stroke="#191970" points="124.2566,-29.0472 119.3775,-19.6427 117.327,-30.0372 124.2566,-29.0472"/>
</g>
</g>
</svg>
