<?xml version="1.0" encoding="UTF-8" standalone="no"?>
<!DOCTYPE svg PUBLIC "-//W3C//DTD SVG 1.1//EN"
 "http://www.w3.org/Graphics/SVG/1.1/DTD/svg11.dtd">
<!-- Generated by graphviz version 2.40.1 (20161225.0304)
 -->
<!-- Title: iop/cdvd/cdfs/src/irx_imports.h Pages: 1 -->
<svg width="780pt" height="263pt"
 viewBox="0.00 0.00 780.00 263.00" xmlns="http://www.w3.org/2000/svg" xmlns:xlink="http://www.w3.org/1999/xlink">
<g id="graph0" class="graph" transform="scale(1 1) rotate(0) translate(4 259)">
<title>iop/cdvd/cdfs/src/irx_imports.h</title>
<polygon fill="#ffffff" stroke="transparent" points="-4,4 -4,-259 776,-259 776,4 -4,4"/>
<!-- Node1 -->
<g id="node1" class="node">
<title>Node1</title>
<g id="a_node1"><a xlink:title=" ">
<polygon fill="#bfbfbf" stroke="#000000" points="346.5,-224.5 346.5,-254.5 460.5,-254.5 460.5,-224.5 346.5,-224.5"/>
<text text-anchor="start" x="354.5" y="-242.5" font-family="Helvetica,sans-Serif" font-size="10.00" fill="#000000">iop/cdvd/cdfs/src/irx</text>
<text text-anchor="middle" x="403.5" y="-231.5" font-family="Helvetica,sans-Serif" font-size="10.00" fill="#000000">_imports.h</text>
</a>
</g>
</g>
<!-- Node2 -->
<g id="node2" class="node">
<title>Node2</title>
<g id="a_node2"><a xlink:href="irx_8h.html" target="_top" xlink:title=" ">
<polygon fill="#ffffff" stroke="#000000" points="366.5,-112.5 366.5,-131.5 404.5,-131.5 404.5,-112.5 366.5,-112.5"/>
<text text-anchor="middle" x="385.5" y="-119.5" font-family="Helvetica,sans-Serif" font-size="10.00" fill="#000000">irx.h</text>
</a>
</g>
</g>
<!-- Node1&#45;&gt;Node2 -->
<g id="edge1" class="edge">
<title>Node1&#45;&gt;Node2</title>
<path fill="none" stroke="#191970" d="M400.2384,-224.2267C398.1289,-214.0059 395.427,-200.236 393.5,-188 391.0835,-172.6558 388.9968,-155.2049 387.561,-142.1027"/>
<polygon fill="#191970" stroke="#191970" points="391.011,-141.445 386.4749,-131.8703 384.0501,-142.1839 391.011,-141.445"/>
</g>
<!-- Node6 -->
<g id="node6" class="node">
<title>Node6</title>
<g id="a_node6"><a xlink:href="cdvdman_8h.html" target="_top" xlink:title=" ">
<polygon fill="#ffffff" stroke="#000000" points="41,-168.5 41,-187.5 112,-187.5 112,-168.5 41,-168.5"/>
<text text-anchor="middle" x="76.5" y="-175.5" font-family="Helvetica,sans-Serif" font-size="10.00" fill="#000000">cdvdman.h</text>
</a>
</g>
</g>
<!-- Node1&#45;&gt;Node6 -->
<g id="edge5" class="edge">
<title>Node1&#45;&gt;Node6</title>
<path fill="none" stroke="#191970" d="M346.3957,-229.7279C291.515,-220.1878 206.001,-204.9353 122.2705,-188.0993"/>
<polygon fill="#191970" stroke="#191970" points="122.8303,-184.6417 112.3352,-186.0923 121.4442,-191.5031 122.8303,-184.6417"/>
</g>
<!-- Node8 -->
<g id="node8" class="node">
<title>Node8</title>
<g id="a_node8"><a xlink:href="intrman_8h.html" target="_top" xlink:title=" ">
<polygon fill="#ffffff" stroke="#000000" points="204.5,-168.5 204.5,-187.5 268.5,-187.5 268.5,-168.5 204.5,-168.5"/>
<text text-anchor="middle" x="236.5" y="-175.5" font-family="Helvetica,sans-Serif" font-size="10.00" fill="#000000">intrman.h</text>
</a>
</g>
</g>
<!-- Node1&#45;&gt;Node8 -->
<g id="edge10" class="edge">
<title>Node1&#45;&gt;Node8</title>
<path fill="none" stroke="#191970" d="M362.6472,-224.4554C334.905,-214.239 298.5775,-200.8609 272.0345,-191.0861"/>
<polygon fill="#191970" stroke="#191970" points="272.9725,-187.7018 262.3791,-187.5303 270.5535,-194.2705 272.9725,-187.7018"/>
</g>
<!-- Node9 -->
<g id="node9" class="node">
<title>Node9</title>
<g id="a_node9"><a xlink:href="ioman_8h.html" target="_top" xlink:title=" ">
<polygon fill="#ffffff" stroke="#000000" points="130.5,-168.5 130.5,-187.5 186.5,-187.5 186.5,-168.5 130.5,-168.5"/>
<text text-anchor="middle" x="158.5" y="-175.5" font-family="Helvetica,sans-Serif" font-size="10.00" fill="#000000">ioman.h</text>
</a>
</g>
</g>
<!-- Node1&#45;&gt;Node9 -->
<g id="edge13" class="edge">
<title>Node1&#45;&gt;Node9</title>
<path fill="none" stroke="#191970" d="M346.4752,-225.7266C306.9207,-216.0934 252.7737,-202.7499 196.5429,-188.2358"/>
<polygon fill="#191970" stroke="#191970" points="197.3233,-184.8225 186.7654,-185.7056 195.5696,-191.5993 197.3233,-184.8225"/>
</g>
<!-- Node13 -->
<g id="node13" class="node">
<title>Node13</title>
<g id="a_node13"><a xlink:href="sifcmd_8h.html" target="_top" xlink:title=" ">
<polygon fill="#ffffff" stroke="#000000" points="287,-168.5 287,-187.5 346,-187.5 346,-168.5 287,-168.5"/>
<text text-anchor="middle" x="316.5" y="-175.5" font-family="Helvetica,sans-Serif" font-size="10.00" fill="#000000">sifcmd.h</text>
</a>
</g>
</g>
<!-- Node1&#45;&gt;Node13 -->
<g id="edge19" class="edge">
<title>Node1&#45;&gt;Node13</title>
<path fill="none" stroke="#191970" d="M381.9944,-224.2977C368.7032,-214.9022 351.6943,-202.8787 338.3412,-193.4395"/>
<polygon fill="#191970" stroke="#191970" points="340.3561,-190.5776 330.17,-187.6633 336.3154,-196.2937 340.3561,-190.5776"/>
</g>
<!-- Node14 -->
<g id="node14" class="node">
<title>Node14</title>
<g id="a_node14"><a xlink:href="sifman_8h.html" target="_top" xlink:title=" ">
<polygon fill="#ffffff" stroke="#000000" points="403,-168.5 403,-187.5 462,-187.5 462,-168.5 403,-168.5"/>
<text text-anchor="middle" x="432.5" y="-175.5" font-family="Helvetica,sans-Serif" font-size="10.00" fill="#000000">sifman.h</text>
</a>
</g>
</g>
<!-- Node1&#45;&gt;Node14 -->
<g id="edge22" class="edge">
<title>Node1&#45;&gt;Node14</title>
<path fill="none" stroke="#191970" d="M410.6685,-224.2977C414.5682,-216.0277 419.428,-205.7215 423.5718,-196.9339"/>
<polygon fill="#191970" stroke="#191970" points="426.7573,-198.3846 427.8567,-187.8469 420.4259,-195.399 426.7573,-198.3846"/>
</g>
<!-- Node15 -->
<g id="node15" class="node">
<title>Node15</title>
<g id="a_node15"><a xlink:href="stdio_8h.html" target="_top" xlink:title=" ">
<polygon fill="#ffffff" stroke="#000000" points="480.5,-168.5 480.5,-187.5 530.5,-187.5 530.5,-168.5 480.5,-168.5"/>
<text text-anchor="middle" x="505.5" y="-175.5" font-family="Helvetica,sans-Serif" font-size="10.00" fill="#000000">stdio.h</text>
</a>
</g>
</g>
<!-- Node1&#45;&gt;Node15 -->
<g id="edge25" class="edge">
<title>Node1&#45;&gt;Node15</title>
<path fill="none" stroke="#191970" d="M428.452,-224.4554C444.4259,-214.8241 465.0602,-202.3828 480.9543,-192.7996"/>
<polygon fill="#191970" stroke="#191970" points="482.937,-195.6912 489.6936,-187.5303 479.3226,-189.6965 482.937,-195.6912"/>
</g>
<!-- Node17 -->
<g id="node17" class="node">
<title>Node17</title>
<g id="a_node17"><a xlink:href="sysclib_8h.html" target="_top" xlink:title=" ">
<polygon fill="#ffffff" stroke="#000000" points="549,-168.5 549,-187.5 608,-187.5 608,-168.5 549,-168.5"/>
<text text-anchor="middle" x="578.5" y="-175.5" font-family="Helvetica,sans-Serif" font-size="10.00" fill="#000000">sysclib.h</text>
</a>
</g>
</g>
<!-- Node1&#45;&gt;Node17 -->
<g id="edge28" class="edge">
<title>Node1&#45;&gt;Node17</title>
<path fill="none" stroke="#191970" d="M446.3098,-224.4554C475.509,-214.194 513.7843,-200.7429 541.6302,-190.9571"/>
<polygon fill="#191970" stroke="#191970" points="543.1073,-194.1479 551.3812,-187.5303 540.7864,-187.5439 543.1073,-194.1479"/>
</g>
<!-- Node19 -->
<g id="node19" class="node">
<title>Node19</title>
<g id="a_node19"><a xlink:href="sysmem_8h.html" target="_top" xlink:title=" ">
<polygon fill="#ffffff" stroke="#000000" points="626.5,-168.5 626.5,-187.5 694.5,-187.5 694.5,-168.5 626.5,-168.5"/>
<text text-anchor="middle" x="660.5" y="-175.5" font-family="Helvetica,sans-Serif" font-size="10.00" fill="#000000">sysmem.h</text>
</a>
</g>
</g>
<!-- Node1&#45;&gt;Node19 -->
<g id="edge34" class="edge">
<title>Node1&#45;&gt;Node19</title>
<path fill="none" stroke="#191970" d="M460.5366,-225.8512C507.6316,-214.5813 573.5045,-198.818 616.5744,-188.5114"/>
<polygon fill="#191970" stroke="#191970" points="617.561,-191.8742 626.4719,-186.1429 615.9319,-185.0664 617.561,-191.8742"/>
</g>
<!-- Node20 -->
<g id="node20" class="node">
<title>Node20</title>
<g id="a_node20"><a xlink:href="thbase_8h.html" target="_top" xlink:title=" ">
<polygon fill="#ffffff" stroke="#000000" points="713,-168.5 713,-187.5 772,-187.5 772,-168.5 713,-168.5"/>
<text text-anchor="middle" x="742.5" y="-175.5" font-family="Helvetica,sans-Serif" font-size="10.00" fill="#000000">thbase.h</text>
</a>
</g>
</g>
<!-- Node1&#45;&gt;Node20 -->
<g id="edge38" class="edge">
<title>Node1&#45;&gt;Node20</title>
<path fill="none" stroke="#191970" d="M460.7171,-231.0894C519.1495,-222.1826 612.661,-207.0544 702.899,-187.9924"/>
<polygon fill="#191970" stroke="#191970" points="703.6974,-191.4009 712.7481,-185.8931 702.2382,-184.5547 703.6974,-191.4009"/>
</g>
<!-- Node3 -->
<g id="node3" class="node">
<title>Node3</title>
<g id="a_node3"><a xlink:href="types_8h.html" target="_top" xlink:title=" ">
<polygon fill="#ffffff" stroke="#000000" points="359,-56.5 359,-75.5 412,-75.5 412,-56.5 359,-56.5"/>
<text text-anchor="middle" x="385.5" y="-63.5" font-family="Helvetica,sans-Serif" font-size="10.00" fill="#000000">types.h</text>
</a>
</g>
</g>
<!-- Node2&#45;&gt;Node3 -->
<g id="edge2" class="edge">
<title>Node2&#45;&gt;Node3</title>
<path fill="none" stroke="#191970" d="M385.5,-112.2455C385.5,-104.9382 385.5,-94.6944 385.5,-85.7046"/>
<polygon fill="#191970" stroke="#191970" points="389.0001,-85.6426 385.5,-75.6427 382.0001,-85.6427 389.0001,-85.6426"/>
</g>
<!-- Node4 -->
<g id="node4" class="node">
<title>Node4</title>
<g id="a_node4"><a xlink:title=" ">
<polygon fill="#ffffff" stroke="#bfbfbf" points="316.5,-.5 316.5,-19.5 372.5,-19.5 372.5,-.5 316.5,-.5"/>
<text text-anchor="middle" x="344.5" y="-7.5" font-family="Helvetica,sans-Serif" font-size="10.00" fill="#000000">stddef.h</text>
</a>
</g>
</g>
<!-- Node3&#45;&gt;Node4 -->
<g id="edge3" class="edge">
<title>Node3&#45;&gt;Node4</title>
<path fill="none" stroke="#191970" d="M378.3583,-56.2455C372.6556,-48.4564 364.51,-37.3308 357.6375,-27.9439"/>
<polygon fill="#191970" stroke="#191970" points="360.2913,-25.6437 351.5598,-19.6427 354.6432,-29.7789 360.2913,-25.6437"/>
</g>
<!-- Node5 -->
<g id="node5" class="node">
<title>Node5</title>
<g id="a_node5"><a xlink:href="tamtypes_8h.html" target="_top" xlink:title=" ">
<polygon fill="#ffffff" stroke="#000000" points="390.5,-.5 390.5,-19.5 462.5,-19.5 462.5,-.5 390.5,-.5"/>
<text text-anchor="middle" x="426.5" y="-7.5" font-family="Helvetica,sans-Serif" font-size="10.00" fill="#000000">tamtypes.h</text>
</a>
</g>
</g>
<!-- Node3&#45;&gt;Node5 -->
<g id="edge4" class="edge">
<title>Node3&#45;&gt;Node5</title>
<path fill="none" stroke="#191970" d="M392.6417,-56.2455C398.3444,-48.4564 406.49,-37.3308 413.3625,-27.9439"/>
<polygon fill="#191970" stroke="#191970" points="416.3568,-29.7789 419.4402,-19.6427 410.7087,-25.6437 416.3568,-29.7789"/>
</g>
<!-- Node6&#45;&gt;Node2 -->
<g id="edge7" class="edge">
<title>Node6&#45;&gt;Node2</title>
<path fill="none" stroke="#191970" d="M112.33,-169.8814C115.4277,-169.2269 118.5168,-168.591 121.5,-168 206.356,-151.1881 307.2172,-134.531 356.069,-126.6728"/>
<polygon fill="#191970" stroke="#191970" points="356.9109,-130.0826 366.2312,-125.0445 355.8034,-123.1708 356.9109,-130.0826"/>
</g>
<!-- Node6&#45;&gt;Node3 -->
<g id="edge6" class="edge">
<title>Node6&#45;&gt;Node3</title>
<path fill="none" stroke="#191970" d="M104.0696,-168.4103C130.0625,-159.2938 170.0599,-145.0717 204.5,-132 226.8765,-123.507 232.0926,-120.4112 254.5,-112 286.3167,-100.0568 322.8218,-87.3164 349.2008,-78.2795"/>
<polygon fill="#191970" stroke="#191970" points="350.4519,-81.5507 358.7842,-75.0067 348.1896,-74.9264 350.4519,-81.5507"/>
</g>
<!-- Node7 -->
<g id="node7" class="node">
<title>Node7</title>
<g id="a_node7"><a xlink:href="libcdvd-common_8h.html" target="_top" xlink:title=" ">
<polygon fill="#ffffff" stroke="#000000" points="0,-56.5 0,-75.5 107,-75.5 107,-56.5 0,-56.5"/>
<text text-anchor="middle" x="53.5" y="-63.5" font-family="Helvetica,sans-Serif" font-size="10.00" fill="#000000">libcdvd&#45;common.h</text>
</a>
</g>
</g>
<!-- Node6&#45;&gt;Node7 -->
<g id="edge8" class="edge">
<title>Node6&#45;&gt;Node7</title>
<path fill="none" stroke="#191970" d="M74.539,-168.4509C70.7708,-150.1013 62.4517,-109.5908 57.4776,-85.3693"/>
<polygon fill="#191970" stroke="#191970" points="60.8961,-84.6164 55.456,-75.5249 54.0392,-86.0246 60.8961,-84.6164"/>
</g>
<!-- Node7&#45;&gt;Node5 -->
<g id="edge9" class="edge">
<title>Node7&#45;&gt;Node5</title>
<path fill="none" stroke="#191970" d="M107.2556,-57.2441C110.0428,-56.8169 112.8037,-56.3998 115.5,-56 230.2827,-38.9789 262.3195,-40.8389 380.066,-20.141"/>
<polygon fill="#191970" stroke="#191970" points="380.9694,-23.5354 390.2034,-18.3409 379.7455,-16.6432 380.9694,-23.5354"/>
</g>
<!-- Node8&#45;&gt;Node2 -->
<g id="edge12" class="edge">
<title>Node8&#45;&gt;Node2</title>
<path fill="none" stroke="#191970" d="M262.114,-168.3733C288.4954,-158.4581 329.5196,-143.0396 356.9342,-132.7361"/>
<polygon fill="#191970" stroke="#191970" points="358.2369,-135.9856 366.3663,-129.1912 355.7742,-129.4331 358.2369,-135.9856"/>
</g>
<!-- Node8&#45;&gt;Node3 -->
<g id="edge11" class="edge">
<title>Node8&#45;&gt;Node3</title>
<path fill="none" stroke="#191970" d="M249.2037,-168.4509C274.9348,-149.1094 333.4211,-105.1465 364.7592,-81.5904"/>
<polygon fill="#191970" stroke="#191970" points="366.9379,-84.3313 372.8285,-75.5249 362.7319,-78.7358 366.9379,-84.3313"/>
</g>
<!-- Node9&#45;&gt;Node2 -->
<g id="edge15" class="edge">
<title>Node9&#45;&gt;Node2</title>
<path fill="none" stroke="#191970" d="M186.7615,-170.2793C189.7095,-169.4986 192.6638,-168.7265 195.5,-168 252.2057,-153.4754 318.7459,-137.6422 356.1297,-128.8565"/>
<polygon fill="#191970" stroke="#191970" points="357.374,-132.1598 366.3106,-126.4688 355.7756,-125.3447 357.374,-132.1598"/>
</g>
<!-- Node9&#45;&gt;Node3 -->
<g id="edge14" class="edge">
<title>Node9&#45;&gt;Node3</title>
<path fill="none" stroke="#191970" d="M177.8539,-168.4509C217.9764,-148.6548 310.3746,-103.0663 357.1984,-79.9638"/>
<polygon fill="#191970" stroke="#191970" points="358.7759,-83.0884 366.1951,-75.5249 355.6786,-76.8109 358.7759,-83.0884"/>
</g>
<!-- Node10 -->
<g id="node10" class="node">
<title>Node10</title>
<g id="a_node10"><a xlink:href="io__common_8h.html" target="_top" xlink:title=" ">
<polygon fill="#ffffff" stroke="#000000" points="113,-112.5 113,-131.5 196,-131.5 196,-112.5 113,-112.5"/>
<text text-anchor="middle" x="154.5" y="-119.5" font-family="Helvetica,sans-Serif" font-size="10.00" fill="#000000">io_common.h</text>
</a>
</g>
</g>
<!-- Node9&#45;&gt;Node10 -->
<g id="edge16" class="edge">
<title>Node9&#45;&gt;Node10</title>
<path fill="none" stroke="#191970" d="M157.8033,-168.2455C157.2813,-160.9382 156.5496,-150.6944 155.9075,-141.7046"/>
<polygon fill="#191970" stroke="#191970" points="159.3924,-141.3679 155.1888,-131.6427 152.4102,-141.8667 159.3924,-141.3679"/>
</g>
<!-- Node11 -->
<g id="node11" class="node">
<title>Node11</title>
<g id="a_node11"><a xlink:href="fcntl_8h.html" target="_top" xlink:title=" ">
<polygon fill="#ffffff" stroke="#000000" points="218,-56.5 218,-75.5 285,-75.5 285,-56.5 218,-56.5"/>
<text text-anchor="middle" x="251.5" y="-63.5" font-family="Helvetica,sans-Serif" font-size="10.00" fill="#000000">sys/fcntl.h</text>
</a>
</g>
</g>
<!-- Node10&#45;&gt;Node11 -->
<g id="edge17" class="edge">
<title>Node10&#45;&gt;Node11</title>
<path fill="none" stroke="#191970" d="M171.3961,-112.2455C186.418,-103.5731 208.6043,-90.7645 225.821,-80.825"/>
<polygon fill="#191970" stroke="#191970" points="227.8871,-83.6737 234.7975,-75.6427 224.3872,-77.6114 227.8871,-83.6737"/>
</g>
<!-- Node12 -->
<g id="node12" class="node">
<title>Node12</title>
<g id="a_node12"><a xlink:href="unistd_8h.html" target="_top" xlink:title=" ">
<polygon fill="#ffffff" stroke="#000000" points="125,-56.5 125,-75.5 200,-75.5 200,-56.5 125,-56.5"/>
<text text-anchor="middle" x="162.5" y="-63.5" font-family="Helvetica,sans-Serif" font-size="10.00" fill="#000000">sys/unistd.h</text>
</a>
</g>
</g>
<!-- Node10&#45;&gt;Node12 -->
<g id="edge18" class="edge">
<title>Node10&#45;&gt;Node12</title>
<path fill="none" stroke="#191970" d="M155.8935,-112.2455C156.9374,-104.9382 158.4008,-94.6944 159.6851,-85.7046"/>
<polygon fill="#191970" stroke="#191970" points="163.173,-86.0372 161.1225,-75.6427 156.2434,-85.0472 163.173,-86.0372"/>
</g>
<!-- Node13&#45;&gt;Node2 -->
<g id="edge21" class="edge">
<title>Node13&#45;&gt;Node2</title>
<path fill="none" stroke="#191970" d="M328.5189,-168.2455C338.7098,-159.9746 353.5362,-147.9416 365.5107,-138.2232"/>
<polygon fill="#191970" stroke="#191970" points="368.0598,-140.662 373.6188,-131.6427 363.6486,-135.2268 368.0598,-140.662"/>
</g>
<!-- Node13&#45;&gt;Node3 -->
<g id="edge20" class="edge">
<title>Node13&#45;&gt;Node3</title>
<path fill="none" stroke="#191970" d="M322.3829,-168.4509C333.8913,-149.7707 359.5488,-108.1238 374.3638,-84.0761"/>
<polygon fill="#191970" stroke="#191970" points="377.3666,-85.8747 379.632,-75.5249 371.4068,-82.203 377.3666,-85.8747"/>
</g>
<!-- Node14&#45;&gt;Node2 -->
<g id="edge24" class="edge">
<title>Node14&#45;&gt;Node2</title>
<path fill="none" stroke="#191970" d="M424.3132,-168.2455C417.6411,-160.2958 408.0521,-148.8706 400.0747,-139.3656"/>
<polygon fill="#191970" stroke="#191970" points="402.7026,-137.0524 393.593,-131.6427 397.3408,-141.5525 402.7026,-137.0524"/>
</g>
<!-- Node14&#45;&gt;Node3 -->
<g id="edge23" class="edge">
<title>Node14&#45;&gt;Node3</title>
<path fill="none" stroke="#191970" d="M430.5639,-168.3223C427.7513,-155.2057 421.9333,-131.2166 413.5,-112 409.2962,-102.4209 403.4182,-92.4278 398.1326,-84.2126"/>
<polygon fill="#191970" stroke="#191970" points="400.9931,-82.1934 392.5375,-75.8095 395.1665,-86.073 400.9931,-82.1934"/>
</g>
<!-- Node15&#45;&gt;Node2 -->
<g id="edge27" class="edge">
<title>Node15&#45;&gt;Node2</title>
<path fill="none" stroke="#191970" d="M484.8713,-168.3733C465.2579,-159.2204 435.5952,-145.3778 413.7821,-135.1983"/>
<polygon fill="#191970" stroke="#191970" points="415.2139,-132.0042 404.672,-130.9469 412.2537,-138.3475 415.2139,-132.0042"/>
</g>
<!-- Node16 -->
<g id="node16" class="node">
<title>Node16</title>
<g id="a_node16"><a xlink:title=" ">
<polygon fill="#ffffff" stroke="#bfbfbf" points="576.5,-112.5 576.5,-131.5 632.5,-131.5 632.5,-112.5 576.5,-112.5"/>
<text text-anchor="middle" x="604.5" y="-119.5" font-family="Helvetica,sans-Serif" font-size="10.00" fill="#000000">stdarg.h</text>
</a>
</g>
</g>
<!-- Node15&#45;&gt;Node16 -->
<g id="edge26" class="edge">
<title>Node15&#45;&gt;Node16</title>
<path fill="none" stroke="#191970" d="M522.7445,-168.2455C538.0761,-159.5731 560.7199,-146.7645 578.2916,-136.825"/>
<polygon fill="#191970" stroke="#191970" points="580.4724,-139.6126 587.4531,-131.6427 577.0259,-133.5198 580.4724,-139.6126"/>
</g>
<!-- Node17&#45;&gt;Node2 -->
<g id="edge30" class="edge">
<title>Node17&#45;&gt;Node2</title>
<path fill="none" stroke="#191970" d="M548.7667,-169.3727C512.2923,-158.7895 450.8571,-140.9637 414.6509,-130.4583"/>
<polygon fill="#191970" stroke="#191970" points="415.2939,-127.0006 404.7146,-127.5752 413.3432,-133.7233 415.2939,-127.0006"/>
</g>
<!-- Node17&#45;&gt;Node3 -->
<g id="edge29" class="edge">
<title>Node17&#45;&gt;Node3</title>
<path fill="none" stroke="#191970" d="M559.0349,-168.3846C541.0427,-159.3655 513.6699,-145.3097 490.5,-132 461.7137,-115.464 429.5145,-94.9057 408.4553,-81.1685"/>
<polygon fill="#191970" stroke="#191970" points="410.1678,-78.1062 399.8852,-75.5532 406.3314,-83.9613 410.1678,-78.1062"/>
</g>
<!-- Node17&#45;&gt;Node16 -->
<g id="edge31" class="edge">
<title>Node17&#45;&gt;Node16</title>
<path fill="none" stroke="#191970" d="M583.0289,-168.2455C586.5334,-160.6973 591.4927,-150.0158 595.7623,-140.8197"/>
<polygon fill="#191970" stroke="#191970" points="598.9864,-142.1867 600.023,-131.6427 592.6373,-139.2389 598.9864,-142.1867"/>
</g>
<!-- Node18 -->
<g id="node18" class="node">
<title>Node18</title>
<g id="a_node18"><a xlink:href="setjmp_8h.html" target="_top" xlink:title=" ">
<polygon fill="#ffffff" stroke="#000000" points="499,-112.5 499,-131.5 558,-131.5 558,-112.5 499,-112.5"/>
<text text-anchor="middle" x="528.5" y="-119.5" font-family="Helvetica,sans-Serif" font-size="10.00" fill="#000000">setjmp.h</text>
</a>
</g>
</g>
<!-- Node17&#45;&gt;Node18 -->
<g id="edge32" class="edge">
<title>Node17&#45;&gt;Node18</title>
<path fill="none" stroke="#191970" d="M569.7907,-168.2455C562.6927,-160.2958 552.4916,-148.8706 544.005,-139.3656"/>
<polygon fill="#191970" stroke="#191970" points="546.3805,-136.771 537.1095,-131.6427 541.1589,-141.4331 546.3805,-136.771"/>
</g>
<!-- Node18&#45;&gt;Node5 -->
<g id="edge33" class="edge">
<title>Node18&#45;&gt;Node5</title>
<path fill="none" stroke="#191970" d="M519.8035,-112.4509C502.5653,-93.5227 463.8521,-51.014 442.0986,-27.1279"/>
<polygon fill="#191970" stroke="#191970" points="444.4955,-24.5617 435.1745,-19.5249 439.3201,-29.275 444.4955,-24.5617"/>
</g>
<!-- Node19&#45;&gt;Node2 -->
<g id="edge36" class="edge">
<title>Node19&#45;&gt;Node2</title>
<path fill="none" stroke="#191970" d="M626.2552,-169.9295C623.2966,-169.2646 620.3472,-168.6132 617.5,-168 544.8155,-152.3469 458.886,-135.8239 414.8108,-127.4925"/>
<polygon fill="#191970" stroke="#191970" points="415.2683,-124.0172 404.793,-125.6039 413.9714,-130.896 415.2683,-124.0172"/>
</g>
<!-- Node19&#45;&gt;Node3 -->
<g id="edge35" class="edge">
<title>Node19&#45;&gt;Node3</title>
<path fill="none" stroke="#191970" d="M660.6936,-168.2883C660.4174,-153.7637 657.611,-126.5387 641.5,-112 609.8091,-83.4019 485.2998,-71.9554 422.3545,-67.9246"/>
<polygon fill="#191970" stroke="#191970" points="422.2727,-64.4132 412.0781,-67.2976 421.8463,-71.4002 422.2727,-64.4132"/>
</g>
<!-- Node19&#45;&gt;Node16 -->
<g id="edge37" class="edge">
<title>Node19&#45;&gt;Node16</title>
<path fill="none" stroke="#191970" d="M650.7455,-168.2455C642.6352,-160.1352 630.9075,-148.4075 621.2919,-138.7919"/>
<polygon fill="#191970" stroke="#191970" points="623.6887,-136.2389 614.1427,-131.6427 618.7389,-141.1887 623.6887,-136.2389"/>
</g>
<!-- Node20&#45;&gt;Node2 -->
<g id="edge40" class="edge">
<title>Node20&#45;&gt;Node2</title>
<path fill="none" stroke="#191970" d="M712.765,-170.0252C709.6471,-169.2941 706.5159,-168.603 703.5,-168 597.8967,-146.8865 470.7198,-131.4569 414.5661,-125.1459"/>
<polygon fill="#191970" stroke="#191970" points="414.9442,-121.6664 404.6187,-124.0402 414.1709,-128.6236 414.9442,-121.6664"/>
</g>
<!-- Node20&#45;&gt;Node3 -->
<g id="edge39" class="edge">
<title>Node20&#45;&gt;Node3</title>
<path fill="none" stroke="#191970" d="M733.6499,-168.0519C719.8329,-153.2183 691.585,-125.5953 661.5,-112 619.3572,-92.9559 487.2281,-76.7943 422.2795,-69.762"/>
<polygon fill="#191970" stroke="#191970" points="422.3992,-66.255 412.0841,-68.6735 421.656,-73.2155 422.3992,-66.255"/>
</g>
</g>
</svg>
