<?xml version="1.0" encoding="UTF-8" standalone="no"?>
<!DOCTYPE svg PUBLIC "-//W3C//DTD SVG 1.1//EN"
 "http://www.w3.org/Graphics/SVG/1.1/DTD/svg11.dtd">
<!-- Generated by graphviz version 2.40.1 (20161225.0304)
 -->
<!-- Title: iop/system/iopmgr/src/commandline.c Pages: 1 -->
<svg width="564pt" height="319pt"
 viewBox="0.00 0.00 564.00 319.00" xmlns="http://www.w3.org/2000/svg" xmlns:xlink="http://www.w3.org/1999/xlink">
<g id="graph0" class="graph" transform="scale(1 1) rotate(0) translate(4 315)">
<title>iop/system/iopmgr/src/commandline.c</title>
<polygon fill="#ffffff" stroke="transparent" points="-4,4 -4,-315 560,-315 560,4 -4,4"/>
<!-- Node1 -->
<g id="node1" class="node">
<title>Node1</title>
<g id="a_node1"><a xlink:title=" ">
<polygon fill="#bfbfbf" stroke="#000000" points="107,-280.5 107,-310.5 232,-310.5 232,-280.5 107,-280.5"/>
<text text-anchor="start" x="115" y="-298.5" font-family="Helvetica,sans-Serif" font-size="10.00" fill="#000000">iop/system/iopmgr/src</text>
<text text-anchor="middle" x="169.5" y="-287.5" font-family="Helvetica,sans-Serif" font-size="10.00" fill="#000000">/commandline.c</text>
</a>
</g>
</g>
<!-- Node2 -->
<g id="node2" class="node">
<title>Node2</title>
<g id="a_node2"><a xlink:href="defs_8h.html" target="_top" xlink:title=" ">
<polygon fill="#ffffff" stroke="#000000" points="0,-224.5 0,-243.5 47,-243.5 47,-224.5 0,-224.5"/>
<text text-anchor="middle" x="23.5" y="-231.5" font-family="Helvetica,sans-Serif" font-size="10.00" fill="#000000">defs.h</text>
</a>
</g>
</g>
<!-- Node1&#45;&gt;Node2 -->
<g id="edge1" class="edge">
<title>Node1&#45;&gt;Node2</title>
<path fill="none" stroke="#191970" d="M133.7844,-280.4554C109.8513,-270.374 78.6095,-257.2139 55.4906,-247.4755"/>
<polygon fill="#191970" stroke="#191970" points="56.6993,-244.1868 46.1248,-243.5303 53.9819,-250.6379 56.6993,-244.1868"/>
</g>
<!-- Node6 -->
<g id="node6" class="node">
<title>Node6</title>
<g id="a_node6"><a xlink:href="iomanX_8h.html" target="_top" xlink:title=" ">
<polygon fill="#ffffff" stroke="#000000" points="213,-168.5 213,-187.5 276,-187.5 276,-168.5 213,-168.5"/>
<text text-anchor="middle" x="244.5" y="-175.5" font-family="Helvetica,sans-Serif" font-size="10.00" fill="#000000">iomanX.h</text>
</a>
</g>
</g>
<!-- Node1&#45;&gt;Node6 -->
<g id="edge5" class="edge">
<title>Node1&#45;&gt;Node6</title>
<path fill="none" stroke="#191970" d="M179.3049,-280.1389C193.1246,-258.4881 218.2822,-219.0745 232.9772,-196.0525"/>
<polygon fill="#191970" stroke="#191970" points="235.968,-197.8719 238.3982,-187.5595 230.0676,-194.1056 235.968,-197.8719"/>
</g>
<!-- Node13 -->
<g id="node13" class="node">
<title>Node13</title>
<g id="a_node13"><a xlink:href="stdio_8h.html" target="_top" xlink:title=" ">
<polygon fill="#ffffff" stroke="#000000" points="144.5,-168.5 144.5,-187.5 194.5,-187.5 194.5,-168.5 144.5,-168.5"/>
<text text-anchor="middle" x="169.5" y="-175.5" font-family="Helvetica,sans-Serif" font-size="10.00" fill="#000000">stdio.h</text>
</a>
</g>
</g>
<!-- Node1&#45;&gt;Node13 -->
<g id="edge14" class="edge">
<title>Node1&#45;&gt;Node13</title>
<path fill="none" stroke="#191970" d="M169.5,-280.1389C169.5,-258.9692 169.5,-220.8174 169.5,-197.6112"/>
<polygon fill="#191970" stroke="#191970" points="173.0001,-197.5594 169.5,-187.5595 166.0001,-197.5595 173.0001,-197.5594"/>
</g>
<!-- Node15 -->
<g id="node15" class="node">
<title>Node15</title>
<g id="a_node15"><a xlink:href="sysclib_8h.html" target="_top" xlink:title=" ">
<polygon fill="#ffffff" stroke="#000000" points="67,-168.5 67,-187.5 126,-187.5 126,-168.5 67,-168.5"/>
<text text-anchor="middle" x="96.5" y="-175.5" font-family="Helvetica,sans-Serif" font-size="10.00" fill="#000000">sysclib.h</text>
</a>
</g>
</g>
<!-- Node1&#45;&gt;Node15 -->
<g id="edge17" class="edge">
<title>Node1&#45;&gt;Node15</title>
<path fill="none" stroke="#191970" d="M159.9565,-280.1389C146.5652,-258.5843 122.2361,-219.4245 107.9069,-196.3604"/>
<polygon fill="#191970" stroke="#191970" points="110.6893,-194.2066 102.4391,-187.5595 104.7434,-197.9007 110.6893,-194.2066"/>
</g>
<!-- Node17 -->
<g id="node17" class="node">
<title>Node17</title>
<g id="a_node17"><a xlink:href="iopmgr_8h.html" target="_top" xlink:title=" ">
<polygon fill="#ffffff" stroke="#000000" points="337,-224.5 337,-243.5 396,-243.5 396,-224.5 337,-224.5"/>
<text text-anchor="middle" x="366.5" y="-231.5" font-family="Helvetica,sans-Serif" font-size="10.00" fill="#000000">iopmgr.h</text>
</a>
</g>
</g>
<!-- Node1&#45;&gt;Node17 -->
<g id="edge23" class="edge">
<title>Node1&#45;&gt;Node17</title>
<path fill="none" stroke="#191970" d="M217.6916,-280.4554C251.3024,-269.9627 295.5961,-256.135 327.0965,-246.3011"/>
<polygon fill="#191970" stroke="#191970" points="328.342,-249.5789 336.8447,-243.2579 326.256,-242.897 328.342,-249.5789"/>
</g>
<!-- Node3 -->
<g id="node3" class="node">
<title>Node3</title>
<g id="a_node3"><a xlink:href="types_8h.html" target="_top" xlink:title=" ">
<polygon fill="#ffffff" stroke="#000000" points="255,-56.5 255,-75.5 308,-75.5 308,-56.5 255,-56.5"/>
<text text-anchor="middle" x="281.5" y="-63.5" font-family="Helvetica,sans-Serif" font-size="10.00" fill="#000000">types.h</text>
</a>
</g>
</g>
<!-- Node2&#45;&gt;Node3 -->
<g id="edge2" class="edge">
<title>Node2&#45;&gt;Node3</title>
<path fill="none" stroke="#191970" d="M25.3915,-224.285C30.4623,-200.9734 46.6292,-141.6087 84.5,-112 139.7815,-68.779 171.5684,-91.6326 244.6978,-75.9356"/>
<polygon fill="#191970" stroke="#191970" points="245.8601,-79.2585 254.8038,-73.5787 244.2702,-72.4414 245.8601,-79.2585"/>
</g>
<!-- Node4 -->
<g id="node4" class="node">
<title>Node4</title>
<g id="a_node4"><a xlink:title=" ">
<polygon fill="#ffffff" stroke="#bfbfbf" points="253.5,-.5 253.5,-19.5 309.5,-19.5 309.5,-.5 253.5,-.5"/>
<text text-anchor="middle" x="281.5" y="-7.5" font-family="Helvetica,sans-Serif" font-size="10.00" fill="#000000">stddef.h</text>
</a>
</g>
</g>
<!-- Node3&#45;&gt;Node4 -->
<g id="edge3" class="edge">
<title>Node3&#45;&gt;Node4</title>
<path fill="none" stroke="#191970" d="M281.5,-56.2455C281.5,-48.9382 281.5,-38.6944 281.5,-29.7046"/>
<polygon fill="#191970" stroke="#191970" points="285.0001,-29.6426 281.5,-19.6427 278.0001,-29.6427 285.0001,-29.6426"/>
</g>
<!-- Node5 -->
<g id="node5" class="node">
<title>Node5</title>
<g id="a_node5"><a xlink:href="tamtypes_8h.html" target="_top" xlink:title=" ">
<polygon fill="#ffffff" stroke="#000000" points="124.5,-.5 124.5,-19.5 196.5,-19.5 196.5,-.5 124.5,-.5"/>
<text text-anchor="middle" x="160.5" y="-7.5" font-family="Helvetica,sans-Serif" font-size="10.00" fill="#000000">tamtypes.h</text>
</a>
</g>
</g>
<!-- Node3&#45;&gt;Node5 -->
<g id="edge4" class="edge">
<title>Node3&#45;&gt;Node5</title>
<path fill="none" stroke="#191970" d="M260.6994,-56.3733C241.2757,-47.3838 212.0776,-33.8706 190.2036,-23.7471"/>
<polygon fill="#191970" stroke="#191970" points="191.5745,-20.5249 181.0292,-19.5011 188.6344,-26.8776 191.5745,-20.5249"/>
</g>
<!-- Node6&#45;&gt;Node3 -->
<g id="edge6" class="edge">
<title>Node6&#45;&gt;Node3</title>
<path fill="none" stroke="#191970" d="M247.6546,-168.4509C253.7438,-150.0186 267.2202,-109.2254 275.209,-85.043"/>
<polygon fill="#191970" stroke="#191970" points="278.5398,-86.1181 278.3534,-75.5249 271.8931,-83.9223 278.5398,-86.1181"/>
</g>
<!-- Node7 -->
<g id="node7" class="node">
<title>Node7</title>
<g id="a_node7"><a xlink:href="irx_8h.html" target="_top" xlink:title=" ">
<polygon fill="#ffffff" stroke="#000000" points="300.5,-112.5 300.5,-131.5 338.5,-131.5 338.5,-112.5 300.5,-112.5"/>
<text text-anchor="middle" x="319.5" y="-119.5" font-family="Helvetica,sans-Serif" font-size="10.00" fill="#000000">irx.h</text>
</a>
</g>
</g>
<!-- Node6&#45;&gt;Node7 -->
<g id="edge7" class="edge">
<title>Node6&#45;&gt;Node7</title>
<path fill="none" stroke="#191970" d="M257.564,-168.2455C268.8562,-159.814 285.3845,-147.4729 298.5271,-137.6598"/>
<polygon fill="#191970" stroke="#191970" points="300.6669,-140.4301 306.5857,-131.6427 296.4789,-134.8211 300.6669,-140.4301"/>
</g>
<!-- Node8 -->
<g id="node8" class="node">
<title>Node8</title>
<g id="a_node8"><a xlink:href="io__common_8h.html" target="_top" xlink:title=" ">
<polygon fill="#ffffff" stroke="#000000" points="433,-112.5 433,-131.5 516,-131.5 516,-112.5 433,-112.5"/>
<text text-anchor="middle" x="474.5" y="-119.5" font-family="Helvetica,sans-Serif" font-size="10.00" fill="#000000">io_common.h</text>
</a>
</g>
</g>
<!-- Node6&#45;&gt;Node8 -->
<g id="edge9" class="edge">
<title>Node6&#45;&gt;Node8</title>
<path fill="none" stroke="#191970" d="M276.4805,-170.2134C315.0379,-160.8256 380.256,-144.9464 425.2508,-133.9911"/>
<polygon fill="#191970" stroke="#191970" points="426.2042,-137.3613 435.0923,-131.5949 424.5482,-130.56 426.2042,-137.3613"/>
</g>
<!-- Node11 -->
<g id="node11" class="node">
<title>Node11</title>
<g id="a_node11"><a xlink:href="iox__stat_8h.html" target="_top" xlink:title=" ">
<polygon fill="#ffffff" stroke="#000000" points="179,-112.5 179,-131.5 244,-131.5 244,-112.5 179,-112.5"/>
<text text-anchor="middle" x="211.5" y="-119.5" font-family="Helvetica,sans-Serif" font-size="10.00" fill="#000000">iox_stat.h</text>
</a>
</g>
</g>
<!-- Node6&#45;&gt;Node11 -->
<g id="edge12" class="edge">
<title>Node6&#45;&gt;Node11</title>
<path fill="none" stroke="#191970" d="M238.7518,-168.2455C234.2565,-160.617 227.8752,-149.7881 222.4175,-140.5267"/>
<polygon fill="#191970" stroke="#191970" points="225.2747,-138.4811 217.1823,-131.6427 219.2439,-142.035 225.2747,-138.4811"/>
</g>
<!-- Node7&#45;&gt;Node3 -->
<g id="edge8" class="edge">
<title>Node7&#45;&gt;Node3</title>
<path fill="none" stroke="#191970" d="M312.8809,-112.2455C307.5954,-104.4564 300.0459,-93.3308 293.6762,-83.9439"/>
<polygon fill="#191970" stroke="#191970" points="296.5545,-81.9522 288.0432,-75.6427 290.7621,-85.8827 296.5545,-81.9522"/>
</g>
<!-- Node9 -->
<g id="node9" class="node">
<title>Node9</title>
<g id="a_node9"><a xlink:href="fcntl_8h.html" target="_top" xlink:title=" ">
<polygon fill="#ffffff" stroke="#000000" points="396,-56.5 396,-75.5 463,-75.5 463,-56.5 396,-56.5"/>
<text text-anchor="middle" x="429.5" y="-63.5" font-family="Helvetica,sans-Serif" font-size="10.00" fill="#000000">sys/fcntl.h</text>
</a>
</g>
</g>
<!-- Node8&#45;&gt;Node9 -->
<g id="edge10" class="edge">
<title>Node8&#45;&gt;Node9</title>
<path fill="none" stroke="#191970" d="M466.6616,-112.2455C460.338,-104.3761 451.2776,-93.101 443.6864,-83.6542"/>
<polygon fill="#191970" stroke="#191970" points="446.2408,-81.2454 437.2486,-75.6427 440.7842,-85.6302 446.2408,-81.2454"/>
</g>
<!-- Node10 -->
<g id="node10" class="node">
<title>Node10</title>
<g id="a_node10"><a xlink:href="unistd_8h.html" target="_top" xlink:title=" ">
<polygon fill="#ffffff" stroke="#000000" points="481,-56.5 481,-75.5 556,-75.5 556,-56.5 481,-56.5"/>
<text text-anchor="middle" x="518.5" y="-63.5" font-family="Helvetica,sans-Serif" font-size="10.00" fill="#000000">sys/unistd.h</text>
</a>
</g>
</g>
<!-- Node8&#45;&gt;Node10 -->
<g id="edge11" class="edge">
<title>Node8&#45;&gt;Node10</title>
<path fill="none" stroke="#191970" d="M482.1642,-112.2455C488.3473,-104.3761 497.2063,-93.101 504.6289,-83.6542"/>
<polygon fill="#191970" stroke="#191970" points="507.4975,-85.6683 510.9236,-75.6427 501.9932,-81.3435 507.4975,-85.6683"/>
</g>
<!-- Node12 -->
<g id="node12" class="node">
<title>Node12</title>
<g id="a_node12"><a xlink:href="time_8h.html" target="_top" xlink:title=" ">
<polygon fill="#ffffff" stroke="#000000" points="168.5,-56.5 168.5,-75.5 236.5,-75.5 236.5,-56.5 168.5,-56.5"/>
<text text-anchor="middle" x="202.5" y="-63.5" font-family="Helvetica,sans-Serif" font-size="10.00" fill="#000000">sys/time.h</text>
</a>
</g>
</g>
<!-- Node11&#45;&gt;Node12 -->
<g id="edge13" class="edge">
<title>Node11&#45;&gt;Node12</title>
<path fill="none" stroke="#191970" d="M209.9323,-112.2455C208.7579,-104.9382 207.1116,-94.6944 205.6668,-85.7046"/>
<polygon fill="#191970" stroke="#191970" points="209.0922,-84.9606 204.0497,-75.6427 202.1809,-86.0714 209.0922,-84.9606"/>
</g>
<!-- Node13&#45;&gt;Node7 -->
<g id="edge16" class="edge">
<title>Node13&#45;&gt;Node7</title>
<path fill="none" stroke="#191970" d="M194.6066,-168.6269C221.05,-158.7547 262.6375,-143.2287 290.472,-132.8371"/>
<polygon fill="#191970" stroke="#191970" points="291.9068,-136.0375 300.0511,-129.2609 289.4585,-129.4796 291.9068,-136.0375"/>
</g>
<!-- Node14 -->
<g id="node14" class="node">
<title>Node14</title>
<g id="a_node14"><a xlink:title=" ">
<polygon fill="#ffffff" stroke="#bfbfbf" points="104.5,-112.5 104.5,-131.5 160.5,-131.5 160.5,-112.5 104.5,-112.5"/>
<text text-anchor="middle" x="132.5" y="-119.5" font-family="Helvetica,sans-Serif" font-size="10.00" fill="#000000">stdarg.h</text>
</a>
</g>
</g>
<!-- Node13&#45;&gt;Node14 -->
<g id="edge15" class="edge">
<title>Node13&#45;&gt;Node14</title>
<path fill="none" stroke="#191970" d="M163.0551,-168.2455C157.9618,-160.5367 150.7092,-149.5598 144.548,-140.2348"/>
<polygon fill="#191970" stroke="#191970" points="147.3038,-138.0566 138.8711,-131.6427 141.4635,-141.9155 147.3038,-138.0566"/>
</g>
<!-- Node15&#45;&gt;Node3 -->
<g id="edge18" class="edge">
<title>Node15&#45;&gt;Node3</title>
<path fill="none" stroke="#191970" d="M92.9112,-168.2861C88.4117,-154.2473 82.7291,-128.1985 95.5,-112 136.0402,-60.579 175.4247,-90.2107 244.8004,-75.8618"/>
<polygon fill="#191970" stroke="#191970" points="245.8479,-79.2115 254.792,-73.5322 244.2584,-72.3944 245.8479,-79.2115"/>
</g>
<!-- Node15&#45;&gt;Node7 -->
<g id="edge19" class="edge">
<title>Node15&#45;&gt;Node7</title>
<path fill="none" stroke="#191970" d="M126.3058,-170.3378C129.4099,-169.5457 132.5185,-168.7549 135.5,-168 190.2638,-154.1337 254.2655,-138.1929 290.5269,-129.186"/>
<polygon fill="#191970" stroke="#191970" points="291.5568,-132.5367 300.4188,-126.7301 289.87,-125.7429 291.5568,-132.5367"/>
</g>
<!-- Node15&#45;&gt;Node14 -->
<g id="edge20" class="edge">
<title>Node15&#45;&gt;Node14</title>
<path fill="none" stroke="#191970" d="M102.7707,-168.2455C107.7264,-160.5367 114.783,-149.5598 120.7776,-140.2348"/>
<polygon fill="#191970" stroke="#191970" points="123.8376,-141.9471 126.3011,-131.6427 117.9494,-138.1618 123.8376,-141.9471"/>
</g>
<!-- Node16 -->
<g id="node16" class="node">
<title>Node16</title>
<g id="a_node16"><a xlink:href="setjmp_8h.html" target="_top" xlink:title=" ">
<polygon fill="#ffffff" stroke="#000000" points="55,-56.5 55,-75.5 114,-75.5 114,-56.5 55,-56.5"/>
<text text-anchor="middle" x="84.5" y="-63.5" font-family="Helvetica,sans-Serif" font-size="10.00" fill="#000000">setjmp.h</text>
</a>
</g>
</g>
<!-- Node15&#45;&gt;Node16 -->
<g id="edge21" class="edge">
<title>Node15&#45;&gt;Node16</title>
<path fill="none" stroke="#191970" d="M86.5638,-168.4913C78.324,-159.8654 67.2233,-146.3368 62.5,-132 57.2083,-115.9379 64.2861,-97.7025 71.7857,-84.476"/>
<polygon fill="#191970" stroke="#191970" points="74.8504,-86.1751 77.1503,-75.8329 68.9029,-82.4836 74.8504,-86.1751"/>
</g>
<!-- Node16&#45;&gt;Node5 -->
<g id="edge22" class="edge">
<title>Node16&#45;&gt;Node5</title>
<path fill="none" stroke="#191970" d="M97.7382,-56.2455C109.181,-47.814 125.9296,-35.4729 139.2475,-25.6598"/>
<polygon fill="#191970" stroke="#191970" points="141.4391,-28.3924 147.4135,-19.6427 137.2867,-22.757 141.4391,-28.3924"/>
</g>
<!-- Node17&#45;&gt;Node7 -->
<g id="edge25" class="edge">
<title>Node17&#45;&gt;Node7</title>
<path fill="none" stroke="#191970" d="M353.4107,-224.2828C343.2647,-215.9155 329.8916,-202.8633 323.5,-188 317.2646,-173.4997 316.5734,-155.5358 317.2696,-142.0121"/>
<polygon fill="#191970" stroke="#191970" points="320.7722,-142.1195 318.0894,-131.87 313.795,-141.5555 320.7722,-142.1195"/>
</g>
<!-- Node18 -->
<g id="node18" class="node">
<title>Node18</title>
<g id="a_node18"><a xlink:title=" ">
<polygon fill="#ffffff" stroke="#bfbfbf" points="493,-168.5 493,-187.5 546,-187.5 546,-168.5 493,-168.5"/>
<text text-anchor="middle" x="519.5" y="-175.5" font-family="Helvetica,sans-Serif" font-size="10.00" fill="#000000">types.h</text>
</a>
</g>
</g>
<!-- Node17&#45;&gt;Node18 -->
<g id="edge24" class="edge">
<title>Node17&#45;&gt;Node18</title>
<path fill="none" stroke="#191970" d="M392.8016,-224.3733C417.9128,-215.1822 455.9438,-201.2624 483.7872,-191.0713"/>
<polygon fill="#191970" stroke="#191970" points="485.3538,-194.2251 493.5416,-187.5011 482.9478,-187.6516 485.3538,-194.2251"/>
</g>
<!-- Node19 -->
<g id="node19" class="node">
<title>Node19</title>
<g id="a_node19"><a xlink:href="ioman_8h.html" target="_top" xlink:title=" ">
<polygon fill="#ffffff" stroke="#000000" points="418.5,-168.5 418.5,-187.5 474.5,-187.5 474.5,-168.5 418.5,-168.5"/>
<text text-anchor="middle" x="446.5" y="-175.5" font-family="Helvetica,sans-Serif" font-size="10.00" fill="#000000">ioman.h</text>
</a>
</g>
</g>
<!-- Node17&#45;&gt;Node19 -->
<g id="edge26" class="edge">
<title>Node17&#45;&gt;Node19</title>
<path fill="none" stroke="#191970" d="M380.4349,-224.2455C392.5947,-215.7337 410.4464,-203.2375 424.5285,-193.3801"/>
<polygon fill="#191970" stroke="#191970" points="426.5395,-196.2447 432.7248,-187.6427 422.5253,-190.51 426.5395,-196.2447"/>
</g>
<!-- Node20 -->
<g id="node20" class="node">
<title>Node20</title>
<g id="a_node20"><a xlink:href="loadcore_8h.html" target="_top" xlink:title=" ">
<polygon fill="#ffffff" stroke="#000000" points="332.5,-168.5 332.5,-187.5 400.5,-187.5 400.5,-168.5 332.5,-168.5"/>
<text text-anchor="middle" x="366.5" y="-175.5" font-family="Helvetica,sans-Serif" font-size="10.00" fill="#000000">loadcore.h</text>
</a>
</g>
</g>
<!-- Node17&#45;&gt;Node20 -->
<g id="edge30" class="edge">
<title>Node17&#45;&gt;Node20</title>
<path fill="none" stroke="#191970" d="M366.5,-224.2455C366.5,-216.9382 366.5,-206.6944 366.5,-197.7046"/>
<polygon fill="#191970" stroke="#191970" points="370.0001,-197.6426 366.5,-187.6427 363.0001,-197.6427 370.0001,-197.6426"/>
</g>
<!-- Node19&#45;&gt;Node3 -->
<g id="edge27" class="edge">
<title>Node19&#45;&gt;Node3</title>
<path fill="none" stroke="#191970" d="M436.1478,-168.3402C421.3734,-154.8216 393.0791,-129.9089 366.5,-112 348.8189,-100.0866 327.7495,-88.6671 311.0111,-80.1862"/>
<polygon fill="#191970" stroke="#191970" points="312.2256,-76.8809 301.7146,-75.5508 309.102,-83.1454 312.2256,-76.8809"/>
</g>
<!-- Node19&#45;&gt;Node7 -->
<g id="edge28" class="edge">
<title>Node19&#45;&gt;Node7</title>
<path fill="none" stroke="#191970" d="M424.6679,-168.3733C403.445,-159.0151 371.1043,-144.7547 347.8918,-134.5192"/>
<polygon fill="#191970" stroke="#191970" points="349.1236,-131.2373 338.5615,-130.4051 346.2993,-137.6422 349.1236,-131.2373"/>
</g>
<!-- Node19&#45;&gt;Node8 -->
<g id="edge29" class="edge">
<title>Node19&#45;&gt;Node8</title>
<path fill="none" stroke="#191970" d="M451.3772,-168.2455C455.1513,-160.6973 460.4921,-150.0158 465.0901,-140.8197"/>
<polygon fill="#191970" stroke="#191970" points="468.337,-142.1522 469.6787,-131.6427 462.076,-139.0217 468.337,-142.1522"/>
</g>
<!-- Node20&#45;&gt;Node3 -->
<g id="edge31" class="edge">
<title>Node20&#45;&gt;Node3</title>
<path fill="none" stroke="#191970" d="M365.7236,-168.1592C364.2132,-154.4255 359.8528,-129.259 347.5,-112 338.2115,-99.0223 324.0658,-88.4653 311.2494,-80.7535"/>
<polygon fill="#191970" stroke="#191970" points="312.6661,-77.5334 302.2405,-75.6471 309.2142,-83.6232 312.6661,-77.5334"/>
</g>
<!-- Node20&#45;&gt;Node7 -->
<g id="edge32" class="edge">
<title>Node20&#45;&gt;Node7</title>
<path fill="none" stroke="#191970" d="M358.3132,-168.2455C351.6411,-160.2958 342.0521,-148.8706 334.0747,-139.3656"/>
<polygon fill="#191970" stroke="#191970" points="336.7026,-137.0524 327.593,-131.6427 331.3408,-141.5525 336.7026,-137.0524"/>
</g>
</g>
</svg>
