<?xml version="1.0" encoding="UTF-8" standalone="no"?>
<!DOCTYPE svg PUBLIC "-//W3C//DTD SVG 1.1//EN"
 "http://www.w3.org/Graphics/SVG/1.1/DTD/svg11.dtd">
<!-- Generated by graphviz version 2.40.1 (20161225.0304)
 -->
<!-- Title: iop/kernel/include/ctype.h Pages: 1 -->
<svg width="519pt" height="106pt"
 viewBox="0.00 0.00 519.00 106.00" xmlns="http://www.w3.org/2000/svg" xmlns:xlink="http://www.w3.org/1999/xlink">
<g id="graph0" class="graph" transform="scale(1 1) rotate(0) translate(4 102)">
<title>iop/kernel/include/ctype.h</title>
<polygon fill="#ffffff" stroke="transparent" points="-4,4 -4,-102 515,-102 515,4 -4,4"/>
<!-- Node1 -->
<g id="node1" class="node">
<title>Node1</title>
<g id="a_node1"><a xlink:title=" ">
<polygon fill="#bfbfbf" stroke="#000000" points="183.5,-67.5 183.5,-97.5 287.5,-97.5 287.5,-67.5 183.5,-67.5"/>
<text text-anchor="start" x="191.5" y="-85.5" font-family="Helvetica,sans-Serif" font-size="10.00" fill="#000000">iop/kernel/include</text>
<text text-anchor="middle" x="235.5" y="-74.5" font-family="Helvetica,sans-Serif" font-size="10.00" fill="#000000">/ctype.h</text>
</a>
</g>
</g>
<!-- Node2 -->
<g id="node2" class="node">
<title>Node2</title>
<g id="a_node2"><a xlink:href="xprintf_8c.html" target="_top" xlink:title=" ">
<polygon fill="#ffffff" stroke="#000000" points="0,-.5 0,-30.5 103,-30.5 103,-.5 0,-.5"/>
<text text-anchor="start" x="8" y="-18.5" font-family="Helvetica,sans-Serif" font-size="10.00" fill="#000000">iop/debug/sior/src</text>
<text text-anchor="middle" x="51.5" y="-7.5" font-family="Helvetica,sans-Serif" font-size="10.00" fill="#000000">/xprintf.c</text>
</a>
</g>
</g>
<!-- Node1&#45;&gt;Node2 -->
<g id="edge1" class="edge">
<title>Node1&#45;&gt;Node2</title>
<path fill="none" stroke="#191970" d="M184.7002,-64.0023C155.8315,-53.4903 120.1415,-40.4945 92.9733,-30.6017"/>
<polygon fill="#191970" stroke="#191970" points="183.6128,-67.3311 194.2068,-67.4639 186.0079,-60.7535 183.6128,-67.3311"/>
</g>
<!-- Node3 -->
<g id="node3" class="node">
<title>Node3</title>
<g id="a_node3"><a xlink:href="libpfs_2src_2misc_8c.html" target="_top" xlink:title=" ">
<polygon fill="#ffffff" stroke="#000000" points="121.5,-.5 121.5,-30.5 221.5,-30.5 221.5,-.5 121.5,-.5"/>
<text text-anchor="start" x="129.5" y="-18.5" font-family="Helvetica,sans-Serif" font-size="10.00" fill="#000000">iop/hdd/libpfs/src</text>
<text text-anchor="middle" x="171.5" y="-7.5" font-family="Helvetica,sans-Serif" font-size="10.00" fill="#000000">/misc.c</text>
</a>
</g>
</g>
<!-- Node1&#45;&gt;Node3 -->
<g id="edge2" class="edge">
<title>Node1&#45;&gt;Node3</title>
<path fill="none" stroke="#191970" d="M213.9361,-59.9253C204.7254,-50.2828 194.2193,-39.2843 185.9651,-30.6432"/>
<polygon fill="#191970" stroke="#191970" points="211.5392,-62.4831 220.9774,-67.2967 216.601,-57.648 211.5392,-62.4831"/>
</g>
<!-- Node4 -->
<g id="node4" class="node">
<title>Node4</title>
<g id="a_node4"><a xlink:href="smap_8c.html" target="_top" xlink:title=" ">
<polygon fill="#ffffff" stroke="#000000" points="239.5,-.5 239.5,-30.5 361.5,-30.5 361.5,-.5 239.5,-.5"/>
<text text-anchor="start" x="247.5" y="-18.5" font-family="Helvetica,sans-Serif" font-size="10.00" fill="#000000">iop/network/smap/src</text>
<text text-anchor="middle" x="300.5" y="-7.5" font-family="Helvetica,sans-Serif" font-size="10.00" fill="#000000">/smap.c</text>
</a>
</g>
</g>
<!-- Node1&#45;&gt;Node4 -->
<g id="edge3" class="edge">
<title>Node1&#45;&gt;Node4</title>
<path fill="none" stroke="#191970" d="M257.4008,-59.9253C266.7555,-50.2828 277.4257,-39.2843 285.8089,-30.6432"/>
<polygon fill="#191970" stroke="#191970" points="254.7006,-57.6821 250.2495,-67.2967 259.7248,-62.5564 254.7006,-57.6821"/>
</g>
<!-- Node5 -->
<g id="node5" class="node">
<title>Node5</title>
<g id="a_node5"><a xlink:href="freepad_8c.html" target="_top" xlink:title=" ">
<polygon fill="#ffffff" stroke="#000000" points="380,-.5 380,-30.5 511,-30.5 511,-.5 380,-.5"/>
<text text-anchor="start" x="388" y="-18.5" font-family="Helvetica,sans-Serif" font-size="10.00" fill="#000000">iop/system/padman/src</text>
<text text-anchor="middle" x="445.5" y="-7.5" font-family="Helvetica,sans-Serif" font-size="10.00" fill="#000000">/freepad.c</text>
</a>
</g>
</g>
<!-- Node1&#45;&gt;Node5 -->
<g id="edge4" class="edge">
<title>Node1&#45;&gt;Node5</title>
<path fill="none" stroke="#191970" d="M292.1928,-64.4123C325.3618,-53.8298 366.7547,-40.6235 398.1664,-30.6017"/>
<polygon fill="#191970" stroke="#191970" points="291.0911,-61.0899 282.6281,-67.4639 293.2188,-67.7587 291.0911,-61.0899"/>
</g>
</g>
</svg>
