<?xml version="1.0" encoding="UTF-8" standalone="no"?>
<!DOCTYPE svg PUBLIC "-//W3C//DTD SVG 1.1//EN"
 "http://www.w3.org/Graphics/SVG/1.1/DTD/svg11.dtd">
<!-- Generated by graphviz version 2.40.1 (20161225.0304)
 -->
<!-- Title: iop/debug/iopdebug/src/irx_imports.h Pages: 1 -->
<svg width="1075pt" height="263pt"
 viewBox="0.00 0.00 1075.00 263.00" xmlns="http://www.w3.org/2000/svg" xmlns:xlink="http://www.w3.org/1999/xlink">
<g id="graph0" class="graph" transform="scale(1 1) rotate(0) translate(4 259)">
<title>iop/debug/iopdebug/src/irx_imports.h</title>
<polygon fill="#ffffff" stroke="transparent" points="-4,4 -4,-259 1071,-259 1071,4 -4,4"/>
<!-- Node1 -->
<g id="node1" class="node">
<title>Node1</title>
<g id="a_node1"><a xlink:title=" ">
<polygon fill="#bfbfbf" stroke="#000000" points="470,-224.5 470,-254.5 583,-254.5 583,-224.5 470,-224.5"/>
<text text-anchor="start" x="478" y="-242.5" font-family="Helvetica,sans-Serif" font-size="10.00" fill="#000000">iop/debug/iopdebug</text>
<text text-anchor="middle" x="526.5" y="-231.5" font-family="Helvetica,sans-Serif" font-size="10.00" fill="#000000">/src/irx_imports.h</text>
</a>
</g>
</g>
<!-- Node2 -->
<g id="node2" class="node">
<title>Node2</title>
<g id="a_node2"><a xlink:href="irx_8h.html" target="_top" xlink:title=" ">
<polygon fill="#ffffff" stroke="#000000" points="506.5,-112.5 506.5,-131.5 544.5,-131.5 544.5,-112.5 506.5,-112.5"/>
<text text-anchor="middle" x="525.5" y="-119.5" font-family="Helvetica,sans-Serif" font-size="10.00" fill="#000000">irx.h</text>
</a>
</g>
</g>
<!-- Node1&#45;&gt;Node2 -->
<g id="edge1" class="edge">
<title>Node1&#45;&gt;Node2</title>
<path fill="none" stroke="#191970" d="M526.3693,-224.1389C526.1891,-202.9692 525.8644,-164.8174 525.6669,-141.6112"/>
<polygon fill="#191970" stroke="#191970" points="529.1664,-141.5293 525.5814,-131.5595 522.1667,-141.5889 529.1664,-141.5293"/>
</g>
<!-- Node6 -->
<g id="node6" class="node">
<title>Node6</title>
<g id="a_node6"><a xlink:href="cdvdman_8h.html" target="_top" xlink:title=" ">
<polygon fill="#ffffff" stroke="#000000" points="0,-168.5 0,-187.5 71,-187.5 71,-168.5 0,-168.5"/>
<text text-anchor="middle" x="35.5" y="-175.5" font-family="Helvetica,sans-Serif" font-size="10.00" fill="#000000">cdvdman.h</text>
</a>
</g>
</g>
<!-- Node1&#45;&gt;Node6 -->
<g id="edge5" class="edge">
<title>Node1&#45;&gt;Node6</title>
<path fill="none" stroke="#191970" d="M469.9114,-234.861C386.8771,-227.6363 227.0093,-212.1418 81.315,-187.9848"/>
<polygon fill="#191970" stroke="#191970" points="81.7366,-184.5067 71.2957,-186.3059 80.5797,-191.4104 81.7366,-184.5067"/>
</g>
<!-- Node8 -->
<g id="node8" class="node">
<title>Node8</title>
<g id="a_node8"><a xlink:href="loadcore_8h.html" target="_top" xlink:title=" ">
<polygon fill="#ffffff" stroke="#000000" points="89.5,-168.5 89.5,-187.5 157.5,-187.5 157.5,-168.5 89.5,-168.5"/>
<text text-anchor="middle" x="123.5" y="-175.5" font-family="Helvetica,sans-Serif" font-size="10.00" fill="#000000">loadcore.h</text>
</a>
</g>
</g>
<!-- Node1&#45;&gt;Node8 -->
<g id="edge10" class="edge">
<title>Node1&#45;&gt;Node8</title>
<path fill="none" stroke="#191970" d="M469.8219,-232.9291C400.7732,-224.5818 280.3935,-208.9293 167.8759,-188.1339"/>
<polygon fill="#191970" stroke="#191970" points="168.1837,-184.631 157.7113,-186.2371 166.8995,-191.5122 168.1837,-184.631"/>
</g>
<!-- Node9 -->
<g id="node9" class="node">
<title>Node9</title>
<g id="a_node9"><a xlink:href="sifman_8h.html" target="_top" xlink:title=" ">
<polygon fill="#ffffff" stroke="#000000" points="439,-168.5 439,-187.5 498,-187.5 498,-168.5 439,-168.5"/>
<text text-anchor="middle" x="468.5" y="-175.5" font-family="Helvetica,sans-Serif" font-size="10.00" fill="#000000">sifman.h</text>
</a>
</g>
</g>
<!-- Node1&#45;&gt;Node9 -->
<g id="edge13" class="edge">
<title>Node1&#45;&gt;Node9</title>
<path fill="none" stroke="#191970" d="M512.1629,-224.2977C503.8603,-215.4941 493.3818,-204.3833 484.7711,-195.2529"/>
<polygon fill="#191970" stroke="#191970" points="487.1939,-192.7206 477.7865,-187.8469 482.1013,-197.5234 487.1939,-192.7206"/>
</g>
<!-- Node10 -->
<g id="node10" class="node">
<title>Node10</title>
<g id="a_node10"><a xlink:href="sifcmd_8h.html" target="_top" xlink:title=" ">
<polygon fill="#ffffff" stroke="#000000" points="555,-168.5 555,-187.5 614,-187.5 614,-168.5 555,-168.5"/>
<text text-anchor="middle" x="584.5" y="-175.5" font-family="Helvetica,sans-Serif" font-size="10.00" fill="#000000">sifcmd.h</text>
</a>
</g>
</g>
<!-- Node1&#45;&gt;Node10 -->
<g id="edge16" class="edge">
<title>Node1&#45;&gt;Node10</title>
<path fill="none" stroke="#191970" d="M540.8371,-224.2977C549.1397,-215.4941 559.6182,-204.3833 568.2289,-195.2529"/>
<polygon fill="#191970" stroke="#191970" points="570.8987,-197.5234 575.2135,-187.8469 565.8061,-192.7206 570.8987,-197.5234"/>
</g>
<!-- Node11 -->
<g id="node11" class="node">
<title>Node11</title>
<g id="a_node11"><a xlink:href="stdio_8h.html" target="_top" xlink:title=" ">
<polygon fill="#ffffff" stroke="#000000" points="632.5,-168.5 632.5,-187.5 682.5,-187.5 682.5,-168.5 632.5,-168.5"/>
<text text-anchor="middle" x="657.5" y="-175.5" font-family="Helvetica,sans-Serif" font-size="10.00" fill="#000000">stdio.h</text>
</a>
</g>
</g>
<!-- Node1&#45;&gt;Node11 -->
<g id="edge19" class="edge">
<title>Node1&#45;&gt;Node11</title>
<path fill="none" stroke="#191970" d="M558.5462,-224.4554C579.7328,-214.509 607.3028,-201.5659 627.9588,-191.8686"/>
<polygon fill="#191970" stroke="#191970" points="629.6349,-194.9483 637.1996,-187.5303 626.6601,-188.6118 629.6349,-194.9483"/>
</g>
<!-- Node13 -->
<g id="node13" class="node">
<title>Node13</title>
<g id="a_node13"><a xlink:href="sysmem_8h.html" target="_top" xlink:title=" ">
<polygon fill="#ffffff" stroke="#000000" points="700.5,-168.5 700.5,-187.5 768.5,-187.5 768.5,-168.5 700.5,-168.5"/>
<text text-anchor="middle" x="734.5" y="-175.5" font-family="Helvetica,sans-Serif" font-size="10.00" fill="#000000">sysmem.h</text>
</a>
</g>
</g>
<!-- Node1&#45;&gt;Node13 -->
<g id="edge22" class="edge">
<title>Node1&#45;&gt;Node13</title>
<path fill="none" stroke="#191970" d="M577.3825,-224.4554C612.6967,-214.0139 659.1803,-200.27 692.408,-190.4455"/>
<polygon fill="#191970" stroke="#191970" points="693.6702,-193.7221 702.2674,-187.5303 691.6854,-187.0094 693.6702,-193.7221"/>
</g>
<!-- Node14 -->
<g id="node14" class="node">
<title>Node14</title>
<g id="a_node14"><a xlink:href="sysclib_8h.html" target="_top" xlink:title=" ">
<polygon fill="#ffffff" stroke="#000000" points="864,-168.5 864,-187.5 923,-187.5 923,-168.5 864,-168.5"/>
<text text-anchor="middle" x="893.5" y="-175.5" font-family="Helvetica,sans-Serif" font-size="10.00" fill="#000000">sysclib.h</text>
</a>
</g>
</g>
<!-- Node1&#45;&gt;Node14 -->
<g id="edge26" class="edge">
<title>Node1&#45;&gt;Node14</title>
<path fill="none" stroke="#191970" d="M583.2884,-232.403C646.9976,-224.0407 753.5704,-208.8551 853.7163,-188.2287"/>
<polygon fill="#191970" stroke="#191970" points="854.6212,-191.6154 863.6976,-186.1501 853.194,-184.7624 854.6212,-191.6154"/>
</g>
<!-- Node16 -->
<g id="node16" class="node">
<title>Node16</title>
<g id="a_node16"><a xlink:href="thbase_8h.html" target="_top" xlink:title=" ">
<polygon fill="#ffffff" stroke="#000000" points="787,-168.5 787,-187.5 846,-187.5 846,-168.5 787,-168.5"/>
<text text-anchor="middle" x="816.5" y="-175.5" font-family="Helvetica,sans-Serif" font-size="10.00" fill="#000000">thbase.h</text>
</a>
</g>
</g>
<!-- Node1&#45;&gt;Node16 -->
<g id="edge32" class="edge">
<title>Node1&#45;&gt;Node16</title>
<path fill="none" stroke="#191970" d="M583.4924,-228.6267C632.1877,-219.1502 704.3411,-204.6699 776.5404,-188.1391"/>
<polygon fill="#191970" stroke="#191970" points="777.7666,-191.4484 786.7259,-185.7932 776.1955,-184.627 777.7666,-191.4484"/>
</g>
<!-- Node17 -->
<g id="node17" class="node">
<title>Node17</title>
<g id="a_node17"><a xlink:href="ioman_8h.html" target="_top" xlink:title=" ">
<polygon fill="#ffffff" stroke="#000000" points="941.5,-168.5 941.5,-187.5 997.5,-187.5 997.5,-168.5 941.5,-168.5"/>
<text text-anchor="middle" x="969.5" y="-175.5" font-family="Helvetica,sans-Serif" font-size="10.00" fill="#000000">ioman.h</text>
</a>
</g>
</g>
<!-- Node1&#45;&gt;Node17 -->
<g id="edge35" class="edge">
<title>Node1&#45;&gt;Node17</title>
<path fill="none" stroke="#191970" d="M583.0468,-234.8081C659.8533,-227.8876 801.525,-213.1825 931.2033,-188.0345"/>
<polygon fill="#191970" stroke="#191970" points="932.1753,-191.4105 941.3127,-186.0477 930.8254,-184.5419 932.1753,-191.4105"/>
</g>
<!-- Node21 -->
<g id="node21" class="node">
<title>Node21</title>
<g id="a_node21"><a xlink:href="modload_8h.html" target="_top" xlink:title=" ">
<polygon fill="#ffffff" stroke="#000000" points="175.5,-168.5 175.5,-187.5 243.5,-187.5 243.5,-168.5 175.5,-168.5"/>
<text text-anchor="middle" x="209.5" y="-175.5" font-family="Helvetica,sans-Serif" font-size="10.00" fill="#000000">modload.h</text>
</a>
</g>
</g>
<!-- Node1&#45;&gt;Node21 -->
<g id="edge41" class="edge">
<title>Node1&#45;&gt;Node21</title>
<path fill="none" stroke="#191970" d="M469.9482,-229.5986C416.6151,-220.0961 334.2072,-204.9906 253.5622,-188.1619"/>
<polygon fill="#191970" stroke="#191970" points="254.2438,-184.7287 243.7383,-186.1013 252.8068,-191.5797 254.2438,-184.7287"/>
</g>
<!-- Node22 -->
<g id="node22" class="node">
<title>Node22</title>
<g id="a_node22"><a xlink:href="intrman_8h.html" target="_top" xlink:title=" ">
<polygon fill="#ffffff" stroke="#000000" points="261.5,-168.5 261.5,-187.5 325.5,-187.5 325.5,-168.5 261.5,-168.5"/>
<text text-anchor="middle" x="293.5" y="-175.5" font-family="Helvetica,sans-Serif" font-size="10.00" fill="#000000">intrman.h</text>
</a>
</g>
</g>
<!-- Node1&#45;&gt;Node22 -->
<g id="edge44" class="edge">
<title>Node1&#45;&gt;Node22</title>
<path fill="none" stroke="#191970" d="M469.7997,-224.534C428.4287,-213.6142 373.2538,-199.0509 335.722,-189.1444"/>
<polygon fill="#191970" stroke="#191970" points="336.1922,-185.6487 325.6301,-186.4807 334.4057,-192.417 336.1922,-185.6487"/>
</g>
<!-- Node23 -->
<g id="node23" class="node">
<title>Node23</title>
<g id="a_node23"><a xlink:href="excepman_8h.html" target="_top" xlink:title=" ">
<polygon fill="#ffffff" stroke="#000000" points="344,-168.5 344,-187.5 421,-187.5 421,-168.5 344,-168.5"/>
<text text-anchor="middle" x="382.5" y="-175.5" font-family="Helvetica,sans-Serif" font-size="10.00" fill="#000000">excepman.h</text>
</a>
</g>
</g>
<!-- Node1&#45;&gt;Node23 -->
<g id="edge47" class="edge">
<title>Node1&#45;&gt;Node23</title>
<path fill="none" stroke="#191970" d="M491.2736,-224.4554C467.6684,-214.374 436.8546,-201.2139 414.0524,-191.4755"/>
<polygon fill="#191970" stroke="#191970" points="415.386,-188.2393 404.8149,-187.5303 412.6366,-194.6767 415.386,-188.2393"/>
</g>
<!-- Node3 -->
<g id="node3" class="node">
<title>Node3</title>
<g id="a_node3"><a xlink:href="types_8h.html" target="_top" xlink:title=" ">
<polygon fill="#ffffff" stroke="#000000" points="474,-56.5 474,-75.5 527,-75.5 527,-56.5 474,-56.5"/>
<text text-anchor="middle" x="500.5" y="-63.5" font-family="Helvetica,sans-Serif" font-size="10.00" fill="#000000">types.h</text>
</a>
</g>
</g>
<!-- Node2&#45;&gt;Node3 -->
<g id="edge2" class="edge">
<title>Node2&#45;&gt;Node3</title>
<path fill="none" stroke="#191970" d="M521.1453,-112.2455C517.7756,-104.6973 513.007,-94.0158 508.9017,-84.8197"/>
<polygon fill="#191970" stroke="#191970" points="512.0773,-83.3473 504.8048,-75.6427 505.6853,-86.2009 512.0773,-83.3473"/>
</g>
<!-- Node4 -->
<g id="node4" class="node">
<title>Node4</title>
<g id="a_node4"><a xlink:title=" ">
<polygon fill="#ffffff" stroke="#bfbfbf" points="431.5,-.5 431.5,-19.5 487.5,-19.5 487.5,-.5 431.5,-.5"/>
<text text-anchor="middle" x="459.5" y="-7.5" font-family="Helvetica,sans-Serif" font-size="10.00" fill="#000000">stddef.h</text>
</a>
</g>
</g>
<!-- Node3&#45;&gt;Node4 -->
<g id="edge3" class="edge">
<title>Node3&#45;&gt;Node4</title>
<path fill="none" stroke="#191970" d="M493.3583,-56.2455C487.6556,-48.4564 479.51,-37.3308 472.6375,-27.9439"/>
<polygon fill="#191970" stroke="#191970" points="475.2913,-25.6437 466.5598,-19.6427 469.6432,-29.7789 475.2913,-25.6437"/>
</g>
<!-- Node5 -->
<g id="node5" class="node">
<title>Node5</title>
<g id="a_node5"><a xlink:href="tamtypes_8h.html" target="_top" xlink:title=" ">
<polygon fill="#ffffff" stroke="#000000" points="505.5,-.5 505.5,-19.5 577.5,-19.5 577.5,-.5 505.5,-.5"/>
<text text-anchor="middle" x="541.5" y="-7.5" font-family="Helvetica,sans-Serif" font-size="10.00" fill="#000000">tamtypes.h</text>
</a>
</g>
</g>
<!-- Node3&#45;&gt;Node5 -->
<g id="edge4" class="edge">
<title>Node3&#45;&gt;Node5</title>
<path fill="none" stroke="#191970" d="M507.6417,-56.2455C513.3444,-48.4564 521.49,-37.3308 528.3625,-27.9439"/>
<polygon fill="#191970" stroke="#191970" points="531.3568,-29.7789 534.4402,-19.6427 525.7087,-25.6437 531.3568,-29.7789"/>
</g>
<!-- Node6&#45;&gt;Node2 -->
<g id="edge7" class="edge">
<title>Node6&#45;&gt;Node2</title>
<path fill="none" stroke="#191970" d="M71.2892,-169.6551C74.3958,-169.0498 77.4981,-168.487 80.5,-168 236.19,-142.7411 424.897,-128.6099 496.2684,-123.8465"/>
<polygon fill="#191970" stroke="#191970" points="496.5629,-127.3348 506.3119,-123.1868 496.104,-120.3499 496.5629,-127.3348"/>
</g>
<!-- Node6&#45;&gt;Node3 -->
<g id="edge6" class="edge">
<title>Node6&#45;&gt;Node3</title>
<path fill="none" stroke="#191970" d="M66.0605,-168.4365C110.2321,-154.8128 194.6206,-129.5292 267.5,-112 336.3049,-95.4508 417.5806,-80.4158 463.679,-72.3031"/>
<polygon fill="#191970" stroke="#191970" points="464.5407,-75.7057 473.7886,-70.5359 463.3352,-68.8102 464.5407,-75.7057"/>
</g>
<!-- Node7 -->
<g id="node7" class="node">
<title>Node7</title>
<g id="a_node7"><a xlink:href="libcdvd-common_8h.html" target="_top" xlink:title=" ">
<polygon fill="#ffffff" stroke="#000000" points="284,-56.5 284,-75.5 391,-75.5 391,-56.5 284,-56.5"/>
<text text-anchor="middle" x="337.5" y="-63.5" font-family="Helvetica,sans-Serif" font-size="10.00" fill="#000000">libcdvd&#45;common.h</text>
</a>
</g>
</g>
<!-- Node6&#45;&gt;Node7 -->
<g id="edge8" class="edge">
<title>Node6&#45;&gt;Node7</title>
<path fill="none" stroke="#191970" d="M52.2382,-168.3614C76.9948,-154.4165 125.1281,-128.4836 168.5,-112 205.9799,-97.7556 249.686,-85.9812 283.2609,-77.9113"/>
<polygon fill="#191970" stroke="#191970" points="284.4119,-81.2357 293.3373,-75.5272 282.8001,-74.4238 284.4119,-81.2357"/>
</g>
<!-- Node7&#45;&gt;Node5 -->
<g id="edge9" class="edge">
<title>Node7&#45;&gt;Node5</title>
<path fill="none" stroke="#191970" d="M372.5689,-56.3733C406.9315,-46.9404 459.4392,-32.5265 496.7851,-22.2747"/>
<polygon fill="#191970" stroke="#191970" points="498.172,-25.5235 506.8888,-19.5011 496.319,-18.7732 498.172,-25.5235"/>
</g>
<!-- Node8&#45;&gt;Node2 -->
<g id="edge12" class="edge">
<title>Node8&#45;&gt;Node2</title>
<path fill="none" stroke="#191970" d="M157.7029,-169.7173C160.6705,-169.0985 163.6335,-168.5156 166.5,-168 288.1402,-146.1205 434.7871,-130.7073 496.2079,-124.7399"/>
<polygon fill="#191970" stroke="#191970" points="496.7062,-128.2083 506.3257,-123.7679 496.0367,-121.2403 496.7062,-128.2083"/>
</g>
<!-- Node8&#45;&gt;Node3 -->
<g id="edge11" class="edge">
<title>Node8&#45;&gt;Node3</title>
<path fill="none" stroke="#191970" d="M153.1082,-168.4016C193.8443,-155.273 269.5214,-131.16 334.5,-112 378.952,-98.8926 430.416,-84.7978 464.1135,-75.7142"/>
<polygon fill="#191970" stroke="#191970" points="465.2256,-79.0395 473.9735,-73.0626 463.4077,-72.2797 465.2256,-79.0395"/>
</g>
<!-- Node9&#45;&gt;Node2 -->
<g id="edge15" class="edge">
<title>Node9&#45;&gt;Node2</title>
<path fill="none" stroke="#191970" d="M478.4286,-168.2455C486.6838,-160.1352 498.6209,-148.4075 508.4082,-138.7919"/>
<polygon fill="#191970" stroke="#191970" points="511.0046,-141.1476 515.6851,-131.6427 506.0989,-136.1542 511.0046,-141.1476"/>
</g>
<!-- Node9&#45;&gt;Node3 -->
<g id="edge14" class="edge">
<title>Node9&#45;&gt;Node3</title>
<path fill="none" stroke="#191970" d="M471.2283,-168.4509C476.4711,-150.1013 488.0455,-109.5908 494.9659,-85.3693"/>
<polygon fill="#191970" stroke="#191970" points="498.3967,-86.1017 497.7786,-75.5249 491.666,-84.1786 498.3967,-86.1017"/>
</g>
<!-- Node10&#45;&gt;Node2 -->
<g id="edge18" class="edge">
<title>Node10&#45;&gt;Node2</title>
<path fill="none" stroke="#191970" d="M574.223,-168.2455C565.6782,-160.1352 553.3222,-148.4075 543.1915,-138.7919"/>
<polygon fill="#191970" stroke="#191970" points="545.3218,-135.9884 535.6592,-131.6427 540.5028,-141.0655 545.3218,-135.9884"/>
</g>
<!-- Node10&#45;&gt;Node3 -->
<g id="edge17" class="edge">
<title>Node10&#45;&gt;Node3</title>
<path fill="none" stroke="#191970" d="M581.4058,-168.3577C576.7705,-154.86 567.093,-129.972 553.5,-112 544.8871,-100.6125 533.0536,-90.0114 522.7527,-81.8629"/>
<polygon fill="#191970" stroke="#191970" points="524.6422,-78.9026 514.5649,-75.6317 520.4029,-84.4729 524.6422,-78.9026"/>
</g>
<!-- Node11&#45;&gt;Node2 -->
<g id="edge21" class="edge">
<title>Node11&#45;&gt;Node2</title>
<path fill="none" stroke="#191970" d="M634.8084,-168.3733C612.5219,-158.9184 578.4397,-144.4593 554.2644,-134.2031"/>
<polygon fill="#191970" stroke="#191970" points="555.4656,-130.9108 544.8928,-130.2273 552.7317,-137.3549 555.4656,-130.9108"/>
</g>
<!-- Node12 -->
<g id="node12" class="node">
<title>Node12</title>
<g id="a_node12"><a xlink:title=" ">
<polygon fill="#ffffff" stroke="#bfbfbf" points="639.5,-112.5 639.5,-131.5 695.5,-131.5 695.5,-112.5 639.5,-112.5"/>
<text text-anchor="middle" x="667.5" y="-119.5" font-family="Helvetica,sans-Serif" font-size="10.00" fill="#000000">stdarg.h</text>
</a>
</g>
</g>
<!-- Node11&#45;&gt;Node12 -->
<g id="edge20" class="edge">
<title>Node11&#45;&gt;Node12</title>
<path fill="none" stroke="#191970" d="M659.2419,-168.2455C660.5467,-160.9382 662.376,-150.6944 663.9813,-141.7046"/>
<polygon fill="#191970" stroke="#191970" points="667.4656,-142.1022 665.7781,-131.6427 660.5746,-140.8717 667.4656,-142.1022"/>
</g>
<!-- Node13&#45;&gt;Node2 -->
<g id="edge24" class="edge">
<title>Node13&#45;&gt;Node2</title>
<path fill="none" stroke="#191970" d="M700.4554,-168.878C659.8555,-157.9996 592.6973,-140.005 554.4756,-129.7638"/>
<polygon fill="#191970" stroke="#191970" points="555.0737,-126.3007 544.5086,-127.0932 553.262,-133.0622 555.0737,-126.3007"/>
</g>
<!-- Node13&#45;&gt;Node3 -->
<g id="edge23" class="edge">
<title>Node13&#45;&gt;Node3</title>
<path fill="none" stroke="#191970" d="M732.8833,-168.2679C729.9358,-153.7165 722.2693,-126.457 704.5,-112 679.2066,-91.4215 588.9732,-77.0742 537.3841,-70.345"/>
<polygon fill="#191970" stroke="#191970" points="537.6675,-66.853 527.3058,-69.0632 536.7842,-73.797 537.6675,-66.853"/>
</g>
<!-- Node13&#45;&gt;Node12 -->
<g id="edge25" class="edge">
<title>Node13&#45;&gt;Node12</title>
<path fill="none" stroke="#191970" d="M722.8295,-168.2455C712.9339,-159.9746 698.5373,-147.9416 686.9099,-138.2232"/>
<polygon fill="#191970" stroke="#191970" points="688.9542,-135.3703 679.0368,-131.6427 684.465,-140.7413 688.9542,-135.3703"/>
</g>
<!-- Node14&#45;&gt;Node2 -->
<g id="edge28" class="edge">
<title>Node14&#45;&gt;Node2</title>
<path fill="none" stroke="#191970" d="M863.7074,-169.802C860.9426,-169.1495 858.1755,-168.5365 855.5,-168 745.4718,-145.9352 612.696,-130.8958 554.8339,-124.9051"/>
<polygon fill="#191970" stroke="#191970" points="554.9101,-121.3947 544.6061,-123.8601 554.1985,-128.3584 554.9101,-121.3947"/>
</g>
<!-- Node14&#45;&gt;Node3 -->
<g id="edge27" class="edge">
<title>Node14&#45;&gt;Node3</title>
<path fill="none" stroke="#191970" d="M877.2341,-168.3568C852.1701,-153.9217 802.2096,-126.8119 756.5,-112 680.7024,-87.4383 587.774,-74.8818 537.3392,-69.4498"/>
<polygon fill="#191970" stroke="#191970" points="537.5525,-65.9532 527.2434,-68.3971 536.8264,-72.9154 537.5525,-65.9532"/>
</g>
<!-- Node14&#45;&gt;Node12 -->
<g id="edge29" class="edge">
<title>Node14&#45;&gt;Node12</title>
<path fill="none" stroke="#191970" d="M863.6419,-170.0903C860.8909,-169.3773 858.1448,-168.6715 855.5,-168 803.7011,-154.8483 743.6999,-140.283 705.6819,-131.1369"/>
<polygon fill="#191970" stroke="#191970" points="706.1078,-127.6397 695.5668,-128.7066 704.4725,-134.446 706.1078,-127.6397"/>
</g>
<!-- Node15 -->
<g id="node15" class="node">
<title>Node15</title>
<g id="a_node15"><a xlink:href="setjmp_8h.html" target="_top" xlink:title=" ">
<polygon fill="#ffffff" stroke="#000000" points="828,-112.5 828,-131.5 887,-131.5 887,-112.5 828,-112.5"/>
<text text-anchor="middle" x="857.5" y="-119.5" font-family="Helvetica,sans-Serif" font-size="10.00" fill="#000000">setjmp.h</text>
</a>
</g>
</g>
<!-- Node14&#45;&gt;Node15 -->
<g id="edge30" class="edge">
<title>Node14&#45;&gt;Node15</title>
<path fill="none" stroke="#191970" d="M887.2293,-168.2455C882.2736,-160.5367 875.217,-149.5598 869.2224,-140.2348"/>
<polygon fill="#191970" stroke="#191970" points="872.0506,-138.1618 863.6989,-131.6427 866.1624,-141.9471 872.0506,-138.1618"/>
</g>
<!-- Node15&#45;&gt;Node5 -->
<g id="edge31" class="edge">
<title>Node15&#45;&gt;Node5</title>
<path fill="none" stroke="#191970" d="M830.558,-112.4509C773.8884,-92.3655 642.305,-45.7284 578.0812,-22.9655"/>
<polygon fill="#191970" stroke="#191970" points="578.9685,-19.5667 568.3738,-19.5249 576.63,-26.1646 578.9685,-19.5667"/>
</g>
<!-- Node16&#45;&gt;Node2 -->
<g id="edge34" class="edge">
<title>Node16&#45;&gt;Node2</title>
<path fill="none" stroke="#191970" d="M786.7411,-170.1395C783.6278,-169.386 780.5042,-168.6585 777.5,-168 697.2985,-150.4207 601.7134,-134.2728 554.6446,-126.6345"/>
<polygon fill="#191970" stroke="#191970" points="554.9884,-123.1448 544.5587,-125.0077 553.8738,-130.0555 554.9884,-123.1448"/>
</g>
<!-- Node16&#45;&gt;Node3 -->
<g id="edge33" class="edge">
<title>Node16&#45;&gt;Node3</title>
<path fill="none" stroke="#191970" d="M806.4957,-168.4699C790.6444,-153.9307 758.1895,-126.3861 725.5,-112 662.8668,-84.4362 583.0833,-73.1557 537.2981,-68.7141"/>
<polygon fill="#191970" stroke="#191970" points="537.5186,-65.2198 527.2418,-67.7962 536.8822,-72.1908 537.5186,-65.2198"/>
</g>
<!-- Node17&#45;&gt;Node2 -->
<g id="edge37" class="edge">
<title>Node17&#45;&gt;Node2</title>
<path fill="none" stroke="#191970" d="M941.3205,-169.912C938.3565,-169.2029 935.3761,-168.5479 932.5,-168 859.7803,-154.1462 636.129,-132.3996 555.1561,-124.7626"/>
<polygon fill="#191970" stroke="#191970" points="554.9915,-121.2318 544.7079,-123.7809 554.3366,-128.2011 554.9915,-121.2318"/>
</g>
<!-- Node17&#45;&gt;Node3 -->
<g id="edge36" class="edge">
<title>Node17&#45;&gt;Node3</title>
<path fill="none" stroke="#191970" d="M962.2203,-168.353C950.3196,-153.3928 925.1359,-124.9726 896.5,-112 832.7265,-83.1094 622.4319,-71.1532 537.0309,-67.4089"/>
<polygon fill="#191970" stroke="#191970" points="537.1563,-63.9112 527.0164,-66.9826 536.8585,-70.9049 537.1563,-63.9112"/>
</g>
<!-- Node18 -->
<g id="node18" class="node">
<title>Node18</title>
<g id="a_node18"><a xlink:href="io__common_8h.html" target="_top" xlink:title=" ">
<polygon fill="#ffffff" stroke="#000000" points="944,-112.5 944,-131.5 1027,-131.5 1027,-112.5 944,-112.5"/>
<text text-anchor="middle" x="985.5" y="-119.5" font-family="Helvetica,sans-Serif" font-size="10.00" fill="#000000">io_common.h</text>
</a>
</g>
</g>
<!-- Node17&#45;&gt;Node18 -->
<g id="edge38" class="edge">
<title>Node17&#45;&gt;Node18</title>
<path fill="none" stroke="#191970" d="M972.287,-168.2455C974.3977,-160.8579 977.366,-150.4689 979.9547,-141.4087"/>
<polygon fill="#191970" stroke="#191970" points="983.363,-142.2195 982.745,-131.6427 976.6323,-140.2964 983.363,-142.2195"/>
</g>
<!-- Node19 -->
<g id="node19" class="node">
<title>Node19</title>
<g id="a_node19"><a xlink:href="fcntl_8h.html" target="_top" xlink:title=" ">
<polygon fill="#ffffff" stroke="#000000" points="907,-56.5 907,-75.5 974,-75.5 974,-56.5 907,-56.5"/>
<text text-anchor="middle" x="940.5" y="-63.5" font-family="Helvetica,sans-Serif" font-size="10.00" fill="#000000">sys/fcntl.h</text>
</a>
</g>
</g>
<!-- Node18&#45;&gt;Node19 -->
<g id="edge39" class="edge">
<title>Node18&#45;&gt;Node19</title>
<path fill="none" stroke="#191970" d="M977.6616,-112.2455C971.338,-104.3761 962.2776,-93.101 954.6864,-83.6542"/>
<polygon fill="#191970" stroke="#191970" points="957.2408,-81.2454 948.2486,-75.6427 951.7842,-85.6302 957.2408,-81.2454"/>
</g>
<!-- Node20 -->
<g id="node20" class="node">
<title>Node20</title>
<g id="a_node20"><a xlink:href="unistd_8h.html" target="_top" xlink:title=" ">
<polygon fill="#ffffff" stroke="#000000" points="992,-56.5 992,-75.5 1067,-75.5 1067,-56.5 992,-56.5"/>
<text text-anchor="middle" x="1029.5" y="-63.5" font-family="Helvetica,sans-Serif" font-size="10.00" fill="#000000">sys/unistd.h</text>
</a>
</g>
</g>
<!-- Node18&#45;&gt;Node20 -->
<g id="edge40" class="edge">
<title>Node18&#45;&gt;Node20</title>
<path fill="none" stroke="#191970" d="M993.1642,-112.2455C999.3473,-104.3761 1008.2063,-93.101 1015.6289,-83.6542"/>
<polygon fill="#191970" stroke="#191970" points="1018.4975,-85.6683 1021.9236,-75.6427 1012.9932,-81.3435 1018.4975,-85.6683"/>
</g>
<!-- Node21&#45;&gt;Node2 -->
<g id="edge43" class="edge">
<title>Node21&#45;&gt;Node2</title>
<path fill="none" stroke="#191970" d="M243.7263,-169.8402C246.6888,-169.1947 249.6442,-168.5721 252.5,-168 340.751,-150.3206 445.9673,-133.8925 496.1089,-126.3447"/>
<polygon fill="#191970" stroke="#191970" points="496.8568,-129.7718 506.2284,-124.8297 495.8203,-122.849 496.8568,-129.7718"/>
</g>
<!-- Node21&#45;&gt;Node3 -->
<g id="edge42" class="edge">
<title>Node21&#45;&gt;Node3</title>
<path fill="none" stroke="#191970" d="M234.3105,-168.4509C286.282,-148.4482 406.6739,-102.1117 466.0796,-79.2477"/>
<polygon fill="#191970" stroke="#191970" points="467.6769,-82.3833 475.7523,-75.5249 465.1625,-75.8505 467.6769,-82.3833"/>
</g>
<!-- Node22&#45;&gt;Node2 -->
<g id="edge46" class="edge">
<title>Node22&#45;&gt;Node2</title>
<path fill="none" stroke="#191970" d="M325.7268,-170.1305C328.6926,-169.4091 331.6518,-168.6903 334.5,-168 391.9175,-154.0838 459.078,-137.94 496.5103,-128.9542"/>
<polygon fill="#191970" stroke="#191970" points="497.3399,-132.3546 506.247,-126.6174 495.7063,-125.5479 497.3399,-132.3546"/>
</g>
<!-- Node22&#45;&gt;Node3 -->
<g id="edge45" class="edge">
<title>Node22&#45;&gt;Node3</title>
<path fill="none" stroke="#191970" d="M311.1487,-168.4509C347.507,-148.7788 430.94,-103.6363 473.8848,-80.4005"/>
<polygon fill="#191970" stroke="#191970" points="475.7664,-83.362 482.896,-75.5249 472.4352,-77.2054 475.7664,-83.362"/>
</g>
<!-- Node23&#45;&gt;Node2 -->
<g id="edge49" class="edge">
<title>Node23&#45;&gt;Node2</title>
<path fill="none" stroke="#191970" d="M407.0826,-168.3733C432.0073,-158.6125 470.551,-143.5185 496.8459,-133.2212"/>
<polygon fill="#191970" stroke="#191970" points="498.2349,-136.4361 506.2701,-129.5306 495.6823,-129.9181 498.2349,-136.4361"/>
</g>
<!-- Node23&#45;&gt;Node3 -->
<g id="edge48" class="edge">
<title>Node23&#45;&gt;Node3</title>
<path fill="none" stroke="#191970" d="M392.5606,-168.4509C412.677,-149.3574 458.073,-106.2697 483.1094,-82.5063"/>
<polygon fill="#191970" stroke="#191970" points="485.6213,-84.9478 490.4649,-75.5249 480.8023,-79.8706 485.6213,-84.9478"/>
</g>
</g>
</svg>
