<?xml version="1.0" encoding="UTF-8" standalone="no"?>
<!DOCTYPE svg PUBLIC "-//W3C//DTD SVG 1.1//EN"
 "http://www.w3.org/Graphics/SVG/1.1/DTD/svg11.dtd">
<!-- Generated by graphviz version 2.40.1 (20161225.0304)
 -->
<!-- Title: iop/fs/devfs/src/devfs.c Pages: 1 -->
<svg width="1004pt" height="252pt"
 viewBox="0.00 0.00 1003.50 252.00" xmlns="http://www.w3.org/2000/svg" xmlns:xlink="http://www.w3.org/1999/xlink">
<g id="graph0" class="graph" transform="scale(1 1) rotate(0) translate(4 248)">
<title>iop/fs/devfs/src/devfs.c</title>
<polygon fill="#ffffff" stroke="transparent" points="-4,4 -4,-248 999.5,-248 999.5,4 -4,4"/>
<!-- Node1 -->
<g id="node1" class="node">
<title>Node1</title>
<g id="a_node1"><a xlink:title=" ">
<polygon fill="#bfbfbf" stroke="#000000" points="369,-224.5 369,-243.5 498,-243.5 498,-224.5 369,-224.5"/>
<text text-anchor="middle" x="433.5" y="-231.5" font-family="Helvetica,sans-Serif" font-size="10.00" fill="#000000">iop/fs/devfs/src/devfs.c</text>
</a>
</g>
</g>
<!-- Node2 -->
<g id="node2" class="node">
<title>Node2</title>
<g id="a_node2"><a xlink:title=" ">
<polygon fill="#ffffff" stroke="#bfbfbf" points="71,-112.5 71,-131.5 124,-131.5 124,-112.5 71,-112.5"/>
<text text-anchor="middle" x="97.5" y="-119.5" font-family="Helvetica,sans-Serif" font-size="10.00" fill="#000000">types.h</text>
</a>
</g>
</g>
<!-- Node1&#45;&gt;Node2 -->
<g id="edge1" class="edge">
<title>Node1&#45;&gt;Node2</title>
<path fill="none" stroke="#191970" d="M368.6332,-230.2932C270.2494,-224.0007 92.6518,-209.7547 73.5,-188 61.4908,-174.3587 71.604,-154.2264 82.1486,-139.7873"/>
<polygon fill="#191970" stroke="#191970" points="85.1292,-141.66 88.5759,-131.6415 79.6339,-137.324 85.1292,-141.66"/>
</g>
<!-- Node3 -->
<g id="node3" class="node">
<title>Node3</title>
<g id="a_node3"><a xlink:href="defs_8h.html" target="_top" xlink:title=" ">
<polygon fill="#ffffff" stroke="#000000" points="0,-112.5 0,-131.5 47,-131.5 47,-112.5 0,-112.5"/>
<text text-anchor="middle" x="23.5" y="-119.5" font-family="Helvetica,sans-Serif" font-size="10.00" fill="#000000">defs.h</text>
</a>
</g>
</g>
<!-- Node1&#45;&gt;Node3 -->
<g id="edge2" class="edge">
<title>Node1&#45;&gt;Node3</title>
<path fill="none" stroke="#191970" d="M368.9494,-232.5543C276.8859,-229.3983 113.569,-219.4152 64.5,-188 47.5161,-177.1265 36.3863,-156.4444 30.0654,-141.1181"/>
<polygon fill="#191970" stroke="#191970" points="33.2573,-139.6638 26.4448,-131.5497 26.7104,-142.1412 33.2573,-139.6638"/>
</g>
<!-- Node7 -->
<g id="node7" class="node">
<title>Node7</title>
<g id="a_node7"><a xlink:href="irx_8h.html" target="_top" xlink:title=" ">
<polygon fill="#ffffff" stroke="#000000" points="476.5,-112.5 476.5,-131.5 514.5,-131.5 514.5,-112.5 476.5,-112.5"/>
<text text-anchor="middle" x="495.5" y="-119.5" font-family="Helvetica,sans-Serif" font-size="10.00" fill="#000000">irx.h</text>
</a>
</g>
</g>
<!-- Node1&#45;&gt;Node7 -->
<g id="edge6" class="edge">
<title>Node1&#45;&gt;Node7</title>
<path fill="none" stroke="#191970" d="M445.3501,-224.2073C455.0369,-215.6044 468.4091,-202.2629 476.5,-188 484.6814,-173.5775 489.5808,-155.3487 492.3497,-141.7046"/>
<polygon fill="#191970" stroke="#191970" points="495.8586,-141.9703 494.1998,-131.5062 488.971,-140.7208 495.8586,-141.9703"/>
</g>
<!-- Node8 -->
<g id="node8" class="node">
<title>Node8</title>
<g id="a_node8"><a xlink:href="loadcore_8h.html" target="_top" xlink:title=" ">
<polygon fill="#ffffff" stroke="#000000" points="154.5,-168.5 154.5,-187.5 222.5,-187.5 222.5,-168.5 154.5,-168.5"/>
<text text-anchor="middle" x="188.5" y="-175.5" font-family="Helvetica,sans-Serif" font-size="10.00" fill="#000000">loadcore.h</text>
</a>
</g>
</g>
<!-- Node1&#45;&gt;Node8 -->
<g id="edge8" class="edge">
<title>Node1&#45;&gt;Node8</title>
<path fill="none" stroke="#191970" d="M391.3164,-224.4531C352.5974,-215.677 293.364,-202.218 232.8749,-188.3096"/>
<polygon fill="#191970" stroke="#191970" points="233.2944,-184.8148 222.7642,-185.9834 231.7248,-191.6366 233.2944,-184.8148"/>
</g>
<!-- Node9 -->
<g id="node9" class="node">
<title>Node9</title>
<g id="a_node9"><a xlink:href="thbase_8h.html" target="_top" xlink:title=" ">
<polygon fill="#ffffff" stroke="#000000" points="241,-168.5 241,-187.5 300,-187.5 300,-168.5 241,-168.5"/>
<text text-anchor="middle" x="270.5" y="-175.5" font-family="Helvetica,sans-Serif" font-size="10.00" fill="#000000">thbase.h</text>
</a>
</g>
</g>
<!-- Node1&#45;&gt;Node9 -->
<g id="edge11" class="edge">
<title>Node1&#45;&gt;Node9</title>
<path fill="none" stroke="#191970" d="M405.4793,-224.3733C378.4922,-215.1016 337.4983,-201.0178 307.7689,-190.804"/>
<polygon fill="#191970" stroke="#191970" points="308.7497,-187.4403 298.1551,-187.5011 306.4752,-194.0605 308.7497,-187.4403"/>
</g>
<!-- Node10 -->
<g id="node10" class="node">
<title>Node10</title>
<g id="a_node10"><a xlink:href="thevent_8h.html" target="_top" xlink:title=" ">
<polygon fill="#ffffff" stroke="#000000" points="318,-168.5 318,-187.5 381,-187.5 381,-168.5 318,-168.5"/>
<text text-anchor="middle" x="349.5" y="-175.5" font-family="Helvetica,sans-Serif" font-size="10.00" fill="#000000">thevent.h</text>
</a>
</g>
</g>
<!-- Node1&#45;&gt;Node10 -->
<g id="edge14" class="edge">
<title>Node1&#45;&gt;Node10</title>
<path fill="none" stroke="#191970" d="M418.8683,-224.2455C406.1006,-215.7337 387.3562,-203.2375 372.5701,-193.3801"/>
<polygon fill="#191970" stroke="#191970" points="374.226,-190.2775 363.964,-187.6427 370.3431,-196.1019 374.226,-190.2775"/>
</g>
<!-- Node11 -->
<g id="node11" class="node">
<title>Node11</title>
<g id="a_node11"><a xlink:href="thsemap_8h.html" target="_top" xlink:title=" ">
<polygon fill="#ffffff" stroke="#000000" points="399.5,-168.5 399.5,-187.5 467.5,-187.5 467.5,-168.5 399.5,-168.5"/>
<text text-anchor="middle" x="433.5" y="-175.5" font-family="Helvetica,sans-Serif" font-size="10.00" fill="#000000">thsemap.h</text>
</a>
</g>
</g>
<!-- Node1&#45;&gt;Node11 -->
<g id="edge17" class="edge">
<title>Node1&#45;&gt;Node11</title>
<path fill="none" stroke="#191970" d="M433.5,-224.2455C433.5,-216.9382 433.5,-206.6944 433.5,-197.7046"/>
<polygon fill="#191970" stroke="#191970" points="437.0001,-197.6426 433.5,-187.6427 430.0001,-197.6427 437.0001,-197.6426"/>
</g>
<!-- Node12 -->
<g id="node12" class="node">
<title>Node12</title>
<g id="a_node12"><a xlink:href="intrman_8h.html" target="_top" xlink:title=" ">
<polygon fill="#ffffff" stroke="#000000" points="523.5,-168.5 523.5,-187.5 587.5,-187.5 587.5,-168.5 523.5,-168.5"/>
<text text-anchor="middle" x="555.5" y="-175.5" font-family="Helvetica,sans-Serif" font-size="10.00" fill="#000000">intrman.h</text>
</a>
</g>
</g>
<!-- Node1&#45;&gt;Node12 -->
<g id="edge20" class="edge">
<title>Node1&#45;&gt;Node12</title>
<path fill="none" stroke="#191970" d="M454.4725,-224.3733C474.0567,-215.3838 503.4961,-201.8706 525.551,-191.7471"/>
<polygon fill="#191970" stroke="#191970" points="527.1729,-194.8538 534.8011,-187.5011 524.2527,-188.4919 527.1729,-194.8538"/>
</g>
<!-- Node13 -->
<g id="node13" class="node">
<title>Node13</title>
<g id="a_node13"><a xlink:href="stdio_8h.html" target="_top" xlink:title=" ">
<polygon fill="#ffffff" stroke="#000000" points="605.5,-168.5 605.5,-187.5 655.5,-187.5 655.5,-168.5 605.5,-168.5"/>
<text text-anchor="middle" x="630.5" y="-175.5" font-family="Helvetica,sans-Serif" font-size="10.00" fill="#000000">stdio.h</text>
</a>
</g>
</g>
<!-- Node1&#45;&gt;Node13 -->
<g id="edge23" class="edge">
<title>Node1&#45;&gt;Node13</title>
<path fill="none" stroke="#191970" d="M467.8747,-224.4175C498.8857,-215.7464 546.0008,-202.5077 595.6339,-188.2302"/>
<polygon fill="#191970" stroke="#191970" points="596.6177,-191.5892 605.258,-185.4576 594.6799,-184.8627 596.6177,-191.5892"/>
</g>
<!-- Node15 -->
<g id="node15" class="node">
<title>Node15</title>
<g id="a_node15"><a xlink:href="sysclib_8h.html" target="_top" xlink:title=" ">
<polygon fill="#ffffff" stroke="#000000" points="674,-168.5 674,-187.5 733,-187.5 733,-168.5 674,-168.5"/>
<text text-anchor="middle" x="703.5" y="-175.5" font-family="Helvetica,sans-Serif" font-size="10.00" fill="#000000">sysclib.h</text>
</a>
</g>
</g>
<!-- Node1&#45;&gt;Node15 -->
<g id="edge26" class="edge">
<title>Node1&#45;&gt;Node15</title>
<path fill="none" stroke="#191970" d="M485.5069,-224.4814C530.2378,-216.105 596.7061,-203.209 663.825,-188.062"/>
<polygon fill="#191970" stroke="#191970" points="664.7542,-191.4401 673.73,-185.8111 663.203,-184.6142 664.7542,-191.4401"/>
</g>
<!-- Node17 -->
<g id="node17" class="node">
<title>Node17</title>
<g id="a_node17"><a xlink:href="devfs_8h.html" target="_top" xlink:title=" ">
<polygon fill="#ffffff" stroke="#000000" points="83,-168.5 83,-187.5 136,-187.5 136,-168.5 83,-168.5"/>
<text text-anchor="middle" x="109.5" y="-175.5" font-family="Helvetica,sans-Serif" font-size="10.00" fill="#000000">devfs.h</text>
</a>
</g>
</g>
<!-- Node1&#45;&gt;Node17 -->
<g id="edge32" class="edge">
<title>Node1&#45;&gt;Node17</title>
<path fill="none" stroke="#191970" d="M368.7701,-225.7836C312.4336,-218.1501 228.4373,-205.6111 146.1744,-187.9436"/>
<polygon fill="#191970" stroke="#191970" points="146.6684,-184.4693 136.1529,-185.7636 145.1804,-191.3093 146.6684,-184.4693"/>
</g>
<!-- Node18 -->
<g id="node18" class="node">
<title>Node18</title>
<g id="a_node18"><a xlink:href="sysmem_8h.html" target="_top" xlink:title=" ">
<polygon fill="#ffffff" stroke="#000000" points="751.5,-168.5 751.5,-187.5 819.5,-187.5 819.5,-168.5 751.5,-168.5"/>
<text text-anchor="middle" x="785.5" y="-175.5" font-family="Helvetica,sans-Serif" font-size="10.00" fill="#000000">sysmem.h</text>
</a>
</g>
</g>
<!-- Node1&#45;&gt;Node18 -->
<g id="edge35" class="edge">
<title>Node1&#45;&gt;Node18</title>
<path fill="none" stroke="#191970" d="M498.2646,-225.9062C558.698,-218.0026 651.5751,-204.9618 741.2193,-188.1284"/>
<polygon fill="#191970" stroke="#191970" points="742.1127,-191.5214 751.2854,-186.2194 740.8083,-184.644 742.1127,-191.5214"/>
</g>
<!-- Node19 -->
<g id="node19" class="node">
<title>Node19</title>
<g id="a_node19"><a xlink:href="iomanX_8h.html" target="_top" xlink:title=" ">
<polygon fill="#ffffff" stroke="#000000" points="838,-168.5 838,-187.5 901,-187.5 901,-168.5 838,-168.5"/>
<text text-anchor="middle" x="869.5" y="-175.5" font-family="Helvetica,sans-Serif" font-size="10.00" fill="#000000">iomanX.h</text>
</a>
</g>
</g>
<!-- Node1&#45;&gt;Node19 -->
<g id="edge39" class="edge">
<title>Node1&#45;&gt;Node19</title>
<path fill="none" stroke="#191970" d="M498.1703,-228.9335C574.6265,-222.3922 705.8315,-209.4393 827.9021,-187.9093"/>
<polygon fill="#191970" stroke="#191970" points="828.5697,-191.3456 837.7982,-186.1412 827.3384,-184.4547 828.5697,-191.3456"/>
</g>
<!-- Node4 -->
<g id="node4" class="node">
<title>Node4</title>
<g id="a_node4"><a xlink:href="types_8h.html" target="_top" xlink:title=" ">
<polygon fill="#ffffff" stroke="#000000" points="469,-56.5 469,-75.5 522,-75.5 522,-56.5 469,-56.5"/>
<text text-anchor="middle" x="495.5" y="-63.5" font-family="Helvetica,sans-Serif" font-size="10.00" fill="#000000">types.h</text>
</a>
</g>
</g>
<!-- Node3&#45;&gt;Node4 -->
<g id="edge3" class="edge">
<title>Node3&#45;&gt;Node4</title>
<path fill="none" stroke="#191970" d="M47.0919,-115.1989C51.8337,-113.9999 56.8031,-112.8618 61.5,-112 207.1153,-85.2827 383.2738,-72.5521 458.5245,-68.0217"/>
<polygon fill="#191970" stroke="#191970" points="459.1023,-71.4938 468.8793,-67.412 458.6908,-64.5059 459.1023,-71.4938"/>
</g>
<!-- Node5 -->
<g id="node5" class="node">
<title>Node5</title>
<g id="a_node5"><a xlink:title=" ">
<polygon fill="#ffffff" stroke="#bfbfbf" points="467.5,-.5 467.5,-19.5 523.5,-19.5 523.5,-.5 467.5,-.5"/>
<text text-anchor="middle" x="495.5" y="-7.5" font-family="Helvetica,sans-Serif" font-size="10.00" fill="#000000">stddef.h</text>
</a>
</g>
</g>
<!-- Node4&#45;&gt;Node5 -->
<g id="edge4" class="edge">
<title>Node4&#45;&gt;Node5</title>
<path fill="none" stroke="#191970" d="M495.5,-56.2455C495.5,-48.9382 495.5,-38.6944 495.5,-29.7046"/>
<polygon fill="#191970" stroke="#191970" points="499.0001,-29.6426 495.5,-19.6427 492.0001,-29.6427 499.0001,-29.6426"/>
</g>
<!-- Node6 -->
<g id="node6" class="node">
<title>Node6</title>
<g id="a_node6"><a xlink:href="tamtypes_8h.html" target="_top" xlink:title=" ">
<polygon fill="#ffffff" stroke="#000000" points="573.5,-.5 573.5,-19.5 645.5,-19.5 645.5,-.5 573.5,-.5"/>
<text text-anchor="middle" x="609.5" y="-7.5" font-family="Helvetica,sans-Serif" font-size="10.00" fill="#000000">tamtypes.h</text>
</a>
</g>
</g>
<!-- Node4&#45;&gt;Node6 -->
<g id="edge5" class="edge">
<title>Node4&#45;&gt;Node6</title>
<path fill="none" stroke="#191970" d="M515.0973,-56.3733C533.2331,-47.4644 560.4135,-34.1127 580.9587,-24.0203"/>
<polygon fill="#191970" stroke="#191970" points="582.7261,-27.0517 590.1584,-19.5011 579.6397,-20.7688 582.7261,-27.0517"/>
</g>
<!-- Node7&#45;&gt;Node4 -->
<g id="edge7" class="edge">
<title>Node7&#45;&gt;Node4</title>
<path fill="none" stroke="#191970" d="M495.5,-112.2455C495.5,-104.9382 495.5,-94.6944 495.5,-85.7046"/>
<polygon fill="#191970" stroke="#191970" points="499.0001,-85.6426 495.5,-75.6427 492.0001,-85.6427 499.0001,-85.6426"/>
</g>
<!-- Node8&#45;&gt;Node4 -->
<g id="edge9" class="edge">
<title>Node8&#45;&gt;Node4</title>
<path fill="none" stroke="#191970" d="M214.1078,-168.3902C248.6576,-155.4511 312.1406,-131.769 366.5,-112 397.6682,-100.665 433.1684,-88.0258 459.0269,-78.8687"/>
<polygon fill="#191970" stroke="#191970" points="460.5222,-82.0524 468.7822,-75.4173 458.1874,-75.4532 460.5222,-82.0524"/>
</g>
<!-- Node8&#45;&gt;Node7 -->
<g id="edge10" class="edge">
<title>Node8&#45;&gt;Node7</title>
<path fill="none" stroke="#191970" d="M222.7298,-169.8575C225.6916,-169.2083 228.6458,-168.5801 231.5,-168 316.2723,-150.7713 417.1714,-134.3029 466.0502,-126.5791"/>
<polygon fill="#191970" stroke="#191970" points="466.8834,-129.9912 476.2183,-124.9802 465.7959,-123.0762 466.8834,-129.9912"/>
</g>
<!-- Node9&#45;&gt;Node4 -->
<g id="edge12" class="edge">
<title>Node9&#45;&gt;Node4</title>
<path fill="none" stroke="#191970" d="M289.6834,-168.4509C329.3693,-148.6961 420.6543,-103.2565 467.1565,-80.1088"/>
<polygon fill="#191970" stroke="#191970" points="468.9727,-83.1144 476.3652,-75.5249 465.8533,-76.8479 468.9727,-83.1144"/>
</g>
<!-- Node9&#45;&gt;Node7 -->
<g id="edge13" class="edge">
<title>Node9&#45;&gt;Node7</title>
<path fill="none" stroke="#191970" d="M300.359,-170.0938C303.1098,-169.3801 305.8556,-168.6731 308.5,-168 364.2341,-153.8126 429.5009,-137.9218 466.3245,-129.0227"/>
<polygon fill="#191970" stroke="#191970" points="467.4617,-132.3488 476.3613,-126.6001 465.8192,-125.5442 467.4617,-132.3488"/>
</g>
<!-- Node10&#45;&gt;Node4 -->
<g id="edge15" class="edge">
<title>Node10&#45;&gt;Node4</title>
<path fill="none" stroke="#191970" d="M361.9479,-168.4509C387.0532,-149.1921 443.9805,-105.5218 474.7817,-81.8935"/>
<polygon fill="#191970" stroke="#191970" points="477.2796,-84.3885 483.0836,-75.5249 473.019,-78.8345 477.2796,-84.3885"/>
</g>
<!-- Node10&#45;&gt;Node7 -->
<g id="edge16" class="edge">
<title>Node10&#45;&gt;Node7</title>
<path fill="none" stroke="#191970" d="M374.5983,-168.3733C400.1906,-158.557 439.8459,-143.3468 466.7012,-133.0461"/>
<polygon fill="#191970" stroke="#191970" points="468.2277,-136.2093 476.3111,-129.3601 465.7209,-129.6736 468.2277,-136.2093"/>
</g>
<!-- Node11&#45;&gt;Node4 -->
<g id="edge18" class="edge">
<title>Node11&#45;&gt;Node4</title>
<path fill="none" stroke="#191970" d="M438.1341,-168.4887C444.4928,-155.5608 456.401,-131.7847 467.5,-112 472.6846,-102.7581 478.767,-92.6827 483.9359,-84.3235"/>
<polygon fill="#191970" stroke="#191970" points="486.9609,-86.0871 489.287,-75.7508 481.0227,-82.3805 486.9609,-86.0871"/>
</g>
<!-- Node11&#45;&gt;Node7 -->
<g id="edge19" class="edge">
<title>Node11&#45;&gt;Node7</title>
<path fill="none" stroke="#191970" d="M444.2996,-168.2455C453.3678,-160.0549 466.5206,-148.1749 477.2245,-138.5069"/>
<polygon fill="#191970" stroke="#191970" points="479.7491,-140.9429 484.8242,-131.6427 475.0571,-135.7482 479.7491,-140.9429"/>
</g>
<!-- Node12&#45;&gt;Node4 -->
<g id="edge21" class="edge">
<title>Node12&#45;&gt;Node4</title>
<path fill="none" stroke="#191970" d="M551.221,-168.4574C545.3298,-155.494 534.2276,-131.6778 523.5,-112 518.4278,-102.696 512.3583,-92.6134 507.1688,-84.2656"/>
<polygon fill="#191970" stroke="#191970" points="510.0734,-82.3096 501.7838,-75.7116 504.1495,-86.039 510.0734,-82.3096"/>
</g>
<!-- Node12&#45;&gt;Node7 -->
<g id="edge22" class="edge">
<title>Node12&#45;&gt;Node7</title>
<path fill="none" stroke="#191970" d="M545.0488,-168.2455C536.2731,-160.0549 523.5446,-148.1749 513.186,-138.5069"/>
<polygon fill="#191970" stroke="#191970" points="515.5301,-135.9072 505.8314,-131.6427 510.7539,-141.0246 515.5301,-135.9072"/>
</g>
<!-- Node13&#45;&gt;Node7 -->
<g id="edge25" class="edge">
<title>Node13&#45;&gt;Node7</title>
<path fill="none" stroke="#191970" d="M607.2927,-168.3733C584.2653,-158.8211 548.9247,-144.1613 524.1585,-133.888"/>
<polygon fill="#191970" stroke="#191970" points="525.4863,-130.6496 514.9084,-130.0509 522.8042,-137.1154 525.4863,-130.6496"/>
</g>
<!-- Node14 -->
<g id="node14" class="node">
<title>Node14</title>
<g id="a_node14"><a xlink:title=" ">
<polygon fill="#ffffff" stroke="#bfbfbf" points="601.5,-112.5 601.5,-131.5 657.5,-131.5 657.5,-112.5 601.5,-112.5"/>
<text text-anchor="middle" x="629.5" y="-119.5" font-family="Helvetica,sans-Serif" font-size="10.00" fill="#000000">stdarg.h</text>
</a>
</g>
</g>
<!-- Node13&#45;&gt;Node14 -->
<g id="edge24" class="edge">
<title>Node13&#45;&gt;Node14</title>
<path fill="none" stroke="#191970" d="M630.3258,-168.2455C630.1953,-160.9382 630.0124,-150.6944 629.8519,-141.7046"/>
<polygon fill="#191970" stroke="#191970" points="633.3503,-141.5786 629.6722,-131.6427 626.3514,-141.7036 633.3503,-141.5786"/>
</g>
<!-- Node15&#45;&gt;Node4 -->
<g id="edge27" class="edge">
<title>Node15&#45;&gt;Node4</title>
<path fill="none" stroke="#191970" d="M700.7421,-168.3245C696.1088,-153.8471 685.3675,-126.683 666.5,-112 645.6673,-95.7877 575.8328,-80.6262 532.1153,-72.4014"/>
<polygon fill="#191970" stroke="#191970" points="532.6125,-68.9341 522.1432,-70.5601 531.3414,-75.8178 532.6125,-68.9341"/>
</g>
<!-- Node15&#45;&gt;Node7 -->
<g id="edge28" class="edge">
<title>Node15&#45;&gt;Node7</title>
<path fill="none" stroke="#191970" d="M673.6987,-169.9766C633.8955,-159.2603 563.8366,-140.3983 524.4634,-129.7978"/>
<polygon fill="#191970" stroke="#191970" points="525.2527,-126.3858 514.6866,-127.1656 523.4328,-133.1451 525.2527,-126.3858"/>
</g>
<!-- Node15&#45;&gt;Node14 -->
<g id="edge29" class="edge">
<title>Node15&#45;&gt;Node14</title>
<path fill="none" stroke="#191970" d="M690.6102,-168.2455C679.5746,-159.8943 663.4708,-147.7076 650.5647,-137.9408"/>
<polygon fill="#191970" stroke="#191970" points="652.3283,-134.8862 642.2421,-131.6427 648.1041,-140.4681 652.3283,-134.8862"/>
</g>
<!-- Node16 -->
<g id="node16" class="node">
<title>Node16</title>
<g id="a_node16"><a xlink:href="setjmp_8h.html" target="_top" xlink:title=" ">
<polygon fill="#ffffff" stroke="#000000" points="610,-56.5 610,-75.5 669,-75.5 669,-56.5 610,-56.5"/>
<text text-anchor="middle" x="639.5" y="-63.5" font-family="Helvetica,sans-Serif" font-size="10.00" fill="#000000">setjmp.h</text>
</a>
</g>
</g>
<!-- Node15&#45;&gt;Node16 -->
<g id="edge30" class="edge">
<title>Node15&#45;&gt;Node16</title>
<path fill="none" stroke="#191970" d="M705.2836,-168.3773C707.2787,-154.9028 709.0916,-130.0422 699.5,-112 692.5771,-98.9778 680.173,-88.5253 668.4327,-80.8954"/>
<polygon fill="#191970" stroke="#191970" points="670.0559,-77.787 659.686,-75.6151 666.4381,-83.7796 670.0559,-77.787"/>
</g>
<!-- Node16&#45;&gt;Node6 -->
<g id="edge31" class="edge">
<title>Node16&#45;&gt;Node6</title>
<path fill="none" stroke="#191970" d="M634.2744,-56.2455C630.1877,-48.617 624.3865,-37.7881 619.425,-28.5267"/>
<polygon fill="#191970" stroke="#191970" points="622.4732,-26.8047 614.6657,-19.6427 616.3028,-30.1103 622.4732,-26.8047"/>
</g>
<!-- Node17&#45;&gt;Node2 -->
<g id="edge33" class="edge">
<title>Node17&#45;&gt;Node2</title>
<path fill="none" stroke="#191970" d="M107.4098,-168.2455C105.8439,-160.9382 103.6488,-150.6944 101.7224,-141.7046"/>
<polygon fill="#191970" stroke="#191970" points="105.084,-140.6873 99.5663,-131.6427 98.2393,-142.1541 105.084,-140.6873"/>
</g>
<!-- Node17&#45;&gt;Node7 -->
<g id="edge34" class="edge">
<title>Node17&#45;&gt;Node7</title>
<path fill="none" stroke="#191970" d="M136.1353,-170.1528C139.2765,-169.3608 142.449,-168.6211 145.5,-168 263.0949,-144.0627 405.5661,-129.8316 466.0581,-124.463"/>
<polygon fill="#191970" stroke="#191970" points="466.7166,-127.9189 476.3747,-123.5634 466.1085,-120.9454 466.7166,-127.9189"/>
</g>
<!-- Node18&#45;&gt;Node4 -->
<g id="edge36" class="edge">
<title>Node18&#45;&gt;Node4</title>
<path fill="none" stroke="#191970" d="M774.3718,-168.3967C757.1333,-154.0137 722.4138,-126.9711 688.5,-112 636.7211,-89.1424 571.8987,-76.6763 532.1092,-70.6789"/>
<polygon fill="#191970" stroke="#191970" points="532.4679,-67.1943 522.0691,-69.2232 531.4634,-74.1219 532.4679,-67.1943"/>
</g>
<!-- Node18&#45;&gt;Node7 -->
<g id="edge37" class="edge">
<title>Node18&#45;&gt;Node7</title>
<path fill="none" stroke="#191970" d="M751.2628,-169.8935C748.3026,-169.2365 745.3507,-168.5966 742.5,-168 664.0744,-151.5864 571.0236,-135.0437 524.715,-127.0081"/>
<polygon fill="#191970" stroke="#191970" points="525.2234,-123.5442 514.7733,-125.2893 524.0308,-130.4418 525.2234,-123.5442"/>
</g>
<!-- Node18&#45;&gt;Node14 -->
<g id="edge38" class="edge">
<title>Node18&#45;&gt;Node14</title>
<path fill="none" stroke="#191970" d="M758.6826,-168.3733C732.9668,-159.1419 693.962,-145.1402 665.5401,-134.9375"/>
<polygon fill="#191970" stroke="#191970" points="666.5619,-131.5857 655.9674,-131.5011 664.1968,-138.174 666.5619,-131.5857"/>
</g>
<!-- Node19&#45;&gt;Node4 -->
<g id="edge40" class="edge">
<title>Node19&#45;&gt;Node4</title>
<path fill="none" stroke="#191970" d="M850.9203,-168.3638C822.9007,-154.1839 767.8513,-127.6859 718.5,-112 684.258,-101.1165 586.2019,-82.4948 532.2258,-72.6125"/>
<polygon fill="#191970" stroke="#191970" points="532.8334,-69.1657 522.3678,-70.8151 531.5778,-76.0522 532.8334,-69.1657"/>
</g>
<!-- Node19&#45;&gt;Node7 -->
<g id="edge41" class="edge">
<title>Node19&#45;&gt;Node7</title>
<path fill="none" stroke="#191970" d="M837.7857,-169.9264C834.6574,-169.232 831.5229,-168.5759 828.5,-168 717.0494,-146.768 582.8394,-131.2561 524.7042,-125.0204"/>
<polygon fill="#191970" stroke="#191970" points="525.0706,-121.5397 514.757,-123.9647 524.3318,-128.5006 525.0706,-121.5397"/>
</g>
<!-- Node20 -->
<g id="node20" class="node">
<title>Node20</title>
<g id="a_node20"><a xlink:href="io__common_8h.html" target="_top" xlink:title=" ">
<polygon fill="#ffffff" stroke="#000000" points="828,-112.5 828,-131.5 911,-131.5 911,-112.5 828,-112.5"/>
<text text-anchor="middle" x="869.5" y="-119.5" font-family="Helvetica,sans-Serif" font-size="10.00" fill="#000000">io_common.h</text>
</a>
</g>
</g>
<!-- Node19&#45;&gt;Node20 -->
<g id="edge42" class="edge">
<title>Node19&#45;&gt;Node20</title>
<path fill="none" stroke="#191970" d="M869.5,-168.2455C869.5,-160.9382 869.5,-150.6944 869.5,-141.7046"/>
<polygon fill="#191970" stroke="#191970" points="873.0001,-141.6426 869.5,-131.6427 866.0001,-141.6427 873.0001,-141.6426"/>
</g>
<!-- Node23 -->
<g id="node23" class="node">
<title>Node23</title>
<g id="a_node23"><a xlink:href="iox__stat_8h.html" target="_top" xlink:title=" ">
<polygon fill="#ffffff" stroke="#000000" points="929,-112.5 929,-131.5 994,-131.5 994,-112.5 929,-112.5"/>
<text text-anchor="middle" x="961.5" y="-119.5" font-family="Helvetica,sans-Serif" font-size="10.00" fill="#000000">iox_stat.h</text>
</a>
</g>
</g>
<!-- Node19&#45;&gt;Node23 -->
<g id="edge45" class="edge">
<title>Node19&#45;&gt;Node23</title>
<path fill="none" stroke="#191970" d="M885.5252,-168.2455C899.6408,-159.6534 920.4263,-147.0014 936.6899,-137.1018"/>
<polygon fill="#191970" stroke="#191970" points="938.9363,-139.8319 945.6585,-131.6427 935.2966,-133.8525 938.9363,-139.8319"/>
</g>
<!-- Node21 -->
<g id="node21" class="node">
<title>Node21</title>
<g id="a_node21"><a xlink:href="fcntl_8h.html" target="_top" xlink:title=" ">
<polygon fill="#ffffff" stroke="#000000" points="748,-56.5 748,-75.5 815,-75.5 815,-56.5 748,-56.5"/>
<text text-anchor="middle" x="781.5" y="-63.5" font-family="Helvetica,sans-Serif" font-size="10.00" fill="#000000">sys/fcntl.h</text>
</a>
</g>
</g>
<!-- Node20&#45;&gt;Node21 -->
<g id="edge43" class="edge">
<title>Node20&#45;&gt;Node21</title>
<path fill="none" stroke="#191970" d="M854.1716,-112.2455C840.6697,-103.6534 820.7878,-91.0014 805.2314,-81.1018"/>
<polygon fill="#191970" stroke="#191970" points="806.9685,-78.0587 796.6528,-75.6427 803.2103,-83.9643 806.9685,-78.0587"/>
</g>
<!-- Node22 -->
<g id="node22" class="node">
<title>Node22</title>
<g id="a_node22"><a xlink:href="unistd_8h.html" target="_top" xlink:title=" ">
<polygon fill="#ffffff" stroke="#000000" points="833,-56.5 833,-75.5 908,-75.5 908,-56.5 833,-56.5"/>
<text text-anchor="middle" x="870.5" y="-63.5" font-family="Helvetica,sans-Serif" font-size="10.00" fill="#000000">sys/unistd.h</text>
</a>
</g>
</g>
<!-- Node20&#45;&gt;Node22 -->
<g id="edge44" class="edge">
<title>Node20&#45;&gt;Node22</title>
<path fill="none" stroke="#191970" d="M869.6742,-112.2455C869.8047,-104.9382 869.9876,-94.6944 870.1481,-85.7046"/>
<polygon fill="#191970" stroke="#191970" points="873.6486,-85.7036 870.3278,-75.6427 866.6497,-85.5786 873.6486,-85.7036"/>
</g>
<!-- Node24 -->
<g id="node24" class="node">
<title>Node24</title>
<g id="a_node24"><a xlink:href="time_8h.html" target="_top" xlink:title=" ">
<polygon fill="#ffffff" stroke="#000000" points="927.5,-56.5 927.5,-75.5 995.5,-75.5 995.5,-56.5 927.5,-56.5"/>
<text text-anchor="middle" x="961.5" y="-63.5" font-family="Helvetica,sans-Serif" font-size="10.00" fill="#000000">sys/time.h</text>
</a>
</g>
</g>
<!-- Node23&#45;&gt;Node24 -->
<g id="edge46" class="edge">
<title>Node23&#45;&gt;Node24</title>
<path fill="none" stroke="#191970" d="M961.5,-112.2455C961.5,-104.9382 961.5,-94.6944 961.5,-85.7046"/>
<polygon fill="#191970" stroke="#191970" points="965.0001,-85.6426 961.5,-75.6427 958.0001,-85.6427 965.0001,-85.6426"/>
</g>
</g>
</svg>
