<?xml version="1.0" encoding="UTF-8" standalone="no"?>
<!DOCTYPE svg PUBLIC "-//W3C//DTD SVG 1.1//EN"
 "http://www.w3.org/Graphics/SVG/1.1/DTD/svg11.dtd">
<!-- Generated by graphviz version 2.40.1 (20161225.0304)
 -->
<!-- Title: iop/fs/netfs/src/devscan.h Pages: 1 -->
<svg width="436pt" height="95pt"
 viewBox="0.00 0.00 436.00 95.00" xmlns="http://www.w3.org/2000/svg" xmlns:xlink="http://www.w3.org/1999/xlink">
<g id="graph0" class="graph" transform="scale(1 1) rotate(0) translate(4 91)">
<title>iop/fs/netfs/src/devscan.h</title>
<polygon fill="#ffffff" stroke="transparent" points="-4,4 -4,-91 432,-91 432,4 -4,4"/>
<!-- Node1 -->
<g id="node1" class="node">
<title>Node1</title>
<g id="a_node1"><a xlink:title=" ">
<polygon fill="#bfbfbf" stroke="#000000" points="142.5,-67.5 142.5,-86.5 283.5,-86.5 283.5,-67.5 142.5,-67.5"/>
<text text-anchor="middle" x="213" y="-74.5" font-family="Helvetica,sans-Serif" font-size="10.00" fill="#000000">iop/fs/netfs/src/devscan.h</text>
</a>
</g>
</g>
<!-- Node2 -->
<g id="node2" class="node">
<title>Node2</title>
<g id="a_node2"><a xlink:href="devscan_8c.html" target="_top" xlink:title=" ">
<polygon fill="#ffffff" stroke="#000000" points="0,-6 0,-25 140,-25 140,-6 0,-6"/>
<text text-anchor="middle" x="70" y="-13" font-family="Helvetica,sans-Serif" font-size="10.00" fill="#000000">iop/fs/netfs/src/devscan.c</text>
</a>
</g>
</g>
<!-- Node1&#45;&gt;Node2 -->
<g id="edge1" class="edge">
<title>Node1&#45;&gt;Node2</title>
<path fill="none" stroke="#191970" d="M181.2442,-63.3428C154.2048,-51.7139 116.0509,-35.3051 92.1869,-25.0419"/>
<polygon fill="#191970" stroke="#191970" points="180.087,-66.655 190.6563,-67.3906 182.8526,-60.2245 180.087,-66.655"/>
</g>
<!-- Node3 -->
<g id="node3" class="node">
<title>Node3</title>
<g id="a_node3"><a xlink:href="ps2__fio_8c.html" target="_top" xlink:title=" ">
<polygon fill="#ffffff" stroke="#000000" points="158.5,-.5 158.5,-30.5 267.5,-30.5 267.5,-.5 158.5,-.5"/>
<text text-anchor="start" x="166.5" y="-18.5" font-family="Helvetica,sans-Serif" font-size="10.00" fill="#000000">iop/fs/netfs/src/ps2</text>
<text text-anchor="middle" x="213" y="-7.5" font-family="Helvetica,sans-Serif" font-size="10.00" fill="#000000">_fio.c</text>
</a>
</g>
</g>
<!-- Node1&#45;&gt;Node3 -->
<g id="edge2" class="edge">
<title>Node1&#45;&gt;Node3</title>
<path fill="none" stroke="#191970" d="M213,-57.3693C213,-48.681 213,-38.6241 213,-30.5446"/>
<polygon fill="#191970" stroke="#191970" points="209.5001,-57.3906 213,-67.3906 216.5001,-57.3907 209.5001,-57.3906"/>
</g>
<!-- Node4 -->
<g id="node4" class="node">
<title>Node4</title>
<g id="a_node4"><a xlink:href="ps2netfs_8c.html" target="_top" xlink:title=" ">
<polygon fill="#ffffff" stroke="#000000" points="286,-6 286,-25 428,-25 428,-6 286,-6"/>
<text text-anchor="middle" x="357" y="-13" font-family="Helvetica,sans-Serif" font-size="10.00" fill="#000000">iop/fs/netfs/src/ps2netfs.c</text>
</a>
</g>
</g>
<!-- Node1&#45;&gt;Node4 -->
<g id="edge3" class="edge">
<title>Node1&#45;&gt;Node4</title>
<path fill="none" stroke="#191970" d="M244.9778,-63.3428C272.2064,-51.7139 310.627,-35.3051 334.658,-25.0419"/>
<polygon fill="#191970" stroke="#191970" points="243.3217,-60.2442 235.5,-67.3906 246.0711,-66.6817 243.3217,-60.2442"/>
</g>
</g>
</svg>
