<?xml version="1.0" encoding="UTF-8" standalone="no"?>
<!DOCTYPE svg PUBLIC "-//W3C//DTD SVG 1.1//EN"
 "http://www.w3.org/Graphics/SVG/1.1/DTD/svg11.dtd">
<!-- Generated by graphviz version 2.40.1 (20161225.0304)
 -->
<!-- Title: iop/system Pages: 1 -->
<svg width="686pt" height="247pt"
 viewBox="0.00 0.00 685.50 247.00" xmlns="http://www.w3.org/2000/svg" xmlns:xlink="http://www.w3.org/1999/xlink">
<g id="graph0" class="graph" transform="scale(1 1) rotate(0) translate(4 243)">
<title>iop/system</title>
<polygon fill="#ffffff" stroke="transparent" points="-4,4 -4,-243 681.5,-243 681.5,4 -4,4"/>
<g id="clust1" class="cluster">
<title>clusterdir_0981ace215aa2029f526b70c145b9fbe</title>
<g id="a_clust1"><a xlink:href="dir_0981ace215aa2029f526b70c145b9fbe.html" target="_top" xlink:title="iop">
<polygon fill="#ddddee" stroke="#000000" points="8,-8 8,-231 610,-231 610,-8 8,-8"/>
<text text-anchor="middle" x="309" y="-219" font-family="Helvetica,sans-Serif" font-size="10.00" fill="#000000">iop</text>
</a>
</g>
</g>
<g id="clust2" class="cluster">
<title>clusterdir_40ac35421bc63b72c26b6c69b1517fd6</title>
<g id="a_clust2"><a xlink:href="dir_40ac35421bc63b72c26b6c69b1517fd6.html" target="_top">
<polygon fill="#eeeeff" stroke="#000000" points="16,-80 16,-204 602,-204 602,-80 16,-80"/>
</a>
</g>
</g>
<!-- dir_9be0baa3d4a3e9f480a9ee70594037fa -->
<g id="node1" class="node">
<title>dir_9be0baa3d4a3e9f480a9ee70594037fa</title>
<g id="a_node1"><a xlink:href="dir_9be0baa3d4a3e9f480a9ee70594037fa.html" target="_top" xlink:title="kernel">
<polygon fill="#ffffff" stroke="#ff0000" points="324,-52 270,-52 270,-16 324,-16 324,-52"/>
<text text-anchor="middle" x="297" y="-31.5" font-family="Helvetica,sans-Serif" font-size="10.00" fill="#000000">kernel</text>
</a>
</g>
</g>
<!-- dir_1fd4d135da32a6b9ad91946f648cae84 -->
<g id="node12" class="node">
<title>dir_1fd4d135da32a6b9ad91946f648cae84</title>
<g id="a_node12"><a xlink:href="dir_1fd4d135da32a6b9ad91946f648cae84.html" target="_top" xlink:title="sio2man">
<polygon fill="#ffffff" stroke="#ff0000" points="83.5,-124 24.5,-124 24.5,-88 83.5,-88 83.5,-124"/>
<text text-anchor="middle" x="54" y="-103.5" font-family="Helvetica,sans-Serif" font-size="10.00" fill="#000000">sio2man</text>
</a>
</g>
</g>
<!-- dir_9be0baa3d4a3e9f480a9ee70594037fa&#45;&gt;dir_1fd4d135da32a6b9ad91946f648cae84 -->
<g id="edge7" class="edge">
<title>dir_9be0baa3d4a3e9f480a9ee70594037fa&#45;&gt;dir_1fd4d135da32a6b9ad91946f648cae84</title>
<path fill="none" stroke="#000000" d="M269.9944,-37.7099C231.3351,-43.1636 159.2302,-55.4728 102,-80 98.8375,-81.3553 95.6559,-82.9722 92.507,-84.7273"/>
<polygon fill="#000000" stroke="#000000" points="90.5626,-81.8116 83.7632,-89.9368 94.1455,-87.8252 90.5626,-81.8116"/>
<g id="a_edge7&#45;headlabel"><a xlink:href="dir_000140_000096.html" target="_top" xlink:title="2">
<text text-anchor="middle" x="92.1974" y="-75.0326" font-family="Helvetica,sans-Serif" font-size="10.00" fill="#000000">2</text>
</a>
</g>
</g>
<!-- dir_bdd9a5d540de89e9fe90efdfc6973a4f -->
<g id="node13" class="node">
<title>dir_bdd9a5d540de89e9fe90efdfc6973a4f</title>
<g id="a_node13"><a xlink:href="dir_bdd9a5d540de89e9fe90efdfc6973a4f.html" target="_top" xlink:title="common">
<polygon fill="#ffffff" stroke="#ff0000" points="677.5,-124 618.5,-124 618.5,-88 677.5,-88 677.5,-124"/>
<text text-anchor="middle" x="648" y="-103.5" font-family="Helvetica,sans-Serif" font-size="10.00" fill="#000000">common</text>
</a>
</g>
</g>
<!-- dir_9be0baa3d4a3e9f480a9ee70594037fa&#45;&gt;dir_bdd9a5d540de89e9fe90efdfc6973a4f -->
<g id="edge8" class="edge">
<title>dir_9be0baa3d4a3e9f480a9ee70594037fa&#45;&gt;dir_bdd9a5d540de89e9fe90efdfc6973a4f</title>
<path fill="none" stroke="#000000" d="M324.3092,-37.1179C388.5129,-44.0279 546.4527,-61.4889 597,-80 601.1899,-81.5344 605.4117,-83.5191 609.5548,-85.7077"/>
<polygon fill="#000000" stroke="#000000" points="608.0268,-88.8643 618.4563,-90.729 611.466,-82.7674 608.0268,-88.8643"/>
<g id="a_edge8&#45;headlabel"><a xlink:href="dir_000140_000000.html" target="_top" xlink:title="12">
<text text-anchor="middle" x="603.5011" y="-87.0712" font-family="Helvetica,sans-Serif" font-size="10.00" fill="#000000">12</text>
</a>
</g>
</g>
<!-- dir_40ac35421bc63b72c26b6c69b1517fd6 -->
<g id="node2" class="node">
<title>dir_40ac35421bc63b72c26b6c69b1517fd6</title>
<text text-anchor="middle" x="567" y="-175.5" font-family="Helvetica,sans-Serif" font-size="10.00" fill="#000000">system</text>
</g>
<!-- dir_249e27ed47f6a2eab7da7b1ddc4f92fd -->
<g id="node3" class="node">
<title>dir_249e27ed47f6a2eab7da7b1ddc4f92fd</title>
<g id="a_node3"><a xlink:href="dir_249e27ed47f6a2eab7da7b1ddc4f92fd.html" target="_top" xlink:title="alloc">
<polygon fill="#ffffff" stroke="#ff0000" points="378,-196 324,-196 324,-160 378,-160 378,-196"/>
<text text-anchor="middle" x="351" y="-175.5" font-family="Helvetica,sans-Serif" font-size="10.00" fill="#000000">alloc</text>
</a>
</g>
</g>
<!-- dir_249e27ed47f6a2eab7da7b1ddc4f92fd&#45;&gt;dir_9be0baa3d4a3e9f480a9ee70594037fa -->
<g id="edge3" class="edge">
<title>dir_249e27ed47f6a2eab7da7b1ddc4f92fd&#45;&gt;dir_9be0baa3d4a3e9f480a9ee70594037fa</title>
<path fill="none" stroke="#000000" d="M344.1609,-159.7623C334.8692,-134.9846 318.1768,-90.4714 307.3477,-61.5939"/>
<polygon fill="#000000" stroke="#000000" points="310.5721,-60.224 303.7836,-52.0896 304.0178,-62.6819 310.5721,-60.224"/>
<g id="a_edge3&#45;headlabel"><a xlink:href="dir_000080_000140.html" target="_top" xlink:title="7">
<text text-anchor="middle" x="314.4926" y="-60.0928" font-family="Helvetica,sans-Serif" font-size="10.00" fill="#000000">7</text>
</a>
</g>
</g>
<!-- dir_f82a163f83eb0dcdf294ef3743365a67 -->
<g id="node4" class="node">
<title>dir_f82a163f83eb0dcdf294ef3743365a67</title>
<g id="a_node4"><a xlink:href="dir_f82a163f83eb0dcdf294ef3743365a67.html" target="_top" xlink:title="iomanx">
<polygon fill="#ffffff" stroke="#ff0000" points="522,-196 468,-196 468,-160 522,-160 522,-196"/>
<text text-anchor="middle" x="495" y="-175.5" font-family="Helvetica,sans-Serif" font-size="10.00" fill="#000000">iomanx</text>
</a>
</g>
</g>
<!-- dir_f82a163f83eb0dcdf294ef3743365a67&#45;&gt;dir_9be0baa3d4a3e9f480a9ee70594037fa -->
<g id="edge14" class="edge">
<title>dir_f82a163f83eb0dcdf294ef3743365a67&#45;&gt;dir_9be0baa3d4a3e9f480a9ee70594037fa</title>
<path fill="none" stroke="#000000" d="M470.3472,-159.8767C443.4985,-140.161 399.2676,-107.7451 361,-80 351.1466,-72.856 340.4143,-65.1233 330.6034,-58.0734"/>
<polygon fill="#000000" stroke="#000000" points="332.4284,-55.0751 322.264,-52.0857 328.3457,-60.7612 332.4284,-55.0751"/>
<g id="a_edge14&#45;headlabel"><a xlink:href="dir_000082_000140.html" target="_top" xlink:title="14">
<text text-anchor="middle" x="337.0043" y="-52.3652" font-family="Helvetica,sans-Serif" font-size="10.00" fill="#000000">14</text>
</a>
</g>
</g>
<!-- dir_f82a163f83eb0dcdf294ef3743365a67&#45;&gt;dir_bdd9a5d540de89e9fe90efdfc6973a4f -->
<g id="edge15" class="edge">
<title>dir_f82a163f83eb0dcdf294ef3743365a67&#45;&gt;dir_bdd9a5d540de89e9fe90efdfc6973a4f</title>
<path fill="none" stroke="#000000" d="M522.0822,-164.3456C525.0846,-162.8656 528.1029,-161.3924 531,-160 556.759,-147.6196 585.9452,-134.1481 608.7234,-123.7575"/>
<polygon fill="#000000" stroke="#000000" points="610.4133,-126.8339 618.0645,-119.5052 607.513,-120.4629 610.4133,-126.8339"/>
<g id="a_edge15&#45;headlabel"><a xlink:href="dir_000082_000000.html" target="_top" xlink:title="2">
<text text-anchor="middle" x="608.3181" y="-128.4072" font-family="Helvetica,sans-Serif" font-size="10.00" fill="#000000">2</text>
</a>
</g>
</g>
<!-- dir_024ed9b5cab300e9b0cec9fa63c26df3 -->
<g id="node5" class="node">
<title>dir_024ed9b5cab300e9b0cec9fa63c26df3</title>
<g id="a_node5"><a xlink:href="dir_024ed9b5cab300e9b0cec9fa63c26df3.html" target="_top" xlink:title="iopmgr">
<polygon fill="#ffffff" stroke="#ff0000" points="450,-196 396,-196 396,-160 450,-160 450,-196"/>
<text text-anchor="middle" x="423" y="-175.5" font-family="Helvetica,sans-Serif" font-size="10.00" fill="#000000">iopmgr</text>
</a>
</g>
</g>
<!-- dir_024ed9b5cab300e9b0cec9fa63c26df3&#45;&gt;dir_9be0baa3d4a3e9f480a9ee70594037fa -->
<g id="edge1" class="edge">
<title>dir_024ed9b5cab300e9b0cec9fa63c26df3&#45;&gt;dir_9be0baa3d4a3e9f480a9ee70594037fa</title>
<path fill="none" stroke="#000000" d="M407.042,-159.7623C384.8882,-134.4436 344.7034,-88.5182 319.5094,-59.7251"/>
<polygon fill="#000000" stroke="#000000" points="322.0475,-57.3106 312.8284,-52.0896 316.7795,-61.9202 322.0475,-57.3106"/>
<g id="a_edge1&#45;headlabel"><a xlink:href="dir_000084_000140.html" target="_top" xlink:title="31">
<text text-anchor="middle" x="326.5513" y="-55.6462" font-family="Helvetica,sans-Serif" font-size="10.00" fill="#000000">31</text>
</a>
</g>
</g>
<!-- dir_37a0b5ec4566a4318c90e018cb9457b6 -->
<g id="node6" class="node">
<title>dir_37a0b5ec4566a4318c90e018cb9457b6</title>
<g id="a_node6"><a xlink:href="dir_37a0b5ec4566a4318c90e018cb9457b6.html" target="_top" xlink:title="mtapman">
<polygon fill="#ffffff" stroke="#ff0000" points="234,-196 170,-196 170,-160 234,-160 234,-196"/>
<text text-anchor="middle" x="202" y="-175.5" font-family="Helvetica,sans-Serif" font-size="10.00" fill="#000000">mtapman</text>
</a>
</g>
</g>
<!-- dir_37a0b5ec4566a4318c90e018cb9457b6&#45;&gt;dir_9be0baa3d4a3e9f480a9ee70594037fa -->
<g id="edge4" class="edge">
<title>dir_37a0b5ec4566a4318c90e018cb9457b6&#45;&gt;dir_9be0baa3d4a3e9f480a9ee70594037fa</title>
<path fill="none" stroke="#000000" d="M234.108,-164.1091C251.0287,-155.122 270.5869,-141.7631 282,-124 293.7938,-105.6445 297.2389,-80.988 297.905,-62.1242"/>
<polygon fill="#000000" stroke="#000000" points="301.4056,-62.0879 298.0215,-52.0481 294.406,-62.0069 301.4056,-62.0879"/>
<g id="a_edge4&#45;headlabel"><a xlink:href="dir_000086_000140.html" target="_top" xlink:title="19">
<text text-anchor="middle" x="304.2032" y="-63.2151" font-family="Helvetica,sans-Serif" font-size="10.00" fill="#000000">19</text>
</a>
</g>
</g>
<!-- dir_cb26f304a37e679cc21ccc4e4a07be73 -->
<g id="node7" class="node">
<title>dir_cb26f304a37e679cc21ccc4e4a07be73</title>
<g id="a_node7"><a xlink:href="dir_cb26f304a37e679cc21ccc4e4a07be73.html" target="_top" xlink:title="padman">
<polygon fill="#ffffff" stroke="#ff0000" points="80,-196 24,-196 24,-160 80,-160 80,-196"/>
<text text-anchor="middle" x="52" y="-175.5" font-family="Helvetica,sans-Serif" font-size="10.00" fill="#000000">padman</text>
</a>
</g>
</g>
<!-- dir_cb26f304a37e679cc21ccc4e4a07be73&#45;&gt;dir_9be0baa3d4a3e9f480a9ee70594037fa -->
<g id="edge12" class="edge">
<title>dir_cb26f304a37e679cc21ccc4e4a07be73&#45;&gt;dir_9be0baa3d4a3e9f480a9ee70594037fa</title>
<path fill="none" stroke="#000000" d="M80.4061,-163.3825C83.2725,-162.1497 86.1699,-160.996 89,-160 156.9373,-136.0902 193.4818,-172.1972 247,-124 262.3526,-110.1738 252.2859,-98.2346 262,-80 265.5681,-73.3022 270.0825,-66.5473 274.6726,-60.3535"/>
<polygon fill="#000000" stroke="#000000" points="277.543,-62.3633 280.8972,-52.3134 272.0079,-58.0781 277.543,-62.3633"/>
<g id="a_edge12&#45;headlabel"><a xlink:href="dir_000088_000140.html" target="_top" xlink:title="49">
<text text-anchor="middle" x="277.5876" y="-64.4437" font-family="Helvetica,sans-Serif" font-size="10.00" fill="#000000">49</text>
</a>
</g>
</g>
<!-- dir_cb26f304a37e679cc21ccc4e4a07be73&#45;&gt;dir_1fd4d135da32a6b9ad91946f648cae84 -->
<g id="edge13" class="edge">
<title>dir_cb26f304a37e679cc21ccc4e4a07be73&#45;&gt;dir_1fd4d135da32a6b9ad91946f648cae84</title>
<path fill="none" stroke="#000000" d="M52.5047,-159.8314C52.7186,-152.131 52.9729,-142.9743 53.2106,-134.4166"/>
<polygon fill="#000000" stroke="#000000" points="56.7094,-134.5066 53.4885,-124.4133 49.7121,-134.3122 56.7094,-134.5066"/>
<g id="a_edge13&#45;headlabel"><a xlink:href="dir_000088_000096.html" target="_top" xlink:title="1">
<text text-anchor="middle" x="59.4479" y="-135.6787" font-family="Helvetica,sans-Serif" font-size="10.00" fill="#000000">1</text>
</a>
</g>
</g>
<!-- dir_fe7329d8b89241d59f89f45fd75d2e77 -->
<g id="node8" class="node">
<title>dir_fe7329d8b89241d59f89f45fd75d2e77</title>
<g id="a_node8"><a xlink:href="dir_fe7329d8b89241d59f89f45fd75d2e77.html" target="_top" xlink:title="rmman">
<polygon fill="#ffffff" stroke="#ff0000" points="306,-196 252,-196 252,-160 306,-160 306,-196"/>
<text text-anchor="middle" x="279" y="-175.5" font-family="Helvetica,sans-Serif" font-size="10.00" fill="#000000">rmman</text>
</a>
</g>
</g>
<!-- dir_fe7329d8b89241d59f89f45fd75d2e77&#45;&gt;dir_9be0baa3d4a3e9f480a9ee70594037fa -->
<g id="edge16" class="edge">
<title>dir_fe7329d8b89241d59f89f45fd75d2e77&#45;&gt;dir_9be0baa3d4a3e9f480a9ee70594037fa</title>
<path fill="none" stroke="#000000" d="M289.0235,-159.6094C293.9981,-149.4366 299.4733,-136.3803 302,-124 306.1659,-103.5879 304.647,-80.0674 302.2292,-62.1911"/>
<polygon fill="#000000" stroke="#000000" points="305.662,-61.4848 300.6943,-52.1268 298.742,-62.5402 305.662,-61.4848"/>
<g id="a_edge16&#45;headlabel"><a xlink:href="dir_000090_000140.html" target="_top" xlink:title="19">
<text text-anchor="middle" x="309.0107" y="-62.1103" font-family="Helvetica,sans-Serif" font-size="10.00" fill="#000000">19</text>
</a>
</g>
</g>
<!-- dir_47d6ec5167f7ee6ef257538cbd6ee8bb -->
<g id="node9" class="node">
<title>dir_47d6ec5167f7ee6ef257538cbd6ee8bb</title>
<g id="a_node9"><a xlink:href="dir_47d6ec5167f7ee6ef257538cbd6ee8bb.html" target="_top" xlink:title="rsio2man">
<polygon fill="#ffffff" stroke="#ff0000" points="238,-124 176,-124 176,-88 238,-88 238,-124"/>
<text text-anchor="middle" x="207" y="-103.5" font-family="Helvetica,sans-Serif" font-size="10.00" fill="#000000">rsio2man</text>
</a>
</g>
</g>
<!-- dir_fe7329d8b89241d59f89f45fd75d2e77&#45;&gt;dir_47d6ec5167f7ee6ef257538cbd6ee8bb -->
<g id="edge18" class="edge">
<title>dir_fe7329d8b89241d59f89f45fd75d2e77&#45;&gt;dir_47d6ec5167f7ee6ef257538cbd6ee8bb</title>
<path fill="none" stroke="#000000" d="M260.8314,-159.8314C252.2848,-151.2848 241.9443,-140.9443 232.6198,-131.6198"/>
<polygon fill="#000000" stroke="#000000" points="234.9592,-129.0095 225.4133,-124.4133 230.0095,-133.9592 234.9592,-129.0095"/>
<g id="a_edge18&#45;headlabel"><a xlink:href="dir_000090_000153.html" target="_top" xlink:title="2">
<text text-anchor="middle" x="239.5087" y="-127.0436" font-family="Helvetica,sans-Serif" font-size="10.00" fill="#000000">2</text>
</a>
</g>
</g>
<!-- dir_fe7329d8b89241d59f89f45fd75d2e77&#45;&gt;dir_bdd9a5d540de89e9fe90efdfc6973a4f -->
<g id="edge17" class="edge">
<title>dir_fe7329d8b89241d59f89f45fd75d2e77&#45;&gt;dir_bdd9a5d540de89e9fe90efdfc6973a4f</title>
<path fill="none" stroke="#000000" d="M306.1198,-163.2416C309.0618,-162.0043 312.0568,-160.8891 315,-160 439.7515,-122.3147 480.1954,-158.0046 606,-124 606.7467,-123.7982 607.4974,-123.5856 608.2508,-123.3634"/>
<polygon fill="#000000" stroke="#000000" points="609.7389,-126.5544 618.0811,-120.0231 607.4867,-119.9266 609.7389,-126.5544"/>
<g id="a_edge17&#45;headlabel"><a xlink:href="dir_000090_000000.html" target="_top" xlink:title="1">
<text text-anchor="middle" x="607.2489" y="-127.8991" font-family="Helvetica,sans-Serif" font-size="10.00" fill="#000000">1</text>
</a>
</g>
</g>
<!-- dir_47d6ec5167f7ee6ef257538cbd6ee8bb&#45;&gt;dir_9be0baa3d4a3e9f480a9ee70594037fa -->
<g id="edge5" class="edge">
<title>dir_47d6ec5167f7ee6ef257538cbd6ee8bb&#45;&gt;dir_9be0baa3d4a3e9f480a9ee70594037fa</title>
<path fill="none" stroke="#000000" d="M229.7108,-87.8314C240.796,-78.9632 254.2954,-68.1637 266.2852,-58.5718"/>
<polygon fill="#000000" stroke="#000000" points="268.6742,-61.1429 274.2965,-52.1628 264.3013,-55.6768 268.6742,-61.1429"/>
<g id="a_edge5&#45;headlabel"><a xlink:href="dir_000153_000140.html" target="_top" xlink:title="1">
<text text-anchor="middle" x="267.641" y="-63.1055" font-family="Helvetica,sans-Serif" font-size="10.00" fill="#000000">1</text>
</a>
</g>
</g>
<!-- dir_4bae4802256ab45fc18d13b3c6375605 -->
<g id="node10" class="node">
<title>dir_4bae4802256ab45fc18d13b3c6375605</title>
<g id="a_node10"><a xlink:href="dir_4bae4802256ab45fc18d13b3c6375605.html" target="_top" xlink:title="sbusintr">
<polygon fill="#ffffff" stroke="#ff0000" points="158,-124 102,-124 102,-88 158,-88 158,-124"/>
<text text-anchor="middle" x="130" y="-103.5" font-family="Helvetica,sans-Serif" font-size="10.00" fill="#000000">sbusintr</text>
</a>
</g>
</g>
<!-- dir_4bae4802256ab45fc18d13b3c6375605&#45;&gt;dir_9be0baa3d4a3e9f480a9ee70594037fa -->
<g id="edge6" class="edge">
<title>dir_4bae4802256ab45fc18d13b3c6375605&#45;&gt;dir_9be0baa3d4a3e9f480a9ee70594037fa</title>
<path fill="none" stroke="#000000" d="M153.6835,-87.9502C157.9895,-85.0808 162.5347,-82.3038 167,-80 197.0908,-64.475 233.6119,-52.064 260.2738,-44.0647"/>
<polygon fill="#000000" stroke="#000000" points="261.3658,-47.392 269.9756,-41.2177 259.3947,-40.6752 261.3658,-47.392"/>
<g id="a_edge6&#45;headlabel"><a xlink:href="dir_000092_000140.html" target="_top" xlink:title="10">
<text text-anchor="middle" x="258.7161" y="-48.6285" font-family="Helvetica,sans-Serif" font-size="10.00" fill="#000000">10</text>
</a>
</g>
</g>
<!-- dir_c3fae06f71c3e401160299d109ef6df7 -->
<g id="node11" class="node">
<title>dir_c3fae06f71c3e401160299d109ef6df7</title>
<g id="a_node11"><a xlink:href="dir_c3fae06f71c3e401160299d109ef6df7.html" target="_top" xlink:title="siftoo">
<polygon fill="#ffffff" stroke="#ff0000" points="152,-196 98,-196 98,-160 152,-160 152,-196"/>
<text text-anchor="middle" x="125" y="-175.5" font-family="Helvetica,sans-Serif" font-size="10.00" fill="#000000">siftoo</text>
</a>
</g>
</g>
<!-- dir_c3fae06f71c3e401160299d109ef6df7&#45;&gt;dir_9be0baa3d4a3e9f480a9ee70594037fa -->
<g id="edge10" class="edge">
<title>dir_c3fae06f71c3e401160299d109ef6df7&#45;&gt;dir_9be0baa3d4a3e9f480a9ee70594037fa</title>
<path fill="none" stroke="#000000" d="M152.3564,-163.8933C155.2522,-162.5289 158.1717,-161.2059 161,-160 204.837,-141.3096 227.8261,-157.2138 262,-124 266.7285,-119.4044 278.8636,-86.467 287.5161,-61.7582"/>
<polygon fill="#000000" stroke="#000000" points="290.8925,-62.7043 290.8657,-52.1095 284.2797,-60.4086 290.8925,-62.7043"/>
<g id="a_edge10&#45;headlabel"><a xlink:href="dir_000094_000140.html" target="_top" xlink:title="13">
<text text-anchor="middle" x="292.396" y="-64.5313" font-family="Helvetica,sans-Serif" font-size="10.00" fill="#000000">13</text>
</a>
</g>
</g>
<!-- dir_c3fae06f71c3e401160299d109ef6df7&#45;&gt;dir_4bae4802256ab45fc18d13b3c6375605 -->
<g id="edge11" class="edge">
<title>dir_c3fae06f71c3e401160299d109ef6df7&#45;&gt;dir_4bae4802256ab45fc18d13b3c6375605</title>
<path fill="none" stroke="#000000" d="M126.2617,-159.8314C126.7965,-152.131 127.4323,-142.9743 128.0266,-134.4166"/>
<polygon fill="#000000" stroke="#000000" points="131.52,-134.6317 128.7213,-124.4133 124.5368,-134.1467 131.52,-134.6317"/>
<g id="a_edge11&#45;headlabel"><a xlink:href="dir_000094_000092.html" target="_top" xlink:title="3">
<text text-anchor="middle" x="134.1035" y="-135.9144" font-family="Helvetica,sans-Serif" font-size="10.00" fill="#000000">3</text>
</a>
</g>
</g>
<!-- dir_1fd4d135da32a6b9ad91946f648cae84&#45;&gt;dir_9be0baa3d4a3e9f480a9ee70594037fa -->
<g id="edge2" class="edge">
<title>dir_1fd4d135da32a6b9ad91946f648cae84&#45;&gt;dir_9be0baa3d4a3e9f480a9ee70594037fa</title>
<path fill="none" stroke="#000000" d="M69.5564,-87.7895C74.0801,-84.8686 79.0635,-82.1156 84,-80 142.2659,-55.0289 215.9497,-42.7221 259.771,-37.4206"/>
<polygon fill="#000000" stroke="#000000" points="260.4406,-40.8668 269.9761,-36.2489 259.6421,-33.9124 260.4406,-40.8668"/>
<g id="a_edge2&#45;headlabel"><a xlink:href="dir_000096_000140.html" target="_top" xlink:title="19">
<text text-anchor="middle" x="257.1933" y="-41.5974" font-family="Helvetica,sans-Serif" font-size="10.00" fill="#000000">19</text>
</a>
</g>
</g>
<!-- dir_bdd9a5d540de89e9fe90efdfc6973a4f&#45;&gt;dir_9be0baa3d4a3e9f480a9ee70594037fa -->
<g id="edge9" class="edge">
<title>dir_bdd9a5d540de89e9fe90efdfc6973a4f&#45;&gt;dir_9be0baa3d4a3e9f480a9ee70594037fa</title>
<path fill="none" stroke="#000000" d="M631.0067,-87.7733C626.0061,-84.7798 620.4759,-82.0053 615,-80 564.5163,-61.5122 406.9106,-44.0718 334.1925,-37.1441"/>
<polygon fill="#000000" stroke="#000000" points="334.3852,-33.6469 324.1024,-36.1993 333.7326,-40.6164 334.3852,-33.6469"/>
<g id="a_edge9&#45;headlabel"><a xlink:href="dir_000000_000140.html" target="_top" xlink:title="5">
<text text-anchor="middle" x="338.2288" y="-28.655" font-family="Helvetica,sans-Serif" font-size="10.00" fill="#000000">5</text>
</a>
</g>
</g>
</g>
</svg>
