<?xml version="1.0" encoding="UTF-8" standalone="no"?>
<!DOCTYPE svg PUBLIC "-//W3C//DTD SVG 1.1//EN"
 "http://www.w3.org/Graphics/SVG/1.1/DTD/svg11.dtd">
<!-- Generated by graphviz version 2.40.1 (20161225.0304)
 -->
<!-- Title: iop/iLink/iLinkman/src Pages: 1 -->
<svg width="215pt" height="303pt"
 viewBox="0.00 0.00 214.60 303.00" xmlns="http://www.w3.org/2000/svg" xmlns:xlink="http://www.w3.org/1999/xlink">
<g id="graph0" class="graph" transform="scale(1 1) rotate(0) translate(4 299)">
<title>iop/iLink/iLinkman/src</title>
<polygon fill="#ffffff" stroke="transparent" points="-4,4 -4,-299 210.6037,-299 210.6037,4 -4,4"/>
<g id="clust1" class="cluster">
<title>clusterdir_3217d47ebe458155e7239d0a228ab153</title>
<g id="a_clust1"><a xlink:href="dir_3217d47ebe458155e7239d0a228ab153.html" target="_top" xlink:title="iLinkman">
<polygon fill="#ddddee" stroke="#000000" points="8,-128 8,-287 158,-287 158,-128 8,-128"/>
<text text-anchor="middle" x="83" y="-275" font-family="Helvetica,sans-Serif" font-size="10.00" fill="#000000">iLinkman</text>
</a>
</g>
</g>
<g id="clust2" class="cluster">
<title>clusterdir_7ea4ab416d8e3e8b817386f3fccc52c9</title>
<g id="a_clust2"><a xlink:href="dir_7ea4ab416d8e3e8b817386f3fccc52c9.html" target="_top">
<polygon fill="#eeeeff" stroke="#000000" points="16,-136 16,-260 86,-260 86,-136 16,-136"/>
</a>
</g>
</g>
<!-- dir_d61dc2cc7a3fea5cf83a4c127f7dea92 -->
<g id="node1" class="node">
<title>dir_d61dc2cc7a3fea5cf83a4c127f7dea92</title>
<g id="a_node1"><a xlink:href="dir_d61dc2cc7a3fea5cf83a4c127f7dea92.html" target="_top" xlink:title="include">
<polygon fill="none" stroke="#000000" points="150,-180 96,-180 96,-144 150,-144 150,-180"/>
<text text-anchor="middle" x="123" y="-159.5" font-family="Helvetica,sans-Serif" font-size="10.00" fill="#000000">include</text>
</a>
</g>
</g>
<!-- dir_9be0baa3d4a3e9f480a9ee70594037fa -->
<g id="node4" class="node">
<title>dir_9be0baa3d4a3e9f480a9ee70594037fa</title>
<g id="a_node4"><a xlink:href="dir_9be0baa3d4a3e9f480a9ee70594037fa.html" target="_top" xlink:title="kernel">
<polygon fill="#ffffff" stroke="#ff0000" points="188,-108 134,-108 134,-72 188,-72 188,-108"/>
<text text-anchor="middle" x="161" y="-87.5" font-family="Helvetica,sans-Serif" font-size="10.00" fill="#000000">kernel</text>
</a>
</g>
</g>
<!-- dir_d61dc2cc7a3fea5cf83a4c127f7dea92&#45;&gt;dir_9be0baa3d4a3e9f480a9ee70594037fa -->
<g id="edge7" class="edge">
<title>dir_d61dc2cc7a3fea5cf83a4c127f7dea92&#45;&gt;dir_9be0baa3d4a3e9f480a9ee70594037fa</title>
<path fill="none" stroke="#000000" d="M132.589,-143.8314C136.8317,-135.7925 141.9121,-126.1666 146.596,-117.2918"/>
<polygon fill="#000000" stroke="#000000" points="149.7096,-118.8908 151.2819,-108.4133 143.5189,-115.6235 149.7096,-118.8908"/>
<g id="a_edge7&#45;headlabel"><a xlink:href="dir_000138_000140.html" target="_top" xlink:title="1">
<text text-anchor="middle" x="150.5428" y="-120.895" font-family="Helvetica,sans-Serif" font-size="10.00" fill="#000000">1</text>
</a>
</g>
</g>
<!-- dir_7ea4ab416d8e3e8b817386f3fccc52c9 -->
<g id="node2" class="node">
<title>dir_7ea4ab416d8e3e8b817386f3fccc52c9</title>
<text text-anchor="middle" x="51" y="-231.5" font-family="Helvetica,sans-Serif" font-size="10.00" fill="#000000">src</text>
</g>
<!-- dir_7ea4ab416d8e3e8b817386f3fccc52c9&#45;&gt;dir_d61dc2cc7a3fea5cf83a4c127f7dea92 -->
<g id="edge4" class="edge">
<title>dir_7ea4ab416d8e3e8b817386f3fccc52c9&#45;&gt;dir_d61dc2cc7a3fea5cf83a4c127f7dea92</title>
<path fill="none" stroke="#000000" d="M69.1686,-215.8314C77.7152,-207.2848 88.0557,-196.9443 97.3802,-187.6198"/>
<polygon fill="#000000" stroke="#000000" points="99.9905,-189.9592 104.5867,-180.4133 95.0408,-185.0095 99.9905,-189.9592"/>
<g id="a_edge4&#45;headlabel"><a xlink:href="dir_000054_000138.html" target="_top" xlink:title="8">
<text text-anchor="middle" x="99.4564" y="-192.0087" font-family="Helvetica,sans-Serif" font-size="10.00" fill="#000000">8</text>
</a>
</g>
</g>
<!-- dir_277463bc5d441fdf9e34fcca67a1451e -->
<g id="node3" class="node">
<title>dir_277463bc5d441fdf9e34fcca67a1451e</title>
<g id="a_node3"><a xlink:href="dir_277463bc5d441fdf9e34fcca67a1451e.html" target="_top" xlink:title="include">
<polygon fill="#ffffff" stroke="#000000" points="78,-180 24,-180 24,-144 78,-144 78,-180"/>
<text text-anchor="middle" x="51" y="-159.5" font-family="Helvetica,sans-Serif" font-size="10.00" fill="#000000">include</text>
</a>
</g>
</g>
<!-- dir_7ea4ab416d8e3e8b817386f3fccc52c9&#45;&gt;dir_277463bc5d441fdf9e34fcca67a1451e -->
<g id="edge1" class="edge">
<title>dir_7ea4ab416d8e3e8b817386f3fccc52c9&#45;&gt;dir_277463bc5d441fdf9e34fcca67a1451e</title>
<path fill="none" stroke="#000000" d="M51,-215.8314C51,-208.131 51,-198.9743 51,-190.4166"/>
<polygon fill="#000000" stroke="#000000" points="54.5001,-190.4132 51,-180.4133 47.5001,-190.4133 54.5001,-190.4132"/>
<g id="a_edge1&#45;headlabel"><a xlink:href="dir_000054_000139.html" target="_top" xlink:title="8">
<text text-anchor="middle" x="57.3393" y="-191.5079" font-family="Helvetica,sans-Serif" font-size="10.00" fill="#000000">8</text>
</a>
</g>
</g>
<!-- dir_7ea4ab416d8e3e8b817386f3fccc52c9&#45;&gt;dir_9be0baa3d4a3e9f480a9ee70594037fa -->
<g id="edge2" class="edge">
<title>dir_7ea4ab416d8e3e8b817386f3fccc52c9&#45;&gt;dir_9be0baa3d4a3e9f480a9ee70594037fa</title>
<path fill="none" stroke="#000000" d="M78.4494,-229.1776C105.0021,-222.8955 143.8153,-209.0691 162,-180 173.4674,-161.6689 172.2457,-136.8595 168.7022,-117.9309"/>
<polygon fill="#000000" stroke="#000000" points="172.1087,-117.1245 166.5605,-108.0985 165.269,-118.6144 172.1087,-117.1245"/>
<g id="a_edge2&#45;headlabel"><a xlink:href="dir_000054_000140.html" target="_top" xlink:title="51">
<text text-anchor="middle" x="175.6478" y="-117.5325" font-family="Helvetica,sans-Serif" font-size="10.00" fill="#000000">51</text>
</a>
</g>
</g>
<!-- dir_bdd9a5d540de89e9fe90efdfc6973a4f -->
<g id="node5" class="node">
<title>dir_bdd9a5d540de89e9fe90efdfc6973a4f</title>
<g id="a_node5"><a xlink:href="dir_bdd9a5d540de89e9fe90efdfc6973a4f.html" target="_top" xlink:title="common">
<polygon fill="#ffffff" stroke="#ff0000" points="190.5,-36 131.5,-36 131.5,0 190.5,0 190.5,-36"/>
<text text-anchor="middle" x="161" y="-15.5" font-family="Helvetica,sans-Serif" font-size="10.00" fill="#000000">common</text>
</a>
</g>
</g>
<!-- dir_7ea4ab416d8e3e8b817386f3fccc52c9&#45;&gt;dir_bdd9a5d540de89e9fe90efdfc6973a4f -->
<g id="edge3" class="edge">
<title>dir_7ea4ab416d8e3e8b817386f3fccc52c9&#45;&gt;dir_bdd9a5d540de89e9fe90efdfc6973a4f</title>
<path fill="none" stroke="#000000" d="M78.2254,-230.0178C107.716,-224.2407 154.0189,-210.6519 180,-180 211.4186,-142.9331 211.0809,-118.5061 197,-72 194.0436,-62.2355 188.6748,-52.6229 182.97,-44.2762"/>
<polygon fill="#000000" stroke="#000000" points="185.7129,-42.0973 176.9905,-36.0831 180.0586,-46.2239 185.7129,-42.0973"/>
<g id="a_edge3&#45;headlabel"><a xlink:href="dir_000054_000000.html" target="_top" xlink:title="1">
<text text-anchor="middle" x="190.1253" y="-40.827" font-family="Helvetica,sans-Serif" font-size="10.00" fill="#000000">1</text>
</a>
</g>
</g>
<!-- dir_9be0baa3d4a3e9f480a9ee70594037fa&#45;&gt;dir_bdd9a5d540de89e9fe90efdfc6973a4f -->
<g id="edge5" class="edge">
<title>dir_9be0baa3d4a3e9f480a9ee70594037fa&#45;&gt;dir_bdd9a5d540de89e9fe90efdfc6973a4f</title>
<path fill="none" stroke="#000000" d="M155.0476,-71.8314C154.2972,-64.131 154.0763,-54.9743 154.3849,-46.4166"/>
<polygon fill="#000000" stroke="#000000" points="157.8792,-46.6161 155.024,-36.4133 150.8935,-46.1697 157.8792,-46.6161"/>
<g id="a_edge5&#45;headlabel"><a xlink:href="dir_000140_000000.html" target="_top" xlink:title="12">
<text text-anchor="middle" x="160.4836" y="-47.8844" font-family="Helvetica,sans-Serif" font-size="10.00" fill="#000000">12</text>
</a>
</g>
</g>
<!-- dir_bdd9a5d540de89e9fe90efdfc6973a4f&#45;&gt;dir_9be0baa3d4a3e9f480a9ee70594037fa -->
<g id="edge6" class="edge">
<title>dir_bdd9a5d540de89e9fe90efdfc6973a4f&#45;&gt;dir_9be0baa3d4a3e9f480a9ee70594037fa</title>
<path fill="none" stroke="#000000" d="M166.976,-36.4133C167.7071,-44.0593 167.9203,-53.1084 167.6155,-61.5726"/>
<polygon fill="#000000" stroke="#000000" points="164.1048,-61.6264 166.9524,-71.8314 171.0902,-62.078 164.1048,-61.6264"/>
<g id="a_edge6&#45;headlabel"><a xlink:href="dir_000000_000140.html" target="_top" xlink:title="5">
<text text-anchor="middle" x="161.5032" y="-55.3562" font-family="Helvetica,sans-Serif" font-size="10.00" fill="#000000">5</text>
</a>
</g>
</g>
</g>
</svg>
