<?xml version="1.0" encoding="UTF-8" standalone="no"?>
<!DOCTYPE svg PUBLIC "-//W3C//DTD SVG 1.1//EN"
 "http://www.w3.org/Graphics/SVG/1.1/DTD/svg11.dtd">
<!-- Generated by graphviz version 2.40.1 (20161225.0304)
 -->
<!-- Title: iop/usb/keyboard Pages: 1 -->
<svg width="263pt" height="231pt"
 viewBox="0.00 0.00 263.15 231.00" xmlns="http://www.w3.org/2000/svg" xmlns:xlink="http://www.w3.org/1999/xlink">
<g id="graph0" class="graph" transform="scale(1 1) rotate(0) translate(4 227)">
<title>iop/usb/keyboard</title>
<polygon fill="#ffffff" stroke="transparent" points="-4,4 -4,-227 259.1458,-227 259.1458,4 -4,4"/>
<g id="clust1" class="cluster">
<title>clusterdir_b6c875632944d243a548db157cd77ec2</title>
<g id="a_clust1"><a xlink:href="dir_b6c875632944d243a548db157cd77ec2.html" target="_top" xlink:title="usb">
<polygon fill="#ddddee" stroke="#000000" points="8,-56 8,-215 236,-215 236,-56 8,-56"/>
<text text-anchor="middle" x="122" y="-203" font-family="Helvetica,sans-Serif" font-size="10.00" fill="#000000">usb</text>
</a>
</g>
</g>
<g id="clust2" class="cluster">
<title>clusterdir_dfd34f7999bdb28cb70101636e016b16</title>
<g id="a_clust2"><a xlink:href="dir_dfd34f7999bdb28cb70101636e016b16.html" target="_top">
<polygon fill="#eeeeff" stroke="#000000" points="16,-64 16,-188 166,-188 166,-64 16,-64"/>
</a>
</g>
</g>
<!-- dir_8f550b51c304fe10978bfd792866fae2 -->
<g id="node1" class="node">
<title>dir_8f550b51c304fe10978bfd792866fae2</title>
<g id="a_node1"><a xlink:href="dir_8f550b51c304fe10978bfd792866fae2.html" target="_top" xlink:title="usbd">
<polygon fill="#ffffff" stroke="#ff0000" points="228,-108 174,-108 174,-72 228,-72 228,-108"/>
<text text-anchor="middle" x="201" y="-87.5" font-family="Helvetica,sans-Serif" font-size="10.00" fill="#000000">usbd</text>
</a>
</g>
</g>
<!-- dir_9be0baa3d4a3e9f480a9ee70594037fa -->
<g id="node5" class="node">
<title>dir_9be0baa3d4a3e9f480a9ee70594037fa</title>
<g id="a_node5"><a xlink:href="dir_9be0baa3d4a3e9f480a9ee70594037fa.html" target="_top" xlink:title="kernel">
<polygon fill="#ffffff" stroke="#ff0000" points="255,-36 201,-36 201,0 255,0 255,-36"/>
<text text-anchor="middle" x="228" y="-15.5" font-family="Helvetica,sans-Serif" font-size="10.00" fill="#000000">kernel</text>
</a>
</g>
</g>
<!-- dir_8f550b51c304fe10978bfd792866fae2&#45;&gt;dir_9be0baa3d4a3e9f480a9ee70594037fa -->
<g id="edge4" class="edge">
<title>dir_8f550b51c304fe10978bfd792866fae2&#45;&gt;dir_9be0baa3d4a3e9f480a9ee70594037fa</title>
<path fill="none" stroke="#000000" d="M207.8132,-71.8314C210.7644,-63.9617 214.2858,-54.5712 217.555,-45.8533"/>
<polygon fill="#000000" stroke="#000000" points="220.8609,-47.0055 221.095,-36.4133 214.3066,-44.5476 220.8609,-47.0055"/>
<g id="a_edge4&#45;headlabel"><a xlink:href="dir_000112_000140.html" target="_top" xlink:title="37">
<text text-anchor="middle" x="222.2573" y="-48.8682" font-family="Helvetica,sans-Serif" font-size="10.00" fill="#000000">37</text>
</a>
</g>
</g>
<!-- dir_dfd34f7999bdb28cb70101636e016b16 -->
<g id="node2" class="node">
<title>dir_dfd34f7999bdb28cb70101636e016b16</title>
<text text-anchor="middle" x="127" y="-159.5" font-family="Helvetica,sans-Serif" font-size="10.00" fill="#000000">keyboard</text>
</g>
<!-- dir_e958439eae9e499529b4758660d27573 -->
<g id="node3" class="node">
<title>dir_e958439eae9e499529b4758660d27573</title>
<g id="a_node3"><a xlink:href="dir_e958439eae9e499529b4758660d27573.html" target="_top" xlink:title="include">
<polygon fill="#ffffff" stroke="#000000" points="78,-108 24,-108 24,-72 78,-72 78,-108"/>
<text text-anchor="middle" x="51" y="-87.5" font-family="Helvetica,sans-Serif" font-size="10.00" fill="#000000">include</text>
</a>
</g>
</g>
<!-- dir_649efdce889a9164ac5e894f2ff13a76 -->
<g id="node4" class="node">
<title>dir_649efdce889a9164ac5e894f2ff13a76</title>
<g id="a_node4"><a xlink:href="dir_649efdce889a9164ac5e894f2ff13a76.html" target="_top" xlink:title="src">
<polygon fill="#ffffff" stroke="#000000" points="78,-180 24,-180 24,-144 78,-144 78,-180"/>
<text text-anchor="middle" x="51" y="-159.5" font-family="Helvetica,sans-Serif" font-size="10.00" fill="#000000">src</text>
</a>
</g>
</g>
<!-- dir_649efdce889a9164ac5e894f2ff13a76&#45;&gt;dir_8f550b51c304fe10978bfd792866fae2 -->
<g id="edge1" class="edge">
<title>dir_649efdce889a9164ac5e894f2ff13a76&#45;&gt;dir_8f550b51c304fe10978bfd792866fae2</title>
<path fill="none" stroke="#000000" d="M78.05,-148.2777C81.0585,-146.8104 84.087,-145.3588 87,-144 120.4509,-128.3969 132.1844,-126.3785 164.5187,-110.6434"/>
<polygon fill="#000000" stroke="#000000" points="166.3122,-113.6606 173.7108,-106.077 163.1978,-107.3916 166.3122,-113.6606"/>
<g id="a_edge1&#45;headlabel"><a xlink:href="dir_000109_000112.html" target="_top" xlink:title="3">
<text text-anchor="middle" x="164.3561" y="-115.3026" font-family="Helvetica,sans-Serif" font-size="10.00" fill="#000000">3</text>
</a>
</g>
</g>
<!-- dir_649efdce889a9164ac5e894f2ff13a76&#45;&gt;dir_e958439eae9e499529b4758660d27573 -->
<g id="edge3" class="edge">
<title>dir_649efdce889a9164ac5e894f2ff13a76&#45;&gt;dir_e958439eae9e499529b4758660d27573</title>
<path fill="none" stroke="#000000" d="M51,-143.8314C51,-136.131 51,-126.9743 51,-118.4166"/>
<polygon fill="#000000" stroke="#000000" points="54.5001,-118.4132 51,-108.4133 47.5001,-118.4133 54.5001,-118.4132"/>
<g id="a_edge3&#45;headlabel"><a xlink:href="dir_000109_000163.html" target="_top" xlink:title="1">
<text text-anchor="middle" x="57.3393" y="-119.5079" font-family="Helvetica,sans-Serif" font-size="10.00" fill="#000000">1</text>
</a>
</g>
</g>
<!-- dir_649efdce889a9164ac5e894f2ff13a76&#45;&gt;dir_9be0baa3d4a3e9f480a9ee70594037fa -->
<g id="edge2" class="edge">
<title>dir_649efdce889a9164ac5e894f2ff13a76&#45;&gt;dir_9be0baa3d4a3e9f480a9ee70594037fa</title>
<path fill="none" stroke="#000000" d="M78.2274,-147.5658C81.1484,-146.2653 84.109,-145.0467 87,-144 152.6845,-120.2189 196.6278,-162.7618 240,-108 253.8145,-90.5578 248.7468,-64.9886 241.4195,-45.5572"/>
<polygon fill="#000000" stroke="#000000" points="244.6484,-44.2061 237.5924,-36.3027 238.1797,-46.8813 244.6484,-44.2061"/>
<g id="a_edge2&#45;headlabel"><a xlink:href="dir_000109_000140.html" target="_top" xlink:title="21">
<text text-anchor="middle" x="248.6458" y="-43.9428" font-family="Helvetica,sans-Serif" font-size="10.00" fill="#000000">21</text>
</a>
</g>
</g>
</g>
</svg>
