<?xml version="1.0" encoding="UTF-8" standalone="no"?>
<!DOCTYPE svg PUBLIC "-//W3C//DTD SVG 1.1//EN"
 "http://www.w3.org/Graphics/SVG/1.1/DTD/svg11.dtd">
<!-- Generated by graphviz version 2.40.1 (20161225.0304)
 -->
<!-- Title: iop/fs/netfs Pages: 1 -->
<svg width="224pt" height="375pt"
 viewBox="0.00 0.00 224.00 375.00" xmlns="http://www.w3.org/2000/svg" xmlns:xlink="http://www.w3.org/1999/xlink">
<g id="graph0" class="graph" transform="scale(1 1) rotate(0) translate(4 371)">
<title>iop/fs/netfs</title>
<polygon fill="#ffffff" stroke="transparent" points="-4,4 -4,-371 220,-371 220,4 -4,4"/>
<g id="clust1" class="cluster">
<title>clusterdir_f24daea2522ffa8b6dc5fa9cdf5b8f5c</title>
<g id="a_clust1"><a xlink:href="dir_f24daea2522ffa8b6dc5fa9cdf5b8f5c.html" target="_top" xlink:title="fs">
<polygon fill="#ddddee" stroke="#000000" points="50,-272 50,-359 208,-359 208,-272 50,-272"/>
<text text-anchor="middle" x="129" y="-347" font-family="Helvetica,sans-Serif" font-size="10.00" fill="#000000">fs</text>
</a>
</g>
</g>
<g id="clust2" class="cluster">
<title>clusterdir_c49d6f7b24cb4247c18d467361672153</title>
<g id="a_clust2"><a xlink:href="dir_c49d6f7b24cb4247c18d467361672153.html" target="_top">
<polygon fill="#eeeeff" stroke="#000000" points="58,-280 58,-332 200,-332 200,-280 58,-280"/>
</a>
</g>
</g>
<!-- dir_c49d6f7b24cb4247c18d467361672153 -->
<g id="node1" class="node">
<title>dir_c49d6f7b24cb4247c18d467361672153</title>
<text text-anchor="middle" x="165" y="-303.5" font-family="Helvetica,sans-Serif" font-size="10.00" fill="#000000">netfs</text>
</g>
<!-- dir_71bd830da3b128f94f4da5847e7d6fcb -->
<g id="node2" class="node">
<title>dir_71bd830da3b128f94f4da5847e7d6fcb</title>
<g id="a_node2"><a xlink:href="dir_71bd830da3b128f94f4da5847e7d6fcb.html" target="_top" xlink:title="src">
<polygon fill="#ffffff" stroke="#000000" points="120,-324 66,-324 66,-288 120,-288 120,-324"/>
<text text-anchor="middle" x="93" y="-303.5" font-family="Helvetica,sans-Serif" font-size="10.00" fill="#000000">src</text>
</a>
</g>
</g>
<!-- dir_9be0baa3d4a3e9f480a9ee70594037fa -->
<g id="node3" class="node">
<title>dir_9be0baa3d4a3e9f480a9ee70594037fa</title>
<g id="a_node3"><a xlink:href="dir_9be0baa3d4a3e9f480a9ee70594037fa.html" target="_top" xlink:title="kernel">
<polygon fill="#ffffff" stroke="#ff0000" points="110,-180 56,-180 56,-144 110,-144 110,-180"/>
<text text-anchor="middle" x="83" y="-159.5" font-family="Helvetica,sans-Serif" font-size="10.00" fill="#000000">kernel</text>
</a>
</g>
</g>
<!-- dir_71bd830da3b128f94f4da5847e7d6fcb&#45;&gt;dir_9be0baa3d4a3e9f480a9ee70594037fa -->
<g id="edge4" class="edge">
<title>dir_71bd830da3b128f94f4da5847e7d6fcb&#45;&gt;dir_9be0baa3d4a3e9f480a9ee70594037fa</title>
<path fill="none" stroke="#000000" d="M89.6873,-287.5723C87.9634,-277.166 86.0096,-263.8987 85,-252 83.2601,-231.4949 82.7809,-208.2737 82.7259,-190.555"/>
<polygon fill="#000000" stroke="#000000" points="86.2261,-190.3117 82.7389,-180.3072 79.2261,-190.3027 86.2261,-190.3117"/>
<g id="a_edge4&#45;headlabel"><a xlink:href="dir_000042_000140.html" target="_top" xlink:title="31">
<text text-anchor="middle" x="89.0609" y="-191.4099" font-family="Helvetica,sans-Serif" font-size="10.00" fill="#000000">31</text>
</a>
</g>
</g>
<!-- dir_40ac35421bc63b72c26b6c69b1517fd6 -->
<g id="node4" class="node">
<title>dir_40ac35421bc63b72c26b6c69b1517fd6</title>
<g id="a_node4"><a xlink:href="dir_40ac35421bc63b72c26b6c69b1517fd6.html" target="_top" xlink:title="system">
<polygon fill="#ffffff" stroke="#ff0000" points="54,-108 0,-108 0,-72 54,-72 54,-108"/>
<text text-anchor="middle" x="27" y="-87.5" font-family="Helvetica,sans-Serif" font-size="10.00" fill="#000000">system</text>
</a>
</g>
</g>
<!-- dir_71bd830da3b128f94f4da5847e7d6fcb&#45;&gt;dir_40ac35421bc63b72c26b6c69b1517fd6 -->
<g id="edge3" class="edge">
<title>dir_71bd830da3b128f94f4da5847e7d6fcb&#45;&gt;dir_40ac35421bc63b72c26b6c69b1517fd6</title>
<path fill="none" stroke="#000000" d="M85.5323,-287.8878C75.7306,-263.633 58.4327,-219.1161 47,-180 41.0222,-159.5475 35.8531,-136.0286 32.2682,-118.1632"/>
<polygon fill="#000000" stroke="#000000" points="35.6552,-117.2464 30.2971,-108.1063 28.7859,-118.5928 35.6552,-117.2464"/>
<g id="a_edge3&#45;headlabel"><a xlink:href="dir_000042_000079.html" target="_top" xlink:title="3">
<text text-anchor="middle" x="39.1327" y="-117.7278" font-family="Helvetica,sans-Serif" font-size="10.00" fill="#000000">3</text>
</a>
</g>
</g>
<!-- dir_cb38d55d28446d14702541320714f23c -->
<g id="node5" class="node">
<title>dir_cb38d55d28446d14702541320714f23c</title>
<g id="a_node5"><a xlink:href="dir_cb38d55d28446d14702541320714f23c.html" target="_top" xlink:title="tcpip">
<polygon fill="#ffffff" stroke="#ff0000" points="148,-252 94,-252 94,-216 148,-216 148,-252"/>
<text text-anchor="middle" x="121" y="-231.5" font-family="Helvetica,sans-Serif" font-size="10.00" fill="#000000">tcpip</text>
</a>
</g>
</g>
<!-- dir_71bd830da3b128f94f4da5847e7d6fcb&#45;&gt;dir_cb38d55d28446d14702541320714f23c -->
<g id="edge6" class="edge">
<title>dir_71bd830da3b128f94f4da5847e7d6fcb&#45;&gt;dir_cb38d55d28446d14702541320714f23c</title>
<path fill="none" stroke="#000000" d="M100.0656,-287.8314C103.126,-279.9617 106.7779,-270.5712 110.1682,-261.8533"/>
<polygon fill="#000000" stroke="#000000" points="113.4768,-263.0019 113.8393,-252.4133 106.9527,-260.4647 113.4768,-263.0019"/>
<g id="a_edge6&#45;headlabel"><a xlink:href="dir_000042_000098.html" target="_top" xlink:title="2">
<text text-anchor="middle" x="114.8202" y="-264.8812" font-family="Helvetica,sans-Serif" font-size="10.00" fill="#000000">2</text>
</a>
</g>
</g>
<!-- dir_bdd9a5d540de89e9fe90efdfc6973a4f -->
<g id="node6" class="node">
<title>dir_bdd9a5d540de89e9fe90efdfc6973a4f</title>
<g id="a_node6"><a xlink:href="dir_bdd9a5d540de89e9fe90efdfc6973a4f.html" target="_top" xlink:title="common">
<polygon fill="#ffffff" stroke="#ff0000" points="120.5,-36 61.5,-36 61.5,0 120.5,0 120.5,-36"/>
<text text-anchor="middle" x="91" y="-15.5" font-family="Helvetica,sans-Serif" font-size="10.00" fill="#000000">common</text>
</a>
</g>
</g>
<!-- dir_71bd830da3b128f94f4da5847e7d6fcb&#45;&gt;dir_bdd9a5d540de89e9fe90efdfc6973a4f -->
<g id="edge5" class="edge">
<title>dir_71bd830da3b128f94f4da5847e7d6fcb&#45;&gt;dir_bdd9a5d540de89e9fe90efdfc6973a4f</title>
<path fill="none" stroke="#000000" d="M111.2439,-287.8535C116.8025,-282.5781 123.0256,-276.9163 129,-272 140.8089,-262.2826 150.0022,-265.5981 157,-252 193.1242,-181.8039 141.236,-89.2765 110.6558,-44.516"/>
<polygon fill="#000000" stroke="#000000" points="113.4549,-42.4113 104.8562,-36.2215 107.7182,-46.4225 113.4549,-42.4113"/>
<g id="a_edge5&#45;headlabel"><a xlink:href="dir_000042_000000.html" target="_top" xlink:title="1">
<text text-anchor="middle" x="117.8416" y="-41.2303" font-family="Helvetica,sans-Serif" font-size="10.00" fill="#000000">1</text>
</a>
</g>
</g>
<!-- dir_9be0baa3d4a3e9f480a9ee70594037fa&#45;&gt;dir_40ac35421bc63b72c26b6c69b1517fd6 -->
<g id="edge7" class="edge">
<title>dir_9be0baa3d4a3e9f480a9ee70594037fa&#45;&gt;dir_40ac35421bc63b72c26b6c69b1517fd6</title>
<path fill="none" stroke="#000000" d="M62.9164,-143.8314C55.7324,-135.6232 47.8632,-125.7606 41.2447,-116.7323"/>
<polygon fill="#000000" stroke="#000000" points="43.985,-114.5459 35.3454,-108.4133 38.2749,-118.5951 43.985,-114.5459"/>
<g id="a_edge7&#45;headlabel"><a xlink:href="dir_000140_000079.html" target="_top" xlink:title="2">
<text text-anchor="middle" x="48.3803" y="-113.3357" font-family="Helvetica,sans-Serif" font-size="10.00" fill="#000000">2</text>
</a>
</g>
</g>
<!-- dir_9be0baa3d4a3e9f480a9ee70594037fa&#45;&gt;dir_bdd9a5d540de89e9fe90efdfc6973a4f -->
<g id="edge8" class="edge">
<title>dir_9be0baa3d4a3e9f480a9ee70594037fa&#45;&gt;dir_bdd9a5d540de89e9fe90efdfc6973a4f</title>
<path fill="none" stroke="#000000" d="M79.34,-143.7623C78.2447,-119.201 80.4119,-75.2474 83.9274,-46.3541"/>
<polygon fill="#000000" stroke="#000000" points="87.4438,-46.4728 85.3367,-36.0896 80.5089,-45.5205 87.4438,-46.4728"/>
<g id="a_edge8&#45;headlabel"><a xlink:href="dir_000140_000000.html" target="_top" xlink:title="12">
<text text-anchor="middle" x="89.7678" y="-47.9202" font-family="Helvetica,sans-Serif" font-size="10.00" fill="#000000">12</text>
</a>
</g>
</g>
<!-- dir_40ac35421bc63b72c26b6c69b1517fd6&#45;&gt;dir_9be0baa3d4a3e9f480a9ee70594037fa -->
<g id="edge1" class="edge">
<title>dir_40ac35421bc63b72c26b6c69b1517fd6&#45;&gt;dir_9be0baa3d4a3e9f480a9ee70594037fa</title>
<path fill="none" stroke="#000000" d="M47.2974,-108.4133C54.4948,-116.654 62.3583,-126.5245 68.9518,-135.536"/>
<polygon fill="#000000" stroke="#000000" points="66.1881,-137.6897 74.8212,-143.8314 71.9024,-133.6465 66.1881,-137.6897"/>
<g id="a_edge1&#45;headlabel"><a xlink:href="dir_000079_000140.html" target="_top" xlink:title="182">
<text text-anchor="middle" x="61.7942" y="-133.8952" font-family="Helvetica,sans-Serif" font-size="10.00" fill="#000000">182</text>
</a>
</g>
</g>
<!-- dir_40ac35421bc63b72c26b6c69b1517fd6&#45;&gt;dir_bdd9a5d540de89e9fe90efdfc6973a4f -->
<g id="edge2" class="edge">
<title>dir_40ac35421bc63b72c26b6c69b1517fd6&#45;&gt;dir_bdd9a5d540de89e9fe90efdfc6973a4f</title>
<path fill="none" stroke="#000000" d="M43.1499,-71.8314C50.6717,-63.3694 59.7565,-53.1489 67.9804,-43.8971"/>
<polygon fill="#000000" stroke="#000000" points="70.6049,-46.2127 74.6327,-36.4133 65.373,-41.5621 70.6049,-46.2127"/>
<g id="a_edge2&#45;headlabel"><a xlink:href="dir_000079_000000.html" target="_top" xlink:title="3">
<text text-anchor="middle" x="70.3389" y="-48.2856" font-family="Helvetica,sans-Serif" font-size="10.00" fill="#000000">3</text>
</a>
</g>
</g>
<!-- dir_cb38d55d28446d14702541320714f23c&#45;&gt;dir_9be0baa3d4a3e9f480a9ee70594037fa -->
<g id="edge10" class="edge">
<title>dir_cb38d55d28446d14702541320714f23c&#45;&gt;dir_9be0baa3d4a3e9f480a9ee70594037fa</title>
<path fill="none" stroke="#000000" d="M111.411,-215.8314C107.1683,-207.7925 102.0879,-198.1666 97.404,-189.2918"/>
<polygon fill="#000000" stroke="#000000" points="100.4811,-187.6235 92.7181,-180.4133 94.2904,-190.8908 100.4811,-187.6235"/>
<g id="a_edge10&#45;headlabel"><a xlink:href="dir_000098_000140.html" target="_top" xlink:title="55">
<text text-anchor="middle" x="104.6699" y="-186.9772" font-family="Helvetica,sans-Serif" font-size="10.00" fill="#000000">55</text>
</a>
</g>
</g>
<!-- dir_cb38d55d28446d14702541320714f23c&#45;&gt;dir_bdd9a5d540de89e9fe90efdfc6973a4f -->
<g id="edge11" class="edge">
<title>dir_cb38d55d28446d14702541320714f23c&#45;&gt;dir_bdd9a5d540de89e9fe90efdfc6973a4f</title>
<path fill="none" stroke="#000000" d="M121.679,-215.7343C122.3813,-185.4291 122.0219,-123.0362 110,-72 107.9588,-63.3345 105.0197,-54.1217 102.0611,-45.8054"/>
<polygon fill="#000000" stroke="#000000" points="105.2592,-44.3631 98.5015,-36.2033 98.6957,-46.7963 105.2592,-44.3631"/>
<g id="a_edge11&#45;headlabel"><a xlink:href="dir_000098_000000.html" target="_top" xlink:title="5">
<text text-anchor="middle" x="109.1708" y="-44.2467" font-family="Helvetica,sans-Serif" font-size="10.00" fill="#000000">5</text>
</a>
</g>
</g>
<!-- dir_bdd9a5d540de89e9fe90efdfc6973a4f&#45;&gt;dir_9be0baa3d4a3e9f480a9ee70594037fa -->
<g id="edge9" class="edge">
<title>dir_bdd9a5d540de89e9fe90efdfc6973a4f&#45;&gt;dir_9be0baa3d4a3e9f480a9ee70594037fa</title>
<path fill="none" stroke="#000000" d="M94.6533,-36.0896C95.7666,-60.6805 93.5848,-104.905 90.0474,-133.8531"/>
<polygon fill="#000000" stroke="#000000" points="86.5797,-133.379 88.6864,-143.7623 93.5146,-134.3316 86.5797,-133.379"/>
<g id="a_edge9&#45;headlabel"><a xlink:href="dir_000000_000140.html" target="_top" xlink:title="5">
<text text-anchor="middle" x="84.2559" y="-126.9315" font-family="Helvetica,sans-Serif" font-size="10.00" fill="#000000">5</text>
</a>
</g>
</g>
</g>
</svg>
