<?xml version="1.0" encoding="UTF-8" standalone="no"?>
<!DOCTYPE svg PUBLIC "-//W3C//DTD SVG 1.1//EN"
 "http://www.w3.org/Graphics/SVG/1.1/DTD/svg11.dtd">
<!-- Generated by graphviz version 2.40.1 (20161225.0304)
 -->
<!-- Title: iop/kernel/include Pages: 1 -->
<svg width="236pt" height="159pt"
 viewBox="0.00 0.00 236.00 159.00" xmlns="http://www.w3.org/2000/svg" xmlns:xlink="http://www.w3.org/1999/xlink">
<g id="graph0" class="graph" transform="scale(1 1) rotate(0) translate(4 155)">
<title>iop/kernel/include</title>
<polygon fill="#ffffff" stroke="transparent" points="-4,4 -4,-155 232,-155 232,4 -4,4"/>
<g id="clust1" class="cluster">
<title>clusterdir_9be0baa3d4a3e9f480a9ee70594037fa</title>
<g id="a_clust1"><a xlink:href="dir_9be0baa3d4a3e9f480a9ee70594037fa.html" target="_top" xlink:title="kernel">
<polygon fill="#ddddee" stroke="#000000" points="8,-56 8,-143 166,-143 166,-56 8,-56"/>
<text text-anchor="middle" x="87" y="-131" font-family="Helvetica,sans-Serif" font-size="10.00" fill="#000000">kernel</text>
</a>
</g>
</g>
<g id="clust2" class="cluster">
<title>clusterdir_28a909d5f29a09cdabda212007cd73f7</title>
<g id="a_clust2"><a xlink:href="dir_28a909d5f29a09cdabda212007cd73f7.html" target="_top">
<polygon fill="#eeeeff" stroke="#000000" points="16,-64 16,-116 158,-116 158,-64 16,-64"/>
</a>
</g>
</g>
<!-- dir_28a909d5f29a09cdabda212007cd73f7 -->
<g id="node1" class="node">
<title>dir_28a909d5f29a09cdabda212007cd73f7</title>
<text text-anchor="middle" x="123" y="-87.5" font-family="Helvetica,sans-Serif" font-size="10.00" fill="#000000">include</text>
</g>
<!-- dir_40ac35421bc63b72c26b6c69b1517fd6 -->
<g id="node3" class="node">
<title>dir_40ac35421bc63b72c26b6c69b1517fd6</title>
<g id="a_node3"><a xlink:href="dir_40ac35421bc63b72c26b6c69b1517fd6.html" target="_top" xlink:title="system">
<polygon fill="#ffffff" stroke="#ff0000" points="228,-108 174,-108 174,-72 228,-72 228,-108"/>
<text text-anchor="middle" x="201" y="-87.5" font-family="Helvetica,sans-Serif" font-size="10.00" fill="#000000">system</text>
</a>
</g>
</g>
<!-- dir_28a909d5f29a09cdabda212007cd73f7&#45;&gt;dir_40ac35421bc63b72c26b6c69b1517fd6 -->
<g id="edge1" class="edge">
<title>dir_28a909d5f29a09cdabda212007cd73f7&#45;&gt;dir_40ac35421bc63b72c26b6c69b1517fd6</title>
<path fill="none" stroke="#000000" d="M150.1172,-90C154.7135,-90 159.3099,-90 163.9062,-90"/>
<polygon fill="#000000" stroke="#000000" points="163.9685,-93.5001 173.9685,-90 163.9685,-86.5001 163.9685,-93.5001"/>
<g id="a_edge1&#45;headlabel"><a xlink:href="dir_000141_000079.html" target="_top" xlink:title="2">
<text text-anchor="middle" x="160.3739" y="-93.8393" font-family="Helvetica,sans-Serif" font-size="10.00" fill="#000000">2</text>
</a>
</g>
</g>
<!-- dir_bdd9a5d540de89e9fe90efdfc6973a4f -->
<g id="node4" class="node">
<title>dir_bdd9a5d540de89e9fe90efdfc6973a4f</title>
<g id="a_node4"><a xlink:href="dir_bdd9a5d540de89e9fe90efdfc6973a4f.html" target="_top" xlink:title="common">
<polygon fill="#ffffff" stroke="#ff0000" points="152.5,-36 93.5,-36 93.5,0 152.5,0 152.5,-36"/>
<text text-anchor="middle" x="123" y="-15.5" font-family="Helvetica,sans-Serif" font-size="10.00" fill="#000000">common</text>
</a>
</g>
</g>
<!-- dir_28a909d5f29a09cdabda212007cd73f7&#45;&gt;dir_bdd9a5d540de89e9fe90efdfc6973a4f -->
<g id="edge2" class="edge">
<title>dir_28a909d5f29a09cdabda212007cd73f7&#45;&gt;dir_bdd9a5d540de89e9fe90efdfc6973a4f</title>
<path fill="none" stroke="#000000" d="M123,-71.8314C123,-64.131 123,-54.9743 123,-46.4166"/>
<polygon fill="#000000" stroke="#000000" points="126.5001,-46.4132 123,-36.4133 119.5001,-46.4133 126.5001,-46.4132"/>
<g id="a_edge2&#45;headlabel"><a xlink:href="dir_000141_000000.html" target="_top" xlink:title="12">
<text text-anchor="middle" x="129.3393" y="-47.5079" font-family="Helvetica,sans-Serif" font-size="10.00" fill="#000000">12</text>
</a>
</g>
</g>
<!-- dir_afd48996a710abaf5168dda39bb9c23c -->
<g id="node2" class="node">
<title>dir_afd48996a710abaf5168dda39bb9c23c</title>
<g id="a_node2"><a xlink:href="dir_afd48996a710abaf5168dda39bb9c23c.html" target="_top" xlink:title="sys">
<polygon fill="#ffffff" stroke="#000000" points="78,-108 24,-108 24,-72 78,-72 78,-108"/>
<text text-anchor="middle" x="51" y="-87.5" font-family="Helvetica,sans-Serif" font-size="10.00" fill="#000000">sys</text>
</a>
</g>
</g>
<!-- dir_afd48996a710abaf5168dda39bb9c23c&#45;&gt;dir_bdd9a5d540de89e9fe90efdfc6973a4f -->
<g id="edge4" class="edge">
<title>dir_afd48996a710abaf5168dda39bb9c23c&#45;&gt;dir_bdd9a5d540de89e9fe90efdfc6973a4f</title>
<path fill="none" stroke="#000000" d="M63.2162,-71.8314C71.0663,-63.1337 81.4496,-52.5783 91.4049,-43.1265"/>
<polygon fill="#000000" stroke="#000000" points="93.9508,-45.5384 98.8853,-36.1628 89.1812,-40.4148 93.9508,-45.5384"/>
<g id="a_edge4&#45;headlabel"><a xlink:href="dir_000142_000000.html" target="_top" xlink:title="1">
<text text-anchor="middle" x="93.2544" y="-47.5658" font-family="Helvetica,sans-Serif" font-size="10.00" fill="#000000">1</text>
</a>
</g>
</g>
<!-- dir_40ac35421bc63b72c26b6c69b1517fd6&#45;&gt;dir_bdd9a5d540de89e9fe90efdfc6973a4f -->
<g id="edge3" class="edge">
<title>dir_40ac35421bc63b72c26b6c69b1517fd6&#45;&gt;dir_bdd9a5d540de89e9fe90efdfc6973a4f</title>
<path fill="none" stroke="#000000" d="M181.3173,-71.8314C171.8949,-63.1337 160.4599,-52.5783 150.2204,-43.1265"/>
<polygon fill="#000000" stroke="#000000" points="152.3984,-40.3738 142.6764,-36.1628 147.6505,-45.5175 152.3984,-40.3738"/>
<g id="a_edge3&#45;headlabel"><a xlink:href="dir_000079_000000.html" target="_top" xlink:title="3">
<text text-anchor="middle" x="156.9656" y="-38.2257" font-family="Helvetica,sans-Serif" font-size="10.00" fill="#000000">3</text>
</a>
</g>
</g>
<!-- dir_bdd9a5d540de89e9fe90efdfc6973a4f&#45;&gt;dir_afd48996a710abaf5168dda39bb9c23c -->
<g id="edge5" class="edge">
<title>dir_bdd9a5d540de89e9fe90efdfc6973a4f&#45;&gt;dir_afd48996a710abaf5168dda39bb9c23c</title>
<path fill="none" stroke="#000000" d="M110.5627,-36.4133C102.7259,-45.0787 92.4215,-55.5464 82.5436,-64.9223"/>
<polygon fill="#000000" stroke="#000000" points="80.0561,-62.4561 75.121,-71.8314 84.8255,-67.5799 80.0561,-62.4561"/>
<g id="a_edge5&#45;headlabel"><a xlink:href="dir_000000_000142.html" target="_top" xlink:title="4">
<text text-anchor="middle" x="80.7528" y="-55.4287" font-family="Helvetica,sans-Serif" font-size="10.00" fill="#000000">4</text>
</a>
</g>
</g>
</g>
</svg>
