<?xml version="1.0" encoding="UTF-8" standalone="no"?>
<!DOCTYPE svg PUBLIC "-//W3C//DTD SVG 1.1//EN"
 "http://www.w3.org/Graphics/SVG/1.1/DTD/svg11.dtd">
<!-- Generated by graphviz version 2.40.1 (20161225.0304)
 -->
<!-- Title: iop/memorycard/mcman/src Pages: 1 -->
<svg width="172pt" height="367pt"
 viewBox="0.00 0.00 172.00 367.00" xmlns="http://www.w3.org/2000/svg" xmlns:xlink="http://www.w3.org/1999/xlink">
<g id="graph0" class="graph" transform="scale(1 1) rotate(0) translate(4 363)">
<title>iop/memorycard/mcman/src</title>
<polygon fill="#ffffff" stroke="transparent" points="-4,4 -4,-363 168,-363 168,4 -4,4"/>
<g id="clust1" class="cluster">
<title>clusterdir_ae48e1b29bfa2db4ecbd893188b24955</title>
<g id="a_clust1"><a xlink:href="dir_ae48e1b29bfa2db4ecbd893188b24955.html" target="_top" xlink:title="mcman">
<polygon fill="#ddddee" stroke="#000000" points="8,-208 8,-351 78,-351 78,-208 8,-208"/>
<text text-anchor="middle" x="43" y="-339" font-family="Helvetica,sans-Serif" font-size="10.00" fill="#000000">mcman</text>
</a>
</g>
</g>
<!-- dir_55de3dde79234ee6800af66dd2b2efb1 -->
<g id="node1" class="node">
<title>dir_55de3dde79234ee6800af66dd2b2efb1</title>
<g id="a_node1"><a xlink:href="dir_55de3dde79234ee6800af66dd2b2efb1.html" target="_top" xlink:title="include">
<polygon fill="none" stroke="#000000" points="70,-252 16,-252 16,-216 70,-216 70,-252"/>
<text text-anchor="middle" x="43" y="-231.5" font-family="Helvetica,sans-Serif" font-size="10.00" fill="#000000">include</text>
</a>
</g>
</g>
<!-- dir_9be0baa3d4a3e9f480a9ee70594037fa -->
<g id="node4" class="node">
<title>dir_9be0baa3d4a3e9f480a9ee70594037fa</title>
<g id="a_node4"><a xlink:href="dir_9be0baa3d4a3e9f480a9ee70594037fa.html" target="_top" xlink:title="kernel">
<polygon fill="#ffffff" stroke="#ff0000" points="108,-180 54,-180 54,-144 108,-144 108,-180"/>
<text text-anchor="middle" x="81" y="-159.5" font-family="Helvetica,sans-Serif" font-size="10.00" fill="#000000">kernel</text>
</a>
</g>
</g>
<!-- dir_55de3dde79234ee6800af66dd2b2efb1&#45;&gt;dir_9be0baa3d4a3e9f480a9ee70594037fa -->
<g id="edge3" class="edge">
<title>dir_55de3dde79234ee6800af66dd2b2efb1&#45;&gt;dir_9be0baa3d4a3e9f480a9ee70594037fa</title>
<path fill="none" stroke="#000000" d="M52.589,-215.8314C56.8317,-207.7925 61.9121,-198.1666 66.596,-189.2918"/>
<polygon fill="#000000" stroke="#000000" points="69.7096,-190.8908 71.2819,-180.4133 63.5189,-187.6235 69.7096,-190.8908"/>
<g id="a_edge3&#45;headlabel"><a xlink:href="dir_000143_000140.html" target="_top" xlink:title="1">
<text text-anchor="middle" x="70.5428" y="-192.895" font-family="Helvetica,sans-Serif" font-size="10.00" fill="#000000">1</text>
</a>
</g>
</g>
<!-- dir_bdd9a5d540de89e9fe90efdfc6973a4f -->
<g id="node5" class="node">
<title>dir_bdd9a5d540de89e9fe90efdfc6973a4f</title>
<g id="a_node5"><a xlink:href="dir_bdd9a5d540de89e9fe90efdfc6973a4f.html" target="_top" xlink:title="common">
<polygon fill="#ffffff" stroke="#ff0000" points="102.5,-36 43.5,-36 43.5,0 102.5,0 102.5,-36"/>
<text text-anchor="middle" x="73" y="-15.5" font-family="Helvetica,sans-Serif" font-size="10.00" fill="#000000">common</text>
</a>
</g>
</g>
<!-- dir_55de3dde79234ee6800af66dd2b2efb1&#45;&gt;dir_bdd9a5d540de89e9fe90efdfc6973a4f -->
<g id="edge4" class="edge">
<title>dir_55de3dde79234ee6800af66dd2b2efb1&#45;&gt;dir_bdd9a5d540de89e9fe90efdfc6973a4f</title>
<path fill="none" stroke="#000000" d="M42.3653,-215.9965C41.9653,-197.775 41.9954,-168.825 45,-144 49.1412,-109.7833 58.4136,-71.1991 65.1565,-45.847"/>
<polygon fill="#000000" stroke="#000000" points="68.5421,-46.7351 67.7795,-36.1678 61.7857,-44.9042 68.5421,-46.7351"/>
<g id="a_edge4&#45;headlabel"><a xlink:href="dir_000143_000000.html" target="_top" xlink:title="1">
<text text-anchor="middle" x="70.3424" y="-48.4472" font-family="Helvetica,sans-Serif" font-size="10.00" fill="#000000">1</text>
</a>
</g>
</g>
<!-- dir_a7b91cccb02c4e3ff005f6cfec8ac8b2 -->
<g id="node2" class="node">
<title>dir_a7b91cccb02c4e3ff005f6cfec8ac8b2</title>
<g id="a_node2"><a xlink:href="dir_a7b91cccb02c4e3ff005f6cfec8ac8b2.html" target="_top" xlink:title="src">
<polygon fill="#eeeeff" stroke="#000000" points="70,-324 16,-324 16,-288 70,-288 70,-324"/>
<text text-anchor="middle" x="43" y="-303.5" font-family="Helvetica,sans-Serif" font-size="10.00" fill="#000000">src</text>
</a>
</g>
</g>
<!-- dir_a7b91cccb02c4e3ff005f6cfec8ac8b2&#45;&gt;dir_55de3dde79234ee6800af66dd2b2efb1 -->
<g id="edge8" class="edge">
<title>dir_a7b91cccb02c4e3ff005f6cfec8ac8b2&#45;&gt;dir_55de3dde79234ee6800af66dd2b2efb1</title>
<path fill="none" stroke="#000000" d="M43,-287.8314C43,-280.131 43,-270.9743 43,-262.4166"/>
<polygon fill="#000000" stroke="#000000" points="46.5001,-262.4132 43,-252.4133 39.5001,-262.4133 46.5001,-262.4132"/>
<g id="a_edge8&#45;headlabel"><a xlink:href="dir_000057_000143.html" target="_top" xlink:title="5">
<text text-anchor="middle" x="49.3393" y="-263.5079" font-family="Helvetica,sans-Serif" font-size="10.00" fill="#000000">5</text>
</a>
</g>
</g>
<!-- dir_40ac35421bc63b72c26b6c69b1517fd6 -->
<g id="node3" class="node">
<title>dir_40ac35421bc63b72c26b6c69b1517fd6</title>
<g id="a_node3"><a xlink:href="dir_40ac35421bc63b72c26b6c69b1517fd6.html" target="_top" xlink:title="system">
<polygon fill="#ffffff" stroke="#ff0000" points="164,-108 110,-108 110,-72 164,-72 164,-108"/>
<text text-anchor="middle" x="137" y="-87.5" font-family="Helvetica,sans-Serif" font-size="10.00" fill="#000000">system</text>
</a>
</g>
</g>
<!-- dir_a7b91cccb02c4e3ff005f6cfec8ac8b2&#45;&gt;dir_40ac35421bc63b72c26b6c69b1517fd6 -->
<g id="edge7" class="edge">
<title>dir_a7b91cccb02c4e3ff005f6cfec8ac8b2&#45;&gt;dir_40ac35421bc63b72c26b6c69b1517fd6</title>
<path fill="none" stroke="#000000" d="M64.7319,-287.8711C75.1633,-278.1699 87.0838,-265.4632 95,-252 119.9826,-209.5117 130.2982,-152.197 134.415,-118.3629"/>
<polygon fill="#000000" stroke="#000000" points="137.9126,-118.5782 135.5445,-108.2514 130.9559,-117.801 137.9126,-118.5782"/>
<g id="a_edge7&#45;headlabel"><a xlink:href="dir_000057_000079.html" target="_top" xlink:title="1">
<text text-anchor="middle" x="140.3354" y="-119.9658" font-family="Helvetica,sans-Serif" font-size="10.00" fill="#000000">1</text>
</a>
</g>
</g>
<!-- dir_a7b91cccb02c4e3ff005f6cfec8ac8b2&#45;&gt;dir_9be0baa3d4a3e9f480a9ee70594037fa -->
<g id="edge9" class="edge">
<title>dir_a7b91cccb02c4e3ff005f6cfec8ac8b2&#45;&gt;dir_9be0baa3d4a3e9f480a9ee70594037fa</title>
<path fill="none" stroke="#000000" d="M58.8706,-287.8799C66.5011,-277.9899 74.8707,-265.1113 79,-252 85.2891,-232.031 85.5441,-208.3173 84.3578,-190.2457"/>
<polygon fill="#000000" stroke="#000000" points="87.8276,-189.739 83.5009,-180.0679 80.8523,-190.3263 87.8276,-189.739"/>
<g id="a_edge9&#45;headlabel"><a xlink:href="dir_000057_000140.html" target="_top" xlink:title="24">
<text text-anchor="middle" x="90.9583" y="-190.5828" font-family="Helvetica,sans-Serif" font-size="10.00" fill="#000000">24</text>
</a>
</g>
</g>
<!-- dir_a7b91cccb02c4e3ff005f6cfec8ac8b2&#45;&gt;dir_bdd9a5d540de89e9fe90efdfc6973a4f -->
<g id="edge10" class="edge">
<title>dir_a7b91cccb02c4e3ff005f6cfec8ac8b2&#45;&gt;dir_bdd9a5d540de89e9fe90efdfc6973a4f</title>
<path fill="none" stroke="#000000" d="M27.0095,-287.9169C19.3462,-278.0371 10.9834,-265.1563 7,-252 1.3331,-233.2835 4.2126,-227.3559 7,-208 15.9806,-145.6387 24.3701,-130.8002 47,-72 50.4214,-63.1101 54.7207,-53.6728 58.8324,-45.2164"/>
<polygon fill="#000000" stroke="#000000" points="62.0141,-46.6789 63.3383,-36.1671 55.7479,-43.5587 62.0141,-46.6789"/>
<g id="a_edge10&#45;headlabel"><a xlink:href="dir_000057_000000.html" target="_top" xlink:title="2">
<text text-anchor="middle" x="62.9535" y="-48.6622" font-family="Helvetica,sans-Serif" font-size="10.00" fill="#000000">2</text>
</a>
</g>
</g>
<!-- dir_40ac35421bc63b72c26b6c69b1517fd6&#45;&gt;dir_9be0baa3d4a3e9f480a9ee70594037fa -->
<g id="edge1" class="edge">
<title>dir_40ac35421bc63b72c26b6c69b1517fd6&#45;&gt;dir_9be0baa3d4a3e9f480a9ee70594037fa</title>
<path fill="none" stroke="#000000" d="M128.6546,-108.4133C122.9172,-116.8239 115.2326,-126.9323 107.6589,-136.0923"/>
<polygon fill="#000000" stroke="#000000" points="104.8912,-133.9444 101.0836,-143.8314 110.2257,-138.4768 104.8912,-133.9444"/>
<g id="a_edge1&#45;headlabel"><a xlink:href="dir_000079_000140.html" target="_top" xlink:title="182">
<text text-anchor="middle" x="105.0549" y="-126.8666" font-family="Helvetica,sans-Serif" font-size="10.00" fill="#000000">182</text>
</a>
</g>
</g>
<!-- dir_40ac35421bc63b72c26b6c69b1517fd6&#45;&gt;dir_bdd9a5d540de89e9fe90efdfc6973a4f -->
<g id="edge2" class="edge">
<title>dir_40ac35421bc63b72c26b6c69b1517fd6&#45;&gt;dir_bdd9a5d540de89e9fe90efdfc6973a4f</title>
<path fill="none" stroke="#000000" d="M120.8501,-71.8314C113.3283,-63.3694 104.2435,-53.1489 96.0196,-43.8971"/>
<polygon fill="#000000" stroke="#000000" points="98.627,-41.5621 89.3673,-36.4133 93.3951,-46.2127 98.627,-41.5621"/>
<g id="a_edge2&#45;headlabel"><a xlink:href="dir_000079_000000.html" target="_top" xlink:title="3">
<text text-anchor="middle" x="103.1372" y="-39.8624" font-family="Helvetica,sans-Serif" font-size="10.00" fill="#000000">3</text>
</a>
</g>
</g>
<!-- dir_9be0baa3d4a3e9f480a9ee70594037fa&#45;&gt;dir_40ac35421bc63b72c26b6c69b1517fd6 -->
<g id="edge5" class="edge">
<title>dir_9be0baa3d4a3e9f480a9ee70594037fa&#45;&gt;dir_40ac35421bc63b72c26b6c69b1517fd6</title>
<path fill="none" stroke="#000000" d="M89.1788,-143.8314C94.8781,-135.454 102.5446,-125.3531 110.1203,-116.1749"/>
<polygon fill="#000000" stroke="#000000" points="112.9041,-118.3038 116.7026,-108.4133 107.5653,-113.7763 112.9041,-118.3038"/>
<g id="a_edge5&#45;headlabel"><a xlink:href="dir_000140_000079.html" target="_top" xlink:title="2">
<text text-anchor="middle" x="112.7446" y="-120.3817" font-family="Helvetica,sans-Serif" font-size="10.00" fill="#000000">2</text>
</a>
</g>
</g>
<!-- dir_9be0baa3d4a3e9f480a9ee70594037fa&#45;&gt;dir_bdd9a5d540de89e9fe90efdfc6973a4f -->
<g id="edge6" class="edge">
<title>dir_9be0baa3d4a3e9f480a9ee70594037fa&#45;&gt;dir_bdd9a5d540de89e9fe90efdfc6973a4f</title>
<path fill="none" stroke="#000000" d="M75.3136,-143.7623C71.4893,-119.201 68.7727,-75.2474 69.0778,-46.3541"/>
<polygon fill="#000000" stroke="#000000" points="72.5835,-46.1779 69.3467,-36.0896 65.5859,-45.9945 72.5835,-46.1779"/>
<g id="a_edge6&#45;headlabel"><a xlink:href="dir_000140_000000.html" target="_top" xlink:title="12">
<text text-anchor="middle" x="75.3278" y="-47.3456" font-family="Helvetica,sans-Serif" font-size="10.00" fill="#000000">12</text>
</a>
</g>
</g>
<!-- dir_bdd9a5d540de89e9fe90efdfc6973a4f&#45;&gt;dir_9be0baa3d4a3e9f480a9ee70594037fa -->
<g id="edge11" class="edge">
<title>dir_bdd9a5d540de89e9fe90efdfc6973a4f&#45;&gt;dir_9be0baa3d4a3e9f480a9ee70594037fa</title>
<path fill="none" stroke="#000000" d="M78.6633,-36.0896C82.492,-60.5727 85.217,-104.5174 84.924,-133.4713"/>
<polygon fill="#000000" stroke="#000000" points="81.4177,-133.6758 84.66,-143.7623 88.4154,-133.8554 81.4177,-133.6758"/>
<g id="a_edge11&#45;headlabel"><a xlink:href="dir_000000_000140.html" target="_top" xlink:title="5">
<text text-anchor="middle" x="78.6715" y="-127.5096" font-family="Helvetica,sans-Serif" font-size="10.00" fill="#000000">5</text>
</a>
</g>
</g>
</g>
</svg>
