<?xml version="1.0" encoding="UTF-8" standalone="no"?>
<!DOCTYPE svg PUBLIC "-//W3C//DTD SVG 1.1//EN"
 "http://www.w3.org/Graphics/SVG/1.1/DTD/svg11.dtd">
<!-- Generated by graphviz version 2.40.1 (20161225.0304)
 -->
<!-- Title: iop/system/rmman/src Pages: 1 -->
<svg width="174pt" height="223pt"
 viewBox="0.00 0.00 173.74 223.00" xmlns="http://www.w3.org/2000/svg" xmlns:xlink="http://www.w3.org/1999/xlink">
<g id="graph0" class="graph" transform="scale(1 1) rotate(0) translate(4 219)">
<title>iop/system/rmman/src</title>
<polygon fill="#ffffff" stroke="transparent" points="-4,4 -4,-219 169.7398,-219 169.7398,4 -4,4"/>
<g id="clust1" class="cluster">
<title>clusterdir_fe7329d8b89241d59f89f45fd75d2e77</title>
<g id="a_clust1"><a xlink:href="dir_fe7329d8b89241d59f89f45fd75d2e77.html" target="_top" xlink:title="rmman">
<polygon fill="#ddddee" stroke="#000000" points="8,-64 8,-207 78,-207 78,-64 8,-64"/>
<text text-anchor="middle" x="43" y="-195" font-family="Helvetica,sans-Serif" font-size="10.00" fill="#000000">rmman</text>
</a>
</g>
</g>
<!-- dir_ba0bf5790b75dbb76cd621ad13634675 -->
<g id="node1" class="node">
<title>dir_ba0bf5790b75dbb76cd621ad13634675</title>
<g id="a_node1"><a xlink:href="dir_ba0bf5790b75dbb76cd621ad13634675.html" target="_top" xlink:title="include">
<polygon fill="none" stroke="#000000" points="70,-108 16,-108 16,-72 70,-72 70,-108"/>
<text text-anchor="middle" x="43" y="-87.5" font-family="Helvetica,sans-Serif" font-size="10.00" fill="#000000">include</text>
</a>
</g>
</g>
<!-- dir_9be0baa3d4a3e9f480a9ee70594037fa -->
<g id="node4" class="node">
<title>dir_9be0baa3d4a3e9f480a9ee70594037fa</title>
<g id="a_node4"><a xlink:href="dir_9be0baa3d4a3e9f480a9ee70594037fa.html" target="_top" xlink:title="kernel">
<polygon fill="#ffffff" stroke="#ff0000" points="146,-36 92,-36 92,0 146,0 146,-36"/>
<text text-anchor="middle" x="119" y="-15.5" font-family="Helvetica,sans-Serif" font-size="10.00" fill="#000000">kernel</text>
</a>
</g>
</g>
<!-- dir_ba0bf5790b75dbb76cd621ad13634675&#45;&gt;dir_9be0baa3d4a3e9f480a9ee70594037fa -->
<g id="edge5" class="edge">
<title>dir_ba0bf5790b75dbb76cd621ad13634675&#45;&gt;dir_9be0baa3d4a3e9f480a9ee70594037fa</title>
<path fill="none" stroke="#000000" d="M62.178,-71.8314C71.3588,-63.1337 82.5006,-52.5783 92.4776,-43.1265"/>
<polygon fill="#000000" stroke="#000000" points="94.9757,-45.5811 99.8281,-36.1628 90.1615,-40.4995 94.9757,-45.5811"/>
<g id="a_edge5&#45;headlabel"><a xlink:href="dir_000152_000140.html" target="_top" xlink:title="1">
<text text-anchor="middle" x="94.3189" y="-47.6145" font-family="Helvetica,sans-Serif" font-size="10.00" fill="#000000">1</text>
</a>
</g>
</g>
<!-- dir_4b4edfc69082ccc9fa978b057a42ad24 -->
<g id="node2" class="node">
<title>dir_4b4edfc69082ccc9fa978b057a42ad24</title>
<g id="a_node2"><a xlink:href="dir_4b4edfc69082ccc9fa978b057a42ad24.html" target="_top" xlink:title="src">
<polygon fill="#eeeeff" stroke="#000000" points="70,-180 16,-180 16,-144 70,-144 70,-180"/>
<text text-anchor="middle" x="43" y="-159.5" font-family="Helvetica,sans-Serif" font-size="10.00" fill="#000000">src</text>
</a>
</g>
</g>
<!-- dir_4b4edfc69082ccc9fa978b057a42ad24&#45;&gt;dir_ba0bf5790b75dbb76cd621ad13634675 -->
<g id="edge4" class="edge">
<title>dir_4b4edfc69082ccc9fa978b057a42ad24&#45;&gt;dir_ba0bf5790b75dbb76cd621ad13634675</title>
<path fill="none" stroke="#000000" d="M43,-143.8314C43,-136.131 43,-126.9743 43,-118.4166"/>
<polygon fill="#000000" stroke="#000000" points="46.5001,-118.4132 43,-108.4133 39.5001,-118.4133 46.5001,-118.4132"/>
<g id="a_edge4&#45;headlabel"><a xlink:href="dir_000091_000152.html" target="_top" xlink:title="1">
<text text-anchor="middle" x="49.3393" y="-119.5079" font-family="Helvetica,sans-Serif" font-size="10.00" fill="#000000">1</text>
</a>
</g>
</g>
<!-- dir_47d6ec5167f7ee6ef257538cbd6ee8bb -->
<g id="node3" class="node">
<title>dir_47d6ec5167f7ee6ef257538cbd6ee8bb</title>
<g id="a_node3"><a xlink:href="dir_47d6ec5167f7ee6ef257538cbd6ee8bb.html" target="_top" xlink:title="rsio2man">
<polygon fill="#ffffff" stroke="#ff0000" points="150,-108 88,-108 88,-72 150,-72 150,-108"/>
<text text-anchor="middle" x="119" y="-87.5" font-family="Helvetica,sans-Serif" font-size="10.00" fill="#000000">rsio2man</text>
</a>
</g>
</g>
<!-- dir_4b4edfc69082ccc9fa978b057a42ad24&#45;&gt;dir_47d6ec5167f7ee6ef257538cbd6ee8bb -->
<g id="edge2" class="edge">
<title>dir_4b4edfc69082ccc9fa978b057a42ad24&#45;&gt;dir_47d6ec5167f7ee6ef257538cbd6ee8bb</title>
<path fill="none" stroke="#000000" d="M62.178,-143.8314C71.3588,-135.1337 82.5006,-124.5783 92.4776,-115.1265"/>
<polygon fill="#000000" stroke="#000000" points="94.9757,-117.5811 99.8281,-108.1628 90.1615,-112.4995 94.9757,-117.5811"/>
<g id="a_edge2&#45;headlabel"><a xlink:href="dir_000091_000153.html" target="_top" xlink:title="2">
<text text-anchor="middle" x="94.3189" y="-119.6145" font-family="Helvetica,sans-Serif" font-size="10.00" fill="#000000">2</text>
</a>
</g>
</g>
<!-- dir_4b4edfc69082ccc9fa978b057a42ad24&#45;&gt;dir_9be0baa3d4a3e9f480a9ee70594037fa -->
<g id="edge3" class="edge">
<title>dir_4b4edfc69082ccc9fa978b057a42ad24&#45;&gt;dir_9be0baa3d4a3e9f480a9ee70594037fa</title>
<path fill="none" stroke="#000000" d="M70.0973,-157.8864C97.8298,-152.0756 139.535,-138.532 159,-108 169.5125,-91.5104 165.85,-82.3166 159,-64 156.2985,-56.7762 151.8936,-49.9374 146.974,-43.85"/>
<polygon fill="#000000" stroke="#000000" points="149.311,-41.21 140.0582,-36.049 144.073,-45.8537 149.311,-41.21"/>
<g id="a_edge3&#45;headlabel"><a xlink:href="dir_000091_000140.html" target="_top" xlink:title="18">
<text text-anchor="middle" x="153.8201" y="-39.5163" font-family="Helvetica,sans-Serif" font-size="10.00" fill="#000000">18</text>
</a>
</g>
</g>
<!-- dir_47d6ec5167f7ee6ef257538cbd6ee8bb&#45;&gt;dir_9be0baa3d4a3e9f480a9ee70594037fa -->
<g id="edge1" class="edge">
<title>dir_47d6ec5167f7ee6ef257538cbd6ee8bb&#45;&gt;dir_9be0baa3d4a3e9f480a9ee70594037fa</title>
<path fill="none" stroke="#000000" d="M119,-71.8314C119,-64.131 119,-54.9743 119,-46.4166"/>
<polygon fill="#000000" stroke="#000000" points="122.5001,-46.4132 119,-36.4133 115.5001,-46.4133 122.5001,-46.4132"/>
<g id="a_edge1&#45;headlabel"><a xlink:href="dir_000153_000140.html" target="_top" xlink:title="1">
<text text-anchor="middle" x="125.3393" y="-47.5079" font-family="Helvetica,sans-Serif" font-size="10.00" fill="#000000">1</text>
</a>
</g>
</g>
</g>
</svg>
