<?xml version="1.0" encoding="UTF-8" standalone="no"?>
<!DOCTYPE svg PUBLIC "-//W3C//DTD SVG 1.1//EN"
 "http://www.w3.org/Graphics/SVG/1.1/DTD/svg11.dtd">
<!-- Generated by graphviz version 2.40.1 (20161225.0304)
 -->
<!-- Title: iop/system/sio2man Pages: 1 -->
<svg width="260pt" height="159pt"
 viewBox="0.00 0.00 260.00 159.00" xmlns="http://www.w3.org/2000/svg" xmlns:xlink="http://www.w3.org/1999/xlink">
<g id="graph0" class="graph" transform="scale(1 1) rotate(0) translate(4 155)">
<title>iop/system/sio2man</title>
<polygon fill="#ffffff" stroke="transparent" points="-4,4 -4,-155 256,-155 256,4 -4,4"/>
<g id="clust1" class="cluster">
<title>clusterdir_40ac35421bc63b72c26b6c69b1517fd6</title>
<g id="a_clust1"><a xlink:href="dir_40ac35421bc63b72c26b6c69b1517fd6.html" target="_top" xlink:title="system">
<polygon fill="#ddddee" stroke="#000000" points="8,-56 8,-143 244,-143 244,-56 8,-56"/>
<text text-anchor="middle" x="126" y="-131" font-family="Helvetica,sans-Serif" font-size="10.00" fill="#000000">system</text>
</a>
</g>
</g>
<g id="clust2" class="cluster">
<title>clusterdir_1fd4d135da32a6b9ad91946f648cae84</title>
<g id="a_clust2"><a xlink:href="dir_1fd4d135da32a6b9ad91946f648cae84.html" target="_top">
<polygon fill="#eeeeff" stroke="#000000" points="16,-64 16,-116 236,-116 236,-64 16,-64"/>
</a>
</g>
</g>
<!-- dir_1fd4d135da32a6b9ad91946f648cae84 -->
<g id="node1" class="node">
<title>dir_1fd4d135da32a6b9ad91946f648cae84</title>
<text text-anchor="middle" x="198" y="-87.5" font-family="Helvetica,sans-Serif" font-size="10.00" fill="#000000">sio2man</text>
</g>
<!-- dir_5bd868b9dc477089b3a8cf6ff153fb80 -->
<g id="node2" class="node">
<title>dir_5bd868b9dc477089b3a8cf6ff153fb80</title>
<g id="a_node2"><a xlink:href="dir_5bd868b9dc477089b3a8cf6ff153fb80.html" target="_top" xlink:title="include">
<polygon fill="#ffffff" stroke="#000000" points="150,-108 96,-108 96,-72 150,-72 150,-108"/>
<text text-anchor="middle" x="123" y="-87.5" font-family="Helvetica,sans-Serif" font-size="10.00" fill="#000000">include</text>
</a>
</g>
</g>
<!-- dir_9be0baa3d4a3e9f480a9ee70594037fa -->
<g id="node4" class="node">
<title>dir_9be0baa3d4a3e9f480a9ee70594037fa</title>
<g id="a_node4"><a xlink:href="dir_9be0baa3d4a3e9f480a9ee70594037fa.html" target="_top" xlink:title="kernel">
<polygon fill="#ffffff" stroke="#ff0000" points="150,-36 96,-36 96,0 150,0 150,-36"/>
<text text-anchor="middle" x="123" y="-15.5" font-family="Helvetica,sans-Serif" font-size="10.00" fill="#000000">kernel</text>
</a>
</g>
</g>
<!-- dir_5bd868b9dc477089b3a8cf6ff153fb80&#45;&gt;dir_9be0baa3d4a3e9f480a9ee70594037fa -->
<g id="edge2" class="edge">
<title>dir_5bd868b9dc477089b3a8cf6ff153fb80&#45;&gt;dir_9be0baa3d4a3e9f480a9ee70594037fa</title>
<path fill="none" stroke="#000000" d="M117.0476,-71.8314C116.2972,-64.131 116.0763,-54.9743 116.3849,-46.4166"/>
<polygon fill="#000000" stroke="#000000" points="119.8792,-46.6161 117.024,-36.4133 112.8935,-46.1697 119.8792,-46.6161"/>
<g id="a_edge2&#45;headlabel"><a xlink:href="dir_000157_000140.html" target="_top" xlink:title="1">
<text text-anchor="middle" x="122.4836" y="-47.8844" font-family="Helvetica,sans-Serif" font-size="10.00" fill="#000000">1</text>
</a>
</g>
</g>
<!-- dir_1f4d3c5c1e3e1feb3d94e36d4b775ae1 -->
<g id="node3" class="node">
<title>dir_1f4d3c5c1e3e1feb3d94e36d4b775ae1</title>
<g id="a_node3"><a xlink:href="dir_1f4d3c5c1e3e1feb3d94e36d4b775ae1.html" target="_top" xlink:title="src">
<polygon fill="#ffffff" stroke="#000000" points="78,-108 24,-108 24,-72 78,-72 78,-108"/>
<text text-anchor="middle" x="51" y="-87.5" font-family="Helvetica,sans-Serif" font-size="10.00" fill="#000000">src</text>
</a>
</g>
</g>
<!-- dir_1f4d3c5c1e3e1feb3d94e36d4b775ae1&#45;&gt;dir_9be0baa3d4a3e9f480a9ee70594037fa -->
<g id="edge1" class="edge">
<title>dir_1f4d3c5c1e3e1feb3d94e36d4b775ae1&#45;&gt;dir_9be0baa3d4a3e9f480a9ee70594037fa</title>
<path fill="none" stroke="#000000" d="M69.1686,-71.8314C77.7152,-63.2848 88.0557,-52.9443 97.3802,-43.6198"/>
<polygon fill="#000000" stroke="#000000" points="99.9905,-45.9592 104.5867,-36.4133 95.0408,-41.0095 99.9905,-45.9592"/>
<g id="a_edge1&#45;headlabel"><a xlink:href="dir_000097_000140.html" target="_top" xlink:title="18">
<text text-anchor="middle" x="99.4564" y="-48.0087" font-family="Helvetica,sans-Serif" font-size="10.00" fill="#000000">18</text>
</a>
</g>
</g>
<!-- dir_9be0baa3d4a3e9f480a9ee70594037fa&#45;&gt;dir_5bd868b9dc477089b3a8cf6ff153fb80 -->
<g id="edge3" class="edge">
<title>dir_9be0baa3d4a3e9f480a9ee70594037fa&#45;&gt;dir_5bd868b9dc477089b3a8cf6ff153fb80</title>
<path fill="none" stroke="#000000" d="M128.976,-36.4133C129.7071,-44.0593 129.9203,-53.1084 129.6155,-61.5726"/>
<polygon fill="#000000" stroke="#000000" points="126.1048,-61.6264 128.9524,-71.8314 133.0902,-62.078 126.1048,-61.6264"/>
<g id="a_edge3&#45;headlabel"><a xlink:href="dir_000140_000157.html" target="_top" xlink:title="2">
<text text-anchor="middle" x="123.5032" y="-55.3562" font-family="Helvetica,sans-Serif" font-size="10.00" fill="#000000">2</text>
</a>
</g>
</g>
</g>
</svg>
