<?xml version="1.0" encoding="UTF-8" standalone="no"?>
<!DOCTYPE svg PUBLIC "-//W3C//DTD SVG 1.1//EN"
 "http://www.w3.org/Graphics/SVG/1.1/DTD/svg11.dtd">
<!-- Generated by graphviz version 2.40.1 (20161225.0304)
 -->
<!-- Title: iop/system/padman Pages: 1 -->
<svg width="238pt" height="175pt"
 viewBox="0.00 0.00 238.00 175.00" xmlns="http://www.w3.org/2000/svg" xmlns:xlink="http://www.w3.org/1999/xlink">
<g id="graph0" class="graph" transform="scale(1 1) rotate(0) translate(4 171)">
<title>iop/system/padman</title>
<polygon fill="#ffffff" stroke="transparent" points="-4,4 -4,-171 234,-171 234,4 -4,4"/>
<g id="clust1" class="cluster">
<title>clusterdir_40ac35421bc63b72c26b6c69b1517fd6</title>
<g id="a_clust1"><a xlink:href="dir_40ac35421bc63b72c26b6c69b1517fd6.html" target="_top" xlink:title="system">
<polygon fill="#ddddee" stroke="#000000" points="8,-8 8,-159 168,-159 168,-8 8,-8"/>
<text text-anchor="middle" x="88" y="-147" font-family="Helvetica,sans-Serif" font-size="10.00" fill="#000000">system</text>
</a>
</g>
</g>
<g id="clust2" class="cluster">
<title>clusterdir_cb26f304a37e679cc21ccc4e4a07be73</title>
<g id="a_clust2"><a xlink:href="dir_cb26f304a37e679cc21ccc4e4a07be73.html" target="_top">
<polygon fill="#eeeeff" stroke="#000000" points="16,-80 16,-132 160,-132 160,-80 16,-80"/>
</a>
</g>
</g>
<!-- dir_1fd4d135da32a6b9ad91946f648cae84 -->
<g id="node1" class="node">
<title>dir_1fd4d135da32a6b9ad91946f648cae84</title>
<g id="a_node1"><a xlink:href="dir_1fd4d135da32a6b9ad91946f648cae84.html" target="_top" xlink:title="sio2man">
<polygon fill="#ffffff" stroke="#ff0000" points="118.5,-52 59.5,-52 59.5,-16 118.5,-16 118.5,-52"/>
<text text-anchor="middle" x="89" y="-31.5" font-family="Helvetica,sans-Serif" font-size="10.00" fill="#000000">sio2man</text>
</a>
</g>
</g>
<!-- dir_9be0baa3d4a3e9f480a9ee70594037fa -->
<g id="node4" class="node">
<title>dir_9be0baa3d4a3e9f480a9ee70594037fa</title>
<g id="a_node4"><a xlink:href="dir_9be0baa3d4a3e9f480a9ee70594037fa.html" target="_top" xlink:title="kernel">
<polygon fill="#ffffff" stroke="#ff0000" points="230,-52 176,-52 176,-16 230,-16 230,-52"/>
<text text-anchor="middle" x="203" y="-31.5" font-family="Helvetica,sans-Serif" font-size="10.00" fill="#000000">kernel</text>
</a>
</g>
</g>
<!-- dir_1fd4d135da32a6b9ad91946f648cae84&#45;&gt;dir_9be0baa3d4a3e9f480a9ee70594037fa -->
<g id="edge3" class="edge">
<title>dir_1fd4d135da32a6b9ad91946f648cae84&#45;&gt;dir_9be0baa3d4a3e9f480a9ee70594037fa</title>
<path fill="none" stroke="#000000" d="M118.8359,-34C134.3881,-34 149.9403,-34 165.4924,-34"/>
<polygon fill="#000000" stroke="#000000" points="165.7125,-37.5001 175.7124,-34 165.7124,-30.5001 165.7125,-37.5001"/>
<g id="a_edge3&#45;headlabel"><a xlink:href="dir_000096_000140.html" target="_top" xlink:title="19">
<text text-anchor="middle" x="162.1178" y="-37.8393" font-family="Helvetica,sans-Serif" font-size="10.00" fill="#000000">19</text>
</a>
</g>
</g>
<!-- dir_cb26f304a37e679cc21ccc4e4a07be73 -->
<g id="node2" class="node">
<title>dir_cb26f304a37e679cc21ccc4e4a07be73</title>
<text text-anchor="middle" x="124" y="-103.5" font-family="Helvetica,sans-Serif" font-size="10.00" fill="#000000">padman</text>
</g>
<!-- dir_12dc7cff0c3b2c52dc4bc086c7616969 -->
<g id="node3" class="node">
<title>dir_12dc7cff0c3b2c52dc4bc086c7616969</title>
<g id="a_node3"><a xlink:href="dir_12dc7cff0c3b2c52dc4bc086c7616969.html" target="_top" xlink:title="src">
<polygon fill="#ffffff" stroke="#000000" points="78,-124 24,-124 24,-88 78,-88 78,-124"/>
<text text-anchor="middle" x="51" y="-103.5" font-family="Helvetica,sans-Serif" font-size="10.00" fill="#000000">src</text>
</a>
</g>
</g>
<!-- dir_12dc7cff0c3b2c52dc4bc086c7616969&#45;&gt;dir_1fd4d135da32a6b9ad91946f648cae84 -->
<g id="edge1" class="edge">
<title>dir_12dc7cff0c3b2c52dc4bc086c7616969&#45;&gt;dir_1fd4d135da32a6b9ad91946f648cae84</title>
<path fill="none" stroke="#000000" d="M60.589,-87.8314C64.8317,-79.7925 69.9121,-70.1666 74.596,-61.2918"/>
<polygon fill="#000000" stroke="#000000" points="77.7096,-62.8908 79.2819,-52.4133 71.5189,-59.6235 77.7096,-62.8908"/>
<g id="a_edge1&#45;headlabel"><a xlink:href="dir_000089_000096.html" target="_top" xlink:title="1">
<text text-anchor="middle" x="78.5428" y="-64.895" font-family="Helvetica,sans-Serif" font-size="10.00" fill="#000000">1</text>
</a>
</g>
</g>
<!-- dir_12dc7cff0c3b2c52dc4bc086c7616969&#45;&gt;dir_9be0baa3d4a3e9f480a9ee70594037fa -->
<g id="edge2" class="edge">
<title>dir_12dc7cff0c3b2c52dc4bc086c7616969&#45;&gt;dir_9be0baa3d4a3e9f480a9ee70594037fa</title>
<path fill="none" stroke="#000000" d="M73.9585,-87.8471C78.1575,-84.9891 82.605,-82.2427 87,-80 119.5222,-63.404 133.3879,-67.4149 166.4327,-54.2003"/>
<polygon fill="#000000" stroke="#000000" points="167.9505,-57.3581 175.778,-50.218 165.2064,-50.9184 167.9505,-57.3581"/>
<g id="a_edge2&#45;headlabel"><a xlink:href="dir_000089_000140.html" target="_top" xlink:title="49">
<text text-anchor="middle" x="165.7567" y="-58.8792" font-family="Helvetica,sans-Serif" font-size="10.00" fill="#000000">49</text>
</a>
</g>
</g>
<!-- dir_9be0baa3d4a3e9f480a9ee70594037fa&#45;&gt;dir_1fd4d135da32a6b9ad91946f648cae84 -->
<g id="edge4" class="edge">
<title>dir_9be0baa3d4a3e9f480a9ee70594037fa&#45;&gt;dir_1fd4d135da32a6b9ad91946f648cae84</title>
<path fill="none" stroke="#000000" d="M175.7124,-34C160.1603,-34 144.6081,-34 129.0559,-34"/>
<polygon fill="#000000" stroke="#000000" points="128.836,-30.5001 118.8359,-34 128.8359,-37.5001 128.836,-30.5001"/>
<g id="a_edge4&#45;headlabel"><a xlink:href="dir_000140_000096.html" target="_top" xlink:title="2">
<text text-anchor="middle" x="132.4306" y="-25.1607" font-family="Helvetica,sans-Serif" font-size="10.00" fill="#000000">2</text>
</a>
</g>
</g>
</g>
</svg>
