<?xml version="1.0" encoding="UTF-8" standalone="no"?>
<!DOCTYPE svg PUBLIC "-//W3C//DTD SVG 1.1//EN"
 "http://www.w3.org/Graphics/SVG/1.1/DTD/svg11.dtd">
<!-- Generated by graphviz version 2.40.1 (20161225.0304)
 -->
<!-- Title: iop/tcpip/tcpip&#45;netman/src Pages: 1 -->
<svg width="127pt" height="295pt"
 viewBox="0.00 0.00 127.00 295.00" xmlns="http://www.w3.org/2000/svg" xmlns:xlink="http://www.w3.org/1999/xlink">
<g id="graph0" class="graph" transform="scale(1 1) rotate(0) translate(4 291)">
<title>iop/tcpip/tcpip&#45;netman/src</title>
<polygon fill="#ffffff" stroke="transparent" points="-4,4 -4,-291 123,-291 123,4 -4,4"/>
<g id="clust1" class="cluster">
<title>clusterdir_9df346544416700849519ab7a98decca</title>
<g id="a_clust1"><a xlink:href="dir_9df346544416700849519ab7a98decca.html" target="_top" xlink:title="tcpip&#45;netman">
<polygon fill="#ddddee" stroke="#000000" points="29,-208 29,-279 111,-279 111,-208 29,-208"/>
<text text-anchor="middle" x="70" y="-267" font-family="Helvetica,sans-Serif" font-size="10.00" fill="#000000">tcpip&#45;netman</text>
</a>
</g>
</g>
<!-- dir_d8e9f3932b80db8eabaaa05262791dac -->
<g id="node1" class="node">
<title>dir_d8e9f3932b80db8eabaaa05262791dac</title>
<g id="a_node1"><a xlink:href="dir_d8e9f3932b80db8eabaaa05262791dac.html" target="_top" xlink:title="src">
<polygon fill="#eeeeff" stroke="#000000" points="97,-252 43,-252 43,-216 97,-216 97,-252"/>
<text text-anchor="middle" x="70" y="-231.5" font-family="Helvetica,sans-Serif" font-size="10.00" fill="#000000">src</text>
</a>
</g>
</g>
<!-- dir_9be0baa3d4a3e9f480a9ee70594037fa -->
<g id="node2" class="node">
<title>dir_9be0baa3d4a3e9f480a9ee70594037fa</title>
<g id="a_node2"><a xlink:href="dir_9be0baa3d4a3e9f480a9ee70594037fa.html" target="_top" xlink:title="kernel">
<polygon fill="#ffffff" stroke="#ff0000" points="54,-108 0,-108 0,-72 54,-72 54,-108"/>
<text text-anchor="middle" x="27" y="-87.5" font-family="Helvetica,sans-Serif" font-size="10.00" fill="#000000">kernel</text>
</a>
</g>
</g>
<!-- dir_d8e9f3932b80db8eabaaa05262791dac&#45;&gt;dir_9be0baa3d4a3e9f480a9ee70594037fa -->
<g id="edge5" class="edge">
<title>dir_d8e9f3932b80db8eabaaa05262791dac&#45;&gt;dir_9be0baa3d4a3e9f480a9ee70594037fa</title>
<path fill="none" stroke="#000000" d="M50.5044,-215.9663C41.4897,-206.2894 31.7449,-193.5757 27,-180 20.0617,-160.1485 20.4187,-136.295 22.318,-118.1341"/>
<polygon fill="#000000" stroke="#000000" points="25.7956,-118.531 23.571,-108.1724 18.8503,-117.6573 25.7956,-118.531"/>
<g id="a_edge5&#45;headlabel"><a xlink:href="dir_000102_000140.html" target="_top" xlink:title="16">
<text text-anchor="middle" x="28.1641" y="-119.9518" font-family="Helvetica,sans-Serif" font-size="10.00" fill="#000000">16</text>
</a>
</g>
</g>
<!-- dir_ab0c940ac9afa06c331831ae52f4280f -->
<g id="node3" class="node">
<title>dir_ab0c940ac9afa06c331831ae52f4280f</title>
<g id="a_node3"><a xlink:href="dir_ab0c940ac9afa06c331831ae52f4280f.html" target="_top" xlink:title="tcpip&#45;base">
<polygon fill="#ffffff" stroke="#ff0000" points="104,-180 36,-180 36,-144 104,-144 104,-180"/>
<text text-anchor="middle" x="70" y="-159.5" font-family="Helvetica,sans-Serif" font-size="10.00" fill="#000000">tcpip&#45;base</text>
</a>
</g>
</g>
<!-- dir_d8e9f3932b80db8eabaaa05262791dac&#45;&gt;dir_ab0c940ac9afa06c331831ae52f4280f -->
<g id="edge6" class="edge">
<title>dir_d8e9f3932b80db8eabaaa05262791dac&#45;&gt;dir_ab0c940ac9afa06c331831ae52f4280f</title>
<path fill="none" stroke="#000000" d="M70,-215.8314C70,-208.131 70,-198.9743 70,-190.4166"/>
<polygon fill="#000000" stroke="#000000" points="73.5001,-190.4132 70,-180.4133 66.5001,-190.4133 73.5001,-190.4132"/>
<g id="a_edge6&#45;headlabel"><a xlink:href="dir_000102_000158.html" target="_top" xlink:title="1">
<text text-anchor="middle" x="76.3393" y="-191.5079" font-family="Helvetica,sans-Serif" font-size="10.00" fill="#000000">1</text>
</a>
</g>
</g>
<!-- dir_bdd9a5d540de89e9fe90efdfc6973a4f -->
<g id="node4" class="node">
<title>dir_bdd9a5d540de89e9fe90efdfc6973a4f</title>
<g id="a_node4"><a xlink:href="dir_bdd9a5d540de89e9fe90efdfc6973a4f.html" target="_top" xlink:title="common">
<polygon fill="#ffffff" stroke="#ff0000" points="83.5,-36 24.5,-36 24.5,0 83.5,0 83.5,-36"/>
<text text-anchor="middle" x="54" y="-15.5" font-family="Helvetica,sans-Serif" font-size="10.00" fill="#000000">common</text>
</a>
</g>
</g>
<!-- dir_d8e9f3932b80db8eabaaa05262791dac&#45;&gt;dir_bdd9a5d540de89e9fe90efdfc6973a4f -->
<g id="edge7" class="edge">
<title>dir_d8e9f3932b80db8eabaaa05262791dac&#45;&gt;dir_bdd9a5d540de89e9fe90efdfc6973a4f</title>
<path fill="none" stroke="#000000" d="M89.4956,-215.9663C98.5103,-206.2894 108.2551,-193.5757 113,-180 118.279,-164.896 116.4755,-159.618 113,-144 104.9513,-107.8313 85.3632,-69.7658 70.9553,-45.0641"/>
<polygon fill="#000000" stroke="#000000" points="73.848,-43.0812 65.7218,-36.283 67.835,-46.665 73.848,-43.0812"/>
<g id="a_edge7&#45;headlabel"><a xlink:href="dir_000102_000000.html" target="_top" xlink:title="2">
<text text-anchor="middle" x="78.1273" y="-42.2154" font-family="Helvetica,sans-Serif" font-size="10.00" fill="#000000">2</text>
</a>
</g>
</g>
<!-- dir_9be0baa3d4a3e9f480a9ee70594037fa&#45;&gt;dir_bdd9a5d540de89e9fe90efdfc6973a4f -->
<g id="edge1" class="edge">
<title>dir_9be0baa3d4a3e9f480a9ee70594037fa&#45;&gt;dir_bdd9a5d540de89e9fe90efdfc6973a4f</title>
<path fill="none" stroke="#000000" d="M27.8608,-71.8314C30.0685,-63.8771 33.4239,-54.369 37.0776,-45.5723"/>
<polygon fill="#000000" stroke="#000000" points="40.2841,-46.9752 41.119,-36.4133 33.8798,-44.1492 40.2841,-46.9752"/>
<g id="a_edge1&#45;headlabel"><a xlink:href="dir_000140_000000.html" target="_top" xlink:title="12">
<text text-anchor="middle" x="41.4306" y="-48.91" font-family="Helvetica,sans-Serif" font-size="10.00" fill="#000000">12</text>
</a>
</g>
</g>
<!-- dir_ab0c940ac9afa06c331831ae52f4280f&#45;&gt;dir_9be0baa3d4a3e9f480a9ee70594037fa -->
<g id="edge2" class="edge">
<title>dir_ab0c940ac9afa06c331831ae52f4280f&#45;&gt;dir_9be0baa3d4a3e9f480a9ee70594037fa</title>
<path fill="none" stroke="#000000" d="M59.1493,-143.8314C54.2977,-135.7079 48.4783,-125.9637 43.132,-117.0118"/>
<polygon fill="#000000" stroke="#000000" points="46.1292,-115.2041 37.9968,-108.4133 40.1194,-118.7933 46.1292,-115.2041"/>
<g id="a_edge2&#45;headlabel"><a xlink:href="dir_000158_000140.html" target="_top" xlink:title="7">
<text text-anchor="middle" x="50.4099" y="-114.3344" font-family="Helvetica,sans-Serif" font-size="10.00" fill="#000000">7</text>
</a>
</g>
</g>
<!-- dir_ab0c940ac9afa06c331831ae52f4280f&#45;&gt;dir_bdd9a5d540de89e9fe90efdfc6973a4f -->
<g id="edge3" class="edge">
<title>dir_ab0c940ac9afa06c331831ae52f4280f&#45;&gt;dir_bdd9a5d540de89e9fe90efdfc6973a4f</title>
<path fill="none" stroke="#000000" d="M69.0462,-143.6818C67.9869,-125.463 66.0173,-96.7354 63,-72 61.9804,-63.6417 60.5887,-54.6013 59.2044,-46.3518"/>
<polygon fill="#000000" stroke="#000000" points="62.6421,-45.6907 57.4837,-36.4365 55.7452,-46.8877 62.6421,-45.6907"/>
<g id="a_edge3&#45;headlabel"><a xlink:href="dir_000158_000000.html" target="_top" xlink:title="1">
<text text-anchor="middle" x="66.0541" y="-46.2469" font-family="Helvetica,sans-Serif" font-size="10.00" fill="#000000">1</text>
</a>
</g>
</g>
<!-- dir_bdd9a5d540de89e9fe90efdfc6973a4f&#45;&gt;dir_9be0baa3d4a3e9f480a9ee70594037fa -->
<g id="edge4" class="edge">
<title>dir_bdd9a5d540de89e9fe90efdfc6973a4f&#45;&gt;dir_9be0baa3d4a3e9f480a9ee70594037fa</title>
<path fill="none" stroke="#000000" d="M53.071,-36.4133C50.8637,-44.3141 47.5414,-53.7132 43.9269,-62.417"/>
<polygon fill="#000000" stroke="#000000" points="40.6073,-61.27 39.7656,-71.8314 47.0097,-64.1 40.6073,-61.27"/>
<g id="a_edge4&#45;headlabel"><a xlink:href="dir_000000_000140.html" target="_top" xlink:title="5">
<text text-anchor="middle" x="39.4635" y="-54.3344" font-family="Helvetica,sans-Serif" font-size="10.00" fill="#000000">5</text>
</a>
</g>
</g>
</g>
</svg>
