<?xml version="1.0" encoding="UTF-8" standalone="no"?>
<!DOCTYPE svg PUBLIC "-//W3C//DTD SVG 1.1//EN"
 "http://www.w3.org/Graphics/SVG/1.1/DTD/svg11.dtd">
<!-- Generated by graphviz version 2.40.1 (20161225.0304)
 -->
<!-- Title: iop/debug/sior Pages: 1 -->
<svg width="189pt" height="231pt"
 viewBox="0.00 0.00 188.50 231.00" xmlns="http://www.w3.org/2000/svg" xmlns:xlink="http://www.w3.org/1999/xlink">
<g id="graph0" class="graph" transform="scale(1 1) rotate(0) translate(4 227)">
<title>iop/debug/sior</title>
<polygon fill="#ffffff" stroke="transparent" points="-4,4 -4,-227 184.5,-227 184.5,4 -4,4"/>
<g id="clust1" class="cluster">
<title>clusterdir_8494d76ae2586079db82d45fe3dd6aec</title>
<g id="a_clust1"><a xlink:href="dir_8494d76ae2586079db82d45fe3dd6aec.html" target="_top" xlink:title="debug">
<polygon fill="#ddddee" stroke="#000000" points="14.5,-128 14.5,-215 172.5,-215 172.5,-128 14.5,-128"/>
<text text-anchor="middle" x="93.5" y="-203" font-family="Helvetica,sans-Serif" font-size="10.00" fill="#000000">debug</text>
</a>
</g>
</g>
<g id="clust2" class="cluster">
<title>clusterdir_1019ee746f7ebb462d4ffdfca40dcd8c</title>
<g id="a_clust2"><a xlink:href="dir_1019ee746f7ebb462d4ffdfca40dcd8c.html" target="_top">
<polygon fill="#eeeeff" stroke="#000000" points="22.5,-136 22.5,-188 164.5,-188 164.5,-136 22.5,-136"/>
</a>
</g>
</g>
<!-- dir_1019ee746f7ebb462d4ffdfca40dcd8c -->
<g id="node1" class="node">
<title>dir_1019ee746f7ebb462d4ffdfca40dcd8c</title>
<text text-anchor="middle" x="129.5" y="-159.5" font-family="Helvetica,sans-Serif" font-size="10.00" fill="#000000">sior</text>
</g>
<!-- dir_738e6c3ecf4bac81e89a6d577702e070 -->
<g id="node2" class="node">
<title>dir_738e6c3ecf4bac81e89a6d577702e070</title>
<g id="a_node2"><a xlink:href="dir_738e6c3ecf4bac81e89a6d577702e070.html" target="_top" xlink:title="src">
<polygon fill="#ffffff" stroke="#000000" points="84.5,-180 30.5,-180 30.5,-144 84.5,-144 84.5,-180"/>
<text text-anchor="middle" x="57.5" y="-159.5" font-family="Helvetica,sans-Serif" font-size="10.00" fill="#000000">src</text>
</a>
</g>
</g>
<!-- dir_9be0baa3d4a3e9f480a9ee70594037fa -->
<g id="node3" class="node">
<title>dir_9be0baa3d4a3e9f480a9ee70594037fa</title>
<g id="a_node3"><a xlink:href="dir_9be0baa3d4a3e9f480a9ee70594037fa.html" target="_top" xlink:title="kernel">
<polygon fill="#ffffff" stroke="#ff0000" points="56.5,-108 2.5,-108 2.5,-72 56.5,-72 56.5,-108"/>
<text text-anchor="middle" x="29.5" y="-87.5" font-family="Helvetica,sans-Serif" font-size="10.00" fill="#000000">kernel</text>
</a>
</g>
</g>
<!-- dir_738e6c3ecf4bac81e89a6d577702e070&#45;&gt;dir_9be0baa3d4a3e9f480a9ee70594037fa -->
<g id="edge1" class="edge">
<title>dir_738e6c3ecf4bac81e89a6d577702e070&#45;&gt;dir_9be0baa3d4a3e9f480a9ee70594037fa</title>
<path fill="none" stroke="#000000" d="M50.4344,-143.8314C47.374,-135.9617 43.7221,-126.5712 40.3318,-117.8533"/>
<polygon fill="#000000" stroke="#000000" points="43.5473,-116.4647 36.6607,-108.4133 37.0232,-119.0019 43.5473,-116.4647"/>
<g id="a_edge1&#45;headlabel"><a xlink:href="dir_000016_000140.html" target="_top" xlink:title="13">
<text text-anchor="middle" x="47.4963" y="-116.2859" font-family="Helvetica,sans-Serif" font-size="10.00" fill="#000000">13</text>
</a>
</g>
</g>
<!-- dir_bdd9a5d540de89e9fe90efdfc6973a4f -->
<g id="node4" class="node">
<title>dir_bdd9a5d540de89e9fe90efdfc6973a4f</title>
<g id="a_node4"><a xlink:href="dir_bdd9a5d540de89e9fe90efdfc6973a4f.html" target="_top" xlink:title="common">
<polygon fill="#ffffff" stroke="#ff0000" points="59,-36 0,-36 0,0 59,0 59,-36"/>
<text text-anchor="middle" x="29.5" y="-15.5" font-family="Helvetica,sans-Serif" font-size="10.00" fill="#000000">common</text>
</a>
</g>
</g>
<!-- dir_738e6c3ecf4bac81e89a6d577702e070&#45;&gt;dir_bdd9a5d540de89e9fe90efdfc6973a4f -->
<g id="edge2" class="edge">
<title>dir_738e6c3ecf4bac81e89a6d577702e070&#45;&gt;dir_bdd9a5d540de89e9fe90efdfc6973a4f</title>
<path fill="none" stroke="#000000" d="M63.0996,-143.6576C67.8299,-125.1725 72.7732,-96.0216 65.5,-72 62.5436,-62.2355 57.1748,-52.6229 51.47,-44.2762"/>
<polygon fill="#000000" stroke="#000000" points="54.2129,-42.0973 45.4905,-36.0831 48.5586,-46.2239 54.2129,-42.0973"/>
<g id="a_edge2&#45;headlabel"><a xlink:href="dir_000016_000000.html" target="_top" xlink:title="2">
<text text-anchor="middle" x="58.6253" y="-40.827" font-family="Helvetica,sans-Serif" font-size="10.00" fill="#000000">2</text>
</a>
</g>
</g>
<!-- dir_9be0baa3d4a3e9f480a9ee70594037fa&#45;&gt;dir_bdd9a5d540de89e9fe90efdfc6973a4f -->
<g id="edge3" class="edge">
<title>dir_9be0baa3d4a3e9f480a9ee70594037fa&#45;&gt;dir_bdd9a5d540de89e9fe90efdfc6973a4f</title>
<path fill="none" stroke="#000000" d="M23.5476,-71.8314C22.7972,-64.131 22.5763,-54.9743 22.8849,-46.4166"/>
<polygon fill="#000000" stroke="#000000" points="26.3792,-46.6161 23.524,-36.4133 19.3935,-46.1697 26.3792,-46.6161"/>
<g id="a_edge3&#45;headlabel"><a xlink:href="dir_000140_000000.html" target="_top" xlink:title="12">
<text text-anchor="middle" x="28.9836" y="-47.8844" font-family="Helvetica,sans-Serif" font-size="10.00" fill="#000000">12</text>
</a>
</g>
</g>
<!-- dir_bdd9a5d540de89e9fe90efdfc6973a4f&#45;&gt;dir_9be0baa3d4a3e9f480a9ee70594037fa -->
<g id="edge4" class="edge">
<title>dir_bdd9a5d540de89e9fe90efdfc6973a4f&#45;&gt;dir_9be0baa3d4a3e9f480a9ee70594037fa</title>
<path fill="none" stroke="#000000" d="M35.476,-36.4133C36.2071,-44.0593 36.4203,-53.1084 36.1155,-61.5726"/>
<polygon fill="#000000" stroke="#000000" points="32.6048,-61.6264 35.4524,-71.8314 39.5902,-62.078 32.6048,-61.6264"/>
<g id="a_edge4&#45;headlabel"><a xlink:href="dir_000000_000140.html" target="_top" xlink:title="5">
<text text-anchor="middle" x="30.0032" y="-55.3562" font-family="Helvetica,sans-Serif" font-size="10.00" fill="#000000">5</text>
</a>
</g>
</g>
</g>
</svg>
