<?xml version="1.0" encoding="UTF-8" standalone="no"?>
<!DOCTYPE svg PUBLIC "-//W3C//DTD SVG 1.1//EN"
 "http://www.w3.org/Graphics/SVG/1.1/DTD/svg11.dtd">
<!-- Generated by graphviz version 2.40.1 (20161225.0304)
 -->
<!-- Title: iop/usb/usbhdfsd/src Pages: 1 -->
<svg width="266pt" height="303pt"
 viewBox="0.00 0.00 265.54 303.00" xmlns="http://www.w3.org/2000/svg" xmlns:xlink="http://www.w3.org/1999/xlink">
<g id="graph0" class="graph" transform="scale(1 1) rotate(0) translate(4 299)">
<title>iop/usb/usbhdfsd/src</title>
<polygon fill="#ffffff" stroke="transparent" points="-4,4 -4,-299 261.5398,-299 261.5398,4 -4,4"/>
<g id="clust1" class="cluster">
<title>clusterdir_b8874c233d466218401f983297aca89b</title>
<g id="a_clust1"><a xlink:href="dir_b8874c233d466218401f983297aca89b.html" target="_top" xlink:title="usbhdfsd">
<polygon fill="#ddddee" stroke="#000000" points="94,-128 94,-287 244,-287 244,-128 94,-128"/>
<text text-anchor="middle" x="169" y="-275" font-family="Helvetica,sans-Serif" font-size="10.00" fill="#000000">usbhdfsd</text>
</a>
</g>
</g>
<g id="clust2" class="cluster">
<title>clusterdir_35e4cd4c6b68d708ba33184e89b685ac</title>
<g id="a_clust2"><a xlink:href="dir_35e4cd4c6b68d708ba33184e89b685ac.html" target="_top">
<polygon fill="#eeeeff" stroke="#000000" points="102,-136 102,-260 172,-260 172,-136 102,-136"/>
</a>
</g>
</g>
<!-- dir_535a26643990b2aae7c4085335cb5fe3 -->
<g id="node1" class="node">
<title>dir_535a26643990b2aae7c4085335cb5fe3</title>
<g id="a_node1"><a xlink:href="dir_535a26643990b2aae7c4085335cb5fe3.html" target="_top" xlink:title="include">
<polygon fill="none" stroke="#000000" points="236,-180 182,-180 182,-144 236,-144 236,-180"/>
<text text-anchor="middle" x="209" y="-159.5" font-family="Helvetica,sans-Serif" font-size="10.00" fill="#000000">include</text>
</a>
</g>
</g>
<!-- dir_9be0baa3d4a3e9f480a9ee70594037fa -->
<g id="node5" class="node">
<title>dir_9be0baa3d4a3e9f480a9ee70594037fa</title>
<g id="a_node5"><a xlink:href="dir_9be0baa3d4a3e9f480a9ee70594037fa.html" target="_top" xlink:title="kernel">
<polygon fill="#ffffff" stroke="#ff0000" points="181,-108 127,-108 127,-72 181,-72 181,-108"/>
<text text-anchor="middle" x="154" y="-87.5" font-family="Helvetica,sans-Serif" font-size="10.00" fill="#000000">kernel</text>
</a>
</g>
</g>
<!-- dir_535a26643990b2aae7c4085335cb5fe3&#45;&gt;dir_9be0baa3d4a3e9f480a9ee70594037fa -->
<g id="edge6" class="edge">
<title>dir_535a26643990b2aae7c4085335cb5fe3&#45;&gt;dir_9be0baa3d4a3e9f480a9ee70594037fa</title>
<path fill="none" stroke="#000000" d="M195.1212,-143.8314C188.7864,-135.5386 181.1616,-125.557 174.2074,-116.4533"/>
<polygon fill="#000000" stroke="#000000" points="176.9175,-114.2353 168.0657,-108.4133 171.3548,-118.4847 176.9175,-114.2353"/>
<g id="a_edge6&#45;headlabel"><a xlink:href="dir_000166_000140.html" target="_top" xlink:title="1">
<text text-anchor="middle" x="181.3558" y="-112.8683" font-family="Helvetica,sans-Serif" font-size="10.00" fill="#000000">1</text>
</a>
</g>
</g>
<!-- dir_bdd9a5d540de89e9fe90efdfc6973a4f -->
<g id="node6" class="node">
<title>dir_bdd9a5d540de89e9fe90efdfc6973a4f</title>
<g id="a_node6"><a xlink:href="dir_bdd9a5d540de89e9fe90efdfc6973a4f.html" target="_top" xlink:title="common">
<polygon fill="#ffffff" stroke="#ff0000" points="210.5,-36 151.5,-36 151.5,0 210.5,0 210.5,-36"/>
<text text-anchor="middle" x="181" y="-15.5" font-family="Helvetica,sans-Serif" font-size="10.00" fill="#000000">common</text>
</a>
</g>
</g>
<!-- dir_535a26643990b2aae7c4085335cb5fe3&#45;&gt;dir_bdd9a5d540de89e9fe90efdfc6973a4f -->
<g id="edge7" class="edge">
<title>dir_535a26643990b2aae7c4085335cb5fe3&#45;&gt;dir_bdd9a5d540de89e9fe90efdfc6973a4f</title>
<path fill="none" stroke="#000000" d="M205.4538,-143.7623C200.6569,-119.0928 192.0561,-74.8598 186.4392,-45.9731"/>
<polygon fill="#000000" stroke="#000000" points="189.8619,-45.2377 184.5174,-36.0896 182.9905,-46.5738 189.8619,-45.2377"/>
<g id="a_edge7&#45;headlabel"><a xlink:href="dir_000166_000000.html" target="_top" xlink:title="1">
<text text-anchor="middle" x="193.335" y="-45.7243" font-family="Helvetica,sans-Serif" font-size="10.00" fill="#000000">1</text>
</a>
</g>
</g>
<!-- dir_35e4cd4c6b68d708ba33184e89b685ac -->
<g id="node2" class="node">
<title>dir_35e4cd4c6b68d708ba33184e89b685ac</title>
<text text-anchor="middle" x="137" y="-231.5" font-family="Helvetica,sans-Serif" font-size="10.00" fill="#000000">src</text>
</g>
<!-- dir_35e4cd4c6b68d708ba33184e89b685ac&#45;&gt;dir_535a26643990b2aae7c4085335cb5fe3 -->
<g id="edge1" class="edge">
<title>dir_35e4cd4c6b68d708ba33184e89b685ac&#45;&gt;dir_535a26643990b2aae7c4085335cb5fe3</title>
<path fill="none" stroke="#000000" d="M155.1686,-215.8314C163.7152,-207.2848 174.0557,-196.9443 183.3802,-187.6198"/>
<polygon fill="#000000" stroke="#000000" points="185.9905,-189.9592 190.5867,-180.4133 181.0408,-185.0095 185.9905,-189.9592"/>
<g id="a_edge1&#45;headlabel"><a xlink:href="dir_000115_000166.html" target="_top" xlink:title="8">
<text text-anchor="middle" x="185.4564" y="-192.0087" font-family="Helvetica,sans-Serif" font-size="10.00" fill="#000000">8</text>
</a>
</g>
</g>
<!-- dir_6fd08c545c881b4d2b356c02a10aa6b3 -->
<g id="node3" class="node">
<title>dir_6fd08c545c881b4d2b356c02a10aa6b3</title>
<g id="a_node3"><a xlink:href="dir_6fd08c545c881b4d2b356c02a10aa6b3.html" target="_top" xlink:title="include">
<polygon fill="#ffffff" stroke="#000000" points="164,-180 110,-180 110,-144 164,-144 164,-180"/>
<text text-anchor="middle" x="137" y="-159.5" font-family="Helvetica,sans-Serif" font-size="10.00" fill="#000000">include</text>
</a>
</g>
</g>
<!-- dir_35e4cd4c6b68d708ba33184e89b685ac&#45;&gt;dir_6fd08c545c881b4d2b356c02a10aa6b3 -->
<g id="edge2" class="edge">
<title>dir_35e4cd4c6b68d708ba33184e89b685ac&#45;&gt;dir_6fd08c545c881b4d2b356c02a10aa6b3</title>
<path fill="none" stroke="#000000" d="M137,-215.8314C137,-208.131 137,-198.9743 137,-190.4166"/>
<polygon fill="#000000" stroke="#000000" points="140.5001,-190.4132 137,-180.4133 133.5001,-190.4133 140.5001,-190.4132"/>
<g id="a_edge2&#45;headlabel"><a xlink:href="dir_000115_000130.html" target="_top" xlink:title="7">
<text text-anchor="middle" x="143.3393" y="-191.5079" font-family="Helvetica,sans-Serif" font-size="10.00" fill="#000000">7</text>
</a>
</g>
</g>
<!-- dir_8f550b51c304fe10978bfd792866fae2 -->
<g id="node4" class="node">
<title>dir_8f550b51c304fe10978bfd792866fae2</title>
<g id="a_node4"><a xlink:href="dir_8f550b51c304fe10978bfd792866fae2.html" target="_top" xlink:title="usbd">
<polygon fill="#ffffff" stroke="#ff0000" points="54,-180 0,-180 0,-144 54,-144 54,-180"/>
<text text-anchor="middle" x="27" y="-159.5" font-family="Helvetica,sans-Serif" font-size="10.00" fill="#000000">usbd</text>
</a>
</g>
</g>
<!-- dir_35e4cd4c6b68d708ba33184e89b685ac&#45;&gt;dir_8f550b51c304fe10978bfd792866fae2 -->
<g id="edge3" class="edge">
<title>dir_35e4cd4c6b68d708ba33184e89b685ac&#45;&gt;dir_8f550b51c304fe10978bfd792866fae2</title>
<path fill="none" stroke="#000000" d="M109.809,-216.2022C95.6622,-206.9425 78.1843,-195.5025 62.937,-185.5224"/>
<polygon fill="#000000" stroke="#000000" points="64.5433,-182.3907 54.2594,-179.8425 60.7097,-188.2476 64.5433,-182.3907"/>
<g id="a_edge3&#45;headlabel"><a xlink:href="dir_000115_000112.html" target="_top" xlink:title="3">
<text text-anchor="middle" x="69.1058" y="-179.4837" font-family="Helvetica,sans-Serif" font-size="10.00" fill="#000000">3</text>
</a>
</g>
</g>
<!-- dir_35e4cd4c6b68d708ba33184e89b685ac&#45;&gt;dir_9be0baa3d4a3e9f480a9ee70594037fa -->
<g id="edge4" class="edge">
<title>dir_35e4cd4c6b68d708ba33184e89b685ac&#45;&gt;dir_9be0baa3d4a3e9f480a9ee70594037fa</title>
<path fill="none" stroke="#000000" d="M121.0095,-215.9169C113.3462,-206.0371 104.9834,-193.1563 101,-180 94.3028,-157.8805 90.4431,-148.5591 101,-128 105.0146,-120.1818 111.4676,-113.611 118.5111,-108.25"/>
<polygon fill="#000000" stroke="#000000" points="120.6446,-111.0317 126.9401,-102.5101 116.7046,-105.2458 120.6446,-111.0317"/>
<g id="a_edge4&#45;headlabel"><a xlink:href="dir_000115_000140.html" target="_top" xlink:title="39">
<text text-anchor="middle" x="119.2715" y="-112.9017" font-family="Helvetica,sans-Serif" font-size="10.00" fill="#000000">39</text>
</a>
</g>
</g>
<!-- dir_35e4cd4c6b68d708ba33184e89b685ac&#45;&gt;dir_bdd9a5d540de89e9fe90efdfc6973a4f -->
<g id="edge5" class="edge">
<title>dir_35e4cd4c6b68d708ba33184e89b685ac&#45;&gt;dir_bdd9a5d540de89e9fe90efdfc6973a4f</title>
<path fill="none" stroke="#000000" d="M164.4494,-229.1776C191.0021,-222.8955 229.8153,-209.0691 248,-180 276.0188,-135.2108 235.2361,-76.6788 206.0732,-43.6337"/>
<polygon fill="#000000" stroke="#000000" points="208.637,-41.2507 199.3248,-36.1977 203.4534,-45.955 208.637,-41.2507"/>
<g id="a_edge5&#45;headlabel"><a xlink:href="dir_000115_000000.html" target="_top" xlink:title="7">
<text text-anchor="middle" x="213.1552" y="-39.5044" font-family="Helvetica,sans-Serif" font-size="10.00" fill="#000000">7</text>
</a>
</g>
</g>
<!-- dir_8f550b51c304fe10978bfd792866fae2&#45;&gt;dir_9be0baa3d4a3e9f480a9ee70594037fa -->
<g id="edge8" class="edge">
<title>dir_8f550b51c304fe10978bfd792866fae2&#45;&gt;dir_9be0baa3d4a3e9f480a9ee70594037fa</title>
<path fill="none" stroke="#000000" d="M46.5963,-143.8814C53.1175,-138.3736 60.6087,-132.5744 68,-128 83.4024,-118.4675 101.611,-110.059 117.2989,-103.5912"/>
<polygon fill="#000000" stroke="#000000" points="118.7157,-106.7941 126.6934,-99.8222 116.1093,-100.2974 118.7157,-106.7941"/>
<g id="a_edge8&#45;headlabel"><a xlink:href="dir_000112_000140.html" target="_top" xlink:title="37">
<text text-anchor="middle" x="116.4367" y="-108.2675" font-family="Helvetica,sans-Serif" font-size="10.00" fill="#000000">37</text>
</a>
</g>
</g>
<!-- dir_9be0baa3d4a3e9f480a9ee70594037fa&#45;&gt;dir_bdd9a5d540de89e9fe90efdfc6973a4f -->
<g id="edge9" class="edge">
<title>dir_9be0baa3d4a3e9f480a9ee70594037fa&#45;&gt;dir_bdd9a5d540de89e9fe90efdfc6973a4f</title>
<path fill="none" stroke="#000000" d="M154.8608,-71.8314C157.0685,-63.8771 160.4239,-54.369 164.0776,-45.5723"/>
<polygon fill="#000000" stroke="#000000" points="167.2841,-46.9752 168.119,-36.4133 160.8798,-44.1492 167.2841,-46.9752"/>
<g id="a_edge9&#45;headlabel"><a xlink:href="dir_000140_000000.html" target="_top" xlink:title="12">
<text text-anchor="middle" x="168.4306" y="-48.91" font-family="Helvetica,sans-Serif" font-size="10.00" fill="#000000">12</text>
</a>
</g>
</g>
<!-- dir_bdd9a5d540de89e9fe90efdfc6973a4f&#45;&gt;dir_9be0baa3d4a3e9f480a9ee70594037fa -->
<g id="edge10" class="edge">
<title>dir_bdd9a5d540de89e9fe90efdfc6973a4f&#45;&gt;dir_9be0baa3d4a3e9f480a9ee70594037fa</title>
<path fill="none" stroke="#000000" d="M180.071,-36.4133C177.8637,-44.3141 174.5414,-53.7132 170.9269,-62.417"/>
<polygon fill="#000000" stroke="#000000" points="167.6073,-61.27 166.7656,-71.8314 174.0097,-64.1 167.6073,-61.27"/>
<g id="a_edge10&#45;headlabel"><a xlink:href="dir_000000_000140.html" target="_top" xlink:title="5">
<text text-anchor="middle" x="166.4635" y="-54.3344" font-family="Helvetica,sans-Serif" font-size="10.00" fill="#000000">5</text>
</a>
</g>
</g>
</g>
</svg>
