<?xml version="1.0" encoding="UTF-8" standalone="no"?>
<!DOCTYPE svg PUBLIC "-//W3C//DTD SVG 1.1//EN"
 "http://www.w3.org/Graphics/SVG/1.1/DTD/svg11.dtd">
<!-- Generated by graphviz version 2.40.1 (20161225.0304)
 -->
<!-- Title: iop/kernel Pages: 1 -->
<svg width="242pt" height="175pt"
 viewBox="0.00 0.00 241.50 175.00" xmlns="http://www.w3.org/2000/svg" xmlns:xlink="http://www.w3.org/1999/xlink">
<g id="graph0" class="graph" transform="scale(1 1) rotate(0) translate(4 171)">
<title>iop/kernel</title>
<polygon fill="#ffffff" stroke="transparent" points="-4,4 -4,-171 237.5,-171 237.5,4 -4,4"/>
<g id="clust1" class="cluster">
<title>clusterdir_0981ace215aa2029f526b70c145b9fbe</title>
<g id="a_clust1"><a xlink:href="dir_0981ace215aa2029f526b70c145b9fbe.html" target="_top" xlink:title="iop">
<polygon fill="#ddddee" stroke="#000000" points="8,-8 8,-159 166,-159 166,-8 8,-8"/>
<text text-anchor="middle" x="87" y="-147" font-family="Helvetica,sans-Serif" font-size="10.00" fill="#000000">iop</text>
</a>
</g>
</g>
<g id="clust2" class="cluster">
<title>clusterdir_9be0baa3d4a3e9f480a9ee70594037fa</title>
<g id="a_clust2"><a xlink:href="dir_9be0baa3d4a3e9f480a9ee70594037fa.html" target="_top">
<polygon fill="#eeeeff" stroke="#000000" points="16,-16 16,-68 158,-68 158,-16 16,-16"/>
</a>
</g>
</g>
<!-- dir_40ac35421bc63b72c26b6c69b1517fd6 -->
<g id="node1" class="node">
<title>dir_40ac35421bc63b72c26b6c69b1517fd6</title>
<g id="a_node1"><a xlink:href="dir_40ac35421bc63b72c26b6c69b1517fd6.html" target="_top" xlink:title="system">
<polygon fill="#ffffff" stroke="#ff0000" points="118,-132 64,-132 64,-96 118,-96 118,-132"/>
<text text-anchor="middle" x="91" y="-111.5" font-family="Helvetica,sans-Serif" font-size="10.00" fill="#000000">system</text>
</a>
</g>
</g>
<!-- dir_28a909d5f29a09cdabda212007cd73f7 -->
<g id="node3" class="node">
<title>dir_28a909d5f29a09cdabda212007cd73f7</title>
<g id="a_node3"><a xlink:href="dir_28a909d5f29a09cdabda212007cd73f7.html" target="_top" xlink:title="include">
<polygon fill="#ffffff" stroke="#ff0000" points="78,-60 24,-60 24,-24 78,-24 78,-60"/>
<text text-anchor="middle" x="51" y="-39.5" font-family="Helvetica,sans-Serif" font-size="10.00" fill="#000000">include</text>
</a>
</g>
</g>
<!-- dir_40ac35421bc63b72c26b6c69b1517fd6&#45;&gt;dir_28a909d5f29a09cdabda212007cd73f7 -->
<g id="edge3" class="edge">
<title>dir_40ac35421bc63b72c26b6c69b1517fd6&#45;&gt;dir_28a909d5f29a09cdabda212007cd73f7</title>
<path fill="none" stroke="#000000" d="M86.8587,-95.8314C83.1373,-87.7079 77.9262,-77.9637 72.566,-69.0118"/>
<polygon fill="#000000" stroke="#000000" points="75.466,-67.0477 67.2056,-60.4133 69.5258,-70.7509 75.466,-67.0477"/>
<g id="a_edge3&#45;headlabel"><a xlink:href="dir_000079_000141.html" target="_top" xlink:title="182">
<text text-anchor="middle" x="79.777" y="-66.0961" font-family="Helvetica,sans-Serif" font-size="10.00" fill="#000000">182</text>
</a>
</g>
</g>
<!-- dir_bdd9a5d540de89e9fe90efdfc6973a4f -->
<g id="node4" class="node">
<title>dir_bdd9a5d540de89e9fe90efdfc6973a4f</title>
<g id="a_node4"><a xlink:href="dir_bdd9a5d540de89e9fe90efdfc6973a4f.html" target="_top" xlink:title="common">
<polygon fill="#ffffff" stroke="#ff0000" points="233.5,-60 174.5,-60 174.5,-24 233.5,-24 233.5,-60"/>
<text text-anchor="middle" x="204" y="-39.5" font-family="Helvetica,sans-Serif" font-size="10.00" fill="#000000">common</text>
</a>
</g>
</g>
<!-- dir_40ac35421bc63b72c26b6c69b1517fd6&#45;&gt;dir_bdd9a5d540de89e9fe90efdfc6973a4f -->
<g id="edge4" class="edge">
<title>dir_40ac35421bc63b72c26b6c69b1517fd6&#45;&gt;dir_bdd9a5d540de89e9fe90efdfc6973a4f</title>
<path fill="none" stroke="#000000" d="M118.0663,-96.7542C132.7205,-87.417 151.0398,-75.7445 166.9951,-65.5783"/>
<polygon fill="#000000" stroke="#000000" points="169.0249,-68.4352 175.5777,-60.1098 165.2633,-62.5317 169.0249,-68.4352"/>
<g id="a_edge4&#45;headlabel"><a xlink:href="dir_000079_000000.html" target="_top" xlink:title="3">
<text text-anchor="middle" x="167.519" y="-70.2612" font-family="Helvetica,sans-Serif" font-size="10.00" fill="#000000">3</text>
</a>
</g>
</g>
<!-- dir_9be0baa3d4a3e9f480a9ee70594037fa -->
<g id="node2" class="node">
<title>dir_9be0baa3d4a3e9f480a9ee70594037fa</title>
<text text-anchor="middle" x="123" y="-39.5" font-family="Helvetica,sans-Serif" font-size="10.00" fill="#000000">kernel</text>
</g>
<!-- dir_28a909d5f29a09cdabda212007cd73f7&#45;&gt;dir_40ac35421bc63b72c26b6c69b1517fd6 -->
<g id="edge1" class="edge">
<title>dir_28a909d5f29a09cdabda212007cd73f7&#45;&gt;dir_40ac35421bc63b72c26b6c69b1517fd6</title>
<path fill="none" stroke="#000000" d="M55.2536,-60.4133C59.0047,-68.569 64.232,-78.3212 69.5952,-87.257"/>
<polygon fill="#000000" stroke="#000000" points="66.686,-89.2062 74.9539,-95.8314 72.6221,-85.4963 66.686,-89.2062"/>
<g id="a_edge1&#45;headlabel"><a xlink:href="dir_000141_000079.html" target="_top" xlink:title="2">
<text text-anchor="middle" x="62.3732" y="-85.1627" font-family="Helvetica,sans-Serif" font-size="10.00" fill="#000000">2</text>
</a>
</g>
</g>
<!-- dir_28a909d5f29a09cdabda212007cd73f7&#45;&gt;dir_bdd9a5d540de89e9fe90efdfc6973a4f -->
<g id="edge2" class="edge">
<title>dir_28a909d5f29a09cdabda212007cd73f7&#45;&gt;dir_bdd9a5d540de89e9fe90efdfc6973a4f</title>
<path fill="none" stroke="#000000" d="M65.6797,-60.0984C73.655,-68.4747 84.2755,-77.5423 96,-82 119.6796,-91.003 129.0546,-90.2702 153,-82 162.3731,-78.7627 171.3365,-73.0143 179.0616,-66.8671"/>
<polygon fill="#000000" stroke="#000000" points="181.5988,-69.3025 186.919,-60.1402 177.0463,-63.985 181.5988,-69.3025"/>
<g id="a_edge2&#45;headlabel"><a xlink:href="dir_000141_000000.html" target="_top" xlink:title="12">
<text text-anchor="middle" x="180.7147" y="-71.297" font-family="Helvetica,sans-Serif" font-size="10.00" fill="#000000">12</text>
</a>
</g>
</g>
<!-- dir_bdd9a5d540de89e9fe90efdfc6973a4f&#45;&gt;dir_28a909d5f29a09cdabda212007cd73f7 -->
<g id="edge5" class="edge">
<title>dir_bdd9a5d540de89e9fe90efdfc6973a4f&#45;&gt;dir_28a909d5f29a09cdabda212007cd73f7</title>
<path fill="none" stroke="#000000" d="M186.919,-60.1402C177.7671,-68.5272 165.7633,-77.5918 153,-82 129.0546,-90.2702 119.6796,-91.003 96,-82 87.573,-78.7961 79.7164,-73.2106 73.0023,-67.212"/>
<polygon fill="#000000" stroke="#000000" points="75.2912,-64.5559 65.6797,-60.0984 70.4136,-69.5768 75.2912,-64.5559"/>
<g id="a_edge5&#45;headlabel"><a xlink:href="dir_000000_000141.html" target="_top" xlink:title="5">
<text text-anchor="middle" x="79.8479" y="-62.5241" font-family="Helvetica,sans-Serif" font-size="10.00" fill="#000000">5</text>
</a>
</g>
</g>
</g>
</svg>
