<?xml version="1.0" encoding="UTF-8" standalone="no"?>
<!DOCTYPE svg PUBLIC "-//W3C//DTD SVG 1.1//EN"
 "http://www.w3.org/Graphics/SVG/1.1/DTD/svg11.dtd">
<!-- Generated by graphviz version 2.40.1 (20161225.0304)
 -->
<!-- Title: iop/usb/usbmass_bd Pages: 1 -->
<svg width="282pt" height="303pt"
 viewBox="0.00 0.00 281.89 303.00" xmlns="http://www.w3.org/2000/svg" xmlns:xlink="http://www.w3.org/1999/xlink">
<g id="graph0" class="graph" transform="scale(1 1) rotate(0) translate(4 299)">
<title>iop/usb/usbmass_bd</title>
<polygon fill="#ffffff" stroke="transparent" points="-4,4 -4,-299 277.8867,-299 277.8867,4 -4,4"/>
<g id="clust1" class="cluster">
<title>clusterdir_b6c875632944d243a548db157cd77ec2</title>
<g id="a_clust1"><a xlink:href="dir_b6c875632944d243a548db157cd77ec2.html" target="_top" xlink:title="usb">
<polygon fill="#ddddee" stroke="#000000" points="8,-136 8,-287 190,-287 190,-136 8,-136"/>
<text text-anchor="middle" x="99" y="-275" font-family="Helvetica,sans-Serif" font-size="10.00" fill="#000000">usb</text>
</a>
</g>
</g>
<g id="clust2" class="cluster">
<title>clusterdir_b21605a940872bbf5de5d8b063daf48d</title>
<g id="a_clust2"><a xlink:href="dir_b21605a940872bbf5de5d8b063daf48d.html" target="_top">
<polygon fill="#eeeeff" stroke="#000000" points="16,-208 16,-260 182,-260 182,-208 16,-208"/>
</a>
</g>
</g>
<!-- dir_8f550b51c304fe10978bfd792866fae2 -->
<g id="node1" class="node">
<title>dir_8f550b51c304fe10978bfd792866fae2</title>
<g id="a_node1"><a xlink:href="dir_8f550b51c304fe10978bfd792866fae2.html" target="_top" xlink:title="usbd">
<polygon fill="#ffffff" stroke="#ff0000" points="94,-180 40,-180 40,-144 94,-144 94,-180"/>
<text text-anchor="middle" x="67" y="-159.5" font-family="Helvetica,sans-Serif" font-size="10.00" fill="#000000">usbd</text>
</a>
</g>
</g>
<!-- dir_9be0baa3d4a3e9f480a9ee70594037fa -->
<g id="node4" class="node">
<title>dir_9be0baa3d4a3e9f480a9ee70594037fa</title>
<g id="a_node4"><a xlink:href="dir_9be0baa3d4a3e9f480a9ee70594037fa.html" target="_top" xlink:title="kernel">
<polygon fill="#ffffff" stroke="#ff0000" points="197,-108 143,-108 143,-72 197,-72 197,-108"/>
<text text-anchor="middle" x="170" y="-87.5" font-family="Helvetica,sans-Serif" font-size="10.00" fill="#000000">kernel</text>
</a>
</g>
</g>
<!-- dir_8f550b51c304fe10978bfd792866fae2&#45;&gt;dir_9be0baa3d4a3e9f480a9ee70594037fa -->
<g id="edge1" class="edge">
<title>dir_8f550b51c304fe10978bfd792866fae2&#45;&gt;dir_9be0baa3d4a3e9f480a9ee70594037fa</title>
<path fill="none" stroke="#000000" d="M92.9912,-143.8314C105.9216,-134.7927 121.7222,-123.7476 135.6383,-114.0198"/>
<polygon fill="#000000" stroke="#000000" points="137.8263,-116.7608 144.0171,-108.1628 133.8157,-111.0235 137.8263,-116.7608"/>
<g id="a_edge1&#45;headlabel"><a xlink:href="dir_000112_000140.html" target="_top" xlink:title="37">
<text text-anchor="middle" x="136.5068" y="-118.6473" font-family="Helvetica,sans-Serif" font-size="10.00" fill="#000000">37</text>
</a>
</g>
</g>
<!-- dir_b21605a940872bbf5de5d8b063daf48d -->
<g id="node2" class="node">
<title>dir_b21605a940872bbf5de5d8b063daf48d</title>
<text text-anchor="middle" x="135" y="-231.5" font-family="Helvetica,sans-Serif" font-size="10.00" fill="#000000">usbmass_bd</text>
</g>
<!-- dir_972b40c78cb4e5b6d65cc6bc53c22b1f -->
<g id="node3" class="node">
<title>dir_972b40c78cb4e5b6d65cc6bc53c22b1f</title>
<g id="a_node3"><a xlink:href="dir_972b40c78cb4e5b6d65cc6bc53c22b1f.html" target="_top" xlink:title="src">
<polygon fill="#ffffff" stroke="#ff0000" points="78,-252 24,-252 24,-216 78,-216 78,-252"/>
<text text-anchor="middle" x="51" y="-231.5" font-family="Helvetica,sans-Serif" font-size="10.00" fill="#000000">src</text>
</a>
</g>
</g>
<!-- dir_972b40c78cb4e5b6d65cc6bc53c22b1f&#45;&gt;dir_8f550b51c304fe10978bfd792866fae2 -->
<g id="edge2" class="edge">
<title>dir_972b40c78cb4e5b6d65cc6bc53c22b1f&#45;&gt;dir_8f550b51c304fe10978bfd792866fae2</title>
<path fill="none" stroke="#000000" d="M55.0375,-215.8314C56.7487,-208.131 58.7835,-198.9743 60.6852,-190.4166"/>
<polygon fill="#000000" stroke="#000000" points="64.1554,-190.9344 62.9082,-180.4133 57.3221,-189.4159 64.1554,-190.9344"/>
<g id="a_edge2&#45;headlabel"><a xlink:href="dir_000117_000112.html" target="_top" xlink:title="3">
<text text-anchor="middle" x="66.1474" y="-192.5593" font-family="Helvetica,sans-Serif" font-size="10.00" fill="#000000">3</text>
</a>
</g>
</g>
<!-- dir_972b40c78cb4e5b6d65cc6bc53c22b1f&#45;&gt;dir_9be0baa3d4a3e9f480a9ee70594037fa -->
<g id="edge3" class="edge">
<title>dir_972b40c78cb4e5b6d65cc6bc53c22b1f&#45;&gt;dir_9be0baa3d4a3e9f480a9ee70594037fa</title>
<path fill="none" stroke="#000000" d="M76.608,-215.9324C96.0962,-202.0374 120.2027,-184.4792 124,-180 139.7746,-161.3929 151.9816,-136.4549 159.844,-117.5486"/>
<polygon fill="#000000" stroke="#000000" points="163.1946,-118.5959 163.6576,-108.0112 156.6949,-115.9969 163.1946,-118.5959"/>
<g id="a_edge3&#45;headlabel"><a xlink:href="dir_000117_000140.html" target="_top" xlink:title="15">
<text text-anchor="middle" x="164.4964" y="-120.4877" font-family="Helvetica,sans-Serif" font-size="10.00" fill="#000000">15</text>
</a>
</g>
</g>
<!-- dir_bdd9a5d540de89e9fe90efdfc6973a4f -->
<g id="node5" class="node">
<title>dir_bdd9a5d540de89e9fe90efdfc6973a4f</title>
<g id="a_node5"><a xlink:href="dir_bdd9a5d540de89e9fe90efdfc6973a4f.html" target="_top" xlink:title="common">
<polygon fill="#ffffff" stroke="#ff0000" points="226.5,-36 167.5,-36 167.5,0 226.5,0 226.5,-36"/>
<text text-anchor="middle" x="197" y="-15.5" font-family="Helvetica,sans-Serif" font-size="10.00" fill="#000000">common</text>
</a>
</g>
</g>
<!-- dir_972b40c78cb4e5b6d65cc6bc53c22b1f&#45;&gt;dir_bdd9a5d540de89e9fe90efdfc6973a4f -->
<g id="edge4" class="edge">
<title>dir_972b40c78cb4e5b6d65cc6bc53c22b1f&#45;&gt;dir_bdd9a5d540de89e9fe90efdfc6973a4f</title>
<path fill="none" stroke="#000000" d="M73.5547,-215.7847C78.1266,-212.7902 83.0551,-210.0124 88,-208 160.1439,-178.6398 210.515,-239.313 261,-180 295.4771,-139.4941 252.3605,-78.1697 222.0029,-43.759"/>
<polygon fill="#000000" stroke="#000000" points="224.3033,-41.0854 214.9942,-36.0265 219.1168,-45.7864 224.3033,-41.0854"/>
<g id="a_edge4&#45;headlabel"><a xlink:href="dir_000117_000000.html" target="_top" xlink:title="3">
<text text-anchor="middle" x="228.8211" y="-39.342" font-family="Helvetica,sans-Serif" font-size="10.00" fill="#000000">3</text>
</a>
</g>
</g>
<!-- dir_f24daea2522ffa8b6dc5fa9cdf5b8f5c -->
<g id="node6" class="node">
<title>dir_f24daea2522ffa8b6dc5fa9cdf5b8f5c</title>
<g id="a_node6"><a xlink:href="dir_f24daea2522ffa8b6dc5fa9cdf5b8f5c.html" target="_top" xlink:title="fs">
<polygon fill="#ffffff" stroke="#ff0000" points="252,-180 198,-180 198,-144 252,-144 252,-180"/>
<text text-anchor="middle" x="225" y="-159.5" font-family="Helvetica,sans-Serif" font-size="10.00" fill="#000000">fs</text>
</a>
</g>
</g>
<!-- dir_972b40c78cb4e5b6d65cc6bc53c22b1f&#45;&gt;dir_f24daea2522ffa8b6dc5fa9cdf5b8f5c -->
<g id="edge5" class="edge">
<title>dir_972b40c78cb4e5b6d65cc6bc53c22b1f&#45;&gt;dir_f24daea2522ffa8b6dc5fa9cdf5b8f5c</title>
<path fill="none" stroke="#000000" d="M74.6523,-215.8892C78.9618,-213.0265 83.5162,-210.2677 88,-208 120.3033,-191.6626 159.7116,-179.129 187.9552,-171.3011"/>
<polygon fill="#000000" stroke="#000000" points="189.0828,-174.622 197.8217,-168.6318 187.2547,-167.8649 189.0828,-174.622"/>
<g id="a_edge5&#45;headlabel"><a xlink:href="dir_000117_000028.html" target="_top" xlink:title="2">
<text text-anchor="middle" x="186.3545" y="-175.8014" font-family="Helvetica,sans-Serif" font-size="10.00" fill="#000000">2</text>
</a>
</g>
</g>
<!-- dir_9be0baa3d4a3e9f480a9ee70594037fa&#45;&gt;dir_bdd9a5d540de89e9fe90efdfc6973a4f -->
<g id="edge6" class="edge">
<title>dir_9be0baa3d4a3e9f480a9ee70594037fa&#45;&gt;dir_bdd9a5d540de89e9fe90efdfc6973a4f</title>
<path fill="none" stroke="#000000" d="M170.8608,-71.8314C173.0685,-63.8771 176.4239,-54.369 180.0776,-45.5723"/>
<polygon fill="#000000" stroke="#000000" points="183.2841,-46.9752 184.119,-36.4133 176.8798,-44.1492 183.2841,-46.9752"/>
<g id="a_edge6&#45;headlabel"><a xlink:href="dir_000140_000000.html" target="_top" xlink:title="12">
<text text-anchor="middle" x="184.4306" y="-48.91" font-family="Helvetica,sans-Serif" font-size="10.00" fill="#000000">12</text>
</a>
</g>
</g>
<!-- dir_bdd9a5d540de89e9fe90efdfc6973a4f&#45;&gt;dir_9be0baa3d4a3e9f480a9ee70594037fa -->
<g id="edge7" class="edge">
<title>dir_bdd9a5d540de89e9fe90efdfc6973a4f&#45;&gt;dir_9be0baa3d4a3e9f480a9ee70594037fa</title>
<path fill="none" stroke="#000000" d="M196.071,-36.4133C193.8637,-44.3141 190.5414,-53.7132 186.9269,-62.417"/>
<polygon fill="#000000" stroke="#000000" points="183.6073,-61.27 182.7656,-71.8314 190.0097,-64.1 183.6073,-61.27"/>
<g id="a_edge7&#45;headlabel"><a xlink:href="dir_000000_000140.html" target="_top" xlink:title="5">
<text text-anchor="middle" x="182.4635" y="-54.3344" font-family="Helvetica,sans-Serif" font-size="10.00" fill="#000000">5</text>
</a>
</g>
</g>
<!-- dir_f24daea2522ffa8b6dc5fa9cdf5b8f5c&#45;&gt;dir_9be0baa3d4a3e9f480a9ee70594037fa -->
<g id="edge8" class="edge">
<title>dir_f24daea2522ffa8b6dc5fa9cdf5b8f5c&#45;&gt;dir_9be0baa3d4a3e9f480a9ee70594037fa</title>
<path fill="none" stroke="#000000" d="M211.1212,-143.8314C204.7864,-135.5386 197.1616,-125.557 190.2074,-116.4533"/>
<polygon fill="#000000" stroke="#000000" points="192.9175,-114.2353 184.0657,-108.4133 187.3548,-118.4847 192.9175,-114.2353"/>
<g id="a_edge8&#45;headlabel"><a xlink:href="dir_000028_000140.html" target="_top" xlink:title="150">
<text text-anchor="middle" x="197.3558" y="-112.8683" font-family="Helvetica,sans-Serif" font-size="10.00" fill="#000000">150</text>
</a>
</g>
</g>
<!-- dir_f24daea2522ffa8b6dc5fa9cdf5b8f5c&#45;&gt;dir_bdd9a5d540de89e9fe90efdfc6973a4f -->
<g id="edge9" class="edge">
<title>dir_f24daea2522ffa8b6dc5fa9cdf5b8f5c&#45;&gt;dir_bdd9a5d540de89e9fe90efdfc6973a4f</title>
<path fill="none" stroke="#000000" d="M221.4538,-143.7623C216.6569,-119.0928 208.0561,-74.8598 202.4392,-45.9731"/>
<polygon fill="#000000" stroke="#000000" points="205.8619,-45.2377 200.5174,-36.0896 198.9905,-46.5738 205.8619,-45.2377"/>
<g id="a_edge9&#45;headlabel"><a xlink:href="dir_000028_000000.html" target="_top" xlink:title="9">
<text text-anchor="middle" x="209.335" y="-45.7243" font-family="Helvetica,sans-Serif" font-size="10.00" fill="#000000">9</text>
</a>
</g>
</g>
</g>
</svg>
