<?xml version="1.0" encoding="UTF-8" standalone="no"?>
<!DOCTYPE svg PUBLIC "-//W3C//DTD SVG 1.1//EN"
 "http://www.w3.org/Graphics/SVG/1.1/DTD/svg11.dtd">
<!-- Generated by graphviz version 2.40.1 (20161225.0304)
 -->
<!-- Title: iop/usb/usbhdfsd Pages: 1 -->
<svg width="257pt" height="303pt"
 viewBox="0.00 0.00 256.71 303.00" xmlns="http://www.w3.org/2000/svg" xmlns:xlink="http://www.w3.org/1999/xlink">
<g id="graph0" class="graph" transform="scale(1 1) rotate(0) translate(4 299)">
<title>iop/usb/usbhdfsd</title>
<polygon fill="#ffffff" stroke="transparent" points="-4,4 -4,-299 252.7133,-299 252.7133,4 -4,4"/>
<g id="clust1" class="cluster">
<title>clusterdir_b6c875632944d243a548db157cd77ec2</title>
<g id="a_clust1"><a xlink:href="dir_b6c875632944d243a548db157cd77ec2.html" target="_top" xlink:title="usb">
<polygon fill="#ddddee" stroke="#000000" points="12.7133,-128 12.7133,-287 240.7133,-287 240.7133,-128 12.7133,-128"/>
<text text-anchor="middle" x="126.7133" y="-275" font-family="Helvetica,sans-Serif" font-size="10.00" fill="#000000">usb</text>
</a>
</g>
</g>
<g id="clust2" class="cluster">
<title>clusterdir_b8874c233d466218401f983297aca89b</title>
<g id="a_clust2"><a xlink:href="dir_b8874c233d466218401f983297aca89b.html" target="_top">
<polygon fill="#eeeeff" stroke="#000000" points="82.7133,-136 82.7133,-260 232.7133,-260 232.7133,-136 82.7133,-136"/>
</a>
</g>
</g>
<!-- dir_8f550b51c304fe10978bfd792866fae2 -->
<g id="node1" class="node">
<title>dir_8f550b51c304fe10978bfd792866fae2</title>
<g id="a_node1"><a xlink:href="dir_8f550b51c304fe10978bfd792866fae2.html" target="_top" xlink:title="usbd">
<polygon fill="#ffffff" stroke="#ff0000" points="74.7133,-180 20.7133,-180 20.7133,-144 74.7133,-144 74.7133,-180"/>
<text text-anchor="middle" x="47.7133" y="-159.5" font-family="Helvetica,sans-Serif" font-size="10.00" fill="#000000">usbd</text>
</a>
</g>
</g>
<!-- dir_9be0baa3d4a3e9f480a9ee70594037fa -->
<g id="node5" class="node">
<title>dir_9be0baa3d4a3e9f480a9ee70594037fa</title>
<g id="a_node5"><a xlink:href="dir_9be0baa3d4a3e9f480a9ee70594037fa.html" target="_top" xlink:title="kernel">
<polygon fill="#ffffff" stroke="#ff0000" points="91.7133,-108 37.7133,-108 37.7133,-72 91.7133,-72 91.7133,-108"/>
<text text-anchor="middle" x="64.7133" y="-87.5" font-family="Helvetica,sans-Serif" font-size="10.00" fill="#000000">kernel</text>
</a>
</g>
</g>
<!-- dir_8f550b51c304fe10978bfd792866fae2&#45;&gt;dir_9be0baa3d4a3e9f480a9ee70594037fa -->
<g id="edge7" class="edge">
<title>dir_8f550b51c304fe10978bfd792866fae2&#45;&gt;dir_9be0baa3d4a3e9f480a9ee70594037fa</title>
<path fill="none" stroke="#000000" d="M52.0031,-143.8314C53.8212,-136.131 55.9832,-126.9743 58.0038,-118.4166"/>
<polygon fill="#000000" stroke="#000000" points="61.474,-118.95 60.3657,-108.4133 54.6613,-117.3414 61.474,-118.95"/>
<g id="a_edge7&#45;headlabel"><a xlink:href="dir_000112_000140.html" target="_top" xlink:title="37">
<text text-anchor="middle" x="63.4114" y="-120.6008" font-family="Helvetica,sans-Serif" font-size="10.00" fill="#000000">37</text>
</a>
</g>
</g>
<!-- dir_b8874c233d466218401f983297aca89b -->
<g id="node2" class="node">
<title>dir_b8874c233d466218401f983297aca89b</title>
<text text-anchor="middle" x="193.7133" y="-231.5" font-family="Helvetica,sans-Serif" font-size="10.00" fill="#000000">usbhdfsd</text>
</g>
<!-- dir_535a26643990b2aae7c4085335cb5fe3 -->
<g id="node3" class="node">
<title>dir_535a26643990b2aae7c4085335cb5fe3</title>
<g id="a_node3"><a xlink:href="dir_535a26643990b2aae7c4085335cb5fe3.html" target="_top" xlink:title="include">
<polygon fill="#ffffff" stroke="#000000" points="146.7133,-180 92.7133,-180 92.7133,-144 146.7133,-144 146.7133,-180"/>
<text text-anchor="middle" x="119.7133" y="-159.5" font-family="Helvetica,sans-Serif" font-size="10.00" fill="#000000">include</text>
</a>
</g>
</g>
<!-- dir_535a26643990b2aae7c4085335cb5fe3&#45;&gt;dir_9be0baa3d4a3e9f480a9ee70594037fa -->
<g id="edge5" class="edge">
<title>dir_535a26643990b2aae7c4085335cb5fe3&#45;&gt;dir_9be0baa3d4a3e9f480a9ee70594037fa</title>
<path fill="none" stroke="#000000" d="M105.8344,-143.8314C99.4997,-135.5386 91.8749,-125.557 84.9207,-116.4533"/>
<polygon fill="#000000" stroke="#000000" points="87.6308,-114.2353 78.779,-108.4133 82.068,-118.4847 87.6308,-114.2353"/>
<g id="a_edge5&#45;headlabel"><a xlink:href="dir_000166_000140.html" target="_top" xlink:title="1">
<text text-anchor="middle" x="92.0691" y="-112.8683" font-family="Helvetica,sans-Serif" font-size="10.00" fill="#000000">1</text>
</a>
</g>
</g>
<!-- dir_bdd9a5d540de89e9fe90efdfc6973a4f -->
<g id="node6" class="node">
<title>dir_bdd9a5d540de89e9fe90efdfc6973a4f</title>
<g id="a_node6"><a xlink:href="dir_bdd9a5d540de89e9fe90efdfc6973a4f.html" target="_top" xlink:title="common">
<polygon fill="#ffffff" stroke="#ff0000" points="121.2133,-36 62.2133,-36 62.2133,0 121.2133,0 121.2133,-36"/>
<text text-anchor="middle" x="91.7133" y="-15.5" font-family="Helvetica,sans-Serif" font-size="10.00" fill="#000000">common</text>
</a>
</g>
</g>
<!-- dir_535a26643990b2aae7c4085335cb5fe3&#45;&gt;dir_bdd9a5d540de89e9fe90efdfc6973a4f -->
<g id="edge6" class="edge">
<title>dir_535a26643990b2aae7c4085335cb5fe3&#45;&gt;dir_bdd9a5d540de89e9fe90efdfc6973a4f</title>
<path fill="none" stroke="#000000" d="M116.167,-143.7623C111.3702,-119.0928 102.7693,-74.8598 97.1525,-45.9731"/>
<polygon fill="#000000" stroke="#000000" points="100.5751,-45.2377 95.2307,-36.0896 93.7038,-46.5738 100.5751,-45.2377"/>
<g id="a_edge6&#45;headlabel"><a xlink:href="dir_000166_000000.html" target="_top" xlink:title="1">
<text text-anchor="middle" x="104.0482" y="-45.7243" font-family="Helvetica,sans-Serif" font-size="10.00" fill="#000000">1</text>
</a>
</g>
</g>
<!-- dir_35e4cd4c6b68d708ba33184e89b685ac -->
<g id="node4" class="node">
<title>dir_35e4cd4c6b68d708ba33184e89b685ac</title>
<g id="a_node4"><a xlink:href="dir_35e4cd4c6b68d708ba33184e89b685ac.html" target="_top" xlink:title="src">
<polygon fill="#ffffff" stroke="#ff0000" points="144.7133,-252 90.7133,-252 90.7133,-216 144.7133,-216 144.7133,-252"/>
<text text-anchor="middle" x="117.7133" y="-231.5" font-family="Helvetica,sans-Serif" font-size="10.00" fill="#000000">src</text>
</a>
</g>
</g>
<!-- dir_35e4cd4c6b68d708ba33184e89b685ac&#45;&gt;dir_8f550b51c304fe10978bfd792866fae2 -->
<g id="edge2" class="edge">
<title>dir_35e4cd4c6b68d708ba33184e89b685ac&#45;&gt;dir_8f550b51c304fe10978bfd792866fae2</title>
<path fill="none" stroke="#000000" d="M100.0493,-215.8314C91.7401,-207.2848 81.6869,-196.9443 72.6214,-187.6198"/>
<polygon fill="#000000" stroke="#000000" points="75.0954,-185.1435 65.6151,-180.4133 70.0764,-190.023 75.0954,-185.1435"/>
<g id="a_edge2&#45;headlabel"><a xlink:href="dir_000115_000112.html" target="_top" xlink:title="3">
<text text-anchor="middle" x="79.6368" y="-183.2416" font-family="Helvetica,sans-Serif" font-size="10.00" fill="#000000">3</text>
</a>
</g>
</g>
<!-- dir_35e4cd4c6b68d708ba33184e89b685ac&#45;&gt;dir_535a26643990b2aae7c4085335cb5fe3 -->
<g id="edge1" class="edge">
<title>dir_35e4cd4c6b68d708ba33184e89b685ac&#45;&gt;dir_535a26643990b2aae7c4085335cb5fe3</title>
<path fill="none" stroke="#000000" d="M118.2179,-215.8314C118.4318,-208.131 118.6862,-198.9743 118.9239,-190.4166"/>
<polygon fill="#000000" stroke="#000000" points="122.4227,-190.5066 119.2018,-180.4133 115.4254,-190.3122 122.4227,-190.5066"/>
<g id="a_edge1&#45;headlabel"><a xlink:href="dir_000115_000166.html" target="_top" xlink:title="8">
<text text-anchor="middle" x="125.1611" y="-191.6787" font-family="Helvetica,sans-Serif" font-size="10.00" fill="#000000">8</text>
</a>
</g>
</g>
<!-- dir_35e4cd4c6b68d708ba33184e89b685ac&#45;&gt;dir_9be0baa3d4a3e9f480a9ee70594037fa -->
<g id="edge3" class="edge">
<title>dir_35e4cd4c6b68d708ba33184e89b685ac&#45;&gt;dir_9be0baa3d4a3e9f480a9ee70594037fa</title>
<path fill="none" stroke="#000000" d="M90.251,-228.9054C64.1785,-222.4521 26.419,-208.5311 8.7133,-180 -3.4731,-160.3629 -2.1083,-148.421 8.7133,-128 13.3272,-119.2932 20.9283,-112.2128 29.0641,-106.6277"/>
<polygon fill="#000000" stroke="#000000" points="30.9588,-109.5713 37.6332,-101.3431 27.2844,-103.6132 30.9588,-109.5713"/>
<g id="a_edge3&#45;headlabel"><a xlink:href="dir_000115_000140.html" target="_top" xlink:title="39">
<text text-anchor="middle" x="29.3895" y="-111.3748" font-family="Helvetica,sans-Serif" font-size="10.00" fill="#000000">39</text>
</a>
</g>
</g>
<!-- dir_35e4cd4c6b68d708ba33184e89b685ac&#45;&gt;dir_bdd9a5d540de89e9fe90efdfc6973a4f -->
<g id="edge4" class="edge">
<title>dir_35e4cd4c6b68d708ba33184e89b685ac&#45;&gt;dir_bdd9a5d540de89e9fe90efdfc6973a4f</title>
<path fill="none" stroke="#000000" d="M134.9768,-215.5761C142.9522,-205.7997 151.5613,-193.1148 155.7133,-180 162.6887,-157.9667 161.7322,-150.3136 155.7133,-128 147.3181,-96.8771 127.7045,-65.5006 112.3865,-44.2684"/>
<polygon fill="#000000" stroke="#000000" points="115.102,-42.0541 106.3402,-36.0974 109.475,-46.2178 115.102,-42.0541"/>
<g id="a_edge4&#45;headlabel"><a xlink:href="dir_000115_000000.html" target="_top" xlink:title="7">
<text text-anchor="middle" x="119.5225" y="-40.7547" font-family="Helvetica,sans-Serif" font-size="10.00" fill="#000000">7</text>
</a>
</g>
</g>
<!-- dir_9be0baa3d4a3e9f480a9ee70594037fa&#45;&gt;dir_bdd9a5d540de89e9fe90efdfc6973a4f -->
<g id="edge8" class="edge">
<title>dir_9be0baa3d4a3e9f480a9ee70594037fa&#45;&gt;dir_bdd9a5d540de89e9fe90efdfc6973a4f</title>
<path fill="none" stroke="#000000" d="M65.5741,-71.8314C67.7818,-63.8771 71.1372,-54.369 74.7908,-45.5723"/>
<polygon fill="#000000" stroke="#000000" points="77.9973,-46.9752 78.8323,-36.4133 71.5931,-44.1492 77.9973,-46.9752"/>
<g id="a_edge8&#45;headlabel"><a xlink:href="dir_000140_000000.html" target="_top" xlink:title="12">
<text text-anchor="middle" x="79.1439" y="-48.91" font-family="Helvetica,sans-Serif" font-size="10.00" fill="#000000">12</text>
</a>
</g>
</g>
<!-- dir_bdd9a5d540de89e9fe90efdfc6973a4f&#45;&gt;dir_9be0baa3d4a3e9f480a9ee70594037fa -->
<g id="edge9" class="edge">
<title>dir_bdd9a5d540de89e9fe90efdfc6973a4f&#45;&gt;dir_9be0baa3d4a3e9f480a9ee70594037fa</title>
<path fill="none" stroke="#000000" d="M90.7843,-36.4133C88.577,-44.3141 85.2547,-53.7132 81.6402,-62.417"/>
<polygon fill="#000000" stroke="#000000" points="78.3205,-61.27 77.4789,-71.8314 84.723,-64.1 78.3205,-61.27"/>
<g id="a_edge9&#45;headlabel"><a xlink:href="dir_000000_000140.html" target="_top" xlink:title="5">
<text text-anchor="middle" x="77.1768" y="-54.3344" font-family="Helvetica,sans-Serif" font-size="10.00" fill="#000000">5</text>
</a>
</g>
</g>
</g>
</svg>
