<?xml version="1.0" encoding="UTF-8" standalone="no"?>
<!DOCTYPE svg PUBLIC "-//W3C//DTD SVG 1.1//EN"
 "http://www.w3.org/Graphics/SVG/1.1/DTD/svg11.dtd">
<!-- Generated by graphviz version 2.40.1 (20161225.0304)
 -->
<!-- Title: iop/network Pages: 1 -->
<svg width="466pt" height="247pt"
 viewBox="0.00 0.00 465.50 247.00" xmlns="http://www.w3.org/2000/svg" xmlns:xlink="http://www.w3.org/1999/xlink">
<g id="graph0" class="graph" transform="scale(1 1) rotate(0) translate(4 243)">
<title>iop/network</title>
<polygon fill="#ffffff" stroke="transparent" points="-4,4 -4,-243 461.5,-243 461.5,4 -4,4"/>
<g id="clust1" class="cluster">
<title>clusterdir_0981ace215aa2029f526b70c145b9fbe</title>
<g id="a_clust1"><a xlink:href="dir_0981ace215aa2029f526b70c145b9fbe.html" target="_top" xlink:title="iop">
<polygon fill="#ddddee" stroke="#000000" points="8,-8 8,-231 390,-231 390,-8 8,-8"/>
<text text-anchor="middle" x="199" y="-219" font-family="Helvetica,sans-Serif" font-size="10.00" fill="#000000">iop</text>
</a>
</g>
</g>
<g id="clust2" class="cluster">
<title>clusterdir_f89050b4b7ba0179c2c7efd2300413d9</title>
<g id="a_clust2"><a xlink:href="dir_f89050b4b7ba0179c2c7efd2300413d9.html" target="_top">
<polygon fill="#eeeeff" stroke="#000000" points="16,-152 16,-204 382,-204 382,-152 16,-152"/>
</a>
</g>
</g>
<!-- dir_6f16cad81de2453a6f48c5e272ba4a18 -->
<g id="node1" class="node">
<title>dir_6f16cad81de2453a6f48c5e272ba4a18</title>
<g id="a_node1"><a xlink:href="dir_6f16cad81de2453a6f48c5e272ba4a18.html" target="_top" xlink:title="dev9">
<polygon fill="#ffffff" stroke="#ff0000" points="205,-124 151,-124 151,-88 205,-88 205,-124"/>
<text text-anchor="middle" x="178" y="-103.5" font-family="Helvetica,sans-Serif" font-size="10.00" fill="#000000">dev9</text>
</a>
</g>
</g>
<!-- dir_9be0baa3d4a3e9f480a9ee70594037fa -->
<g id="node2" class="node">
<title>dir_9be0baa3d4a3e9f480a9ee70594037fa</title>
<g id="a_node2"><a xlink:href="dir_9be0baa3d4a3e9f480a9ee70594037fa.html" target="_top" xlink:title="kernel">
<polygon fill="#ffffff" stroke="#ff0000" points="205,-52 151,-52 151,-16 205,-16 205,-52"/>
<text text-anchor="middle" x="178" y="-31.5" font-family="Helvetica,sans-Serif" font-size="10.00" fill="#000000">kernel</text>
</a>
</g>
</g>
<!-- dir_6f16cad81de2453a6f48c5e272ba4a18&#45;&gt;dir_9be0baa3d4a3e9f480a9ee70594037fa -->
<g id="edge4" class="edge">
<title>dir_6f16cad81de2453a6f48c5e272ba4a18&#45;&gt;dir_9be0baa3d4a3e9f480a9ee70594037fa</title>
<path fill="none" stroke="#000000" d="M178,-87.8314C178,-80.131 178,-70.9743 178,-62.4166"/>
<polygon fill="#000000" stroke="#000000" points="181.5001,-62.4132 178,-52.4133 174.5001,-62.4133 181.5001,-62.4132"/>
<g id="a_edge4&#45;headlabel"><a xlink:href="dir_000017_000140.html" target="_top" xlink:title="85">
<text text-anchor="middle" x="184.3393" y="-63.5079" font-family="Helvetica,sans-Serif" font-size="10.00" fill="#000000">85</text>
</a>
</g>
</g>
<!-- dir_bdd9a5d540de89e9fe90efdfc6973a4f -->
<g id="node9" class="node">
<title>dir_bdd9a5d540de89e9fe90efdfc6973a4f</title>
<g id="a_node9"><a xlink:href="dir_bdd9a5d540de89e9fe90efdfc6973a4f.html" target="_top" xlink:title="common">
<polygon fill="#ffffff" stroke="#ff0000" points="457.5,-52 398.5,-52 398.5,-16 457.5,-16 457.5,-52"/>
<text text-anchor="middle" x="428" y="-31.5" font-family="Helvetica,sans-Serif" font-size="10.00" fill="#000000">common</text>
</a>
</g>
</g>
<!-- dir_6f16cad81de2453a6f48c5e272ba4a18&#45;&gt;dir_bdd9a5d540de89e9fe90efdfc6973a4f -->
<g id="edge5" class="edge">
<title>dir_6f16cad81de2453a6f48c5e272ba4a18&#45;&gt;dir_bdd9a5d540de89e9fe90efdfc6973a4f</title>
<path fill="none" stroke="#000000" d="M205.1919,-91.4653C208.1199,-90.1844 211.0918,-88.9978 214,-88 288.0033,-62.6089 314.9276,-77.9828 388.4791,-53.7247"/>
<polygon fill="#000000" stroke="#000000" points="389.8617,-56.9505 398.1797,-50.3884 387.585,-50.331 389.8617,-56.9505"/>
<g id="a_edge5&#45;headlabel"><a xlink:href="dir_000017_000000.html" target="_top" xlink:title="11">
<text text-anchor="middle" x="387.3859" y="-58.3044" font-family="Helvetica,sans-Serif" font-size="10.00" fill="#000000">11</text>
</a>
</g>
</g>
<!-- dir_9be0baa3d4a3e9f480a9ee70594037fa&#45;&gt;dir_bdd9a5d540de89e9fe90efdfc6973a4f -->
<g id="edge9" class="edge">
<title>dir_9be0baa3d4a3e9f480a9ee70594037fa&#45;&gt;dir_bdd9a5d540de89e9fe90efdfc6973a4f</title>
<path fill="none" stroke="#000000" d="M205.3438,-34C266.3113,-34 327.2788,-34 388.2463,-34"/>
<polygon fill="#000000" stroke="#000000" points="388.4285,-37.5001 398.4285,-34 388.4284,-30.5001 388.4285,-37.5001"/>
<g id="a_edge9&#45;headlabel"><a xlink:href="dir_000140_000000.html" target="_top" xlink:title="12">
<text text-anchor="middle" x="384.8338" y="-37.8393" font-family="Helvetica,sans-Serif" font-size="10.00" fill="#000000">12</text>
</a>
</g>
</g>
<!-- dir_cb38d55d28446d14702541320714f23c -->
<g id="node3" class="node">
<title>dir_cb38d55d28446d14702541320714f23c</title>
<g id="a_node3"><a xlink:href="dir_cb38d55d28446d14702541320714f23c.html" target="_top" xlink:title="tcpip">
<polygon fill="#ffffff" stroke="#ff0000" points="277,-124 223,-124 223,-88 277,-88 277,-124"/>
<text text-anchor="middle" x="250" y="-103.5" font-family="Helvetica,sans-Serif" font-size="10.00" fill="#000000">tcpip</text>
</a>
</g>
</g>
<!-- dir_cb38d55d28446d14702541320714f23c&#45;&gt;dir_9be0baa3d4a3e9f480a9ee70594037fa -->
<g id="edge14" class="edge">
<title>dir_cb38d55d28446d14702541320714f23c&#45;&gt;dir_9be0baa3d4a3e9f480a9ee70594037fa</title>
<path fill="none" stroke="#000000" d="M231.8314,-87.8314C223.2848,-79.2848 212.9443,-68.9443 203.6198,-59.6198"/>
<polygon fill="#000000" stroke="#000000" points="205.9592,-57.0095 196.4133,-52.4133 201.0095,-61.9592 205.9592,-57.0095"/>
<g id="a_edge14&#45;headlabel"><a xlink:href="dir_000098_000140.html" target="_top" xlink:title="55">
<text text-anchor="middle" x="210.5087" y="-55.0436" font-family="Helvetica,sans-Serif" font-size="10.00" fill="#000000">55</text>
</a>
</g>
</g>
<!-- dir_cb38d55d28446d14702541320714f23c&#45;&gt;dir_bdd9a5d540de89e9fe90efdfc6973a4f -->
<g id="edge15" class="edge">
<title>dir_cb38d55d28446d14702541320714f23c&#45;&gt;dir_bdd9a5d540de89e9fe90efdfc6973a4f</title>
<path fill="none" stroke="#000000" d="M277.2224,-96.9607C304.4352,-87.6743 347.5739,-72.2774 389.0642,-54.104"/>
<polygon fill="#000000" stroke="#000000" points="390.7265,-57.1953 398.4421,-49.9344 387.8826,-50.799 390.7265,-57.1953"/>
<g id="a_edge15&#45;headlabel"><a xlink:href="dir_000098_000000.html" target="_top" xlink:title="5">
<text text-anchor="middle" x="388.5954" y="-58.75" font-family="Helvetica,sans-Serif" font-size="10.00" fill="#000000">5</text>
</a>
</g>
</g>
<!-- dir_f89050b4b7ba0179c2c7efd2300413d9 -->
<g id="node4" class="node">
<title>dir_f89050b4b7ba0179c2c7efd2300413d9</title>
<text text-anchor="middle" x="346" y="-175.5" font-family="Helvetica,sans-Serif" font-size="10.00" fill="#000000">network</text>
</g>
<!-- dir_d3008f816dc1c94b20a03a6df12b797a -->
<g id="node5" class="node">
<title>dir_d3008f816dc1c94b20a03a6df12b797a</title>
<g id="a_node5"><a xlink:href="dir_d3008f816dc1c94b20a03a6df12b797a.html" target="_top" xlink:title="netman">
<polygon fill="#ffffff" stroke="#ff0000" points="78,-196 24,-196 24,-160 78,-160 78,-196"/>
<text text-anchor="middle" x="51" y="-175.5" font-family="Helvetica,sans-Serif" font-size="10.00" fill="#000000">netman</text>
</a>
</g>
</g>
<!-- dir_d3008f816dc1c94b20a03a6df12b797a&#45;&gt;dir_9be0baa3d4a3e9f480a9ee70594037fa -->
<g id="edge16" class="edge">
<title>dir_d3008f816dc1c94b20a03a6df12b797a&#45;&gt;dir_9be0baa3d4a3e9f480a9ee70594037fa</title>
<path fill="none" stroke="#000000" d="M63.9187,-159.7686C77.4215,-141.1162 99.5878,-111.6047 121,-88 130.0334,-78.0416 140.5672,-67.7409 150.1044,-58.8398"/>
<polygon fill="#000000" stroke="#000000" points="152.508,-61.3843 157.4916,-52.0347 147.7653,-56.2359 152.508,-61.3843"/>
<g id="a_edge16&#45;headlabel"><a xlink:href="dir_000061_000140.html" target="_top" xlink:title="36">
<text text-anchor="middle" x="151.7879" y="-63.408" font-family="Helvetica,sans-Serif" font-size="10.00" fill="#000000">36</text>
</a>
</g>
</g>
<!-- dir_d3008f816dc1c94b20a03a6df12b797a&#45;&gt;dir_bdd9a5d540de89e9fe90efdfc6973a4f -->
<g id="edge17" class="edge">
<title>dir_d3008f816dc1c94b20a03a6df12b797a&#45;&gt;dir_bdd9a5d540de89e9fe90efdfc6973a4f</title>
<path fill="none" stroke="#000000" d="M72.4441,-159.8986C77.011,-156.8157 81.9782,-153.9763 87,-152 180.3611,-115.2592 223.7849,-173.5954 311,-124 328.6201,-113.9802 323.8625,-101.4804 339,-88 347.5827,-80.3568 369.6034,-66.9803 389.592,-55.4535"/>
<polygon fill="#000000" stroke="#000000" points="391.34,-58.4858 398.2823,-50.4823 387.8642,-52.4097 391.34,-58.4858"/>
<g id="a_edge17&#45;headlabel"><a xlink:href="dir_000061_000000.html" target="_top" xlink:title="9">
<text text-anchor="middle" x="389.6297" y="-60.2351" font-family="Helvetica,sans-Serif" font-size="10.00" fill="#000000">9</text>
</a>
</g>
</g>
<!-- dir_7e8098252786d103c47acfa14c0859f4 -->
<g id="node6" class="node">
<title>dir_7e8098252786d103c47acfa14c0859f4</title>
<g id="a_node6"><a xlink:href="dir_7e8098252786d103c47acfa14c0859f4.html" target="_top" xlink:title="smap">
<polygon fill="#ffffff" stroke="#ff0000" points="150,-196 96,-196 96,-160 150,-160 150,-196"/>
<text text-anchor="middle" x="123" y="-175.5" font-family="Helvetica,sans-Serif" font-size="10.00" fill="#000000">smap</text>
</a>
</g>
</g>
<!-- dir_7e8098252786d103c47acfa14c0859f4&#45;&gt;dir_6f16cad81de2453a6f48c5e272ba4a18 -->
<g id="edge6" class="edge">
<title>dir_7e8098252786d103c47acfa14c0859f4&#45;&gt;dir_6f16cad81de2453a6f48c5e272ba4a18</title>
<path fill="none" stroke="#000000" d="M136.8788,-159.8314C143.2136,-151.5386 150.8384,-141.557 157.7926,-132.4533"/>
<polygon fill="#000000" stroke="#000000" points="160.6452,-134.4847 163.9343,-124.4133 155.0825,-130.2353 160.6452,-134.4847"/>
<g id="a_edge6&#45;headlabel"><a xlink:href="dir_000063_000017.html" target="_top" xlink:title="3">
<text text-anchor="middle" x="160.7195" y="-136.5647" font-family="Helvetica,sans-Serif" font-size="10.00" fill="#000000">3</text>
</a>
</g>
</g>
<!-- dir_7e8098252786d103c47acfa14c0859f4&#45;&gt;dir_9be0baa3d4a3e9f480a9ee70594037fa -->
<g id="edge7" class="edge">
<title>dir_7e8098252786d103c47acfa14c0859f4&#45;&gt;dir_9be0baa3d4a3e9f480a9ee70594037fa</title>
<path fill="none" stroke="#000000" d="M122.3181,-159.9976C122.2564,-141.27 124.007,-111.4613 134,-88 138.3095,-77.8824 145.1094,-68.1389 152.0867,-59.7803"/>
<polygon fill="#000000" stroke="#000000" points="154.7626,-62.0377 158.755,-52.2239 149.514,-57.406 154.7626,-62.0377"/>
<g id="a_edge7&#45;headlabel"><a xlink:href="dir_000063_000140.html" target="_top" xlink:title="33">
<text text-anchor="middle" x="154.513" y="-64.1115" font-family="Helvetica,sans-Serif" font-size="10.00" fill="#000000">33</text>
</a>
</g>
</g>
<!-- dir_7e8098252786d103c47acfa14c0859f4&#45;&gt;dir_bdd9a5d540de89e9fe90efdfc6973a4f -->
<g id="edge8" class="edge">
<title>dir_7e8098252786d103c47acfa14c0859f4&#45;&gt;dir_bdd9a5d540de89e9fe90efdfc6973a4f</title>
<path fill="none" stroke="#000000" d="M144.8839,-159.7528C149.3379,-156.7612 154.151,-153.9927 159,-152 233.8856,-121.2265 266.9142,-160.8579 339,-124 343.029,-121.94 378.7278,-85.2619 403.6684,-59.3729"/>
<polygon fill="#000000" stroke="#000000" points="406.2881,-61.6983 410.699,-52.0653 401.2436,-56.845 406.2881,-61.6983"/>
<g id="a_edge8&#45;headlabel"><a xlink:href="dir_000063_000000.html" target="_top" xlink:title="11">
<text text-anchor="middle" x="405.842" y="-63.7571" font-family="Helvetica,sans-Serif" font-size="10.00" fill="#000000">11</text>
</a>
</g>
</g>
<!-- dir_39d17f469530f79363f6574f3e93b68d -->
<g id="node7" class="node">
<title>dir_39d17f469530f79363f6574f3e93b68d</title>
<g id="a_node7"><a xlink:href="dir_39d17f469530f79363f6574f3e93b68d.html" target="_top" xlink:title="smbman">
<polygon fill="#ffffff" stroke="#ff0000" points="227.5,-196 168.5,-196 168.5,-160 227.5,-160 227.5,-196"/>
<text text-anchor="middle" x="198" y="-175.5" font-family="Helvetica,sans-Serif" font-size="10.00" fill="#000000">smbman</text>
</a>
</g>
</g>
<!-- dir_39d17f469530f79363f6574f3e93b68d&#45;&gt;dir_9be0baa3d4a3e9f480a9ee70594037fa -->
<g id="edge1" class="edge">
<title>dir_39d17f469530f79363f6574f3e93b68d&#45;&gt;dir_9be0baa3d4a3e9f480a9ee70594037fa</title>
<path fill="none" stroke="#000000" d="M171.2769,-159.9104C159.9915,-150.6439 148.074,-138.295 142,-124 135.743,-109.2742 137.3635,-103.3135 142,-88 144.9564,-78.2355 150.3252,-68.6229 156.03,-60.2762"/>
<polygon fill="#000000" stroke="#000000" points="158.9414,-62.2239 162.0095,-52.0831 153.2871,-58.0973 158.9414,-62.2239"/>
<g id="a_edge1&#45;headlabel"><a xlink:href="dir_000066_000140.html" target="_top" xlink:title="39">
<text text-anchor="middle" x="159.1158" y="-64.3013" font-family="Helvetica,sans-Serif" font-size="10.00" fill="#000000">39</text>
</a>
</g>
</g>
<!-- dir_39d17f469530f79363f6574f3e93b68d&#45;&gt;dir_cb38d55d28446d14702541320714f23c -->
<g id="edge2" class="edge">
<title>dir_39d17f469530f79363f6574f3e93b68d&#45;&gt;dir_cb38d55d28446d14702541320714f23c</title>
<path fill="none" stroke="#000000" d="M211.1218,-159.8314C217.0499,-151.6232 224.1729,-141.7606 230.6933,-132.7323"/>
<polygon fill="#000000" stroke="#000000" points="233.684,-134.5693 236.7015,-124.4133 228.0092,-130.4708 233.684,-134.5693"/>
<g id="a_edge2&#45;headlabel"><a xlink:href="dir_000066_000098.html" target="_top" xlink:title="3">
<text text-anchor="middle" x="233.8811" y="-136.6457" font-family="Helvetica,sans-Serif" font-size="10.00" fill="#000000">3</text>
</a>
</g>
</g>
<!-- dir_39d17f469530f79363f6574f3e93b68d&#45;&gt;dir_bdd9a5d540de89e9fe90efdfc6973a4f -->
<g id="edge3" class="edge">
<title>dir_39d17f469530f79363f6574f3e93b68d&#45;&gt;dir_bdd9a5d540de89e9fe90efdfc6973a4f</title>
<path fill="none" stroke="#000000" d="M221.9354,-159.9549C226.7396,-156.9447 231.8877,-154.1176 237,-152 295.6243,-127.717 325.5899,-161.195 377,-124 398.0072,-108.8014 411.5406,-82.1207 419.3487,-61.7429"/>
<polygon fill="#000000" stroke="#000000" points="422.6455,-62.918 422.7295,-52.3235 416.057,-60.5532 422.6455,-62.918"/>
<g id="a_edge3&#45;headlabel"><a xlink:href="dir_000066_000000.html" target="_top" xlink:title="5">
<text text-anchor="middle" x="424.1036" y="-64.7604" font-family="Helvetica,sans-Serif" font-size="10.00" fill="#000000">5</text>
</a>
</g>
</g>
<!-- dir_c29ab4c22b7bc0d7876a510e876257b9 -->
<g id="node8" class="node">
<title>dir_c29ab4c22b7bc0d7876a510e876257b9</title>
<g id="a_node8"><a xlink:href="dir_c29ab4c22b7bc0d7876a510e876257b9.html" target="_top" xlink:title="udptty">
<polygon fill="#ffffff" stroke="#ff0000" points="300,-196 246,-196 246,-160 300,-160 300,-196"/>
<text text-anchor="middle" x="273" y="-175.5" font-family="Helvetica,sans-Serif" font-size="10.00" fill="#000000">udptty</text>
</a>
</g>
</g>
<!-- dir_c29ab4c22b7bc0d7876a510e876257b9&#45;&gt;dir_9be0baa3d4a3e9f480a9ee70594037fa -->
<g id="edge11" class="edge">
<title>dir_c29ab4c22b7bc0d7876a510e876257b9&#45;&gt;dir_9be0baa3d4a3e9f480a9ee70594037fa</title>
<path fill="none" stroke="#000000" d="M282.2567,-159.6637C290.5591,-140.3913 299.5287,-109.8899 286,-88 270.5986,-63.08 239.8292,-49.2755 215.0595,-41.8768"/>
<polygon fill="#000000" stroke="#000000" points="215.789,-38.4475 205.2189,-39.1711 213.9332,-45.197 215.789,-38.4475"/>
<g id="a_edge11&#45;headlabel"><a xlink:href="dir_000068_000140.html" target="_top" xlink:title="19">
<text text-anchor="middle" x="220.0077" y="-34.1627" font-family="Helvetica,sans-Serif" font-size="10.00" fill="#000000">19</text>
</a>
</g>
</g>
<!-- dir_c29ab4c22b7bc0d7876a510e876257b9&#45;&gt;dir_cb38d55d28446d14702541320714f23c -->
<g id="edge13" class="edge">
<title>dir_c29ab4c22b7bc0d7876a510e876257b9&#45;&gt;dir_cb38d55d28446d14702541320714f23c</title>
<path fill="none" stroke="#000000" d="M267.1961,-159.8314C264.7092,-152.0463 261.7469,-142.7729 258.9875,-134.1347"/>
<polygon fill="#000000" stroke="#000000" points="262.2591,-132.874 255.882,-124.4133 255.591,-135.0041 262.2591,-132.874"/>
<g id="a_edge13&#45;headlabel"><a xlink:href="dir_000068_000098.html" target="_top" xlink:title="2">
<text text-anchor="middle" x="266.0574" y="-132.9342" font-family="Helvetica,sans-Serif" font-size="10.00" fill="#000000">2</text>
</a>
</g>
</g>
<!-- dir_c29ab4c22b7bc0d7876a510e876257b9&#45;&gt;dir_bdd9a5d540de89e9fe90efdfc6973a4f -->
<g id="edge12" class="edge">
<title>dir_c29ab4c22b7bc0d7876a510e876257b9&#45;&gt;dir_bdd9a5d540de89e9fe90efdfc6973a4f</title>
<path fill="none" stroke="#000000" d="M295.4543,-159.8891C299.7796,-156.958 304.4004,-154.1759 309,-152 353.047,-131.1629 382.5782,-160.3751 415,-124 429.7127,-107.4933 432.2176,-82.1083 431.4689,-62.5011"/>
<polygon fill="#000000" stroke="#000000" points="434.9454,-62.0353 430.7751,-52.2957 427.9615,-62.5101 434.9454,-62.0353"/>
<g id="a_edge12&#45;headlabel"><a xlink:href="dir_000068_000000.html" target="_top" xlink:title="2">
<text text-anchor="middle" x="438.0219" y="-62.929" font-family="Helvetica,sans-Serif" font-size="10.00" fill="#000000">2</text>
</a>
</g>
</g>
<!-- dir_bdd9a5d540de89e9fe90efdfc6973a4f&#45;&gt;dir_9be0baa3d4a3e9f480a9ee70594037fa -->
<g id="edge10" class="edge">
<title>dir_bdd9a5d540de89e9fe90efdfc6973a4f&#45;&gt;dir_9be0baa3d4a3e9f480a9ee70594037fa</title>
<path fill="none" stroke="#000000" d="M398.4285,-34C337.461,-34 276.4935,-34 215.526,-34"/>
<polygon fill="#000000" stroke="#000000" points="215.3438,-30.5001 205.3438,-34 215.3437,-37.5001 215.3438,-30.5001"/>
<g id="a_edge10&#45;headlabel"><a xlink:href="dir_000000_000140.html" target="_top" xlink:title="5">
<text text-anchor="middle" x="218.9384" y="-25.1607" font-family="Helvetica,sans-Serif" font-size="10.00" fill="#000000">5</text>
</a>
</g>
</g>
</g>
</svg>
