<?xml version="1.0" encoding="UTF-8" standalone="no"?>
<!DOCTYPE svg PUBLIC "-//W3C//DTD SVG 1.1//EN"
 "http://www.w3.org/Graphics/SVG/1.1/DTD/svg11.dtd">
<!-- Generated by graphviz version 2.40.1 (20161225.0304)
 -->
<!-- Title: iop/hdd Pages: 1 -->
<svg width="317pt" height="319pt"
 viewBox="0.00 0.00 316.57 319.00" xmlns="http://www.w3.org/2000/svg" xmlns:xlink="http://www.w3.org/1999/xlink">
<g id="graph0" class="graph" transform="scale(1 1) rotate(0) translate(4 315)">
<title>iop/hdd</title>
<polygon fill="#ffffff" stroke="transparent" points="-4,4 -4,-315 312.5713,-315 312.5713,4 -4,4"/>
<g id="clust1" class="cluster">
<title>clusterdir_0981ace215aa2029f526b70c145b9fbe</title>
<g id="a_clust1"><a xlink:href="dir_0981ace215aa2029f526b70c145b9fbe.html" target="_top" xlink:title="iop">
<polygon fill="#ddddee" stroke="#000000" points="8,-8 8,-303 238,-303 238,-8 8,-8"/>
<text text-anchor="middle" x="123" y="-291" font-family="Helvetica,sans-Serif" font-size="10.00" fill="#000000">iop</text>
</a>
</g>
</g>
<g id="clust2" class="cluster">
<title>clusterdir_b6763ea08a8f9364194ebe3565e6b1f0</title>
<g id="a_clust2"><a xlink:href="dir_b6763ea08a8f9364194ebe3565e6b1f0.html" target="_top">
<polygon fill="#eeeeff" stroke="#000000" points="16,-152 16,-276 230,-276 230,-152 16,-152"/>
</a>
</g>
</g>
<!-- dir_9be0baa3d4a3e9f480a9ee70594037fa -->
<g id="node1" class="node">
<title>dir_9be0baa3d4a3e9f480a9ee70594037fa</title>
<g id="a_node1"><a xlink:href="dir_9be0baa3d4a3e9f480a9ee70594037fa.html" target="_top" xlink:title="kernel">
<polygon fill="#ffffff" stroke="#ff0000" points="118,-52 64,-52 64,-16 118,-16 118,-52"/>
<text text-anchor="middle" x="91" y="-31.5" font-family="Helvetica,sans-Serif" font-size="10.00" fill="#000000">kernel</text>
</a>
</g>
</g>
<!-- dir_bdd9a5d540de89e9fe90efdfc6973a4f -->
<g id="node8" class="node">
<title>dir_bdd9a5d540de89e9fe90efdfc6973a4f</title>
<g id="a_node8"><a xlink:href="dir_bdd9a5d540de89e9fe90efdfc6973a4f.html" target="_top" xlink:title="common">
<polygon fill="#ffffff" stroke="#ff0000" points="305.5,-52 246.5,-52 246.5,-16 305.5,-16 305.5,-52"/>
<text text-anchor="middle" x="276" y="-31.5" font-family="Helvetica,sans-Serif" font-size="10.00" fill="#000000">common</text>
</a>
</g>
</g>
<!-- dir_9be0baa3d4a3e9f480a9ee70594037fa&#45;&gt;dir_bdd9a5d540de89e9fe90efdfc6973a4f -->
<g id="edge14" class="edge">
<title>dir_9be0baa3d4a3e9f480a9ee70594037fa&#45;&gt;dir_bdd9a5d540de89e9fe90efdfc6973a4f</title>
<path fill="none" stroke="#000000" d="M118.0996,-34C157.5233,-34 196.947,-34 236.3707,-34"/>
<polygon fill="#000000" stroke="#000000" points="236.3937,-37.5001 246.3937,-34 236.3936,-30.5001 236.3937,-37.5001"/>
<g id="a_edge14&#45;headlabel"><a xlink:href="dir_000140_000000.html" target="_top" xlink:title="12">
<text text-anchor="middle" x="232.7991" y="-37.8393" font-family="Helvetica,sans-Serif" font-size="10.00" fill="#000000">12</text>
</a>
</g>
</g>
<!-- dir_6f16cad81de2453a6f48c5e272ba4a18 -->
<g id="node2" class="node">
<title>dir_6f16cad81de2453a6f48c5e272ba4a18</title>
<g id="a_node2"><a xlink:href="dir_6f16cad81de2453a6f48c5e272ba4a18.html" target="_top" xlink:title="dev9">
<polygon fill="#ffffff" stroke="#ff0000" points="174,-124 120,-124 120,-88 174,-88 174,-124"/>
<text text-anchor="middle" x="147" y="-103.5" font-family="Helvetica,sans-Serif" font-size="10.00" fill="#000000">dev9</text>
</a>
</g>
</g>
<!-- dir_6f16cad81de2453a6f48c5e272ba4a18&#45;&gt;dir_9be0baa3d4a3e9f480a9ee70594037fa -->
<g id="edge8" class="edge">
<title>dir_6f16cad81de2453a6f48c5e272ba4a18&#45;&gt;dir_9be0baa3d4a3e9f480a9ee70594037fa</title>
<path fill="none" stroke="#000000" d="M132.8688,-87.8314C126.4189,-79.5386 118.6555,-69.557 111.5748,-60.4533"/>
<polygon fill="#000000" stroke="#000000" points="114.2236,-58.158 105.3214,-52.4133 108.6981,-62.4556 114.2236,-58.158"/>
<g id="a_edge8&#45;headlabel"><a xlink:href="dir_000017_000140.html" target="_top" xlink:title="85">
<text text-anchor="middle" x="118.6716" y="-56.7523" font-family="Helvetica,sans-Serif" font-size="10.00" fill="#000000">85</text>
</a>
</g>
</g>
<!-- dir_6f16cad81de2453a6f48c5e272ba4a18&#45;&gt;dir_bdd9a5d540de89e9fe90efdfc6973a4f -->
<g id="edge9" class="edge">
<title>dir_6f16cad81de2453a6f48c5e272ba4a18&#45;&gt;dir_bdd9a5d540de89e9fe90efdfc6973a4f</title>
<path fill="none" stroke="#000000" d="M174.0426,-90.9064C192.4487,-80.6333 217.0827,-66.8841 237.5257,-55.474"/>
<polygon fill="#000000" stroke="#000000" points="239.266,-58.511 246.2922,-50.5811 235.8544,-52.3986 239.266,-58.511"/>
<g id="a_edge9&#45;headlabel"><a xlink:href="dir_000017_000000.html" target="_top" xlink:title="11">
<text text-anchor="middle" x="237.511" y="-60.2421" font-family="Helvetica,sans-Serif" font-size="10.00" fill="#000000">11</text>
</a>
</g>
</g>
<!-- dir_b6763ea08a8f9364194ebe3565e6b1f0 -->
<g id="node3" class="node">
<title>dir_b6763ea08a8f9364194ebe3565e6b1f0</title>
<text text-anchor="middle" x="195" y="-247.5" font-family="Helvetica,sans-Serif" font-size="10.00" fill="#000000">hdd</text>
</g>
<!-- dir_3cf15560dfc813cf049b4197fff2fad4 -->
<g id="node4" class="node">
<title>dir_3cf15560dfc813cf049b4197fff2fad4</title>
<g id="a_node4"><a xlink:href="dir_3cf15560dfc813cf049b4197fff2fad4.html" target="_top" xlink:title="apa">
<polygon fill="#ffffff" stroke="#ff0000" points="150,-268 96,-268 96,-232 150,-232 150,-268"/>
<text text-anchor="middle" x="123" y="-247.5" font-family="Helvetica,sans-Serif" font-size="10.00" fill="#000000">apa</text>
</a>
</g>
</g>
<!-- dir_3cf15560dfc813cf049b4197fff2fad4&#45;&gt;dir_9be0baa3d4a3e9f480a9ee70594037fa -->
<g id="edge1" class="edge">
<title>dir_3cf15560dfc813cf049b4197fff2fad4&#45;&gt;dir_9be0baa3d4a3e9f480a9ee70594037fa</title>
<path fill="none" stroke="#000000" d="M95.9648,-234.4733C76.3771,-222.5868 52.4198,-206.4994 47,-196 24.089,-151.6157 51.5758,-94.0513 72.2486,-60.8476"/>
<polygon fill="#000000" stroke="#000000" points="75.373,-62.4606 77.8511,-52.1596 69.4902,-58.6669 75.373,-62.4606"/>
<g id="a_edge1&#45;headlabel"><a xlink:href="dir_000044_000140.html" target="_top" xlink:title="20">
<text text-anchor="middle" x="75.8111" y="-64.5203" font-family="Helvetica,sans-Serif" font-size="10.00" fill="#000000">20</text>
</a>
</g>
</g>
<!-- dir_3cf15560dfc813cf049b4197fff2fad4&#45;&gt;dir_6f16cad81de2453a6f48c5e272ba4a18 -->
<g id="edge2" class="edge">
<title>dir_3cf15560dfc813cf049b4197fff2fad4&#45;&gt;dir_6f16cad81de2453a6f48c5e272ba4a18</title>
<path fill="none" stroke="#000000" d="M150.0104,-236.4585C165.0765,-227.2976 182.4787,-213.6482 191,-196 199.5029,-178.3898 198.2824,-170.149 191,-152 187.9906,-144.5 183.1103,-137.5314 177.6736,-131.4026"/>
<polygon fill="#000000" stroke="#000000" points="180.0676,-128.844 170.5883,-124.1117 175.0475,-133.7224 180.0676,-128.844"/>
<g id="a_edge2&#45;headlabel"><a xlink:href="dir_000044_000017.html" target="_top" xlink:title="6">
<text text-anchor="middle" x="184.6089" y="-126.9431" font-family="Helvetica,sans-Serif" font-size="10.00" fill="#000000">6</text>
</a>
</g>
</g>
<!-- dir_74c6a9c949eb32128aa5a6adc613f35b -->
<g id="node5" class="node">
<title>dir_74c6a9c949eb32128aa5a6adc613f35b</title>
<g id="a_node5"><a xlink:href="dir_74c6a9c949eb32128aa5a6adc613f35b.html" target="_top" xlink:title="libapa">
<polygon fill="#ffffff" stroke="#ff0000" points="182,-196 128,-196 128,-160 182,-160 182,-196"/>
<text text-anchor="middle" x="155" y="-175.5" font-family="Helvetica,sans-Serif" font-size="10.00" fill="#000000">libapa</text>
</a>
</g>
</g>
<!-- dir_3cf15560dfc813cf049b4197fff2fad4&#45;&gt;dir_74c6a9c949eb32128aa5a6adc613f35b -->
<g id="edge4" class="edge">
<title>dir_3cf15560dfc813cf049b4197fff2fad4&#45;&gt;dir_74c6a9c949eb32128aa5a6adc613f35b</title>
<path fill="none" stroke="#000000" d="M125.1226,-231.8314C127.8826,-223.8771 131.8983,-214.369 136.1628,-205.5723"/>
<polygon fill="#000000" stroke="#000000" points="139.4091,-206.911 140.8403,-196.4133 133.175,-203.7272 139.4091,-206.911"/>
<g id="a_edge4&#45;headlabel"><a xlink:href="dir_000044_000132.html" target="_top" xlink:title="2">
<text text-anchor="middle" x="140.3029" y="-208.9036" font-family="Helvetica,sans-Serif" font-size="10.00" fill="#000000">2</text>
</a>
</g>
</g>
<!-- dir_3cf15560dfc813cf049b4197fff2fad4&#45;&gt;dir_bdd9a5d540de89e9fe90efdfc6973a4f -->
<g id="edge3" class="edge">
<title>dir_3cf15560dfc813cf049b4197fff2fad4&#45;&gt;dir_bdd9a5d540de89e9fe90efdfc6973a4f</title>
<path fill="none" stroke="#000000" d="M150.264,-235.6644C153.1779,-234.3446 156.1268,-233.0946 159,-232 216.226,-210.1985 254.7823,-244.6309 292,-196 321.7027,-157.1886 303.9757,-96.8898 289.3436,-61.8434"/>
<polygon fill="#000000" stroke="#000000" points="292.3616,-60.0092 285.1495,-52.248 285.9476,-62.8127 292.3616,-60.0092"/>
<g id="a_edge3&#45;headlabel"><a xlink:href="dir_000044_000000.html" target="_top" xlink:title="4">
<text text-anchor="middle" x="296.4029" y="-59.6658" font-family="Helvetica,sans-Serif" font-size="10.00" fill="#000000">4</text>
</a>
</g>
</g>
<!-- dir_74c6a9c949eb32128aa5a6adc613f35b&#45;&gt;dir_9be0baa3d4a3e9f480a9ee70594037fa -->
<g id="edge11" class="edge">
<title>dir_74c6a9c949eb32128aa5a6adc613f35b&#45;&gt;dir_9be0baa3d4a3e9f480a9ee70594037fa</title>
<path fill="none" stroke="#000000" d="M136.2977,-159.5293C127.3911,-149.741 117.3276,-137.0595 111,-124 101.5486,-104.4933 96.4999,-80.4395 93.8408,-62.1079"/>
<polygon fill="#000000" stroke="#000000" points="97.294,-61.5198 92.5361,-52.0534 90.3522,-62.4207 97.294,-61.5198"/>
<g id="a_edge11&#45;headlabel"><a xlink:href="dir_000132_000140.html" target="_top" xlink:title="22">
<text text-anchor="middle" x="100.5721" y="-62.2192" font-family="Helvetica,sans-Serif" font-size="10.00" fill="#000000">22</text>
</a>
</g>
</g>
<!-- dir_74c6a9c949eb32128aa5a6adc613f35b&#45;&gt;dir_6f16cad81de2453a6f48c5e272ba4a18 -->
<g id="edge12" class="edge">
<title>dir_74c6a9c949eb32128aa5a6adc613f35b&#45;&gt;dir_6f16cad81de2453a6f48c5e272ba4a18</title>
<path fill="none" stroke="#000000" d="M152.9813,-159.8314C152.1257,-152.131 151.1083,-142.9743 150.1574,-134.4166"/>
<polygon fill="#000000" stroke="#000000" points="153.6289,-133.9656 149.0459,-124.4133 146.6717,-134.7386 153.6289,-133.9656"/>
<g id="a_edge12&#45;headlabel"><a xlink:href="dir_000132_000017.html" target="_top" xlink:title="4">
<text text-anchor="middle" x="156.8477" y="-134.7247" font-family="Helvetica,sans-Serif" font-size="10.00" fill="#000000">4</text>
</a>
</g>
</g>
<!-- dir_74c6a9c949eb32128aa5a6adc613f35b&#45;&gt;dir_3cf15560dfc813cf049b4197fff2fad4 -->
<g id="edge13" class="edge">
<title>dir_74c6a9c949eb32128aa5a6adc613f35b&#45;&gt;dir_3cf15560dfc813cf049b4197fff2fad4</title>
<path fill="none" stroke="#000000" d="M152.7923,-196.4133C150.0067,-204.3991 145.9757,-213.9155 141.7062,-222.6975"/>
<polygon fill="#000000" stroke="#000000" points="138.4715,-221.3354 137.0273,-231.8314 144.7017,-224.5269 138.4715,-221.3354"/>
<g id="a_edge13&#45;headlabel"><a xlink:href="dir_000132_000044.html" target="_top" xlink:title="6">
<text text-anchor="middle" x="137.5833" y="-214.3417" font-family="Helvetica,sans-Serif" font-size="10.00" fill="#000000">6</text>
</a>
</g>
</g>
<!-- dir_74c6a9c949eb32128aa5a6adc613f35b&#45;&gt;dir_bdd9a5d540de89e9fe90efdfc6973a4f -->
<g id="edge10" class="edge">
<title>dir_74c6a9c949eb32128aa5a6adc613f35b&#45;&gt;dir_bdd9a5d540de89e9fe90efdfc6973a4f</title>
<path fill="none" stroke="#000000" d="M178.3218,-159.7931C190.2744,-149.8793 204.6598,-137.0056 216,-124 233.1036,-104.3846 249.2727,-79.6313 260.5068,-61.0515"/>
<polygon fill="#000000" stroke="#000000" points="263.6569,-62.6018 265.7589,-52.2175 257.64,-59.0245 263.6569,-62.6018"/>
<g id="a_edge10&#45;headlabel"><a xlink:href="dir_000132_000000.html" target="_top" xlink:title="13">
<text text-anchor="middle" x="264.2605" y="-64.6425" font-family="Helvetica,sans-Serif" font-size="10.00" fill="#000000">13</text>
</a>
</g>
</g>
<!-- dir_5b638697113ca3fae3dbb2942f3ebff2 -->
<g id="node6" class="node">
<title>dir_5b638697113ca3fae3dbb2942f3ebff2</title>
<g id="a_node6"><a xlink:href="dir_5b638697113ca3fae3dbb2942f3ebff2.html" target="_top" xlink:title="libpfs">
<polygon fill="#ffffff" stroke="#ff0000" points="78,-268 24,-268 24,-232 78,-232 78,-268"/>
<text text-anchor="middle" x="51" y="-247.5" font-family="Helvetica,sans-Serif" font-size="10.00" fill="#000000">libpfs</text>
</a>
</g>
</g>
<!-- dir_5b638697113ca3fae3dbb2942f3ebff2&#45;&gt;dir_9be0baa3d4a3e9f480a9ee70594037fa -->
<g id="edge6" class="edge">
<title>dir_5b638697113ca3fae3dbb2942f3ebff2&#45;&gt;dir_9be0baa3d4a3e9f480a9ee70594037fa</title>
<path fill="none" stroke="#000000" d="M44.4564,-231.789C34.4341,-200.7612 18.573,-136.3179 40,-88 44.7228,-77.3502 52.4638,-67.4918 60.5046,-59.1927"/>
<polygon fill="#000000" stroke="#000000" points="63.1492,-61.5037 67.8953,-52.0314 58.278,-56.4766 63.1492,-61.5037"/>
<g id="a_edge6&#45;headlabel"><a xlink:href="dir_000135_000140.html" target="_top" xlink:title="27">
<text text-anchor="middle" x="62.5434" y="-63.5442" font-family="Helvetica,sans-Serif" font-size="10.00" fill="#000000">27</text>
</a>
</g>
</g>
<!-- dir_cece7c3de560cfc4de14abf3198b3696 -->
<g id="node7" class="node">
<title>dir_cece7c3de560cfc4de14abf3198b3696</title>
<g id="a_node7"><a xlink:href="dir_cece7c3de560cfc4de14abf3198b3696.html" target="_top" xlink:title="pfs">
<polygon fill="#ffffff" stroke="#ff0000" points="110,-196 56,-196 56,-160 110,-160 110,-196"/>
<text text-anchor="middle" x="83" y="-175.5" font-family="Helvetica,sans-Serif" font-size="10.00" fill="#000000">pfs</text>
</a>
</g>
</g>
<!-- dir_5b638697113ca3fae3dbb2942f3ebff2&#45;&gt;dir_cece7c3de560cfc4de14abf3198b3696 -->
<g id="edge7" class="edge">
<title>dir_5b638697113ca3fae3dbb2942f3ebff2&#45;&gt;dir_cece7c3de560cfc4de14abf3198b3696</title>
<path fill="none" stroke="#000000" d="M53.1226,-231.8314C55.8826,-223.8771 59.8983,-214.369 64.1628,-205.5723"/>
<polygon fill="#000000" stroke="#000000" points="67.4091,-206.911 68.8403,-196.4133 61.175,-203.7272 67.4091,-206.911"/>
<g id="a_edge7&#45;headlabel"><a xlink:href="dir_000135_000046.html" target="_top" xlink:title="10">
<text text-anchor="middle" x="68.3029" y="-208.9036" font-family="Helvetica,sans-Serif" font-size="10.00" fill="#000000">10</text>
</a>
</g>
</g>
<!-- dir_5b638697113ca3fae3dbb2942f3ebff2&#45;&gt;dir_bdd9a5d540de89e9fe90efdfc6973a4f -->
<g id="edge5" class="edge">
<title>dir_5b638697113ca3fae3dbb2942f3ebff2&#45;&gt;dir_bdd9a5d540de89e9fe90efdfc6973a4f</title>
<path fill="none" stroke="#000000" d="M78.3451,-235.8667C81.2431,-234.5075 84.1663,-233.1929 87,-232 132.0815,-213.0224 151.614,-225.0041 191,-196 235.9251,-162.9169 259.2182,-98.9603 269.4137,-62.076"/>
<polygon fill="#000000" stroke="#000000" points="272.9048,-62.5612 272.0583,-52.0002 266.1342,-60.784 272.9048,-62.5612"/>
<g id="a_edge5&#45;headlabel"><a xlink:href="dir_000135_000000.html" target="_top" xlink:title="14">
<text text-anchor="middle" x="274.7386" y="-64.2588" font-family="Helvetica,sans-Serif" font-size="10.00" fill="#000000">14</text>
</a>
</g>
</g>
<!-- dir_cece7c3de560cfc4de14abf3198b3696&#45;&gt;dir_9be0baa3d4a3e9f480a9ee70594037fa -->
<g id="edge16" class="edge">
<title>dir_cece7c3de560cfc4de14abf3198b3696&#45;&gt;dir_9be0baa3d4a3e9f480a9ee70594037fa</title>
<path fill="none" stroke="#000000" d="M84.0132,-159.7623C85.3777,-135.201 87.8196,-91.2474 89.4248,-62.3541"/>
<polygon fill="#000000" stroke="#000000" points="92.9348,-62.2684 89.995,-52.0896 85.9456,-61.88 92.9348,-62.2684"/>
<g id="a_edge16&#45;headlabel"><a xlink:href="dir_000046_000140.html" target="_top" xlink:title="23">
<text text-anchor="middle" x="95.5704" y="-63.5149" font-family="Helvetica,sans-Serif" font-size="10.00" fill="#000000">23</text>
</a>
</g>
</g>
<!-- dir_cece7c3de560cfc4de14abf3198b3696&#45;&gt;dir_5b638697113ca3fae3dbb2942f3ebff2 -->
<g id="edge18" class="edge">
<title>dir_cece7c3de560cfc4de14abf3198b3696&#45;&gt;dir_5b638697113ca3fae3dbb2942f3ebff2</title>
<path fill="none" stroke="#000000" d="M80.7923,-196.4133C78.0067,-204.3991 73.9757,-213.9155 69.7062,-222.6975"/>
<polygon fill="#000000" stroke="#000000" points="66.4715,-221.3354 65.0273,-231.8314 72.7017,-224.5269 66.4715,-221.3354"/>
<g id="a_edge18&#45;headlabel"><a xlink:href="dir_000046_000135.html" target="_top" xlink:title="3">
<text text-anchor="middle" x="65.5833" y="-214.3417" font-family="Helvetica,sans-Serif" font-size="10.00" fill="#000000">3</text>
</a>
</g>
</g>
<!-- dir_cece7c3de560cfc4de14abf3198b3696&#45;&gt;dir_bdd9a5d540de89e9fe90efdfc6973a4f -->
<g id="edge17" class="edge">
<title>dir_cece7c3de560cfc4de14abf3198b3696&#45;&gt;dir_bdd9a5d540de89e9fe90efdfc6973a4f</title>
<path fill="none" stroke="#000000" d="M106.4829,-159.8241C110.5499,-157.0331 114.8178,-154.3146 119,-152 147.9565,-135.974 161.6057,-143.9662 188,-124 204.1656,-111.7714 202.1906,-102.8379 216,-88 225.3417,-77.9625 236.3073,-67.7095 246.2909,-58.8719"/>
<polygon fill="#000000" stroke="#000000" points="248.7992,-61.3285 254.0371,-52.119 244.1993,-56.052 248.7992,-61.3285"/>
<g id="a_edge17&#45;headlabel"><a xlink:href="dir_000046_000000.html" target="_top" xlink:title="5">
<text text-anchor="middle" x="247.9554" y="-63.3308" font-family="Helvetica,sans-Serif" font-size="10.00" fill="#000000">5</text>
</a>
</g>
</g>
<!-- dir_bdd9a5d540de89e9fe90efdfc6973a4f&#45;&gt;dir_9be0baa3d4a3e9f480a9ee70594037fa -->
<g id="edge15" class="edge">
<title>dir_bdd9a5d540de89e9fe90efdfc6973a4f&#45;&gt;dir_9be0baa3d4a3e9f480a9ee70594037fa</title>
<path fill="none" stroke="#000000" d="M246.3937,-34C206.97,-34 167.5463,-34 128.1226,-34"/>
<polygon fill="#000000" stroke="#000000" points="128.0996,-30.5001 118.0996,-34 128.0996,-37.5001 128.0996,-30.5001"/>
<g id="a_edge15&#45;headlabel"><a xlink:href="dir_000000_000140.html" target="_top" xlink:title="5">
<text text-anchor="middle" x="131.6942" y="-25.1607" font-family="Helvetica,sans-Serif" font-size="10.00" fill="#000000">5</text>
</a>
</g>
</g>
</g>
</svg>
