<?xml version="1.0" encoding="UTF-8" standalone="no"?>
<!DOCTYPE svg PUBLIC "-//W3C//DTD SVG 1.1//EN"
 "http://www.w3.org/Graphics/SVG/1.1/DTD/svg11.dtd">
<!-- Generated by graphviz version 2.40.1 (20161225.0304)
 -->
<!-- Title: iop/system/iopmgr Pages: 1 -->
<svg width="182pt" height="231pt"
 viewBox="0.00 0.00 182.00 231.00" xmlns="http://www.w3.org/2000/svg" xmlns:xlink="http://www.w3.org/1999/xlink">
<g id="graph0" class="graph" transform="scale(1 1) rotate(0) translate(4 227)">
<title>iop/system/iopmgr</title>
<polygon fill="#ffffff" stroke="transparent" points="-4,4 -4,-227 178,-227 178,4 -4,4"/>
<g id="clust1" class="cluster">
<title>clusterdir_40ac35421bc63b72c26b6c69b1517fd6</title>
<g id="a_clust1"><a xlink:href="dir_40ac35421bc63b72c26b6c69b1517fd6.html" target="_top" xlink:title="system">
<polygon fill="#ddddee" stroke="#000000" points="8,-56 8,-215 166,-215 166,-56 8,-56"/>
<text text-anchor="middle" x="87" y="-203" font-family="Helvetica,sans-Serif" font-size="10.00" fill="#000000">system</text>
</a>
</g>
</g>
<g id="clust2" class="cluster">
<title>clusterdir_024ed9b5cab300e9b0cec9fa63c26df3</title>
<g id="a_clust2"><a xlink:href="dir_024ed9b5cab300e9b0cec9fa63c26df3.html" target="_top">
<polygon fill="#eeeeff" stroke="#000000" points="16,-64 16,-188 158,-188 158,-64 16,-64"/>
</a>
</g>
</g>
<!-- dir_024ed9b5cab300e9b0cec9fa63c26df3 -->
<g id="node1" class="node">
<title>dir_024ed9b5cab300e9b0cec9fa63c26df3</title>
<text text-anchor="middle" x="123" y="-159.5" font-family="Helvetica,sans-Serif" font-size="10.00" fill="#000000">iopmgr</text>
</g>
<!-- dir_f43a10262b73c6e7d8c393ecfde6f1ae -->
<g id="node2" class="node">
<title>dir_f43a10262b73c6e7d8c393ecfde6f1ae</title>
<g id="a_node2"><a xlink:href="dir_f43a10262b73c6e7d8c393ecfde6f1ae.html" target="_top" xlink:title="include">
<polygon fill="#ffffff" stroke="#000000" points="78,-108 24,-108 24,-72 78,-72 78,-108"/>
<text text-anchor="middle" x="51" y="-87.5" font-family="Helvetica,sans-Serif" font-size="10.00" fill="#000000">include</text>
</a>
</g>
</g>
<!-- dir_9be0baa3d4a3e9f480a9ee70594037fa -->
<g id="node4" class="node">
<title>dir_9be0baa3d4a3e9f480a9ee70594037fa</title>
<g id="a_node4"><a xlink:href="dir_9be0baa3d4a3e9f480a9ee70594037fa.html" target="_top" xlink:title="kernel">
<polygon fill="#ffffff" stroke="#ff0000" points="105,-36 51,-36 51,0 105,0 105,-36"/>
<text text-anchor="middle" x="78" y="-15.5" font-family="Helvetica,sans-Serif" font-size="10.00" fill="#000000">kernel</text>
</a>
</g>
</g>
<!-- dir_f43a10262b73c6e7d8c393ecfde6f1ae&#45;&gt;dir_9be0baa3d4a3e9f480a9ee70594037fa -->
<g id="edge3" class="edge">
<title>dir_f43a10262b73c6e7d8c393ecfde6f1ae&#45;&gt;dir_9be0baa3d4a3e9f480a9ee70594037fa</title>
<path fill="none" stroke="#000000" d="M57.8132,-71.8314C60.7644,-63.9617 64.2858,-54.5712 67.555,-45.8533"/>
<polygon fill="#000000" stroke="#000000" points="70.8609,-47.0055 71.095,-36.4133 64.3066,-44.5476 70.8609,-47.0055"/>
<g id="a_edge3&#45;headlabel"><a xlink:href="dir_000151_000140.html" target="_top" xlink:title="3">
<text text-anchor="middle" x="72.2573" y="-48.8682" font-family="Helvetica,sans-Serif" font-size="10.00" fill="#000000">3</text>
</a>
</g>
</g>
<!-- dir_1a7f0e9c955f51a704f1181957f21135 -->
<g id="node3" class="node">
<title>dir_1a7f0e9c955f51a704f1181957f21135</title>
<g id="a_node3"><a xlink:href="dir_1a7f0e9c955f51a704f1181957f21135.html" target="_top" xlink:title="src">
<polygon fill="#ffffff" stroke="#000000" points="78,-180 24,-180 24,-144 78,-144 78,-180"/>
<text text-anchor="middle" x="51" y="-159.5" font-family="Helvetica,sans-Serif" font-size="10.00" fill="#000000">src</text>
</a>
</g>
</g>
<!-- dir_1a7f0e9c955f51a704f1181957f21135&#45;&gt;dir_f43a10262b73c6e7d8c393ecfde6f1ae -->
<g id="edge2" class="edge">
<title>dir_1a7f0e9c955f51a704f1181957f21135&#45;&gt;dir_f43a10262b73c6e7d8c393ecfde6f1ae</title>
<path fill="none" stroke="#000000" d="M51,-143.8314C51,-136.131 51,-126.9743 51,-118.4166"/>
<polygon fill="#000000" stroke="#000000" points="54.5001,-118.4132 51,-108.4133 47.5001,-118.4133 54.5001,-118.4132"/>
<g id="a_edge2&#45;headlabel"><a xlink:href="dir_000085_000151.html" target="_top" xlink:title="5">
<text text-anchor="middle" x="57.3393" y="-119.5079" font-family="Helvetica,sans-Serif" font-size="10.00" fill="#000000">5</text>
</a>
</g>
</g>
<!-- dir_1a7f0e9c955f51a704f1181957f21135&#45;&gt;dir_9be0baa3d4a3e9f480a9ee70594037fa -->
<g id="edge1" class="edge">
<title>dir_1a7f0e9c955f51a704f1181957f21135&#45;&gt;dir_9be0baa3d4a3e9f480a9ee70594037fa</title>
<path fill="none" stroke="#000000" d="M66.9905,-143.9169C74.6538,-134.0371 83.0166,-121.1563 87,-108 93.0862,-87.8985 90.3561,-64.2346 86.3608,-46.2178"/>
<polygon fill="#000000" stroke="#000000" points="89.7149,-45.201 83.9192,-36.3319 82.9191,-46.8794 89.7149,-45.201"/>
<g id="a_edge1&#45;headlabel"><a xlink:href="dir_000085_000140.html" target="_top" xlink:title="28">
<text text-anchor="middle" x="93.3331" y="-45.51" font-family="Helvetica,sans-Serif" font-size="10.00" fill="#000000">28</text>
</a>
</g>
</g>
</g>
</svg>
