<?xml version="1.0" encoding="UTF-8" standalone="no"?>
<!DOCTYPE svg PUBLIC "-//W3C//DTD SVG 1.1//EN"
 "http://www.w3.org/Graphics/SVG/1.1/DTD/svg11.dtd">
<!-- Generated by graphviz version 2.40.1 (20161225.0304)
 -->
<!-- Title: iop/system/rmman Pages: 1 -->
<svg width="257pt" height="303pt"
 viewBox="0.00 0.00 256.75 303.00" xmlns="http://www.w3.org/2000/svg" xmlns:xlink="http://www.w3.org/1999/xlink">
<g id="graph0" class="graph" transform="scale(1 1) rotate(0) translate(4 299)">
<title>iop/system/rmman</title>
<polygon fill="#ffffff" stroke="transparent" points="-4,4 -4,-299 252.7485,-299 252.7485,4 -4,4"/>
<g id="clust1" class="cluster">
<title>clusterdir_40ac35421bc63b72c26b6c69b1517fd6</title>
<g id="a_clust1"><a xlink:href="dir_40ac35421bc63b72c26b6c69b1517fd6.html" target="_top" xlink:title="system">
<polygon fill="#ddddee" stroke="#000000" points="12.7485,-128 12.7485,-287 240.7485,-287 240.7485,-128 12.7485,-128"/>
<text text-anchor="middle" x="126.7485" y="-275" font-family="Helvetica,sans-Serif" font-size="10.00" fill="#000000">system</text>
</a>
</g>
</g>
<g id="clust2" class="cluster">
<title>clusterdir_fe7329d8b89241d59f89f45fd75d2e77</title>
<g id="a_clust2"><a xlink:href="dir_fe7329d8b89241d59f89f45fd75d2e77.html" target="_top">
<polygon fill="#eeeeff" stroke="#000000" points="90.7485,-136 90.7485,-260 232.7485,-260 232.7485,-136 90.7485,-136"/>
</a>
</g>
</g>
<!-- dir_47d6ec5167f7ee6ef257538cbd6ee8bb -->
<g id="node1" class="node">
<title>dir_47d6ec5167f7ee6ef257538cbd6ee8bb</title>
<g id="a_node1"><a xlink:href="dir_47d6ec5167f7ee6ef257538cbd6ee8bb.html" target="_top" xlink:title="rsio2man">
<polygon fill="#ffffff" stroke="#ff0000" points="82.7485,-180 20.7485,-180 20.7485,-144 82.7485,-144 82.7485,-180"/>
<text text-anchor="middle" x="51.7485" y="-159.5" font-family="Helvetica,sans-Serif" font-size="10.00" fill="#000000">rsio2man</text>
</a>
</g>
</g>
<!-- dir_9be0baa3d4a3e9f480a9ee70594037fa -->
<g id="node5" class="node">
<title>dir_9be0baa3d4a3e9f480a9ee70594037fa</title>
<g id="a_node5"><a xlink:href="dir_9be0baa3d4a3e9f480a9ee70594037fa.html" target="_top" xlink:title="kernel">
<polygon fill="#ffffff" stroke="#ff0000" points="88.7485,-108 34.7485,-108 34.7485,-72 88.7485,-72 88.7485,-108"/>
<text text-anchor="middle" x="61.7485" y="-87.5" font-family="Helvetica,sans-Serif" font-size="10.00" fill="#000000">kernel</text>
</a>
</g>
</g>
<!-- dir_47d6ec5167f7ee6ef257538cbd6ee8bb&#45;&gt;dir_9be0baa3d4a3e9f480a9ee70594037fa -->
<g id="edge1" class="edge">
<title>dir_47d6ec5167f7ee6ef257538cbd6ee8bb&#45;&gt;dir_9be0baa3d4a3e9f480a9ee70594037fa</title>
<path fill="none" stroke="#000000" d="M54.2719,-143.8314C55.3414,-136.131 56.6131,-126.9743 57.8017,-118.4166"/>
<polygon fill="#000000" stroke="#000000" points="61.282,-118.7997 59.1911,-108.4133 54.3486,-117.8367 61.282,-118.7997"/>
<g id="a_edge1&#45;headlabel"><a xlink:href="dir_000153_000140.html" target="_top" xlink:title="1">
<text text-anchor="middle" x="63.5999" y="-120.2507" font-family="Helvetica,sans-Serif" font-size="10.00" fill="#000000">1</text>
</a>
</g>
</g>
<!-- dir_fe7329d8b89241d59f89f45fd75d2e77 -->
<g id="node2" class="node">
<title>dir_fe7329d8b89241d59f89f45fd75d2e77</title>
<text text-anchor="middle" x="197.7485" y="-231.5" font-family="Helvetica,sans-Serif" font-size="10.00" fill="#000000">rmman</text>
</g>
<!-- dir_ba0bf5790b75dbb76cd621ad13634675 -->
<g id="node3" class="node">
<title>dir_ba0bf5790b75dbb76cd621ad13634675</title>
<g id="a_node3"><a xlink:href="dir_ba0bf5790b75dbb76cd621ad13634675.html" target="_top" xlink:title="include">
<polygon fill="#ffffff" stroke="#000000" points="154.7485,-180 100.7485,-180 100.7485,-144 154.7485,-144 154.7485,-180"/>
<text text-anchor="middle" x="127.7485" y="-159.5" font-family="Helvetica,sans-Serif" font-size="10.00" fill="#000000">include</text>
</a>
</g>
</g>
<!-- dir_ba0bf5790b75dbb76cd621ad13634675&#45;&gt;dir_9be0baa3d4a3e9f480a9ee70594037fa -->
<g id="edge6" class="edge">
<title>dir_ba0bf5790b75dbb76cd621ad13634675&#45;&gt;dir_9be0baa3d4a3e9f480a9ee70594037fa</title>
<path fill="none" stroke="#000000" d="M111.3553,-143.9864C106.6449,-138.8196 101.4977,-133.1825 96.7485,-128 93.1297,-124.0511 89.2946,-119.8767 85.5411,-115.7968"/>
<polygon fill="#000000" stroke="#000000" points="87.8503,-113.1376 78.5018,-108.152 82.7008,-117.8792 87.8503,-113.1376"/>
<g id="a_edge6&#45;headlabel"><a xlink:href="dir_000152_000140.html" target="_top" xlink:title="1">
<text text-anchor="middle" x="92.3738" y="-111.3587" font-family="Helvetica,sans-Serif" font-size="10.00" fill="#000000">1</text>
</a>
</g>
</g>
<!-- dir_bdd9a5d540de89e9fe90efdfc6973a4f -->
<g id="node6" class="node">
<title>dir_bdd9a5d540de89e9fe90efdfc6973a4f</title>
<g id="a_node6"><a xlink:href="dir_bdd9a5d540de89e9fe90efdfc6973a4f.html" target="_top" xlink:title="common">
<polygon fill="#ffffff" stroke="#ff0000" points="91.2485,-36 32.2485,-36 32.2485,0 91.2485,0 91.2485,-36"/>
<text text-anchor="middle" x="61.7485" y="-15.5" font-family="Helvetica,sans-Serif" font-size="10.00" fill="#000000">common</text>
</a>
</g>
</g>
<!-- dir_ba0bf5790b75dbb76cd621ad13634675&#45;&gt;dir_bdd9a5d540de89e9fe90efdfc6973a4f -->
<g id="edge7" class="edge">
<title>dir_ba0bf5790b75dbb76cd621ad13634675&#45;&gt;dir_bdd9a5d540de89e9fe90efdfc6973a4f</title>
<path fill="none" stroke="#000000" d="M123.2338,-143.8578C118.2608,-125.2765 109.3987,-95.8206 97.7485,-72 93.1926,-62.6849 87.2598,-53.0885 81.5289,-44.6168"/>
<polygon fill="#000000" stroke="#000000" points="84.2876,-42.454 75.6959,-36.2546 78.5464,-46.4588 84.2876,-42.454"/>
<g id="a_edge7&#45;headlabel"><a xlink:href="dir_000152_000000.html" target="_top" xlink:title="1">
<text text-anchor="middle" x="88.6728" y="-41.2779" font-family="Helvetica,sans-Serif" font-size="10.00" fill="#000000">1</text>
</a>
</g>
</g>
<!-- dir_4b4edfc69082ccc9fa978b057a42ad24 -->
<g id="node4" class="node">
<title>dir_4b4edfc69082ccc9fa978b057a42ad24</title>
<g id="a_node4"><a xlink:href="dir_4b4edfc69082ccc9fa978b057a42ad24.html" target="_top" xlink:title="src">
<polygon fill="#ffffff" stroke="#000000" points="152.7485,-252 98.7485,-252 98.7485,-216 152.7485,-216 152.7485,-252"/>
<text text-anchor="middle" x="125.7485" y="-231.5" font-family="Helvetica,sans-Serif" font-size="10.00" fill="#000000">src</text>
</a>
</g>
</g>
<!-- dir_4b4edfc69082ccc9fa978b057a42ad24&#45;&gt;dir_47d6ec5167f7ee6ef257538cbd6ee8bb -->
<g id="edge2" class="edge">
<title>dir_4b4edfc69082ccc9fa978b057a42ad24&#45;&gt;dir_47d6ec5167f7ee6ef257538cbd6ee8bb</title>
<path fill="none" stroke="#000000" d="M107.0751,-215.8314C98.2235,-207.219 87.4998,-196.7851 77.859,-187.4048"/>
<polygon fill="#000000" stroke="#000000" points="80.0238,-184.6279 70.4158,-180.1628 75.1423,-189.645 80.0238,-184.6279"/>
<g id="a_edge2&#45;headlabel"><a xlink:href="dir_000091_000153.html" target="_top" xlink:title="2">
<text text-anchor="middle" x="84.5801" y="-182.5996" font-family="Helvetica,sans-Serif" font-size="10.00" fill="#000000">2</text>
</a>
</g>
</g>
<!-- dir_4b4edfc69082ccc9fa978b057a42ad24&#45;&gt;dir_ba0bf5790b75dbb76cd621ad13634675 -->
<g id="edge4" class="edge">
<title>dir_4b4edfc69082ccc9fa978b057a42ad24&#45;&gt;dir_ba0bf5790b75dbb76cd621ad13634675</title>
<path fill="none" stroke="#000000" d="M126.2531,-215.8314C126.467,-208.131 126.7214,-198.9743 126.9591,-190.4166"/>
<polygon fill="#000000" stroke="#000000" points="130.4579,-190.5066 127.237,-180.4133 123.4606,-190.3122 130.4579,-190.5066"/>
<g id="a_edge4&#45;headlabel"><a xlink:href="dir_000091_000152.html" target="_top" xlink:title="1">
<text text-anchor="middle" x="133.1963" y="-191.6787" font-family="Helvetica,sans-Serif" font-size="10.00" fill="#000000">1</text>
</a>
</g>
</g>
<!-- dir_4b4edfc69082ccc9fa978b057a42ad24&#45;&gt;dir_9be0baa3d4a3e9f480a9ee70594037fa -->
<g id="edge3" class="edge">
<title>dir_4b4edfc69082ccc9fa978b057a42ad24&#45;&gt;dir_9be0baa3d4a3e9f480a9ee70594037fa</title>
<path fill="none" stroke="#000000" d="M98.6827,-230.0121C70.7191,-224.2922 28.4621,-210.8106 8.7485,-180 -3.7074,-160.5327 -1.8084,-148.5591 8.7485,-128 12.7631,-120.1818 19.216,-113.611 26.2596,-108.25"/>
<polygon fill="#000000" stroke="#000000" points="28.393,-111.0317 34.6886,-102.5101 24.453,-105.2458 28.393,-111.0317"/>
<g id="a_edge3&#45;headlabel"><a xlink:href="dir_000091_000140.html" target="_top" xlink:title="18">
<text text-anchor="middle" x="27.02" y="-112.9017" font-family="Helvetica,sans-Serif" font-size="10.00" fill="#000000">18</text>
</a>
</g>
</g>
<!-- dir_9be0baa3d4a3e9f480a9ee70594037fa&#45;&gt;dir_bdd9a5d540de89e9fe90efdfc6973a4f -->
<g id="edge5" class="edge">
<title>dir_9be0baa3d4a3e9f480a9ee70594037fa&#45;&gt;dir_bdd9a5d540de89e9fe90efdfc6973a4f</title>
<path fill="none" stroke="#000000" d="M55.7961,-71.8314C55.0456,-64.131 54.8247,-54.9743 55.1334,-46.4166"/>
<polygon fill="#000000" stroke="#000000" points="58.6277,-46.6161 55.7724,-36.4133 51.6419,-46.1697 58.6277,-46.6161"/>
<g id="a_edge5&#45;headlabel"><a xlink:href="dir_000140_000000.html" target="_top" xlink:title="12">
<text text-anchor="middle" x="61.2321" y="-47.8844" font-family="Helvetica,sans-Serif" font-size="10.00" fill="#000000">12</text>
</a>
</g>
</g>
<!-- dir_bdd9a5d540de89e9fe90efdfc6973a4f&#45;&gt;dir_9be0baa3d4a3e9f480a9ee70594037fa -->
<g id="edge8" class="edge">
<title>dir_bdd9a5d540de89e9fe90efdfc6973a4f&#45;&gt;dir_9be0baa3d4a3e9f480a9ee70594037fa</title>
<path fill="none" stroke="#000000" d="M67.7245,-36.4133C68.4556,-44.0593 68.6687,-53.1084 68.3639,-61.5726"/>
<polygon fill="#000000" stroke="#000000" points="64.8532,-61.6264 67.7008,-71.8314 71.8387,-62.078 64.8532,-61.6264"/>
<g id="a_edge8&#45;headlabel"><a xlink:href="dir_000000_000140.html" target="_top" xlink:title="5">
<text text-anchor="middle" x="62.2516" y="-55.3562" font-family="Helvetica,sans-Serif" font-size="10.00" fill="#000000">5</text>
</a>
</g>
</g>
</g>
</svg>
