<?xml version="1.0" encoding="UTF-8" standalone="no"?>
<!DOCTYPE svg PUBLIC "-//W3C//DTD SVG 1.1//EN"
 "http://www.w3.org/Graphics/SVG/1.1/DTD/svg11.dtd">
<!-- Generated by graphviz version 2.40.1 (20161225.0304)
 -->
<!-- Title: iop/hdd/libpfs Pages: 1 -->
<svg width="252pt" height="303pt"
 viewBox="0.00 0.00 252.19 303.00" xmlns="http://www.w3.org/2000/svg" xmlns:xlink="http://www.w3.org/1999/xlink">
<g id="graph0" class="graph" transform="scale(1 1) rotate(0) translate(4 299)">
<title>iop/hdd/libpfs</title>
<polygon fill="#ffffff" stroke="transparent" points="-4,4 -4,-299 248.1871,-299 248.1871,4 -4,4"/>
<g id="clust1" class="cluster">
<title>clusterdir_b6763ea08a8f9364194ebe3565e6b1f0</title>
<g id="a_clust1"><a xlink:href="dir_b6763ea08a8f9364194ebe3565e6b1f0.html" target="_top" xlink:title="hdd">
<polygon fill="#ddddee" stroke="#000000" points="8,-128 8,-287 228,-287 228,-128 8,-128"/>
<text text-anchor="middle" x="118" y="-275" font-family="Helvetica,sans-Serif" font-size="10.00" fill="#000000">hdd</text>
</a>
</g>
</g>
<g id="clust2" class="cluster">
<title>clusterdir_5b638697113ca3fae3dbb2942f3ebff2</title>
<g id="a_clust2"><a xlink:href="dir_5b638697113ca3fae3dbb2942f3ebff2.html" target="_top">
<polygon fill="#eeeeff" stroke="#000000" points="16,-136 16,-260 158,-260 158,-136 16,-136"/>
</a>
</g>
</g>
<!-- dir_cece7c3de560cfc4de14abf3198b3696 -->
<g id="node1" class="node">
<title>dir_cece7c3de560cfc4de14abf3198b3696</title>
<g id="a_node1"><a xlink:href="dir_cece7c3de560cfc4de14abf3198b3696.html" target="_top" xlink:title="pfs">
<polygon fill="#ffffff" stroke="#ff0000" points="220,-180 166,-180 166,-144 220,-144 220,-180"/>
<text text-anchor="middle" x="193" y="-159.5" font-family="Helvetica,sans-Serif" font-size="10.00" fill="#000000">pfs</text>
</a>
</g>
</g>
<!-- dir_bd0b2718f6cbaa7d5f7a645cbab55d03 -->
<g id="node3" class="node">
<title>dir_bd0b2718f6cbaa7d5f7a645cbab55d03</title>
<g id="a_node3"><a xlink:href="dir_bd0b2718f6cbaa7d5f7a645cbab55d03.html" target="_top" xlink:title="include">
<polygon fill="#ffffff" stroke="#000000" points="141,-180 87,-180 87,-144 141,-144 141,-180"/>
<text text-anchor="middle" x="114" y="-159.5" font-family="Helvetica,sans-Serif" font-size="10.00" fill="#000000">include</text>
</a>
</g>
</g>
<!-- dir_cece7c3de560cfc4de14abf3198b3696&#45;&gt;dir_bd0b2718f6cbaa7d5f7a645cbab55d03 -->
<g id="edge9" class="edge">
<title>dir_cece7c3de560cfc4de14abf3198b3696&#45;&gt;dir_bd0b2718f6cbaa7d5f7a645cbab55d03</title>
<path fill="none" stroke="#000000" d="M165.863,-162C160.9732,-162 156.0833,-162 151.1934,-162"/>
<polygon fill="#000000" stroke="#000000" points="151.1563,-158.5001 141.1563,-162 151.1562,-165.5001 151.1563,-158.5001"/>
<g id="a_edge9&#45;headlabel"><a xlink:href="dir_000046_000137.html" target="_top" xlink:title="3">
<text text-anchor="middle" x="154.7509" y="-153.1607" font-family="Helvetica,sans-Serif" font-size="10.00" fill="#000000">3</text>
</a>
</g>
</g>
<!-- dir_bdd9a5d540de89e9fe90efdfc6973a4f -->
<g id="node5" class="node">
<title>dir_bdd9a5d540de89e9fe90efdfc6973a4f</title>
<g id="a_node5"><a xlink:href="dir_bdd9a5d540de89e9fe90efdfc6973a4f.html" target="_top" xlink:title="common">
<polygon fill="#ffffff" stroke="#ff0000" points="172.5,-108 113.5,-108 113.5,-72 172.5,-72 172.5,-108"/>
<text text-anchor="middle" x="143" y="-87.5" font-family="Helvetica,sans-Serif" font-size="10.00" fill="#000000">common</text>
</a>
</g>
</g>
<!-- dir_cece7c3de560cfc4de14abf3198b3696&#45;&gt;dir_bdd9a5d540de89e9fe90efdfc6973a4f -->
<g id="edge8" class="edge">
<title>dir_cece7c3de560cfc4de14abf3198b3696&#45;&gt;dir_bdd9a5d540de89e9fe90efdfc6973a4f</title>
<path fill="none" stroke="#000000" d="M180.3829,-143.8314C174.6828,-135.6232 167.8337,-125.7606 161.5641,-116.7323"/>
<polygon fill="#000000" stroke="#000000" points="164.3658,-114.6306 155.787,-108.4133 158.6162,-118.6234 164.3658,-114.6306"/>
<g id="a_edge8&#45;headlabel"><a xlink:href="dir_000046_000000.html" target="_top" xlink:title="5">
<text text-anchor="middle" x="168.7482" y="-113.4636" font-family="Helvetica,sans-Serif" font-size="10.00" fill="#000000">5</text>
</a>
</g>
</g>
<!-- dir_9be0baa3d4a3e9f480a9ee70594037fa -->
<g id="node6" class="node">
<title>dir_9be0baa3d4a3e9f480a9ee70594037fa</title>
<g id="a_node6"><a xlink:href="dir_9be0baa3d4a3e9f480a9ee70594037fa.html" target="_top" xlink:title="kernel">
<polygon fill="#ffffff" stroke="#ff0000" points="199,-36 145,-36 145,0 199,0 199,-36"/>
<text text-anchor="middle" x="172" y="-15.5" font-family="Helvetica,sans-Serif" font-size="10.00" fill="#000000">kernel</text>
</a>
</g>
</g>
<!-- dir_cece7c3de560cfc4de14abf3198b3696&#45;&gt;dir_9be0baa3d4a3e9f480a9ee70594037fa -->
<g id="edge7" class="edge">
<title>dir_cece7c3de560cfc4de14abf3198b3696&#45;&gt;dir_9be0baa3d4a3e9f480a9ee70594037fa</title>
<path fill="none" stroke="#000000" d="M191.0951,-143.6832C189.1221,-125.4654 185.7987,-96.7387 182,-72 180.718,-63.651 179.1256,-54.6134 177.5913,-46.3637"/>
<polygon fill="#000000" stroke="#000000" points="181.0122,-45.6173 175.7066,-36.4467 174.1353,-46.9243 181.0122,-45.6173"/>
<g id="a_edge7&#45;headlabel"><a xlink:href="dir_000046_000140.html" target="_top" xlink:title="23">
<text text-anchor="middle" x="184.4726" y="-46.1186" font-family="Helvetica,sans-Serif" font-size="10.00" fill="#000000">23</text>
</a>
</g>
</g>
<!-- dir_5b638697113ca3fae3dbb2942f3ebff2 -->
<g id="node2" class="node">
<title>dir_5b638697113ca3fae3dbb2942f3ebff2</title>
<text text-anchor="middle" x="123" y="-231.5" font-family="Helvetica,sans-Serif" font-size="10.00" fill="#000000">libpfs</text>
</g>
<!-- dir_b1d79714e4f399f37a02c510a4ba57cf -->
<g id="node4" class="node">
<title>dir_b1d79714e4f399f37a02c510a4ba57cf</title>
<g id="a_node4"><a xlink:href="dir_b1d79714e4f399f37a02c510a4ba57cf.html" target="_top" xlink:title="src">
<polygon fill="#ffffff" stroke="#000000" points="78,-252 24,-252 24,-216 78,-216 78,-252"/>
<text text-anchor="middle" x="51" y="-231.5" font-family="Helvetica,sans-Serif" font-size="10.00" fill="#000000">src</text>
</a>
</g>
</g>
<!-- dir_b1d79714e4f399f37a02c510a4ba57cf&#45;&gt;dir_cece7c3de560cfc4de14abf3198b3696 -->
<g id="edge5" class="edge">
<title>dir_b1d79714e4f399f37a02c510a4ba57cf&#45;&gt;dir_cece7c3de560cfc4de14abf3198b3696</title>
<path fill="none" stroke="#000000" d="M78.1036,-220.3897C81.102,-218.9015 84.1135,-217.4143 87,-216 117.2201,-201.1933 127.4879,-197.8457 156.503,-182.829"/>
<polygon fill="#000000" stroke="#000000" points="158.4483,-185.761 165.6807,-178.0187 155.1987,-179.561 158.4483,-185.761"/>
<g id="a_edge5&#45;headlabel"><a xlink:href="dir_000136_000046.html" target="_top" xlink:title="10">
<text text-anchor="middle" x="156.5826" y="-187.4445" font-family="Helvetica,sans-Serif" font-size="10.00" fill="#000000">10</text>
</a>
</g>
</g>
<!-- dir_b1d79714e4f399f37a02c510a4ba57cf&#45;&gt;dir_bd0b2718f6cbaa7d5f7a645cbab55d03 -->
<g id="edge3" class="edge">
<title>dir_b1d79714e4f399f37a02c510a4ba57cf&#45;&gt;dir_bd0b2718f6cbaa7d5f7a645cbab55d03</title>
<path fill="none" stroke="#000000" d="M66.8976,-215.8314C74.2278,-207.454 83.066,-197.3531 91.0969,-188.1749"/>
<polygon fill="#000000" stroke="#000000" points="93.9373,-190.2438 97.8884,-180.4133 88.6693,-185.6343 93.9373,-190.2438"/>
<g id="a_edge3&#45;headlabel"><a xlink:href="dir_000136_000137.html" target="_top" xlink:title="10">
<text text-anchor="middle" x="93.7071" y="-192.3187" font-family="Helvetica,sans-Serif" font-size="10.00" fill="#000000">10</text>
</a>
</g>
</g>
<!-- dir_b1d79714e4f399f37a02c510a4ba57cf&#45;&gt;dir_bdd9a5d540de89e9fe90efdfc6973a4f -->
<g id="edge4" class="edge">
<title>dir_b1d79714e4f399f37a02c510a4ba57cf&#45;&gt;dir_bdd9a5d540de89e9fe90efdfc6973a4f</title>
<path fill="none" stroke="#000000" d="M51.4655,-215.6787C52.9147,-192.9715 58.3474,-154.0898 78,-128 84.8645,-118.887 94.6039,-111.5709 104.46,-105.8856"/>
<polygon fill="#000000" stroke="#000000" points="106.2648,-108.8904 113.4651,-101.1182 102.9895,-102.7039 106.2648,-108.8904"/>
<g id="a_edge4&#45;headlabel"><a xlink:href="dir_000136_000000.html" target="_top" xlink:title="14">
<text text-anchor="middle" x="104.4164" y="-110.5815" font-family="Helvetica,sans-Serif" font-size="10.00" fill="#000000">14</text>
</a>
</g>
</g>
<!-- dir_b1d79714e4f399f37a02c510a4ba57cf&#45;&gt;dir_9be0baa3d4a3e9f480a9ee70594037fa -->
<g id="edge2" class="edge">
<title>dir_b1d79714e4f399f37a02c510a4ba57cf&#45;&gt;dir_9be0baa3d4a3e9f480a9ee70594037fa</title>
<path fill="none" stroke="#000000" d="M78.2407,-219.6023C81.1591,-218.2946 84.1155,-217.0644 87,-216 149.2951,-193.013 191.0936,-232.3044 232,-180 264.4146,-138.5535 224.2243,-77.8332 195.7178,-43.7201"/>
<polygon fill="#000000" stroke="#000000" points="198.3018,-41.3569 189.1305,-36.0523 192.9921,-45.9184 198.3018,-41.3569"/>
<g id="a_edge2&#45;headlabel"><a xlink:href="dir_000136_000140.html" target="_top" xlink:title="27">
<text text-anchor="middle" x="202.7979" y="-39.7333" font-family="Helvetica,sans-Serif" font-size="10.00" fill="#000000">27</text>
</a>
</g>
</g>
<!-- dir_bdd9a5d540de89e9fe90efdfc6973a4f&#45;&gt;dir_9be0baa3d4a3e9f480a9ee70594037fa -->
<g id="edge6" class="edge">
<title>dir_bdd9a5d540de89e9fe90efdfc6973a4f&#45;&gt;dir_9be0baa3d4a3e9f480a9ee70594037fa</title>
<path fill="none" stroke="#000000" d="M144.3655,-71.8314C146.7942,-63.8771 150.4137,-54.369 154.3117,-45.5723"/>
<polygon fill="#000000" stroke="#000000" points="157.5298,-46.9532 158.6075,-36.4133 151.1923,-43.9806 157.5298,-46.9532"/>
<g id="a_edge6&#45;headlabel"><a xlink:href="dir_000000_000140.html" target="_top" xlink:title="5">
<text text-anchor="middle" x="158.574" y="-48.9132" font-family="Helvetica,sans-Serif" font-size="10.00" fill="#000000">5</text>
</a>
</g>
</g>
<!-- dir_9be0baa3d4a3e9f480a9ee70594037fa&#45;&gt;dir_bdd9a5d540de89e9fe90efdfc6973a4f -->
<g id="edge1" class="edge">
<title>dir_9be0baa3d4a3e9f480a9ee70594037fa&#45;&gt;dir_bdd9a5d540de89e9fe90efdfc6973a4f</title>
<path fill="none" stroke="#000000" d="M170.5596,-36.4133C168.1066,-44.3991 164.4722,-53.9155 160.5686,-62.6975"/>
<polygon fill="#000000" stroke="#000000" points="157.3615,-61.2929 156.2703,-71.8314 163.6952,-64.2735 157.3615,-61.2929"/>
<g id="a_edge1&#45;headlabel"><a xlink:href="dir_000140_000000.html" target="_top" xlink:title="12">
<text text-anchor="middle" x="156.323" y="-54.3315" font-family="Helvetica,sans-Serif" font-size="10.00" fill="#000000">12</text>
</a>
</g>
</g>
</g>
</svg>
