<?xml version="1.0" encoding="UTF-8" standalone="no"?>
<!DOCTYPE svg PUBLIC "-//W3C//DTD SVG 1.1//EN"
 "http://www.w3.org/Graphics/SVG/1.1/DTD/svg11.dtd">
<!-- Generated by graphviz version 2.40.1 (20161225.0304)
 -->
<!-- Title: iop/sound/ahx/src Pages: 1 -->
<svg width="263pt" height="231pt"
 viewBox="0.00 0.00 263.00 231.00" xmlns="http://www.w3.org/2000/svg" xmlns:xlink="http://www.w3.org/1999/xlink">
<g id="graph0" class="graph" transform="scale(1 1) rotate(0) translate(4 227)">
<title>iop/sound/ahx/src</title>
<polygon fill="#ffffff" stroke="transparent" points="-4,4 -4,-227 259,-227 259,4 -4,4"/>
<g id="clust1" class="cluster">
<title>clusterdir_9337eeae2b875a84dbe6e00bf944922d</title>
<g id="a_clust1"><a xlink:href="dir_9337eeae2b875a84dbe6e00bf944922d.html" target="_top" xlink:title="ahx">
<polygon fill="#ddddee" stroke="#000000" points="8,-64 8,-215 166,-215 166,-64 8,-64"/>
<text text-anchor="middle" x="87" y="-203" font-family="Helvetica,sans-Serif" font-size="10.00" fill="#000000">ahx</text>
</a>
</g>
</g>
<g id="clust2" class="cluster">
<title>clusterdir_fe4d942b553a0f3632b13732d211a99b</title>
<g id="a_clust2"><a xlink:href="dir_fe4d942b553a0f3632b13732d211a99b.html" target="_top">
<polygon fill="#eeeeff" stroke="#000000" points="16,-136 16,-188 158,-188 158,-136 16,-136"/>
</a>
</g>
</g>
<!-- dir_8806379264ffea16411011c87cd5d5d1 -->
<g id="node1" class="node">
<title>dir_8806379264ffea16411011c87cd5d5d1</title>
<g id="a_node1"><a xlink:href="dir_8806379264ffea16411011c87cd5d5d1.html" target="_top" xlink:title="include">
<polygon fill="none" stroke="#000000" points="78,-108 24,-108 24,-72 78,-72 78,-108"/>
<text text-anchor="middle" x="51" y="-87.5" font-family="Helvetica,sans-Serif" font-size="10.00" fill="#000000">include</text>
</a>
</g>
</g>
<!-- dir_fe4d942b553a0f3632b13732d211a99b -->
<g id="node2" class="node">
<title>dir_fe4d942b553a0f3632b13732d211a99b</title>
<text text-anchor="middle" x="51" y="-159.5" font-family="Helvetica,sans-Serif" font-size="10.00" fill="#000000">src</text>
</g>
<!-- dir_fe4d942b553a0f3632b13732d211a99b&#45;&gt;dir_8806379264ffea16411011c87cd5d5d1 -->
<g id="edge3" class="edge">
<title>dir_fe4d942b553a0f3632b13732d211a99b&#45;&gt;dir_8806379264ffea16411011c87cd5d5d1</title>
<path fill="none" stroke="#000000" d="M51,-143.8314C51,-136.131 51,-126.9743 51,-118.4166"/>
<polygon fill="#000000" stroke="#000000" points="54.5001,-118.4132 51,-108.4133 47.5001,-118.4133 54.5001,-118.4132"/>
<g id="a_edge3&#45;headlabel"><a xlink:href="dir_000072_000145.html" target="_top" xlink:title="2">
<text text-anchor="middle" x="57.3393" y="-119.5079" font-family="Helvetica,sans-Serif" font-size="10.00" fill="#000000">2</text>
</a>
</g>
</g>
<!-- dir_b3b65c61938638f28675fc77a7fe35e3 -->
<g id="node5" class="node">
<title>dir_b3b65c61938638f28675fc77a7fe35e3</title>
<g id="a_node5"><a xlink:href="dir_b3b65c61938638f28675fc77a7fe35e3.html" target="_top" xlink:title="libsd">
<polygon fill="#ffffff" stroke="#ff0000" points="228,-108 174,-108 174,-72 228,-72 228,-108"/>
<text text-anchor="middle" x="201" y="-87.5" font-family="Helvetica,sans-Serif" font-size="10.00" fill="#000000">libsd</text>
</a>
</g>
</g>
<!-- dir_fe4d942b553a0f3632b13732d211a99b&#45;&gt;dir_b3b65c61938638f28675fc77a7fe35e3 -->
<g id="edge4" class="edge">
<title>dir_fe4d942b553a0f3632b13732d211a99b&#45;&gt;dir_b3b65c61938638f28675fc77a7fe35e3</title>
<path fill="none" stroke="#000000" d="M73.972,-143.8736C78.1696,-141.0126 82.6131,-138.2584 87,-136 118.6393,-119.7119 132.161,-123.2391 164.2114,-110.3176"/>
<polygon fill="#000000" stroke="#000000" points="165.9685,-113.372 173.773,-106.2068 163.2036,-106.9412 165.9685,-113.372"/>
<g id="a_edge4&#45;headlabel"><a xlink:href="dir_000072_000075.html" target="_top" xlink:title="1">
<text text-anchor="middle" x="163.7876" y="-114.9002" font-family="Helvetica,sans-Serif" font-size="10.00" fill="#000000">1</text>
</a>
</g>
</g>
<!-- dir_40c561062edbd99ebfb63c3ad64cebed -->
<g id="node3" class="node">
<title>dir_40c561062edbd99ebfb63c3ad64cebed</title>
<g id="a_node3"><a xlink:href="dir_40c561062edbd99ebfb63c3ad64cebed.html" target="_top" xlink:title="include">
<polygon fill="#ffffff" stroke="#000000" points="150,-180 96,-180 96,-144 150,-144 150,-180"/>
<text text-anchor="middle" x="123" y="-159.5" font-family="Helvetica,sans-Serif" font-size="10.00" fill="#000000">include</text>
</a>
</g>
</g>
<!-- dir_9be0baa3d4a3e9f480a9ee70594037fa -->
<g id="node4" class="node">
<title>dir_9be0baa3d4a3e9f480a9ee70594037fa</title>
<g id="a_node4"><a xlink:href="dir_9be0baa3d4a3e9f480a9ee70594037fa.html" target="_top" xlink:title="kernel">
<polygon fill="#ffffff" stroke="#ff0000" points="255,-36 201,-36 201,0 255,0 255,-36"/>
<text text-anchor="middle" x="228" y="-15.5" font-family="Helvetica,sans-Serif" font-size="10.00" fill="#000000">kernel</text>
</a>
</g>
</g>
<!-- dir_40c561062edbd99ebfb63c3ad64cebed&#45;&gt;dir_9be0baa3d4a3e9f480a9ee70594037fa -->
<g id="edge1" class="edge">
<title>dir_40c561062edbd99ebfb63c3ad64cebed&#45;&gt;dir_9be0baa3d4a3e9f480a9ee70594037fa</title>
<path fill="none" stroke="#000000" d="M150.1495,-157.6307C177.4162,-151.6402 218.0283,-137.979 237,-108 248.6733,-89.5538 245.0148,-64.602 239.2335,-45.6494"/>
<polygon fill="#000000" stroke="#000000" points="242.5155,-44.4293 235.9873,-36.0847 235.8869,-46.6791 242.5155,-44.4293"/>
<g id="a_edge1&#45;headlabel"><a xlink:href="dir_000146_000140.html" target="_top" xlink:title="1">
<text text-anchor="middle" x="246.3594" y="-44.4208" font-family="Helvetica,sans-Serif" font-size="10.00" fill="#000000">1</text>
</a>
</g>
</g>
<!-- dir_b3b65c61938638f28675fc77a7fe35e3&#45;&gt;dir_9be0baa3d4a3e9f480a9ee70594037fa -->
<g id="edge2" class="edge">
<title>dir_b3b65c61938638f28675fc77a7fe35e3&#45;&gt;dir_9be0baa3d4a3e9f480a9ee70594037fa</title>
<path fill="none" stroke="#000000" d="M207.8132,-71.8314C210.7644,-63.9617 214.2858,-54.5712 217.555,-45.8533"/>
<polygon fill="#000000" stroke="#000000" points="220.8609,-47.0055 221.095,-36.4133 214.3066,-44.5476 220.8609,-47.0055"/>
<g id="a_edge2&#45;headlabel"><a xlink:href="dir_000075_000140.html" target="_top" xlink:title="18">
<text text-anchor="middle" x="222.2573" y="-48.8682" font-family="Helvetica,sans-Serif" font-size="10.00" fill="#000000">18</text>
</a>
</g>
</g>
</g>
</svg>
