<?xml version="1.0" encoding="UTF-8" standalone="no"?>
<!DOCTYPE svg PUBLIC "-//W3C//DTD SVG 1.1//EN"
 "http://www.w3.org/Graphics/SVG/1.1/DTD/svg11.dtd">
<!-- Generated by graphviz version 2.40.1 (20161225.0304)
 -->
<!-- Title: iop/debug/iop_sbusdbg Pages: 1 -->
<svg width="278pt" height="303pt"
 viewBox="0.00 0.00 278.00 303.00" xmlns="http://www.w3.org/2000/svg" xmlns:xlink="http://www.w3.org/1999/xlink">
<g id="graph0" class="graph" transform="scale(1 1) rotate(0) translate(4 299)">
<title>iop/debug/iop_sbusdbg</title>
<polygon fill="#ffffff" stroke="transparent" points="-4,4 -4,-299 274,-299 274,4 -4,4"/>
<g id="clust1" class="cluster">
<title>clusterdir_8494d76ae2586079db82d45fe3dd6aec</title>
<g id="a_clust1"><a xlink:href="dir_8494d76ae2586079db82d45fe3dd6aec.html" target="_top" xlink:title="debug">
<polygon fill="#ddddee" stroke="#000000" points="8,-136 8,-287 262,-287 262,-136 8,-136"/>
<text text-anchor="middle" x="135" y="-275" font-family="Helvetica,sans-Serif" font-size="10.00" fill="#000000">debug</text>
</a>
</g>
</g>
<g id="clust2" class="cluster">
<title>clusterdir_2f080771f6205bbf07c3b5e6545bd3fa</title>
<g id="a_clust2"><a xlink:href="dir_2f080771f6205bbf07c3b5e6545bd3fa.html" target="_top">
<polygon fill="#eeeeff" stroke="#000000" points="16,-208 16,-260 254,-260 254,-208 16,-208"/>
</a>
</g>
</g>
<!-- dir_b128a11f24e38182ade4e9889f6c5833 -->
<g id="node1" class="node">
<title>dir_b128a11f24e38182ade4e9889f6c5833</title>
<g id="a_node1"><a xlink:href="dir_b128a11f24e38182ade4e9889f6c5833.html" target="_top" xlink:title="iopdebug">
<polygon fill="#ffffff" stroke="#ff0000" points="166,-180 104,-180 104,-144 166,-144 166,-180"/>
<text text-anchor="middle" x="135" y="-159.5" font-family="Helvetica,sans-Serif" font-size="10.00" fill="#000000">iopdebug</text>
</a>
</g>
</g>
<!-- dir_bdd9a5d540de89e9fe90efdfc6973a4f -->
<g id="node5" class="node">
<title>dir_bdd9a5d540de89e9fe90efdfc6973a4f</title>
<g id="a_node5"><a xlink:href="dir_bdd9a5d540de89e9fe90efdfc6973a4f.html" target="_top" xlink:title="common">
<polygon fill="#ffffff" stroke="#ff0000" points="106.5,-108 47.5,-108 47.5,-72 106.5,-72 106.5,-108"/>
<text text-anchor="middle" x="77" y="-87.5" font-family="Helvetica,sans-Serif" font-size="10.00" fill="#000000">common</text>
</a>
</g>
</g>
<!-- dir_b128a11f24e38182ade4e9889f6c5833&#45;&gt;dir_bdd9a5d540de89e9fe90efdfc6973a4f -->
<g id="edge4" class="edge">
<title>dir_b128a11f24e38182ade4e9889f6c5833&#45;&gt;dir_bdd9a5d540de89e9fe90efdfc6973a4f</title>
<path fill="none" stroke="#000000" d="M120.3642,-143.8314C113.6839,-135.5386 105.6432,-125.557 98.3096,-116.4533"/>
<polygon fill="#000000" stroke="#000000" points="100.8319,-114.0052 91.8329,-108.4133 95.3806,-118.3965 100.8319,-114.0052"/>
<g id="a_edge4&#45;headlabel"><a xlink:href="dir_000011_000000.html" target="_top" xlink:title="7">
<text text-anchor="middle" x="105.2979" y="-112.5233" font-family="Helvetica,sans-Serif" font-size="10.00" fill="#000000">7</text>
</a>
</g>
</g>
<!-- dir_9be0baa3d4a3e9f480a9ee70594037fa -->
<g id="node6" class="node">
<title>dir_9be0baa3d4a3e9f480a9ee70594037fa</title>
<g id="a_node6"><a xlink:href="dir_9be0baa3d4a3e9f480a9ee70594037fa.html" target="_top" xlink:title="kernel">
<polygon fill="#ffffff" stroke="#ff0000" points="133,-36 79,-36 79,0 133,0 133,-36"/>
<text text-anchor="middle" x="106" y="-15.5" font-family="Helvetica,sans-Serif" font-size="10.00" fill="#000000">kernel</text>
</a>
</g>
</g>
<!-- dir_b128a11f24e38182ade4e9889f6c5833&#45;&gt;dir_9be0baa3d4a3e9f480a9ee70594037fa -->
<g id="edge3" class="edge">
<title>dir_b128a11f24e38182ade4e9889f6c5833&#45;&gt;dir_9be0baa3d4a3e9f480a9ee70594037fa</title>
<path fill="none" stroke="#000000" d="M131.3271,-143.7623C126.359,-119.0928 117.4509,-74.8598 111.6335,-45.9731"/>
<polygon fill="#000000" stroke="#000000" points="115.0485,-45.2018 109.643,-36.0896 108.1863,-46.5838 115.0485,-45.2018"/>
<g id="a_edge3&#45;headlabel"><a xlink:href="dir_000011_000140.html" target="_top" xlink:title="19">
<text text-anchor="middle" x="118.5415" y="-45.6651" font-family="Helvetica,sans-Serif" font-size="10.00" fill="#000000">19</text>
</a>
</g>
</g>
<!-- dir_2f080771f6205bbf07c3b5e6545bd3fa -->
<g id="node2" class="node">
<title>dir_2f080771f6205bbf07c3b5e6545bd3fa</title>
<text text-anchor="middle" x="207" y="-231.5" font-family="Helvetica,sans-Serif" font-size="10.00" fill="#000000">iop_sbusdbg</text>
</g>
<!-- dir_36b98ff8a35b2ed655cbfa91e3ae73e8 -->
<g id="node3" class="node">
<title>dir_36b98ff8a35b2ed655cbfa91e3ae73e8</title>
<g id="a_node3"><a xlink:href="dir_36b98ff8a35b2ed655cbfa91e3ae73e8.html" target="_top" xlink:title="include">
<polygon fill="#ffffff" stroke="#000000" points="78,-252 24,-252 24,-216 78,-216 78,-252"/>
<text text-anchor="middle" x="51" y="-231.5" font-family="Helvetica,sans-Serif" font-size="10.00" fill="#000000">include</text>
</a>
</g>
</g>
<!-- dir_36b98ff8a35b2ed655cbfa91e3ae73e8&#45;&gt;dir_bdd9a5d540de89e9fe90efdfc6973a4f -->
<g id="edge1" class="edge">
<title>dir_36b98ff8a35b2ed655cbfa91e3ae73e8&#45;&gt;dir_bdd9a5d540de89e9fe90efdfc6973a4f</title>
<path fill="none" stroke="#000000" d="M51.9359,-215.7587C53.2097,-195.9421 56.0509,-163.4405 62,-136 63.2998,-130.0047 65.0787,-123.6864 66.9577,-117.7173"/>
<polygon fill="#000000" stroke="#000000" points="70.3147,-118.7136 70.1472,-108.1201 63.6719,-116.5059 70.3147,-118.7136"/>
<g id="a_edge1&#45;headlabel"><a xlink:href="dir_000118_000000.html" target="_top" xlink:title="1">
<text text-anchor="middle" x="71.8755" y="-120.5202" font-family="Helvetica,sans-Serif" font-size="10.00" fill="#000000">1</text>
</a>
</g>
</g>
<!-- dir_b885b894e4096334a2f073c9bc278b43 -->
<g id="node4" class="node">
<title>dir_b885b894e4096334a2f073c9bc278b43</title>
<g id="a_node4"><a xlink:href="dir_b885b894e4096334a2f073c9bc278b43.html" target="_top" xlink:title="src">
<polygon fill="#ffffff" stroke="#000000" points="150,-252 96,-252 96,-216 150,-216 150,-252"/>
<text text-anchor="middle" x="123" y="-231.5" font-family="Helvetica,sans-Serif" font-size="10.00" fill="#000000">src</text>
</a>
</g>
</g>
<!-- dir_b885b894e4096334a2f073c9bc278b43&#45;&gt;dir_b128a11f24e38182ade4e9889f6c5833 -->
<g id="edge6" class="edge">
<title>dir_b885b894e4096334a2f073c9bc278b43&#45;&gt;dir_b128a11f24e38182ade4e9889f6c5833</title>
<path fill="none" stroke="#000000" d="M126.0281,-215.8314C127.3115,-208.131 128.8376,-198.9743 130.2639,-190.4166"/>
<polygon fill="#000000" stroke="#000000" points="133.7394,-190.8526 131.9311,-180.4133 126.8347,-189.7018 133.7394,-190.8526"/>
<g id="a_edge6&#45;headlabel"><a xlink:href="dir_000010_000011.html" target="_top" xlink:title="4">
<text text-anchor="middle" x="135.9492" y="-192.3651" font-family="Helvetica,sans-Serif" font-size="10.00" fill="#000000">4</text>
</a>
</g>
</g>
<!-- dir_b885b894e4096334a2f073c9bc278b43&#45;&gt;dir_bdd9a5d540de89e9fe90efdfc6973a4f -->
<g id="edge7" class="edge">
<title>dir_b885b894e4096334a2f073c9bc278b43&#45;&gt;dir_bdd9a5d540de89e9fe90efdfc6973a4f</title>
<path fill="none" stroke="#000000" d="M109.4121,-215.9573C102.5072,-205.8864 94.6204,-192.8165 90,-180 82.8279,-160.1053 79.6021,-136.3882 78.1565,-118.2963"/>
<polygon fill="#000000" stroke="#000000" points="81.6348,-117.8513 77.4808,-108.1048 74.6501,-118.3145 81.6348,-117.8513"/>
<g id="a_edge7&#45;headlabel"><a xlink:href="dir_000010_000000.html" target="_top" xlink:title="8">
<text text-anchor="middle" x="84.7056" y="-118.7503" font-family="Helvetica,sans-Serif" font-size="10.00" fill="#000000">8</text>
</a>
</g>
</g>
<!-- dir_b885b894e4096334a2f073c9bc278b43&#45;&gt;dir_9be0baa3d4a3e9f480a9ee70594037fa -->
<g id="edge5" class="edge">
<title>dir_b885b894e4096334a2f073c9bc278b43&#45;&gt;dir_9be0baa3d4a3e9f480a9ee70594037fa</title>
<path fill="none" stroke="#000000" d="M150.1897,-216.0065C161.6743,-206.7602 173.8058,-194.4006 180,-180 187.727,-162.0358 185.4054,-154.7936 180,-136 169.9836,-101.1749 146.3369,-66.6871 128.4498,-44.0749"/>
<polygon fill="#000000" stroke="#000000" points="130.9323,-41.5793 121.9168,-36.0141 125.4941,-45.9868 130.9323,-41.5793"/>
<g id="a_edge5&#45;headlabel"><a xlink:href="dir_000010_000140.html" target="_top" xlink:title="31">
<text text-anchor="middle" x="135.4014" y="-40.0842" font-family="Helvetica,sans-Serif" font-size="10.00" fill="#000000">31</text>
</a>
</g>
</g>
<!-- dir_bdd9a5d540de89e9fe90efdfc6973a4f&#45;&gt;dir_9be0baa3d4a3e9f480a9ee70594037fa -->
<g id="edge8" class="edge">
<title>dir_bdd9a5d540de89e9fe90efdfc6973a4f&#45;&gt;dir_9be0baa3d4a3e9f480a9ee70594037fa</title>
<path fill="none" stroke="#000000" d="M78.3655,-71.8314C80.7942,-63.8771 84.4137,-54.369 88.3117,-45.5723"/>
<polygon fill="#000000" stroke="#000000" points="91.5298,-46.9532 92.6075,-36.4133 85.1923,-43.9806 91.5298,-46.9532"/>
<g id="a_edge8&#45;headlabel"><a xlink:href="dir_000000_000140.html" target="_top" xlink:title="5">
<text text-anchor="middle" x="92.574" y="-48.9132" font-family="Helvetica,sans-Serif" font-size="10.00" fill="#000000">5</text>
</a>
</g>
</g>
<!-- dir_9be0baa3d4a3e9f480a9ee70594037fa&#45;&gt;dir_bdd9a5d540de89e9fe90efdfc6973a4f -->
<g id="edge2" class="edge">
<title>dir_9be0baa3d4a3e9f480a9ee70594037fa&#45;&gt;dir_bdd9a5d540de89e9fe90efdfc6973a4f</title>
<path fill="none" stroke="#000000" d="M104.5596,-36.4133C102.1066,-44.3991 98.4722,-53.9155 94.5686,-62.6975"/>
<polygon fill="#000000" stroke="#000000" points="91.3615,-61.2929 90.2703,-71.8314 97.6952,-64.2735 91.3615,-61.2929"/>
<g id="a_edge2&#45;headlabel"><a xlink:href="dir_000140_000000.html" target="_top" xlink:title="12">
<text text-anchor="middle" x="90.323" y="-54.3315" font-family="Helvetica,sans-Serif" font-size="10.00" fill="#000000">12</text>
</a>
</g>
</g>
</g>
</svg>
