<?xml version="1.0" encoding="UTF-8" standalone="no"?>
<!DOCTYPE svg PUBLIC "-//W3C//DTD SVG 1.1//EN"
 "http://www.w3.org/Graphics/SVG/1.1/DTD/svg11.dtd">
<!-- Generated by graphviz version 2.40.1 (20161225.0304)
 -->
<!-- Title: iop/usb/keyboard/src Pages: 1 -->
<svg width="177pt" height="223pt"
 viewBox="0.00 0.00 177.00 223.00" xmlns="http://www.w3.org/2000/svg" xmlns:xlink="http://www.w3.org/1999/xlink">
<g id="graph0" class="graph" transform="scale(1 1) rotate(0) translate(4 219)">
<title>iop/usb/keyboard/src</title>
<polygon fill="#ffffff" stroke="transparent" points="-4,4 -4,-219 173,-219 173,4 -4,4"/>
<g id="clust1" class="cluster">
<title>clusterdir_dfd34f7999bdb28cb70101636e016b16</title>
<g id="a_clust1"><a xlink:href="dir_dfd34f7999bdb28cb70101636e016b16.html" target="_top" xlink:title="keyboard">
<polygon fill="#ddddee" stroke="#000000" points="8,-64 8,-207 78,-207 78,-64 8,-64"/>
<text text-anchor="middle" x="43" y="-195" font-family="Helvetica,sans-Serif" font-size="10.00" fill="#000000">keyboard</text>
</a>
</g>
</g>
<!-- dir_e958439eae9e499529b4758660d27573 -->
<g id="node1" class="node">
<title>dir_e958439eae9e499529b4758660d27573</title>
<g id="a_node1"><a xlink:href="dir_e958439eae9e499529b4758660d27573.html" target="_top" xlink:title="include">
<polygon fill="none" stroke="#000000" points="70,-108 16,-108 16,-72 70,-72 70,-108"/>
<text text-anchor="middle" x="43" y="-87.5" font-family="Helvetica,sans-Serif" font-size="10.00" fill="#000000">include</text>
</a>
</g>
</g>
<!-- dir_649efdce889a9164ac5e894f2ff13a76 -->
<g id="node2" class="node">
<title>dir_649efdce889a9164ac5e894f2ff13a76</title>
<g id="a_node2"><a xlink:href="dir_649efdce889a9164ac5e894f2ff13a76.html" target="_top" xlink:title="src">
<polygon fill="#eeeeff" stroke="#000000" points="70,-180 16,-180 16,-144 70,-144 70,-180"/>
<text text-anchor="middle" x="43" y="-159.5" font-family="Helvetica,sans-Serif" font-size="10.00" fill="#000000">src</text>
</a>
</g>
</g>
<!-- dir_649efdce889a9164ac5e894f2ff13a76&#45;&gt;dir_e958439eae9e499529b4758660d27573 -->
<g id="edge3" class="edge">
<title>dir_649efdce889a9164ac5e894f2ff13a76&#45;&gt;dir_e958439eae9e499529b4758660d27573</title>
<path fill="none" stroke="#000000" d="M43,-143.8314C43,-136.131 43,-126.9743 43,-118.4166"/>
<polygon fill="#000000" stroke="#000000" points="46.5001,-118.4132 43,-108.4133 39.5001,-118.4133 46.5001,-118.4132"/>
<g id="a_edge3&#45;headlabel"><a xlink:href="dir_000109_000163.html" target="_top" xlink:title="1">
<text text-anchor="middle" x="49.3393" y="-119.5079" font-family="Helvetica,sans-Serif" font-size="10.00" fill="#000000">1</text>
</a>
</g>
</g>
<!-- dir_8f550b51c304fe10978bfd792866fae2 -->
<g id="node3" class="node">
<title>dir_8f550b51c304fe10978bfd792866fae2</title>
<g id="a_node3"><a xlink:href="dir_8f550b51c304fe10978bfd792866fae2.html" target="_top" xlink:title="usbd">
<polygon fill="#ffffff" stroke="#ff0000" points="142,-108 88,-108 88,-72 142,-72 142,-108"/>
<text text-anchor="middle" x="115" y="-87.5" font-family="Helvetica,sans-Serif" font-size="10.00" fill="#000000">usbd</text>
</a>
</g>
</g>
<!-- dir_649efdce889a9164ac5e894f2ff13a76&#45;&gt;dir_8f550b51c304fe10978bfd792866fae2 -->
<g id="edge1" class="edge">
<title>dir_649efdce889a9164ac5e894f2ff13a76&#45;&gt;dir_8f550b51c304fe10978bfd792866fae2</title>
<path fill="none" stroke="#000000" d="M61.1686,-143.8314C69.7152,-135.2848 80.0557,-124.9443 89.3802,-115.6198"/>
<polygon fill="#000000" stroke="#000000" points="91.9905,-117.9592 96.5867,-108.4133 87.0408,-113.0095 91.9905,-117.9592"/>
<g id="a_edge1&#45;headlabel"><a xlink:href="dir_000109_000112.html" target="_top" xlink:title="3">
<text text-anchor="middle" x="91.4564" y="-120.0087" font-family="Helvetica,sans-Serif" font-size="10.00" fill="#000000">3</text>
</a>
</g>
</g>
<!-- dir_9be0baa3d4a3e9f480a9ee70594037fa -->
<g id="node4" class="node">
<title>dir_9be0baa3d4a3e9f480a9ee70594037fa</title>
<g id="a_node4"><a xlink:href="dir_9be0baa3d4a3e9f480a9ee70594037fa.html" target="_top" xlink:title="kernel">
<polygon fill="#ffffff" stroke="#ff0000" points="169,-36 115,-36 115,0 169,0 169,-36"/>
<text text-anchor="middle" x="142" y="-15.5" font-family="Helvetica,sans-Serif" font-size="10.00" fill="#000000">kernel</text>
</a>
</g>
</g>
<!-- dir_649efdce889a9164ac5e894f2ff13a76&#45;&gt;dir_9be0baa3d4a3e9f480a9ee70594037fa -->
<g id="edge2" class="edge">
<title>dir_649efdce889a9164ac5e894f2ff13a76&#45;&gt;dir_9be0baa3d4a3e9f480a9ee70594037fa</title>
<path fill="none" stroke="#000000" d="M70.2189,-156.8289C96.0588,-150.3174 133.4767,-136.3534 151,-108 162.4765,-89.4307 158.8349,-64.4894 153.1101,-45.5723"/>
<polygon fill="#000000" stroke="#000000" points="156.4049,-44.3892 149.8973,-36.0284 149.7707,-46.6225 156.4049,-44.3892"/>
<g id="a_edge2&#45;headlabel"><a xlink:href="dir_000109_000140.html" target="_top" xlink:title="21">
<text text-anchor="middle" x="160.2426" y="-44.3901" font-family="Helvetica,sans-Serif" font-size="10.00" fill="#000000">21</text>
</a>
</g>
</g>
<!-- dir_8f550b51c304fe10978bfd792866fae2&#45;&gt;dir_9be0baa3d4a3e9f480a9ee70594037fa -->
<g id="edge4" class="edge">
<title>dir_8f550b51c304fe10978bfd792866fae2&#45;&gt;dir_9be0baa3d4a3e9f480a9ee70594037fa</title>
<path fill="none" stroke="#000000" d="M121.8132,-71.8314C124.7644,-63.9617 128.2858,-54.5712 131.555,-45.8533"/>
<polygon fill="#000000" stroke="#000000" points="134.8609,-47.0055 135.095,-36.4133 128.3066,-44.5476 134.8609,-47.0055"/>
<g id="a_edge4&#45;headlabel"><a xlink:href="dir_000112_000140.html" target="_top" xlink:title="37">
<text text-anchor="middle" x="136.2573" y="-48.8682" font-family="Helvetica,sans-Serif" font-size="10.00" fill="#000000">37</text>
</a>
</g>
</g>
</g>
</svg>
