<?xml version="1.0" encoding="UTF-8" standalone="no"?>
<!DOCTYPE svg PUBLIC "-//W3C//DTD SVG 1.1//EN"
 "http://www.w3.org/Graphics/SVG/1.1/DTD/svg11.dtd">
<!-- Generated by graphviz version 2.40.1 (20161225.0304)
 -->
<!-- Title: iop/dev9/dev9/src Pages: 1 -->
<svg width="124pt" height="295pt"
 viewBox="0.00 0.00 124.00 295.00" xmlns="http://www.w3.org/2000/svg" xmlns:xlink="http://www.w3.org/1999/xlink">
<g id="graph0" class="graph" transform="scale(1 1) rotate(0) translate(4 291)">
<title>iop/dev9/dev9/src</title>
<polygon fill="#ffffff" stroke="transparent" points="-4,4 -4,-291 120,-291 120,4 -4,4"/>
<g id="clust1" class="cluster">
<title>clusterdir_18566863331aaba44604539ca78be099</title>
<g id="a_clust1"><a xlink:href="dir_18566863331aaba44604539ca78be099.html" target="_top" xlink:title="dev9">
<polygon fill="#ddddee" stroke="#000000" points="38,-136 38,-279 108,-279 108,-136 38,-136"/>
<text text-anchor="middle" x="73" y="-267" font-family="Helvetica,sans-Serif" font-size="10.00" fill="#000000">dev9</text>
</a>
</g>
</g>
<!-- dir_58692563475c8582953c11bc1da04f9e -->
<g id="node1" class="node">
<title>dir_58692563475c8582953c11bc1da04f9e</title>
<g id="a_node1"><a xlink:href="dir_58692563475c8582953c11bc1da04f9e.html" target="_top" xlink:title="include">
<polygon fill="none" stroke="#000000" points="100,-180 46,-180 46,-144 100,-144 100,-180"/>
<text text-anchor="middle" x="73" y="-159.5" font-family="Helvetica,sans-Serif" font-size="10.00" fill="#000000">include</text>
</a>
</g>
</g>
<!-- dir_9be0baa3d4a3e9f480a9ee70594037fa -->
<g id="node3" class="node">
<title>dir_9be0baa3d4a3e9f480a9ee70594037fa</title>
<g id="a_node3"><a xlink:href="dir_9be0baa3d4a3e9f480a9ee70594037fa.html" target="_top" xlink:title="kernel">
<polygon fill="#ffffff" stroke="#ff0000" points="54,-108 0,-108 0,-72 54,-72 54,-108"/>
<text text-anchor="middle" x="27" y="-87.5" font-family="Helvetica,sans-Serif" font-size="10.00" fill="#000000">kernel</text>
</a>
</g>
</g>
<!-- dir_58692563475c8582953c11bc1da04f9e&#45;&gt;dir_9be0baa3d4a3e9f480a9ee70594037fa -->
<g id="edge1" class="edge">
<title>dir_58692563475c8582953c11bc1da04f9e&#45;&gt;dir_9be0baa3d4a3e9f480a9ee70594037fa</title>
<path fill="none" stroke="#000000" d="M61.3923,-143.8314C56.2022,-135.7079 49.9768,-125.9637 44.2575,-117.0118"/>
<polygon fill="#000000" stroke="#000000" points="47.0974,-114.9559 38.764,-108.4133 41.1985,-118.7246 47.0974,-114.9559"/>
<g id="a_edge1&#45;headlabel"><a xlink:href="dir_000122_000140.html" target="_top" xlink:title="1">
<text text-anchor="middle" x="51.4253" y="-113.9564" font-family="Helvetica,sans-Serif" font-size="10.00" fill="#000000">1</text>
</a>
</g>
</g>
<!-- dir_bdd9a5d540de89e9fe90efdfc6973a4f -->
<g id="node4" class="node">
<title>dir_bdd9a5d540de89e9fe90efdfc6973a4f</title>
<g id="a_node4"><a xlink:href="dir_bdd9a5d540de89e9fe90efdfc6973a4f.html" target="_top" xlink:title="common">
<polygon fill="#ffffff" stroke="#ff0000" points="83.5,-36 24.5,-36 24.5,0 83.5,0 83.5,-36"/>
<text text-anchor="middle" x="54" y="-15.5" font-family="Helvetica,sans-Serif" font-size="10.00" fill="#000000">common</text>
</a>
</g>
</g>
<!-- dir_58692563475c8582953c11bc1da04f9e&#45;&gt;dir_bdd9a5d540de89e9fe90efdfc6973a4f -->
<g id="edge2" class="edge">
<title>dir_58692563475c8582953c11bc1da04f9e&#45;&gt;dir_bdd9a5d540de89e9fe90efdfc6973a4f</title>
<path fill="none" stroke="#000000" d="M71.2609,-143.6921C69.4616,-125.4811 66.4362,-96.7593 63,-72 61.8425,-63.6597 60.4083,-54.6248 59.0275,-46.3749"/>
<polygon fill="#000000" stroke="#000000" points="62.467,-45.7235 57.3319,-36.4563 55.5671,-46.9031 62.467,-45.7235"/>
<g id="a_edge2&#45;headlabel"><a xlink:href="dir_000122_000000.html" target="_top" xlink:title="1">
<text text-anchor="middle" x="65.8713" y="-46.2883" font-family="Helvetica,sans-Serif" font-size="10.00" fill="#000000">1</text>
</a>
</g>
</g>
<!-- dir_6ad7f2ab8ef00bea214c65f3ba81f481 -->
<g id="node2" class="node">
<title>dir_6ad7f2ab8ef00bea214c65f3ba81f481</title>
<g id="a_node2"><a xlink:href="dir_6ad7f2ab8ef00bea214c65f3ba81f481.html" target="_top" xlink:title="src">
<polygon fill="#eeeeff" stroke="#000000" points="100,-252 46,-252 46,-216 100,-216 100,-252"/>
<text text-anchor="middle" x="73" y="-231.5" font-family="Helvetica,sans-Serif" font-size="10.00" fill="#000000">src</text>
</a>
</g>
</g>
<!-- dir_6ad7f2ab8ef00bea214c65f3ba81f481&#45;&gt;dir_58692563475c8582953c11bc1da04f9e -->
<g id="edge3" class="edge">
<title>dir_6ad7f2ab8ef00bea214c65f3ba81f481&#45;&gt;dir_58692563475c8582953c11bc1da04f9e</title>
<path fill="none" stroke="#000000" d="M73,-215.8314C73,-208.131 73,-198.9743 73,-190.4166"/>
<polygon fill="#000000" stroke="#000000" points="76.5001,-190.4132 73,-180.4133 69.5001,-190.4133 76.5001,-190.4132"/>
<g id="a_edge3&#45;headlabel"><a xlink:href="dir_000021_000122.html" target="_top" xlink:title="1">
<text text-anchor="middle" x="79.3393" y="-191.5079" font-family="Helvetica,sans-Serif" font-size="10.00" fill="#000000">1</text>
</a>
</g>
</g>
<!-- dir_6ad7f2ab8ef00bea214c65f3ba81f481&#45;&gt;dir_9be0baa3d4a3e9f480a9ee70594037fa -->
<g id="edge4" class="edge">
<title>dir_6ad7f2ab8ef00bea214c65f3ba81f481&#45;&gt;dir_9be0baa3d4a3e9f480a9ee70594037fa</title>
<path fill="none" stroke="#000000" d="M57.6025,-215.7193C50.1014,-205.7854 41.7049,-192.9159 37,-180 29.792,-160.2124 27.3893,-136.4903 26.7367,-118.3693"/>
<polygon fill="#000000" stroke="#000000" points="30.2317,-118.0852 26.5302,-108.158 23.2332,-118.2267 30.2317,-118.0852"/>
<g id="a_edge4&#45;headlabel"><a xlink:href="dir_000021_000140.html" target="_top" xlink:title="18">
<text text-anchor="middle" x="33.143" y="-119.1217" font-family="Helvetica,sans-Serif" font-size="10.00" fill="#000000">18</text>
</a>
</g>
</g>
<!-- dir_6ad7f2ab8ef00bea214c65f3ba81f481&#45;&gt;dir_bdd9a5d540de89e9fe90efdfc6973a4f -->
<g id="edge5" class="edge">
<title>dir_6ad7f2ab8ef00bea214c65f3ba81f481&#45;&gt;dir_bdd9a5d540de89e9fe90efdfc6973a4f</title>
<path fill="none" stroke="#000000" d="M88.9905,-215.9169C96.6538,-206.0371 105.0166,-193.1563 109,-180 114.6669,-161.2835 113.231,-155.0924 109,-136 101.6935,-103.0291 84.1803,-68.3488 70.8636,-45.186"/>
<polygon fill="#000000" stroke="#000000" points="73.7242,-43.1459 65.6361,-36.3024 67.6913,-46.6961 73.7242,-43.1459"/>
<g id="a_edge5&#45;headlabel"><a xlink:href="dir_000021_000000.html" target="_top" xlink:title="4">
<text text-anchor="middle" x="77.9942" y="-42.3039" font-family="Helvetica,sans-Serif" font-size="10.00" fill="#000000">4</text>
</a>
</g>
</g>
<!-- dir_9be0baa3d4a3e9f480a9ee70594037fa&#45;&gt;dir_bdd9a5d540de89e9fe90efdfc6973a4f -->
<g id="edge6" class="edge">
<title>dir_9be0baa3d4a3e9f480a9ee70594037fa&#45;&gt;dir_bdd9a5d540de89e9fe90efdfc6973a4f</title>
<path fill="none" stroke="#000000" d="M27.8608,-71.8314C30.0685,-63.8771 33.4239,-54.369 37.0776,-45.5723"/>
<polygon fill="#000000" stroke="#000000" points="40.2841,-46.9752 41.119,-36.4133 33.8798,-44.1492 40.2841,-46.9752"/>
<g id="a_edge6&#45;headlabel"><a xlink:href="dir_000140_000000.html" target="_top" xlink:title="12">
<text text-anchor="middle" x="41.4306" y="-48.91" font-family="Helvetica,sans-Serif" font-size="10.00" fill="#000000">12</text>
</a>
</g>
</g>
<!-- dir_bdd9a5d540de89e9fe90efdfc6973a4f&#45;&gt;dir_9be0baa3d4a3e9f480a9ee70594037fa -->
<g id="edge7" class="edge">
<title>dir_bdd9a5d540de89e9fe90efdfc6973a4f&#45;&gt;dir_9be0baa3d4a3e9f480a9ee70594037fa</title>
<path fill="none" stroke="#000000" d="M53.071,-36.4133C50.8637,-44.3141 47.5414,-53.7132 43.9269,-62.417"/>
<polygon fill="#000000" stroke="#000000" points="40.6073,-61.27 39.7656,-71.8314 47.0097,-64.1 40.6073,-61.27"/>
<g id="a_edge7&#45;headlabel"><a xlink:href="dir_000000_000140.html" target="_top" xlink:title="5">
<text text-anchor="middle" x="39.4635" y="-54.3344" font-family="Helvetica,sans-Serif" font-size="10.00" fill="#000000">5</text>
</a>
</g>
</g>
</g>
</svg>
