<?xml version="1.0" encoding="UTF-8" standalone="no"?>
<!DOCTYPE svg PUBLIC "-//W3C//DTD SVG 1.1//EN"
 "http://www.w3.org/Graphics/SVG/1.1/DTD/svg11.dtd">
<!-- Generated by graphviz version 2.40.1 (20161225.0304)
 -->
<!-- Title: iop/fs/filexio/src/fileXio_iop.c Pages: 1 -->
<!--zoomable 263 -->
<svg id="main" version="1.1" xmlns="http://www.w3.org/2000/svg" xmlns:xlink="http://www.w3.org/1999/xlink" xml:space="preserve" onload="init(evt)">
<style type="text/css"><![CDATA[
.edge:hover path { stroke: red; }
.edge:hover polygon { stroke: red; fill: red; }
]]></style>
<script type="text/javascript"><![CDATA[
var edges = document.getElementsByTagName('g');
if (edges && edges.length) {
  for (var i=0;i<edges.length;i++) {
    if (edges[i].id.substr(0,4)=='edge') {
      edges[i].setAttribute('class','edge');
    }
  }
}
]]></script>
        <defs>
                <circle id="rim" cx="0" cy="0" r="7"/>
                <circle id="rim2" cx="0" cy="0" r="3.5"/>
                <g id="zoomPlus">
                        <use xlink:href="#rim" fill="#404040">
                                <set attributeName="fill" to="#808080" begin="zoomplus.mouseover" end="zoomplus.mouseout"/>
                        </use>
                        <path d="M-4,0h8M0,-4v8" fill="none" stroke="white" stroke-width="1.5" pointer-events="none"/>
                </g>
                <g id="zoomMin">
                        <use xlink:href="#rim" fill="#404040">
                                <set attributeName="fill" to="#808080" begin="zoomminus.mouseover" end="zoomminus.mouseout"/>
                        </use>
                        <path d="M-4,0h8" fill="none" stroke="white" stroke-width="1.5" pointer-events="none"/>
                </g>
                <g id="dirArrow">
                        <path fill="none" stroke="white" stroke-width="1.5" d="M0,-3.0v7 M-2.5,-0.5L0,-3.0L2.5,-0.5"/>
                </g>
               <g id="resetDef">
                       <use xlink:href="#rim2" fill="#404040">
                               <set attributeName="fill" to="#808080" begin="reset.mouseover" end="reset.mouseout"/>
                       </use>
               </g>
        </defs>

<script type="text/javascript">
var viewWidth = 919;
var viewHeight = 263;
var sectionId = 'dynsection-0';
</script>
<script xlink:href="svgpan.js"/>
<svg id="graph" class="graph">
<g id="viewport">
<title>iop/fs/filexio/src/fileXio_iop.c</title>
<polygon fill="#ffffff" stroke="transparent" points="-4,4 -4,-259 914.5,-259 914.5,4 -4,4"/>
<!-- Node1 -->
<g id="node1" class="node">
<title>Node1</title>
<g id="a_node1"><a xlink:title=" ">
<polygon fill="#bfbfbf" stroke="#000000" points="408.5,-224.5 408.5,-254.5 502.5,-254.5 502.5,-224.5 408.5,-224.5"/>
<text text-anchor="start" x="416.5" y="-242.5" font-family="Helvetica,sans-Serif" font-size="10.00" fill="#000000">iop/fs/filexio/src</text>
<text text-anchor="middle" x="455.5" y="-231.5" font-family="Helvetica,sans-Serif" font-size="10.00" fill="#000000">/fileXio_iop.c</text>
</a>
</g>
</g>
<!-- Node2 -->
<g id="node2" class="node">
<title>Node2</title>
<g id="a_node2"><a xlink:title=" ">
<polygon fill="#ffffff" stroke="#bfbfbf" points="0,-168.5 0,-187.5 53,-187.5 53,-168.5 0,-168.5"/>
<text text-anchor="middle" x="26.5" y="-175.5" font-family="Helvetica,sans-Serif" font-size="10.00" fill="#000000">types.h</text>
</a>
</g>
</g>
<!-- Node1&#45;&gt;Node2 -->
<g id="edge1" class="edge">
<title>Node1&#45;&gt;Node2</title>
<path fill="none" stroke="#191970" d="M408.2625,-235.4748C335.9876,-228.8436 193.5394,-213.9127 63.2887,-187.9037"/>
<polygon fill="#191970" stroke="#191970" points="63.6307,-184.402 53.135,-185.8483 62.2418,-191.2628 63.6307,-184.402"/>
</g>
<!-- Node3 -->
<g id="node3" class="node">
<title>Node3</title>
<g id="a_node3"><a xlink:href="stdio_8h.html" target="_top" xlink:title=" ">
<polygon fill="#ffffff" stroke="#000000" points="235.5,-168.5 235.5,-187.5 285.5,-187.5 285.5,-168.5 235.5,-168.5"/>
<text text-anchor="middle" x="260.5" y="-175.5" font-family="Helvetica,sans-Serif" font-size="10.00" fill="#000000">stdio.h</text>
</a>
</g>
</g>
<!-- Node1&#45;&gt;Node3 -->
<g id="edge2" class="edge">
<title>Node1&#45;&gt;Node3</title>
<path fill="none" stroke="#191970" d="M408.2959,-224.6126C373.4098,-213.61 326.6934,-198.8764 295.1976,-188.9431"/>
<polygon fill="#191970" stroke="#191970" points="296.1305,-185.5674 285.5408,-185.8975 294.025,-192.2433 296.1305,-185.5674"/>
</g>
<!-- Node9 -->
<g id="node9" class="node">
<title>Node9</title>
<g id="a_node9"><a xlink:href="sysclib_8h.html" target="_top" xlink:title=" ">
<polygon fill="#ffffff" stroke="#000000" points="158,-168.5 158,-187.5 217,-187.5 217,-168.5 158,-168.5"/>
<text text-anchor="middle" x="187.5" y="-175.5" font-family="Helvetica,sans-Serif" font-size="10.00" fill="#000000">sysclib.h</text>
</a>
</g>
</g>
<!-- Node1&#45;&gt;Node9 -->
<g id="edge8" class="edge">
<title>Node1&#45;&gt;Node9</title>
<path fill="none" stroke="#191970" d="M408.477,-229.3541C364.2903,-219.7238 296.0655,-204.6085 227.4165,-188.1697"/>
<polygon fill="#191970" stroke="#191970" points="227.8288,-184.6692 217.2877,-185.7352 226.1929,-191.4753 227.8288,-184.6692"/>
</g>
<!-- Node11 -->
<g id="node11" class="node">
<title>Node11</title>
<g id="a_node11"><a xlink:href="thbase_8h.html" target="_top" xlink:title=" ">
<polygon fill="#ffffff" stroke="#000000" points="304,-168.5 304,-187.5 363,-187.5 363,-168.5 304,-168.5"/>
<text text-anchor="middle" x="333.5" y="-175.5" font-family="Helvetica,sans-Serif" font-size="10.00" fill="#000000">thbase.h</text>
</a>
</g>
</g>
<!-- Node1&#45;&gt;Node11 -->
<g id="edge14" class="edge">
<title>Node1&#45;&gt;Node11</title>
<path fill="none" stroke="#191970" d="M425.6554,-224.4554C406.103,-214.599 380.7128,-201.7999 361.5355,-192.1327"/>
<polygon fill="#191970" stroke="#191970" points="362.9108,-188.9064 352.4057,-187.5303 359.7598,-195.1571 362.9108,-188.9064"/>
</g>
<!-- Node12 -->
<g id="node12" class="node">
<title>Node12</title>
<g id="a_node12"><a xlink:href="intrman_8h.html" target="_top" xlink:title=" ">
<polygon fill="#ffffff" stroke="#000000" points="381.5,-168.5 381.5,-187.5 445.5,-187.5 445.5,-168.5 381.5,-168.5"/>
<text text-anchor="middle" x="413.5" y="-175.5" font-family="Helvetica,sans-Serif" font-size="10.00" fill="#000000">intrman.h</text>
</a>
</g>
</g>
<!-- Node1&#45;&gt;Node12 -->
<g id="edge17" class="edge">
<title>Node1&#45;&gt;Node12</title>
<path fill="none" stroke="#191970" d="M445.118,-224.2977C439.3487,-215.8498 432.1284,-205.2773 426.0447,-196.369"/>
<polygon fill="#191970" stroke="#191970" points="428.7547,-194.1311 420.2247,-187.8469 422.9741,-198.0788 428.7547,-194.1311"/>
</g>
<!-- Node13 -->
<g id="node13" class="node">
<title>Node13</title>
<g id="a_node13"><a xlink:href="iomanX_8h.html" target="_top" xlink:title=" ">
<polygon fill="#ffffff" stroke="#000000" points="704,-168.5 704,-187.5 767,-187.5 767,-168.5 704,-168.5"/>
<text text-anchor="middle" x="735.5" y="-175.5" font-family="Helvetica,sans-Serif" font-size="10.00" fill="#000000">iomanX.h</text>
</a>
</g>
</g>
<!-- Node1&#45;&gt;Node13 -->
<g id="edge20" class="edge">
<title>Node1&#45;&gt;Node13</title>
<path fill="none" stroke="#191970" d="M502.5115,-229.8991C548.7956,-220.3378 621.7465,-204.9777 693.5284,-188.411"/>
<polygon fill="#191970" stroke="#191970" points="694.6951,-191.7335 703.6465,-186.0658 693.1145,-184.9142 694.6951,-191.7335"/>
</g>
<!-- Node19 -->
<g id="node19" class="node">
<title>Node19</title>
<g id="a_node19"><a xlink:href="loadcore_8h.html" target="_top" xlink:title=" ">
<polygon fill="#ffffff" stroke="#000000" points="463.5,-168.5 463.5,-187.5 531.5,-187.5 531.5,-168.5 463.5,-168.5"/>
<text text-anchor="middle" x="497.5" y="-175.5" font-family="Helvetica,sans-Serif" font-size="10.00" fill="#000000">loadcore.h</text>
</a>
</g>
</g>
<!-- Node1&#45;&gt;Node19 -->
<g id="edge28" class="edge">
<title>Node1&#45;&gt;Node19</title>
<path fill="none" stroke="#191970" d="M465.882,-224.2977C471.6513,-215.8498 478.8716,-205.2773 484.9553,-196.369"/>
<polygon fill="#191970" stroke="#191970" points="488.0259,-198.0788 490.7753,-187.8469 482.2453,-194.1311 488.0259,-198.0788"/>
</g>
<!-- Node20 -->
<g id="node20" class="node">
<title>Node20</title>
<g id="a_node20"><a xlink:href="sysmem_8h.html" target="_top" xlink:title=" ">
<polygon fill="#ffffff" stroke="#000000" points="71.5,-168.5 71.5,-187.5 139.5,-187.5 139.5,-168.5 71.5,-168.5"/>
<text text-anchor="middle" x="105.5" y="-175.5" font-family="Helvetica,sans-Serif" font-size="10.00" fill="#000000">sysmem.h</text>
</a>
</g>
</g>
<!-- Node1&#45;&gt;Node20 -->
<g id="edge31" class="edge">
<title>Node1&#45;&gt;Node20</title>
<path fill="none" stroke="#191970" d="M408.262,-232.511C349.844,-223.6606 247.1534,-207.4289 149.7415,-188.1581"/>
<polygon fill="#191970" stroke="#191970" points="150.2171,-184.6841 139.7258,-186.1621 148.8489,-191.5491 150.2171,-184.6841"/>
</g>
<!-- Node21 -->
<g id="node21" class="node">
<title>Node21</title>
<g id="a_node21"><a xlink:href="sifman_8h.html" target="_top" xlink:title=" ">
<polygon fill="#ffffff" stroke="#000000" points="550,-168.5 550,-187.5 609,-187.5 609,-168.5 550,-168.5"/>
<text text-anchor="middle" x="579.5" y="-175.5" font-family="Helvetica,sans-Serif" font-size="10.00" fill="#000000">sifman.h</text>
</a>
</g>
</g>
<!-- Node1&#45;&gt;Node21 -->
<g id="edge35" class="edge">
<title>Node1&#45;&gt;Node21</title>
<path fill="none" stroke="#191970" d="M485.8338,-224.4554C505.7976,-214.554 531.749,-201.683 551.2715,-192.0004"/>
<polygon fill="#191970" stroke="#191970" points="552.8809,-195.1091 560.2844,-187.5303 549.7706,-188.838 552.8809,-195.1091"/>
</g>
<!-- Node22 -->
<g id="node22" class="node">
<title>Node22</title>
<g id="a_node22"><a xlink:href="sifcmd_8h.html" target="_top" xlink:title=" ">
<polygon fill="#ffffff" stroke="#000000" points="627,-168.5 627,-187.5 686,-187.5 686,-168.5 627,-168.5"/>
<text text-anchor="middle" x="656.5" y="-175.5" font-family="Helvetica,sans-Serif" font-size="10.00" fill="#000000">sifcmd.h</text>
</a>
</g>
</g>
<!-- Node1&#45;&gt;Node22 -->
<g id="edge38" class="edge">
<title>Node1&#45;&gt;Node22</title>
<path fill="none" stroke="#191970" d="M502.6256,-225.081C537.4322,-214.4312 584.2717,-200.0997 617.097,-190.0561"/>
<polygon fill="#191970" stroke="#191970" points="618.2671,-193.3584 626.8054,-187.0856 616.219,-186.6647 618.2671,-193.3584"/>
</g>
<!-- Node23 -->
<g id="node23" class="node">
<title>Node23</title>
<g id="a_node23"><a xlink:href="errno_8h.html" target="_top" xlink:title=" ">
<polygon fill="#ffffff" stroke="#000000" points="785,-168.5 785,-187.5 836,-187.5 836,-168.5 785,-168.5"/>
<text text-anchor="middle" x="810.5" y="-175.5" font-family="Helvetica,sans-Serif" font-size="10.00" fill="#000000">errno.h</text>
</a>
</g>
</g>
<!-- Node1&#45;&gt;Node23 -->
<g id="edge41" class="edge">
<title>Node1&#45;&gt;Node23</title>
<path fill="none" stroke="#191970" d="M502.6388,-233.8434C563.5679,-226.1123 673.0493,-210.7984 775.1188,-188.1054"/>
<polygon fill="#191970" stroke="#191970" points="775.9849,-191.498 784.9715,-185.8862 774.4468,-184.6691 775.9849,-191.498"/>
</g>
<!-- Node24 -->
<g id="node24" class="node">
<title>Node24</title>
<g id="a_node24"><a xlink:href="fileXio_8h.html" target="_top" xlink:title=" ">
<polygon fill="#ffffff" stroke="#000000" points="854.5,-168.5 854.5,-187.5 910.5,-187.5 910.5,-168.5 854.5,-168.5"/>
<text text-anchor="middle" x="882.5" y="-175.5" font-family="Helvetica,sans-Serif" font-size="10.00" fill="#000000">fileXio.h</text>
</a>
</g>
</g>
<!-- Node1&#45;&gt;Node24 -->
<g id="edge42" class="edge">
<title>Node1&#45;&gt;Node24</title>
<path fill="none" stroke="#191970" d="M502.6565,-235.3115C574.4478,-228.4894 715.5517,-213.3347 844.2757,-188.031"/>
<polygon fill="#191970" stroke="#191970" points="845.1859,-191.4185 854.3097,-186.0326 843.8186,-184.5533 845.1859,-191.4185"/>
</g>
<!-- Node4 -->
<g id="node4" class="node">
<title>Node4</title>
<g id="a_node4"><a xlink:title=" ">
<polygon fill="#ffffff" stroke="#bfbfbf" points="232.5,-112.5 232.5,-131.5 288.5,-131.5 288.5,-112.5 232.5,-112.5"/>
<text text-anchor="middle" x="260.5" y="-119.5" font-family="Helvetica,sans-Serif" font-size="10.00" fill="#000000">stdarg.h</text>
</a>
</g>
</g>
<!-- Node3&#45;&gt;Node4 -->
<g id="edge3" class="edge">
<title>Node3&#45;&gt;Node4</title>
<path fill="none" stroke="#191970" d="M260.5,-168.2455C260.5,-160.9382 260.5,-150.6944 260.5,-141.7046"/>
<polygon fill="#191970" stroke="#191970" points="264.0001,-141.6426 260.5,-131.6427 257.0001,-141.6427 264.0001,-141.6426"/>
</g>
<!-- Node5 -->
<g id="node5" class="node">
<title>Node5</title>
<g id="a_node5"><a xlink:href="irx_8h.html" target="_top" xlink:title=" ">
<polygon fill="#ffffff" stroke="#000000" points="431.5,-112.5 431.5,-131.5 469.5,-131.5 469.5,-112.5 431.5,-112.5"/>
<text text-anchor="middle" x="450.5" y="-119.5" font-family="Helvetica,sans-Serif" font-size="10.00" fill="#000000">irx.h</text>
</a>
</g>
</g>
<!-- Node3&#45;&gt;Node5 -->
<g id="edge4" class="edge">
<title>Node3&#45;&gt;Node5</title>
<path fill="none" stroke="#191970" d="M285.7305,-170.5636C320.9776,-160.175 384.7823,-141.3694 421.8002,-130.4589"/>
<polygon fill="#191970" stroke="#191970" points="422.8823,-133.7889 431.4848,-127.6045 420.9032,-127.0745 422.8823,-133.7889"/>
</g>
<!-- Node6 -->
<g id="node6" class="node">
<title>Node6</title>
<g id="a_node6"><a xlink:href="types_8h.html" target="_top" xlink:title=" ">
<polygon fill="#ffffff" stroke="#000000" points="424,-56.5 424,-75.5 477,-75.5 477,-56.5 424,-56.5"/>
<text text-anchor="middle" x="450.5" y="-63.5" font-family="Helvetica,sans-Serif" font-size="10.00" fill="#000000">types.h</text>
</a>
</g>
</g>
<!-- Node5&#45;&gt;Node6 -->
<g id="edge5" class="edge">
<title>Node5&#45;&gt;Node6</title>
<path fill="none" stroke="#191970" d="M450.5,-112.2455C450.5,-104.9382 450.5,-94.6944 450.5,-85.7046"/>
<polygon fill="#191970" stroke="#191970" points="454.0001,-85.6426 450.5,-75.6427 447.0001,-85.6427 454.0001,-85.6426"/>
</g>
<!-- Node7 -->
<g id="node7" class="node">
<title>Node7</title>
<g id="a_node7"><a xlink:title=" ">
<polygon fill="#ffffff" stroke="#bfbfbf" points="381.5,-.5 381.5,-19.5 437.5,-19.5 437.5,-.5 381.5,-.5"/>
<text text-anchor="middle" x="409.5" y="-7.5" font-family="Helvetica,sans-Serif" font-size="10.00" fill="#000000">stddef.h</text>
</a>
</g>
</g>
<!-- Node6&#45;&gt;Node7 -->
<g id="edge6" class="edge">
<title>Node6&#45;&gt;Node7</title>
<path fill="none" stroke="#191970" d="M443.3583,-56.2455C437.6556,-48.4564 429.51,-37.3308 422.6375,-27.9439"/>
<polygon fill="#191970" stroke="#191970" points="425.2913,-25.6437 416.5598,-19.6427 419.6432,-29.7789 425.2913,-25.6437"/>
</g>
<!-- Node8 -->
<g id="node8" class="node">
<title>Node8</title>
<g id="a_node8"><a xlink:href="tamtypes_8h.html" target="_top" xlink:title=" ">
<polygon fill="#ffffff" stroke="#000000" points="455.5,-.5 455.5,-19.5 527.5,-19.5 527.5,-.5 455.5,-.5"/>
<text text-anchor="middle" x="491.5" y="-7.5" font-family="Helvetica,sans-Serif" font-size="10.00" fill="#000000">tamtypes.h</text>
</a>
</g>
</g>
<!-- Node6&#45;&gt;Node8 -->
<g id="edge7" class="edge">
<title>Node6&#45;&gt;Node8</title>
<path fill="none" stroke="#191970" d="M457.6417,-56.2455C463.3444,-48.4564 471.49,-37.3308 478.3625,-27.9439"/>
<polygon fill="#191970" stroke="#191970" points="481.3568,-29.7789 484.4402,-19.6427 475.7087,-25.6437 481.3568,-29.7789"/>
</g>
<!-- Node9&#45;&gt;Node4 -->
<g id="edge11" class="edge">
<title>Node9&#45;&gt;Node4</title>
<path fill="none" stroke="#191970" d="M200.2156,-168.2455C211.102,-159.8943 226.9883,-147.7076 239.72,-137.9408"/>
<polygon fill="#191970" stroke="#191970" points="242.1261,-140.5063 247.9301,-131.6427 237.8654,-134.9523 242.1261,-140.5063"/>
</g>
<!-- Node9&#45;&gt;Node5 -->
<g id="edge10" class="edge">
<title>Node9&#45;&gt;Node5</title>
<path fill="none" stroke="#191970" d="M217.2742,-170.2073C220.3845,-169.4407 223.5032,-168.6915 226.5,-168 296.0405,-151.9542 378.371,-135.7609 421.2387,-127.5394"/>
<polygon fill="#191970" stroke="#191970" points="422.0896,-130.9402 431.2552,-125.6259 420.776,-124.0646 422.0896,-130.9402"/>
</g>
<!-- Node9&#45;&gt;Node6 -->
<g id="edge9" class="edge">
<title>Node9&#45;&gt;Node6</title>
<path fill="none" stroke="#191970" d="M189.9937,-168.1794C194.2539,-153.5124 204.3855,-126.104 223.5,-112 253.213,-90.0757 357.1313,-75.9331 413.4864,-69.6912"/>
<polygon fill="#191970" stroke="#191970" points="414.1905,-73.1357 423.7573,-68.5829 413.4394,-66.1761 414.1905,-73.1357"/>
</g>
<!-- Node10 -->
<g id="node10" class="node">
<title>Node10</title>
<g id="a_node10"><a xlink:href="setjmp_8h.html" target="_top" xlink:title=" ">
<polygon fill="#ffffff" stroke="#000000" points="242,-56.5 242,-75.5 301,-75.5 301,-56.5 242,-56.5"/>
<text text-anchor="middle" x="271.5" y="-63.5" font-family="Helvetica,sans-Serif" font-size="10.00" fill="#000000">setjmp.h</text>
</a>
</g>
</g>
<!-- Node9&#45;&gt;Node10 -->
<g id="edge12" class="edge">
<title>Node9&#45;&gt;Node10</title>
<path fill="none" stroke="#191970" d="M185.1943,-168.2005C182.548,-154.5159 179.8306,-129.4073 190.5,-112 199.948,-96.5853 216.5917,-85.8613 232.3445,-78.6707"/>
<polygon fill="#191970" stroke="#191970" points="234.0946,-81.7323 241.9653,-74.6399 231.3896,-75.2761 234.0946,-81.7323"/>
</g>
<!-- Node10&#45;&gt;Node8 -->
<g id="edge13" class="edge">
<title>Node10&#45;&gt;Node8</title>
<path fill="none" stroke="#191970" d="M301.1702,-58.4476C338.2746,-49.0028 402.191,-32.7332 445.6202,-21.6785"/>
<polygon fill="#191970" stroke="#191970" points="446.546,-25.0545 455.3736,-19.1958 444.8192,-18.2708 446.546,-25.0545"/>
</g>
<!-- Node11&#45;&gt;Node5 -->
<g id="edge16" class="edge">
<title>Node11&#45;&gt;Node5</title>
<path fill="none" stroke="#191970" d="M353.613,-168.3733C372.537,-159.3156 401.0561,-145.6655 422.2583,-135.5174"/>
<polygon fill="#191970" stroke="#191970" points="423.9152,-138.6047 431.4242,-131.1303 420.8931,-132.2906 423.9152,-138.6047"/>
</g>
<!-- Node11&#45;&gt;Node6 -->
<g id="edge15" class="edge">
<title>Node11&#45;&gt;Node6</title>
<path fill="none" stroke="#191970" d="M343.4754,-168.4509C363.4213,-149.3574 408.4325,-106.2697 433.2568,-82.5063"/>
<polygon fill="#191970" stroke="#191970" points="435.7464,-84.9683 440.5499,-75.5249 430.9059,-79.9116 435.7464,-84.9683"/>
</g>
<!-- Node12&#45;&gt;Node5 -->
<g id="edge19" class="edge">
<title>Node12&#45;&gt;Node5</title>
<path fill="none" stroke="#191970" d="M419.9449,-168.2455C425.0382,-160.5367 432.2908,-149.5598 438.452,-140.2348"/>
<polygon fill="#191970" stroke="#191970" points="441.5365,-141.9155 444.1289,-131.6427 435.6962,-138.0566 441.5365,-141.9155"/>
</g>
<!-- Node12&#45;&gt;Node6 -->
<g id="edge18" class="edge">
<title>Node12&#45;&gt;Node6</title>
<path fill="none" stroke="#191970" d="M413.5923,-168.3116C413.99,-155.183 415.6902,-131.1803 422.5,-112 426,-102.142 431.7894,-92.1138 437.1983,-83.9474"/>
<polygon fill="#191970" stroke="#191970" points="440.1517,-85.8311 443.0012,-75.6267 434.41,-81.8269 440.1517,-85.8311"/>
</g>
<!-- Node13&#45;&gt;Node5 -->
<g id="edge22" class="edge">
<title>Node13&#45;&gt;Node5</title>
<path fill="none" stroke="#191970" d="M703.6633,-169.8597C700.9071,-169.21 698.1573,-168.5811 695.5,-168 617.8373,-151.0171 525.4843,-134.7221 479.5091,-126.8719"/>
<polygon fill="#191970" stroke="#191970" points="480.0835,-123.4194 469.6385,-125.1948 478.9109,-130.3205 480.0835,-123.4194"/>
</g>
<!-- Node13&#45;&gt;Node6 -->
<g id="edge21" class="edge">
<title>Node13&#45;&gt;Node6</title>
<path fill="none" stroke="#191970" d="M711.2011,-168.4509C660.3012,-148.4482 542.3915,-102.1117 484.2107,-79.2477"/>
<polygon fill="#191970" stroke="#191970" points="485.3247,-75.925 474.7374,-75.5249 482.7644,-82.44 485.3247,-75.925"/>
</g>
<!-- Node14 -->
<g id="node14" class="node">
<title>Node14</title>
<g id="a_node14"><a xlink:href="io__common_8h.html" target="_top" xlink:title=" ">
<polygon fill="#ffffff" stroke="#000000" points="688,-112.5 688,-131.5 771,-131.5 771,-112.5 688,-112.5"/>
<text text-anchor="middle" x="729.5" y="-119.5" font-family="Helvetica,sans-Serif" font-size="10.00" fill="#000000">io_common.h</text>
</a>
</g>
</g>
<!-- Node13&#45;&gt;Node14 -->
<g id="edge23" class="edge">
<title>Node13&#45;&gt;Node14</title>
<path fill="none" stroke="#191970" d="M734.4549,-168.2455C733.672,-160.9382 732.5744,-150.6944 731.6112,-141.7046"/>
<polygon fill="#191970" stroke="#191970" points="735.0786,-141.2129 730.5331,-131.6427 728.1185,-141.9587 735.0786,-141.2129"/>
</g>
<!-- Node17 -->
<g id="node17" class="node">
<title>Node17</title>
<g id="a_node17"><a xlink:href="iox__stat_8h.html" target="_top" xlink:title=" ">
<polygon fill="#ffffff" stroke="#000000" points="789,-112.5 789,-131.5 854,-131.5 854,-112.5 789,-112.5"/>
<text text-anchor="middle" x="821.5" y="-119.5" font-family="Helvetica,sans-Serif" font-size="10.00" fill="#000000">iox_stat.h</text>
</a>
</g>
</g>
<!-- Node13&#45;&gt;Node17 -->
<g id="edge26" class="edge">
<title>Node13&#45;&gt;Node17</title>
<path fill="none" stroke="#191970" d="M750.4801,-168.2455C763.6751,-159.6534 783.1051,-147.0014 798.3079,-137.1018"/>
<polygon fill="#191970" stroke="#191970" points="800.2215,-140.0325 806.6916,-131.6427 796.4017,-134.1665 800.2215,-140.0325"/>
</g>
<!-- Node15 -->
<g id="node15" class="node">
<title>Node15</title>
<g id="a_node15"><a xlink:href="fcntl_8h.html" target="_top" xlink:title=" ">
<polygon fill="#ffffff" stroke="#000000" points="607,-56.5 607,-75.5 674,-75.5 674,-56.5 607,-56.5"/>
<text text-anchor="middle" x="640.5" y="-63.5" font-family="Helvetica,sans-Serif" font-size="10.00" fill="#000000">sys/fcntl.h</text>
</a>
</g>
</g>
<!-- Node14&#45;&gt;Node15 -->
<g id="edge24" class="edge">
<title>Node14&#45;&gt;Node15</title>
<path fill="none" stroke="#191970" d="M713.9974,-112.2455C700.342,-103.6534 680.2343,-91.0014 664.5011,-81.1018"/>
<polygon fill="#191970" stroke="#191970" points="666.1529,-78.006 655.825,-75.6427 662.4249,-83.9307 666.1529,-78.006"/>
</g>
<!-- Node16 -->
<g id="node16" class="node">
<title>Node16</title>
<g id="a_node16"><a xlink:href="unistd_8h.html" target="_top" xlink:title=" ">
<polygon fill="#ffffff" stroke="#000000" points="692,-56.5 692,-75.5 767,-75.5 767,-56.5 692,-56.5"/>
<text text-anchor="middle" x="729.5" y="-63.5" font-family="Helvetica,sans-Serif" font-size="10.00" fill="#000000">sys/unistd.h</text>
</a>
</g>
</g>
<!-- Node14&#45;&gt;Node16 -->
<g id="edge25" class="edge">
<title>Node14&#45;&gt;Node16</title>
<path fill="none" stroke="#191970" d="M729.5,-112.2455C729.5,-104.9382 729.5,-94.6944 729.5,-85.7046"/>
<polygon fill="#191970" stroke="#191970" points="733.0001,-85.6426 729.5,-75.6427 726.0001,-85.6427 733.0001,-85.6426"/>
</g>
<!-- Node18 -->
<g id="node18" class="node">
<title>Node18</title>
<g id="a_node18"><a xlink:href="time_8h.html" target="_top" xlink:title=" ">
<polygon fill="#ffffff" stroke="#000000" points="786.5,-56.5 786.5,-75.5 854.5,-75.5 854.5,-56.5 786.5,-56.5"/>
<text text-anchor="middle" x="820.5" y="-63.5" font-family="Helvetica,sans-Serif" font-size="10.00" fill="#000000">sys/time.h</text>
</a>
</g>
</g>
<!-- Node17&#45;&gt;Node18 -->
<g id="edge27" class="edge">
<title>Node17&#45;&gt;Node18</title>
<path fill="none" stroke="#191970" d="M821.3258,-112.2455C821.1953,-104.9382 821.0124,-94.6944 820.8519,-85.7046"/>
<polygon fill="#191970" stroke="#191970" points="824.3503,-85.5786 820.6722,-75.6427 817.3514,-85.7036 824.3503,-85.5786"/>
</g>
<!-- Node19&#45;&gt;Node5 -->
<g id="edge30" class="edge">
<title>Node19&#45;&gt;Node5</title>
<path fill="none" stroke="#191970" d="M489.3132,-168.2455C482.6411,-160.2958 473.0521,-148.8706 465.0747,-139.3656"/>
<polygon fill="#191970" stroke="#191970" points="467.7026,-137.0524 458.593,-131.6427 462.3408,-141.5525 467.7026,-137.0524"/>
</g>
<!-- Node19&#45;&gt;Node6 -->
<g id="edge29" class="edge">
<title>Node19&#45;&gt;Node6</title>
<path fill="none" stroke="#191970" d="M495.5639,-168.3223C492.7513,-155.2057 486.9333,-131.2166 478.5,-112 474.2962,-102.4209 468.4182,-92.4278 463.1326,-84.2126"/>
<polygon fill="#191970" stroke="#191970" points="465.9931,-82.1934 457.5375,-75.8095 460.1665,-86.073 465.9931,-82.1934"/>
</g>
<!-- Node20&#45;&gt;Node4 -->
<g id="edge34" class="edge">
<title>Node20&#45;&gt;Node4</title>
<path fill="none" stroke="#191970" d="M132.1454,-168.3733C157.6964,-159.1419 196.4512,-145.1402 224.6909,-134.9375"/>
<polygon fill="#191970" stroke="#191970" points="225.9865,-138.1909 234.2022,-131.5011 223.6079,-131.6074 225.9865,-138.1909"/>
</g>
<!-- Node20&#45;&gt;Node5 -->
<g id="edge33" class="edge">
<title>Node20&#45;&gt;Node5</title>
<path fill="none" stroke="#191970" d="M139.7167,-169.7911C142.6813,-169.1563 145.6398,-168.5496 148.5,-168 247.9005,-148.9012 366.941,-132.7129 421.0918,-125.7103"/>
<polygon fill="#191970" stroke="#191970" points="421.8591,-129.1407 431.3321,-124.3959 420.9678,-122.1976 421.8591,-129.1407"/>
</g>
<!-- Node20&#45;&gt;Node6 -->
<g id="edge32" class="edge">
<title>Node20&#45;&gt;Node6</title>
<path fill="none" stroke="#191970" d="M116.2554,-168.4212C133.2743,-153.8167 168.0302,-126.1863 202.5,-112 273.6142,-82.7325 363.8662,-71.9726 413.5338,-68.1011"/>
<polygon fill="#191970" stroke="#191970" points="414.068,-71.5715 423.7878,-67.3555 413.5603,-64.59 414.068,-71.5715"/>
</g>
<!-- Node21&#45;&gt;Node5 -->
<g id="edge37" class="edge">
<title>Node21&#45;&gt;Node5</title>
<path fill="none" stroke="#191970" d="M557.3241,-168.3733C535.767,-159.0151 502.917,-144.7547 479.3389,-134.5192"/>
<polygon fill="#191970" stroke="#191970" points="480.4284,-131.1766 469.8617,-130.4051 477.6409,-137.5977 480.4284,-131.1766"/>
</g>
<!-- Node21&#45;&gt;Node6 -->
<g id="edge36" class="edge">
<title>Node21&#45;&gt;Node6</title>
<path fill="none" stroke="#191970" d="M568.5015,-168.4509C546.4147,-149.2747 496.4519,-105.8962 469.1576,-82.1988"/>
<polygon fill="#191970" stroke="#191970" points="471.3164,-79.438 461.4706,-75.5249 466.7271,-84.7238 471.3164,-79.438"/>
</g>
<!-- Node22&#45;&gt;Node5 -->
<g id="edge40" class="edge">
<title>Node22&#45;&gt;Node5</title>
<path fill="none" stroke="#191970" d="M626.9852,-169.9766C587.5648,-159.2603 518.1795,-140.3983 479.1849,-129.7978"/>
<polygon fill="#191970" stroke="#191970" points="480.0701,-126.4115 469.5021,-127.1656 478.2338,-133.1664 480.0701,-126.4115"/>
</g>
<!-- Node22&#45;&gt;Node6 -->
<g id="edge39" class="edge">
<title>Node22&#45;&gt;Node6</title>
<path fill="none" stroke="#191970" d="M638.9366,-168.4509C602.7539,-148.7788 519.724,-103.6363 476.9866,-80.4005"/>
<polygon fill="#191970" stroke="#191970" points="478.4763,-77.2266 468.019,-75.5249 475.1327,-83.3764 478.4763,-77.2266"/>
</g>
<!-- Node24&#45;&gt;Node8 -->
<g id="edge43" class="edge">
<title>Node24&#45;&gt;Node8</title>
<path fill="none" stroke="#191970" d="M884.4124,-168.3715C888.3866,-145.2521 894.7499,-86.2818 863.5,-56 840.4709,-33.6843 632.3667,-18.4623 537.8424,-12.64"/>
<polygon fill="#191970" stroke="#191970" points="537.9003,-9.1371 527.7066,-12.0249 537.4762,-16.1243 537.9003,-9.1371"/>
</g>
<!-- Node24&#45;&gt;Node17 -->
<g id="edge44" class="edge">
<title>Node24&#45;&gt;Node17</title>
<path fill="none" stroke="#191970" d="M871.8746,-168.2455C862.9527,-160.0549 850.012,-148.1749 839.4808,-138.5069"/>
<polygon fill="#191970" stroke="#191970" points="841.7371,-135.8271 832.0036,-131.6427 837.0032,-140.9837 841.7371,-135.8271"/>
</g>
</g>
</svg>
        <g id="navigator" transform="translate(0 0)" fill="#404254">
                <rect fill="#f2f5e9" fill-opacity="0.5" stroke="#606060" stroke-width=".5" x="0" y="0" width="60" height="60"/>
                <use id="zoomplus" xlink:href="#zoomPlus" x="17" y="9" onmousedown="handleZoom(evt,'in')"/>
                <use id="zoomminus" xlink:href="#zoomMin" x="42" y="9" onmousedown="handleZoom(evt,'out')"/>
                <use id="reset" xlink:href="#resetDef" x="30" y="36" onmousedown="handleReset()"/>
                <g id="arrowUp" xlink:href="#dirArrow" transform="translate(30 24)" onmousedown="handlePan(0,-1)">
                  <use xlink:href="#rim" fill="#404040">
                        <set attributeName="fill" to="#808080" begin="arrowUp.mouseover" end="arrowUp.mouseout"/>
                  </use>
                  <path fill="none" stroke="white" stroke-width="1.5" d="M0,-3.0v7 M-2.5,-0.5L0,-3.0L2.5,-0.5"/>
                </g>
                <g id="arrowRight" xlink:href="#dirArrow" transform="rotate(90) translate(36 -43)" onmousedown="handlePan(1,0)">
                  <use xlink:href="#rim" fill="#404040">
                        <set attributeName="fill" to="#808080" begin="arrowRight.mouseover" end="arrowRight.mouseout"/>
                  </use>
                  <path fill="none" stroke="white" stroke-width="1.5" d="M0,-3.0v7 M-2.5,-0.5L0,-3.0L2.5,-0.5"/>
                </g>
                <g id="arrowDown" xlink:href="#dirArrow" transform="rotate(180) translate(-30 -48)" onmousedown="handlePan(0,1)">
                  <use xlink:href="#rim" fill="#404040">
                        <set attributeName="fill" to="#808080" begin="arrowDown.mouseover" end="arrowDown.mouseout"/>
                  </use>
                  <path fill="none" stroke="white" stroke-width="1.5" d="M0,-3.0v7 M-2.5,-0.5L0,-3.0L2.5,-0.5"/>
                </g>
                <g id="arrowLeft" xlink:href="#dirArrow" transform="rotate(270) translate(-36 17)" onmousedown="handlePan(-1,0)">
                  <use xlink:href="#rim" fill="#404040">
                        <set attributeName="fill" to="#808080" begin="arrowLeft.mouseover" end="arrowLeft.mouseout"/>
                  </use>
                  <path fill="none" stroke="white" stroke-width="1.5" d="M0,-3.0v7 M-2.5,-0.5L0,-3.0L2.5,-0.5"/>
                </g>
        </g>
        <svg viewBox="0 0 15 15" width="100%" height="30px" preserveAspectRatio="xMaxYMin meet">
         <g id="arrow_out" transform="scale(0.3 0.3)">
          <a xlink:href="fileXio__iop_8c__incl_org.svg" target="_base">
           <rect id="button" ry="5" rx="5" y="6" x="6" height="38" width="38"
                fill="#f2f5e9" fill-opacity="0.5" stroke="#606060" stroke-width="1.0"/>
           <path id="arrow"
             d="M 11.500037,31.436501 C 11.940474,20.09759 22.043105,11.32322 32.158766,21.979434 L 37.068811,17.246167 C 37.068811,17.246167 37.088388,32 37.088388,32 L 22.160133,31.978069 C 22.160133,31.978069 26.997745,27.140456 26.997745,27.140456 C 18.528582,18.264221 13.291696,25.230495 11.500037,31.436501 z"
             style="fill:#404040;"/>
          </a>
         </g>
        </svg>
</svg>
