<?xml version="1.0" encoding="UTF-8" standalone="no"?>
<!DOCTYPE svg PUBLIC "-//W3C//DTD SVG 1.1//EN"
 "http://www.w3.org/Graphics/SVG/1.1/DTD/svg11.dtd">
<!-- Generated by graphviz version 2.40.1 (20161225.0304)
 -->
<!-- Title: iop/sound/libsd/src/freesd.c Pages: 1 -->
<svg width="498pt" height="263pt"
 viewBox="0.00 0.00 497.50 263.00" xmlns="http://www.w3.org/2000/svg" xmlns:xlink="http://www.w3.org/1999/xlink">
<g id="graph0" class="graph" transform="scale(1 1) rotate(0) translate(4 259)">
<title>iop/sound/libsd/src/freesd.c</title>
<polygon fill="#ffffff" stroke="transparent" points="-4,4 -4,-259 493.5,-259 493.5,4 -4,4"/>
<!-- Node1 -->
<g id="node1" class="node">
<title>Node1</title>
<g id="a_node1"><a xlink:title=" ">
<polygon fill="#bfbfbf" stroke="#000000" points="172,-224.5 172,-254.5 279,-254.5 279,-224.5 172,-224.5"/>
<text text-anchor="start" x="180" y="-242.5" font-family="Helvetica,sans-Serif" font-size="10.00" fill="#000000">iop/sound/libsd/src</text>
<text text-anchor="middle" x="225.5" y="-231.5" font-family="Helvetica,sans-Serif" font-size="10.00" fill="#000000">/freesd.c</text>
</a>
</g>
</g>
<!-- Node2 -->
<g id="node2" class="node">
<title>Node2</title>
<g id="a_node2"><a xlink:title=" ">
<polygon fill="#ffffff" stroke="#bfbfbf" points="0,-168.5 0,-187.5 53,-187.5 53,-168.5 0,-168.5"/>
<text text-anchor="middle" x="26.5" y="-175.5" font-family="Helvetica,sans-Serif" font-size="10.00" fill="#000000">types.h</text>
</a>
</g>
</g>
<!-- Node1&#45;&gt;Node2 -->
<g id="edge1" class="edge">
<title>Node1&#45;&gt;Node2</title>
<path fill="none" stroke="#191970" d="M176.8191,-224.4554C141.6211,-213.5776 94.8253,-199.1156 62.8537,-189.2349"/>
<polygon fill="#191970" stroke="#191970" points="63.6153,-185.807 53.0277,-186.1983 61.5484,-192.495 63.6153,-185.807"/>
</g>
<!-- Node3 -->
<g id="node3" class="node">
<title>Node3</title>
<g id="a_node3"><a xlink:href="irx_8h.html" target="_top" xlink:title=" ">
<polygon fill="#ffffff" stroke="#000000" points="148.5,-112.5 148.5,-131.5 186.5,-131.5 186.5,-112.5 148.5,-112.5"/>
<text text-anchor="middle" x="167.5" y="-119.5" font-family="Helvetica,sans-Serif" font-size="10.00" fill="#000000">irx.h</text>
</a>
</g>
</g>
<!-- Node1&#45;&gt;Node3 -->
<g id="edge2" class="edge">
<title>Node1&#45;&gt;Node3</title>
<path fill="none" stroke="#191970" d="M209.3852,-224.2161C200.2003,-214.6394 189.2167,-201.5709 182.5,-188 175.3332,-173.5195 171.5378,-155.5541 169.5597,-142.0248"/>
<polygon fill="#191970" stroke="#191970" points="173.0047,-141.3661 168.2914,-131.8774 166.0587,-142.2343 173.0047,-141.3661"/>
</g>
<!-- Node7 -->
<g id="node7" class="node">
<title>Node7</title>
<g id="a_node7"><a xlink:href="loadcore_8h.html" target="_top" xlink:title=" ">
<polygon fill="#ffffff" stroke="#000000" points="191.5,-168.5 191.5,-187.5 259.5,-187.5 259.5,-168.5 191.5,-168.5"/>
<text text-anchor="middle" x="225.5" y="-175.5" font-family="Helvetica,sans-Serif" font-size="10.00" fill="#000000">loadcore.h</text>
</a>
</g>
</g>
<!-- Node1&#45;&gt;Node7 -->
<g id="edge6" class="edge">
<title>Node1&#45;&gt;Node7</title>
<path fill="none" stroke="#191970" d="M225.5,-224.2977C225.5,-216.3834 225.5,-206.6043 225.5,-198.0759"/>
<polygon fill="#191970" stroke="#191970" points="229.0001,-197.8469 225.5,-187.8469 222.0001,-197.847 229.0001,-197.8469"/>
</g>
<!-- Node8 -->
<g id="node8" class="node">
<title>Node8</title>
<g id="a_node8"><a xlink:href="stdio_8h.html" target="_top" xlink:title=" ">
<polygon fill="#ffffff" stroke="#000000" points="277.5,-168.5 277.5,-187.5 327.5,-187.5 327.5,-168.5 277.5,-168.5"/>
<text text-anchor="middle" x="302.5" y="-175.5" font-family="Helvetica,sans-Serif" font-size="10.00" fill="#000000">stdio.h</text>
</a>
</g>
</g>
<!-- Node1&#45;&gt;Node8 -->
<g id="edge9" class="edge">
<title>Node1&#45;&gt;Node8</title>
<path fill="none" stroke="#191970" d="M244.5337,-224.2977C256.0015,-215.1384 270.5962,-203.4816 282.2719,-194.1562"/>
<polygon fill="#191970" stroke="#191970" points="284.5419,-196.8225 290.1713,-187.8469 280.1734,-191.3529 284.5419,-196.8225"/>
</g>
<!-- Node10 -->
<g id="node10" class="node">
<title>Node10</title>
<g id="a_node10"><a xlink:href="intrman_8h.html" target="_top" xlink:title=" ">
<polygon fill="#ffffff" stroke="#000000" points="71.5,-168.5 71.5,-187.5 135.5,-187.5 135.5,-168.5 71.5,-168.5"/>
<text text-anchor="middle" x="103.5" y="-175.5" font-family="Helvetica,sans-Serif" font-size="10.00" fill="#000000">intrman.h</text>
</a>
</g>
</g>
<!-- Node1&#45;&gt;Node10 -->
<g id="edge12" class="edge">
<title>Node1&#45;&gt;Node10</title>
<path fill="none" stroke="#191970" d="M195.6554,-224.4554C176.103,-214.599 150.7128,-201.7999 131.5355,-192.1327"/>
<polygon fill="#191970" stroke="#191970" points="132.9108,-188.9064 122.4057,-187.5303 129.7598,-195.1571 132.9108,-188.9064"/>
</g>
<!-- Node11 -->
<g id="node11" class="node">
<title>Node11</title>
<g id="a_node11"><a xlink:title=" ">
<polygon fill="#ffffff" stroke="#bfbfbf" points="345.5,-168.5 345.5,-187.5 401.5,-187.5 401.5,-168.5 345.5,-168.5"/>
<text text-anchor="middle" x="373.5" y="-175.5" font-family="Helvetica,sans-Serif" font-size="10.00" fill="#000000">freesd.h</text>
</a>
</g>
</g>
<!-- Node1&#45;&gt;Node11 -->
<g id="edge15" class="edge">
<title>Node1&#45;&gt;Node11</title>
<path fill="none" stroke="#191970" d="M261.7049,-224.4554C285.9658,-214.374 317.6356,-201.2139 341.0712,-191.4755"/>
<polygon fill="#191970" stroke="#191970" points="342.6739,-194.5997 350.5653,-187.5303 339.9877,-188.1356 342.6739,-194.5997"/>
</g>
<!-- Node12 -->
<g id="node12" class="node">
<title>Node12</title>
<g id="a_node12"><a xlink:href="spu2regs_8h.html" target="_top" xlink:title=" ">
<polygon fill="#ffffff" stroke="#000000" points="419.5,-168.5 419.5,-187.5 489.5,-187.5 489.5,-168.5 419.5,-168.5"/>
<text text-anchor="middle" x="454.5" y="-175.5" font-family="Helvetica,sans-Serif" font-size="10.00" fill="#000000">spu2regs.h</text>
</a>
</g>
</g>
<!-- Node1&#45;&gt;Node12 -->
<g id="edge16" class="edge">
<title>Node1&#45;&gt;Node12</title>
<path fill="none" stroke="#191970" d="M279.1903,-225.081C318.7042,-214.4692 371.8294,-200.2019 409.2071,-190.1638"/>
<polygon fill="#191970" stroke="#191970" points="410.5576,-193.4252 419.3076,-187.4512 408.742,-186.6648 410.5576,-193.4252"/>
</g>
<!-- Node4 -->
<g id="node4" class="node">
<title>Node4</title>
<g id="a_node4"><a xlink:href="types_8h.html" target="_top" xlink:title=" ">
<polygon fill="#ffffff" stroke="#000000" points="141,-56.5 141,-75.5 194,-75.5 194,-56.5 141,-56.5"/>
<text text-anchor="middle" x="167.5" y="-63.5" font-family="Helvetica,sans-Serif" font-size="10.00" fill="#000000">types.h</text>
</a>
</g>
</g>
<!-- Node3&#45;&gt;Node4 -->
<g id="edge3" class="edge">
<title>Node3&#45;&gt;Node4</title>
<path fill="none" stroke="#191970" d="M167.5,-112.2455C167.5,-104.9382 167.5,-94.6944 167.5,-85.7046"/>
<polygon fill="#191970" stroke="#191970" points="171.0001,-85.6426 167.5,-75.6427 164.0001,-85.6427 171.0001,-85.6426"/>
</g>
<!-- Node5 -->
<g id="node5" class="node">
<title>Node5</title>
<g id="a_node5"><a xlink:title=" ">
<polygon fill="#ffffff" stroke="#bfbfbf" points="98.5,-.5 98.5,-19.5 154.5,-19.5 154.5,-.5 98.5,-.5"/>
<text text-anchor="middle" x="126.5" y="-7.5" font-family="Helvetica,sans-Serif" font-size="10.00" fill="#000000">stddef.h</text>
</a>
</g>
</g>
<!-- Node4&#45;&gt;Node5 -->
<g id="edge4" class="edge">
<title>Node4&#45;&gt;Node5</title>
<path fill="none" stroke="#191970" d="M160.3583,-56.2455C154.6556,-48.4564 146.51,-37.3308 139.6375,-27.9439"/>
<polygon fill="#191970" stroke="#191970" points="142.2913,-25.6437 133.5598,-19.6427 136.6432,-29.7789 142.2913,-25.6437"/>
</g>
<!-- Node6 -->
<g id="node6" class="node">
<title>Node6</title>
<g id="a_node6"><a xlink:href="tamtypes_8h.html" target="_top" xlink:title=" ">
<polygon fill="#ffffff" stroke="#000000" points="172.5,-.5 172.5,-19.5 244.5,-19.5 244.5,-.5 172.5,-.5"/>
<text text-anchor="middle" x="208.5" y="-7.5" font-family="Helvetica,sans-Serif" font-size="10.00" fill="#000000">tamtypes.h</text>
</a>
</g>
</g>
<!-- Node4&#45;&gt;Node6 -->
<g id="edge5" class="edge">
<title>Node4&#45;&gt;Node6</title>
<path fill="none" stroke="#191970" d="M174.6417,-56.2455C180.3444,-48.4564 188.49,-37.3308 195.3625,-27.9439"/>
<polygon fill="#191970" stroke="#191970" points="198.3568,-29.7789 201.4402,-19.6427 192.7087,-25.6437 198.3568,-29.7789"/>
</g>
<!-- Node7&#45;&gt;Node3 -->
<g id="edge8" class="edge">
<title>Node7&#45;&gt;Node3</title>
<path fill="none" stroke="#191970" d="M215.3972,-168.2455C206.9972,-160.1352 194.8506,-148.4075 184.8916,-138.7919"/>
<polygon fill="#191970" stroke="#191970" points="187.1122,-136.0707 177.4871,-131.6427 182.25,-141.1066 187.1122,-136.0707"/>
</g>
<!-- Node7&#45;&gt;Node4 -->
<g id="edge7" class="edge">
<title>Node7&#45;&gt;Node4</title>
<path fill="none" stroke="#191970" d="M221.5774,-168.4287C216.1553,-155.4327 205.861,-131.5799 195.5,-112 190.5437,-102.6337 184.4874,-92.5441 179.2768,-84.2076"/>
<polygon fill="#191970" stroke="#191970" points="182.1721,-82.2379 173.8568,-75.6724 176.2629,-85.9904 182.1721,-82.2379"/>
</g>
<!-- Node8&#45;&gt;Node3 -->
<g id="edge11" class="edge">
<title>Node8&#45;&gt;Node3</title>
<path fill="none" stroke="#191970" d="M279.2927,-168.3733C256.2653,-158.8211 220.9247,-144.1613 196.1585,-133.888"/>
<polygon fill="#191970" stroke="#191970" points="197.4863,-130.6496 186.9084,-130.0509 194.8042,-137.1154 197.4863,-130.6496"/>
</g>
<!-- Node9 -->
<g id="node9" class="node">
<title>Node9</title>
<g id="a_node9"><a xlink:title=" ">
<polygon fill="#ffffff" stroke="#bfbfbf" points="274.5,-112.5 274.5,-131.5 330.5,-131.5 330.5,-112.5 274.5,-112.5"/>
<text text-anchor="middle" x="302.5" y="-119.5" font-family="Helvetica,sans-Serif" font-size="10.00" fill="#000000">stdarg.h</text>
</a>
</g>
</g>
<!-- Node8&#45;&gt;Node9 -->
<g id="edge10" class="edge">
<title>Node8&#45;&gt;Node9</title>
<path fill="none" stroke="#191970" d="M302.5,-168.2455C302.5,-160.9382 302.5,-150.6944 302.5,-141.7046"/>
<polygon fill="#191970" stroke="#191970" points="306.0001,-141.6426 302.5,-131.6427 299.0001,-141.6427 306.0001,-141.6426"/>
</g>
<!-- Node10&#45;&gt;Node3 -->
<g id="edge14" class="edge">
<title>Node10&#45;&gt;Node3</title>
<path fill="none" stroke="#191970" d="M114.6479,-168.2455C124.0087,-160.0549 137.5858,-148.1749 148.6349,-138.5069"/>
<polygon fill="#191970" stroke="#191970" points="151.2588,-140.8618 156.4798,-131.6427 146.6492,-135.5937 151.2588,-140.8618"/>
</g>
<!-- Node10&#45;&gt;Node4 -->
<g id="edge13" class="edge">
<title>Node10&#45;&gt;Node4</title>
<path fill="none" stroke="#191970" d="M108.7227,-168.0789C115.6011,-155.094 128.1552,-131.6739 139.5,-112 144.7935,-102.8201 150.8884,-92.7518 156.0373,-84.3812"/>
<polygon fill="#191970" stroke="#191970" points="159.0681,-86.1348 161.3556,-75.7898 153.1162,-82.4504 159.0681,-86.1348"/>
</g>
</g>
</svg>
