<?xml version="1.0" encoding="UTF-8" standalone="no"?>
<!DOCTYPE svg PUBLIC "-//W3C//DTD SVG 1.1//EN"
 "http://www.w3.org/Graphics/SVG/1.1/DTD/svg11.dtd">
<!-- Generated by graphviz version 2.40.1 (20161225.0304)
 -->
<!-- Title: iop/system/padman/src/freepad.h Pages: 1 -->
<!--zoomable 106 -->
<svg id="main" version="1.1" xmlns="http://www.w3.org/2000/svg" xmlns:xlink="http://www.w3.org/1999/xlink" xml:space="preserve" onload="init(evt)">
<style type="text/css"><![CDATA[
.edge:hover path { stroke: red; }
.edge:hover polygon { stroke: red; fill: red; }
]]></style>
<script type="text/javascript"><![CDATA[
var edges = document.getElementsByTagName('g');
if (edges && edges.length) {
  for (var i=0;i<edges.length;i++) {
    if (edges[i].id.substr(0,4)=='edge') {
      edges[i].setAttribute('class','edge');
    }
  }
}
]]></script>
        <defs>
                <circle id="rim" cx="0" cy="0" r="7"/>
                <circle id="rim2" cx="0" cy="0" r="3.5"/>
                <g id="zoomPlus">
                        <use xlink:href="#rim" fill="#404040">
                                <set attributeName="fill" to="#808080" begin="zoomplus.mouseover" end="zoomplus.mouseout"/>
                        </use>
                        <path d="M-4,0h8M0,-4v8" fill="none" stroke="white" stroke-width="1.5" pointer-events="none"/>
                </g>
                <g id="zoomMin">
                        <use xlink:href="#rim" fill="#404040">
                                <set attributeName="fill" to="#808080" begin="zoomminus.mouseover" end="zoomminus.mouseout"/>
                        </use>
                        <path d="M-4,0h8" fill="none" stroke="white" stroke-width="1.5" pointer-events="none"/>
                </g>
                <g id="dirArrow">
                        <path fill="none" stroke="white" stroke-width="1.5" d="M0,-3.0v7 M-2.5,-0.5L0,-3.0L2.5,-0.5"/>
                </g>
               <g id="resetDef">
                       <use xlink:href="#rim2" fill="#404040">
                               <set attributeName="fill" to="#808080" begin="reset.mouseover" end="reset.mouseout"/>
                       </use>
               </g>
        </defs>

<script type="text/javascript">
var viewWidth = 1033;
var viewHeight = 106;
var sectionId = 'dynsection-1';
</script>
<script xlink:href="svgpan.js"/>
<svg id="graph" class="graph">
<g id="viewport">
<title>iop/system/padman/src/freepad.h</title>
<polygon fill="#ffffff" stroke="transparent" points="-4,4 -4,-102 1029,-102 1029,4 -4,4"/>
<!-- Node1 -->
<g id="node1" class="node">
<title>Node1</title>
<g id="a_node1"><a xlink:title=" ">
<polygon fill="#bfbfbf" stroke="#000000" points="447,-67.5 447,-97.5 578,-97.5 578,-67.5 447,-67.5"/>
<text text-anchor="start" x="455" y="-85.5" font-family="Helvetica,sans-Serif" font-size="10.00" fill="#000000">iop/system/padman/src</text>
<text text-anchor="middle" x="512.5" y="-74.5" font-family="Helvetica,sans-Serif" font-size="10.00" fill="#000000">/freepad.h</text>
</a>
</g>
</g>
<!-- Node2 -->
<g id="node2" class="node">
<title>Node2</title>
<g id="a_node2"><a xlink:href="freepad_8c.html" target="_top" xlink:title=" ">
<polygon fill="#ffffff" stroke="#000000" points="0,-.5 0,-30.5 131,-30.5 131,-.5 0,-.5"/>
<text text-anchor="start" x="8" y="-18.5" font-family="Helvetica,sans-Serif" font-size="10.00" fill="#000000">iop/system/padman/src</text>
<text text-anchor="middle" x="65.5" y="-7.5" font-family="Helvetica,sans-Serif" font-size="10.00" fill="#000000">/freepad.c</text>
</a>
</g>
</g>
<!-- Node1&#45;&gt;Node2 -->
<g id="edge1" class="edge">
<title>Node1&#45;&gt;Node2</title>
<path fill="none" stroke="#191970" d="M436.5653,-73.5802C361.0254,-64.3392 241.9227,-48.7755 139.5,-31 136.7841,-30.5287 134.0159,-30.0304 131.2221,-29.5127"/>
<polygon fill="#191970" stroke="#191970" points="436.5792,-77.1077 446.9289,-74.8418 437.4251,-70.159 436.5792,-77.1077"/>
</g>
<!-- Node3 -->
<g id="node3" class="node">
<title>Node3</title>
<g id="a_node3"><a xlink:href="padCmds_8c.html" target="_top" xlink:title=" ">
<polygon fill="#ffffff" stroke="#000000" points="149,-.5 149,-30.5 280,-30.5 280,-.5 149,-.5"/>
<text text-anchor="start" x="157" y="-18.5" font-family="Helvetica,sans-Serif" font-size="10.00" fill="#000000">iop/system/padman/src</text>
<text text-anchor="middle" x="214.5" y="-7.5" font-family="Helvetica,sans-Serif" font-size="10.00" fill="#000000">/padCmds.c</text>
</a>
</g>
</g>
<!-- Node1&#45;&gt;Node3 -->
<g id="edge2" class="edge">
<title>Node1&#45;&gt;Node3</title>
<path fill="none" stroke="#191970" d="M436.9401,-65.5117C388.559,-54.6341 326.4025,-40.6593 280.0983,-30.2486"/>
<polygon fill="#191970" stroke="#191970" points="436.2095,-68.9347 446.7337,-67.7136 437.745,-62.1052 436.2095,-68.9347"/>
</g>
<!-- Node4 -->
<g id="node4" class="node">
<title>Node4</title>
<g id="a_node4"><a xlink:href="padData_8c.html" target="_top" xlink:title=" ">
<polygon fill="#ffffff" stroke="#000000" points="298,-.5 298,-30.5 429,-30.5 429,-.5 298,-.5"/>
<text text-anchor="start" x="306" y="-18.5" font-family="Helvetica,sans-Serif" font-size="10.00" fill="#000000">iop/system/padman/src</text>
<text text-anchor="middle" x="363.5" y="-7.5" font-family="Helvetica,sans-Serif" font-size="10.00" fill="#000000">/padData.c</text>
</a>
</g>
</g>
<!-- Node1&#45;&gt;Node4 -->
<g id="edge3" class="edge">
<title>Node1&#45;&gt;Node4</title>
<path fill="none" stroke="#191970" d="M469.8309,-63.3132C446.7325,-52.9267 418.6064,-40.2794 397.0844,-30.6017"/>
<polygon fill="#191970" stroke="#191970" points="468.5057,-66.5549 479.0615,-67.4639 471.3765,-60.1706 468.5057,-66.5549"/>
</g>
<!-- Node5 -->
<g id="node5" class="node">
<title>Node5</title>
<g id="a_node5"><a xlink:href="padInit_8c.html" target="_top" xlink:title=" ">
<polygon fill="#ffffff" stroke="#000000" points="447,-.5 447,-30.5 578,-30.5 578,-.5 447,-.5"/>
<text text-anchor="start" x="455" y="-18.5" font-family="Helvetica,sans-Serif" font-size="10.00" fill="#000000">iop/system/padman/src</text>
<text text-anchor="middle" x="512.5" y="-7.5" font-family="Helvetica,sans-Serif" font-size="10.00" fill="#000000">/padInit.c</text>
</a>
</g>
</g>
<!-- Node1&#45;&gt;Node5 -->
<g id="edge4" class="edge">
<title>Node1&#45;&gt;Node5</title>
<path fill="none" stroke="#191970" d="M512.5,-57.0249C512.5,-48.128 512.5,-38.4287 512.5,-30.6432"/>
<polygon fill="#191970" stroke="#191970" points="509.0001,-57.2966 512.5,-67.2967 516.0001,-57.2967 509.0001,-57.2966"/>
</g>
<!-- Node6 -->
<g id="node6" class="node">
<title>Node6</title>
<g id="a_node6"><a xlink:href="padMiscFuncs_8c.html" target="_top" xlink:title=" ">
<polygon fill="#ffffff" stroke="#000000" points="596,-.5 596,-30.5 727,-30.5 727,-.5 596,-.5"/>
<text text-anchor="start" x="604" y="-18.5" font-family="Helvetica,sans-Serif" font-size="10.00" fill="#000000">iop/system/padman/src</text>
<text text-anchor="middle" x="661.5" y="-7.5" font-family="Helvetica,sans-Serif" font-size="10.00" fill="#000000">/padMiscFuncs.c</text>
</a>
</g>
</g>
<!-- Node1&#45;&gt;Node6 -->
<g id="edge5" class="edge">
<title>Node1&#45;&gt;Node6</title>
<path fill="none" stroke="#191970" d="M555.1691,-63.3132C578.2675,-52.9267 606.3936,-40.2794 627.9156,-30.6017"/>
<polygon fill="#191970" stroke="#191970" points="553.6235,-60.1706 545.9385,-67.4639 556.4943,-66.5549 553.6235,-60.1706"/>
</g>
<!-- Node7 -->
<g id="node7" class="node">
<title>Node7</title>
<g id="a_node7"><a xlink:href="padPortOpen_8c.html" target="_top" xlink:title=" ">
<polygon fill="#ffffff" stroke="#000000" points="745,-.5 745,-30.5 876,-30.5 876,-.5 745,-.5"/>
<text text-anchor="start" x="753" y="-18.5" font-family="Helvetica,sans-Serif" font-size="10.00" fill="#000000">iop/system/padman/src</text>
<text text-anchor="middle" x="810.5" y="-7.5" font-family="Helvetica,sans-Serif" font-size="10.00" fill="#000000">/padPortOpen.c</text>
</a>
</g>
</g>
<!-- Node1&#45;&gt;Node7 -->
<g id="edge6" class="edge">
<title>Node1&#45;&gt;Node7</title>
<path fill="none" stroke="#191970" d="M588.0599,-65.5117C636.441,-54.6341 698.5975,-40.6593 744.9017,-30.2486"/>
<polygon fill="#191970" stroke="#191970" points="587.255,-62.1052 578.2663,-67.7136 588.7905,-68.9347 587.255,-62.1052"/>
</g>
<!-- Node8 -->
<g id="node8" class="node">
<title>Node8</title>
<g id="a_node8"><a xlink:href="rpcserver_8c.html" target="_top" xlink:title=" ">
<polygon fill="#ffffff" stroke="#000000" points="894,-.5 894,-30.5 1025,-30.5 1025,-.5 894,-.5"/>
<text text-anchor="start" x="902" y="-18.5" font-family="Helvetica,sans-Serif" font-size="10.00" fill="#000000">iop/system/padman/src</text>
<text text-anchor="middle" x="959.5" y="-7.5" font-family="Helvetica,sans-Serif" font-size="10.00" fill="#000000">/rpcserver.c</text>
</a>
</g>
</g>
<!-- Node1&#45;&gt;Node8 -->
<g id="edge7" class="edge">
<title>Node1&#45;&gt;Node8</title>
<path fill="none" stroke="#191970" d="M588.4347,-73.5802C663.9746,-64.3392 783.0773,-48.7755 885.5,-31 888.2159,-30.5287 890.9841,-30.0304 893.7779,-29.5127"/>
<polygon fill="#191970" stroke="#191970" points="587.5749,-70.159 578.0711,-74.8418 588.4208,-77.1077 587.5749,-70.159"/>
</g>
</g>
</svg>
        <g id="navigator" transform="translate(0 0)" fill="#404254">
                <rect fill="#f2f5e9" fill-opacity="0.5" stroke="#606060" stroke-width=".5" x="0" y="0" width="60" height="60"/>
                <use id="zoomplus" xlink:href="#zoomPlus" x="17" y="9" onmousedown="handleZoom(evt,'in')"/>
                <use id="zoomminus" xlink:href="#zoomMin" x="42" y="9" onmousedown="handleZoom(evt,'out')"/>
                <use id="reset" xlink:href="#resetDef" x="30" y="36" onmousedown="handleReset()"/>
                <g id="arrowUp" xlink:href="#dirArrow" transform="translate(30 24)" onmousedown="handlePan(0,-1)">
                  <use xlink:href="#rim" fill="#404040">
                        <set attributeName="fill" to="#808080" begin="arrowUp.mouseover" end="arrowUp.mouseout"/>
                  </use>
                  <path fill="none" stroke="white" stroke-width="1.5" d="M0,-3.0v7 M-2.5,-0.5L0,-3.0L2.5,-0.5"/>
                </g>
                <g id="arrowRight" xlink:href="#dirArrow" transform="rotate(90) translate(36 -43)" onmousedown="handlePan(1,0)">
                  <use xlink:href="#rim" fill="#404040">
                        <set attributeName="fill" to="#808080" begin="arrowRight.mouseover" end="arrowRight.mouseout"/>
                  </use>
                  <path fill="none" stroke="white" stroke-width="1.5" d="M0,-3.0v7 M-2.5,-0.5L0,-3.0L2.5,-0.5"/>
                </g>
                <g id="arrowDown" xlink:href="#dirArrow" transform="rotate(180) translate(-30 -48)" onmousedown="handlePan(0,1)">
                  <use xlink:href="#rim" fill="#404040">
                        <set attributeName="fill" to="#808080" begin="arrowDown.mouseover" end="arrowDown.mouseout"/>
                  </use>
                  <path fill="none" stroke="white" stroke-width="1.5" d="M0,-3.0v7 M-2.5,-0.5L0,-3.0L2.5,-0.5"/>
                </g>
                <g id="arrowLeft" xlink:href="#dirArrow" transform="rotate(270) translate(-36 17)" onmousedown="handlePan(-1,0)">
                  <use xlink:href="#rim" fill="#404040">
                        <set attributeName="fill" to="#808080" begin="arrowLeft.mouseover" end="arrowLeft.mouseout"/>
                  </use>
                  <path fill="none" stroke="white" stroke-width="1.5" d="M0,-3.0v7 M-2.5,-0.5L0,-3.0L2.5,-0.5"/>
                </g>
        </g>
        <svg viewBox="0 0 15 15" width="100%" height="30px" preserveAspectRatio="xMaxYMin meet">
         <g id="arrow_out" transform="scale(0.3 0.3)">
          <a xlink:href="freepad_8h__dep__incl_org.svg" target="_base">
           <rect id="button" ry="5" rx="5" y="6" x="6" height="38" width="38"
                fill="#f2f5e9" fill-opacity="0.5" stroke="#606060" stroke-width="1.0"/>
           <path id="arrow"
             d="M 11.500037,31.436501 C 11.940474,20.09759 22.043105,11.32322 32.158766,21.979434 L 37.068811,17.246167 C 37.068811,17.246167 37.088388,32 37.088388,32 L 22.160133,31.978069 C 22.160133,31.978069 26.997745,27.140456 26.997745,27.140456 C 18.528582,18.264221 13.291696,25.230495 11.500037,31.436501 z"
             style="fill:#404040;"/>
          </a>
         </g>
        </svg>
</svg>
