<?xml version="1.0" encoding="UTF-8" standalone="no"?>
<!DOCTYPE svg PUBLIC "-//W3C//DTD SVG 1.1//EN"
 "http://www.w3.org/Graphics/SVG/1.1/DTD/svg11.dtd">
<!-- Generated by graphviz version 2.40.1 (20161225.0304)
 -->
<!-- Title: iop/fs/devfs/src/irx_imports.h Pages: 1 -->
<svg width="609pt" height="263pt"
 viewBox="0.00 0.00 609.00 263.00" xmlns="http://www.w3.org/2000/svg" xmlns:xlink="http://www.w3.org/1999/xlink">
<g id="graph0" class="graph" transform="scale(1 1) rotate(0) translate(4 259)">
<title>iop/fs/devfs/src/irx_imports.h</title>
<polygon fill="#ffffff" stroke="transparent" points="-4,4 -4,-259 605,-259 605,4 -4,4"/>
<!-- Node1 -->
<g id="node1" class="node">
<title>Node1</title>
<g id="a_node1"><a xlink:title=" ">
<polygon fill="#bfbfbf" stroke="#000000" points="332,-224.5 332,-254.5 439,-254.5 439,-224.5 332,-224.5"/>
<text text-anchor="start" x="340" y="-242.5" font-family="Helvetica,sans-Serif" font-size="10.00" fill="#000000">iop/fs/devfs/src/irx</text>
<text text-anchor="middle" x="385.5" y="-231.5" font-family="Helvetica,sans-Serif" font-size="10.00" fill="#000000">_imports.h</text>
</a>
</g>
</g>
<!-- Node2 -->
<g id="node2" class="node">
<title>Node2</title>
<g id="a_node2"><a xlink:href="irx_8h.html" target="_top" xlink:title=" ">
<polygon fill="#ffffff" stroke="#000000" points="365.5,-112.5 365.5,-131.5 403.5,-131.5 403.5,-112.5 365.5,-112.5"/>
<text text-anchor="middle" x="384.5" y="-119.5" font-family="Helvetica,sans-Serif" font-size="10.00" fill="#000000">irx.h</text>
</a>
</g>
</g>
<!-- Node1&#45;&gt;Node2 -->
<g id="edge1" class="edge">
<title>Node1&#45;&gt;Node2</title>
<path fill="none" stroke="#191970" d="M382.5998,-224.4586C380.1513,-210.0057 377.231,-187.5407 378.5,-168 379.0598,-159.3805 380.2036,-149.9095 381.3439,-141.8133"/>
<polygon fill="#191970" stroke="#191970" points="384.8185,-142.243 382.8414,-131.8343 377.896,-141.2041 384.8185,-142.243"/>
</g>
<!-- Node6 -->
<g id="node6" class="node">
<title>Node6</title>
<g id="a_node6"><a xlink:href="iomanX_8h.html" target="_top" xlink:title=" ">
<polygon fill="#ffffff" stroke="#000000" points="182,-168.5 182,-187.5 245,-187.5 245,-168.5 182,-168.5"/>
<text text-anchor="middle" x="213.5" y="-175.5" font-family="Helvetica,sans-Serif" font-size="10.00" fill="#000000">iomanX.h</text>
</a>
</g>
</g>
<!-- Node1&#45;&gt;Node6 -->
<g id="edge5" class="edge">
<title>Node1&#45;&gt;Node6</title>
<path fill="none" stroke="#191970" d="M343.4241,-224.4554C314.7254,-214.194 277.1063,-200.7429 249.7377,-190.9571"/>
<polygon fill="#191970" stroke="#191970" points="250.7485,-187.6015 240.1539,-187.5303 248.3917,-194.1929 250.7485,-187.6015"/>
</g>
<!-- Node12 -->
<g id="node12" class="node">
<title>Node12</title>
<g id="a_node12"><a xlink:href="loadcore_8h.html" target="_top" xlink:title=" ">
<polygon fill="#ffffff" stroke="#000000" points="263.5,-168.5 263.5,-187.5 331.5,-187.5 331.5,-168.5 263.5,-168.5"/>
<text text-anchor="middle" x="297.5" y="-175.5" font-family="Helvetica,sans-Serif" font-size="10.00" fill="#000000">loadcore.h</text>
</a>
</g>
</g>
<!-- Node1&#45;&gt;Node12 -->
<g id="edge13" class="edge">
<title>Node1&#45;&gt;Node12</title>
<path fill="none" stroke="#191970" d="M363.7472,-224.2977C350.3032,-214.9022 333.0989,-202.8787 319.5922,-193.4395"/>
<polygon fill="#191970" stroke="#191970" points="321.5288,-190.5228 311.3271,-187.6633 317.5189,-196.2605 321.5288,-190.5228"/>
</g>
<!-- Node13 -->
<g id="node13" class="node">
<title>Node13</title>
<g id="a_node13"><a xlink:href="stdio_8h.html" target="_top" xlink:title=" ">
<polygon fill="#ffffff" stroke="#000000" points="387.5,-168.5 387.5,-187.5 437.5,-187.5 437.5,-168.5 387.5,-168.5"/>
<text text-anchor="middle" x="412.5" y="-175.5" font-family="Helvetica,sans-Serif" font-size="10.00" fill="#000000">stdio.h</text>
</a>
</g>
</g>
<!-- Node1&#45;&gt;Node13 -->
<g id="edge16" class="edge">
<title>Node1&#45;&gt;Node13</title>
<path fill="none" stroke="#191970" d="M392.1742,-224.2977C395.7659,-216.1166 400.2324,-205.943 404.0629,-197.2179"/>
<polygon fill="#191970" stroke="#191970" points="407.3618,-198.4104 408.177,-187.8469 400.9522,-195.5964 407.3618,-198.4104"/>
</g>
<!-- Node15 -->
<g id="node15" class="node">
<title>Node15</title>
<g id="a_node15"><a xlink:href="sysclib_8h.html" target="_top" xlink:title=" ">
<polygon fill="#ffffff" stroke="#000000" points="542,-168.5 542,-187.5 601,-187.5 601,-168.5 542,-168.5"/>
<text text-anchor="middle" x="571.5" y="-175.5" font-family="Helvetica,sans-Serif" font-size="10.00" fill="#000000">sysclib.h</text>
</a>
</g>
</g>
<!-- Node1&#45;&gt;Node15 -->
<g id="edge19" class="edge">
<title>Node1&#45;&gt;Node15</title>
<path fill="none" stroke="#191970" d="M431.0007,-224.4554C462.3075,-214.104 503.4309,-200.5067 533.0889,-190.7004"/>
<polygon fill="#191970" stroke="#191970" points="534.2809,-193.9927 542.6766,-187.5303 532.0834,-187.3466 534.2809,-193.9927"/>
</g>
<!-- Node17 -->
<g id="node17" class="node">
<title>Node17</title>
<g id="a_node17"><a xlink:href="sysmem_8h.html" target="_top" xlink:title=" ">
<polygon fill="#ffffff" stroke="#000000" points="455.5,-168.5 455.5,-187.5 523.5,-187.5 523.5,-168.5 455.5,-168.5"/>
<text text-anchor="middle" x="489.5" y="-175.5" font-family="Helvetica,sans-Serif" font-size="10.00" fill="#000000">sysmem.h</text>
</a>
</g>
</g>
<!-- Node1&#45;&gt;Node17 -->
<g id="edge25" class="edge">
<title>Node1&#45;&gt;Node17</title>
<path fill="none" stroke="#191970" d="M410.9413,-224.4554C427.2284,-214.8241 448.2673,-202.3828 464.473,-192.7996"/>
<polygon fill="#191970" stroke="#191970" points="466.5576,-195.6331 473.3837,-187.5303 462.9945,-189.6078 466.5576,-195.6331"/>
</g>
<!-- Node3 -->
<g id="node3" class="node">
<title>Node3</title>
<g id="a_node3"><a xlink:href="types_8h.html" target="_top" xlink:title=" ">
<polygon fill="#ffffff" stroke="#000000" points="381,-56.5 381,-75.5 434,-75.5 434,-56.5 381,-56.5"/>
<text text-anchor="middle" x="407.5" y="-63.5" font-family="Helvetica,sans-Serif" font-size="10.00" fill="#000000">types.h</text>
</a>
</g>
</g>
<!-- Node2&#45;&gt;Node3 -->
<g id="edge2" class="edge">
<title>Node2&#45;&gt;Node3</title>
<path fill="none" stroke="#191970" d="M388.5063,-112.2455C391.5735,-104.7776 395.9003,-94.2427 399.6497,-85.1137"/>
<polygon fill="#191970" stroke="#191970" points="402.9779,-86.2226 403.5396,-75.6427 396.5028,-83.5631 402.9779,-86.2226"/>
</g>
<!-- Node4 -->
<g id="node4" class="node">
<title>Node4</title>
<g id="a_node4"><a xlink:title=" ">
<polygon fill="#ffffff" stroke="#bfbfbf" points="379.5,-.5 379.5,-19.5 435.5,-19.5 435.5,-.5 379.5,-.5"/>
<text text-anchor="middle" x="407.5" y="-7.5" font-family="Helvetica,sans-Serif" font-size="10.00" fill="#000000">stddef.h</text>
</a>
</g>
</g>
<!-- Node3&#45;&gt;Node4 -->
<g id="edge3" class="edge">
<title>Node3&#45;&gt;Node4</title>
<path fill="none" stroke="#191970" d="M407.5,-56.2455C407.5,-48.9382 407.5,-38.6944 407.5,-29.7046"/>
<polygon fill="#191970" stroke="#191970" points="411.0001,-29.6426 407.5,-19.6427 404.0001,-29.6427 411.0001,-29.6426"/>
</g>
<!-- Node5 -->
<g id="node5" class="node">
<title>Node5</title>
<g id="a_node5"><a xlink:href="tamtypes_8h.html" target="_top" xlink:title=" ">
<polygon fill="#ffffff" stroke="#000000" points="499.5,-.5 499.5,-19.5 571.5,-19.5 571.5,-.5 499.5,-.5"/>
<text text-anchor="middle" x="535.5" y="-7.5" font-family="Helvetica,sans-Serif" font-size="10.00" fill="#000000">tamtypes.h</text>
</a>
</g>
</g>
<!-- Node3&#45;&gt;Node5 -->
<g id="edge4" class="edge">
<title>Node3&#45;&gt;Node5</title>
<path fill="none" stroke="#191970" d="M429.504,-56.3733C450.1435,-47.3435 481.2158,-33.7494 504.3889,-23.6111"/>
<polygon fill="#191970" stroke="#191970" points="506.0245,-26.7159 513.7831,-19.5011 503.2187,-20.3028 506.0245,-26.7159"/>
</g>
<!-- Node6&#45;&gt;Node2 -->
<g id="edge7" class="edge">
<title>Node6&#45;&gt;Node2</title>
<path fill="none" stroke="#191970" d="M242.8959,-168.3733C274.2961,-158.0902 323.7714,-141.8877 355.1528,-131.6108"/>
<polygon fill="#191970" stroke="#191970" points="356.6352,-134.8083 365.0493,-128.3698 354.4566,-128.1559 356.6352,-134.8083"/>
</g>
<!-- Node6&#45;&gt;Node3 -->
<g id="edge6" class="edge">
<title>Node6&#45;&gt;Node3</title>
<path fill="none" stroke="#191970" d="M230.0403,-168.4509C264.0437,-148.8201 341.9801,-103.8259 382.3021,-80.5472"/>
<polygon fill="#191970" stroke="#191970" points="384.0911,-83.5559 391.0015,-75.5249 380.5912,-77.4936 384.0911,-83.5559"/>
</g>
<!-- Node7 -->
<g id="node7" class="node">
<title>Node7</title>
<g id="a_node7"><a xlink:href="io__common_8h.html" target="_top" xlink:title=" ">
<polygon fill="#ffffff" stroke="#000000" points="82,-112.5 82,-131.5 165,-131.5 165,-112.5 82,-112.5"/>
<text text-anchor="middle" x="123.5" y="-119.5" font-family="Helvetica,sans-Serif" font-size="10.00" fill="#000000">io_common.h</text>
</a>
</g>
</g>
<!-- Node6&#45;&gt;Node7 -->
<g id="edge8" class="edge">
<title>Node6&#45;&gt;Node7</title>
<path fill="none" stroke="#191970" d="M197.8232,-168.2455C184.0144,-159.6534 163.6807,-147.0014 147.7708,-137.1018"/>
<polygon fill="#191970" stroke="#191970" points="149.3368,-133.954 138.9972,-131.6427 145.6387,-139.8974 149.3368,-133.954"/>
</g>
<!-- Node10 -->
<g id="node10" class="node">
<title>Node10</title>
<g id="a_node10"><a xlink:href="iox__stat_8h.html" target="_top" xlink:title=" ">
<polygon fill="#ffffff" stroke="#000000" points="183,-112.5 183,-131.5 248,-131.5 248,-112.5 183,-112.5"/>
<text text-anchor="middle" x="215.5" y="-119.5" font-family="Helvetica,sans-Serif" font-size="10.00" fill="#000000">iox_stat.h</text>
</a>
</g>
</g>
<!-- Node6&#45;&gt;Node10 -->
<g id="edge11" class="edge">
<title>Node6&#45;&gt;Node10</title>
<path fill="none" stroke="#191970" d="M213.8484,-168.2455C214.1093,-160.9382 214.4752,-150.6944 214.7963,-141.7046"/>
<polygon fill="#191970" stroke="#191970" points="218.2964,-141.7613 215.1556,-131.6427 211.3008,-141.5113 218.2964,-141.7613"/>
</g>
<!-- Node8 -->
<g id="node8" class="node">
<title>Node8</title>
<g id="a_node8"><a xlink:href="fcntl_8h.html" target="_top" xlink:title=" ">
<polygon fill="#ffffff" stroke="#000000" points="93,-56.5 93,-75.5 160,-75.5 160,-56.5 93,-56.5"/>
<text text-anchor="middle" x="126.5" y="-63.5" font-family="Helvetica,sans-Serif" font-size="10.00" fill="#000000">sys/fcntl.h</text>
</a>
</g>
</g>
<!-- Node7&#45;&gt;Node8 -->
<g id="edge9" class="edge">
<title>Node7&#45;&gt;Node8</title>
<path fill="none" stroke="#191970" d="M124.0226,-112.2455C124.414,-104.9382 124.9628,-94.6944 125.4444,-85.7046"/>
<polygon fill="#191970" stroke="#191970" points="128.9434,-85.8156 125.9834,-75.6427 121.9534,-85.4411 128.9434,-85.8156"/>
</g>
<!-- Node9 -->
<g id="node9" class="node">
<title>Node9</title>
<g id="a_node9"><a xlink:href="unistd_8h.html" target="_top" xlink:title=" ">
<polygon fill="#ffffff" stroke="#000000" points="0,-56.5 0,-75.5 75,-75.5 75,-56.5 0,-56.5"/>
<text text-anchor="middle" x="37.5" y="-63.5" font-family="Helvetica,sans-Serif" font-size="10.00" fill="#000000">sys/unistd.h</text>
</a>
</g>
</g>
<!-- Node7&#45;&gt;Node9 -->
<g id="edge10" class="edge">
<title>Node7&#45;&gt;Node9</title>
<path fill="none" stroke="#191970" d="M108.5199,-112.2455C95.3249,-103.6534 75.8949,-91.0014 60.6921,-81.1018"/>
<polygon fill="#191970" stroke="#191970" points="62.5983,-78.1665 52.3084,-75.6427 58.7785,-84.0325 62.5983,-78.1665"/>
</g>
<!-- Node11 -->
<g id="node11" class="node">
<title>Node11</title>
<g id="a_node11"><a xlink:href="time_8h.html" target="_top" xlink:title=" ">
<polygon fill="#ffffff" stroke="#000000" points="181.5,-56.5 181.5,-75.5 249.5,-75.5 249.5,-56.5 181.5,-56.5"/>
<text text-anchor="middle" x="215.5" y="-63.5" font-family="Helvetica,sans-Serif" font-size="10.00" fill="#000000">sys/time.h</text>
</a>
</g>
</g>
<!-- Node10&#45;&gt;Node11 -->
<g id="edge12" class="edge">
<title>Node10&#45;&gt;Node11</title>
<path fill="none" stroke="#191970" d="M215.5,-112.2455C215.5,-104.9382 215.5,-94.6944 215.5,-85.7046"/>
<polygon fill="#191970" stroke="#191970" points="219.0001,-85.6426 215.5,-75.6427 212.0001,-85.6427 219.0001,-85.6426"/>
</g>
<!-- Node12&#45;&gt;Node2 -->
<g id="edge15" class="edge">
<title>Node12&#45;&gt;Node2</title>
<path fill="none" stroke="#191970" d="M312.6542,-168.2455C326.0027,-159.6534 345.6586,-147.0014 361.0383,-137.1018"/>
<polygon fill="#191970" stroke="#191970" points="363.0051,-139.9982 369.5194,-131.6427 359.2164,-134.1121 363.0051,-139.9982"/>
</g>
<!-- Node12&#45;&gt;Node3 -->
<g id="edge14" class="edge">
<title>Node12&#45;&gt;Node3</title>
<path fill="none" stroke="#191970" d="M305.5929,-168.3085C316.6854,-155.1763 337.4154,-131.1696 356.5,-112 366.7528,-101.7015 378.8024,-90.783 388.6142,-82.1689"/>
<polygon fill="#191970" stroke="#191970" points="390.9901,-84.7412 396.2412,-75.5392 386.3978,-79.4581 390.9901,-84.7412"/>
</g>
<!-- Node13&#45;&gt;Node2 -->
<g id="edge18" class="edge">
<title>Node13&#45;&gt;Node2</title>
<path fill="none" stroke="#191970" d="M407.6228,-168.2455C403.8487,-160.6973 398.5079,-150.0158 393.9099,-140.8197"/>
<polygon fill="#191970" stroke="#191970" points="396.924,-139.0217 389.3213,-131.6427 390.663,-142.1522 396.924,-139.0217"/>
</g>
<!-- Node14 -->
<g id="node14" class="node">
<title>Node14</title>
<g id="a_node14"><a xlink:title=" ">
<polygon fill="#ffffff" stroke="#bfbfbf" points="459.5,-112.5 459.5,-131.5 515.5,-131.5 515.5,-112.5 459.5,-112.5"/>
<text text-anchor="middle" x="487.5" y="-119.5" font-family="Helvetica,sans-Serif" font-size="10.00" fill="#000000">stdarg.h</text>
</a>
</g>
</g>
<!-- Node13&#45;&gt;Node14 -->
<g id="edge17" class="edge">
<title>Node13&#45;&gt;Node14</title>
<path fill="none" stroke="#191970" d="M425.564,-168.2455C436.8562,-159.814 453.3845,-147.4729 466.5271,-137.6598"/>
<polygon fill="#191970" stroke="#191970" points="468.6669,-140.4301 474.5857,-131.6427 464.4789,-134.8211 468.6669,-140.4301"/>
</g>
<!-- Node15&#45;&gt;Node2 -->
<g id="edge21" class="edge">
<title>Node15&#45;&gt;Node2</title>
<path fill="none" stroke="#191970" d="M541.8693,-169.1266C506.6255,-158.5723 448.1901,-141.073 413.3107,-130.6278"/>
<polygon fill="#191970" stroke="#191970" points="414.299,-127.2702 403.7152,-127.7543 412.2908,-133.976 414.299,-127.2702"/>
</g>
<!-- Node15&#45;&gt;Node3 -->
<g id="edge20" class="edge">
<title>Node15&#45;&gt;Node3</title>
<path fill="none" stroke="#191970" d="M566.8078,-168.1252C559.5823,-153.8859 544.4516,-127.59 524.5,-112 500.7684,-93.4564 468.6272,-81.5386 444.0372,-74.4914"/>
<polygon fill="#191970" stroke="#191970" points="444.9134,-71.1027 434.3451,-71.8514 443.0736,-77.8566 444.9134,-71.1027"/>
</g>
<!-- Node15&#45;&gt;Node14 -->
<g id="edge22" class="edge">
<title>Node15&#45;&gt;Node14</title>
<path fill="none" stroke="#191970" d="M556.8683,-168.2455C544.1006,-159.7337 525.3562,-147.2375 510.5701,-137.3801"/>
<polygon fill="#191970" stroke="#191970" points="512.226,-134.2775 501.964,-131.6427 508.3431,-140.1019 512.226,-134.2775"/>
</g>
<!-- Node16 -->
<g id="node16" class="node">
<title>Node16</title>
<g id="a_node16"><a xlink:href="setjmp_8h.html" target="_top" xlink:title=" ">
<polygon fill="#ffffff" stroke="#000000" points="529,-56.5 529,-75.5 588,-75.5 588,-56.5 529,-56.5"/>
<text text-anchor="middle" x="558.5" y="-63.5" font-family="Helvetica,sans-Serif" font-size="10.00" fill="#000000">setjmp.h</text>
</a>
</g>
</g>
<!-- Node15&#45;&gt;Node16 -->
<g id="edge23" class="edge">
<title>Node15&#45;&gt;Node16</title>
<path fill="none" stroke="#191970" d="M570.3916,-168.4509C568.2714,-150.184 563.602,-109.9553 560.7863,-85.6976"/>
<polygon fill="#191970" stroke="#191970" points="564.2353,-85.0546 559.6056,-75.5249 557.282,-85.8618 564.2353,-85.0546"/>
</g>
<!-- Node16&#45;&gt;Node5 -->
<g id="edge24" class="edge">
<title>Node16&#45;&gt;Node5</title>
<path fill="none" stroke="#191970" d="M554.4937,-56.2455C551.4265,-48.7776 547.0997,-38.2427 543.3503,-29.1137"/>
<polygon fill="#191970" stroke="#191970" points="546.4972,-27.5631 539.4604,-19.6427 540.0221,-30.2226 546.4972,-27.5631"/>
</g>
<!-- Node17&#45;&gt;Node2 -->
<g id="edge27" class="edge">
<title>Node17&#45;&gt;Node2</title>
<path fill="none" stroke="#191970" d="M471.2104,-168.2455C454.7238,-159.4527 430.2648,-146.4079 411.5235,-136.4125"/>
<polygon fill="#191970" stroke="#191970" points="413.0506,-133.2604 402.58,-131.6427 409.7565,-139.4368 413.0506,-133.2604"/>
</g>
<!-- Node17&#45;&gt;Node3 -->
<g id="edge26" class="edge">
<title>Node17&#45;&gt;Node3</title>
<path fill="none" stroke="#191970" d="M480.7635,-168.4221C472.6061,-159.314 460.2586,-145.0976 450.5,-132 438.9282,-116.4688 426.9996,-97.9223 418.6506,-84.4503"/>
<polygon fill="#191970" stroke="#191970" points="421.4691,-82.351 413.2601,-75.653 415.5005,-86.0083 421.4691,-82.351"/>
</g>
<!-- Node17&#45;&gt;Node14 -->
<g id="edge28" class="edge">
<title>Node17&#45;&gt;Node14</title>
<path fill="none" stroke="#191970" d="M489.1516,-168.2455C488.8907,-160.9382 488.5248,-150.6944 488.2037,-141.7046"/>
<polygon fill="#191970" stroke="#191970" points="491.6992,-141.5113 487.8444,-131.6427 484.7036,-141.7613 491.6992,-141.5113"/>
</g>
</g>
</svg>
