<?xml version="1.0" encoding="UTF-8" standalone="no"?>
<!DOCTYPE svg PUBLIC "-//W3C//DTD SVG 1.1//EN"
 "http://www.w3.org/Graphics/SVG/1.1/DTD/svg11.dtd">
<!-- Generated by graphviz version 2.40.1 (20161225.0304)
 -->
<!-- Title: iop/fs/filexio/src/irx_imports.h Pages: 1 -->
<!--zoomable 263 -->
<svg id="main" version="1.1" xmlns="http://www.w3.org/2000/svg" xmlns:xlink="http://www.w3.org/1999/xlink" xml:space="preserve" onload="init(evt)">
<style type="text/css"><![CDATA[
.edge:hover path { stroke: red; }
.edge:hover polygon { stroke: red; fill: red; }
]]></style>
<script type="text/javascript"><![CDATA[
var edges = document.getElementsByTagName('g');
if (edges && edges.length) {
  for (var i=0;i<edges.length;i++) {
    if (edges[i].id.substr(0,4)=='edge') {
      edges[i].setAttribute('class','edge');
    }
  }
}
]]></script>
        <defs>
                <circle id="rim" cx="0" cy="0" r="7"/>
                <circle id="rim2" cx="0" cy="0" r="3.5"/>
                <g id="zoomPlus">
                        <use xlink:href="#rim" fill="#404040">
                                <set attributeName="fill" to="#808080" begin="zoomplus.mouseover" end="zoomplus.mouseout"/>
                        </use>
                        <path d="M-4,0h8M0,-4v8" fill="none" stroke="white" stroke-width="1.5" pointer-events="none"/>
                </g>
                <g id="zoomMin">
                        <use xlink:href="#rim" fill="#404040">
                                <set attributeName="fill" to="#808080" begin="zoomminus.mouseover" end="zoomminus.mouseout"/>
                        </use>
                        <path d="M-4,0h8" fill="none" stroke="white" stroke-width="1.5" pointer-events="none"/>
                </g>
                <g id="dirArrow">
                        <path fill="none" stroke="white" stroke-width="1.5" d="M0,-3.0v7 M-2.5,-0.5L0,-3.0L2.5,-0.5"/>
                </g>
               <g id="resetDef">
                       <use xlink:href="#rim2" fill="#404040">
                               <set attributeName="fill" to="#808080" begin="reset.mouseover" end="reset.mouseout"/>
                       </use>
               </g>
        </defs>

<script type="text/javascript">
var viewWidth = 834;
var viewHeight = 263;
var sectionId = 'dynsection-0';
</script>
<script xlink:href="svgpan.js"/>
<svg id="graph" class="graph">
<g id="viewport">
<title>iop/fs/filexio/src/irx_imports.h</title>
<polygon fill="#ffffff" stroke="transparent" points="-4,4 -4,-259 830,-259 830,4 -4,4"/>
<!-- Node1 -->
<g id="node1" class="node">
<title>Node1</title>
<g id="a_node1"><a xlink:title=" ">
<polygon fill="#bfbfbf" stroke="#000000" points="459.5,-224.5 459.5,-254.5 553.5,-254.5 553.5,-224.5 459.5,-224.5"/>
<text text-anchor="start" x="467.5" y="-242.5" font-family="Helvetica,sans-Serif" font-size="10.00" fill="#000000">iop/fs/filexio/src</text>
<text text-anchor="middle" x="506.5" y="-231.5" font-family="Helvetica,sans-Serif" font-size="10.00" fill="#000000">/irx_imports.h</text>
</a>
</g>
</g>
<!-- Node2 -->
<g id="node2" class="node">
<title>Node2</title>
<g id="a_node2"><a xlink:href="irx_8h.html" target="_top" xlink:title=" ">
<polygon fill="#ffffff" stroke="#000000" points="487.5,-112.5 487.5,-131.5 525.5,-131.5 525.5,-112.5 487.5,-112.5"/>
<text text-anchor="middle" x="506.5" y="-119.5" font-family="Helvetica,sans-Serif" font-size="10.00" fill="#000000">irx.h</text>
</a>
</g>
</g>
<!-- Node1&#45;&gt;Node2 -->
<g id="edge1" class="edge">
<title>Node1&#45;&gt;Node2</title>
<path fill="none" stroke="#191970" d="M506.5,-224.1389C506.5,-202.9692 506.5,-164.8174 506.5,-141.6112"/>
<polygon fill="#191970" stroke="#191970" points="510.0001,-141.5594 506.5,-131.5595 503.0001,-141.5595 510.0001,-141.5594"/>
</g>
<!-- Node6 -->
<g id="node6" class="node">
<title>Node6</title>
<g id="a_node6"><a xlink:href="intrman_8h.html" target="_top" xlink:title=" ">
<polygon fill="#ffffff" stroke="#000000" points="414.5,-168.5 414.5,-187.5 478.5,-187.5 478.5,-168.5 414.5,-168.5"/>
<text text-anchor="middle" x="446.5" y="-175.5" font-family="Helvetica,sans-Serif" font-size="10.00" fill="#000000">intrman.h</text>
</a>
</g>
</g>
<!-- Node1&#45;&gt;Node6 -->
<g id="edge5" class="edge">
<title>Node1&#45;&gt;Node6</title>
<path fill="none" stroke="#191970" d="M491.6685,-224.2977C483.0796,-215.4941 472.2398,-204.3833 463.3321,-195.2529"/>
<polygon fill="#191970" stroke="#191970" points="465.5953,-192.5606 456.1068,-187.8469 460.5848,-197.4489 465.5953,-192.5606"/>
</g>
<!-- Node7 -->
<g id="node7" class="node">
<title>Node7</title>
<g id="a_node7"><a xlink:href="iomanX_8h.html" target="_top" xlink:title=" ">
<polygon fill="#ffffff" stroke="#000000" points="179,-168.5 179,-187.5 242,-187.5 242,-168.5 179,-168.5"/>
<text text-anchor="middle" x="210.5" y="-175.5" font-family="Helvetica,sans-Serif" font-size="10.00" fill="#000000">iomanX.h</text>
</a>
</g>
</g>
<!-- Node1&#45;&gt;Node7 -->
<g id="edge8" class="edge">
<title>Node1&#45;&gt;Node7</title>
<path fill="none" stroke="#191970" d="M459.1775,-230.6625C409.8042,-221.2896 329.9179,-205.6973 252.2904,-188.3394"/>
<polygon fill="#191970" stroke="#191970" points="252.8693,-184.8823 242.345,-186.1029 251.3334,-191.7117 252.8693,-184.8823"/>
</g>
<!-- Node13 -->
<g id="node13" class="node">
<title>Node13</title>
<g id="a_node13"><a xlink:href="sifcmd_8h.html" target="_top" xlink:title=" ">
<polygon fill="#ffffff" stroke="#000000" points="535,-168.5 535,-187.5 594,-187.5 594,-168.5 535,-168.5"/>
<text text-anchor="middle" x="564.5" y="-175.5" font-family="Helvetica,sans-Serif" font-size="10.00" fill="#000000">sifcmd.h</text>
</a>
</g>
</g>
<!-- Node1&#45;&gt;Node13 -->
<g id="edge16" class="edge">
<title>Node1&#45;&gt;Node13</title>
<path fill="none" stroke="#191970" d="M520.8371,-224.2977C529.1397,-215.4941 539.6182,-204.3833 548.2289,-195.2529"/>
<polygon fill="#191970" stroke="#191970" points="550.8987,-197.5234 555.2135,-187.8469 545.8061,-192.7206 550.8987,-197.5234"/>
</g>
<!-- Node14 -->
<g id="node14" class="node">
<title>Node14</title>
<g id="a_node14"><a xlink:href="sifman_8h.html" target="_top" xlink:title=" ">
<polygon fill="#ffffff" stroke="#000000" points="260,-168.5 260,-187.5 319,-187.5 319,-168.5 260,-168.5"/>
<text text-anchor="middle" x="289.5" y="-175.5" font-family="Helvetica,sans-Serif" font-size="10.00" fill="#000000">sifman.h</text>
</a>
</g>
</g>
<!-- Node1&#45;&gt;Node14 -->
<g id="edge19" class="edge">
<title>Node1&#45;&gt;Node14</title>
<path fill="none" stroke="#191970" d="M459.4142,-226.1554C420.4471,-215.1117 365.7216,-199.602 329.0073,-189.1968"/>
<polygon fill="#191970" stroke="#191970" points="329.7331,-185.7647 319.1577,-186.4053 327.8244,-192.4994 329.7331,-185.7647"/>
</g>
<!-- Node15 -->
<g id="node15" class="node">
<title>Node15</title>
<g id="a_node15"><a xlink:href="stdio_8h.html" target="_top" xlink:title=" ">
<polygon fill="#ffffff" stroke="#000000" points="612.5,-168.5 612.5,-187.5 662.5,-187.5 662.5,-168.5 612.5,-168.5"/>
<text text-anchor="middle" x="637.5" y="-175.5" font-family="Helvetica,sans-Serif" font-size="10.00" fill="#000000">stdio.h</text>
</a>
</g>
</g>
<!-- Node1&#45;&gt;Node15 -->
<g id="edge22" class="edge">
<title>Node1&#45;&gt;Node15</title>
<path fill="none" stroke="#191970" d="M538.5462,-224.4554C559.7328,-214.509 587.3028,-201.5659 607.9588,-191.8686"/>
<polygon fill="#191970" stroke="#191970" points="609.6349,-194.9483 617.1996,-187.5303 606.6601,-188.6118 609.6349,-194.9483"/>
</g>
<!-- Node17 -->
<g id="node17" class="node">
<title>Node17</title>
<g id="a_node17"><a xlink:href="sysclib_8h.html" target="_top" xlink:title=" ">
<polygon fill="#ffffff" stroke="#000000" points="767,-168.5 767,-187.5 826,-187.5 826,-168.5 767,-168.5"/>
<text text-anchor="middle" x="796.5" y="-175.5" font-family="Helvetica,sans-Serif" font-size="10.00" fill="#000000">sysclib.h</text>
</a>
</g>
</g>
<!-- Node1&#45;&gt;Node17 -->
<g id="edge25" class="edge">
<title>Node1&#45;&gt;Node17</title>
<path fill="none" stroke="#191970" d="M553.8349,-230.5004C602.333,-221.1202 680.1369,-205.6325 756.8864,-188.0592"/>
<polygon fill="#191970" stroke="#191970" points="757.7665,-191.4482 766.7259,-185.7932 756.1955,-184.6267 757.7665,-191.4482"/>
</g>
<!-- Node19 -->
<g id="node19" class="node">
<title>Node19</title>
<g id="a_node19"><a xlink:href="sysmem_8h.html" target="_top" xlink:title=" ">
<polygon fill="#ffffff" stroke="#000000" points="680.5,-168.5 680.5,-187.5 748.5,-187.5 748.5,-168.5 680.5,-168.5"/>
<text text-anchor="middle" x="714.5" y="-175.5" font-family="Helvetica,sans-Serif" font-size="10.00" fill="#000000">sysmem.h</text>
</a>
</g>
</g>
<!-- Node1&#45;&gt;Node19 -->
<g id="edge31" class="edge">
<title>Node1&#45;&gt;Node19</title>
<path fill="none" stroke="#191970" d="M553.6984,-225.5447C589.4806,-214.9649 638.2034,-200.5588 672.6115,-190.3853"/>
<polygon fill="#191970" stroke="#191970" points="673.7591,-193.6958 682.3563,-187.504 671.7743,-186.9831 673.7591,-193.6958"/>
</g>
<!-- Node20 -->
<g id="node20" class="node">
<title>Node20</title>
<g id="a_node20"><a xlink:href="thbase_8h.html" target="_top" xlink:title=" ">
<polygon fill="#ffffff" stroke="#000000" points="337,-168.5 337,-187.5 396,-187.5 396,-168.5 337,-168.5"/>
<text text-anchor="middle" x="366.5" y="-175.5" font-family="Helvetica,sans-Serif" font-size="10.00" fill="#000000">thbase.h</text>
</a>
</g>
</g>
<!-- Node1&#45;&gt;Node20 -->
<g id="edge35" class="edge">
<title>Node1&#45;&gt;Node20</title>
<path fill="none" stroke="#191970" d="M472.2521,-224.4554C449.4051,-214.419 419.6121,-201.3314 397.4733,-191.6061"/>
<polygon fill="#191970" stroke="#191970" points="398.7583,-188.3478 388.195,-187.5303 395.9429,-194.7567 398.7583,-188.3478"/>
</g>
<!-- Node3 -->
<g id="node3" class="node">
<title>Node3</title>
<g id="a_node3"><a xlink:href="types_8h.html" target="_top" xlink:title=" ">
<polygon fill="#ffffff" stroke="#000000" points="480,-56.5 480,-75.5 533,-75.5 533,-56.5 480,-56.5"/>
<text text-anchor="middle" x="506.5" y="-63.5" font-family="Helvetica,sans-Serif" font-size="10.00" fill="#000000">types.h</text>
</a>
</g>
</g>
<!-- Node2&#45;&gt;Node3 -->
<g id="edge2" class="edge">
<title>Node2&#45;&gt;Node3</title>
<path fill="none" stroke="#191970" d="M506.5,-112.2455C506.5,-104.9382 506.5,-94.6944 506.5,-85.7046"/>
<polygon fill="#191970" stroke="#191970" points="510.0001,-85.6426 506.5,-75.6427 503.0001,-85.6427 510.0001,-85.6426"/>
</g>
<!-- Node4 -->
<g id="node4" class="node">
<title>Node4</title>
<g id="a_node4"><a xlink:title=" ">
<polygon fill="#ffffff" stroke="#bfbfbf" points="478.5,-.5 478.5,-19.5 534.5,-19.5 534.5,-.5 478.5,-.5"/>
<text text-anchor="middle" x="506.5" y="-7.5" font-family="Helvetica,sans-Serif" font-size="10.00" fill="#000000">stddef.h</text>
</a>
</g>
</g>
<!-- Node3&#45;&gt;Node4 -->
<g id="edge3" class="edge">
<title>Node3&#45;&gt;Node4</title>
<path fill="none" stroke="#191970" d="M506.5,-56.2455C506.5,-48.9382 506.5,-38.6944 506.5,-29.7046"/>
<polygon fill="#191970" stroke="#191970" points="510.0001,-29.6426 506.5,-19.6427 503.0001,-29.6427 510.0001,-29.6426"/>
</g>
<!-- Node5 -->
<g id="node5" class="node">
<title>Node5</title>
<g id="a_node5"><a xlink:href="tamtypes_8h.html" target="_top" xlink:title=" ">
<polygon fill="#ffffff" stroke="#000000" points="656.5,-.5 656.5,-19.5 728.5,-19.5 728.5,-.5 656.5,-.5"/>
<text text-anchor="middle" x="692.5" y="-7.5" font-family="Helvetica,sans-Serif" font-size="10.00" fill="#000000">tamtypes.h</text>
</a>
</g>
</g>
<!-- Node3&#45;&gt;Node5 -->
<g id="edge4" class="edge">
<title>Node3&#45;&gt;Node5</title>
<path fill="none" stroke="#191970" d="M533.1493,-57.9766C564.0001,-48.6881 615.1773,-33.28 651.1942,-22.4362"/>
<polygon fill="#191970" stroke="#191970" points="652.3549,-25.742 660.9213,-19.5076 650.3368,-19.0392 652.3549,-25.742"/>
</g>
<!-- Node6&#45;&gt;Node2 -->
<g id="edge7" class="edge">
<title>Node6&#45;&gt;Node2</title>
<path fill="none" stroke="#191970" d="M456.9512,-168.2455C465.7269,-160.0549 478.4554,-148.1749 488.814,-138.5069"/>
<polygon fill="#191970" stroke="#191970" points="491.2461,-141.0246 496.1686,-131.6427 486.4699,-135.9072 491.2461,-141.0246"/>
</g>
<!-- Node6&#45;&gt;Node3 -->
<g id="edge6" class="edge">
<title>Node6&#45;&gt;Node3</title>
<path fill="none" stroke="#191970" d="M450.779,-168.4574C456.6702,-155.494 467.7724,-131.6778 478.5,-112 483.5722,-102.696 489.6417,-92.6134 494.8312,-84.2656"/>
<polygon fill="#191970" stroke="#191970" points="497.8505,-86.039 500.2162,-75.7116 491.9266,-82.3096 497.8505,-86.039"/>
</g>
<!-- Node7&#45;&gt;Node2 -->
<g id="edge10" class="edge">
<title>Node7&#45;&gt;Node2</title>
<path fill="none" stroke="#191970" d="M242.3318,-169.8372C245.0891,-169.1923 247.8404,-168.5707 250.5,-168 332.3883,-150.4276 429.9954,-134.1721 477.5613,-126.5491"/>
<polygon fill="#191970" stroke="#191970" points="478.1417,-130.0009 487.4664,-124.9709 477.0402,-123.0881 478.1417,-130.0009"/>
</g>
<!-- Node7&#45;&gt;Node3 -->
<g id="edge9" class="edge">
<title>Node7&#45;&gt;Node3</title>
<path fill="none" stroke="#191970" d="M234.6515,-168.446C267.557,-155.4697 328.3538,-131.639 380.5,-112 410.7053,-100.6243 445.1376,-88.0826 470.3658,-78.9721"/>
<polygon fill="#191970" stroke="#191970" points="471.6746,-82.2208 479.8945,-75.5361 469.3001,-75.6358 471.6746,-82.2208"/>
</g>
<!-- Node8 -->
<g id="node8" class="node">
<title>Node8</title>
<g id="a_node8"><a xlink:href="io__common_8h.html" target="_top" xlink:title=" ">
<polygon fill="#ffffff" stroke="#000000" points="80,-112.5 80,-131.5 163,-131.5 163,-112.5 80,-112.5"/>
<text text-anchor="middle" x="121.5" y="-119.5" font-family="Helvetica,sans-Serif" font-size="10.00" fill="#000000">io_common.h</text>
</a>
</g>
</g>
<!-- Node7&#45;&gt;Node8 -->
<g id="edge11" class="edge">
<title>Node7&#45;&gt;Node8</title>
<path fill="none" stroke="#191970" d="M194.9974,-168.2455C181.342,-159.6534 161.2343,-147.0014 145.5011,-137.1018"/>
<polygon fill="#191970" stroke="#191970" points="147.1529,-134.006 136.825,-131.6427 143.4249,-139.9307 147.1529,-134.006"/>
</g>
<!-- Node11 -->
<g id="node11" class="node">
<title>Node11</title>
<g id="a_node11"><a xlink:href="iox__stat_8h.html" target="_top" xlink:title=" ">
<polygon fill="#ffffff" stroke="#000000" points="181,-112.5 181,-131.5 246,-131.5 246,-112.5 181,-112.5"/>
<text text-anchor="middle" x="213.5" y="-119.5" font-family="Helvetica,sans-Serif" font-size="10.00" fill="#000000">iox_stat.h</text>
</a>
</g>
</g>
<!-- Node7&#45;&gt;Node11 -->
<g id="edge14" class="edge">
<title>Node7&#45;&gt;Node11</title>
<path fill="none" stroke="#191970" d="M211.0226,-168.2455C211.414,-160.9382 211.9628,-150.6944 212.4444,-141.7046"/>
<polygon fill="#191970" stroke="#191970" points="215.9434,-141.8156 212.9834,-131.6427 208.9534,-141.4411 215.9434,-141.8156"/>
</g>
<!-- Node9 -->
<g id="node9" class="node">
<title>Node9</title>
<g id="a_node9"><a xlink:href="fcntl_8h.html" target="_top" xlink:title=" ">
<polygon fill="#ffffff" stroke="#000000" points="0,-56.5 0,-75.5 67,-75.5 67,-56.5 0,-56.5"/>
<text text-anchor="middle" x="33.5" y="-63.5" font-family="Helvetica,sans-Serif" font-size="10.00" fill="#000000">sys/fcntl.h</text>
</a>
</g>
</g>
<!-- Node8&#45;&gt;Node9 -->
<g id="edge12" class="edge">
<title>Node8&#45;&gt;Node9</title>
<path fill="none" stroke="#191970" d="M106.1716,-112.2455C92.6697,-103.6534 72.7878,-91.0014 57.2314,-81.1018"/>
<polygon fill="#191970" stroke="#191970" points="58.9685,-78.0587 48.6528,-75.6427 55.2103,-83.9643 58.9685,-78.0587"/>
</g>
<!-- Node10 -->
<g id="node10" class="node">
<title>Node10</title>
<g id="a_node10"><a xlink:href="unistd_8h.html" target="_top" xlink:title=" ">
<polygon fill="#ffffff" stroke="#000000" points="85,-56.5 85,-75.5 160,-75.5 160,-56.5 85,-56.5"/>
<text text-anchor="middle" x="122.5" y="-63.5" font-family="Helvetica,sans-Serif" font-size="10.00" fill="#000000">sys/unistd.h</text>
</a>
</g>
</g>
<!-- Node8&#45;&gt;Node10 -->
<g id="edge13" class="edge">
<title>Node8&#45;&gt;Node10</title>
<path fill="none" stroke="#191970" d="M121.6742,-112.2455C121.8047,-104.9382 121.9876,-94.6944 122.1481,-85.7046"/>
<polygon fill="#191970" stroke="#191970" points="125.6486,-85.7036 122.3278,-75.6427 118.6497,-85.5786 125.6486,-85.7036"/>
</g>
<!-- Node12 -->
<g id="node12" class="node">
<title>Node12</title>
<g id="a_node12"><a xlink:href="time_8h.html" target="_top" xlink:title=" ">
<polygon fill="#ffffff" stroke="#000000" points="179.5,-56.5 179.5,-75.5 247.5,-75.5 247.5,-56.5 179.5,-56.5"/>
<text text-anchor="middle" x="213.5" y="-63.5" font-family="Helvetica,sans-Serif" font-size="10.00" fill="#000000">sys/time.h</text>
</a>
</g>
</g>
<!-- Node11&#45;&gt;Node12 -->
<g id="edge15" class="edge">
<title>Node11&#45;&gt;Node12</title>
<path fill="none" stroke="#191970" d="M213.5,-112.2455C213.5,-104.9382 213.5,-94.6944 213.5,-85.7046"/>
<polygon fill="#191970" stroke="#191970" points="217.0001,-85.6426 213.5,-75.6427 210.0001,-85.6427 217.0001,-85.6426"/>
</g>
<!-- Node13&#45;&gt;Node2 -->
<g id="edge18" class="edge">
<title>Node13&#45;&gt;Node2</title>
<path fill="none" stroke="#191970" d="M554.3972,-168.2455C545.9972,-160.1352 533.8506,-148.4075 523.8916,-138.7919"/>
<polygon fill="#191970" stroke="#191970" points="526.1122,-136.0707 516.4871,-131.6427 521.25,-141.1066 526.1122,-136.0707"/>
</g>
<!-- Node13&#45;&gt;Node3 -->
<g id="edge17" class="edge">
<title>Node13&#45;&gt;Node3</title>
<path fill="none" stroke="#191970" d="M560.5774,-168.4287C555.1553,-155.4327 544.861,-131.5799 534.5,-112 529.5437,-102.6337 523.4874,-92.5441 518.2768,-84.2076"/>
<polygon fill="#191970" stroke="#191970" points="521.1721,-82.2379 512.8568,-75.6724 515.2629,-85.9904 521.1721,-82.2379"/>
</g>
<!-- Node14&#45;&gt;Node2 -->
<g id="edge21" class="edge">
<title>Node14&#45;&gt;Node2</title>
<path fill="none" stroke="#191970" d="M319.3665,-170.123C322.1158,-169.4031 324.8591,-168.6868 327.5,-168 380.2661,-154.2772 441.8472,-138.5052 477.2938,-129.4503"/>
<polygon fill="#191970" stroke="#191970" points="478.5936,-132.7308 487.4168,-126.8655 476.8617,-125.9484 478.5936,-132.7308"/>
</g>
<!-- Node14&#45;&gt;Node3 -->
<g id="edge20" class="edge">
<title>Node14&#45;&gt;Node3</title>
<path fill="none" stroke="#191970" d="M308.0013,-168.4509C346.1961,-148.7375 433.9473,-103.4465 478.8822,-80.2543"/>
<polygon fill="#191970" stroke="#191970" points="480.7646,-83.2215 488.0455,-75.5249 477.554,-77.0012 480.7646,-83.2215"/>
</g>
<!-- Node15&#45;&gt;Node2 -->
<g id="edge24" class="edge">
<title>Node15&#45;&gt;Node2</title>
<path fill="none" stroke="#191970" d="M614.9803,-168.3733C592.8627,-158.9184 559.0387,-144.4593 535.0465,-134.2031"/>
<polygon fill="#191970" stroke="#191970" points="536.3168,-130.9398 525.7459,-130.2273 533.5652,-137.3763 536.3168,-130.9398"/>
</g>
<!-- Node16 -->
<g id="node16" class="node">
<title>Node16</title>
<g id="a_node16"><a xlink:title=" ">
<polygon fill="#ffffff" stroke="#bfbfbf" points="674.5,-112.5 674.5,-131.5 730.5,-131.5 730.5,-112.5 674.5,-112.5"/>
<text text-anchor="middle" x="702.5" y="-119.5" font-family="Helvetica,sans-Serif" font-size="10.00" fill="#000000">stdarg.h</text>
</a>
</g>
</g>
<!-- Node15&#45;&gt;Node16 -->
<g id="edge23" class="edge">
<title>Node15&#45;&gt;Node16</title>
<path fill="none" stroke="#191970" d="M648.8221,-168.2455C658.4223,-159.9746 672.3892,-147.9416 683.6695,-138.2232"/>
<polygon fill="#191970" stroke="#191970" points="686.016,-140.8214 691.3076,-131.6427 681.447,-135.5182 686.016,-140.8214"/>
</g>
<!-- Node17&#45;&gt;Node2 -->
<g id="edge27" class="edge">
<title>Node17&#45;&gt;Node2</title>
<path fill="none" stroke="#191970" d="M766.7406,-170.1416C763.6275,-169.3878 760.504,-168.6596 757.5,-168 677.8134,-150.5041 582.887,-134.376 535.8823,-126.7015"/>
<polygon fill="#191970" stroke="#191970" points="536.2317,-123.2125 525.8001,-125.0653 535.1103,-130.1221 536.2317,-123.2125"/>
</g>
<!-- Node17&#45;&gt;Node3 -->
<g id="edge26" class="edge">
<title>Node17&#45;&gt;Node3</title>
<path fill="none" stroke="#191970" d="M790.9364,-168.1159C782.081,-153.3661 763.3207,-125.8509 739.5,-112 706.6152,-92.8787 600.091,-77.4242 543.1644,-70.2843"/>
<polygon fill="#191970" stroke="#191970" points="543.4942,-66.7986 533.1411,-69.0489 542.6378,-73.746 543.4942,-66.7986"/>
</g>
<!-- Node17&#45;&gt;Node16 -->
<g id="edge28" class="edge">
<title>Node17&#45;&gt;Node16</title>
<path fill="none" stroke="#191970" d="M780.1264,-168.2455C765.5692,-159.5731 744.069,-146.7645 727.3848,-136.825"/>
<polygon fill="#191970" stroke="#191970" points="729.0683,-133.7539 718.6859,-131.6427 725.4856,-139.7676 729.0683,-133.7539"/>
</g>
<!-- Node18 -->
<g id="node18" class="node">
<title>Node18</title>
<g id="a_node18"><a xlink:href="setjmp_8h.html" target="_top" xlink:title=" ">
<polygon fill="#ffffff" stroke="#000000" points="715,-56.5 715,-75.5 774,-75.5 774,-56.5 715,-56.5"/>
<text text-anchor="middle" x="744.5" y="-63.5" font-family="Helvetica,sans-Serif" font-size="10.00" fill="#000000">setjmp.h</text>
</a>
</g>
</g>
<!-- Node17&#45;&gt;Node18 -->
<g id="edge29" class="edge">
<title>Node17&#45;&gt;Node18</title>
<path fill="none" stroke="#191970" d="M793.6555,-168.3593C789.6505,-155.2847 781.7908,-131.343 772.5,-112 767.912,-102.4479 761.8979,-92.337 756.6199,-84.0345"/>
<polygon fill="#191970" stroke="#191970" points="759.4838,-82.0187 751.0889,-75.5553 753.6209,-85.8432 759.4838,-82.0187"/>
</g>
<!-- Node18&#45;&gt;Node5 -->
<g id="edge30" class="edge">
<title>Node18&#45;&gt;Node5</title>
<path fill="none" stroke="#191970" d="M735.4423,-56.2455C727.9858,-48.2155 717.2366,-36.6394 708.3583,-27.0781"/>
<polygon fill="#191970" stroke="#191970" points="710.8232,-24.589 701.4539,-19.6427 705.6937,-29.3522 710.8232,-24.589"/>
</g>
<!-- Node19&#45;&gt;Node2 -->
<g id="edge33" class="edge">
<title>Node19&#45;&gt;Node2</title>
<path fill="none" stroke="#191970" d="M680.153,-168.7527C639.7579,-157.8771 573.416,-140.0159 535.4962,-129.8067"/>
<polygon fill="#191970" stroke="#191970" points="536.1658,-126.3624 525.5997,-127.1422 534.3459,-133.1217 536.1658,-126.3624"/>
</g>
<!-- Node19&#45;&gt;Node3 -->
<g id="edge32" class="edge">
<title>Node19&#45;&gt;Node3</title>
<path fill="none" stroke="#191970" d="M696.766,-168.4509C660.2321,-148.7788 576.396,-103.6363 533.2437,-80.4005"/>
<polygon fill="#191970" stroke="#191970" points="534.6532,-77.1843 524.1891,-75.5249 531.3344,-83.3476 534.6532,-77.1843"/>
</g>
<!-- Node19&#45;&gt;Node16 -->
<g id="edge34" class="edge">
<title>Node19&#45;&gt;Node16</title>
<path fill="none" stroke="#191970" d="M712.4098,-168.2455C710.8439,-160.9382 708.6488,-150.6944 706.7224,-141.7046"/>
<polygon fill="#191970" stroke="#191970" points="710.084,-140.6873 704.5663,-131.6427 703.2393,-142.1541 710.084,-140.6873"/>
</g>
<!-- Node20&#45;&gt;Node2 -->
<g id="edge37" class="edge">
<title>Node20&#45;&gt;Node2</title>
<path fill="none" stroke="#191970" d="M390.5669,-168.3733C414.7232,-158.7107 451.9457,-143.8217 477.6664,-133.5335"/>
<polygon fill="#191970" stroke="#191970" points="479.2587,-136.6662 487.2436,-129.7026 476.659,-130.1669 479.2587,-136.6662"/>
</g>
<!-- Node20&#45;&gt;Node3 -->
<g id="edge36" class="edge">
<title>Node20&#45;&gt;Node3</title>
<path fill="none" stroke="#191970" d="M378.4363,-168.4509C402.5099,-149.1921 457.0977,-105.5218 486.6331,-81.8935"/>
<polygon fill="#191970" stroke="#191970" points="488.9716,-84.5049 494.5939,-75.5249 484.5987,-79.0388 488.9716,-84.5049"/>
</g>
</g>
</svg>
        <g id="navigator" transform="translate(0 0)" fill="#404254">
                <rect fill="#f2f5e9" fill-opacity="0.5" stroke="#606060" stroke-width=".5" x="0" y="0" width="60" height="60"/>
                <use id="zoomplus" xlink:href="#zoomPlus" x="17" y="9" onmousedown="handleZoom(evt,'in')"/>
                <use id="zoomminus" xlink:href="#zoomMin" x="42" y="9" onmousedown="handleZoom(evt,'out')"/>
                <use id="reset" xlink:href="#resetDef" x="30" y="36" onmousedown="handleReset()"/>
                <g id="arrowUp" xlink:href="#dirArrow" transform="translate(30 24)" onmousedown="handlePan(0,-1)">
                  <use xlink:href="#rim" fill="#404040">
                        <set attributeName="fill" to="#808080" begin="arrowUp.mouseover" end="arrowUp.mouseout"/>
                  </use>
                  <path fill="none" stroke="white" stroke-width="1.5" d="M0,-3.0v7 M-2.5,-0.5L0,-3.0L2.5,-0.5"/>
                </g>
                <g id="arrowRight" xlink:href="#dirArrow" transform="rotate(90) translate(36 -43)" onmousedown="handlePan(1,0)">
                  <use xlink:href="#rim" fill="#404040">
                        <set attributeName="fill" to="#808080" begin="arrowRight.mouseover" end="arrowRight.mouseout"/>
                  </use>
                  <path fill="none" stroke="white" stroke-width="1.5" d="M0,-3.0v7 M-2.5,-0.5L0,-3.0L2.5,-0.5"/>
                </g>
                <g id="arrowDown" xlink:href="#dirArrow" transform="rotate(180) translate(-30 -48)" onmousedown="handlePan(0,1)">
                  <use xlink:href="#rim" fill="#404040">
                        <set attributeName="fill" to="#808080" begin="arrowDown.mouseover" end="arrowDown.mouseout"/>
                  </use>
                  <path fill="none" stroke="white" stroke-width="1.5" d="M0,-3.0v7 M-2.5,-0.5L0,-3.0L2.5,-0.5"/>
                </g>
                <g id="arrowLeft" xlink:href="#dirArrow" transform="rotate(270) translate(-36 17)" onmousedown="handlePan(-1,0)">
                  <use xlink:href="#rim" fill="#404040">
                        <set attributeName="fill" to="#808080" begin="arrowLeft.mouseover" end="arrowLeft.mouseout"/>
                  </use>
                  <path fill="none" stroke="white" stroke-width="1.5" d="M0,-3.0v7 M-2.5,-0.5L0,-3.0L2.5,-0.5"/>
                </g>
        </g>
        <svg viewBox="0 0 15 15" width="100%" height="30px" preserveAspectRatio="xMaxYMin meet">
         <g id="arrow_out" transform="scale(0.3 0.3)">
          <a xlink:href="fs_2filexio_2src_2irx__imports_8h__incl_org.svg" target="_base">
           <rect id="button" ry="5" rx="5" y="6" x="6" height="38" width="38"
                fill="#f2f5e9" fill-opacity="0.5" stroke="#606060" stroke-width="1.0"/>
           <path id="arrow"
             d="M 11.500037,31.436501 C 11.940474,20.09759 22.043105,11.32322 32.158766,21.979434 L 37.068811,17.246167 C 37.068811,17.246167 37.088388,32 37.088388,32 L 22.160133,31.978069 C 22.160133,31.978069 26.997745,27.140456 26.997745,27.140456 C 18.528582,18.264221 13.291696,25.230495 11.500037,31.436501 z"
             style="fill:#404040;"/>
          </a>
         </g>
        </svg>
</svg>
