<?xml version="1.0" encoding="UTF-8" standalone="no"?>
<!DOCTYPE svg PUBLIC "-//W3C//DTD SVG 1.1//EN"
 "http://www.w3.org/Graphics/SVG/1.1/DTD/svg11.dtd">
<!-- Generated by graphviz version 2.40.1 (20161225.0304)
 -->
<!-- Title: iop/fs/bdmfs_vfat/src/main.c Pages: 1 -->
<svg width="625pt" height="263pt"
 viewBox="0.00 0.00 624.50 263.00" xmlns="http://www.w3.org/2000/svg" xmlns:xlink="http://www.w3.org/1999/xlink">
<g id="graph0" class="graph" transform="scale(1 1) rotate(0) translate(4 259)">
<title>iop/fs/bdmfs_vfat/src/main.c</title>
<polygon fill="#ffffff" stroke="transparent" points="-4,4 -4,-259 620.5,-259 620.5,4 -4,4"/>
<!-- Node1 -->
<g id="node1" class="node">
<title>Node1</title>
<g id="a_node1"><a xlink:title=" ">
<polygon fill="#bfbfbf" stroke="#000000" points="213,-224.5 213,-254.5 332,-254.5 332,-224.5 213,-224.5"/>
<text text-anchor="start" x="221" y="-242.5" font-family="Helvetica,sans-Serif" font-size="10.00" fill="#000000">iop/fs/bdmfs_vfat/src</text>
<text text-anchor="middle" x="272.5" y="-231.5" font-family="Helvetica,sans-Serif" font-size="10.00" fill="#000000">/main.c</text>
</a>
</g>
</g>
<!-- Node2 -->
<g id="node2" class="node">
<title>Node2</title>
<g id="a_node2"><a xlink:href="bdm_8h.html" target="_top" xlink:title=" ">
<polygon fill="#ffffff" stroke="#000000" points="3,-168.5 3,-187.5 50,-187.5 50,-168.5 3,-168.5"/>
<text text-anchor="middle" x="26.5" y="-175.5" font-family="Helvetica,sans-Serif" font-size="10.00" fill="#000000">bdm.h</text>
</a>
</g>
</g>
<!-- Node1&#45;&gt;Node2 -->
<g id="edge1" class="edge">
<title>Node1&#45;&gt;Node2</title>
<path fill="none" stroke="#191970" d="M212.5891,-225.9764C172.1186,-216.6198 117.2855,-203.5163 60.178,-188.0755"/>
<polygon fill="#191970" stroke="#191970" points="60.8145,-184.6214 50.2463,-185.3724 58.9762,-191.3757 60.8145,-184.6214"/>
</g>
<!-- Node3 -->
<g id="node3" class="node">
<title>Node3</title>
<g id="a_node3"><a xlink:href="irx_8h.html" target="_top" xlink:title=" ">
<polygon fill="#ffffff" stroke="#000000" points="214.5,-112.5 214.5,-131.5 252.5,-131.5 252.5,-112.5 214.5,-112.5"/>
<text text-anchor="middle" x="233.5" y="-119.5" font-family="Helvetica,sans-Serif" font-size="10.00" fill="#000000">irx.h</text>
</a>
</g>
</g>
<!-- Node1&#45;&gt;Node3 -->
<g id="edge10" class="edge">
<title>Node1&#45;&gt;Node3</title>
<path fill="none" stroke="#191970" d="M267.4014,-224.1389C260.343,-202.873 247.5965,-164.4702 239.9045,-141.2956"/>
<polygon fill="#191970" stroke="#191970" points="243.145,-139.9478 236.6729,-131.5595 236.5014,-142.1529 243.145,-139.9478"/>
</g>
<!-- Node8 -->
<g id="node8" class="node">
<title>Node8</title>
<g id="a_node8"><a xlink:href="intrman_8h.html" target="_top" xlink:title=" ">
<polygon fill="#ffffff" stroke="#000000" points="154.5,-168.5 154.5,-187.5 218.5,-187.5 218.5,-168.5 154.5,-168.5"/>
<text text-anchor="middle" x="186.5" y="-175.5" font-family="Helvetica,sans-Serif" font-size="10.00" fill="#000000">intrman.h</text>
</a>
</g>
</g>
<!-- Node1&#45;&gt;Node8 -->
<g id="edge7" class="edge">
<title>Node1&#45;&gt;Node8</title>
<path fill="none" stroke="#191970" d="M251.2416,-224.2977C238.2282,-214.9917 221.6097,-203.1075 208.4683,-193.7099"/>
<polygon fill="#191970" stroke="#191970" points="210.1829,-190.6332 200.0129,-187.6633 206.1111,-196.3271 210.1829,-190.6332"/>
</g>
<!-- Node9 -->
<g id="node9" class="node">
<title>Node9</title>
<g id="a_node9"><a xlink:href="loadcore_8h.html" target="_top" xlink:title=" ">
<polygon fill="#ffffff" stroke="#000000" points="68.5,-168.5 68.5,-187.5 136.5,-187.5 136.5,-168.5 68.5,-168.5"/>
<text text-anchor="middle" x="102.5" y="-175.5" font-family="Helvetica,sans-Serif" font-size="10.00" fill="#000000">loadcore.h</text>
</a>
</g>
</g>
<!-- Node1&#45;&gt;Node9 -->
<g id="edge11" class="edge">
<title>Node1&#45;&gt;Node9</title>
<path fill="none" stroke="#191970" d="M230.9133,-224.4554C202.5484,-214.194 165.3667,-200.7429 138.3164,-190.9571"/>
<polygon fill="#191970" stroke="#191970" points="139.4382,-187.641 128.844,-187.5303 137.0569,-194.2235 139.4382,-187.641"/>
</g>
<!-- Node10 -->
<g id="node10" class="node">
<title>Node10</title>
<g id="a_node10"><a xlink:href="stdio_8h.html" target="_top" xlink:title=" ">
<polygon fill="#ffffff" stroke="#000000" points="274.5,-168.5 274.5,-187.5 324.5,-187.5 324.5,-168.5 274.5,-168.5"/>
<text text-anchor="middle" x="299.5" y="-175.5" font-family="Helvetica,sans-Serif" font-size="10.00" fill="#000000">stdio.h</text>
</a>
</g>
</g>
<!-- Node1&#45;&gt;Node10 -->
<g id="edge14" class="edge">
<title>Node1&#45;&gt;Node10</title>
<path fill="none" stroke="#191970" d="M279.1742,-224.2977C282.7659,-216.1166 287.2324,-205.943 291.0629,-197.2179"/>
<polygon fill="#191970" stroke="#191970" points="294.3618,-198.4104 295.177,-187.8469 287.9522,-195.5964 294.3618,-198.4104"/>
</g>
<!-- Node12 -->
<g id="node12" class="node">
<title>Node12</title>
<g id="a_node12"><a xlink:href="sysmem_8h.html" target="_top" xlink:title=" ">
<polygon fill="#ffffff" stroke="#000000" points="342.5,-168.5 342.5,-187.5 410.5,-187.5 410.5,-168.5 342.5,-168.5"/>
<text text-anchor="middle" x="376.5" y="-175.5" font-family="Helvetica,sans-Serif" font-size="10.00" fill="#000000">sysmem.h</text>
</a>
</g>
</g>
<!-- Node1&#45;&gt;Node12 -->
<g id="edge17" class="edge">
<title>Node1&#45;&gt;Node12</title>
<path fill="none" stroke="#191970" d="M297.9413,-224.4554C314.2284,-214.8241 335.2673,-202.3828 351.473,-192.7996"/>
<polygon fill="#191970" stroke="#191970" points="353.5576,-195.6331 360.3837,-187.5303 349.9945,-189.6078 353.5576,-195.6331"/>
</g>
<!-- Node13 -->
<g id="node13" class="node">
<title>Node13</title>
<g id="a_node13"><a xlink:title=" ">
<polygon fill="#ffffff" stroke="#bfbfbf" points="428.5,-168.5 428.5,-187.5 500.5,-187.5 500.5,-168.5 428.5,-168.5"/>
<text text-anchor="middle" x="464.5" y="-175.5" font-family="Helvetica,sans-Serif" font-size="10.00" fill="#000000">fat_driver.h</text>
</a>
</g>
</g>
<!-- Node1&#45;&gt;Node13 -->
<g id="edge21" class="edge">
<title>Node1&#45;&gt;Node13</title>
<path fill="none" stroke="#191970" d="M319.4685,-224.4554C351.7852,-214.104 394.2351,-200.5067 424.8499,-190.7004"/>
<polygon fill="#191970" stroke="#191970" points="426.2911,-193.914 434.7468,-187.5303 424.1557,-187.2477 426.2911,-193.914"/>
</g>
<!-- Node14 -->
<g id="node14" class="node">
<title>Node14</title>
<g id="a_node14"><a xlink:title=" ">
<polygon fill="#ffffff" stroke="#bfbfbf" points="518.5,-168.5 518.5,-187.5 616.5,-187.5 616.5,-168.5 518.5,-168.5"/>
<text text-anchor="middle" x="567.5" y="-175.5" font-family="Helvetica,sans-Serif" font-size="10.00" fill="#000000">module_debug.h</text>
</a>
</g>
</g>
<!-- Node1&#45;&gt;Node14 -->
<g id="edge22" class="edge">
<title>Node1&#45;&gt;Node14</title>
<path fill="none" stroke="#191970" d="M332.1977,-227.0546C384.7573,-216.0972 460.7031,-200.2644 511.9752,-189.5755"/>
<polygon fill="#191970" stroke="#191970" points="512.8112,-192.9766 521.8864,-187.5093 511.3825,-186.1239 512.8112,-192.9766"/>
</g>
<!-- Node2&#45;&gt;Node3 -->
<g id="edge2" class="edge">
<title>Node2&#45;&gt;Node3</title>
<path fill="none" stroke="#191970" d="M50.2632,-170.6882C53.3654,-169.7662 56.5052,-168.8493 59.5,-168 110.3072,-153.591 169.8711,-138.1574 204.4829,-129.3327"/>
<polygon fill="#191970" stroke="#191970" points="205.557,-132.6711 214.3861,-126.8147 203.832,-125.8869 205.557,-132.6711"/>
</g>
<!-- Node7 -->
<g id="node7" class="node">
<title>Node7</title>
<g id="a_node7"><a xlink:title=" ">
<polygon fill="#ffffff" stroke="#bfbfbf" points="0,-112.5 0,-131.5 53,-131.5 53,-112.5 0,-112.5"/>
<text text-anchor="middle" x="26.5" y="-119.5" font-family="Helvetica,sans-Serif" font-size="10.00" fill="#000000">types.h</text>
</a>
</g>
</g>
<!-- Node2&#45;&gt;Node7 -->
<g id="edge6" class="edge">
<title>Node2&#45;&gt;Node7</title>
<path fill="none" stroke="#191970" d="M26.5,-168.2455C26.5,-160.9382 26.5,-150.6944 26.5,-141.7046"/>
<polygon fill="#191970" stroke="#191970" points="30.0001,-141.6426 26.5,-131.6427 23.0001,-141.6427 30.0001,-141.6426"/>
</g>
<!-- Node4 -->
<g id="node4" class="node">
<title>Node4</title>
<g id="a_node4"><a xlink:href="types_8h.html" target="_top" xlink:title=" ">
<polygon fill="#ffffff" stroke="#000000" points="183,-56.5 183,-75.5 236,-75.5 236,-56.5 183,-56.5"/>
<text text-anchor="middle" x="209.5" y="-63.5" font-family="Helvetica,sans-Serif" font-size="10.00" fill="#000000">types.h</text>
</a>
</g>
</g>
<!-- Node3&#45;&gt;Node4 -->
<g id="edge3" class="edge">
<title>Node3&#45;&gt;Node4</title>
<path fill="none" stroke="#191970" d="M229.3195,-112.2455C226.119,-104.7776 221.604,-94.2427 217.6916,-85.1137"/>
<polygon fill="#191970" stroke="#191970" points="220.7888,-83.4554 213.6326,-75.6427 214.3548,-86.2129 220.7888,-83.4554"/>
</g>
<!-- Node5 -->
<g id="node5" class="node">
<title>Node5</title>
<g id="a_node5"><a xlink:title=" ">
<polygon fill="#ffffff" stroke="#bfbfbf" points="140.5,-.5 140.5,-19.5 196.5,-19.5 196.5,-.5 140.5,-.5"/>
<text text-anchor="middle" x="168.5" y="-7.5" font-family="Helvetica,sans-Serif" font-size="10.00" fill="#000000">stddef.h</text>
</a>
</g>
</g>
<!-- Node4&#45;&gt;Node5 -->
<g id="edge4" class="edge">
<title>Node4&#45;&gt;Node5</title>
<path fill="none" stroke="#191970" d="M202.3583,-56.2455C196.6556,-48.4564 188.51,-37.3308 181.6375,-27.9439"/>
<polygon fill="#191970" stroke="#191970" points="184.2913,-25.6437 175.5598,-19.6427 178.6432,-29.7789 184.2913,-25.6437"/>
</g>
<!-- Node6 -->
<g id="node6" class="node">
<title>Node6</title>
<g id="a_node6"><a xlink:href="tamtypes_8h.html" target="_top" xlink:title=" ">
<polygon fill="#ffffff" stroke="#000000" points="214.5,-.5 214.5,-19.5 286.5,-19.5 286.5,-.5 214.5,-.5"/>
<text text-anchor="middle" x="250.5" y="-7.5" font-family="Helvetica,sans-Serif" font-size="10.00" fill="#000000">tamtypes.h</text>
</a>
</g>
</g>
<!-- Node4&#45;&gt;Node6 -->
<g id="edge5" class="edge">
<title>Node4&#45;&gt;Node6</title>
<path fill="none" stroke="#191970" d="M216.6417,-56.2455C222.3444,-48.4564 230.49,-37.3308 237.3625,-27.9439"/>
<polygon fill="#191970" stroke="#191970" points="240.3568,-29.7789 243.4402,-19.6427 234.7087,-25.6437 240.3568,-29.7789"/>
</g>
<!-- Node8&#45;&gt;Node3 -->
<g id="edge9" class="edge">
<title>Node8&#45;&gt;Node3</title>
<path fill="none" stroke="#191970" d="M194.6868,-168.2455C201.3589,-160.2958 210.9479,-148.8706 218.9253,-139.3656"/>
<polygon fill="#191970" stroke="#191970" points="221.6592,-141.5525 225.407,-131.6427 216.2974,-137.0524 221.6592,-141.5525"/>
</g>
<!-- Node8&#45;&gt;Node4 -->
<g id="edge8" class="edge">
<title>Node8&#45;&gt;Node4</title>
<path fill="none" stroke="#191970" d="M188.461,-168.4509C192.2292,-150.1013 200.5483,-109.5908 205.5224,-85.3693"/>
<polygon fill="#191970" stroke="#191970" points="208.9608,-86.0246 207.544,-75.5249 202.1039,-84.6164 208.9608,-86.0246"/>
</g>
<!-- Node9&#45;&gt;Node3 -->
<g id="edge13" class="edge">
<title>Node9&#45;&gt;Node3</title>
<path fill="none" stroke="#191970" d="M125.0197,-168.3733C147.1373,-158.9184 180.9613,-144.4593 204.9535,-134.2031"/>
<polygon fill="#191970" stroke="#191970" points="206.4348,-137.3763 214.2541,-130.2273 203.6832,-130.9398 206.4348,-137.3763"/>
</g>
<!-- Node9&#45;&gt;Node4 -->
<g id="edge12" class="edge">
<title>Node9&#45;&gt;Node4</title>
<path fill="none" stroke="#191970" d="M111.6228,-168.4509C129.7849,-149.4401 170.672,-106.6423 193.4347,-82.816"/>
<polygon fill="#191970" stroke="#191970" points="196.0232,-85.1733 200.4003,-75.5249 190.9617,-80.3378 196.0232,-85.1733"/>
</g>
<!-- Node10&#45;&gt;Node3 -->
<g id="edge16" class="edge">
<title>Node10&#45;&gt;Node3</title>
<path fill="none" stroke="#191970" d="M288.0037,-168.2455C278.2558,-159.9746 264.0741,-147.9416 252.6202,-138.2232"/>
<polygon fill="#191970" stroke="#191970" points="254.7541,-135.4437 244.8646,-131.6427 250.2253,-140.7813 254.7541,-135.4437"/>
</g>
<!-- Node11 -->
<g id="node11" class="node">
<title>Node11</title>
<g id="a_node11"><a xlink:title=" ">
<polygon fill="#ffffff" stroke="#bfbfbf" points="276.5,-112.5 276.5,-131.5 332.5,-131.5 332.5,-112.5 276.5,-112.5"/>
<text text-anchor="middle" x="304.5" y="-119.5" font-family="Helvetica,sans-Serif" font-size="10.00" fill="#000000">stdarg.h</text>
</a>
</g>
</g>
<!-- Node10&#45;&gt;Node11 -->
<g id="edge15" class="edge">
<title>Node10&#45;&gt;Node11</title>
<path fill="none" stroke="#191970" d="M300.3709,-168.2455C301.0234,-160.9382 301.938,-150.6944 302.7407,-141.7046"/>
<polygon fill="#191970" stroke="#191970" points="306.2358,-141.9143 303.639,-131.6427 299.2635,-141.2918 306.2358,-141.9143"/>
</g>
<!-- Node12&#45;&gt;Node3 -->
<g id="edge19" class="edge">
<title>Node12&#45;&gt;Node3</title>
<path fill="none" stroke="#191970" d="M351.9174,-168.3733C326.9927,-158.6125 288.449,-143.5185 262.1541,-133.2212"/>
<polygon fill="#191970" stroke="#191970" points="263.3177,-129.9181 252.7299,-129.5306 260.7651,-136.4361 263.3177,-129.9181"/>
</g>
<!-- Node12&#45;&gt;Node4 -->
<g id="edge18" class="edge">
<title>Node12&#45;&gt;Node4</title>
<path fill="none" stroke="#191970" d="M373.9074,-168.4976C369.5458,-154.2462 359.4125,-127.3734 341.5,-112 314.4374,-88.7736 274.9483,-77.0549 246.2169,-71.2859"/>
<polygon fill="#191970" stroke="#191970" points="246.6321,-67.8032 236.1613,-69.4193 245.3545,-74.6857 246.6321,-67.8032"/>
</g>
<!-- Node12&#45;&gt;Node11 -->
<g id="edge20" class="edge">
<title>Node12&#45;&gt;Node11</title>
<path fill="none" stroke="#191970" d="M363.9586,-168.2455C353.2213,-159.8943 337.5527,-147.7076 324.9953,-137.9408"/>
<polygon fill="#191970" stroke="#191970" points="326.9401,-135.0194 316.8977,-131.6427 322.6425,-140.5449 326.9401,-135.0194"/>
</g>
</g>
</svg>
