<?xml version="1.0" encoding="UTF-8" standalone="no"?>
<!DOCTYPE svg PUBLIC "-//W3C//DTD SVG 1.1//EN"
 "http://www.w3.org/Graphics/SVG/1.1/DTD/svg11.dtd">
<!-- Generated by graphviz version 2.40.1 (20161225.0304)
 -->
<!-- Title: iop/fs/bdmfs_vfat/src/scache.c Pages: 1 -->
<svg width="476pt" height="263pt"
 viewBox="0.00 0.00 476.00 263.00" xmlns="http://www.w3.org/2000/svg" xmlns:xlink="http://www.w3.org/1999/xlink">
<g id="graph0" class="graph" transform="scale(1 1) rotate(0) translate(4 259)">
<title>iop/fs/bdmfs_vfat/src/scache.c</title>
<polygon fill="#ffffff" stroke="transparent" points="-4,4 -4,-259 472,-259 472,4 -4,4"/>
<!-- Node1 -->
<g id="node1" class="node">
<title>Node1</title>
<g id="a_node1"><a xlink:title=" ">
<polygon fill="#bfbfbf" stroke="#000000" points="149.5,-224.5 149.5,-254.5 268.5,-254.5 268.5,-224.5 149.5,-224.5"/>
<text text-anchor="start" x="157.5" y="-242.5" font-family="Helvetica,sans-Serif" font-size="10.00" fill="#000000">iop/fs/bdmfs_vfat/src</text>
<text text-anchor="middle" x="209" y="-231.5" font-family="Helvetica,sans-Serif" font-size="10.00" fill="#000000">/scache.c</text>
</a>
</g>
</g>
<!-- Node2 -->
<g id="node2" class="node">
<title>Node2</title>
<g id="a_node2"><a xlink:href="stdio_8h.html" target="_top" xlink:title=" ">
<polygon fill="#ffffff" stroke="#000000" points="14,-168.5 14,-187.5 64,-187.5 64,-168.5 14,-168.5"/>
<text text-anchor="middle" x="39" y="-175.5" font-family="Helvetica,sans-Serif" font-size="10.00" fill="#000000">stdio.h</text>
</a>
</g>
</g>
<!-- Node1&#45;&gt;Node2 -->
<g id="edge1" class="edge">
<title>Node1&#45;&gt;Node2</title>
<path fill="none" stroke="#191970" d="M167.4133,-224.4554C138.6982,-214.0673 100.9473,-200.4103 73.8192,-190.5964"/>
<polygon fill="#191970" stroke="#191970" points="74.9359,-187.2784 64.3417,-187.1677 72.5546,-193.8609 74.9359,-187.2784"/>
</g>
<!-- Node7 -->
<g id="node7" class="node">
<title>Node7</title>
<g id="a_node7"><a xlink:href="tamtypes_8h.html" target="_top" xlink:title=" ">
<polygon fill="#ffffff" stroke="#000000" points="142,-.5 142,-19.5 214,-19.5 214,-.5 142,-.5"/>
<text text-anchor="middle" x="178" y="-7.5" font-family="Helvetica,sans-Serif" font-size="10.00" fill="#000000">tamtypes.h</text>
</a>
</g>
</g>
<!-- Node1&#45;&gt;Node7 -->
<g id="edge11" class="edge">
<title>Node1&#45;&gt;Node7</title>
<path fill="none" stroke="#191970" d="M204.935,-224.2757C202.3397,-214.0757 199.0832,-200.3104 197,-188 187.352,-130.9854 181.6917,-62.8199 179.3191,-29.8304"/>
<polygon fill="#191970" stroke="#191970" points="182.8004,-29.438 178.6159,-19.7045 175.8172,-29.923 182.8004,-29.438"/>
</g>
<!-- Node8 -->
<g id="node8" class="node">
<title>Node8</title>
<g id="a_node8"><a xlink:href="sysmem_8h.html" target="_top" xlink:title=" ">
<polygon fill="#ffffff" stroke="#000000" points="82,-168.5 82,-187.5 150,-187.5 150,-168.5 82,-168.5"/>
<text text-anchor="middle" x="116" y="-175.5" font-family="Helvetica,sans-Serif" font-size="10.00" fill="#000000">sysmem.h</text>
</a>
</g>
</g>
<!-- Node1&#45;&gt;Node8 -->
<g id="edge7" class="edge">
<title>Node1&#45;&gt;Node8</title>
<path fill="none" stroke="#191970" d="M186.0112,-224.2977C171.8034,-214.9022 153.6215,-202.8787 139.3475,-193.4395"/>
<polygon fill="#191970" stroke="#191970" points="140.8845,-190.2598 130.6128,-187.6633 137.0233,-196.0986 140.8845,-190.2598"/>
</g>
<!-- Node9 -->
<g id="node9" class="node">
<title>Node9</title>
<g id="a_node9"><a xlink:title=" ">
<polygon fill="#ffffff" stroke="#bfbfbf" points="206,-168.5 206,-187.5 274,-187.5 274,-168.5 206,-168.5"/>
<text text-anchor="middle" x="240" y="-175.5" font-family="Helvetica,sans-Serif" font-size="10.00" fill="#000000">common.h</text>
</a>
</g>
</g>
<!-- Node1&#45;&gt;Node9 -->
<g id="edge12" class="edge">
<title>Node1&#45;&gt;Node9</title>
<path fill="none" stroke="#191970" d="M216.6629,-224.2977C220.8316,-216.0277 226.0265,-205.7215 230.4561,-196.9339"/>
<polygon fill="#191970" stroke="#191970" points="233.6607,-198.3521 235.0365,-187.8469 227.4099,-195.2012 233.6607,-198.3521"/>
</g>
<!-- Node10 -->
<g id="node10" class="node">
<title>Node10</title>
<g id="a_node10"><a xlink:title=" ">
<polygon fill="#ffffff" stroke="#bfbfbf" points="292.5,-168.5 292.5,-187.5 351.5,-187.5 351.5,-168.5 292.5,-168.5"/>
<text text-anchor="middle" x="322" y="-175.5" font-family="Helvetica,sans-Serif" font-size="10.00" fill="#000000">scache.h</text>
</a>
</g>
</g>
<!-- Node1&#45;&gt;Node10 -->
<g id="edge13" class="edge">
<title>Node1&#45;&gt;Node10</title>
<path fill="none" stroke="#191970" d="M236.6429,-224.4554C254.5049,-214.734 277.6268,-202.15 295.2995,-192.5317"/>
<polygon fill="#191970" stroke="#191970" points="297.3787,-195.3849 304.489,-187.5303 294.0325,-189.2365 297.3787,-195.3849"/>
</g>
<!-- Node11 -->
<g id="node11" class="node">
<title>Node11</title>
<g id="a_node11"><a xlink:title=" ">
<polygon fill="#ffffff" stroke="#bfbfbf" points="370,-168.5 370,-187.5 468,-187.5 468,-168.5 370,-168.5"/>
<text text-anchor="middle" x="419" y="-175.5" font-family="Helvetica,sans-Serif" font-size="10.00" fill="#000000">module_debug.h</text>
</a>
</g>
</g>
<!-- Node1&#45;&gt;Node11 -->
<g id="edge14" class="edge">
<title>Node1&#45;&gt;Node11</title>
<path fill="none" stroke="#191970" d="M260.3718,-224.4554C296.0255,-214.0139 342.9561,-200.27 376.5032,-190.4455"/>
<polygon fill="#191970" stroke="#191970" points="377.8442,-193.6998 386.4575,-187.5303 375.8768,-186.982 377.8442,-193.6998"/>
</g>
<!-- Node3 -->
<g id="node3" class="node">
<title>Node3</title>
<g id="a_node3"><a xlink:title=" ">
<polygon fill="#ffffff" stroke="#bfbfbf" points="0,-112.5 0,-131.5 56,-131.5 56,-112.5 0,-112.5"/>
<text text-anchor="middle" x="28" y="-119.5" font-family="Helvetica,sans-Serif" font-size="10.00" fill="#000000">stdarg.h</text>
</a>
</g>
</g>
<!-- Node2&#45;&gt;Node3 -->
<g id="edge2" class="edge">
<title>Node2&#45;&gt;Node3</title>
<path fill="none" stroke="#191970" d="M37.0839,-168.2455C35.6486,-160.9382 33.6364,-150.6944 31.8705,-141.7046"/>
<polygon fill="#191970" stroke="#191970" points="35.256,-140.7805 29.8941,-131.6427 28.3873,-142.1298 35.256,-140.7805"/>
</g>
<!-- Node4 -->
<g id="node4" class="node">
<title>Node4</title>
<g id="a_node4"><a xlink:href="irx_8h.html" target="_top" xlink:title=" ">
<polygon fill="#ffffff" stroke="#000000" points="74,-112.5 74,-131.5 112,-131.5 112,-112.5 74,-112.5"/>
<text text-anchor="middle" x="93" y="-119.5" font-family="Helvetica,sans-Serif" font-size="10.00" fill="#000000">irx.h</text>
</a>
</g>
</g>
<!-- Node2&#45;&gt;Node4 -->
<g id="edge3" class="edge">
<title>Node2&#45;&gt;Node4</title>
<path fill="none" stroke="#191970" d="M48.4061,-168.2455C56.1493,-160.2155 67.312,-148.6394 76.5318,-139.0781"/>
<polygon fill="#191970" stroke="#191970" points="79.2798,-141.2706 83.7017,-131.6427 74.2409,-136.4117 79.2798,-141.2706"/>
</g>
<!-- Node5 -->
<g id="node5" class="node">
<title>Node5</title>
<g id="a_node5"><a xlink:href="types_8h.html" target="_top" xlink:title=" ">
<polygon fill="#ffffff" stroke="#000000" points="82.5,-56.5 82.5,-75.5 135.5,-75.5 135.5,-56.5 82.5,-56.5"/>
<text text-anchor="middle" x="109" y="-63.5" font-family="Helvetica,sans-Serif" font-size="10.00" fill="#000000">types.h</text>
</a>
</g>
</g>
<!-- Node4&#45;&gt;Node5 -->
<g id="edge4" class="edge">
<title>Node4&#45;&gt;Node5</title>
<path fill="none" stroke="#191970" d="M95.787,-112.2455C97.8977,-104.8579 100.866,-94.4689 103.4547,-85.4087"/>
<polygon fill="#191970" stroke="#191970" points="106.863,-86.2195 106.245,-75.6427 100.1323,-84.2964 106.863,-86.2195"/>
</g>
<!-- Node6 -->
<g id="node6" class="node">
<title>Node6</title>
<g id="a_node6"><a xlink:title=" ">
<polygon fill="#ffffff" stroke="#bfbfbf" points="68,-.5 68,-19.5 124,-19.5 124,-.5 68,-.5"/>
<text text-anchor="middle" x="96" y="-7.5" font-family="Helvetica,sans-Serif" font-size="10.00" fill="#000000">stddef.h</text>
</a>
</g>
</g>
<!-- Node5&#45;&gt;Node6 -->
<g id="edge5" class="edge">
<title>Node5&#45;&gt;Node6</title>
<path fill="none" stroke="#191970" d="M106.7356,-56.2455C105.0206,-48.8579 102.6088,-38.4689 100.5056,-29.4087"/>
<polygon fill="#191970" stroke="#191970" points="103.9092,-28.5922 98.2385,-19.6427 97.0905,-30.1751 103.9092,-28.5922"/>
</g>
<!-- Node5&#45;&gt;Node7 -->
<g id="edge6" class="edge">
<title>Node5&#45;&gt;Node7</title>
<path fill="none" stroke="#191970" d="M121.0189,-56.2455C131.2098,-47.9746 146.0362,-35.9416 158.0107,-26.2232"/>
<polygon fill="#191970" stroke="#191970" points="160.5598,-28.662 166.1188,-19.6427 156.1486,-23.2268 160.5598,-28.662"/>
</g>
<!-- Node8&#45;&gt;Node3 -->
<g id="edge10" class="edge">
<title>Node8&#45;&gt;Node3</title>
<path fill="none" stroke="#191970" d="M100.6716,-168.2455C87.1697,-159.6534 67.2878,-147.0014 51.7314,-137.1018"/>
<polygon fill="#191970" stroke="#191970" points="53.4685,-134.0587 43.1528,-131.6427 49.7103,-139.9643 53.4685,-134.0587"/>
</g>
<!-- Node8&#45;&gt;Node4 -->
<g id="edge9" class="edge">
<title>Node8&#45;&gt;Node4</title>
<path fill="none" stroke="#191970" d="M111.9937,-168.2455C108.9265,-160.7776 104.5997,-150.2427 100.8503,-141.1137"/>
<polygon fill="#191970" stroke="#191970" points="103.9972,-139.5631 96.9604,-131.6427 97.5221,-142.2226 103.9972,-139.5631"/>
</g>
<!-- Node8&#45;&gt;Node5 -->
<g id="edge8" class="edge">
<title>Node8&#45;&gt;Node5</title>
<path fill="none" stroke="#191970" d="M117.9935,-168.1276C120.32,-155.1953 123.5442,-131.8321 121,-112 119.8609,-103.1204 117.5327,-93.5073 115.2277,-85.3763"/>
<polygon fill="#191970" stroke="#191970" points="118.5552,-84.2881 112.3127,-75.7276 111.8543,-86.3125 118.5552,-84.2881"/>
</g>
</g>
</svg>
