<?xml version="1.0" encoding="UTF-8" standalone="no"?>
<!DOCTYPE svg PUBLIC "-//W3C//DTD SVG 1.1//EN"
 "http://www.w3.org/Graphics/SVG/1.1/DTD/svg11.dtd">
<!-- Generated by graphviz version 2.40.1 (20161225.0304)
 -->
<!-- Title: iop/fs/bdm/src/main.c Pages: 1 -->
<svg width="374pt" height="252pt"
 viewBox="0.00 0.00 374.00 252.00" xmlns="http://www.w3.org/2000/svg" xmlns:xlink="http://www.w3.org/1999/xlink">
<g id="graph0" class="graph" transform="scale(1 1) rotate(0) translate(4 248)">
<title>iop/fs/bdm/src/main.c</title>
<polygon fill="#ffffff" stroke="transparent" points="-4,4 -4,-248 370,-248 370,4 -4,4"/>
<!-- Node1 -->
<g id="node1" class="node">
<title>Node1</title>
<g id="a_node1"><a xlink:title=" ">
<polygon fill="#bfbfbf" stroke="#000000" points="98,-224.5 98,-243.5 220,-243.5 220,-224.5 98,-224.5"/>
<text text-anchor="middle" x="159" y="-231.5" font-family="Helvetica,sans-Serif" font-size="10.00" fill="#000000">iop/fs/bdm/src/main.c</text>
</a>
</g>
</g>
<!-- Node2 -->
<g id="node2" class="node">
<title>Node2</title>
<g id="a_node2"><a xlink:href="bdm_8h.html" target="_top" xlink:title=" ">
<polygon fill="#ffffff" stroke="#000000" points="202.5,-168.5 202.5,-187.5 249.5,-187.5 249.5,-168.5 202.5,-168.5"/>
<text text-anchor="middle" x="226" y="-175.5" font-family="Helvetica,sans-Serif" font-size="10.00" fill="#000000">bdm.h</text>
</a>
</g>
</g>
<!-- Node1&#45;&gt;Node2 -->
<g id="edge1" class="edge">
<title>Node1&#45;&gt;Node2</title>
<path fill="none" stroke="#191970" d="M170.6705,-224.2455C180.5661,-215.9746 194.9627,-203.9416 206.5901,-194.2232"/>
<polygon fill="#191970" stroke="#191970" points="209.035,-196.7413 214.4632,-187.6427 204.5458,-191.3703 209.035,-196.7413"/>
</g>
<!-- Node3 -->
<g id="node3" class="node">
<title>Node3</title>
<g id="a_node3"><a xlink:href="irx_8h.html" target="_top" xlink:title=" ">
<polygon fill="#ffffff" stroke="#000000" points="75,-112.5 75,-131.5 113,-131.5 113,-112.5 75,-112.5"/>
<text text-anchor="middle" x="94" y="-119.5" font-family="Helvetica,sans-Serif" font-size="10.00" fill="#000000">irx.h</text>
</a>
</g>
</g>
<!-- Node1&#45;&gt;Node3 -->
<g id="edge7" class="edge">
<title>Node1&#45;&gt;Node3</title>
<path fill="none" stroke="#191970" d="M150.8395,-224.1668C143.5467,-215.1129 132.8342,-201.1345 125,-188 115.9942,-172.9012 107.6365,-154.7612 101.874,-141.3229"/>
<polygon fill="#191970" stroke="#191970" points="104.9364,-139.5743 97.8462,-131.7016 98.4794,-142.2775 104.9364,-139.5743"/>
</g>
<!-- Node8 -->
<g id="node8" class="node">
<title>Node8</title>
<g id="a_node8"><a xlink:href="loadcore_8h.html" target="_top" xlink:title=" ">
<polygon fill="#ffffff" stroke="#000000" points="10,-168.5 10,-187.5 78,-187.5 78,-168.5 10,-168.5"/>
<text text-anchor="middle" x="44" y="-175.5" font-family="Helvetica,sans-Serif" font-size="10.00" fill="#000000">loadcore.h</text>
</a>
</g>
</g>
<!-- Node1&#45;&gt;Node8 -->
<g id="edge8" class="edge">
<title>Node1&#45;&gt;Node8</title>
<path fill="none" stroke="#191970" d="M139.2308,-224.3733C120.8531,-215.4241 93.2688,-201.9917 72.5107,-191.8835"/>
<polygon fill="#191970" stroke="#191970" points="74.0343,-188.7325 63.5112,-187.5011 70.9696,-195.026 74.0343,-188.7325"/>
</g>
<!-- Node9 -->
<g id="node9" class="node">
<title>Node9</title>
<g id="a_node9"><a xlink:href="stdio_8h.html" target="_top" xlink:title=" ">
<polygon fill="#ffffff" stroke="#000000" points="134,-168.5 134,-187.5 184,-187.5 184,-168.5 134,-168.5"/>
<text text-anchor="middle" x="159" y="-175.5" font-family="Helvetica,sans-Serif" font-size="10.00" fill="#000000">stdio.h</text>
</a>
</g>
</g>
<!-- Node1&#45;&gt;Node9 -->
<g id="edge11" class="edge">
<title>Node1&#45;&gt;Node9</title>
<path fill="none" stroke="#191970" d="M159,-224.2455C159,-216.9382 159,-206.6944 159,-197.7046"/>
<polygon fill="#191970" stroke="#191970" points="162.5001,-197.6426 159,-187.6427 155.5001,-197.6427 162.5001,-197.6426"/>
</g>
<!-- Node11 -->
<g id="node11" class="node">
<title>Node11</title>
<g id="a_node11"><a xlink:title=" ">
<polygon fill="#ffffff" stroke="#bfbfbf" points="268,-168.5 268,-187.5 366,-187.5 366,-168.5 268,-168.5"/>
<text text-anchor="middle" x="317" y="-175.5" font-family="Helvetica,sans-Serif" font-size="10.00" fill="#000000">module_debug.h</text>
</a>
</g>
</g>
<!-- Node1&#45;&gt;Node11 -->
<g id="edge14" class="edge">
<title>Node1&#45;&gt;Node11</title>
<path fill="none" stroke="#191970" d="M186.1612,-224.3733C212.2067,-215.1419 251.7116,-201.1402 280.4979,-190.9375"/>
<polygon fill="#191970" stroke="#191970" points="281.937,-194.1408 290.1933,-187.5011 279.5985,-187.5429 281.937,-194.1408"/>
</g>
<!-- Node2&#45;&gt;Node3 -->
<g id="edge2" class="edge">
<title>Node2&#45;&gt;Node3</title>
<path fill="none" stroke="#191970" d="M203.3084,-168.3733C181.0219,-158.9184 146.9397,-144.4593 122.7644,-134.2031"/>
<polygon fill="#191970" stroke="#191970" points="123.9656,-130.9108 113.3928,-130.2273 121.2317,-137.3549 123.9656,-130.9108"/>
</g>
<!-- Node7 -->
<g id="node7" class="node">
<title>Node7</title>
<g id="a_node7"><a xlink:title=" ">
<polygon fill="#ffffff" stroke="#bfbfbf" points="205.5,-112.5 205.5,-131.5 258.5,-131.5 258.5,-112.5 205.5,-112.5"/>
<text text-anchor="middle" x="232" y="-119.5" font-family="Helvetica,sans-Serif" font-size="10.00" fill="#000000">types.h</text>
</a>
</g>
</g>
<!-- Node2&#45;&gt;Node7 -->
<g id="edge6" class="edge">
<title>Node2&#45;&gt;Node7</title>
<path fill="none" stroke="#191970" d="M227.0451,-168.2455C227.828,-160.9382 228.9256,-150.6944 229.8888,-141.7046"/>
<polygon fill="#191970" stroke="#191970" points="233.3815,-141.9587 230.9669,-131.6427 226.4214,-141.2129 233.3815,-141.9587"/>
</g>
<!-- Node4 -->
<g id="node4" class="node">
<title>Node4</title>
<g id="a_node4"><a xlink:href="types_8h.html" target="_top" xlink:title=" ">
<polygon fill="#ffffff" stroke="#000000" points="42.5,-56.5 42.5,-75.5 95.5,-75.5 95.5,-56.5 42.5,-56.5"/>
<text text-anchor="middle" x="69" y="-63.5" font-family="Helvetica,sans-Serif" font-size="10.00" fill="#000000">types.h</text>
</a>
</g>
</g>
<!-- Node3&#45;&gt;Node4 -->
<g id="edge3" class="edge">
<title>Node3&#45;&gt;Node4</title>
<path fill="none" stroke="#191970" d="M89.6453,-112.2455C86.2756,-104.6973 81.507,-94.0158 77.4017,-84.8197"/>
<polygon fill="#191970" stroke="#191970" points="80.5773,-83.3473 73.3048,-75.6427 74.1853,-86.2009 80.5773,-83.3473"/>
</g>
<!-- Node5 -->
<g id="node5" class="node">
<title>Node5</title>
<g id="a_node5"><a xlink:title=" ">
<polygon fill="#ffffff" stroke="#bfbfbf" points="0,-.5 0,-19.5 56,-19.5 56,-.5 0,-.5"/>
<text text-anchor="middle" x="28" y="-7.5" font-family="Helvetica,sans-Serif" font-size="10.00" fill="#000000">stddef.h</text>
</a>
</g>
</g>
<!-- Node4&#45;&gt;Node5 -->
<g id="edge4" class="edge">
<title>Node4&#45;&gt;Node5</title>
<path fill="none" stroke="#191970" d="M61.8583,-56.2455C56.1556,-48.4564 48.01,-37.3308 41.1375,-27.9439"/>
<polygon fill="#191970" stroke="#191970" points="43.7913,-25.6437 35.0598,-19.6427 38.1432,-29.7789 43.7913,-25.6437"/>
</g>
<!-- Node6 -->
<g id="node6" class="node">
<title>Node6</title>
<g id="a_node6"><a xlink:href="tamtypes_8h.html" target="_top" xlink:title=" ">
<polygon fill="#ffffff" stroke="#000000" points="74,-.5 74,-19.5 146,-19.5 146,-.5 74,-.5"/>
<text text-anchor="middle" x="110" y="-7.5" font-family="Helvetica,sans-Serif" font-size="10.00" fill="#000000">tamtypes.h</text>
</a>
</g>
</g>
<!-- Node4&#45;&gt;Node6 -->
<g id="edge5" class="edge">
<title>Node4&#45;&gt;Node6</title>
<path fill="none" stroke="#191970" d="M76.1417,-56.2455C81.8444,-48.4564 89.99,-37.3308 96.8625,-27.9439"/>
<polygon fill="#191970" stroke="#191970" points="99.8568,-29.7789 102.9402,-19.6427 94.2087,-25.6437 99.8568,-29.7789"/>
</g>
<!-- Node8&#45;&gt;Node3 -->
<g id="edge10" class="edge">
<title>Node8&#45;&gt;Node3</title>
<path fill="none" stroke="#191970" d="M52.7093,-168.2455C59.8073,-160.2958 70.0084,-148.8706 78.495,-139.3656"/>
<polygon fill="#191970" stroke="#191970" points="81.3411,-141.4331 85.3905,-131.6427 76.1195,-136.771 81.3411,-141.4331"/>
</g>
<!-- Node8&#45;&gt;Node4 -->
<g id="edge9" class="edge">
<title>Node8&#45;&gt;Node4</title>
<path fill="none" stroke="#191970" d="M46.1315,-168.4509C50.2274,-150.1013 59.2699,-109.5908 64.6765,-85.3693"/>
<polygon fill="#191970" stroke="#191970" points="68.1112,-86.0472 66.8739,-75.5249 61.2794,-84.5222 68.1112,-86.0472"/>
</g>
<!-- Node9&#45;&gt;Node3 -->
<g id="edge13" class="edge">
<title>Node9&#45;&gt;Node3</title>
<path fill="none" stroke="#191970" d="M147.6779,-168.2455C138.0777,-159.9746 124.1108,-147.9416 112.8305,-138.2232"/>
<polygon fill="#191970" stroke="#191970" points="115.053,-135.5182 105.1924,-131.6427 110.484,-140.8214 115.053,-135.5182"/>
</g>
<!-- Node10 -->
<g id="node10" class="node">
<title>Node10</title>
<g id="a_node10"><a xlink:title=" ">
<polygon fill="#ffffff" stroke="#bfbfbf" points="131,-112.5 131,-131.5 187,-131.5 187,-112.5 131,-112.5"/>
<text text-anchor="middle" x="159" y="-119.5" font-family="Helvetica,sans-Serif" font-size="10.00" fill="#000000">stdarg.h</text>
</a>
</g>
</g>
<!-- Node9&#45;&gt;Node10 -->
<g id="edge12" class="edge">
<title>Node9&#45;&gt;Node10</title>
<path fill="none" stroke="#191970" d="M159,-168.2455C159,-160.9382 159,-150.6944 159,-141.7046"/>
<polygon fill="#191970" stroke="#191970" points="162.5001,-141.6426 159,-131.6427 155.5001,-141.6427 162.5001,-141.6426"/>
</g>
</g>
</svg>
