<?xml version="1.0" encoding="UTF-8" standalone="no"?>
<!DOCTYPE svg PUBLIC "-//W3C//DTD SVG 1.1//EN"
 "http://www.w3.org/Graphics/SVG/1.1/DTD/svg11.dtd">
<!-- Generated by graphviz version 2.40.1 (20161225.0304)
 -->
<!-- Title: iop/fs/fakehost/src/irx_imports.h Pages: 1 -->
<!--zoomable 263 -->
<svg id="main" version="1.1" xmlns="http://www.w3.org/2000/svg" xmlns:xlink="http://www.w3.org/1999/xlink" xml:space="preserve" onload="init(evt)">
<style type="text/css"><![CDATA[
.edge:hover path { stroke: red; }
.edge:hover polygon { stroke: red; fill: red; }
]]></style>
<script type="text/javascript"><![CDATA[
var edges = document.getElementsByTagName('g');
if (edges && edges.length) {
  for (var i=0;i<edges.length;i++) {
    if (edges[i].id.substr(0,4)=='edge') {
      edges[i].setAttribute('class','edge');
    }
  }
}
]]></script>
        <defs>
                <circle id="rim" cx="0" cy="0" r="7"/>
                <circle id="rim2" cx="0" cy="0" r="3.5"/>
                <g id="zoomPlus">
                        <use xlink:href="#rim" fill="#404040">
                                <set attributeName="fill" to="#808080" begin="zoomplus.mouseover" end="zoomplus.mouseout"/>
                        </use>
                        <path d="M-4,0h8M0,-4v8" fill="none" stroke="white" stroke-width="1.5" pointer-events="none"/>
                </g>
                <g id="zoomMin">
                        <use xlink:href="#rim" fill="#404040">
                                <set attributeName="fill" to="#808080" begin="zoomminus.mouseover" end="zoomminus.mouseout"/>
                        </use>
                        <path d="M-4,0h8" fill="none" stroke="white" stroke-width="1.5" pointer-events="none"/>
                </g>
                <g id="dirArrow">
                        <path fill="none" stroke="white" stroke-width="1.5" d="M0,-3.0v7 M-2.5,-0.5L0,-3.0L2.5,-0.5"/>
                </g>
               <g id="resetDef">
                       <use xlink:href="#rim2" fill="#404040">
                               <set attributeName="fill" to="#808080" begin="reset.mouseover" end="reset.mouseout"/>
                       </use>
               </g>
        </defs>

<script type="text/javascript">
var viewWidth = 789;
var viewHeight = 263;
var sectionId = 'dynsection-0';
</script>
<script xlink:href="svgpan.js"/>
<svg id="graph" class="graph">
<g id="viewport">
<title>iop/fs/fakehost/src/irx_imports.h</title>
<polygon fill="#ffffff" stroke="transparent" points="-4,4 -4,-259 785,-259 785,4 -4,4"/>
<!-- Node1 -->
<g id="node1" class="node">
<title>Node1</title>
<g id="a_node1"><a xlink:title=" ">
<polygon fill="#bfbfbf" stroke="#000000" points="400,-224.5 400,-254.5 507,-254.5 507,-224.5 400,-224.5"/>
<text text-anchor="start" x="408" y="-242.5" font-family="Helvetica,sans-Serif" font-size="10.00" fill="#000000">iop/fs/fakehost/src</text>
<text text-anchor="middle" x="453.5" y="-231.5" font-family="Helvetica,sans-Serif" font-size="10.00" fill="#000000">/irx_imports.h</text>
</a>
</g>
</g>
<!-- Node2 -->
<g id="node2" class="node">
<title>Node2</title>
<g id="a_node2"><a xlink:href="irx_8h.html" target="_top" xlink:title=" ">
<polygon fill="#ffffff" stroke="#000000" points="434.5,-112.5 434.5,-131.5 472.5,-131.5 472.5,-112.5 434.5,-112.5"/>
<text text-anchor="middle" x="453.5" y="-119.5" font-family="Helvetica,sans-Serif" font-size="10.00" fill="#000000">irx.h</text>
</a>
</g>
</g>
<!-- Node1&#45;&gt;Node2 -->
<g id="edge1" class="edge">
<title>Node1&#45;&gt;Node2</title>
<path fill="none" stroke="#191970" d="M453.5,-224.1389C453.5,-202.9692 453.5,-164.8174 453.5,-141.6112"/>
<polygon fill="#191970" stroke="#191970" points="457.0001,-141.5594 453.5,-131.5595 450.0001,-141.5595 457.0001,-141.5594"/>
</g>
<!-- Node6 -->
<g id="node6" class="node">
<title>Node6</title>
<g id="a_node6"><a xlink:href="iomanX_8h.html" target="_top" xlink:title=" ">
<polygon fill="#ffffff" stroke="#000000" points="107,-168.5 107,-187.5 170,-187.5 170,-168.5 107,-168.5"/>
<text text-anchor="middle" x="138.5" y="-175.5" font-family="Helvetica,sans-Serif" font-size="10.00" fill="#000000">iomanX.h</text>
</a>
</g>
</g>
<!-- Node1&#45;&gt;Node6 -->
<g id="edge5" class="edge">
<title>Node1&#45;&gt;Node6</title>
<path fill="none" stroke="#191970" d="M399.8182,-230.4267C346.4202,-221.1811 261.9395,-205.9616 180.2788,-188.3065"/>
<polygon fill="#191970" stroke="#191970" points="180.8521,-184.8494 170.3364,-186.1416 179.3628,-191.6891 180.8521,-184.8494"/>
</g>
<!-- Node12 -->
<g id="node12" class="node">
<title>Node12</title>
<g id="a_node12"><a xlink:href="ioman__mod_8h.html" target="_top" xlink:title=" ">
<polygon fill="#ffffff" stroke="#000000" points="188,-168.5 188,-187.5 271,-187.5 271,-168.5 188,-168.5"/>
<text text-anchor="middle" x="229.5" y="-175.5" font-family="Helvetica,sans-Serif" font-size="10.00" fill="#000000">ioman_mod.h</text>
</a>
</g>
</g>
<!-- Node1&#45;&gt;Node12 -->
<g id="edge13" class="edge">
<title>Node1&#45;&gt;Node12</title>
<path fill="none" stroke="#191970" d="M399.8464,-224.7692C361.3965,-214.2126 310.2179,-200.1614 274.0256,-190.2247"/>
<polygon fill="#191970" stroke="#191970" points="274.8078,-186.81 264.2379,-187.5374 272.9544,-193.5602 274.8078,-186.81"/>
</g>
<!-- Node13 -->
<g id="node13" class="node">
<title>Node13</title>
<g id="a_node13"><a xlink:href="loadcore_8h.html" target="_top" xlink:title=" ">
<polygon fill="#ffffff" stroke="#000000" points="481.5,-168.5 481.5,-187.5 549.5,-187.5 549.5,-168.5 481.5,-168.5"/>
<text text-anchor="middle" x="515.5" y="-175.5" font-family="Helvetica,sans-Serif" font-size="10.00" fill="#000000">loadcore.h</text>
</a>
</g>
</g>
<!-- Node1&#45;&gt;Node13 -->
<g id="edge18" class="edge">
<title>Node1&#45;&gt;Node13</title>
<path fill="none" stroke="#191970" d="M468.8258,-224.2977C477.7907,-215.4052 489.1288,-204.1586 498.3851,-194.9769"/>
<polygon fill="#191970" stroke="#191970" points="500.9382,-197.3742 505.573,-187.8469 496.0085,-192.4045 500.9382,-197.3742"/>
</g>
<!-- Node14 -->
<g id="node14" class="node">
<title>Node14</title>
<g id="a_node14"><a xlink:href="sifcmd_8h.html" target="_top" xlink:title=" ">
<polygon fill="#ffffff" stroke="#000000" points="289,-168.5 289,-187.5 348,-187.5 348,-168.5 289,-168.5"/>
<text text-anchor="middle" x="318.5" y="-175.5" font-family="Helvetica,sans-Serif" font-size="10.00" fill="#000000">sifcmd.h</text>
</a>
</g>
</g>
<!-- Node1&#45;&gt;Node14 -->
<g id="edge21" class="edge">
<title>Node1&#45;&gt;Node14</title>
<path fill="none" stroke="#191970" d="M420.4753,-224.4554C398.543,-214.464 369.9727,-201.4487 348.6547,-191.7372"/>
<polygon fill="#191970" stroke="#191970" points="349.9714,-188.4909 339.4202,-187.5303 347.0694,-194.8611 349.9714,-188.4909"/>
</g>
<!-- Node15 -->
<g id="node15" class="node">
<title>Node15</title>
<g id="a_node15"><a xlink:href="stdio_8h.html" target="_top" xlink:title=" ">
<polygon fill="#ffffff" stroke="#000000" points="653.5,-168.5 653.5,-187.5 703.5,-187.5 703.5,-168.5 653.5,-168.5"/>
<text text-anchor="middle" x="678.5" y="-175.5" font-family="Helvetica,sans-Serif" font-size="10.00" fill="#000000">stdio.h</text>
</a>
</g>
</g>
<!-- Node1&#45;&gt;Node15 -->
<g id="edge24" class="edge">
<title>Node1&#45;&gt;Node15</title>
<path fill="none" stroke="#191970" d="M507.1035,-225.3946C543.191,-215.8185 592.0853,-202.6909 643.6171,-188.2097"/>
<polygon fill="#191970" stroke="#191970" points="644.5914,-191.5715 653.2674,-185.4905 642.6929,-184.8338 644.5914,-191.5715"/>
</g>
<!-- Node17 -->
<g id="node17" class="node">
<title>Node17</title>
<g id="a_node17"><a xlink:href="sysclib_8h.html" target="_top" xlink:title=" ">
<polygon fill="#ffffff" stroke="#000000" points="722,-168.5 722,-187.5 781,-187.5 781,-168.5 722,-168.5"/>
<text text-anchor="middle" x="751.5" y="-175.5" font-family="Helvetica,sans-Serif" font-size="10.00" fill="#000000">sysclib.h</text>
</a>
</g>
</g>
<!-- Node1&#45;&gt;Node17 -->
<g id="edge27" class="edge">
<title>Node1&#45;&gt;Node17</title>
<path fill="none" stroke="#191970" d="M507.2539,-229.6997C557.6102,-220.3184 635.1826,-205.3552 711.8943,-188.0456"/>
<polygon fill="#191970" stroke="#191970" points="712.7536,-191.4396 721.7302,-185.812 711.2034,-184.6134 712.7536,-191.4396"/>
</g>
<!-- Node19 -->
<g id="node19" class="node">
<title>Node19</title>
<g id="a_node19"><a xlink:href="sysmem_8h.html" target="_top" xlink:title=" ">
<polygon fill="#ffffff" stroke="#000000" points="567.5,-168.5 567.5,-187.5 635.5,-187.5 635.5,-168.5 567.5,-168.5"/>
<text text-anchor="middle" x="601.5" y="-175.5" font-family="Helvetica,sans-Serif" font-size="10.00" fill="#000000">sysmem.h</text>
</a>
</g>
</g>
<!-- Node1&#45;&gt;Node19 -->
<g id="edge33" class="edge">
<title>Node1&#45;&gt;Node19</title>
<path fill="none" stroke="#191970" d="M489.7049,-224.4554C513.9658,-214.374 545.6356,-201.2139 569.0712,-191.4755"/>
<polygon fill="#191970" stroke="#191970" points="570.6739,-194.5997 578.5653,-187.5303 567.9877,-188.1356 570.6739,-194.5997"/>
</g>
<!-- Node20 -->
<g id="node20" class="node">
<title>Node20</title>
<g id="a_node20"><a xlink:href="thbase_8h.html" target="_top" xlink:title=" ">
<polygon fill="#ffffff" stroke="#000000" points="366,-168.5 366,-187.5 425,-187.5 425,-168.5 366,-168.5"/>
<text text-anchor="middle" x="395.5" y="-175.5" font-family="Helvetica,sans-Serif" font-size="10.00" fill="#000000">thbase.h</text>
</a>
</g>
</g>
<!-- Node1&#45;&gt;Node20 -->
<g id="edge37" class="edge">
<title>Node1&#45;&gt;Node20</title>
<path fill="none" stroke="#191970" d="M439.1629,-224.2977C430.8603,-215.4941 420.3818,-204.3833 411.7711,-195.2529"/>
<polygon fill="#191970" stroke="#191970" points="414.1939,-192.7206 404.7865,-187.8469 409.1013,-197.5234 414.1939,-192.7206"/>
</g>
<!-- Node3 -->
<g id="node3" class="node">
<title>Node3</title>
<g id="a_node3"><a xlink:href="types_8h.html" target="_top" xlink:title=" ">
<polygon fill="#ffffff" stroke="#000000" points="427,-56.5 427,-75.5 480,-75.5 480,-56.5 427,-56.5"/>
<text text-anchor="middle" x="453.5" y="-63.5" font-family="Helvetica,sans-Serif" font-size="10.00" fill="#000000">types.h</text>
</a>
</g>
</g>
<!-- Node2&#45;&gt;Node3 -->
<g id="edge2" class="edge">
<title>Node2&#45;&gt;Node3</title>
<path fill="none" stroke="#191970" d="M453.5,-112.2455C453.5,-104.9382 453.5,-94.6944 453.5,-85.7046"/>
<polygon fill="#191970" stroke="#191970" points="457.0001,-85.6426 453.5,-75.6427 450.0001,-85.6427 457.0001,-85.6426"/>
</g>
<!-- Node4 -->
<g id="node4" class="node">
<title>Node4</title>
<g id="a_node4"><a xlink:title=" ">
<polygon fill="#ffffff" stroke="#bfbfbf" points="425.5,-.5 425.5,-19.5 481.5,-19.5 481.5,-.5 425.5,-.5"/>
<text text-anchor="middle" x="453.5" y="-7.5" font-family="Helvetica,sans-Serif" font-size="10.00" fill="#000000">stddef.h</text>
</a>
</g>
</g>
<!-- Node3&#45;&gt;Node4 -->
<g id="edge3" class="edge">
<title>Node3&#45;&gt;Node4</title>
<path fill="none" stroke="#191970" d="M453.5,-56.2455C453.5,-48.9382 453.5,-38.6944 453.5,-29.7046"/>
<polygon fill="#191970" stroke="#191970" points="457.0001,-29.6426 453.5,-19.6427 450.0001,-29.6427 457.0001,-29.6426"/>
</g>
<!-- Node5 -->
<g id="node5" class="node">
<title>Node5</title>
<g id="a_node5"><a xlink:href="tamtypes_8h.html" target="_top" xlink:title=" ">
<polygon fill="#ffffff" stroke="#000000" points="607.5,-.5 607.5,-19.5 679.5,-19.5 679.5,-.5 607.5,-.5"/>
<text text-anchor="middle" x="643.5" y="-7.5" font-family="Helvetica,sans-Serif" font-size="10.00" fill="#000000">tamtypes.h</text>
</a>
</g>
</g>
<!-- Node3&#45;&gt;Node5 -->
<g id="edge4" class="edge">
<title>Node3&#45;&gt;Node5</title>
<path fill="none" stroke="#191970" d="M480.3194,-58.0953C511.7359,-48.8357 564.1781,-33.3791 601.117,-22.4918"/>
<polygon fill="#191970" stroke="#191970" points="602.4916,-25.7356 611.0941,-19.5512 600.5126,-19.0212 602.4916,-25.7356"/>
</g>
<!-- Node6&#45;&gt;Node2 -->
<g id="edge7" class="edge">
<title>Node6&#45;&gt;Node2</title>
<path fill="none" stroke="#191970" d="M170.3244,-169.8023C173.0833,-169.165 175.8371,-168.5547 178.5,-168 267.4618,-149.4697 373.8283,-133.3803 424.236,-126.1164"/>
<polygon fill="#191970" stroke="#191970" points="424.9957,-129.5434 434.3992,-124.6624 424.0043,-122.6139 424.9957,-129.5434"/>
</g>
<!-- Node6&#45;&gt;Node3 -->
<g id="edge6" class="edge">
<title>Node6&#45;&gt;Node3</title>
<path fill="none" stroke="#191970" d="M143.3091,-168.056C151.0395,-153.2278 167.7057,-125.6117 190.5,-112 228.1208,-89.5347 353.6192,-75.1625 416.6763,-69.1825"/>
<polygon fill="#191970" stroke="#191970" points="417.3298,-72.637 426.9641,-68.2289 416.6837,-65.6669 417.3298,-72.637"/>
</g>
<!-- Node7 -->
<g id="node7" class="node">
<title>Node7</title>
<g id="a_node7"><a xlink:href="io__common_8h.html" target="_top" xlink:title=" ">
<polygon fill="#ffffff" stroke="#000000" points="60,-112.5 60,-131.5 143,-131.5 143,-112.5 60,-112.5"/>
<text text-anchor="middle" x="101.5" y="-119.5" font-family="Helvetica,sans-Serif" font-size="10.00" fill="#000000">io_common.h</text>
</a>
</g>
</g>
<!-- Node6&#45;&gt;Node7 -->
<g id="edge8" class="edge">
<title>Node6&#45;&gt;Node7</title>
<path fill="none" stroke="#191970" d="M132.0551,-168.2455C126.9618,-160.5367 119.7092,-149.5598 113.548,-140.2348"/>
<polygon fill="#191970" stroke="#191970" points="116.3038,-138.0566 107.8711,-131.6427 110.4635,-141.9155 116.3038,-138.0566"/>
</g>
<!-- Node10 -->
<g id="node10" class="node">
<title>Node10</title>
<g id="a_node10"><a xlink:href="iox__stat_8h.html" target="_top" xlink:title=" ">
<polygon fill="#ffffff" stroke="#000000" points="200,-112.5 200,-131.5 265,-131.5 265,-112.5 200,-112.5"/>
<text text-anchor="middle" x="232.5" y="-119.5" font-family="Helvetica,sans-Serif" font-size="10.00" fill="#000000">iox_stat.h</text>
</a>
</g>
</g>
<!-- Node6&#45;&gt;Node10 -->
<g id="edge11" class="edge">
<title>Node6&#45;&gt;Node10</title>
<path fill="none" stroke="#191970" d="M154.8736,-168.2455C169.4308,-159.5731 190.931,-146.7645 207.6152,-136.825"/>
<polygon fill="#191970" stroke="#191970" points="209.5144,-139.7676 216.3141,-131.6427 205.9317,-133.7539 209.5144,-139.7676"/>
</g>
<!-- Node8 -->
<g id="node8" class="node">
<title>Node8</title>
<g id="a_node8"><a xlink:href="fcntl_8h.html" target="_top" xlink:title=" ">
<polygon fill="#ffffff" stroke="#000000" points="0,-56.5 0,-75.5 67,-75.5 67,-56.5 0,-56.5"/>
<text text-anchor="middle" x="33.5" y="-63.5" font-family="Helvetica,sans-Serif" font-size="10.00" fill="#000000">sys/fcntl.h</text>
</a>
</g>
</g>
<!-- Node7&#45;&gt;Node8 -->
<g id="edge9" class="edge">
<title>Node7&#45;&gt;Node8</title>
<path fill="none" stroke="#191970" d="M89.6553,-112.2455C79.612,-103.9746 65.0005,-91.9416 53.1996,-82.2232"/>
<polygon fill="#191970" stroke="#191970" points="55.1533,-79.298 45.209,-75.6427 50.7033,-84.7015 55.1533,-79.298"/>
</g>
<!-- Node9 -->
<g id="node9" class="node">
<title>Node9</title>
<g id="a_node9"><a xlink:href="unistd_8h.html" target="_top" xlink:title=" ">
<polygon fill="#ffffff" stroke="#000000" points="85,-56.5 85,-75.5 160,-75.5 160,-56.5 85,-56.5"/>
<text text-anchor="middle" x="122.5" y="-63.5" font-family="Helvetica,sans-Serif" font-size="10.00" fill="#000000">sys/unistd.h</text>
</a>
</g>
</g>
<!-- Node7&#45;&gt;Node9 -->
<g id="edge10" class="edge">
<title>Node7&#45;&gt;Node9</title>
<path fill="none" stroke="#191970" d="M105.1579,-112.2455C107.9584,-104.7776 111.909,-94.2427 115.3324,-85.1137"/>
<polygon fill="#191970" stroke="#191970" points="118.6499,-86.2349 118.884,-75.6427 112.0955,-83.777 118.6499,-86.2349"/>
</g>
<!-- Node11 -->
<g id="node11" class="node">
<title>Node11</title>
<g id="a_node11"><a xlink:href="time_8h.html" target="_top" xlink:title=" ">
<polygon fill="#ffffff" stroke="#000000" points="198.5,-56.5 198.5,-75.5 266.5,-75.5 266.5,-56.5 198.5,-56.5"/>
<text text-anchor="middle" x="232.5" y="-63.5" font-family="Helvetica,sans-Serif" font-size="10.00" fill="#000000">sys/time.h</text>
</a>
</g>
</g>
<!-- Node10&#45;&gt;Node11 -->
<g id="edge12" class="edge">
<title>Node10&#45;&gt;Node11</title>
<path fill="none" stroke="#191970" d="M232.5,-112.2455C232.5,-104.9382 232.5,-94.6944 232.5,-85.7046"/>
<polygon fill="#191970" stroke="#191970" points="236.0001,-85.6426 232.5,-75.6427 229.0001,-85.6427 236.0001,-85.6426"/>
</g>
<!-- Node12&#45;&gt;Node2 -->
<g id="edge15" class="edge">
<title>Node12&#45;&gt;Node2</title>
<path fill="none" stroke="#191970" d="M267.7525,-168.4369C312.1433,-157.3392 384.3579,-139.2855 424.4136,-129.2716"/>
<polygon fill="#191970" stroke="#191970" points="425.4862,-132.6112 434.3387,-126.7903 423.7884,-125.8202 425.4862,-132.6112"/>
</g>
<!-- Node12&#45;&gt;Node3 -->
<g id="edge14" class="edge">
<title>Node12&#45;&gt;Node3</title>
<path fill="none" stroke="#191970" d="M248.5981,-168.4509C288.1077,-148.6961 378.9869,-103.2565 425.2825,-80.1088"/>
<polygon fill="#191970" stroke="#191970" points="427.0712,-83.1276 434.4502,-75.5249 423.9407,-76.8666 427.0712,-83.1276"/>
</g>
<!-- Node12&#45;&gt;Node7 -->
<g id="edge16" class="edge">
<title>Node12&#45;&gt;Node7</title>
<path fill="none" stroke="#191970" d="M207.496,-168.3733C186.8565,-159.3435 155.7842,-145.7494 132.6111,-135.6111"/>
<polygon fill="#191970" stroke="#191970" points="133.7813,-132.3028 123.2169,-131.5011 130.9755,-138.7159 133.7813,-132.3028"/>
</g>
<!-- Node12&#45;&gt;Node10 -->
<g id="edge17" class="edge">
<title>Node12&#45;&gt;Node10</title>
<path fill="none" stroke="#191970" d="M230.0226,-168.2455C230.414,-160.9382 230.9628,-150.6944 231.4444,-141.7046"/>
<polygon fill="#191970" stroke="#191970" points="234.9434,-141.8156 231.9834,-131.6427 227.9534,-141.4411 234.9434,-141.8156"/>
</g>
<!-- Node13&#45;&gt;Node2 -->
<g id="edge20" class="edge">
<title>Node13&#45;&gt;Node2</title>
<path fill="none" stroke="#191970" d="M504.7004,-168.2455C495.6322,-160.0549 482.4794,-148.1749 471.7755,-138.5069"/>
<polygon fill="#191970" stroke="#191970" points="473.9429,-135.7482 464.1758,-131.6427 469.2509,-140.9429 473.9429,-135.7482"/>
</g>
<!-- Node13&#45;&gt;Node3 -->
<g id="edge19" class="edge">
<title>Node13&#45;&gt;Node3</title>
<path fill="none" stroke="#191970" d="M510.8659,-168.4887C504.5072,-155.5608 492.599,-131.7847 481.5,-112 476.3154,-102.7581 470.233,-92.6827 465.0641,-84.3235"/>
<polygon fill="#191970" stroke="#191970" points="467.9773,-82.3805 459.713,-75.7508 462.0391,-86.0871 467.9773,-82.3805"/>
</g>
<!-- Node14&#45;&gt;Node2 -->
<g id="edge23" class="edge">
<title>Node14&#45;&gt;Node2</title>
<path fill="none" stroke="#191970" d="M341.7073,-168.3733C364.7347,-158.8211 400.0753,-144.1613 424.8415,-133.888"/>
<polygon fill="#191970" stroke="#191970" points="426.1958,-137.1154 434.0916,-130.0509 423.5137,-130.6496 426.1958,-137.1154"/>
</g>
<!-- Node14&#45;&gt;Node3 -->
<g id="edge22" class="edge">
<title>Node14&#45;&gt;Node3</title>
<path fill="none" stroke="#191970" d="M330.01,-168.4509C353.1242,-149.2747 405.4108,-105.8962 433.9746,-82.1988"/>
<polygon fill="#191970" stroke="#191970" points="436.5576,-84.6036 442.0191,-75.5249 432.0881,-79.2162 436.5576,-84.6036"/>
</g>
<!-- Node15&#45;&gt;Node2 -->
<g id="edge26" class="edge">
<title>Node15&#45;&gt;Node2</title>
<path fill="none" stroke="#191970" d="M653.2883,-170.4333C650.3317,-169.5909 647.3532,-168.7627 644.5,-168 587.518,-152.7687 520.3644,-137.1248 482.7825,-128.576"/>
<polygon fill="#191970" stroke="#191970" points="483.0821,-125.0552 472.5558,-126.259 481.5353,-131.8822 483.0821,-125.0552"/>
</g>
<!-- Node16 -->
<g id="node16" class="node">
<title>Node16</title>
<g id="a_node16"><a xlink:title=" ">
<polygon fill="#ffffff" stroke="#bfbfbf" points="629.5,-112.5 629.5,-131.5 685.5,-131.5 685.5,-112.5 629.5,-112.5"/>
<text text-anchor="middle" x="657.5" y="-119.5" font-family="Helvetica,sans-Serif" font-size="10.00" fill="#000000">stdarg.h</text>
</a>
</g>
</g>
<!-- Node15&#45;&gt;Node16 -->
<g id="edge25" class="edge">
<title>Node15&#45;&gt;Node16</title>
<path fill="none" stroke="#191970" d="M674.8421,-168.2455C672.0416,-160.7776 668.091,-150.2427 664.6676,-141.1137"/>
<polygon fill="#191970" stroke="#191970" points="667.9045,-139.777 661.116,-131.6427 661.3501,-142.2349 667.9045,-139.777"/>
</g>
<!-- Node17&#45;&gt;Node2 -->
<g id="edge29" class="edge">
<title>Node17&#45;&gt;Node2</title>
<path fill="none" stroke="#191970" d="M721.7443,-170.1247C718.6304,-169.3741 715.5058,-168.6513 712.5,-168 629.7177,-150.0622 530.9373,-133.9708 482.7928,-126.4659"/>
<polygon fill="#191970" stroke="#191970" points="483.1849,-122.985 472.767,-124.9134 482.1136,-129.9026 483.1849,-122.985"/>
</g>
<!-- Node17&#45;&gt;Node3 -->
<g id="edge28" class="edge">
<title>Node17&#45;&gt;Node3</title>
<path fill="none" stroke="#191970" d="M745.9473,-168.0971C737.1062,-153.3225 718.3643,-125.7756 694.5,-112 660.221,-92.2126 548.7054,-76.9125 490.157,-70.0125"/>
<polygon fill="#191970" stroke="#191970" points="490.5482,-66.5345 480.2121,-68.8614 489.7433,-73.4881 490.5482,-66.5345"/>
</g>
<!-- Node17&#45;&gt;Node16 -->
<g id="edge30" class="edge">
<title>Node17&#45;&gt;Node16</title>
<path fill="none" stroke="#191970" d="M735.1264,-168.2455C720.5692,-159.5731 699.069,-146.7645 682.3848,-136.825"/>
<polygon fill="#191970" stroke="#191970" points="684.0683,-133.7539 673.6859,-131.6427 680.4856,-139.7676 684.0683,-133.7539"/>
</g>
<!-- Node18 -->
<g id="node18" class="node">
<title>Node18</title>
<g id="a_node18"><a xlink:href="setjmp_8h.html" target="_top" xlink:title=" ">
<polygon fill="#ffffff" stroke="#000000" points="668,-56.5 668,-75.5 727,-75.5 727,-56.5 668,-56.5"/>
<text text-anchor="middle" x="697.5" y="-63.5" font-family="Helvetica,sans-Serif" font-size="10.00" fill="#000000">setjmp.h</text>
</a>
</g>
</g>
<!-- Node17&#45;&gt;Node18 -->
<g id="edge31" class="edge">
<title>Node17&#45;&gt;Node18</title>
<path fill="none" stroke="#191970" d="M748.7433,-168.3163C744.8379,-155.1929 737.0906,-131.1962 727.5,-112 722.7321,-102.4567 716.401,-92.4681 710.7841,-84.2466"/>
<polygon fill="#191970" stroke="#191970" points="713.4826,-81.9994 704.8672,-75.833 707.7567,-86.0262 713.4826,-81.9994"/>
</g>
<!-- Node18&#45;&gt;Node5 -->
<g id="edge32" class="edge">
<title>Node18&#45;&gt;Node5</title>
<path fill="none" stroke="#191970" d="M688.0939,-56.2455C680.3507,-48.2155 669.188,-36.6394 659.9682,-27.0781"/>
<polygon fill="#191970" stroke="#191970" points="662.2591,-24.4117 652.7983,-19.6427 657.2202,-29.2706 662.2591,-24.4117"/>
</g>
<!-- Node19&#45;&gt;Node2 -->
<g id="edge35" class="edge">
<title>Node19&#45;&gt;Node2</title>
<path fill="none" stroke="#191970" d="M576.0579,-168.3733C549.8536,-158.4581 509.1047,-143.0396 481.8741,-132.7361"/>
<polygon fill="#191970" stroke="#191970" points="483.0968,-129.4567 472.5053,-129.1912 480.6195,-136.0037 483.0968,-129.4567"/>
</g>
<!-- Node19&#45;&gt;Node3 -->
<g id="edge34" class="edge">
<title>Node19&#45;&gt;Node3</title>
<path fill="none" stroke="#191970" d="M588.8816,-168.4509C563.3232,-149.1094 505.2293,-105.1465 474.1016,-81.5904"/>
<polygon fill="#191970" stroke="#191970" points="476.1726,-78.7684 466.0865,-75.5249 471.9485,-84.3503 476.1726,-78.7684"/>
</g>
<!-- Node19&#45;&gt;Node16 -->
<g id="edge36" class="edge">
<title>Node19&#45;&gt;Node16</title>
<path fill="none" stroke="#191970" d="M611.2545,-168.2455C619.3648,-160.1352 631.0925,-148.4075 640.7081,-138.7919"/>
<polygon fill="#191970" stroke="#191970" points="643.2611,-141.1887 647.8573,-131.6427 638.3113,-136.2389 643.2611,-141.1887"/>
</g>
<!-- Node20&#45;&gt;Node2 -->
<g id="edge39" class="edge">
<title>Node20&#45;&gt;Node2</title>
<path fill="none" stroke="#191970" d="M405.6028,-168.2455C414.0028,-160.1352 426.1494,-148.4075 436.1084,-138.7919"/>
<polygon fill="#191970" stroke="#191970" points="438.75,-141.1066 443.5129,-131.6427 433.8878,-136.0707 438.75,-141.1066"/>
</g>
<!-- Node20&#45;&gt;Node3 -->
<g id="edge38" class="edge">
<title>Node20&#45;&gt;Node3</title>
<path fill="none" stroke="#191970" d="M399.4226,-168.4287C404.8447,-155.4327 415.139,-131.5799 425.5,-112 430.4563,-102.6337 436.5126,-92.5441 441.7232,-84.2076"/>
<polygon fill="#191970" stroke="#191970" points="444.7371,-85.9904 447.1432,-75.6724 438.8279,-82.2379 444.7371,-85.9904"/>
</g>
</g>
</svg>
        <g id="navigator" transform="translate(0 0)" fill="#404254">
                <rect fill="#f2f5e9" fill-opacity="0.5" stroke="#606060" stroke-width=".5" x="0" y="0" width="60" height="60"/>
                <use id="zoomplus" xlink:href="#zoomPlus" x="17" y="9" onmousedown="handleZoom(evt,'in')"/>
                <use id="zoomminus" xlink:href="#zoomMin" x="42" y="9" onmousedown="handleZoom(evt,'out')"/>
                <use id="reset" xlink:href="#resetDef" x="30" y="36" onmousedown="handleReset()"/>
                <g id="arrowUp" xlink:href="#dirArrow" transform="translate(30 24)" onmousedown="handlePan(0,-1)">
                  <use xlink:href="#rim" fill="#404040">
                        <set attributeName="fill" to="#808080" begin="arrowUp.mouseover" end="arrowUp.mouseout"/>
                  </use>
                  <path fill="none" stroke="white" stroke-width="1.5" d="M0,-3.0v7 M-2.5,-0.5L0,-3.0L2.5,-0.5"/>
                </g>
                <g id="arrowRight" xlink:href="#dirArrow" transform="rotate(90) translate(36 -43)" onmousedown="handlePan(1,0)">
                  <use xlink:href="#rim" fill="#404040">
                        <set attributeName="fill" to="#808080" begin="arrowRight.mouseover" end="arrowRight.mouseout"/>
                  </use>
                  <path fill="none" stroke="white" stroke-width="1.5" d="M0,-3.0v7 M-2.5,-0.5L0,-3.0L2.5,-0.5"/>
                </g>
                <g id="arrowDown" xlink:href="#dirArrow" transform="rotate(180) translate(-30 -48)" onmousedown="handlePan(0,1)">
                  <use xlink:href="#rim" fill="#404040">
                        <set attributeName="fill" to="#808080" begin="arrowDown.mouseover" end="arrowDown.mouseout"/>
                  </use>
                  <path fill="none" stroke="white" stroke-width="1.5" d="M0,-3.0v7 M-2.5,-0.5L0,-3.0L2.5,-0.5"/>
                </g>
                <g id="arrowLeft" xlink:href="#dirArrow" transform="rotate(270) translate(-36 17)" onmousedown="handlePan(-1,0)">
                  <use xlink:href="#rim" fill="#404040">
                        <set attributeName="fill" to="#808080" begin="arrowLeft.mouseover" end="arrowLeft.mouseout"/>
                  </use>
                  <path fill="none" stroke="white" stroke-width="1.5" d="M0,-3.0v7 M-2.5,-0.5L0,-3.0L2.5,-0.5"/>
                </g>
        </g>
        <svg viewBox="0 0 15 15" width="100%" height="30px" preserveAspectRatio="xMaxYMin meet">
         <g id="arrow_out" transform="scale(0.3 0.3)">
          <a xlink:href="fs_2fakehost_2src_2irx__imports_8h__incl_org.svg" target="_base">
           <rect id="button" ry="5" rx="5" y="6" x="6" height="38" width="38"
                fill="#f2f5e9" fill-opacity="0.5" stroke="#606060" stroke-width="1.0"/>
           <path id="arrow"
             d="M 11.500037,31.436501 C 11.940474,20.09759 22.043105,11.32322 32.158766,21.979434 L 37.068811,17.246167 C 37.068811,17.246167 37.088388,32 37.088388,32 L 22.160133,31.978069 C 22.160133,31.978069 26.997745,27.140456 26.997745,27.140456 C 18.528582,18.264221 13.291696,25.230495 11.500037,31.436501 z"
             style="fill:#404040;"/>
          </a>
         </g>
        </svg>
</svg>
