<?xml version="1.0" encoding="UTF-8" standalone="no"?>
<!DOCTYPE svg PUBLIC "-//W3C//DTD SVG 1.1//EN"
 "http://www.w3.org/Graphics/SVG/1.1/DTD/svg11.dtd">
<!-- Generated by graphviz version 2.40.1 (20161225.0304)
 -->
<!-- Title: iop/fs/bdmfs_vfat/src/fat_driver.c Pages: 1 -->
<svg width="868pt" height="263pt"
 viewBox="0.00 0.00 867.50 263.00" xmlns="http://www.w3.org/2000/svg" xmlns:xlink="http://www.w3.org/1999/xlink">
<g id="graph0" class="graph" transform="scale(1 1) rotate(0) translate(4 259)">
<title>iop/fs/bdmfs_vfat/src/fat_driver.c</title>
<polygon fill="#ffffff" stroke="transparent" points="-4,4 -4,-259 863.5,-259 863.5,4 -4,4"/>
<!-- Node1 -->
<g id="node1" class="node">
<title>Node1</title>
<g id="a_node1"><a xlink:title=" ">
<polygon fill="#bfbfbf" stroke="#000000" points="350,-224.5 350,-254.5 469,-254.5 469,-224.5 350,-224.5"/>
<text text-anchor="start" x="358" y="-242.5" font-family="Helvetica,sans-Serif" font-size="10.00" fill="#000000">iop/fs/bdmfs_vfat/src</text>
<text text-anchor="middle" x="409.5" y="-231.5" font-family="Helvetica,sans-Serif" font-size="10.00" fill="#000000">/fat_driver.c</text>
</a>
</g>
</g>
<!-- Node2 -->
<g id="node2" class="node">
<title>Node2</title>
<g id="a_node2"><a xlink:href="errno_8h.html" target="_top" xlink:title=" ">
<polygon fill="#ffffff" stroke="#000000" points="0,-168.5 0,-187.5 51,-187.5 51,-168.5 0,-168.5"/>
<text text-anchor="middle" x="25.5" y="-175.5" font-family="Helvetica,sans-Serif" font-size="10.00" fill="#000000">errno.h</text>
</a>
</g>
</g>
<!-- Node1&#45;&gt;Node2 -->
<g id="edge1" class="edge">
<title>Node1&#45;&gt;Node2</title>
<path fill="none" stroke="#191970" d="M349.9003,-233.3046C281.9957,-225.6717 167.6198,-211.0731 60.9833,-188.0987"/>
<polygon fill="#191970" stroke="#191970" points="61.537,-184.6372 51.0204,-185.9224 60.0431,-191.4759 61.537,-184.6372"/>
</g>
<!-- Node3 -->
<g id="node3" class="node">
<title>Node3</title>
<g id="a_node3"><a xlink:href="stdio_8h.html" target="_top" xlink:title=" ">
<polygon fill="#ffffff" stroke="#000000" points="615.5,-168.5 615.5,-187.5 665.5,-187.5 665.5,-168.5 615.5,-168.5"/>
<text text-anchor="middle" x="640.5" y="-175.5" font-family="Helvetica,sans-Serif" font-size="10.00" fill="#000000">stdio.h</text>
</a>
</g>
</g>
<!-- Node1&#45;&gt;Node3 -->
<g id="edge2" class="edge">
<title>Node1&#45;&gt;Node3</title>
<path fill="none" stroke="#191970" d="M469.1094,-224.4185C505.8776,-215 554.2353,-202.4061 605.3571,-188.2651"/>
<polygon fill="#191970" stroke="#191970" points="606.5741,-191.5597 615.2734,-185.5121 604.7016,-184.8148 606.5741,-191.5597"/>
</g>
<!-- Node9 -->
<g id="node9" class="node">
<title>Node9</title>
<g id="a_node9"><a xlink:href="limits_8h.html" target="_top" xlink:title=" ">
<polygon fill="#ffffff" stroke="#000000" points="146,-168.5 146,-187.5 199,-187.5 199,-168.5 146,-168.5"/>
<text text-anchor="middle" x="172.5" y="-175.5" font-family="Helvetica,sans-Serif" font-size="10.00" fill="#000000">limits.h</text>
</a>
</g>
</g>
<!-- Node1&#45;&gt;Node9 -->
<g id="edge8" class="edge">
<title>Node1&#45;&gt;Node9</title>
<path fill="none" stroke="#191970" d="M349.6109,-224.4907C311.947,-214.9738 262.0874,-202.2349 209.1401,-188.1348"/>
<polygon fill="#191970" stroke="#191970" points="209.7844,-184.6843 199.22,-185.4866 207.979,-191.4475 209.7844,-184.6843"/>
</g>
<!-- Node10 -->
<g id="node10" class="node">
<title>Node10</title>
<g id="a_node10"><a xlink:href="sysclib_8h.html" target="_top" xlink:title=" ">
<polygon fill="#ffffff" stroke="#000000" points="684,-168.5 684,-187.5 743,-187.5 743,-168.5 684,-168.5"/>
<text text-anchor="middle" x="713.5" y="-175.5" font-family="Helvetica,sans-Serif" font-size="10.00" fill="#000000">sysclib.h</text>
</a>
</g>
</g>
<!-- Node1&#45;&gt;Node10 -->
<g id="edge9" class="edge">
<title>Node1&#45;&gt;Node10</title>
<path fill="none" stroke="#191970" d="M469.1746,-228.9435C520.813,-219.5717 597.6929,-205.0546 673.9537,-188.0241"/>
<polygon fill="#191970" stroke="#191970" points="674.7446,-191.4338 683.7332,-185.8254 673.209,-184.6042 674.7446,-191.4338"/>
</g>
<!-- Node12 -->
<g id="node12" class="node">
<title>Node12</title>
<g id="a_node12"><a xlink:title=" ">
<polygon fill="#ffffff" stroke="#bfbfbf" points="303.5,-168.5 303.5,-187.5 371.5,-187.5 371.5,-168.5 303.5,-168.5"/>
<text text-anchor="middle" x="337.5" y="-175.5" font-family="Helvetica,sans-Serif" font-size="10.00" fill="#000000">common.h</text>
</a>
</g>
</g>
<!-- Node1&#45;&gt;Node12 -->
<g id="edge15" class="edge">
<title>Node1&#45;&gt;Node12</title>
<path fill="none" stroke="#191970" d="M391.7022,-224.2977C381.0833,-215.2274 367.5969,-203.7077 356.7333,-194.4285"/>
<polygon fill="#191970" stroke="#191970" points="358.9051,-191.6805 349.0281,-187.8469 354.3587,-197.0031 358.9051,-191.6805"/>
</g>
<!-- Node13 -->
<g id="node13" class="node">
<title>Node13</title>
<g id="a_node13"><a xlink:title=" ">
<polygon fill="#ffffff" stroke="#bfbfbf" points="390,-168.5 390,-187.5 429,-187.5 429,-168.5 390,-168.5"/>
<text text-anchor="middle" x="409.5" y="-175.5" font-family="Helvetica,sans-Serif" font-size="10.00" fill="#000000">fat.h</text>
</a>
</g>
</g>
<!-- Node1&#45;&gt;Node13 -->
<g id="edge16" class="edge">
<title>Node1&#45;&gt;Node13</title>
<path fill="none" stroke="#191970" d="M409.5,-224.2977C409.5,-216.3834 409.5,-206.6043 409.5,-198.0759"/>
<polygon fill="#191970" stroke="#191970" points="413.0001,-197.8469 409.5,-187.8469 406.0001,-197.847 413.0001,-197.8469"/>
</g>
<!-- Node14 -->
<g id="node14" class="node">
<title>Node14</title>
<g id="a_node14"><a xlink:title=" ">
<polygon fill="#ffffff" stroke="#bfbfbf" points="447.5,-168.5 447.5,-187.5 519.5,-187.5 519.5,-168.5 447.5,-168.5"/>
<text text-anchor="middle" x="483.5" y="-175.5" font-family="Helvetica,sans-Serif" font-size="10.00" fill="#000000">fat_driver.h</text>
</a>
</g>
</g>
<!-- Node1&#45;&gt;Node14 -->
<g id="edge17" class="edge">
<title>Node1&#45;&gt;Node14</title>
<path fill="none" stroke="#191970" d="M427.7921,-224.2977C438.7061,-215.2274 452.5671,-203.7077 463.7324,-194.4285"/>
<polygon fill="#191970" stroke="#191970" points="466.198,-196.9303 471.6517,-187.8469 461.7238,-191.5468 466.198,-196.9303"/>
</g>
<!-- Node15 -->
<g id="node15" class="node">
<title>Node15</title>
<g id="a_node15"><a xlink:title=" ">
<polygon fill="#ffffff" stroke="#bfbfbf" points="538,-168.5 538,-187.5 597,-187.5 597,-168.5 538,-168.5"/>
<text text-anchor="middle" x="567.5" y="-175.5" font-family="Helvetica,sans-Serif" font-size="10.00" fill="#000000">scache.h</text>
</a>
</g>
</g>
<!-- Node1&#45;&gt;Node15 -->
<g id="edge18" class="edge">
<title>Node1&#45;&gt;Node15</title>
<path fill="none" stroke="#191970" d="M448.1511,-224.4554C474.2826,-214.284 508.4653,-200.9787 533.5481,-191.2155"/>
<polygon fill="#191970" stroke="#191970" points="534.9662,-194.4193 543.0156,-187.5303 532.4271,-187.8961 534.9662,-194.4193"/>
</g>
<!-- Node16 -->
<g id="node16" class="node">
<title>Node16</title>
<g id="a_node16"><a xlink:href="sysmem_8h.html" target="_top" xlink:title=" ">
<polygon fill="#ffffff" stroke="#000000" points="217.5,-168.5 217.5,-187.5 285.5,-187.5 285.5,-168.5 217.5,-168.5"/>
<text text-anchor="middle" x="251.5" y="-175.5" font-family="Helvetica,sans-Serif" font-size="10.00" fill="#000000">sysmem.h</text>
</a>
</g>
</g>
<!-- Node1&#45;&gt;Node16 -->
<g id="edge19" class="edge">
<title>Node1&#45;&gt;Node16</title>
<path fill="none" stroke="#191970" d="M370.8489,-224.4554C344.7174,-214.284 310.5347,-200.9787 285.4519,-191.2155"/>
<polygon fill="#191970" stroke="#191970" points="286.5729,-187.8961 275.9844,-187.5303 284.0338,-194.4193 286.5729,-187.8961"/>
</g>
<!-- Node17 -->
<g id="node17" class="node">
<title>Node17</title>
<g id="a_node17"><a xlink:href="thbase_8h.html" target="_top" xlink:title=" ">
<polygon fill="#ffffff" stroke="#000000" points="69,-168.5 69,-187.5 128,-187.5 128,-168.5 69,-168.5"/>
<text text-anchor="middle" x="98.5" y="-175.5" font-family="Helvetica,sans-Serif" font-size="10.00" fill="#000000">thbase.h</text>
</a>
</g>
</g>
<!-- Node1&#45;&gt;Node17 -->
<g id="edge23" class="edge">
<title>Node1&#45;&gt;Node17</title>
<path fill="none" stroke="#191970" d="M349.8482,-229.3362C296.8559,-220.0507 217.0869,-205.4477 138.3573,-188.0832"/>
<polygon fill="#191970" stroke="#191970" points="138.7846,-184.5929 128.2634,-185.8402 137.2661,-191.4262 138.7846,-184.5929"/>
</g>
<!-- Node18 -->
<g id="node18" class="node">
<title>Node18</title>
<g id="a_node18"><a xlink:title=" ">
<polygon fill="#ffffff" stroke="#bfbfbf" points="761.5,-168.5 761.5,-187.5 859.5,-187.5 859.5,-168.5 761.5,-168.5"/>
<text text-anchor="middle" x="810.5" y="-175.5" font-family="Helvetica,sans-Serif" font-size="10.00" fill="#000000">module_debug.h</text>
</a>
</g>
</g>
<!-- Node1&#45;&gt;Node18 -->
<g id="edge26" class="edge">
<title>Node1&#45;&gt;Node18</title>
<path fill="none" stroke="#191970" d="M469.0468,-230.9594C535.3667,-221.3574 646.0356,-205.0676 751.2968,-188.1684"/>
<polygon fill="#191970" stroke="#191970" points="752.1483,-191.5765 761.4648,-186.5313 751.0356,-184.6655 752.1483,-191.5765"/>
</g>
<!-- Node4 -->
<g id="node4" class="node">
<title>Node4</title>
<g id="a_node4"><a xlink:title=" ">
<polygon fill="#ffffff" stroke="#bfbfbf" points="591.5,-112.5 591.5,-131.5 647.5,-131.5 647.5,-112.5 591.5,-112.5"/>
<text text-anchor="middle" x="619.5" y="-119.5" font-family="Helvetica,sans-Serif" font-size="10.00" fill="#000000">stdarg.h</text>
</a>
</g>
</g>
<!-- Node3&#45;&gt;Node4 -->
<g id="edge3" class="edge">
<title>Node3&#45;&gt;Node4</title>
<path fill="none" stroke="#191970" d="M636.8421,-168.2455C634.0416,-160.7776 630.091,-150.2427 626.6676,-141.1137"/>
<polygon fill="#191970" stroke="#191970" points="629.9045,-139.777 623.116,-131.6427 623.3501,-142.2349 629.9045,-139.777"/>
</g>
<!-- Node5 -->
<g id="node5" class="node">
<title>Node5</title>
<g id="a_node5"><a xlink:href="irx_8h.html" target="_top" xlink:title=" ">
<polygon fill="#ffffff" stroke="#000000" points="407.5,-112.5 407.5,-131.5 445.5,-131.5 445.5,-112.5 407.5,-112.5"/>
<text text-anchor="middle" x="426.5" y="-119.5" font-family="Helvetica,sans-Serif" font-size="10.00" fill="#000000">irx.h</text>
</a>
</g>
</g>
<!-- Node3&#45;&gt;Node5 -->
<g id="edge4" class="edge">
<title>Node3&#45;&gt;Node5</title>
<path fill="none" stroke="#191970" d="M615.2777,-170.4724C612.323,-169.623 609.3478,-168.7824 606.5,-168 553.4234,-153.4176 491.1221,-137.8355 455.4809,-129.0667"/>
<polygon fill="#191970" stroke="#191970" points="456.2861,-125.6605 445.7401,-126.6766 454.618,-132.4589 456.2861,-125.6605"/>
</g>
<!-- Node6 -->
<g id="node6" class="node">
<title>Node6</title>
<g id="a_node6"><a xlink:href="types_8h.html" target="_top" xlink:title=" ">
<polygon fill="#ffffff" stroke="#000000" points="400,-56.5 400,-75.5 453,-75.5 453,-56.5 400,-56.5"/>
<text text-anchor="middle" x="426.5" y="-63.5" font-family="Helvetica,sans-Serif" font-size="10.00" fill="#000000">types.h</text>
</a>
</g>
</g>
<!-- Node5&#45;&gt;Node6 -->
<g id="edge5" class="edge">
<title>Node5&#45;&gt;Node6</title>
<path fill="none" stroke="#191970" d="M426.5,-112.2455C426.5,-104.9382 426.5,-94.6944 426.5,-85.7046"/>
<polygon fill="#191970" stroke="#191970" points="430.0001,-85.6426 426.5,-75.6427 423.0001,-85.6427 430.0001,-85.6426"/>
</g>
<!-- Node7 -->
<g id="node7" class="node">
<title>Node7</title>
<g id="a_node7"><a xlink:title=" ">
<polygon fill="#ffffff" stroke="#bfbfbf" points="398.5,-.5 398.5,-19.5 454.5,-19.5 454.5,-.5 398.5,-.5"/>
<text text-anchor="middle" x="426.5" y="-7.5" font-family="Helvetica,sans-Serif" font-size="10.00" fill="#000000">stddef.h</text>
</a>
</g>
</g>
<!-- Node6&#45;&gt;Node7 -->
<g id="edge6" class="edge">
<title>Node6&#45;&gt;Node7</title>
<path fill="none" stroke="#191970" d="M426.5,-56.2455C426.5,-48.9382 426.5,-38.6944 426.5,-29.7046"/>
<polygon fill="#191970" stroke="#191970" points="430.0001,-29.6426 426.5,-19.6427 423.0001,-29.6427 430.0001,-29.6426"/>
</g>
<!-- Node8 -->
<g id="node8" class="node">
<title>Node8</title>
<g id="a_node8"><a xlink:href="tamtypes_8h.html" target="_top" xlink:title=" ">
<polygon fill="#ffffff" stroke="#000000" points="510.5,-.5 510.5,-19.5 582.5,-19.5 582.5,-.5 510.5,-.5"/>
<text text-anchor="middle" x="546.5" y="-7.5" font-family="Helvetica,sans-Serif" font-size="10.00" fill="#000000">tamtypes.h</text>
</a>
</g>
</g>
<!-- Node6&#45;&gt;Node8 -->
<g id="edge7" class="edge">
<title>Node6&#45;&gt;Node8</title>
<path fill="none" stroke="#191970" d="M447.1287,-56.3733C466.3919,-47.3838 495.3486,-33.8706 517.0419,-23.7471"/>
<polygon fill="#191970" stroke="#191970" points="518.5587,-26.9017 526.1405,-19.5011 515.5985,-20.5584 518.5587,-26.9017"/>
</g>
<!-- Node10&#45;&gt;Node4 -->
<g id="edge12" class="edge">
<title>Node10&#45;&gt;Node4</title>
<path fill="none" stroke="#191970" d="M697.1264,-168.2455C682.5692,-159.5731 661.069,-146.7645 644.3848,-136.825"/>
<polygon fill="#191970" stroke="#191970" points="646.0683,-133.7539 635.6859,-131.6427 642.4856,-139.7676 646.0683,-133.7539"/>
</g>
<!-- Node10&#45;&gt;Node5 -->
<g id="edge11" class="edge">
<title>Node10&#45;&gt;Node5</title>
<path fill="none" stroke="#191970" d="M683.7391,-170.1483C680.6263,-169.3931 677.5033,-168.6628 674.5,-168 595.7532,-150.622 501.967,-134.4421 455.5281,-126.7293"/>
<polygon fill="#191970" stroke="#191970" points="456.0041,-123.2606 445.5674,-125.0845 454.8635,-130.1671 456.0041,-123.2606"/>
</g>
<!-- Node10&#45;&gt;Node6 -->
<g id="edge10" class="edge">
<title>Node10&#45;&gt;Node6</title>
<path fill="none" stroke="#191970" d="M707.9321,-168.1233C699.071,-153.3831 680.3035,-125.8804 656.5,-112 624.196,-93.1628 519.8603,-77.6778 463.4762,-70.4307"/>
<polygon fill="#191970" stroke="#191970" points="463.5638,-66.9141 453.2041,-69.1335 462.6867,-73.8589 463.5638,-66.9141"/>
</g>
<!-- Node11 -->
<g id="node11" class="node">
<title>Node11</title>
<g id="a_node11"><a xlink:href="setjmp_8h.html" target="_top" xlink:title=" ">
<polygon fill="#ffffff" stroke="#000000" points="600,-56.5 600,-75.5 659,-75.5 659,-56.5 600,-56.5"/>
<text text-anchor="middle" x="629.5" y="-63.5" font-family="Helvetica,sans-Serif" font-size="10.00" fill="#000000">setjmp.h</text>
</a>
</g>
</g>
<!-- Node10&#45;&gt;Node11 -->
<g id="edge13" class="edge">
<title>Node10&#45;&gt;Node11</title>
<path fill="none" stroke="#191970" d="M711.7479,-168.2266C708.9237,-154.573 702.3339,-129.5011 689.5,-112 680.4694,-99.6854 667.2546,-89.063 655.5239,-81.1383"/>
<polygon fill="#191970" stroke="#191970" points="657.2416,-78.0818 646.9366,-75.6207 653.4576,-83.971 657.2416,-78.0818"/>
</g>
<!-- Node11&#45;&gt;Node8 -->
<g id="edge14" class="edge">
<title>Node11&#45;&gt;Node8</title>
<path fill="none" stroke="#191970" d="M615.0425,-56.2455C602.4268,-47.7337 583.9056,-35.2375 569.2955,-25.3801"/>
<polygon fill="#191970" stroke="#191970" points="571.0391,-22.3343 560.7918,-19.6427 567.1239,-28.1371 571.0391,-22.3343"/>
</g>
<!-- Node16&#45;&gt;Node4 -->
<g id="edge22" class="edge">
<title>Node16&#45;&gt;Node4</title>
<path fill="none" stroke="#191970" d="M285.7104,-169.7583C288.6764,-169.1306 291.637,-168.5345 294.5,-168 397.4971,-148.7731 520.192,-133.4359 581.1607,-126.3191"/>
<polygon fill="#191970" stroke="#191970" points="581.5756,-129.7945 591.1065,-125.1673 580.7703,-122.841 581.5756,-129.7945"/>
</g>
<!-- Node16&#45;&gt;Node5 -->
<g id="edge21" class="edge">
<title>Node16&#45;&gt;Node5</title>
<path fill="none" stroke="#191970" d="M281.5836,-168.3733C314.0343,-157.989 365.3487,-141.5684 397.4086,-131.3092"/>
<polygon fill="#191970" stroke="#191970" points="398.6353,-134.5916 407.0928,-128.2103 396.5018,-127.9247 398.6353,-134.5916"/>
</g>
<!-- Node16&#45;&gt;Node6 -->
<g id="edge20" class="edge">
<title>Node16&#45;&gt;Node6</title>
<path fill="none" stroke="#191970" d="M266.4204,-168.4509C296.8998,-148.9441 366.5106,-104.3932 403.0768,-80.9909"/>
<polygon fill="#191970" stroke="#191970" points="405.0813,-83.8634 411.6174,-75.5249 401.3079,-77.9675 405.0813,-83.8634"/>
</g>
<!-- Node17&#45;&gt;Node5 -->
<g id="edge25" class="edge">
<title>Node17&#45;&gt;Node5</title>
<path fill="none" stroke="#191970" d="M128.2439,-170.0692C131.3601,-169.3295 134.4885,-168.6243 137.5,-168 231.7809,-148.4537 344.8568,-132.6373 397.2278,-125.7408"/>
<polygon fill="#191970" stroke="#191970" points="397.9902,-129.1711 407.4532,-124.4064 397.0844,-122.2299 397.9902,-129.1711"/>
</g>
<!-- Node17&#45;&gt;Node6 -->
<g id="edge24" class="edge">
<title>Node17&#45;&gt;Node6</title>
<path fill="none" stroke="#191970" d="M126.4651,-168.4509C185.8498,-148.1732 324.4891,-100.833 390.4248,-78.3184"/>
<polygon fill="#191970" stroke="#191970" points="391.6514,-81.598 399.9839,-75.0543 389.3893,-74.9736 391.6514,-81.598"/>
</g>
</g>
</svg>
