<?xml version="1.0" encoding="UTF-8" standalone="no"?>
<!DOCTYPE svg PUBLIC "-//W3C//DTD SVG 1.1//EN"
 "http://www.w3.org/Graphics/SVG/1.1/DTD/svg11.dtd">
<!-- Generated by graphviz version 2.40.1 (20161225.0304)
 -->
<!-- Title: iop/fs/bdmfs_vfat/src/include/fat_driver.h Pages: 1 -->
<svg width="169pt" height="319pt"
 viewBox="0.00 0.00 168.50 319.00" xmlns="http://www.w3.org/2000/svg" xmlns:xlink="http://www.w3.org/1999/xlink">
<g id="graph0" class="graph" transform="scale(1 1) rotate(0) translate(4 315)">
<title>iop/fs/bdmfs_vfat/src/include/fat_driver.h</title>
<polygon fill="#ffffff" stroke="transparent" points="-4,4 -4,-315 164.5,-315 164.5,4 -4,4"/>
<!-- Node1 -->
<g id="node1" class="node">
<title>Node1</title>
<g id="a_node1"><a xlink:title=" ">
<polygon fill="#bfbfbf" stroke="#000000" points="41.5,-280.5 41.5,-310.5 160.5,-310.5 160.5,-280.5 41.5,-280.5"/>
<text text-anchor="start" x="49.5" y="-298.5" font-family="Helvetica,sans-Serif" font-size="10.00" fill="#000000">iop/fs/bdmfs_vfat/src</text>
<text text-anchor="middle" x="101" y="-287.5" font-family="Helvetica,sans-Serif" font-size="10.00" fill="#000000">/include/fat_driver.h</text>
</a>
</g>
</g>
<!-- Node2 -->
<g id="node2" class="node">
<title>Node2</title>
<g id="a_node2"><a xlink:href="fs_2bdmfs__vfat_2src_2include_2scache_8h.html" target="_top" xlink:title=" ">
<polygon fill="#ffffff" stroke="#000000" points="42.5,-224.5 42.5,-243.5 101.5,-243.5 101.5,-224.5 42.5,-224.5"/>
<text text-anchor="middle" x="72" y="-231.5" font-family="Helvetica,sans-Serif" font-size="10.00" fill="#000000">scache.h</text>
</a>
</g>
</g>
<!-- Node1&#45;&gt;Node2 -->
<g id="edge1" class="edge">
<title>Node1&#45;&gt;Node2</title>
<path fill="none" stroke="#191970" d="M93.8315,-280.2977C89.9318,-272.0277 85.072,-261.7215 80.9282,-252.9339"/>
<polygon fill="#191970" stroke="#191970" points="84.0741,-251.399 76.6433,-243.8469 77.7427,-254.3846 84.0741,-251.399"/>
</g>
<!-- Node3 -->
<g id="node3" class="node">
<title>Node3</title>
<g id="a_node3"><a xlink:href="bdm_8h.html" target="_top" xlink:title=" ">
<polygon fill="#ffffff" stroke="#000000" points="77.5,-168.5 77.5,-187.5 124.5,-187.5 124.5,-168.5 77.5,-168.5"/>
<text text-anchor="middle" x="101" y="-175.5" font-family="Helvetica,sans-Serif" font-size="10.00" fill="#000000">bdm.h</text>
</a>
</g>
</g>
<!-- Node1&#45;&gt;Node3 -->
<g id="edge8" class="edge">
<title>Node1&#45;&gt;Node3</title>
<path fill="none" stroke="#191970" d="M105.273,-280.4698C108.8648,-266.0251 113.1022,-243.5658 111,-224 110.0637,-215.285 108.1567,-205.7985 106.2568,-197.7166"/>
<polygon fill="#191970" stroke="#191970" points="109.5899,-196.6187 103.7621,-187.7707 102.8002,-198.3218 109.5899,-196.6187"/>
</g>
<!-- Node2&#45;&gt;Node3 -->
<g id="edge2" class="edge">
<title>Node2&#45;&gt;Node3</title>
<path fill="none" stroke="#191970" d="M77.0514,-224.2455C81.0019,-216.617 86.6097,-205.7881 91.4058,-196.5267"/>
<polygon fill="#191970" stroke="#191970" points="94.5159,-198.1321 96.0065,-187.6427 88.2999,-194.9131 94.5159,-198.1321"/>
</g>
<!-- Node4 -->
<g id="node4" class="node">
<title>Node4</title>
<g id="a_node4"><a xlink:href="irx_8h.html" target="_top" xlink:title=" ">
<polygon fill="#ffffff" stroke="#000000" points="50,-112.5 50,-131.5 88,-131.5 88,-112.5 50,-112.5"/>
<text text-anchor="middle" x="69" y="-119.5" font-family="Helvetica,sans-Serif" font-size="10.00" fill="#000000">irx.h</text>
</a>
</g>
</g>
<!-- Node3&#45;&gt;Node4 -->
<g id="edge3" class="edge">
<title>Node3&#45;&gt;Node4</title>
<path fill="none" stroke="#191970" d="M95.426,-168.2455C91.0669,-160.617 84.8789,-149.7881 79.5867,-140.5267"/>
<polygon fill="#191970" stroke="#191970" points="82.5104,-138.5886 74.5101,-131.6427 76.4327,-142.0616 82.5104,-138.5886"/>
</g>
<!-- Node8 -->
<g id="node8" class="node">
<title>Node8</title>
<g id="a_node8"><a xlink:title=" ">
<polygon fill="#ffffff" stroke="#bfbfbf" points="106.5,-112.5 106.5,-131.5 159.5,-131.5 159.5,-112.5 106.5,-112.5"/>
<text text-anchor="middle" x="133" y="-119.5" font-family="Helvetica,sans-Serif" font-size="10.00" fill="#000000">types.h</text>
</a>
</g>
</g>
<!-- Node3&#45;&gt;Node8 -->
<g id="edge7" class="edge">
<title>Node3&#45;&gt;Node8</title>
<path fill="none" stroke="#191970" d="M106.574,-168.2455C110.9331,-160.617 117.1211,-149.7881 122.4133,-140.5267"/>
<polygon fill="#191970" stroke="#191970" points="125.5673,-142.0616 127.4899,-131.6427 119.4896,-138.5886 125.5673,-142.0616"/>
</g>
<!-- Node5 -->
<g id="node5" class="node">
<title>Node5</title>
<g id="a_node5"><a xlink:href="types_8h.html" target="_top" xlink:title=" ">
<polygon fill="#ffffff" stroke="#000000" points="42.5,-56.5 42.5,-75.5 95.5,-75.5 95.5,-56.5 42.5,-56.5"/>
<text text-anchor="middle" x="69" y="-63.5" font-family="Helvetica,sans-Serif" font-size="10.00" fill="#000000">types.h</text>
</a>
</g>
</g>
<!-- Node4&#45;&gt;Node5 -->
<g id="edge4" class="edge">
<title>Node4&#45;&gt;Node5</title>
<path fill="none" stroke="#191970" d="M69,-112.2455C69,-104.9382 69,-94.6944 69,-85.7046"/>
<polygon fill="#191970" stroke="#191970" points="72.5001,-85.6426 69,-75.6427 65.5001,-85.6427 72.5001,-85.6426"/>
</g>
<!-- Node6 -->
<g id="node6" class="node">
<title>Node6</title>
<g id="a_node6"><a xlink:title=" ">
<polygon fill="#ffffff" stroke="#bfbfbf" points="0,-.5 0,-19.5 56,-19.5 56,-.5 0,-.5"/>
<text text-anchor="middle" x="28" y="-7.5" font-family="Helvetica,sans-Serif" font-size="10.00" fill="#000000">stddef.h</text>
</a>
</g>
</g>
<!-- Node5&#45;&gt;Node6 -->
<g id="edge5" class="edge">
<title>Node5&#45;&gt;Node6</title>
<path fill="none" stroke="#191970" d="M61.8583,-56.2455C56.1556,-48.4564 48.01,-37.3308 41.1375,-27.9439"/>
<polygon fill="#191970" stroke="#191970" points="43.7913,-25.6437 35.0598,-19.6427 38.1432,-29.7789 43.7913,-25.6437"/>
</g>
<!-- Node7 -->
<g id="node7" class="node">
<title>Node7</title>
<g id="a_node7"><a xlink:href="tamtypes_8h.html" target="_top" xlink:title=" ">
<polygon fill="#ffffff" stroke="#000000" points="74,-.5 74,-19.5 146,-19.5 146,-.5 74,-.5"/>
<text text-anchor="middle" x="110" y="-7.5" font-family="Helvetica,sans-Serif" font-size="10.00" fill="#000000">tamtypes.h</text>
</a>
</g>
</g>
<!-- Node5&#45;&gt;Node7 -->
<g id="edge6" class="edge">
<title>Node5&#45;&gt;Node7</title>
<path fill="none" stroke="#191970" d="M76.1417,-56.2455C81.8444,-48.4564 89.99,-37.3308 96.8625,-27.9439"/>
<polygon fill="#191970" stroke="#191970" points="99.8568,-29.7789 102.9402,-19.6427 94.2087,-25.6437 99.8568,-29.7789"/>
</g>
</g>
</svg>
