<?xml version="1.0" encoding="UTF-8" standalone="no"?>
<!DOCTYPE svg PUBLIC "-//W3C//DTD SVG 1.1//EN"
 "http://www.w3.org/Graphics/SVG/1.1/DTD/svg11.dtd">
<!-- Generated by graphviz version 2.40.1 (20161225.0304)
 -->
<!-- Title: iop/usb/usbd/src/hcd.c Pages: 1 -->
<svg width="643pt" height="364pt"
 viewBox="0.00 0.00 643.00 364.00" xmlns="http://www.w3.org/2000/svg" xmlns:xlink="http://www.w3.org/1999/xlink">
<g id="graph0" class="graph" transform="scale(1 1) rotate(0) translate(4 360)">
<title>iop/usb/usbd/src/hcd.c</title>
<polygon fill="#ffffff" stroke="transparent" points="-4,4 -4,-360 639,-360 639,4 -4,4"/>
<!-- Node1 -->
<g id="node1" class="node">
<title>Node1</title>
<g id="a_node1"><a xlink:title=" ">
<polygon fill="#bfbfbf" stroke="#000000" points="235.5,-336.5 235.5,-355.5 359.5,-355.5 359.5,-336.5 235.5,-336.5"/>
<text text-anchor="middle" x="297.5" y="-343.5" font-family="Helvetica,sans-Serif" font-size="10.00" fill="#000000">iop/usb/usbd/src/hcd.c</text>
</a>
</g>
</g>
<!-- Node2 -->
<g id="node2" class="node">
<title>Node2</title>
<g id="a_node2"><a xlink:href="usbdpriv_8h.html" target="_top" xlink:title=" ">
<polygon fill="#ffffff" stroke="#000000" points="19,-224.5 19,-243.5 86,-243.5 86,-224.5 19,-224.5"/>
<text text-anchor="middle" x="52.5" y="-231.5" font-family="Helvetica,sans-Serif" font-size="10.00" fill="#000000">usbdpriv.h</text>
</a>
</g>
</g>
<!-- Node1&#45;&gt;Node2 -->
<g id="edge1" class="edge">
<title>Node1&#45;&gt;Node2</title>
<path fill="none" stroke="#191970" d="M235.3336,-340.0328C157.1719,-331.8922 31.45,-316.4288 17.5,-300 4.8212,-285.0683 19.2846,-264.783 33.2772,-250.6582"/>
<polygon fill="#191970" stroke="#191970" points="35.9666,-252.9321 40.8271,-243.518 31.1568,-247.8463 35.9666,-252.9321"/>
</g>
<!-- Node9 -->
<g id="node9" class="node">
<title>Node9</title>
<g id="a_node9"><a xlink:href="mem_8h.html" target="_top" xlink:title=" ">
<polygon fill="#ffffff" stroke="#000000" points="27,-280.5 27,-299.5 78,-299.5 78,-280.5 27,-280.5"/>
<text text-anchor="middle" x="52.5" y="-287.5" font-family="Helvetica,sans-Serif" font-size="10.00" fill="#000000">mem.h</text>
</a>
</g>
</g>
<!-- Node1&#45;&gt;Node9 -->
<g id="edge9" class="edge">
<title>Node1&#45;&gt;Node9</title>
<path fill="none" stroke="#191970" d="M249.7611,-336.4322C209.2351,-328.1096 149.3356,-315.3392 87.9297,-299.9894"/>
<polygon fill="#191970" stroke="#191970" points="88.6164,-296.5531 78.0643,-297.504 86.9062,-303.341 88.6164,-296.5531"/>
</g>
<!-- Node10 -->
<g id="node10" class="node">
<title>Node10</title>
<g id="a_node10"><a xlink:href="usbio_8h.html" target="_top" xlink:title=" ">
<polygon fill="#ffffff" stroke="#000000" points="496.5,-280.5 496.5,-299.5 548.5,-299.5 548.5,-280.5 496.5,-280.5"/>
<text text-anchor="middle" x="522.5" y="-287.5" font-family="Helvetica,sans-Serif" font-size="10.00" fill="#000000">usbio.h</text>
</a>
</g>
</g>
<!-- Node1&#45;&gt;Node10 -->
<g id="edge11" class="edge">
<title>Node1&#45;&gt;Node10</title>
<path fill="none" stroke="#191970" d="M335.7694,-336.4994C373.1831,-327.2078 431.7615,-312.6503 482.5,-300 483.7502,-299.6883 485.0223,-299.371 486.3072,-299.0504"/>
<polygon fill="#191970" stroke="#191970" points="487.3971,-302.3858 496.2512,-296.5673 485.7011,-295.5943 487.3971,-302.3858"/>
</g>
<!-- Node11 -->
<g id="node11" class="node">
<title>Node11</title>
<g id="a_node11"><a xlink:href="hub_8h.html" target="_top" xlink:title=" ">
<polygon fill="#ffffff" stroke="#000000" points="96.5,-280.5 96.5,-299.5 140.5,-299.5 140.5,-280.5 96.5,-280.5"/>
<text text-anchor="middle" x="118.5" y="-287.5" font-family="Helvetica,sans-Serif" font-size="10.00" fill="#000000">hub.h</text>
</a>
</g>
</g>
<!-- Node1&#45;&gt;Node11 -->
<g id="edge12" class="edge">
<title>Node1&#45;&gt;Node11</title>
<path fill="none" stroke="#191970" d="M266.5725,-336.4928C238.5994,-327.8706 196.0306,-314.6922 150.3069,-300.2342"/>
<polygon fill="#191970" stroke="#191970" points="151.0962,-296.813 140.5062,-297.1308 148.983,-303.4864 151.0962,-296.813"/>
</g>
<!-- Node12 -->
<g id="node12" class="node">
<title>Node12</title>
<g id="a_node12"><a xlink:href="driver_8h.html" target="_top" xlink:title=" ">
<polygon fill="#ffffff" stroke="#000000" points="159,-280.5 159,-299.5 212,-299.5 212,-280.5 159,-280.5"/>
<text text-anchor="middle" x="185.5" y="-287.5" font-family="Helvetica,sans-Serif" font-size="10.00" fill="#000000">driver.h</text>
</a>
</g>
</g>
<!-- Node1&#45;&gt;Node12 -->
<g id="edge14" class="edge">
<title>Node1&#45;&gt;Node12</title>
<path fill="none" stroke="#191970" d="M278.2465,-336.3733C260.4288,-327.4644 233.7253,-314.1127 213.5406,-304.0203"/>
<polygon fill="#191970" stroke="#191970" points="215.0118,-300.8428 204.5022,-299.5011 211.8813,-307.1038 215.0118,-300.8428"/>
</g>
<!-- Node13 -->
<g id="node13" class="node">
<title>Node13</title>
<g id="a_node13"><a xlink:href="stdio_8h.html" target="_top" xlink:title=" ">
<polygon fill="#ffffff" stroke="#000000" points="258.5,-168.5 258.5,-187.5 308.5,-187.5 308.5,-168.5 258.5,-168.5"/>
<text text-anchor="middle" x="283.5" y="-175.5" font-family="Helvetica,sans-Serif" font-size="10.00" fill="#000000">stdio.h</text>
</a>
</g>
</g>
<!-- Node1&#45;&gt;Node13 -->
<g id="edge16" class="edge">
<title>Node1&#45;&gt;Node13</title>
<path fill="none" stroke="#191970" d="M297.6014,-336.4698C297.7128,-315.8697 297.4032,-265.6853 292.5,-224 291.4805,-215.3323 289.7356,-205.8534 288.052,-197.7645"/>
<polygon fill="#191970" stroke="#191970" points="291.4283,-196.8208 285.8681,-187.8022 284.5907,-198.3197 291.4283,-196.8208"/>
</g>
<!-- Node15 -->
<g id="node15" class="node">
<title>Node15</title>
<g id="a_node15"><a xlink:href="sysclib_8h.html" target="_top" xlink:title=" ">
<polygon fill="#ffffff" stroke="#000000" points="95,-168.5 95,-187.5 154,-187.5 154,-168.5 95,-168.5"/>
<text text-anchor="middle" x="124.5" y="-175.5" font-family="Helvetica,sans-Serif" font-size="10.00" fill="#000000">sysclib.h</text>
</a>
</g>
</g>
<!-- Node1&#45;&gt;Node15 -->
<g id="edge19" class="edge">
<title>Node1&#45;&gt;Node15</title>
<path fill="none" stroke="#191970" d="M287.7031,-336.4862C259.5271,-309.1246 177.999,-229.9528 141.9712,-194.9663"/>
<polygon fill="#191970" stroke="#191970" points="144.2327,-192.2836 134.6204,-187.8279 139.3561,-197.3055 144.2327,-192.2836"/>
</g>
<!-- Node17 -->
<g id="node17" class="node">
<title>Node17</title>
<g id="a_node17"><a xlink:href="sysmem_8h.html" target="_top" xlink:title=" ">
<polygon fill="#ffffff" stroke="#000000" points="172.5,-168.5 172.5,-187.5 240.5,-187.5 240.5,-168.5 172.5,-168.5"/>
<text text-anchor="middle" x="206.5" y="-175.5" font-family="Helvetica,sans-Serif" font-size="10.00" fill="#000000">sysmem.h</text>
</a>
</g>
</g>
<!-- Node1&#45;&gt;Node17 -->
<g id="edge25" class="edge">
<title>Node1&#45;&gt;Node17</title>
<path fill="none" stroke="#191970" d="M295.7218,-336.4592C291.3949,-314.9772 278.8423,-261.747 254.5,-224 247.2427,-212.7464 236.7051,-202.2453 227.3509,-194.126"/>
<polygon fill="#191970" stroke="#191970" points="229.4763,-191.3416 219.5473,-187.6449 225.0039,-196.7265 229.4763,-191.3416"/>
</g>
<!-- Node18 -->
<g id="node18" class="node">
<title>Node18</title>
<g id="a_node18"><a xlink:href="thbase_8h.html" target="_top" xlink:title=" ">
<polygon fill="#ffffff" stroke="#000000" points="495,-168.5 495,-187.5 554,-187.5 554,-168.5 495,-168.5"/>
<text text-anchor="middle" x="524.5" y="-175.5" font-family="Helvetica,sans-Serif" font-size="10.00" fill="#000000">thbase.h</text>
</a>
</g>
</g>
<!-- Node1&#45;&gt;Node18 -->
<g id="edge29" class="edge">
<title>Node1&#45;&gt;Node18</title>
<path fill="none" stroke="#191970" d="M310.9089,-336.2685C323.538,-327.0519 342.938,-312.762 359.5,-300 402.3303,-266.9967 410.7476,-255.7707 454.5,-224 469.3189,-213.2393 486.4983,-201.9335 500.1294,-193.2231"/>
<polygon fill="#191970" stroke="#191970" points="502.3549,-195.9564 508.9268,-187.6461 498.6069,-190.0443 502.3549,-195.9564"/>
</g>
<!-- Node19 -->
<g id="node19" class="node">
<title>Node19</title>
<g id="a_node19"><a xlink:href="thevent_8h.html" target="_top" xlink:title=" ">
<polygon fill="#ffffff" stroke="#000000" points="572,-168.5 572,-187.5 635,-187.5 635,-168.5 572,-168.5"/>
<text text-anchor="middle" x="603.5" y="-175.5" font-family="Helvetica,sans-Serif" font-size="10.00" fill="#000000">thevent.h</text>
</a>
</g>
</g>
<!-- Node1&#45;&gt;Node19 -->
<g id="edge32" class="edge">
<title>Node1&#45;&gt;Node19</title>
<path fill="none" stroke="#191970" d="M316.1226,-336.461C333.9905,-327.2625 361.6953,-312.8793 385.5,-300 455.5703,-262.0893 537.3252,-215.7697 577.9191,-192.6278"/>
<polygon fill="#191970" stroke="#191970" points="579.6801,-195.6527 586.6311,-187.6567 576.2109,-189.5728 579.6801,-195.6527"/>
</g>
<!-- Node20 -->
<g id="node20" class="node">
<title>Node20</title>
<g id="a_node20"><a xlink:href="thsemap_8h.html" target="_top" xlink:title=" ">
<polygon fill="#ffffff" stroke="#000000" points="326.5,-168.5 326.5,-187.5 394.5,-187.5 394.5,-168.5 326.5,-168.5"/>
<text text-anchor="middle" x="360.5" y="-175.5" font-family="Helvetica,sans-Serif" font-size="10.00" fill="#000000">thsemap.h</text>
</a>
</g>
</g>
<!-- Node1&#45;&gt;Node20 -->
<g id="edge35" class="edge">
<title>Node1&#45;&gt;Node20</title>
<path fill="none" stroke="#191970" d="M301.0677,-336.4862C311.1127,-309.6994 339.7788,-233.2565 353.2892,-197.2289"/>
<polygon fill="#191970" stroke="#191970" points="356.5804,-198.4201 356.8145,-187.8279 350.0261,-195.9622 356.5804,-198.4201"/>
</g>
<!-- Node21 -->
<g id="node21" class="node">
<title>Node21</title>
<g id="a_node21"><a xlink:href="intrman_8h.html" target="_top" xlink:title=" ">
<polygon fill="#ffffff" stroke="#000000" points="412.5,-168.5 412.5,-187.5 476.5,-187.5 476.5,-168.5 412.5,-168.5"/>
<text text-anchor="middle" x="444.5" y="-175.5" font-family="Helvetica,sans-Serif" font-size="10.00" fill="#000000">intrman.h</text>
</a>
</g>
</g>
<!-- Node1&#45;&gt;Node21 -->
<g id="edge38" class="edge">
<title>Node1&#45;&gt;Node21</title>
<path fill="none" stroke="#191970" d="M305.8245,-336.4862C329.6654,-309.2396 398.46,-230.6172 429.2666,-195.4096"/>
<polygon fill="#191970" stroke="#191970" points="431.9495,-197.6585 435.9006,-187.8279 426.6815,-193.0489 431.9495,-197.6585"/>
</g>
<!-- Node3 -->
<g id="node3" class="node">
<title>Node3</title>
<g id="a_node3"><a xlink:href="usbd_8h.html" target="_top" xlink:title=" ">
<polygon fill="#ffffff" stroke="#000000" points="28,-168.5 28,-187.5 77,-187.5 77,-168.5 28,-168.5"/>
<text text-anchor="middle" x="52.5" y="-175.5" font-family="Helvetica,sans-Serif" font-size="10.00" fill="#000000">usbd.h</text>
</a>
</g>
</g>
<!-- Node2&#45;&gt;Node3 -->
<g id="edge2" class="edge">
<title>Node2&#45;&gt;Node3</title>
<path fill="none" stroke="#191970" d="M52.5,-224.2455C52.5,-216.9382 52.5,-206.6944 52.5,-197.7046"/>
<polygon fill="#191970" stroke="#191970" points="56.0001,-197.6426 52.5,-187.6427 49.0001,-197.6427 56.0001,-197.6426"/>
</g>
<!-- Node4 -->
<g id="node4" class="node">
<title>Node4</title>
<g id="a_node4"><a xlink:title=" ">
<polygon fill="#ffffff" stroke="#bfbfbf" points="0,-112.5 0,-131.5 53,-131.5 53,-112.5 0,-112.5"/>
<text text-anchor="middle" x="26.5" y="-119.5" font-family="Helvetica,sans-Serif" font-size="10.00" fill="#000000">types.h</text>
</a>
</g>
</g>
<!-- Node2&#45;&gt;Node4 -->
<g id="edge8" class="edge">
<title>Node2&#45;&gt;Node4</title>
<path fill="none" stroke="#191970" d="M42.5638,-224.4913C34.324,-215.8654 23.2233,-202.3368 18.5,-188 13.4843,-172.7757 16.2647,-154.6464 19.8588,-141.2441"/>
<polygon fill="#191970" stroke="#191970" points="23.2139,-142.2411 22.7823,-131.655 16.5181,-140.1997 23.2139,-142.2411"/>
</g>
<!-- Node3&#45;&gt;Node4 -->
<g id="edge3" class="edge">
<title>Node3&#45;&gt;Node4</title>
<path fill="none" stroke="#191970" d="M47.9711,-168.2455C44.4666,-160.6973 39.5073,-150.0158 35.2377,-140.8197"/>
<polygon fill="#191970" stroke="#191970" points="38.3627,-139.2389 30.977,-131.6427 32.0136,-142.1867 38.3627,-139.2389"/>
</g>
<!-- Node5 -->
<g id="node5" class="node">
<title>Node5</title>
<g id="a_node5"><a xlink:href="irx_8h.html" target="_top" xlink:title=" ">
<polygon fill="#ffffff" stroke="#000000" points="298.5,-112.5 298.5,-131.5 336.5,-131.5 336.5,-112.5 298.5,-112.5"/>
<text text-anchor="middle" x="317.5" y="-119.5" font-family="Helvetica,sans-Serif" font-size="10.00" fill="#000000">irx.h</text>
</a>
</g>
</g>
<!-- Node3&#45;&gt;Node5 -->
<g id="edge4" class="edge">
<title>Node3&#45;&gt;Node5</title>
<path fill="none" stroke="#191970" d="M77.2933,-170.2009C80.0515,-169.4187 82.8285,-168.6679 85.5,-168 157.8148,-149.9207 244.2295,-134.3513 288.3848,-126.8232"/>
<polygon fill="#191970" stroke="#191970" points="289.1366,-130.2458 298.4135,-125.1282 287.97,-123.3437 289.1366,-130.2458"/>
</g>
<!-- Node6 -->
<g id="node6" class="node">
<title>Node6</title>
<g id="a_node6"><a xlink:href="types_8h.html" target="_top" xlink:title=" ">
<polygon fill="#ffffff" stroke="#000000" points="314,-56.5 314,-75.5 367,-75.5 367,-56.5 314,-56.5"/>
<text text-anchor="middle" x="340.5" y="-63.5" font-family="Helvetica,sans-Serif" font-size="10.00" fill="#000000">types.h</text>
</a>
</g>
</g>
<!-- Node5&#45;&gt;Node6 -->
<g id="edge5" class="edge">
<title>Node5&#45;&gt;Node6</title>
<path fill="none" stroke="#191970" d="M321.5063,-112.2455C324.5735,-104.7776 328.9003,-94.2427 332.6497,-85.1137"/>
<polygon fill="#191970" stroke="#191970" points="335.9779,-86.2226 336.5396,-75.6427 329.5028,-83.5631 335.9779,-86.2226"/>
</g>
<!-- Node7 -->
<g id="node7" class="node">
<title>Node7</title>
<g id="a_node7"><a xlink:title=" ">
<polygon fill="#ffffff" stroke="#bfbfbf" points="312.5,-.5 312.5,-19.5 368.5,-19.5 368.5,-.5 312.5,-.5"/>
<text text-anchor="middle" x="340.5" y="-7.5" font-family="Helvetica,sans-Serif" font-size="10.00" fill="#000000">stddef.h</text>
</a>
</g>
</g>
<!-- Node6&#45;&gt;Node7 -->
<g id="edge6" class="edge">
<title>Node6&#45;&gt;Node7</title>
<path fill="none" stroke="#191970" d="M340.5,-56.2455C340.5,-48.9382 340.5,-38.6944 340.5,-29.7046"/>
<polygon fill="#191970" stroke="#191970" points="344.0001,-29.6426 340.5,-19.6427 337.0001,-29.6427 344.0001,-29.6426"/>
</g>
<!-- Node8 -->
<g id="node8" class="node">
<title>Node8</title>
<g id="a_node8"><a xlink:href="tamtypes_8h.html" target="_top" xlink:title=" ">
<polygon fill="#ffffff" stroke="#000000" points="193.5,-.5 193.5,-19.5 265.5,-19.5 265.5,-.5 193.5,-.5"/>
<text text-anchor="middle" x="229.5" y="-7.5" font-family="Helvetica,sans-Serif" font-size="10.00" fill="#000000">tamtypes.h</text>
</a>
</g>
</g>
<!-- Node6&#45;&gt;Node8 -->
<g id="edge7" class="edge">
<title>Node6&#45;&gt;Node8</title>
<path fill="none" stroke="#191970" d="M321.4184,-56.3733C303.7598,-47.4644 277.2947,-34.1127 257.2902,-24.0203"/>
<polygon fill="#191970" stroke="#191970" points="258.8372,-20.8806 248.3326,-19.5011 255.6842,-27.1303 258.8372,-20.8806"/>
</g>
<!-- Node9&#45;&gt;Node2 -->
<g id="edge10" class="edge">
<title>Node9&#45;&gt;Node2</title>
<path fill="none" stroke="#191970" d="M52.5,-280.2455C52.5,-272.9382 52.5,-262.6944 52.5,-253.7046"/>
<polygon fill="#191970" stroke="#191970" points="56.0001,-253.6426 52.5,-243.6427 49.0001,-253.6427 56.0001,-253.6426"/>
</g>
<!-- Node11&#45;&gt;Node2 -->
<g id="edge13" class="edge">
<title>Node11&#45;&gt;Node2</title>
<path fill="none" stroke="#191970" d="M107.0037,-280.2455C97.2558,-271.9746 83.0741,-259.9416 71.6202,-250.2232"/>
<polygon fill="#191970" stroke="#191970" points="73.7541,-247.4437 63.8646,-243.6427 69.2253,-252.7813 73.7541,-247.4437"/>
</g>
<!-- Node12&#45;&gt;Node2 -->
<g id="edge15" class="edge">
<title>Node12&#45;&gt;Node2</title>
<path fill="none" stroke="#191970" d="M162.6365,-280.3733C141.095,-271.3032 108.6162,-257.6279 84.5044,-247.4755"/>
<polygon fill="#191970" stroke="#191970" points="85.6397,-244.156 75.0652,-243.5011 82.9233,-250.6075 85.6397,-244.156"/>
</g>
<!-- Node13&#45;&gt;Node5 -->
<g id="edge18" class="edge">
<title>Node13&#45;&gt;Node5</title>
<path fill="none" stroke="#191970" d="M289.4223,-168.2455C294.1027,-160.5367 300.7673,-149.5598 306.4289,-140.2348"/>
<polygon fill="#191970" stroke="#191970" points="309.4475,-142.007 311.6455,-131.6427 303.4639,-138.3741 309.4475,-142.007"/>
</g>
<!-- Node14 -->
<g id="node14" class="node">
<title>Node14</title>
<g id="a_node14"><a xlink:title=" ">
<polygon fill="#ffffff" stroke="#bfbfbf" points="186.5,-112.5 186.5,-131.5 242.5,-131.5 242.5,-112.5 186.5,-112.5"/>
<text text-anchor="middle" x="214.5" y="-119.5" font-family="Helvetica,sans-Serif" font-size="10.00" fill="#000000">stdarg.h</text>
</a>
</g>
</g>
<!-- Node13&#45;&gt;Node14 -->
<g id="edge17" class="edge">
<title>Node13&#45;&gt;Node14</title>
<path fill="none" stroke="#191970" d="M271.4811,-168.2455C261.2902,-159.9746 246.4638,-147.9416 234.4893,-138.2232"/>
<polygon fill="#191970" stroke="#191970" points="236.3514,-135.2268 226.3812,-131.6427 231.9402,-140.662 236.3514,-135.2268"/>
</g>
<!-- Node15&#45;&gt;Node5 -->
<g id="edge21" class="edge">
<title>Node15&#45;&gt;Node5</title>
<path fill="none" stroke="#191970" d="M154.2333,-169.3727C190.7077,-158.7895 252.1429,-140.9637 288.3491,-130.4583"/>
<polygon fill="#191970" stroke="#191970" points="289.6568,-133.7233 298.2854,-127.5752 287.7061,-127.0006 289.6568,-133.7233"/>
</g>
<!-- Node15&#45;&gt;Node6 -->
<g id="edge20" class="edge">
<title>Node15&#45;&gt;Node6</title>
<path fill="none" stroke="#191970" d="M129.6344,-168.344C137.8177,-153.8922 155.1962,-126.7609 177.5,-112 216.0544,-86.4843 268.7386,-74.959 303.6514,-69.8638"/>
<polygon fill="#191970" stroke="#191970" points="304.4398,-73.2892 313.8806,-68.4807 303.5017,-66.3523 304.4398,-73.2892"/>
</g>
<!-- Node15&#45;&gt;Node14 -->
<g id="edge22" class="edge">
<title>Node15&#45;&gt;Node14</title>
<path fill="none" stroke="#191970" d="M140.1768,-168.2455C153.9856,-159.6534 174.3193,-147.0014 190.2292,-137.1018"/>
<polygon fill="#191970" stroke="#191970" points="192.3613,-139.8974 199.0028,-131.6427 188.6632,-133.954 192.3613,-139.8974"/>
</g>
<!-- Node16 -->
<g id="node16" class="node">
<title>Node16</title>
<g id="a_node16"><a xlink:href="setjmp_8h.html" target="_top" xlink:title=" ">
<polygon fill="#ffffff" stroke="#000000" points="143,-56.5 143,-75.5 202,-75.5 202,-56.5 143,-56.5"/>
<text text-anchor="middle" x="172.5" y="-63.5" font-family="Helvetica,sans-Serif" font-size="10.00" fill="#000000">setjmp.h</text>
</a>
</g>
</g>
<!-- Node15&#45;&gt;Node16 -->
<g id="edge23" class="edge">
<title>Node15&#45;&gt;Node16</title>
<path fill="none" stroke="#191970" d="M126.6185,-168.3281C129.6705,-155.2181 135.8977,-131.2364 144.5,-112 148.7704,-102.4504 154.6568,-92.4611 159.9308,-84.2406"/>
<polygon fill="#191970" stroke="#191970" points="162.8988,-86.0979 165.5062,-75.8289 157.064,-82.2305 162.8988,-86.0979"/>
</g>
<!-- Node16&#45;&gt;Node8 -->
<g id="edge24" class="edge">
<title>Node16&#45;&gt;Node8</title>
<path fill="none" stroke="#191970" d="M182.4286,-56.2455C190.6838,-48.1352 202.6209,-36.4075 212.4082,-26.7919"/>
<polygon fill="#191970" stroke="#191970" points="215.0046,-29.1476 219.6851,-19.6427 210.0989,-24.1542 215.0046,-29.1476"/>
</g>
<!-- Node17&#45;&gt;Node5 -->
<g id="edge27" class="edge">
<title>Node17&#45;&gt;Node5</title>
<path fill="none" stroke="#191970" d="M225.5816,-168.3733C243.2402,-159.4644 269.7053,-146.1127 289.7098,-136.0203"/>
<polygon fill="#191970" stroke="#191970" points="291.3158,-139.1303 298.6674,-131.5011 288.1628,-132.8806 291.3158,-139.1303"/>
</g>
<!-- Node17&#45;&gt;Node6 -->
<g id="edge26" class="edge">
<title>Node17&#45;&gt;Node6</title>
<path fill="none" stroke="#191970" d="M217.9248,-168.4509C240.8677,-149.2747 292.767,-105.8962 321.1193,-82.1988"/>
<polygon fill="#191970" stroke="#191970" points="323.6759,-84.6235 329.1042,-75.5249 319.1867,-79.2525 323.6759,-84.6235"/>
</g>
<!-- Node17&#45;&gt;Node14 -->
<g id="edge28" class="edge">
<title>Node17&#45;&gt;Node14</title>
<path fill="none" stroke="#191970" d="M207.8935,-168.2455C208.9374,-160.9382 210.4008,-150.6944 211.6851,-141.7046"/>
<polygon fill="#191970" stroke="#191970" points="215.173,-142.0372 213.1225,-131.6427 208.2434,-141.0472 215.173,-142.0372"/>
</g>
<!-- Node18&#45;&gt;Node5 -->
<g id="edge31" class="edge">
<title>Node18&#45;&gt;Node5</title>
<path fill="none" stroke="#191970" d="M494.8419,-169.9766C455.2301,-159.2603 385.508,-140.3983 346.3241,-129.7978"/>
<polygon fill="#191970" stroke="#191970" points="347.1614,-126.3986 336.5944,-127.1656 345.3333,-133.1557 347.1614,-126.3986"/>
</g>
<!-- Node18&#45;&gt;Node6 -->
<g id="edge30" class="edge">
<title>Node18&#45;&gt;Node6</title>
<path fill="none" stroke="#191970" d="M508.8123,-168.4509C476.7653,-148.9441 403.5746,-104.3932 365.1279,-80.9909"/>
<polygon fill="#191970" stroke="#191970" points="366.5099,-77.7347 356.148,-75.5249 362.8702,-83.7141 366.5099,-77.7347"/>
</g>
<!-- Node19&#45;&gt;Node5 -->
<g id="edge34" class="edge">
<title>Node19&#45;&gt;Node5</title>
<path fill="none" stroke="#191970" d="M571.6638,-169.8576C568.9074,-169.2083 566.1575,-168.5801 563.5,-168 485.5248,-150.9789 392.7929,-134.7005 346.6286,-126.8627"/>
<polygon fill="#191970" stroke="#191970" points="347.1607,-123.4031 336.7174,-125.1884 345.9946,-130.3053 347.1607,-123.4031"/>
</g>
<!-- Node19&#45;&gt;Node6 -->
<g id="edge33" class="edge">
<title>Node19&#45;&gt;Node6</title>
<path fill="none" stroke="#191970" d="M581.0768,-168.4509C534.3001,-148.5308 426.1963,-102.4942 372.2769,-79.5323"/>
<polygon fill="#191970" stroke="#191970" points="373.4383,-76.2229 362.8665,-75.5249 370.6956,-82.6632 373.4383,-76.2229"/>
</g>
<!-- Node20&#45;&gt;Node5 -->
<g id="edge37" class="edge">
<title>Node20&#45;&gt;Node5</title>
<path fill="none" stroke="#191970" d="M353.01,-168.2455C346.9674,-160.3761 338.3097,-149.101 331.0559,-139.6542"/>
<polygon fill="#191970" stroke="#191970" points="333.7705,-137.4426 324.9042,-131.6427 328.2185,-141.7058 333.7705,-137.4426"/>
</g>
<!-- Node20&#45;&gt;Node6 -->
<g id="edge36" class="edge">
<title>Node20&#45;&gt;Node6</title>
<path fill="none" stroke="#191970" d="M358.7948,-168.4509C355.5181,-150.1013 348.2841,-109.5908 343.9588,-85.3693"/>
<polygon fill="#191970" stroke="#191970" points="347.4044,-84.7539 342.2009,-75.5249 340.5134,-85.9845 347.4044,-84.7539"/>
</g>
<!-- Node21&#45;&gt;Node5 -->
<g id="edge40" class="edge">
<title>Node21&#45;&gt;Node5</title>
<path fill="none" stroke="#191970" d="M422.6679,-168.3733C401.445,-159.0151 369.1043,-144.7547 345.8918,-134.5192"/>
<polygon fill="#191970" stroke="#191970" points="347.1236,-131.2373 336.5615,-130.4051 344.2993,-137.6422 347.1236,-131.2373"/>
</g>
<!-- Node21&#45;&gt;Node6 -->
<g id="edge39" class="edge">
<title>Node21&#45;&gt;Node6</title>
<path fill="none" stroke="#191970" d="M435.633,-168.4509C418.0568,-149.5227 378.5845,-107.014 356.4045,-83.1279"/>
<polygon fill="#191970" stroke="#191970" points="358.7139,-80.4713 349.3445,-75.5249 353.5843,-85.2344 358.7139,-80.4713"/>
</g>
</g>
</svg>
