<?xml version="1.0" encoding="UTF-8" standalone="no"?>
<!DOCTYPE svg PUBLIC "-//W3C//DTD SVG 1.1//EN"
 "http://www.w3.org/Graphics/SVG/1.1/DTD/svg11.dtd">
<!-- Generated by graphviz version 2.40.1 (20161225.0304)
 -->
<!-- Title: common/include/hdd&#45;ioctl.h Pages: 1 -->
<svg width="2691pt" height="173pt"
 viewBox="0.00 0.00 2691.00 173.00" xmlns="http://www.w3.org/2000/svg" xmlns:xlink="http://www.w3.org/1999/xlink">
<g id="graph0" class="graph" transform="scale(1 1) rotate(0) translate(4 169)">
<title>common/include/hdd&#45;ioctl.h</title>
<polygon fill="#ffffff" stroke="transparent" points="-4,4 -4,-169 2687,-169 2687,4 -4,4"/>
<!-- Node1 -->
<g id="node1" class="node">
<title>Node1</title>
<g id="a_node1"><a xlink:title=" ">
<polygon fill="#bfbfbf" stroke="#000000" points="1737.5,-134.5 1737.5,-164.5 1856.5,-164.5 1856.5,-134.5 1737.5,-134.5"/>
<text text-anchor="start" x="1745.5" y="-152.5" font-family="Helvetica,sans-Serif" font-size="10.00" fill="#000000">common/include/hdd</text>
<text text-anchor="middle" x="1797" y="-141.5" font-family="Helvetica,sans-Serif" font-size="10.00" fill="#000000">&#45;ioctl.h</text>
</a>
</g>
</g>
<!-- Node2 -->
<g id="node2" class="node">
<title>Node2</title>
<g id="a_node2"><a xlink:href="dev9_8h.html" target="_top" xlink:title=" ">
<polygon fill="#ffffff" stroke="#000000" points="754,-67.5 754,-97.5 878,-97.5 878,-67.5 754,-67.5"/>
<text text-anchor="start" x="762" y="-85.5" font-family="Helvetica,sans-Serif" font-size="10.00" fill="#000000">iop/dev9/dev9/include</text>
<text text-anchor="middle" x="816" y="-74.5" font-family="Helvetica,sans-Serif" font-size="10.00" fill="#000000">/dev9.h</text>
</a>
</g>
</g>
<!-- Node1&#45;&gt;Node2 -->
<g id="edge1" class="edge">
<title>Node1&#45;&gt;Node2</title>
<path fill="none" stroke="#191970" d="M1727.444,-144.7495C1544.6191,-132.263 1052.6601,-98.6633 878.3103,-86.7556"/>
<polygon fill="#191970" stroke="#191970" points="1727.2622,-148.2451 1737.4775,-145.4348 1727.7393,-141.2614 1727.2622,-148.2451"/>
</g>
<!-- Node7 -->
<g id="node7" class="node">
<title>Node7</title>
<g id="a_node7"><a xlink:href="hdd_8c.html" target="_top" xlink:title=" ">
<polygon fill="#ffffff" stroke="#000000" points="1159,-6 1159,-25 1279,-25 1279,-6 1159,-6"/>
<text text-anchor="middle" x="1219" y="-13" font-family="Helvetica,sans-Serif" font-size="10.00" fill="#000000">iop/hdd/apa/src/hdd.c</text>
</a>
</g>
</g>
<!-- Node1&#45;&gt;Node7 -->
<g id="edge12" class="edge">
<title>Node1&#45;&gt;Node7</title>
<path fill="none" stroke="#191970" d="M1727.1033,-143.8744C1654.497,-136.9978 1538.0148,-123.0561 1440,-98 1364.2144,-78.6265 1278.4942,-42.2378 1239.8501,-25.0081"/>
<polygon fill="#191970" stroke="#191970" points="1727.2093,-147.3992 1737.4899,-144.8382 1727.8561,-140.4291 1727.2093,-147.3992"/>
</g>
<!-- Node8 -->
<g id="node8" class="node">
<title>Node8</title>
<g id="a_node8"><a xlink:href="hdd__fio_8c.html" target="_top" xlink:title=" ">
<polygon fill="#ffffff" stroke="#000000" points="1297,-.5 1297,-30.5 1409,-30.5 1409,-.5 1297,-.5"/>
<text text-anchor="start" x="1305" y="-18.5" font-family="Helvetica,sans-Serif" font-size="10.00" fill="#000000">iop/hdd/apa/src/hdd</text>
<text text-anchor="middle" x="1353" y="-7.5" font-family="Helvetica,sans-Serif" font-size="10.00" fill="#000000">_fio.c</text>
</a>
</g>
</g>
<!-- Node1&#45;&gt;Node8 -->
<g id="edge13" class="edge">
<title>Node1&#45;&gt;Node8</title>
<path fill="none" stroke="#191970" d="M1727.0472,-142.8911C1668.2085,-135.9269 1582.486,-122.4607 1511,-98 1460.495,-80.7185 1406.3144,-49.2679 1376.3431,-30.5898"/>
<polygon fill="#191970" stroke="#191970" points="1727.0112,-146.41 1737.3458,-144.0762 1727.8115,-139.4559 1727.0112,-146.41"/>
</g>
<!-- Node13 -->
<g id="node13" class="node">
<title>Node13</title>
<g id="a_node13"><a xlink:href="libapa_8h.html" target="_top" xlink:title=" ">
<polygon fill="#ffffff" stroke="#000000" points="1569,-67.5 1569,-97.5 1693,-97.5 1693,-67.5 1569,-67.5"/>
<text text-anchor="start" x="1577" y="-85.5" font-family="Helvetica,sans-Serif" font-size="10.00" fill="#000000">iop/hdd/libapa/include</text>
<text text-anchor="middle" x="1631" y="-74.5" font-family="Helvetica,sans-Serif" font-size="10.00" fill="#000000">/libapa.h</text>
</a>
</g>
</g>
<!-- Node1&#45;&gt;Node13 -->
<g id="edge14" class="edge">
<title>Node1&#45;&gt;Node13</title>
<path fill="none" stroke="#191970" d="M1750.1475,-130.5897C1724.2865,-120.1518 1692.6069,-107.3654 1668.4161,-97.6017"/>
<polygon fill="#191970" stroke="#191970" points="1749.1632,-133.9667 1759.7464,-134.4639 1751.7832,-127.4754 1749.1632,-133.9667"/>
</g>
<!-- Node14 -->
<g id="node14" class="node">
<title>Node14</title>
<g id="a_node14"><a xlink:href="apa_8c.html" target="_top" xlink:title=" ">
<polygon fill="#ffffff" stroke="#000000" points="1427.5,-.5 1427.5,-30.5 1530.5,-30.5 1530.5,-.5 1427.5,-.5"/>
<text text-anchor="start" x="1435.5" y="-18.5" font-family="Helvetica,sans-Serif" font-size="10.00" fill="#000000">iop/hdd/libapa/src</text>
<text text-anchor="middle" x="1479" y="-7.5" font-family="Helvetica,sans-Serif" font-size="10.00" fill="#000000">/apa.c</text>
</a>
</g>
</g>
<!-- Node1&#45;&gt;Node14 -->
<g id="edge23" class="edge">
<title>Node1&#45;&gt;Node14</title>
<path fill="none" stroke="#191970" d="M1727.2333,-139.9492C1665.3609,-130.5737 1580.3803,-115.207 1551,-98 1522.6209,-81.3793 1499.7169,-49.5464 1487.8483,-30.6519"/>
<polygon fill="#191970" stroke="#191970" points="1726.9308,-143.4428 1737.3382,-141.4586 1727.965,-136.5196 1726.9308,-143.4428"/>
</g>
<!-- Node15 -->
<g id="node15" class="node">
<title>Node15</title>
<g id="a_node15"><a xlink:href="libapa_2src_2cache_8c.html" target="_top" xlink:title=" ">
<polygon fill="#ffffff" stroke="#000000" points="1548.5,-.5 1548.5,-30.5 1651.5,-30.5 1651.5,-.5 1548.5,-.5"/>
<text text-anchor="start" x="1556.5" y="-18.5" font-family="Helvetica,sans-Serif" font-size="10.00" fill="#000000">iop/hdd/libapa/src</text>
<text text-anchor="middle" x="1600" y="-7.5" font-family="Helvetica,sans-Serif" font-size="10.00" fill="#000000">/cache.c</text>
</a>
</g>
</g>
<!-- Node1&#45;&gt;Node15 -->
<g id="edge24" class="edge">
<title>Node1&#45;&gt;Node15</title>
<path fill="none" stroke="#191970" d="M1727.1182,-143.8682C1664.9376,-137.2345 1580.7127,-123.697 1560,-98 1543.2181,-77.1798 1565.689,-48.1563 1583.1208,-30.6629"/>
<polygon fill="#191970" stroke="#191970" points="1726.9778,-147.3721 1737.2832,-144.9128 1727.6935,-140.4088 1726.9778,-147.3721"/>
</g>
<!-- Node16 -->
<g id="node16" class="node">
<title>Node16</title>
<g id="a_node16"><a xlink:href="free_8c.html" target="_top" xlink:title=" ">
<polygon fill="#ffffff" stroke="#000000" points="1669.5,-.5 1669.5,-30.5 1772.5,-30.5 1772.5,-.5 1669.5,-.5"/>
<text text-anchor="start" x="1677.5" y="-18.5" font-family="Helvetica,sans-Serif" font-size="10.00" fill="#000000">iop/hdd/libapa/src</text>
<text text-anchor="middle" x="1721" y="-7.5" font-family="Helvetica,sans-Serif" font-size="10.00" fill="#000000">/free.c</text>
</a>
</g>
</g>
<!-- Node1&#45;&gt;Node16 -->
<g id="edge25" class="edge">
<title>Node1&#45;&gt;Node16</title>
<path fill="none" stroke="#191970" d="M1783.348,-125.4294C1767.771,-97.9647 1742.7645,-53.8742 1729.6557,-30.7614"/>
<polygon fill="#191970" stroke="#191970" points="1780.4517,-127.4173 1788.4296,-134.389 1786.5405,-123.9639 1780.4517,-127.4173"/>
</g>
<!-- Node17 -->
<g id="node17" class="node">
<title>Node17</title>
<g id="a_node17"><a xlink:href="libapa_2src_2journal_8c.html" target="_top" xlink:title=" ">
<polygon fill="#ffffff" stroke="#000000" points="1790.5,-.5 1790.5,-30.5 1893.5,-30.5 1893.5,-.5 1790.5,-.5"/>
<text text-anchor="start" x="1798.5" y="-18.5" font-family="Helvetica,sans-Serif" font-size="10.00" fill="#000000">iop/hdd/libapa/src</text>
<text text-anchor="middle" x="1842" y="-7.5" font-family="Helvetica,sans-Serif" font-size="10.00" fill="#000000">/journal.c</text>
</a>
</g>
</g>
<!-- Node1&#45;&gt;Node17 -->
<g id="edge26" class="edge">
<title>Node1&#45;&gt;Node17</title>
<path fill="none" stroke="#191970" d="M1785.4609,-124.512C1779.385,-107.6257 1774.7367,-85.1813 1783,-67 1789.8633,-51.8989 1803.5846,-39.4948 1816.0687,-30.6467"/>
<polygon fill="#191970" stroke="#191970" points="1782.3751,-126.2239 1789.3258,-134.2201 1788.8787,-123.6347 1782.3751,-126.2239"/>
</g>
<!-- Node18 -->
<g id="node18" class="node">
<title>Node18</title>
<g id="a_node18"><a xlink:href="libapa_2src_2misc_8c.html" target="_top" xlink:title=" ">
<polygon fill="#ffffff" stroke="#000000" points="1911.5,-.5 1911.5,-30.5 2014.5,-30.5 2014.5,-.5 1911.5,-.5"/>
<text text-anchor="start" x="1919.5" y="-18.5" font-family="Helvetica,sans-Serif" font-size="10.00" fill="#000000">iop/hdd/libapa/src</text>
<text text-anchor="middle" x="1963" y="-7.5" font-family="Helvetica,sans-Serif" font-size="10.00" fill="#000000">/misc.c</text>
</a>
</g>
</g>
<!-- Node1&#45;&gt;Node18 -->
<g id="edge27" class="edge">
<title>Node1&#45;&gt;Node18</title>
<path fill="none" stroke="#191970" d="M1798.4088,-124.2907C1800.6929,-106.2408 1806.4873,-82.4854 1821,-67 1833.7321,-53.4146 1876.0298,-39.0551 1911.1764,-28.9601"/>
<polygon fill="#191970" stroke="#191970" points="1794.9092,-124.1147 1797.4118,-134.4097 1801.8755,-124.8011 1794.9092,-124.1147"/>
</g>
<!-- Node19 -->
<g id="node19" class="node">
<title>Node19</title>
<g id="a_node19"><a xlink:href="password_8c.html" target="_top" xlink:title=" ">
<polygon fill="#ffffff" stroke="#000000" points="2032.5,-.5 2032.5,-30.5 2135.5,-30.5 2135.5,-.5 2032.5,-.5"/>
<text text-anchor="start" x="2040.5" y="-18.5" font-family="Helvetica,sans-Serif" font-size="10.00" fill="#000000">iop/hdd/libapa/src</text>
<text text-anchor="middle" x="2084" y="-7.5" font-family="Helvetica,sans-Serif" font-size="10.00" fill="#000000">/password.c</text>
</a>
</g>
</g>
<!-- Node1&#45;&gt;Node19 -->
<g id="edge28" class="edge">
<title>Node1&#45;&gt;Node19</title>
<path fill="none" stroke="#191970" d="M1807.5542,-125.2039C1816.9982,-106.39 1832.6524,-81.2144 1854,-67 1918.2843,-24.1961 1948.8158,-48.6629 2024,-31 2026.7231,-30.3603 2029.512,-29.6906 2032.3252,-29.0037"/>
<polygon fill="#191970" stroke="#191970" points="1804.3281,-123.8377 1803.1844,-134.3707 1810.6469,-126.8499 1804.3281,-123.8377"/>
</g>
<!-- Node20 -->
<g id="node20" class="node">
<title>Node20</title>
<g id="a_node20"><a xlink:href="libpfs_2src_2cache_8c.html" target="_top" xlink:title=" ">
<polygon fill="#ffffff" stroke="#000000" points="1863,-67.5 1863,-97.5 1963,-97.5 1963,-67.5 1863,-67.5"/>
<text text-anchor="start" x="1871" y="-85.5" font-family="Helvetica,sans-Serif" font-size="10.00" fill="#000000">iop/hdd/libpfs/src</text>
<text text-anchor="middle" x="1913" y="-74.5" font-family="Helvetica,sans-Serif" font-size="10.00" fill="#000000">/cache.c</text>
</a>
</g>
</g>
<!-- Node1&#45;&gt;Node20 -->
<g id="edge29" class="edge">
<title>Node1&#45;&gt;Node20</title>
<path fill="none" stroke="#191970" d="M1831.876,-129.3561C1849.4605,-119.1995 1870.4362,-107.0843 1886.6529,-97.7177"/>
<polygon fill="#191970" stroke="#191970" points="1829.9415,-126.4315 1823.0327,-134.4639 1833.4426,-132.4931 1829.9415,-126.4315"/>
</g>
<!-- Node21 -->
<g id="node21" class="node">
<title>Node21</title>
<g id="a_node21"><a xlink:href="libpfs_2src_2journal_8c.html" target="_top" xlink:title=" ">
<polygon fill="#ffffff" stroke="#000000" points="1981,-67.5 1981,-97.5 2081,-97.5 2081,-67.5 1981,-67.5"/>
<text text-anchor="start" x="1989" y="-85.5" font-family="Helvetica,sans-Serif" font-size="10.00" fill="#000000">iop/hdd/libpfs/src</text>
<text text-anchor="middle" x="2031" y="-74.5" font-family="Helvetica,sans-Serif" font-size="10.00" fill="#000000">/journal.c</text>
</a>
</g>
</g>
<!-- Node1&#45;&gt;Node21 -->
<g id="edge30" class="edge">
<title>Node1&#45;&gt;Node21</title>
<path fill="none" stroke="#191970" d="M1859.4318,-131.6242C1897.3664,-120.7626 1945.1634,-107.0772 1980.6675,-96.9114"/>
<polygon fill="#191970" stroke="#191970" points="1858.1644,-128.3464 1849.5142,-134.4639 1860.0913,-135.076 1858.1644,-128.3464"/>
</g>
<!-- Node22 -->
<g id="node22" class="node">
<title>Node22</title>
<g id="a_node22"><a xlink:href="libpfs_2src_2misc_8c.html" target="_top" xlink:title=" ">
<polygon fill="#ffffff" stroke="#000000" points="2099,-67.5 2099,-97.5 2199,-97.5 2199,-67.5 2099,-67.5"/>
<text text-anchor="start" x="2107" y="-85.5" font-family="Helvetica,sans-Serif" font-size="10.00" fill="#000000">iop/hdd/libpfs/src</text>
<text text-anchor="middle" x="2149" y="-74.5" font-family="Helvetica,sans-Serif" font-size="10.00" fill="#000000">/misc.c</text>
</a>
</g>
</g>
<!-- Node1&#45;&gt;Node22 -->
<g id="edge31" class="edge">
<title>Node1&#45;&gt;Node22</title>
<path fill="none" stroke="#191970" d="M1866.814,-138.8995C1926.3775,-129.4571 2014.1656,-114.596 2090,-98 2092.8968,-97.366 2095.8658,-96.6853 2098.8564,-95.9757"/>
<polygon fill="#191970" stroke="#191970" points="1866.1007,-135.4687 1856.7677,-140.4832 1867.1907,-142.3833 1866.1007,-135.4687"/>
</g>
<!-- Node23 -->
<g id="node23" class="node">
<title>Node23</title>
<g id="a_node23"><a xlink:href="super_8c.html" target="_top" xlink:title=" ">
<polygon fill="#ffffff" stroke="#000000" points="2217,-67.5 2217,-97.5 2317,-97.5 2317,-67.5 2217,-67.5"/>
<text text-anchor="start" x="2225" y="-85.5" font-family="Helvetica,sans-Serif" font-size="10.00" fill="#000000">iop/hdd/libpfs/src</text>
<text text-anchor="middle" x="2267" y="-74.5" font-family="Helvetica,sans-Serif" font-size="10.00" fill="#000000">/super.c</text>
</a>
</g>
</g>
<!-- Node1&#45;&gt;Node23 -->
<g id="edge32" class="edge">
<title>Node1&#45;&gt;Node23</title>
<path fill="none" stroke="#191970" d="M1866.5645,-143.6127C1948.6571,-136.0137 2089.0455,-120.9736 2208,-98 2210.9116,-97.4377 2213.8921,-96.813 2216.8915,-96.1462"/>
<polygon fill="#191970" stroke="#191970" points="1866.2417,-140.1275 1856.6025,-144.5247 1866.88,-147.0984 1866.2417,-140.1275"/>
</g>
<!-- Node24 -->
<g id="node24" class="node">
<title>Node24</title>
<g id="a_node24"><a xlink:href="superWrite_8c.html" target="_top" xlink:title=" ">
<polygon fill="#ffffff" stroke="#000000" points="2335,-67.5 2335,-97.5 2435,-97.5 2435,-67.5 2335,-67.5"/>
<text text-anchor="start" x="2343" y="-85.5" font-family="Helvetica,sans-Serif" font-size="10.00" fill="#000000">iop/hdd/libpfs/src</text>
<text text-anchor="middle" x="2385" y="-74.5" font-family="Helvetica,sans-Serif" font-size="10.00" fill="#000000">/superWrite.c</text>
</a>
</g>
</g>
<!-- Node1&#45;&gt;Node24 -->
<g id="edge33" class="edge">
<title>Node1&#45;&gt;Node24</title>
<path fill="none" stroke="#191970" d="M1866.6646,-146.2715C1968.2974,-140.76 2162.8795,-127.1738 2326,-98 2328.9191,-97.4779 2331.9054,-96.8846 2334.9093,-96.242"/>
<polygon fill="#191970" stroke="#191970" points="1866.327,-142.7844 1856.5272,-146.8111 1866.6992,-149.7745 1866.327,-142.7844"/>
</g>
<!-- Node25 -->
<g id="node25" class="node">
<title>Node25</title>
<g id="a_node25"><a xlink:href="pfs__fio_8c.html" target="_top" xlink:title=" ">
<polygon fill="#ffffff" stroke="#000000" points="2453,-67.5 2453,-97.5 2559,-97.5 2559,-67.5 2453,-67.5"/>
<text text-anchor="start" x="2461" y="-85.5" font-family="Helvetica,sans-Serif" font-size="10.00" fill="#000000">iop/hdd/pfs/src/pfs</text>
<text text-anchor="middle" x="2506" y="-74.5" font-family="Helvetica,sans-Serif" font-size="10.00" fill="#000000">_fio.c</text>
</a>
</g>
</g>
<!-- Node1&#45;&gt;Node25 -->
<g id="edge34" class="edge">
<title>Node1&#45;&gt;Node25</title>
<path fill="none" stroke="#191970" d="M1866.7934,-147.7273C1985.8964,-143.8602 2235.7273,-132.0822 2444,-98 2446.8469,-97.5341 2449.755,-97.003 2452.6826,-96.4247"/>
<polygon fill="#191970" stroke="#191970" points="1866.6012,-144.2315 1856.7168,-148.0456 1866.8223,-151.228 1866.6012,-144.2315"/>
</g>
<!-- Node26 -->
<g id="node26" class="node">
<title>Node26</title>
<g id="a_node26"><a xlink:href="pfs__fioctl_8c.html" target="_top" xlink:title=" ">
<polygon fill="#ffffff" stroke="#000000" points="2577,-67.5 2577,-97.5 2683,-97.5 2683,-67.5 2577,-67.5"/>
<text text-anchor="start" x="2585" y="-85.5" font-family="Helvetica,sans-Serif" font-size="10.00" fill="#000000">iop/hdd/pfs/src/pfs</text>
<text text-anchor="middle" x="2630" y="-74.5" font-family="Helvetica,sans-Serif" font-size="10.00" fill="#000000">_fioctl.c</text>
</a>
</g>
</g>
<!-- Node1&#45;&gt;Node26 -->
<g id="edge35" class="edge">
<title>Node1&#45;&gt;Node26</title>
<path fill="none" stroke="#191970" d="M1867.1247,-146.42C2030.7505,-138.9735 2434.0249,-119.0491 2568,-98 2570.8498,-97.5523 2573.7602,-97.0356 2576.6896,-96.4686"/>
<polygon fill="#191970" stroke="#191970" points="1866.5303,-142.9432 1856.699,-146.8923 1866.8471,-149.9361 1866.5303,-142.9432"/>
</g>
<!-- Node3 -->
<g id="node3" class="node">
<title>Node3</title>
<g id="a_node3"><a xlink:href="dev9_2atad_2src_2irx__imports_8h.html" target="_top" xlink:title=" ">
<polygon fill="#ffffff" stroke="#000000" points="280,-.5 280,-30.5 396,-30.5 396,-.5 280,-.5"/>
<text text-anchor="start" x="288" y="-18.5" font-family="Helvetica,sans-Serif" font-size="10.00" fill="#000000">iop/dev9/atad/src/irx</text>
<text text-anchor="middle" x="338" y="-7.5" font-family="Helvetica,sans-Serif" font-size="10.00" fill="#000000">_imports.h</text>
</a>
</g>
</g>
<!-- Node2&#45;&gt;Node3 -->
<g id="edge2" class="edge">
<title>Node2&#45;&gt;Node3</title>
<path fill="none" stroke="#191970" d="M743.7246,-75.7125C661.3715,-67.4535 522.9218,-51.9711 405,-31 402.0613,-30.4774 399.0576,-29.909 396.0297,-29.3088"/>
<polygon fill="#191970" stroke="#191970" points="743.4334,-79.2007 753.7308,-76.7081 744.1265,-72.2351 743.4334,-79.2007"/>
</g>
<!-- Node4 -->
<g id="node4" class="node">
<title>Node4</title>
<g id="a_node4"><a xlink:href="ps2atad_8c.html" target="_top" xlink:title=" ">
<polygon fill="#ffffff" stroke="#000000" points="414.5,-6 414.5,-25 565.5,-25 565.5,-6 414.5,-6"/>
<text text-anchor="middle" x="490" y="-13" font-family="Helvetica,sans-Serif" font-size="10.00" fill="#000000">iop/dev9/atad/src/ps2atad.c</text>
</a>
</g>
</g>
<!-- Node2&#45;&gt;Node4 -->
<g id="edge3" class="edge">
<title>Node2&#45;&gt;Node4</title>
<path fill="none" stroke="#191970" d="M743.9966,-67.7018C680.6986,-54.6927 590.4609,-36.1469 536.3191,-25.0196"/>
<polygon fill="#191970" stroke="#191970" points="743.4147,-71.1552 753.9146,-69.7401 744.8239,-64.2985 743.4147,-71.1552"/>
</g>
<!-- Node5 -->
<g id="node5" class="node">
<title>Node5</title>
<g id="a_node5"><a xlink:href="ps2dev9_8c.html" target="_top" xlink:title=" ">
<polygon fill="#ffffff" stroke="#000000" points="583.5,-6 583.5,-25 738.5,-25 738.5,-6 583.5,-6"/>
<text text-anchor="middle" x="661" y="-13" font-family="Helvetica,sans-Serif" font-size="10.00" fill="#000000">iop/dev9/dev9/src/ps2dev9.c</text>
</a>
</g>
</g>
<!-- Node2&#45;&gt;Node5 -->
<g id="edge4" class="edge">
<title>Node2&#45;&gt;Node5</title>
<path fill="none" stroke="#191970" d="M771.7239,-63.3613C742.7856,-50.8525 706.2239,-35.0484 683.218,-25.1039"/>
<polygon fill="#191970" stroke="#191970" points="770.6471,-66.7088 781.215,-67.4639 773.4246,-60.2834 770.6471,-66.7088"/>
</g>
<!-- Node6 -->
<g id="node6" class="node">
<title>Node6</title>
<g id="a_node6"><a xlink:href="dev9_2extflash_2src_2irx__imports_8h.html" target="_top" xlink:title=" ">
<polygon fill="#ffffff" stroke="#000000" points="757,-.5 757,-30.5 875,-30.5 875,-.5 757,-.5"/>
<text text-anchor="start" x="765" y="-18.5" font-family="Helvetica,sans-Serif" font-size="10.00" fill="#000000">iop/dev9/extflash/src</text>
<text text-anchor="middle" x="816" y="-7.5" font-family="Helvetica,sans-Serif" font-size="10.00" fill="#000000">/irx_imports.h</text>
</a>
</g>
</g>
<!-- Node2&#45;&gt;Node6 -->
<g id="edge5" class="edge">
<title>Node2&#45;&gt;Node6</title>
<path fill="none" stroke="#191970" d="M816,-57.0249C816,-48.128 816,-38.4287 816,-30.6432"/>
<polygon fill="#191970" stroke="#191970" points="812.5001,-57.2966 816,-67.2967 819.5001,-57.2967 812.5001,-57.2966"/>
</g>
<!-- Node2&#45;&gt;Node7 -->
<g id="edge6" class="edge">
<title>Node2&#45;&gt;Node7</title>
<path fill="none" stroke="#191970" d="M888.2301,-72.8083C956.0423,-63.3676 1060.2095,-47.9873 1150,-31 1159.289,-29.2426 1169.2325,-27.1401 1178.5964,-25.0591"/>
<polygon fill="#191970" stroke="#191970" points="887.5059,-69.3751 878.081,-74.2146 888.4668,-76.3088 887.5059,-69.3751"/>
</g>
<!-- Node2&#45;&gt;Node8 -->
<g id="edge7" class="edge">
<title>Node2&#45;&gt;Node8</title>
<path fill="none" stroke="#191970" d="M888.3392,-77.4411C981.3039,-70.2921 1147.4725,-55.3229 1288,-31 1290.8578,-30.5054 1293.7773,-29.9595 1296.7192,-29.3772"/>
<polygon fill="#191970" stroke="#191970" points="887.9038,-73.964 878.198,-78.2122 888.4346,-80.9439 887.9038,-73.964"/>
</g>
<!-- Node9 -->
<g id="node9" class="node">
<title>Node9</title>
<g id="a_node9"><a xlink:href="hdd_2apa_2src_2irx__imports_8h.html" target="_top" xlink:title=" ">
<polygon fill="#ffffff" stroke="#000000" points="893.5,-.5 893.5,-30.5 1000.5,-30.5 1000.5,-.5 893.5,-.5"/>
<text text-anchor="start" x="901.5" y="-18.5" font-family="Helvetica,sans-Serif" font-size="10.00" fill="#000000">iop/hdd/apa/src/irx</text>
<text text-anchor="middle" x="947" y="-7.5" font-family="Helvetica,sans-Serif" font-size="10.00" fill="#000000">_imports.h</text>
</a>
</g>
</g>
<!-- Node2&#45;&gt;Node9 -->
<g id="edge8" class="edge">
<title>Node2&#45;&gt;Node9</title>
<path fill="none" stroke="#191970" d="M854.5682,-62.7743C874.5913,-52.5335 898.6802,-40.2132 917.2459,-30.7177"/>
<polygon fill="#191970" stroke="#191970" points="852.7083,-59.7942 845.399,-67.4639 855.8958,-66.0264 852.7083,-59.7942"/>
</g>
<!-- Node10 -->
<g id="node10" class="node">
<title>Node10</title>
<g id="a_node10"><a xlink:href="network_2smap_2src_2include_2irx__imports_8h.html" target="_top" xlink:title=" ">
<polygon fill="#ffffff" stroke="#000000" points="1019,-.5 1019,-30.5 1141,-30.5 1141,-.5 1019,-.5"/>
<text text-anchor="start" x="1027" y="-18.5" font-family="Helvetica,sans-Serif" font-size="10.00" fill="#000000">iop/network/smap/src</text>
<text text-anchor="middle" x="1080" y="-7.5" font-family="Helvetica,sans-Serif" font-size="10.00" fill="#000000">/include/irx_imports.h</text>
</a>
</g>
</g>
<!-- Node2&#45;&gt;Node10 -->
<g id="edge9" class="edge">
<title>Node2&#45;&gt;Node10</title>
<path fill="none" stroke="#191970" d="M885.1326,-64.955C927.1787,-54.2842 980.328,-40.7955 1020.4948,-30.6017"/>
<polygon fill="#191970" stroke="#191970" points="884.0785,-61.6115 875.2468,-67.4639 885.8005,-68.3964 884.0785,-61.6115"/>
</g>
<!-- Node11 -->
<g id="node11" class="node">
<title>Node11</title>
<g id="a_node11"><a xlink:href="smap_8c.html" target="_top" xlink:title=" ">
<polygon fill="#ffffff" stroke="#000000" points="0,-.5 0,-30.5 122,-30.5 122,-.5 0,-.5"/>
<text text-anchor="start" x="8" y="-18.5" font-family="Helvetica,sans-Serif" font-size="10.00" fill="#000000">iop/network/smap/src</text>
<text text-anchor="middle" x="61" y="-7.5" font-family="Helvetica,sans-Serif" font-size="10.00" fill="#000000">/smap.c</text>
</a>
</g>
</g>
<!-- Node2&#45;&gt;Node11 -->
<g id="edge10" class="edge">
<title>Node2&#45;&gt;Node11</title>
<path fill="none" stroke="#191970" d="M743.5635,-80.4537C618.1632,-76.1543 352.7661,-63.7179 131,-31 128.1678,-30.5822 125.2795,-30.1143 122.368,-29.6087"/>
<polygon fill="#191970" stroke="#191970" points="743.6916,-83.9599 753.8034,-80.7973 743.9264,-76.9638 743.6916,-83.9599"/>
</g>
<!-- Node12 -->
<g id="node12" class="node">
<title>Node12</title>
<g id="a_node12"><a xlink:href="xfer_8c.html" target="_top" xlink:title=" ">
<polygon fill="#ffffff" stroke="#000000" points="140,-.5 140,-30.5 262,-30.5 262,-.5 140,-.5"/>
<text text-anchor="start" x="148" y="-18.5" font-family="Helvetica,sans-Serif" font-size="10.00" fill="#000000">iop/network/smap/src</text>
<text text-anchor="middle" x="201" y="-7.5" font-family="Helvetica,sans-Serif" font-size="10.00" fill="#000000">/xfer.c</text>
</a>
</g>
</g>
<!-- Node2&#45;&gt;Node12 -->
<g id="edge11" class="edge">
<title>Node2&#45;&gt;Node12</title>
<path fill="none" stroke="#191970" d="M743.8453,-78.5319C639.1731,-72.1311 439.3162,-57.4835 271,-31 268.172,-30.555 265.287,-30.0649 262.3783,-29.5413"/>
<polygon fill="#191970" stroke="#191970" points="743.7878,-82.0347 753.9807,-79.1441 744.2099,-75.0475 743.7878,-82.0347"/>
</g>
<!-- Node13&#45;&gt;Node7 -->
<g id="edge15" class="edge">
<title>Node13&#45;&gt;Node7</title>
<path fill="none" stroke="#191970" d="M1558.8306,-73.2008C1489.2449,-63.8724 1381.0833,-48.4197 1288,-31 1278.5868,-29.2384 1268.5042,-27.1114 1259.034,-25.0051"/>
<polygon fill="#191970" stroke="#191970" points="1558.436,-76.6791 1568.811,-74.5322 1559.3616,-69.7405 1558.436,-76.6791"/>
</g>
<!-- Node13&#45;&gt;Node8 -->
<g id="edge16" class="edge">
<title>Node13&#45;&gt;Node8</title>
<path fill="none" stroke="#191970" d="M1559.2011,-65.1959C1512.4808,-53.936 1452.4218,-39.4614 1409.1862,-29.0413"/>
<polygon fill="#191970" stroke="#191970" points="1558.4157,-68.6068 1568.9574,-67.5473 1560.0558,-61.8016 1558.4157,-68.6068"/>
</g>
<!-- Node13&#45;&gt;Node14 -->
<g id="edge17" class="edge">
<title>Node13&#45;&gt;Node14</title>
<path fill="none" stroke="#191970" d="M1587.4718,-63.3132C1563.9083,-52.9267 1535.216,-40.2794 1513.2605,-30.6017"/>
<polygon fill="#191970" stroke="#191970" points="1586.326,-66.6331 1596.8882,-67.4639 1589.1495,-60.2277 1586.326,-66.6331"/>
</g>
<!-- Node13&#45;&gt;Node15 -->
<g id="edge18" class="edge">
<title>Node13&#45;&gt;Node15</title>
<path fill="none" stroke="#191970" d="M1619.7536,-58.1932C1615.4928,-48.9844 1610.7672,-38.771 1607.0065,-30.6432"/>
<polygon fill="#191970" stroke="#191970" points="1616.5899,-59.6908 1623.9656,-67.2967 1622.9429,-56.7513 1616.5899,-59.6908"/>
</g>
<!-- Node13&#45;&gt;Node16 -->
<g id="edge19" class="edge">
<title>Node13&#45;&gt;Node16</title>
<path fill="none" stroke="#191970" d="M1659.7942,-61.0643C1673.1016,-51.1577 1688.5913,-39.6265 1700.6584,-30.6432"/>
<polygon fill="#191970" stroke="#191970" points="1657.3537,-58.5177 1651.4224,-67.2967 1661.5338,-64.1327 1657.3537,-58.5177"/>
</g>
<!-- Node13&#45;&gt;Node17 -->
<g id="edge20" class="edge">
<title>Node13&#45;&gt;Node17</title>
<path fill="none" stroke="#191970" d="M1687.9627,-64.4123C1721.2897,-53.8298 1762.8797,-40.6235 1794.441,-30.6017"/>
<polygon fill="#191970" stroke="#191970" points="1686.8243,-61.1015 1678.3525,-67.4639 1688.9428,-67.7732 1686.8243,-61.1015"/>
</g>
<!-- Node13&#45;&gt;Node18 -->
<g id="edge21" class="edge">
<title>Node13&#45;&gt;Node18</title>
<path fill="none" stroke="#191970" d="M1703.0792,-70.1836C1758.0553,-60.4681 1835.5533,-46.0799 1903,-31 1905.7298,-30.3897 1908.5241,-29.7434 1911.3415,-29.0748"/>
<polygon fill="#191970" stroke="#191970" points="1702.3257,-66.7624 1693.0836,-71.9425 1703.5389,-73.6565 1702.3257,-66.7624"/>
</g>
<!-- Node13&#45;&gt;Node19 -->
<g id="edge22" class="edge">
<title>Node13&#45;&gt;Node19</title>
<path fill="none" stroke="#191970" d="M1703.6727,-75.6707C1782.8758,-67.6023 1913.1232,-52.5025 2024,-31 2026.7461,-30.4674 2029.5533,-29.8832 2032.3808,-29.2632"/>
<polygon fill="#191970" stroke="#191970" points="1702.9179,-72.229 1693.3196,-76.7149 1703.6204,-79.1936 1702.9179,-72.229"/>
</g>
</g>
</svg>
