<?xml version="1.0" encoding="UTF-8" standalone="no"?>
<!DOCTYPE svg PUBLIC "-//W3C//DTD SVG 1.1//EN"
 "http://www.w3.org/Graphics/SVG/1.1/DTD/svg11.dtd">
<!-- Generated by graphviz version 2.40.1 (20161225.0304)
 -->
<!-- Title: iop/hdd/pfs/src/irx_imports.h Pages: 1 -->
<svg width="789pt" height="263pt"
 viewBox="0.00 0.00 788.50 263.00" xmlns="http://www.w3.org/2000/svg" xmlns:xlink="http://www.w3.org/1999/xlink">
<g id="graph0" class="graph" transform="scale(1 1) rotate(0) translate(4 259)">
<title>iop/hdd/pfs/src/irx_imports.h</title>
<polygon fill="#ffffff" stroke="transparent" points="-4,4 -4,-259 784.5,-259 784.5,4 -4,4"/>
<!-- Node1 -->
<g id="node1" class="node">
<title>Node1</title>
<g id="a_node1"><a xlink:title=" ">
<polygon fill="#bfbfbf" stroke="#000000" points="335.5,-224.5 335.5,-254.5 439.5,-254.5 439.5,-224.5 335.5,-224.5"/>
<text text-anchor="start" x="343.5" y="-242.5" font-family="Helvetica,sans-Serif" font-size="10.00" fill="#000000">iop/hdd/pfs/src/irx</text>
<text text-anchor="middle" x="387.5" y="-231.5" font-family="Helvetica,sans-Serif" font-size="10.00" fill="#000000">_imports.h</text>
</a>
</g>
</g>
<!-- Node2 -->
<g id="node2" class="node">
<title>Node2</title>
<g id="a_node2"><a xlink:href="irx_8h.html" target="_top" xlink:title=" ">
<polygon fill="#ffffff" stroke="#000000" points="378.5,-112.5 378.5,-131.5 416.5,-131.5 416.5,-112.5 378.5,-112.5"/>
<text text-anchor="middle" x="397.5" y="-119.5" font-family="Helvetica,sans-Serif" font-size="10.00" fill="#000000">irx.h</text>
</a>
</g>
</g>
<!-- Node1&#45;&gt;Node2 -->
<g id="edge1" class="edge">
<title>Node1&#45;&gt;Node2</title>
<path fill="none" stroke="#191970" d="M400.8403,-224.49C408.5198,-214.8135 417.4323,-201.5445 421.5,-188 426.4103,-171.6502 418.77,-153.4418 410.839,-140.2987"/>
<polygon fill="#191970" stroke="#191970" points="413.6128,-138.1471 405.1879,-131.7228 407.7677,-141.9988 413.6128,-138.1471"/>
</g>
<!-- Node6 -->
<g id="node6" class="node">
<title>Node6</title>
<g id="a_node6"><a xlink:href="cdvdman_8h.html" target="_top" xlink:title=" ">
<polygon fill="#ffffff" stroke="#000000" points="24,-168.5 24,-187.5 95,-187.5 95,-168.5 24,-168.5"/>
<text text-anchor="middle" x="59.5" y="-175.5" font-family="Helvetica,sans-Serif" font-size="10.00" fill="#000000">cdvdman.h</text>
</a>
</g>
</g>
<!-- Node1&#45;&gt;Node6 -->
<g id="edge5" class="edge">
<title>Node1&#45;&gt;Node6</title>
<path fill="none" stroke="#191970" d="M335.2844,-230.7418C280.3304,-221.365 191.0719,-205.685 104.9533,-188.2372"/>
<polygon fill="#191970" stroke="#191970" points="105.5099,-184.7788 95.0125,-186.2123 104.1126,-191.6379 105.5099,-184.7788"/>
</g>
<!-- Node8 -->
<g id="node8" class="node">
<title>Node8</title>
<g id="a_node8"><a xlink:href="intrman_8h.html" target="_top" xlink:title=" ">
<polygon fill="#ffffff" stroke="#000000" points="546.5,-168.5 546.5,-187.5 610.5,-187.5 610.5,-168.5 546.5,-168.5"/>
<text text-anchor="middle" x="578.5" y="-175.5" font-family="Helvetica,sans-Serif" font-size="10.00" fill="#000000">intrman.h</text>
</a>
</g>
</g>
<!-- Node1&#45;&gt;Node8 -->
<g id="edge10" class="edge">
<title>Node1&#45;&gt;Node8</title>
<path fill="none" stroke="#191970" d="M434.2239,-224.4554C466.3723,-214.104 508.6011,-200.5067 539.0564,-190.7004"/>
<polygon fill="#191970" stroke="#191970" points="540.4558,-193.9269 548.9018,-187.5303 538.3103,-187.2638 540.4558,-193.9269"/>
</g>
<!-- Node9 -->
<g id="node9" class="node">
<title>Node9</title>
<g id="a_node9"><a xlink:href="iomanX_8h.html" target="_top" xlink:title=" ">
<polygon fill="#ffffff" stroke="#000000" points="629,-168.5 629,-187.5 692,-187.5 692,-168.5 629,-168.5"/>
<text text-anchor="middle" x="660.5" y="-175.5" font-family="Helvetica,sans-Serif" font-size="10.00" fill="#000000">iomanX.h</text>
</a>
</g>
</g>
<!-- Node1&#45;&gt;Node9 -->
<g id="edge13" class="edge">
<title>Node1&#45;&gt;Node9</title>
<path fill="none" stroke="#191970" d="M439.6301,-228.2524C484.49,-218.4998 551.2047,-203.822 618.7606,-188.1383"/>
<polygon fill="#191970" stroke="#191970" points="619.7853,-191.4934 628.7315,-185.8175 618.1983,-184.6757 619.7853,-191.4934"/>
</g>
<!-- Node15 -->
<g id="node15" class="node">
<title>Node15</title>
<g id="a_node15"><a xlink:href="stdio_8h.html" target="_top" xlink:title=" ">
<polygon fill="#ffffff" stroke="#000000" points="362.5,-168.5 362.5,-187.5 412.5,-187.5 412.5,-168.5 362.5,-168.5"/>
<text text-anchor="middle" x="387.5" y="-175.5" font-family="Helvetica,sans-Serif" font-size="10.00" fill="#000000">stdio.h</text>
</a>
</g>
</g>
<!-- Node1&#45;&gt;Node15 -->
<g id="edge21" class="edge">
<title>Node1&#45;&gt;Node15</title>
<path fill="none" stroke="#191970" d="M387.5,-224.2977C387.5,-216.3834 387.5,-206.6043 387.5,-198.0759"/>
<polygon fill="#191970" stroke="#191970" points="391.0001,-197.8469 387.5,-187.8469 384.0001,-197.847 391.0001,-197.8469"/>
</g>
<!-- Node17 -->
<g id="node17" class="node">
<title>Node17</title>
<g id="a_node17"><a xlink:href="sysclib_8h.html" target="_top" xlink:title=" ">
<polygon fill="#ffffff" stroke="#000000" points="113,-168.5 113,-187.5 172,-187.5 172,-168.5 113,-168.5"/>
<text text-anchor="middle" x="142.5" y="-175.5" font-family="Helvetica,sans-Serif" font-size="10.00" fill="#000000">sysclib.h</text>
</a>
</g>
</g>
<!-- Node1&#45;&gt;Node17 -->
<g id="edge24" class="edge">
<title>Node1&#45;&gt;Node17</title>
<path fill="none" stroke="#191970" d="M335.4104,-226.5696C295.947,-216.7525 240.1208,-202.8202 182.0267,-188.1233"/>
<polygon fill="#191970" stroke="#191970" points="182.8589,-184.7236 172.3058,-185.6622 181.1409,-191.5095 182.8589,-184.7236"/>
</g>
<!-- Node19 -->
<g id="node19" class="node">
<title>Node19</title>
<g id="a_node19"><a xlink:href="sysmem_8h.html" target="_top" xlink:title=" ">
<polygon fill="#ffffff" stroke="#000000" points="276.5,-168.5 276.5,-187.5 344.5,-187.5 344.5,-168.5 276.5,-168.5"/>
<text text-anchor="middle" x="310.5" y="-175.5" font-family="Helvetica,sans-Serif" font-size="10.00" fill="#000000">sysmem.h</text>
</a>
</g>
</g>
<!-- Node1&#45;&gt;Node19 -->
<g id="edge30" class="edge">
<title>Node1&#45;&gt;Node19</title>
<path fill="none" stroke="#191970" d="M368.4663,-224.2977C356.9985,-215.1384 342.4038,-203.4816 330.7281,-194.1562"/>
<polygon fill="#191970" stroke="#191970" points="332.8266,-191.3529 322.8287,-187.8469 328.4581,-196.8225 332.8266,-191.3529"/>
</g>
<!-- Node20 -->
<g id="node20" class="node">
<title>Node20</title>
<g id="a_node20"><a xlink:href="thbase_8h.html" target="_top" xlink:title=" ">
<polygon fill="#ffffff" stroke="#000000" points="469,-168.5 469,-187.5 528,-187.5 528,-168.5 469,-168.5"/>
<text text-anchor="middle" x="498.5" y="-175.5" font-family="Helvetica,sans-Serif" font-size="10.00" fill="#000000">thbase.h</text>
</a>
</g>
</g>
<!-- Node1&#45;&gt;Node20 -->
<g id="edge34" class="edge">
<title>Node1&#45;&gt;Node20</title>
<path fill="none" stroke="#191970" d="M414.6537,-224.4554C432.1995,-214.734 454.9122,-202.15 472.2721,-192.5317"/>
<polygon fill="#191970" stroke="#191970" points="474.248,-195.4383 481.2989,-187.5303 470.8555,-189.3153 474.248,-195.4383"/>
</g>
<!-- Node21 -->
<g id="node21" class="node">
<title>Node21</title>
<g id="a_node21"><a xlink:href="thsemap_8h.html" target="_top" xlink:title=" ">
<polygon fill="#ffffff" stroke="#000000" points="190.5,-168.5 190.5,-187.5 258.5,-187.5 258.5,-168.5 190.5,-168.5"/>
<text text-anchor="middle" x="224.5" y="-175.5" font-family="Helvetica,sans-Serif" font-size="10.00" fill="#000000">thsemap.h</text>
</a>
</g>
</g>
<!-- Node1&#45;&gt;Node21 -->
<g id="edge37" class="edge">
<title>Node1&#45;&gt;Node21</title>
<path fill="none" stroke="#191970" d="M347.6257,-224.4554C320.548,-214.239 285.0906,-200.8609 259.1834,-191.0861"/>
<polygon fill="#191970" stroke="#191970" points="260.351,-187.7858 249.7592,-187.5303 257.8799,-194.3352 260.351,-187.7858"/>
</g>
<!-- Node3 -->
<g id="node3" class="node">
<title>Node3</title>
<g id="a_node3"><a xlink:href="types_8h.html" target="_top" xlink:title=" ">
<polygon fill="#ffffff" stroke="#000000" points="250,-56.5 250,-75.5 303,-75.5 303,-56.5 250,-56.5"/>
<text text-anchor="middle" x="276.5" y="-63.5" font-family="Helvetica,sans-Serif" font-size="10.00" fill="#000000">types.h</text>
</a>
</g>
</g>
<!-- Node2&#45;&gt;Node3 -->
<g id="edge2" class="edge">
<title>Node2&#45;&gt;Node3</title>
<path fill="none" stroke="#191970" d="M378.3272,-113.1266C358.9688,-104.1674 328.7971,-90.2036 306.3146,-79.7985"/>
<polygon fill="#191970" stroke="#191970" points="307.7492,-76.6058 297.2039,-75.582 304.8091,-82.9585 307.7492,-76.6058"/>
</g>
<!-- Node4 -->
<g id="node4" class="node">
<title>Node4</title>
<g id="a_node4"><a xlink:title=" ">
<polygon fill="#ffffff" stroke="#bfbfbf" points="248.5,-.5 248.5,-19.5 304.5,-19.5 304.5,-.5 248.5,-.5"/>
<text text-anchor="middle" x="276.5" y="-7.5" font-family="Helvetica,sans-Serif" font-size="10.00" fill="#000000">stddef.h</text>
</a>
</g>
</g>
<!-- Node3&#45;&gt;Node4 -->
<g id="edge3" class="edge">
<title>Node3&#45;&gt;Node4</title>
<path fill="none" stroke="#191970" d="M276.5,-56.2455C276.5,-48.9382 276.5,-38.6944 276.5,-29.7046"/>
<polygon fill="#191970" stroke="#191970" points="280.0001,-29.6426 276.5,-19.6427 273.0001,-29.6427 280.0001,-29.6426"/>
</g>
<!-- Node5 -->
<g id="node5" class="node">
<title>Node5</title>
<g id="a_node5"><a xlink:href="tamtypes_8h.html" target="_top" xlink:title=" ">
<polygon fill="#ffffff" stroke="#000000" points="106.5,-.5 106.5,-19.5 178.5,-19.5 178.5,-.5 106.5,-.5"/>
<text text-anchor="middle" x="142.5" y="-7.5" font-family="Helvetica,sans-Serif" font-size="10.00" fill="#000000">tamtypes.h</text>
</a>
</g>
</g>
<!-- Node3&#45;&gt;Node5 -->
<g id="edge4" class="edge">
<title>Node3&#45;&gt;Node5</title>
<path fill="none" stroke="#191970" d="M253.4646,-56.3733C231.7612,-47.3032 199.0382,-33.6279 174.745,-23.4755"/>
<polygon fill="#191970" stroke="#191970" points="175.8111,-20.1278 165.2348,-19.5011 173.1119,-26.5865 175.8111,-20.1278"/>
</g>
<!-- Node6&#45;&gt;Node2 -->
<g id="edge7" class="edge">
<title>Node6&#45;&gt;Node2</title>
<path fill="none" stroke="#191970" d="M95.4649,-169.5522C98.1783,-168.9989 100.8791,-168.4742 103.5,-168 217.6839,-147.3401 251.7335,-159.5057 368.3467,-131.8504"/>
<polygon fill="#191970" stroke="#191970" points="369.4848,-135.176 378.3809,-129.4219 367.8382,-128.3724 369.4848,-135.176"/>
</g>
<!-- Node6&#45;&gt;Node3 -->
<g id="edge6" class="edge">
<title>Node6&#45;&gt;Node3</title>
<path fill="none" stroke="#191970" d="M63.2956,-168.3012C69.4793,-153.7934 83.1208,-126.5901 103.5,-112 125.1982,-96.4656 195.637,-81.0725 239.6586,-72.6218"/>
<polygon fill="#191970" stroke="#191970" points="240.5208,-76.0209 249.698,-70.7267 239.2223,-69.1424 240.5208,-76.0209"/>
</g>
<!-- Node7 -->
<g id="node7" class="node">
<title>Node7</title>
<g id="a_node7"><a xlink:href="libcdvd-common_8h.html" target="_top" xlink:title=" ">
<polygon fill="#ffffff" stroke="#000000" points="0,-56.5 0,-75.5 107,-75.5 107,-56.5 0,-56.5"/>
<text text-anchor="middle" x="53.5" y="-63.5" font-family="Helvetica,sans-Serif" font-size="10.00" fill="#000000">libcdvd&#45;common.h</text>
</a>
</g>
</g>
<!-- Node6&#45;&gt;Node7 -->
<g id="edge8" class="edge">
<title>Node6&#45;&gt;Node7</title>
<path fill="none" stroke="#191970" d="M58.9884,-168.4509C58.0099,-150.184 55.8547,-109.9553 54.5552,-85.6976"/>
<polygon fill="#191970" stroke="#191970" points="58.0403,-85.3233 54.0103,-75.5249 51.0503,-85.6978 58.0403,-85.3233"/>
</g>
<!-- Node7&#45;&gt;Node5 -->
<g id="edge9" class="edge">
<title>Node7&#45;&gt;Node5</title>
<path fill="none" stroke="#191970" d="M69.0026,-56.2455C82.658,-47.6534 102.7657,-35.0014 118.4989,-25.1018"/>
<polygon fill="#191970" stroke="#191970" points="120.5751,-27.9307 127.175,-19.6427 116.8471,-22.006 120.5751,-27.9307"/>
</g>
<!-- Node8&#45;&gt;Node2 -->
<g id="edge12" class="edge">
<title>Node8&#45;&gt;Node2</title>
<path fill="none" stroke="#191970" d="M547.385,-168.3733C513.4568,-157.8762 459.5918,-141.2107 426.5147,-130.9769"/>
<polygon fill="#191970" stroke="#191970" points="427.1451,-127.5083 416.5574,-127.8962 425.0761,-134.1956 427.1451,-127.5083"/>
</g>
<!-- Node8&#45;&gt;Node3 -->
<g id="edge11" class="edge">
<title>Node8&#45;&gt;Node3</title>
<path fill="none" stroke="#191970" d="M563.1267,-168.4767C539.9124,-154.441 494.1868,-128.1246 452.5,-112 405.7185,-93.9047 349.2419,-80.5569 313.1057,-73.0306"/>
<polygon fill="#191970" stroke="#191970" points="313.526,-69.5443 303.028,-70.973 312.1257,-76.4028 313.526,-69.5443"/>
</g>
<!-- Node9&#45;&gt;Node2 -->
<g id="edge15" class="edge">
<title>Node9&#45;&gt;Node2</title>
<path fill="none" stroke="#191970" d="M628.7416,-170.1381C625.6223,-169.4008 622.5019,-168.6769 619.5,-168 550.4765,-152.4364 468.9231,-136.0481 426.4724,-127.6677"/>
<polygon fill="#191970" stroke="#191970" points="427.0416,-124.2126 416.5538,-125.715 425.6894,-131.0808 427.0416,-124.2126"/>
</g>
<!-- Node9&#45;&gt;Node3 -->
<g id="edge14" class="edge">
<title>Node9&#45;&gt;Node3</title>
<path fill="none" stroke="#191970" d="M638.7438,-168.4873C606.3047,-154.5831 543.1084,-128.5673 487.5,-112 427.2518,-94.0503 355.4076,-79.8801 313.0041,-72.2387"/>
<polygon fill="#191970" stroke="#191970" points="313.5973,-68.7894 303.1388,-70.4833 312.3709,-75.6811 313.5973,-68.7894"/>
</g>
<!-- Node10 -->
<g id="node10" class="node">
<title>Node10</title>
<g id="a_node10"><a xlink:href="io__common_8h.html" target="_top" xlink:title=" ">
<polygon fill="#ffffff" stroke="#000000" points="613,-112.5 613,-131.5 696,-131.5 696,-112.5 613,-112.5"/>
<text text-anchor="middle" x="654.5" y="-119.5" font-family="Helvetica,sans-Serif" font-size="10.00" fill="#000000">io_common.h</text>
</a>
</g>
</g>
<!-- Node9&#45;&gt;Node10 -->
<g id="edge16" class="edge">
<title>Node9&#45;&gt;Node10</title>
<path fill="none" stroke="#191970" d="M659.4549,-168.2455C658.672,-160.9382 657.5744,-150.6944 656.6112,-141.7046"/>
<polygon fill="#191970" stroke="#191970" points="660.0786,-141.2129 655.5331,-131.6427 653.1185,-141.9587 660.0786,-141.2129"/>
</g>
<!-- Node13 -->
<g id="node13" class="node">
<title>Node13</title>
<g id="a_node13"><a xlink:href="iox__stat_8h.html" target="_top" xlink:title=" ">
<polygon fill="#ffffff" stroke="#000000" points="714,-112.5 714,-131.5 779,-131.5 779,-112.5 714,-112.5"/>
<text text-anchor="middle" x="746.5" y="-119.5" font-family="Helvetica,sans-Serif" font-size="10.00" fill="#000000">iox_stat.h</text>
</a>
</g>
</g>
<!-- Node9&#45;&gt;Node13 -->
<g id="edge19" class="edge">
<title>Node9&#45;&gt;Node13</title>
<path fill="none" stroke="#191970" d="M675.4801,-168.2455C688.6751,-159.6534 708.1051,-147.0014 723.3079,-137.1018"/>
<polygon fill="#191970" stroke="#191970" points="725.2215,-140.0325 731.6916,-131.6427 721.4017,-134.1665 725.2215,-140.0325"/>
</g>
<!-- Node11 -->
<g id="node11" class="node">
<title>Node11</title>
<g id="a_node11"><a xlink:href="fcntl_8h.html" target="_top" xlink:title=" ">
<polygon fill="#ffffff" stroke="#000000" points="533,-56.5 533,-75.5 600,-75.5 600,-56.5 533,-56.5"/>
<text text-anchor="middle" x="566.5" y="-63.5" font-family="Helvetica,sans-Serif" font-size="10.00" fill="#000000">sys/fcntl.h</text>
</a>
</g>
</g>
<!-- Node10&#45;&gt;Node11 -->
<g id="edge17" class="edge">
<title>Node10&#45;&gt;Node11</title>
<path fill="none" stroke="#191970" d="M639.1716,-112.2455C625.6697,-103.6534 605.7878,-91.0014 590.2314,-81.1018"/>
<polygon fill="#191970" stroke="#191970" points="591.9685,-78.0587 581.6528,-75.6427 588.2103,-83.9643 591.9685,-78.0587"/>
</g>
<!-- Node12 -->
<g id="node12" class="node">
<title>Node12</title>
<g id="a_node12"><a xlink:href="unistd_8h.html" target="_top" xlink:title=" ">
<polygon fill="#ffffff" stroke="#000000" points="618,-56.5 618,-75.5 693,-75.5 693,-56.5 618,-56.5"/>
<text text-anchor="middle" x="655.5" y="-63.5" font-family="Helvetica,sans-Serif" font-size="10.00" fill="#000000">sys/unistd.h</text>
</a>
</g>
</g>
<!-- Node10&#45;&gt;Node12 -->
<g id="edge18" class="edge">
<title>Node10&#45;&gt;Node12</title>
<path fill="none" stroke="#191970" d="M654.6742,-112.2455C654.8047,-104.9382 654.9876,-94.6944 655.1481,-85.7046"/>
<polygon fill="#191970" stroke="#191970" points="658.6486,-85.7036 655.3278,-75.6427 651.6497,-85.5786 658.6486,-85.7036"/>
</g>
<!-- Node14 -->
<g id="node14" class="node">
<title>Node14</title>
<g id="a_node14"><a xlink:href="time_8h.html" target="_top" xlink:title=" ">
<polygon fill="#ffffff" stroke="#000000" points="712.5,-56.5 712.5,-75.5 780.5,-75.5 780.5,-56.5 712.5,-56.5"/>
<text text-anchor="middle" x="746.5" y="-63.5" font-family="Helvetica,sans-Serif" font-size="10.00" fill="#000000">sys/time.h</text>
</a>
</g>
</g>
<!-- Node13&#45;&gt;Node14 -->
<g id="edge20" class="edge">
<title>Node13&#45;&gt;Node14</title>
<path fill="none" stroke="#191970" d="M746.5,-112.2455C746.5,-104.9382 746.5,-94.6944 746.5,-85.7046"/>
<polygon fill="#191970" stroke="#191970" points="750.0001,-85.6426 746.5,-75.6427 743.0001,-85.6427 750.0001,-85.6426"/>
</g>
<!-- Node15&#45;&gt;Node2 -->
<g id="edge23" class="edge">
<title>Node15&#45;&gt;Node2</title>
<path fill="none" stroke="#191970" d="M389.2419,-168.2455C390.5467,-160.9382 392.376,-150.6944 393.9813,-141.7046"/>
<polygon fill="#191970" stroke="#191970" points="397.4656,-142.1022 395.7781,-131.6427 390.5746,-140.8717 397.4656,-142.1022"/>
</g>
<!-- Node16 -->
<g id="node16" class="node">
<title>Node16</title>
<g id="a_node16"><a xlink:title=" ">
<polygon fill="#ffffff" stroke="#bfbfbf" points="304.5,-112.5 304.5,-131.5 360.5,-131.5 360.5,-112.5 304.5,-112.5"/>
<text text-anchor="middle" x="332.5" y="-119.5" font-family="Helvetica,sans-Serif" font-size="10.00" fill="#000000">stdarg.h</text>
</a>
</g>
</g>
<!-- Node15&#45;&gt;Node16 -->
<g id="edge22" class="edge">
<title>Node15&#45;&gt;Node16</title>
<path fill="none" stroke="#191970" d="M377.9197,-168.2455C369.9542,-160.1352 358.4359,-148.4075 348.9921,-138.7919"/>
<polygon fill="#191970" stroke="#191970" points="351.4747,-136.3247 341.9705,-131.6427 346.4805,-141.2297 351.4747,-136.3247"/>
</g>
<!-- Node17&#45;&gt;Node2 -->
<g id="edge26" class="edge">
<title>Node17&#45;&gt;Node2</title>
<path fill="none" stroke="#191970" d="M172.2648,-170.1662C175.3769,-169.4075 178.4987,-168.6715 181.5,-168 261.4404,-150.1153 285.6385,-154.0381 368.4964,-131.9519"/>
<polygon fill="#191970" stroke="#191970" points="369.6098,-135.2764 378.3442,-129.2797 367.7766,-128.5207 369.6098,-135.2764"/>
</g>
<!-- Node17&#45;&gt;Node3 -->
<g id="edge25" class="edge">
<title>Node17&#45;&gt;Node3</title>
<path fill="none" stroke="#191970" d="M153.9248,-168.4509C176.8677,-149.2747 228.767,-105.8962 257.1193,-82.1988"/>
<polygon fill="#191970" stroke="#191970" points="259.6759,-84.6235 265.1042,-75.5249 255.1867,-79.2525 259.6759,-84.6235"/>
</g>
<!-- Node17&#45;&gt;Node16 -->
<g id="edge27" class="edge">
<title>Node17&#45;&gt;Node16</title>
<path fill="none" stroke="#191970" d="M172.1875,-169.25C205.1962,-159.5211 258.5945,-143.7827 294.5981,-133.1711"/>
<polygon fill="#191970" stroke="#191970" points="295.6577,-136.5077 304.2602,-130.3233 293.6787,-129.7933 295.6577,-136.5077"/>
</g>
<!-- Node18 -->
<g id="node18" class="node">
<title>Node18</title>
<g id="a_node18"><a xlink:href="setjmp_8h.html" target="_top" xlink:title=" ">
<polygon fill="#ffffff" stroke="#000000" points="113,-112.5 113,-131.5 172,-131.5 172,-112.5 113,-112.5"/>
<text text-anchor="middle" x="142.5" y="-119.5" font-family="Helvetica,sans-Serif" font-size="10.00" fill="#000000">setjmp.h</text>
</a>
</g>
</g>
<!-- Node17&#45;&gt;Node18 -->
<g id="edge28" class="edge">
<title>Node17&#45;&gt;Node18</title>
<path fill="none" stroke="#191970" d="M142.5,-168.2455C142.5,-160.9382 142.5,-150.6944 142.5,-141.7046"/>
<polygon fill="#191970" stroke="#191970" points="146.0001,-141.6426 142.5,-131.6427 139.0001,-141.6427 146.0001,-141.6426"/>
</g>
<!-- Node18&#45;&gt;Node5 -->
<g id="edge29" class="edge">
<title>Node18&#45;&gt;Node5</title>
<path fill="none" stroke="#191970" d="M142.5,-112.4509C142.5,-94.184 142.5,-53.9553 142.5,-29.6976"/>
<polygon fill="#191970" stroke="#191970" points="146.0001,-29.5249 142.5,-19.5249 139.0001,-29.5249 146.0001,-29.5249"/>
</g>
<!-- Node19&#45;&gt;Node2 -->
<g id="edge32" class="edge">
<title>Node19&#45;&gt;Node2</title>
<path fill="none" stroke="#191970" d="M325.6542,-168.2455C339.0027,-159.6534 358.6586,-147.0014 374.0383,-137.1018"/>
<polygon fill="#191970" stroke="#191970" points="376.0051,-139.9982 382.5194,-131.6427 372.2164,-134.1121 376.0051,-139.9982"/>
</g>
<!-- Node19&#45;&gt;Node3 -->
<g id="edge31" class="edge">
<title>Node19&#45;&gt;Node3</title>
<path fill="none" stroke="#191970" d="M307.1815,-168.1611C304.0735,-158.8685 299.3444,-144.5274 295.5,-132 290.7447,-116.5045 285.6822,-98.8555 281.9796,-85.7094"/>
<polygon fill="#191970" stroke="#191970" points="285.292,-84.5581 279.2259,-75.8718 278.5511,-86.4451 285.292,-84.5581"/>
</g>
<!-- Node19&#45;&gt;Node16 -->
<g id="edge33" class="edge">
<title>Node19&#45;&gt;Node16</title>
<path fill="none" stroke="#191970" d="M314.3321,-168.2455C317.2659,-160.7776 321.4047,-150.2427 324.991,-141.1137"/>
<polygon fill="#191970" stroke="#191970" points="328.3129,-142.23 328.7118,-131.6427 321.7976,-139.6704 328.3129,-142.23"/>
</g>
<!-- Node20&#45;&gt;Node2 -->
<g id="edge36" class="edge">
<title>Node20&#45;&gt;Node2</title>
<path fill="none" stroke="#191970" d="M480.9071,-168.2455C465.121,-159.4928 441.7361,-146.527 423.7413,-136.5496"/>
<polygon fill="#191970" stroke="#191970" points="425.3341,-133.4308 414.8913,-131.6427 421.9397,-139.5528 425.3341,-133.4308"/>
</g>
<!-- Node20&#45;&gt;Node3 -->
<g id="edge35" class="edge">
<title>Node20&#45;&gt;Node3</title>
<path fill="none" stroke="#191970" d="M490.5024,-168.4984C478.0219,-154.2482 452.5276,-127.3768 425.5,-112 389.9829,-91.7932 344.551,-79.4234 313.2426,-72.6736"/>
<polygon fill="#191970" stroke="#191970" points="313.7027,-69.1948 303.2011,-70.5968 312.2849,-76.0497 313.7027,-69.1948"/>
</g>
<!-- Node21&#45;&gt;Node2 -->
<g id="edge39" class="edge">
<title>Node21&#45;&gt;Node2</title>
<path fill="none" stroke="#191970" d="M255.7187,-168.4506C283.2002,-159.9661 324.5117,-147.0235 368.7674,-132.1734"/>
<polygon fill="#191970" stroke="#191970" points="369.8937,-135.4873 378.2519,-128.9765 367.6578,-128.854 369.8937,-135.4873"/>
</g>
<!-- Node21&#45;&gt;Node3 -->
<g id="edge38" class="edge">
<title>Node21&#45;&gt;Node3</title>
<path fill="none" stroke="#191970" d="M228.9335,-168.4509C237.5297,-149.936 256.6011,-108.8591 267.8092,-84.7187"/>
<polygon fill="#191970" stroke="#191970" points="271.0411,-86.0689 272.0777,-75.5249 264.692,-83.1211 271.0411,-86.0689"/>
</g>
</g>
</svg>
