<?xml version="1.0" encoding="UTF-8" standalone="no"?>
<!DOCTYPE svg PUBLIC "-//W3C//DTD SVG 1.1//EN"
 "http://www.w3.org/Graphics/SVG/1.1/DTD/svg11.dtd">
<!-- Generated by graphviz version 2.40.1 (20161225.0304)
 -->
<!-- Title: iop/hdd/apa/src/irx_imports.h Pages: 1 -->
<svg width="946pt" height="263pt"
 viewBox="0.00 0.00 946.00 263.00" xmlns="http://www.w3.org/2000/svg" xmlns:xlink="http://www.w3.org/1999/xlink">
<g id="graph0" class="graph" transform="scale(1 1) rotate(0) translate(4 259)">
<title>iop/hdd/apa/src/irx_imports.h</title>
<polygon fill="#ffffff" stroke="transparent" points="-4,4 -4,-259 942,-259 942,4 -4,4"/>
<!-- Node1 -->
<g id="node1" class="node">
<title>Node1</title>
<g id="a_node1"><a xlink:title=" ">
<polygon fill="#bfbfbf" stroke="#000000" points="347.5,-224.5 347.5,-254.5 454.5,-254.5 454.5,-224.5 347.5,-224.5"/>
<text text-anchor="start" x="355.5" y="-242.5" font-family="Helvetica,sans-Serif" font-size="10.00" fill="#000000">iop/hdd/apa/src/irx</text>
<text text-anchor="middle" x="401" y="-231.5" font-family="Helvetica,sans-Serif" font-size="10.00" fill="#000000">_imports.h</text>
</a>
</g>
</g>
<!-- Node2 -->
<g id="node2" class="node">
<title>Node2</title>
<g id="a_node2"><a xlink:href="irx_8h.html" target="_top" xlink:title=" ">
<polygon fill="#ffffff" stroke="#000000" points="382,-112.5 382,-131.5 420,-131.5 420,-112.5 382,-112.5"/>
<text text-anchor="middle" x="401" y="-119.5" font-family="Helvetica,sans-Serif" font-size="10.00" fill="#000000">irx.h</text>
</a>
</g>
</g>
<!-- Node1&#45;&gt;Node2 -->
<g id="edge1" class="edge">
<title>Node1&#45;&gt;Node2</title>
<path fill="none" stroke="#191970" d="M401,-224.1389C401,-202.9692 401,-164.8174 401,-141.6112"/>
<polygon fill="#191970" stroke="#191970" points="404.5001,-141.5594 401,-131.5595 397.5001,-141.5595 404.5001,-141.5594"/>
</g>
<!-- Node6 -->
<g id="node6" class="node">
<title>Node6</title>
<g id="a_node6"><a xlink:href="atad_8h.html" target="_top" xlink:title=" ">
<polygon fill="#ffffff" stroke="#000000" points="68.5,-168.5 68.5,-187.5 115.5,-187.5 115.5,-168.5 68.5,-168.5"/>
<text text-anchor="middle" x="92" y="-175.5" font-family="Helvetica,sans-Serif" font-size="10.00" fill="#000000">atad.h</text>
</a>
</g>
</g>
<!-- Node1&#45;&gt;Node6 -->
<g id="edge5" class="edge">
<title>Node1&#45;&gt;Node6</title>
<path fill="none" stroke="#191970" d="M347.4929,-231.4916C293.5395,-222.9822 207.7499,-208.2687 125.4357,-188.158"/>
<polygon fill="#191970" stroke="#191970" points="126.2247,-184.7478 115.6768,-185.7439 124.5437,-191.5429 126.2247,-184.7478"/>
</g>
<!-- Node8 -->
<g id="node8" class="node">
<title>Node8</title>
<g id="a_node8"><a xlink:href="cdvdman_8h.html" target="_top" xlink:title=" ">
<polygon fill="#ffffff" stroke="#000000" points="133.5,-168.5 133.5,-187.5 204.5,-187.5 204.5,-168.5 133.5,-168.5"/>
<text text-anchor="middle" x="169" y="-175.5" font-family="Helvetica,sans-Serif" font-size="10.00" fill="#000000">cdvdman.h</text>
</a>
</g>
</g>
<!-- Node1&#45;&gt;Node8 -->
<g id="edge8" class="edge">
<title>Node1&#45;&gt;Node8</title>
<path fill="none" stroke="#191970" d="M347.4832,-225.3134C307.1912,-214.6326 252.5636,-200.1515 214.3953,-190.0337"/>
<polygon fill="#191970" stroke="#191970" points="215.1423,-186.6109 204.5793,-187.4316 213.3486,-193.3772 215.1423,-186.6109"/>
</g>
<!-- Node10 -->
<g id="node10" class="node">
<title>Node10</title>
<g id="a_node10"><a xlink:href="dev9_8h.html" target="_top" xlink:title=" ">
<polygon fill="#ffffff" stroke="#000000" points="0,-168.5 0,-187.5 50,-187.5 50,-168.5 0,-168.5"/>
<text text-anchor="middle" x="25" y="-175.5" font-family="Helvetica,sans-Serif" font-size="10.00" fill="#000000">dev9.h</text>
</a>
</g>
</g>
<!-- Node1&#45;&gt;Node10 -->
<g id="edge13" class="edge">
<title>Node1&#45;&gt;Node10</title>
<path fill="none" stroke="#191970" d="M347.2693,-233.711C281.6087,-226.1268 167.0386,-211.2479 60.139,-188.014"/>
<polygon fill="#191970" stroke="#191970" points="60.6703,-184.5472 50.1514,-185.8135 59.1641,-191.3832 60.6703,-184.5472"/>
</g>
<!-- Node12 -->
<g id="node12" class="node">
<title>Node12</title>
<g id="a_node12"><a xlink:href="intrman_8h.html" target="_top" xlink:title=" ">
<polygon fill="#ffffff" stroke="#000000" points="309,-168.5 309,-187.5 373,-187.5 373,-168.5 309,-168.5"/>
<text text-anchor="middle" x="341" y="-175.5" font-family="Helvetica,sans-Serif" font-size="10.00" fill="#000000">intrman.h</text>
</a>
</g>
</g>
<!-- Node1&#45;&gt;Node12 -->
<g id="edge18" class="edge">
<title>Node1&#45;&gt;Node12</title>
<path fill="none" stroke="#191970" d="M386.1685,-224.2977C377.5796,-215.4941 366.7398,-204.3833 357.8321,-195.2529"/>
<polygon fill="#191970" stroke="#191970" points="360.0953,-192.5606 350.6068,-187.8469 355.0848,-197.4489 360.0953,-192.5606"/>
</g>
<!-- Node13 -->
<g id="node13" class="node">
<title>Node13</title>
<g id="a_node13"><a xlink:href="iomanX_8h.html" target="_top" xlink:title=" ">
<polygon fill="#ffffff" stroke="#000000" points="738.5,-168.5 738.5,-187.5 801.5,-187.5 801.5,-168.5 738.5,-168.5"/>
<text text-anchor="middle" x="770" y="-175.5" font-family="Helvetica,sans-Serif" font-size="10.00" fill="#000000">iomanX.h</text>
</a>
</g>
</g>
<!-- Node1&#45;&gt;Node13 -->
<g id="edge21" class="edge">
<title>Node1&#45;&gt;Node13</title>
<path fill="none" stroke="#191970" d="M454.542,-232.6224C517.8266,-224.1585 626.4797,-208.5793 728.3467,-188.2138"/>
<polygon fill="#191970" stroke="#191970" points="729.0723,-191.638 738.1818,-186.228 727.6869,-184.7764 729.0723,-191.638"/>
</g>
<!-- Node19 -->
<g id="node19" class="node">
<title>Node19</title>
<g id="a_node19"><a xlink:href="stdio_8h.html" target="_top" xlink:title=" ">
<polygon fill="#ffffff" stroke="#000000" points="507,-168.5 507,-187.5 557,-187.5 557,-168.5 507,-168.5"/>
<text text-anchor="middle" x="532" y="-175.5" font-family="Helvetica,sans-Serif" font-size="10.00" fill="#000000">stdio.h</text>
</a>
</g>
</g>
<!-- Node1&#45;&gt;Node19 -->
<g id="edge29" class="edge">
<title>Node1&#45;&gt;Node19</title>
<path fill="none" stroke="#191970" d="M433.0462,-224.4554C454.2328,-214.509 481.8028,-201.5659 502.4588,-191.8686"/>
<polygon fill="#191970" stroke="#191970" points="504.1349,-194.9483 511.6996,-187.5303 501.1601,-188.6118 504.1349,-194.9483"/>
</g>
<!-- Node21 -->
<g id="node21" class="node">
<title>Node21</title>
<g id="a_node21"><a xlink:href="sysclib_8h.html" target="_top" xlink:title=" ">
<polygon fill="#ffffff" stroke="#000000" points="661.5,-168.5 661.5,-187.5 720.5,-187.5 720.5,-168.5 661.5,-168.5"/>
<text text-anchor="middle" x="691" y="-175.5" font-family="Helvetica,sans-Serif" font-size="10.00" fill="#000000">sysclib.h</text>
</a>
</g>
</g>
<!-- Node1&#45;&gt;Node21 -->
<g id="edge32" class="edge">
<title>Node1&#45;&gt;Node21</title>
<path fill="none" stroke="#191970" d="M454.5342,-229.299C503.275,-219.8344 577.4513,-204.9904 651.2853,-188.0827"/>
<polygon fill="#191970" stroke="#191970" points="652.2666,-191.4484 661.2259,-185.7932 650.6955,-184.627 652.2666,-191.4484"/>
</g>
<!-- Node23 -->
<g id="node23" class="node">
<title>Node23</title>
<g id="a_node23"><a xlink:href="sysmem_8h.html" target="_top" xlink:title=" ">
<polygon fill="#ffffff" stroke="#000000" points="575,-168.5 575,-187.5 643,-187.5 643,-168.5 575,-168.5"/>
<text text-anchor="middle" x="609" y="-175.5" font-family="Helvetica,sans-Serif" font-size="10.00" fill="#000000">sysmem.h</text>
</a>
</g>
</g>
<!-- Node1&#45;&gt;Node23 -->
<g id="edge38" class="edge">
<title>Node1&#45;&gt;Node23</title>
<path fill="none" stroke="#191970" d="M451.8825,-224.4554C487.1967,-214.0139 533.6803,-200.27 566.908,-190.4455"/>
<polygon fill="#191970" stroke="#191970" points="568.1702,-193.7221 576.7674,-187.5303 566.1854,-187.0094 568.1702,-193.7221"/>
</g>
<!-- Node24 -->
<g id="node24" class="node">
<title>Node24</title>
<g id="a_node24"><a xlink:href="thbase_8h.html" target="_top" xlink:title=" ">
<polygon fill="#ffffff" stroke="#000000" points="429.5,-168.5 429.5,-187.5 488.5,-187.5 488.5,-168.5 429.5,-168.5"/>
<text text-anchor="middle" x="459" y="-175.5" font-family="Helvetica,sans-Serif" font-size="10.00" fill="#000000">thbase.h</text>
</a>
</g>
</g>
<!-- Node1&#45;&gt;Node24 -->
<g id="edge42" class="edge">
<title>Node1&#45;&gt;Node24</title>
<path fill="none" stroke="#191970" d="M415.3371,-224.2977C423.6397,-215.4941 434.1182,-204.3833 442.7289,-195.2529"/>
<polygon fill="#191970" stroke="#191970" points="445.3987,-197.5234 449.7135,-187.8469 440.3061,-192.7206 445.3987,-197.5234"/>
</g>
<!-- Node25 -->
<g id="node25" class="node">
<title>Node25</title>
<g id="a_node25"><a xlink:href="thsemap_8h.html" target="_top" xlink:title=" ">
<polygon fill="#ffffff" stroke="#000000" points="223,-168.5 223,-187.5 291,-187.5 291,-168.5 223,-168.5"/>
<text text-anchor="middle" x="257" y="-175.5" font-family="Helvetica,sans-Serif" font-size="10.00" fill="#000000">thsemap.h</text>
</a>
</g>
</g>
<!-- Node1&#45;&gt;Node25 -->
<g id="edge45" class="edge">
<title>Node1&#45;&gt;Node25</title>
<path fill="none" stroke="#191970" d="M365.7736,-224.4554C342.1684,-214.374 311.3546,-201.2139 288.5524,-191.4755"/>
<polygon fill="#191970" stroke="#191970" points="289.886,-188.2393 279.3149,-187.5303 287.1366,-194.6767 289.886,-188.2393"/>
</g>
<!-- Node3 -->
<g id="node3" class="node">
<title>Node3</title>
<g id="a_node3"><a xlink:href="types_8h.html" target="_top" xlink:title=" ">
<polygon fill="#ffffff" stroke="#000000" points="374.5,-56.5 374.5,-75.5 427.5,-75.5 427.5,-56.5 374.5,-56.5"/>
<text text-anchor="middle" x="401" y="-63.5" font-family="Helvetica,sans-Serif" font-size="10.00" fill="#000000">types.h</text>
</a>
</g>
</g>
<!-- Node2&#45;&gt;Node3 -->
<g id="edge2" class="edge">
<title>Node2&#45;&gt;Node3</title>
<path fill="none" stroke="#191970" d="M401,-112.2455C401,-104.9382 401,-94.6944 401,-85.7046"/>
<polygon fill="#191970" stroke="#191970" points="404.5001,-85.6426 401,-75.6427 397.5001,-85.6427 404.5001,-85.6426"/>
</g>
<!-- Node4 -->
<g id="node4" class="node">
<title>Node4</title>
<g id="a_node4"><a xlink:title=" ">
<polygon fill="#ffffff" stroke="#bfbfbf" points="373,-.5 373,-19.5 429,-19.5 429,-.5 373,-.5"/>
<text text-anchor="middle" x="401" y="-7.5" font-family="Helvetica,sans-Serif" font-size="10.00" fill="#000000">stddef.h</text>
</a>
</g>
</g>
<!-- Node3&#45;&gt;Node4 -->
<g id="edge3" class="edge">
<title>Node3&#45;&gt;Node4</title>
<path fill="none" stroke="#191970" d="M401,-56.2455C401,-48.9382 401,-38.6944 401,-29.7046"/>
<polygon fill="#191970" stroke="#191970" points="404.5001,-29.6426 401,-19.6427 397.5001,-29.6427 404.5001,-29.6426"/>
</g>
<!-- Node5 -->
<g id="node5" class="node">
<title>Node5</title>
<g id="a_node5"><a xlink:href="tamtypes_8h.html" target="_top" xlink:title=" ">
<polygon fill="#ffffff" stroke="#000000" points="254,-.5 254,-19.5 326,-19.5 326,-.5 254,-.5"/>
<text text-anchor="middle" x="290" y="-7.5" font-family="Helvetica,sans-Serif" font-size="10.00" fill="#000000">tamtypes.h</text>
</a>
</g>
</g>
<!-- Node3&#45;&gt;Node5 -->
<g id="edge4" class="edge">
<title>Node3&#45;&gt;Node5</title>
<path fill="none" stroke="#191970" d="M381.9184,-56.3733C364.2598,-47.4644 337.7947,-34.1127 317.7902,-24.0203"/>
<polygon fill="#191970" stroke="#191970" points="319.3372,-20.8806 308.8326,-19.5011 316.1842,-27.1303 319.3372,-20.8806"/>
</g>
<!-- Node6&#45;&gt;Node2 -->
<g id="edge7" class="edge">
<title>Node6&#45;&gt;Node2</title>
<path fill="none" stroke="#191970" d="M115.6642,-170.2043C118.4584,-169.403 121.2821,-168.6471 124,-168 213.2125,-146.7607 320.8885,-131.8968 371.7186,-125.5076"/>
<polygon fill="#191970" stroke="#191970" points="372.1817,-128.977 381.6752,-124.2736 371.3207,-122.0302 372.1817,-128.977"/>
</g>
<!-- Node7 -->
<g id="node7" class="node">
<title>Node7</title>
<g id="a_node7"><a xlink:title=" ">
<polygon fill="#ffffff" stroke="#bfbfbf" points="59.5,-112.5 59.5,-131.5 112.5,-131.5 112.5,-112.5 59.5,-112.5"/>
<text text-anchor="middle" x="86" y="-119.5" font-family="Helvetica,sans-Serif" font-size="10.00" fill="#000000">types.h</text>
</a>
</g>
</g>
<!-- Node6&#45;&gt;Node7 -->
<g id="edge6" class="edge">
<title>Node6&#45;&gt;Node7</title>
<path fill="none" stroke="#191970" d="M90.9549,-168.2455C90.172,-160.9382 89.0744,-150.6944 88.1112,-141.7046"/>
<polygon fill="#191970" stroke="#191970" points="91.5786,-141.2129 87.0331,-131.6427 84.6185,-141.9587 91.5786,-141.2129"/>
</g>
<!-- Node8&#45;&gt;Node2 -->
<g id="edge10" class="edge">
<title>Node8&#45;&gt;Node2</title>
<path fill="none" stroke="#191970" d="M204.7416,-169.3727C250.6742,-158.2855 329.5371,-139.2497 371.9631,-129.0089"/>
<polygon fill="#191970" stroke="#191970" points="373.0225,-132.3538 381.9221,-126.605 371.38,-125.5492 373.0225,-132.3538"/>
</g>
<!-- Node8&#45;&gt;Node3 -->
<g id="edge9" class="edge">
<title>Node8&#45;&gt;Node3</title>
<path fill="none" stroke="#191970" d="M188.7802,-168.4509C229.7864,-148.6548 324.2198,-103.0663 372.0751,-79.9638"/>
<polygon fill="#191970" stroke="#191970" points="373.786,-83.0244 381.2699,-75.5249 370.7427,-76.7205 373.786,-83.0244"/>
</g>
<!-- Node9 -->
<g id="node9" class="node">
<title>Node9</title>
<g id="a_node9"><a xlink:href="libcdvd-common_8h.html" target="_top" xlink:title=" ">
<polygon fill="#ffffff" stroke="#000000" points="207.5,-56.5 207.5,-75.5 314.5,-75.5 314.5,-56.5 207.5,-56.5"/>
<text text-anchor="middle" x="261" y="-63.5" font-family="Helvetica,sans-Serif" font-size="10.00" fill="#000000">libcdvd&#45;common.h</text>
</a>
</g>
</g>
<!-- Node8&#45;&gt;Node9 -->
<g id="edge11" class="edge">
<title>Node8&#45;&gt;Node9</title>
<path fill="none" stroke="#191970" d="M176.8439,-168.4509C192.3242,-149.6054 227.0053,-107.3849 246.6727,-83.4419"/>
<polygon fill="#191970" stroke="#191970" points="249.5331,-85.4738 253.176,-75.5249 244.124,-81.0306 249.5331,-85.4738"/>
</g>
<!-- Node9&#45;&gt;Node5 -->
<g id="edge12" class="edge">
<title>Node9&#45;&gt;Node5</title>
<path fill="none" stroke="#191970" d="M266.0514,-56.2455C270.0019,-48.617 275.6097,-37.7881 280.4058,-28.5267"/>
<polygon fill="#191970" stroke="#191970" points="283.5159,-30.1321 285.0065,-19.6427 277.2999,-26.9131 283.5159,-30.1321"/>
</g>
<!-- Node10&#45;&gt;Node2 -->
<g id="edge15" class="edge">
<title>Node10&#45;&gt;Node2</title>
<path fill="none" stroke="#191970" d="M50.1417,-170.1414C53.1108,-169.3514 56.1115,-168.6153 59,-168 173.4606,-143.6184 312.3719,-129.6622 371.7747,-124.4173"/>
<polygon fill="#191970" stroke="#191970" points="372.2568,-127.8888 381.9174,-123.5388 371.6527,-120.9149 372.2568,-127.8888"/>
</g>
<!-- Node10&#45;&gt;Node7 -->
<g id="edge14" class="edge">
<title>Node10&#45;&gt;Node7</title>
<path fill="none" stroke="#191970" d="M35.6254,-168.2455C44.5473,-160.0549 57.488,-148.1749 68.0192,-138.5069"/>
<polygon fill="#191970" stroke="#191970" points="70.4968,-140.9837 75.4964,-131.6427 65.7629,-135.8271 70.4968,-140.9837"/>
</g>
<!-- Node11 -->
<g id="node11" class="node">
<title>Node11</title>
<g id="a_node11"><a xlink:href="hdd-ioctl_8h.html" target="_top" xlink:title=" ">
<polygon fill="#ffffff" stroke="#000000" points="37,-56.5 37,-75.5 105,-75.5 105,-56.5 37,-56.5"/>
<text text-anchor="middle" x="71" y="-63.5" font-family="Helvetica,sans-Serif" font-size="10.00" fill="#000000">hdd&#45;ioctl.h</text>
</a>
</g>
</g>
<!-- Node10&#45;&gt;Node11 -->
<g id="edge16" class="edge">
<title>Node10&#45;&gt;Node11</title>
<path fill="none" stroke="#191970" d="M28.5255,-168.0797C33.1927,-155.0958 41.7925,-131.6767 50,-112 53.7482,-103.014 58.1902,-93.1804 62.0213,-84.9201"/>
<polygon fill="#191970" stroke="#191970" points="65.227,-86.3275 66.3038,-75.7875 58.8892,-83.3555 65.227,-86.3275"/>
</g>
<!-- Node11&#45;&gt;Node5 -->
<g id="edge17" class="edge">
<title>Node11&#45;&gt;Node5</title>
<path fill="none" stroke="#191970" d="M105.2188,-57.25C142.5607,-47.7014 202.5417,-32.3638 243.9862,-21.7661"/>
<polygon fill="#191970" stroke="#191970" points="245.0154,-25.1156 253.8366,-19.2473 243.2812,-18.3338 245.0154,-25.1156"/>
</g>
<!-- Node12&#45;&gt;Node2 -->
<g id="edge20" class="edge">
<title>Node12&#45;&gt;Node2</title>
<path fill="none" stroke="#191970" d="M351.4512,-168.2455C360.2269,-160.0549 372.9554,-148.1749 383.314,-138.5069"/>
<polygon fill="#191970" stroke="#191970" points="385.7461,-141.0246 390.6686,-131.6427 380.9699,-135.9072 385.7461,-141.0246"/>
</g>
<!-- Node12&#45;&gt;Node3 -->
<g id="edge19" class="edge">
<title>Node12&#45;&gt;Node3</title>
<path fill="none" stroke="#191970" d="M345.279,-168.4574C351.1702,-155.494 362.2724,-131.6778 373,-112 378.0722,-102.696 384.1417,-92.6134 389.3312,-84.2656"/>
<polygon fill="#191970" stroke="#191970" points="392.3505,-86.039 394.7162,-75.7116 386.4266,-82.3096 392.3505,-86.039"/>
</g>
<!-- Node13&#45;&gt;Node2 -->
<g id="edge23" class="edge">
<title>Node13&#45;&gt;Node2</title>
<path fill="none" stroke="#191970" d="M738.1912,-169.7245C735.4289,-169.1041 732.6701,-168.5189 730,-168 620.1696,-146.6555 487.8661,-131.2447 430.2212,-125.0318"/>
<polygon fill="#191970" stroke="#191970" points="430.3466,-121.5254 420.032,-123.9461 429.6048,-128.486 430.3466,-121.5254"/>
</g>
<!-- Node13&#45;&gt;Node3 -->
<g id="edge22" class="edge">
<title>Node13&#45;&gt;Node3</title>
<path fill="none" stroke="#191970" d="M766.184,-168.4689C759.7155,-153.6675 745.1071,-125.4611 723,-112 675.7642,-83.238 512.3144,-71.5602 438.134,-67.661"/>
<polygon fill="#191970" stroke="#191970" points="438.0257,-64.1511 427.8615,-67.141 437.6718,-71.1422 438.0257,-64.1511"/>
</g>
<!-- Node14 -->
<g id="node14" class="node">
<title>Node14</title>
<g id="a_node14"><a xlink:href="io__common_8h.html" target="_top" xlink:title=" ">
<polygon fill="#ffffff" stroke="#000000" points="770.5,-112.5 770.5,-131.5 853.5,-131.5 853.5,-112.5 770.5,-112.5"/>
<text text-anchor="middle" x="812" y="-119.5" font-family="Helvetica,sans-Serif" font-size="10.00" fill="#000000">io_common.h</text>
</a>
</g>
</g>
<!-- Node13&#45;&gt;Node14 -->
<g id="edge24" class="edge">
<title>Node13&#45;&gt;Node14</title>
<path fill="none" stroke="#191970" d="M777.3158,-168.2455C783.2179,-160.3761 791.6742,-149.101 798.7594,-139.6542"/>
<polygon fill="#191970" stroke="#191970" points="801.568,-141.7427 804.768,-131.6427 795.9679,-137.5427 801.568,-141.7427"/>
</g>
<!-- Node17 -->
<g id="node17" class="node">
<title>Node17</title>
<g id="a_node17"><a xlink:href="iox__stat_8h.html" target="_top" xlink:title=" ">
<polygon fill="#ffffff" stroke="#000000" points="871.5,-112.5 871.5,-131.5 936.5,-131.5 936.5,-112.5 871.5,-112.5"/>
<text text-anchor="middle" x="904" y="-119.5" font-family="Helvetica,sans-Serif" font-size="10.00" fill="#000000">iox_stat.h</text>
</a>
</g>
</g>
<!-- Node13&#45;&gt;Node17 -->
<g id="edge27" class="edge">
<title>Node13&#45;&gt;Node17</title>
<path fill="none" stroke="#191970" d="M793.0354,-168.3733C814.7388,-159.3032 847.4618,-145.6279 871.755,-135.4755"/>
<polygon fill="#191970" stroke="#191970" points="873.3881,-138.5865 881.2652,-131.5011 870.6889,-132.1278 873.3881,-138.5865"/>
</g>
<!-- Node15 -->
<g id="node15" class="node">
<title>Node15</title>
<g id="a_node15"><a xlink:href="fcntl_8h.html" target="_top" xlink:title=" ">
<polygon fill="#ffffff" stroke="#000000" points="690.5,-56.5 690.5,-75.5 757.5,-75.5 757.5,-56.5 690.5,-56.5"/>
<text text-anchor="middle" x="724" y="-63.5" font-family="Helvetica,sans-Serif" font-size="10.00" fill="#000000">sys/fcntl.h</text>
</a>
</g>
</g>
<!-- Node14&#45;&gt;Node15 -->
<g id="edge25" class="edge">
<title>Node14&#45;&gt;Node15</title>
<path fill="none" stroke="#191970" d="M796.6716,-112.2455C783.1697,-103.6534 763.2878,-91.0014 747.7314,-81.1018"/>
<polygon fill="#191970" stroke="#191970" points="749.4685,-78.0587 739.1528,-75.6427 745.7103,-83.9643 749.4685,-78.0587"/>
</g>
<!-- Node16 -->
<g id="node16" class="node">
<title>Node16</title>
<g id="a_node16"><a xlink:href="unistd_8h.html" target="_top" xlink:title=" ">
<polygon fill="#ffffff" stroke="#000000" points="775.5,-56.5 775.5,-75.5 850.5,-75.5 850.5,-56.5 775.5,-56.5"/>
<text text-anchor="middle" x="813" y="-63.5" font-family="Helvetica,sans-Serif" font-size="10.00" fill="#000000">sys/unistd.h</text>
</a>
</g>
</g>
<!-- Node14&#45;&gt;Node16 -->
<g id="edge26" class="edge">
<title>Node14&#45;&gt;Node16</title>
<path fill="none" stroke="#191970" d="M812.1742,-112.2455C812.3047,-104.9382 812.4876,-94.6944 812.6481,-85.7046"/>
<polygon fill="#191970" stroke="#191970" points="816.1486,-85.7036 812.8278,-75.6427 809.1497,-85.5786 816.1486,-85.7036"/>
</g>
<!-- Node18 -->
<g id="node18" class="node">
<title>Node18</title>
<g id="a_node18"><a xlink:href="time_8h.html" target="_top" xlink:title=" ">
<polygon fill="#ffffff" stroke="#000000" points="870,-56.5 870,-75.5 938,-75.5 938,-56.5 870,-56.5"/>
<text text-anchor="middle" x="904" y="-63.5" font-family="Helvetica,sans-Serif" font-size="10.00" fill="#000000">sys/time.h</text>
</a>
</g>
</g>
<!-- Node17&#45;&gt;Node18 -->
<g id="edge28" class="edge">
<title>Node17&#45;&gt;Node18</title>
<path fill="none" stroke="#191970" d="M904,-112.2455C904,-104.9382 904,-94.6944 904,-85.7046"/>
<polygon fill="#191970" stroke="#191970" points="907.5001,-85.6426 904,-75.6427 900.5001,-85.6427 907.5001,-85.6426"/>
</g>
<!-- Node19&#45;&gt;Node2 -->
<g id="edge31" class="edge">
<title>Node19&#45;&gt;Node2</title>
<path fill="none" stroke="#191970" d="M509.4803,-168.3733C487.3627,-158.9184 453.5387,-144.4593 429.5465,-134.2031"/>
<polygon fill="#191970" stroke="#191970" points="430.8168,-130.9398 420.2459,-130.2273 428.0652,-137.3763 430.8168,-130.9398"/>
</g>
<!-- Node20 -->
<g id="node20" class="node">
<title>Node20</title>
<g id="a_node20"><a xlink:title=" ">
<polygon fill="#ffffff" stroke="#bfbfbf" points="504,-112.5 504,-131.5 560,-131.5 560,-112.5 504,-112.5"/>
<text text-anchor="middle" x="532" y="-119.5" font-family="Helvetica,sans-Serif" font-size="10.00" fill="#000000">stdarg.h</text>
</a>
</g>
</g>
<!-- Node19&#45;&gt;Node20 -->
<g id="edge30" class="edge">
<title>Node19&#45;&gt;Node20</title>
<path fill="none" stroke="#191970" d="M532,-168.2455C532,-160.9382 532,-150.6944 532,-141.7046"/>
<polygon fill="#191970" stroke="#191970" points="535.5001,-141.6426 532,-131.6427 528.5001,-141.6427 535.5001,-141.6426"/>
</g>
<!-- Node21&#45;&gt;Node2 -->
<g id="edge34" class="edge">
<title>Node21&#45;&gt;Node2</title>
<path fill="none" stroke="#191970" d="M661.2406,-170.1416C658.1275,-169.3878 655.004,-168.6596 652,-168 572.3134,-150.5041 477.387,-134.376 430.3823,-126.7015"/>
<polygon fill="#191970" stroke="#191970" points="430.7317,-123.2125 420.3001,-125.0653 429.6103,-130.1221 430.7317,-123.2125"/>
</g>
<!-- Node21&#45;&gt;Node3 -->
<g id="edge33" class="edge">
<title>Node21&#45;&gt;Node3</title>
<path fill="none" stroke="#191970" d="M679.6007,-168.4192C661.9524,-154.0655 626.4469,-127.0606 592,-112 540.7922,-89.6113 476.8871,-77.0376 437.5182,-70.8867"/>
<polygon fill="#191970" stroke="#191970" points="437.9882,-67.4181 427.5783,-69.3892 436.9453,-74.3399 437.9882,-67.4181"/>
</g>
<!-- Node21&#45;&gt;Node20 -->
<g id="edge35" class="edge">
<title>Node21&#45;&gt;Node20</title>
<path fill="none" stroke="#191970" d="M663.6669,-168.3733C637.4566,-159.1419 597.7016,-145.1402 568.7332,-134.9375"/>
<polygon fill="#191970" stroke="#191970" points="569.5712,-131.5219 558.9764,-131.5011 567.2458,-138.1244 569.5712,-131.5219"/>
</g>
<!-- Node22 -->
<g id="node22" class="node">
<title>Node22</title>
<g id="a_node22"><a xlink:href="setjmp_8h.html" target="_top" xlink:title=" ">
<polygon fill="#ffffff" stroke="#000000" points="654.5,-112.5 654.5,-131.5 713.5,-131.5 713.5,-112.5 654.5,-112.5"/>
<text text-anchor="middle" x="684" y="-119.5" font-family="Helvetica,sans-Serif" font-size="10.00" fill="#000000">setjmp.h</text>
</a>
</g>
</g>
<!-- Node21&#45;&gt;Node22 -->
<g id="edge36" class="edge">
<title>Node21&#45;&gt;Node22</title>
<path fill="none" stroke="#191970" d="M689.7807,-168.2455C688.8673,-160.9382 687.5868,-150.6944 686.4631,-141.7046"/>
<polygon fill="#191970" stroke="#191970" points="689.9187,-141.1313 685.2053,-131.6427 682.9728,-141.9996 689.9187,-141.1313"/>
</g>
<!-- Node22&#45;&gt;Node5 -->
<g id="edge37" class="edge">
<title>Node22&#45;&gt;Node5</title>
<path fill="none" stroke="#191970" d="M654.386,-113.5818C585.4793,-93.9941 414.14,-45.2885 333.3986,-22.3367"/>
<polygon fill="#191970" stroke="#191970" points="334.127,-18.9051 323.551,-19.5373 332.2129,-25.6384 334.127,-18.9051"/>
</g>
<!-- Node23&#45;&gt;Node2 -->
<g id="edge40" class="edge">
<title>Node23&#45;&gt;Node2</title>
<path fill="none" stroke="#191970" d="M574.653,-168.7527C534.2579,-157.8771 467.916,-140.0159 429.9962,-129.8067"/>
<polygon fill="#191970" stroke="#191970" points="430.6658,-126.3624 420.0997,-127.1422 428.8459,-133.1217 430.6658,-126.3624"/>
</g>
<!-- Node23&#45;&gt;Node3 -->
<g id="edge39" class="edge">
<title>Node23&#45;&gt;Node3</title>
<path fill="none" stroke="#191970" d="M605.7842,-168.3266C600.4692,-153.852 588.4628,-126.6914 569,-112 548.4306,-96.4733 480.7777,-81.2304 437.8566,-72.7764"/>
<polygon fill="#191970" stroke="#191970" points="438.2672,-69.291 427.7844,-70.8274 436.9373,-76.1635 438.2672,-69.291"/>
</g>
<!-- Node23&#45;&gt;Node20 -->
<g id="edge41" class="edge">
<title>Node23&#45;&gt;Node20</title>
<path fill="none" stroke="#191970" d="M595.5876,-168.2455C583.9943,-159.814 567.0252,-147.4729 553.5322,-137.6598"/>
<polygon fill="#191970" stroke="#191970" points="555.4047,-134.6938 545.2587,-131.6427 551.2874,-140.355 555.4047,-134.6938"/>
</g>
<!-- Node24&#45;&gt;Node2 -->
<g id="edge44" class="edge">
<title>Node24&#45;&gt;Node2</title>
<path fill="none" stroke="#191970" d="M448.8972,-168.2455C440.4972,-160.1352 428.3506,-148.4075 418.3916,-138.7919"/>
<polygon fill="#191970" stroke="#191970" points="420.6122,-136.0707 410.9871,-131.6427 415.75,-141.1066 420.6122,-136.0707"/>
</g>
<!-- Node24&#45;&gt;Node3 -->
<g id="edge43" class="edge">
<title>Node24&#45;&gt;Node3</title>
<path fill="none" stroke="#191970" d="M455.0774,-168.4287C449.6553,-155.4327 439.361,-131.5799 429,-112 424.0437,-102.6337 417.9874,-92.5441 412.7768,-84.2076"/>
<polygon fill="#191970" stroke="#191970" points="415.6721,-82.2379 407.3568,-75.6724 409.7629,-85.9904 415.6721,-82.2379"/>
</g>
<!-- Node25&#45;&gt;Node2 -->
<g id="edge47" class="edge">
<title>Node25&#45;&gt;Node2</title>
<path fill="none" stroke="#191970" d="M281.7545,-168.3733C306.8536,-158.6125 345.6667,-143.5185 372.1456,-133.2212"/>
<polygon fill="#191970" stroke="#191970" points="373.5841,-136.4171 381.6356,-129.5306 371.047,-129.8931 373.5841,-136.4171"/>
</g>
<!-- Node25&#45;&gt;Node3 -->
<g id="edge46" class="edge">
<title>Node25&#45;&gt;Node3</title>
<path fill="none" stroke="#191970" d="M269.2774,-168.4509C294.0387,-149.1921 350.1862,-105.5218 380.5655,-81.8935"/>
<polygon fill="#191970" stroke="#191970" points="383.009,-84.4271 388.7537,-75.5249 378.7114,-78.9016 383.009,-84.4271"/>
</g>
</g>
</svg>
