<?xml version="1.0" encoding="UTF-8" standalone="no"?>
<!DOCTYPE svg PUBLIC "-//W3C//DTD SVG 1.1//EN"
 "http://www.w3.org/Graphics/SVG/1.1/DTD/svg11.dtd">
<!-- Generated by graphviz version 2.40.1 (20161225.0304)
 -->
<!-- Title: iop/hdd/apa/src/hdd_fio.h Pages: 1 -->
<svg width="258pt" height="106pt"
 viewBox="0.00 0.00 258.00 106.00" xmlns="http://www.w3.org/2000/svg" xmlns:xlink="http://www.w3.org/1999/xlink">
<g id="graph0" class="graph" transform="scale(1 1) rotate(0) translate(4 102)">
<title>iop/hdd/apa/src/hdd_fio.h</title>
<polygon fill="#ffffff" stroke="transparent" points="-4,4 -4,-102 254,-102 254,4 -4,4"/>
<!-- Node1 -->
<g id="node1" class="node">
<title>Node1</title>
<g id="a_node1"><a xlink:title=" ">
<polygon fill="#bfbfbf" stroke="#000000" points="71,-67.5 71,-97.5 183,-97.5 183,-67.5 71,-67.5"/>
<text text-anchor="start" x="79" y="-85.5" font-family="Helvetica,sans-Serif" font-size="10.00" fill="#000000">iop/hdd/apa/src/hdd</text>
<text text-anchor="middle" x="127" y="-74.5" font-family="Helvetica,sans-Serif" font-size="10.00" fill="#000000">_fio.h</text>
</a>
</g>
</g>
<!-- Node2 -->
<g id="node2" class="node">
<title>Node2</title>
<g id="a_node2"><a xlink:href="hdd_8c.html" target="_top" xlink:title=" ">
<polygon fill="#ffffff" stroke="#000000" points="0,-6 0,-25 120,-25 120,-6 0,-6"/>
<text text-anchor="middle" x="60" y="-13" font-family="Helvetica,sans-Serif" font-size="10.00" fill="#000000">iop/hdd/apa/src/hdd.c</text>
</a>
</g>
</g>
<!-- Node1&#45;&gt;Node2 -->
<g id="edge1" class="edge">
<title>Node1&#45;&gt;Node2</title>
<path fill="none" stroke="#191970" d="M104.7032,-60.2032C92.7634,-48.2634 78.6776,-34.1776 69.555,-25.055"/>
<polygon fill="#191970" stroke="#191970" points="102.2507,-62.7004 111.7967,-67.2967 107.2004,-57.7507 102.2507,-62.7004"/>
</g>
<!-- Node3 -->
<g id="node3" class="node">
<title>Node3</title>
<g id="a_node3"><a xlink:href="hdd__fio_8c.html" target="_top" xlink:title=" ">
<polygon fill="#ffffff" stroke="#000000" points="138,-.5 138,-30.5 250,-30.5 250,-.5 138,-.5"/>
<text text-anchor="start" x="146" y="-18.5" font-family="Helvetica,sans-Serif" font-size="10.00" fill="#000000">iop/hdd/apa/src/hdd</text>
<text text-anchor="middle" x="194" y="-7.5" font-family="Helvetica,sans-Serif" font-size="10.00" fill="#000000">_fio.c</text>
</a>
</g>
</g>
<!-- Node1&#45;&gt;Node3 -->
<g id="edge2" class="edge">
<title>Node1&#45;&gt;Node3</title>
<path fill="none" stroke="#191970" d="M149.2887,-60.2113C158.9991,-50.5009 170.1302,-39.3698 178.8568,-30.6432"/>
<polygon fill="#191970" stroke="#191970" points="146.7996,-57.7507 142.2033,-67.2967 151.7493,-62.7004 146.7996,-57.7507"/>
</g>
</g>
</svg>
