<?xml version="1.0" encoding="UTF-8" standalone="no"?>
<!DOCTYPE svg PUBLIC "-//W3C//DTD SVG 1.1//EN"
 "http://www.w3.org/Graphics/SVG/1.1/DTD/svg11.dtd">
<!-- Generated by graphviz version 2.40.1 (20161225.0304)
 -->
<!-- Title: iop/hdd/apa/src/hdd.h Pages: 1 -->
<svg width="258pt" height="95pt"
 viewBox="0.00 0.00 258.00 95.00" xmlns="http://www.w3.org/2000/svg" xmlns:xlink="http://www.w3.org/1999/xlink">
<g id="graph0" class="graph" transform="scale(1 1) rotate(0) translate(4 91)">
<title>iop/hdd/apa/src/hdd.h</title>
<polygon fill="#ffffff" stroke="transparent" points="-4,4 -4,-91 254,-91 254,4 -4,4"/>
<!-- Node1 -->
<g id="node1" class="node">
<title>Node1</title>
<g id="a_node1"><a xlink:title=" ">
<polygon fill="#bfbfbf" stroke="#000000" points="66.5,-67.5 66.5,-86.5 187.5,-86.5 187.5,-67.5 66.5,-67.5"/>
<text text-anchor="middle" x="127" y="-74.5" font-family="Helvetica,sans-Serif" font-size="10.00" fill="#000000">iop/hdd/apa/src/hdd.h</text>
</a>
</g>
</g>
<!-- Node2 -->
<g id="node2" class="node">
<title>Node2</title>
<g id="a_node2"><a xlink:href="hdd_8c.html" target="_top" xlink:title=" ">
<polygon fill="#ffffff" stroke="#000000" points="0,-6 0,-25 120,-25 120,-6 0,-6"/>
<text text-anchor="middle" x="60" y="-13" font-family="Helvetica,sans-Serif" font-size="10.00" fill="#000000">iop/hdd/apa/src/hdd.c</text>
</a>
</g>
</g>
<!-- Node1&#45;&gt;Node2 -->
<g id="edge1" class="edge">
<title>Node1&#45;&gt;Node2</title>
<path fill="none" stroke="#191970" d="M109.0769,-60.5482C96.8007,-49.2798 80.9345,-34.716 70.6163,-25.2449"/>
<polygon fill="#191970" stroke="#191970" points="106.7975,-63.2068 116.5313,-67.3906 111.531,-58.0499 106.7975,-63.2068"/>
</g>
<!-- Node3 -->
<g id="node3" class="node">
<title>Node3</title>
<g id="a_node3"><a xlink:href="hdd__fio_8c.html" target="_top" xlink:title=" ">
<polygon fill="#ffffff" stroke="#000000" points="138,-.5 138,-30.5 250,-30.5 250,-.5 138,-.5"/>
<text text-anchor="start" x="146" y="-18.5" font-family="Helvetica,sans-Serif" font-size="10.00" fill="#000000">iop/hdd/apa/src/hdd</text>
<text text-anchor="middle" x="194" y="-7.5" font-family="Helvetica,sans-Serif" font-size="10.00" fill="#000000">_fio.c</text>
</a>
</g>
</g>
<!-- Node1&#45;&gt;Node3 -->
<g id="edge2" class="edge">
<title>Node1&#45;&gt;Node3</title>
<path fill="none" stroke="#191970" d="M144.9892,-60.4875C155.1412,-51.1689 167.7321,-39.6116 177.61,-30.5446"/>
<polygon fill="#191970" stroke="#191970" points="142.469,-58.0499 137.4688,-67.3906 147.2025,-63.2068 142.469,-58.0499"/>
</g>
</g>
</svg>
