<?xml version="1.0" encoding="UTF-8" standalone="no"?>
<!DOCTYPE svg PUBLIC "-//W3C//DTD SVG 1.1//EN"
 "http://www.w3.org/Graphics/SVG/1.1/DTD/svg11.dtd">
<!-- Generated by graphviz version 2.40.1 (20161225.0304)
 -->
<!-- Title: iop/usb/usbd/src/hub.c Pages: 1 -->
<svg width="475pt" height="364pt"
 viewBox="0.00 0.00 475.44 364.00" xmlns="http://www.w3.org/2000/svg" xmlns:xlink="http://www.w3.org/1999/xlink">
<g id="graph0" class="graph" transform="scale(1 1) rotate(0) translate(4 360)">
<title>iop/usb/usbd/src/hub.c</title>
<polygon fill="#ffffff" stroke="transparent" points="-4,4 -4,-360 471.441,-360 471.441,4 -4,4"/>
<!-- Node1 -->
<g id="node1" class="node">
<title>Node1</title>
<g id="a_node1"><a xlink:title=" ">
<polygon fill="#bfbfbf" stroke="#000000" points="172.441,-336.5 172.441,-355.5 297.441,-355.5 297.441,-336.5 172.441,-336.5"/>
<text text-anchor="middle" x="234.941" y="-343.5" font-family="Helvetica,sans-Serif" font-size="10.00" fill="#000000">iop/usb/usbd/src/hub.c</text>
</a>
</g>
</g>
<!-- Node2 -->
<g id="node2" class="node">
<title>Node2</title>
<g id="a_node2"><a xlink:href="usbdpriv_8h.html" target="_top" xlink:title=" ">
<polygon fill="#ffffff" stroke="#000000" points="141.441,-224.5 141.441,-243.5 208.441,-243.5 208.441,-224.5 141.441,-224.5"/>
<text text-anchor="middle" x="174.941" y="-231.5" font-family="Helvetica,sans-Serif" font-size="10.00" fill="#000000">usbdpriv.h</text>
</a>
</g>
</g>
<!-- Node1&#45;&gt;Node2 -->
<g id="edge1" class="edge">
<title>Node1&#45;&gt;Node2</title>
<path fill="none" stroke="#191970" d="M233.5042,-336.0756C231.2573,-322.6796 226.0783,-298.3748 215.941,-280 210.0498,-269.3217 201.275,-259.0318 193.3531,-250.9019"/>
<polygon fill="#191970" stroke="#191970" points="195.4473,-248.054 185.8538,-243.5577 190.5495,-253.0552 195.4473,-248.054"/>
</g>
<!-- Node9 -->
<g id="node9" class="node">
<title>Node9</title>
<g id="a_node9"><a xlink:href="hcd_8h.html" target="_top" xlink:title=" ">
<polygon fill="#ffffff" stroke="#000000" points="263.441,-280.5 263.441,-299.5 306.441,-299.5 306.441,-280.5 263.441,-280.5"/>
<text text-anchor="middle" x="284.941" y="-287.5" font-family="Helvetica,sans-Serif" font-size="10.00" fill="#000000">hcd.h</text>
</a>
</g>
</g>
<!-- Node1&#45;&gt;Node9 -->
<g id="edge9" class="edge">
<title>Node1&#45;&gt;Node9</title>
<path fill="none" stroke="#191970" d="M243.6503,-336.2455C250.7483,-328.2958 260.9494,-316.8706 269.436,-307.3656"/>
<polygon fill="#191970" stroke="#191970" points="272.2821,-309.4331 276.3315,-299.6427 267.0605,-304.771 272.2821,-309.4331"/>
</g>
<!-- Node10 -->
<g id="node10" class="node">
<title>Node10</title>
<g id="a_node10"><a xlink:href="mem_8h.html" target="_top" xlink:title=" ">
<polygon fill="#ffffff" stroke="#000000" points="14.441,-280.5 14.441,-299.5 65.441,-299.5 65.441,-280.5 14.441,-280.5"/>
<text text-anchor="middle" x="39.941" y="-287.5" font-family="Helvetica,sans-Serif" font-size="10.00" fill="#000000">mem.h</text>
</a>
</g>
</g>
<!-- Node1&#45;&gt;Node10 -->
<g id="edge11" class="edge">
<title>Node1&#45;&gt;Node10</title>
<path fill="none" stroke="#191970" d="M201.4193,-336.3733C166.3344,-326.2976 111.4606,-310.539 75.5974,-300.2398"/>
<polygon fill="#191970" stroke="#191970" points="76.1477,-296.7564 65.5701,-297.3601 74.2155,-303.4845 76.1477,-296.7564"/>
</g>
<!-- Node11 -->
<g id="node11" class="node">
<title>Node11</title>
<g id="a_node11"><a xlink:href="usbio_8h.html" target="_top" xlink:title=" ">
<polygon fill="#ffffff" stroke="#000000" points="154.941,-280.5 154.941,-299.5 206.941,-299.5 206.941,-280.5 154.941,-280.5"/>
<text text-anchor="middle" x="180.941" y="-287.5" font-family="Helvetica,sans-Serif" font-size="10.00" fill="#000000">usbio.h</text>
</a>
</g>
</g>
<!-- Node1&#45;&gt;Node11 -->
<g id="edge13" class="edge">
<title>Node1&#45;&gt;Node11</title>
<path fill="none" stroke="#191970" d="M225.5349,-336.2455C217.7917,-328.2155 206.629,-316.6394 197.4092,-307.0781"/>
<polygon fill="#191970" stroke="#191970" points="199.7001,-304.4117 190.2393,-299.6427 194.6612,-309.2706 199.7001,-304.4117"/>
</g>
<!-- Node12 -->
<g id="node12" class="node">
<title>Node12</title>
<g id="a_node12"><a xlink:href="driver_8h.html" target="_top" xlink:title=" ">
<polygon fill="#ffffff" stroke="#000000" points="83.441,-280.5 83.441,-299.5 136.441,-299.5 136.441,-280.5 83.441,-280.5"/>
<text text-anchor="middle" x="109.941" y="-287.5" font-family="Helvetica,sans-Serif" font-size="10.00" fill="#000000">driver.h</text>
</a>
</g>
</g>
<!-- Node1&#45;&gt;Node12 -->
<g id="edge14" class="edge">
<title>Node1&#45;&gt;Node12</title>
<path fill="none" stroke="#191970" d="M213.4527,-336.3733C193.297,-327.3435 162.9529,-313.7494 140.3229,-303.6111"/>
<polygon fill="#191970" stroke="#191970" points="141.7059,-300.3955 131.1488,-299.5011 138.8439,-306.7838 141.7059,-300.3955"/>
</g>
<!-- Node13 -->
<g id="node13" class="node">
<title>Node13</title>
<g id="a_node13"><a xlink:href="defs_8h.html" target="_top" xlink:title=" ">
<polygon fill="#ffffff" stroke="#000000" points="15.441,-224.5 15.441,-243.5 62.441,-243.5 62.441,-224.5 15.441,-224.5"/>
<text text-anchor="middle" x="38.941" y="-231.5" font-family="Helvetica,sans-Serif" font-size="10.00" fill="#000000">defs.h</text>
</a>
</g>
</g>
<!-- Node1&#45;&gt;Node13 -->
<g id="edge16" class="edge">
<title>Node1&#45;&gt;Node13</title>
<path fill="none" stroke="#191970" d="M172.2967,-342.1946C111.6019,-337.0452 25.7558,-325.39 4.941,-300 -7.3319,-285.0295 6.4976,-264.9085 20.0267,-250.8328"/>
<polygon fill="#191970" stroke="#191970" points="22.6224,-253.1905 27.3443,-243.7061 17.7384,-248.1758 22.6224,-253.1905"/>
</g>
<!-- Node14 -->
<g id="node14" class="node">
<title>Node14</title>
<g id="a_node14"><a xlink:href="stdio_8h.html" target="_top" xlink:title=" ">
<polygon fill="#ffffff" stroke="#000000" points="338.941,-168.5 338.941,-187.5 388.941,-187.5 388.941,-168.5 338.941,-168.5"/>
<text text-anchor="middle" x="363.941" y="-175.5" font-family="Helvetica,sans-Serif" font-size="10.00" fill="#000000">stdio.h</text>
</a>
</g>
</g>
<!-- Node1&#45;&gt;Node14 -->
<g id="edge18" class="edge">
<title>Node1&#45;&gt;Node14</title>
<path fill="none" stroke="#191970" d="M273.91,-336.4211C294.2637,-329.5055 317.9794,-318.1137 332.941,-300 357.3085,-270.4988 362.8451,-224.2828 363.9108,-198.016"/>
<polygon fill="#191970" stroke="#191970" points="367.415,-197.8593 364.1367,-187.7844 360.4167,-197.7047 367.415,-197.8593"/>
</g>
<!-- Node16 -->
<g id="node16" class="node">
<title>Node16</title>
<g id="a_node16"><a xlink:href="sysclib_8h.html" target="_top" xlink:title=" ">
<polygon fill="#ffffff" stroke="#000000" points="407.441,-168.5 407.441,-187.5 466.441,-187.5 466.441,-168.5 407.441,-168.5"/>
<text text-anchor="middle" x="436.941" y="-175.5" font-family="Helvetica,sans-Serif" font-size="10.00" fill="#000000">sysclib.h</text>
</a>
</g>
</g>
<!-- Node1&#45;&gt;Node16 -->
<g id="edge21" class="edge">
<title>Node1&#45;&gt;Node16</title>
<path fill="none" stroke="#191970" d="M275.3352,-336.4829C299.3909,-329.3503 329.5021,-317.7202 351.941,-300 388.0684,-271.4698 415.1092,-223.4878 428.1922,-196.9982"/>
<polygon fill="#191970" stroke="#191970" points="431.4914,-198.2121 432.653,-187.6811 425.1777,-195.1892 431.4914,-198.2121"/>
</g>
<!-- Node18 -->
<g id="node18" class="node">
<title>Node18</title>
<g id="a_node18"><a xlink:href="sysmem_8h.html" target="_top" xlink:title=" ">
<polygon fill="#ffffff" stroke="#000000" points="252.941,-168.5 252.941,-187.5 320.941,-187.5 320.941,-168.5 252.941,-168.5"/>
<text text-anchor="middle" x="286.941" y="-175.5" font-family="Helvetica,sans-Serif" font-size="10.00" fill="#000000">sysmem.h</text>
</a>
</g>
</g>
<!-- Node1&#45;&gt;Node18 -->
<g id="edge27" class="edge">
<title>Node1&#45;&gt;Node18</title>
<path fill="none" stroke="#191970" d="M267.6307,-336.4174C285.2772,-329.3899 305.5272,-317.8899 315.941,-300 335.3643,-266.6325 313.9595,-220.9477 298.9726,-196.0242"/>
<polygon fill="#191970" stroke="#191970" points="301.9316,-194.1549 293.6415,-187.5576 296.0081,-197.8847 301.9316,-194.1549"/>
</g>
<!-- Node3 -->
<g id="node3" class="node">
<title>Node3</title>
<g id="a_node3"><a xlink:href="usbd_8h.html" target="_top" xlink:title=" ">
<polygon fill="#ffffff" stroke="#000000" points="185.441,-168.5 185.441,-187.5 234.441,-187.5 234.441,-168.5 185.441,-168.5"/>
<text text-anchor="middle" x="209.941" y="-175.5" font-family="Helvetica,sans-Serif" font-size="10.00" fill="#000000">usbd.h</text>
</a>
</g>
</g>
<!-- Node2&#45;&gt;Node3 -->
<g id="edge2" class="edge">
<title>Node2&#45;&gt;Node3</title>
<path fill="none" stroke="#191970" d="M181.0375,-224.2455C185.8555,-216.5367 192.7161,-205.5598 198.5442,-196.2348"/>
<polygon fill="#191970" stroke="#191970" points="201.5823,-197.9777 203.9143,-187.6427 195.6463,-194.2677 201.5823,-197.9777"/>
</g>
<!-- Node4 -->
<g id="node4" class="node">
<title>Node4</title>
<g id="a_node4"><a xlink:title=" ">
<polygon fill="#ffffff" stroke="#bfbfbf" points="159.441,-112.5 159.441,-131.5 212.441,-131.5 212.441,-112.5 159.441,-112.5"/>
<text text-anchor="middle" x="185.941" y="-119.5" font-family="Helvetica,sans-Serif" font-size="10.00" fill="#000000">types.h</text>
</a>
</g>
</g>
<!-- Node2&#45;&gt;Node4 -->
<g id="edge8" class="edge">
<title>Node2&#45;&gt;Node4</title>
<path fill="none" stroke="#191970" d="M174.7404,-224.1245C174.592,-211.189 174.7165,-187.8222 176.941,-168 177.9143,-159.3269 179.6517,-149.8473 181.3422,-141.7591"/>
<polygon fill="#191970" stroke="#191970" points="184.8029,-142.3182 183.542,-131.7986 177.9677,-140.8085 184.8029,-142.3182"/>
</g>
<!-- Node3&#45;&gt;Node4 -->
<g id="edge3" class="edge">
<title>Node3&#45;&gt;Node4</title>
<path fill="none" stroke="#191970" d="M205.7605,-168.2455C202.56,-160.7776 198.045,-150.2427 194.1326,-141.1137"/>
<polygon fill="#191970" stroke="#191970" points="197.2298,-139.4554 190.0736,-131.6427 190.7958,-142.2129 197.2298,-139.4554"/>
</g>
<!-- Node5 -->
<g id="node5" class="node">
<title>Node5</title>
<g id="a_node5"><a xlink:href="irx_8h.html" target="_top" xlink:title=" ">
<polygon fill="#ffffff" stroke="#000000" points="279.941,-112.5 279.941,-131.5 317.941,-131.5 317.941,-112.5 279.941,-112.5"/>
<text text-anchor="middle" x="298.941" y="-119.5" font-family="Helvetica,sans-Serif" font-size="10.00" fill="#000000">irx.h</text>
</a>
</g>
</g>
<!-- Node3&#45;&gt;Node5 -->
<g id="edge4" class="edge">
<title>Node3&#45;&gt;Node5</title>
<path fill="none" stroke="#191970" d="M225.4436,-168.2455C239.0989,-159.6534 259.2067,-147.0014 274.9399,-137.1018"/>
<polygon fill="#191970" stroke="#191970" points="277.0161,-139.9307 283.616,-131.6427 273.2881,-134.006 277.0161,-139.9307"/>
</g>
<!-- Node6 -->
<g id="node6" class="node">
<title>Node6</title>
<g id="a_node6"><a xlink:href="types_8h.html" target="_top" xlink:title=" ">
<polygon fill="#ffffff" stroke="#000000" points="272.441,-56.5 272.441,-75.5 325.441,-75.5 325.441,-56.5 272.441,-56.5"/>
<text text-anchor="middle" x="298.941" y="-63.5" font-family="Helvetica,sans-Serif" font-size="10.00" fill="#000000">types.h</text>
</a>
</g>
</g>
<!-- Node5&#45;&gt;Node6 -->
<g id="edge5" class="edge">
<title>Node5&#45;&gt;Node6</title>
<path fill="none" stroke="#191970" d="M298.941,-112.2455C298.941,-104.9382 298.941,-94.6944 298.941,-85.7046"/>
<polygon fill="#191970" stroke="#191970" points="302.4411,-85.6426 298.941,-75.6427 295.4411,-85.6427 302.4411,-85.6426"/>
</g>
<!-- Node7 -->
<g id="node7" class="node">
<title>Node7</title>
<g id="a_node7"><a xlink:title=" ">
<polygon fill="#ffffff" stroke="#bfbfbf" points="270.941,-.5 270.941,-19.5 326.941,-19.5 326.941,-.5 270.941,-.5"/>
<text text-anchor="middle" x="298.941" y="-7.5" font-family="Helvetica,sans-Serif" font-size="10.00" fill="#000000">stddef.h</text>
</a>
</g>
</g>
<!-- Node6&#45;&gt;Node7 -->
<g id="edge6" class="edge">
<title>Node6&#45;&gt;Node7</title>
<path fill="none" stroke="#191970" d="M298.941,-56.2455C298.941,-48.9382 298.941,-38.6944 298.941,-29.7046"/>
<polygon fill="#191970" stroke="#191970" points="302.4411,-29.6426 298.941,-19.6427 295.4411,-29.6427 302.4411,-29.6426"/>
</g>
<!-- Node8 -->
<g id="node8" class="node">
<title>Node8</title>
<g id="a_node8"><a xlink:href="tamtypes_8h.html" target="_top" xlink:title=" ">
<polygon fill="#ffffff" stroke="#000000" points="382.941,-.5 382.941,-19.5 454.941,-19.5 454.941,-.5 382.941,-.5"/>
<text text-anchor="middle" x="418.941" y="-7.5" font-family="Helvetica,sans-Serif" font-size="10.00" fill="#000000">tamtypes.h</text>
</a>
</g>
</g>
<!-- Node6&#45;&gt;Node8 -->
<g id="edge7" class="edge">
<title>Node6&#45;&gt;Node8</title>
<path fill="none" stroke="#191970" d="M319.5697,-56.3733C338.8328,-47.3838 367.7896,-33.8706 389.4829,-23.7471"/>
<polygon fill="#191970" stroke="#191970" points="390.9997,-26.9017 398.5814,-19.5011 388.0395,-20.5584 390.9997,-26.9017"/>
</g>
<!-- Node9&#45;&gt;Node2 -->
<g id="edge10" class="edge">
<title>Node9&#45;&gt;Node2</title>
<path fill="none" stroke="#191970" d="M265.7804,-280.2455C248.4299,-271.4125 222.6509,-258.2887 202.9827,-248.2758"/>
<polygon fill="#191970" stroke="#191970" points="204.3815,-245.0605 193.8819,-243.6427 201.2057,-251.2986 204.3815,-245.0605"/>
</g>
<!-- Node10&#45;&gt;Node2 -->
<g id="edge12" class="edge">
<title>Node10&#45;&gt;Node2</title>
<path fill="none" stroke="#191970" d="M63.1483,-280.3733C85.1109,-271.2629 118.2742,-257.5062 142.7811,-247.3404"/>
<polygon fill="#191970" stroke="#191970" points="144.1407,-250.5657 152.0365,-243.5011 141.4586,-244.0999 144.1407,-250.5657"/>
</g>
<!-- Node12&#45;&gt;Node2 -->
<g id="edge15" class="edge">
<title>Node12&#45;&gt;Node2</title>
<path fill="none" stroke="#191970" d="M121.2631,-280.2455C130.8633,-271.9746 144.8302,-259.9416 156.1105,-250.2232"/>
<polygon fill="#191970" stroke="#191970" points="158.457,-252.8214 163.7486,-243.6427 153.888,-247.5182 158.457,-252.8214"/>
</g>
<!-- Node13&#45;&gt;Node6 -->
<g id="edge17" class="edge">
<title>Node13&#45;&gt;Node6</title>
<path fill="none" stroke="#191970" d="M45.0149,-224.4944C60.1001,-201.6477 101.636,-143.2374 150.941,-112 185.35,-90.2001 230.8188,-78.0969 262.234,-71.8455"/>
<polygon fill="#191970" stroke="#191970" points="263.1349,-75.2373 272.3128,-69.9442 261.8373,-68.3587 263.1349,-75.2373"/>
</g>
<!-- Node14&#45;&gt;Node5 -->
<g id="edge20" class="edge">
<title>Node14&#45;&gt;Node5</title>
<path fill="none" stroke="#191970" d="M352.6188,-168.2455C343.0187,-159.9746 329.0518,-147.9416 317.7715,-138.2232"/>
<polygon fill="#191970" stroke="#191970" points="319.994,-135.5182 310.1334,-131.6427 315.425,-140.8214 319.994,-135.5182"/>
</g>
<!-- Node15 -->
<g id="node15" class="node">
<title>Node15</title>
<g id="a_node15"><a xlink:title=" ">
<polygon fill="#ffffff" stroke="#bfbfbf" points="335.941,-112.5 335.941,-131.5 391.941,-131.5 391.941,-112.5 335.941,-112.5"/>
<text text-anchor="middle" x="363.941" y="-119.5" font-family="Helvetica,sans-Serif" font-size="10.00" fill="#000000">stdarg.h</text>
</a>
</g>
</g>
<!-- Node14&#45;&gt;Node15 -->
<g id="edge19" class="edge">
<title>Node14&#45;&gt;Node15</title>
<path fill="none" stroke="#191970" d="M363.941,-168.2455C363.941,-160.9382 363.941,-150.6944 363.941,-141.7046"/>
<polygon fill="#191970" stroke="#191970" points="367.4411,-141.6426 363.941,-131.6427 360.4411,-141.6427 367.4411,-141.6426"/>
</g>
<!-- Node16&#45;&gt;Node5 -->
<g id="edge23" class="edge">
<title>Node16&#45;&gt;Node5</title>
<path fill="none" stroke="#191970" d="M413.2179,-168.3733C389.5427,-158.7659 353.1348,-143.9917 327.7984,-133.7103"/>
<polygon fill="#191970" stroke="#191970" points="328.9319,-130.3931 318.3497,-129.876 326.2997,-136.8794 328.9319,-130.3931"/>
</g>
<!-- Node16&#45;&gt;Node6 -->
<g id="edge22" class="edge">
<title>Node16&#45;&gt;Node6</title>
<path fill="none" stroke="#191970" d="M433.8618,-168.2262C428.9686,-154.1129 418.1701,-127.9722 400.941,-112 382.3706,-94.7844 356.2652,-83.174 335.1135,-75.9243"/>
<polygon fill="#191970" stroke="#191970" points="336.0784,-72.5579 325.4864,-72.803 333.9194,-79.2166 336.0784,-72.5579"/>
</g>
<!-- Node16&#45;&gt;Node15 -->
<g id="edge24" class="edge">
<title>Node16&#45;&gt;Node15</title>
<path fill="none" stroke="#191970" d="M424.2254,-168.2455C413.3389,-159.8943 397.4527,-147.7076 384.721,-137.9408"/>
<polygon fill="#191970" stroke="#191970" points="386.5756,-134.9523 376.5109,-131.6427 382.3149,-140.5063 386.5756,-134.9523"/>
</g>
<!-- Node17 -->
<g id="node17" class="node">
<title>Node17</title>
<g id="a_node17"><a xlink:href="setjmp_8h.html" target="_top" xlink:title=" ">
<polygon fill="#ffffff" stroke="#000000" points="408.441,-56.5 408.441,-75.5 467.441,-75.5 467.441,-56.5 408.441,-56.5"/>
<text text-anchor="middle" x="437.941" y="-63.5" font-family="Helvetica,sans-Serif" font-size="10.00" fill="#000000">setjmp.h</text>
</a>
</g>
</g>
<!-- Node16&#45;&gt;Node17 -->
<g id="edge25" class="edge">
<title>Node16&#45;&gt;Node17</title>
<path fill="none" stroke="#191970" d="M437.0262,-168.4509C437.1893,-150.184 437.5485,-109.9553 437.7651,-85.6976"/>
<polygon fill="#191970" stroke="#191970" points="441.2664,-85.5558 437.8559,-75.5249 434.2667,-85.4932 441.2664,-85.5558"/>
</g>
<!-- Node17&#45;&gt;Node8 -->
<g id="edge26" class="edge">
<title>Node17&#45;&gt;Node8</title>
<path fill="none" stroke="#191970" d="M434.6314,-56.2455C432.0977,-48.7776 428.5233,-38.2427 425.426,-29.1137"/>
<polygon fill="#191970" stroke="#191970" points="428.7401,-27.9879 422.2126,-19.6427 422.1112,-30.237 428.7401,-27.9879"/>
</g>
<!-- Node18&#45;&gt;Node5 -->
<g id="edge29" class="edge">
<title>Node18&#45;&gt;Node5</title>
<path fill="none" stroke="#191970" d="M289.0312,-168.2455C290.5971,-160.9382 292.7922,-150.6944 294.7186,-141.7046"/>
<polygon fill="#191970" stroke="#191970" points="298.2016,-142.1541 296.8747,-131.6427 291.357,-140.6873 298.2016,-142.1541"/>
</g>
<!-- Node18&#45;&gt;Node6 -->
<g id="edge28" class="edge">
<title>Node18&#45;&gt;Node6</title>
<path fill="none" stroke="#191970" d="M281.3629,-168.1032C274.7841,-155.1447 265.4019,-131.7531 270.941,-112 273.7288,-102.0584 279.3221,-92.1336 284.7817,-84.0613"/>
<polygon fill="#191970" stroke="#191970" points="287.7086,-85.9866 290.7321,-75.8323 282.0362,-81.8849 287.7086,-85.9866"/>
</g>
<!-- Node18&#45;&gt;Node15 -->
<g id="edge30" class="edge">
<title>Node18&#45;&gt;Node15</title>
<path fill="none" stroke="#191970" d="M300.3534,-168.2455C311.9467,-159.814 328.9157,-147.4729 342.4088,-137.6598"/>
<polygon fill="#191970" stroke="#191970" points="344.6535,-140.355 350.6823,-131.6427 340.5363,-134.6938 344.6535,-140.355"/>
</g>
</g>
</svg>
