<?xml version="1.0" encoding="UTF-8" standalone="no"?>
<!DOCTYPE svg PUBLIC "-//W3C//DTD SVG 1.1//EN"
 "http://www.w3.org/Graphics/SVG/1.1/DTD/svg11.dtd">
<!-- Generated by graphviz version 2.40.1 (20161225.0304)
 -->
<!-- Title: iop/iLink/IEEE1394_bd/src/sbp2_driver.c Pages: 1 -->
<svg width="1043pt" height="263pt"
 viewBox="0.00 0.00 1042.50 263.00" xmlns="http://www.w3.org/2000/svg" xmlns:xlink="http://www.w3.org/1999/xlink">
<g id="graph0" class="graph" transform="scale(1 1) rotate(0) translate(4 259)">
<title>iop/iLink/IEEE1394_bd/src/sbp2_driver.c</title>
<polygon fill="#ffffff" stroke="transparent" points="-4,4 -4,-259 1038.5,-259 1038.5,4 -4,4"/>
<!-- Node1 -->
<g id="node1" class="node">
<title>Node1</title>
<g id="a_node1"><a xlink:title=" ">
<polygon fill="#bfbfbf" stroke="#000000" points="408,-224.5 408,-254.5 527,-254.5 527,-224.5 408,-224.5"/>
<text text-anchor="start" x="416" y="-242.5" font-family="Helvetica,sans-Serif" font-size="10.00" fill="#000000">iop/iLink/IEEE1394</text>
<text text-anchor="middle" x="467.5" y="-231.5" font-family="Helvetica,sans-Serif" font-size="10.00" fill="#000000">_bd/src/sbp2_driver.c</text>
</a>
</g>
</g>
<!-- Node2 -->
<g id="node2" class="node">
<title>Node2</title>
<g id="a_node2"><a xlink:href="intrman_8h.html" target="_top" xlink:title=" ">
<polygon fill="#ffffff" stroke="#000000" points="476.5,-168.5 476.5,-187.5 540.5,-187.5 540.5,-168.5 476.5,-168.5"/>
<text text-anchor="middle" x="508.5" y="-175.5" font-family="Helvetica,sans-Serif" font-size="10.00" fill="#000000">intrman.h</text>
</a>
</g>
</g>
<!-- Node1&#45;&gt;Node2 -->
<g id="edge1" class="edge">
<title>Node1&#45;&gt;Node2</title>
<path fill="none" stroke="#191970" d="M477.6348,-224.2977C483.2668,-215.8498 490.3151,-205.2773 496.254,-196.369"/>
<polygon fill="#191970" stroke="#191970" points="499.3005,-198.1089 501.9354,-187.8469 493.4762,-194.226 499.3005,-198.1089"/>
</g>
<!-- Node7 -->
<g id="node7" class="node">
<title>Node7</title>
<g id="a_node7"><a xlink:href="loadcore_8h.html" target="_top" xlink:title=" ">
<polygon fill="#ffffff" stroke="#000000" points="77.5,-168.5 77.5,-187.5 145.5,-187.5 145.5,-168.5 77.5,-168.5"/>
<text text-anchor="middle" x="111.5" y="-175.5" font-family="Helvetica,sans-Serif" font-size="10.00" fill="#000000">loadcore.h</text>
</a>
</g>
</g>
<!-- Node1&#45;&gt;Node7 -->
<g id="edge7" class="edge">
<title>Node1&#45;&gt;Node7</title>
<path fill="none" stroke="#191970" d="M407.869,-230.8755C346.895,-221.7892 249.2385,-206.4992 155.6436,-188.1331"/>
<polygon fill="#191970" stroke="#191970" points="156.2129,-184.678 145.7239,-186.1718 154.8551,-191.545 156.2129,-184.678"/>
</g>
<!-- Node8 -->
<g id="node8" class="node">
<title>Node8</title>
<g id="a_node8"><a xlink:href="stdio_8h.html" target="_top" xlink:title=" ">
<polygon fill="#ffffff" stroke="#000000" points="249.5,-168.5 249.5,-187.5 299.5,-187.5 299.5,-168.5 249.5,-168.5"/>
<text text-anchor="middle" x="274.5" y="-175.5" font-family="Helvetica,sans-Serif" font-size="10.00" fill="#000000">stdio.h</text>
</a>
</g>
</g>
<!-- Node1&#45;&gt;Node8 -->
<g id="edge10" class="edge">
<title>Node1&#45;&gt;Node8</title>
<path fill="none" stroke="#191970" d="M420.2869,-224.4554C386.0974,-213.5608 340.625,-199.0709 309.614,-189.1892"/>
<polygon fill="#191970" stroke="#191970" points="310.2794,-185.7279 299.6888,-186.0265 308.1541,-192.3975 310.2794,-185.7279"/>
</g>
<!-- Node10 -->
<g id="node10" class="node">
<title>Node10</title>
<g id="a_node10"><a xlink:href="sysclib_8h.html" target="_top" xlink:title=" ">
<polygon fill="#ffffff" stroke="#000000" points="0,-168.5 0,-187.5 59,-187.5 59,-168.5 0,-168.5"/>
<text text-anchor="middle" x="29.5" y="-175.5" font-family="Helvetica,sans-Serif" font-size="10.00" fill="#000000">sysclib.h</text>
</a>
</g>
</g>
<!-- Node1&#45;&gt;Node10 -->
<g id="edge13" class="edge">
<title>Node1&#45;&gt;Node10</title>
<path fill="none" stroke="#191970" d="M407.987,-234.1191C331.6819,-226.709 195.1762,-211.7328 69.0601,-187.9028"/>
<polygon fill="#191970" stroke="#191970" points="69.7051,-184.4628 59.2257,-186.0223 68.3903,-191.3382 69.7051,-184.4628"/>
</g>
<!-- Node12 -->
<g id="node12" class="node">
<title>Node12</title>
<g id="a_node12"><a xlink:href="sysmem_8h.html" target="_top" xlink:title=" ">
<polygon fill="#ffffff" stroke="#000000" points="163.5,-168.5 163.5,-187.5 231.5,-187.5 231.5,-168.5 163.5,-168.5"/>
<text text-anchor="middle" x="197.5" y="-175.5" font-family="Helvetica,sans-Serif" font-size="10.00" fill="#000000">sysmem.h</text>
</a>
</g>
</g>
<!-- Node1&#45;&gt;Node12 -->
<g id="edge19" class="edge">
<title>Node1&#45;&gt;Node12</title>
<path fill="none" stroke="#191970" d="M407.7372,-226.034C364.275,-216.2196 303.7408,-202.5066 241.7268,-188.274"/>
<polygon fill="#191970" stroke="#191970" points="242.2934,-184.8131 231.7637,-185.9859 240.7265,-191.6355 242.2934,-184.8131"/>
</g>
<!-- Node13 -->
<g id="node13" class="node">
<title>Node13</title>
<g id="a_node13"><a xlink:href="thbase_8h.html" target="_top" xlink:title=" ">
<polygon fill="#ffffff" stroke="#000000" points="318,-168.5 318,-187.5 377,-187.5 377,-168.5 318,-168.5"/>
<text text-anchor="middle" x="347.5" y="-175.5" font-family="Helvetica,sans-Serif" font-size="10.00" fill="#000000">thbase.h</text>
</a>
</g>
</g>
<!-- Node1&#45;&gt;Node13 -->
<g id="edge23" class="edge">
<title>Node1&#45;&gt;Node13</title>
<path fill="none" stroke="#191970" d="M438.1447,-224.4554C418.9127,-214.599 393.9388,-201.7999 375.0759,-192.1327"/>
<polygon fill="#191970" stroke="#191970" points="376.5914,-188.9765 366.0957,-187.5303 373.3987,-195.206 376.5914,-188.9765"/>
</g>
<!-- Node14 -->
<g id="node14" class="node">
<title>Node14</title>
<g id="a_node14"><a xlink:href="thevent_8h.html" target="_top" xlink:title=" ">
<polygon fill="#ffffff" stroke="#000000" points="395,-168.5 395,-187.5 458,-187.5 458,-168.5 395,-168.5"/>
<text text-anchor="middle" x="426.5" y="-175.5" font-family="Helvetica,sans-Serif" font-size="10.00" fill="#000000">thevent.h</text>
</a>
</g>
</g>
<!-- Node1&#45;&gt;Node14 -->
<g id="edge26" class="edge">
<title>Node1&#45;&gt;Node14</title>
<path fill="none" stroke="#191970" d="M457.3652,-224.2977C451.7332,-215.8498 444.6849,-205.2773 438.746,-196.369"/>
<polygon fill="#191970" stroke="#191970" points="441.5238,-194.226 433.0646,-187.8469 435.6995,-198.1089 441.5238,-194.226"/>
</g>
<!-- Node15 -->
<g id="node15" class="node">
<title>Node15</title>
<g id="a_node15"><a xlink:href="iLinkman_8h.html" target="_top" xlink:title=" ">
<polygon fill="#ffffff" stroke="#000000" points="559,-168.5 559,-187.5 630,-187.5 630,-168.5 559,-168.5"/>
<text text-anchor="middle" x="594.5" y="-175.5" font-family="Helvetica,sans-Serif" font-size="10.00" fill="#000000">iLinkman.h</text>
</a>
</g>
</g>
<!-- Node1&#45;&gt;Node15 -->
<g id="edge29" class="edge">
<title>Node1&#45;&gt;Node15</title>
<path fill="none" stroke="#191970" d="M498.5677,-224.4554C519.0145,-214.554 545.5937,-201.683 565.5885,-192.0004"/>
<polygon fill="#191970" stroke="#191970" points="567.3447,-195.0388 574.8195,-187.5303 564.2938,-188.7387 567.3447,-195.0388"/>
</g>
<!-- Node17 -->
<g id="node17" class="node">
<title>Node17</title>
<g id="a_node17"><a xlink:title=" ">
<polygon fill="#ffffff" stroke="#bfbfbf" points="648.5,-168.5 648.5,-187.5 722.5,-187.5 722.5,-168.5 648.5,-168.5"/>
<text text-anchor="middle" x="685.5" y="-175.5" font-family="Helvetica,sans-Serif" font-size="10.00" fill="#000000">sbp2_disk.h</text>
</a>
</g>
</g>
<!-- Node1&#45;&gt;Node17 -->
<g id="edge32" class="edge">
<title>Node1&#45;&gt;Node17</title>
<path fill="none" stroke="#191970" d="M520.8288,-224.4554C558.0003,-213.9689 606.9794,-200.1515 641.8339,-190.3187"/>
<polygon fill="#191970" stroke="#191970" points="643.0437,-193.614 651.7177,-187.5303 641.1431,-186.877 643.0437,-193.614"/>
</g>
<!-- Node18 -->
<g id="node18" class="node">
<title>Node18</title>
<g id="a_node18"><a xlink:title=" ">
<polygon fill="#ffffff" stroke="#bfbfbf" points="740.5,-168.5 740.5,-187.5 784.5,-187.5 784.5,-168.5 740.5,-168.5"/>
<text text-anchor="middle" x="762.5" y="-175.5" font-family="Helvetica,sans-Serif" font-size="10.00" fill="#000000">scsi.h</text>
</a>
</g>
</g>
<!-- Node1&#45;&gt;Node18 -->
<g id="edge33" class="edge">
<title>Node1&#45;&gt;Node18</title>
<path fill="none" stroke="#191970" d="M527.1946,-229.9504C578.6894,-221.2387 655.1717,-207.1711 730.1539,-188.1264"/>
<polygon fill="#191970" stroke="#191970" points="731.4295,-191.4123 740.2421,-185.5311 729.6854,-184.633 731.4295,-191.4123"/>
</g>
<!-- Node19 -->
<g id="node19" class="node">
<title>Node19</title>
<g id="a_node19"><a xlink:href="usbhdfsd-common_8h.html" target="_top" xlink:title=" ">
<polygon fill="#ffffff" stroke="#000000" points="802.5,-168.5 802.5,-187.5 918.5,-187.5 918.5,-168.5 802.5,-168.5"/>
<text text-anchor="middle" x="860.5" y="-175.5" font-family="Helvetica,sans-Serif" font-size="10.00" fill="#000000">usbhdfsd&#45;common.h</text>
</a>
</g>
</g>
<!-- Node1&#45;&gt;Node19 -->
<g id="edge34" class="edge">
<title>Node1&#45;&gt;Node19</title>
<path fill="none" stroke="#191970" d="M527.1882,-230.1595C598.4541,-219.0072 717.3826,-200.3962 792.2365,-188.6825"/>
<polygon fill="#191970" stroke="#191970" points="793.158,-192.0809 802.4966,-187.0769 792.0757,-185.1651 793.158,-192.0809"/>
</g>
<!-- Node20 -->
<g id="node20" class="node">
<title>Node20</title>
<g id="a_node20"><a xlink:title=" ">
<polygon fill="#ffffff" stroke="#bfbfbf" points="936.5,-168.5 936.5,-187.5 1034.5,-187.5 1034.5,-168.5 936.5,-168.5"/>
<text text-anchor="middle" x="985.5" y="-175.5" font-family="Helvetica,sans-Serif" font-size="10.00" fill="#000000">module_debug.h</text>
</a>
</g>
</g>
<!-- Node1&#45;&gt;Node20 -->
<g id="edge35" class="edge">
<title>Node1&#45;&gt;Node20</title>
<path fill="none" stroke="#191970" d="M527.1888,-233.9573C613.0784,-225.7292 776.7283,-209.1122 926.2045,-188.1153"/>
<polygon fill="#191970" stroke="#191970" points="927.0733,-191.5273 936.4845,-186.661 926.0928,-184.5963 927.0733,-191.5273"/>
</g>
<!-- Node3 -->
<g id="node3" class="node">
<title>Node3</title>
<g id="a_node3"><a xlink:href="types_8h.html" target="_top" xlink:title=" ">
<polygon fill="#ffffff" stroke="#000000" points="193,-56.5 193,-75.5 246,-75.5 246,-56.5 193,-56.5"/>
<text text-anchor="middle" x="219.5" y="-63.5" font-family="Helvetica,sans-Serif" font-size="10.00" fill="#000000">types.h</text>
</a>
</g>
</g>
<!-- Node2&#45;&gt;Node3 -->
<g id="edge2" class="edge">
<title>Node2&#45;&gt;Node3</title>
<path fill="none" stroke="#191970" d="M488.8175,-168.3369C460.8851,-154.8145 407.9682,-129.8973 361.5,-112 326.1318,-98.3779 284.8277,-85.3065 255.9143,-76.6027"/>
<polygon fill="#191970" stroke="#191970" points="256.8175,-73.2197 246.2341,-73.7125 254.8148,-79.9272 256.8175,-73.2197"/>
</g>
<!-- Node6 -->
<g id="node6" class="node">
<title>Node6</title>
<g id="a_node6"><a xlink:href="irx_8h.html" target="_top" xlink:title=" ">
<polygon fill="#ffffff" stroke="#000000" points="261.5,-112.5 261.5,-131.5 299.5,-131.5 299.5,-112.5 261.5,-112.5"/>
<text text-anchor="middle" x="280.5" y="-119.5" font-family="Helvetica,sans-Serif" font-size="10.00" fill="#000000">irx.h</text>
</a>
</g>
</g>
<!-- Node2&#45;&gt;Node6 -->
<g id="edge5" class="edge">
<title>Node2&#45;&gt;Node6</title>
<path fill="none" stroke="#191970" d="M476.3167,-170.0953C431.8637,-159.1771 352.331,-139.6427 309.5817,-129.1429"/>
<polygon fill="#191970" stroke="#191970" points="310.3441,-125.7262 299.7978,-126.7398 308.6743,-132.5241 310.3441,-125.7262"/>
</g>
<!-- Node4 -->
<g id="node4" class="node">
<title>Node4</title>
<g id="a_node4"><a xlink:title=" ">
<polygon fill="#ffffff" stroke="#bfbfbf" points="191.5,-.5 191.5,-19.5 247.5,-19.5 247.5,-.5 191.5,-.5"/>
<text text-anchor="middle" x="219.5" y="-7.5" font-family="Helvetica,sans-Serif" font-size="10.00" fill="#000000">stddef.h</text>
</a>
</g>
</g>
<!-- Node3&#45;&gt;Node4 -->
<g id="edge3" class="edge">
<title>Node3&#45;&gt;Node4</title>
<path fill="none" stroke="#191970" d="M219.5,-56.2455C219.5,-48.9382 219.5,-38.6944 219.5,-29.7046"/>
<polygon fill="#191970" stroke="#191970" points="223.0001,-29.6426 219.5,-19.6427 216.0001,-29.6427 223.0001,-29.6426"/>
</g>
<!-- Node5 -->
<g id="node5" class="node">
<title>Node5</title>
<g id="a_node5"><a xlink:href="tamtypes_8h.html" target="_top" xlink:title=" ">
<polygon fill="#ffffff" stroke="#000000" points="93.5,-.5 93.5,-19.5 165.5,-19.5 165.5,-.5 93.5,-.5"/>
<text text-anchor="middle" x="129.5" y="-7.5" font-family="Helvetica,sans-Serif" font-size="10.00" fill="#000000">tamtypes.h</text>
</a>
</g>
</g>
<!-- Node3&#45;&gt;Node5 -->
<g id="edge4" class="edge">
<title>Node3&#45;&gt;Node5</title>
<path fill="none" stroke="#191970" d="M203.8232,-56.2455C190.0144,-47.6534 169.6807,-35.0014 153.7708,-25.1018"/>
<polygon fill="#191970" stroke="#191970" points="155.3368,-21.954 144.9972,-19.6427 151.6387,-27.8974 155.3368,-21.954"/>
</g>
<!-- Node6&#45;&gt;Node3 -->
<g id="edge6" class="edge">
<title>Node6&#45;&gt;Node3</title>
<path fill="none" stroke="#191970" d="M269.8746,-112.2455C260.9527,-104.0549 248.012,-92.1749 237.4808,-82.5069"/>
<polygon fill="#191970" stroke="#191970" points="239.7371,-79.8271 230.0036,-75.6427 235.0032,-84.9837 239.7371,-79.8271"/>
</g>
<!-- Node7&#45;&gt;Node3 -->
<g id="edge8" class="edge">
<title>Node7&#45;&gt;Node3</title>
<path fill="none" stroke="#191970" d="M120.0411,-168.462C131.7066,-155.5037 153.3618,-131.6935 172.5,-112 182.1008,-102.1207 193.092,-91.3356 202.0303,-82.6931"/>
<polygon fill="#191970" stroke="#191970" points="204.4914,-85.1822 209.2702,-75.7264 199.6376,-80.1382 204.4914,-85.1822"/>
</g>
<!-- Node7&#45;&gt;Node6 -->
<g id="edge9" class="edge">
<title>Node7&#45;&gt;Node6</title>
<path fill="none" stroke="#191970" d="M141.5613,-168.4585C168.2073,-159.9426 208.396,-146.9568 251.6728,-132.2256"/>
<polygon fill="#191970" stroke="#191970" points="252.9132,-135.5005 261.2448,-128.9558 250.6503,-128.8764 252.9132,-135.5005"/>
</g>
<!-- Node8&#45;&gt;Node6 -->
<g id="edge12" class="edge">
<title>Node8&#45;&gt;Node6</title>
<path fill="none" stroke="#191970" d="M275.5451,-168.2455C276.328,-160.9382 277.4256,-150.6944 278.3888,-141.7046"/>
<polygon fill="#191970" stroke="#191970" points="281.8815,-141.9587 279.4669,-131.6427 274.9214,-141.2129 281.8815,-141.9587"/>
</g>
<!-- Node9 -->
<g id="node9" class="node">
<title>Node9</title>
<g id="a_node9"><a xlink:title=" ">
<polygon fill="#ffffff" stroke="#bfbfbf" points="187.5,-112.5 187.5,-131.5 243.5,-131.5 243.5,-112.5 187.5,-112.5"/>
<text text-anchor="middle" x="215.5" y="-119.5" font-family="Helvetica,sans-Serif" font-size="10.00" fill="#000000">stdarg.h</text>
</a>
</g>
</g>
<!-- Node8&#45;&gt;Node9 -->
<g id="edge11" class="edge">
<title>Node8&#45;&gt;Node9</title>
<path fill="none" stroke="#191970" d="M264.223,-168.2455C255.6782,-160.1352 243.3222,-148.4075 233.1915,-138.7919"/>
<polygon fill="#191970" stroke="#191970" points="235.3218,-135.9884 225.6592,-131.6427 230.5028,-141.0655 235.3218,-135.9884"/>
</g>
<!-- Node10&#45;&gt;Node3 -->
<g id="edge14" class="edge">
<title>Node10&#45;&gt;Node3</title>
<path fill="none" stroke="#191970" d="M45.6993,-168.4509C78.9315,-148.8615 155.0099,-104.0152 194.5718,-80.6945"/>
<polygon fill="#191970" stroke="#191970" points="196.5044,-83.6182 203.3417,-75.5249 192.9497,-77.5879 196.5044,-83.6182"/>
</g>
<!-- Node10&#45;&gt;Node6 -->
<g id="edge15" class="edge">
<title>Node10&#45;&gt;Node6</title>
<path fill="none" stroke="#191970" d="M59.2676,-170.1785C62.3792,-169.4175 65.5,-168.6775 68.5,-168 146.7651,-150.3252 170.4077,-153.7776 251.6814,-131.9128"/>
<polygon fill="#191970" stroke="#191970" points="252.6198,-135.2847 261.3414,-129.2693 250.7722,-128.533 252.6198,-135.2847"/>
</g>
<!-- Node10&#45;&gt;Node9 -->
<g id="edge16" class="edge">
<title>Node10&#45;&gt;Node9</title>
<path fill="none" stroke="#191970" d="M59.3841,-169.0026C91.4426,-159.3506 142.4468,-143.9945 177.3745,-133.4786"/>
<polygon fill="#191970" stroke="#191970" points="178.6479,-136.7505 187.2143,-130.5161 176.6298,-130.0477 178.6479,-136.7505"/>
</g>
<!-- Node11 -->
<g id="node11" class="node">
<title>Node11</title>
<g id="a_node11"><a xlink:href="setjmp_8h.html" target="_top" xlink:title=" ">
<polygon fill="#ffffff" stroke="#000000" points="84,-56.5 84,-75.5 143,-75.5 143,-56.5 84,-56.5"/>
<text text-anchor="middle" x="113.5" y="-63.5" font-family="Helvetica,sans-Serif" font-size="10.00" fill="#000000">setjmp.h</text>
</a>
</g>
</g>
<!-- Node10&#45;&gt;Node11 -->
<g id="edge17" class="edge">
<title>Node10&#45;&gt;Node11</title>
<path fill="none" stroke="#191970" d="M33.9633,-168.0699C40.2262,-154.6673 52.4432,-130.3553 66.5,-112 74.6611,-101.3433 85.2385,-90.7734 94.2917,-82.4579"/>
<polygon fill="#191970" stroke="#191970" points="96.6334,-85.0592 101.7563,-75.7852 91.9682,-79.8404 96.6334,-85.0592"/>
</g>
<!-- Node11&#45;&gt;Node5 -->
<g id="edge18" class="edge">
<title>Node11&#45;&gt;Node5</title>
<path fill="none" stroke="#191970" d="M116.287,-56.2455C118.3977,-48.8579 121.366,-38.4689 123.9547,-29.4087"/>
<polygon fill="#191970" stroke="#191970" points="127.363,-30.2195 126.745,-19.6427 120.6323,-28.2964 127.363,-30.2195"/>
</g>
<!-- Node12&#45;&gt;Node3 -->
<g id="edge20" class="edge">
<title>Node12&#45;&gt;Node3</title>
<path fill="none" stroke="#191970" d="M190.9045,-168.4377C182.811,-155.452 171.0289,-131.6107 178.5,-112 182.7275,-100.9034 190.9971,-90.7814 199.0088,-82.8751"/>
<polygon fill="#191970" stroke="#191970" points="201.7703,-85.0916 206.7752,-75.7534 197.0393,-79.9323 201.7703,-85.0916"/>
</g>
<!-- Node12&#45;&gt;Node6 -->
<g id="edge21" class="edge">
<title>Node12&#45;&gt;Node6</title>
<path fill="none" stroke="#191970" d="M211.9575,-168.2455C224.5732,-159.7337 243.0944,-147.2375 257.7045,-137.3801"/>
<polygon fill="#191970" stroke="#191970" points="259.8761,-140.1371 266.2082,-131.6427 255.9609,-134.3343 259.8761,-140.1371"/>
</g>
<!-- Node12&#45;&gt;Node9 -->
<g id="edge22" class="edge">
<title>Node12&#45;&gt;Node9</title>
<path fill="none" stroke="#191970" d="M200.6354,-168.2455C203.01,-160.8579 206.3493,-150.4689 209.2615,-141.4087"/>
<polygon fill="#191970" stroke="#191970" points="212.6725,-142.234 212.4006,-131.6427 206.0083,-140.0919 212.6725,-142.234"/>
</g>
<!-- Node13&#45;&gt;Node3 -->
<g id="edge24" class="edge">
<title>Node13&#45;&gt;Node3</title>
<path fill="none" stroke="#191970" d="M343.8332,-168.3534C338.12,-154.3985 325.9131,-128.4533 308.5,-112 293.3529,-97.6878 272.8894,-86.6965 255.4037,-79.0525"/>
<polygon fill="#191970" stroke="#191970" points="256.6252,-75.7698 246.0484,-75.1504 253.9304,-82.2303 256.6252,-75.7698"/>
</g>
<!-- Node13&#45;&gt;Node6 -->
<g id="edge25" class="edge">
<title>Node13&#45;&gt;Node6</title>
<path fill="none" stroke="#191970" d="M335.8295,-168.2455C325.9339,-159.9746 311.5373,-147.9416 299.9099,-138.2232"/>
<polygon fill="#191970" stroke="#191970" points="301.9542,-135.3703 292.0368,-131.6427 297.465,-140.7413 301.9542,-135.3703"/>
</g>
<!-- Node14&#45;&gt;Node3 -->
<g id="edge27" class="edge">
<title>Node14&#45;&gt;Node3</title>
<path fill="none" stroke="#191970" d="M414.3039,-168.3689C396.5729,-154.6628 362.3136,-129.28 330.5,-112 306.4969,-98.9624 278.0075,-87.2271 255.9014,-78.8729"/>
<polygon fill="#191970" stroke="#191970" points="256.8256,-75.4826 246.2327,-75.2799 254.3872,-82.0442 256.8256,-75.4826"/>
</g>
<!-- Node14&#45;&gt;Node6 -->
<g id="edge28" class="edge">
<title>Node14&#45;&gt;Node6</title>
<path fill="none" stroke="#191970" d="M401.4017,-168.3733C375.8094,-158.557 336.1541,-143.3468 309.2988,-133.0461"/>
<polygon fill="#191970" stroke="#191970" points="310.2791,-129.6736 299.6889,-129.3601 307.7723,-136.2093 310.2791,-129.6736"/>
</g>
<!-- Node15&#45;&gt;Node6 -->
<g id="edge31" class="edge">
<title>Node15&#45;&gt;Node6</title>
<path fill="none" stroke="#191970" d="M558.6721,-169.8712C555.5738,-169.219 552.4841,-168.5863 549.5,-168 462.6588,-150.9367 359.3293,-134.2835 309.8083,-126.5266"/>
<polygon fill="#191970" stroke="#191970" points="310.2244,-123.0493 299.8044,-124.9662 309.1455,-129.9656 310.2244,-123.0493"/>
</g>
<!-- Node16 -->
<g id="node16" class="node">
<title>Node16</title>
<g id="a_node16"><a xlink:title=" ">
<polygon fill="#ffffff" stroke="#bfbfbf" points="568,-112.5 568,-131.5 621,-131.5 621,-112.5 568,-112.5"/>
<text text-anchor="middle" x="594.5" y="-119.5" font-family="Helvetica,sans-Serif" font-size="10.00" fill="#000000">types.h</text>
</a>
</g>
</g>
<!-- Node15&#45;&gt;Node16 -->
<g id="edge30" class="edge">
<title>Node15&#45;&gt;Node16</title>
<path fill="none" stroke="#191970" d="M594.5,-168.2455C594.5,-160.9382 594.5,-150.6944 594.5,-141.7046"/>
<polygon fill="#191970" stroke="#191970" points="598.0001,-141.6426 594.5,-131.6427 591.0001,-141.6427 598.0001,-141.6426"/>
</g>
</g>
</svg>
