<?xml version="1.0" encoding="UTF-8" standalone="no"?>
<!DOCTYPE svg PUBLIC "-//W3C//DTD SVG 1.1//EN"
 "http://www.w3.org/Graphics/SVG/1.1/DTD/svg11.dtd">
<!-- Generated by graphviz version 2.40.1 (20161225.0304)
 -->
<!-- Title: iop/iLink/iLinkman/src/iLink_internal.c Pages: 1 -->
<!--zoomable 263 -->
<svg id="main" version="1.1" xmlns="http://www.w3.org/2000/svg" xmlns:xlink="http://www.w3.org/1999/xlink" xml:space="preserve" onload="init(evt)">
<style type="text/css"><![CDATA[
.edge:hover path { stroke: red; }
.edge:hover polygon { stroke: red; fill: red; }
]]></style>
<script type="text/javascript"><![CDATA[
var edges = document.getElementsByTagName('g');
if (edges && edges.length) {
  for (var i=0;i<edges.length;i++) {
    if (edges[i].id.substr(0,4)=='edge') {
      edges[i].setAttribute('class','edge');
    }
  }
}
]]></script>
        <defs>
                <circle id="rim" cx="0" cy="0" r="7"/>
                <circle id="rim2" cx="0" cy="0" r="3.5"/>
                <g id="zoomPlus">
                        <use xlink:href="#rim" fill="#404040">
                                <set attributeName="fill" to="#808080" begin="zoomplus.mouseover" end="zoomplus.mouseout"/>
                        </use>
                        <path d="M-4,0h8M0,-4v8" fill="none" stroke="white" stroke-width="1.5" pointer-events="none"/>
                </g>
                <g id="zoomMin">
                        <use xlink:href="#rim" fill="#404040">
                                <set attributeName="fill" to="#808080" begin="zoomminus.mouseover" end="zoomminus.mouseout"/>
                        </use>
                        <path d="M-4,0h8" fill="none" stroke="white" stroke-width="1.5" pointer-events="none"/>
                </g>
                <g id="dirArrow">
                        <path fill="none" stroke="white" stroke-width="1.5" d="M0,-3.0v7 M-2.5,-0.5L0,-3.0L2.5,-0.5"/>
                </g>
               <g id="resetDef">
                       <use xlink:href="#rim2" fill="#404040">
                               <set attributeName="fill" to="#808080" begin="reset.mouseover" end="reset.mouseout"/>
                       </use>
               </g>
        </defs>

<script type="text/javascript">
var viewWidth = 843;
var viewHeight = 263;
var sectionId = 'dynsection-0';
</script>
<script xlink:href="svgpan.js"/>
<svg id="graph" class="graph">
<g id="viewport">
<title>iop/iLink/iLinkman/src/iLink_internal.c</title>
<polygon fill="#ffffff" stroke="transparent" points="-4,4 -4,-259 838.5,-259 838.5,4 -4,4"/>
<!-- Node1 -->
<g id="node1" class="node">
<title>Node1</title>
<g id="a_node1"><a xlink:title=" ">
<polygon fill="#bfbfbf" stroke="#000000" points="340,-224.5 340,-254.5 451,-254.5 451,-224.5 340,-224.5"/>
<text text-anchor="start" x="348" y="-242.5" font-family="Helvetica,sans-Serif" font-size="10.00" fill="#000000">iop/iLink/iLinkman</text>
<text text-anchor="middle" x="395.5" y="-231.5" font-family="Helvetica,sans-Serif" font-size="10.00" fill="#000000">/src/iLink_internal.c</text>
</a>
</g>
</g>
<!-- Node2 -->
<g id="node2" class="node">
<title>Node2</title>
<g id="a_node2"><a xlink:href="dmacman_8h.html" target="_top" xlink:title=" ">
<polygon fill="#ffffff" stroke="#000000" points="158.5,-168.5 158.5,-187.5 232.5,-187.5 232.5,-168.5 158.5,-168.5"/>
<text text-anchor="middle" x="195.5" y="-175.5" font-family="Helvetica,sans-Serif" font-size="10.00" fill="#000000">dmacman.h</text>
</a>
</g>
</g>
<!-- Node1&#45;&gt;Node2 -->
<g id="edge1" class="edge">
<title>Node1&#45;&gt;Node2</title>
<path fill="none" stroke="#191970" d="M346.5745,-224.4554C312.7649,-214.059 268.3079,-200.3884 236.387,-190.5727"/>
<polygon fill="#191970" stroke="#191970" points="237.0799,-187.1242 226.4929,-187.5303 235.0225,-193.815 237.0799,-187.1242"/>
</g>
<!-- Node7 -->
<g id="node7" class="node">
<title>Node7</title>
<g id="a_node7"><a xlink:href="intrman_8h.html" target="_top" xlink:title=" ">
<polygon fill="#ffffff" stroke="#000000" points="250.5,-168.5 250.5,-187.5 314.5,-187.5 314.5,-168.5 250.5,-168.5"/>
<text text-anchor="middle" x="282.5" y="-175.5" font-family="Helvetica,sans-Serif" font-size="10.00" fill="#000000">intrman.h</text>
</a>
</g>
</g>
<!-- Node1&#45;&gt;Node7 -->
<g id="edge7" class="edge">
<title>Node1&#45;&gt;Node7</title>
<path fill="none" stroke="#191970" d="M367.8571,-224.4554C349.9951,-214.734 326.8732,-202.15 309.2005,-192.5317"/>
<polygon fill="#191970" stroke="#191970" points="310.4675,-189.2365 300.011,-187.5303 307.1213,-195.3849 310.4675,-189.2365"/>
</g>
<!-- Node8 -->
<g id="node8" class="node">
<title>Node8</title>
<g id="a_node8"><a xlink:href="stdio_8h.html" target="_top" xlink:title=" ">
<polygon fill="#ffffff" stroke="#000000" points="332.5,-168.5 332.5,-187.5 382.5,-187.5 382.5,-168.5 332.5,-168.5"/>
<text text-anchor="middle" x="357.5" y="-175.5" font-family="Helvetica,sans-Serif" font-size="10.00" fill="#000000">stdio.h</text>
</a>
</g>
</g>
<!-- Node1&#45;&gt;Node8 -->
<g id="edge10" class="edge">
<title>Node1&#45;&gt;Node8</title>
<path fill="none" stroke="#191970" d="M386.1067,-224.2977C380.8869,-215.8498 374.3543,-205.2773 368.85,-196.369"/>
<polygon fill="#191970" stroke="#191970" points="371.8182,-194.5143 363.5843,-187.8469 365.8632,-198.1938 371.8182,-194.5143"/>
</g>
<!-- Node10 -->
<g id="node10" class="node">
<title>Node10</title>
<g id="a_node10"><a xlink:href="sysclib_8h.html" target="_top" xlink:title=" ">
<polygon fill="#ffffff" stroke="#000000" points="487,-168.5 487,-187.5 546,-187.5 546,-168.5 487,-168.5"/>
<text text-anchor="middle" x="516.5" y="-175.5" font-family="Helvetica,sans-Serif" font-size="10.00" fill="#000000">sysclib.h</text>
</a>
</g>
</g>
<!-- Node1&#45;&gt;Node10 -->
<g id="edge13" class="edge">
<title>Node1&#45;&gt;Node10</title>
<path fill="none" stroke="#191970" d="M425.0999,-224.4554C444.4922,-214.599 469.6742,-201.7999 488.6943,-192.1327"/>
<polygon fill="#191970" stroke="#191970" points="490.4205,-195.1815 497.7493,-187.5303 487.2488,-188.9412 490.4205,-195.1815"/>
</g>
<!-- Node12 -->
<g id="node12" class="node">
<title>Node12</title>
<g id="a_node12"><a xlink:href="sysmem_8h.html" target="_top" xlink:title=" ">
<polygon fill="#ffffff" stroke="#000000" points="400.5,-168.5 400.5,-187.5 468.5,-187.5 468.5,-168.5 400.5,-168.5"/>
<text text-anchor="middle" x="434.5" y="-175.5" font-family="Helvetica,sans-Serif" font-size="10.00" fill="#000000">sysmem.h</text>
</a>
</g>
</g>
<!-- Node1&#45;&gt;Node12 -->
<g id="edge19" class="edge">
<title>Node1&#45;&gt;Node12</title>
<path fill="none" stroke="#191970" d="M405.1405,-224.2977C410.4977,-215.8498 417.2022,-205.2773 422.8513,-196.369"/>
<polygon fill="#191970" stroke="#191970" points="425.8559,-198.1664 428.2556,-187.8469 419.9444,-194.4176 425.8559,-198.1664"/>
</g>
<!-- Node13 -->
<g id="node13" class="node">
<title>Node13</title>
<g id="a_node13"><a xlink:href="thbase_8h.html" target="_top" xlink:title=" ">
<polygon fill="#ffffff" stroke="#000000" points="81,-168.5 81,-187.5 140,-187.5 140,-168.5 81,-168.5"/>
<text text-anchor="middle" x="110.5" y="-175.5" font-family="Helvetica,sans-Serif" font-size="10.00" fill="#000000">thbase.h</text>
</a>
</g>
</g>
<!-- Node1&#45;&gt;Node13 -->
<g id="edge23" class="edge">
<title>Node1&#45;&gt;Node13</title>
<path fill="none" stroke="#191970" d="M339.6544,-228.5479C291.9364,-219.022 221.2249,-204.5105 150.2859,-188.1076"/>
<polygon fill="#191970" stroke="#191970" points="150.8097,-184.6362 140.2769,-185.7809 149.2247,-191.4543 150.8097,-184.6362"/>
</g>
<!-- Node14 -->
<g id="node14" class="node">
<title>Node14</title>
<g id="a_node14"><a xlink:href="thevent_8h.html" target="_top" xlink:title=" ">
<polygon fill="#ffffff" stroke="#000000" points="0,-168.5 0,-187.5 63,-187.5 63,-168.5 0,-168.5"/>
<text text-anchor="middle" x="31.5" y="-175.5" font-family="Helvetica,sans-Serif" font-size="10.00" fill="#000000">thevent.h</text>
</a>
</g>
</g>
<!-- Node1&#45;&gt;Node14 -->
<g id="edge26" class="edge">
<title>Node1&#45;&gt;Node14</title>
<path fill="none" stroke="#191970" d="M339.9115,-232.17C277.2497,-223.5708 172.1605,-208.1392 73.185,-188.2254"/>
<polygon fill="#191970" stroke="#191970" points="73.8162,-184.7822 63.3196,-186.2212 72.4226,-191.6421 73.8162,-184.7822"/>
</g>
<!-- Node15 -->
<g id="node15" class="node">
<title>Node15</title>
<g id="a_node15"><a xlink:href="cdvdman_8h.html" target="_top" xlink:title=" ">
<polygon fill="#ffffff" stroke="#000000" points="564,-168.5 564,-187.5 635,-187.5 635,-168.5 564,-168.5"/>
<text text-anchor="middle" x="599.5" y="-175.5" font-family="Helvetica,sans-Serif" font-size="10.00" fill="#000000">cdvdman.h</text>
</a>
</g>
</g>
<!-- Node1&#45;&gt;Node15 -->
<g id="edge29" class="edge">
<title>Node1&#45;&gt;Node15</title>
<path fill="none" stroke="#191970" d="M445.404,-224.4554C480.0391,-214.0139 525.6288,-200.27 558.2174,-190.4455"/>
<polygon fill="#191970" stroke="#191970" points="559.3231,-193.7678 567.8872,-187.5303 557.3026,-187.0657 559.3231,-193.7678"/>
</g>
<!-- Node17 -->
<g id="node17" class="node">
<title>Node17</title>
<g id="a_node17"><a xlink:href="iLinkman_8h.html" target="_top" xlink:title=" ">
<polygon fill="#ffffff" stroke="#000000" points="653,-168.5 653,-187.5 724,-187.5 724,-168.5 653,-168.5"/>
<text text-anchor="middle" x="688.5" y="-175.5" font-family="Helvetica,sans-Serif" font-size="10.00" fill="#000000">iLinkman.h</text>
</a>
</g>
</g>
<!-- Node1&#45;&gt;Node17 -->
<g id="edge34" class="edge">
<title>Node1&#45;&gt;Node17</title>
<path fill="none" stroke="#191970" d="M451.4406,-228.2548C499.6803,-218.4839 571.4746,-203.7669 642.8984,-188.321"/>
<polygon fill="#191970" stroke="#191970" points="643.9403,-191.6766 652.9717,-186.1372 642.4571,-184.8355 643.9403,-191.6766"/>
</g>
<!-- Node19 -->
<g id="node19" class="node">
<title>Node19</title>
<g id="a_node19"><a xlink:href="iLink__internal_8h.html" target="_top" xlink:title=" ">
<polygon fill="#ffffff" stroke="#000000" points="742.5,-168.5 742.5,-187.5 834.5,-187.5 834.5,-168.5 742.5,-168.5"/>
<text text-anchor="middle" x="788.5" y="-175.5" font-family="Helvetica,sans-Serif" font-size="10.00" fill="#000000">iLink_internal.h</text>
</a>
</g>
</g>
<!-- Node1&#45;&gt;Node19 -->
<g id="edge37" class="edge">
<title>Node1&#45;&gt;Node19</title>
<path fill="none" stroke="#191970" d="M451.201,-231.5123C516.1669,-222.0843 627.0615,-205.646 732.153,-188.1907"/>
<polygon fill="#191970" stroke="#191970" points="733.015,-191.5954 742.3033,-186.4985 731.8638,-184.6907 733.015,-191.5954"/>
</g>
<!-- Node3 -->
<g id="node3" class="node">
<title>Node3</title>
<g id="a_node3"><a xlink:href="types_8h.html" target="_top" xlink:title=" ">
<polygon fill="#ffffff" stroke="#000000" points="295,-56.5 295,-75.5 348,-75.5 348,-56.5 295,-56.5"/>
<text text-anchor="middle" x="321.5" y="-63.5" font-family="Helvetica,sans-Serif" font-size="10.00" fill="#000000">types.h</text>
</a>
</g>
</g>
<!-- Node2&#45;&gt;Node3 -->
<g id="edge2" class="edge">
<title>Node2&#45;&gt;Node3</title>
<path fill="none" stroke="#191970" d="M206.2427,-168.4509C227.8159,-149.2747 276.6167,-105.8962 303.2763,-82.1988"/>
<polygon fill="#191970" stroke="#191970" points="305.6357,-84.7845 310.7845,-75.5249 300.9851,-79.5526 305.6357,-84.7845"/>
</g>
<!-- Node6 -->
<g id="node6" class="node">
<title>Node6</title>
<g id="a_node6"><a xlink:href="irx_8h.html" target="_top" xlink:title=" ">
<polygon fill="#ffffff" stroke="#000000" points="302.5,-112.5 302.5,-131.5 340.5,-131.5 340.5,-112.5 302.5,-112.5"/>
<text text-anchor="middle" x="321.5" y="-119.5" font-family="Helvetica,sans-Serif" font-size="10.00" fill="#000000">irx.h</text>
</a>
</g>
</g>
<!-- Node2&#45;&gt;Node6 -->
<g id="edge5" class="edge">
<title>Node2&#45;&gt;Node6</title>
<path fill="none" stroke="#191970" d="M217.1602,-168.3733C238.0928,-159.0699 269.9271,-144.9213 292.9268,-134.6992"/>
<polygon fill="#191970" stroke="#191970" points="294.4687,-137.8441 302.1854,-130.5843 291.6257,-131.4474 294.4687,-137.8441"/>
</g>
<!-- Node4 -->
<g id="node4" class="node">
<title>Node4</title>
<g id="a_node4"><a xlink:title=" ">
<polygon fill="#ffffff" stroke="#bfbfbf" points="293.5,-.5 293.5,-19.5 349.5,-19.5 349.5,-.5 293.5,-.5"/>
<text text-anchor="middle" x="321.5" y="-7.5" font-family="Helvetica,sans-Serif" font-size="10.00" fill="#000000">stddef.h</text>
</a>
</g>
</g>
<!-- Node3&#45;&gt;Node4 -->
<g id="edge3" class="edge">
<title>Node3&#45;&gt;Node4</title>
<path fill="none" stroke="#191970" d="M321.5,-56.2455C321.5,-48.9382 321.5,-38.6944 321.5,-29.7046"/>
<polygon fill="#191970" stroke="#191970" points="325.0001,-29.6426 321.5,-19.6427 318.0001,-29.6427 325.0001,-29.6426"/>
</g>
<!-- Node5 -->
<g id="node5" class="node">
<title>Node5</title>
<g id="a_node5"><a xlink:href="tamtypes_8h.html" target="_top" xlink:title=" ">
<polygon fill="#ffffff" stroke="#000000" points="462.5,-.5 462.5,-19.5 534.5,-19.5 534.5,-.5 462.5,-.5"/>
<text text-anchor="middle" x="498.5" y="-7.5" font-family="Helvetica,sans-Serif" font-size="10.00" fill="#000000">tamtypes.h</text>
</a>
</g>
</g>
<!-- Node3&#45;&gt;Node5 -->
<g id="edge4" class="edge">
<title>Node3&#45;&gt;Node5</title>
<path fill="none" stroke="#191970" d="M348.3825,-57.4948C377.7814,-48.1935 425.1896,-33.1943 458.8578,-22.5422"/>
<polygon fill="#191970" stroke="#191970" points="459.9176,-25.8779 468.396,-19.5244 457.8061,-19.204 459.9176,-25.8779"/>
</g>
<!-- Node6&#45;&gt;Node3 -->
<g id="edge6" class="edge">
<title>Node6&#45;&gt;Node3</title>
<path fill="none" stroke="#191970" d="M321.5,-112.2455C321.5,-104.9382 321.5,-94.6944 321.5,-85.7046"/>
<polygon fill="#191970" stroke="#191970" points="325.0001,-85.6426 321.5,-75.6427 318.0001,-85.6427 325.0001,-85.6426"/>
</g>
<!-- Node7&#45;&gt;Node3 -->
<g id="edge8" class="edge">
<title>Node7&#45;&gt;Node3</title>
<path fill="none" stroke="#191970" d="M282.9639,-168.3066C283.8477,-155.1723 286.375,-131.1631 293.5,-112 297.1456,-102.1949 302.9533,-92.1734 308.3368,-83.9977"/>
<polygon fill="#191970" stroke="#191970" points="311.2916,-85.8782 314.0966,-75.6614 305.5326,-81.899 311.2916,-85.8782"/>
</g>
<!-- Node7&#45;&gt;Node6 -->
<g id="edge9" class="edge">
<title>Node7&#45;&gt;Node6</title>
<path fill="none" stroke="#191970" d="M289.2933,-168.2455C294.7178,-160.4564 302.4661,-149.3308 309.0033,-139.9439"/>
<polygon fill="#191970" stroke="#191970" points="311.9417,-141.849 314.7846,-131.6427 306.1975,-137.8485 311.9417,-141.849"/>
</g>
<!-- Node8&#45;&gt;Node6 -->
<g id="edge12" class="edge">
<title>Node8&#45;&gt;Node6</title>
<path fill="none" stroke="#191970" d="M351.2293,-168.2455C346.2736,-160.5367 339.217,-149.5598 333.2224,-140.2348"/>
<polygon fill="#191970" stroke="#191970" points="336.0506,-138.1618 327.6989,-131.6427 330.1624,-141.9471 336.0506,-138.1618"/>
</g>
<!-- Node9 -->
<g id="node9" class="node">
<title>Node9</title>
<g id="a_node9"><a xlink:title=" ">
<polygon fill="#ffffff" stroke="#bfbfbf" points="358.5,-112.5 358.5,-131.5 414.5,-131.5 414.5,-112.5 358.5,-112.5"/>
<text text-anchor="middle" x="386.5" y="-119.5" font-family="Helvetica,sans-Serif" font-size="10.00" fill="#000000">stdarg.h</text>
</a>
</g>
</g>
<!-- Node8&#45;&gt;Node9 -->
<g id="edge11" class="edge">
<title>Node8&#45;&gt;Node9</title>
<path fill="none" stroke="#191970" d="M362.5514,-168.2455C366.5019,-160.617 372.1097,-149.7881 376.9058,-140.5267"/>
<polygon fill="#191970" stroke="#191970" points="380.0159,-142.1321 381.5065,-131.6427 373.7999,-138.9131 380.0159,-142.1321"/>
</g>
<!-- Node10&#45;&gt;Node3 -->
<g id="edge14" class="edge">
<title>Node10&#45;&gt;Node3</title>
<path fill="none" stroke="#191970" d="M507.6582,-168.2744C494.4414,-154.2212 468.2158,-128.1546 441.5,-112 415.1547,-96.0694 382.3458,-83.9477 357.6956,-76.1573"/>
<polygon fill="#191970" stroke="#191970" points="358.5966,-72.7727 348.0098,-73.1853 356.5431,-79.4648 358.5966,-72.7727"/>
</g>
<!-- Node10&#45;&gt;Node6 -->
<g id="edge15" class="edge">
<title>Node10&#45;&gt;Node6</title>
<path fill="none" stroke="#191970" d="M486.8881,-170.1275C449.6859,-160.1923 387.0888,-143.3174 350.35,-132.0832"/>
<polygon fill="#191970" stroke="#191970" points="351.3048,-128.7147 340.7161,-129.0746 349.2181,-135.3965 351.3048,-128.7147"/>
</g>
<!-- Node10&#45;&gt;Node9 -->
<g id="edge16" class="edge">
<title>Node10&#45;&gt;Node9</title>
<path fill="none" stroke="#191970" d="M494.1522,-168.3733C473.0967,-159.3032 441.3505,-145.6279 417.7825,-135.4755"/>
<polygon fill="#191970" stroke="#191970" points="419.125,-132.243 408.5562,-131.5011 416.3556,-138.6719 419.125,-132.243"/>
</g>
<!-- Node11 -->
<g id="node11" class="node">
<title>Node11</title>
<g id="a_node11"><a xlink:href="setjmp_8h.html" target="_top" xlink:title=" ">
<polygon fill="#ffffff" stroke="#000000" points="469,-56.5 469,-75.5 528,-75.5 528,-56.5 469,-56.5"/>
<text text-anchor="middle" x="498.5" y="-63.5" font-family="Helvetica,sans-Serif" font-size="10.00" fill="#000000">setjmp.h</text>
</a>
</g>
</g>
<!-- Node10&#45;&gt;Node11 -->
<g id="edge17" class="edge">
<title>Node10&#45;&gt;Node11</title>
<path fill="none" stroke="#191970" d="M514.9653,-168.4509C512.0296,-150.184 505.5642,-109.9553 501.6657,-85.6976"/>
<polygon fill="#191970" stroke="#191970" points="505.0733,-84.8428 500.0308,-75.5249 498.162,-85.9536 505.0733,-84.8428"/>
</g>
<!-- Node11&#45;&gt;Node5 -->
<g id="edge18" class="edge">
<title>Node11&#45;&gt;Node5</title>
<path fill="none" stroke="#191970" d="M498.5,-56.2455C498.5,-48.9382 498.5,-38.6944 498.5,-29.7046"/>
<polygon fill="#191970" stroke="#191970" points="502.0001,-29.6426 498.5,-19.6427 495.0001,-29.6427 502.0001,-29.6426"/>
</g>
<!-- Node12&#45;&gt;Node3 -->
<g id="edge20" class="edge">
<title>Node12&#45;&gt;Node3</title>
<path fill="none" stroke="#191970" d="M435.5399,-168.3837C436.5122,-154.4665 436.2561,-128.5677 423.5,-112 407.5707,-91.3108 380.2492,-79.6661 357.8901,-73.2719"/>
<polygon fill="#191970" stroke="#191970" points="358.5853,-69.836 348.025,-70.6898 356.8128,-76.6079 358.5853,-69.836"/>
</g>
<!-- Node12&#45;&gt;Node6 -->
<g id="edge21" class="edge">
<title>Node12&#45;&gt;Node6</title>
<path fill="none" stroke="#191970" d="M415.0746,-168.3733C397.0979,-159.4644 370.1559,-146.1127 349.791,-136.0203"/>
<polygon fill="#191970" stroke="#191970" points="351.1861,-132.8055 340.6719,-131.5011 348.0778,-139.0776 351.1861,-132.8055"/>
</g>
<!-- Node12&#45;&gt;Node9 -->
<g id="edge22" class="edge">
<title>Node12&#45;&gt;Node9</title>
<path fill="none" stroke="#191970" d="M426.139,-168.2455C419.325,-160.2958 409.5319,-148.8706 401.3848,-139.3656"/>
<polygon fill="#191970" stroke="#191970" points="403.9305,-136.9575 394.7651,-131.6427 398.6157,-141.513 403.9305,-136.9575"/>
</g>
<!-- Node13&#45;&gt;Node3 -->
<g id="edge24" class="edge">
<title>Node13&#45;&gt;Node3</title>
<path fill="none" stroke="#191970" d="M128.4897,-168.4509C165.6285,-148.7375 250.9534,-103.4465 294.6459,-80.2543"/>
<polygon fill="#191970" stroke="#191970" points="296.364,-83.3049 303.5558,-75.5249 293.082,-77.122 296.364,-83.3049"/>
</g>
<!-- Node13&#45;&gt;Node6 -->
<g id="edge25" class="edge">
<title>Node13&#45;&gt;Node6</title>
<path fill="none" stroke="#191970" d="M140.2836,-170.0953C180.7257,-159.3619 252.5421,-140.3016 292.5485,-129.6838"/>
<polygon fill="#191970" stroke="#191970" points="293.4637,-133.0622 302.2312,-127.114 291.6679,-126.2964 293.4637,-133.0622"/>
</g>
<!-- Node14&#45;&gt;Node3 -->
<g id="edge27" class="edge">
<title>Node14&#45;&gt;Node3</title>
<path fill="none" stroke="#191970" d="M55.3855,-168.4969C87.9244,-155.5783 148.0291,-131.8128 199.5,-112 228.6501,-100.7792 261.8212,-88.29 286.2093,-79.1598"/>
<polygon fill="#191970" stroke="#191970" points="287.6157,-82.3707 295.756,-75.5895 285.1635,-75.8142 287.6157,-82.3707"/>
</g>
<!-- Node14&#45;&gt;Node6 -->
<g id="edge28" class="edge">
<title>Node14&#45;&gt;Node6</title>
<path fill="none" stroke="#191970" d="M63.3344,-169.8492C66.0911,-169.2018 68.8416,-168.5763 71.5,-168 150.9255,-150.7826 245.449,-134.5323 292.2481,-126.7673"/>
<polygon fill="#191970" stroke="#191970" points="292.9893,-130.1924 302.2859,-125.1107 291.8495,-123.2858 292.9893,-130.1924"/>
</g>
<!-- Node15&#45;&gt;Node3 -->
<g id="edge30" class="edge">
<title>Node15&#45;&gt;Node3</title>
<path fill="none" stroke="#191970" d="M582.5415,-168.3253C557.9618,-154.5661 510.7483,-129.1192 468.5,-112 431.6486,-97.0677 388.0139,-83.963 357.908,-75.6004"/>
<polygon fill="#191970" stroke="#191970" points="358.8158,-72.2202 348.2461,-72.9505 356.9642,-78.9709 358.8158,-72.2202"/>
</g>
<!-- Node15&#45;&gt;Node6 -->
<g id="edge31" class="edge">
<title>Node15&#45;&gt;Node6</title>
<path fill="none" stroke="#191970" d="M563.9915,-169.7682C561.1223,-169.1524 558.2649,-168.5554 555.5,-168 467.4918,-150.3208 441.1534,-155.3326 350.5146,-131.9168"/>
<polygon fill="#191970" stroke="#191970" points="351.2058,-128.4796 340.6445,-129.3217 349.4258,-135.2496 351.2058,-128.4796"/>
</g>
<!-- Node16 -->
<g id="node16" class="node">
<title>Node16</title>
<g id="a_node16"><a xlink:href="libcdvd-common_8h.html" target="_top" xlink:title=" ">
<polygon fill="#ffffff" stroke="#000000" points="546,-56.5 546,-75.5 653,-75.5 653,-56.5 546,-56.5"/>
<text text-anchor="middle" x="599.5" y="-63.5" font-family="Helvetica,sans-Serif" font-size="10.00" fill="#000000">libcdvd&#45;common.h</text>
</a>
</g>
</g>
<!-- Node15&#45;&gt;Node16 -->
<g id="edge32" class="edge">
<title>Node15&#45;&gt;Node16</title>
<path fill="none" stroke="#191970" d="M599.5,-168.4509C599.5,-150.184 599.5,-109.9553 599.5,-85.6976"/>
<polygon fill="#191970" stroke="#191970" points="603.0001,-85.5249 599.5,-75.5249 596.0001,-85.5249 603.0001,-85.5249"/>
</g>
<!-- Node16&#45;&gt;Node5 -->
<g id="edge33" class="edge">
<title>Node16&#45;&gt;Node5</title>
<path fill="none" stroke="#191970" d="M581.9071,-56.2455C566.121,-47.4928 542.7361,-34.527 524.7413,-24.5496"/>
<polygon fill="#191970" stroke="#191970" points="526.3341,-21.4308 515.8913,-19.6427 522.9397,-27.5528 526.3341,-21.4308"/>
</g>
<!-- Node17&#45;&gt;Node6 -->
<g id="edge36" class="edge">
<title>Node17&#45;&gt;Node6</title>
<path fill="none" stroke="#191970" d="M652.5419,-169.5135C649.827,-168.9691 647.1239,-168.4571 644.5,-168 517.5524,-145.8876 479.8683,-161.5891 350.4984,-131.7808"/>
<polygon fill="#191970" stroke="#191970" points="351.1465,-128.3378 340.6109,-129.4561 349.5444,-135.152 351.1465,-128.3378"/>
</g>
<!-- Node18 -->
<g id="node18" class="node">
<title>Node18</title>
<g id="a_node18"><a xlink:title=" ">
<polygon fill="#ffffff" stroke="#bfbfbf" points="662,-112.5 662,-131.5 715,-131.5 715,-112.5 662,-112.5"/>
<text text-anchor="middle" x="688.5" y="-119.5" font-family="Helvetica,sans-Serif" font-size="10.00" fill="#000000">types.h</text>
</a>
</g>
</g>
<!-- Node17&#45;&gt;Node18 -->
<g id="edge35" class="edge">
<title>Node17&#45;&gt;Node18</title>
<path fill="none" stroke="#191970" d="M688.5,-168.2455C688.5,-160.9382 688.5,-150.6944 688.5,-141.7046"/>
<polygon fill="#191970" stroke="#191970" points="692.0001,-141.6426 688.5,-131.6427 685.0001,-141.6427 692.0001,-141.6426"/>
</g>
</g>
</svg>
        <g id="navigator" transform="translate(0 0)" fill="#404254">
                <rect fill="#f2f5e9" fill-opacity="0.5" stroke="#606060" stroke-width=".5" x="0" y="0" width="60" height="60"/>
                <use id="zoomplus" xlink:href="#zoomPlus" x="17" y="9" onmousedown="handleZoom(evt,'in')"/>
                <use id="zoomminus" xlink:href="#zoomMin" x="42" y="9" onmousedown="handleZoom(evt,'out')"/>
                <use id="reset" xlink:href="#resetDef" x="30" y="36" onmousedown="handleReset()"/>
                <g id="arrowUp" xlink:href="#dirArrow" transform="translate(30 24)" onmousedown="handlePan(0,-1)">
                  <use xlink:href="#rim" fill="#404040">
                        <set attributeName="fill" to="#808080" begin="arrowUp.mouseover" end="arrowUp.mouseout"/>
                  </use>
                  <path fill="none" stroke="white" stroke-width="1.5" d="M0,-3.0v7 M-2.5,-0.5L0,-3.0L2.5,-0.5"/>
                </g>
                <g id="arrowRight" xlink:href="#dirArrow" transform="rotate(90) translate(36 -43)" onmousedown="handlePan(1,0)">
                  <use xlink:href="#rim" fill="#404040">
                        <set attributeName="fill" to="#808080" begin="arrowRight.mouseover" end="arrowRight.mouseout"/>
                  </use>
                  <path fill="none" stroke="white" stroke-width="1.5" d="M0,-3.0v7 M-2.5,-0.5L0,-3.0L2.5,-0.5"/>
                </g>
                <g id="arrowDown" xlink:href="#dirArrow" transform="rotate(180) translate(-30 -48)" onmousedown="handlePan(0,1)">
                  <use xlink:href="#rim" fill="#404040">
                        <set attributeName="fill" to="#808080" begin="arrowDown.mouseover" end="arrowDown.mouseout"/>
                  </use>
                  <path fill="none" stroke="white" stroke-width="1.5" d="M0,-3.0v7 M-2.5,-0.5L0,-3.0L2.5,-0.5"/>
                </g>
                <g id="arrowLeft" xlink:href="#dirArrow" transform="rotate(270) translate(-36 17)" onmousedown="handlePan(-1,0)">
                  <use xlink:href="#rim" fill="#404040">
                        <set attributeName="fill" to="#808080" begin="arrowLeft.mouseover" end="arrowLeft.mouseout"/>
                  </use>
                  <path fill="none" stroke="white" stroke-width="1.5" d="M0,-3.0v7 M-2.5,-0.5L0,-3.0L2.5,-0.5"/>
                </g>
        </g>
        <svg viewBox="0 0 15 15" width="100%" height="30px" preserveAspectRatio="xMaxYMin meet">
         <g id="arrow_out" transform="scale(0.3 0.3)">
          <a xlink:href="iLink__internal_8c__incl_org.svg" target="_base">
           <rect id="button" ry="5" rx="5" y="6" x="6" height="38" width="38"
                fill="#f2f5e9" fill-opacity="0.5" stroke="#606060" stroke-width="1.0"/>
           <path id="arrow"
             d="M 11.500037,31.436501 C 11.940474,20.09759 22.043105,11.32322 32.158766,21.979434 L 37.068811,17.246167 C 37.068811,17.246167 37.088388,32 37.088388,32 L 22.160133,31.978069 C 22.160133,31.978069 26.997745,27.140456 26.997745,27.140456 C 18.528582,18.264221 13.291696,25.230495 11.500037,31.436501 z"
             style="fill:#404040;"/>
          </a>
         </g>
        </svg>
</svg>
