<?xml version="1.0" encoding="UTF-8" standalone="no"?>
<!DOCTYPE svg PUBLIC "-//W3C//DTD SVG 1.1//EN"
 "http://www.w3.org/Graphics/SVG/1.1/DTD/svg11.dtd">
<!-- Generated by graphviz version 2.40.1 (20161225.0304)
 -->
<!-- Title: iop/iLink/iLinkman/src/iLink_crom.c Pages: 1 -->
<svg width="600pt" height="263pt"
 viewBox="0.00 0.00 599.50 263.00" xmlns="http://www.w3.org/2000/svg" xmlns:xlink="http://www.w3.org/1999/xlink">
<g id="graph0" class="graph" transform="scale(1 1) rotate(0) translate(4 259)">
<title>iop/iLink/iLinkman/src/iLink_crom.c</title>
<polygon fill="#ffffff" stroke="transparent" points="-4,4 -4,-259 595.5,-259 595.5,4 -4,4"/>
<!-- Node1 -->
<g id="node1" class="node">
<title>Node1</title>
<g id="a_node1"><a xlink:title=" ">
<polygon fill="#bfbfbf" stroke="#000000" points="208.5,-224.5 208.5,-254.5 314.5,-254.5 314.5,-224.5 208.5,-224.5"/>
<text text-anchor="start" x="216.5" y="-242.5" font-family="Helvetica,sans-Serif" font-size="10.00" fill="#000000">iop/iLink/iLinkman</text>
<text text-anchor="middle" x="261.5" y="-231.5" font-family="Helvetica,sans-Serif" font-size="10.00" fill="#000000">/src/iLink_crom.c</text>
</a>
</g>
</g>
<!-- Node2 -->
<g id="node2" class="node">
<title>Node2</title>
<g id="a_node2"><a xlink:href="stdio_8h.html" target="_top" xlink:title=" ">
<polygon fill="#ffffff" stroke="#000000" points="77.5,-168.5 77.5,-187.5 127.5,-187.5 127.5,-168.5 77.5,-168.5"/>
<text text-anchor="middle" x="102.5" y="-175.5" font-family="Helvetica,sans-Serif" font-size="10.00" fill="#000000">stdio.h</text>
</a>
</g>
</g>
<!-- Node1&#45;&gt;Node2 -->
<g id="edge1" class="edge">
<title>Node1&#45;&gt;Node2</title>
<path fill="none" stroke="#191970" d="M222.6042,-224.4554C196.3074,-214.284 161.9083,-200.9787 136.6668,-191.2155"/>
<polygon fill="#191970" stroke="#191970" points="137.7286,-187.8735 127.1394,-187.5303 135.2034,-194.4022 137.7286,-187.8735"/>
</g>
<!-- Node8 -->
<g id="node8" class="node">
<title>Node8</title>
<g id="a_node8"><a xlink:href="sysclib_8h.html" target="_top" xlink:title=" ">
<polygon fill="#ffffff" stroke="#000000" points="0,-168.5 0,-187.5 59,-187.5 59,-168.5 0,-168.5"/>
<text text-anchor="middle" x="29.5" y="-175.5" font-family="Helvetica,sans-Serif" font-size="10.00" fill="#000000">sysclib.h</text>
</a>
</g>
</g>
<!-- Node1&#45;&gt;Node8 -->
<g id="edge7" class="edge">
<title>Node1&#45;&gt;Node8</title>
<path fill="none" stroke="#191970" d="M208.2745,-225.3907C165.7843,-214.1271 107.2137,-198.6008 68.865,-188.4351"/>
<polygon fill="#191970" stroke="#191970" points="69.6576,-185.0244 59.0946,-185.8451 67.8639,-191.7907 69.6576,-185.0244"/>
</g>
<!-- Node10 -->
<g id="node10" class="node">
<title>Node10</title>
<g id="a_node10"><a xlink:href="sysmem_8h.html" target="_top" xlink:title=" ">
<polygon fill="#ffffff" stroke="#000000" points="145.5,-168.5 145.5,-187.5 213.5,-187.5 213.5,-168.5 145.5,-168.5"/>
<text text-anchor="middle" x="179.5" y="-175.5" font-family="Helvetica,sans-Serif" font-size="10.00" fill="#000000">sysmem.h</text>
</a>
</g>
</g>
<!-- Node1&#45;&gt;Node10 -->
<g id="edge13" class="edge">
<title>Node1&#45;&gt;Node10</title>
<path fill="none" stroke="#191970" d="M241.2303,-224.2977C228.8994,-215.0495 213.1734,-203.2551 200.6803,-193.8853"/>
<polygon fill="#191970" stroke="#191970" points="202.7293,-191.047 192.6292,-187.8469 198.5292,-196.647 202.7293,-191.047"/>
</g>
<!-- Node11 -->
<g id="node11" class="node">
<title>Node11</title>
<g id="a_node11"><a xlink:href="thbase_8h.html" target="_top" xlink:title=" ">
<polygon fill="#ffffff" stroke="#000000" points="232,-168.5 232,-187.5 291,-187.5 291,-168.5 232,-168.5"/>
<text text-anchor="middle" x="261.5" y="-175.5" font-family="Helvetica,sans-Serif" font-size="10.00" fill="#000000">thbase.h</text>
</a>
</g>
</g>
<!-- Node1&#45;&gt;Node11 -->
<g id="edge17" class="edge">
<title>Node1&#45;&gt;Node11</title>
<path fill="none" stroke="#191970" d="M261.5,-224.2977C261.5,-216.3834 261.5,-206.6043 261.5,-198.0759"/>
<polygon fill="#191970" stroke="#191970" points="265.0001,-197.8469 261.5,-187.8469 258.0001,-197.847 265.0001,-197.8469"/>
</g>
<!-- Node12 -->
<g id="node12" class="node">
<title>Node12</title>
<g id="a_node12"><a xlink:href="iLinkman_8h.html" target="_top" xlink:title=" ">
<polygon fill="#ffffff" stroke="#000000" points="309,-168.5 309,-187.5 380,-187.5 380,-168.5 309,-168.5"/>
<text text-anchor="middle" x="344.5" y="-175.5" font-family="Helvetica,sans-Serif" font-size="10.00" fill="#000000">iLinkman.h</text>
</a>
</g>
</g>
<!-- Node1&#45;&gt;Node12 -->
<g id="edge20" class="edge">
<title>Node1&#45;&gt;Node12</title>
<path fill="none" stroke="#191970" d="M282.0169,-224.2977C294.4982,-215.0495 310.4159,-203.2551 323.0614,-193.8853"/>
<polygon fill="#191970" stroke="#191970" points="325.2596,-196.6126 331.2106,-187.8469 321.0922,-190.9882 325.2596,-196.6126"/>
</g>
<!-- Node14 -->
<g id="node14" class="node">
<title>Node14</title>
<g id="a_node14"><a xlink:href="iLink__CROM_8h.html" target="_top" xlink:title=" ">
<polygon fill="#ffffff" stroke="#000000" points="398,-168.5 398,-187.5 481,-187.5 481,-168.5 398,-168.5"/>
<text text-anchor="middle" x="439.5" y="-175.5" font-family="Helvetica,sans-Serif" font-size="10.00" fill="#000000">iLink_CROM.h</text>
</a>
</g>
</g>
<!-- Node1&#45;&gt;Node14 -->
<g id="edge23" class="edge">
<title>Node1&#45;&gt;Node14</title>
<path fill="none" stroke="#191970" d="M305.0437,-224.4554C334.8737,-214.149 374.0166,-200.6249 402.3702,-190.8286"/>
<polygon fill="#191970" stroke="#191970" points="403.6076,-194.1041 411.9163,-187.5303 401.3216,-187.4879 403.6076,-194.1041"/>
</g>
<!-- Node15 -->
<g id="node15" class="node">
<title>Node15</title>
<g id="a_node15"><a xlink:href="iLink__internal_8h.html" target="_top" xlink:title=" ">
<polygon fill="#ffffff" stroke="#000000" points="499.5,-168.5 499.5,-187.5 591.5,-187.5 591.5,-168.5 499.5,-168.5"/>
<text text-anchor="middle" x="545.5" y="-175.5" font-family="Helvetica,sans-Serif" font-size="10.00" fill="#000000">iLink_internal.h</text>
</a>
</g>
</g>
<!-- Node1&#45;&gt;Node15 -->
<g id="edge24" class="edge">
<title>Node1&#45;&gt;Node15</title>
<path fill="none" stroke="#191970" d="M314.5851,-228.0045C365.1573,-217.0531 440.9063,-200.6497 491.7107,-189.648"/>
<polygon fill="#191970" stroke="#191970" points="492.4914,-193.0602 501.5241,-187.523 491.0098,-186.2188 492.4914,-193.0602"/>
</g>
<!-- Node3 -->
<g id="node3" class="node">
<title>Node3</title>
<g id="a_node3"><a xlink:title=" ">
<polygon fill="#ffffff" stroke="#bfbfbf" points="77.5,-112.5 77.5,-131.5 133.5,-131.5 133.5,-112.5 77.5,-112.5"/>
<text text-anchor="middle" x="105.5" y="-119.5" font-family="Helvetica,sans-Serif" font-size="10.00" fill="#000000">stdarg.h</text>
</a>
</g>
</g>
<!-- Node2&#45;&gt;Node3 -->
<g id="edge2" class="edge">
<title>Node2&#45;&gt;Node3</title>
<path fill="none" stroke="#191970" d="M103.0226,-168.2455C103.414,-160.9382 103.9628,-150.6944 104.4444,-141.7046"/>
<polygon fill="#191970" stroke="#191970" points="107.9434,-141.8156 104.9834,-131.6427 100.9534,-141.4411 107.9434,-141.8156"/>
</g>
<!-- Node4 -->
<g id="node4" class="node">
<title>Node4</title>
<g id="a_node4"><a xlink:href="irx_8h.html" target="_top" xlink:title=" ">
<polygon fill="#ffffff" stroke="#000000" points="151.5,-112.5 151.5,-131.5 189.5,-131.5 189.5,-112.5 151.5,-112.5"/>
<text text-anchor="middle" x="170.5" y="-119.5" font-family="Helvetica,sans-Serif" font-size="10.00" fill="#000000">irx.h</text>
</a>
</g>
</g>
<!-- Node2&#45;&gt;Node4 -->
<g id="edge3" class="edge">
<title>Node2&#45;&gt;Node4</title>
<path fill="none" stroke="#191970" d="M114.3447,-168.2455C124.388,-159.9746 138.9995,-147.9416 150.8004,-138.2232"/>
<polygon fill="#191970" stroke="#191970" points="153.2967,-140.7015 158.791,-131.6427 148.8467,-135.298 153.2967,-140.7015"/>
</g>
<!-- Node5 -->
<g id="node5" class="node">
<title>Node5</title>
<g id="a_node5"><a xlink:href="types_8h.html" target="_top" xlink:title=" ">
<polygon fill="#ffffff" stroke="#000000" points="144,-56.5 144,-75.5 197,-75.5 197,-56.5 144,-56.5"/>
<text text-anchor="middle" x="170.5" y="-63.5" font-family="Helvetica,sans-Serif" font-size="10.00" fill="#000000">types.h</text>
</a>
</g>
</g>
<!-- Node4&#45;&gt;Node5 -->
<g id="edge4" class="edge">
<title>Node4&#45;&gt;Node5</title>
<path fill="none" stroke="#191970" d="M170.5,-112.2455C170.5,-104.9382 170.5,-94.6944 170.5,-85.7046"/>
<polygon fill="#191970" stroke="#191970" points="174.0001,-85.6426 170.5,-75.6427 167.0001,-85.6427 174.0001,-85.6426"/>
</g>
<!-- Node6 -->
<g id="node6" class="node">
<title>Node6</title>
<g id="a_node6"><a xlink:title=" ">
<polygon fill="#ffffff" stroke="#bfbfbf" points="142.5,-.5 142.5,-19.5 198.5,-19.5 198.5,-.5 142.5,-.5"/>
<text text-anchor="middle" x="170.5" y="-7.5" font-family="Helvetica,sans-Serif" font-size="10.00" fill="#000000">stddef.h</text>
</a>
</g>
</g>
<!-- Node5&#45;&gt;Node6 -->
<g id="edge5" class="edge">
<title>Node5&#45;&gt;Node6</title>
<path fill="none" stroke="#191970" d="M170.5,-56.2455C170.5,-48.9382 170.5,-38.6944 170.5,-29.7046"/>
<polygon fill="#191970" stroke="#191970" points="174.0001,-29.6426 170.5,-19.6427 167.0001,-29.6427 174.0001,-29.6426"/>
</g>
<!-- Node7 -->
<g id="node7" class="node">
<title>Node7</title>
<g id="a_node7"><a xlink:href="tamtypes_8h.html" target="_top" xlink:title=" ">
<polygon fill="#ffffff" stroke="#000000" points="33.5,-.5 33.5,-19.5 105.5,-19.5 105.5,-.5 33.5,-.5"/>
<text text-anchor="middle" x="69.5" y="-7.5" font-family="Helvetica,sans-Serif" font-size="10.00" fill="#000000">tamtypes.h</text>
</a>
</g>
</g>
<!-- Node5&#45;&gt;Node7 -->
<g id="edge6" class="edge">
<title>Node5&#45;&gt;Node7</title>
<path fill="none" stroke="#191970" d="M152.9071,-56.2455C137.121,-47.4928 113.7361,-34.527 95.7413,-24.5496"/>
<polygon fill="#191970" stroke="#191970" points="97.3341,-21.4308 86.8913,-19.6427 93.9397,-27.5528 97.3341,-21.4308"/>
</g>
<!-- Node8&#45;&gt;Node3 -->
<g id="edge10" class="edge">
<title>Node8&#45;&gt;Node3</title>
<path fill="none" stroke="#191970" d="M42.7382,-168.2455C54.181,-159.814 70.9296,-147.4729 84.2475,-137.6598"/>
<polygon fill="#191970" stroke="#191970" points="86.4391,-140.3924 92.4135,-131.6427 82.2867,-134.757 86.4391,-140.3924"/>
</g>
<!-- Node8&#45;&gt;Node4 -->
<g id="edge9" class="edge">
<title>Node8&#45;&gt;Node4</title>
<path fill="none" stroke="#191970" d="M53.7388,-168.3733C78.1753,-158.668 115.8881,-143.6898 141.8036,-133.3972"/>
<polygon fill="#191970" stroke="#191970" points="143.1042,-136.6466 151.1061,-129.7026 140.5203,-130.1409 143.1042,-136.6466"/>
</g>
<!-- Node8&#45;&gt;Node5 -->
<g id="edge8" class="edge">
<title>Node8&#45;&gt;Node5</title>
<path fill="none" stroke="#191970" d="M33.0524,-168.229C38.623,-154.1192 50.6541,-127.9828 68.5,-112 87.2385,-95.2178 113.118,-83.6438 134.1199,-76.303"/>
<polygon fill="#191970" stroke="#191970" points="135.2943,-79.601 143.6833,-73.1299 133.0899,-72.9571 135.2943,-79.601"/>
</g>
<!-- Node9 -->
<g id="node9" class="node">
<title>Node9</title>
<g id="a_node9"><a xlink:href="setjmp_8h.html" target="_top" xlink:title=" ">
<polygon fill="#ffffff" stroke="#000000" points="2,-56.5 2,-75.5 61,-75.5 61,-56.5 2,-56.5"/>
<text text-anchor="middle" x="31.5" y="-63.5" font-family="Helvetica,sans-Serif" font-size="10.00" fill="#000000">setjmp.h</text>
</a>
</g>
</g>
<!-- Node8&#45;&gt;Node9 -->
<g id="edge11" class="edge">
<title>Node8&#45;&gt;Node9</title>
<path fill="none" stroke="#191970" d="M29.6705,-168.4509C29.9967,-150.184 30.7151,-109.9553 31.1483,-85.6976"/>
<polygon fill="#191970" stroke="#191970" points="34.6507,-85.5858 31.3299,-75.5249 27.6518,-85.4608 34.6507,-85.5858"/>
</g>
<!-- Node9&#45;&gt;Node7 -->
<g id="edge12" class="edge">
<title>Node9&#45;&gt;Node7</title>
<path fill="none" stroke="#191970" d="M38.1191,-56.2455C43.4046,-48.4564 50.9541,-37.3308 57.3238,-27.9439"/>
<polygon fill="#191970" stroke="#191970" points="60.2379,-29.8827 62.9568,-19.6427 54.4455,-25.9522 60.2379,-29.8827"/>
</g>
<!-- Node10&#45;&gt;Node3 -->
<g id="edge16" class="edge">
<title>Node10&#45;&gt;Node3</title>
<path fill="none" stroke="#191970" d="M166.6102,-168.2455C155.5746,-159.8943 139.4708,-147.7076 126.5647,-137.9408"/>
<polygon fill="#191970" stroke="#191970" points="128.3283,-134.8862 118.2421,-131.6427 124.1041,-140.4681 128.3283,-134.8862"/>
</g>
<!-- Node10&#45;&gt;Node4 -->
<g id="edge15" class="edge">
<title>Node10&#45;&gt;Node4</title>
<path fill="none" stroke="#191970" d="M177.9323,-168.2455C176.7579,-160.9382 175.1116,-150.6944 173.6668,-141.7046"/>
<polygon fill="#191970" stroke="#191970" points="177.0922,-140.9606 172.0497,-131.6427 170.1809,-142.0714 177.0922,-140.9606"/>
</g>
<!-- Node10&#45;&gt;Node5 -->
<g id="edge14" class="edge">
<title>Node10&#45;&gt;Node5</title>
<path fill="none" stroke="#191970" d="M185.8236,-168.1721C193.3111,-155.2879 204.1018,-131.9767 198.5,-112 195.7122,-102.0584 190.1188,-92.1336 184.6593,-84.0613"/>
<polygon fill="#191970" stroke="#191970" points="187.4048,-81.8849 178.7089,-75.8323 181.7324,-85.9866 187.4048,-81.8849"/>
</g>
<!-- Node11&#45;&gt;Node4 -->
<g id="edge19" class="edge">
<title>Node11&#45;&gt;Node4</title>
<path fill="none" stroke="#191970" d="M245.649,-168.2455C231.6868,-159.6534 211.1272,-147.0014 195.0404,-137.1018"/>
<polygon fill="#191970" stroke="#191970" points="196.5203,-133.9029 186.1693,-131.6427 192.8516,-139.8645 196.5203,-133.9029"/>
</g>
<!-- Node11&#45;&gt;Node5 -->
<g id="edge18" class="edge">
<title>Node11&#45;&gt;Node5</title>
<path fill="none" stroke="#191970" d="M255.0188,-168.3255C246.1109,-155.2127 229.3775,-131.2278 213.5,-112 205.2711,-102.0347 195.4725,-91.4636 187.3087,-82.9714"/>
<polygon fill="#191970" stroke="#191970" points="189.5707,-80.2774 180.0871,-75.5539 184.5552,-85.1605 189.5707,-80.2774"/>
</g>
<!-- Node12&#45;&gt;Node4 -->
<g id="edge22" class="edge">
<title>Node12&#45;&gt;Node4</title>
<path fill="none" stroke="#191970" d="M314.5883,-168.3733C282.323,-157.989 231.3019,-141.5684 199.4252,-131.3092"/>
<polygon fill="#191970" stroke="#191970" points="200.3878,-127.9423 189.7963,-128.2103 198.2432,-134.6057 200.3878,-127.9423"/>
</g>
<!-- Node13 -->
<g id="node13" class="node">
<title>Node13</title>
<g id="a_node13"><a xlink:title=" ">
<polygon fill="#ffffff" stroke="#bfbfbf" points="318,-112.5 318,-131.5 371,-131.5 371,-112.5 318,-112.5"/>
<text text-anchor="middle" x="344.5" y="-119.5" font-family="Helvetica,sans-Serif" font-size="10.00" fill="#000000">types.h</text>
</a>
</g>
</g>
<!-- Node12&#45;&gt;Node13 -->
<g id="edge21" class="edge">
<title>Node12&#45;&gt;Node13</title>
<path fill="none" stroke="#191970" d="M344.5,-168.2455C344.5,-160.9382 344.5,-150.6944 344.5,-141.7046"/>
<polygon fill="#191970" stroke="#191970" points="348.0001,-141.6426 344.5,-131.6427 341.0001,-141.6427 348.0001,-141.6426"/>
</g>
</g>
</svg>
