<?xml version="1.0" encoding="UTF-8" standalone="no"?>
<!DOCTYPE svg PUBLIC "-//W3C//DTD SVG 1.1//EN"
 "http://www.w3.org/Graphics/SVG/1.1/DTD/svg11.dtd">
<!-- Generated by graphviz version 2.40.1 (20161225.0304)
 -->
<!-- Title: iop/iLink/IEEE1394_disk/src/fs_driver.c Pages: 1 -->
<svg width="1225pt" height="263pt"
 viewBox="0.00 0.00 1225.00 263.00" xmlns="http://www.w3.org/2000/svg" xmlns:xlink="http://www.w3.org/1999/xlink">
<g id="graph0" class="graph" transform="scale(1 1) rotate(0) translate(4 259)">
<title>iop/iLink/IEEE1394_disk/src/fs_driver.c</title>
<polygon fill="#ffffff" stroke="transparent" points="-4,4 -4,-259 1221,-259 1221,4 -4,4"/>
<!-- Node1 -->
<g id="node1" class="node">
<title>Node1</title>
<g id="a_node1"><a xlink:title=" ">
<polygon fill="#bfbfbf" stroke="#000000" points="497,-224.5 497,-254.5 610,-254.5 610,-224.5 497,-224.5"/>
<text text-anchor="start" x="505" y="-242.5" font-family="Helvetica,sans-Serif" font-size="10.00" fill="#000000">iop/iLink/IEEE1394</text>
<text text-anchor="middle" x="553.5" y="-231.5" font-family="Helvetica,sans-Serif" font-size="10.00" fill="#000000">_disk/src/fs_driver.c</text>
</a>
</g>
</g>
<!-- Node2 -->
<g id="node2" class="node">
<title>Node2</title>
<g id="a_node2"><a xlink:href="stdio_8h.html" target="_top" xlink:title=" ">
<polygon fill="#ffffff" stroke="#000000" points="163.5,-168.5 163.5,-187.5 213.5,-187.5 213.5,-168.5 163.5,-168.5"/>
<text text-anchor="middle" x="188.5" y="-175.5" font-family="Helvetica,sans-Serif" font-size="10.00" fill="#000000">stdio.h</text>
</a>
</g>
</g>
<!-- Node1&#45;&gt;Node2 -->
<g id="edge1" class="edge">
<title>Node1&#45;&gt;Node2</title>
<path fill="none" stroke="#191970" d="M496.7573,-232.8104C430.6933,-224.5229 318.4982,-208.9001 223.5,-188 223.3997,-187.9779 223.2993,-187.9557 223.1987,-187.9334"/>
<polygon fill="#191970" stroke="#191970" points="224.1867,-184.5722 213.6404,-185.5847 222.5163,-191.3699 224.1867,-184.5722"/>
</g>
<!-- Node8 -->
<g id="node8" class="node">
<title>Node8</title>
<g id="a_node8"><a xlink:href="errno_8h.html" target="_top" xlink:title=" ">
<polygon fill="#ffffff" stroke="#000000" points="477,-168.5 477,-187.5 528,-187.5 528,-168.5 477,-168.5"/>
<text text-anchor="middle" x="502.5" y="-175.5" font-family="Helvetica,sans-Serif" font-size="10.00" fill="#000000">errno.h</text>
</a>
</g>
</g>
<!-- Node1&#45;&gt;Node8 -->
<g id="edge7" class="edge">
<title>Node1&#45;&gt;Node8</title>
<path fill="none" stroke="#191970" d="M540.8933,-224.2977C533.7402,-215.672 524.7503,-204.8312 517.2682,-195.8087"/>
<polygon fill="#191970" stroke="#191970" points="519.7433,-193.3103 510.6657,-187.8469 514.355,-197.7787 519.7433,-193.3103"/>
</g>
<!-- Node9 -->
<g id="node9" class="node">
<title>Node9</title>
<g id="a_node9"><a xlink:href="iomanX_8h.html" target="_top" xlink:title=" ">
<polygon fill="#ffffff" stroke="#000000" points="396,-168.5 396,-187.5 459,-187.5 459,-168.5 396,-168.5"/>
<text text-anchor="middle" x="427.5" y="-175.5" font-family="Helvetica,sans-Serif" font-size="10.00" fill="#000000">iomanX.h</text>
</a>
</g>
</g>
<!-- Node1&#45;&gt;Node9 -->
<g id="edge8" class="edge">
<title>Node1&#45;&gt;Node9</title>
<path fill="none" stroke="#191970" d="M522.6769,-224.4554C502.3912,-214.554 476.0212,-201.683 456.1838,-192.0004"/>
<polygon fill="#191970" stroke="#191970" points="457.5474,-188.7714 447.0255,-187.5303 454.477,-195.062 457.5474,-188.7714"/>
</g>
<!-- Node15 -->
<g id="node15" class="node">
<title>Node15</title>
<g id="a_node15"><a xlink:href="sysclib_8h.html" target="_top" xlink:title=" ">
<polygon fill="#ffffff" stroke="#000000" points="0,-168.5 0,-187.5 59,-187.5 59,-168.5 0,-168.5"/>
<text text-anchor="middle" x="29.5" y="-175.5" font-family="Helvetica,sans-Serif" font-size="10.00" fill="#000000">sysclib.h</text>
</a>
</g>
</g>
<!-- Node1&#45;&gt;Node15 -->
<g id="edge16" class="edge">
<title>Node1&#45;&gt;Node15</title>
<path fill="none" stroke="#191970" d="M496.7435,-236.1554C407.663,-230.3181 229.5353,-216.2763 69.2556,-187.8941"/>
<polygon fill="#191970" stroke="#191970" points="69.6735,-184.4133 59.2126,-186.0925 68.4375,-191.3033 69.6735,-184.4133"/>
</g>
<!-- Node17 -->
<g id="node17" class="node">
<title>Node17</title>
<g id="a_node17"><a xlink:href="thsemap_8h.html" target="_top" xlink:title=" ">
<polygon fill="#ffffff" stroke="#000000" points="309.5,-168.5 309.5,-187.5 377.5,-187.5 377.5,-168.5 309.5,-168.5"/>
<text text-anchor="middle" x="343.5" y="-175.5" font-family="Helvetica,sans-Serif" font-size="10.00" fill="#000000">thsemap.h</text>
</a>
</g>
</g>
<!-- Node1&#45;&gt;Node17 -->
<g id="edge22" class="edge">
<title>Node1&#45;&gt;Node17</title>
<path fill="none" stroke="#191970" d="M502.1282,-224.4554C466.4745,-214.0139 419.5439,-200.27 385.9968,-190.4455"/>
<polygon fill="#191970" stroke="#191970" points="386.6232,-186.982 376.0425,-187.5303 384.6558,-193.6998 386.6232,-186.982"/>
</g>
<!-- Node18 -->
<g id="node18" class="node">
<title>Node18</title>
<g id="a_node18"><a xlink:href="thbase_8h.html" target="_top" xlink:title=" ">
<polygon fill="#ffffff" stroke="#000000" points="232,-168.5 232,-187.5 291,-187.5 291,-168.5 232,-168.5"/>
<text text-anchor="middle" x="261.5" y="-175.5" font-family="Helvetica,sans-Serif" font-size="10.00" fill="#000000">thbase.h</text>
</a>
</g>
</g>
<!-- Node1&#45;&gt;Node18 -->
<g id="edge25" class="edge">
<title>Node1&#45;&gt;Node18</title>
<path fill="none" stroke="#191970" d="M496.8029,-228.8035C447.6205,-219.3329 374.299,-204.7562 301.1259,-188.0595"/>
<polygon fill="#191970" stroke="#191970" points="301.8025,-184.6239 291.273,-185.798 300.2365,-191.4465 301.8025,-184.6239"/>
</g>
<!-- Node19 -->
<g id="node19" class="node">
<title>Node19</title>
<g id="a_node19"><a xlink:href="sysmem_8h.html" target="_top" xlink:title=" ">
<polygon fill="#ffffff" stroke="#000000" points="77.5,-168.5 77.5,-187.5 145.5,-187.5 145.5,-168.5 77.5,-168.5"/>
<text text-anchor="middle" x="111.5" y="-175.5" font-family="Helvetica,sans-Serif" font-size="10.00" fill="#000000">sysmem.h</text>
</a>
</g>
</g>
<!-- Node1&#45;&gt;Node19 -->
<g id="edge28" class="edge">
<title>Node1&#45;&gt;Node19</title>
<path fill="none" stroke="#191970" d="M496.7315,-233.9813C421.0779,-226.2259 282.8908,-210.6649 155.6264,-188.0608"/>
<polygon fill="#191970" stroke="#191970" points="156.1645,-184.6015 145.7034,-186.2798 154.9278,-191.4915 156.1645,-184.6015"/>
</g>
<!-- Node20 -->
<g id="node20" class="node">
<title>Node20</title>
<g id="a_node20"><a xlink:href="usbhdfsd-common_8h.html" target="_top" xlink:title=" ">
<polygon fill="#ffffff" stroke="#000000" points="546.5,-168.5 546.5,-187.5 662.5,-187.5 662.5,-168.5 546.5,-168.5"/>
<text text-anchor="middle" x="604.5" y="-175.5" font-family="Helvetica,sans-Serif" font-size="10.00" fill="#000000">usbhdfsd&#45;common.h</text>
</a>
</g>
</g>
<!-- Node1&#45;&gt;Node20 -->
<g id="edge32" class="edge">
<title>Node1&#45;&gt;Node20</title>
<path fill="none" stroke="#191970" d="M566.1067,-224.2977C573.2598,-215.672 582.2497,-204.8312 589.7318,-195.8087"/>
<polygon fill="#191970" stroke="#191970" points="592.645,-197.7787 596.3343,-187.8469 587.2567,-193.3103 592.645,-197.7787"/>
</g>
<!-- Node21 -->
<g id="node21" class="node">
<title>Node21</title>
<g id="a_node21"><a xlink:title=" ">
<polygon fill="#ffffff" stroke="#bfbfbf" points="681,-168.5 681,-187.5 784,-187.5 784,-168.5 681,-168.5"/>
<text text-anchor="middle" x="732.5" y="-175.5" font-family="Helvetica,sans-Serif" font-size="10.00" fill="#000000">usbhd_common.h</text>
</a>
</g>
</g>
<!-- Node1&#45;&gt;Node21 -->
<g id="edge33" class="edge">
<title>Node1&#45;&gt;Node21</title>
<path fill="none" stroke="#191970" d="M597.2883,-224.4554C627.2859,-214.149 666.6487,-200.6249 695.1616,-190.8286"/>
<polygon fill="#191970" stroke="#191970" points="696.4413,-194.0898 704.7614,-187.5303 694.1667,-187.4696 696.4413,-194.0898"/>
</g>
<!-- Node22 -->
<g id="node22" class="node">
<title>Node22</title>
<g id="a_node22"><a xlink:title=" ">
<polygon fill="#ffffff" stroke="#bfbfbf" points="802.5,-168.5 802.5,-187.5 874.5,-187.5 874.5,-168.5 802.5,-168.5"/>
<text text-anchor="middle" x="838.5" y="-175.5" font-family="Helvetica,sans-Serif" font-size="10.00" fill="#000000">fat_driver.h</text>
</a>
</g>
</g>
<!-- Node1&#45;&gt;Node22 -->
<g id="edge34" class="edge">
<title>Node1&#45;&gt;Node22</title>
<path fill="none" stroke="#191970" d="M610.2604,-227.442C656.6274,-217.5642 724.1485,-203.1168 792.1255,-188.2901"/>
<polygon fill="#191970" stroke="#191970" points="793.1324,-191.6528 802.1557,-186.1003 791.6393,-184.8139 793.1324,-191.6528"/>
</g>
<!-- Node23 -->
<g id="node23" class="node">
<title>Node23</title>
<g id="a_node23"><a xlink:title=" ">
<polygon fill="#ffffff" stroke="#bfbfbf" points="893,-168.5 893,-187.5 962,-187.5 962,-168.5 893,-168.5"/>
<text text-anchor="middle" x="927.5" y="-175.5" font-family="Helvetica,sans-Serif" font-size="10.00" fill="#000000">fat_write.h</text>
</a>
</g>
</g>
<!-- Node1&#45;&gt;Node23 -->
<g id="edge35" class="edge">
<title>Node1&#45;&gt;Node23</title>
<path fill="none" stroke="#191970" d="M610.0512,-231.8793C673.8775,-223.0085 781.008,-207.3086 883.0976,-187.9685"/>
<polygon fill="#191970" stroke="#191970" points="883.7937,-191.3989 892.9599,-186.0856 882.4809,-184.5231 883.7937,-191.3989"/>
</g>
<!-- Node24 -->
<g id="node24" class="node">
<title>Node24</title>
<g id="a_node24"><a xlink:title=" ">
<polygon fill="#ffffff" stroke="#bfbfbf" points="980,-168.5 980,-187.5 1019,-187.5 1019,-168.5 980,-168.5"/>
<text text-anchor="middle" x="999.5" y="-175.5" font-family="Helvetica,sans-Serif" font-size="10.00" fill="#000000">fat.h</text>
</a>
</g>
</g>
<!-- Node1&#45;&gt;Node24 -->
<g id="edge36" class="edge">
<title>Node1&#45;&gt;Node24</title>
<path fill="none" stroke="#191970" d="M610.3153,-236.477C689.4063,-231.3967 837.0714,-218.7489 969.8397,-187.9948"/>
<polygon fill="#191970" stroke="#191970" points="970.848,-191.3531 979.7779,-185.6517 969.2416,-184.5399 970.848,-191.3531"/>
</g>
<!-- Node25 -->
<g id="node25" class="node">
<title>Node25</title>
<g id="a_node25"><a xlink:title=" ">
<polygon fill="#ffffff" stroke="#bfbfbf" points="1037.5,-168.5 1037.5,-187.5 1111.5,-187.5 1111.5,-168.5 1037.5,-168.5"/>
<text text-anchor="middle" x="1074.5" y="-175.5" font-family="Helvetica,sans-Serif" font-size="10.00" fill="#000000">sbp2_disk.h</text>
</a>
</g>
</g>
<!-- Node1&#45;&gt;Node25 -->
<g id="edge37" class="edge">
<title>Node1&#45;&gt;Node25</title>
<path fill="none" stroke="#191970" d="M610.0625,-235.3201C697.4301,-228.4347 870.6124,-213.0829 1027.1235,-188.0782"/>
<polygon fill="#191970" stroke="#191970" points="1028.0934,-191.467 1037.4074,-186.4172 1026.9772,-184.5565 1028.0934,-191.467"/>
</g>
<!-- Node26 -->
<g id="node26" class="node">
<title>Node26</title>
<g id="a_node26"><a xlink:title=" ">
<polygon fill="#ffffff" stroke="#bfbfbf" points="1130,-168.5 1130,-187.5 1217,-187.5 1217,-168.5 1130,-168.5"/>
<text text-anchor="middle" x="1173.5" y="-175.5" font-family="Helvetica,sans-Serif" font-size="10.00" fill="#000000">mass_debug.h</text>
</a>
</g>
</g>
<!-- Node1&#45;&gt;Node26 -->
<g id="edge38" class="edge">
<title>Node1&#45;&gt;Node26</title>
<path fill="none" stroke="#191970" d="M610.0394,-236.167C710.5182,-229.8502 926.9373,-214.4712 1119.8418,-187.9656"/>
<polygon fill="#191970" stroke="#191970" points="1120.4576,-191.4138 1129.8818,-186.573 1119.4957,-184.4802 1120.4576,-191.4138"/>
</g>
<!-- Node3 -->
<g id="node3" class="node">
<title>Node3</title>
<g id="a_node3"><a xlink:title=" ">
<polygon fill="#ffffff" stroke="#bfbfbf" points="83.5,-112.5 83.5,-131.5 139.5,-131.5 139.5,-112.5 83.5,-112.5"/>
<text text-anchor="middle" x="111.5" y="-119.5" font-family="Helvetica,sans-Serif" font-size="10.00" fill="#000000">stdarg.h</text>
</a>
</g>
</g>
<!-- Node2&#45;&gt;Node3 -->
<g id="edge2" class="edge">
<title>Node2&#45;&gt;Node3</title>
<path fill="none" stroke="#191970" d="M175.0876,-168.2455C163.4943,-159.814 146.5252,-147.4729 133.0322,-137.6598"/>
<polygon fill="#191970" stroke="#191970" points="134.9047,-134.6938 124.7587,-131.6427 130.7874,-140.355 134.9047,-134.6938"/>
</g>
<!-- Node4 -->
<g id="node4" class="node">
<title>Node4</title>
<g id="a_node4"><a xlink:href="irx_8h.html" target="_top" xlink:title=" ">
<polygon fill="#ffffff" stroke="#000000" points="195.5,-112.5 195.5,-131.5 233.5,-131.5 233.5,-112.5 195.5,-112.5"/>
<text text-anchor="middle" x="214.5" y="-119.5" font-family="Helvetica,sans-Serif" font-size="10.00" fill="#000000">irx.h</text>
</a>
</g>
</g>
<!-- Node2&#45;&gt;Node4 -->
<g id="edge3" class="edge">
<title>Node2&#45;&gt;Node4</title>
<path fill="none" stroke="#191970" d="M193.0289,-168.2455C196.5334,-160.6973 201.4927,-150.0158 205.7623,-140.8197"/>
<polygon fill="#191970" stroke="#191970" points="208.9864,-142.1867 210.023,-131.6427 202.6373,-139.2389 208.9864,-142.1867"/>
</g>
<!-- Node5 -->
<g id="node5" class="node">
<title>Node5</title>
<g id="a_node5"><a xlink:href="types_8h.html" target="_top" xlink:title=" ">
<polygon fill="#ffffff" stroke="#000000" points="188,-56.5 188,-75.5 241,-75.5 241,-56.5 188,-56.5"/>
<text text-anchor="middle" x="214.5" y="-63.5" font-family="Helvetica,sans-Serif" font-size="10.00" fill="#000000">types.h</text>
</a>
</g>
</g>
<!-- Node4&#45;&gt;Node5 -->
<g id="edge4" class="edge">
<title>Node4&#45;&gt;Node5</title>
<path fill="none" stroke="#191970" d="M214.5,-112.2455C214.5,-104.9382 214.5,-94.6944 214.5,-85.7046"/>
<polygon fill="#191970" stroke="#191970" points="218.0001,-85.6426 214.5,-75.6427 211.0001,-85.6427 218.0001,-85.6426"/>
</g>
<!-- Node6 -->
<g id="node6" class="node">
<title>Node6</title>
<g id="a_node6"><a xlink:title=" ">
<polygon fill="#ffffff" stroke="#bfbfbf" points="186.5,-.5 186.5,-19.5 242.5,-19.5 242.5,-.5 186.5,-.5"/>
<text text-anchor="middle" x="214.5" y="-7.5" font-family="Helvetica,sans-Serif" font-size="10.00" fill="#000000">stddef.h</text>
</a>
</g>
</g>
<!-- Node5&#45;&gt;Node6 -->
<g id="edge5" class="edge">
<title>Node5&#45;&gt;Node6</title>
<path fill="none" stroke="#191970" d="M214.5,-56.2455C214.5,-48.9382 214.5,-38.6944 214.5,-29.7046"/>
<polygon fill="#191970" stroke="#191970" points="218.0001,-29.6426 214.5,-19.6427 211.0001,-29.6427 218.0001,-29.6426"/>
</g>
<!-- Node7 -->
<g id="node7" class="node">
<title>Node7</title>
<g id="a_node7"><a xlink:href="tamtypes_8h.html" target="_top" xlink:title=" ">
<polygon fill="#ffffff" stroke="#000000" points="67.5,-.5 67.5,-19.5 139.5,-19.5 139.5,-.5 67.5,-.5"/>
<text text-anchor="middle" x="103.5" y="-7.5" font-family="Helvetica,sans-Serif" font-size="10.00" fill="#000000">tamtypes.h</text>
</a>
</g>
</g>
<!-- Node5&#45;&gt;Node7 -->
<g id="edge6" class="edge">
<title>Node5&#45;&gt;Node7</title>
<path fill="none" stroke="#191970" d="M195.4184,-56.3733C177.7598,-47.4644 151.2947,-34.1127 131.2902,-24.0203"/>
<polygon fill="#191970" stroke="#191970" points="132.8372,-20.8806 122.3326,-19.5011 129.6842,-27.1303 132.8372,-20.8806"/>
</g>
<!-- Node9&#45;&gt;Node4 -->
<g id="edge10" class="edge">
<title>Node9&#45;&gt;Node4</title>
<path fill="none" stroke="#191970" d="M395.6117,-169.6162C354.383,-158.7767 283.1742,-140.0552 243.438,-129.6081"/>
<polygon fill="#191970" stroke="#191970" points="244.1445,-126.175 233.5832,-127.0172 242.3645,-132.9449 244.1445,-126.175"/>
</g>
<!-- Node9&#45;&gt;Node5 -->
<g id="edge9" class="edge">
<title>Node9&#45;&gt;Node5</title>
<path fill="none" stroke="#191970" d="M409.3397,-168.4509C371.849,-148.7375 285.7153,-103.4465 241.6087,-80.2543"/>
<polygon fill="#191970" stroke="#191970" points="243.0942,-77.0811 232.6143,-75.5249 239.8364,-83.2768 243.0942,-77.0811"/>
</g>
<!-- Node10 -->
<g id="node10" class="node">
<title>Node10</title>
<g id="a_node10"><a xlink:href="io__common_8h.html" target="_top" xlink:title=" ">
<polygon fill="#ffffff" stroke="#000000" points="383,-112.5 383,-131.5 466,-131.5 466,-112.5 383,-112.5"/>
<text text-anchor="middle" x="424.5" y="-119.5" font-family="Helvetica,sans-Serif" font-size="10.00" fill="#000000">io_common.h</text>
</a>
</g>
</g>
<!-- Node9&#45;&gt;Node10 -->
<g id="edge11" class="edge">
<title>Node9&#45;&gt;Node10</title>
<path fill="none" stroke="#191970" d="M426.9774,-168.2455C426.586,-160.9382 426.0372,-150.6944 425.5556,-141.7046"/>
<polygon fill="#191970" stroke="#191970" points="429.0466,-141.4411 425.0166,-131.6427 422.0566,-141.8156 429.0466,-141.4411"/>
</g>
<!-- Node13 -->
<g id="node13" class="node">
<title>Node13</title>
<g id="a_node13"><a xlink:href="iox__stat_8h.html" target="_top" xlink:title=" ">
<polygon fill="#ffffff" stroke="#000000" points="484,-112.5 484,-131.5 549,-131.5 549,-112.5 484,-112.5"/>
<text text-anchor="middle" x="516.5" y="-119.5" font-family="Helvetica,sans-Serif" font-size="10.00" fill="#000000">iox_stat.h</text>
</a>
</g>
</g>
<!-- Node9&#45;&gt;Node13 -->
<g id="edge14" class="edge">
<title>Node9&#45;&gt;Node13</title>
<path fill="none" stroke="#191970" d="M443.0026,-168.2455C456.658,-159.6534 476.7657,-147.0014 492.4989,-137.1018"/>
<polygon fill="#191970" stroke="#191970" points="494.5751,-139.9307 501.175,-131.6427 490.8471,-134.006 494.5751,-139.9307"/>
</g>
<!-- Node11 -->
<g id="node11" class="node">
<title>Node11</title>
<g id="a_node11"><a xlink:href="fcntl_8h.html" target="_top" xlink:title=" ">
<polygon fill="#ffffff" stroke="#000000" points="303,-56.5 303,-75.5 370,-75.5 370,-56.5 303,-56.5"/>
<text text-anchor="middle" x="336.5" y="-63.5" font-family="Helvetica,sans-Serif" font-size="10.00" fill="#000000">sys/fcntl.h</text>
</a>
</g>
</g>
<!-- Node10&#45;&gt;Node11 -->
<g id="edge12" class="edge">
<title>Node10&#45;&gt;Node11</title>
<path fill="none" stroke="#191970" d="M409.1716,-112.2455C395.6697,-103.6534 375.7878,-91.0014 360.2314,-81.1018"/>
<polygon fill="#191970" stroke="#191970" points="361.9685,-78.0587 351.6528,-75.6427 358.2103,-83.9643 361.9685,-78.0587"/>
</g>
<!-- Node12 -->
<g id="node12" class="node">
<title>Node12</title>
<g id="a_node12"><a xlink:href="unistd_8h.html" target="_top" xlink:title=" ">
<polygon fill="#ffffff" stroke="#000000" points="388,-56.5 388,-75.5 463,-75.5 463,-56.5 388,-56.5"/>
<text text-anchor="middle" x="425.5" y="-63.5" font-family="Helvetica,sans-Serif" font-size="10.00" fill="#000000">sys/unistd.h</text>
</a>
</g>
</g>
<!-- Node10&#45;&gt;Node12 -->
<g id="edge13" class="edge">
<title>Node10&#45;&gt;Node12</title>
<path fill="none" stroke="#191970" d="M424.6742,-112.2455C424.8047,-104.9382 424.9876,-94.6944 425.1481,-85.7046"/>
<polygon fill="#191970" stroke="#191970" points="428.6486,-85.7036 425.3278,-75.6427 421.6497,-85.5786 428.6486,-85.7036"/>
</g>
<!-- Node14 -->
<g id="node14" class="node">
<title>Node14</title>
<g id="a_node14"><a xlink:href="time_8h.html" target="_top" xlink:title=" ">
<polygon fill="#ffffff" stroke="#000000" points="482.5,-56.5 482.5,-75.5 550.5,-75.5 550.5,-56.5 482.5,-56.5"/>
<text text-anchor="middle" x="516.5" y="-63.5" font-family="Helvetica,sans-Serif" font-size="10.00" fill="#000000">sys/time.h</text>
</a>
</g>
</g>
<!-- Node13&#45;&gt;Node14 -->
<g id="edge15" class="edge">
<title>Node13&#45;&gt;Node14</title>
<path fill="none" stroke="#191970" d="M516.5,-112.2455C516.5,-104.9382 516.5,-94.6944 516.5,-85.7046"/>
<polygon fill="#191970" stroke="#191970" points="520.0001,-85.6426 516.5,-75.6427 513.0001,-85.6427 520.0001,-85.6426"/>
</g>
<!-- Node15&#45;&gt;Node3 -->
<g id="edge19" class="edge">
<title>Node15&#45;&gt;Node3</title>
<path fill="none" stroke="#191970" d="M43.7833,-168.2455C56.247,-159.7337 74.5451,-147.2375 88.9792,-137.3801"/>
<polygon fill="#191970" stroke="#191970" points="91.0962,-140.1726 97.3804,-131.6427 87.1485,-134.392 91.0962,-140.1726"/>
</g>
<!-- Node15&#45;&gt;Node4 -->
<g id="edge18" class="edge">
<title>Node15&#45;&gt;Node4</title>
<path fill="none" stroke="#191970" d="M59.2235,-169.0026C93.9348,-158.4954 150.9771,-141.2286 185.4128,-130.8048"/>
<polygon fill="#191970" stroke="#191970" points="186.7671,-134.0517 195.3242,-127.8046 184.739,-127.352 186.7671,-134.0517"/>
</g>
<!-- Node15&#45;&gt;Node5 -->
<g id="edge17" class="edge">
<title>Node15&#45;&gt;Node5</title>
<path fill="none" stroke="#191970" d="M33.5502,-168.4473C40.0944,-154.1303 54.3293,-127.1727 74.5,-112 105.0427,-89.0253 147.6125,-77.2 177.7723,-71.3352"/>
<polygon fill="#191970" stroke="#191970" points="178.668,-74.7299 187.8825,-69.5009 177.4183,-67.8424 178.668,-74.7299"/>
</g>
<!-- Node16 -->
<g id="node16" class="node">
<title>Node16</title>
<g id="a_node16"><a xlink:href="setjmp_8h.html" target="_top" xlink:title=" ">
<polygon fill="#ffffff" stroke="#000000" points="17,-56.5 17,-75.5 76,-75.5 76,-56.5 17,-56.5"/>
<text text-anchor="middle" x="46.5" y="-63.5" font-family="Helvetica,sans-Serif" font-size="10.00" fill="#000000">setjmp.h</text>
</a>
</g>
</g>
<!-- Node15&#45;&gt;Node16 -->
<g id="edge20" class="edge">
<title>Node15&#45;&gt;Node16</title>
<path fill="none" stroke="#191970" d="M30.9494,-168.4509C33.7221,-150.184 39.8282,-109.9553 43.5102,-85.6976"/>
<polygon fill="#191970" stroke="#191970" points="47.0139,-85.9369 45.0543,-75.5249 40.0931,-84.8864 47.0139,-85.9369"/>
</g>
<!-- Node16&#45;&gt;Node7 -->
<g id="edge21" class="edge">
<title>Node16&#45;&gt;Node7</title>
<path fill="none" stroke="#191970" d="M56.4286,-56.2455C64.6838,-48.1352 76.6209,-36.4075 86.4082,-26.7919"/>
<polygon fill="#191970" stroke="#191970" points="89.0046,-29.1476 93.6851,-19.6427 84.0989,-24.1542 89.0046,-29.1476"/>
</g>
<!-- Node17&#45;&gt;Node4 -->
<g id="edge24" class="edge">
<title>Node17&#45;&gt;Node4</title>
<path fill="none" stroke="#191970" d="M321.3241,-168.3733C299.767,-159.0151 266.917,-144.7547 243.3389,-134.5192"/>
<polygon fill="#191970" stroke="#191970" points="244.4284,-131.1766 233.8617,-130.4051 241.6409,-137.5977 244.4284,-131.1766"/>
</g>
<!-- Node17&#45;&gt;Node5 -->
<g id="edge23" class="edge">
<title>Node17&#45;&gt;Node5</title>
<path fill="none" stroke="#191970" d="M332.5015,-168.4509C310.4147,-149.2747 260.4519,-105.8962 233.1576,-82.1988"/>
<polygon fill="#191970" stroke="#191970" points="235.3164,-79.438 225.4706,-75.5249 230.7271,-84.7238 235.3164,-79.438"/>
</g>
<!-- Node18&#45;&gt;Node4 -->
<g id="edge27" class="edge">
<title>Node18&#45;&gt;Node4</title>
<path fill="none" stroke="#191970" d="M253.3132,-168.2455C246.6411,-160.2958 237.0521,-148.8706 229.0747,-139.3656"/>
<polygon fill="#191970" stroke="#191970" points="231.7026,-137.0524 222.593,-131.6427 226.3408,-141.5525 231.7026,-137.0524"/>
</g>
<!-- Node18&#45;&gt;Node5 -->
<g id="edge26" class="edge">
<title>Node18&#45;&gt;Node5</title>
<path fill="none" stroke="#191970" d="M259.5639,-168.3223C256.7513,-155.2057 250.9333,-131.2166 242.5,-112 238.2962,-102.4209 232.4182,-92.4278 227.1326,-84.2126"/>
<polygon fill="#191970" stroke="#191970" points="229.9931,-82.1934 221.5375,-75.8095 224.1665,-86.073 229.9931,-82.1934"/>
</g>
<!-- Node19&#45;&gt;Node3 -->
<g id="edge31" class="edge">
<title>Node19&#45;&gt;Node3</title>
<path fill="none" stroke="#191970" d="M111.5,-168.2455C111.5,-160.9382 111.5,-150.6944 111.5,-141.7046"/>
<polygon fill="#191970" stroke="#191970" points="115.0001,-141.6426 111.5,-131.6427 108.0001,-141.6427 115.0001,-141.6426"/>
</g>
<!-- Node19&#45;&gt;Node4 -->
<g id="edge30" class="edge">
<title>Node19&#45;&gt;Node4</title>
<path fill="none" stroke="#191970" d="M129.4412,-168.2455C145.54,-159.4928 169.3879,-146.527 187.7391,-136.5496"/>
<polygon fill="#191970" stroke="#191970" points="189.6507,-139.4942 196.7644,-131.6427 186.3071,-133.3444 189.6507,-139.4942"/>
</g>
<!-- Node19&#45;&gt;Node5 -->
<g id="edge29" class="edge">
<title>Node19&#45;&gt;Node5</title>
<path fill="none" stroke="#191970" d="M120.2817,-168.4509C137.6889,-149.5227 176.7817,-107.014 198.7485,-83.1279"/>
<polygon fill="#191970" stroke="#191970" points="201.5476,-85.2547 205.7405,-75.5249 196.3951,-80.5163 201.5476,-85.2547"/>
</g>
</g>
</svg>
