<?xml version="1.0" encoding="UTF-8" standalone="no"?>
<!DOCTYPE svg PUBLIC "-//W3C//DTD SVG 1.1//EN"
 "http://www.w3.org/Graphics/SVG/1.1/DTD/svg11.dtd">
<!-- Generated by graphviz version 2.40.1 (20161225.0304)
 -->
<!-- Title: iop/iLink/IEEE1394_disk/src/fat_driver.c Pages: 1 -->
<svg width="974pt" height="263pt"
 viewBox="0.00 0.00 974.00 263.00" xmlns="http://www.w3.org/2000/svg" xmlns:xlink="http://www.w3.org/1999/xlink">
<g id="graph0" class="graph" transform="scale(1 1) rotate(0) translate(4 259)">
<title>iop/iLink/IEEE1394_disk/src/fat_driver.c</title>
<polygon fill="#ffffff" stroke="transparent" points="-4,4 -4,-259 970,-259 970,4 -4,4"/>
<!-- Node1 -->
<g id="node1" class="node">
<title>Node1</title>
<g id="a_node1"><a xlink:title=" ">
<polygon fill="#bfbfbf" stroke="#000000" points="420,-224.5 420,-254.5 537,-254.5 537,-224.5 420,-224.5"/>
<text text-anchor="start" x="428" y="-242.5" font-family="Helvetica,sans-Serif" font-size="10.00" fill="#000000">iop/iLink/IEEE1394</text>
<text text-anchor="middle" x="478.5" y="-231.5" font-family="Helvetica,sans-Serif" font-size="10.00" fill="#000000">_disk/src/fat_driver.c</text>
</a>
</g>
</g>
<!-- Node2 -->
<g id="node2" class="node">
<title>Node2</title>
<g id="a_node2"><a xlink:href="stdio_8h.html" target="_top" xlink:title=" ">
<polygon fill="#ffffff" stroke="#000000" points="146.5,-168.5 146.5,-187.5 196.5,-187.5 196.5,-168.5 146.5,-168.5"/>
<text text-anchor="middle" x="171.5" y="-175.5" font-family="Helvetica,sans-Serif" font-size="10.00" fill="#000000">stdio.h</text>
</a>
</g>
</g>
<!-- Node1&#45;&gt;Node2 -->
<g id="edge1" class="edge">
<title>Node1&#45;&gt;Node2</title>
<path fill="none" stroke="#191970" d="M419.8275,-230.1706C366.5761,-221.3105 285.7344,-206.8836 206.7921,-188.1371"/>
<polygon fill="#191970" stroke="#191970" points="207.2166,-184.6396 196.6758,-185.7081 205.5823,-191.4462 207.2166,-184.6396"/>
</g>
<!-- Node8 -->
<g id="node8" class="node">
<title>Node8</title>
<g id="a_node8"><a xlink:href="errno_8h.html" target="_top" xlink:title=" ">
<polygon fill="#ffffff" stroke="#000000" points="77,-168.5 77,-187.5 128,-187.5 128,-168.5 77,-168.5"/>
<text text-anchor="middle" x="102.5" y="-175.5" font-family="Helvetica,sans-Serif" font-size="10.00" fill="#000000">errno.h</text>
</a>
</g>
</g>
<!-- Node1&#45;&gt;Node8 -->
<g id="edge7" class="edge">
<title>Node1&#45;&gt;Node8</title>
<path fill="none" stroke="#191970" d="M419.8583,-232.9669C353.6519,-225.0721 242.6196,-210.2701 137.8141,-187.825"/>
<polygon fill="#191970" stroke="#191970" points="138.5328,-184.3996 128.0182,-185.7005 137.0492,-191.2405 138.5328,-184.3996"/>
</g>
<!-- Node9 -->
<g id="node9" class="node">
<title>Node9</title>
<g id="a_node9"><a xlink:href="sysclib_8h.html" target="_top" xlink:title=" ">
<polygon fill="#ffffff" stroke="#000000" points="0,-168.5 0,-187.5 59,-187.5 59,-168.5 0,-168.5"/>
<text text-anchor="middle" x="29.5" y="-175.5" font-family="Helvetica,sans-Serif" font-size="10.00" fill="#000000">sysclib.h</text>
</a>
</g>
</g>
<!-- Node1&#45;&gt;Node9 -->
<g id="edge8" class="edge">
<title>Node1&#45;&gt;Node9</title>
<path fill="none" stroke="#191970" d="M419.9219,-234.6251C341.8795,-227.5849 199.4077,-212.8339 69.4176,-188.1843"/>
<polygon fill="#191970" stroke="#191970" points="69.7656,-184.6872 59.2848,-186.2376 68.4448,-191.5615 69.7656,-184.6872"/>
</g>
<!-- Node11 -->
<g id="node11" class="node">
<title>Node11</title>
<g id="a_node11"><a xlink:href="thbase_8h.html" target="_top" xlink:title=" ">
<polygon fill="#ffffff" stroke="#000000" points="301,-168.5 301,-187.5 360,-187.5 360,-168.5 301,-168.5"/>
<text text-anchor="middle" x="330.5" y="-175.5" font-family="Helvetica,sans-Serif" font-size="10.00" fill="#000000">thbase.h</text>
</a>
</g>
</g>
<!-- Node1&#45;&gt;Node11 -->
<g id="edge14" class="edge">
<title>Node1&#45;&gt;Node11</title>
<path fill="none" stroke="#191970" d="M442.2951,-224.4554C418.0342,-214.374 386.3644,-201.2139 362.9288,-191.4755"/>
<polygon fill="#191970" stroke="#191970" points="364.0123,-188.1356 353.4347,-187.5303 361.3261,-194.5997 364.0123,-188.1356"/>
</g>
<!-- Node12 -->
<g id="node12" class="node">
<title>Node12</title>
<g id="a_node12"><a xlink:href="sysmem_8h.html" target="_top" xlink:title=" ">
<polygon fill="#ffffff" stroke="#000000" points="214.5,-168.5 214.5,-187.5 282.5,-187.5 282.5,-168.5 214.5,-168.5"/>
<text text-anchor="middle" x="248.5" y="-175.5" font-family="Helvetica,sans-Serif" font-size="10.00" fill="#000000">sysmem.h</text>
</a>
</g>
</g>
<!-- Node1&#45;&gt;Node12 -->
<g id="edge17" class="edge">
<title>Node1&#45;&gt;Node12</title>
<path fill="none" stroke="#191970" d="M422.2357,-224.4554C382.3634,-213.7939 329.6144,-199.6893 292.7411,-189.8297"/>
<polygon fill="#191970" stroke="#191970" points="293.3505,-186.3697 282.7858,-187.1677 291.5423,-193.1322 293.3505,-186.3697"/>
</g>
<!-- Node13 -->
<g id="node13" class="node">
<title>Node13</title>
<g id="a_node13"><a xlink:title=" ">
<polygon fill="#ffffff" stroke="#bfbfbf" points="378,-168.5 378,-187.5 481,-187.5 481,-168.5 378,-168.5"/>
<text text-anchor="middle" x="429.5" y="-175.5" font-family="Helvetica,sans-Serif" font-size="10.00" fill="#000000">usbhd_common.h</text>
</a>
</g>
</g>
<!-- Node1&#45;&gt;Node13 -->
<g id="edge21" class="edge">
<title>Node1&#45;&gt;Node13</title>
<path fill="none" stroke="#191970" d="M466.3876,-224.2977C459.5151,-215.672 450.8777,-204.8312 443.689,-195.8087"/>
<polygon fill="#191970" stroke="#191970" points="446.3144,-193.487 437.3455,-187.8469 440.8396,-197.849 446.3144,-193.487"/>
</g>
<!-- Node14 -->
<g id="node14" class="node">
<title>Node14</title>
<g id="a_node14"><a xlink:title=" ">
<polygon fill="#ffffff" stroke="#bfbfbf" points="499,-168.5 499,-187.5 558,-187.5 558,-168.5 499,-168.5"/>
<text text-anchor="middle" x="528.5" y="-175.5" font-family="Helvetica,sans-Serif" font-size="10.00" fill="#000000">scache.h</text>
</a>
</g>
</g>
<!-- Node1&#45;&gt;Node14 -->
<g id="edge22" class="edge">
<title>Node1&#45;&gt;Node14</title>
<path fill="none" stroke="#191970" d="M490.8596,-224.2977C497.8724,-215.672 506.686,-204.8312 514.0214,-195.8087"/>
<polygon fill="#191970" stroke="#191970" points="516.9018,-197.8141 520.4944,-187.8469 511.4703,-193.3982 516.9018,-197.8141"/>
</g>
<!-- Node15 -->
<g id="node15" class="node">
<title>Node15</title>
<g id="a_node15"><a xlink:title=" ">
<polygon fill="#ffffff" stroke="#bfbfbf" points="576.5,-168.5 576.5,-187.5 648.5,-187.5 648.5,-168.5 576.5,-168.5"/>
<text text-anchor="middle" x="612.5" y="-175.5" font-family="Helvetica,sans-Serif" font-size="10.00" fill="#000000">fat_driver.h</text>
</a>
</g>
</g>
<!-- Node1&#45;&gt;Node15 -->
<g id="edge23" class="edge">
<title>Node1&#45;&gt;Node15</title>
<path fill="none" stroke="#191970" d="M511.2801,-224.4554C533.05,-214.464 561.4086,-201.4487 582.5686,-191.7372"/>
<polygon fill="#191970" stroke="#191970" points="584.1062,-194.8826 591.7348,-187.5303 581.1863,-188.5206 584.1062,-194.8826"/>
</g>
<!-- Node16 -->
<g id="node16" class="node">
<title>Node16</title>
<g id="a_node16"><a xlink:title=" ">
<polygon fill="#ffffff" stroke="#bfbfbf" points="667,-168.5 667,-187.5 706,-187.5 706,-168.5 667,-168.5"/>
<text text-anchor="middle" x="686.5" y="-175.5" font-family="Helvetica,sans-Serif" font-size="10.00" fill="#000000">fat.h</text>
</a>
</g>
</g>
<!-- Node1&#45;&gt;Node16 -->
<g id="edge24" class="edge">
<title>Node1&#45;&gt;Node16</title>
<path fill="none" stroke="#191970" d="M533.5607,-224.4559C566.7867,-215.194 610.1584,-202.7828 657.1326,-188.0041"/>
<polygon fill="#191970" stroke="#191970" points="658.4124,-191.2703 666.8904,-184.9162 656.3003,-184.5965 658.4124,-191.2703"/>
</g>
<!-- Node17 -->
<g id="node17" class="node">
<title>Node17</title>
<g id="a_node17"><a xlink:title=" ">
<polygon fill="#ffffff" stroke="#bfbfbf" points="724.5,-168.5 724.5,-187.5 798.5,-187.5 798.5,-168.5 724.5,-168.5"/>
<text text-anchor="middle" x="761.5" y="-175.5" font-family="Helvetica,sans-Serif" font-size="10.00" fill="#000000">sbp2_disk.h</text>
</a>
</g>
</g>
<!-- Node1&#45;&gt;Node17 -->
<g id="edge25" class="edge">
<title>Node1&#45;&gt;Node17</title>
<path fill="none" stroke="#191970" d="M537.1378,-226.7572C589.5862,-215.3594 665.4858,-198.8653 714.1626,-188.2871"/>
<polygon fill="#191970" stroke="#191970" points="715.0896,-191.6674 724.1183,-186.1236 713.6031,-184.8271 715.0896,-191.6674"/>
</g>
<!-- Node18 -->
<g id="node18" class="node">
<title>Node18</title>
<g id="a_node18"><a xlink:title=" ">
<polygon fill="#ffffff" stroke="#bfbfbf" points="816.5,-168.5 816.5,-187.5 860.5,-187.5 860.5,-168.5 816.5,-168.5"/>
<text text-anchor="middle" x="838.5" y="-175.5" font-family="Helvetica,sans-Serif" font-size="10.00" fill="#000000">scsi.h</text>
</a>
</g>
</g>
<!-- Node1&#45;&gt;Node18 -->
<g id="edge26" class="edge">
<title>Node1&#45;&gt;Node18</title>
<path fill="none" stroke="#191970" d="M537.2804,-233.1192C601.3847,-225.531 707.0537,-211.1839 806.3687,-187.9803"/>
<polygon fill="#191970" stroke="#191970" points="807.3449,-191.346 816.2673,-185.6328 805.7295,-184.5349 807.3449,-191.346"/>
</g>
<!-- Node19 -->
<g id="node19" class="node">
<title>Node19</title>
<g id="a_node19"><a xlink:title=" ">
<polygon fill="#ffffff" stroke="#bfbfbf" points="879,-168.5 879,-187.5 966,-187.5 966,-168.5 879,-168.5"/>
<text text-anchor="middle" x="922.5" y="-175.5" font-family="Helvetica,sans-Serif" font-size="10.00" fill="#000000">mass_debug.h</text>
</a>
</g>
</g>
<!-- Node1&#45;&gt;Node19 -->
<g id="edge27" class="edge">
<title>Node1&#45;&gt;Node19</title>
<path fill="none" stroke="#191970" d="M537.2718,-232.7905C611.8834,-224.0428 744.7905,-207.6942 868.8062,-188.0368"/>
<polygon fill="#191970" stroke="#191970" points="869.5372,-191.4645 878.8608,-186.4325 868.4342,-184.5519 869.5372,-191.4645"/>
</g>
<!-- Node3 -->
<g id="node3" class="node">
<title>Node3</title>
<g id="a_node3"><a xlink:title=" ">
<polygon fill="#ffffff" stroke="#bfbfbf" points="108.5,-112.5 108.5,-131.5 164.5,-131.5 164.5,-112.5 108.5,-112.5"/>
<text text-anchor="middle" x="136.5" y="-119.5" font-family="Helvetica,sans-Serif" font-size="10.00" fill="#000000">stdarg.h</text>
</a>
</g>
</g>
<!-- Node2&#45;&gt;Node3 -->
<g id="edge2" class="edge">
<title>Node2&#45;&gt;Node3</title>
<path fill="none" stroke="#191970" d="M165.4035,-168.2455C160.5855,-160.5367 153.7249,-149.5598 147.8968,-140.2348"/>
<polygon fill="#191970" stroke="#191970" points="150.7947,-138.2677 142.5267,-131.6427 144.8587,-141.9777 150.7947,-138.2677"/>
</g>
<!-- Node4 -->
<g id="node4" class="node">
<title>Node4</title>
<g id="a_node4"><a xlink:href="irx_8h.html" target="_top" xlink:title=" ">
<polygon fill="#ffffff" stroke="#000000" points="182.5,-112.5 182.5,-131.5 220.5,-131.5 220.5,-112.5 182.5,-112.5"/>
<text text-anchor="middle" x="201.5" y="-119.5" font-family="Helvetica,sans-Serif" font-size="10.00" fill="#000000">irx.h</text>
</a>
</g>
</g>
<!-- Node2&#45;&gt;Node4 -->
<g id="edge3" class="edge">
<title>Node2&#45;&gt;Node4</title>
<path fill="none" stroke="#191970" d="M176.7256,-168.2455C180.8123,-160.617 186.6135,-149.7881 191.575,-140.5267"/>
<polygon fill="#191970" stroke="#191970" points="194.6972,-142.1103 196.3343,-131.6427 188.5268,-138.8047 194.6972,-142.1103"/>
</g>
<!-- Node5 -->
<g id="node5" class="node">
<title>Node5</title>
<g id="a_node5"><a xlink:href="types_8h.html" target="_top" xlink:title=" ">
<polygon fill="#ffffff" stroke="#000000" points="175,-56.5 175,-75.5 228,-75.5 228,-56.5 175,-56.5"/>
<text text-anchor="middle" x="201.5" y="-63.5" font-family="Helvetica,sans-Serif" font-size="10.00" fill="#000000">types.h</text>
</a>
</g>
</g>
<!-- Node4&#45;&gt;Node5 -->
<g id="edge4" class="edge">
<title>Node4&#45;&gt;Node5</title>
<path fill="none" stroke="#191970" d="M201.5,-112.2455C201.5,-104.9382 201.5,-94.6944 201.5,-85.7046"/>
<polygon fill="#191970" stroke="#191970" points="205.0001,-85.6426 201.5,-75.6427 198.0001,-85.6427 205.0001,-85.6426"/>
</g>
<!-- Node6 -->
<g id="node6" class="node">
<title>Node6</title>
<g id="a_node6"><a xlink:title=" ">
<polygon fill="#ffffff" stroke="#bfbfbf" points="173.5,-.5 173.5,-19.5 229.5,-19.5 229.5,-.5 173.5,-.5"/>
<text text-anchor="middle" x="201.5" y="-7.5" font-family="Helvetica,sans-Serif" font-size="10.00" fill="#000000">stddef.h</text>
</a>
</g>
</g>
<!-- Node5&#45;&gt;Node6 -->
<g id="edge5" class="edge">
<title>Node5&#45;&gt;Node6</title>
<path fill="none" stroke="#191970" d="M201.5,-56.2455C201.5,-48.9382 201.5,-38.6944 201.5,-29.7046"/>
<polygon fill="#191970" stroke="#191970" points="205.0001,-29.6426 201.5,-19.6427 198.0001,-29.6427 205.0001,-29.6426"/>
</g>
<!-- Node7 -->
<g id="node7" class="node">
<title>Node7</title>
<g id="a_node7"><a xlink:href="tamtypes_8h.html" target="_top" xlink:title=" ">
<polygon fill="#ffffff" stroke="#000000" points="62.5,-.5 62.5,-19.5 134.5,-19.5 134.5,-.5 62.5,-.5"/>
<text text-anchor="middle" x="98.5" y="-7.5" font-family="Helvetica,sans-Serif" font-size="10.00" fill="#000000">tamtypes.h</text>
</a>
</g>
</g>
<!-- Node5&#45;&gt;Node7 -->
<g id="edge6" class="edge">
<title>Node5&#45;&gt;Node7</title>
<path fill="none" stroke="#191970" d="M183.5588,-56.2455C167.46,-47.4928 143.6121,-34.527 125.2609,-24.5496"/>
<polygon fill="#191970" stroke="#191970" points="126.6929,-21.3444 116.2356,-19.6427 123.3493,-27.4942 126.6929,-21.3444"/>
</g>
<!-- Node9&#45;&gt;Node3 -->
<g id="edge11" class="edge">
<title>Node9&#45;&gt;Node3</title>
<path fill="none" stroke="#191970" d="M48.138,-168.2455C64.9386,-159.4527 89.8634,-146.4079 108.9618,-136.4125"/>
<polygon fill="#191970" stroke="#191970" points="110.8386,-139.3807 118.0756,-131.6427 107.5927,-133.1787 110.8386,-139.3807"/>
</g>
<!-- Node9&#45;&gt;Node4 -->
<g id="edge10" class="edge">
<title>Node9&#45;&gt;Node4</title>
<path fill="none" stroke="#191970" d="M59.105,-168.8642C86.3463,-160.3873 128.0838,-147.2228 172.6919,-132.2035"/>
<polygon fill="#191970" stroke="#191970" points="173.8983,-135.4903 182.2502,-128.9714 171.6559,-128.8592 173.8983,-135.4903"/>
</g>
<!-- Node9&#45;&gt;Node5 -->
<g id="edge9" class="edge">
<title>Node9&#45;&gt;Node5</title>
<path fill="none" stroke="#191970" d="M37.739,-168.4247C50.0582,-154.5586 74.5149,-128.7228 99.5,-112 119.8938,-98.3502 144.9984,-86.9703 165.1984,-78.944"/>
<polygon fill="#191970" stroke="#191970" points="166.6141,-82.1492 174.6786,-75.278 164.0893,-75.6204 166.6141,-82.1492"/>
</g>
<!-- Node10 -->
<g id="node10" class="node">
<title>Node10</title>
<g id="a_node10"><a xlink:href="setjmp_8h.html" target="_top" xlink:title=" ">
<polygon fill="#ffffff" stroke="#000000" points="26,-56.5 26,-75.5 85,-75.5 85,-56.5 26,-56.5"/>
<text text-anchor="middle" x="55.5" y="-63.5" font-family="Helvetica,sans-Serif" font-size="10.00" fill="#000000">setjmp.h</text>
</a>
</g>
</g>
<!-- Node9&#45;&gt;Node10 -->
<g id="edge12" class="edge">
<title>Node9&#45;&gt;Node10</title>
<path fill="none" stroke="#191970" d="M31.7167,-168.4509C35.9765,-150.1013 45.3807,-109.5908 51.0035,-85.3693"/>
<polygon fill="#191970" stroke="#191970" points="54.4368,-86.0573 53.2889,-75.5249 47.6182,-84.4744 54.4368,-86.0573"/>
</g>
<!-- Node10&#45;&gt;Node7 -->
<g id="edge13" class="edge">
<title>Node10&#45;&gt;Node7</title>
<path fill="none" stroke="#191970" d="M62.99,-56.2455C69.0326,-48.3761 77.6903,-37.101 84.9441,-27.6542"/>
<polygon fill="#191970" stroke="#191970" points="87.7815,-29.7058 91.0958,-19.6427 82.2295,-25.4426 87.7815,-29.7058"/>
</g>
<!-- Node11&#45;&gt;Node4 -->
<g id="edge16" class="edge">
<title>Node11&#45;&gt;Node4</title>
<path fill="none" stroke="#191970" d="M308.3241,-168.3733C286.767,-159.0151 253.917,-144.7547 230.3389,-134.5192"/>
<polygon fill="#191970" stroke="#191970" points="231.4284,-131.1766 220.8617,-130.4051 228.6409,-137.5977 231.4284,-131.1766"/>
</g>
<!-- Node11&#45;&gt;Node5 -->
<g id="edge15" class="edge">
<title>Node11&#45;&gt;Node5</title>
<path fill="none" stroke="#191970" d="M319.5015,-168.4509C297.4147,-149.2747 247.4519,-105.8962 220.1576,-82.1988"/>
<polygon fill="#191970" stroke="#191970" points="222.3164,-79.438 212.4706,-75.5249 217.7271,-84.7238 222.3164,-79.438"/>
</g>
<!-- Node12&#45;&gt;Node3 -->
<g id="edge20" class="edge">
<title>Node12&#45;&gt;Node3</title>
<path fill="none" stroke="#191970" d="M229.2465,-168.3733C211.4288,-159.4644 184.7253,-146.1127 164.5406,-136.0203"/>
<polygon fill="#191970" stroke="#191970" points="166.0118,-132.8428 155.5022,-131.5011 162.8813,-139.1038 166.0118,-132.8428"/>
</g>
<!-- Node12&#45;&gt;Node4 -->
<g id="edge19" class="edge">
<title>Node12&#45;&gt;Node4</title>
<path fill="none" stroke="#191970" d="M240.3132,-168.2455C233.6411,-160.2958 224.0521,-148.8706 216.0747,-139.3656"/>
<polygon fill="#191970" stroke="#191970" points="218.7026,-137.0524 209.593,-131.6427 213.3408,-141.5525 218.7026,-137.0524"/>
</g>
<!-- Node12&#45;&gt;Node5 -->
<g id="edge18" class="edge">
<title>Node12&#45;&gt;Node5</title>
<path fill="none" stroke="#191970" d="M246.5639,-168.3223C243.7513,-155.2057 237.9333,-131.2166 229.5,-112 225.2962,-102.4209 219.4182,-92.4278 214.1326,-84.2126"/>
<polygon fill="#191970" stroke="#191970" points="216.9931,-82.1934 208.5375,-75.8095 211.1665,-86.073 216.9931,-82.1934"/>
</g>
</g>
</svg>
