<?xml version="1.0" encoding="UTF-8" standalone="no"?>
<!DOCTYPE svg PUBLIC "-//W3C//DTD SVG 1.1//EN"
 "http://www.w3.org/Graphics/SVG/1.1/DTD/svg11.dtd">
<!-- Generated by graphviz version 2.40.1 (20161225.0304)
 -->
<!-- Title: iop/iLink/iLinkman/src/include/iLink_internal.h Pages: 1 -->
<svg width="864pt" height="106pt"
 viewBox="0.00 0.00 864.00 106.00" xmlns="http://www.w3.org/2000/svg" xmlns:xlink="http://www.w3.org/1999/xlink">
<g id="graph0" class="graph" transform="scale(1 1) rotate(0) translate(4 102)">
<title>iop/iLink/iLinkman/src/include/iLink_internal.h</title>
<polygon fill="#ffffff" stroke="transparent" points="-4,4 -4,-102 860,-102 860,4 -4,4"/>
<!-- Node1 -->
<g id="node1" class="node">
<title>Node1</title>
<g id="a_node1"><a xlink:title=" ">
<polygon fill="#bfbfbf" stroke="#000000" points="353,-67.5 353,-97.5 503,-97.5 503,-67.5 353,-67.5"/>
<text text-anchor="start" x="361" y="-85.5" font-family="Helvetica,sans-Serif" font-size="10.00" fill="#000000">iop/iLink/iLinkman</text>
<text text-anchor="middle" x="428" y="-74.5" font-family="Helvetica,sans-Serif" font-size="10.00" fill="#000000">/src/include/iLink_internal.h</text>
</a>
</g>
</g>
<!-- Node2 -->
<g id="node2" class="node">
<title>Node2</title>
<g id="a_node2"><a xlink:href="iLink_8c.html" target="_top" xlink:title=" ">
<polygon fill="#ffffff" stroke="#000000" points="0,-.5 0,-30.5 106,-30.5 106,-.5 0,-.5"/>
<text text-anchor="start" x="8" y="-18.5" font-family="Helvetica,sans-Serif" font-size="10.00" fill="#000000">iop/iLink/iLinkman</text>
<text text-anchor="middle" x="53" y="-7.5" font-family="Helvetica,sans-Serif" font-size="10.00" fill="#000000">/src/iLink.c</text>
</a>
</g>
</g>
<!-- Node1&#45;&gt;Node2 -->
<g id="edge1" class="edge">
<title>Node1&#45;&gt;Node2</title>
<path fill="none" stroke="#191970" d="M342.8248,-70.4128C279.6864,-60.9859 191.6572,-46.8608 115,-31 112.0664,-30.393 109.062,-29.7417 106.0343,-29.062"/>
<polygon fill="#191970" stroke="#191970" points="342.3332,-73.8781 352.7388,-71.885 343.3614,-66.9541 342.3332,-73.8781"/>
</g>
<!-- Node3 -->
<g id="node3" class="node">
<title>Node3</title>
<g id="a_node3"><a xlink:href="iLink__crom_8c.html" target="_top" xlink:title=" ">
<polygon fill="#ffffff" stroke="#000000" points="124,-.5 124,-30.5 230,-30.5 230,-.5 124,-.5"/>
<text text-anchor="start" x="132" y="-18.5" font-family="Helvetica,sans-Serif" font-size="10.00" fill="#000000">iop/iLink/iLinkman</text>
<text text-anchor="middle" x="177" y="-7.5" font-family="Helvetica,sans-Serif" font-size="10.00" fill="#000000">/src/iLink_crom.c</text>
</a>
</g>
</g>
<!-- Node1&#45;&gt;Node3 -->
<g id="edge2" class="edge">
<title>Node1&#45;&gt;Node3</title>
<path fill="none" stroke="#191970" d="M362.0016,-64.8829C320.8551,-53.8996 268.6057,-39.9525 230.1359,-29.6837"/>
<polygon fill="#191970" stroke="#191970" points="361.1063,-68.2664 371.6707,-67.4639 362.9117,-61.5032 361.1063,-68.2664"/>
</g>
<!-- Node4 -->
<g id="node4" class="node">
<title>Node4</title>
<g id="a_node4"><a xlink:href="iLink__DMA_8c.html" target="_top" xlink:title=" ">
<polygon fill="#ffffff" stroke="#000000" points="248,-.5 248,-30.5 354,-30.5 354,-.5 248,-.5"/>
<text text-anchor="start" x="256" y="-18.5" font-family="Helvetica,sans-Serif" font-size="10.00" fill="#000000">iop/iLink/iLinkman</text>
<text text-anchor="middle" x="301" y="-7.5" font-family="Helvetica,sans-Serif" font-size="10.00" fill="#000000">/src/iLink_DMA.c</text>
</a>
</g>
</g>
<!-- Node1&#45;&gt;Node4 -->
<g id="edge3" class="edge">
<title>Node1&#45;&gt;Node4</title>
<path fill="none" stroke="#191970" d="M390.6095,-62.7743C371.1978,-52.5335 347.8444,-40.2132 329.8456,-30.7177"/>
<polygon fill="#191970" stroke="#191970" points="389.0209,-65.8934 399.4987,-67.4639 392.2872,-59.7021 389.0209,-65.8934"/>
</g>
<!-- Node5 -->
<g id="node5" class="node">
<title>Node5</title>
<g id="a_node5"><a xlink:href="iLink__internal_8c.html" target="_top" xlink:title=" ">
<polygon fill="#ffffff" stroke="#000000" points="372.5,-.5 372.5,-30.5 483.5,-30.5 483.5,-.5 372.5,-.5"/>
<text text-anchor="start" x="380.5" y="-18.5" font-family="Helvetica,sans-Serif" font-size="10.00" fill="#000000">iop/iLink/iLinkman</text>
<text text-anchor="middle" x="428" y="-7.5" font-family="Helvetica,sans-Serif" font-size="10.00" fill="#000000">/src/iLink_internal.c</text>
</a>
</g>
</g>
<!-- Node1&#45;&gt;Node5 -->
<g id="edge4" class="edge">
<title>Node1&#45;&gt;Node5</title>
<path fill="none" stroke="#191970" d="M428,-57.0249C428,-48.128 428,-38.4287 428,-30.6432"/>
<polygon fill="#191970" stroke="#191970" points="424.5001,-57.2966 428,-67.2967 431.5001,-57.2967 424.5001,-57.2966"/>
</g>
<!-- Node6 -->
<g id="node6" class="node">
<title>Node6</title>
<g id="a_node6"><a xlink:href="iLink__intr_8c.html" target="_top" xlink:title=" ">
<polygon fill="#ffffff" stroke="#000000" points="502,-.5 502,-30.5 608,-30.5 608,-.5 502,-.5"/>
<text text-anchor="start" x="510" y="-18.5" font-family="Helvetica,sans-Serif" font-size="10.00" fill="#000000">iop/iLink/iLinkman</text>
<text text-anchor="middle" x="555" y="-7.5" font-family="Helvetica,sans-Serif" font-size="10.00" fill="#000000">/src/iLink_intr.c</text>
</a>
</g>
</g>
<!-- Node1&#45;&gt;Node6 -->
<g id="edge5" class="edge">
<title>Node1&#45;&gt;Node6</title>
<path fill="none" stroke="#191970" d="M465.3905,-62.7743C484.8022,-52.5335 508.1556,-40.2132 526.1544,-30.7177"/>
<polygon fill="#191970" stroke="#191970" points="463.7128,-59.7021 456.5013,-67.4639 466.9791,-65.8934 463.7128,-59.7021"/>
</g>
<!-- Node7 -->
<g id="node7" class="node">
<title>Node7</title>
<g id="a_node7"><a xlink:href="iLink__PHY_8c.html" target="_top" xlink:title=" ">
<polygon fill="#ffffff" stroke="#000000" points="626,-.5 626,-30.5 732,-30.5 732,-.5 626,-.5"/>
<text text-anchor="start" x="634" y="-18.5" font-family="Helvetica,sans-Serif" font-size="10.00" fill="#000000">iop/iLink/iLinkman</text>
<text text-anchor="middle" x="679" y="-7.5" font-family="Helvetica,sans-Serif" font-size="10.00" fill="#000000">/src/iLink_PHY.c</text>
</a>
</g>
</g>
<!-- Node1&#45;&gt;Node7 -->
<g id="edge6" class="edge">
<title>Node1&#45;&gt;Node7</title>
<path fill="none" stroke="#191970" d="M493.9984,-64.8829C535.1449,-53.8996 587.3943,-39.9525 625.8641,-29.6837"/>
<polygon fill="#191970" stroke="#191970" points="493.0883,-61.5032 484.3293,-67.4639 494.8937,-68.2664 493.0883,-61.5032"/>
</g>
<!-- Node8 -->
<g id="node8" class="node">
<title>Node8</title>
<g id="a_node8"><a xlink:href="iLink__TxRx_8c.html" target="_top" xlink:title=" ">
<polygon fill="#ffffff" stroke="#000000" points="750,-.5 750,-30.5 856,-30.5 856,-.5 750,-.5"/>
<text text-anchor="start" x="758" y="-18.5" font-family="Helvetica,sans-Serif" font-size="10.00" fill="#000000">iop/iLink/iLinkman</text>
<text text-anchor="middle" x="803" y="-7.5" font-family="Helvetica,sans-Serif" font-size="10.00" fill="#000000">/src/iLink_TxRx.c</text>
</a>
</g>
</g>
<!-- Node1&#45;&gt;Node8 -->
<g id="edge7" class="edge">
<title>Node1&#45;&gt;Node8</title>
<path fill="none" stroke="#191970" d="M513.1752,-70.4128C576.3136,-60.9859 664.3428,-46.8608 741,-31 743.9336,-30.393 746.938,-29.7417 749.9657,-29.062"/>
<polygon fill="#191970" stroke="#191970" points="512.6386,-66.9541 503.2612,-71.885 513.6668,-73.8781 512.6386,-66.9541"/>
</g>
</g>
</svg>
