<?xml version="1.0" encoding="UTF-8" standalone="no"?>
<!DOCTYPE svg PUBLIC "-//W3C//DTD SVG 1.1//EN"
 "http://www.w3.org/Graphics/SVG/1.1/DTD/svg11.dtd">
<!-- Generated by graphviz version 2.40.1 (20161225.0304)
 -->
<!-- Title: iop/iLink/iLinkman/include/iLinkman.h Pages: 1 -->
<!--zoomable 106 -->
<svg id="main" version="1.1" xmlns="http://www.w3.org/2000/svg" xmlns:xlink="http://www.w3.org/1999/xlink" xml:space="preserve" onload="init(evt)">
<style type="text/css"><![CDATA[
.edge:hover path { stroke: red; }
.edge:hover polygon { stroke: red; fill: red; }
]]></style>
<script type="text/javascript"><![CDATA[
var edges = document.getElementsByTagName('g');
if (edges && edges.length) {
  for (var i=0;i<edges.length;i++) {
    if (edges[i].id.substr(0,4)=='edge') {
      edges[i].setAttribute('class','edge');
    }
  }
}
]]></script>
        <defs>
                <circle id="rim" cx="0" cy="0" r="7"/>
                <circle id="rim2" cx="0" cy="0" r="3.5"/>
                <g id="zoomPlus">
                        <use xlink:href="#rim" fill="#404040">
                                <set attributeName="fill" to="#808080" begin="zoomplus.mouseover" end="zoomplus.mouseout"/>
                        </use>
                        <path d="M-4,0h8M0,-4v8" fill="none" stroke="white" stroke-width="1.5" pointer-events="none"/>
                </g>
                <g id="zoomMin">
                        <use xlink:href="#rim" fill="#404040">
                                <set attributeName="fill" to="#808080" begin="zoomminus.mouseover" end="zoomminus.mouseout"/>
                        </use>
                        <path d="M-4,0h8" fill="none" stroke="white" stroke-width="1.5" pointer-events="none"/>
                </g>
                <g id="dirArrow">
                        <path fill="none" stroke="white" stroke-width="1.5" d="M0,-3.0v7 M-2.5,-0.5L0,-3.0L2.5,-0.5"/>
                </g>
               <g id="resetDef">
                       <use xlink:href="#rim2" fill="#404040">
                               <set attributeName="fill" to="#808080" begin="reset.mouseover" end="reset.mouseout"/>
                       </use>
               </g>
        </defs>

<script type="text/javascript">
var viewWidth = 1677;
var viewHeight = 106;
var sectionId = 'dynsection-1';
</script>
<script xlink:href="svgpan.js"/>
<svg id="graph" class="graph">
<g id="viewport">
<title>iop/iLink/iLinkman/include/iLinkman.h</title>
<polygon fill="#ffffff" stroke="transparent" points="-4,4 -4,-102 1672.5,-102 1672.5,4 -4,4"/>
<!-- Node1 -->
<g id="node1" class="node">
<title>Node1</title>
<g id="a_node1"><a xlink:title=" ">
<polygon fill="#bfbfbf" stroke="#000000" points="809.5,-67.5 809.5,-97.5 921.5,-97.5 921.5,-67.5 809.5,-67.5"/>
<text text-anchor="start" x="817.5" y="-85.5" font-family="Helvetica,sans-Serif" font-size="10.00" fill="#000000">iop/iLink/iLinkman</text>
<text text-anchor="middle" x="865.5" y="-74.5" font-family="Helvetica,sans-Serif" font-size="10.00" fill="#000000">/include/iLinkman.h</text>
</a>
</g>
</g>
<!-- Node2 -->
<g id="node2" class="node">
<title>Node2</title>
<g id="a_node2"><a xlink:href="iLink_2IEEE1394__bd_2src_2irx__imports_8h.html" target="_top" xlink:title=" ">
<polygon fill="#ffffff" stroke="#000000" points="0,-.5 0,-30.5 119,-30.5 119,-.5 0,-.5"/>
<text text-anchor="start" x="8" y="-18.5" font-family="Helvetica,sans-Serif" font-size="10.00" fill="#000000">iop/iLink/IEEE1394</text>
<text text-anchor="middle" x="59.5" y="-7.5" font-family="Helvetica,sans-Serif" font-size="10.00" fill="#000000">_bd/src/irx_imports.h</text>
</a>
</g>
</g>
<!-- Node1&#45;&gt;Node2 -->
<g id="edge1" class="edge">
<title>Node1&#45;&gt;Node2</title>
<path fill="none" stroke="#191970" d="M798.9942,-81.2947C669.2089,-78.1854 373.3605,-67.3768 127.5,-31 124.7451,-30.5924 121.9363,-30.1329 119.1055,-29.6342"/>
<polygon fill="#191970" stroke="#191970" points="799.0903,-84.7978 809.1688,-81.5308 799.2527,-77.7997 799.0903,-84.7978"/>
</g>
<!-- Node3 -->
<g id="node3" class="node">
<title>Node3</title>
<g id="a_node3"><a xlink:href="IEEE1394__bd_2src_2sbp2__driver_8c.html" target="_top" xlink:title=" ">
<polygon fill="#ffffff" stroke="#000000" points="137,-.5 137,-30.5 256,-30.5 256,-.5 137,-.5"/>
<text text-anchor="start" x="145" y="-18.5" font-family="Helvetica,sans-Serif" font-size="10.00" fill="#000000">iop/iLink/IEEE1394</text>
<text text-anchor="middle" x="196.5" y="-7.5" font-family="Helvetica,sans-Serif" font-size="10.00" fill="#000000">_bd/src/sbp2_driver.c</text>
</a>
</g>
</g>
<!-- Node1&#45;&gt;Node3 -->
<g id="edge2" class="edge">
<title>Node1&#45;&gt;Node3</title>
<path fill="none" stroke="#191970" d="M799.2066,-79.8261C688.0763,-74.6728 457.3999,-61.1011 264.5,-31 261.7484,-30.5706 258.9423,-30.0933 256.1138,-29.5801"/>
<polygon fill="#191970" stroke="#191970" points="799.1112,-83.3253 809.2602,-80.2844 799.43,-76.3326 799.1112,-83.3253"/>
</g>
<!-- Node4 -->
<g id="node4" class="node">
<title>Node4</title>
<g id="a_node4"><a xlink:href="iLink_2IEEE1394__disk_2src_2irx__imports_8h.html" target="_top" xlink:title=" ">
<polygon fill="#ffffff" stroke="#000000" points="274,-.5 274,-30.5 401,-30.5 401,-.5 274,-.5"/>
<text text-anchor="start" x="282" y="-18.5" font-family="Helvetica,sans-Serif" font-size="10.00" fill="#000000">iop/iLink/IEEE1394</text>
<text text-anchor="middle" x="337.5" y="-7.5" font-family="Helvetica,sans-Serif" font-size="10.00" fill="#000000">_disk/src/irx_imports.h</text>
</a>
</g>
</g>
<!-- Node1&#45;&gt;Node4 -->
<g id="edge3" class="edge">
<title>Node1&#45;&gt;Node4</title>
<path fill="none" stroke="#191970" d="M799.2294,-77.1005C710.2323,-69.3742 547.3341,-53.5622 409.5,-31 406.7239,-30.5456 403.8933,-30.0548 401.0379,-29.5373"/>
<polygon fill="#191970" stroke="#191970" points="799.1835,-80.6094 809.4469,-77.9801 799.784,-73.6352 799.1835,-80.6094"/>
</g>
<!-- Node5 -->
<g id="node5" class="node">
<title>Node5</title>
<g id="a_node5"><a xlink:href="IEEE1394__disk_2src_2sbp2__driver_8c.html" target="_top" xlink:title=" ">
<polygon fill="#ffffff" stroke="#000000" points="419,-.5 419,-30.5 546,-30.5 546,-.5 419,-.5"/>
<text text-anchor="start" x="427" y="-18.5" font-family="Helvetica,sans-Serif" font-size="10.00" fill="#000000">iop/iLink/IEEE1394</text>
<text text-anchor="middle" x="482.5" y="-7.5" font-family="Helvetica,sans-Serif" font-size="10.00" fill="#000000">_disk/src/sbp2_driver.c</text>
</a>
</g>
</g>
<!-- Node1&#45;&gt;Node5 -->
<g id="edge4" class="edge">
<title>Node1&#45;&gt;Node5</title>
<path fill="none" stroke="#191970" d="M799.1903,-72.361C736.3189,-62.5405 639.2867,-46.8467 555.5,-31 552.4447,-30.4221 549.3206,-29.8164 546.1676,-29.1931"/>
<polygon fill="#191970" stroke="#191970" points="798.9452,-75.865 809.3647,-73.9456 800.0224,-68.9483 798.9452,-75.865"/>
</g>
<!-- Node6 -->
<g id="node6" class="node">
<title>Node6</title>
<g id="a_node6"><a xlink:href="iLink_2IEEE1394__disk_2src_2scsi_8c.html" target="_top" xlink:title=" ">
<polygon fill="#ffffff" stroke="#000000" points="564.5,-.5 564.5,-30.5 670.5,-30.5 670.5,-.5 564.5,-.5"/>
<text text-anchor="start" x="572.5" y="-18.5" font-family="Helvetica,sans-Serif" font-size="10.00" fill="#000000">iop/iLink/IEEE1394</text>
<text text-anchor="middle" x="617.5" y="-7.5" font-family="Helvetica,sans-Serif" font-size="10.00" fill="#000000">_disk/src/scsi.c</text>
</a>
</g>
</g>
<!-- Node1&#45;&gt;Node6 -->
<g id="edge5" class="edge">
<title>Node1&#45;&gt;Node6</title>
<path fill="none" stroke="#191970" d="M800.1015,-64.8319C759.7759,-53.9375 708.7123,-40.142 670.8438,-29.9114"/>
<polygon fill="#191970" stroke="#191970" points="799.2772,-68.2346 809.844,-67.4639 801.1029,-61.4768 799.2772,-68.2346"/>
</g>
<!-- Node7 -->
<g id="node7" class="node">
<title>Node7</title>
<g id="a_node7"><a xlink:href="iLink_8c.html" target="_top" xlink:title=" ">
<polygon fill="#ffffff" stroke="#000000" points="688.5,-.5 688.5,-30.5 794.5,-30.5 794.5,-.5 688.5,-.5"/>
<text text-anchor="start" x="696.5" y="-18.5" font-family="Helvetica,sans-Serif" font-size="10.00" fill="#000000">iop/iLink/iLinkman</text>
<text text-anchor="middle" x="741.5" y="-7.5" font-family="Helvetica,sans-Serif" font-size="10.00" fill="#000000">/src/iLink.c</text>
</a>
</g>
</g>
<!-- Node1&#45;&gt;Node7 -->
<g id="edge6" class="edge">
<title>Node1&#45;&gt;Node7</title>
<path fill="none" stroke="#191970" d="M828.7352,-62.6352C809.8333,-52.422 787.1583,-40.1702 769.6642,-30.7177"/>
<polygon fill="#191970" stroke="#191970" points="827.2103,-65.7894 837.672,-67.4639 830.5379,-59.6309 827.2103,-65.7894"/>
</g>
<!-- Node8 -->
<g id="node8" class="node">
<title>Node8</title>
<g id="a_node8"><a xlink:href="iLink__crom_8c.html" target="_top" xlink:title=" ">
<polygon fill="#ffffff" stroke="#000000" points="812.5,-.5 812.5,-30.5 918.5,-30.5 918.5,-.5 812.5,-.5"/>
<text text-anchor="start" x="820.5" y="-18.5" font-family="Helvetica,sans-Serif" font-size="10.00" fill="#000000">iop/iLink/iLinkman</text>
<text text-anchor="middle" x="865.5" y="-7.5" font-family="Helvetica,sans-Serif" font-size="10.00" fill="#000000">/src/iLink_crom.c</text>
</a>
</g>
</g>
<!-- Node1&#45;&gt;Node8 -->
<g id="edge7" class="edge">
<title>Node1&#45;&gt;Node8</title>
<path fill="none" stroke="#191970" d="M865.5,-57.0249C865.5,-48.128 865.5,-38.4287 865.5,-30.6432"/>
<polygon fill="#191970" stroke="#191970" points="862.0001,-57.2966 865.5,-67.2967 869.0001,-57.2967 862.0001,-57.2966"/>
</g>
<!-- Node9 -->
<g id="node9" class="node">
<title>Node9</title>
<g id="a_node9"><a xlink:href="iLink__DMA_8c.html" target="_top" xlink:title=" ">
<polygon fill="#ffffff" stroke="#000000" points="936.5,-.5 936.5,-30.5 1042.5,-30.5 1042.5,-.5 936.5,-.5"/>
<text text-anchor="start" x="944.5" y="-18.5" font-family="Helvetica,sans-Serif" font-size="10.00" fill="#000000">iop/iLink/iLinkman</text>
<text text-anchor="middle" x="989.5" y="-7.5" font-family="Helvetica,sans-Serif" font-size="10.00" fill="#000000">/src/iLink_DMA.c</text>
</a>
</g>
</g>
<!-- Node1&#45;&gt;Node9 -->
<g id="edge8" class="edge">
<title>Node1&#45;&gt;Node9</title>
<path fill="none" stroke="#191970" d="M902.2648,-62.6352C921.1667,-52.422 943.8417,-40.1702 961.3358,-30.7177"/>
<polygon fill="#191970" stroke="#191970" points="900.4621,-59.6309 893.328,-67.4639 903.7897,-65.7894 900.4621,-59.6309"/>
</g>
<!-- Node10 -->
<g id="node10" class="node">
<title>Node10</title>
<g id="a_node10"><a xlink:href="iLink__internal_8c.html" target="_top" xlink:title=" ">
<polygon fill="#ffffff" stroke="#000000" points="1061,-.5 1061,-30.5 1172,-30.5 1172,-.5 1061,-.5"/>
<text text-anchor="start" x="1069" y="-18.5" font-family="Helvetica,sans-Serif" font-size="10.00" fill="#000000">iop/iLink/iLinkman</text>
<text text-anchor="middle" x="1116.5" y="-7.5" font-family="Helvetica,sans-Serif" font-size="10.00" fill="#000000">/src/iLink_internal.c</text>
</a>
</g>
</g>
<!-- Node1&#45;&gt;Node10 -->
<g id="edge9" class="edge">
<title>Node1&#45;&gt;Node10</title>
<path fill="none" stroke="#191970" d="M931.2368,-64.9527C971.4661,-54.2142 1022.3839,-40.6226 1060.6543,-30.407"/>
<polygon fill="#191970" stroke="#191970" points="930.2759,-61.5866 921.5169,-67.5473 932.0813,-68.3498 930.2759,-61.5866"/>
</g>
<!-- Node11 -->
<g id="node11" class="node">
<title>Node11</title>
<g id="a_node11"><a xlink:href="iLink__intr_8c.html" target="_top" xlink:title=" ">
<polygon fill="#ffffff" stroke="#000000" points="1190.5,-.5 1190.5,-30.5 1296.5,-30.5 1296.5,-.5 1190.5,-.5"/>
<text text-anchor="start" x="1198.5" y="-18.5" font-family="Helvetica,sans-Serif" font-size="10.00" fill="#000000">iop/iLink/iLinkman</text>
<text text-anchor="middle" x="1243.5" y="-7.5" font-family="Helvetica,sans-Serif" font-size="10.00" fill="#000000">/src/iLink_intr.c</text>
</a>
</g>
</g>
<!-- Node1&#45;&gt;Node11 -->
<g id="edge10" class="edge">
<title>Node1&#45;&gt;Node11</title>
<path fill="none" stroke="#191970" d="M931.6784,-73.3558C995.818,-64.1071 1095.7179,-48.6808 1181.5,-31 1184.434,-30.3953 1187.4388,-29.7457 1190.4668,-29.0674"/>
<polygon fill="#191970" stroke="#191970" points="931.1011,-69.9027 921.699,-74.7865 932.0945,-76.8318 931.1011,-69.9027"/>
</g>
<!-- Node12 -->
<g id="node12" class="node">
<title>Node12</title>
<g id="a_node12"><a xlink:href="iLink__PHY_8c.html" target="_top" xlink:title=" ">
<polygon fill="#ffffff" stroke="#000000" points="1314.5,-.5 1314.5,-30.5 1420.5,-30.5 1420.5,-.5 1314.5,-.5"/>
<text text-anchor="start" x="1322.5" y="-18.5" font-family="Helvetica,sans-Serif" font-size="10.00" fill="#000000">iop/iLink/iLinkman</text>
<text text-anchor="middle" x="1367.5" y="-7.5" font-family="Helvetica,sans-Serif" font-size="10.00" fill="#000000">/src/iLink_PHY.c</text>
</a>
</g>
</g>
<!-- Node1&#45;&gt;Node12 -->
<g id="edge11" class="edge">
<title>Node1&#45;&gt;Node12</title>
<path fill="none" stroke="#191970" d="M931.955,-77.3992C1018.4531,-70.149 1174.091,-55.0139 1305.5,-31 1308.4469,-30.4615 1311.4618,-29.8641 1314.4977,-29.2264"/>
<polygon fill="#191970" stroke="#191970" points="931.4322,-73.9304 921.7554,-78.2443 932.0103,-80.9065 931.4322,-73.9304"/>
</g>
<!-- Node13 -->
<g id="node13" class="node">
<title>Node13</title>
<g id="a_node13"><a xlink:href="iLink__TxRx_8c.html" target="_top" xlink:title=" ">
<polygon fill="#ffffff" stroke="#000000" points="1438.5,-.5 1438.5,-30.5 1544.5,-30.5 1544.5,-.5 1438.5,-.5"/>
<text text-anchor="start" x="1446.5" y="-18.5" font-family="Helvetica,sans-Serif" font-size="10.00" fill="#000000">iop/iLink/iLinkman</text>
<text text-anchor="middle" x="1491.5" y="-7.5" font-family="Helvetica,sans-Serif" font-size="10.00" fill="#000000">/src/iLink_TxRx.c</text>
</a>
</g>
</g>
<!-- Node1&#45;&gt;Node13 -->
<g id="edge12" class="edge">
<title>Node1&#45;&gt;Node13</title>
<path fill="none" stroke="#191970" d="M931.7121,-79.7598C1037.5287,-74.6404 1251.0162,-61.2741 1429.5,-31 1432.3441,-30.5176 1435.2501,-29.9733 1438.1759,-29.3846"/>
<polygon fill="#191970" stroke="#191970" points="931.3274,-76.274 921.5045,-80.2441 931.6592,-83.2661 931.3274,-76.274"/>
</g>
<!-- Node14 -->
<g id="node14" class="node">
<title>Node14</title>
<g id="a_node14"><a xlink:href="iLink_2iLinkman_2src_2irx__imports_8h.html" target="_top" xlink:title=" ">
<polygon fill="#ffffff" stroke="#000000" points="1562.5,-.5 1562.5,-30.5 1668.5,-30.5 1668.5,-.5 1562.5,-.5"/>
<text text-anchor="start" x="1570.5" y="-18.5" font-family="Helvetica,sans-Serif" font-size="10.00" fill="#000000">iop/iLink/iLinkman</text>
<text text-anchor="middle" x="1615.5" y="-7.5" font-family="Helvetica,sans-Serif" font-size="10.00" fill="#000000">/src/irx_imports.h</text>
</a>
</g>
</g>
<!-- Node1&#45;&gt;Node14 -->
<g id="edge13" class="edge">
<title>Node1&#45;&gt;Node14</title>
<path fill="none" stroke="#191970" d="M931.6404,-81.2862C1054.7723,-78.2007 1327.2017,-67.4844 1553.5,-31 1556.348,-30.5408 1559.257,-30.0151 1562.1852,-29.441"/>
<polygon fill="#191970" stroke="#191970" points="931.5265,-77.7879 921.6141,-81.5288 931.6958,-84.7858 931.5265,-77.7879"/>
</g>
</g>
</svg>
        <g id="navigator" transform="translate(0 0)" fill="#404254">
                <rect fill="#f2f5e9" fill-opacity="0.5" stroke="#606060" stroke-width=".5" x="0" y="0" width="60" height="60"/>
                <use id="zoomplus" xlink:href="#zoomPlus" x="17" y="9" onmousedown="handleZoom(evt,'in')"/>
                <use id="zoomminus" xlink:href="#zoomMin" x="42" y="9" onmousedown="handleZoom(evt,'out')"/>
                <use id="reset" xlink:href="#resetDef" x="30" y="36" onmousedown="handleReset()"/>
                <g id="arrowUp" xlink:href="#dirArrow" transform="translate(30 24)" onmousedown="handlePan(0,-1)">
                  <use xlink:href="#rim" fill="#404040">
                        <set attributeName="fill" to="#808080" begin="arrowUp.mouseover" end="arrowUp.mouseout"/>
                  </use>
                  <path fill="none" stroke="white" stroke-width="1.5" d="M0,-3.0v7 M-2.5,-0.5L0,-3.0L2.5,-0.5"/>
                </g>
                <g id="arrowRight" xlink:href="#dirArrow" transform="rotate(90) translate(36 -43)" onmousedown="handlePan(1,0)">
                  <use xlink:href="#rim" fill="#404040">
                        <set attributeName="fill" to="#808080" begin="arrowRight.mouseover" end="arrowRight.mouseout"/>
                  </use>
                  <path fill="none" stroke="white" stroke-width="1.5" d="M0,-3.0v7 M-2.5,-0.5L0,-3.0L2.5,-0.5"/>
                </g>
                <g id="arrowDown" xlink:href="#dirArrow" transform="rotate(180) translate(-30 -48)" onmousedown="handlePan(0,1)">
                  <use xlink:href="#rim" fill="#404040">
                        <set attributeName="fill" to="#808080" begin="arrowDown.mouseover" end="arrowDown.mouseout"/>
                  </use>
                  <path fill="none" stroke="white" stroke-width="1.5" d="M0,-3.0v7 M-2.5,-0.5L0,-3.0L2.5,-0.5"/>
                </g>
                <g id="arrowLeft" xlink:href="#dirArrow" transform="rotate(270) translate(-36 17)" onmousedown="handlePan(-1,0)">
                  <use xlink:href="#rim" fill="#404040">
                        <set attributeName="fill" to="#808080" begin="arrowLeft.mouseover" end="arrowLeft.mouseout"/>
                  </use>
                  <path fill="none" stroke="white" stroke-width="1.5" d="M0,-3.0v7 M-2.5,-0.5L0,-3.0L2.5,-0.5"/>
                </g>
        </g>
        <svg viewBox="0 0 15 15" width="100%" height="30px" preserveAspectRatio="xMaxYMin meet">
         <g id="arrow_out" transform="scale(0.3 0.3)">
          <a xlink:href="iLinkman_8h__dep__incl_org.svg" target="_base">
           <rect id="button" ry="5" rx="5" y="6" x="6" height="38" width="38"
                fill="#f2f5e9" fill-opacity="0.5" stroke="#606060" stroke-width="1.0"/>
           <path id="arrow"
             d="M 11.500037,31.436501 C 11.940474,20.09759 22.043105,11.32322 32.158766,21.979434 L 37.068811,17.246167 C 37.068811,17.246167 37.088388,32 37.088388,32 L 22.160133,31.978069 C 22.160133,31.978069 26.997745,27.140456 26.997745,27.140456 C 18.528582,18.264221 13.291696,25.230495 11.500037,31.436501 z"
             style="fill:#404040;"/>
          </a>
         </g>
        </svg>
</svg>
