<?xml version="1.0" encoding="UTF-8" standalone="no"?>
<!DOCTYPE svg PUBLIC "-//W3C//DTD SVG 1.1//EN"
 "http://www.w3.org/Graphics/SVG/1.1/DTD/svg11.dtd">
<!-- Generated by graphviz version 2.40.1 (20161225.0304)
 -->
<!-- Title: iop/iLink/IEEE1394_disk/src/fat_write.c Pages: 1 -->
<svg width="1029pt" height="263pt"
 viewBox="0.00 0.00 1029.00 263.00" xmlns="http://www.w3.org/2000/svg" xmlns:xlink="http://www.w3.org/1999/xlink">
<g id="graph0" class="graph" transform="scale(1 1) rotate(0) translate(4 259)">
<title>iop/iLink/IEEE1394_disk/src/fat_write.c</title>
<polygon fill="#ffffff" stroke="transparent" points="-4,4 -4,-259 1025,-259 1025,4 -4,4"/>
<!-- Node1 -->
<g id="node1" class="node">
<title>Node1</title>
<g id="a_node1"><a xlink:title=" ">
<polygon fill="#bfbfbf" stroke="#000000" points="489.5,-224.5 489.5,-254.5 603.5,-254.5 603.5,-224.5 489.5,-224.5"/>
<text text-anchor="start" x="497.5" y="-242.5" font-family="Helvetica,sans-Serif" font-size="10.00" fill="#000000">iop/iLink/IEEE1394</text>
<text text-anchor="middle" x="546.5" y="-231.5" font-family="Helvetica,sans-Serif" font-size="10.00" fill="#000000">_disk/src/fat_write.c</text>
</a>
</g>
</g>
<!-- Node2 -->
<g id="node2" class="node">
<title>Node2</title>
<g id="a_node2"><a xlink:href="stdio_8h.html" target="_top" xlink:title=" ">
<polygon fill="#ffffff" stroke="#000000" points="145.5,-168.5 145.5,-187.5 195.5,-187.5 195.5,-168.5 145.5,-168.5"/>
<text text-anchor="middle" x="170.5" y="-175.5" font-family="Helvetica,sans-Serif" font-size="10.00" fill="#000000">stdio.h</text>
</a>
</g>
</g>
<!-- Node1&#45;&gt;Node2 -->
<g id="edge1" class="edge">
<title>Node1&#45;&gt;Node2</title>
<path fill="none" stroke="#191970" d="M489.4819,-233.33C423.3015,-225.6306 310.795,-210.8828 205.491,-187.9822"/>
<polygon fill="#191970" stroke="#191970" points="206.1704,-184.548 195.6514,-185.8135 204.6637,-191.3839 206.1704,-184.548"/>
</g>
<!-- Node8 -->
<g id="node8" class="node">
<title>Node8</title>
<g id="a_node8"><a xlink:href="errno_8h.html" target="_top" xlink:title=" ">
<polygon fill="#ffffff" stroke="#000000" points="291,-168.5 291,-187.5 342,-187.5 342,-168.5 291,-168.5"/>
<text text-anchor="middle" x="316.5" y="-175.5" font-family="Helvetica,sans-Serif" font-size="10.00" fill="#000000">errno.h</text>
</a>
</g>
</g>
<!-- Node1&#45;&gt;Node8 -->
<g id="edge7" class="edge">
<title>Node1&#45;&gt;Node8</title>
<path fill="none" stroke="#191970" d="M489.2504,-224.7034C452.6284,-215.1634 403.8712,-202.3253 351.8474,-188.0579"/>
<polygon fill="#191970" stroke="#191970" points="352.6676,-184.6536 342.0976,-185.3777 350.8121,-191.4033 352.6676,-184.6536"/>
</g>
<!-- Node9 -->
<g id="node9" class="node">
<title>Node9</title>
<g id="a_node9"><a xlink:href="cdvdman_8h.html" target="_top" xlink:title=" ">
<polygon fill="#ffffff" stroke="#000000" points="56,-168.5 56,-187.5 127,-187.5 127,-168.5 56,-168.5"/>
<text text-anchor="middle" x="91.5" y="-175.5" font-family="Helvetica,sans-Serif" font-size="10.00" fill="#000000">cdvdman.h</text>
</a>
</g>
</g>
<!-- Node1&#45;&gt;Node9 -->
<g id="edge8" class="edge">
<title>Node1&#45;&gt;Node9</title>
<path fill="none" stroke="#191970" d="M489.2074,-234.016C411.6546,-226.2133 268.8008,-210.5008 137.1618,-187.977"/>
<polygon fill="#191970" stroke="#191970" points="137.7512,-184.5271 127.3012,-186.2733 136.5593,-191.4249 137.7512,-184.5271"/>
</g>
<!-- Node11 -->
<g id="node11" class="node">
<title>Node11</title>
<g id="a_node11"><a xlink:href="sysclib_8h.html" target="_top" xlink:title=" ">
<polygon fill="#ffffff" stroke="#000000" points="214,-168.5 214,-187.5 273,-187.5 273,-168.5 214,-168.5"/>
<text text-anchor="middle" x="243.5" y="-175.5" font-family="Helvetica,sans-Serif" font-size="10.00" fill="#000000">sysclib.h</text>
</a>
</g>
</g>
<!-- Node1&#45;&gt;Node11 -->
<g id="edge13" class="edge">
<title>Node1&#45;&gt;Node11</title>
<path fill="none" stroke="#191970" d="M489.3937,-229.3543C437.9853,-219.9957 360.1548,-205.2712 283.1421,-188.0467"/>
<polygon fill="#191970" stroke="#191970" points="283.7919,-184.6055 273.2672,-185.8232 282.2541,-191.4345 283.7919,-184.6055"/>
</g>
<!-- Node13 -->
<g id="node13" class="node">
<title>Node13</title>
<g id="a_node13"><a xlink:href="usbhdfsd-common_8h.html" target="_top" xlink:title=" ">
<polygon fill="#ffffff" stroke="#000000" points="360.5,-168.5 360.5,-187.5 476.5,-187.5 476.5,-168.5 360.5,-168.5"/>
<text text-anchor="middle" x="418.5" y="-175.5" font-family="Helvetica,sans-Serif" font-size="10.00" fill="#000000">usbhdfsd&#45;common.h</text>
</a>
</g>
</g>
<!-- Node1&#45;&gt;Node13 -->
<g id="edge19" class="edge">
<title>Node1&#45;&gt;Node13</title>
<path fill="none" stroke="#191970" d="M515.1877,-224.4554C494.4862,-214.509 467.5477,-201.5659 447.3647,-191.8686"/>
<polygon fill="#191970" stroke="#191970" points="448.8648,-188.7064 438.3355,-187.5303 445.8333,-195.0159 448.8648,-188.7064"/>
</g>
<!-- Node14 -->
<g id="node14" class="node">
<title>Node14</title>
<g id="a_node14"><a xlink:title=" ">
<polygon fill="#ffffff" stroke="#bfbfbf" points="495,-168.5 495,-187.5 598,-187.5 598,-168.5 495,-168.5"/>
<text text-anchor="middle" x="546.5" y="-175.5" font-family="Helvetica,sans-Serif" font-size="10.00" fill="#000000">usbhd_common.h</text>
</a>
</g>
</g>
<!-- Node1&#45;&gt;Node14 -->
<g id="edge20" class="edge">
<title>Node1&#45;&gt;Node14</title>
<path fill="none" stroke="#191970" d="M546.5,-224.2977C546.5,-216.3834 546.5,-206.6043 546.5,-198.0759"/>
<polygon fill="#191970" stroke="#191970" points="550.0001,-197.8469 546.5,-187.8469 543.0001,-197.847 550.0001,-197.8469"/>
</g>
<!-- Node15 -->
<g id="node15" class="node">
<title>Node15</title>
<g id="a_node15"><a xlink:title=" ">
<polygon fill="#ffffff" stroke="#bfbfbf" points="616.5,-168.5 616.5,-187.5 688.5,-187.5 688.5,-168.5 616.5,-168.5"/>
<text text-anchor="middle" x="652.5" y="-175.5" font-family="Helvetica,sans-Serif" font-size="10.00" fill="#000000">fat_driver.h</text>
</a>
</g>
</g>
<!-- Node1&#45;&gt;Node15 -->
<g id="edge21" class="edge">
<title>Node1&#45;&gt;Node15</title>
<path fill="none" stroke="#191970" d="M572.4305,-224.4554C589.0309,-214.8241 610.4744,-202.3828 626.9917,-192.7996"/>
<polygon fill="#191970" stroke="#191970" points="629.1806,-195.5761 636.0738,-187.5303 625.6677,-189.5214 629.1806,-195.5761"/>
</g>
<!-- Node16 -->
<g id="node16" class="node">
<title>Node16</title>
<g id="a_node16"><a xlink:title=" ">
<polygon fill="#ffffff" stroke="#bfbfbf" points="707,-168.5 707,-187.5 746,-187.5 746,-168.5 707,-168.5"/>
<text text-anchor="middle" x="726.5" y="-175.5" font-family="Helvetica,sans-Serif" font-size="10.00" fill="#000000">fat.h</text>
</a>
</g>
</g>
<!-- Node1&#45;&gt;Node16 -->
<g id="edge22" class="edge">
<title>Node1&#45;&gt;Node16</title>
<path fill="none" stroke="#191970" d="M590.7822,-224.4409C618.7678,-214.9139 655.9318,-202.2441 697.3736,-188.0361"/>
<polygon fill="#191970" stroke="#191970" points="698.5241,-191.3417 706.8477,-184.7867 696.253,-184.7203 698.5241,-191.3417"/>
</g>
<!-- Node17 -->
<g id="node17" class="node">
<title>Node17</title>
<g id="a_node17"><a xlink:title=" ">
<polygon fill="#ffffff" stroke="#bfbfbf" points="764,-168.5 764,-187.5 823,-187.5 823,-168.5 764,-168.5"/>
<text text-anchor="middle" x="793.5" y="-175.5" font-family="Helvetica,sans-Serif" font-size="10.00" fill="#000000">scache.h</text>
</a>
</g>
</g>
<!-- Node1&#45;&gt;Node17 -->
<g id="edge23" class="edge">
<title>Node1&#45;&gt;Node17</title>
<path fill="none" stroke="#191970" d="M603.7768,-225.6433C643.5112,-215.9715 697.9145,-202.6127 753.9092,-188.3829"/>
<polygon fill="#191970" stroke="#191970" points="754.8136,-191.7644 763.6408,-185.9051 753.0863,-184.9808 754.8136,-191.7644"/>
</g>
<!-- Node18 -->
<g id="node18" class="node">
<title>Node18</title>
<g id="a_node18"><a xlink:title=" ">
<polygon fill="#ffffff" stroke="#bfbfbf" points="841.5,-168.5 841.5,-187.5 915.5,-187.5 915.5,-168.5 841.5,-168.5"/>
<text text-anchor="middle" x="878.5" y="-175.5" font-family="Helvetica,sans-Serif" font-size="10.00" fill="#000000">sbp2_disk.h</text>
</a>
</g>
</g>
<!-- Node1&#45;&gt;Node18 -->
<g id="edge24" class="edge">
<title>Node1&#45;&gt;Node18</title>
<path fill="none" stroke="#191970" d="M603.5903,-229.8408C659.2548,-220.2825 746.5495,-204.9218 831.5512,-188.1387"/>
<polygon fill="#191970" stroke="#191970" points="832.2386,-191.5706 841.3668,-186.1922 830.8769,-184.7043 832.2386,-191.5706"/>
</g>
<!-- Node19 -->
<g id="node19" class="node">
<title>Node19</title>
<g id="a_node19"><a xlink:title=" ">
<polygon fill="#ffffff" stroke="#bfbfbf" points="934,-168.5 934,-187.5 1021,-187.5 1021,-168.5 934,-168.5"/>
<text text-anchor="middle" x="977.5" y="-175.5" font-family="Helvetica,sans-Serif" font-size="10.00" fill="#000000">mass_debug.h</text>
</a>
</g>
</g>
<!-- Node1&#45;&gt;Node19 -->
<g id="edge25" class="edge">
<title>Node1&#45;&gt;Node19</title>
<path fill="none" stroke="#191970" d="M603.6295,-232.6392C675.7416,-223.7735 803.828,-207.3447 923.764,-188.0509"/>
<polygon fill="#191970" stroke="#191970" points="924.546,-191.47 933.8583,-186.4171 923.4275,-184.5599 924.546,-191.47"/>
</g>
<!-- Node3 -->
<g id="node3" class="node">
<title>Node3</title>
<g id="a_node3"><a xlink:title=" ">
<polygon fill="#ffffff" stroke="#bfbfbf" points="175.5,-112.5 175.5,-131.5 231.5,-131.5 231.5,-112.5 175.5,-112.5"/>
<text text-anchor="middle" x="203.5" y="-119.5" font-family="Helvetica,sans-Serif" font-size="10.00" fill="#000000">stdarg.h</text>
</a>
</g>
</g>
<!-- Node2&#45;&gt;Node3 -->
<g id="edge2" class="edge">
<title>Node2&#45;&gt;Node3</title>
<path fill="none" stroke="#191970" d="M176.2482,-168.2455C180.7435,-160.617 187.1248,-149.7881 192.5825,-140.5267"/>
<polygon fill="#191970" stroke="#191970" points="195.7561,-142.035 197.8177,-131.6427 189.7253,-138.4811 195.7561,-142.035"/>
</g>
<!-- Node4 -->
<g id="node4" class="node">
<title>Node4</title>
<g id="a_node4"><a xlink:href="irx_8h.html" target="_top" xlink:title=" ">
<polygon fill="#ffffff" stroke="#000000" points="119.5,-112.5 119.5,-131.5 157.5,-131.5 157.5,-112.5 119.5,-112.5"/>
<text text-anchor="middle" x="138.5" y="-119.5" font-family="Helvetica,sans-Serif" font-size="10.00" fill="#000000">irx.h</text>
</a>
</g>
</g>
<!-- Node2&#45;&gt;Node4 -->
<g id="edge3" class="edge">
<title>Node2&#45;&gt;Node4</title>
<path fill="none" stroke="#191970" d="M164.926,-168.2455C160.5669,-160.617 154.3789,-149.7881 149.0867,-140.5267"/>
<polygon fill="#191970" stroke="#191970" points="152.0104,-138.5886 144.0101,-131.6427 145.9327,-142.0616 152.0104,-138.5886"/>
</g>
<!-- Node5 -->
<g id="node5" class="node">
<title>Node5</title>
<g id="a_node5"><a xlink:href="types_8h.html" target="_top" xlink:title=" ">
<polygon fill="#ffffff" stroke="#000000" points="125,-56.5 125,-75.5 178,-75.5 178,-56.5 125,-56.5"/>
<text text-anchor="middle" x="151.5" y="-63.5" font-family="Helvetica,sans-Serif" font-size="10.00" fill="#000000">types.h</text>
</a>
</g>
</g>
<!-- Node4&#45;&gt;Node5 -->
<g id="edge4" class="edge">
<title>Node4&#45;&gt;Node5</title>
<path fill="none" stroke="#191970" d="M140.7644,-112.2455C142.4794,-104.8579 144.8912,-94.4689 146.9944,-85.4087"/>
<polygon fill="#191970" stroke="#191970" points="150.4095,-86.1751 149.2615,-75.6427 143.5908,-84.5922 150.4095,-86.1751"/>
</g>
<!-- Node6 -->
<g id="node6" class="node">
<title>Node6</title>
<g id="a_node6"><a xlink:title=" ">
<polygon fill="#ffffff" stroke="#bfbfbf" points="164.5,-.5 164.5,-19.5 220.5,-19.5 220.5,-.5 164.5,-.5"/>
<text text-anchor="middle" x="192.5" y="-7.5" font-family="Helvetica,sans-Serif" font-size="10.00" fill="#000000">stddef.h</text>
</a>
</g>
</g>
<!-- Node5&#45;&gt;Node6 -->
<g id="edge5" class="edge">
<title>Node5&#45;&gt;Node6</title>
<path fill="none" stroke="#191970" d="M158.6417,-56.2455C164.3444,-48.4564 172.49,-37.3308 179.3625,-27.9439"/>
<polygon fill="#191970" stroke="#191970" points="182.3568,-29.7789 185.4402,-19.6427 176.7087,-25.6437 182.3568,-29.7789"/>
</g>
<!-- Node7 -->
<g id="node7" class="node">
<title>Node7</title>
<g id="a_node7"><a xlink:href="tamtypes_8h.html" target="_top" xlink:title=" ">
<polygon fill="#ffffff" stroke="#000000" points="74.5,-.5 74.5,-19.5 146.5,-19.5 146.5,-.5 74.5,-.5"/>
<text text-anchor="middle" x="110.5" y="-7.5" font-family="Helvetica,sans-Serif" font-size="10.00" fill="#000000">tamtypes.h</text>
</a>
</g>
</g>
<!-- Node5&#45;&gt;Node7 -->
<g id="edge6" class="edge">
<title>Node5&#45;&gt;Node7</title>
<path fill="none" stroke="#191970" d="M144.3583,-56.2455C138.6556,-48.4564 130.51,-37.3308 123.6375,-27.9439"/>
<polygon fill="#191970" stroke="#191970" points="126.2913,-25.6437 117.5598,-19.6427 120.6432,-29.7789 126.2913,-25.6437"/>
</g>
<!-- Node9&#45;&gt;Node4 -->
<g id="edge10" class="edge">
<title>Node9&#45;&gt;Node4</title>
<path fill="none" stroke="#191970" d="M99.6868,-168.2455C106.3589,-160.2958 115.9479,-148.8706 123.9253,-139.3656"/>
<polygon fill="#191970" stroke="#191970" points="126.6592,-141.5525 130.407,-131.6427 121.2974,-137.0524 126.6592,-141.5525"/>
</g>
<!-- Node9&#45;&gt;Node5 -->
<g id="edge9" class="edge">
<title>Node9&#45;&gt;Node5</title>
<path fill="none" stroke="#191970" d="M92.9368,-168.0756C95.1837,-154.6796 100.3627,-130.3748 110.5,-112 116.3912,-101.3217 125.166,-91.0318 133.0879,-82.9019"/>
<polygon fill="#191970" stroke="#191970" points="135.8915,-85.0552 140.5872,-75.5577 130.9937,-80.054 135.8915,-85.0552"/>
</g>
<!-- Node10 -->
<g id="node10" class="node">
<title>Node10</title>
<g id="a_node10"><a xlink:href="libcdvd-common_8h.html" target="_top" xlink:title=" ">
<polygon fill="#ffffff" stroke="#000000" points="0,-56.5 0,-75.5 107,-75.5 107,-56.5 0,-56.5"/>
<text text-anchor="middle" x="53.5" y="-63.5" font-family="Helvetica,sans-Serif" font-size="10.00" fill="#000000">libcdvd&#45;common.h</text>
</a>
</g>
</g>
<!-- Node9&#45;&gt;Node10 -->
<g id="edge11" class="edge">
<title>Node9&#45;&gt;Node10</title>
<path fill="none" stroke="#191970" d="M88.2601,-168.4509C82.0063,-150.0186 68.1658,-109.2254 59.961,-85.043"/>
<polygon fill="#191970" stroke="#191970" points="63.2591,-83.8701 56.7317,-75.5249 56.6303,-86.1192 63.2591,-83.8701"/>
</g>
<!-- Node10&#45;&gt;Node7 -->
<g id="edge12" class="edge">
<title>Node10&#45;&gt;Node7</title>
<path fill="none" stroke="#191970" d="M63.4286,-56.2455C71.6838,-48.1352 83.6209,-36.4075 93.4082,-26.7919"/>
<polygon fill="#191970" stroke="#191970" points="96.0046,-29.1476 100.6851,-19.6427 91.0989,-24.1542 96.0046,-29.1476"/>
</g>
<!-- Node11&#45;&gt;Node3 -->
<g id="edge16" class="edge">
<title>Node11&#45;&gt;Node3</title>
<path fill="none" stroke="#191970" d="M236.5325,-168.2455C230.9689,-160.4564 223.022,-149.3308 216.3171,-139.9439"/>
<polygon fill="#191970" stroke="#191970" points="219.0481,-137.7457 210.3876,-131.6427 213.352,-141.8144 219.0481,-137.7457"/>
</g>
<!-- Node11&#45;&gt;Node4 -->
<g id="edge15" class="edge">
<title>Node11&#45;&gt;Node4</title>
<path fill="none" stroke="#191970" d="M225.2104,-168.2455C208.7238,-159.4527 184.2648,-146.4079 165.5235,-136.4125"/>
<polygon fill="#191970" stroke="#191970" points="167.0506,-133.2604 156.58,-131.6427 163.7565,-139.4368 167.0506,-133.2604"/>
</g>
<!-- Node11&#45;&gt;Node5 -->
<g id="edge14" class="edge">
<title>Node11&#45;&gt;Node5</title>
<path fill="none" stroke="#191970" d="M245.9007,-168.1409C248.6599,-154.3856 251.5106,-129.1935 240.5,-112 228.6784,-93.54 206.9257,-82.1071 187.8855,-75.2564"/>
<polygon fill="#191970" stroke="#191970" points="188.836,-71.8845 178.2429,-72.0787 186.645,-78.5328 188.836,-71.8845"/>
</g>
<!-- Node12 -->
<g id="node12" class="node">
<title>Node12</title>
<g id="a_node12"><a xlink:href="setjmp_8h.html" target="_top" xlink:title=" ">
<polygon fill="#ffffff" stroke="#000000" points="232,-56.5 232,-75.5 291,-75.5 291,-56.5 232,-56.5"/>
<text text-anchor="middle" x="261.5" y="-63.5" font-family="Helvetica,sans-Serif" font-size="10.00" fill="#000000">setjmp.h</text>
</a>
</g>
</g>
<!-- Node11&#45;&gt;Node12 -->
<g id="edge17" class="edge">
<title>Node11&#45;&gt;Node12</title>
<path fill="none" stroke="#191970" d="M252.2861,-168.2709C259.5686,-159.5036 269.3705,-145.8915 273.5,-132 278.1086,-116.4969 274.1857,-98.3912 269.6313,-85.069"/>
<polygon fill="#191970" stroke="#191970" points="272.8334,-83.6433 265.9943,-75.5515 266.2946,-86.1421 272.8334,-83.6433"/>
</g>
<!-- Node12&#45;&gt;Node7 -->
<g id="edge18" class="edge">
<title>Node12&#45;&gt;Node7</title>
<path fill="none" stroke="#191970" d="M235.5422,-56.3733C210.7593,-47.1822 173.2254,-33.2624 145.746,-23.0713"/>
<polygon fill="#191970" stroke="#191970" points="146.7121,-19.6968 136.1191,-19.5011 144.2781,-26.26 146.7121,-19.6968"/>
</g>
</g>
</svg>
