<?xml version="1.0" encoding="UTF-8" standalone="no"?>
<!DOCTYPE svg PUBLIC "-//W3C//DTD SVG 1.1//EN"
 "http://www.w3.org/Graphics/SVG/1.1/DTD/svg11.dtd">
<!-- Generated by graphviz version 2.40.1 (20161225.0304)
 -->
<!-- Title: iop/iLink/IEEE1394_bd/src/irx_imports.h Pages: 1 -->
<!--zoomable 263 -->
<svg id="main" version="1.1" xmlns="http://www.w3.org/2000/svg" xmlns:xlink="http://www.w3.org/1999/xlink" xml:space="preserve" onload="init(evt)">
<style type="text/css"><![CDATA[
.edge:hover path { stroke: red; }
.edge:hover polygon { stroke: red; fill: red; }
]]></style>
<script type="text/javascript"><![CDATA[
var edges = document.getElementsByTagName('g');
if (edges && edges.length) {
  for (var i=0;i<edges.length;i++) {
    if (edges[i].id.substr(0,4)=='edge') {
      edges[i].setAttribute('class','edge');
    }
  }
}
]]></script>
        <defs>
                <circle id="rim" cx="0" cy="0" r="7"/>
                <circle id="rim2" cx="0" cy="0" r="3.5"/>
                <g id="zoomPlus">
                        <use xlink:href="#rim" fill="#404040">
                                <set attributeName="fill" to="#808080" begin="zoomplus.mouseover" end="zoomplus.mouseout"/>
                        </use>
                        <path d="M-4,0h8M0,-4v8" fill="none" stroke="white" stroke-width="1.5" pointer-events="none"/>
                </g>
                <g id="zoomMin">
                        <use xlink:href="#rim" fill="#404040">
                                <set attributeName="fill" to="#808080" begin="zoomminus.mouseover" end="zoomminus.mouseout"/>
                        </use>
                        <path d="M-4,0h8" fill="none" stroke="white" stroke-width="1.5" pointer-events="none"/>
                </g>
                <g id="dirArrow">
                        <path fill="none" stroke="white" stroke-width="1.5" d="M0,-3.0v7 M-2.5,-0.5L0,-3.0L2.5,-0.5"/>
                </g>
               <g id="resetDef">
                       <use xlink:href="#rim2" fill="#404040">
                               <set attributeName="fill" to="#808080" begin="reset.mouseover" end="reset.mouseout"/>
                       </use>
               </g>
        </defs>

<script type="text/javascript">
var viewWidth = 1044;
var viewHeight = 263;
var sectionId = 'dynsection-0';
</script>
<script xlink:href="svgpan.js"/>
<svg id="graph" class="graph">
<g id="viewport">
<title>iop/iLink/IEEE1394_bd/src/irx_imports.h</title>
<polygon fill="#ffffff" stroke="transparent" points="-4,4 -4,-259 1040,-259 1040,4 -4,4"/>
<!-- Node1 -->
<g id="node1" class="node">
<title>Node1</title>
<g id="a_node1"><a xlink:title=" ">
<polygon fill="#bfbfbf" stroke="#000000" points="478,-224.5 478,-254.5 597,-254.5 597,-224.5 478,-224.5"/>
<text text-anchor="start" x="486" y="-242.5" font-family="Helvetica,sans-Serif" font-size="10.00" fill="#000000">iop/iLink/IEEE1394</text>
<text text-anchor="middle" x="537.5" y="-231.5" font-family="Helvetica,sans-Serif" font-size="10.00" fill="#000000">_bd/src/irx_imports.h</text>
</a>
</g>
</g>
<!-- Node2 -->
<g id="node2" class="node">
<title>Node2</title>
<g id="a_node2"><a xlink:href="irx_8h.html" target="_top" xlink:title=" ">
<polygon fill="#ffffff" stroke="#000000" points="526.5,-112.5 526.5,-131.5 564.5,-131.5 564.5,-112.5 526.5,-112.5"/>
<text text-anchor="middle" x="545.5" y="-119.5" font-family="Helvetica,sans-Serif" font-size="10.00" fill="#000000">irx.h</text>
</a>
</g>
</g>
<!-- Node1&#45;&gt;Node2 -->
<g id="edge1" class="edge">
<title>Node1&#45;&gt;Node2</title>
<path fill="none" stroke="#191970" d="M538.5459,-224.1389C539.9872,-202.9692 542.5848,-164.8174 544.1648,-141.6112"/>
<polygon fill="#191970" stroke="#191970" points="547.6617,-141.7742 544.8491,-131.5595 540.6779,-141.2986 547.6617,-141.7742"/>
</g>
<!-- Node6 -->
<g id="node6" class="node">
<title>Node6</title>
<g id="a_node6"><a xlink:href="iLinkman_8h.html" target="_top" xlink:title=" ">
<polygon fill="#ffffff" stroke="#000000" points="214,-168.5 214,-187.5 285,-187.5 285,-168.5 214,-168.5"/>
<text text-anchor="middle" x="249.5" y="-175.5" font-family="Helvetica,sans-Serif" font-size="10.00" fill="#000000">iLinkman.h</text>
</a>
</g>
</g>
<!-- Node1&#45;&gt;Node6 -->
<g id="edge5" class="edge">
<title>Node1&#45;&gt;Node6</title>
<path fill="none" stroke="#191970" d="M477.7803,-227.164C430.6645,-217.37 363.0063,-203.1706 295.0562,-188.3201"/>
<polygon fill="#191970" stroke="#191970" points="295.5483,-184.845 285.031,-186.1248 294.0508,-191.683 295.5483,-184.845"/>
</g>
<!-- Node8 -->
<g id="node8" class="node">
<title>Node8</title>
<g id="a_node8"><a xlink:href="bdm_8h.html" target="_top" xlink:title=" ">
<polygon fill="#ffffff" stroke="#000000" points="303,-168.5 303,-187.5 350,-187.5 350,-168.5 303,-168.5"/>
<text text-anchor="middle" x="326.5" y="-175.5" font-family="Helvetica,sans-Serif" font-size="10.00" fill="#000000">bdm.h</text>
</a>
</g>
</g>
<!-- Node1&#45;&gt;Node8 -->
<g id="edge8" class="edge">
<title>Node1&#45;&gt;Node8</title>
<path fill="none" stroke="#191970" d="M484.1463,-224.4926C450.8057,-215.0357 406.7448,-202.3962 359.9542,-188.3987"/>
<polygon fill="#191970" stroke="#191970" points="360.8312,-185.0077 350.2472,-185.4869 358.8199,-191.7126 360.8312,-185.0077"/>
</g>
<!-- Node9 -->
<g id="node9" class="node">
<title>Node9</title>
<g id="a_node9"><a xlink:href="cdvdman_8h.html" target="_top" xlink:title=" ">
<polygon fill="#ffffff" stroke="#000000" points="888,-168.5 888,-187.5 959,-187.5 959,-168.5 888,-168.5"/>
<text text-anchor="middle" x="923.5" y="-175.5" font-family="Helvetica,sans-Serif" font-size="10.00" fill="#000000">cdvdman.h</text>
</a>
</g>
</g>
<!-- Node1&#45;&gt;Node9 -->
<g id="edge11" class="edge">
<title>Node1&#45;&gt;Node9</title>
<path fill="none" stroke="#191970" d="M597.153,-231.7566C663.2537,-222.8923 773.2129,-207.3068 877.6011,-188.0655"/>
<polygon fill="#191970" stroke="#191970" points="878.4918,-191.46 887.6842,-186.1921 877.213,-184.5777 878.4918,-191.46"/>
</g>
<!-- Node11 -->
<g id="node11" class="node">
<title>Node11</title>
<g id="a_node11"><a xlink:href="intrman_8h.html" target="_top" xlink:title=" ">
<polygon fill="#ffffff" stroke="#000000" points="445.5,-168.5 445.5,-187.5 509.5,-187.5 509.5,-168.5 445.5,-168.5"/>
<text text-anchor="middle" x="477.5" y="-175.5" font-family="Helvetica,sans-Serif" font-size="10.00" fill="#000000">intrman.h</text>
</a>
</g>
</g>
<!-- Node1&#45;&gt;Node11 -->
<g id="edge16" class="edge">
<title>Node1&#45;&gt;Node11</title>
<path fill="none" stroke="#191970" d="M522.6685,-224.2977C514.0796,-215.4941 503.2398,-204.3833 494.3321,-195.2529"/>
<polygon fill="#191970" stroke="#191970" points="496.5953,-192.5606 487.1068,-187.8469 491.5848,-197.4489 496.5953,-192.5606"/>
</g>
<!-- Node12 -->
<g id="node12" class="node">
<title>Node12</title>
<g id="a_node12"><a xlink:href="ioman_8h.html" target="_top" xlink:title=" ">
<polygon fill="#ffffff" stroke="#000000" points="53.5,-168.5 53.5,-187.5 109.5,-187.5 109.5,-168.5 53.5,-168.5"/>
<text text-anchor="middle" x="81.5" y="-175.5" font-family="Helvetica,sans-Serif" font-size="10.00" fill="#000000">ioman.h</text>
</a>
</g>
</g>
<!-- Node1&#45;&gt;Node12 -->
<g id="edge19" class="edge">
<title>Node1&#45;&gt;Node12</title>
<path fill="none" stroke="#191970" d="M477.7556,-234.8384C398.0852,-228.0285 252.5958,-213.5236 119.6418,-187.9964"/>
<polygon fill="#191970" stroke="#191970" points="120.1695,-184.5335 109.6851,-186.0592 118.8326,-191.4047 120.1695,-184.5335"/>
</g>
<!-- Node16 -->
<g id="node16" class="node">
<title>Node16</title>
<g id="a_node16"><a xlink:href="loadcore_8h.html" target="_top" xlink:title=" ">
<polygon fill="#ffffff" stroke="#000000" points="565.5,-168.5 565.5,-187.5 633.5,-187.5 633.5,-168.5 565.5,-168.5"/>
<text text-anchor="middle" x="599.5" y="-175.5" font-family="Helvetica,sans-Serif" font-size="10.00" fill="#000000">loadcore.h</text>
</a>
</g>
</g>
<!-- Node1&#45;&gt;Node16 -->
<g id="edge25" class="edge">
<title>Node1&#45;&gt;Node16</title>
<path fill="none" stroke="#191970" d="M552.8258,-224.2977C561.7907,-215.4052 573.1288,-204.1586 582.3851,-194.9769"/>
<polygon fill="#191970" stroke="#191970" points="584.9382,-197.3742 589.573,-187.8469 580.0085,-192.4045 584.9382,-197.3742"/>
</g>
<!-- Node17 -->
<g id="node17" class="node">
<title>Node17</title>
<g id="a_node17"><a xlink:href="stdio_8h.html" target="_top" xlink:title=" ">
<polygon fill="#ffffff" stroke="#000000" points="733.5,-168.5 733.5,-187.5 783.5,-187.5 783.5,-168.5 733.5,-168.5"/>
<text text-anchor="middle" x="758.5" y="-175.5" font-family="Helvetica,sans-Serif" font-size="10.00" fill="#000000">stdio.h</text>
</a>
</g>
</g>
<!-- Node1&#45;&gt;Node17 -->
<g id="edge28" class="edge">
<title>Node1&#45;&gt;Node17</title>
<path fill="none" stroke="#191970" d="M593.2116,-224.428C628.1044,-214.9258 674.2512,-202.2462 723.3965,-188.2843"/>
<polygon fill="#191970" stroke="#191970" points="724.6036,-191.5798 733.2631,-185.4754 722.6869,-184.8473 724.6036,-191.5798"/>
</g>
<!-- Node19 -->
<g id="node19" class="node">
<title>Node19</title>
<g id="a_node19"><a xlink:href="sysclib_8h.html" target="_top" xlink:title=" ">
<polygon fill="#ffffff" stroke="#000000" points="977,-168.5 977,-187.5 1036,-187.5 1036,-168.5 977,-168.5"/>
<text text-anchor="middle" x="1006.5" y="-175.5" font-family="Helvetica,sans-Serif" font-size="10.00" fill="#000000">sysclib.h</text>
</a>
</g>
</g>
<!-- Node1&#45;&gt;Node19 -->
<g id="edge31" class="edge">
<title>Node1&#45;&gt;Node19</title>
<path fill="none" stroke="#191970" d="M597.1583,-234.999C678.7535,-228.2618 829.8077,-213.7183 966.8748,-188.1164"/>
<polygon fill="#191970" stroke="#191970" points="967.5434,-191.5521 976.7183,-186.254 966.242,-184.6742 967.5434,-191.5521"/>
</g>
<!-- Node21 -->
<g id="node21" class="node">
<title>Node21</title>
<g id="a_node21"><a xlink:href="sysmem_8h.html" target="_top" xlink:title=" ">
<polygon fill="#ffffff" stroke="#000000" points="801.5,-168.5 801.5,-187.5 869.5,-187.5 869.5,-168.5 801.5,-168.5"/>
<text text-anchor="middle" x="835.5" y="-175.5" font-family="Helvetica,sans-Serif" font-size="10.00" fill="#000000">sysmem.h</text>
</a>
</g>
</g>
<!-- Node1&#45;&gt;Node21 -->
<g id="edge37" class="edge">
<title>Node1&#45;&gt;Node21</title>
<path fill="none" stroke="#191970" d="M597.1133,-227.9718C646.5335,-218.2982 718.888,-203.8679 791.071,-188.2681"/>
<polygon fill="#191970" stroke="#191970" points="792.222,-191.5999 801.2528,-186.0595 790.7381,-184.759 792.222,-191.5999"/>
</g>
<!-- Node22 -->
<g id="node22" class="node">
<title>Node22</title>
<g id="a_node22"><a xlink:href="thbase_8h.html" target="_top" xlink:title=" ">
<polygon fill="#ffffff" stroke="#000000" points="368,-168.5 368,-187.5 427,-187.5 427,-168.5 368,-168.5"/>
<text text-anchor="middle" x="397.5" y="-175.5" font-family="Helvetica,sans-Serif" font-size="10.00" fill="#000000">thbase.h</text>
</a>
</g>
</g>
<!-- Node1&#45;&gt;Node22 -->
<g id="edge41" class="edge">
<title>Node1&#45;&gt;Node22</title>
<path fill="none" stroke="#191970" d="M503.2521,-224.4554C480.4051,-214.419 450.6121,-201.3314 428.4733,-191.6061"/>
<polygon fill="#191970" stroke="#191970" points="429.7583,-188.3478 419.195,-187.5303 426.9429,-194.7567 429.7583,-188.3478"/>
</g>
<!-- Node23 -->
<g id="node23" class="node">
<title>Node23</title>
<g id="a_node23"><a xlink:href="thevent_8h.html" target="_top" xlink:title=" ">
<polygon fill="#ffffff" stroke="#000000" points="652,-168.5 652,-187.5 715,-187.5 715,-168.5 652,-168.5"/>
<text text-anchor="middle" x="683.5" y="-175.5" font-family="Helvetica,sans-Serif" font-size="10.00" fill="#000000">thevent.h</text>
</a>
</g>
</g>
<!-- Node1&#45;&gt;Node23 -->
<g id="edge44" class="edge">
<title>Node1&#45;&gt;Node23</title>
<path fill="none" stroke="#191970" d="M573.2156,-224.4554C597.1487,-214.374 628.3905,-201.2139 651.5094,-191.4755"/>
<polygon fill="#191970" stroke="#191970" points="653.0181,-194.6379 660.8752,-187.5303 650.3007,-188.1868 653.0181,-194.6379"/>
</g>
<!-- Node24 -->
<g id="node24" class="node">
<title>Node24</title>
<g id="a_node24"><a xlink:href="thsemap_8h.html" target="_top" xlink:title=" ">
<polygon fill="#ffffff" stroke="#000000" points="127.5,-168.5 127.5,-187.5 195.5,-187.5 195.5,-168.5 127.5,-168.5"/>
<text text-anchor="middle" x="161.5" y="-175.5" font-family="Helvetica,sans-Serif" font-size="10.00" fill="#000000">thsemap.h</text>
</a>
</g>
</g>
<!-- Node1&#45;&gt;Node24 -->
<g id="edge47" class="edge">
<title>Node1&#45;&gt;Node24</title>
<path fill="none" stroke="#191970" d="M477.7144,-231.632C413.0368,-222.8107 306.6862,-207.4098 205.7787,-188.1396"/>
<polygon fill="#191970" stroke="#191970" points="206.1995,-184.6564 195.718,-186.2018 204.8755,-191.53 206.1995,-184.6564"/>
</g>
<!-- Node3 -->
<g id="node3" class="node">
<title>Node3</title>
<g id="a_node3"><a xlink:href="types_8h.html" target="_top" xlink:title=" ">
<polygon fill="#ffffff" stroke="#000000" points="573,-56.5 573,-75.5 626,-75.5 626,-56.5 573,-56.5"/>
<text text-anchor="middle" x="599.5" y="-63.5" font-family="Helvetica,sans-Serif" font-size="10.00" fill="#000000">types.h</text>
</a>
</g>
</g>
<!-- Node2&#45;&gt;Node3 -->
<g id="edge2" class="edge">
<title>Node2&#45;&gt;Node3</title>
<path fill="none" stroke="#191970" d="M554.9061,-112.2455C562.6493,-104.2155 573.812,-92.6394 583.0318,-83.0781"/>
<polygon fill="#191970" stroke="#191970" points="585.7798,-85.2706 590.2017,-75.6427 580.7409,-80.4117 585.7798,-85.2706"/>
</g>
<!-- Node4 -->
<g id="node4" class="node">
<title>Node4</title>
<g id="a_node4"><a xlink:title=" ">
<polygon fill="#ffffff" stroke="#bfbfbf" points="571.5,-.5 571.5,-19.5 627.5,-19.5 627.5,-.5 571.5,-.5"/>
<text text-anchor="middle" x="599.5" y="-7.5" font-family="Helvetica,sans-Serif" font-size="10.00" fill="#000000">stddef.h</text>
</a>
</g>
</g>
<!-- Node3&#45;&gt;Node4 -->
<g id="edge3" class="edge">
<title>Node3&#45;&gt;Node4</title>
<path fill="none" stroke="#191970" d="M599.5,-56.2455C599.5,-48.9382 599.5,-38.6944 599.5,-29.7046"/>
<polygon fill="#191970" stroke="#191970" points="603.0001,-29.6426 599.5,-19.6427 596.0001,-29.6427 603.0001,-29.6426"/>
</g>
<!-- Node5 -->
<g id="node5" class="node">
<title>Node5</title>
<g id="a_node5"><a xlink:href="tamtypes_8h.html" target="_top" xlink:title=" ">
<polygon fill="#ffffff" stroke="#000000" points="869.5,-.5 869.5,-19.5 941.5,-19.5 941.5,-.5 869.5,-.5"/>
<text text-anchor="middle" x="905.5" y="-7.5" font-family="Helvetica,sans-Serif" font-size="10.00" fill="#000000">tamtypes.h</text>
</a>
</g>
</g>
<!-- Node3&#45;&gt;Node5 -->
<g id="edge4" class="edge">
<title>Node3&#45;&gt;Node5</title>
<path fill="none" stroke="#191970" d="M626.1202,-61.1283C678.2926,-51.5804 794.5466,-30.3052 859.4444,-18.4285"/>
<polygon fill="#191970" stroke="#191970" points="860.1949,-21.8493 869.4015,-16.6063 858.9348,-14.9637 860.1949,-21.8493"/>
</g>
<!-- Node6&#45;&gt;Node2 -->
<g id="edge7" class="edge">
<title>Node6&#45;&gt;Node2</title>
<path fill="none" stroke="#191970" d="M285.0132,-169.7913C287.8814,-169.1703 290.7372,-168.5658 293.5,-168 373.9359,-151.5261 469.4173,-134.8893 516.4101,-126.8923"/>
<polygon fill="#191970" stroke="#191970" points="517.2048,-130.3076 526.4789,-125.185 516.0345,-123.4061 517.2048,-130.3076"/>
</g>
<!-- Node7 -->
<g id="node7" class="node">
<title>Node7</title>
<g id="a_node7"><a xlink:title=" ">
<polygon fill="#ffffff" stroke="#bfbfbf" points="290,-112.5 290,-131.5 343,-131.5 343,-112.5 290,-112.5"/>
<text text-anchor="middle" x="316.5" y="-119.5" font-family="Helvetica,sans-Serif" font-size="10.00" fill="#000000">types.h</text>
</a>
</g>
</g>
<!-- Node6&#45;&gt;Node7 -->
<g id="edge6" class="edge">
<title>Node6&#45;&gt;Node7</title>
<path fill="none" stroke="#191970" d="M261.1705,-168.2455C271.0661,-159.9746 285.4627,-147.9416 297.0901,-138.2232"/>
<polygon fill="#191970" stroke="#191970" points="299.535,-140.7413 304.9632,-131.6427 295.0458,-135.3703 299.535,-140.7413"/>
</g>
<!-- Node8&#45;&gt;Node2 -->
<g id="edge9" class="edge">
<title>Node8&#45;&gt;Node2</title>
<path fill="none" stroke="#191970" d="M350.2172,-170.4096C353.002,-169.5715 355.8089,-168.7507 358.5,-168 413.8964,-152.5467 479.2794,-137.0913 516.2155,-128.614"/>
<polygon fill="#191970" stroke="#191970" points="517.3154,-131.953 526.2851,-126.3143 515.7568,-125.1287 517.3154,-131.953"/>
</g>
<!-- Node8&#45;&gt;Node7 -->
<g id="edge10" class="edge">
<title>Node8&#45;&gt;Node7</title>
<path fill="none" stroke="#191970" d="M324.7581,-168.2455C323.4533,-160.9382 321.624,-150.6944 320.0187,-141.7046"/>
<polygon fill="#191970" stroke="#191970" points="323.4254,-140.8717 318.2219,-131.6427 316.5344,-142.1022 323.4254,-140.8717"/>
</g>
<!-- Node9&#45;&gt;Node2 -->
<g id="edge13" class="edge">
<title>Node9&#45;&gt;Node2</title>
<path fill="none" stroke="#191970" d="M887.6917,-169.7668C884.5892,-169.1373 881.4931,-168.5384 878.5,-168 767.0687,-147.9566 633.2935,-131.8749 575.0297,-125.2608"/>
<polygon fill="#191970" stroke="#191970" points="575.0605,-121.7422 564.7317,-124.1014 574.2773,-128.6983 575.0605,-121.7422"/>
</g>
<!-- Node9&#45;&gt;Node3 -->
<g id="edge12" class="edge">
<title>Node9&#45;&gt;Node3</title>
<path fill="none" stroke="#191970" d="M917.9781,-168.0431C909.1773,-153.1981 890.4873,-125.5603 866.5,-112 827.7123,-90.0728 700.1049,-75.407 636.3832,-69.264"/>
<polygon fill="#191970" stroke="#191970" points="636.6461,-65.7733 626.3613,-68.3175 635.9879,-72.7423 636.6461,-65.7733"/>
</g>
<!-- Node10 -->
<g id="node10" class="node">
<title>Node10</title>
<g id="a_node10"><a xlink:href="libcdvd-common_8h.html" target="_top" xlink:title=" ">
<polygon fill="#ffffff" stroke="#000000" points="852,-56.5 852,-75.5 959,-75.5 959,-56.5 852,-56.5"/>
<text text-anchor="middle" x="905.5" y="-63.5" font-family="Helvetica,sans-Serif" font-size="10.00" fill="#000000">libcdvd&#45;common.h</text>
</a>
</g>
</g>
<!-- Node9&#45;&gt;Node10 -->
<g id="edge14" class="edge">
<title>Node9&#45;&gt;Node10</title>
<path fill="none" stroke="#191970" d="M921.9653,-168.4509C919.0296,-150.184 912.5642,-109.9553 908.6657,-85.6976"/>
<polygon fill="#191970" stroke="#191970" points="912.0733,-84.8428 907.0308,-75.5249 905.162,-85.9536 912.0733,-84.8428"/>
</g>
<!-- Node10&#45;&gt;Node5 -->
<g id="edge15" class="edge">
<title>Node10&#45;&gt;Node5</title>
<path fill="none" stroke="#191970" d="M905.5,-56.2455C905.5,-48.9382 905.5,-38.6944 905.5,-29.7046"/>
<polygon fill="#191970" stroke="#191970" points="909.0001,-29.6426 905.5,-19.6427 902.0001,-29.6427 909.0001,-29.6426"/>
</g>
<!-- Node11&#45;&gt;Node2 -->
<g id="edge18" class="edge">
<title>Node11&#45;&gt;Node2</title>
<path fill="none" stroke="#191970" d="M489.3447,-168.2455C499.388,-159.9746 513.9995,-147.9416 525.8004,-138.2232"/>
<polygon fill="#191970" stroke="#191970" points="528.2967,-140.7015 533.791,-131.6427 523.8467,-135.298 528.2967,-140.7015"/>
</g>
<!-- Node11&#45;&gt;Node3 -->
<g id="edge17" class="edge">
<title>Node11&#45;&gt;Node3</title>
<path fill="none" stroke="#191970" d="M481.3988,-168.4356C487.4303,-154.5832 500.1622,-128.7643 517.5,-112 531.2992,-98.6573 549.7233,-87.8664 565.6118,-80.0983"/>
<polygon fill="#191970" stroke="#191970" points="567.5363,-83.0622 575.1128,-75.6564 564.5716,-76.721 567.5363,-83.0622"/>
</g>
<!-- Node12&#45;&gt;Node2 -->
<g id="edge21" class="edge">
<title>Node12&#45;&gt;Node2</title>
<path fill="none" stroke="#191970" d="M109.6766,-169.8965C112.6411,-169.1904 115.6225,-168.5404 118.5,-168 266.3119,-140.2407 446.2873,-127.6679 515.9757,-123.5836"/>
<polygon fill="#191970" stroke="#191970" points="516.4075,-127.0648 526.1915,-123 516.0081,-120.0762 516.4075,-127.0648"/>
</g>
<!-- Node12&#45;&gt;Node3 -->
<g id="edge20" class="edge">
<title>Node12&#45;&gt;Node3</title>
<path fill="none" stroke="#191970" d="M99.018,-168.3472C126.5482,-153.6438 182.0179,-125.8832 232.5,-112 350.3359,-79.5938 495.8032,-69.9474 562.6911,-67.1307"/>
<polygon fill="#191970" stroke="#191970" points="562.8809,-70.6261 572.7353,-66.7349 562.6052,-63.6315 562.8809,-70.6261"/>
</g>
<!-- Node13 -->
<g id="node13" class="node">
<title>Node13</title>
<g id="a_node13"><a xlink:href="io__common_8h.html" target="_top" xlink:title=" ">
<polygon fill="#ffffff" stroke="#000000" points="40,-112.5 40,-131.5 123,-131.5 123,-112.5 40,-112.5"/>
<text text-anchor="middle" x="81.5" y="-119.5" font-family="Helvetica,sans-Serif" font-size="10.00" fill="#000000">io_common.h</text>
</a>
</g>
</g>
<!-- Node12&#45;&gt;Node13 -->
<g id="edge22" class="edge">
<title>Node12&#45;&gt;Node13</title>
<path fill="none" stroke="#191970" d="M81.5,-168.2455C81.5,-160.9382 81.5,-150.6944 81.5,-141.7046"/>
<polygon fill="#191970" stroke="#191970" points="85.0001,-141.6426 81.5,-131.6427 78.0001,-141.6427 85.0001,-141.6426"/>
</g>
<!-- Node14 -->
<g id="node14" class="node">
<title>Node14</title>
<g id="a_node14"><a xlink:href="fcntl_8h.html" target="_top" xlink:title=" ">
<polygon fill="#ffffff" stroke="#000000" points="93,-56.5 93,-75.5 160,-75.5 160,-56.5 93,-56.5"/>
<text text-anchor="middle" x="126.5" y="-63.5" font-family="Helvetica,sans-Serif" font-size="10.00" fill="#000000">sys/fcntl.h</text>
</a>
</g>
</g>
<!-- Node13&#45;&gt;Node14 -->
<g id="edge23" class="edge">
<title>Node13&#45;&gt;Node14</title>
<path fill="none" stroke="#191970" d="M89.3384,-112.2455C95.662,-104.3761 104.7224,-93.101 112.3136,-83.6542"/>
<polygon fill="#191970" stroke="#191970" points="115.2158,-85.6302 118.7514,-75.6427 109.7592,-81.2454 115.2158,-85.6302"/>
</g>
<!-- Node15 -->
<g id="node15" class="node">
<title>Node15</title>
<g id="a_node15"><a xlink:href="unistd_8h.html" target="_top" xlink:title=" ">
<polygon fill="#ffffff" stroke="#000000" points="0,-56.5 0,-75.5 75,-75.5 75,-56.5 0,-56.5"/>
<text text-anchor="middle" x="37.5" y="-63.5" font-family="Helvetica,sans-Serif" font-size="10.00" fill="#000000">sys/unistd.h</text>
</a>
</g>
</g>
<!-- Node13&#45;&gt;Node15 -->
<g id="edge24" class="edge">
<title>Node13&#45;&gt;Node15</title>
<path fill="none" stroke="#191970" d="M73.8358,-112.2455C67.6527,-104.3761 58.7937,-93.101 51.3711,-83.6542"/>
<polygon fill="#191970" stroke="#191970" points="54.0068,-81.3435 45.0764,-75.6427 48.5025,-85.6683 54.0068,-81.3435"/>
</g>
<!-- Node16&#45;&gt;Node2 -->
<g id="edge27" class="edge">
<title>Node16&#45;&gt;Node2</title>
<path fill="none" stroke="#191970" d="M590.0939,-168.2455C582.3507,-160.2155 571.188,-148.6394 561.9682,-139.0781"/>
<polygon fill="#191970" stroke="#191970" points="564.2591,-136.4117 554.7983,-131.6427 559.2202,-141.2706 564.2591,-136.4117"/>
</g>
<!-- Node16&#45;&gt;Node3 -->
<g id="edge26" class="edge">
<title>Node16&#45;&gt;Node3</title>
<path fill="none" stroke="#191970" d="M599.5,-168.4509C599.5,-150.184 599.5,-109.9553 599.5,-85.6976"/>
<polygon fill="#191970" stroke="#191970" points="603.0001,-85.5249 599.5,-75.5249 596.0001,-85.5249 603.0001,-85.5249"/>
</g>
<!-- Node17&#45;&gt;Node2 -->
<g id="edge30" class="edge">
<title>Node17&#45;&gt;Node2</title>
<path fill="none" stroke="#191970" d="M733.2767,-170.4762C730.3222,-169.6261 727.3473,-168.7843 724.5,-168 671.9364,-153.5207 610.2891,-137.9965 574.7749,-129.1937"/>
<polygon fill="#191970" stroke="#191970" points="575.179,-125.6883 564.6312,-126.6862 573.4991,-132.4838 575.179,-125.6883"/>
</g>
<!-- Node18 -->
<g id="node18" class="node">
<title>Node18</title>
<g id="a_node18"><a xlink:title=" ">
<polygon fill="#ffffff" stroke="#bfbfbf" points="801.5,-112.5 801.5,-131.5 857.5,-131.5 857.5,-112.5 801.5,-112.5"/>
<text text-anchor="middle" x="829.5" y="-119.5" font-family="Helvetica,sans-Serif" font-size="10.00" fill="#000000">stdarg.h</text>
</a>
</g>
</g>
<!-- Node17&#45;&gt;Node18 -->
<g id="edge29" class="edge">
<title>Node17&#45;&gt;Node18</title>
<path fill="none" stroke="#191970" d="M770.8673,-168.2455C781.4554,-159.8943 796.9064,-147.7076 809.2893,-137.9408"/>
<polygon fill="#191970" stroke="#191970" points="811.5903,-140.5837 817.2745,-131.6427 807.2553,-135.0875 811.5903,-140.5837"/>
</g>
<!-- Node19&#45;&gt;Node2 -->
<g id="edge33" class="edge">
<title>Node19&#45;&gt;Node2</title>
<path fill="none" stroke="#191970" d="M976.724,-169.7157C973.9557,-169.0813 971.1833,-168.4961 968.5,-168 821.9799,-140.9103 643.7439,-127.9519 574.7352,-123.674"/>
<polygon fill="#191970" stroke="#191970" points="574.8125,-120.1724 564.6191,-123.0611 574.3891,-127.1595 574.8125,-120.1724"/>
</g>
<!-- Node19&#45;&gt;Node3 -->
<g id="edge32" class="edge">
<title>Node19&#45;&gt;Node3</title>
<path fill="none" stroke="#191970" d="M993.4724,-168.3743C972.9258,-153.7072 931.2337,-125.9942 891.5,-112 803.2797,-80.9288 692.6744,-70.7838 636.271,-67.5173"/>
<polygon fill="#191970" stroke="#191970" points="636.2352,-64.0104 626.0615,-66.9677 635.8589,-71.0003 636.2352,-64.0104"/>
</g>
<!-- Node19&#45;&gt;Node18 -->
<g id="edge34" class="edge">
<title>Node19&#45;&gt;Node18</title>
<path fill="none" stroke="#191970" d="M976.8742,-168.6269C946.8182,-159.1176 900.1818,-144.3626 867.4396,-134.0035"/>
<polygon fill="#191970" stroke="#191970" points="868.348,-130.6199 857.758,-130.9404 866.2364,-137.2939 868.348,-130.6199"/>
</g>
<!-- Node20 -->
<g id="node20" class="node">
<title>Node20</title>
<g id="a_node20"><a xlink:href="setjmp_8h.html" target="_top" xlink:title=" ">
<polygon fill="#ffffff" stroke="#000000" points="977,-56.5 977,-75.5 1036,-75.5 1036,-56.5 977,-56.5"/>
<text text-anchor="middle" x="1006.5" y="-63.5" font-family="Helvetica,sans-Serif" font-size="10.00" fill="#000000">setjmp.h</text>
</a>
</g>
</g>
<!-- Node19&#45;&gt;Node20 -->
<g id="edge35" class="edge">
<title>Node19&#45;&gt;Node20</title>
<path fill="none" stroke="#191970" d="M1006.5,-168.4509C1006.5,-150.184 1006.5,-109.9553 1006.5,-85.6976"/>
<polygon fill="#191970" stroke="#191970" points="1010.0001,-85.5249 1006.5,-75.5249 1003.0001,-85.5249 1010.0001,-85.5249"/>
</g>
<!-- Node20&#45;&gt;Node5 -->
<g id="edge36" class="edge">
<title>Node20&#45;&gt;Node5</title>
<path fill="none" stroke="#191970" d="M988.9071,-56.2455C973.121,-47.4928 949.7361,-34.527 931.7413,-24.5496"/>
<polygon fill="#191970" stroke="#191970" points="933.3341,-21.4308 922.8913,-19.6427 929.9397,-27.5528 933.3341,-21.4308"/>
</g>
<!-- Node21&#45;&gt;Node2 -->
<g id="edge39" class="edge">
<title>Node21&#45;&gt;Node2</title>
<path fill="none" stroke="#191970" d="M801.2628,-169.8935C798.3026,-169.2365 795.3507,-168.5966 792.5,-168 714.0744,-151.5864 621.0236,-135.0437 574.715,-127.0081"/>
<polygon fill="#191970" stroke="#191970" points="575.2234,-123.5442 564.7733,-125.2893 574.0308,-130.4418 575.2234,-123.5442"/>
</g>
<!-- Node21&#45;&gt;Node3 -->
<g id="edge38" class="edge">
<title>Node21&#45;&gt;Node3</title>
<path fill="none" stroke="#191970" d="M815.3788,-168.4509C773.5784,-148.6135 677.2027,-102.8758 628.6194,-79.8194"/>
<polygon fill="#191970" stroke="#191970" points="630.1052,-76.6504 619.5703,-75.5249 627.1039,-82.9744 630.1052,-76.6504"/>
</g>
<!-- Node21&#45;&gt;Node18 -->
<g id="edge40" class="edge">
<title>Node21&#45;&gt;Node18</title>
<path fill="none" stroke="#191970" d="M834.4549,-168.2455C833.672,-160.9382 832.5744,-150.6944 831.6112,-141.7046"/>
<polygon fill="#191970" stroke="#191970" points="835.0786,-141.2129 830.5331,-131.6427 828.1185,-141.9587 835.0786,-141.2129"/>
</g>
<!-- Node22&#45;&gt;Node2 -->
<g id="edge43" class="edge">
<title>Node22&#45;&gt;Node2</title>
<path fill="none" stroke="#191970" d="M422.9421,-168.3733C449.1464,-158.4581 489.8953,-143.0396 517.1259,-132.7361"/>
<polygon fill="#191970" stroke="#191970" points="518.3805,-136.0037 526.4947,-129.1912 515.9032,-129.4567 518.3805,-136.0037"/>
</g>
<!-- Node22&#45;&gt;Node3 -->
<g id="edge42" class="edge">
<title>Node22&#45;&gt;Node3</title>
<path fill="none" stroke="#191970" d="M410.5044,-168.298C429.0175,-154.7293 464.3031,-129.7574 496.5,-112 518.7534,-99.7267 544.9118,-88.0765 565.2983,-79.5713"/>
<polygon fill="#191970" stroke="#191970" points="566.8855,-82.703 574.8002,-75.6597 564.2207,-76.23 566.8855,-82.703"/>
</g>
<!-- Node23&#45;&gt;Node2 -->
<g id="edge46" class="edge">
<title>Node23&#45;&gt;Node2</title>
<path fill="none" stroke="#191970" d="M659.777,-168.3733C636.1018,-158.7659 599.6938,-143.9917 574.3575,-133.7103"/>
<polygon fill="#191970" stroke="#191970" points="575.4909,-130.3931 564.9087,-129.876 572.8588,-136.8794 575.4909,-130.3931"/>
</g>
<!-- Node23&#45;&gt;Node3 -->
<g id="edge45" class="edge">
<title>Node23&#45;&gt;Node3</title>
<path fill="none" stroke="#191970" d="M676.3382,-168.4509C662.266,-149.688 630.8161,-107.7548 612.8185,-83.758"/>
<polygon fill="#191970" stroke="#191970" points="615.4437,-81.4249 606.6437,-75.5249 609.8437,-85.6249 615.4437,-81.4249"/>
</g>
<!-- Node24&#45;&gt;Node2 -->
<g id="edge49" class="edge">
<title>Node24&#45;&gt;Node2</title>
<path fill="none" stroke="#191970" d="M195.7067,-169.738C198.6735,-169.1147 201.6352,-168.5251 204.5,-168 319.0035,-147.0109 456.7754,-131.3216 516.0422,-125.0256"/>
<polygon fill="#191970" stroke="#191970" points="516.5928,-128.4871 526.1718,-123.9602 515.8605,-121.5255 516.5928,-128.4871"/>
</g>
<!-- Node24&#45;&gt;Node3 -->
<g id="edge48" class="edge">
<title>Node24&#45;&gt;Node3</title>
<path fill="none" stroke="#191970" d="M175.0157,-168.326C196.3237,-153.5944 239.5276,-125.7964 280.5,-112 378.8003,-78.8999 502.001,-69.6166 562.5,-67.0137"/>
<polygon fill="#191970" stroke="#191970" points="562.8453,-70.5029 572.7003,-66.6134 562.5707,-63.5083 562.8453,-70.5029"/>
</g>
</g>
</svg>
        <g id="navigator" transform="translate(0 0)" fill="#404254">
                <rect fill="#f2f5e9" fill-opacity="0.5" stroke="#606060" stroke-width=".5" x="0" y="0" width="60" height="60"/>
                <use id="zoomplus" xlink:href="#zoomPlus" x="17" y="9" onmousedown="handleZoom(evt,'in')"/>
                <use id="zoomminus" xlink:href="#zoomMin" x="42" y="9" onmousedown="handleZoom(evt,'out')"/>
                <use id="reset" xlink:href="#resetDef" x="30" y="36" onmousedown="handleReset()"/>
                <g id="arrowUp" xlink:href="#dirArrow" transform="translate(30 24)" onmousedown="handlePan(0,-1)">
                  <use xlink:href="#rim" fill="#404040">
                        <set attributeName="fill" to="#808080" begin="arrowUp.mouseover" end="arrowUp.mouseout"/>
                  </use>
                  <path fill="none" stroke="white" stroke-width="1.5" d="M0,-3.0v7 M-2.5,-0.5L0,-3.0L2.5,-0.5"/>
                </g>
                <g id="arrowRight" xlink:href="#dirArrow" transform="rotate(90) translate(36 -43)" onmousedown="handlePan(1,0)">
                  <use xlink:href="#rim" fill="#404040">
                        <set attributeName="fill" to="#808080" begin="arrowRight.mouseover" end="arrowRight.mouseout"/>
                  </use>
                  <path fill="none" stroke="white" stroke-width="1.5" d="M0,-3.0v7 M-2.5,-0.5L0,-3.0L2.5,-0.5"/>
                </g>
                <g id="arrowDown" xlink:href="#dirArrow" transform="rotate(180) translate(-30 -48)" onmousedown="handlePan(0,1)">
                  <use xlink:href="#rim" fill="#404040">
                        <set attributeName="fill" to="#808080" begin="arrowDown.mouseover" end="arrowDown.mouseout"/>
                  </use>
                  <path fill="none" stroke="white" stroke-width="1.5" d="M0,-3.0v7 M-2.5,-0.5L0,-3.0L2.5,-0.5"/>
                </g>
                <g id="arrowLeft" xlink:href="#dirArrow" transform="rotate(270) translate(-36 17)" onmousedown="handlePan(-1,0)">
                  <use xlink:href="#rim" fill="#404040">
                        <set attributeName="fill" to="#808080" begin="arrowLeft.mouseover" end="arrowLeft.mouseout"/>
                  </use>
                  <path fill="none" stroke="white" stroke-width="1.5" d="M0,-3.0v7 M-2.5,-0.5L0,-3.0L2.5,-0.5"/>
                </g>
        </g>
        <svg viewBox="0 0 15 15" width="100%" height="30px" preserveAspectRatio="xMaxYMin meet">
         <g id="arrow_out" transform="scale(0.3 0.3)">
          <a xlink:href="iLink_2IEEE1394__bd_2src_2irx__imports_8h__incl_org.svg" target="_base">
           <rect id="button" ry="5" rx="5" y="6" x="6" height="38" width="38"
                fill="#f2f5e9" fill-opacity="0.5" stroke="#606060" stroke-width="1.0"/>
           <path id="arrow"
             d="M 11.500037,31.436501 C 11.940474,20.09759 22.043105,11.32322 32.158766,21.979434 L 37.068811,17.246167 C 37.068811,17.246167 37.088388,32 37.088388,32 L 22.160133,31.978069 C 22.160133,31.978069 26.997745,27.140456 26.997745,27.140456 C 18.528582,18.264221 13.291696,25.230495 11.500037,31.436501 z"
             style="fill:#404040;"/>
          </a>
         </g>
        </svg>
</svg>
