<?xml version="1.0" encoding="UTF-8" standalone="no"?>
<!DOCTYPE svg PUBLIC "-//W3C//DTD SVG 1.1//EN"
 "http://www.w3.org/Graphics/SVG/1.1/DTD/svg11.dtd">
<!-- Generated by graphviz version 2.40.1 (20161225.0304)
 -->
<!-- Title: iop/iLink/iLinkman/src/iLink_intr.c Pages: 1 -->
<svg width="518pt" height="263pt"
 viewBox="0.00 0.00 518.00 263.00" xmlns="http://www.w3.org/2000/svg" xmlns:xlink="http://www.w3.org/1999/xlink">
<g id="graph0" class="graph" transform="scale(1 1) rotate(0) translate(4 259)">
<title>iop/iLink/iLinkman/src/iLink_intr.c</title>
<polygon fill="#ffffff" stroke="transparent" points="-4,4 -4,-259 514,-259 514,4 -4,4"/>
<!-- Node1 -->
<g id="node1" class="node">
<title>Node1</title>
<g id="a_node1"><a xlink:title=" ">
<polygon fill="#bfbfbf" stroke="#000000" points="176,-224.5 176,-254.5 282,-254.5 282,-224.5 176,-224.5"/>
<text text-anchor="start" x="184" y="-242.5" font-family="Helvetica,sans-Serif" font-size="10.00" fill="#000000">iop/iLink/iLinkman</text>
<text text-anchor="middle" x="229" y="-231.5" font-family="Helvetica,sans-Serif" font-size="10.00" fill="#000000">/src/iLink_intr.c</text>
</a>
</g>
</g>
<!-- Node2 -->
<g id="node2" class="node">
<title>Node2</title>
<g id="a_node2"><a xlink:href="dmacman_8h.html" target="_top" xlink:title=" ">
<polygon fill="#ffffff" stroke="#000000" points="236,-168.5 236,-187.5 310,-187.5 310,-168.5 236,-168.5"/>
<text text-anchor="middle" x="273" y="-175.5" font-family="Helvetica,sans-Serif" font-size="10.00" fill="#000000">dmacman.h</text>
</a>
</g>
</g>
<!-- Node1&#45;&gt;Node2 -->
<g id="edge1" class="edge">
<title>Node1&#45;&gt;Node2</title>
<path fill="none" stroke="#191970" d="M239.8764,-224.2977C245.9841,-215.7609 253.6439,-205.0545 260.0588,-196.0883"/>
<polygon fill="#191970" stroke="#191970" points="262.9829,-198.0163 265.955,-187.8469 257.2899,-193.9433 262.9829,-198.0163"/>
</g>
<!-- Node7 -->
<g id="node7" class="node">
<title>Node7</title>
<g id="a_node7"><a xlink:href="sysmem_8h.html" target="_top" xlink:title=" ">
<polygon fill="#ffffff" stroke="#000000" points="0,-168.5 0,-187.5 68,-187.5 68,-168.5 0,-168.5"/>
<text text-anchor="middle" x="34" y="-175.5" font-family="Helvetica,sans-Serif" font-size="10.00" fill="#000000">sysmem.h</text>
</a>
</g>
</g>
<!-- Node1&#45;&gt;Node7 -->
<g id="edge7" class="edge">
<title>Node1&#45;&gt;Node7</title>
<path fill="none" stroke="#191970" d="M181.2976,-224.4554C148.3333,-214.059 104.9877,-200.3884 73.8648,-190.5727"/>
<polygon fill="#191970" stroke="#191970" points="74.8078,-187.2003 64.2181,-187.5303 72.7023,-193.8761 74.8078,-187.2003"/>
</g>
<!-- Node9 -->
<g id="node9" class="node">
<title>Node9</title>
<g id="a_node9"><a xlink:href="stdio_8h.html" target="_top" xlink:title=" ">
<polygon fill="#ffffff" stroke="#000000" points="86,-168.5 86,-187.5 136,-187.5 136,-168.5 86,-168.5"/>
<text text-anchor="middle" x="111" y="-175.5" font-family="Helvetica,sans-Serif" font-size="10.00" fill="#000000">stdio.h</text>
</a>
</g>
</g>
<!-- Node1&#45;&gt;Node9 -->
<g id="edge11" class="edge">
<title>Node1&#45;&gt;Node9</title>
<path fill="none" stroke="#191970" d="M200.134,-224.4554C181.3089,-214.644 156.889,-201.9167 138.3708,-192.2653"/>
<polygon fill="#191970" stroke="#191970" points="139.7713,-189.0484 129.2858,-187.5303 136.536,-195.2559 139.7713,-189.0484"/>
</g>
<!-- Node10 -->
<g id="node10" class="node">
<title>Node10</title>
<g id="a_node10"><a xlink:href="thevent_8h.html" target="_top" xlink:title=" ">
<polygon fill="#ffffff" stroke="#000000" points="154.5,-168.5 154.5,-187.5 217.5,-187.5 217.5,-168.5 154.5,-168.5"/>
<text text-anchor="middle" x="186" y="-175.5" font-family="Helvetica,sans-Serif" font-size="10.00" fill="#000000">thevent.h</text>
</a>
</g>
</g>
<!-- Node1&#45;&gt;Node10 -->
<g id="edge14" class="edge">
<title>Node1&#45;&gt;Node10</title>
<path fill="none" stroke="#191970" d="M218.3708,-224.2977C212.4019,-215.7609 204.9162,-205.0545 198.6471,-196.0883"/>
<polygon fill="#191970" stroke="#191970" points="201.4835,-194.0368 192.8848,-187.8469 195.7466,-198.048 201.4835,-194.0368"/>
</g>
<!-- Node11 -->
<g id="node11" class="node">
<title>Node11</title>
<g id="a_node11"><a xlink:href="iLinkman_8h.html" target="_top" xlink:title=" ">
<polygon fill="#ffffff" stroke="#000000" points="328.5,-168.5 328.5,-187.5 399.5,-187.5 399.5,-168.5 328.5,-168.5"/>
<text text-anchor="middle" x="364" y="-175.5" font-family="Helvetica,sans-Serif" font-size="10.00" fill="#000000">iLinkman.h</text>
</a>
</g>
</g>
<!-- Node1&#45;&gt;Node11 -->
<g id="edge17" class="edge">
<title>Node1&#45;&gt;Node11</title>
<path fill="none" stroke="#191970" d="M262.0247,-224.4554C283.957,-214.464 312.5273,-201.4487 333.8453,-191.7372"/>
<polygon fill="#191970" stroke="#191970" points="335.4306,-194.8611 343.0798,-187.5303 332.5286,-188.4909 335.4306,-194.8611"/>
</g>
<!-- Node13 -->
<g id="node13" class="node">
<title>Node13</title>
<g id="a_node13"><a xlink:href="iLink__internal_8h.html" target="_top" xlink:title=" ">
<polygon fill="#ffffff" stroke="#000000" points="418,-168.5 418,-187.5 510,-187.5 510,-168.5 418,-168.5"/>
<text text-anchor="middle" x="464" y="-175.5" font-family="Helvetica,sans-Serif" font-size="10.00" fill="#000000">iLink_internal.h</text>
</a>
</g>
</g>
<!-- Node1&#45;&gt;Node13 -->
<g id="edge20" class="edge">
<title>Node1&#45;&gt;Node13</title>
<path fill="none" stroke="#191970" d="M282.0316,-225.6215C322.7915,-214.9546 378.542,-200.3645 417.5559,-190.1545"/>
<polygon fill="#191970" stroke="#191970" points="418.8033,-193.446 427.5914,-187.5282 417.031,-186.6741 418.8033,-193.446"/>
</g>
<!-- Node3 -->
<g id="node3" class="node">
<title>Node3</title>
<g id="a_node3"><a xlink:href="types_8h.html" target="_top" xlink:title=" ">
<polygon fill="#ffffff" stroke="#000000" points="172.5,-56.5 172.5,-75.5 225.5,-75.5 225.5,-56.5 172.5,-56.5"/>
<text text-anchor="middle" x="199" y="-63.5" font-family="Helvetica,sans-Serif" font-size="10.00" fill="#000000">types.h</text>
</a>
</g>
</g>
<!-- Node2&#45;&gt;Node3 -->
<g id="edge2" class="edge">
<title>Node2&#45;&gt;Node3</title>
<path fill="none" stroke="#191970" d="M266.6908,-168.4509C254.3485,-149.7707 226.8318,-108.1238 210.9432,-84.0761"/>
<polygon fill="#191970" stroke="#191970" points="213.726,-81.9388 205.2932,-75.5249 207.8857,-85.7977 213.726,-81.9388"/>
</g>
<!-- Node6 -->
<g id="node6" class="node">
<title>Node6</title>
<g id="a_node6"><a xlink:href="irx_8h.html" target="_top" xlink:title=" ">
<polygon fill="#ffffff" stroke="#000000" points="157,-112.5 157,-131.5 195,-131.5 195,-112.5 157,-112.5"/>
<text text-anchor="middle" x="176" y="-119.5" font-family="Helvetica,sans-Serif" font-size="10.00" fill="#000000">irx.h</text>
</a>
</g>
</g>
<!-- Node2&#45;&gt;Node6 -->
<g id="edge5" class="edge">
<title>Node2&#45;&gt;Node6</title>
<path fill="none" stroke="#191970" d="M256.1039,-168.2455C241.082,-159.5731 218.8957,-146.7645 201.679,-136.825"/>
<polygon fill="#191970" stroke="#191970" points="203.1128,-133.6114 192.7025,-131.6427 199.6129,-139.6737 203.1128,-133.6114"/>
</g>
<!-- Node4 -->
<g id="node4" class="node">
<title>Node4</title>
<g id="a_node4"><a xlink:title=" ">
<polygon fill="#ffffff" stroke="#bfbfbf" points="130,-.5 130,-19.5 186,-19.5 186,-.5 130,-.5"/>
<text text-anchor="middle" x="158" y="-7.5" font-family="Helvetica,sans-Serif" font-size="10.00" fill="#000000">stddef.h</text>
</a>
</g>
</g>
<!-- Node3&#45;&gt;Node4 -->
<g id="edge3" class="edge">
<title>Node3&#45;&gt;Node4</title>
<path fill="none" stroke="#191970" d="M191.8583,-56.2455C186.1556,-48.4564 178.01,-37.3308 171.1375,-27.9439"/>
<polygon fill="#191970" stroke="#191970" points="173.7913,-25.6437 165.0598,-19.6427 168.1432,-29.7789 173.7913,-25.6437"/>
</g>
<!-- Node5 -->
<g id="node5" class="node">
<title>Node5</title>
<g id="a_node5"><a xlink:href="tamtypes_8h.html" target="_top" xlink:title=" ">
<polygon fill="#ffffff" stroke="#000000" points="204,-.5 204,-19.5 276,-19.5 276,-.5 204,-.5"/>
<text text-anchor="middle" x="240" y="-7.5" font-family="Helvetica,sans-Serif" font-size="10.00" fill="#000000">tamtypes.h</text>
</a>
</g>
</g>
<!-- Node3&#45;&gt;Node5 -->
<g id="edge4" class="edge">
<title>Node3&#45;&gt;Node5</title>
<path fill="none" stroke="#191970" d="M206.1417,-56.2455C211.8444,-48.4564 219.99,-37.3308 226.8625,-27.9439"/>
<polygon fill="#191970" stroke="#191970" points="229.8568,-29.7789 232.9402,-19.6427 224.2087,-25.6437 229.8568,-29.7789"/>
</g>
<!-- Node6&#45;&gt;Node3 -->
<g id="edge6" class="edge">
<title>Node6&#45;&gt;Node3</title>
<path fill="none" stroke="#191970" d="M180.0063,-112.2455C183.0735,-104.7776 187.4003,-94.2427 191.1497,-85.1137"/>
<polygon fill="#191970" stroke="#191970" points="194.4779,-86.2226 195.0396,-75.6427 188.0028,-83.5631 194.4779,-86.2226"/>
</g>
<!-- Node7&#45;&gt;Node3 -->
<g id="edge8" class="edge">
<title>Node7&#45;&gt;Node3</title>
<path fill="none" stroke="#191970" d="M35.9236,-168.0258C39.2011,-153.6628 47.2128,-127.2142 64,-112 91.3258,-87.2346 132.5511,-75.7156 162.2532,-70.4124"/>
<polygon fill="#191970" stroke="#191970" points="162.9306,-73.8483 172.2369,-68.7843 161.8039,-66.9395 162.9306,-73.8483"/>
</g>
<!-- Node7&#45;&gt;Node6 -->
<g id="edge9" class="edge">
<title>Node7&#45;&gt;Node6</title>
<path fill="none" stroke="#191970" d="M58.4107,-168.3733C83.1611,-158.6125 121.4353,-143.5185 147.5463,-133.2212"/>
<polygon fill="#191970" stroke="#191970" points="148.8859,-136.4553 156.9046,-129.5306 146.3178,-129.9434 148.8859,-136.4553"/>
</g>
<!-- Node8 -->
<g id="node8" class="node">
<title>Node8</title>
<g id="a_node8"><a xlink:title=" ">
<polygon fill="#ffffff" stroke="#bfbfbf" points="73,-112.5 73,-131.5 129,-131.5 129,-112.5 73,-112.5"/>
<text text-anchor="middle" x="101" y="-119.5" font-family="Helvetica,sans-Serif" font-size="10.00" fill="#000000">stdarg.h</text>
</a>
</g>
</g>
<!-- Node7&#45;&gt;Node8 -->
<g id="edge10" class="edge">
<title>Node7&#45;&gt;Node8</title>
<path fill="none" stroke="#191970" d="M45.6705,-168.2455C55.5661,-159.9746 69.9627,-147.9416 81.5901,-138.2232"/>
<polygon fill="#191970" stroke="#191970" points="84.035,-140.7413 89.4632,-131.6427 79.5458,-135.3703 84.035,-140.7413"/>
</g>
<!-- Node9&#45;&gt;Node6 -->
<g id="edge13" class="edge">
<title>Node9&#45;&gt;Node6</title>
<path fill="none" stroke="#191970" d="M122.3221,-168.2455C131.9223,-159.9746 145.8892,-147.9416 157.1695,-138.2232"/>
<polygon fill="#191970" stroke="#191970" points="159.516,-140.8214 164.8076,-131.6427 154.947,-135.5182 159.516,-140.8214"/>
</g>
<!-- Node9&#45;&gt;Node8 -->
<g id="edge12" class="edge">
<title>Node9&#45;&gt;Node8</title>
<path fill="none" stroke="#191970" d="M109.2581,-168.2455C107.9533,-160.9382 106.124,-150.6944 104.5187,-141.7046"/>
<polygon fill="#191970" stroke="#191970" points="107.9254,-140.8717 102.7219,-131.6427 101.0344,-142.1022 107.9254,-140.8717"/>
</g>
<!-- Node10&#45;&gt;Node3 -->
<g id="edge15" class="edge">
<title>Node10&#45;&gt;Node3</title>
<path fill="none" stroke="#191970" d="M190.9585,-168.4444C195.378,-159.352 201.5195,-145.1462 204,-132 206.8963,-116.6501 205.3069,-98.9921 203.1789,-85.8054"/>
<polygon fill="#191970" stroke="#191970" points="206.6126,-85.1254 201.3515,-75.9291 199.7294,-86.399 206.6126,-85.1254"/>
</g>
<!-- Node10&#45;&gt;Node6 -->
<g id="edge16" class="edge">
<title>Node10&#45;&gt;Node6</title>
<path fill="none" stroke="#191970" d="M184.2581,-168.2455C182.9533,-160.9382 181.124,-150.6944 179.5187,-141.7046"/>
<polygon fill="#191970" stroke="#191970" points="182.9254,-140.8717 177.7219,-131.6427 176.0344,-142.1022 182.9254,-140.8717"/>
</g>
<!-- Node11&#45;&gt;Node6 -->
<g id="edge19" class="edge">
<title>Node11&#45;&gt;Node6</title>
<path fill="none" stroke="#191970" d="M331.6816,-168.3733C296.0034,-157.7457 239.0993,-140.7955 204.8659,-130.5983"/>
<polygon fill="#191970" stroke="#191970" points="205.6012,-127.1655 195.0181,-127.665 203.6028,-133.8742 205.6012,-127.1655"/>
</g>
<!-- Node12 -->
<g id="node12" class="node">
<title>Node12</title>
<g id="a_node12"><a xlink:title=" ">
<polygon fill="#ffffff" stroke="#bfbfbf" points="337.5,-112.5 337.5,-131.5 390.5,-131.5 390.5,-112.5 337.5,-112.5"/>
<text text-anchor="middle" x="364" y="-119.5" font-family="Helvetica,sans-Serif" font-size="10.00" fill="#000000">types.h</text>
</a>
</g>
</g>
<!-- Node11&#45;&gt;Node12 -->
<g id="edge18" class="edge">
<title>Node11&#45;&gt;Node12</title>
<path fill="none" stroke="#191970" d="M364,-168.2455C364,-160.9382 364,-150.6944 364,-141.7046"/>
<polygon fill="#191970" stroke="#191970" points="367.5001,-141.6426 364,-131.6427 360.5001,-141.6427 367.5001,-141.6426"/>
</g>
</g>
</svg>
