<?xml version="1.0" encoding="UTF-8" standalone="no"?>
<!DOCTYPE svg PUBLIC "-//W3C//DTD SVG 1.1//EN"
 "http://www.w3.org/Graphics/SVG/1.1/DTD/svg11.dtd">
<!-- Generated by graphviz version 2.40.1 (20161225.0304)
 -->
<!-- Title: iop/usb/usbd/src/interface.c Pages: 1 -->
<svg width="405pt" height="364pt"
 viewBox="0.00 0.00 405.00 364.00" xmlns="http://www.w3.org/2000/svg" xmlns:xlink="http://www.w3.org/1999/xlink">
<g id="graph0" class="graph" transform="scale(1 1) rotate(0) translate(4 360)">
<title>iop/usb/usbd/src/interface.c</title>
<polygon fill="#ffffff" stroke="transparent" points="-4,4 -4,-360 401,-360 401,4 -4,4"/>
<!-- Node1 -->
<g id="node1" class="node">
<title>Node1</title>
<g id="a_node1"><a xlink:title=" ">
<polygon fill="#bfbfbf" stroke="#000000" points="95,-336.5 95,-355.5 245,-355.5 245,-336.5 95,-336.5"/>
<text text-anchor="middle" x="170" y="-343.5" font-family="Helvetica,sans-Serif" font-size="10.00" fill="#000000">iop/usb/usbd/src/interface.c</text>
</a>
</g>
</g>
<!-- Node2 -->
<g id="node2" class="node">
<title>Node2</title>
<g id="a_node2"><a xlink:href="defs_8h.html" target="_top" xlink:title=" ">
<polygon fill="#ffffff" stroke="#000000" points=".5,-224.5 .5,-243.5 47.5,-243.5 47.5,-224.5 .5,-224.5"/>
<text text-anchor="middle" x="24" y="-231.5" font-family="Helvetica,sans-Serif" font-size="10.00" fill="#000000">defs.h</text>
</a>
</g>
</g>
<!-- Node1&#45;&gt;Node2 -->
<g id="edge1" class="edge">
<title>Node1&#45;&gt;Node2</title>
<path fill="none" stroke="#191970" d="M133.1115,-336.4872C110.8607,-329.3097 83.0389,-317.6306 63,-300 48.5267,-287.2661 37.9464,-267.8135 31.4871,-253.3215"/>
<polygon fill="#191970" stroke="#191970" points="34.5992,-251.6912 27.5153,-243.8128 28.14,-254.3892 34.5992,-251.6912"/>
</g>
<!-- Node6 -->
<g id="node6" class="node">
<title>Node6</title>
<g id="a_node6"><a xlink:href="thbase_8h.html" target="_top" xlink:title=" ">
<polygon fill="#ffffff" stroke="#000000" points="49.5,-168.5 49.5,-187.5 108.5,-187.5 108.5,-168.5 49.5,-168.5"/>
<text text-anchor="middle" x="79" y="-175.5" font-family="Helvetica,sans-Serif" font-size="10.00" fill="#000000">thbase.h</text>
</a>
</g>
</g>
<!-- Node1&#45;&gt;Node6 -->
<g id="edge5" class="edge">
<title>Node1&#45;&gt;Node6</title>
<path fill="none" stroke="#191970" d="M159.1666,-336.2842C149.9116,-327.5256 136.7446,-313.9185 128,-300 106.951,-266.4968 91.9408,-222.4271 84.4426,-197.4627"/>
<polygon fill="#191970" stroke="#191970" points="87.7657,-196.3557 81.612,-187.7312 81.0443,-198.3108 87.7657,-196.3557"/>
</g>
<!-- Node8 -->
<g id="node8" class="node">
<title>Node8</title>
<g id="a_node8"><a xlink:href="usbdpriv_8h.html" target="_top" xlink:title=" ">
<polygon fill="#ffffff" stroke="#000000" points="153.5,-224.5 153.5,-243.5 220.5,-243.5 220.5,-224.5 153.5,-224.5"/>
<text text-anchor="middle" x="187" y="-231.5" font-family="Helvetica,sans-Serif" font-size="10.00" fill="#000000">usbdpriv.h</text>
</a>
</g>
</g>
<!-- Node1&#45;&gt;Node8 -->
<g id="edge9" class="edge">
<title>Node1&#45;&gt;Node8</title>
<path fill="none" stroke="#191970" d="M158.6743,-336.3565C145.2308,-323.6718 125.7305,-300.5759 135,-280 140.5697,-267.6369 151.2863,-257.2563 161.5506,-249.5033"/>
<polygon fill="#191970" stroke="#191970" points="163.7618,-252.2277 169.9433,-243.623 159.7451,-246.4948 163.7618,-252.2277"/>
</g>
<!-- Node11 -->
<g id="node11" class="node">
<title>Node11</title>
<g id="a_node11"><a xlink:href="driver_8h.html" target="_top" xlink:title=" ">
<polygon fill="#ffffff" stroke="#000000" points="143.5,-280.5 143.5,-299.5 196.5,-299.5 196.5,-280.5 143.5,-280.5"/>
<text text-anchor="middle" x="170" y="-287.5" font-family="Helvetica,sans-Serif" font-size="10.00" fill="#000000">driver.h</text>
</a>
</g>
</g>
<!-- Node1&#45;&gt;Node11 -->
<g id="edge14" class="edge">
<title>Node1&#45;&gt;Node11</title>
<path fill="none" stroke="#191970" d="M170,-336.2455C170,-328.9382 170,-318.6944 170,-309.7046"/>
<polygon fill="#191970" stroke="#191970" points="173.5001,-309.6426 170,-299.6427 166.5001,-309.6427 173.5001,-309.6426"/>
</g>
<!-- Node12 -->
<g id="node12" class="node">
<title>Node12</title>
<g id="a_node12"><a xlink:href="mem_8h.html" target="_top" xlink:title=" ">
<polygon fill="#ffffff" stroke="#000000" points="214.5,-280.5 214.5,-299.5 265.5,-299.5 265.5,-280.5 214.5,-280.5"/>
<text text-anchor="middle" x="240" y="-287.5" font-family="Helvetica,sans-Serif" font-size="10.00" fill="#000000">mem.h</text>
</a>
</g>
</g>
<!-- Node1&#45;&gt;Node12 -->
<g id="edge16" class="edge">
<title>Node1&#45;&gt;Node12</title>
<path fill="none" stroke="#191970" d="M182.1931,-336.2455C192.6321,-327.8943 207.8655,-315.7076 220.074,-305.9408"/>
<polygon fill="#191970" stroke="#191970" points="222.3244,-308.6227 227.9467,-299.6427 217.9515,-303.1566 222.3244,-308.6227"/>
</g>
<!-- Node13 -->
<g id="node13" class="node">
<title>Node13</title>
<g id="a_node13"><a xlink:href="hcd_8h.html" target="_top" xlink:title=" ">
<polygon fill="#ffffff" stroke="#000000" points="283.5,-280.5 283.5,-299.5 326.5,-299.5 326.5,-280.5 283.5,-280.5"/>
<text text-anchor="middle" x="305" y="-287.5" font-family="Helvetica,sans-Serif" font-size="10.00" fill="#000000">hcd.h</text>
</a>
</g>
</g>
<!-- Node1&#45;&gt;Node13 -->
<g id="edge18" class="edge">
<title>Node1&#45;&gt;Node13</title>
<path fill="none" stroke="#191970" d="M193.2073,-336.3733C215.5692,-327.0972 249.5428,-313.0045 274.1682,-302.7895"/>
<polygon fill="#191970" stroke="#191970" points="275.5358,-306.0114 283.4315,-298.9469 272.8536,-299.5457 275.5358,-306.0114"/>
</g>
<!-- Node14 -->
<g id="node14" class="node">
<title>Node14</title>
<g id="a_node14"><a xlink:href="usbio_8h.html" target="_top" xlink:title=" ">
<polygon fill="#ffffff" stroke="#000000" points="345,-280.5 345,-299.5 397,-299.5 397,-280.5 345,-280.5"/>
<text text-anchor="middle" x="371" y="-287.5" font-family="Helvetica,sans-Serif" font-size="10.00" fill="#000000">usbio.h</text>
</a>
</g>
</g>
<!-- Node1&#45;&gt;Node14 -->
<g id="edge20" class="edge">
<title>Node1&#45;&gt;Node14</title>
<path fill="none" stroke="#191970" d="M204.6776,-336.4771C236.2419,-327.7899 284.3854,-314.4922 334.8507,-300.3099"/>
<polygon fill="#191970" stroke="#191970" points="335.9547,-303.6352 344.6331,-297.5577 334.0589,-296.8968 335.9547,-303.6352"/>
</g>
<!-- Node3 -->
<g id="node3" class="node">
<title>Node3</title>
<g id="a_node3"><a xlink:href="types_8h.html" target="_top" xlink:title=" ">
<polygon fill="#ffffff" stroke="#000000" points="42.5,-56.5 42.5,-75.5 95.5,-75.5 95.5,-56.5 42.5,-56.5"/>
<text text-anchor="middle" x="69" y="-63.5" font-family="Helvetica,sans-Serif" font-size="10.00" fill="#000000">types.h</text>
</a>
</g>
</g>
<!-- Node2&#45;&gt;Node3 -->
<g id="edge2" class="edge">
<title>Node2&#45;&gt;Node3</title>
<path fill="none" stroke="#191970" d="M26.2656,-224.1297C29.2625,-211.1997 34.7772,-187.839 40,-168 47.6281,-139.0248 57.278,-105.6659 63.2961,-85.2081"/>
<polygon fill="#191970" stroke="#191970" points="66.6791,-86.1101 66.1561,-75.5282 59.9659,-84.1266 66.6791,-86.1101"/>
</g>
<!-- Node4 -->
<g id="node4" class="node">
<title>Node4</title>
<g id="a_node4"><a xlink:title=" ">
<polygon fill="#ffffff" stroke="#bfbfbf" points="0,-.5 0,-19.5 56,-19.5 56,-.5 0,-.5"/>
<text text-anchor="middle" x="28" y="-7.5" font-family="Helvetica,sans-Serif" font-size="10.00" fill="#000000">stddef.h</text>
</a>
</g>
</g>
<!-- Node3&#45;&gt;Node4 -->
<g id="edge3" class="edge">
<title>Node3&#45;&gt;Node4</title>
<path fill="none" stroke="#191970" d="M61.8583,-56.2455C56.1556,-48.4564 48.01,-37.3308 41.1375,-27.9439"/>
<polygon fill="#191970" stroke="#191970" points="43.7913,-25.6437 35.0598,-19.6427 38.1432,-29.7789 43.7913,-25.6437"/>
</g>
<!-- Node5 -->
<g id="node5" class="node">
<title>Node5</title>
<g id="a_node5"><a xlink:href="tamtypes_8h.html" target="_top" xlink:title=" ">
<polygon fill="#ffffff" stroke="#000000" points="74,-.5 74,-19.5 146,-19.5 146,-.5 74,-.5"/>
<text text-anchor="middle" x="110" y="-7.5" font-family="Helvetica,sans-Serif" font-size="10.00" fill="#000000">tamtypes.h</text>
</a>
</g>
</g>
<!-- Node3&#45;&gt;Node5 -->
<g id="edge4" class="edge">
<title>Node3&#45;&gt;Node5</title>
<path fill="none" stroke="#191970" d="M76.1417,-56.2455C81.8444,-48.4564 89.99,-37.3308 96.8625,-27.9439"/>
<polygon fill="#191970" stroke="#191970" points="99.8568,-29.7789 102.9402,-19.6427 94.2087,-25.6437 99.8568,-29.7789"/>
</g>
<!-- Node6&#45;&gt;Node3 -->
<g id="edge6" class="edge">
<title>Node6&#45;&gt;Node3</title>
<path fill="none" stroke="#191970" d="M78.1474,-168.4509C76.5164,-150.184 72.9246,-109.9553 70.7587,-85.6976"/>
<polygon fill="#191970" stroke="#191970" points="74.226,-85.174 69.8504,-75.5249 67.2537,-85.7966 74.226,-85.174"/>
</g>
<!-- Node7 -->
<g id="node7" class="node">
<title>Node7</title>
<g id="a_node7"><a xlink:href="irx_8h.html" target="_top" xlink:title=" ">
<polygon fill="#ffffff" stroke="#000000" points="97,-112.5 97,-131.5 135,-131.5 135,-112.5 97,-112.5"/>
<text text-anchor="middle" x="116" y="-119.5" font-family="Helvetica,sans-Serif" font-size="10.00" fill="#000000">irx.h</text>
</a>
</g>
</g>
<!-- Node6&#45;&gt;Node7 -->
<g id="edge7" class="edge">
<title>Node6&#45;&gt;Node7</title>
<path fill="none" stroke="#191970" d="M85.4449,-168.2455C90.5382,-160.5367 97.7908,-149.5598 103.952,-140.2348"/>
<polygon fill="#191970" stroke="#191970" points="107.0365,-141.9155 109.6289,-131.6427 101.1962,-138.0566 107.0365,-141.9155"/>
</g>
<!-- Node7&#45;&gt;Node3 -->
<g id="edge8" class="edge">
<title>Node7&#45;&gt;Node3</title>
<path fill="none" stroke="#191970" d="M107.8132,-112.2455C101.1411,-104.2958 91.5521,-92.8706 83.5747,-83.3656"/>
<polygon fill="#191970" stroke="#191970" points="86.2026,-81.0524 77.093,-75.6427 80.8408,-85.5525 86.2026,-81.0524"/>
</g>
<!-- Node9 -->
<g id="node9" class="node">
<title>Node9</title>
<g id="a_node9"><a xlink:href="usbd_8h.html" target="_top" xlink:title=" ">
<polygon fill="#ffffff" stroke="#000000" points="126.5,-168.5 126.5,-187.5 175.5,-187.5 175.5,-168.5 126.5,-168.5"/>
<text text-anchor="middle" x="151" y="-175.5" font-family="Helvetica,sans-Serif" font-size="10.00" fill="#000000">usbd.h</text>
</a>
</g>
</g>
<!-- Node8&#45;&gt;Node9 -->
<g id="edge10" class="edge">
<title>Node8&#45;&gt;Node9</title>
<path fill="none" stroke="#191970" d="M180.7293,-224.2455C175.7736,-216.5367 168.717,-205.5598 162.7224,-196.2348"/>
<polygon fill="#191970" stroke="#191970" points="165.5506,-194.1618 157.1989,-187.6427 159.6624,-197.9471 165.5506,-194.1618"/>
</g>
<!-- Node10 -->
<g id="node10" class="node">
<title>Node10</title>
<g id="a_node10"><a xlink:title=" ">
<polygon fill="#ffffff" stroke="#bfbfbf" points="165.5,-112.5 165.5,-131.5 218.5,-131.5 218.5,-112.5 165.5,-112.5"/>
<text text-anchor="middle" x="192" y="-119.5" font-family="Helvetica,sans-Serif" font-size="10.00" fill="#000000">types.h</text>
</a>
</g>
</g>
<!-- Node8&#45;&gt;Node10 -->
<g id="edge13" class="edge">
<title>Node8&#45;&gt;Node10</title>
<path fill="none" stroke="#191970" d="M187.4263,-224.4509C188.2418,-206.184 190.0377,-165.9553 191.1206,-141.6976"/>
<polygon fill="#191970" stroke="#191970" points="194.6252,-141.6711 191.5748,-131.5249 187.6322,-141.3588 194.6252,-141.6711"/>
</g>
<!-- Node9&#45;&gt;Node7 -->
<g id="edge12" class="edge">
<title>Node9&#45;&gt;Node7</title>
<path fill="none" stroke="#191970" d="M144.9035,-168.2455C140.0855,-160.5367 133.2249,-149.5598 127.3968,-140.2348"/>
<polygon fill="#191970" stroke="#191970" points="130.2947,-138.2677 122.0267,-131.6427 124.3587,-141.9777 130.2947,-138.2677"/>
</g>
<!-- Node9&#45;&gt;Node10 -->
<g id="edge11" class="edge">
<title>Node9&#45;&gt;Node10</title>
<path fill="none" stroke="#191970" d="M158.1417,-168.2455C163.8444,-160.4564 171.99,-149.3308 178.8625,-139.9439"/>
<polygon fill="#191970" stroke="#191970" points="181.8568,-141.7789 184.9402,-131.6427 176.2087,-137.6437 181.8568,-141.7789"/>
</g>
<!-- Node11&#45;&gt;Node8 -->
<g id="edge15" class="edge">
<title>Node11&#45;&gt;Node8</title>
<path fill="none" stroke="#191970" d="M172.9612,-280.2455C175.2038,-272.8579 178.3577,-262.4689 181.1081,-253.4087"/>
<polygon fill="#191970" stroke="#191970" points="184.517,-254.2282 184.0728,-243.6427 177.8188,-252.1948 184.517,-254.2282"/>
</g>
<!-- Node12&#45;&gt;Node8 -->
<g id="edge17" class="edge">
<title>Node12&#45;&gt;Node8</title>
<path fill="none" stroke="#191970" d="M230.7681,-280.2455C223.1683,-272.2155 212.2123,-260.6394 203.1632,-251.0781"/>
<polygon fill="#191970" stroke="#191970" points="205.542,-248.4998 196.1261,-243.6427 200.4579,-253.3115 205.542,-248.4998"/>
</g>
<!-- Node13&#45;&gt;Node8 -->
<g id="edge19" class="edge">
<title>Node13&#45;&gt;Node8</title>
<path fill="none" stroke="#191970" d="M284.7151,-280.3733C265.8579,-271.4241 237.554,-257.9917 216.2545,-247.8835"/>
<polygon fill="#191970" stroke="#191970" points="217.5551,-244.6266 207.0202,-243.5011 214.5539,-250.9506 217.5551,-244.6266"/>
</g>
</g>
</svg>
