<?xml version="1.0" encoding="UTF-8" standalone="no"?>
<!DOCTYPE svg PUBLIC "-//W3C//DTD SVG 1.1//EN"
 "http://www.w3.org/Graphics/SVG/1.1/DTD/svg11.dtd">
<!-- Generated by graphviz version 2.40.1 (20161225.0304)
 -->
<!-- Title: iop/kernel/include/ioman_mod.h Pages: 1 -->
<svg width="368pt" height="207pt"
 viewBox="0.00 0.00 368.00 207.00" xmlns="http://www.w3.org/2000/svg" xmlns:xlink="http://www.w3.org/1999/xlink">
<g id="graph0" class="graph" transform="scale(1 1) rotate(0) translate(4 203)">
<title>iop/kernel/include/ioman_mod.h</title>
<polygon fill="#ffffff" stroke="transparent" points="-4,4 -4,-203 364,-203 364,4 -4,4"/>
<!-- Node1 -->
<g id="node1" class="node">
<title>Node1</title>
<g id="a_node1"><a xlink:title=" ">
<polygon fill="#bfbfbf" stroke="#000000" points="103,-168.5 103,-198.5 207,-198.5 207,-168.5 103,-168.5"/>
<text text-anchor="start" x="111" y="-186.5" font-family="Helvetica,sans-Serif" font-size="10.00" fill="#000000">iop/kernel/include</text>
<text text-anchor="middle" x="155" y="-175.5" font-family="Helvetica,sans-Serif" font-size="10.00" fill="#000000">/ioman_mod.h</text>
</a>
</g>
</g>
<!-- Node2 -->
<g id="node2" class="node">
<title>Node2</title>
<g id="a_node2"><a xlink:href="types_8h.html" target="_top" xlink:title=" ">
<polygon fill="#ffffff" stroke="#000000" points="42.5,-56.5 42.5,-75.5 95.5,-75.5 95.5,-56.5 42.5,-56.5"/>
<text text-anchor="middle" x="69" y="-63.5" font-family="Helvetica,sans-Serif" font-size="10.00" fill="#000000">types.h</text>
</a>
</g>
</g>
<!-- Node1&#45;&gt;Node2 -->
<g id="edge1" class="edge">
<title>Node1&#45;&gt;Node2</title>
<path fill="none" stroke="#191970" d="M127.7632,-168.3194C114.0214,-159.3866 98.1577,-146.9152 88,-132 78.5731,-118.1579 73.7711,-99.6379 71.3566,-85.7396"/>
<polygon fill="#191970" stroke="#191970" points="74.8071,-85.1463 69.8895,-75.7619 67.8816,-86.1647 74.8071,-85.1463"/>
</g>
<!-- Node5 -->
<g id="node5" class="node">
<title>Node5</title>
<g id="a_node5"><a xlink:href="irx_8h.html" target="_top" xlink:title=" ">
<polygon fill="#ffffff" stroke="#000000" points="97,-112.5 97,-131.5 135,-131.5 135,-112.5 97,-112.5"/>
<text text-anchor="middle" x="116" y="-119.5" font-family="Helvetica,sans-Serif" font-size="10.00" fill="#000000">irx.h</text>
</a>
</g>
</g>
<!-- Node1&#45;&gt;Node5 -->
<g id="edge4" class="edge">
<title>Node1&#45;&gt;Node5</title>
<path fill="none" stroke="#191970" d="M145.3595,-168.2977C140.0023,-159.8498 133.2978,-149.2773 127.6487,-140.369"/>
<polygon fill="#191970" stroke="#191970" points="130.5556,-138.4176 122.2444,-131.8469 124.6441,-142.1664 130.5556,-138.4176"/>
</g>
<!-- Node6 -->
<g id="node6" class="node">
<title>Node6</title>
<g id="a_node6"><a xlink:href="io__common_8h.html" target="_top" xlink:title=" ">
<polygon fill="#ffffff" stroke="#000000" points="153.5,-112.5 153.5,-131.5 236.5,-131.5 236.5,-112.5 153.5,-112.5"/>
<text text-anchor="middle" x="195" y="-119.5" font-family="Helvetica,sans-Serif" font-size="10.00" fill="#000000">io_common.h</text>
</a>
</g>
</g>
<!-- Node1&#45;&gt;Node6 -->
<g id="edge6" class="edge">
<title>Node1&#45;&gt;Node6</title>
<path fill="none" stroke="#191970" d="M164.8876,-168.2977C170.3822,-159.8498 177.2586,-149.2773 183.0527,-140.369"/>
<polygon fill="#191970" stroke="#191970" points="186.0772,-142.1381 188.5955,-131.8469 180.2092,-138.3215 186.0772,-142.1381"/>
</g>
<!-- Node9 -->
<g id="node9" class="node">
<title>Node9</title>
<g id="a_node9"><a xlink:href="iox__stat_8h.html" target="_top" xlink:title=" ">
<polygon fill="#ffffff" stroke="#000000" points="273.5,-112.5 273.5,-131.5 338.5,-131.5 338.5,-112.5 273.5,-112.5"/>
<text text-anchor="middle" x="306" y="-119.5" font-family="Helvetica,sans-Serif" font-size="10.00" fill="#000000">iox_stat.h</text>
</a>
</g>
</g>
<!-- Node1&#45;&gt;Node9 -->
<g id="edge9" class="edge">
<title>Node1&#45;&gt;Node9</title>
<path fill="none" stroke="#191970" d="M191.9388,-168.4554C216.802,-158.329 249.2918,-145.0964 273.2336,-135.3453"/>
<polygon fill="#191970" stroke="#191970" points="274.6593,-138.5438 282.6004,-131.5303 272.0188,-132.0609 274.6593,-138.5438"/>
</g>
<!-- Node3 -->
<g id="node3" class="node">
<title>Node3</title>
<g id="a_node3"><a xlink:title=" ">
<polygon fill="#ffffff" stroke="#bfbfbf" points="0,-.5 0,-19.5 56,-19.5 56,-.5 0,-.5"/>
<text text-anchor="middle" x="28" y="-7.5" font-family="Helvetica,sans-Serif" font-size="10.00" fill="#000000">stddef.h</text>
</a>
</g>
</g>
<!-- Node2&#45;&gt;Node3 -->
<g id="edge2" class="edge">
<title>Node2&#45;&gt;Node3</title>
<path fill="none" stroke="#191970" d="M61.8583,-56.2455C56.1556,-48.4564 48.01,-37.3308 41.1375,-27.9439"/>
<polygon fill="#191970" stroke="#191970" points="43.7913,-25.6437 35.0598,-19.6427 38.1432,-29.7789 43.7913,-25.6437"/>
</g>
<!-- Node4 -->
<g id="node4" class="node">
<title>Node4</title>
<g id="a_node4"><a xlink:href="tamtypes_8h.html" target="_top" xlink:title=" ">
<polygon fill="#ffffff" stroke="#000000" points="74,-.5 74,-19.5 146,-19.5 146,-.5 74,-.5"/>
<text text-anchor="middle" x="110" y="-7.5" font-family="Helvetica,sans-Serif" font-size="10.00" fill="#000000">tamtypes.h</text>
</a>
</g>
</g>
<!-- Node2&#45;&gt;Node4 -->
<g id="edge3" class="edge">
<title>Node2&#45;&gt;Node4</title>
<path fill="none" stroke="#191970" d="M76.1417,-56.2455C81.8444,-48.4564 89.99,-37.3308 96.8625,-27.9439"/>
<polygon fill="#191970" stroke="#191970" points="99.8568,-29.7789 102.9402,-19.6427 94.2087,-25.6437 99.8568,-29.7789"/>
</g>
<!-- Node5&#45;&gt;Node2 -->
<g id="edge5" class="edge">
<title>Node5&#45;&gt;Node2</title>
<path fill="none" stroke="#191970" d="M107.8132,-112.2455C101.1411,-104.2958 91.5521,-92.8706 83.5747,-83.3656"/>
<polygon fill="#191970" stroke="#191970" points="86.2026,-81.0524 77.093,-75.6427 80.8408,-85.5525 86.2026,-81.0524"/>
</g>
<!-- Node7 -->
<g id="node7" class="node">
<title>Node7</title>
<g id="a_node7"><a xlink:href="fcntl_8h.html" target="_top" xlink:title=" ">
<polygon fill="#ffffff" stroke="#000000" points="113.5,-56.5 113.5,-75.5 180.5,-75.5 180.5,-56.5 113.5,-56.5"/>
<text text-anchor="middle" x="147" y="-63.5" font-family="Helvetica,sans-Serif" font-size="10.00" fill="#000000">sys/fcntl.h</text>
</a>
</g>
</g>
<!-- Node6&#45;&gt;Node7 -->
<g id="edge7" class="edge">
<title>Node6&#45;&gt;Node7</title>
<path fill="none" stroke="#191970" d="M186.639,-112.2455C179.825,-104.2958 170.0319,-92.8706 161.8848,-83.3656"/>
<polygon fill="#191970" stroke="#191970" points="164.4305,-80.9575 155.2651,-75.6427 159.1157,-85.513 164.4305,-80.9575"/>
</g>
<!-- Node8 -->
<g id="node8" class="node">
<title>Node8</title>
<g id="a_node8"><a xlink:href="unistd_8h.html" target="_top" xlink:title=" ">
<polygon fill="#ffffff" stroke="#000000" points="198.5,-56.5 198.5,-75.5 273.5,-75.5 273.5,-56.5 198.5,-56.5"/>
<text text-anchor="middle" x="236" y="-63.5" font-family="Helvetica,sans-Serif" font-size="10.00" fill="#000000">sys/unistd.h</text>
</a>
</g>
</g>
<!-- Node6&#45;&gt;Node8 -->
<g id="edge8" class="edge">
<title>Node6&#45;&gt;Node8</title>
<path fill="none" stroke="#191970" d="M202.1417,-112.2455C207.8444,-104.4564 215.99,-93.3308 222.8625,-83.9439"/>
<polygon fill="#191970" stroke="#191970" points="225.8568,-85.7789 228.9402,-75.6427 220.2087,-81.6437 225.8568,-85.7789"/>
</g>
<!-- Node10 -->
<g id="node10" class="node">
<title>Node10</title>
<g id="a_node10"><a xlink:href="time_8h.html" target="_top" xlink:title=" ">
<polygon fill="#ffffff" stroke="#000000" points="292,-56.5 292,-75.5 360,-75.5 360,-56.5 292,-56.5"/>
<text text-anchor="middle" x="326" y="-63.5" font-family="Helvetica,sans-Serif" font-size="10.00" fill="#000000">sys/time.h</text>
</a>
</g>
</g>
<!-- Node9&#45;&gt;Node10 -->
<g id="edge10" class="edge">
<title>Node9&#45;&gt;Node10</title>
<path fill="none" stroke="#191970" d="M309.4837,-112.2455C312.1508,-104.7776 315.9133,-94.2427 319.1737,-85.1137"/>
<polygon fill="#191970" stroke="#191970" points="322.4889,-86.2373 322.5562,-75.6427 315.8967,-83.8829 322.4889,-86.2373"/>
</g>
</g>
</svg>
