<?xml version="1.0" encoding="UTF-8" standalone="no"?>
<!DOCTYPE svg PUBLIC "-//W3C//DTD SVG 1.1//EN"
 "http://www.w3.org/Graphics/SVG/1.1/DTD/svg11.dtd">
<!-- Generated by graphviz version 2.40.1 (20161225.0304)
 -->
<!-- Title: iop/system/iomanx/src/ioman_sbv.c Pages: 1 -->
<svg width="524pt" height="263pt"
 viewBox="0.00 0.00 524.00 263.00" xmlns="http://www.w3.org/2000/svg" xmlns:xlink="http://www.w3.org/1999/xlink">
<g id="graph0" class="graph" transform="scale(1 1) rotate(0) translate(4 259)">
<title>iop/system/iomanx/src/ioman_sbv.c</title>
<polygon fill="#ffffff" stroke="transparent" points="-4,4 -4,-259 520,-259 520,4 -4,4"/>
<!-- Node1 -->
<g id="node1" class="node">
<title>Node1</title>
<g id="a_node1"><a xlink:title=" ">
<polygon fill="#bfbfbf" stroke="#000000" points="172,-224.5 172,-254.5 300,-254.5 300,-224.5 172,-224.5"/>
<text text-anchor="start" x="180" y="-242.5" font-family="Helvetica,sans-Serif" font-size="10.00" fill="#000000">iop/system/iomanx/src</text>
<text text-anchor="middle" x="236" y="-231.5" font-family="Helvetica,sans-Serif" font-size="10.00" fill="#000000">/ioman_sbv.c</text>
</a>
</g>
</g>
<!-- Node2 -->
<g id="node2" class="node">
<title>Node2</title>
<g id="a_node2"><a xlink:title=" ">
<polygon fill="#ffffff" stroke="#bfbfbf" points="0,-112.5 0,-131.5 56,-131.5 56,-112.5 0,-112.5"/>
<text text-anchor="middle" x="28" y="-119.5" font-family="Helvetica,sans-Serif" font-size="10.00" fill="#000000">stdarg.h</text>
</a>
</g>
</g>
<!-- Node1&#45;&gt;Node2 -->
<g id="edge1" class="edge">
<title>Node1&#45;&gt;Node2</title>
<path fill="none" stroke="#191970" d="M171.8383,-228.2443C141.0719,-220.5769 104.9304,-208.0538 77,-188 59.6928,-175.5736 45.907,-155.1938 37.4216,-140.3636"/>
<polygon fill="#191970" stroke="#191970" points="40.4833,-138.6674 32.6272,-131.5588 34.3356,-142.015 40.4833,-138.6674"/>
</g>
<!-- Node3 -->
<g id="node3" class="node">
<title>Node3</title>
<g id="a_node3"><a xlink:title=" ">
<polygon fill="#ffffff" stroke="#bfbfbf" points="369.5,-168.5 369.5,-187.5 422.5,-187.5 422.5,-168.5 369.5,-168.5"/>
<text text-anchor="middle" x="396" y="-175.5" font-family="Helvetica,sans-Serif" font-size="10.00" fill="#000000">types.h</text>
</a>
</g>
</g>
<!-- Node1&#45;&gt;Node3 -->
<g id="edge2" class="edge">
<title>Node1&#45;&gt;Node3</title>
<path fill="none" stroke="#191970" d="M275.1404,-224.4554C301.6026,-214.284 336.2181,-200.9787 361.6183,-191.2155"/>
<polygon fill="#191970" stroke="#191970" points="363.1272,-194.3852 371.2057,-187.5303 360.6157,-187.8512 363.1272,-194.3852"/>
</g>
<!-- Node4 -->
<g id="node4" class="node">
<title>Node4</title>
<g id="a_node4"><a xlink:href="defs_8h.html" target="_top" xlink:title=" ">
<polygon fill="#ffffff" stroke="#000000" points="150.5,-112.5 150.5,-131.5 197.5,-131.5 197.5,-112.5 150.5,-112.5"/>
<text text-anchor="middle" x="174" y="-119.5" font-family="Helvetica,sans-Serif" font-size="10.00" fill="#000000">defs.h</text>
</a>
</g>
</g>
<!-- Node1&#45;&gt;Node4 -->
<g id="edge3" class="edge">
<title>Node1&#45;&gt;Node4</title>
<path fill="none" stroke="#191970" d="M220.1634,-224.0734C211.0771,-214.4462 200.0995,-201.3747 193,-188 185.3131,-173.5187 180.4023,-155.5533 177.5031,-142.0243"/>
<polygon fill="#191970" stroke="#191970" points="180.8737,-141.0222 175.5241,-131.8771 174.0032,-142.3622 180.8737,-141.0222"/>
</g>
<!-- Node8 -->
<g id="node8" class="node">
<title>Node8</title>
<g id="a_node8"><a xlink:href="loadcore_8h.html" target="_top" xlink:title=" ">
<polygon fill="#ffffff" stroke="#000000" points="202,-168.5 202,-187.5 270,-187.5 270,-168.5 202,-168.5"/>
<text text-anchor="middle" x="236" y="-175.5" font-family="Helvetica,sans-Serif" font-size="10.00" fill="#000000">loadcore.h</text>
</a>
</g>
</g>
<!-- Node1&#45;&gt;Node8 -->
<g id="edge7" class="edge">
<title>Node1&#45;&gt;Node8</title>
<path fill="none" stroke="#191970" d="M236,-224.2977C236,-216.3834 236,-206.6043 236,-198.0759"/>
<polygon fill="#191970" stroke="#191970" points="239.5001,-197.8469 236,-187.8469 232.5001,-197.847 239.5001,-197.8469"/>
</g>
<!-- Node10 -->
<g id="node10" class="node">
<title>Node10</title>
<g id="a_node10"><a xlink:href="iomanX_8h.html" target="_top" xlink:title=" ">
<polygon fill="#ffffff" stroke="#000000" points="288.5,-168.5 288.5,-187.5 351.5,-187.5 351.5,-168.5 288.5,-168.5"/>
<text text-anchor="middle" x="320" y="-175.5" font-family="Helvetica,sans-Serif" font-size="10.00" fill="#000000">iomanX.h</text>
</a>
</g>
</g>
<!-- Node1&#45;&gt;Node10 -->
<g id="edge11" class="edge">
<title>Node1&#45;&gt;Node10</title>
<path fill="none" stroke="#191970" d="M256.7641,-224.2977C269.3958,-215.0495 285.5053,-203.2551 298.3031,-193.8853"/>
<polygon fill="#191970" stroke="#191970" points="300.5495,-196.5784 306.5505,-187.8469 296.4143,-190.9303 300.5495,-196.5784"/>
</g>
<!-- Node16 -->
<g id="node16" class="node">
<title>Node16</title>
<g id="a_node16"><a xlink:href="sysclib_8h.html" target="_top" xlink:title=" ">
<polygon fill="#ffffff" stroke="#000000" points="86.5,-168.5 86.5,-187.5 145.5,-187.5 145.5,-168.5 86.5,-168.5"/>
<text text-anchor="middle" x="116" y="-175.5" font-family="Helvetica,sans-Serif" font-size="10.00" fill="#000000">sysclib.h</text>
</a>
</g>
</g>
<!-- Node1&#45;&gt;Node16 -->
<g id="edge19" class="edge">
<title>Node1&#45;&gt;Node16</title>
<path fill="none" stroke="#191970" d="M206.6447,-224.4554C187.4127,-214.599 162.4388,-201.7999 143.5759,-192.1327"/>
<polygon fill="#191970" stroke="#191970" points="145.0914,-188.9765 134.5957,-187.5303 141.8987,-195.206 145.0914,-188.9765"/>
</g>
<!-- Node18 -->
<g id="node18" class="node">
<title>Node18</title>
<g id="a_node18"><a xlink:href="errno_8h.html" target="_top" xlink:title=" ">
<polygon fill="#ffffff" stroke="#000000" points="440.5,-168.5 440.5,-187.5 491.5,-187.5 491.5,-168.5 440.5,-168.5"/>
<text text-anchor="middle" x="466" y="-175.5" font-family="Helvetica,sans-Serif" font-size="10.00" fill="#000000">errno.h</text>
</a>
</g>
</g>
<!-- Node1&#45;&gt;Node18 -->
<g id="edge25" class="edge">
<title>Node1&#45;&gt;Node18</title>
<path fill="none" stroke="#191970" d="M295.3021,-224.397C331.8819,-214.9702 379.9936,-202.3743 430.5916,-188.3451"/>
<polygon fill="#191970" stroke="#191970" points="431.7073,-191.6677 440.4031,-185.6152 429.8309,-184.9238 431.7073,-191.6677"/>
</g>
<!-- Node5 -->
<g id="node5" class="node">
<title>Node5</title>
<g id="a_node5"><a xlink:href="types_8h.html" target="_top" xlink:title=" ">
<polygon fill="#ffffff" stroke="#000000" points="169.5,-56.5 169.5,-75.5 222.5,-75.5 222.5,-56.5 169.5,-56.5"/>
<text text-anchor="middle" x="196" y="-63.5" font-family="Helvetica,sans-Serif" font-size="10.00" fill="#000000">types.h</text>
</a>
</g>
</g>
<!-- Node4&#45;&gt;Node5 -->
<g id="edge4" class="edge">
<title>Node4&#45;&gt;Node5</title>
<path fill="none" stroke="#191970" d="M177.8321,-112.2455C180.7659,-104.7776 184.9047,-94.2427 188.491,-85.1137"/>
<polygon fill="#191970" stroke="#191970" points="191.8129,-86.23 192.2118,-75.6427 185.2976,-83.6704 191.8129,-86.23"/>
</g>
<!-- Node6 -->
<g id="node6" class="node">
<title>Node6</title>
<g id="a_node6"><a xlink:title=" ">
<polygon fill="#ffffff" stroke="#bfbfbf" points="168,-.5 168,-19.5 224,-19.5 224,-.5 168,-.5"/>
<text text-anchor="middle" x="196" y="-7.5" font-family="Helvetica,sans-Serif" font-size="10.00" fill="#000000">stddef.h</text>
</a>
</g>
</g>
<!-- Node5&#45;&gt;Node6 -->
<g id="edge5" class="edge">
<title>Node5&#45;&gt;Node6</title>
<path fill="none" stroke="#191970" d="M196,-56.2455C196,-48.9382 196,-38.6944 196,-29.7046"/>
<polygon fill="#191970" stroke="#191970" points="199.5001,-29.6426 196,-19.6427 192.5001,-29.6427 199.5001,-29.6426"/>
</g>
<!-- Node7 -->
<g id="node7" class="node">
<title>Node7</title>
<g id="a_node7"><a xlink:href="tamtypes_8h.html" target="_top" xlink:title=" ">
<polygon fill="#ffffff" stroke="#000000" points="76,-.5 76,-19.5 148,-19.5 148,-.5 76,-.5"/>
<text text-anchor="middle" x="112" y="-7.5" font-family="Helvetica,sans-Serif" font-size="10.00" fill="#000000">tamtypes.h</text>
</a>
</g>
</g>
<!-- Node5&#45;&gt;Node7 -->
<g id="edge6" class="edge">
<title>Node5&#45;&gt;Node7</title>
<path fill="none" stroke="#191970" d="M181.3683,-56.2455C168.6006,-47.7337 149.8562,-35.2375 135.0701,-25.3801"/>
<polygon fill="#191970" stroke="#191970" points="136.726,-22.2775 126.464,-19.6427 132.8431,-28.1019 136.726,-22.2775"/>
</g>
<!-- Node8&#45;&gt;Node5 -->
<g id="edge8" class="edge">
<title>Node8&#45;&gt;Node5</title>
<path fill="none" stroke="#191970" d="M232.5896,-168.4509C226.0067,-150.0186 211.4376,-109.2254 202.8011,-85.043"/>
<polygon fill="#191970" stroke="#191970" points="206.0613,-83.7651 199.4017,-75.5249 199.4691,-86.1195 206.0613,-83.7651"/>
</g>
<!-- Node9 -->
<g id="node9" class="node">
<title>Node9</title>
<g id="a_node9"><a xlink:href="irx_8h.html" target="_top" xlink:title=" ">
<polygon fill="#ffffff" stroke="#000000" points="254,-112.5 254,-131.5 292,-131.5 292,-112.5 254,-112.5"/>
<text text-anchor="middle" x="273" y="-119.5" font-family="Helvetica,sans-Serif" font-size="10.00" fill="#000000">irx.h</text>
</a>
</g>
</g>
<!-- Node8&#45;&gt;Node9 -->
<g id="edge9" class="edge">
<title>Node8&#45;&gt;Node9</title>
<path fill="none" stroke="#191970" d="M242.4449,-168.2455C247.5382,-160.5367 254.7908,-149.5598 260.952,-140.2348"/>
<polygon fill="#191970" stroke="#191970" points="264.0365,-141.9155 266.6289,-131.6427 258.1962,-138.0566 264.0365,-141.9155"/>
</g>
<!-- Node9&#45;&gt;Node5 -->
<g id="edge10" class="edge">
<title>Node9&#45;&gt;Node5</title>
<path fill="none" stroke="#191970" d="M259.5876,-112.2455C247.9943,-103.814 231.0252,-91.4729 217.5322,-81.6598"/>
<polygon fill="#191970" stroke="#191970" points="219.4047,-78.6938 209.2587,-75.6427 215.2874,-84.355 219.4047,-78.6938"/>
</g>
<!-- Node10&#45;&gt;Node5 -->
<g id="edge12" class="edge">
<title>Node10&#45;&gt;Node5</title>
<path fill="none" stroke="#191970" d="M319.7086,-168.2728C318.7874,-154.2176 315.1375,-128.1486 301,-112 283.2998,-91.782 255.0625,-80.0948 232.3266,-73.5639"/>
<polygon fill="#191970" stroke="#191970" points="233.21,-70.1773 222.6466,-70.9924 231.4127,-76.9426 233.21,-70.1773"/>
</g>
<!-- Node10&#45;&gt;Node9 -->
<g id="edge13" class="edge">
<title>Node10&#45;&gt;Node9</title>
<path fill="none" stroke="#191970" d="M311.8132,-168.2455C305.1411,-160.2958 295.5521,-148.8706 287.5747,-139.3656"/>
<polygon fill="#191970" stroke="#191970" points="290.2026,-137.0524 281.093,-131.6427 284.8408,-141.5525 290.2026,-137.0524"/>
</g>
<!-- Node11 -->
<g id="node11" class="node">
<title>Node11</title>
<g id="a_node11"><a xlink:href="io__common_8h.html" target="_top" xlink:title=" ">
<polygon fill="#ffffff" stroke="#000000" points="348.5,-112.5 348.5,-131.5 431.5,-131.5 431.5,-112.5 348.5,-112.5"/>
<text text-anchor="middle" x="390" y="-119.5" font-family="Helvetica,sans-Serif" font-size="10.00" fill="#000000">io_common.h</text>
</a>
</g>
</g>
<!-- Node10&#45;&gt;Node11 -->
<g id="edge14" class="edge">
<title>Node10&#45;&gt;Node11</title>
<path fill="none" stroke="#191970" d="M332.1931,-168.2455C342.6321,-159.8943 357.8655,-147.7076 370.074,-137.9408"/>
<polygon fill="#191970" stroke="#191970" points="372.3244,-140.6227 377.9467,-131.6427 367.9515,-135.1566 372.3244,-140.6227"/>
</g>
<!-- Node14 -->
<g id="node14" class="node">
<title>Node14</title>
<g id="a_node14"><a xlink:href="iox__stat_8h.html" target="_top" xlink:title=" ">
<polygon fill="#ffffff" stroke="#000000" points="449.5,-112.5 449.5,-131.5 514.5,-131.5 514.5,-112.5 449.5,-112.5"/>
<text text-anchor="middle" x="482" y="-119.5" font-family="Helvetica,sans-Serif" font-size="10.00" fill="#000000">iox_stat.h</text>
</a>
</g>
</g>
<!-- Node10&#45;&gt;Node14 -->
<g id="edge17" class="edge">
<title>Node10&#45;&gt;Node14</title>
<path fill="none" stroke="#191970" d="M347.8488,-168.3733C374.6703,-159.1016 415.4127,-145.0178 444.9598,-134.804"/>
<polygon fill="#191970" stroke="#191970" points="446.2069,-138.0762 454.5146,-131.5011 443.9198,-131.4603 446.2069,-138.0762"/>
</g>
<!-- Node12 -->
<g id="node12" class="node">
<title>Node12</title>
<g id="a_node12"><a xlink:href="fcntl_8h.html" target="_top" xlink:title=" ">
<polygon fill="#ffffff" stroke="#000000" points="359.5,-56.5 359.5,-75.5 426.5,-75.5 426.5,-56.5 359.5,-56.5"/>
<text text-anchor="middle" x="393" y="-63.5" font-family="Helvetica,sans-Serif" font-size="10.00" fill="#000000">sys/fcntl.h</text>
</a>
</g>
</g>
<!-- Node11&#45;&gt;Node12 -->
<g id="edge15" class="edge">
<title>Node11&#45;&gt;Node12</title>
<path fill="none" stroke="#191970" d="M390.5226,-112.2455C390.914,-104.9382 391.4628,-94.6944 391.9444,-85.7046"/>
<polygon fill="#191970" stroke="#191970" points="395.4434,-85.8156 392.4834,-75.6427 388.4534,-85.4411 395.4434,-85.8156"/>
</g>
<!-- Node13 -->
<g id="node13" class="node">
<title>Node13</title>
<g id="a_node13"><a xlink:href="unistd_8h.html" target="_top" xlink:title=" ">
<polygon fill="#ffffff" stroke="#000000" points="266.5,-56.5 266.5,-75.5 341.5,-75.5 341.5,-56.5 266.5,-56.5"/>
<text text-anchor="middle" x="304" y="-63.5" font-family="Helvetica,sans-Serif" font-size="10.00" fill="#000000">sys/unistd.h</text>
</a>
</g>
</g>
<!-- Node11&#45;&gt;Node13 -->
<g id="edge16" class="edge">
<title>Node11&#45;&gt;Node13</title>
<path fill="none" stroke="#191970" d="M375.0199,-112.2455C361.8249,-103.6534 342.3949,-91.0014 327.1921,-81.1018"/>
<polygon fill="#191970" stroke="#191970" points="329.0983,-78.1665 318.8084,-75.6427 325.2785,-84.0325 329.0983,-78.1665"/>
</g>
<!-- Node15 -->
<g id="node15" class="node">
<title>Node15</title>
<g id="a_node15"><a xlink:href="time_8h.html" target="_top" xlink:title=" ">
<polygon fill="#ffffff" stroke="#000000" points="448,-56.5 448,-75.5 516,-75.5 516,-56.5 448,-56.5"/>
<text text-anchor="middle" x="482" y="-63.5" font-family="Helvetica,sans-Serif" font-size="10.00" fill="#000000">sys/time.h</text>
</a>
</g>
</g>
<!-- Node14&#45;&gt;Node15 -->
<g id="edge18" class="edge">
<title>Node14&#45;&gt;Node15</title>
<path fill="none" stroke="#191970" d="M482,-112.2455C482,-104.9382 482,-94.6944 482,-85.7046"/>
<polygon fill="#191970" stroke="#191970" points="485.5001,-85.6426 482,-75.6427 478.5001,-85.6427 485.5001,-85.6426"/>
</g>
<!-- Node16&#45;&gt;Node2 -->
<g id="edge22" class="edge">
<title>Node16&#45;&gt;Node2</title>
<path fill="none" stroke="#191970" d="M100.6716,-168.2455C87.1697,-159.6534 67.2878,-147.0014 51.7314,-137.1018"/>
<polygon fill="#191970" stroke="#191970" points="53.4685,-134.0587 43.1528,-131.6427 49.7103,-139.9643 53.4685,-134.0587"/>
</g>
<!-- Node16&#45;&gt;Node5 -->
<g id="edge20" class="edge">
<title>Node16&#45;&gt;Node5</title>
<path fill="none" stroke="#191970" d="M118.028,-168.3025C121.211,-154.7392 128.3599,-129.7737 141,-112 149.425,-100.1533 161.6087,-89.5425 172.3687,-81.5053"/>
<polygon fill="#191970" stroke="#191970" points="174.4861,-84.2941 180.5938,-75.6369 170.4205,-78.5958 174.4861,-84.2941"/>
</g>
<!-- Node16&#45;&gt;Node9 -->
<g id="edge21" class="edge">
<title>Node16&#45;&gt;Node9</title>
<path fill="none" stroke="#191970" d="M142.9893,-168.3733C171.2227,-158.3027 215.3726,-142.555 244.2479,-132.2555"/>
<polygon fill="#191970" stroke="#191970" points="245.5304,-135.5141 253.7733,-128.8579 243.1786,-128.921 245.5304,-135.5141"/>
</g>
<!-- Node17 -->
<g id="node17" class="node">
<title>Node17</title>
<g id="a_node17"><a xlink:href="setjmp_8h.html" target="_top" xlink:title=" ">
<polygon fill="#ffffff" stroke="#000000" points="78.5,-56.5 78.5,-75.5 137.5,-75.5 137.5,-56.5 78.5,-56.5"/>
<text text-anchor="middle" x="108" y="-63.5" font-family="Helvetica,sans-Serif" font-size="10.00" fill="#000000">setjmp.h</text>
</a>
</g>
</g>
<!-- Node16&#45;&gt;Node17 -->
<g id="edge23" class="edge">
<title>Node16&#45;&gt;Node17</title>
<path fill="none" stroke="#191970" d="M113.7893,-168.1936C111.8202,-158.9241 109.0874,-144.5985 108,-132 106.674,-116.6367 106.7422,-99.1867 107.1051,-86.0898"/>
<polygon fill="#191970" stroke="#191970" points="110.6111,-85.9819 107.4723,-75.8627 103.6156,-85.7307 110.6111,-85.9819"/>
</g>
<!-- Node17&#45;&gt;Node7 -->
<g id="edge24" class="edge">
<title>Node17&#45;&gt;Node7</title>
<path fill="none" stroke="#191970" d="M108.6967,-56.2455C109.2187,-48.9382 109.9504,-38.6944 110.5925,-29.7046"/>
<polygon fill="#191970" stroke="#191970" points="114.0898,-29.8667 111.3112,-19.6427 107.1076,-29.3679 114.0898,-29.8667"/>
</g>
</g>
</svg>
