<?xml version="1.0" encoding="UTF-8" standalone="no"?>
<!DOCTYPE svg PUBLIC "-//W3C//DTD SVG 1.1//EN"
 "http://www.w3.org/Graphics/SVG/1.1/DTD/svg11.dtd">
<!-- Generated by graphviz version 2.40.1 (20161225.0304)
 -->
<!-- Title: iop/kernel/include/iomanX.h Pages: 1 -->
<svg width="5155pt" height="106pt"
 viewBox="0.00 0.00 5154.50 106.00" xmlns="http://www.w3.org/2000/svg" xmlns:xlink="http://www.w3.org/1999/xlink">
<g id="graph0" class="graph" transform="scale(1 1) rotate(0) translate(4 102)">
<title>iop/kernel/include/iomanX.h</title>
<polygon fill="#ffffff" stroke="transparent" points="-4,4 -4,-102 5150.5,-102 5150.5,4 -4,4"/>
<!-- Node1 -->
<g id="node1" class="node">
<title>Node1</title>
<g id="a_node1"><a xlink:title=" ">
<polygon fill="#bfbfbf" stroke="#000000" points="2475.5,-67.5 2475.5,-97.5 2579.5,-97.5 2579.5,-67.5 2475.5,-67.5"/>
<text text-anchor="start" x="2483.5" y="-85.5" font-family="Helvetica,sans-Serif" font-size="10.00" fill="#000000">iop/kernel/include</text>
<text text-anchor="middle" x="2527.5" y="-74.5" font-family="Helvetica,sans-Serif" font-size="10.00" fill="#000000">/iomanX.h</text>
</a>
</g>
</g>
<!-- Node2 -->
<g id="node2" class="node">
<title>Node2</title>
<g id="a_node2"><a xlink:href="ps2dev9_8c.html" target="_top" xlink:title=" ">
<polygon fill="#ffffff" stroke="#000000" points="0,-6 0,-25 155,-25 155,-6 0,-6"/>
<text text-anchor="middle" x="77.5" y="-13" font-family="Helvetica,sans-Serif" font-size="10.00" fill="#000000">iop/dev9/dev9/src/ps2dev9.c</text>
</a>
</g>
</g>
<!-- Node1&#45;&gt;Node2 -->
<g id="edge1" class="edge">
<title>Node1&#45;&gt;Node2</title>
<path fill="none" stroke="#191970" d="M2465.1272,-81.7175C2114.7635,-77.2453 398.9603,-54.2998 164.5,-31 151.0652,-29.6649 136.5866,-27.4161 123.3692,-25.0396"/>
<polygon fill="#191970" stroke="#191970" points="2465.2892,-85.2198 2475.333,-81.8475 2465.3784,-78.2204 2465.2892,-85.2198"/>
</g>
<!-- Node3 -->
<g id="node3" class="node">
<title>Node3</title>
<g id="a_node3"><a xlink:href="dev9_2extflash_2src_2irx__imports_8h.html" target="_top" xlink:title=" ">
<polygon fill="#ffffff" stroke="#000000" points="173.5,-.5 173.5,-30.5 291.5,-30.5 291.5,-.5 173.5,-.5"/>
<text text-anchor="start" x="181.5" y="-18.5" font-family="Helvetica,sans-Serif" font-size="10.00" fill="#000000">iop/dev9/extflash/src</text>
<text text-anchor="middle" x="232.5" y="-7.5" font-family="Helvetica,sans-Serif" font-size="10.00" fill="#000000">/irx_imports.h</text>
</a>
</g>
</g>
<!-- Node1&#45;&gt;Node3 -->
<g id="edge2" class="edge">
<title>Node1&#45;&gt;Node3</title>
<path fill="none" stroke="#191970" d="M2465.2044,-81.8071C2127.1584,-77.9473 520.1002,-58.2854 300.5,-31 297.6162,-30.6417 294.6754,-30.2143 291.7137,-29.734"/>
<polygon fill="#191970" stroke="#191970" points="2465.2602,-85.3079 2475.2994,-81.922 2465.3399,-78.3084 2465.2602,-85.3079"/>
</g>
<!-- Node4 -->
<g id="node4" class="node">
<title>Node4</title>
<g id="a_node4"><a xlink:href="fs_2bdmfs__vfat_2src_2fs__driver_8c.html" target="_top" xlink:title=" ">
<polygon fill="#ffffff" stroke="#000000" points="310,-.5 310,-30.5 429,-30.5 429,-.5 310,-.5"/>
<text text-anchor="start" x="318" y="-18.5" font-family="Helvetica,sans-Serif" font-size="10.00" fill="#000000">iop/fs/bdmfs_vfat/src</text>
<text text-anchor="middle" x="369.5" y="-7.5" font-family="Helvetica,sans-Serif" font-size="10.00" fill="#000000">/fs_driver.c</text>
</a>
</g>
</g>
<!-- Node1&#45;&gt;Node4 -->
<g id="edge3" class="edge">
<title>Node1&#45;&gt;Node4</title>
<path fill="none" stroke="#191970" d="M2464.9022,-81.702C2138.9118,-77.4465 642.6978,-56.6537 437.5,-31 434.7366,-30.6545 431.9208,-30.246 429.0845,-29.7886"/>
<polygon fill="#191970" stroke="#191970" points="2465.0599,-85.2043 2475.1047,-81.8348 2465.1511,-78.2049 2465.0599,-85.2043"/>
</g>
<!-- Node5 -->
<g id="node5" class="node">
<title>Node5</title>
<g id="a_node5"><a xlink:href="devfs_8c.html" target="_top" xlink:title=" ">
<polygon fill="#ffffff" stroke="#000000" points="447,-6 447,-25 576,-25 576,-6 447,-6"/>
<text text-anchor="middle" x="511.5" y="-13" font-family="Helvetica,sans-Serif" font-size="10.00" fill="#000000">iop/fs/devfs/src/devfs.c</text>
</a>
</g>
</g>
<!-- Node1&#45;&gt;Node5 -->
<g id="edge4" class="edge">
<title>Node1&#45;&gt;Node5</title>
<path fill="none" stroke="#191970" d="M2464.9171,-82.3795C2175.0649,-81.5855 961.2344,-75.6088 584.5,-31 573.1777,-29.6593 561.0135,-27.4088 549.9241,-25.0324"/>
<polygon fill="#191970" stroke="#191970" points="2465.2271,-85.8802 2475.2363,-82.4066 2465.2456,-78.8802 2465.2271,-85.8802"/>
</g>
<!-- Node6 -->
<g id="node6" class="node">
<title>Node6</title>
<g id="a_node6"><a xlink:href="fs_2devfs_2src_2irx__imports_8h.html" target="_top" xlink:title=" ">
<polygon fill="#ffffff" stroke="#000000" points="594,-.5 594,-30.5 701,-30.5 701,-.5 594,-.5"/>
<text text-anchor="start" x="602" y="-18.5" font-family="Helvetica,sans-Serif" font-size="10.00" fill="#000000">iop/fs/devfs/src/irx</text>
<text text-anchor="middle" x="647.5" y="-7.5" font-family="Helvetica,sans-Serif" font-size="10.00" fill="#000000">_imports.h</text>
</a>
</g>
</g>
<!-- Node1&#45;&gt;Node6 -->
<g id="edge5" class="edge">
<title>Node1&#45;&gt;Node6</title>
<path fill="none" stroke="#191970" d="M2465.0288,-81.5341C2165.7803,-76.7989 886.0976,-55.2833 709.5,-31 706.7521,-30.6221 703.9496,-30.1703 701.1293,-29.6624"/>
<polygon fill="#191970" stroke="#191970" points="2465.203,-85.0372 2475.257,-81.6954 2465.3134,-78.0381 2465.203,-85.0372"/>
</g>
<!-- Node7 -->
<g id="node7" class="node">
<title>Node7</title>
<g id="a_node7"><a xlink:href="fakehost_8c.html" target="_top" xlink:title=" ">
<polygon fill="#ffffff" stroke="#000000" points="719,-.5 719,-30.5 826,-30.5 826,-.5 719,-.5"/>
<text text-anchor="start" x="727" y="-18.5" font-family="Helvetica,sans-Serif" font-size="10.00" fill="#000000">iop/fs/fakehost/src</text>
<text text-anchor="middle" x="772.5" y="-7.5" font-family="Helvetica,sans-Serif" font-size="10.00" fill="#000000">/fakehost.c</text>
</a>
</g>
</g>
<!-- Node1&#45;&gt;Node7 -->
<g id="edge6" class="edge">
<title>Node1&#45;&gt;Node7</title>
<path fill="none" stroke="#191970" d="M2465.1888,-81.3971C2179.069,-76.2255 998.1412,-53.676 834.5,-31 831.7525,-30.6193 828.9503,-30.1651 826.1303,-29.6554"/>
<polygon fill="#191970" stroke="#191970" points="2465.3213,-84.8999 2475.3828,-81.5808 2465.4475,-77.9011 2465.3213,-84.8999"/>
</g>
<!-- Node8 -->
<g id="node8" class="node">
<title>Node8</title>
<g id="a_node8"><a xlink:href="fs_2fakehost_2src_2irx__imports_8h.html" target="_top" xlink:title=" ">
<polygon fill="#ffffff" stroke="#000000" points="844,-.5 844,-30.5 951,-30.5 951,-.5 844,-.5"/>
<text text-anchor="start" x="852" y="-18.5" font-family="Helvetica,sans-Serif" font-size="10.00" fill="#000000">iop/fs/fakehost/src</text>
<text text-anchor="middle" x="897.5" y="-7.5" font-family="Helvetica,sans-Serif" font-size="10.00" fill="#000000">/irx_imports.h</text>
</a>
</g>
</g>
<!-- Node1&#45;&gt;Node8 -->
<g id="edge7" class="edge">
<title>Node1&#45;&gt;Node8</title>
<path fill="none" stroke="#191970" d="M2464.9808,-82.1834C2211.3714,-80.6308 1258.7041,-72.1257 960.5,-31 957.4873,-30.5845 954.4093,-30.0843 951.3133,-29.5217"/>
<polygon fill="#191970" stroke="#191970" points="2465.0996,-85.6841 2475.1203,-82.2441 2465.1415,-78.6842 2465.0996,-85.6841"/>
</g>
<!-- Node9 -->
<g id="node9" class="node">
<title>Node9</title>
<g id="a_node9"><a xlink:href="fileXio__iop_8c.html" target="_top" xlink:title=" ">
<polygon fill="#ffffff" stroke="#000000" points="969.5,-.5 969.5,-30.5 1063.5,-30.5 1063.5,-.5 969.5,-.5"/>
<text text-anchor="start" x="977.5" y="-18.5" font-family="Helvetica,sans-Serif" font-size="10.00" fill="#000000">iop/fs/filexio/src</text>
<text text-anchor="middle" x="1016.5" y="-7.5" font-family="Helvetica,sans-Serif" font-size="10.00" fill="#000000">/fileXio_iop.c</text>
</a>
</g>
</g>
<!-- Node1&#45;&gt;Node9 -->
<g id="edge8" class="edge">
<title>Node1&#45;&gt;Node9</title>
<path fill="none" stroke="#191970" d="M2465.4624,-82.2396C2224.0679,-80.9264 1347.2601,-73.2859 1072.5,-31 1069.6086,-30.555 1066.6536,-30.0119 1063.6866,-29.3987"/>
<polygon fill="#191970" stroke="#191970" points="2465.449,-85.7395 2475.4673,-82.2923 2465.4859,-78.7395 2465.449,-85.7395"/>
</g>
<!-- Node10 -->
<g id="node10" class="node">
<title>Node10</title>
<g id="a_node10"><a xlink:href="fs_2filexio_2src_2irx__imports_8h.html" target="_top" xlink:title=" ">
<polygon fill="#ffffff" stroke="#000000" points="1081.5,-.5 1081.5,-30.5 1175.5,-30.5 1175.5,-.5 1081.5,-.5"/>
<text text-anchor="start" x="1089.5" y="-18.5" font-family="Helvetica,sans-Serif" font-size="10.00" fill="#000000">iop/fs/filexio/src</text>
<text text-anchor="middle" x="1128.5" y="-7.5" font-family="Helvetica,sans-Serif" font-size="10.00" fill="#000000">/irx_imports.h</text>
</a>
</g>
</g>
<!-- Node1&#45;&gt;Node10 -->
<g id="edge9" class="edge">
<title>Node1&#45;&gt;Node10</title>
<path fill="none" stroke="#191970" d="M2464.9805,-82.022C2234.9749,-79.9651 1436.1257,-70.1052 1184.5,-31 1181.6093,-30.5507 1178.6548,-30.0044 1175.6882,-29.3886"/>
<polygon fill="#191970" stroke="#191970" points="2465.1481,-85.5235 2475.1784,-82.1114 2465.2095,-78.5238 2465.1481,-85.5235"/>
</g>
<!-- Node11 -->
<g id="node11" class="node">
<title>Node11</title>
<g id="a_node11"><a xlink:href="fs_2http_2src_2irx__imports_8h.html" target="_top" xlink:title=" ">
<polygon fill="#ffffff" stroke="#000000" points="1194,-.5 1194,-30.5 1293,-30.5 1293,-.5 1194,-.5"/>
<text text-anchor="start" x="1202" y="-18.5" font-family="Helvetica,sans-Serif" font-size="10.00" fill="#000000">iop/fs/http/src/irx</text>
<text text-anchor="middle" x="1243.5" y="-7.5" font-family="Helvetica,sans-Serif" font-size="10.00" fill="#000000">_imports.h</text>
</a>
</g>
</g>
<!-- Node1&#45;&gt;Node11 -->
<g id="edge10" class="edge">
<title>Node1&#45;&gt;Node11</title>
<path fill="none" stroke="#191970" d="M2465.1464,-81.6487C2248.6529,-78.4163 1530.3064,-65.3041 1302.5,-31 1299.463,-30.5427 1296.3569,-29.99 1293.2363,-29.3696"/>
<polygon fill="#191970" stroke="#191970" points="2465.3243,-85.1516 2475.3749,-81.7996 2465.4277,-78.1524 2465.3243,-85.1516"/>
</g>
<!-- Node12 -->
<g id="node12" class="node">
<title>Node12</title>
<g id="a_node12"><a xlink:href="devscan_8c.html" target="_top" xlink:title=" ">
<polygon fill="#ffffff" stroke="#000000" points="1311.5,-6 1311.5,-25 1451.5,-25 1451.5,-6 1311.5,-6"/>
<text text-anchor="middle" x="1381.5" y="-13" font-family="Helvetica,sans-Serif" font-size="10.00" fill="#000000">iop/fs/netfs/src/devscan.c</text>
</a>
</g>
</g>
<!-- Node1&#45;&gt;Node12 -->
<g id="edge11" class="edge">
<title>Node1&#45;&gt;Node12</title>
<path fill="none" stroke="#191970" d="M2465.0996,-80.683C2267.4906,-74.7405 1656.9666,-54.8862 1460.5,-31 1448.5678,-29.5493 1435.7371,-27.3241 1423.9582,-25.0084"/>
<polygon fill="#191970" stroke="#191970" points="2465.2053,-84.1876 2475.3056,-80.9885 2465.4148,-77.1907 2465.2053,-84.1876"/>
</g>
<!-- Node13 -->
<g id="node13" class="node">
<title>Node13</title>
<g id="a_node13"><a xlink:href="fs_2netfs_2src_2irx__imports_8h.html" target="_top" xlink:title=" ">
<polygon fill="#ffffff" stroke="#000000" points="1469.5,-.5 1469.5,-30.5 1573.5,-30.5 1573.5,-.5 1469.5,-.5"/>
<text text-anchor="start" x="1477.5" y="-18.5" font-family="Helvetica,sans-Serif" font-size="10.00" fill="#000000">iop/fs/netfs/src/irx</text>
<text text-anchor="middle" x="1521.5" y="-7.5" font-family="Helvetica,sans-Serif" font-size="10.00" fill="#000000">_imports.h</text>
</a>
</g>
</g>
<!-- Node1&#45;&gt;Node13 -->
<g id="edge12" class="edge">
<title>Node1&#45;&gt;Node13</title>
<path fill="none" stroke="#191970" d="M2465.1727,-80.686C2283.0073,-75.1334 1753.578,-57.1426 1582.5,-31 1579.5836,-30.5543 1576.6039,-30.0303 1573.6065,-29.4493"/>
<polygon fill="#191970" stroke="#191970" points="2465.2825,-84.1909 2475.3839,-80.9953 2465.4945,-77.1941 2465.2825,-84.1909"/>
</g>
<!-- Node14 -->
<g id="node14" class="node">
<title>Node14</title>
<g id="a_node14"><a xlink:href="ps2__fio_8c.html" target="_top" xlink:title=" ">
<polygon fill="#ffffff" stroke="#000000" points="1592,-.5 1592,-30.5 1701,-30.5 1701,-.5 1592,-.5"/>
<text text-anchor="start" x="1600" y="-18.5" font-family="Helvetica,sans-Serif" font-size="10.00" fill="#000000">iop/fs/netfs/src/ps2</text>
<text text-anchor="middle" x="1646.5" y="-7.5" font-family="Helvetica,sans-Serif" font-size="10.00" fill="#000000">_fio.c</text>
</a>
</g>
</g>
<!-- Node1&#45;&gt;Node14 -->
<g id="edge13" class="edge">
<title>Node1&#45;&gt;Node14</title>
<path fill="none" stroke="#191970" d="M2465.0426,-79.9781C2300.1609,-73.094 1855.9072,-53.0181 1710.5,-31 1707.4481,-30.5379 1704.328,-30.0008 1701.1881,-29.4097"/>
<polygon fill="#191970" stroke="#191970" points="2465.3562,-83.494 2475.4929,-80.4123 2465.6469,-76.5001 2465.3562,-83.494"/>
</g>
<!-- Node15 -->
<g id="node15" class="node">
<title>Node15</title>
<g id="a_node15"><a xlink:href="hdd_8c.html" target="_top" xlink:title=" ">
<polygon fill="#ffffff" stroke="#000000" points="1719.5,-6 1719.5,-25 1839.5,-25 1839.5,-6 1719.5,-6"/>
<text text-anchor="middle" x="1779.5" y="-13" font-family="Helvetica,sans-Serif" font-size="10.00" fill="#000000">iop/hdd/apa/src/hdd.c</text>
</a>
</g>
</g>
<!-- Node1&#45;&gt;Node15 -->
<g id="edge14" class="edge">
<title>Node1&#45;&gt;Node15</title>
<path fill="none" stroke="#191970" d="M2465.1471,-80.7975C2345.1516,-76.8531 2074.0178,-64.6999 1848.5,-31 1838.3,-29.4758 1827.3648,-27.283 1817.275,-25.0245"/>
<polygon fill="#191970" stroke="#191970" points="2465.142,-84.299 2475.2492,-81.1218 2465.3666,-77.3026 2465.142,-84.299"/>
</g>
<!-- Node16 -->
<g id="node16" class="node">
<title>Node16</title>
<g id="a_node16"><a xlink:href="hdd__fio_8c.html" target="_top" xlink:title=" ">
<polygon fill="#ffffff" stroke="#000000" points="1857.5,-.5 1857.5,-30.5 1969.5,-30.5 1969.5,-.5 1857.5,-.5"/>
<text text-anchor="start" x="1865.5" y="-18.5" font-family="Helvetica,sans-Serif" font-size="10.00" fill="#000000">iop/hdd/apa/src/hdd</text>
<text text-anchor="middle" x="1913.5" y="-7.5" font-family="Helvetica,sans-Serif" font-size="10.00" fill="#000000">_fio.c</text>
</a>
</g>
</g>
<!-- Node1&#45;&gt;Node16 -->
<g id="edge15" class="edge">
<title>Node1&#45;&gt;Node16</title>
<path fill="none" stroke="#191970" d="M2465.1934,-79.5124C2362.9925,-73.9734 2153.5934,-59.9416 1978.5,-31 1975.6385,-30.527 1972.7161,-29.9986 1969.7718,-29.4301"/>
<polygon fill="#191970" stroke="#191970" points="2465.1659,-83.0159 2475.3381,-80.0533 2465.5387,-76.0258 2465.1659,-83.0159"/>
</g>
<!-- Node17 -->
<g id="node17" class="node">
<title>Node17</title>
<g id="a_node17"><a xlink:href="hdd_2apa_2src_2irx__imports_8h.html" target="_top" xlink:title=" ">
<polygon fill="#ffffff" stroke="#000000" points="1988,-.5 1988,-30.5 2095,-30.5 2095,-.5 1988,-.5"/>
<text text-anchor="start" x="1996" y="-18.5" font-family="Helvetica,sans-Serif" font-size="10.00" fill="#000000">iop/hdd/apa/src/irx</text>
<text text-anchor="middle" x="2041.5" y="-7.5" font-family="Helvetica,sans-Serif" font-size="10.00" fill="#000000">_imports.h</text>
</a>
</g>
</g>
<!-- Node1&#45;&gt;Node17 -->
<g id="edge16" class="edge">
<title>Node1&#45;&gt;Node17</title>
<path fill="none" stroke="#191970" d="M2465.2745,-77.3788C2382.3015,-69.9954 2231.0668,-54.5989 2103.5,-31 2100.7725,-30.4954 2097.9864,-29.9416 2095.1792,-29.3529"/>
<polygon fill="#191970" stroke="#191970" points="2465.0253,-80.8703 2475.2937,-78.2609 2465.6392,-73.8973 2465.0253,-80.8703"/>
</g>
<!-- Node18 -->
<g id="node18" class="node">
<title>Node18</title>
<g id="a_node18"><a xlink:href="apa_8c.html" target="_top" xlink:title=" ">
<polygon fill="#ffffff" stroke="#000000" points="2113,-.5 2113,-30.5 2216,-30.5 2216,-.5 2113,-.5"/>
<text text-anchor="start" x="2121" y="-18.5" font-family="Helvetica,sans-Serif" font-size="10.00" fill="#000000">iop/hdd/libapa/src</text>
<text text-anchor="middle" x="2164.5" y="-7.5" font-family="Helvetica,sans-Serif" font-size="10.00" fill="#000000">/apa.c</text>
</a>
</g>
</g>
<!-- Node1&#45;&gt;Node18 -->
<g id="edge17" class="edge">
<title>Node1&#45;&gt;Node18</title>
<path fill="none" stroke="#191970" d="M2465.3088,-73.5016C2403.8518,-64.2404 2307.2922,-48.6969 2224.5,-31 2221.7645,-30.4153 2218.9658,-29.7895 2216.1449,-29.1369"/>
<polygon fill="#191970" stroke="#191970" points="2464.8297,-76.9688 2475.238,-74.9892 2465.867,-70.0461 2464.8297,-76.9688"/>
</g>
<!-- Node19 -->
<g id="node19" class="node">
<title>Node19</title>
<g id="a_node19"><a xlink:href="libapa_2src_2cache_8c.html" target="_top" xlink:title=" ">
<polygon fill="#ffffff" stroke="#000000" points="2234,-.5 2234,-30.5 2337,-30.5 2337,-.5 2234,-.5"/>
<text text-anchor="start" x="2242" y="-18.5" font-family="Helvetica,sans-Serif" font-size="10.00" fill="#000000">iop/hdd/libapa/src</text>
<text text-anchor="middle" x="2285.5" y="-7.5" font-family="Helvetica,sans-Serif" font-size="10.00" fill="#000000">/cache.c</text>
</a>
</g>
</g>
<!-- Node1&#45;&gt;Node19 -->
<g id="edge18" class="edge">
<title>Node1&#45;&gt;Node19</title>
<path fill="none" stroke="#191970" d="M2465.4414,-65.3185C2425.7029,-54.3165 2374.7413,-40.2073 2337.2028,-29.8144"/>
<polygon fill="#191970" stroke="#191970" points="2464.7162,-68.7493 2475.2875,-68.0445 2466.584,-62.0031 2464.7162,-68.7493"/>
</g>
<!-- Node20 -->
<g id="node20" class="node">
<title>Node20</title>
<g id="a_node20"><a xlink:href="free_8c.html" target="_top" xlink:title=" ">
<polygon fill="#ffffff" stroke="#000000" points="2355,-.5 2355,-30.5 2458,-30.5 2458,-.5 2355,-.5"/>
<text text-anchor="start" x="2363" y="-18.5" font-family="Helvetica,sans-Serif" font-size="10.00" fill="#000000">iop/hdd/libapa/src</text>
<text text-anchor="middle" x="2406.5" y="-7.5" font-family="Helvetica,sans-Serif" font-size="10.00" fill="#000000">/free.c</text>
</a>
</g>
</g>
<!-- Node1&#45;&gt;Node20 -->
<g id="edge19" class="edge">
<title>Node1&#45;&gt;Node20</title>
<path fill="none" stroke="#191970" d="M2491.3729,-62.4958C2472.9791,-52.3107 2450.9761,-40.1272 2433.9828,-30.7177"/>
<polygon fill="#191970" stroke="#191970" points="2489.9014,-65.6816 2500.3452,-67.4639 2493.2923,-59.5578 2489.9014,-65.6816"/>
</g>
<!-- Node21 -->
<g id="node21" class="node">
<title>Node21</title>
<g id="a_node21"><a xlink:href="libapa_2src_2journal_8c.html" target="_top" xlink:title=" ">
<polygon fill="#ffffff" stroke="#000000" points="2476,-.5 2476,-30.5 2579,-30.5 2579,-.5 2476,-.5"/>
<text text-anchor="start" x="2484" y="-18.5" font-family="Helvetica,sans-Serif" font-size="10.00" fill="#000000">iop/hdd/libapa/src</text>
<text text-anchor="middle" x="2527.5" y="-7.5" font-family="Helvetica,sans-Serif" font-size="10.00" fill="#000000">/journal.c</text>
</a>
</g>
</g>
<!-- Node1&#45;&gt;Node21 -->
<g id="edge20" class="edge">
<title>Node1&#45;&gt;Node21</title>
<path fill="none" stroke="#191970" d="M2527.5,-57.0249C2527.5,-48.128 2527.5,-38.4287 2527.5,-30.6432"/>
<polygon fill="#191970" stroke="#191970" points="2524.0001,-57.2966 2527.5,-67.2967 2531.0001,-57.2967 2524.0001,-57.2966"/>
</g>
<!-- Node22 -->
<g id="node22" class="node">
<title>Node22</title>
<g id="a_node22"><a xlink:href="libapa_2src_2misc_8c.html" target="_top" xlink:title=" ">
<polygon fill="#ffffff" stroke="#000000" points="2597,-.5 2597,-30.5 2700,-30.5 2700,-.5 2597,-.5"/>
<text text-anchor="start" x="2605" y="-18.5" font-family="Helvetica,sans-Serif" font-size="10.00" fill="#000000">iop/hdd/libapa/src</text>
<text text-anchor="middle" x="2648.5" y="-7.5" font-family="Helvetica,sans-Serif" font-size="10.00" fill="#000000">/misc.c</text>
</a>
</g>
</g>
<!-- Node1&#45;&gt;Node22 -->
<g id="edge21" class="edge">
<title>Node1&#45;&gt;Node22</title>
<path fill="none" stroke="#191970" d="M2563.6271,-62.4958C2582.0209,-52.3107 2604.0239,-40.1272 2621.0172,-30.7177"/>
<polygon fill="#191970" stroke="#191970" points="2561.7077,-59.5578 2554.6548,-67.4639 2565.0986,-65.6816 2561.7077,-59.5578"/>
</g>
<!-- Node23 -->
<g id="node23" class="node">
<title>Node23</title>
<g id="a_node23"><a xlink:href="password_8c.html" target="_top" xlink:title=" ">
<polygon fill="#ffffff" stroke="#000000" points="2718,-.5 2718,-30.5 2821,-30.5 2821,-.5 2718,-.5"/>
<text text-anchor="start" x="2726" y="-18.5" font-family="Helvetica,sans-Serif" font-size="10.00" fill="#000000">iop/hdd/libapa/src</text>
<text text-anchor="middle" x="2769.5" y="-7.5" font-family="Helvetica,sans-Serif" font-size="10.00" fill="#000000">/password.c</text>
</a>
</g>
</g>
<!-- Node1&#45;&gt;Node23 -->
<g id="edge22" class="edge">
<title>Node1&#45;&gt;Node23</title>
<path fill="none" stroke="#191970" d="M2589.5586,-65.3185C2629.2971,-54.3165 2680.2587,-40.2073 2717.7972,-29.8144"/>
<polygon fill="#191970" stroke="#191970" points="2588.416,-62.0031 2579.7125,-68.0445 2590.2838,-68.7493 2588.416,-62.0031"/>
</g>
<!-- Node24 -->
<g id="node24" class="node">
<title>Node24</title>
<g id="a_node24"><a xlink:href="dir_8c.html" target="_top" xlink:title=" ">
<polygon fill="#ffffff" stroke="#000000" points="2839.5,-.5 2839.5,-30.5 2939.5,-30.5 2939.5,-.5 2839.5,-.5"/>
<text text-anchor="start" x="2847.5" y="-18.5" font-family="Helvetica,sans-Serif" font-size="10.00" fill="#000000">iop/hdd/libpfs/src</text>
<text text-anchor="middle" x="2889.5" y="-7.5" font-family="Helvetica,sans-Serif" font-size="10.00" fill="#000000">/dir.c</text>
</a>
</g>
</g>
<!-- Node1&#45;&gt;Node24 -->
<g id="edge23" class="edge">
<title>Node1&#45;&gt;Node24</title>
<path fill="none" stroke="#191970" d="M2589.432,-73.6164C2650.8876,-64.4157 2747.6207,-48.8933 2830.5,-31 2833.3986,-30.3742 2836.3689,-29.6999 2839.3606,-28.9951"/>
<polygon fill="#191970" stroke="#191970" points="2588.8807,-70.1598 2579.5047,-75.0935 2589.911,-77.0836 2588.8807,-70.1598"/>
</g>
<!-- Node25 -->
<g id="node25" class="node">
<title>Node25</title>
<g id="a_node25"><a xlink:href="libpfs_2src_2misc_8c.html" target="_top" xlink:title=" ">
<polygon fill="#ffffff" stroke="#000000" points="2957.5,-.5 2957.5,-30.5 3057.5,-30.5 3057.5,-.5 2957.5,-.5"/>
<text text-anchor="start" x="2965.5" y="-18.5" font-family="Helvetica,sans-Serif" font-size="10.00" fill="#000000">iop/hdd/libpfs/src</text>
<text text-anchor="middle" x="3007.5" y="-7.5" font-family="Helvetica,sans-Serif" font-size="10.00" fill="#000000">/misc.c</text>
</a>
</g>
</g>
<!-- Node1&#45;&gt;Node25 -->
<g id="edge24" class="edge">
<title>Node1&#45;&gt;Node25</title>
<path fill="none" stroke="#191970" d="M2589.6667,-77.5431C2672.1713,-70.3618 2822.1485,-55.2101 2948.5,-31 2951.4124,-30.442 2954.3935,-29.8206 2957.3935,-29.1563"/>
<polygon fill="#191970" stroke="#191970" points="2589.3652,-74.056 2579.7019,-78.4001 2589.9651,-81.0302 2589.3652,-74.056"/>
</g>
<!-- Node26 -->
<g id="node26" class="node">
<title>Node26</title>
<g id="a_node26"><a xlink:href="hdd_2pfs_2src_2irx__imports_8h.html" target="_top" xlink:title=" ">
<polygon fill="#ffffff" stroke="#000000" points="3075.5,-.5 3075.5,-30.5 3179.5,-30.5 3179.5,-.5 3075.5,-.5"/>
<text text-anchor="start" x="3083.5" y="-18.5" font-family="Helvetica,sans-Serif" font-size="10.00" fill="#000000">iop/hdd/pfs/src/irx</text>
<text text-anchor="middle" x="3127.5" y="-7.5" font-family="Helvetica,sans-Serif" font-size="10.00" fill="#000000">_imports.h</text>
</a>
</g>
</g>
<!-- Node1&#45;&gt;Node26 -->
<g id="edge25" class="edge">
<title>Node1&#45;&gt;Node26</title>
<path fill="none" stroke="#191970" d="M2589.5076,-79.6748C2690.2003,-74.3944 2895.2554,-60.756 3066.5,-31 3069.4067,-30.4949 3072.3788,-29.924 3075.3702,-29.3067"/>
<polygon fill="#191970" stroke="#191970" points="2589.3149,-76.18 2579.5081,-80.1896 2589.6749,-83.1708 2589.3149,-76.18"/>
</g>
<!-- Node27 -->
<g id="node27" class="node">
<title>Node27</title>
<g id="a_node27"><a xlink:href="pfs_8c.html" target="_top" xlink:title=" ">
<polygon fill="#ffffff" stroke="#000000" points="3197.5,-6 3197.5,-25 3311.5,-25 3311.5,-6 3197.5,-6"/>
<text text-anchor="middle" x="3254.5" y="-13" font-family="Helvetica,sans-Serif" font-size="10.00" fill="#000000">iop/hdd/pfs/src/pfs.c</text>
</a>
</g>
</g>
<!-- Node1&#45;&gt;Node27 -->
<g id="edge26" class="edge">
<title>Node1&#45;&gt;Node27</title>
<path fill="none" stroke="#191970" d="M2589.9152,-80.8154C2707.6172,-76.9363 2970.171,-64.9384 3188.5,-31 3198.2695,-29.4814 3208.7338,-27.2905 3218.385,-25.0321"/>
<polygon fill="#191970" stroke="#191970" points="2589.5416,-77.3255 2579.6591,-81.1448 2589.7664,-84.3219 2589.5416,-77.3255"/>
</g>
<!-- Node28 -->
<g id="node28" class="node">
<title>Node28</title>
<g id="a_node28"><a xlink:href="pfs__fio_8c.html" target="_top" xlink:title=" ">
<polygon fill="#ffffff" stroke="#000000" points="3329.5,-.5 3329.5,-30.5 3435.5,-30.5 3435.5,-.5 3329.5,-.5"/>
<text text-anchor="start" x="3337.5" y="-18.5" font-family="Helvetica,sans-Serif" font-size="10.00" fill="#000000">iop/hdd/pfs/src/pfs</text>
<text text-anchor="middle" x="3382.5" y="-7.5" font-family="Helvetica,sans-Serif" font-size="10.00" fill="#000000">_fio.c</text>
</a>
</g>
</g>
<!-- Node1&#45;&gt;Node28 -->
<g id="edge27" class="edge">
<title>Node1&#45;&gt;Node28</title>
<path fill="none" stroke="#191970" d="M2589.8449,-79.9054C2751.2476,-72.9553 3179.9478,-52.9496 3320.5,-31 3323.3502,-30.5549 3326.261,-30.0403 3329.1906,-29.475"/>
<polygon fill="#191970" stroke="#191970" points="2589.4469,-76.4192 2579.606,-80.3442 2589.7467,-83.4128 2589.4469,-76.4192"/>
</g>
<!-- Node29 -->
<g id="node29" class="node">
<title>Node29</title>
<g id="a_node29"><a xlink:href="pfs__fioctl_8c.html" target="_top" xlink:title=" ">
<polygon fill="#ffffff" stroke="#000000" points="3453.5,-.5 3453.5,-30.5 3559.5,-30.5 3559.5,-.5 3453.5,-.5"/>
<text text-anchor="start" x="3461.5" y="-18.5" font-family="Helvetica,sans-Serif" font-size="10.00" fill="#000000">iop/hdd/pfs/src/pfs</text>
<text text-anchor="middle" x="3506.5" y="-7.5" font-family="Helvetica,sans-Serif" font-size="10.00" fill="#000000">_fioctl.c</text>
</a>
</g>
</g>
<!-- Node1&#45;&gt;Node29 -->
<g id="edge28" class="edge">
<title>Node1&#45;&gt;Node29</title>
<path fill="none" stroke="#191970" d="M2589.5283,-80.5453C2767.7205,-74.687 3278.9313,-56.1148 3444.5,-31 3447.3521,-30.5674 3450.2644,-30.0627 3453.1953,-29.5052"/>
<polygon fill="#191970" stroke="#191970" points="2589.4125,-77.0471 2579.5322,-80.872 2589.6413,-84.0433 2589.4125,-77.0471"/>
</g>
<!-- Node30 -->
<g id="node30" class="node">
<title>Node30</title>
<g id="a_node30"><a xlink:href="iLink_2IEEE1394__disk_2src_2fs__driver_8c.html" target="_top" xlink:title=" ">
<polygon fill="#ffffff" stroke="#000000" points="3578,-.5 3578,-30.5 3691,-30.5 3691,-.5 3578,-.5"/>
<text text-anchor="start" x="3586" y="-18.5" font-family="Helvetica,sans-Serif" font-size="10.00" fill="#000000">iop/iLink/IEEE1394</text>
<text text-anchor="middle" x="3634.5" y="-7.5" font-family="Helvetica,sans-Serif" font-size="10.00" fill="#000000">_disk/src/fs_driver.c</text>
</a>
</g>
</g>
<!-- Node1&#45;&gt;Node30 -->
<g id="edge29" class="edge">
<title>Node1&#45;&gt;Node30</title>
<path fill="none" stroke="#191970" d="M2589.757,-80.9016C2784.0703,-75.6793 3377.7287,-57.8936 3568.5,-31 3571.5303,-30.5728 3574.6258,-30.0725 3577.7421,-29.5184"/>
<polygon fill="#191970" stroke="#191970" points="2589.6177,-77.404 2579.7148,-81.1699 2589.8047,-84.4015 2589.6177,-77.404"/>
</g>
<!-- Node31 -->
<g id="node31" class="node">
<title>Node31</title>
<g id="a_node31"><a xlink:href="smb__fio_8c.html" target="_top" xlink:title=" ">
<polygon fill="#ffffff" stroke="#000000" points="3709.5,-.5 3709.5,-30.5 3829.5,-30.5 3829.5,-.5 3709.5,-.5"/>
<text text-anchor="start" x="3717.5" y="-18.5" font-family="Helvetica,sans-Serif" font-size="10.00" fill="#000000">iop/network/smbman</text>
<text text-anchor="middle" x="3769.5" y="-7.5" font-family="Helvetica,sans-Serif" font-size="10.00" fill="#000000">/src/smb_fio.c</text>
</a>
</g>
</g>
<!-- Node1&#45;&gt;Node31 -->
<g id="edge30" class="edge">
<title>Node1&#45;&gt;Node31</title>
<path fill="none" stroke="#191970" d="M2589.9756,-81.2176C2800.4806,-76.668 3482.7962,-59.9987 3700.5,-31 3703.4208,-30.6109 3706.4005,-30.1586 3709.4022,-29.6582"/>
<polygon fill="#191970" stroke="#191970" points="2589.6449,-77.7238 2579.7224,-81.4377 2589.7952,-84.7222 2589.6449,-77.7238"/>
</g>
<!-- Node32 -->
<g id="node32" class="node">
<title>Node32</title>
<g id="a_node32"><a xlink:href="smbman_8c.html" target="_top" xlink:title=" ">
<polygon fill="#ffffff" stroke="#000000" points="3847.5,-.5 3847.5,-30.5 3967.5,-30.5 3967.5,-.5 3847.5,-.5"/>
<text text-anchor="start" x="3855.5" y="-18.5" font-family="Helvetica,sans-Serif" font-size="10.00" fill="#000000">iop/network/smbman</text>
<text text-anchor="middle" x="3907.5" y="-7.5" font-family="Helvetica,sans-Serif" font-size="10.00" fill="#000000">/src/smbman.c</text>
</a>
</g>
</g>
<!-- Node1&#45;&gt;Node32 -->
<g id="edge31" class="edge">
<title>Node1&#45;&gt;Node32</title>
<path fill="none" stroke="#191970" d="M2589.6175,-81.5571C2815.4381,-77.8959 3592.4307,-63.1995 3838.5,-31 3841.4217,-30.6177 3844.4021,-30.1708 3847.4044,-29.6749"/>
<polygon fill="#191970" stroke="#191970" points="2589.5423,-78.0577 2579.5999,-81.7181 2589.6549,-85.0568 2589.5423,-78.0577"/>
</g>
<!-- Node33 -->
<g id="node33" class="node">
<title>Node33</title>
<g id="a_node33"><a xlink:href="ioman__sbv_8c.html" target="_top" xlink:title=" ">
<polygon fill="#ffffff" stroke="#000000" points="3985.5,-.5 3985.5,-30.5 4113.5,-30.5 4113.5,-.5 3985.5,-.5"/>
<text text-anchor="start" x="3993.5" y="-18.5" font-family="Helvetica,sans-Serif" font-size="10.00" fill="#000000">iop/system/iomanx/src</text>
<text text-anchor="middle" x="4049.5" y="-7.5" font-family="Helvetica,sans-Serif" font-size="10.00" fill="#000000">/ioman_sbv.c</text>
</a>
</g>
</g>
<!-- Node1&#45;&gt;Node33 -->
<g id="edge32" class="edge">
<title>Node1&#45;&gt;Node33</title>
<path fill="none" stroke="#191970" d="M2589.9756,-81.7247C2831.1968,-78.507 3702.0103,-64.7591 3976.5,-31 3979.329,-30.6521 3982.211,-30.2495 3985.1158,-29.8041"/>
<polygon fill="#191970" stroke="#191970" points="2589.5918,-78.2294 2579.6389,-81.8613 2589.6843,-85.2288 2589.5918,-78.2294"/>
</g>
<!-- Node34 -->
<g id="node34" class="node">
<title>Node34</title>
<g id="a_node34"><a xlink:href="iomanX_8c.html" target="_top" xlink:title=" ">
<polygon fill="#ffffff" stroke="#000000" points="4131.5,-.5 4131.5,-30.5 4259.5,-30.5 4259.5,-.5 4131.5,-.5"/>
<text text-anchor="start" x="4139.5" y="-18.5" font-family="Helvetica,sans-Serif" font-size="10.00" fill="#000000">iop/system/iomanx/src</text>
<text text-anchor="middle" x="4195.5" y="-7.5" font-family="Helvetica,sans-Serif" font-size="10.00" fill="#000000">/iomanX.c</text>
</a>
</g>
</g>
<!-- Node1&#45;&gt;Node34 -->
<g id="edge33" class="edge">
<title>Node1&#45;&gt;Node34</title>
<path fill="none" stroke="#191970" d="M2589.8127,-81.9617C2845.8609,-79.5221 3817.8227,-67.9694 4122.5,-31 4125.3296,-30.6567 4128.212,-30.2579 4131.1172,-29.8157"/>
<polygon fill="#191970" stroke="#191970" points="2589.5481,-78.4639 2579.5815,-82.0579 2589.614,-85.4636 2589.5481,-78.4639"/>
</g>
<!-- Node35 -->
<g id="node35" class="node">
<title>Node35</title>
<g id="a_node35"><a xlink:href="commandline_8c.html" target="_top" xlink:title=" ">
<polygon fill="#ffffff" stroke="#000000" points="4278,-.5 4278,-30.5 4403,-30.5 4403,-.5 4278,-.5"/>
<text text-anchor="start" x="4286" y="-18.5" font-family="Helvetica,sans-Serif" font-size="10.00" fill="#000000">iop/system/iopmgr/src</text>
<text text-anchor="middle" x="4340.5" y="-7.5" font-family="Helvetica,sans-Serif" font-size="10.00" fill="#000000">/commandline.c</text>
</a>
</g>
</g>
<!-- Node1&#45;&gt;Node35 -->
<g id="edge34" class="edge">
<title>Node1&#45;&gt;Node35</title>
<path fill="none" stroke="#191970" d="M2589.6697,-82.1817C2859.871,-80.5645 3933.597,-71.6566 4268.5,-31 4271.5464,-30.6302 4274.6543,-30.1935 4277.7856,-29.7057"/>
<polygon fill="#191970" stroke="#191970" points="2589.6276,-78.6818 2579.6483,-82.2406 2589.6687,-85.6817 2589.6276,-78.6818"/>
</g>
<!-- Node36 -->
<g id="node36" class="node">
<title>Node36</title>
<g id="a_node36"><a xlink:href="devices_8c.html" target="_top" xlink:title=" ">
<polygon fill="#ffffff" stroke="#000000" points="4421,-.5 4421,-30.5 4546,-30.5 4546,-.5 4421,-.5"/>
<text text-anchor="start" x="4429" y="-18.5" font-family="Helvetica,sans-Serif" font-size="10.00" fill="#000000">iop/system/iopmgr/src</text>
<text text-anchor="middle" x="4483.5" y="-7.5" font-family="Helvetica,sans-Serif" font-size="10.00" fill="#000000">/devices.c</text>
</a>
</g>
</g>
<!-- Node1&#45;&gt;Node36 -->
<g id="edge35" class="edge">
<title>Node1&#45;&gt;Node36</title>
<path fill="none" stroke="#191970" d="M2589.618,-82.3693C2873.3258,-81.5319 4047.7485,-75.3982 4412.5,-31 4415.2553,-30.6646 4418.0615,-30.2724 4420.8893,-29.8356"/>
<polygon fill="#191970" stroke="#191970" points="2589.5012,-78.8695 2579.5112,-82.3979 2589.5211,-85.8695 2589.5012,-78.8695"/>
</g>
<!-- Node37 -->
<g id="node37" class="node">
<title>Node37</title>
<g id="a_node37"><a xlink:href="system_2iopmgr_2src_2main_8c.html" target="_top" xlink:title=" ">
<polygon fill="#ffffff" stroke="#000000" points="4564,-.5 4564,-30.5 4689,-30.5 4689,-.5 4564,-.5"/>
<text text-anchor="start" x="4572" y="-18.5" font-family="Helvetica,sans-Serif" font-size="10.00" fill="#000000">iop/system/iopmgr/src</text>
<text text-anchor="middle" x="4626.5" y="-7.5" font-family="Helvetica,sans-Serif" font-size="10.00" fill="#000000">/main.c</text>
</a>
</g>
</g>
<!-- Node1&#45;&gt;Node37 -->
<g id="edge36" class="edge">
<title>Node1&#45;&gt;Node37</title>
<path fill="none" stroke="#191970" d="M2589.7906,-81.6219C2909.2601,-77.0236 4356.6069,-55.0154 4555.5,-31 4558.2557,-30.6673 4561.062,-30.2773 4563.8901,-29.8423"/>
<polygon fill="#191970" stroke="#191970" points="2589.7341,-78.1222 2579.7854,-81.7655 2589.8347,-85.1215 2589.7341,-78.1222"/>
</g>
<!-- Node38 -->
<g id="node38" class="node">
<title>Node38</title>
<g id="a_node38"><a xlink:href="usb_2mouse_2src_2irx__imports_8h.html" target="_top" xlink:title=" ">
<polygon fill="#ffffff" stroke="#000000" points="4707,-.5 4707,-30.5 4828,-30.5 4828,-.5 4707,-.5"/>
<text text-anchor="start" x="4715" y="-18.5" font-family="Helvetica,sans-Serif" font-size="10.00" fill="#000000">iop/usb/mouse/src/irx</text>
<text text-anchor="middle" x="4767.5" y="-7.5" font-family="Helvetica,sans-Serif" font-size="10.00" fill="#000000">_imports.h</text>
</a>
</g>
</g>
<!-- Node1&#45;&gt;Node38 -->
<g id="edge37" class="edge">
<title>Node1&#45;&gt;Node38</title>
<path fill="none" stroke="#191970" d="M2590.0635,-81.7524C2923.54,-77.6689 4484.78,-57.2785 4698.5,-31 4701.1809,-30.6704 4703.9106,-30.2829 4706.6609,-29.85"/>
<polygon fill="#191970" stroke="#191970" points="2589.5941,-78.2578 2579.6376,-81.8796 2589.6796,-85.2573 2589.5941,-78.2578"/>
</g>
<!-- Node39 -->
<g id="node39" class="node">
<title>Node39</title>
<g id="a_node39"><a xlink:href="ps2mouse_8c.html" target="_top" xlink:title=" ">
<polygon fill="#ffffff" stroke="#000000" points="4846,-6 4846,-25 5013,-25 5013,-6 4846,-6"/>
<text text-anchor="middle" x="4929.5" y="-13" font-family="Helvetica,sans-Serif" font-size="10.00" fill="#000000">iop/usb/mouse/src/ps2mouse.c</text>
</a>
</g>
</g>
<!-- Node1&#45;&gt;Node39 -->
<g id="edge38" class="edge">
<title>Node1&#45;&gt;Node39</title>
<path fill="none" stroke="#191970" d="M2590.001,-82.3303C2911.6836,-81.2702 4383.1835,-74.1073 4837.5,-31 4851.6899,-29.6536 4866.9954,-27.4013 4880.9727,-25.025"/>
<polygon fill="#191970" stroke="#191970" points="2589.9198,-78.8304 2579.9312,-82.3627 2589.9424,-85.8304 2589.9198,-78.8304"/>
</g>
<!-- Node40 -->
<g id="node40" class="node">
<title>Node40</title>
<g id="a_node40"><a xlink:href="usb_2usbhdfsd_2src_2fs__driver_8c.html" target="_top" xlink:title=" ">
<polygon fill="#ffffff" stroke="#000000" points="5030.5,-.5 5030.5,-30.5 5146.5,-30.5 5146.5,-.5 5030.5,-.5"/>
<text text-anchor="start" x="5038.5" y="-18.5" font-family="Helvetica,sans-Serif" font-size="10.00" fill="#000000">iop/usb/usbhdfsd/src</text>
<text text-anchor="middle" x="5088.5" y="-7.5" font-family="Helvetica,sans-Serif" font-size="10.00" fill="#000000">/fs_driver.c</text>
</a>
</g>
</g>
<!-- Node1&#45;&gt;Node40 -->
<g id="edge39" class="edge">
<title>Node1&#45;&gt;Node40</title>
<path fill="none" stroke="#191970" d="M2589.5935,-81.9991C2950.8939,-78.9804 4774.837,-62.2845 5022.5,-31 5025.069,-30.6755 5027.6839,-30.2923 5030.3178,-29.8629"/>
<polygon fill="#191970" stroke="#191970" points="2589.5527,-78.4992 2579.5822,-82.0823 2589.611,-85.499 2589.5527,-78.4992"/>
</g>
</g>
</svg>
