<?xml version="1.0" encoding="UTF-8" standalone="no"?>
<!DOCTYPE svg PUBLIC "-//W3C//DTD SVG 1.1//EN"
 "http://www.w3.org/Graphics/SVG/1.1/DTD/svg11.dtd">
<!-- Generated by graphviz version 2.40.1 (20161225.0304)
 -->
<!-- Title: iop/system/iopmgr/include/iopmgr.h Pages: 1 -->
<svg width="393pt" height="263pt"
 viewBox="0.00 0.00 393.00 263.00" xmlns="http://www.w3.org/2000/svg" xmlns:xlink="http://www.w3.org/1999/xlink">
<g id="graph0" class="graph" transform="scale(1 1) rotate(0) translate(4 259)">
<title>iop/system/iopmgr/include/iopmgr.h</title>
<polygon fill="#ffffff" stroke="transparent" points="-4,4 -4,-259 389,-259 389,4 -4,4"/>
<!-- Node1 -->
<g id="node1" class="node">
<title>Node1</title>
<g id="a_node1"><a xlink:title=" ">
<polygon fill="#bfbfbf" stroke="#000000" points="63.5,-224.5 63.5,-254.5 209.5,-254.5 209.5,-224.5 63.5,-224.5"/>
<text text-anchor="start" x="71.5" y="-242.5" font-family="Helvetica,sans-Serif" font-size="10.00" fill="#000000">iop/system/iopmgr/include</text>
<text text-anchor="middle" x="136.5" y="-231.5" font-family="Helvetica,sans-Serif" font-size="10.00" fill="#000000">/iopmgr.h</text>
</a>
</g>
</g>
<!-- Node2 -->
<g id="node2" class="node">
<title>Node2</title>
<g id="a_node2"><a xlink:title=" ">
<polygon fill="#ffffff" stroke="#bfbfbf" points="0,-168.5 0,-187.5 53,-187.5 53,-168.5 0,-168.5"/>
<text text-anchor="middle" x="26.5" y="-175.5" font-family="Helvetica,sans-Serif" font-size="10.00" fill="#000000">types.h</text>
</a>
</g>
</g>
<!-- Node1&#45;&gt;Node2 -->
<g id="edge1" class="edge">
<title>Node1&#45;&gt;Node2</title>
<path fill="none" stroke="#191970" d="M109.591,-224.4554C92.2032,-214.734 69.6951,-202.15 52.4916,-192.5317"/>
<polygon fill="#191970" stroke="#191970" points="53.9826,-189.3554 43.5461,-187.5303 50.5665,-195.4653 53.9826,-189.3554"/>
</g>
<!-- Node3 -->
<g id="node3" class="node">
<title>Node3</title>
<g id="a_node3"><a xlink:href="irx_8h.html" target="_top" xlink:title=" ">
<polygon fill="#ffffff" stroke="#000000" points="144.5,-112.5 144.5,-131.5 182.5,-131.5 182.5,-112.5 144.5,-112.5"/>
<text text-anchor="middle" x="163.5" y="-119.5" font-family="Helvetica,sans-Serif" font-size="10.00" fill="#000000">irx.h</text>
</a>
</g>
</g>
<!-- Node1&#45;&gt;Node3 -->
<g id="edge2" class="edge">
<title>Node1&#45;&gt;Node3</title>
<path fill="none" stroke="#191970" d="M140.0924,-224.1814C142.4881,-213.9416 145.6998,-200.1674 148.5,-188 152.0825,-172.4335 156.0898,-154.789 159.0607,-141.6626"/>
<polygon fill="#191970" stroke="#191970" points="162.4891,-142.3695 161.2804,-131.8438 155.6614,-140.8259 162.4891,-142.3695"/>
</g>
<!-- Node7 -->
<g id="node7" class="node">
<title>Node7</title>
<g id="a_node7"><a xlink:href="ioman_8h.html" target="_top" xlink:title=" ">
<polygon fill="#ffffff" stroke="#000000" points="195.5,-168.5 195.5,-187.5 251.5,-187.5 251.5,-168.5 195.5,-168.5"/>
<text text-anchor="middle" x="223.5" y="-175.5" font-family="Helvetica,sans-Serif" font-size="10.00" fill="#000000">ioman.h</text>
</a>
</g>
</g>
<!-- Node1&#45;&gt;Node7 -->
<g id="edge6" class="edge">
<title>Node1&#45;&gt;Node7</title>
<path fill="none" stroke="#191970" d="M158.0056,-224.2977C171.2968,-214.9022 188.3057,-202.8787 201.6588,-193.4395"/>
<polygon fill="#191970" stroke="#191970" points="203.6846,-196.2937 209.83,-187.6633 199.6439,-190.5776 203.6846,-196.2937"/>
</g>
<!-- Node11 -->
<g id="node11" class="node">
<title>Node11</title>
<g id="a_node11"><a xlink:href="loadcore_8h.html" target="_top" xlink:title=" ">
<polygon fill="#ffffff" stroke="#000000" points="71.5,-168.5 71.5,-187.5 139.5,-187.5 139.5,-168.5 71.5,-168.5"/>
<text text-anchor="middle" x="105.5" y="-175.5" font-family="Helvetica,sans-Serif" font-size="10.00" fill="#000000">loadcore.h</text>
</a>
</g>
</g>
<!-- Node1&#45;&gt;Node11 -->
<g id="edge12" class="edge">
<title>Node1&#45;&gt;Node11</title>
<path fill="none" stroke="#191970" d="M128.8371,-224.2977C124.6684,-216.0277 119.4735,-205.7215 115.0439,-196.9339"/>
<polygon fill="#191970" stroke="#191970" points="118.0901,-195.2012 110.4635,-187.8469 111.8393,-198.3521 118.0901,-195.2012"/>
</g>
<!-- Node4 -->
<g id="node4" class="node">
<title>Node4</title>
<g id="a_node4"><a xlink:href="types_8h.html" target="_top" xlink:title=" ">
<polygon fill="#ffffff" stroke="#000000" points="137,-56.5 137,-75.5 190,-75.5 190,-56.5 137,-56.5"/>
<text text-anchor="middle" x="163.5" y="-63.5" font-family="Helvetica,sans-Serif" font-size="10.00" fill="#000000">types.h</text>
</a>
</g>
</g>
<!-- Node3&#45;&gt;Node4 -->
<g id="edge3" class="edge">
<title>Node3&#45;&gt;Node4</title>
<path fill="none" stroke="#191970" d="M163.5,-112.2455C163.5,-104.9382 163.5,-94.6944 163.5,-85.7046"/>
<polygon fill="#191970" stroke="#191970" points="167.0001,-85.6426 163.5,-75.6427 160.0001,-85.6427 167.0001,-85.6426"/>
</g>
<!-- Node5 -->
<g id="node5" class="node">
<title>Node5</title>
<g id="a_node5"><a xlink:title=" ">
<polygon fill="#ffffff" stroke="#bfbfbf" points="94.5,-.5 94.5,-19.5 150.5,-19.5 150.5,-.5 94.5,-.5"/>
<text text-anchor="middle" x="122.5" y="-7.5" font-family="Helvetica,sans-Serif" font-size="10.00" fill="#000000">stddef.h</text>
</a>
</g>
</g>
<!-- Node4&#45;&gt;Node5 -->
<g id="edge4" class="edge">
<title>Node4&#45;&gt;Node5</title>
<path fill="none" stroke="#191970" d="M156.3583,-56.2455C150.6556,-48.4564 142.51,-37.3308 135.6375,-27.9439"/>
<polygon fill="#191970" stroke="#191970" points="138.2913,-25.6437 129.5598,-19.6427 132.6432,-29.7789 138.2913,-25.6437"/>
</g>
<!-- Node6 -->
<g id="node6" class="node">
<title>Node6</title>
<g id="a_node6"><a xlink:href="tamtypes_8h.html" target="_top" xlink:title=" ">
<polygon fill="#ffffff" stroke="#000000" points="168.5,-.5 168.5,-19.5 240.5,-19.5 240.5,-.5 168.5,-.5"/>
<text text-anchor="middle" x="204.5" y="-7.5" font-family="Helvetica,sans-Serif" font-size="10.00" fill="#000000">tamtypes.h</text>
</a>
</g>
</g>
<!-- Node4&#45;&gt;Node6 -->
<g id="edge5" class="edge">
<title>Node4&#45;&gt;Node6</title>
<path fill="none" stroke="#191970" d="M170.6417,-56.2455C176.3444,-48.4564 184.49,-37.3308 191.3625,-27.9439"/>
<polygon fill="#191970" stroke="#191970" points="194.3568,-29.7789 197.4402,-19.6427 188.7087,-25.6437 194.3568,-29.7789"/>
</g>
<!-- Node7&#45;&gt;Node3 -->
<g id="edge8" class="edge">
<title>Node7&#45;&gt;Node3</title>
<path fill="none" stroke="#191970" d="M213.0488,-168.2455C204.2731,-160.0549 191.5446,-148.1749 181.186,-138.5069"/>
<polygon fill="#191970" stroke="#191970" points="183.5301,-135.9072 173.8314,-131.6427 178.7539,-141.0246 183.5301,-135.9072"/>
</g>
<!-- Node7&#45;&gt;Node4 -->
<g id="edge7" class="edge">
<title>Node7&#45;&gt;Node4</title>
<path fill="none" stroke="#191970" d="M219.221,-168.4574C213.3298,-155.494 202.2276,-131.6778 191.5,-112 186.4278,-102.696 180.3583,-92.6134 175.1688,-84.2656"/>
<polygon fill="#191970" stroke="#191970" points="178.0734,-82.3096 169.7838,-75.7116 172.1495,-86.039 178.0734,-82.3096"/>
</g>
<!-- Node8 -->
<g id="node8" class="node">
<title>Node8</title>
<g id="a_node8"><a xlink:href="io__common_8h.html" target="_top" xlink:title=" ">
<polygon fill="#ffffff" stroke="#000000" points="239,-112.5 239,-131.5 322,-131.5 322,-112.5 239,-112.5"/>
<text text-anchor="middle" x="280.5" y="-119.5" font-family="Helvetica,sans-Serif" font-size="10.00" fill="#000000">io_common.h</text>
</a>
</g>
</g>
<!-- Node7&#45;&gt;Node8 -->
<g id="edge9" class="edge">
<title>Node7&#45;&gt;Node8</title>
<path fill="none" stroke="#191970" d="M233.4286,-168.2455C241.6838,-160.1352 253.6209,-148.4075 263.4082,-138.7919"/>
<polygon fill="#191970" stroke="#191970" points="266.0046,-141.1476 270.6851,-131.6427 261.0989,-136.1542 266.0046,-141.1476"/>
</g>
<!-- Node9 -->
<g id="node9" class="node">
<title>Node9</title>
<g id="a_node9"><a xlink:href="fcntl_8h.html" target="_top" xlink:title=" ">
<polygon fill="#ffffff" stroke="#000000" points="318,-56.5 318,-75.5 385,-75.5 385,-56.5 318,-56.5"/>
<text text-anchor="middle" x="351.5" y="-63.5" font-family="Helvetica,sans-Serif" font-size="10.00" fill="#000000">sys/fcntl.h</text>
</a>
</g>
</g>
<!-- Node8&#45;&gt;Node9 -->
<g id="edge10" class="edge">
<title>Node8&#45;&gt;Node9</title>
<path fill="none" stroke="#191970" d="M292.8673,-112.2455C303.4554,-103.8943 318.9064,-91.7076 331.2893,-81.9408"/>
<polygon fill="#191970" stroke="#191970" points="333.5903,-84.5837 339.2745,-75.6427 329.2553,-79.0875 333.5903,-84.5837"/>
</g>
<!-- Node10 -->
<g id="node10" class="node">
<title>Node10</title>
<g id="a_node10"><a xlink:href="unistd_8h.html" target="_top" xlink:title=" ">
<polygon fill="#ffffff" stroke="#000000" points="225,-56.5 225,-75.5 300,-75.5 300,-56.5 225,-56.5"/>
<text text-anchor="middle" x="262.5" y="-63.5" font-family="Helvetica,sans-Serif" font-size="10.00" fill="#000000">sys/unistd.h</text>
</a>
</g>
</g>
<!-- Node8&#45;&gt;Node10 -->
<g id="edge11" class="edge">
<title>Node8&#45;&gt;Node10</title>
<path fill="none" stroke="#191970" d="M277.3646,-112.2455C274.99,-104.8579 271.6507,-94.4689 268.7385,-85.4087"/>
<polygon fill="#191970" stroke="#191970" points="271.9917,-84.0919 265.5994,-75.6427 265.3275,-86.234 271.9917,-84.0919"/>
</g>
<!-- Node11&#45;&gt;Node3 -->
<g id="edge14" class="edge">
<title>Node11&#45;&gt;Node3</title>
<path fill="none" stroke="#191970" d="M115.6028,-168.2455C124.0028,-160.1352 136.1494,-148.4075 146.1084,-138.7919"/>
<polygon fill="#191970" stroke="#191970" points="148.75,-141.1066 153.5129,-131.6427 143.8878,-136.0707 148.75,-141.1066"/>
</g>
<!-- Node11&#45;&gt;Node4 -->
<g id="edge13" class="edge">
<title>Node11&#45;&gt;Node4</title>
<path fill="none" stroke="#191970" d="M109.4226,-168.4287C114.8447,-155.4327 125.139,-131.5799 135.5,-112 140.4563,-102.6337 146.5126,-92.5441 151.7232,-84.2076"/>
<polygon fill="#191970" stroke="#191970" points="154.7371,-85.9904 157.1432,-75.6724 148.8279,-82.2379 154.7371,-85.9904"/>
</g>
</g>
</svg>
