<?xml version="1.0" encoding="UTF-8" standalone="no"?>
<!DOCTYPE svg PUBLIC "-//W3C//DTD SVG 1.1//EN"
 "http://www.w3.org/Graphics/SVG/1.1/DTD/svg11.dtd">
<!-- Generated by graphviz version 2.40.1 (20161225.0304)
 -->
<!-- Title: iop/debug/ioptrap/src/ioptrap.c Pages: 1 -->
<!--zoomable 263 -->
<svg id="main" version="1.1" xmlns="http://www.w3.org/2000/svg" xmlns:xlink="http://www.w3.org/1999/xlink" xml:space="preserve" onload="init(evt)">
<style type="text/css"><![CDATA[
.edge:hover path { stroke: red; }
.edge:hover polygon { stroke: red; fill: red; }
]]></style>
<script type="text/javascript"><![CDATA[
var edges = document.getElementsByTagName('g');
if (edges && edges.length) {
  for (var i=0;i<edges.length;i++) {
    if (edges[i].id.substr(0,4)=='edge') {
      edges[i].setAttribute('class','edge');
    }
  }
}
]]></script>
        <defs>
                <circle id="rim" cx="0" cy="0" r="7"/>
                <circle id="rim2" cx="0" cy="0" r="3.5"/>
                <g id="zoomPlus">
                        <use xlink:href="#rim" fill="#404040">
                                <set attributeName="fill" to="#808080" begin="zoomplus.mouseover" end="zoomplus.mouseout"/>
                        </use>
                        <path d="M-4,0h8M0,-4v8" fill="none" stroke="white" stroke-width="1.5" pointer-events="none"/>
                </g>
                <g id="zoomMin">
                        <use xlink:href="#rim" fill="#404040">
                                <set attributeName="fill" to="#808080" begin="zoomminus.mouseover" end="zoomminus.mouseout"/>
                        </use>
                        <path d="M-4,0h8" fill="none" stroke="white" stroke-width="1.5" pointer-events="none"/>
                </g>
                <g id="dirArrow">
                        <path fill="none" stroke="white" stroke-width="1.5" d="M0,-3.0v7 M-2.5,-0.5L0,-3.0L2.5,-0.5"/>
                </g>
               <g id="resetDef">
                       <use xlink:href="#rim2" fill="#404040">
                               <set attributeName="fill" to="#808080" begin="reset.mouseover" end="reset.mouseout"/>
                       </use>
               </g>
        </defs>

<script type="text/javascript">
var viewWidth = 745;
var viewHeight = 263;
var sectionId = 'dynsection-0';
</script>
<script xlink:href="svgpan.js"/>
<svg id="graph" class="graph">
<g id="viewport">
<title>iop/debug/ioptrap/src/ioptrap.c</title>
<polygon fill="#ffffff" stroke="transparent" points="-4,4 -4,-259 741,-259 741,4 -4,4"/>
<!-- Node1 -->
<g id="node1" class="node">
<title>Node1</title>
<g id="a_node1"><a xlink:title=" ">
<polygon fill="#bfbfbf" stroke="#000000" points="304,-224.5 304,-254.5 423,-254.5 423,-224.5 304,-224.5"/>
<text text-anchor="start" x="312" y="-242.5" font-family="Helvetica,sans-Serif" font-size="10.00" fill="#000000">iop/debug/ioptrap/src</text>
<text text-anchor="middle" x="363.5" y="-231.5" font-family="Helvetica,sans-Serif" font-size="10.00" fill="#000000">/ioptrap.c</text>
</a>
</g>
</g>
<!-- Node2 -->
<g id="node2" class="node">
<title>Node2</title>
<g id="a_node2"><a xlink:title=" ">
<polygon fill="#ffffff" stroke="#bfbfbf" points="0,-112.5 0,-131.5 53,-131.5 53,-112.5 0,-112.5"/>
<text text-anchor="middle" x="26.5" y="-119.5" font-family="Helvetica,sans-Serif" font-size="10.00" fill="#000000">types.h</text>
</a>
</g>
</g>
<!-- Node1&#45;&gt;Node2 -->
<g id="edge1" class="edge">
<title>Node1&#45;&gt;Node2</title>
<path fill="none" stroke="#191970" d="M303.6235,-234.8321C209.3248,-226.8671 34.9721,-209.4159 16.5,-188 5.4298,-175.1656 10.2719,-155.455 16.4582,-140.9136"/>
<polygon fill="#191970" stroke="#191970" points="19.6483,-142.3549 20.7768,-131.8203 13.3252,-139.3519 19.6483,-142.3549"/>
</g>
<!-- Node3 -->
<g id="node3" class="node">
<title>Node3</title>
<g id="a_node3"><a xlink:href="defs_8h.html" target="_top" xlink:title=" ">
<polygon fill="#ffffff" stroke="#000000" points="690,-112.5 690,-131.5 737,-131.5 737,-112.5 690,-112.5"/>
<text text-anchor="middle" x="713.5" y="-119.5" font-family="Helvetica,sans-Serif" font-size="10.00" fill="#000000">defs.h</text>
</a>
</g>
</g>
<!-- Node1&#45;&gt;Node3 -->
<g id="edge2" class="edge">
<title>Node1&#45;&gt;Node3</title>
<path fill="none" stroke="#191970" d="M423.0978,-237.9531C507.8747,-234.5102 657.3721,-223.4462 696.5,-188 709.2179,-176.4787 712.9819,-156.8287 713.8555,-141.9581"/>
<polygon fill="#191970" stroke="#191970" points="717.3592,-141.8 714.0605,-131.7319 710.3607,-141.6597 717.3592,-141.8"/>
</g>
<!-- Node7 -->
<g id="node7" class="node">
<title>Node7</title>
<g id="a_node7"><a xlink:href="irx_8h.html" target="_top" xlink:title=" ">
<polygon fill="#ffffff" stroke="#000000" points="352.5,-112.5 352.5,-131.5 390.5,-131.5 390.5,-112.5 352.5,-112.5"/>
<text text-anchor="middle" x="371.5" y="-119.5" font-family="Helvetica,sans-Serif" font-size="10.00" fill="#000000">irx.h</text>
</a>
</g>
</g>
<!-- Node1&#45;&gt;Node7 -->
<g id="edge6" class="edge">
<title>Node1&#45;&gt;Node7</title>
<path fill="none" stroke="#191970" d="M364.5459,-224.1389C365.9872,-202.9692 368.5848,-164.8174 370.1648,-141.6112"/>
<polygon fill="#191970" stroke="#191970" points="373.6617,-141.7742 370.8491,-131.5595 366.6779,-141.2986 373.6617,-141.7742"/>
</g>
<!-- Node8 -->
<g id="node8" class="node">
<title>Node8</title>
<g id="a_node8"><a xlink:href="ioptrap_8h.html" target="_top" xlink:title=" ">
<polygon fill="#ffffff" stroke="#000000" points="25.5,-168.5 25.5,-187.5 85.5,-187.5 85.5,-168.5 25.5,-168.5"/>
<text text-anchor="middle" x="55.5" y="-175.5" font-family="Helvetica,sans-Serif" font-size="10.00" fill="#000000">ioptrap.h</text>
</a>
</g>
</g>
<!-- Node1&#45;&gt;Node8 -->
<g id="edge8" class="edge">
<title>Node1&#45;&gt;Node8</title>
<path fill="none" stroke="#191970" d="M303.9818,-229.1958C251.5694,-219.8741 172.9639,-205.2946 95.606,-188.1508"/>
<polygon fill="#191970" stroke="#191970" points="96.2116,-184.6999 85.6892,-185.9373 94.6865,-191.5318 96.2116,-184.6999"/>
</g>
<!-- Node9 -->
<g id="node9" class="node">
<title>Node9</title>
<g id="a_node9"><a xlink:href="excepman_8h.html" target="_top" xlink:title=" ">
<polygon fill="#ffffff" stroke="#000000" points="258,-168.5 258,-187.5 335,-187.5 335,-168.5 258,-168.5"/>
<text text-anchor="middle" x="296.5" y="-175.5" font-family="Helvetica,sans-Serif" font-size="10.00" fill="#000000">excepman.h</text>
</a>
</g>
</g>
<!-- Node1&#45;&gt;Node9 -->
<g id="edge11" class="edge">
<title>Node1&#45;&gt;Node9</title>
<path fill="none" stroke="#191970" d="M346.9382,-224.2977C337.1535,-215.3163 324.7526,-203.9334 314.6957,-194.702"/>
<polygon fill="#191970" stroke="#191970" points="316.9613,-192.0307 307.2275,-187.8469 312.2278,-197.1876 316.9613,-192.0307"/>
</g>
<!-- Node10 -->
<g id="node10" class="node">
<title>Node10</title>
<g id="a_node10"><a xlink:href="loadcore_8h.html" target="_top" xlink:title=" ">
<polygon fill="#ffffff" stroke="#000000" points="391.5,-168.5 391.5,-187.5 459.5,-187.5 459.5,-168.5 391.5,-168.5"/>
<text text-anchor="middle" x="425.5" y="-175.5" font-family="Helvetica,sans-Serif" font-size="10.00" fill="#000000">loadcore.h</text>
</a>
</g>
</g>
<!-- Node1&#45;&gt;Node10 -->
<g id="edge14" class="edge">
<title>Node1&#45;&gt;Node10</title>
<path fill="none" stroke="#191970" d="M378.8258,-224.2977C387.7907,-215.4052 399.1288,-204.1586 408.3851,-194.9769"/>
<polygon fill="#191970" stroke="#191970" points="410.9382,-197.3742 415.573,-187.8469 406.0085,-192.4045 410.9382,-197.3742"/>
</g>
<!-- Node11 -->
<g id="node11" class="node">
<title>Node11</title>
<g id="a_node11"><a xlink:href="intrman_8h.html" target="_top" xlink:title=" ">
<polygon fill="#ffffff" stroke="#000000" points="477.5,-168.5 477.5,-187.5 541.5,-187.5 541.5,-168.5 477.5,-168.5"/>
<text text-anchor="middle" x="509.5" y="-175.5" font-family="Helvetica,sans-Serif" font-size="10.00" fill="#000000">intrman.h</text>
</a>
</g>
</g>
<!-- Node1&#45;&gt;Node11 -->
<g id="edge17" class="edge">
<title>Node1&#45;&gt;Node11</title>
<path fill="none" stroke="#191970" d="M399.2156,-224.4554C423.1487,-214.374 454.3905,-201.2139 477.5094,-191.4755"/>
<polygon fill="#191970" stroke="#191970" points="479.0181,-194.6379 486.8752,-187.5303 476.3007,-188.1868 479.0181,-194.6379"/>
</g>
<!-- Node12 -->
<g id="node12" class="node">
<title>Node12</title>
<g id="a_node12"><a xlink:href="sifman_8h.html" target="_top" xlink:title=" ">
<polygon fill="#ffffff" stroke="#000000" points="104,-168.5 104,-187.5 163,-187.5 163,-168.5 104,-168.5"/>
<text text-anchor="middle" x="133.5" y="-175.5" font-family="Helvetica,sans-Serif" font-size="10.00" fill="#000000">sifman.h</text>
</a>
</g>
</g>
<!-- Node1&#45;&gt;Node12 -->
<g id="edge20" class="edge">
<title>Node1&#45;&gt;Node12</title>
<path fill="none" stroke="#191970" d="M307.2357,-224.4554C265.6616,-213.3389 210.088,-198.479 173.1085,-188.591"/>
<polygon fill="#191970" stroke="#191970" points="173.7633,-185.1432 163.1985,-185.9411 171.955,-191.9056 173.7633,-185.1432"/>
</g>
<!-- Node13 -->
<g id="node13" class="node">
<title>Node13</title>
<g id="a_node13"><a xlink:href="stdio_8h.html" target="_top" xlink:title=" ">
<polygon fill="#ffffff" stroke="#000000" points="559.5,-168.5 559.5,-187.5 609.5,-187.5 609.5,-168.5 559.5,-168.5"/>
<text text-anchor="middle" x="584.5" y="-175.5" font-family="Helvetica,sans-Serif" font-size="10.00" fill="#000000">stdio.h</text>
</a>
</g>
</g>
<!-- Node1&#45;&gt;Node13 -->
<g id="edge23" class="edge">
<title>Node1&#45;&gt;Node13</title>
<path fill="none" stroke="#191970" d="M419.2116,-224.428C454.1044,-214.9258 500.2512,-202.2462 549.3965,-188.2843"/>
<polygon fill="#191970" stroke="#191970" points="550.6036,-191.5798 559.2631,-185.4754 548.6869,-184.8473 550.6036,-191.5798"/>
</g>
<!-- Node15 -->
<g id="node15" class="node">
<title>Node15</title>
<g id="a_node15"><a xlink:href="sysclib_8h.html" target="_top" xlink:title=" ">
<polygon fill="#ffffff" stroke="#000000" points="628,-168.5 628,-187.5 687,-187.5 687,-168.5 628,-168.5"/>
<text text-anchor="middle" x="657.5" y="-175.5" font-family="Helvetica,sans-Serif" font-size="10.00" fill="#000000">sysclib.h</text>
</a>
</g>
</g>
<!-- Node1&#45;&gt;Node15 -->
<g id="edge26" class="edge">
<title>Node1&#45;&gt;Node15</title>
<path fill="none" stroke="#191970" d="M423.1974,-228.3486C472.7693,-218.8822 545.3487,-204.5472 617.951,-188.0392"/>
<polygon fill="#191970" stroke="#191970" points="618.7603,-191.4445 627.7281,-185.8027 617.1994,-184.6207 618.7603,-191.4445"/>
</g>
<!-- Node17 -->
<g id="node17" class="node">
<title>Node17</title>
<g id="a_node17"><a xlink:href="thbase_8h.html" target="_top" xlink:title=" ">
<polygon fill="#ffffff" stroke="#000000" points="181,-168.5 181,-187.5 240,-187.5 240,-168.5 181,-168.5"/>
<text text-anchor="middle" x="210.5" y="-175.5" font-family="Helvetica,sans-Serif" font-size="10.00" fill="#000000">thbase.h</text>
</a>
</g>
</g>
<!-- Node1&#45;&gt;Node17 -->
<g id="edge32" class="edge">
<title>Node1&#45;&gt;Node17</title>
<path fill="none" stroke="#191970" d="M326.072,-224.4554C300.8794,-214.329 267.9593,-201.0964 243.7004,-191.3453"/>
<polygon fill="#191970" stroke="#191970" points="244.7934,-188.0125 234.2096,-187.5303 242.1827,-194.5074 244.7934,-188.0125"/>
</g>
<!-- Node4 -->
<g id="node4" class="node">
<title>Node4</title>
<g id="a_node4"><a xlink:href="types_8h.html" target="_top" xlink:title=" ">
<polygon fill="#ffffff" stroke="#000000" points="399,-56.5 399,-75.5 452,-75.5 452,-56.5 399,-56.5"/>
<text text-anchor="middle" x="425.5" y="-63.5" font-family="Helvetica,sans-Serif" font-size="10.00" fill="#000000">types.h</text>
</a>
</g>
</g>
<!-- Node3&#45;&gt;Node4 -->
<g id="edge3" class="edge">
<title>Node3&#45;&gt;Node4</title>
<path fill="none" stroke="#191970" d="M689.9318,-117.4173C639.8725,-107.6835 522.6156,-84.8836 462.4873,-73.192"/>
<polygon fill="#191970" stroke="#191970" points="462.7857,-69.6845 452.3014,-71.2114 461.4495,-76.5558 462.7857,-69.6845"/>
</g>
<!-- Node5 -->
<g id="node5" class="node">
<title>Node5</title>
<g id="a_node5"><a xlink:title=" ">
<polygon fill="#ffffff" stroke="#bfbfbf" points="397.5,-.5 397.5,-19.5 453.5,-19.5 453.5,-.5 397.5,-.5"/>
<text text-anchor="middle" x="425.5" y="-7.5" font-family="Helvetica,sans-Serif" font-size="10.00" fill="#000000">stddef.h</text>
</a>
</g>
</g>
<!-- Node4&#45;&gt;Node5 -->
<g id="edge4" class="edge">
<title>Node4&#45;&gt;Node5</title>
<path fill="none" stroke="#191970" d="M425.5,-56.2455C425.5,-48.9382 425.5,-38.6944 425.5,-29.7046"/>
<polygon fill="#191970" stroke="#191970" points="429.0001,-29.6426 425.5,-19.6427 422.0001,-29.6427 429.0001,-29.6426"/>
</g>
<!-- Node6 -->
<g id="node6" class="node">
<title>Node6</title>
<g id="a_node6"><a xlink:href="tamtypes_8h.html" target="_top" xlink:title=" ">
<polygon fill="#ffffff" stroke="#000000" points="546.5,-.5 546.5,-19.5 618.5,-19.5 618.5,-.5 546.5,-.5"/>
<text text-anchor="middle" x="582.5" y="-7.5" font-family="Helvetica,sans-Serif" font-size="10.00" fill="#000000">tamtypes.h</text>
</a>
</g>
</g>
<!-- Node4&#45;&gt;Node6 -->
<g id="edge5" class="edge">
<title>Node4&#45;&gt;Node6</title>
<path fill="none" stroke="#191970" d="M452.1329,-56.5004C477.9583,-47.2887 517.3401,-33.2417 546.0616,-22.9971"/>
<polygon fill="#191970" stroke="#191970" points="547.4935,-26.2024 555.7364,-19.5462 545.1418,-19.6093 547.4935,-26.2024"/>
</g>
<!-- Node7&#45;&gt;Node4 -->
<g id="edge7" class="edge">
<title>Node7&#45;&gt;Node4</title>
<path fill="none" stroke="#191970" d="M380.9061,-112.2455C388.6493,-104.2155 399.812,-92.6394 409.0318,-83.0781"/>
<polygon fill="#191970" stroke="#191970" points="411.7798,-85.2706 416.2017,-75.6427 406.7409,-80.4117 411.7798,-85.2706"/>
</g>
<!-- Node8&#45;&gt;Node2 -->
<g id="edge9" class="edge">
<title>Node8&#45;&gt;Node2</title>
<path fill="none" stroke="#191970" d="M50.4486,-168.2455C46.4981,-160.617 40.8903,-149.7881 36.0942,-140.5267"/>
<polygon fill="#191970" stroke="#191970" points="39.2001,-138.9131 31.4935,-131.6427 32.9841,-142.1321 39.2001,-138.9131"/>
</g>
<!-- Node8&#45;&gt;Node7 -->
<g id="edge10" class="edge">
<title>Node8&#45;&gt;Node7</title>
<path fill="none" stroke="#191970" d="M85.6732,-169.9888C88.6476,-169.2817 91.6274,-168.6056 94.5,-168 184.2334,-149.0819 291.6647,-133.1278 342.3284,-125.9972"/>
<polygon fill="#191970" stroke="#191970" points="342.8313,-129.461 352.2511,-124.6116 341.8631,-122.5283 342.8313,-129.461"/>
</g>
<!-- Node9&#45;&gt;Node4 -->
<g id="edge12" class="edge">
<title>Node9&#45;&gt;Node4</title>
<path fill="none" stroke="#191970" d="M301.4859,-168.4756C309.0772,-154.673 324.6592,-128.9156 343.5,-112 358.2224,-98.782 377.3863,-87.7685 393.4853,-79.8352"/>
<polygon fill="#191970" stroke="#191970" points="395.023,-82.9796 402.5532,-75.5267 392.0188,-76.657 395.023,-82.9796"/>
</g>
<!-- Node9&#45;&gt;Node7 -->
<g id="edge13" class="edge">
<title>Node9&#45;&gt;Node7</title>
<path fill="none" stroke="#191970" d="M309.564,-168.2455C320.8562,-159.814 337.3845,-147.4729 350.5271,-137.6598"/>
<polygon fill="#191970" stroke="#191970" points="352.6669,-140.4301 358.5857,-131.6427 348.4789,-134.8211 352.6669,-140.4301"/>
</g>
<!-- Node10&#45;&gt;Node4 -->
<g id="edge15" class="edge">
<title>Node10&#45;&gt;Node4</title>
<path fill="none" stroke="#191970" d="M425.5,-168.4509C425.5,-150.184 425.5,-109.9553 425.5,-85.6976"/>
<polygon fill="#191970" stroke="#191970" points="429.0001,-85.5249 425.5,-75.5249 422.0001,-85.5249 429.0001,-85.5249"/>
</g>
<!-- Node10&#45;&gt;Node7 -->
<g id="edge16" class="edge">
<title>Node10&#45;&gt;Node7</title>
<path fill="none" stroke="#191970" d="M416.0939,-168.2455C408.3507,-160.2155 397.188,-148.6394 387.9682,-139.0781"/>
<polygon fill="#191970" stroke="#191970" points="390.2591,-136.4117 380.7983,-131.6427 385.2202,-141.2706 390.2591,-136.4117"/>
</g>
<!-- Node11&#45;&gt;Node4 -->
<g id="edge18" class="edge">
<title>Node11&#45;&gt;Node4</title>
<path fill="none" stroke="#191970" d="M502.3382,-168.4509C488.266,-149.688 456.8161,-107.7548 438.8185,-83.758"/>
<polygon fill="#191970" stroke="#191970" points="441.4437,-81.4249 432.6437,-75.5249 435.8437,-85.6249 441.4437,-81.4249"/>
</g>
<!-- Node11&#45;&gt;Node7 -->
<g id="edge19" class="edge">
<title>Node11&#45;&gt;Node7</title>
<path fill="none" stroke="#191970" d="M485.777,-168.3733C462.1018,-158.7659 425.6938,-143.9917 400.3575,-133.7103"/>
<polygon fill="#191970" stroke="#191970" points="401.4909,-130.3931 390.9087,-129.876 398.8588,-136.8794 401.4909,-130.3931"/>
</g>
<!-- Node12&#45;&gt;Node4 -->
<g id="edge21" class="edge">
<title>Node12&#45;&gt;Node4</title>
<path fill="none" stroke="#191970" d="M153.7566,-168.398C182.4947,-154.9481 236.9055,-130.1165 284.5,-112 319.6958,-98.603 360.6981,-85.4994 389.3844,-76.7268"/>
<polygon fill="#191970" stroke="#191970" points="390.4359,-80.0654 398.9877,-73.811 388.4022,-73.3673 390.4359,-80.0654"/>
</g>
<!-- Node12&#45;&gt;Node7 -->
<g id="edge22" class="edge">
<title>Node12&#45;&gt;Node7</title>
<path fill="none" stroke="#191970" d="M163.3482,-170.051C166.1014,-169.3463 168.8506,-168.6531 171.5,-168 232.0529,-153.0728 303.3043,-137.0525 342.3135,-128.4129"/>
<polygon fill="#191970" stroke="#191970" points="343.4159,-131.7538 352.4254,-126.1788 341.9057,-124.9186 343.4159,-131.7538"/>
</g>
<!-- Node13&#45;&gt;Node7 -->
<g id="edge25" class="edge">
<title>Node13&#45;&gt;Node7</title>
<path fill="none" stroke="#191970" d="M559.2767,-170.4762C556.3222,-169.6261 553.3473,-168.7843 550.5,-168 497.9364,-153.5207 436.2891,-137.9965 400.7749,-129.1937"/>
<polygon fill="#191970" stroke="#191970" points="401.179,-125.6883 390.6312,-126.6862 399.4991,-132.4838 401.179,-125.6883"/>
</g>
<!-- Node14 -->
<g id="node14" class="node">
<title>Node14</title>
<g id="a_node14"><a xlink:title=" ">
<polygon fill="#ffffff" stroke="#bfbfbf" points="536.5,-112.5 536.5,-131.5 592.5,-131.5 592.5,-112.5 536.5,-112.5"/>
<text text-anchor="middle" x="564.5" y="-119.5" font-family="Helvetica,sans-Serif" font-size="10.00" fill="#000000">stdarg.h</text>
</a>
</g>
</g>
<!-- Node13&#45;&gt;Node14 -->
<g id="edge24" class="edge">
<title>Node13&#45;&gt;Node14</title>
<path fill="none" stroke="#191970" d="M581.0163,-168.2455C578.3492,-160.7776 574.5867,-150.2427 571.3263,-141.1137"/>
<polygon fill="#191970" stroke="#191970" points="574.6033,-139.8829 567.9438,-131.6427 568.0111,-142.2373 574.6033,-139.8829"/>
</g>
<!-- Node15&#45;&gt;Node4 -->
<g id="edge27" class="edge">
<title>Node15&#45;&gt;Node4</title>
<path fill="none" stroke="#191970" d="M651.9709,-168.2938C643.1886,-153.7762 624.6514,-126.5604 601.5,-112 558.3691,-84.8741 499.7012,-73.6687 462.2089,-69.0907"/>
<polygon fill="#191970" stroke="#191970" points="462.5549,-65.6076 452.2262,-67.9675 461.7721,-72.5637 462.5549,-65.6076"/>
</g>
<!-- Node15&#45;&gt;Node7 -->
<g id="edge28" class="edge">
<title>Node15&#45;&gt;Node7</title>
<path fill="none" stroke="#191970" d="M627.7386,-170.1505C624.6259,-169.3949 621.503,-168.6639 618.5,-168 540.264,-150.7049 447.1307,-134.5458 400.7604,-126.7971"/>
<polygon fill="#191970" stroke="#191970" points="401.2433,-123.3295 390.8048,-125.1429 400.0958,-130.2348 401.2433,-123.3295"/>
</g>
<!-- Node15&#45;&gt;Node14 -->
<g id="edge29" class="edge">
<title>Node15&#45;&gt;Node14</title>
<path fill="none" stroke="#191970" d="M641.3006,-168.2455C626.8982,-159.5731 605.6268,-146.7645 589.1201,-136.825"/>
<polygon fill="#191970" stroke="#191970" points="590.886,-133.8028 580.5137,-131.6427 587.275,-139.7996 590.886,-133.8028"/>
</g>
<!-- Node16 -->
<g id="node16" class="node">
<title>Node16</title>
<g id="a_node16"><a xlink:href="setjmp_8h.html" target="_top" xlink:title=" ">
<polygon fill="#ffffff" stroke="#000000" points="590,-56.5 590,-75.5 649,-75.5 649,-56.5 590,-56.5"/>
<text text-anchor="middle" x="619.5" y="-63.5" font-family="Helvetica,sans-Serif" font-size="10.00" fill="#000000">setjmp.h</text>
</a>
</g>
</g>
<!-- Node15&#45;&gt;Node16 -->
<g id="edge30" class="edge">
<title>Node15&#45;&gt;Node16</title>
<path fill="none" stroke="#191970" d="M654.2601,-168.4509C648.0063,-150.0186 634.1658,-109.2254 625.961,-85.043"/>
<polygon fill="#191970" stroke="#191970" points="629.2591,-83.8701 622.7317,-75.5249 622.6303,-86.1192 629.2591,-83.8701"/>
</g>
<!-- Node16&#45;&gt;Node6 -->
<g id="edge31" class="edge">
<title>Node16&#45;&gt;Node6</title>
<path fill="none" stroke="#191970" d="M613.0551,-56.2455C607.9618,-48.5367 600.7092,-37.5598 594.548,-28.2348"/>
<polygon fill="#191970" stroke="#191970" points="597.3038,-26.0566 588.8711,-19.6427 591.4635,-29.9155 597.3038,-26.0566"/>
</g>
<!-- Node17&#45;&gt;Node4 -->
<g id="edge33" class="edge">
<title>Node17&#45;&gt;Node4</title>
<path fill="none" stroke="#191970" d="M225.4131,-168.482C246.5961,-155.1318 286.7972,-130.4181 322.5,-112 345.6388,-100.0633 372.523,-88.1187 393.0222,-79.3936"/>
<polygon fill="#191970" stroke="#191970" points="394.3885,-82.616 402.2409,-75.5033 391.6668,-76.1667 394.3885,-82.616"/>
</g>
<!-- Node17&#45;&gt;Node7 -->
<g id="edge34" class="edge">
<title>Node17&#45;&gt;Node7</title>
<path fill="none" stroke="#191970" d="M238.1769,-168.3733C267.2905,-158.2468 312.9079,-142.3799 342.5074,-132.0844"/>
<polygon fill="#191970" stroke="#191970" points="343.9606,-135.2847 352.2558,-128.6936 341.6609,-128.6732 343.9606,-135.2847"/>
</g>
</g>
</svg>
        <g id="navigator" transform="translate(0 0)" fill="#404254">
                <rect fill="#f2f5e9" fill-opacity="0.5" stroke="#606060" stroke-width=".5" x="0" y="0" width="60" height="60"/>
                <use id="zoomplus" xlink:href="#zoomPlus" x="17" y="9" onmousedown="handleZoom(evt,'in')"/>
                <use id="zoomminus" xlink:href="#zoomMin" x="42" y="9" onmousedown="handleZoom(evt,'out')"/>
                <use id="reset" xlink:href="#resetDef" x="30" y="36" onmousedown="handleReset()"/>
                <g id="arrowUp" xlink:href="#dirArrow" transform="translate(30 24)" onmousedown="handlePan(0,-1)">
                  <use xlink:href="#rim" fill="#404040">
                        <set attributeName="fill" to="#808080" begin="arrowUp.mouseover" end="arrowUp.mouseout"/>
                  </use>
                  <path fill="none" stroke="white" stroke-width="1.5" d="M0,-3.0v7 M-2.5,-0.5L0,-3.0L2.5,-0.5"/>
                </g>
                <g id="arrowRight" xlink:href="#dirArrow" transform="rotate(90) translate(36 -43)" onmousedown="handlePan(1,0)">
                  <use xlink:href="#rim" fill="#404040">
                        <set attributeName="fill" to="#808080" begin="arrowRight.mouseover" end="arrowRight.mouseout"/>
                  </use>
                  <path fill="none" stroke="white" stroke-width="1.5" d="M0,-3.0v7 M-2.5,-0.5L0,-3.0L2.5,-0.5"/>
                </g>
                <g id="arrowDown" xlink:href="#dirArrow" transform="rotate(180) translate(-30 -48)" onmousedown="handlePan(0,1)">
                  <use xlink:href="#rim" fill="#404040">
                        <set attributeName="fill" to="#808080" begin="arrowDown.mouseover" end="arrowDown.mouseout"/>
                  </use>
                  <path fill="none" stroke="white" stroke-width="1.5" d="M0,-3.0v7 M-2.5,-0.5L0,-3.0L2.5,-0.5"/>
                </g>
                <g id="arrowLeft" xlink:href="#dirArrow" transform="rotate(270) translate(-36 17)" onmousedown="handlePan(-1,0)">
                  <use xlink:href="#rim" fill="#404040">
                        <set attributeName="fill" to="#808080" begin="arrowLeft.mouseover" end="arrowLeft.mouseout"/>
                  </use>
                  <path fill="none" stroke="white" stroke-width="1.5" d="M0,-3.0v7 M-2.5,-0.5L0,-3.0L2.5,-0.5"/>
                </g>
        </g>
        <svg viewBox="0 0 15 15" width="100%" height="30px" preserveAspectRatio="xMaxYMin meet">
         <g id="arrow_out" transform="scale(0.3 0.3)">
          <a xlink:href="ioptrap_8c__incl_org.svg" target="_base">
           <rect id="button" ry="5" rx="5" y="6" x="6" height="38" width="38"
                fill="#f2f5e9" fill-opacity="0.5" stroke="#606060" stroke-width="1.0"/>
           <path id="arrow"
             d="M 11.500037,31.436501 C 11.940474,20.09759 22.043105,11.32322 32.158766,21.979434 L 37.068811,17.246167 C 37.068811,17.246167 37.088388,32 37.088388,32 L 22.160133,31.978069 C 22.160133,31.978069 26.997745,27.140456 26.997745,27.140456 C 18.528582,18.264221 13.291696,25.230495 11.500037,31.436501 z"
             style="fill:#404040;"/>
          </a>
         </g>
        </svg>
</svg>
