<?xml version="1.0" encoding="UTF-8" standalone="no"?>
<!DOCTYPE svg PUBLIC "-//W3C//DTD SVG 1.1//EN"
 "http://www.w3.org/Graphics/SVG/1.1/DTD/svg11.dtd">
<!-- Generated by graphviz version 2.40.1 (20161225.0304)
 -->
<!-- Title: iop/hdd/libpfs/src/journal.c Pages: 1 -->
<svg width="384pt" height="263pt"
 viewBox="0.00 0.00 383.50 263.00" xmlns="http://www.w3.org/2000/svg" xmlns:xlink="http://www.w3.org/1999/xlink">
<g id="graph0" class="graph" transform="scale(1 1) rotate(0) translate(4 259)">
<title>iop/hdd/libpfs/src/journal.c</title>
<polygon fill="#ffffff" stroke="transparent" points="-4,4 -4,-259 379.5,-259 379.5,4 -4,4"/>
<!-- Node1 -->
<g id="node1" class="node">
<title>Node1</title>
<g id="a_node1"><a xlink:title=" ">
<polygon fill="#bfbfbf" stroke="#000000" points="166,-224.5 166,-254.5 266,-254.5 266,-224.5 166,-224.5"/>
<text text-anchor="start" x="174" y="-242.5" font-family="Helvetica,sans-Serif" font-size="10.00" fill="#000000">iop/hdd/libpfs/src</text>
<text text-anchor="middle" x="216" y="-231.5" font-family="Helvetica,sans-Serif" font-size="10.00" fill="#000000">/journal.c</text>
</a>
</g>
</g>
<!-- Node2 -->
<g id="node2" class="node">
<title>Node2</title>
<g id="a_node2"><a xlink:href="stdio_8h.html" target="_top" xlink:title=" ">
<polygon fill="#ffffff" stroke="#000000" points="51,-168.5 51,-187.5 101,-187.5 101,-168.5 51,-168.5"/>
<text text-anchor="middle" x="76" y="-175.5" font-family="Helvetica,sans-Serif" font-size="10.00" fill="#000000">stdio.h</text>
</a>
</g>
</g>
<!-- Node1&#45;&gt;Node2 -->
<g id="edge1" class="edge">
<title>Node1&#45;&gt;Node2</title>
<path fill="none" stroke="#191970" d="M181.7521,-224.4554C158.9051,-214.419 129.1121,-201.3314 106.9733,-191.6061"/>
<polygon fill="#191970" stroke="#191970" points="108.2583,-188.3478 97.695,-187.5303 105.4429,-194.7567 108.2583,-188.3478"/>
</g>
<!-- Node8 -->
<g id="node8" class="node">
<title>Node8</title>
<g id="a_node8"><a xlink:href="sysclib_8h.html" target="_top" xlink:title=" ">
<polygon fill="#ffffff" stroke="#000000" points="119.5,-168.5 119.5,-187.5 178.5,-187.5 178.5,-168.5 119.5,-168.5"/>
<text text-anchor="middle" x="149" y="-175.5" font-family="Helvetica,sans-Serif" font-size="10.00" fill="#000000">sysclib.h</text>
</a>
</g>
</g>
<!-- Node1&#45;&gt;Node8 -->
<g id="edge7" class="edge">
<title>Node1&#45;&gt;Node8</title>
<path fill="none" stroke="#191970" d="M199.4382,-224.2977C189.6535,-215.3163 177.2526,-203.9334 167.1957,-194.702"/>
<polygon fill="#191970" stroke="#191970" points="169.4613,-192.0307 159.7275,-187.8469 164.7278,-197.1876 169.4613,-192.0307"/>
</g>
<!-- Node10 -->
<g id="node10" class="node">
<title>Node10</title>
<g id="a_node10"><a xlink:href="hdd-ioctl_8h.html" target="_top" xlink:title=" ">
<polygon fill="#ffffff" stroke="#000000" points="222,-56.5 222,-75.5 290,-75.5 290,-56.5 222,-56.5"/>
<text text-anchor="middle" x="256" y="-63.5" font-family="Helvetica,sans-Serif" font-size="10.00" fill="#000000">hdd&#45;ioctl.h</text>
</a>
</g>
</g>
<!-- Node1&#45;&gt;Node10 -->
<g id="edge13" class="edge">
<title>Node1&#45;&gt;Node10</title>
<path fill="none" stroke="#191970" d="M219.4798,-224.4065C226.7175,-193.0126 243.39,-120.6961 251.4599,-85.6925"/>
<polygon fill="#191970" stroke="#191970" points="254.9188,-86.2687 253.7549,-75.738 248.0978,-84.6961 254.9188,-86.2687"/>
</g>
<!-- Node11 -->
<g id="node11" class="node">
<title>Node11</title>
<g id="a_node11"><a xlink:href="pfs-opt_8h.html" target="_top" xlink:title=" ">
<polygon fill="#ffffff" stroke="#000000" points="244,-168.5 244,-187.5 304,-187.5 304,-168.5 244,-168.5"/>
<text text-anchor="middle" x="274" y="-175.5" font-family="Helvetica,sans-Serif" font-size="10.00" fill="#000000">pfs&#45;opt.h</text>
</a>
</g>
</g>
<!-- Node1&#45;&gt;Node11 -->
<g id="edge15" class="edge">
<title>Node1&#45;&gt;Node11</title>
<path fill="none" stroke="#191970" d="M230.3371,-224.2977C238.6397,-215.4941 249.1182,-204.3833 257.7289,-195.2529"/>
<polygon fill="#191970" stroke="#191970" points="260.3987,-197.5234 264.7135,-187.8469 255.3061,-192.7206 260.3987,-197.5234"/>
</g>
<!-- Node12 -->
<g id="node12" class="node">
<title>Node12</title>
<g id="a_node12"><a xlink:href="libpfs_8h.html" target="_top" xlink:title=" ">
<polygon fill="#ffffff" stroke="#000000" points="322.5,-168.5 322.5,-187.5 375.5,-187.5 375.5,-168.5 322.5,-168.5"/>
<text text-anchor="middle" x="349" y="-175.5" font-family="Helvetica,sans-Serif" font-size="10.00" fill="#000000">libpfs.h</text>
</a>
</g>
</g>
<!-- Node1&#45;&gt;Node12 -->
<g id="edge16" class="edge">
<title>Node1&#45;&gt;Node12</title>
<path fill="none" stroke="#191970" d="M248.5355,-224.4554C270.1429,-214.464 298.2898,-201.4487 319.292,-191.7372"/>
<polygon fill="#191970" stroke="#191970" points="320.7821,-194.9043 328.3897,-187.5303 317.8441,-188.5506 320.7821,-194.9043"/>
</g>
<!-- Node3 -->
<g id="node3" class="node">
<title>Node3</title>
<g id="a_node3"><a xlink:title=" ">
<polygon fill="#ffffff" stroke="#bfbfbf" points="0,-112.5 0,-131.5 56,-131.5 56,-112.5 0,-112.5"/>
<text text-anchor="middle" x="28" y="-119.5" font-family="Helvetica,sans-Serif" font-size="10.00" fill="#000000">stdarg.h</text>
</a>
</g>
</g>
<!-- Node2&#45;&gt;Node3 -->
<g id="edge2" class="edge">
<title>Node2&#45;&gt;Node3</title>
<path fill="none" stroke="#191970" d="M67.639,-168.2455C60.825,-160.2958 51.0319,-148.8706 42.8848,-139.3656"/>
<polygon fill="#191970" stroke="#191970" points="45.4305,-136.9575 36.2651,-131.6427 40.1157,-141.513 45.4305,-136.9575"/>
</g>
<!-- Node4 -->
<g id="node4" class="node">
<title>Node4</title>
<g id="a_node4"><a xlink:href="irx_8h.html" target="_top" xlink:title=" ">
<polygon fill="#ffffff" stroke="#000000" points="74,-112.5 74,-131.5 112,-131.5 112,-112.5 74,-112.5"/>
<text text-anchor="middle" x="93" y="-119.5" font-family="Helvetica,sans-Serif" font-size="10.00" fill="#000000">irx.h</text>
</a>
</g>
</g>
<!-- Node2&#45;&gt;Node4 -->
<g id="edge3" class="edge">
<title>Node2&#45;&gt;Node4</title>
<path fill="none" stroke="#191970" d="M78.9612,-168.2455C81.2038,-160.8579 84.3577,-150.4689 87.1081,-141.4087"/>
<polygon fill="#191970" stroke="#191970" points="90.517,-142.2282 90.0728,-131.6427 83.8188,-140.1948 90.517,-142.2282"/>
</g>
<!-- Node5 -->
<g id="node5" class="node">
<title>Node5</title>
<g id="a_node5"><a xlink:href="types_8h.html" target="_top" xlink:title=" ">
<polygon fill="#ffffff" stroke="#000000" points="71.5,-56.5 71.5,-75.5 124.5,-75.5 124.5,-56.5 71.5,-56.5"/>
<text text-anchor="middle" x="98" y="-63.5" font-family="Helvetica,sans-Serif" font-size="10.00" fill="#000000">types.h</text>
</a>
</g>
</g>
<!-- Node4&#45;&gt;Node5 -->
<g id="edge4" class="edge">
<title>Node4&#45;&gt;Node5</title>
<path fill="none" stroke="#191970" d="M93.8709,-112.2455C94.5234,-104.9382 95.438,-94.6944 96.2407,-85.7046"/>
<polygon fill="#191970" stroke="#191970" points="99.7358,-85.9143 97.139,-75.6427 92.7635,-85.2918 99.7358,-85.9143"/>
</g>
<!-- Node6 -->
<g id="node6" class="node">
<title>Node6</title>
<g id="a_node6"><a xlink:title=" ">
<polygon fill="#ffffff" stroke="#bfbfbf" points="66,-.5 66,-19.5 122,-19.5 122,-.5 66,-.5"/>
<text text-anchor="middle" x="94" y="-7.5" font-family="Helvetica,sans-Serif" font-size="10.00" fill="#000000">stddef.h</text>
</a>
</g>
</g>
<!-- Node5&#45;&gt;Node6 -->
<g id="edge5" class="edge">
<title>Node5&#45;&gt;Node6</title>
<path fill="none" stroke="#191970" d="M97.3033,-56.2455C96.7813,-48.9382 96.0496,-38.6944 95.4075,-29.7046"/>
<polygon fill="#191970" stroke="#191970" points="98.8924,-29.3679 94.6888,-19.6427 91.9102,-29.8667 98.8924,-29.3679"/>
</g>
<!-- Node7 -->
<g id="node7" class="node">
<title>Node7</title>
<g id="a_node7"><a xlink:href="tamtypes_8h.html" target="_top" xlink:title=" ">
<polygon fill="#ffffff" stroke="#000000" points="140,-.5 140,-19.5 212,-19.5 212,-.5 140,-.5"/>
<text text-anchor="middle" x="176" y="-7.5" font-family="Helvetica,sans-Serif" font-size="10.00" fill="#000000">tamtypes.h</text>
</a>
</g>
</g>
<!-- Node5&#45;&gt;Node7 -->
<g id="edge6" class="edge">
<title>Node5&#45;&gt;Node7</title>
<path fill="none" stroke="#191970" d="M111.5866,-56.2455C123.3305,-47.814 140.5199,-35.4729 154.1882,-25.6598"/>
<polygon fill="#191970" stroke="#191970" points="156.4871,-28.3179 162.5691,-19.6427 152.4046,-22.6316 156.4871,-28.3179"/>
</g>
<!-- Node8&#45;&gt;Node3 -->
<g id="edge10" class="edge">
<title>Node8&#45;&gt;Node3</title>
<path fill="none" stroke="#191970" d="M128.1994,-168.3733C108.7757,-159.3838 79.5776,-145.8706 57.7036,-135.7471"/>
<polygon fill="#191970" stroke="#191970" points="59.0745,-132.5249 48.5292,-131.5011 56.1344,-138.8776 59.0745,-132.5249"/>
</g>
<!-- Node8&#45;&gt;Node4 -->
<g id="edge9" class="edge">
<title>Node8&#45;&gt;Node4</title>
<path fill="none" stroke="#191970" d="M139.2455,-168.2455C131.1352,-160.1352 119.4075,-148.4075 109.7919,-138.7919"/>
<polygon fill="#191970" stroke="#191970" points="112.1887,-136.2389 102.6427,-131.6427 107.2389,-141.1887 112.1887,-136.2389"/>
</g>
<!-- Node8&#45;&gt;Node5 -->
<g id="edge8" class="edge">
<title>Node8&#45;&gt;Node5</title>
<path fill="none" stroke="#191970" d="M145.0157,-168.0758C139.7498,-155.0875 130.0764,-131.6639 121,-112 116.85,-103.009 111.979,-93.1748 107.7906,-84.9154"/>
<polygon fill="#191970" stroke="#191970" points="110.788,-83.0898 103.1146,-75.7843 104.5575,-86.2805 110.788,-83.0898"/>
</g>
<!-- Node9 -->
<g id="node9" class="node">
<title>Node9</title>
<g id="a_node9"><a xlink:href="setjmp_8h.html" target="_top" xlink:title=" ">
<polygon fill="#ffffff" stroke="#000000" points="144.5,-56.5 144.5,-75.5 203.5,-75.5 203.5,-56.5 144.5,-56.5"/>
<text text-anchor="middle" x="174" y="-63.5" font-family="Helvetica,sans-Serif" font-size="10.00" fill="#000000">setjmp.h</text>
</a>
</g>
</g>
<!-- Node8&#45;&gt;Node9 -->
<g id="edge11" class="edge">
<title>Node8&#45;&gt;Node9</title>
<path fill="none" stroke="#191970" d="M151.1315,-168.4509C155.2274,-150.1013 164.2699,-109.5908 169.6765,-85.3693"/>
<polygon fill="#191970" stroke="#191970" points="173.1112,-86.0472 171.8739,-75.5249 166.2794,-84.5222 173.1112,-86.0472"/>
</g>
<!-- Node9&#45;&gt;Node7 -->
<g id="edge12" class="edge">
<title>Node9&#45;&gt;Node7</title>
<path fill="none" stroke="#191970" d="M174.3484,-56.2455C174.6093,-48.9382 174.9752,-38.6944 175.2963,-29.7046"/>
<polygon fill="#191970" stroke="#191970" points="178.7964,-29.7613 175.6556,-19.6427 171.8008,-29.5113 178.7964,-29.7613"/>
</g>
<!-- Node10&#45;&gt;Node7 -->
<g id="edge14" class="edge">
<title>Node10&#45;&gt;Node7</title>
<path fill="none" stroke="#191970" d="M242.0651,-56.2455C229.9053,-47.7337 212.0536,-35.2375 197.9715,-25.3801"/>
<polygon fill="#191970" stroke="#191970" points="199.9747,-22.51 189.7752,-19.6427 195.9605,-28.2447 199.9747,-22.51"/>
</g>
<!-- Node13 -->
<g id="node13" class="node">
<title>Node13</title>
<g id="a_node13"><a xlink:title=" ">
<polygon fill="#ffffff" stroke="#bfbfbf" points="322.5,-112.5 322.5,-131.5 375.5,-131.5 375.5,-112.5 322.5,-112.5"/>
<text text-anchor="middle" x="349" y="-119.5" font-family="Helvetica,sans-Serif" font-size="10.00" fill="#000000">types.h</text>
</a>
</g>
</g>
<!-- Node12&#45;&gt;Node13 -->
<g id="edge17" class="edge">
<title>Node12&#45;&gt;Node13</title>
<path fill="none" stroke="#191970" d="M349,-168.2455C349,-160.9382 349,-150.6944 349,-141.7046"/>
<polygon fill="#191970" stroke="#191970" points="352.5001,-141.6426 349,-131.6427 345.5001,-141.6427 352.5001,-141.6426"/>
</g>
</g>
</svg>
