<?xml version="1.0" encoding="UTF-8" standalone="no"?>
<!DOCTYPE svg PUBLIC "-//W3C//DTD SVG 1.1//EN"
 "http://www.w3.org/Graphics/SVG/1.1/DTD/svg11.dtd">
<!-- Generated by graphviz version 2.40.1 (20161225.0304)
 -->
<!-- Title: iop/hdd/libpfs/src/misc.c Pages: 1 -->
<!--zoomable 263 -->
<svg id="main" version="1.1" xmlns="http://www.w3.org/2000/svg" xmlns:xlink="http://www.w3.org/1999/xlink" xml:space="preserve" onload="init(evt)">
<style type="text/css"><![CDATA[
.edge:hover path { stroke: red; }
.edge:hover polygon { stroke: red; fill: red; }
]]></style>
<script type="text/javascript"><![CDATA[
var edges = document.getElementsByTagName('g');
if (edges && edges.length) {
  for (var i=0;i<edges.length;i++) {
    if (edges[i].id.substr(0,4)=='edge') {
      edges[i].setAttribute('class','edge');
    }
  }
}
]]></script>
        <defs>
                <circle id="rim" cx="0" cy="0" r="7"/>
                <circle id="rim2" cx="0" cy="0" r="3.5"/>
                <g id="zoomPlus">
                        <use xlink:href="#rim" fill="#404040">
                                <set attributeName="fill" to="#808080" begin="zoomplus.mouseover" end="zoomplus.mouseout"/>
                        </use>
                        <path d="M-4,0h8M0,-4v8" fill="none" stroke="white" stroke-width="1.5" pointer-events="none"/>
                </g>
                <g id="zoomMin">
                        <use xlink:href="#rim" fill="#404040">
                                <set attributeName="fill" to="#808080" begin="zoomminus.mouseover" end="zoomminus.mouseout"/>
                        </use>
                        <path d="M-4,0h8" fill="none" stroke="white" stroke-width="1.5" pointer-events="none"/>
                </g>
                <g id="dirArrow">
                        <path fill="none" stroke="white" stroke-width="1.5" d="M0,-3.0v7 M-2.5,-0.5L0,-3.0L2.5,-0.5"/>
                </g>
               <g id="resetDef">
                       <use xlink:href="#rim2" fill="#404040">
                               <set attributeName="fill" to="#808080" begin="reset.mouseover" end="reset.mouseout"/>
                       </use>
               </g>
        </defs>

<script type="text/javascript">
var viewWidth = 881;
var viewHeight = 263;
var sectionId = 'dynsection-0';
</script>
<script xlink:href="svgpan.js"/>
<svg id="graph" class="graph">
<g id="viewport">
<title>iop/hdd/libpfs/src/misc.c</title>
<polygon fill="#ffffff" stroke="transparent" points="-4,4 -4,-259 877,-259 877,4 -4,4"/>
<!-- Node1 -->
<g id="node1" class="node">
<title>Node1</title>
<g id="a_node1"><a xlink:title=" ">
<polygon fill="#bfbfbf" stroke="#000000" points="404.5,-224.5 404.5,-254.5 504.5,-254.5 504.5,-224.5 404.5,-224.5"/>
<text text-anchor="start" x="412.5" y="-242.5" font-family="Helvetica,sans-Serif" font-size="10.00" fill="#000000">iop/hdd/libpfs/src</text>
<text text-anchor="middle" x="454.5" y="-231.5" font-family="Helvetica,sans-Serif" font-size="10.00" fill="#000000">/misc.c</text>
</a>
</g>
</g>
<!-- Node2 -->
<g id="node2" class="node">
<title>Node2</title>
<g id="a_node2"><a xlink:href="errno_8h.html" target="_top" xlink:title=" ">
<polygon fill="#ffffff" stroke="#000000" points="0,-168.5 0,-187.5 51,-187.5 51,-168.5 0,-168.5"/>
<text text-anchor="middle" x="25.5" y="-175.5" font-family="Helvetica,sans-Serif" font-size="10.00" fill="#000000">errno.h</text>
</a>
</g>
</g>
<!-- Node1&#45;&gt;Node2 -->
<g id="edge1" class="edge">
<title>Node1&#45;&gt;Node2</title>
<path fill="none" stroke="#191970" d="M404.3464,-235.3469C331.0108,-228.7478 190.1546,-214.0819 61.069,-187.8353"/>
<polygon fill="#191970" stroke="#191970" points="61.5063,-184.3519 51.0055,-185.7603 60.0927,-191.2077 61.5063,-184.3519"/>
</g>
<!-- Node3 -->
<g id="node3" class="node">
<title>Node3</title>
<g id="a_node3"><a xlink:href="stdio_8h.html" target="_top" xlink:title=" ">
<polygon fill="#ffffff" stroke="#000000" points="233.5,-168.5 233.5,-187.5 283.5,-187.5 283.5,-168.5 233.5,-168.5"/>
<text text-anchor="middle" x="258.5" y="-175.5" font-family="Helvetica,sans-Serif" font-size="10.00" fill="#000000">stdio.h</text>
</a>
</g>
</g>
<!-- Node1&#45;&gt;Node3 -->
<g id="edge2" class="edge">
<title>Node1&#45;&gt;Node3</title>
<path fill="none" stroke="#191970" d="M406.553,-224.4554C371.4766,-213.4493 324.706,-198.7738 293.1971,-188.8871"/>
<polygon fill="#191970" stroke="#191970" points="294.1266,-185.5106 283.5374,-185.8561 292.0309,-192.1895 294.1266,-185.5106"/>
</g>
<!-- Node9 -->
<g id="node9" class="node">
<title>Node9</title>
<g id="a_node9"><a xlink:href="iomanX_8h.html" target="_top" xlink:title=" ">
<polygon fill="#ffffff" stroke="#000000" points="550,-168.5 550,-187.5 613,-187.5 613,-168.5 550,-168.5"/>
<text text-anchor="middle" x="581.5" y="-175.5" font-family="Helvetica,sans-Serif" font-size="10.00" fill="#000000">iomanX.h</text>
</a>
</g>
</g>
<!-- Node1&#45;&gt;Node9 -->
<g id="edge8" class="edge">
<title>Node1&#45;&gt;Node9</title>
<path fill="none" stroke="#191970" d="M485.5677,-224.4554C506.0145,-214.554 532.5937,-201.683 552.5885,-192.0004"/>
<polygon fill="#191970" stroke="#191970" points="554.3447,-195.0388 561.8195,-187.5303 551.2938,-188.7387 554.3447,-195.0388"/>
</g>
<!-- Node15 -->
<g id="node15" class="node">
<title>Node15</title>
<g id="a_node15"><a xlink:href="intrman_8h.html" target="_top" xlink:title=" ">
<polygon fill="#ffffff" stroke="#000000" points="301.5,-168.5 301.5,-187.5 365.5,-187.5 365.5,-168.5 301.5,-168.5"/>
<text text-anchor="middle" x="333.5" y="-175.5" font-family="Helvetica,sans-Serif" font-size="10.00" fill="#000000">intrman.h</text>
</a>
</g>
</g>
<!-- Node1&#45;&gt;Node15 -->
<g id="edge16" class="edge">
<title>Node1&#45;&gt;Node15</title>
<path fill="none" stroke="#191970" d="M424.9001,-224.4554C405.5078,-214.599 380.3258,-201.7999 361.3057,-192.1327"/>
<polygon fill="#191970" stroke="#191970" points="362.7512,-188.9412 352.2507,-187.5303 359.5795,-195.1815 362.7512,-188.9412"/>
</g>
<!-- Node16 -->
<g id="node16" class="node">
<title>Node16</title>
<g id="a_node16"><a xlink:href="sysmem_8h.html" target="_top" xlink:title=" ">
<polygon fill="#ffffff" stroke="#000000" points="69.5,-168.5 69.5,-187.5 137.5,-187.5 137.5,-168.5 69.5,-168.5"/>
<text text-anchor="middle" x="103.5" y="-175.5" font-family="Helvetica,sans-Serif" font-size="10.00" fill="#000000">sysmem.h</text>
</a>
</g>
</g>
<!-- Node1&#45;&gt;Node16 -->
<g id="edge19" class="edge">
<title>Node1&#45;&gt;Node16</title>
<path fill="none" stroke="#191970" d="M404.4455,-232.1197C345.3866,-223.1917 244.0256,-207.1816 147.6369,-188.1365"/>
<polygon fill="#191970" stroke="#191970" points="148.2164,-184.6833 137.7255,-186.1637 146.8498,-191.5486 148.2164,-184.6833"/>
</g>
<!-- Node17 -->
<g id="node17" class="node">
<title>Node17</title>
<g id="a_node17"><a xlink:href="sysclib_8h.html" target="_top" xlink:title=" ">
<polygon fill="#ffffff" stroke="#000000" points="156,-168.5 156,-187.5 215,-187.5 215,-168.5 156,-168.5"/>
<text text-anchor="middle" x="185.5" y="-175.5" font-family="Helvetica,sans-Serif" font-size="10.00" fill="#000000">sysclib.h</text>
</a>
</g>
</g>
<!-- Node1&#45;&gt;Node17 -->
<g id="edge23" class="edge">
<title>Node1&#45;&gt;Node17</title>
<path fill="none" stroke="#191970" d="M404.1458,-228.6912C359.6669,-219.0384 292.8031,-204.2724 225.2555,-188.1294"/>
<polygon fill="#191970" stroke="#191970" points="225.8277,-184.6674 215.2871,-185.738 224.1947,-191.4743 225.8277,-184.6674"/>
</g>
<!-- Node19 -->
<g id="node19" class="node">
<title>Node19</title>
<g id="a_node19"><a xlink:href="thbase_8h.html" target="_top" xlink:title=" ">
<polygon fill="#ffffff" stroke="#000000" points="384,-168.5 384,-187.5 443,-187.5 443,-168.5 384,-168.5"/>
<text text-anchor="middle" x="413.5" y="-175.5" font-family="Helvetica,sans-Serif" font-size="10.00" fill="#000000">thbase.h</text>
</a>
</g>
</g>
<!-- Node1&#45;&gt;Node19 -->
<g id="edge29" class="edge">
<title>Node1&#45;&gt;Node19</title>
<path fill="none" stroke="#191970" d="M444.3652,-224.2977C438.7332,-215.8498 431.6849,-205.2773 425.746,-196.369"/>
<polygon fill="#191970" stroke="#191970" points="428.5238,-194.226 420.0646,-187.8469 422.6995,-198.1089 428.5238,-194.226"/>
</g>
<!-- Node20 -->
<g id="node20" class="node">
<title>Node20</title>
<g id="a_node20"><a xlink:href="cdvdman_8h.html" target="_top" xlink:title=" ">
<polygon fill="#ffffff" stroke="#000000" points="461,-168.5 461,-187.5 532,-187.5 532,-168.5 461,-168.5"/>
<text text-anchor="middle" x="496.5" y="-175.5" font-family="Helvetica,sans-Serif" font-size="10.00" fill="#000000">cdvdman.h</text>
</a>
</g>
</g>
<!-- Node1&#45;&gt;Node20 -->
<g id="edge32" class="edge">
<title>Node1&#45;&gt;Node20</title>
<path fill="none" stroke="#191970" d="M464.882,-224.2977C470.6513,-215.8498 477.8716,-205.2773 483.9553,-196.369"/>
<polygon fill="#191970" stroke="#191970" points="487.0259,-198.0788 489.7753,-187.8469 481.2453,-194.1311 487.0259,-198.0788"/>
</g>
<!-- Node22 -->
<g id="node22" class="node">
<title>Node22</title>
<g id="a_node22"><a xlink:href="ctype_8h.html" target="_top" xlink:title=" ">
<polygon fill="#ffffff" stroke="#000000" points="670,-168.5 670,-187.5 723,-187.5 723,-168.5 670,-168.5"/>
<text text-anchor="middle" x="696.5" y="-175.5" font-family="Helvetica,sans-Serif" font-size="10.00" fill="#000000">ctype.h</text>
</a>
</g>
</g>
<!-- Node1&#45;&gt;Node22 -->
<g id="edge37" class="edge">
<title>Node1&#45;&gt;Node22</title>
<path fill="none" stroke="#191970" d="M504.6426,-226.7572C550.9715,-214.9835 618.6986,-197.7718 660.0613,-187.2602"/>
<polygon fill="#191970" stroke="#191970" points="661.1503,-190.5948 669.9802,-184.7395 659.4261,-183.8105 661.1503,-190.5948"/>
</g>
<!-- Node23 -->
<g id="node23" class="node">
<title>Node23</title>
<g id="a_node23"><a xlink:href="hdd-ioctl_8h.html" target="_top" xlink:title=" ">
<polygon fill="#ffffff" stroke="#000000" points="733.5,-112.5 733.5,-131.5 801.5,-131.5 801.5,-112.5 733.5,-112.5"/>
<text text-anchor="middle" x="767.5" y="-119.5" font-family="Helvetica,sans-Serif" font-size="10.00" fill="#000000">hdd&#45;ioctl.h</text>
</a>
</g>
</g>
<!-- Node1&#45;&gt;Node23 -->
<g id="edge38" class="edge">
<title>Node1&#45;&gt;Node23</title>
<path fill="none" stroke="#191970" d="M504.5528,-226.6525C538.3848,-217.365 583.7759,-203.7212 622.5,-188 640.5489,-180.6725 643.8894,-176.3261 661.5,-168 685.7676,-156.5265 713.6261,-144.4797 734.6915,-135.5936"/>
<polygon fill="#191970" stroke="#191970" points="736.2817,-138.7221 744.1476,-131.6244 733.5723,-132.2676 736.2817,-138.7221"/>
</g>
<!-- Node24 -->
<g id="node24" class="node">
<title>Node24</title>
<g id="a_node24"><a xlink:href="pfs-opt_8h.html" target="_top" xlink:title=" ">
<polygon fill="#ffffff" stroke="#000000" points="741.5,-168.5 741.5,-187.5 801.5,-187.5 801.5,-168.5 741.5,-168.5"/>
<text text-anchor="middle" x="771.5" y="-175.5" font-family="Helvetica,sans-Serif" font-size="10.00" fill="#000000">pfs&#45;opt.h</text>
</a>
</g>
</g>
<!-- Node1&#45;&gt;Node24 -->
<g id="edge40" class="edge">
<title>Node1&#45;&gt;Node24</title>
<path fill="none" stroke="#191970" d="M504.6747,-231.2595C558.4329,-222.1949 646.4552,-206.6765 731.4977,-188.1147"/>
<polygon fill="#191970" stroke="#191970" points="732.3002,-191.5219 741.3148,-185.9552 730.7963,-184.6854 732.3002,-191.5219"/>
</g>
<!-- Node25 -->
<g id="node25" class="node">
<title>Node25</title>
<g id="a_node25"><a xlink:href="libpfs_8h.html" target="_top" xlink:title=" ">
<polygon fill="#ffffff" stroke="#000000" points="820,-168.5 820,-187.5 873,-187.5 873,-168.5 820,-168.5"/>
<text text-anchor="middle" x="846.5" y="-175.5" font-family="Helvetica,sans-Serif" font-size="10.00" fill="#000000">libpfs.h</text>
</a>
</g>
</g>
<!-- Node1&#45;&gt;Node25 -->
<g id="edge41" class="edge">
<title>Node1&#45;&gt;Node25</title>
<path fill="none" stroke="#191970" d="M504.6729,-234.2811C571.9596,-226.8328 695.2505,-211.6125 809.8593,-187.9027"/>
<polygon fill="#191970" stroke="#191970" points="810.787,-191.2844 819.8566,-185.808 809.3513,-184.4332 810.787,-191.2844"/>
</g>
<!-- Node4 -->
<g id="node4" class="node">
<title>Node4</title>
<g id="a_node4"><a xlink:title=" ">
<polygon fill="#ffffff" stroke="#bfbfbf" points="152.5,-112.5 152.5,-131.5 208.5,-131.5 208.5,-112.5 152.5,-112.5"/>
<text text-anchor="middle" x="180.5" y="-119.5" font-family="Helvetica,sans-Serif" font-size="10.00" fill="#000000">stdarg.h</text>
</a>
</g>
</g>
<!-- Node3&#45;&gt;Node4 -->
<g id="edge3" class="edge">
<title>Node3&#45;&gt;Node4</title>
<path fill="none" stroke="#191970" d="M244.9134,-168.2455C233.1695,-159.814 215.9801,-147.4729 202.3118,-137.6598"/>
<polygon fill="#191970" stroke="#191970" points="204.0954,-134.6316 193.9309,-131.6427 200.0129,-140.3179 204.0954,-134.6316"/>
</g>
<!-- Node5 -->
<g id="node5" class="node">
<title>Node5</title>
<g id="a_node5"><a xlink:href="irx_8h.html" target="_top" xlink:title=" ">
<polygon fill="#ffffff" stroke="#000000" points="302.5,-112.5 302.5,-131.5 340.5,-131.5 340.5,-112.5 302.5,-112.5"/>
<text text-anchor="middle" x="321.5" y="-119.5" font-family="Helvetica,sans-Serif" font-size="10.00" fill="#000000">irx.h</text>
</a>
</g>
</g>
<!-- Node3&#45;&gt;Node5 -->
<g id="edge4" class="edge">
<title>Node3&#45;&gt;Node5</title>
<path fill="none" stroke="#191970" d="M269.4738,-168.2455C278.6882,-160.0549 292.0532,-148.1749 302.9297,-138.5069"/>
<polygon fill="#191970" stroke="#191970" points="305.5032,-140.9023 310.652,-131.6427 300.8526,-135.6704 305.5032,-140.9023"/>
</g>
<!-- Node6 -->
<g id="node6" class="node">
<title>Node6</title>
<g id="a_node6"><a xlink:href="types_8h.html" target="_top" xlink:title=" ">
<polygon fill="#ffffff" stroke="#000000" points="342,-56.5 342,-75.5 395,-75.5 395,-56.5 342,-56.5"/>
<text text-anchor="middle" x="368.5" y="-63.5" font-family="Helvetica,sans-Serif" font-size="10.00" fill="#000000">types.h</text>
</a>
</g>
</g>
<!-- Node5&#45;&gt;Node6 -->
<g id="edge5" class="edge">
<title>Node5&#45;&gt;Node6</title>
<path fill="none" stroke="#191970" d="M329.6868,-112.2455C336.3589,-104.2958 345.9479,-92.8706 353.9253,-83.3656"/>
<polygon fill="#191970" stroke="#191970" points="356.6592,-85.5525 360.407,-75.6427 351.2974,-81.0524 356.6592,-85.5525"/>
</g>
<!-- Node7 -->
<g id="node7" class="node">
<title>Node7</title>
<g id="a_node7"><a xlink:title=" ">
<polygon fill="#ffffff" stroke="#bfbfbf" points="340.5,-.5 340.5,-19.5 396.5,-19.5 396.5,-.5 340.5,-.5"/>
<text text-anchor="middle" x="368.5" y="-7.5" font-family="Helvetica,sans-Serif" font-size="10.00" fill="#000000">stddef.h</text>
</a>
</g>
</g>
<!-- Node6&#45;&gt;Node7 -->
<g id="edge6" class="edge">
<title>Node6&#45;&gt;Node7</title>
<path fill="none" stroke="#191970" d="M368.5,-56.2455C368.5,-48.9382 368.5,-38.6944 368.5,-29.7046"/>
<polygon fill="#191970" stroke="#191970" points="372.0001,-29.6426 368.5,-19.6427 365.0001,-29.6427 372.0001,-29.6426"/>
</g>
<!-- Node8 -->
<g id="node8" class="node">
<title>Node8</title>
<g id="a_node8"><a xlink:href="tamtypes_8h.html" target="_top" xlink:title=" ">
<polygon fill="#ffffff" stroke="#000000" points="422.5,-.5 422.5,-19.5 494.5,-19.5 494.5,-.5 422.5,-.5"/>
<text text-anchor="middle" x="458.5" y="-7.5" font-family="Helvetica,sans-Serif" font-size="10.00" fill="#000000">tamtypes.h</text>
</a>
</g>
</g>
<!-- Node6&#45;&gt;Node8 -->
<g id="edge7" class="edge">
<title>Node6&#45;&gt;Node8</title>
<path fill="none" stroke="#191970" d="M384.1768,-56.2455C397.9856,-47.6534 418.3193,-35.0014 434.2292,-25.1018"/>
<polygon fill="#191970" stroke="#191970" points="436.3613,-27.8974 443.0028,-19.6427 432.6632,-21.954 436.3613,-27.8974"/>
</g>
<!-- Node9&#45;&gt;Node5 -->
<g id="edge10" class="edge">
<title>Node9&#45;&gt;Node5</title>
<path fill="none" stroke="#191970" d="M549.65,-169.919C546.8967,-169.2564 544.1512,-168.6083 541.5,-168 473.3067,-152.3528 392.7138,-136.0581 350.5447,-127.6991"/>
<polygon fill="#191970" stroke="#191970" points="351.1713,-124.2553 340.6825,-125.7501 349.8142,-131.1225 351.1713,-124.2553"/>
</g>
<!-- Node9&#45;&gt;Node6 -->
<g id="edge9" class="edge">
<title>Node9&#45;&gt;Node6</title>
<path fill="none" stroke="#191970" d="M563.3397,-168.4509C525.849,-148.7375 439.7153,-103.4465 395.6087,-80.2543"/>
<polygon fill="#191970" stroke="#191970" points="397.0942,-77.0811 386.6143,-75.5249 393.8364,-83.2768 397.0942,-77.0811"/>
</g>
<!-- Node10 -->
<g id="node10" class="node">
<title>Node10</title>
<g id="a_node10"><a xlink:href="io__common_8h.html" target="_top" xlink:title=" ">
<polygon fill="#ffffff" stroke="#000000" points="632,-112.5 632,-131.5 715,-131.5 715,-112.5 632,-112.5"/>
<text text-anchor="middle" x="673.5" y="-119.5" font-family="Helvetica,sans-Serif" font-size="10.00" fill="#000000">io_common.h</text>
</a>
</g>
</g>
<!-- Node9&#45;&gt;Node10 -->
<g id="edge11" class="edge">
<title>Node9&#45;&gt;Node10</title>
<path fill="none" stroke="#191970" d="M597.5252,-168.2455C611.6408,-159.6534 632.4263,-147.0014 648.6899,-137.1018"/>
<polygon fill="#191970" stroke="#191970" points="650.9363,-139.8319 657.6585,-131.6427 647.2966,-133.8525 650.9363,-139.8319"/>
</g>
<!-- Node13 -->
<g id="node13" class="node">
<title>Node13</title>
<g id="a_node13"><a xlink:href="iox__stat_8h.html" target="_top" xlink:title=" ">
<polygon fill="#ffffff" stroke="#000000" points="549,-112.5 549,-131.5 614,-131.5 614,-112.5 549,-112.5"/>
<text text-anchor="middle" x="581.5" y="-119.5" font-family="Helvetica,sans-Serif" font-size="10.00" fill="#000000">iox_stat.h</text>
</a>
</g>
</g>
<!-- Node9&#45;&gt;Node13 -->
<g id="edge14" class="edge">
<title>Node9&#45;&gt;Node13</title>
<path fill="none" stroke="#191970" d="M581.5,-168.2455C581.5,-160.9382 581.5,-150.6944 581.5,-141.7046"/>
<polygon fill="#191970" stroke="#191970" points="585.0001,-141.6426 581.5,-131.6427 578.0001,-141.6427 585.0001,-141.6426"/>
</g>
<!-- Node11 -->
<g id="node11" class="node">
<title>Node11</title>
<g id="a_node11"><a xlink:href="fcntl_8h.html" target="_top" xlink:title=" ">
<polygon fill="#ffffff" stroke="#000000" points="718,-56.5 718,-75.5 785,-75.5 785,-56.5 718,-56.5"/>
<text text-anchor="middle" x="751.5" y="-63.5" font-family="Helvetica,sans-Serif" font-size="10.00" fill="#000000">sys/fcntl.h</text>
</a>
</g>
</g>
<!-- Node10&#45;&gt;Node11 -->
<g id="edge12" class="edge">
<title>Node10&#45;&gt;Node11</title>
<path fill="none" stroke="#191970" d="M687.0866,-112.2455C698.8305,-103.814 716.0199,-91.4729 729.6882,-81.6598"/>
<polygon fill="#191970" stroke="#191970" points="731.9871,-84.3179 738.0691,-75.6427 727.9046,-78.6316 731.9871,-84.3179"/>
</g>
<!-- Node12 -->
<g id="node12" class="node">
<title>Node12</title>
<g id="a_node12"><a xlink:href="unistd_8h.html" target="_top" xlink:title=" ">
<polygon fill="#ffffff" stroke="#000000" points="625,-56.5 625,-75.5 700,-75.5 700,-56.5 625,-56.5"/>
<text text-anchor="middle" x="662.5" y="-63.5" font-family="Helvetica,sans-Serif" font-size="10.00" fill="#000000">sys/unistd.h</text>
</a>
</g>
</g>
<!-- Node10&#45;&gt;Node12 -->
<g id="edge13" class="edge">
<title>Node10&#45;&gt;Node12</title>
<path fill="none" stroke="#191970" d="M671.5839,-112.2455C670.1486,-104.9382 668.1364,-94.6944 666.3705,-85.7046"/>
<polygon fill="#191970" stroke="#191970" points="669.756,-84.7805 664.3941,-75.6427 662.8873,-86.1298 669.756,-84.7805"/>
</g>
<!-- Node14 -->
<g id="node14" class="node">
<title>Node14</title>
<g id="a_node14"><a xlink:href="time_8h.html" target="_top" xlink:title=" ">
<polygon fill="#ffffff" stroke="#000000" points="538.5,-56.5 538.5,-75.5 606.5,-75.5 606.5,-56.5 538.5,-56.5"/>
<text text-anchor="middle" x="572.5" y="-63.5" font-family="Helvetica,sans-Serif" font-size="10.00" fill="#000000">sys/time.h</text>
</a>
</g>
</g>
<!-- Node13&#45;&gt;Node14 -->
<g id="edge15" class="edge">
<title>Node13&#45;&gt;Node14</title>
<path fill="none" stroke="#191970" d="M579.9323,-112.2455C578.7579,-104.9382 577.1116,-94.6944 575.6668,-85.7046"/>
<polygon fill="#191970" stroke="#191970" points="579.0922,-84.9606 574.0497,-75.6427 572.1809,-86.0714 579.0922,-84.9606"/>
</g>
<!-- Node15&#45;&gt;Node5 -->
<g id="edge18" class="edge">
<title>Node15&#45;&gt;Node5</title>
<path fill="none" stroke="#191970" d="M331.4098,-168.2455C329.8439,-160.9382 327.6488,-150.6944 325.7224,-141.7046"/>
<polygon fill="#191970" stroke="#191970" points="329.084,-140.6873 323.5663,-131.6427 322.2393,-142.1541 329.084,-140.6873"/>
</g>
<!-- Node15&#45;&gt;Node6 -->
<g id="edge17" class="edge">
<title>Node15&#45;&gt;Node6</title>
<path fill="none" stroke="#191970" d="M337.0892,-168.1813C340.4393,-158.9031 345.5073,-144.5717 349.5,-132 354.4063,-116.5516 359.4594,-98.8998 363.12,-85.7405"/>
<polygon fill="#191970" stroke="#191970" points="366.5519,-86.4608 365.8336,-75.8903 359.8033,-84.6016 366.5519,-86.4608"/>
</g>
<!-- Node16&#45;&gt;Node4 -->
<g id="edge22" class="edge">
<title>Node16&#45;&gt;Node4</title>
<path fill="none" stroke="#191970" d="M116.9124,-168.2455C128.5057,-159.814 145.4748,-147.4729 158.9678,-137.6598"/>
<polygon fill="#191970" stroke="#191970" points="161.2126,-140.355 167.2413,-131.6427 157.0953,-134.6938 161.2126,-140.355"/>
</g>
<!-- Node16&#45;&gt;Node5 -->
<g id="edge21" class="edge">
<title>Node16&#45;&gt;Node5</title>
<path fill="none" stroke="#191970" d="M137.5625,-169.25C180.195,-158.2985 252.4713,-139.7322 292.5546,-129.4355"/>
<polygon fill="#191970" stroke="#191970" points="293.4349,-132.8231 302.2496,-126.9451 291.6932,-126.0432 293.4349,-132.8231"/>
</g>
<!-- Node16&#45;&gt;Node6 -->
<g id="edge20" class="edge">
<title>Node16&#45;&gt;Node6</title>
<path fill="none" stroke="#191970" d="M106.5977,-168.1647C111.7583,-153.4785 123.5659,-126.0453 143.5,-112 158.758,-101.2494 272.081,-81.6139 331.8415,-71.8438"/>
<polygon fill="#191970" stroke="#191970" points="332.6843,-75.2529 341.9937,-70.1947 331.5619,-68.3434 332.6843,-75.2529"/>
</g>
<!-- Node17&#45;&gt;Node4 -->
<g id="edge26" class="edge">
<title>Node17&#45;&gt;Node4</title>
<path fill="none" stroke="#191970" d="M184.6291,-168.2455C183.9766,-160.9382 183.062,-150.6944 182.2593,-141.7046"/>
<polygon fill="#191970" stroke="#191970" points="185.7365,-141.2918 181.361,-131.6427 178.7642,-141.9143 185.7365,-141.2918"/>
</g>
<!-- Node17&#45;&gt;Node5 -->
<g id="edge25" class="edge">
<title>Node17&#45;&gt;Node5</title>
<path fill="none" stroke="#191970" d="M208.8792,-168.3733C232.2113,-158.7659 268.0916,-143.9917 293.0608,-133.7103"/>
<polygon fill="#191970" stroke="#191970" points="294.4584,-136.9199 302.3726,-129.876 291.7931,-130.4472 294.4584,-136.9199"/>
</g>
<!-- Node17&#45;&gt;Node6 -->
<g id="edge24" class="edge">
<title>Node17&#45;&gt;Node6</title>
<path fill="none" stroke="#191970" d="M201.1025,-168.4509C232.9752,-148.9441 305.7682,-104.3932 344.006,-80.9909"/>
<polygon fill="#191970" stroke="#191970" points="346.2347,-83.7304 352.937,-75.5249 342.5806,-77.7598 346.2347,-83.7304"/>
</g>
<!-- Node18 -->
<g id="node18" class="node">
<title>Node18</title>
<g id="a_node18"><a xlink:href="setjmp_8h.html" target="_top" xlink:title=" ">
<polygon fill="#ffffff" stroke="#000000" points="236,-56.5 236,-75.5 295,-75.5 295,-56.5 236,-56.5"/>
<text text-anchor="middle" x="265.5" y="-63.5" font-family="Helvetica,sans-Serif" font-size="10.00" fill="#000000">setjmp.h</text>
</a>
</g>
</g>
<!-- Node17&#45;&gt;Node18 -->
<g id="edge27" class="edge">
<title>Node17&#45;&gt;Node18</title>
<path fill="none" stroke="#191970" d="M192.3208,-168.4509C205.7228,-149.688 235.6752,-107.7548 252.8157,-83.758"/>
<polygon fill="#191970" stroke="#191970" points="255.7322,-85.6966 258.6965,-75.5249 250.036,-81.6279 255.7322,-85.6966"/>
</g>
<!-- Node18&#45;&gt;Node8 -->
<g id="edge28" class="edge">
<title>Node18&#45;&gt;Node8</title>
<path fill="none" stroke="#191970" d="M295.2333,-57.3727C327.4182,-48.0341 379.0384,-33.0562 415.6103,-22.4447"/>
<polygon fill="#191970" stroke="#191970" points="416.8692,-25.7238 425.4978,-19.5758 414.9185,-19.0011 416.8692,-25.7238"/>
</g>
<!-- Node19&#45;&gt;Node5 -->
<g id="edge31" class="edge">
<title>Node19&#45;&gt;Node5</title>
<path fill="none" stroke="#191970" d="M397.4748,-168.2455C383.3592,-159.6534 362.5737,-147.0014 346.3101,-137.1018"/>
<polygon fill="#191970" stroke="#191970" points="347.7034,-133.8525 337.3415,-131.6427 344.0637,-139.8319 347.7034,-133.8525"/>
</g>
<!-- Node19&#45;&gt;Node6 -->
<g id="edge30" class="edge">
<title>Node19&#45;&gt;Node6</title>
<path fill="none" stroke="#191970" d="M409.6633,-168.4509C402.2575,-150.0186 385.8673,-109.2254 376.1512,-85.043"/>
<polygon fill="#191970" stroke="#191970" points="379.3029,-83.499 372.327,-75.5249 372.8075,-86.1088 379.3029,-83.499"/>
</g>
<!-- Node20&#45;&gt;Node5 -->
<g id="edge34" class="edge">
<title>Node20&#45;&gt;Node5</title>
<path fill="none" stroke="#191970" d="M466.4164,-168.3733C433.9657,-157.989 382.6513,-141.5684 350.5914,-131.3092"/>
<polygon fill="#191970" stroke="#191970" points="351.4982,-127.9247 340.9072,-128.2103 349.3647,-134.5916 351.4982,-127.9247"/>
</g>
<!-- Node20&#45;&gt;Node6 -->
<g id="edge33" class="edge">
<title>Node20&#45;&gt;Node6</title>
<path fill="none" stroke="#191970" d="M485.5868,-168.4509C463.6711,-149.2747 414.0957,-105.8962 387.0129,-82.1988"/>
<polygon fill="#191970" stroke="#191970" points="389.2162,-79.4759 379.3856,-75.5249 384.6066,-84.744 389.2162,-79.4759"/>
</g>
<!-- Node21 -->
<g id="node21" class="node">
<title>Node21</title>
<g id="a_node21"><a xlink:href="libcdvd-common_8h.html" target="_top" xlink:title=" ">
<polygon fill="#ffffff" stroke="#000000" points="413,-56.5 413,-75.5 520,-75.5 520,-56.5 413,-56.5"/>
<text text-anchor="middle" x="466.5" y="-63.5" font-family="Helvetica,sans-Serif" font-size="10.00" fill="#000000">libcdvd&#45;common.h</text>
</a>
</g>
</g>
<!-- Node20&#45;&gt;Node21 -->
<g id="edge35" class="edge">
<title>Node20&#45;&gt;Node21</title>
<path fill="none" stroke="#191970" d="M493.9422,-168.4509C489.0271,-150.1013 478.1761,-109.5908 471.6882,-85.3693"/>
<polygon fill="#191970" stroke="#191970" points="475.0196,-84.2788 469.0513,-75.5249 468.2579,-86.09 475.0196,-84.2788"/>
</g>
<!-- Node21&#45;&gt;Node8 -->
<g id="edge36" class="edge">
<title>Node21&#45;&gt;Node8</title>
<path fill="none" stroke="#191970" d="M465.1065,-56.2455C464.0626,-48.9382 462.5992,-38.6944 461.3149,-29.7046"/>
<polygon fill="#191970" stroke="#191970" points="464.7566,-29.0472 459.8775,-19.6427 457.827,-30.0372 464.7566,-29.0472"/>
</g>
<!-- Node23&#45;&gt;Node8 -->
<g id="edge39" class="edge">
<title>Node23&#45;&gt;Node8</title>
<path fill="none" stroke="#191970" d="M777.0994,-112.443C789.8499,-98.5996 809.1497,-72.7919 794.5,-56 775.7401,-34.4968 592.6962,-19.1812 504.9522,-13.0136"/>
<polygon fill="#191970" stroke="#191970" points="504.9594,-9.5058 494.7416,-12.307 504.4761,-16.4891 504.9594,-9.5058"/>
</g>
<!-- Node26 -->
<g id="node26" class="node">
<title>Node26</title>
<g id="a_node26"><a xlink:title=" ">
<polygon fill="#ffffff" stroke="#bfbfbf" points="820,-112.5 820,-131.5 873,-131.5 873,-112.5 820,-112.5"/>
<text text-anchor="middle" x="846.5" y="-119.5" font-family="Helvetica,sans-Serif" font-size="10.00" fill="#000000">types.h</text>
</a>
</g>
</g>
<!-- Node25&#45;&gt;Node26 -->
<g id="edge42" class="edge">
<title>Node25&#45;&gt;Node26</title>
<path fill="none" stroke="#191970" d="M846.5,-168.2455C846.5,-160.9382 846.5,-150.6944 846.5,-141.7046"/>
<polygon fill="#191970" stroke="#191970" points="850.0001,-141.6426 846.5,-131.6427 843.0001,-141.6427 850.0001,-141.6426"/>
</g>
</g>
</svg>
        <g id="navigator" transform="translate(0 0)" fill="#404254">
                <rect fill="#f2f5e9" fill-opacity="0.5" stroke="#606060" stroke-width=".5" x="0" y="0" width="60" height="60"/>
                <use id="zoomplus" xlink:href="#zoomPlus" x="17" y="9" onmousedown="handleZoom(evt,'in')"/>
                <use id="zoomminus" xlink:href="#zoomMin" x="42" y="9" onmousedown="handleZoom(evt,'out')"/>
                <use id="reset" xlink:href="#resetDef" x="30" y="36" onmousedown="handleReset()"/>
                <g id="arrowUp" xlink:href="#dirArrow" transform="translate(30 24)" onmousedown="handlePan(0,-1)">
                  <use xlink:href="#rim" fill="#404040">
                        <set attributeName="fill" to="#808080" begin="arrowUp.mouseover" end="arrowUp.mouseout"/>
                  </use>
                  <path fill="none" stroke="white" stroke-width="1.5" d="M0,-3.0v7 M-2.5,-0.5L0,-3.0L2.5,-0.5"/>
                </g>
                <g id="arrowRight" xlink:href="#dirArrow" transform="rotate(90) translate(36 -43)" onmousedown="handlePan(1,0)">
                  <use xlink:href="#rim" fill="#404040">
                        <set attributeName="fill" to="#808080" begin="arrowRight.mouseover" end="arrowRight.mouseout"/>
                  </use>
                  <path fill="none" stroke="white" stroke-width="1.5" d="M0,-3.0v7 M-2.5,-0.5L0,-3.0L2.5,-0.5"/>
                </g>
                <g id="arrowDown" xlink:href="#dirArrow" transform="rotate(180) translate(-30 -48)" onmousedown="handlePan(0,1)">
                  <use xlink:href="#rim" fill="#404040">
                        <set attributeName="fill" to="#808080" begin="arrowDown.mouseover" end="arrowDown.mouseout"/>
                  </use>
                  <path fill="none" stroke="white" stroke-width="1.5" d="M0,-3.0v7 M-2.5,-0.5L0,-3.0L2.5,-0.5"/>
                </g>
                <g id="arrowLeft" xlink:href="#dirArrow" transform="rotate(270) translate(-36 17)" onmousedown="handlePan(-1,0)">
                  <use xlink:href="#rim" fill="#404040">
                        <set attributeName="fill" to="#808080" begin="arrowLeft.mouseover" end="arrowLeft.mouseout"/>
                  </use>
                  <path fill="none" stroke="white" stroke-width="1.5" d="M0,-3.0v7 M-2.5,-0.5L0,-3.0L2.5,-0.5"/>
                </g>
        </g>
        <svg viewBox="0 0 15 15" width="100%" height="30px" preserveAspectRatio="xMaxYMin meet">
         <g id="arrow_out" transform="scale(0.3 0.3)">
          <a xlink:href="libpfs_2src_2misc_8c__incl_org.svg" target="_base">
           <rect id="button" ry="5" rx="5" y="6" x="6" height="38" width="38"
                fill="#f2f5e9" fill-opacity="0.5" stroke="#606060" stroke-width="1.0"/>
           <path id="arrow"
             d="M 11.500037,31.436501 C 11.940474,20.09759 22.043105,11.32322 32.158766,21.979434 L 37.068811,17.246167 C 37.068811,17.246167 37.088388,32 37.088388,32 L 22.160133,31.978069 C 22.160133,31.978069 26.997745,27.140456 26.997745,27.140456 C 18.528582,18.264221 13.291696,25.230495 11.500037,31.436501 z"
             style="fill:#404040;"/>
          </a>
         </g>
        </svg>
</svg>
