<?xml version="1.0" encoding="UTF-8" standalone="no"?>
<!DOCTYPE svg PUBLIC "-//W3C//DTD SVG 1.1//EN"
 "http://www.w3.org/Graphics/SVG/1.1/DTD/svg11.dtd">
<!-- Generated by graphviz version 2.40.1 (20161225.0304)
 -->
<!-- Title: iop/kernel/include/libsd.h Pages: 1 -->
<svg width="176pt" height="207pt"
 viewBox="0.00 0.00 175.50 207.00" xmlns="http://www.w3.org/2000/svg" xmlns:xlink="http://www.w3.org/1999/xlink">
<g id="graph0" class="graph" transform="scale(1 1) rotate(0) translate(4 203)">
<title>iop/kernel/include/libsd.h</title>
<polygon fill="#ffffff" stroke="transparent" points="-4,4 -4,-203 171.5,-203 171.5,4 -4,4"/>
<!-- Node1 -->
<g id="node1" class="node">
<title>Node1</title>
<g id="a_node1"><a xlink:title=" ">
<polygon fill="#bfbfbf" stroke="#000000" points="21,-168.5 21,-198.5 125,-198.5 125,-168.5 21,-168.5"/>
<text text-anchor="start" x="29" y="-186.5" font-family="Helvetica,sans-Serif" font-size="10.00" fill="#000000">iop/kernel/include</text>
<text text-anchor="middle" x="73" y="-175.5" font-family="Helvetica,sans-Serif" font-size="10.00" fill="#000000">/libsd.h</text>
</a>
</g>
</g>
<!-- Node2 -->
<g id="node2" class="node">
<title>Node2</title>
<g id="a_node2"><a xlink:href="types_8h.html" target="_top" xlink:title=" ">
<polygon fill="#ffffff" stroke="#000000" points="1.5,-56.5 1.5,-75.5 54.5,-75.5 54.5,-56.5 1.5,-56.5"/>
<text text-anchor="middle" x="28" y="-63.5" font-family="Helvetica,sans-Serif" font-size="10.00" fill="#000000">types.h</text>
</a>
</g>
</g>
<!-- Node1&#45;&gt;Node2 -->
<g id="edge1" class="edge">
<title>Node1&#45;&gt;Node2</title>
<path fill="none" stroke="#191970" d="M63.3872,-168.2049C57.4329,-158.2048 49.9954,-144.6893 45,-132 39.0403,-116.8614 34.5784,-98.9448 31.7246,-85.6018"/>
<polygon fill="#191970" stroke="#191970" points="35.1209,-84.7384 29.708,-75.6306 28.2598,-86.126 35.1209,-84.7384"/>
</g>
<!-- Node5 -->
<g id="node5" class="node">
<title>Node5</title>
<g id="a_node5"><a xlink:href="irx_8h.html" target="_top" xlink:title=" ">
<polygon fill="#ffffff" stroke="#000000" points="54,-112.5 54,-131.5 92,-131.5 92,-112.5 54,-112.5"/>
<text text-anchor="middle" x="73" y="-119.5" font-family="Helvetica,sans-Serif" font-size="10.00" fill="#000000">irx.h</text>
</a>
</g>
</g>
<!-- Node1&#45;&gt;Node5 -->
<g id="edge4" class="edge">
<title>Node1&#45;&gt;Node5</title>
<path fill="none" stroke="#191970" d="M73,-168.2977C73,-160.3834 73,-150.6043 73,-142.0759"/>
<polygon fill="#191970" stroke="#191970" points="76.5001,-141.8469 73,-131.8469 69.5001,-141.847 76.5001,-141.8469"/>
</g>
<!-- Node6 -->
<g id="node6" class="node">
<title>Node6</title>
<g id="a_node6"><a xlink:href="libsd-common_8h.html" target="_top" xlink:title=" ">
<polygon fill="#ffffff" stroke="#000000" points="72.5,-56.5 72.5,-75.5 167.5,-75.5 167.5,-56.5 72.5,-56.5"/>
<text text-anchor="middle" x="120" y="-63.5" font-family="Helvetica,sans-Serif" font-size="10.00" fill="#000000">libsd&#45;common.h</text>
</a>
</g>
</g>
<!-- Node1&#45;&gt;Node6 -->
<g id="edge6" class="edge">
<title>Node1&#45;&gt;Node6</title>
<path fill="none" stroke="#191970" d="M82.4912,-168.156C88.397,-158.1365 95.8261,-144.6176 101,-132 107.2202,-116.8307 112.2398,-98.9165 115.554,-85.5821"/>
<polygon fill="#191970" stroke="#191970" points="119.0147,-86.1579 117.9258,-75.6191 112.205,-84.5367 119.0147,-86.1579"/>
</g>
<!-- Node3 -->
<g id="node3" class="node">
<title>Node3</title>
<g id="a_node3"><a xlink:title=" ">
<polygon fill="#ffffff" stroke="#bfbfbf" points="0,-.5 0,-19.5 56,-19.5 56,-.5 0,-.5"/>
<text text-anchor="middle" x="28" y="-7.5" font-family="Helvetica,sans-Serif" font-size="10.00" fill="#000000">stddef.h</text>
</a>
</g>
</g>
<!-- Node2&#45;&gt;Node3 -->
<g id="edge2" class="edge">
<title>Node2&#45;&gt;Node3</title>
<path fill="none" stroke="#191970" d="M28,-56.2455C28,-48.9382 28,-38.6944 28,-29.7046"/>
<polygon fill="#191970" stroke="#191970" points="31.5001,-29.6426 28,-19.6427 24.5001,-29.6427 31.5001,-29.6426"/>
</g>
<!-- Node4 -->
<g id="node4" class="node">
<title>Node4</title>
<g id="a_node4"><a xlink:href="tamtypes_8h.html" target="_top" xlink:title=" ">
<polygon fill="#ffffff" stroke="#000000" points="79,-.5 79,-19.5 151,-19.5 151,-.5 79,-.5"/>
<text text-anchor="middle" x="115" y="-7.5" font-family="Helvetica,sans-Serif" font-size="10.00" fill="#000000">tamtypes.h</text>
</a>
</g>
</g>
<!-- Node2&#45;&gt;Node4 -->
<g id="edge3" class="edge">
<title>Node2&#45;&gt;Node4</title>
<path fill="none" stroke="#191970" d="M43.1542,-56.2455C56.5027,-47.6534 76.1586,-35.0014 91.5383,-25.1018"/>
<polygon fill="#191970" stroke="#191970" points="93.5051,-27.9982 100.0194,-19.6427 89.7164,-22.1121 93.5051,-27.9982"/>
</g>
<!-- Node5&#45;&gt;Node2 -->
<g id="edge5" class="edge">
<title>Node5&#45;&gt;Node2</title>
<path fill="none" stroke="#191970" d="M65.1616,-112.2455C58.838,-104.3761 49.7776,-93.101 42.1864,-83.6542"/>
<polygon fill="#191970" stroke="#191970" points="44.7408,-81.2454 35.7486,-75.6427 39.2842,-85.6302 44.7408,-81.2454"/>
</g>
<!-- Node6&#45;&gt;Node4 -->
<g id="edge7" class="edge">
<title>Node6&#45;&gt;Node4</title>
<path fill="none" stroke="#191970" d="M119.1291,-56.2455C118.4766,-48.9382 117.562,-38.6944 116.7593,-29.7046"/>
<polygon fill="#191970" stroke="#191970" points="120.2365,-29.2918 115.861,-19.6427 113.2642,-29.9143 120.2365,-29.2918"/>
</g>
</g>
</svg>
