<?xml version="1.0" encoding="UTF-8" standalone="no"?>
<!DOCTYPE svg PUBLIC "-//W3C//DTD SVG 1.1//EN"
 "http://www.w3.org/Graphics/SVG/1.1/DTD/svg11.dtd">
<!-- Generated by graphviz version 2.40.1 (20161225.0304)
 -->
<!-- Title: iop/kernel/include/limits.h Pages: 1 -->
<svg width="652pt" height="106pt"
 viewBox="0.00 0.00 651.50 106.00" xmlns="http://www.w3.org/2000/svg" xmlns:xlink="http://www.w3.org/1999/xlink">
<g id="graph0" class="graph" transform="scale(1 1) rotate(0) translate(4 102)">
<title>iop/kernel/include/limits.h</title>
<polygon fill="#ffffff" stroke="transparent" points="-4,4 -4,-102 647.5,-102 647.5,4 -4,4"/>
<!-- Node1 -->
<g id="node1" class="node">
<title>Node1</title>
<g id="a_node1"><a xlink:title=" ">
<polygon fill="#bfbfbf" stroke="#000000" points="261.5,-67.5 261.5,-97.5 365.5,-97.5 365.5,-67.5 261.5,-67.5"/>
<text text-anchor="start" x="269.5" y="-85.5" font-family="Helvetica,sans-Serif" font-size="10.00" fill="#000000">iop/kernel/include</text>
<text text-anchor="middle" x="313.5" y="-74.5" font-family="Helvetica,sans-Serif" font-size="10.00" fill="#000000">/limits.h</text>
</a>
</g>
</g>
<!-- Node2 -->
<g id="node2" class="node">
<title>Node2</title>
<g id="a_node2"><a xlink:href="fs_2bdmfs__vfat_2src_2fat__driver_8c.html" target="_top" xlink:title=" ">
<polygon fill="#ffffff" stroke="#000000" points="0,-.5 0,-30.5 119,-30.5 119,-.5 0,-.5"/>
<text text-anchor="start" x="8" y="-18.5" font-family="Helvetica,sans-Serif" font-size="10.00" fill="#000000">iop/fs/bdmfs_vfat/src</text>
<text text-anchor="middle" x="59.5" y="-7.5" font-family="Helvetica,sans-Serif" font-size="10.00" fill="#000000">/fat_driver.c</text>
</a>
</g>
</g>
<!-- Node1&#45;&gt;Node2 -->
<g id="edge1" class="edge">
<title>Node1&#45;&gt;Node2</title>
<path fill="none" stroke="#191970" d="M251.5846,-66.168C210.4674,-55.3221 156.8774,-41.1862 116.7524,-30.602"/>
<polygon fill="#191970" stroke="#191970" points="250.9244,-69.6135 261.4864,-68.7799 252.7098,-62.845 250.9244,-69.6135"/>
</g>
<!-- Node3 -->
<g id="node3" class="node">
<title>Node3</title>
<g id="a_node3"><a xlink:href="bitmap_8c.html" target="_top" xlink:title=" ">
<polygon fill="#ffffff" stroke="#000000" points="137.5,-.5 137.5,-30.5 237.5,-30.5 237.5,-.5 137.5,-.5"/>
<text text-anchor="start" x="145.5" y="-18.5" font-family="Helvetica,sans-Serif" font-size="10.00" fill="#000000">iop/hdd/libpfs/src</text>
<text text-anchor="middle" x="187.5" y="-7.5" font-family="Helvetica,sans-Serif" font-size="10.00" fill="#000000">/bitmap.c</text>
</a>
</g>
</g>
<!-- Node1&#45;&gt;Node3 -->
<g id="edge2" class="edge">
<title>Node1&#45;&gt;Node3</title>
<path fill="none" stroke="#191970" d="M276.1422,-62.6352C256.9355,-52.422 233.8947,-40.1702 216.1184,-30.7177"/>
<polygon fill="#191970" stroke="#191970" points="274.7505,-65.8591 285.2231,-67.4639 278.037,-59.6786 274.7505,-65.8591"/>
</g>
<!-- Node4 -->
<g id="node4" class="node">
<title>Node4</title>
<g id="a_node4"><a xlink:href="network_2netman_2src_2rpc__client_8c.html" target="_top" xlink:title=" ">
<polygon fill="#ffffff" stroke="#000000" points="256,-.5 256,-30.5 371,-30.5 371,-.5 256,-.5"/>
<text text-anchor="start" x="264" y="-18.5" font-family="Helvetica,sans-Serif" font-size="10.00" fill="#000000">iop/network/netman</text>
<text text-anchor="middle" x="313.5" y="-7.5" font-family="Helvetica,sans-Serif" font-size="10.00" fill="#000000">/src/rpc_client.c</text>
</a>
</g>
</g>
<!-- Node1&#45;&gt;Node4 -->
<g id="edge3" class="edge">
<title>Node1&#45;&gt;Node4</title>
<path fill="none" stroke="#191970" d="M313.5,-57.0249C313.5,-48.128 313.5,-38.4287 313.5,-30.6432"/>
<polygon fill="#191970" stroke="#191970" points="310.0001,-57.2966 313.5,-67.2967 317.0001,-57.2967 310.0001,-57.2966"/>
</g>
<!-- Node5 -->
<g id="node5" class="node">
<title>Node5</title>
<g id="a_node5"><a xlink:href="smb_8c.html" target="_top" xlink:title=" ">
<polygon fill="#ffffff" stroke="#000000" points="389.5,-.5 389.5,-30.5 509.5,-30.5 509.5,-.5 389.5,-.5"/>
<text text-anchor="start" x="397.5" y="-18.5" font-family="Helvetica,sans-Serif" font-size="10.00" fill="#000000">iop/network/smbman</text>
<text text-anchor="middle" x="449.5" y="-7.5" font-family="Helvetica,sans-Serif" font-size="10.00" fill="#000000">/src/smb.c</text>
</a>
</g>
</g>
<!-- Node1&#45;&gt;Node5 -->
<g id="edge4" class="edge">
<title>Node1&#45;&gt;Node5</title>
<path fill="none" stroke="#191970" d="M353.2583,-62.9132C374.1011,-52.645 399.2487,-40.2561 418.6103,-30.7177"/>
<polygon fill="#191970" stroke="#191970" points="351.4448,-59.9049 344.0211,-67.4639 354.5383,-66.1842 351.4448,-59.9049"/>
</g>
<!-- Node6 -->
<g id="node6" class="node">
<title>Node6</title>
<g id="a_node6"><a xlink:href="usb_2usbhdfsd_2src_2fat__driver_8c.html" target="_top" xlink:title=" ">
<polygon fill="#ffffff" stroke="#000000" points="527.5,-.5 527.5,-30.5 643.5,-30.5 643.5,-.5 527.5,-.5"/>
<text text-anchor="start" x="535.5" y="-18.5" font-family="Helvetica,sans-Serif" font-size="10.00" fill="#000000">iop/usb/usbhdfsd/src</text>
<text text-anchor="middle" x="585.5" y="-7.5" font-family="Helvetica,sans-Serif" font-size="10.00" fill="#000000">/fat_driver.c</text>
</a>
</g>
</g>
<!-- Node1&#45;&gt;Node6 -->
<g id="edge5" class="edge">
<title>Node1&#45;&gt;Node6</title>
<path fill="none" stroke="#191970" d="M375.3979,-67.2531C421.0417,-56.0099 482.7156,-40.8182 527.4281,-29.8045"/>
<polygon fill="#191970" stroke="#191970" points="374.4951,-63.8708 365.6225,-69.661 376.1694,-70.6676 374.4951,-63.8708"/>
</g>
</g>
</svg>
