<?xml version="1.0" encoding="UTF-8" standalone="no"?>
<!DOCTYPE svg PUBLIC "-//W3C//DTD SVG 1.1//EN"
 "http://www.w3.org/Graphics/SVG/1.1/DTD/svg11.dtd">
<!-- Generated by graphviz version 2.40.1 (20161225.0304)
 -->
<!-- Title: iop/usb/usbhdfsd/src/include/mass_stor.h Pages: 1 -->
<svg width="928pt" height="106pt"
 viewBox="0.00 0.00 928.00 106.00" xmlns="http://www.w3.org/2000/svg" xmlns:xlink="http://www.w3.org/1999/xlink">
<g id="graph0" class="graph" transform="scale(1 1) rotate(0) translate(4 102)">
<title>iop/usb/usbhdfsd/src/include/mass_stor.h</title>
<polygon fill="#ffffff" stroke="transparent" points="-4,4 -4,-102 924,-102 924,4 -4,4"/>
<!-- Node1 -->
<g id="node1" class="node">
<title>Node1</title>
<g id="a_node1"><a xlink:title=" ">
<polygon fill="#bfbfbf" stroke="#000000" points="402,-67.5 402,-97.5 518,-97.5 518,-67.5 402,-67.5"/>
<text text-anchor="start" x="410" y="-85.5" font-family="Helvetica,sans-Serif" font-size="10.00" fill="#000000">iop/usb/usbhdfsd/src</text>
<text text-anchor="middle" x="460" y="-74.5" font-family="Helvetica,sans-Serif" font-size="10.00" fill="#000000">/include/mass_stor.h</text>
</a>
</g>
</g>
<!-- Node2 -->
<g id="node2" class="node">
<title>Node2</title>
<g id="a_node2"><a xlink:href="api_8c.html" target="_top" xlink:title=" ">
<polygon fill="#ffffff" stroke="#000000" points="0,-.5 0,-30.5 116,-30.5 116,-.5 0,-.5"/>
<text text-anchor="start" x="8" y="-18.5" font-family="Helvetica,sans-Serif" font-size="10.00" fill="#000000">iop/usb/usbhdfsd/src</text>
<text text-anchor="middle" x="58" y="-7.5" font-family="Helvetica,sans-Serif" font-size="10.00" fill="#000000">/api.c</text>
</a>
</g>
</g>
<!-- Node1&#45;&gt;Node2 -->
<g id="edge1" class="edge">
<title>Node1&#45;&gt;Node2</title>
<path fill="none" stroke="#191970" d="M391.8394,-73.5444C323.9672,-64.2691 216.9259,-48.6735 125,-31 122.0689,-30.4365 119.0713,-29.8352 116.0482,-29.2089"/>
<polygon fill="#191970" stroke="#191970" points="391.5947,-77.0432 401.975,-74.9223 392.5377,-70.107 391.5947,-77.0432"/>
</g>
<!-- Node3 -->
<g id="node3" class="node">
<title>Node3</title>
<g id="a_node3"><a xlink:href="usb_2usbhdfsd_2src_2fat__driver_8c.html" target="_top" xlink:title=" ">
<polygon fill="#ffffff" stroke="#000000" points="134,-.5 134,-30.5 250,-30.5 250,-.5 134,-.5"/>
<text text-anchor="start" x="142" y="-18.5" font-family="Helvetica,sans-Serif" font-size="10.00" fill="#000000">iop/usb/usbhdfsd/src</text>
<text text-anchor="middle" x="192" y="-7.5" font-family="Helvetica,sans-Serif" font-size="10.00" fill="#000000">/fat_driver.c</text>
</a>
</g>
</g>
<!-- Node1&#45;&gt;Node3 -->
<g id="edge2" class="edge">
<title>Node1&#45;&gt;Node3</title>
<path fill="none" stroke="#191970" d="M392.1258,-65.5314C348.2702,-54.5675 291.8038,-40.4509 250.0385,-30.0096"/>
<polygon fill="#191970" stroke="#191970" points="391.2977,-68.9321 401.848,-67.962 392.9955,-62.1411 391.2977,-68.9321"/>
</g>
<!-- Node4 -->
<g id="node4" class="node">
<title>Node4</title>
<g id="a_node4"><a xlink:href="usb_2usbhdfsd_2src_2fat__write_8c.html" target="_top" xlink:title=" ">
<polygon fill="#ffffff" stroke="#000000" points="268,-.5 268,-30.5 384,-30.5 384,-.5 268,-.5"/>
<text text-anchor="start" x="276" y="-18.5" font-family="Helvetica,sans-Serif" font-size="10.00" fill="#000000">iop/usb/usbhdfsd/src</text>
<text text-anchor="middle" x="326" y="-7.5" font-family="Helvetica,sans-Serif" font-size="10.00" fill="#000000">/fat_write.c</text>
</a>
</g>
</g>
<!-- Node1&#45;&gt;Node4 -->
<g id="edge3" class="edge">
<title>Node1&#45;&gt;Node4</title>
<path fill="none" stroke="#191970" d="M420.8264,-62.9132C400.2901,-52.645 375.5123,-40.2561 356.4355,-30.7177"/>
<polygon fill="#191970" stroke="#191970" points="419.4182,-66.1222 429.9278,-67.4639 422.5488,-59.8612 419.4182,-66.1222"/>
</g>
<!-- Node5 -->
<g id="node5" class="node">
<title>Node5</title>
<g id="a_node5"><a xlink:href="usb_2usbhdfsd_2src_2fs__driver_8c.html" target="_top" xlink:title=" ">
<polygon fill="#ffffff" stroke="#000000" points="402,-.5 402,-30.5 518,-30.5 518,-.5 402,-.5"/>
<text text-anchor="start" x="410" y="-18.5" font-family="Helvetica,sans-Serif" font-size="10.00" fill="#000000">iop/usb/usbhdfsd/src</text>
<text text-anchor="middle" x="460" y="-7.5" font-family="Helvetica,sans-Serif" font-size="10.00" fill="#000000">/fs_driver.c</text>
</a>
</g>
</g>
<!-- Node1&#45;&gt;Node5 -->
<g id="edge4" class="edge">
<title>Node1&#45;&gt;Node5</title>
<path fill="none" stroke="#191970" d="M460,-57.0249C460,-48.128 460,-38.4287 460,-30.6432"/>
<polygon fill="#191970" stroke="#191970" points="456.5001,-57.2966 460,-67.2967 463.5001,-57.2967 456.5001,-57.2966"/>
</g>
<!-- Node6 -->
<g id="node6" class="node">
<title>Node6</title>
<g id="a_node6"><a xlink:href="usb_2usbhdfsd_2src_2part__driver_8c.html" target="_top" xlink:title=" ">
<polygon fill="#ffffff" stroke="#000000" points="536,-.5 536,-30.5 652,-30.5 652,-.5 536,-.5"/>
<text text-anchor="start" x="544" y="-18.5" font-family="Helvetica,sans-Serif" font-size="10.00" fill="#000000">iop/usb/usbhdfsd/src</text>
<text text-anchor="middle" x="594" y="-7.5" font-family="Helvetica,sans-Serif" font-size="10.00" fill="#000000">/part_driver.c</text>
</a>
</g>
</g>
<!-- Node1&#45;&gt;Node6 -->
<g id="edge5" class="edge">
<title>Node1&#45;&gt;Node6</title>
<path fill="none" stroke="#191970" d="M499.1736,-62.9132C519.7099,-52.645 544.4877,-40.2561 563.5645,-30.7177"/>
<polygon fill="#191970" stroke="#191970" points="497.4512,-59.8612 490.0722,-67.4639 500.5818,-66.1222 497.4512,-59.8612"/>
</g>
<!-- Node7 -->
<g id="node7" class="node">
<title>Node7</title>
<g id="a_node7"><a xlink:href="usb_2usbhdfsd_2src_2scache_8c.html" target="_top" xlink:title=" ">
<polygon fill="#ffffff" stroke="#000000" points="670,-.5 670,-30.5 786,-30.5 786,-.5 670,-.5"/>
<text text-anchor="start" x="678" y="-18.5" font-family="Helvetica,sans-Serif" font-size="10.00" fill="#000000">iop/usb/usbhdfsd/src</text>
<text text-anchor="middle" x="728" y="-7.5" font-family="Helvetica,sans-Serif" font-size="10.00" fill="#000000">/scache.c</text>
</a>
</g>
</g>
<!-- Node1&#45;&gt;Node7 -->
<g id="edge6" class="edge">
<title>Node1&#45;&gt;Node7</title>
<path fill="none" stroke="#191970" d="M527.8742,-65.5314C571.7298,-54.5675 628.1962,-40.4509 669.9615,-30.0096"/>
<polygon fill="#191970" stroke="#191970" points="527.0045,-62.1411 518.152,-67.962 528.7023,-68.9321 527.0045,-62.1411"/>
</g>
<!-- Node8 -->
<g id="node8" class="node">
<title>Node8</title>
<g id="a_node8"><a xlink:href="usb__driver_8c.html" target="_top" xlink:title=" ">
<polygon fill="#ffffff" stroke="#000000" points="804,-.5 804,-30.5 920,-30.5 920,-.5 804,-.5"/>
<text text-anchor="start" x="812" y="-18.5" font-family="Helvetica,sans-Serif" font-size="10.00" fill="#000000">iop/usb/usbhdfsd/src</text>
<text text-anchor="middle" x="862" y="-7.5" font-family="Helvetica,sans-Serif" font-size="10.00" fill="#000000">/usb_driver.c</text>
</a>
</g>
</g>
<!-- Node1&#45;&gt;Node8 -->
<g id="edge7" class="edge">
<title>Node1&#45;&gt;Node8</title>
<path fill="none" stroke="#191970" d="M528.1606,-73.5444C596.0328,-64.2691 703.0741,-48.6735 795,-31 797.9311,-30.4365 800.9287,-29.8352 803.9518,-29.2089"/>
<polygon fill="#191970" stroke="#191970" points="527.4623,-70.107 518.025,-74.9223 528.4053,-77.0432 527.4623,-70.107"/>
</g>
</g>
</svg>
