<?xml version="1.0" encoding="UTF-8" standalone="no"?>
<!DOCTYPE svg PUBLIC "-//W3C//DTD SVG 1.1//EN"
 "http://www.w3.org/Graphics/SVG/1.1/DTD/svg11.dtd">
<!-- Generated by graphviz version 2.40.1 (20161225.0304)
 -->
<!-- Title: iop/memorycard/mcman/include/mcman.h Pages: 1 -->
<svg width="920pt" height="173pt"
 viewBox="0.00 0.00 919.50 173.00" xmlns="http://www.w3.org/2000/svg" xmlns:xlink="http://www.w3.org/1999/xlink">
<g id="graph0" class="graph" transform="scale(1 1) rotate(0) translate(4 169)">
<title>iop/memorycard/mcman/include/mcman.h</title>
<polygon fill="#ffffff" stroke="transparent" points="-4,4 -4,-169 915.5,-169 915.5,4 -4,4"/>
<!-- Node1 -->
<g id="node1" class="node">
<title>Node1</title>
<g id="a_node1"><a xlink:title=" ">
<polygon fill="#bfbfbf" stroke="#000000" points="387,-134.5 387,-164.5 524,-164.5 524,-134.5 387,-134.5"/>
<text text-anchor="start" x="395" y="-152.5" font-family="Helvetica,sans-Serif" font-size="10.00" fill="#000000">iop/memorycard/mcman</text>
<text text-anchor="middle" x="455.5" y="-141.5" font-family="Helvetica,sans-Serif" font-size="10.00" fill="#000000">/include/mcman.h</text>
</a>
</g>
</g>
<!-- Node2 -->
<g id="node2" class="node">
<title>Node2</title>
<g id="a_node2"><a xlink:href="memorycard_2mcman_2src_2main_8c.html" target="_top" xlink:title=" ">
<polygon fill="#ffffff" stroke="#000000" points="0,-67.5 0,-97.5 137,-97.5 137,-67.5 0,-67.5"/>
<text text-anchor="start" x="8" y="-85.5" font-family="Helvetica,sans-Serif" font-size="10.00" fill="#000000">iop/memorycard/mcman</text>
<text text-anchor="middle" x="68.5" y="-74.5" font-family="Helvetica,sans-Serif" font-size="10.00" fill="#000000">/src/main.c</text>
</a>
</g>
</g>
<!-- Node1&#45;&gt;Node2 -->
<g id="edge1" class="edge">
<title>Node1&#45;&gt;Node2</title>
<path fill="none" stroke="#191970" d="M376.7889,-137.072C314.2728,-127.0346 224.673,-112.2781 146.5,-98 143.512,-97.4543 140.4615,-96.8878 137.3814,-96.3083"/>
<polygon fill="#191970" stroke="#191970" points="376.5434,-140.5772 386.9712,-138.7035 377.651,-133.6654 376.5434,-140.5772"/>
</g>
<!-- Node3 -->
<g id="node3" class="node">
<title>Node3</title>
<g id="a_node3"><a xlink:href="mcdev_8c.html" target="_top" xlink:title=" ">
<polygon fill="#ffffff" stroke="#000000" points="155,-67.5 155,-97.5 292,-97.5 292,-67.5 155,-67.5"/>
<text text-anchor="start" x="163" y="-85.5" font-family="Helvetica,sans-Serif" font-size="10.00" fill="#000000">iop/memorycard/mcman</text>
<text text-anchor="middle" x="223.5" y="-74.5" font-family="Helvetica,sans-Serif" font-size="10.00" fill="#000000">/src/mcdev.c</text>
</a>
</g>
</g>
<!-- Node1&#45;&gt;Node3 -->
<g id="edge2" class="edge">
<title>Node1&#45;&gt;Node3</title>
<path fill="none" stroke="#191970" d="M393.8096,-131.6842C357.01,-121.0568 310.7927,-107.7095 275.7924,-97.6017"/>
<polygon fill="#191970" stroke="#191970" points="392.8562,-135.0519 403.4347,-134.4639 394.7984,-128.3267 392.8562,-135.0519"/>
</g>
<!-- Node4 -->
<g id="node4" class="node">
<title>Node4</title>
<g id="a_node4"><a xlink:href="mcsio2_8c.html" target="_top" xlink:title=" ">
<polygon fill="#ffffff" stroke="#000000" points="310,-67.5 310,-97.5 447,-97.5 447,-67.5 310,-67.5"/>
<text text-anchor="start" x="318" y="-85.5" font-family="Helvetica,sans-Serif" font-size="10.00" fill="#000000">iop/memorycard/mcman</text>
<text text-anchor="middle" x="378.5" y="-74.5" font-family="Helvetica,sans-Serif" font-size="10.00" fill="#000000">/src/mcsio2.c</text>
</a>
</g>
</g>
<!-- Node1&#45;&gt;Node4 -->
<g id="edge3" class="edge">
<title>Node1&#45;&gt;Node4</title>
<path fill="none" stroke="#191970" d="M430.2124,-127.4965C418.976,-117.7193 406.0308,-106.4554 395.9033,-97.6432"/>
<polygon fill="#191970" stroke="#191970" points="428.1861,-130.3728 438.0275,-134.2967 432.781,-125.092 428.1861,-130.3728"/>
</g>
<!-- Node5 -->
<g id="node5" class="node">
<title>Node5</title>
<g id="a_node5"><a xlink:href="ps1mc__fio_8c.html" target="_top" xlink:title=" ">
<polygon fill="#ffffff" stroke="#000000" points="465,-67.5 465,-97.5 602,-97.5 602,-67.5 465,-67.5"/>
<text text-anchor="start" x="473" y="-85.5" font-family="Helvetica,sans-Serif" font-size="10.00" fill="#000000">iop/memorycard/mcman</text>
<text text-anchor="middle" x="533.5" y="-74.5" font-family="Helvetica,sans-Serif" font-size="10.00" fill="#000000">/src/ps1mc_fio.c</text>
</a>
</g>
</g>
<!-- Node1&#45;&gt;Node5 -->
<g id="edge4" class="edge">
<title>Node1&#45;&gt;Node5</title>
<path fill="none" stroke="#191970" d="M481.116,-127.4965C492.4984,-117.7193 505.6116,-106.4554 515.8706,-97.6432"/>
<polygon fill="#191970" stroke="#191970" points="478.5045,-125.1257 473.1994,-134.2967 483.0657,-130.4357 478.5045,-125.1257"/>
</g>
<!-- Node6 -->
<g id="node6" class="node">
<title>Node6</title>
<g id="a_node6"><a xlink:href="ps2mc__fio_8c.html" target="_top" xlink:title=" ">
<polygon fill="#ffffff" stroke="#000000" points="620,-67.5 620,-97.5 757,-97.5 757,-67.5 620,-67.5"/>
<text text-anchor="start" x="628" y="-85.5" font-family="Helvetica,sans-Serif" font-size="10.00" fill="#000000">iop/memorycard/mcman</text>
<text text-anchor="middle" x="688.5" y="-74.5" font-family="Helvetica,sans-Serif" font-size="10.00" fill="#000000">/src/ps2mc_fio.c</text>
</a>
</g>
</g>
<!-- Node1&#45;&gt;Node6 -->
<g id="edge5" class="edge">
<title>Node1&#45;&gt;Node6</title>
<path fill="none" stroke="#191970" d="M517.4563,-131.6842C554.4145,-121.0568 600.8311,-107.7095 635.9822,-97.6017"/>
<polygon fill="#191970" stroke="#191970" points="516.433,-128.3366 507.7897,-134.4639 518.3676,-135.064 516.433,-128.3366"/>
</g>
<!-- Node7 -->
<g id="node7" class="node">
<title>Node7</title>
<g id="a_node7"><a xlink:href="mcserv_8h.html" target="_top" xlink:title=" ">
<polygon fill="#ffffff" stroke="#000000" points="775.5,-67.5 775.5,-97.5 911.5,-97.5 911.5,-67.5 775.5,-67.5"/>
<text text-anchor="start" x="783.5" y="-85.5" font-family="Helvetica,sans-Serif" font-size="10.00" fill="#000000">iop/memorycard/mcserv</text>
<text text-anchor="middle" x="843.5" y="-74.5" font-family="Helvetica,sans-Serif" font-size="10.00" fill="#000000">/src/mcserv.h</text>
</a>
</g>
</g>
<!-- Node1&#45;&gt;Node7 -->
<g id="edge6" class="edge">
<title>Node1&#45;&gt;Node7</title>
<path fill="none" stroke="#191970" d="M534.4281,-137.2015C597.3695,-127.2081 687.7175,-112.4479 766.5,-98 769.3166,-97.4835 772.1893,-96.9474 775.0899,-96.3984"/>
<polygon fill="#191970" stroke="#191970" points="533.507,-133.8037 524.1778,-138.8253 534.6023,-140.7175 533.507,-133.8037"/>
</g>
<!-- Node8 -->
<g id="node8" class="node">
<title>Node8</title>
<g id="a_node8"><a xlink:href="mcserv_8c.html" target="_top" xlink:title=" ">
<polygon fill="#ffffff" stroke="#000000" points="775.5,-.5 775.5,-30.5 911.5,-30.5 911.5,-.5 775.5,-.5"/>
<text text-anchor="start" x="783.5" y="-18.5" font-family="Helvetica,sans-Serif" font-size="10.00" fill="#000000">iop/memorycard/mcserv</text>
<text text-anchor="middle" x="843.5" y="-7.5" font-family="Helvetica,sans-Serif" font-size="10.00" fill="#000000">/src/mcserv.c</text>
</a>
</g>
</g>
<!-- Node7&#45;&gt;Node8 -->
<g id="edge7" class="edge">
<title>Node7&#45;&gt;Node8</title>
<path fill="none" stroke="#191970" d="M843.5,-57.0249C843.5,-48.128 843.5,-38.4287 843.5,-30.6432"/>
<polygon fill="#191970" stroke="#191970" points="840.0001,-57.2966 843.5,-67.2967 847.0001,-57.2967 840.0001,-57.2966"/>
</g>
</g>
</svg>
