<?xml version="1.0" encoding="UTF-8" standalone="no"?>
<!DOCTYPE svg PUBLIC "-//W3C//DTD SVG 1.1//EN"
 "http://www.w3.org/Graphics/SVG/1.1/DTD/svg11.dtd">
<!-- Generated by graphviz version 2.40.1 (20161225.0304)
 -->
<!-- Title: iop/memorycard/mcman/include/mcman.h Pages: 1 -->
<svg width="230pt" height="207pt"
 viewBox="0.00 0.00 230.00 207.00" xmlns="http://www.w3.org/2000/svg" xmlns:xlink="http://www.w3.org/1999/xlink">
<g id="graph0" class="graph" transform="scale(1 1) rotate(0) translate(4 203)">
<title>iop/memorycard/mcman/include/mcman.h</title>
<polygon fill="#ffffff" stroke="transparent" points="-4,4 -4,-203 226,-203 226,4 -4,4"/>
<!-- Node1 -->
<g id="node1" class="node">
<title>Node1</title>
<g id="a_node1"><a xlink:title=" ">
<polygon fill="#bfbfbf" stroke="#000000" points="22,-168.5 22,-198.5 159,-198.5 159,-168.5 22,-168.5"/>
<text text-anchor="start" x="30" y="-186.5" font-family="Helvetica,sans-Serif" font-size="10.00" fill="#000000">iop/memorycard/mcman</text>
<text text-anchor="middle" x="90.5" y="-175.5" font-family="Helvetica,sans-Serif" font-size="10.00" fill="#000000">/include/mcman.h</text>
</a>
</g>
</g>
<!-- Node2 -->
<g id="node2" class="node">
<title>Node2</title>
<g id="a_node2"><a xlink:title=" ">
<polygon fill="#ffffff" stroke="#bfbfbf" points="0,-112.5 0,-131.5 53,-131.5 53,-112.5 0,-112.5"/>
<text text-anchor="middle" x="26.5" y="-119.5" font-family="Helvetica,sans-Serif" font-size="10.00" fill="#000000">types.h</text>
</a>
</g>
</g>
<!-- Node1&#45;&gt;Node2 -->
<g id="edge1" class="edge">
<title>Node1&#45;&gt;Node2</title>
<path fill="none" stroke="#191970" d="M74.6798,-168.2977C65.4258,-159.4052 53.7219,-148.1586 44.167,-138.9769"/>
<polygon fill="#191970" stroke="#191970" points="46.3828,-136.2521 36.7472,-131.8469 41.5326,-141.2995 46.3828,-136.2521"/>
</g>
<!-- Node3 -->
<g id="node3" class="node">
<title>Node3</title>
<g id="a_node3"><a xlink:href="irx_8h.html" target="_top" xlink:title=" ">
<polygon fill="#ffffff" stroke="#000000" points="71.5,-112.5 71.5,-131.5 109.5,-131.5 109.5,-112.5 71.5,-112.5"/>
<text text-anchor="middle" x="90.5" y="-119.5" font-family="Helvetica,sans-Serif" font-size="10.00" fill="#000000">irx.h</text>
</a>
</g>
</g>
<!-- Node1&#45;&gt;Node3 -->
<g id="edge2" class="edge">
<title>Node1&#45;&gt;Node3</title>
<path fill="none" stroke="#191970" d="M90.5,-168.2977C90.5,-160.3834 90.5,-150.6043 90.5,-142.0759"/>
<polygon fill="#191970" stroke="#191970" points="94.0001,-141.8469 90.5,-131.8469 87.0001,-141.847 94.0001,-141.8469"/>
</g>
<!-- Node7 -->
<g id="node7" class="node">
<title>Node7</title>
<g id="a_node7"><a xlink:href="libmc-common_8h.html" target="_top" xlink:title=" ">
<polygon fill="#ffffff" stroke="#000000" points="123,-56.5 123,-75.5 222,-75.5 222,-56.5 123,-56.5"/>
<text text-anchor="middle" x="172.5" y="-63.5" font-family="Helvetica,sans-Serif" font-size="10.00" fill="#000000">libmc&#45;common.h</text>
</a>
</g>
</g>
<!-- Node1&#45;&gt;Node7 -->
<g id="edge6" class="edge">
<title>Node1&#45;&gt;Node7</title>
<path fill="none" stroke="#191970" d="M101.2201,-168.1389C116.3296,-146.4881 143.8353,-107.0745 159.9017,-84.0525"/>
<polygon fill="#191970" stroke="#191970" points="162.9759,-85.763 165.8287,-75.5595 157.2356,-81.757 162.9759,-85.763"/>
</g>
<!-- Node4 -->
<g id="node4" class="node">
<title>Node4</title>
<g id="a_node4"><a xlink:href="types_8h.html" target="_top" xlink:title=" ">
<polygon fill="#ffffff" stroke="#000000" points="52,-56.5 52,-75.5 105,-75.5 105,-56.5 52,-56.5"/>
<text text-anchor="middle" x="78.5" y="-63.5" font-family="Helvetica,sans-Serif" font-size="10.00" fill="#000000">types.h</text>
</a>
</g>
</g>
<!-- Node3&#45;&gt;Node4 -->
<g id="edge3" class="edge">
<title>Node3&#45;&gt;Node4</title>
<path fill="none" stroke="#191970" d="M88.4098,-112.2455C86.8439,-104.9382 84.6488,-94.6944 82.7224,-85.7046"/>
<polygon fill="#191970" stroke="#191970" points="86.084,-84.6873 80.5663,-75.6427 79.2393,-86.1541 86.084,-84.6873"/>
</g>
<!-- Node5 -->
<g id="node5" class="node">
<title>Node5</title>
<g id="a_node5"><a xlink:title=" ">
<polygon fill="#ffffff" stroke="#bfbfbf" points="50.5,-.5 50.5,-19.5 106.5,-19.5 106.5,-.5 50.5,-.5"/>
<text text-anchor="middle" x="78.5" y="-7.5" font-family="Helvetica,sans-Serif" font-size="10.00" fill="#000000">stddef.h</text>
</a>
</g>
</g>
<!-- Node4&#45;&gt;Node5 -->
<g id="edge4" class="edge">
<title>Node4&#45;&gt;Node5</title>
<path fill="none" stroke="#191970" d="M78.5,-56.2455C78.5,-48.9382 78.5,-38.6944 78.5,-29.7046"/>
<polygon fill="#191970" stroke="#191970" points="82.0001,-29.6426 78.5,-19.6427 75.0001,-29.6427 82.0001,-29.6426"/>
</g>
<!-- Node6 -->
<g id="node6" class="node">
<title>Node6</title>
<g id="a_node6"><a xlink:href="tamtypes_8h.html" target="_top" xlink:title=" ">
<polygon fill="#ffffff" stroke="#000000" points="130.5,-.5 130.5,-19.5 202.5,-19.5 202.5,-.5 130.5,-.5"/>
<text text-anchor="middle" x="166.5" y="-7.5" font-family="Helvetica,sans-Serif" font-size="10.00" fill="#000000">tamtypes.h</text>
</a>
</g>
</g>
<!-- Node4&#45;&gt;Node6 -->
<g id="edge5" class="edge">
<title>Node4&#45;&gt;Node6</title>
<path fill="none" stroke="#191970" d="M93.8284,-56.2455C107.3303,-47.6534 127.2122,-35.0014 142.7686,-25.1018"/>
<polygon fill="#191970" stroke="#191970" points="144.7897,-27.9643 151.3472,-19.6427 141.0315,-22.0587 144.7897,-27.9643"/>
</g>
<!-- Node7&#45;&gt;Node6 -->
<g id="edge7" class="edge">
<title>Node7&#45;&gt;Node6</title>
<path fill="none" stroke="#191970" d="M171.4549,-56.2455C170.672,-48.9382 169.5744,-38.6944 168.6112,-29.7046"/>
<polygon fill="#191970" stroke="#191970" points="172.0786,-29.2129 167.5331,-19.6427 165.1185,-29.9587 172.0786,-29.2129"/>
</g>
</g>
</svg>
