<?xml version="1.0" encoding="UTF-8" standalone="no"?>
<!DOCTYPE svg PUBLIC "-//W3C//DTD SVG 1.1//EN"
 "http://www.w3.org/Graphics/SVG/1.1/DTD/svg11.dtd">
<!-- Generated by graphviz version 2.40.1 (20161225.0304)
 -->
<!-- Title: iop/memorycard/mcserv/src/mcserv.h Pages: 1 -->
<svg width="739pt" height="263pt"
 viewBox="0.00 0.00 738.50 263.00" xmlns="http://www.w3.org/2000/svg" xmlns:xlink="http://www.w3.org/1999/xlink">
<g id="graph0" class="graph" transform="scale(1 1) rotate(0) translate(4 259)">
<title>iop/memorycard/mcserv/src/mcserv.h</title>
<polygon fill="#ffffff" stroke="transparent" points="-4,4 -4,-259 734.5,-259 734.5,4 -4,4"/>
<!-- Node1 -->
<g id="node1" class="node">
<title>Node1</title>
<g id="a_node1"><a xlink:title=" ">
<polygon fill="#bfbfbf" stroke="#000000" points="281.5,-224.5 281.5,-254.5 417.5,-254.5 417.5,-224.5 281.5,-224.5"/>
<text text-anchor="start" x="289.5" y="-242.5" font-family="Helvetica,sans-Serif" font-size="10.00" fill="#000000">iop/memorycard/mcserv</text>
<text text-anchor="middle" x="349.5" y="-231.5" font-family="Helvetica,sans-Serif" font-size="10.00" fill="#000000">/src/mcserv.h</text>
</a>
</g>
</g>
<!-- Node2 -->
<g id="node2" class="node">
<title>Node2</title>
<g id="a_node2"><a xlink:href="loadcore_8h.html" target="_top" xlink:title=" ">
<polygon fill="#ffffff" stroke="#000000" points="231.5,-168.5 231.5,-187.5 299.5,-187.5 299.5,-168.5 231.5,-168.5"/>
<text text-anchor="middle" x="265.5" y="-175.5" font-family="Helvetica,sans-Serif" font-size="10.00" fill="#000000">loadcore.h</text>
</a>
</g>
</g>
<!-- Node1&#45;&gt;Node2 -->
<g id="edge1" class="edge">
<title>Node1&#45;&gt;Node2</title>
<path fill="none" stroke="#191970" d="M328.7359,-224.2977C316.1042,-215.0495 299.9947,-203.2551 287.1969,-193.8853"/>
<polygon fill="#191970" stroke="#191970" points="289.0857,-190.9303 278.9495,-187.8469 284.9505,-196.5784 289.0857,-190.9303"/>
</g>
<!-- Node7 -->
<g id="node7" class="node">
<title>Node7</title>
<g id="a_node7"><a xlink:href="intrman_8h.html" target="_top" xlink:title=" ">
<polygon fill="#ffffff" stroke="#000000" points="317.5,-168.5 317.5,-187.5 381.5,-187.5 381.5,-168.5 317.5,-168.5"/>
<text text-anchor="middle" x="349.5" y="-175.5" font-family="Helvetica,sans-Serif" font-size="10.00" fill="#000000">intrman.h</text>
</a>
</g>
</g>
<!-- Node1&#45;&gt;Node7 -->
<g id="edge7" class="edge">
<title>Node1&#45;&gt;Node7</title>
<path fill="none" stroke="#191970" d="M349.5,-224.2977C349.5,-216.3834 349.5,-206.6043 349.5,-198.0759"/>
<polygon fill="#191970" stroke="#191970" points="353.0001,-197.8469 349.5,-187.8469 346.0001,-197.847 353.0001,-197.8469"/>
</g>
<!-- Node8 -->
<g id="node8" class="node">
<title>Node8</title>
<g id="a_node8"><a xlink:href="sysclib_8h.html" target="_top" xlink:title=" ">
<polygon fill="#ffffff" stroke="#000000" points="468,-168.5 468,-187.5 527,-187.5 527,-168.5 468,-168.5"/>
<text text-anchor="middle" x="497.5" y="-175.5" font-family="Helvetica,sans-Serif" font-size="10.00" fill="#000000">sysclib.h</text>
</a>
</g>
</g>
<!-- Node1&#45;&gt;Node8 -->
<g id="edge10" class="edge">
<title>Node1&#45;&gt;Node8</title>
<path fill="none" stroke="#191970" d="M385.7049,-224.4554C409.9658,-214.374 441.6356,-201.2139 465.0712,-191.4755"/>
<polygon fill="#191970" stroke="#191970" points="466.6739,-194.5997 474.5653,-187.5303 463.9877,-188.1356 466.6739,-194.5997"/>
</g>
<!-- Node11 -->
<g id="node11" class="node">
<title>Node11</title>
<g id="a_node11"><a xlink:href="sifman_8h.html" target="_top" xlink:title=" ">
<polygon fill="#ffffff" stroke="#000000" points="0,-168.5 0,-187.5 59,-187.5 59,-168.5 0,-168.5"/>
<text text-anchor="middle" x="29.5" y="-175.5" font-family="Helvetica,sans-Serif" font-size="10.00" fill="#000000">sifman.h</text>
</a>
</g>
</g>
<!-- Node1&#45;&gt;Node11 -->
<g id="edge16" class="edge">
<title>Node1&#45;&gt;Node11</title>
<path fill="none" stroke="#191970" d="M281.3995,-228.5686C226.4503,-219.4034 146.9701,-205.372 69.2752,-188.2867"/>
<polygon fill="#191970" stroke="#191970" points="69.8387,-184.8267 59.318,-186.0779 68.3227,-191.6606 69.8387,-184.8267"/>
</g>
<!-- Node12 -->
<g id="node12" class="node">
<title>Node12</title>
<g id="a_node12"><a xlink:href="sifcmd_8h.html" target="_top" xlink:title=" ">
<polygon fill="#ffffff" stroke="#000000" points="77,-168.5 77,-187.5 136,-187.5 136,-168.5 77,-168.5"/>
<text text-anchor="middle" x="106.5" y="-175.5" font-family="Helvetica,sans-Serif" font-size="10.00" fill="#000000">sifcmd.h</text>
</a>
</g>
</g>
<!-- Node1&#45;&gt;Node12 -->
<g id="edge19" class="edge">
<title>Node1&#45;&gt;Node12</title>
<path fill="none" stroke="#191970" d="M288.9069,-224.4669C250.4654,-214.8858 199.4153,-202.0825 146.3015,-188.4474"/>
<polygon fill="#191970" stroke="#191970" points="146.9191,-184.9924 136.3625,-185.8923 145.1761,-191.772 146.9191,-184.9924"/>
</g>
<!-- Node13 -->
<g id="node13" class="node">
<title>Node13</title>
<g id="a_node13"><a xlink:href="thbase_8h.html" target="_top" xlink:title=" ">
<polygon fill="#ffffff" stroke="#000000" points="154,-168.5 154,-187.5 213,-187.5 213,-168.5 154,-168.5"/>
<text text-anchor="middle" x="183.5" y="-175.5" font-family="Helvetica,sans-Serif" font-size="10.00" fill="#000000">thbase.h</text>
</a>
</g>
</g>
<!-- Node1&#45;&gt;Node13 -->
<g id="edge22" class="edge">
<title>Node1&#45;&gt;Node13</title>
<path fill="none" stroke="#191970" d="M308.8918,-224.4554C281.3158,-214.239 245.2058,-200.8609 218.8218,-191.0861"/>
<polygon fill="#191970" stroke="#191970" points="219.8172,-187.7224 209.2241,-187.5303 217.3853,-194.2864 219.8172,-187.7224"/>
</g>
<!-- Node14 -->
<g id="node14" class="node">
<title>Node14</title>
<g id="a_node14"><a xlink:href="stdio_8h.html" target="_top" xlink:title=" ">
<polygon fill="#ffffff" stroke="#000000" points="399.5,-168.5 399.5,-187.5 449.5,-187.5 449.5,-168.5 399.5,-168.5"/>
<text text-anchor="middle" x="424.5" y="-175.5" font-family="Helvetica,sans-Serif" font-size="10.00" fill="#000000">stdio.h</text>
</a>
</g>
</g>
<!-- Node1&#45;&gt;Node14 -->
<g id="edge25" class="edge">
<title>Node1&#45;&gt;Node14</title>
<path fill="none" stroke="#191970" d="M368.0393,-224.2977C379.1008,-215.2274 393.1491,-203.7077 404.4653,-194.4285"/>
<polygon fill="#191970" stroke="#191970" points="406.9781,-196.8942 412.4916,-187.8469 402.5396,-191.4813 406.9781,-196.8942"/>
</g>
<!-- Node15 -->
<g id="node15" class="node">
<title>Node15</title>
<g id="a_node15"><a xlink:href="mcman_8h.html" target="_top" xlink:title=" ">
<polygon fill="#ffffff" stroke="#000000" points="668.5,-168.5 668.5,-187.5 730.5,-187.5 730.5,-168.5 668.5,-168.5"/>
<text text-anchor="middle" x="699.5" y="-175.5" font-family="Helvetica,sans-Serif" font-size="10.00" fill="#000000">mcman.h</text>
</a>
</g>
</g>
<!-- Node1&#45;&gt;Node15 -->
<g id="edge28" class="edge">
<title>Node1&#45;&gt;Node15</title>
<path fill="none" stroke="#191970" d="M417.5215,-229.8075C478.2485,-220.7879 569.7967,-206.2924 658.1865,-188.1552"/>
<polygon fill="#191970" stroke="#191970" points="659.0292,-191.555 668.1119,-186.1002 657.61,-184.7004 659.0292,-191.555"/>
</g>
<!-- Node18 -->
<g id="node18" class="node">
<title>Node18</title>
<g id="a_node18"><a xlink:href="mcman__imports_8h.html" target="_top" xlink:title=" ">
<polygon fill="#ffffff" stroke="#000000" points="545,-168.5 545,-187.5 650,-187.5 650,-168.5 545,-168.5"/>
<text text-anchor="middle" x="597.5" y="-175.5" font-family="Helvetica,sans-Serif" font-size="10.00" fill="#000000">mcman_imports.h</text>
</a>
</g>
</g>
<!-- Node1&#45;&gt;Node18 -->
<g id="edge33" class="edge">
<title>Node1&#45;&gt;Node18</title>
<path fill="none" stroke="#191970" d="M410.1676,-224.4554C452.999,-213.8339 509.6109,-199.7951 549.3483,-189.9408"/>
<polygon fill="#191970" stroke="#191970" points="550.2052,-193.3344 559.0688,-187.5303 548.5203,-186.5402 550.2052,-193.3344"/>
</g>
<!-- Node3 -->
<g id="node3" class="node">
<title>Node3</title>
<g id="a_node3"><a xlink:href="types_8h.html" target="_top" xlink:title=" ">
<polygon fill="#ffffff" stroke="#000000" points="258,-56.5 258,-75.5 311,-75.5 311,-56.5 258,-56.5"/>
<text text-anchor="middle" x="284.5" y="-63.5" font-family="Helvetica,sans-Serif" font-size="10.00" fill="#000000">types.h</text>
</a>
</g>
</g>
<!-- Node2&#45;&gt;Node3 -->
<g id="edge2" class="edge">
<title>Node2&#45;&gt;Node3</title>
<path fill="none" stroke="#191970" d="M267.1199,-168.4509C270.2188,-150.184 277.0433,-109.9553 281.1584,-85.6976"/>
<polygon fill="#191970" stroke="#191970" points="284.6623,-85.9694 282.8842,-75.5249 277.7609,-84.7986 284.6623,-85.9694"/>
</g>
<!-- Node6 -->
<g id="node6" class="node">
<title>Node6</title>
<g id="a_node6"><a xlink:href="irx_8h.html" target="_top" xlink:title=" ">
<polygon fill="#ffffff" stroke="#000000" points="288.5,-112.5 288.5,-131.5 326.5,-131.5 326.5,-112.5 288.5,-112.5"/>
<text text-anchor="middle" x="307.5" y="-119.5" font-family="Helvetica,sans-Serif" font-size="10.00" fill="#000000">irx.h</text>
</a>
</g>
</g>
<!-- Node2&#45;&gt;Node6 -->
<g id="edge5" class="edge">
<title>Node2&#45;&gt;Node6</title>
<path fill="none" stroke="#191970" d="M272.8158,-168.2455C278.7179,-160.3761 287.1742,-149.101 294.2594,-139.6542"/>
<polygon fill="#191970" stroke="#191970" points="297.068,-141.7427 300.268,-131.6427 291.4679,-137.5427 297.068,-141.7427"/>
</g>
<!-- Node4 -->
<g id="node4" class="node">
<title>Node4</title>
<g id="a_node4"><a xlink:title=" ">
<polygon fill="#ffffff" stroke="#bfbfbf" points="256.5,-.5 256.5,-19.5 312.5,-19.5 312.5,-.5 256.5,-.5"/>
<text text-anchor="middle" x="284.5" y="-7.5" font-family="Helvetica,sans-Serif" font-size="10.00" fill="#000000">stddef.h</text>
</a>
</g>
</g>
<!-- Node3&#45;&gt;Node4 -->
<g id="edge3" class="edge">
<title>Node3&#45;&gt;Node4</title>
<path fill="none" stroke="#191970" d="M284.5,-56.2455C284.5,-48.9382 284.5,-38.6944 284.5,-29.7046"/>
<polygon fill="#191970" stroke="#191970" points="288.0001,-29.6426 284.5,-19.6427 281.0001,-29.6427 288.0001,-29.6426"/>
</g>
<!-- Node5 -->
<g id="node5" class="node">
<title>Node5</title>
<g id="a_node5"><a xlink:href="tamtypes_8h.html" target="_top" xlink:title=" ">
<polygon fill="#ffffff" stroke="#000000" points="482.5,-.5 482.5,-19.5 554.5,-19.5 554.5,-.5 482.5,-.5"/>
<text text-anchor="middle" x="518.5" y="-7.5" font-family="Helvetica,sans-Serif" font-size="10.00" fill="#000000">tamtypes.h</text>
</a>
</g>
</g>
<!-- Node3&#45;&gt;Node5 -->
<g id="edge4" class="edge">
<title>Node3&#45;&gt;Node5</title>
<path fill="none" stroke="#191970" d="M311.3428,-59.5761C350.6813,-50.1618 424.5222,-32.4904 472.5868,-20.9878"/>
<polygon fill="#191970" stroke="#191970" points="473.5196,-24.3635 482.4303,-18.6321 471.8903,-17.5557 473.5196,-24.3635"/>
</g>
<!-- Node6&#45;&gt;Node3 -->
<g id="edge6" class="edge">
<title>Node6&#45;&gt;Node3</title>
<path fill="none" stroke="#191970" d="M303.4937,-112.2455C300.4265,-104.7776 296.0997,-94.2427 292.3503,-85.1137"/>
<polygon fill="#191970" stroke="#191970" points="295.4972,-83.5631 288.4604,-75.6427 289.0221,-86.2226 295.4972,-83.5631"/>
</g>
<!-- Node7&#45;&gt;Node3 -->
<g id="edge8" class="edge">
<title>Node7&#45;&gt;Node3</title>
<path fill="none" stroke="#191970" d="M349.2931,-168.3831C348.614,-154.9154 345.9133,-130.063 335.5,-112 328.7073,-100.2173 317.8431,-89.8024 307.8841,-81.8755"/>
<polygon fill="#191970" stroke="#191970" points="309.9365,-79.0398 299.8406,-75.8267 305.7293,-84.6343 309.9365,-79.0398"/>
</g>
<!-- Node7&#45;&gt;Node6 -->
<g id="edge9" class="edge">
<title>Node7&#45;&gt;Node6</title>
<path fill="none" stroke="#191970" d="M342.1842,-168.2455C336.2821,-160.3761 327.8258,-149.101 320.7406,-139.6542"/>
<polygon fill="#191970" stroke="#191970" points="323.5321,-137.5427 314.732,-131.6427 317.932,-141.7427 323.5321,-137.5427"/>
</g>
<!-- Node8&#45;&gt;Node3 -->
<g id="edge11" class="edge">
<title>Node8&#45;&gt;Node3</title>
<path fill="none" stroke="#191970" d="M494.9085,-168.3082C490.5206,-153.8095 480.2244,-126.618 461.5,-112 439.7912,-95.0521 366.2182,-79.9492 321.0455,-71.974"/>
<polygon fill="#191970" stroke="#191970" points="321.4948,-68.4998 311.0443,-70.2425 320.3006,-75.3972 321.4948,-68.4998"/>
</g>
<!-- Node8&#45;&gt;Node6 -->
<g id="edge12" class="edge">
<title>Node8&#45;&gt;Node6</title>
<path fill="none" stroke="#191970" d="M467.8125,-169.25C431.9051,-158.6668 371.8697,-140.9721 336.3448,-130.5016"/>
<polygon fill="#191970" stroke="#191970" points="337.1694,-127.0959 326.5879,-127.6259 335.1904,-133.8103 337.1694,-127.0959"/>
</g>
<!-- Node9 -->
<g id="node9" class="node">
<title>Node9</title>
<g id="a_node9"><a xlink:title=" ">
<polygon fill="#ffffff" stroke="#bfbfbf" points="396.5,-112.5 396.5,-131.5 452.5,-131.5 452.5,-112.5 396.5,-112.5"/>
<text text-anchor="middle" x="424.5" y="-119.5" font-family="Helvetica,sans-Serif" font-size="10.00" fill="#000000">stdarg.h</text>
</a>
</g>
</g>
<!-- Node8&#45;&gt;Node9 -->
<g id="edge13" class="edge">
<title>Node8&#45;&gt;Node9</title>
<path fill="none" stroke="#191970" d="M484.7844,-168.2455C473.898,-159.8943 458.0117,-147.7076 445.28,-137.9408"/>
<polygon fill="#191970" stroke="#191970" points="447.1346,-134.9523 437.0699,-131.6427 442.8739,-140.5063 447.1346,-134.9523"/>
</g>
<!-- Node10 -->
<g id="node10" class="node">
<title>Node10</title>
<g id="a_node10"><a xlink:href="setjmp_8h.html" target="_top" xlink:title=" ">
<polygon fill="#ffffff" stroke="#000000" points="489,-56.5 489,-75.5 548,-75.5 548,-56.5 489,-56.5"/>
<text text-anchor="middle" x="518.5" y="-63.5" font-family="Helvetica,sans-Serif" font-size="10.00" fill="#000000">setjmp.h</text>
</a>
</g>
</g>
<!-- Node8&#45;&gt;Node10 -->
<g id="edge14" class="edge">
<title>Node8&#45;&gt;Node10</title>
<path fill="none" stroke="#191970" d="M499.2904,-168.4509C502.731,-150.1013 510.3267,-109.5908 514.8683,-85.3693"/>
<polygon fill="#191970" stroke="#191970" points="518.3112,-85.9986 516.7141,-75.5249 511.4311,-84.7086 518.3112,-85.9986"/>
</g>
<!-- Node10&#45;&gt;Node5 -->
<g id="edge15" class="edge">
<title>Node10&#45;&gt;Node5</title>
<path fill="none" stroke="#191970" d="M518.5,-56.2455C518.5,-48.9382 518.5,-38.6944 518.5,-29.7046"/>
<polygon fill="#191970" stroke="#191970" points="522.0001,-29.6426 518.5,-19.6427 515.0001,-29.6427 522.0001,-29.6426"/>
</g>
<!-- Node11&#45;&gt;Node3 -->
<g id="edge17" class="edge">
<title>Node11&#45;&gt;Node3</title>
<path fill="none" stroke="#191970" d="M51.2412,-168.4509C96.5009,-148.5722 200.9758,-102.6852 253.3637,-79.6756"/>
<polygon fill="#191970" stroke="#191970" points="255.0656,-82.7508 262.8139,-75.5249 252.2506,-76.3418 255.0656,-82.7508"/>
</g>
<!-- Node11&#45;&gt;Node6 -->
<g id="edge18" class="edge">
<title>Node11&#45;&gt;Node6</title>
<path fill="none" stroke="#191970" d="M59.3236,-169.947C62.0819,-169.2641 64.839,-168.6044 67.5,-168 143.1441,-150.8185 233.1627,-134.7145 278.4351,-126.9134"/>
<polygon fill="#191970" stroke="#191970" points="279.1648,-130.3395 288.4301,-125.201 277.9827,-123.44 279.1648,-130.3395"/>
</g>
<!-- Node12&#45;&gt;Node3 -->
<g id="edge20" class="edge">
<title>Node12&#45;&gt;Node3</title>
<path fill="none" stroke="#191970" d="M121.6762,-168.4509C152.6781,-148.9441 223.4822,-104.3932 260.6752,-80.9909"/>
<polygon fill="#191970" stroke="#191970" points="262.7623,-83.8129 269.3622,-75.5249 259.0343,-77.8882 262.7623,-83.8129"/>
</g>
<!-- Node12&#45;&gt;Node6 -->
<g id="edge21" class="edge">
<title>Node12&#45;&gt;Node6</title>
<path fill="none" stroke="#191970" d="M136.1582,-169.737C174.3884,-159.0858 240.4453,-140.6819 278.4015,-130.107"/>
<polygon fill="#191970" stroke="#191970" points="279.6217,-133.4005 288.3155,-127.3449 277.743,-126.6573 279.6217,-133.4005"/>
</g>
<!-- Node13&#45;&gt;Node3 -->
<g id="edge23" class="edge">
<title>Node13&#45;&gt;Node3</title>
<path fill="none" stroke="#191970" d="M192.1112,-168.4509C209.1804,-149.5227 247.5141,-107.014 269.0543,-83.1279"/>
<polygon fill="#191970" stroke="#191970" points="271.8128,-85.2952 275.9106,-75.5249 266.6144,-80.6073 271.8128,-85.2952"/>
</g>
<!-- Node13&#45;&gt;Node6 -->
<g id="edge24" class="edge">
<title>Node13&#45;&gt;Node6</title>
<path fill="none" stroke="#191970" d="M204.8164,-168.3733C225.3248,-159.1114 256.4662,-145.0475 279.0767,-134.8363"/>
<polygon fill="#191970" stroke="#191970" points="280.8188,-137.89 288.4919,-130.5843 277.9377,-131.5104 280.8188,-137.89"/>
</g>
<!-- Node14&#45;&gt;Node6 -->
<g id="edge27" class="edge">
<title>Node14&#45;&gt;Node6</title>
<path fill="none" stroke="#191970" d="M404.387,-168.3733C385.463,-159.3156 356.9439,-145.6655 335.7417,-135.5174"/>
<polygon fill="#191970" stroke="#191970" points="337.1069,-132.2906 326.5758,-131.1303 334.0848,-138.6047 337.1069,-132.2906"/>
</g>
<!-- Node14&#45;&gt;Node9 -->
<g id="edge26" class="edge">
<title>Node14&#45;&gt;Node9</title>
<path fill="none" stroke="#191970" d="M424.5,-168.2455C424.5,-160.9382 424.5,-150.6944 424.5,-141.7046"/>
<polygon fill="#191970" stroke="#191970" points="428.0001,-141.6426 424.5,-131.6427 421.0001,-141.6427 428.0001,-141.6426"/>
</g>
<!-- Node15&#45;&gt;Node6 -->
<g id="edge30" class="edge">
<title>Node15&#45;&gt;Node6</title>
<path fill="none" stroke="#191970" d="M668.1326,-169.7958C665.2237,-169.1446 662.3131,-168.5336 659.5,-168 643.6726,-164.9977 418.8374,-136.2077 337.0072,-125.7621"/>
<polygon fill="#191970" stroke="#191970" points="337.2445,-122.264 326.8819,-124.47 336.3584,-129.2077 337.2445,-122.264"/>
</g>
<!-- Node16 -->
<g id="node16" class="node">
<title>Node16</title>
<g id="a_node16"><a xlink:title=" ">
<polygon fill="#ffffff" stroke="#bfbfbf" points="583,-112.5 583,-131.5 636,-131.5 636,-112.5 583,-112.5"/>
<text text-anchor="middle" x="609.5" y="-119.5" font-family="Helvetica,sans-Serif" font-size="10.00" fill="#000000">types.h</text>
</a>
</g>
</g>
<!-- Node15&#45;&gt;Node16 -->
<g id="edge29" class="edge">
<title>Node15&#45;&gt;Node16</title>
<path fill="none" stroke="#191970" d="M683.8232,-168.2455C670.0144,-159.6534 649.6807,-147.0014 633.7708,-137.1018"/>
<polygon fill="#191970" stroke="#191970" points="635.3368,-133.954 624.9972,-131.6427 631.6387,-139.8974 635.3368,-133.954"/>
</g>
<!-- Node17 -->
<g id="node17" class="node">
<title>Node17</title>
<g id="a_node17"><a xlink:href="libmc-common_8h.html" target="_top" xlink:title=" ">
<polygon fill="#ffffff" stroke="#000000" points="596,-56.5 596,-75.5 695,-75.5 695,-56.5 596,-56.5"/>
<text text-anchor="middle" x="645.5" y="-63.5" font-family="Helvetica,sans-Serif" font-size="10.00" fill="#000000">libmc&#45;common.h</text>
</a>
</g>
</g>
<!-- Node15&#45;&gt;Node17 -->
<g id="edge31" class="edge">
<title>Node15&#45;&gt;Node17</title>
<path fill="none" stroke="#191970" d="M694.896,-168.4509C685.9691,-149.936 666.1642,-108.8591 654.5251,-84.7187"/>
<polygon fill="#191970" stroke="#191970" points="657.5881,-83.0125 650.0924,-75.5249 651.2827,-86.0527 657.5881,-83.0125"/>
</g>
<!-- Node17&#45;&gt;Node5 -->
<g id="edge32" class="edge">
<title>Node17&#45;&gt;Node5</title>
<path fill="none" stroke="#191970" d="M623.6679,-56.3733C603.1897,-47.3435 572.3601,-33.7494 549.3681,-23.6111"/>
<polygon fill="#191970" stroke="#191970" points="550.6093,-20.3333 540.0472,-19.5011 547.785,-26.7383 550.6093,-20.3333"/>
</g>
<!-- Node18&#45;&gt;Node6 -->
<g id="edge35" class="edge">
<title>Node18&#45;&gt;Node6</title>
<path fill="none" stroke="#191970" d="M547.9767,-168.4369C487.2391,-156.7082 386.2673,-137.2102 336.7296,-127.6443"/>
<polygon fill="#191970" stroke="#191970" points="337.1743,-124.1656 326.6921,-125.7061 335.8471,-131.0387 337.1743,-124.1656"/>
</g>
<!-- Node18&#45;&gt;Node16 -->
<g id="edge34" class="edge">
<title>Node18&#45;&gt;Node16</title>
<path fill="none" stroke="#191970" d="M599.5902,-168.2455C601.1561,-160.9382 603.3512,-150.6944 605.2776,-141.7046"/>
<polygon fill="#191970" stroke="#191970" points="608.7607,-142.1541 607.4337,-131.6427 601.916,-140.6873 608.7607,-142.1541"/>
</g>
</g>
</svg>
