<?xml version="1.0" encoding="UTF-8" standalone="no"?>
<!DOCTYPE svg PUBLIC "-//W3C//DTD SVG 1.1//EN"
 "http://www.w3.org/Graphics/SVG/1.1/DTD/svg11.dtd">
<!-- Generated by graphviz version 2.40.1 (20161225.0304)
 -->
<!-- Title: iop/network/smbman/src/md4.c Pages: 1 -->
<svg width="300pt" height="319pt"
 viewBox="0.00 0.00 300.00 319.00" xmlns="http://www.w3.org/2000/svg" xmlns:xlink="http://www.w3.org/1999/xlink">
<g id="graph0" class="graph" transform="scale(1 1) rotate(0) translate(4 315)">
<title>iop/network/smbman/src/md4.c</title>
<polygon fill="#ffffff" stroke="transparent" points="-4,4 -4,-315 296,-315 296,4 -4,4"/>
<!-- Node1 -->
<g id="node1" class="node">
<title>Node1</title>
<g id="a_node1"><a xlink:title=" ">
<polygon fill="#bfbfbf" stroke="#000000" points="40.5,-280.5 40.5,-310.5 160.5,-310.5 160.5,-280.5 40.5,-280.5"/>
<text text-anchor="start" x="48.5" y="-298.5" font-family="Helvetica,sans-Serif" font-size="10.00" fill="#000000">iop/network/smbman</text>
<text text-anchor="middle" x="100.5" y="-287.5" font-family="Helvetica,sans-Serif" font-size="10.00" fill="#000000">/src/md4.c</text>
</a>
</g>
</g>
<!-- Node2 -->
<g id="node2" class="node">
<title>Node2</title>
<g id="a_node2"><a xlink:title=" ">
<polygon fill="#ffffff" stroke="#bfbfbf" points="0,-224.5 0,-243.5 53,-243.5 53,-224.5 0,-224.5"/>
<text text-anchor="middle" x="26.5" y="-231.5" font-family="Helvetica,sans-Serif" font-size="10.00" fill="#000000">types.h</text>
</a>
</g>
</g>
<!-- Node1&#45;&gt;Node2 -->
<g id="edge1" class="edge">
<title>Node1&#45;&gt;Node2</title>
<path fill="none" stroke="#191970" d="M82.2079,-280.2977C71.2939,-271.2274 57.4329,-259.7077 46.2676,-250.4285"/>
<polygon fill="#191970" stroke="#191970" points="48.2762,-247.5468 38.3483,-243.8469 43.802,-252.9303 48.2762,-247.5468"/>
</g>
<!-- Node3 -->
<g id="node3" class="node">
<title>Node3</title>
<g id="a_node3"><a xlink:href="defs_8h.html" target="_top" xlink:title=" ">
<polygon fill="#ffffff" stroke="#000000" points="44,-168.5 44,-187.5 91,-187.5 91,-168.5 44,-168.5"/>
<text text-anchor="middle" x="67.5" y="-175.5" font-family="Helvetica,sans-Serif" font-size="10.00" fill="#000000">defs.h</text>
</a>
</g>
</g>
<!-- Node1&#45;&gt;Node3 -->
<g id="edge2" class="edge">
<title>Node1&#45;&gt;Node3</title>
<path fill="none" stroke="#191970" d="M96.1858,-280.1389C90.2133,-258.873 79.4278,-220.4702 72.9192,-197.2956"/>
<polygon fill="#191970" stroke="#191970" points="76.2584,-196.2406 70.1848,-187.5595 69.5191,-198.1334 76.2584,-196.2406"/>
</g>
<!-- Node7 -->
<g id="node7" class="node">
<title>Node7</title>
<g id="a_node7"><a xlink:href="irx_8h.html" target="_top" xlink:title=" ">
<polygon fill="#ffffff" stroke="#000000" points="98.5,-112.5 98.5,-131.5 136.5,-131.5 136.5,-112.5 98.5,-112.5"/>
<text text-anchor="middle" x="117.5" y="-119.5" font-family="Helvetica,sans-Serif" font-size="10.00" fill="#000000">irx.h</text>
</a>
</g>
</g>
<!-- Node1&#45;&gt;Node7 -->
<g id="edge6" class="edge">
<title>Node1&#45;&gt;Node7</title>
<path fill="none" stroke="#191970" d="M101.9789,-280.4065C105.055,-249.0126 112.1407,-176.6961 115.5705,-141.6925"/>
<polygon fill="#191970" stroke="#191970" points="119.0539,-142.0317 116.5458,-131.738 112.0873,-141.349 119.0539,-142.0317"/>
</g>
<!-- Node8 -->
<g id="node8" class="node">
<title>Node8</title>
<g id="a_node8"><a xlink:href="string_8h.html" target="_top" xlink:title=" ">
<polygon fill="#ffffff" stroke="#000000" points="150,-224.5 150,-243.5 203,-243.5 203,-224.5 150,-224.5"/>
<text text-anchor="middle" x="176.5" y="-231.5" font-family="Helvetica,sans-Serif" font-size="10.00" fill="#000000">string.h</text>
</a>
</g>
</g>
<!-- Node1&#45;&gt;Node8 -->
<g id="edge8" class="edge">
<title>Node1&#45;&gt;Node8</title>
<path fill="none" stroke="#191970" d="M119.2865,-280.2977C130.6053,-271.1384 145.0105,-259.4816 156.5346,-250.1562"/>
<polygon fill="#191970" stroke="#191970" points="158.7595,-252.8583 164.3314,-243.8469 154.3561,-247.4167 158.7595,-252.8583"/>
</g>
<!-- Node4 -->
<g id="node4" class="node">
<title>Node4</title>
<g id="a_node4"><a xlink:href="types_8h.html" target="_top" xlink:title=" ">
<polygon fill="#ffffff" stroke="#000000" points="114,-56.5 114,-75.5 167,-75.5 167,-56.5 114,-56.5"/>
<text text-anchor="middle" x="140.5" y="-63.5" font-family="Helvetica,sans-Serif" font-size="10.00" fill="#000000">types.h</text>
</a>
</g>
</g>
<!-- Node3&#45;&gt;Node4 -->
<g id="edge3" class="edge">
<title>Node3&#45;&gt;Node4</title>
<path fill="none" stroke="#191970" d="M69.1046,-168.3631C71.6916,-154.8717 77.7301,-129.9911 89.5,-112 97.0477,-100.4628 108.1812,-89.9635 118.1218,-81.9182"/>
<polygon fill="#191970" stroke="#191970" points="120.3103,-84.6502 126.0863,-75.7683 116.0322,-79.1097 120.3103,-84.6502"/>
</g>
<!-- Node5 -->
<g id="node5" class="node">
<title>Node5</title>
<g id="a_node5"><a xlink:title=" ">
<polygon fill="#ffffff" stroke="#bfbfbf" points="112.5,-.5 112.5,-19.5 168.5,-19.5 168.5,-.5 112.5,-.5"/>
<text text-anchor="middle" x="140.5" y="-7.5" font-family="Helvetica,sans-Serif" font-size="10.00" fill="#000000">stddef.h</text>
</a>
</g>
</g>
<!-- Node4&#45;&gt;Node5 -->
<g id="edge4" class="edge">
<title>Node4&#45;&gt;Node5</title>
<path fill="none" stroke="#191970" d="M140.5,-56.2455C140.5,-48.9382 140.5,-38.6944 140.5,-29.7046"/>
<polygon fill="#191970" stroke="#191970" points="144.0001,-29.6426 140.5,-19.6427 137.0001,-29.6427 144.0001,-29.6426"/>
</g>
<!-- Node6 -->
<g id="node6" class="node">
<title>Node6</title>
<g id="a_node6"><a xlink:href="tamtypes_8h.html" target="_top" xlink:title=" ">
<polygon fill="#ffffff" stroke="#000000" points="213.5,-.5 213.5,-19.5 285.5,-19.5 285.5,-.5 213.5,-.5"/>
<text text-anchor="middle" x="249.5" y="-7.5" font-family="Helvetica,sans-Serif" font-size="10.00" fill="#000000">tamtypes.h</text>
</a>
</g>
</g>
<!-- Node4&#45;&gt;Node6 -->
<g id="edge5" class="edge">
<title>Node4&#45;&gt;Node6</title>
<path fill="none" stroke="#191970" d="M159.4864,-56.2455C176.6792,-47.4125 202.2238,-34.2887 221.7132,-24.2758"/>
<polygon fill="#191970" stroke="#191970" points="223.4359,-27.3257 230.7312,-19.6427 220.237,-21.0993 223.4359,-27.3257"/>
</g>
<!-- Node7&#45;&gt;Node4 -->
<g id="edge7" class="edge">
<title>Node7&#45;&gt;Node4</title>
<path fill="none" stroke="#191970" d="M121.5063,-112.2455C124.5735,-104.7776 128.9003,-94.2427 132.6497,-85.1137"/>
<polygon fill="#191970" stroke="#191970" points="135.9779,-86.2226 136.5396,-75.6427 129.5028,-83.5631 135.9779,-86.2226"/>
</g>
<!-- Node9 -->
<g id="node9" class="node">
<title>Node9</title>
<g id="a_node9"><a xlink:href="sysclib_8h.html" target="_top" xlink:title=" ">
<polygon fill="#ffffff" stroke="#000000" points="148,-168.5 148,-187.5 207,-187.5 207,-168.5 148,-168.5"/>
<text text-anchor="middle" x="177.5" y="-175.5" font-family="Helvetica,sans-Serif" font-size="10.00" fill="#000000">sysclib.h</text>
</a>
</g>
</g>
<!-- Node8&#45;&gt;Node9 -->
<g id="edge9" class="edge">
<title>Node8&#45;&gt;Node9</title>
<path fill="none" stroke="#191970" d="M176.6742,-224.2455C176.8047,-216.9382 176.9876,-206.6944 177.1481,-197.7046"/>
<polygon fill="#191970" stroke="#191970" points="180.6486,-197.7036 177.3278,-187.6427 173.6497,-197.5786 180.6486,-197.7036"/>
</g>
<!-- Node9&#45;&gt;Node4 -->
<g id="edge10" class="edge">
<title>Node9&#45;&gt;Node4</title>
<path fill="none" stroke="#191970" d="M174.3454,-168.4509C168.2562,-150.0186 154.7798,-109.2254 146.791,-85.043"/>
<polygon fill="#191970" stroke="#191970" points="150.1069,-83.9223 143.6466,-75.5249 143.4602,-86.1181 150.1069,-83.9223"/>
</g>
<!-- Node9&#45;&gt;Node7 -->
<g id="edge11" class="edge">
<title>Node9&#45;&gt;Node7</title>
<path fill="none" stroke="#191970" d="M167.0488,-168.2455C158.2731,-160.0549 145.5446,-148.1749 135.186,-138.5069"/>
<polygon fill="#191970" stroke="#191970" points="137.5301,-135.9072 127.8314,-131.6427 132.7539,-141.0246 137.5301,-135.9072"/>
</g>
<!-- Node10 -->
<g id="node10" class="node">
<title>Node10</title>
<g id="a_node10"><a xlink:title=" ">
<polygon fill="#ffffff" stroke="#bfbfbf" points="192.5,-112.5 192.5,-131.5 248.5,-131.5 248.5,-112.5 192.5,-112.5"/>
<text text-anchor="middle" x="220.5" y="-119.5" font-family="Helvetica,sans-Serif" font-size="10.00" fill="#000000">stdarg.h</text>
</a>
</g>
</g>
<!-- Node9&#45;&gt;Node10 -->
<g id="edge12" class="edge">
<title>Node9&#45;&gt;Node10</title>
<path fill="none" stroke="#191970" d="M184.99,-168.2455C191.0326,-160.3761 199.6903,-149.101 206.9441,-139.6542"/>
<polygon fill="#191970" stroke="#191970" points="209.7815,-141.7058 213.0958,-131.6427 204.2295,-137.4426 209.7815,-141.7058"/>
</g>
<!-- Node11 -->
<g id="node11" class="node">
<title>Node11</title>
<g id="a_node11"><a xlink:href="setjmp_8h.html" target="_top" xlink:title=" ">
<polygon fill="#ffffff" stroke="#000000" points="233,-56.5 233,-75.5 292,-75.5 292,-56.5 233,-56.5"/>
<text text-anchor="middle" x="262.5" y="-63.5" font-family="Helvetica,sans-Serif" font-size="10.00" fill="#000000">setjmp.h</text>
</a>
</g>
</g>
<!-- Node9&#45;&gt;Node11 -->
<g id="edge13" class="edge">
<title>Node9&#45;&gt;Node11</title>
<path fill="none" stroke="#191970" d="M207.2901,-168.832C224.9908,-161.7393 246.1401,-150.0276 257.5,-132 266.1044,-118.3452 266.7724,-99.8069 265.6224,-85.854"/>
<polygon fill="#191970" stroke="#191970" points="269.0864,-85.3434 264.4273,-75.828 262.1356,-86.172 269.0864,-85.3434"/>
</g>
<!-- Node11&#45;&gt;Node6 -->
<g id="edge14" class="edge">
<title>Node11&#45;&gt;Node6</title>
<path fill="none" stroke="#191970" d="M260.2356,-56.2455C258.5206,-48.8579 256.1088,-38.4689 254.0056,-29.4087"/>
<polygon fill="#191970" stroke="#191970" points="257.4092,-28.5922 251.7385,-19.6427 250.5905,-30.1751 257.4092,-28.5922"/>
</g>
</g>
</svg>
