<?xml version="1.0" encoding="UTF-8" standalone="no"?>
<!DOCTYPE svg PUBLIC "-//W3C//DTD SVG 1.1//EN"
 "http://www.w3.org/Graphics/SVG/1.1/DTD/svg11.dtd">
<!-- Generated by graphviz version 2.40.1 (20161225.0304)
 -->
<!-- Title: iop/usb/usbd/src/mem.h Pages: 1 -->
<svg width="1046pt" height="84pt"
 viewBox="0.00 0.00 1045.50 84.00" xmlns="http://www.w3.org/2000/svg" xmlns:xlink="http://www.w3.org/1999/xlink">
<g id="graph0" class="graph" transform="scale(1 1) rotate(0) translate(4 80)">
<title>iop/usb/usbd/src/mem.h</title>
<polygon fill="#ffffff" stroke="transparent" points="-4,4 -4,-80 1041.5,-80 1041.5,4 -4,4"/>
<!-- Node1 -->
<g id="node1" class="node">
<title>Node1</title>
<g id="a_node1"><a xlink:title=" ">
<polygon fill="#bfbfbf" stroke="#000000" points="446.5,-56.5 446.5,-75.5 579.5,-75.5 579.5,-56.5 446.5,-56.5"/>
<text text-anchor="middle" x="513" y="-63.5" font-family="Helvetica,sans-Serif" font-size="10.00" fill="#000000">iop/usb/usbd/src/mem.h</text>
</a>
</g>
</g>
<!-- Node2 -->
<g id="node2" class="node">
<title>Node2</title>
<g id="a_node2"><a xlink:href="driver_8c.html" target="_top" xlink:title=" ">
<polygon fill="#ffffff" stroke="#000000" points="0,-.5 0,-19.5 134,-19.5 134,-.5 0,-.5"/>
<text text-anchor="middle" x="67" y="-7.5" font-family="Helvetica,sans-Serif" font-size="10.00" fill="#000000">iop/usb/usbd/src/driver.c</text>
</a>
</g>
</g>
<!-- Node1&#45;&gt;Node2 -->
<g id="edge1" class="edge">
<title>Node1&#45;&gt;Node2</title>
<path fill="none" stroke="#191970" d="M436.2016,-56.6142C361.3541,-47.4285 244.3361,-32.9659 143,-20 140.0959,-19.6284 137.1296,-19.2468 134.1334,-18.8598"/>
<polygon fill="#191970" stroke="#191970" points="436.1253,-60.131 446.477,-57.8746 436.9776,-53.1831 436.1253,-60.131"/>
</g>
<!-- Node3 -->
<g id="node3" class="node">
<title>Node3</title>
<g id="a_node3"><a xlink:href="hcd_8c.html" target="_top" xlink:title=" ">
<polygon fill="#ffffff" stroke="#000000" points="152,-.5 152,-19.5 276,-19.5 276,-.5 152,-.5"/>
<text text-anchor="middle" x="214" y="-7.5" font-family="Helvetica,sans-Serif" font-size="10.00" fill="#000000">iop/usb/usbd/src/hcd.c</text>
</a>
</g>
</g>
<!-- Node1&#45;&gt;Node3 -->
<g id="edge2" class="edge">
<title>Node1&#45;&gt;Node3</title>
<path fill="none" stroke="#191970" d="M451.9473,-54.5654C396.8027,-44.2373 316.589,-29.214 264.8496,-19.5237"/>
<polygon fill="#191970" stroke="#191970" points="451.4664,-58.0361 461.9398,-56.4369 452.7551,-51.1557 451.4664,-58.0361"/>
</g>
<!-- Node4 -->
<g id="node4" class="node">
<title>Node4</title>
<g id="a_node4"><a xlink:href="hub_8c.html" target="_top" xlink:title=" ">
<polygon fill="#ffffff" stroke="#000000" points="294.5,-.5 294.5,-19.5 419.5,-19.5 419.5,-.5 294.5,-.5"/>
<text text-anchor="middle" x="357" y="-7.5" font-family="Helvetica,sans-Serif" font-size="10.00" fill="#000000">iop/usb/usbd/src/hub.c</text>
</a>
</g>
</g>
<!-- Node1&#45;&gt;Node4 -->
<g id="edge3" class="edge">
<title>Node1&#45;&gt;Node4</title>
<path fill="none" stroke="#191970" d="M476.5716,-52.9231C448.0539,-42.686 409.0619,-28.6889 383.4674,-19.5011"/>
<polygon fill="#191970" stroke="#191970" points="475.5881,-56.2887 486.1826,-56.3733 477.9532,-49.7004 475.5881,-56.2887"/>
</g>
<!-- Node5 -->
<g id="node5" class="node">
<title>Node5</title>
<g id="a_node5"><a xlink:href="interface_8c.html" target="_top" xlink:title=" ">
<polygon fill="#ffffff" stroke="#000000" points="438,-.5 438,-19.5 588,-19.5 588,-.5 438,-.5"/>
<text text-anchor="middle" x="513" y="-7.5" font-family="Helvetica,sans-Serif" font-size="10.00" fill="#000000">iop/usb/usbd/src/interface.c</text>
</a>
</g>
</g>
<!-- Node1&#45;&gt;Node5 -->
<g id="edge4" class="edge">
<title>Node1&#45;&gt;Node5</title>
<path fill="none" stroke="#191970" d="M513,-46.1575C513,-37.155 513,-26.9199 513,-19.6427"/>
<polygon fill="#191970" stroke="#191970" points="509.5001,-46.2455 513,-56.2455 516.5001,-46.2456 509.5001,-46.2455"/>
</g>
<!-- Node6 -->
<g id="node6" class="node">
<title>Node6</title>
<g id="a_node6"><a xlink:href="mem_8c.html" target="_top" xlink:title=" ">
<polygon fill="#ffffff" stroke="#000000" points="606,-.5 606,-19.5 738,-19.5 738,-.5 606,-.5"/>
<text text-anchor="middle" x="672" y="-7.5" font-family="Helvetica,sans-Serif" font-size="10.00" fill="#000000">iop/usb/usbd/src/mem.c</text>
</a>
</g>
</g>
<!-- Node1&#45;&gt;Node6 -->
<g id="edge5" class="edge">
<title>Node1&#45;&gt;Node6</title>
<path fill="none" stroke="#191970" d="M550.129,-52.9231C579.195,-42.686 618.9369,-28.6889 645.0236,-19.5011"/>
<polygon fill="#191970" stroke="#191970" points="548.6025,-49.75 540.3331,-56.3733 550.9279,-56.3524 548.6025,-49.75"/>
</g>
<!-- Node7 -->
<g id="node7" class="node">
<title>Node7</title>
<g id="a_node7"><a xlink:href="usbd_8c.html" target="_top" xlink:title=" ">
<polygon fill="#ffffff" stroke="#000000" points="756,-.5 756,-19.5 886,-19.5 886,-.5 756,-.5"/>
<text text-anchor="middle" x="821" y="-7.5" font-family="Helvetica,sans-Serif" font-size="10.00" fill="#000000">iop/usb/usbd/src/usbd.c</text>
</a>
</g>
</g>
<!-- Node1&#45;&gt;Node7 -->
<g id="edge6" class="edge">
<title>Node1&#45;&gt;Node7</title>
<path fill="none" stroke="#191970" d="M575.5371,-54.6296C632.3519,-44.2997 715.2124,-29.2341 768.6198,-19.5237"/>
<polygon fill="#191970" stroke="#191970" points="574.8097,-51.2044 565.5971,-56.4369 576.062,-58.0915 574.8097,-51.2044"/>
</g>
<!-- Node8 -->
<g id="node8" class="node">
<title>Node8</title>
<g id="a_node8"><a xlink:href="usbio_8c.html" target="_top" xlink:title=" ">
<polygon fill="#ffffff" stroke="#000000" points="904.5,-.5 904.5,-19.5 1037.5,-19.5 1037.5,-.5 904.5,-.5"/>
<text text-anchor="middle" x="971" y="-7.5" font-family="Helvetica,sans-Serif" font-size="10.00" fill="#000000">iop/usb/usbd/src/usbio.c</text>
</a>
</g>
</g>
<!-- Node1&#45;&gt;Node8 -->
<g id="edge7" class="edge">
<title>Node1&#45;&gt;Node8</title>
<path fill="none" stroke="#191970" d="M589.7329,-57.0109C666.8883,-47.9132 789.2357,-33.3258 895,-20 898.0369,-19.6174 901.1415,-19.2228 904.2772,-18.8215"/>
<polygon fill="#191970" stroke="#191970" points="589.1412,-53.5563 579.6194,-58.2025 589.9603,-60.5082 589.1412,-53.5563"/>
</g>
</g>
</svg>
