<?xml version="1.0" encoding="UTF-8" standalone="no"?>
<!DOCTYPE svg PUBLIC "-//W3C//DTD SVG 1.1//EN"
 "http://www.w3.org/Graphics/SVG/1.1/DTD/svg11.dtd">
<!-- Generated by graphviz version 2.40.1 (20161225.0304)
 -->
<!-- Title: iop/usb/usbd/src/mem.h Pages: 1 -->
<svg width="190pt" height="308pt"
 viewBox="0.00 0.00 189.50 308.00" xmlns="http://www.w3.org/2000/svg" xmlns:xlink="http://www.w3.org/1999/xlink">
<g id="graph0" class="graph" transform="scale(1 1) rotate(0) translate(4 304)">
<title>iop/usb/usbd/src/mem.h</title>
<polygon fill="#ffffff" stroke="transparent" points="-4,4 -4,-304 185.5,-304 185.5,4 -4,4"/>
<!-- Node1 -->
<g id="node1" class="node">
<title>Node1</title>
<g id="a_node1"><a xlink:title=" ">
<polygon fill="#bfbfbf" stroke="#000000" points="0,-280.5 0,-299.5 133,-299.5 133,-280.5 0,-280.5"/>
<text text-anchor="middle" x="66.5" y="-287.5" font-family="Helvetica,sans-Serif" font-size="10.00" fill="#000000">iop/usb/usbd/src/mem.h</text>
</a>
</g>
</g>
<!-- Node2 -->
<g id="node2" class="node">
<title>Node2</title>
<g id="a_node2"><a xlink:href="usbdpriv_8h.html" target="_top" xlink:title=" ">
<polygon fill="#ffffff" stroke="#000000" points="33,-224.5 33,-243.5 100,-243.5 100,-224.5 33,-224.5"/>
<text text-anchor="middle" x="66.5" y="-231.5" font-family="Helvetica,sans-Serif" font-size="10.00" fill="#000000">usbdpriv.h</text>
</a>
</g>
</g>
<!-- Node1&#45;&gt;Node2 -->
<g id="edge1" class="edge">
<title>Node1&#45;&gt;Node2</title>
<path fill="none" stroke="#191970" d="M66.5,-280.2455C66.5,-272.9382 66.5,-262.6944 66.5,-253.7046"/>
<polygon fill="#191970" stroke="#191970" points="70.0001,-253.6426 66.5,-243.6427 63.0001,-253.6427 70.0001,-253.6426"/>
</g>
<!-- Node3 -->
<g id="node3" class="node">
<title>Node3</title>
<g id="a_node3"><a xlink:href="usbd_8h.html" target="_top" xlink:title=" ">
<polygon fill="#ffffff" stroke="#000000" points="69,-168.5 69,-187.5 118,-187.5 118,-168.5 69,-168.5"/>
<text text-anchor="middle" x="93.5" y="-175.5" font-family="Helvetica,sans-Serif" font-size="10.00" fill="#000000">usbd.h</text>
</a>
</g>
</g>
<!-- Node2&#45;&gt;Node3 -->
<g id="edge2" class="edge">
<title>Node2&#45;&gt;Node3</title>
<path fill="none" stroke="#191970" d="M71.203,-224.2455C74.8424,-216.6973 79.9924,-206.0158 84.4262,-196.8197"/>
<polygon fill="#191970" stroke="#191970" points="87.6605,-198.1704 88.8509,-187.6427 81.3551,-195.1303 87.6605,-198.1704"/>
</g>
<!-- Node4 -->
<g id="node4" class="node">
<title>Node4</title>
<g id="a_node4"><a xlink:title=" ">
<polygon fill="#ffffff" stroke="#bfbfbf" points="14,-112.5 14,-131.5 67,-131.5 67,-112.5 14,-112.5"/>
<text text-anchor="middle" x="40.5" y="-119.5" font-family="Helvetica,sans-Serif" font-size="10.00" fill="#000000">types.h</text>
</a>
</g>
</g>
<!-- Node2&#45;&gt;Node4 -->
<g id="edge8" class="edge">
<title>Node2&#45;&gt;Node4</title>
<path fill="none" stroke="#191970" d="M64.2833,-224.4509C60.0235,-206.1013 50.6193,-165.5908 44.9965,-141.3693"/>
<polygon fill="#191970" stroke="#191970" points="48.3818,-140.4744 42.7111,-131.5249 41.5632,-142.0573 48.3818,-140.4744"/>
</g>
<!-- Node3&#45;&gt;Node4 -->
<g id="edge3" class="edge">
<title>Node3&#45;&gt;Node4</title>
<path fill="none" stroke="#191970" d="M84.2681,-168.2455C76.6683,-160.2155 65.7123,-148.6394 56.6632,-139.0781"/>
<polygon fill="#191970" stroke="#191970" points="59.042,-136.4998 49.6261,-131.6427 53.9579,-141.3115 59.042,-136.4998"/>
</g>
<!-- Node5 -->
<g id="node5" class="node">
<title>Node5</title>
<g id="a_node5"><a xlink:href="irx_8h.html" target="_top" xlink:title=" ">
<polygon fill="#ffffff" stroke="#000000" points="85.5,-112.5 85.5,-131.5 123.5,-131.5 123.5,-112.5 85.5,-112.5"/>
<text text-anchor="middle" x="104.5" y="-119.5" font-family="Helvetica,sans-Serif" font-size="10.00" fill="#000000">irx.h</text>
</a>
</g>
</g>
<!-- Node3&#45;&gt;Node5 -->
<g id="edge4" class="edge">
<title>Node3&#45;&gt;Node5</title>
<path fill="none" stroke="#191970" d="M95.4161,-168.2455C96.8514,-160.9382 98.8636,-150.6944 100.6295,-141.7046"/>
<polygon fill="#191970" stroke="#191970" points="104.1127,-142.1298 102.6059,-131.6427 97.244,-140.7805 104.1127,-142.1298"/>
</g>
<!-- Node6 -->
<g id="node6" class="node">
<title>Node6</title>
<g id="a_node6"><a xlink:href="types_8h.html" target="_top" xlink:title=" ">
<polygon fill="#ffffff" stroke="#000000" points="78,-56.5 78,-75.5 131,-75.5 131,-56.5 78,-56.5"/>
<text text-anchor="middle" x="104.5" y="-63.5" font-family="Helvetica,sans-Serif" font-size="10.00" fill="#000000">types.h</text>
</a>
</g>
</g>
<!-- Node5&#45;&gt;Node6 -->
<g id="edge5" class="edge">
<title>Node5&#45;&gt;Node6</title>
<path fill="none" stroke="#191970" d="M104.5,-112.2455C104.5,-104.9382 104.5,-94.6944 104.5,-85.7046"/>
<polygon fill="#191970" stroke="#191970" points="108.0001,-85.6426 104.5,-75.6427 101.0001,-85.6427 108.0001,-85.6426"/>
</g>
<!-- Node7 -->
<g id="node7" class="node">
<title>Node7</title>
<g id="a_node7"><a xlink:title=" ">
<polygon fill="#ffffff" stroke="#bfbfbf" points="35.5,-.5 35.5,-19.5 91.5,-19.5 91.5,-.5 35.5,-.5"/>
<text text-anchor="middle" x="63.5" y="-7.5" font-family="Helvetica,sans-Serif" font-size="10.00" fill="#000000">stddef.h</text>
</a>
</g>
</g>
<!-- Node6&#45;&gt;Node7 -->
<g id="edge6" class="edge">
<title>Node6&#45;&gt;Node7</title>
<path fill="none" stroke="#191970" d="M97.3583,-56.2455C91.6556,-48.4564 83.51,-37.3308 76.6375,-27.9439"/>
<polygon fill="#191970" stroke="#191970" points="79.2913,-25.6437 70.5598,-19.6427 73.6432,-29.7789 79.2913,-25.6437"/>
</g>
<!-- Node8 -->
<g id="node8" class="node">
<title>Node8</title>
<g id="a_node8"><a xlink:href="tamtypes_8h.html" target="_top" xlink:title=" ">
<polygon fill="#ffffff" stroke="#000000" points="109.5,-.5 109.5,-19.5 181.5,-19.5 181.5,-.5 109.5,-.5"/>
<text text-anchor="middle" x="145.5" y="-7.5" font-family="Helvetica,sans-Serif" font-size="10.00" fill="#000000">tamtypes.h</text>
</a>
</g>
</g>
<!-- Node6&#45;&gt;Node8 -->
<g id="edge7" class="edge">
<title>Node6&#45;&gt;Node8</title>
<path fill="none" stroke="#191970" d="M111.6417,-56.2455C117.3444,-48.4564 125.49,-37.3308 132.3625,-27.9439"/>
<polygon fill="#191970" stroke="#191970" points="135.3568,-29.7789 138.4402,-19.6427 129.7087,-25.6437 135.3568,-29.7789"/>
</g>
</g>
</svg>
