<?xml version="1.0" encoding="UTF-8" standalone="no"?>
<!DOCTYPE svg PUBLIC "-//W3C//DTD SVG 1.1//EN"
 "http://www.w3.org/Graphics/SVG/1.1/DTD/svg11.dtd">
<!-- Generated by graphviz version 2.40.1 (20161225.0304)
 -->
<!-- Title: iop/usb/usbd/src/mem.c Pages: 1 -->
<svg width="211pt" height="364pt"
 viewBox="0.00 0.00 210.50 364.00" xmlns="http://www.w3.org/2000/svg" xmlns:xlink="http://www.w3.org/1999/xlink">
<g id="graph0" class="graph" transform="scale(1 1) rotate(0) translate(4 360)">
<title>iop/usb/usbd/src/mem.c</title>
<polygon fill="#ffffff" stroke="transparent" points="-4,4 -4,-360 206.5,-360 206.5,4 -4,4"/>
<!-- Node1 -->
<g id="node1" class="node">
<title>Node1</title>
<g id="a_node1"><a xlink:title=" ">
<polygon fill="#bfbfbf" stroke="#000000" points="19.5,-336.5 19.5,-355.5 151.5,-355.5 151.5,-336.5 19.5,-336.5"/>
<text text-anchor="middle" x="85.5" y="-343.5" font-family="Helvetica,sans-Serif" font-size="10.00" fill="#000000">iop/usb/usbd/src/mem.c</text>
</a>
</g>
</g>
<!-- Node2 -->
<g id="node2" class="node">
<title>Node2</title>
<g id="a_node2"><a xlink:href="usbdpriv_8h.html" target="_top" xlink:title=" ">
<polygon fill="#ffffff" stroke="#000000" points="0,-224.5 0,-243.5 67,-243.5 67,-224.5 0,-224.5"/>
<text text-anchor="middle" x="33.5" y="-231.5" font-family="Helvetica,sans-Serif" font-size="10.00" fill="#000000">usbdpriv.h</text>
</a>
</g>
</g>
<!-- Node1&#45;&gt;Node2 -->
<g id="edge1" class="edge">
<title>Node1&#45;&gt;Node2</title>
<path fill="none" stroke="#191970" d="M76.1577,-336.1891C68.2435,-327.3694 57.1519,-313.7263 50.5,-300 43.4049,-285.3591 39.0272,-267.4057 36.4947,-253.9217"/>
<polygon fill="#191970" stroke="#191970" points="39.9041,-253.0918 34.7822,-243.8173 33.0025,-254.2616 39.9041,-253.0918"/>
</g>
<!-- Node9 -->
<g id="node9" class="node">
<title>Node9</title>
<g id="a_node9"><a xlink:href="mem_8h.html" target="_top" xlink:title=" ">
<polygon fill="#ffffff" stroke="#000000" points="60,-280.5 60,-299.5 111,-299.5 111,-280.5 60,-280.5"/>
<text text-anchor="middle" x="85.5" y="-287.5" font-family="Helvetica,sans-Serif" font-size="10.00" fill="#000000">mem.h</text>
</a>
</g>
</g>
<!-- Node1&#45;&gt;Node9 -->
<g id="edge9" class="edge">
<title>Node1&#45;&gt;Node9</title>
<path fill="none" stroke="#191970" d="M85.5,-336.2455C85.5,-328.9382 85.5,-318.6944 85.5,-309.7046"/>
<polygon fill="#191970" stroke="#191970" points="89.0001,-309.6426 85.5,-299.6427 82.0001,-309.6427 89.0001,-309.6426"/>
</g>
<!-- Node10 -->
<g id="node10" class="node">
<title>Node10</title>
<g id="a_node10"><a xlink:href="stdio_8h.html" target="_top" xlink:title=" ">
<polygon fill="#ffffff" stroke="#000000" points="129.5,-280.5 129.5,-299.5 179.5,-299.5 179.5,-280.5 129.5,-280.5"/>
<text text-anchor="middle" x="154.5" y="-287.5" font-family="Helvetica,sans-Serif" font-size="10.00" fill="#000000">stdio.h</text>
</a>
</g>
</g>
<!-- Node1&#45;&gt;Node10 -->
<g id="edge11" class="edge">
<title>Node1&#45;&gt;Node10</title>
<path fill="none" stroke="#191970" d="M97.5189,-336.2455C107.7098,-327.9746 122.5362,-315.9416 134.5107,-306.2232"/>
<polygon fill="#191970" stroke="#191970" points="137.0598,-308.662 142.6188,-299.6427 132.6486,-303.2268 137.0598,-308.662"/>
</g>
<!-- Node3 -->
<g id="node3" class="node">
<title>Node3</title>
<g id="a_node3"><a xlink:href="usbd_8h.html" target="_top" xlink:title=" ">
<polygon fill="#ffffff" stroke="#000000" points="41,-168.5 41,-187.5 90,-187.5 90,-168.5 41,-168.5"/>
<text text-anchor="middle" x="65.5" y="-175.5" font-family="Helvetica,sans-Serif" font-size="10.00" fill="#000000">usbd.h</text>
</a>
</g>
</g>
<!-- Node2&#45;&gt;Node3 -->
<g id="edge2" class="edge">
<title>Node2&#45;&gt;Node3</title>
<path fill="none" stroke="#191970" d="M39.074,-224.2455C43.4331,-216.617 49.6211,-205.7881 54.9133,-196.5267"/>
<polygon fill="#191970" stroke="#191970" points="58.0673,-198.0616 59.9899,-187.6427 51.9896,-194.5886 58.0673,-198.0616"/>
</g>
<!-- Node4 -->
<g id="node4" class="node">
<title>Node4</title>
<g id="a_node4"><a xlink:title=" ">
<polygon fill="#ffffff" stroke="#bfbfbf" points="7,-112.5 7,-131.5 60,-131.5 60,-112.5 7,-112.5"/>
<text text-anchor="middle" x="33.5" y="-119.5" font-family="Helvetica,sans-Serif" font-size="10.00" fill="#000000">types.h</text>
</a>
</g>
</g>
<!-- Node2&#45;&gt;Node4 -->
<g id="edge8" class="edge">
<title>Node2&#45;&gt;Node4</title>
<path fill="none" stroke="#191970" d="M32.9657,-224.4892C32.4719,-215.1899 31.7744,-200.627 31.5,-188 31.1649,-172.5762 31.7348,-155.1293 32.3508,-142.0489"/>
<polygon fill="#191970" stroke="#191970" points="35.8577,-142.0071 32.8825,-131.8386 28.8671,-141.6431 35.8577,-142.0071"/>
</g>
<!-- Node3&#45;&gt;Node4 -->
<g id="edge3" class="edge">
<title>Node3&#45;&gt;Node4</title>
<path fill="none" stroke="#191970" d="M59.926,-168.2455C55.5669,-160.617 49.3789,-149.7881 44.0867,-140.5267"/>
<polygon fill="#191970" stroke="#191970" points="47.0104,-138.5886 39.0101,-131.6427 40.9327,-142.0616 47.0104,-138.5886"/>
</g>
<!-- Node5 -->
<g id="node5" class="node">
<title>Node5</title>
<g id="a_node5"><a xlink:href="irx_8h.html" target="_top" xlink:title=" ">
<polygon fill="#ffffff" stroke="#000000" points="88.5,-112.5 88.5,-131.5 126.5,-131.5 126.5,-112.5 88.5,-112.5"/>
<text text-anchor="middle" x="107.5" y="-119.5" font-family="Helvetica,sans-Serif" font-size="10.00" fill="#000000">irx.h</text>
</a>
</g>
</g>
<!-- Node3&#45;&gt;Node5 -->
<g id="edge4" class="edge">
<title>Node3&#45;&gt;Node5</title>
<path fill="none" stroke="#191970" d="M72.8158,-168.2455C78.7179,-160.3761 87.1742,-149.101 94.2594,-139.6542"/>
<polygon fill="#191970" stroke="#191970" points="97.068,-141.7427 100.268,-131.6427 91.4679,-137.5427 97.068,-141.7427"/>
</g>
<!-- Node6 -->
<g id="node6" class="node">
<title>Node6</title>
<g id="a_node6"><a xlink:href="types_8h.html" target="_top" xlink:title=" ">
<polygon fill="#ffffff" stroke="#000000" points="81,-56.5 81,-75.5 134,-75.5 134,-56.5 81,-56.5"/>
<text text-anchor="middle" x="107.5" y="-63.5" font-family="Helvetica,sans-Serif" font-size="10.00" fill="#000000">types.h</text>
</a>
</g>
</g>
<!-- Node5&#45;&gt;Node6 -->
<g id="edge5" class="edge">
<title>Node5&#45;&gt;Node6</title>
<path fill="none" stroke="#191970" d="M107.5,-112.2455C107.5,-104.9382 107.5,-94.6944 107.5,-85.7046"/>
<polygon fill="#191970" stroke="#191970" points="111.0001,-85.6426 107.5,-75.6427 104.0001,-85.6427 111.0001,-85.6426"/>
</g>
<!-- Node7 -->
<g id="node7" class="node">
<title>Node7</title>
<g id="a_node7"><a xlink:title=" ">
<polygon fill="#ffffff" stroke="#bfbfbf" points="38.5,-.5 38.5,-19.5 94.5,-19.5 94.5,-.5 38.5,-.5"/>
<text text-anchor="middle" x="66.5" y="-7.5" font-family="Helvetica,sans-Serif" font-size="10.00" fill="#000000">stddef.h</text>
</a>
</g>
</g>
<!-- Node6&#45;&gt;Node7 -->
<g id="edge6" class="edge">
<title>Node6&#45;&gt;Node7</title>
<path fill="none" stroke="#191970" d="M100.3583,-56.2455C94.6556,-48.4564 86.51,-37.3308 79.6375,-27.9439"/>
<polygon fill="#191970" stroke="#191970" points="82.2913,-25.6437 73.5598,-19.6427 76.6432,-29.7789 82.2913,-25.6437"/>
</g>
<!-- Node8 -->
<g id="node8" class="node">
<title>Node8</title>
<g id="a_node8"><a xlink:href="tamtypes_8h.html" target="_top" xlink:title=" ">
<polygon fill="#ffffff" stroke="#000000" points="112.5,-.5 112.5,-19.5 184.5,-19.5 184.5,-.5 112.5,-.5"/>
<text text-anchor="middle" x="148.5" y="-7.5" font-family="Helvetica,sans-Serif" font-size="10.00" fill="#000000">tamtypes.h</text>
</a>
</g>
</g>
<!-- Node6&#45;&gt;Node8 -->
<g id="edge7" class="edge">
<title>Node6&#45;&gt;Node8</title>
<path fill="none" stroke="#191970" d="M114.6417,-56.2455C120.3444,-48.4564 128.49,-37.3308 135.3625,-27.9439"/>
<polygon fill="#191970" stroke="#191970" points="138.3568,-29.7789 141.4402,-19.6427 132.7087,-25.6437 138.3568,-29.7789"/>
</g>
<!-- Node9&#45;&gt;Node2 -->
<g id="edge10" class="edge">
<title>Node9&#45;&gt;Node2</title>
<path fill="none" stroke="#191970" d="M76.4423,-280.2455C68.9858,-272.2155 58.2366,-260.6394 49.3583,-251.0781"/>
<polygon fill="#191970" stroke="#191970" points="51.8232,-248.589 42.4539,-243.6427 46.6937,-253.3522 51.8232,-248.589"/>
</g>
<!-- Node10&#45;&gt;Node5 -->
<g id="edge13" class="edge">
<title>Node10&#45;&gt;Node5</title>
<path fill="none" stroke="#191970" d="M150.5271,-280.2393C146.855,-271.002 141.3941,-256.6982 137.5,-244 126.5693,-208.356 116.8609,-165.9211 111.6156,-141.6544"/>
<polygon fill="#191970" stroke="#191970" points="114.9787,-140.6427 109.4722,-131.5912 108.1323,-142.101 114.9787,-140.6427"/>
</g>
<!-- Node11 -->
<g id="node11" class="node">
<title>Node11</title>
<g id="a_node11"><a xlink:title=" ">
<polygon fill="#ffffff" stroke="#bfbfbf" points="146.5,-224.5 146.5,-243.5 202.5,-243.5 202.5,-224.5 146.5,-224.5"/>
<text text-anchor="middle" x="174.5" y="-231.5" font-family="Helvetica,sans-Serif" font-size="10.00" fill="#000000">stdarg.h</text>
</a>
</g>
</g>
<!-- Node10&#45;&gt;Node11 -->
<g id="edge12" class="edge">
<title>Node10&#45;&gt;Node11</title>
<path fill="none" stroke="#191970" d="M157.9837,-280.2455C160.6508,-272.7776 164.4133,-262.2427 167.6737,-253.1137"/>
<polygon fill="#191970" stroke="#191970" points="170.9889,-254.2373 171.0562,-243.6427 164.3967,-251.8829 170.9889,-254.2373"/>
</g>
</g>
</svg>
