<?xml version="1.0" encoding="UTF-8" standalone="no"?>
<!DOCTYPE svg PUBLIC "-//W3C//DTD SVG 1.1//EN"
 "http://www.w3.org/Graphics/SVG/1.1/DTD/svg11.dtd">
<!-- Generated by graphviz version 2.40.1 (20161225.0304)
 -->
<!-- Title: iop/memorycard/mcserv/src/irx_imports.h Pages: 1 -->
<svg width="575pt" height="263pt"
 viewBox="0.00 0.00 574.50 263.00" xmlns="http://www.w3.org/2000/svg" xmlns:xlink="http://www.w3.org/1999/xlink">
<g id="graph0" class="graph" transform="scale(1 1) rotate(0) translate(4 259)">
<title>iop/memorycard/mcserv/src/irx_imports.h</title>
<polygon fill="#ffffff" stroke="transparent" points="-4,4 -4,-259 570.5,-259 570.5,4 -4,4"/>
<!-- Node1 -->
<g id="node1" class="node">
<title>Node1</title>
<g id="a_node1"><a xlink:title=" ">
<polygon fill="#bfbfbf" stroke="#000000" points="212,-224.5 212,-254.5 348,-254.5 348,-224.5 212,-224.5"/>
<text text-anchor="start" x="220" y="-242.5" font-family="Helvetica,sans-Serif" font-size="10.00" fill="#000000">iop/memorycard/mcserv</text>
<text text-anchor="middle" x="280" y="-231.5" font-family="Helvetica,sans-Serif" font-size="10.00" fill="#000000">/src/irx_imports.h</text>
</a>
</g>
</g>
<!-- Node2 -->
<g id="node2" class="node">
<title>Node2</title>
<g id="a_node2"><a xlink:href="irx_8h.html" target="_top" xlink:title=" ">
<polygon fill="#ffffff" stroke="#000000" points="243,-112.5 243,-131.5 281,-131.5 281,-112.5 243,-112.5"/>
<text text-anchor="middle" x="262" y="-119.5" font-family="Helvetica,sans-Serif" font-size="10.00" fill="#000000">irx.h</text>
</a>
</g>
</g>
<!-- Node1&#45;&gt;Node2 -->
<g id="edge1" class="edge">
<title>Node1&#45;&gt;Node2</title>
<path fill="none" stroke="#191970" d="M277.1716,-224.2012C275.3182,-213.9697 272.8968,-200.1974 271,-188 268.6086,-172.6217 266.2443,-155.1725 264.5395,-142.0796"/>
<polygon fill="#191970" stroke="#191970" points="267.972,-141.3296 263.227,-131.8568 261.029,-142.2211 267.972,-141.3296"/>
</g>
<!-- Node6 -->
<g id="node6" class="node">
<title>Node6</title>
<g id="a_node6"><a xlink:href="intrman_8h.html" target="_top" xlink:title=" ">
<polygon fill="#ffffff" stroke="#000000" points="357,-168.5 357,-187.5 421,-187.5 421,-168.5 357,-168.5"/>
<text text-anchor="middle" x="389" y="-175.5" font-family="Helvetica,sans-Serif" font-size="10.00" fill="#000000">intrman.h</text>
</a>
</g>
</g>
<!-- Node1&#45;&gt;Node6 -->
<g id="edge5" class="edge">
<title>Node1&#45;&gt;Node6</title>
<path fill="none" stroke="#191970" d="M306.6644,-224.4554C323.8941,-214.734 346.1975,-202.15 363.2446,-192.5317"/>
<polygon fill="#191970" stroke="#191970" points="365.1194,-195.4926 372.1089,-187.5303 361.6796,-189.3961 365.1194,-195.4926"/>
</g>
<!-- Node7 -->
<g id="node7" class="node">
<title>Node7</title>
<g id="a_node7"><a xlink:href="loadcore_8h.html" target="_top" xlink:title=" ">
<polygon fill="#ffffff" stroke="#000000" points="0,-168.5 0,-187.5 68,-187.5 68,-168.5 0,-168.5"/>
<text text-anchor="middle" x="34" y="-175.5" font-family="Helvetica,sans-Serif" font-size="10.00" fill="#000000">loadcore.h</text>
</a>
</g>
</g>
<!-- Node1&#45;&gt;Node7 -->
<g id="edge8" class="edge">
<title>Node1&#45;&gt;Node7</title>
<path fill="none" stroke="#191970" d="M219.8216,-224.4554C175.9863,-213.4966 117.5996,-198.8999 78.0594,-189.0148"/>
<polygon fill="#191970" stroke="#191970" points="78.7344,-185.5759 68.184,-186.546 77.0366,-192.3669 78.7344,-185.5759"/>
</g>
<!-- Node8 -->
<g id="node8" class="node">
<title>Node8</title>
<g id="a_node8"><a xlink:href="sifcmd_8h.html" target="_top" xlink:title=" ">
<polygon fill="#ffffff" stroke="#000000" points="86.5,-168.5 86.5,-187.5 145.5,-187.5 145.5,-168.5 86.5,-168.5"/>
<text text-anchor="middle" x="116" y="-175.5" font-family="Helvetica,sans-Serif" font-size="10.00" fill="#000000">sifcmd.h</text>
</a>
</g>
</g>
<!-- Node1&#45;&gt;Node8 -->
<g id="edge11" class="edge">
<title>Node1&#45;&gt;Node8</title>
<path fill="none" stroke="#191970" d="M239.8811,-224.4554C212.6373,-214.239 176.9623,-200.8609 150.8962,-191.0861"/>
<polygon fill="#191970" stroke="#191970" points="152.0064,-187.7645 141.4142,-187.5303 149.5485,-194.3188 152.0064,-187.7645"/>
</g>
<!-- Node9 -->
<g id="node9" class="node">
<title>Node9</title>
<g id="a_node9"><a xlink:href="sifman_8h.html" target="_top" xlink:title=" ">
<polygon fill="#ffffff" stroke="#000000" points="163.5,-168.5 163.5,-187.5 222.5,-187.5 222.5,-168.5 163.5,-168.5"/>
<text text-anchor="middle" x="193" y="-175.5" font-family="Helvetica,sans-Serif" font-size="10.00" fill="#000000">sifman.h</text>
</a>
</g>
</g>
<!-- Node1&#45;&gt;Node9 -->
<g id="edge14" class="edge">
<title>Node1&#45;&gt;Node9</title>
<path fill="none" stroke="#191970" d="M258.4944,-224.2977C245.2032,-214.9022 228.1943,-202.8787 214.8412,-193.4395"/>
<polygon fill="#191970" stroke="#191970" points="216.8561,-190.5776 206.67,-187.6633 212.8154,-196.2937 216.8561,-190.5776"/>
</g>
<!-- Node10 -->
<g id="node10" class="node">
<title>Node10</title>
<g id="a_node10"><a xlink:href="stdio_8h.html" target="_top" xlink:title=" ">
<polygon fill="#ffffff" stroke="#000000" points="439,-168.5 439,-187.5 489,-187.5 489,-168.5 439,-168.5"/>
<text text-anchor="middle" x="464" y="-175.5" font-family="Helvetica,sans-Serif" font-size="10.00" fill="#000000">stdio.h</text>
</a>
</g>
</g>
<!-- Node1&#45;&gt;Node10 -->
<g id="edge17" class="edge">
<title>Node1&#45;&gt;Node10</title>
<path fill="none" stroke="#191970" d="M325.0115,-224.4554C357.0842,-213.7354 399.5717,-199.5344 429.0914,-189.6678"/>
<polygon fill="#191970" stroke="#191970" points="430.579,-192.861 438.9537,-186.3714 428.36,-186.222 430.579,-192.861"/>
</g>
<!-- Node12 -->
<g id="node12" class="node">
<title>Node12</title>
<g id="a_node12"><a xlink:href="sysclib_8h.html" target="_top" xlink:title=" ">
<polygon fill="#ffffff" stroke="#000000" points="507.5,-168.5 507.5,-187.5 566.5,-187.5 566.5,-168.5 507.5,-168.5"/>
<text text-anchor="middle" x="537" y="-175.5" font-family="Helvetica,sans-Serif" font-size="10.00" fill="#000000">sysclib.h</text>
</a>
</g>
</g>
<!-- Node1&#45;&gt;Node12 -->
<g id="edge20" class="edge">
<title>Node1&#45;&gt;Node12</title>
<path fill="none" stroke="#191970" d="M344.9429,-224.4986C385.9572,-214.9454 440.3121,-202.141 497.291,-188.143"/>
<polygon fill="#191970" stroke="#191970" points="498.3311,-191.4916 507.2042,-185.7021 496.6574,-184.6946 498.3311,-191.4916"/>
</g>
<!-- Node14 -->
<g id="node14" class="node">
<title>Node14</title>
<g id="a_node14"><a xlink:href="thbase_8h.html" target="_top" xlink:title=" ">
<polygon fill="#ffffff" stroke="#000000" points="279.5,-168.5 279.5,-187.5 338.5,-187.5 338.5,-168.5 279.5,-168.5"/>
<text text-anchor="middle" x="309" y="-175.5" font-family="Helvetica,sans-Serif" font-size="10.00" fill="#000000">thbase.h</text>
</a>
</g>
</g>
<!-- Node1&#45;&gt;Node14 -->
<g id="edge26" class="edge">
<title>Node1&#45;&gt;Node14</title>
<path fill="none" stroke="#191970" d="M287.1685,-224.2977C291.0682,-216.0277 295.928,-205.7215 300.0718,-196.9339"/>
<polygon fill="#191970" stroke="#191970" points="303.2573,-198.3846 304.3567,-187.8469 296.9259,-195.399 303.2573,-198.3846"/>
</g>
<!-- Node3 -->
<g id="node3" class="node">
<title>Node3</title>
<g id="a_node3"><a xlink:href="types_8h.html" target="_top" xlink:title=" ">
<polygon fill="#ffffff" stroke="#000000" points="258.5,-56.5 258.5,-75.5 311.5,-75.5 311.5,-56.5 258.5,-56.5"/>
<text text-anchor="middle" x="285" y="-63.5" font-family="Helvetica,sans-Serif" font-size="10.00" fill="#000000">types.h</text>
</a>
</g>
</g>
<!-- Node2&#45;&gt;Node3 -->
<g id="edge2" class="edge">
<title>Node2&#45;&gt;Node3</title>
<path fill="none" stroke="#191970" d="M266.0063,-112.2455C269.0735,-104.7776 273.4003,-94.2427 277.1497,-85.1137"/>
<polygon fill="#191970" stroke="#191970" points="280.4779,-86.2226 281.0396,-75.6427 274.0028,-83.5631 280.4779,-86.2226"/>
</g>
<!-- Node4 -->
<g id="node4" class="node">
<title>Node4</title>
<g id="a_node4"><a xlink:title=" ">
<polygon fill="#ffffff" stroke="#bfbfbf" points="257,-.5 257,-19.5 313,-19.5 313,-.5 257,-.5"/>
<text text-anchor="middle" x="285" y="-7.5" font-family="Helvetica,sans-Serif" font-size="10.00" fill="#000000">stddef.h</text>
</a>
</g>
</g>
<!-- Node3&#45;&gt;Node4 -->
<g id="edge3" class="edge">
<title>Node3&#45;&gt;Node4</title>
<path fill="none" stroke="#191970" d="M285,-56.2455C285,-48.9382 285,-38.6944 285,-29.7046"/>
<polygon fill="#191970" stroke="#191970" points="288.5001,-29.6426 285,-19.6427 281.5001,-29.6427 288.5001,-29.6426"/>
</g>
<!-- Node5 -->
<g id="node5" class="node">
<title>Node5</title>
<g id="a_node5"><a xlink:href="tamtypes_8h.html" target="_top" xlink:title=" ">
<polygon fill="#ffffff" stroke="#000000" points="416,-.5 416,-19.5 488,-19.5 488,-.5 416,-.5"/>
<text text-anchor="middle" x="452" y="-7.5" font-family="Helvetica,sans-Serif" font-size="10.00" fill="#000000">tamtypes.h</text>
</a>
</g>
</g>
<!-- Node3&#45;&gt;Node5 -->
<g id="edge4" class="edge">
<title>Node3&#45;&gt;Node5</title>
<path fill="none" stroke="#191970" d="M311.8314,-57.0026C339.4529,-47.7403 382.7388,-33.2253 413.9017,-22.7755"/>
<polygon fill="#191970" stroke="#191970" points="415.19,-26.0351 423.5584,-19.5373 412.9645,-19.3983 415.19,-26.0351"/>
</g>
<!-- Node6&#45;&gt;Node2 -->
<g id="edge7" class="edge">
<title>Node6&#45;&gt;Node2</title>
<path fill="none" stroke="#191970" d="M367.1679,-168.3733C345.945,-159.0151 313.6043,-144.7547 290.3918,-134.5192"/>
<polygon fill="#191970" stroke="#191970" points="291.6236,-131.2373 281.0615,-130.4051 288.7993,-137.6422 291.6236,-131.2373"/>
</g>
<!-- Node6&#45;&gt;Node3 -->
<g id="edge6" class="edge">
<title>Node6&#45;&gt;Node3</title>
<path fill="none" stroke="#191970" d="M380.133,-168.4509C362.5568,-149.5227 323.0845,-107.014 300.9045,-83.1279"/>
<polygon fill="#191970" stroke="#191970" points="303.2139,-80.4713 293.8445,-75.5249 298.0843,-85.2344 303.2139,-80.4713"/>
</g>
<!-- Node7&#45;&gt;Node2 -->
<g id="edge10" class="edge">
<title>Node7&#45;&gt;Node2</title>
<path fill="none" stroke="#191970" d="M68.1339,-169.6162C112.912,-158.6181 190.7275,-139.5055 232.8697,-129.1548"/>
<polygon fill="#191970" stroke="#191970" points="233.8969,-132.5066 242.7734,-126.7223 232.2272,-125.7087 233.8969,-132.5066"/>
</g>
<!-- Node7&#45;&gt;Node3 -->
<g id="edge9" class="edge">
<title>Node7&#45;&gt;Node3</title>
<path fill="none" stroke="#191970" d="M55.4001,-168.4509C99.9499,-148.5722 202.786,-102.6852 254.3521,-79.6756"/>
<polygon fill="#191970" stroke="#191970" points="255.9482,-82.7961 263.654,-75.5249 253.0957,-76.4036 255.9482,-82.7961"/>
</g>
<!-- Node8&#45;&gt;Node2 -->
<g id="edge13" class="edge">
<title>Node8&#45;&gt;Node2</title>
<path fill="none" stroke="#191970" d="M141.0983,-168.3733C166.6906,-158.557 206.3459,-143.3468 233.2012,-133.0461"/>
<polygon fill="#191970" stroke="#191970" points="234.7277,-136.2093 242.8111,-129.3601 232.2209,-129.6736 234.7277,-136.2093"/>
</g>
<!-- Node8&#45;&gt;Node3 -->
<g id="edge12" class="edge">
<title>Node8&#45;&gt;Node3</title>
<path fill="none" stroke="#191970" d="M130.4088,-168.4509C159.7185,-149.0268 226.4983,-104.7703 261.9292,-81.2895"/>
<polygon fill="#191970" stroke="#191970" points="264.2255,-83.9666 270.6276,-75.5249 260.3585,-78.1317 264.2255,-83.9666"/>
</g>
<!-- Node9&#45;&gt;Node2 -->
<g id="edge16" class="edge">
<title>Node9&#45;&gt;Node2</title>
<path fill="none" stroke="#191970" d="M205.0189,-168.2455C215.2098,-159.9746 230.0362,-147.9416 242.0107,-138.2232"/>
<polygon fill="#191970" stroke="#191970" points="244.5598,-140.662 250.1188,-131.6427 240.1486,-135.2268 244.5598,-140.662"/>
</g>
<!-- Node9&#45;&gt;Node3 -->
<g id="edge15" class="edge">
<title>Node9&#45;&gt;Node3</title>
<path fill="none" stroke="#191970" d="M197.8098,-168.4826C204.7927,-155.1332 218.5983,-130.4203 234,-112 243.0825,-101.1374 254.7127,-90.4545 264.5726,-82.1218"/>
<polygon fill="#191970" stroke="#191970" points="266.8489,-84.7814 272.3439,-75.7229 262.3993,-79.3776 266.8489,-84.7814"/>
</g>
<!-- Node10&#45;&gt;Node2 -->
<g id="edge19" class="edge">
<title>Node10&#45;&gt;Node2</title>
<path fill="none" stroke="#191970" d="M438.7643,-170.5204C435.812,-169.6624 432.841,-168.8067 430,-168 381.4384,-154.2116 324.7734,-138.8458 291.2222,-129.8227"/>
<polygon fill="#191970" stroke="#191970" points="291.7463,-126.3395 281.1807,-127.1261 289.9308,-133.1 291.7463,-126.3395"/>
</g>
<!-- Node11 -->
<g id="node11" class="node">
<title>Node11</title>
<g id="a_node11"><a xlink:title=" ">
<polygon fill="#ffffff" stroke="#bfbfbf" points="425,-112.5 425,-131.5 481,-131.5 481,-112.5 425,-112.5"/>
<text text-anchor="middle" x="453" y="-119.5" font-family="Helvetica,sans-Serif" font-size="10.00" fill="#000000">stdarg.h</text>
</a>
</g>
</g>
<!-- Node10&#45;&gt;Node11 -->
<g id="edge18" class="edge">
<title>Node10&#45;&gt;Node11</title>
<path fill="none" stroke="#191970" d="M462.0839,-168.2455C460.6486,-160.9382 458.6364,-150.6944 456.8705,-141.7046"/>
<polygon fill="#191970" stroke="#191970" points="460.256,-140.7805 454.8941,-131.6427 453.3873,-142.1298 460.256,-140.7805"/>
</g>
<!-- Node12&#45;&gt;Node2 -->
<g id="edge22" class="edge">
<title>Node12&#45;&gt;Node2</title>
<path fill="none" stroke="#191970" d="M507.2329,-170.1764C504.1212,-169.4158 501.0002,-168.6764 498,-168 423.7332,-151.2558 335.5052,-135.0226 290.9017,-127.0706"/>
<polygon fill="#191970" stroke="#191970" points="291.5027,-123.6226 281.0451,-125.3217 290.2798,-130.515 291.5027,-123.6226"/>
</g>
<!-- Node12&#45;&gt;Node3 -->
<g id="edge21" class="edge">
<title>Node12&#45;&gt;Node3</title>
<path fill="none" stroke="#191970" d="M532.8344,-168.195C526.0839,-153.5483 511.3251,-126.1661 490,-112 462.7127,-93.8732 372.7912,-78.5371 321.5656,-70.9997"/>
<polygon fill="#191970" stroke="#191970" points="321.9601,-67.5205 311.5624,-69.5546 320.9592,-74.4485 321.9601,-67.5205"/>
</g>
<!-- Node12&#45;&gt;Node11 -->
<g id="edge23" class="edge">
<title>Node12&#45;&gt;Node11</title>
<path fill="none" stroke="#191970" d="M522.3683,-168.2455C509.6006,-159.7337 490.8562,-147.2375 476.0701,-137.3801"/>
<polygon fill="#191970" stroke="#191970" points="477.726,-134.2775 467.464,-131.6427 473.8431,-140.1019 477.726,-134.2775"/>
</g>
<!-- Node13 -->
<g id="node13" class="node">
<title>Node13</title>
<g id="a_node13"><a xlink:href="setjmp_8h.html" target="_top" xlink:title=" ">
<polygon fill="#ffffff" stroke="#000000" points="464.5,-56.5 464.5,-75.5 523.5,-75.5 523.5,-56.5 464.5,-56.5"/>
<text text-anchor="middle" x="494" y="-63.5" font-family="Helvetica,sans-Serif" font-size="10.00" fill="#000000">setjmp.h</text>
</a>
</g>
</g>
<!-- Node12&#45;&gt;Node13 -->
<g id="edge24" class="edge">
<title>Node12&#45;&gt;Node13</title>
<path fill="none" stroke="#191970" d="M536.0254,-168.2882C534.4652,-155.1331 530.7568,-131.1004 523,-112 519.0254,-102.213 512.9853,-92.1938 507.4444,-84.015"/>
<polygon fill="#191970" stroke="#191970" points="510.1729,-81.8117 501.5375,-75.6733 504.4602,-85.857 510.1729,-81.8117"/>
</g>
<!-- Node13&#45;&gt;Node5 -->
<g id="edge25" class="edge">
<title>Node13&#45;&gt;Node5</title>
<path fill="none" stroke="#191970" d="M486.6842,-56.2455C480.7821,-48.3761 472.3258,-37.101 465.2406,-27.6542"/>
<polygon fill="#191970" stroke="#191970" points="468.0321,-25.5427 459.232,-19.6427 462.432,-29.7427 468.0321,-25.5427"/>
</g>
<!-- Node14&#45;&gt;Node2 -->
<g id="edge28" class="edge">
<title>Node14&#45;&gt;Node2</title>
<path fill="none" stroke="#191970" d="M300.8132,-168.2455C294.1411,-160.2958 284.5521,-148.8706 276.5747,-139.3656"/>
<polygon fill="#191970" stroke="#191970" points="279.2026,-137.0524 270.093,-131.6427 273.8408,-141.5525 279.2026,-137.0524"/>
</g>
<!-- Node14&#45;&gt;Node3 -->
<g id="edge27" class="edge">
<title>Node14&#45;&gt;Node3</title>
<path fill="none" stroke="#191970" d="M306.9538,-168.4509C303.0217,-150.1013 294.3409,-109.5908 289.1506,-85.3693"/>
<polygon fill="#191970" stroke="#191970" points="292.5587,-84.5695 287.041,-75.5249 285.7141,-86.0363 292.5587,-84.5695"/>
</g>
</g>
</svg>
