<?xml version="1.0" encoding="UTF-8" standalone="no"?>
<!DOCTYPE svg PUBLIC "-//W3C//DTD SVG 1.1//EN"
 "http://www.w3.org/Graphics/SVG/1.1/DTD/svg11.dtd">
<!-- Generated by graphviz version 2.40.1 (20161225.0304)
 -->
<!-- Title: iop/kernel/include/modload.h Pages: 1 -->
<svg width="1011pt" height="173pt"
 viewBox="0.00 0.00 1010.50 173.00" xmlns="http://www.w3.org/2000/svg" xmlns:xlink="http://www.w3.org/1999/xlink">
<g id="graph0" class="graph" transform="scale(1 1) rotate(0) translate(4 169)">
<title>iop/kernel/include/modload.h</title>
<polygon fill="#ffffff" stroke="transparent" points="-4,4 -4,-169 1006.5,-169 1006.5,4 -4,4"/>
<!-- Node1 -->
<g id="node1" class="node">
<title>Node1</title>
<g id="a_node1"><a xlink:title=" ">
<polygon fill="#bfbfbf" stroke="#000000" points="417,-134.5 417,-164.5 521,-164.5 521,-134.5 417,-134.5"/>
<text text-anchor="start" x="425" y="-152.5" font-family="Helvetica,sans-Serif" font-size="10.00" fill="#000000">iop/kernel/include</text>
<text text-anchor="middle" x="469" y="-141.5" font-family="Helvetica,sans-Serif" font-size="10.00" fill="#000000">/modload.h</text>
</a>
</g>
</g>
<!-- Node2 -->
<g id="node2" class="node">
<title>Node2</title>
<g id="a_node2"><a xlink:href="debug_2iop__sbusdbg_2src_2irx__imports_8h.html" target="_top" xlink:title=" ">
<polygon fill="#ffffff" stroke="#000000" points="0,-67.5 0,-97.5 128,-97.5 128,-67.5 0,-67.5"/>
<text text-anchor="start" x="8" y="-85.5" font-family="Helvetica,sans-Serif" font-size="10.00" fill="#000000">iop/debug/iop_sbusdbg</text>
<text text-anchor="middle" x="64" y="-74.5" font-family="Helvetica,sans-Serif" font-size="10.00" fill="#000000">/src/irx_imports.h</text>
</a>
</g>
</g>
<!-- Node1&#45;&gt;Node2 -->
<g id="edge1" class="edge">
<title>Node1&#45;&gt;Node2</title>
<path fill="none" stroke="#191970" d="M406.8595,-140.9085C340.0256,-131.4237 230.721,-115.2052 137,-98 134.0691,-97.4619 131.0755,-96.8954 128.0543,-96.31"/>
<polygon fill="#191970" stroke="#191970" points="406.4171,-144.3807 416.8086,-142.3152 407.3971,-137.4496 406.4171,-144.3807"/>
</g>
<!-- Node3 -->
<g id="node3" class="node">
<title>Node3</title>
<g id="a_node3"><a xlink:href="debug_2iopdebug_2src_2irx__imports_8h.html" target="_top" xlink:title=" ">
<polygon fill="#ffffff" stroke="#000000" points="146.5,-67.5 146.5,-97.5 259.5,-97.5 259.5,-67.5 146.5,-67.5"/>
<text text-anchor="start" x="154.5" y="-85.5" font-family="Helvetica,sans-Serif" font-size="10.00" fill="#000000">iop/debug/iopdebug</text>
<text text-anchor="middle" x="203" y="-74.5" font-family="Helvetica,sans-Serif" font-size="10.00" fill="#000000">/src/irx_imports.h</text>
</a>
</g>
</g>
<!-- Node1&#45;&gt;Node3 -->
<g id="edge2" class="edge">
<title>Node1&#45;&gt;Node3</title>
<path fill="none" stroke="#191970" d="M406.9376,-133.8678C362.435,-122.6584 302.9524,-107.676 259.7177,-96.786"/>
<polygon fill="#191970" stroke="#191970" points="406.2123,-137.2943 416.7643,-136.3429 407.9221,-130.5063 406.2123,-137.2943"/>
</g>
<!-- Node4 -->
<g id="node4" class="node">
<title>Node4</title>
<g id="a_node4"><a xlink:href="xmodload_8h.html" target="_top" xlink:title=" ">
<polygon fill="#ffffff" stroke="#000000" points="278,-67.5 278,-97.5 382,-97.5 382,-67.5 278,-67.5"/>
<text text-anchor="start" x="286" y="-85.5" font-family="Helvetica,sans-Serif" font-size="10.00" fill="#000000">iop/kernel/include</text>
<text text-anchor="middle" x="330" y="-74.5" font-family="Helvetica,sans-Serif" font-size="10.00" fill="#000000">/xmodload.h</text>
</a>
</g>
</g>
<!-- Node1&#45;&gt;Node4 -->
<g id="edge3" class="edge">
<title>Node1&#45;&gt;Node4</title>
<path fill="none" stroke="#191970" d="M428.6523,-130.0518C407.2938,-119.7567 381.4489,-107.2991 361.5711,-97.7177"/>
<polygon fill="#191970" stroke="#191970" points="427.2778,-133.2746 437.8057,-134.4639 430.3173,-126.9689 427.2778,-133.2746"/>
</g>
<!-- Node5 -->
<g id="node5" class="node">
<title>Node5</title>
<g id="a_node5"><a xlink:href="memorycard_2mcman_2src_2irx__imports_8h.html" target="_top" xlink:title=" ">
<polygon fill="#ffffff" stroke="#000000" points="400.5,-67.5 400.5,-97.5 537.5,-97.5 537.5,-67.5 400.5,-67.5"/>
<text text-anchor="start" x="408.5" y="-85.5" font-family="Helvetica,sans-Serif" font-size="10.00" fill="#000000">iop/memorycard/mcman</text>
<text text-anchor="middle" x="469" y="-74.5" font-family="Helvetica,sans-Serif" font-size="10.00" fill="#000000">/src/irx_imports.h</text>
</a>
</g>
</g>
<!-- Node1&#45;&gt;Node5 -->
<g id="edge4" class="edge">
<title>Node1&#45;&gt;Node5</title>
<path fill="none" stroke="#191970" d="M469,-124.0249C469,-115.128 469,-105.4287 469,-97.6432"/>
<polygon fill="#191970" stroke="#191970" points="465.5001,-124.2966 469,-134.2967 472.5001,-124.2967 465.5001,-124.2966"/>
</g>
<!-- Node6 -->
<g id="node6" class="node">
<title>Node6</title>
<g id="a_node6"><a xlink:href="mcman-internal_8h.html" target="_top" xlink:title=" ">
<polygon fill="#ffffff" stroke="#000000" points="555.5,-67.5 555.5,-97.5 692.5,-97.5 692.5,-67.5 555.5,-67.5"/>
<text text-anchor="start" x="563.5" y="-85.5" font-family="Helvetica,sans-Serif" font-size="10.00" fill="#000000">iop/memorycard/mcman</text>
<text text-anchor="middle" x="624" y="-74.5" font-family="Helvetica,sans-Serif" font-size="10.00" fill="#000000">/src/mcman&#45;internal.h</text>
</a>
</g>
</g>
<!-- Node1&#45;&gt;Node6 -->
<g id="edge5" class="edge">
<title>Node1&#45;&gt;Node6</title>
<path fill="none" stroke="#191970" d="M513.0672,-130.4516C537.1556,-120.0392 566.575,-107.3224 589.0633,-97.6017"/>
<polygon fill="#191970" stroke="#191970" points="511.5754,-127.2834 503.785,-134.4639 514.3529,-133.7088 511.5754,-127.2834"/>
</g>
<!-- Node12 -->
<g id="node12" class="node">
<title>Node12</title>
<g id="a_node12"><a xlink:href="smap_8c.html" target="_top" xlink:title=" ">
<polygon fill="#ffffff" stroke="#000000" points="711,-67.5 711,-97.5 833,-97.5 833,-67.5 711,-67.5"/>
<text text-anchor="start" x="719" y="-85.5" font-family="Helvetica,sans-Serif" font-size="10.00" fill="#000000">iop/network/smap/src</text>
<text text-anchor="middle" x="772" y="-74.5" font-family="Helvetica,sans-Serif" font-size="10.00" fill="#000000">/smap.c</text>
</a>
</g>
</g>
<!-- Node1&#45;&gt;Node12 -->
<g id="edge11" class="edge">
<title>Node1&#45;&gt;Node12</title>
<path fill="none" stroke="#191970" d="M531.2982,-135.737C578.2268,-125.3678 644.1542,-110.7972 702,-98 704.9168,-97.3547 707.9019,-96.6942 710.9169,-96.027"/>
<polygon fill="#191970" stroke="#191970" points="530.2949,-132.3742 521.2855,-137.9493 531.8052,-139.2093 530.2949,-132.3742"/>
</g>
<!-- Node13 -->
<g id="node13" class="node">
<title>Node13</title>
<g id="a_node13"><a xlink:href="xfer_8c.html" target="_top" xlink:title=" ">
<polygon fill="#ffffff" stroke="#000000" points="851,-67.5 851,-97.5 973,-97.5 973,-67.5 851,-67.5"/>
<text text-anchor="start" x="859" y="-85.5" font-family="Helvetica,sans-Serif" font-size="10.00" fill="#000000">iop/network/smap/src</text>
<text text-anchor="middle" x="912" y="-74.5" font-family="Helvetica,sans-Serif" font-size="10.00" fill="#000000">/xfer.c</text>
</a>
</g>
</g>
<!-- Node1&#45;&gt;Node13 -->
<g id="edge12" class="edge">
<title>Node1&#45;&gt;Node13</title>
<path fill="none" stroke="#191970" d="M531.2162,-142.4675C605.4609,-133.7162 733.2281,-117.5188 842,-98 844.9403,-97.4724 847.9446,-96.9074 850.975,-96.3168"/>
<polygon fill="#191970" stroke="#191970" points="530.6275,-139.0124 521.1028,-143.6525 531.4422,-145.9649 530.6275,-139.0124"/>
</g>
<!-- Node7 -->
<g id="node7" class="node">
<title>Node7</title>
<g id="a_node7"><a xlink:href="memorycard_2mcman_2src_2main_8c.html" target="_top" xlink:title=" ">
<polygon fill="#ffffff" stroke="#000000" points="245.5,-.5 245.5,-30.5 382.5,-30.5 382.5,-.5 245.5,-.5"/>
<text text-anchor="start" x="253.5" y="-18.5" font-family="Helvetica,sans-Serif" font-size="10.00" fill="#000000">iop/memorycard/mcman</text>
<text text-anchor="middle" x="314" y="-7.5" font-family="Helvetica,sans-Serif" font-size="10.00" fill="#000000">/src/main.c</text>
</a>
</g>
</g>
<!-- Node6&#45;&gt;Node7 -->
<g id="edge6" class="edge">
<title>Node6&#45;&gt;Node7</title>
<path fill="none" stroke="#191970" d="M545.3606,-65.5037C495.1642,-54.6548 430.7248,-40.7276 382.6067,-30.3279"/>
<polygon fill="#191970" stroke="#191970" points="544.6872,-68.9389 555.201,-67.6305 546.166,-62.0969 544.6872,-68.9389"/>
</g>
<!-- Node8 -->
<g id="node8" class="node">
<title>Node8</title>
<g id="a_node8"><a xlink:href="mcdev_8c.html" target="_top" xlink:title=" ">
<polygon fill="#ffffff" stroke="#000000" points="400.5,-.5 400.5,-30.5 537.5,-30.5 537.5,-.5 400.5,-.5"/>
<text text-anchor="start" x="408.5" y="-18.5" font-family="Helvetica,sans-Serif" font-size="10.00" fill="#000000">iop/memorycard/mcman</text>
<text text-anchor="middle" x="469" y="-7.5" font-family="Helvetica,sans-Serif" font-size="10.00" fill="#000000">/src/mcdev.c</text>
</a>
</g>
</g>
<!-- Node6&#45;&gt;Node8 -->
<g id="edge7" class="edge">
<title>Node6&#45;&gt;Node8</title>
<path fill="none" stroke="#191970" d="M579.9328,-63.4516C555.8444,-53.0392 526.425,-40.3224 503.9367,-30.6017"/>
<polygon fill="#191970" stroke="#191970" points="578.6471,-66.7088 589.215,-67.4639 581.4246,-60.2834 578.6471,-66.7088"/>
</g>
<!-- Node9 -->
<g id="node9" class="node">
<title>Node9</title>
<g id="a_node9"><a xlink:href="mcsio2_8c.html" target="_top" xlink:title=" ">
<polygon fill="#ffffff" stroke="#000000" points="555.5,-.5 555.5,-30.5 692.5,-30.5 692.5,-.5 555.5,-.5"/>
<text text-anchor="start" x="563.5" y="-18.5" font-family="Helvetica,sans-Serif" font-size="10.00" fill="#000000">iop/memorycard/mcman</text>
<text text-anchor="middle" x="624" y="-7.5" font-family="Helvetica,sans-Serif" font-size="10.00" fill="#000000">/src/mcsio2.c</text>
</a>
</g>
</g>
<!-- Node6&#45;&gt;Node9 -->
<g id="edge8" class="edge">
<title>Node6&#45;&gt;Node9</title>
<path fill="none" stroke="#191970" d="M624,-57.0249C624,-48.128 624,-38.4287 624,-30.6432"/>
<polygon fill="#191970" stroke="#191970" points="620.5001,-57.2966 624,-67.2967 627.5001,-57.2967 620.5001,-57.2966"/>
</g>
<!-- Node10 -->
<g id="node10" class="node">
<title>Node10</title>
<g id="a_node10"><a xlink:href="ps1mc__fio_8c.html" target="_top" xlink:title=" ">
<polygon fill="#ffffff" stroke="#000000" points="710.5,-.5 710.5,-30.5 847.5,-30.5 847.5,-.5 710.5,-.5"/>
<text text-anchor="start" x="718.5" y="-18.5" font-family="Helvetica,sans-Serif" font-size="10.00" fill="#000000">iop/memorycard/mcman</text>
<text text-anchor="middle" x="779" y="-7.5" font-family="Helvetica,sans-Serif" font-size="10.00" fill="#000000">/src/ps1mc_fio.c</text>
</a>
</g>
</g>
<!-- Node6&#45;&gt;Node10 -->
<g id="edge9" class="edge">
<title>Node6&#45;&gt;Node10</title>
<path fill="none" stroke="#191970" d="M668.0672,-63.4516C692.1556,-53.0392 721.575,-40.3224 744.0633,-30.6017"/>
<polygon fill="#191970" stroke="#191970" points="666.5754,-60.2834 658.785,-67.4639 669.3529,-66.7088 666.5754,-60.2834"/>
</g>
<!-- Node11 -->
<g id="node11" class="node">
<title>Node11</title>
<g id="a_node11"><a xlink:href="ps2mc__fio_8c.html" target="_top" xlink:title=" ">
<polygon fill="#ffffff" stroke="#000000" points="865.5,-.5 865.5,-30.5 1002.5,-30.5 1002.5,-.5 865.5,-.5"/>
<text text-anchor="start" x="873.5" y="-18.5" font-family="Helvetica,sans-Serif" font-size="10.00" fill="#000000">iop/memorycard/mcman</text>
<text text-anchor="middle" x="934" y="-7.5" font-family="Helvetica,sans-Serif" font-size="10.00" fill="#000000">/src/ps2mc_fio.c</text>
</a>
</g>
</g>
<!-- Node6&#45;&gt;Node11 -->
<g id="edge10" class="edge">
<title>Node6&#45;&gt;Node11</title>
<path fill="none" stroke="#191970" d="M702.6394,-65.5037C752.8358,-54.6548 817.2752,-40.7276 865.3933,-30.3279"/>
<polygon fill="#191970" stroke="#191970" points="701.834,-62.0969 692.799,-67.6305 703.3128,-68.9389 701.834,-62.0969"/>
</g>
</g>
</svg>
