<?xml version="1.0" encoding="UTF-8" standalone="no"?>
<!DOCTYPE svg PUBLIC "-//W3C//DTD SVG 1.1//EN"
 "http://www.w3.org/Graphics/SVG/1.1/DTD/svg11.dtd">
<!-- Generated by graphviz version 2.40.1 (20161225.0304)
 -->
<!-- Title: common/include/netman_rpc.h Pages: 1 -->
<svg width="146pt" height="151pt"
 viewBox="0.00 0.00 146.00 151.00" xmlns="http://www.w3.org/2000/svg" xmlns:xlink="http://www.w3.org/1999/xlink">
<g id="graph0" class="graph" transform="scale(1 1) rotate(0) translate(4 147)">
<title>common/include/netman_rpc.h</title>
<polygon fill="#ffffff" stroke="transparent" points="-4,4 -4,-147 142,-147 142,4 -4,4"/>
<!-- Node1 -->
<g id="node1" class="node">
<title>Node1</title>
<g id="a_node1"><a xlink:title=" ">
<polygon fill="#bfbfbf" stroke="#000000" points="0,-112.5 0,-142.5 138,-142.5 138,-112.5 0,-112.5"/>
<text text-anchor="start" x="8" y="-130.5" font-family="Helvetica,sans-Serif" font-size="10.00" fill="#000000">common/include/netman</text>
<text text-anchor="middle" x="69" y="-119.5" font-family="Helvetica,sans-Serif" font-size="10.00" fill="#000000">_rpc.h</text>
</a>
</g>
</g>
<!-- Node2 -->
<g id="node2" class="node">
<title>Node2</title>
<g id="a_node2"><a xlink:href="tamtypes_8h.html" target="_top" xlink:title=" ">
<polygon fill="#ffffff" stroke="#000000" points="33,-.5 33,-19.5 105,-19.5 105,-.5 33,-.5"/>
<text text-anchor="middle" x="69" y="-7.5" font-family="Helvetica,sans-Serif" font-size="10.00" fill="#000000">tamtypes.h</text>
</a>
</g>
</g>
<!-- Node1&#45;&gt;Node2 -->
<g id="edge1" class="edge">
<title>Node1&#45;&gt;Node2</title>
<path fill="none" stroke="#191970" d="M64.3013,-112.4772C60.3515,-98.0379 55.6912,-75.5824 58,-56 59.0429,-47.1546 61.1768,-37.5467 63.29,-29.4104"/>
<polygon fill="#191970" stroke="#191970" points="66.6694,-30.3213 65.9625,-19.7501 59.9228,-28.4548 66.6694,-30.3213"/>
</g>
<!-- Node3 -->
<g id="node3" class="node">
<title>Node3</title>
<g id="a_node3"><a xlink:href="netman_8h.html" target="_top" xlink:title=" ">
<polygon fill="#ffffff" stroke="#000000" points="67.5,-56.5 67.5,-75.5 130.5,-75.5 130.5,-56.5 67.5,-56.5"/>
<text text-anchor="middle" x="99" y="-63.5" font-family="Helvetica,sans-Serif" font-size="10.00" fill="#000000">netman.h</text>
</a>
</g>
</g>
<!-- Node1&#45;&gt;Node3 -->
<g id="edge2" class="edge">
<title>Node1&#45;&gt;Node3</title>
<path fill="none" stroke="#191970" d="M76.4157,-112.2977C80.4499,-104.0277 85.4773,-93.7215 89.764,-84.9339"/>
<polygon fill="#191970" stroke="#191970" points="92.958,-86.3691 94.1966,-75.8469 86.6666,-83.3001 92.958,-86.3691"/>
</g>
<!-- Node3&#45;&gt;Node2 -->
<g id="edge3" class="edge">
<title>Node3&#45;&gt;Node2</title>
<path fill="none" stroke="#191970" d="M93.7744,-56.2455C89.6877,-48.617 83.8865,-37.7881 78.925,-28.5267"/>
<polygon fill="#191970" stroke="#191970" points="81.9732,-26.8047 74.1657,-19.6427 75.8028,-30.1103 81.9732,-26.8047"/>
</g>
</g>
</svg>
