<?xml version="1.0" encoding="UTF-8" standalone="no"?>
<!DOCTYPE svg PUBLIC "-//W3C//DTD SVG 1.1//EN"
 "http://www.w3.org/Graphics/SVG/1.1/DTD/svg11.dtd">
<!-- Generated by graphviz version 2.40.1 (20161225.0304)
 -->
<!-- Title: iop/network/netman/src/rpc_client.c Pages: 1 -->
<svg width="1000pt" height="263pt"
 viewBox="0.00 0.00 1000.00 263.00" xmlns="http://www.w3.org/2000/svg" xmlns:xlink="http://www.w3.org/1999/xlink">
<g id="graph0" class="graph" transform="scale(1 1) rotate(0) translate(4 259)">
<title>iop/network/netman/src/rpc_client.c</title>
<polygon fill="#ffffff" stroke="transparent" points="-4,4 -4,-259 996,-259 996,4 -4,4"/>
<!-- Node1 -->
<g id="node1" class="node">
<title>Node1</title>
<g id="a_node1"><a xlink:title=" ">
<polygon fill="#bfbfbf" stroke="#000000" points="445,-224.5 445,-254.5 560,-254.5 560,-224.5 445,-224.5"/>
<text text-anchor="start" x="453" y="-242.5" font-family="Helvetica,sans-Serif" font-size="10.00" fill="#000000">iop/network/netman</text>
<text text-anchor="middle" x="502.5" y="-231.5" font-family="Helvetica,sans-Serif" font-size="10.00" fill="#000000">/src/rpc_client.c</text>
</a>
</g>
</g>
<!-- Node2 -->
<g id="node2" class="node">
<title>Node2</title>
<g id="a_node2"><a xlink:href="errno_8h.html" target="_top" xlink:title=" ">
<polygon fill="#ffffff" stroke="#000000" points="0,-168.5 0,-187.5 51,-187.5 51,-168.5 0,-168.5"/>
<text text-anchor="middle" x="25.5" y="-175.5" font-family="Helvetica,sans-Serif" font-size="10.00" fill="#000000">errno.h</text>
</a>
</g>
</g>
<!-- Node1&#45;&gt;Node2 -->
<g id="edge1" class="edge">
<title>Node1&#45;&gt;Node2</title>
<path fill="none" stroke="#191970" d="M444.66,-235.9314C361.5096,-230.1071 203.3735,-216.4425 60.8042,-187.9919"/>
<polygon fill="#191970" stroke="#191970" points="61.4982,-184.5615 51.0025,-186.0073 60.109,-191.4223 61.4982,-184.5615"/>
</g>
<!-- Node3 -->
<g id="node3" class="node">
<title>Node3</title>
<g id="a_node3"><a xlink:href="intrman_8h.html" target="_top" xlink:title=" ">
<polygon fill="#ffffff" stroke="#000000" points="236.5,-168.5 236.5,-187.5 300.5,-187.5 300.5,-168.5 236.5,-168.5"/>
<text text-anchor="middle" x="268.5" y="-175.5" font-family="Helvetica,sans-Serif" font-size="10.00" fill="#000000">intrman.h</text>
</a>
</g>
</g>
<!-- Node1&#45;&gt;Node3 -->
<g id="edge2" class="edge">
<title>Node1&#45;&gt;Node3</title>
<path fill="none" stroke="#191970" d="M445.2572,-224.4554C403.7021,-213.5339 348.3994,-198.9992 310.7948,-189.1159"/>
<polygon fill="#191970" stroke="#191970" points="311.245,-185.6155 300.6838,-186.4586 309.4656,-192.3855 311.245,-185.6155"/>
</g>
<!-- Node8 -->
<g id="node8" class="node">
<title>Node8</title>
<g id="a_node8"><a xlink:href="limits_8h.html" target="_top" xlink:title=" ">
<polygon fill="#ffffff" stroke="#000000" points="767,-168.5 767,-187.5 820,-187.5 820,-168.5 767,-168.5"/>
<text text-anchor="middle" x="793.5" y="-175.5" font-family="Helvetica,sans-Serif" font-size="10.00" fill="#000000">limits.h</text>
</a>
</g>
</g>
<!-- Node1&#45;&gt;Node8 -->
<g id="edge8" class="edge">
<title>Node1&#45;&gt;Node8</title>
<path fill="none" stroke="#191970" d="M560.2347,-229.2468C610.073,-220.0872 684.1763,-205.7334 757.0056,-188.2395"/>
<polygon fill="#191970" stroke="#191970" points="757.9111,-191.6214 766.8053,-185.8643 756.2622,-184.8184 757.9111,-191.6214"/>
</g>
<!-- Node9 -->
<g id="node9" class="node">
<title>Node9</title>
<g id="a_node9"><a xlink:href="sifcmd_8h.html" target="_top" xlink:title=" ">
<polygon fill="#ffffff" stroke="#000000" points="319,-168.5 319,-187.5 378,-187.5 378,-168.5 319,-168.5"/>
<text text-anchor="middle" x="348.5" y="-175.5" font-family="Helvetica,sans-Serif" font-size="10.00" fill="#000000">sifcmd.h</text>
</a>
</g>
</g>
<!-- Node1&#45;&gt;Node9 -->
<g id="edge9" class="edge">
<title>Node1&#45;&gt;Node9</title>
<path fill="none" stroke="#191970" d="M464.8274,-224.4554C439.4702,-214.329 406.3348,-201.0964 381.9174,-191.3453"/>
<polygon fill="#191970" stroke="#191970" points="382.9495,-187.9887 372.3645,-187.5303 380.3533,-194.4895 382.9495,-187.9887"/>
</g>
<!-- Node10 -->
<g id="node10" class="node">
<title>Node10</title>
<g id="a_node10"><a xlink:href="sifman_8h.html" target="_top" xlink:title=" ">
<polygon fill="#ffffff" stroke="#000000" points="396,-168.5 396,-187.5 455,-187.5 455,-168.5 396,-168.5"/>
<text text-anchor="middle" x="425.5" y="-175.5" font-family="Helvetica,sans-Serif" font-size="10.00" fill="#000000">sifman.h</text>
</a>
</g>
</g>
<!-- Node1&#45;&gt;Node10 -->
<g id="edge12" class="edge">
<title>Node1&#45;&gt;Node10</title>
<path fill="none" stroke="#191970" d="M483.4663,-224.2977C471.9985,-215.1384 457.4038,-203.4816 445.7281,-194.1562"/>
<polygon fill="#191970" stroke="#191970" points="447.8266,-191.3529 437.8287,-187.8469 443.4581,-196.8225 447.8266,-191.3529"/>
</g>
<!-- Node11 -->
<g id="node11" class="node">
<title>Node11</title>
<g id="a_node11"><a xlink:href="sysclib_8h.html" target="_top" xlink:title=" ">
<polygon fill="#ffffff" stroke="#000000" points="550,-168.5 550,-187.5 609,-187.5 609,-168.5 550,-168.5"/>
<text text-anchor="middle" x="579.5" y="-175.5" font-family="Helvetica,sans-Serif" font-size="10.00" fill="#000000">sysclib.h</text>
</a>
</g>
</g>
<!-- Node1&#45;&gt;Node11 -->
<g id="edge15" class="edge">
<title>Node1&#45;&gt;Node11</title>
<path fill="none" stroke="#191970" d="M521.5337,-224.2977C533.0015,-215.1384 547.5962,-203.4816 559.2719,-194.1562"/>
<polygon fill="#191970" stroke="#191970" points="561.5419,-196.8225 567.1713,-187.8469 557.1734,-191.3529 561.5419,-196.8225"/>
</g>
<!-- Node14 -->
<g id="node14" class="node">
<title>Node14</title>
<g id="a_node14"><a xlink:href="thbase_8h.html" target="_top" xlink:title=" ">
<polygon fill="#ffffff" stroke="#000000" points="473,-168.5 473,-187.5 532,-187.5 532,-168.5 473,-168.5"/>
<text text-anchor="middle" x="502.5" y="-175.5" font-family="Helvetica,sans-Serif" font-size="10.00" fill="#000000">thbase.h</text>
</a>
</g>
</g>
<!-- Node1&#45;&gt;Node14 -->
<g id="edge21" class="edge">
<title>Node1&#45;&gt;Node14</title>
<path fill="none" stroke="#191970" d="M502.5,-224.2977C502.5,-216.3834 502.5,-206.6043 502.5,-198.0759"/>
<polygon fill="#191970" stroke="#191970" points="506.0001,-197.8469 502.5,-187.8469 499.0001,-197.847 506.0001,-197.8469"/>
</g>
<!-- Node15 -->
<g id="node15" class="node">
<title>Node15</title>
<g id="a_node15"><a xlink:href="thevent_8h.html" target="_top" xlink:title=" ">
<polygon fill="#ffffff" stroke="#000000" points="69,-168.5 69,-187.5 132,-187.5 132,-168.5 69,-168.5"/>
<text text-anchor="middle" x="100.5" y="-175.5" font-family="Helvetica,sans-Serif" font-size="10.00" fill="#000000">thevent.h</text>
</a>
</g>
</g>
<!-- Node1&#45;&gt;Node15 -->
<g id="edge24" class="edge">
<title>Node1&#45;&gt;Node15</title>
<path fill="none" stroke="#191970" d="M444.6903,-233.0159C375.1868,-224.827 254.8566,-209.4004 142.0591,-187.9504"/>
<polygon fill="#191970" stroke="#191970" points="142.6978,-184.5092 132.217,-186.0595 141.3771,-191.3834 142.6978,-184.5092"/>
</g>
<!-- Node16 -->
<g id="node16" class="node">
<title>Node16</title>
<g id="a_node16"><a xlink:href="thsemap_8h.html" target="_top" xlink:title=" ">
<polygon fill="#ffffff" stroke="#000000" points="150.5,-168.5 150.5,-187.5 218.5,-187.5 218.5,-168.5 150.5,-168.5"/>
<text text-anchor="middle" x="184.5" y="-175.5" font-family="Helvetica,sans-Serif" font-size="10.00" fill="#000000">thsemap.h</text>
</a>
</g>
</g>
<!-- Node1&#45;&gt;Node16 -->
<g id="edge27" class="edge">
<title>Node1&#45;&gt;Node16</title>
<path fill="none" stroke="#191970" d="M444.9459,-229.4712C391.385,-219.9684 309.1089,-204.9401 228.5514,-188.1583"/>
<polygon fill="#191970" stroke="#191970" points="229.2429,-184.7273 218.7379,-186.1033 227.8082,-191.5787 229.2429,-184.7273"/>
</g>
<!-- Node17 -->
<g id="node17" class="node">
<title>Node17</title>
<g id="a_node17"><a xlink:href="netman_8h.html" target="_top" xlink:title=" ">
<polygon fill="#ffffff" stroke="#000000" points="617,-112.5 617,-131.5 680,-131.5 680,-112.5 617,-112.5"/>
<text text-anchor="middle" x="648.5" y="-119.5" font-family="Helvetica,sans-Serif" font-size="10.00" fill="#000000">netman.h</text>
</a>
</g>
</g>
<!-- Node1&#45;&gt;Node17 -->
<g id="edge30" class="edge">
<title>Node1&#45;&gt;Node17</title>
<path fill="none" stroke="#191970" d="M556.1727,-224.4745C577.3283,-216.4157 600.5657,-204.6311 617.5,-188 630.4553,-175.2767 638.6249,-156.0912 643.3046,-141.6795"/>
<polygon fill="#191970" stroke="#191970" points="646.7537,-142.3569 646.2243,-131.7753 640.0394,-140.3775 646.7537,-142.3569"/>
</g>
<!-- Node18 -->
<g id="node18" class="node">
<title>Node18</title>
<g id="a_node18"><a xlink:href="netman__rpc_8h.html" target="_top" xlink:title=" ">
<polygon fill="#ffffff" stroke="#000000" points="666,-168.5 666,-187.5 749,-187.5 749,-168.5 666,-168.5"/>
<text text-anchor="middle" x="707.5" y="-175.5" font-family="Helvetica,sans-Serif" font-size="10.00" fill="#000000">netman_rpc.h</text>
</a>
</g>
</g>
<!-- Node1&#45;&gt;Node18 -->
<g id="edge32" class="edge">
<title>Node1&#45;&gt;Node18</title>
<path fill="none" stroke="#191970" d="M552.6486,-224.4554C587.4535,-214.0139 633.2667,-200.27 666.0151,-190.4455"/>
<polygon fill="#191970" stroke="#191970" points="667.1598,-193.7563 675.7323,-187.5303 665.1483,-187.0515 667.1598,-193.7563"/>
</g>
<!-- Node19 -->
<g id="node19" class="node">
<title>Node19</title>
<g id="a_node19"><a xlink:href="internal_8h.html" target="_top" xlink:title=" ">
<polygon fill="#ffffff" stroke="#000000" points="838,-168.5 838,-187.5 901,-187.5 901,-168.5 838,-168.5"/>
<text text-anchor="middle" x="869.5" y="-175.5" font-family="Helvetica,sans-Serif" font-size="10.00" fill="#000000">internal.h</text>
</a>
</g>
</g>
<!-- Node1&#45;&gt;Node19 -->
<g id="edge35" class="edge">
<title>Node1&#45;&gt;Node19</title>
<path fill="none" stroke="#191970" d="M560.0744,-232.0085C623.4988,-223.4028 728.6789,-208.0931 827.801,-188.2252"/>
<polygon fill="#191970" stroke="#191970" points="828.5744,-191.6397 837.6813,-186.2253 827.1856,-184.7788 828.5744,-191.6397"/>
</g>
<!-- Node20 -->
<g id="node20" class="node">
<title>Node20</title>
<g id="a_node20"><a xlink:title=" ">
<polygon fill="#ffffff" stroke="#bfbfbf" points="919,-168.5 919,-187.5 992,-187.5 992,-168.5 919,-168.5"/>
<text text-anchor="middle" x="955.5" y="-175.5" font-family="Helvetica,sans-Serif" font-size="10.00" fill="#000000">rpc_client.h</text>
</a>
</g>
</g>
<!-- Node1&#45;&gt;Node20 -->
<g id="edge36" class="edge">
<title>Node1&#45;&gt;Node20</title>
<path fill="none" stroke="#191970" d="M560.1843,-233.9289C637.437,-226.0889 778.9329,-210.4044 908.6089,-188.2139"/>
<polygon fill="#191970" stroke="#191970" points="909.4609,-191.6186 918.7185,-186.4663 908.2685,-184.7209 909.4609,-191.6186"/>
</g>
<!-- Node4 -->
<g id="node4" class="node">
<title>Node4</title>
<g id="a_node4"><a xlink:href="types_8h.html" target="_top" xlink:title=" ">
<polygon fill="#ffffff" stroke="#000000" points="336,-56.5 336,-75.5 389,-75.5 389,-56.5 336,-56.5"/>
<text text-anchor="middle" x="362.5" y="-63.5" font-family="Helvetica,sans-Serif" font-size="10.00" fill="#000000">types.h</text>
</a>
</g>
</g>
<!-- Node3&#45;&gt;Node4 -->
<g id="edge3" class="edge">
<title>Node3&#45;&gt;Node4</title>
<path fill="none" stroke="#191970" d="M269.1373,-168.0564C270.4823,-154.2008 274.6476,-128.8902 287.5,-112 297.971,-98.2393 313.847,-87.6537 328.3003,-80.1259"/>
<polygon fill="#191970" stroke="#191970" points="330.0749,-83.1543 337.5217,-75.618 327.0005,-76.8655 330.0749,-83.1543"/>
</g>
<!-- Node7 -->
<g id="node7" class="node">
<title>Node7</title>
<g id="a_node7"><a xlink:href="irx_8h.html" target="_top" xlink:title=" ">
<polygon fill="#ffffff" stroke="#000000" points="296.5,-112.5 296.5,-131.5 334.5,-131.5 334.5,-112.5 296.5,-112.5"/>
<text text-anchor="middle" x="315.5" y="-119.5" font-family="Helvetica,sans-Serif" font-size="10.00" fill="#000000">irx.h</text>
</a>
</g>
</g>
<!-- Node3&#45;&gt;Node7 -->
<g id="edge6" class="edge">
<title>Node3&#45;&gt;Node7</title>
<path fill="none" stroke="#191970" d="M276.6868,-168.2455C283.3589,-160.2958 292.9479,-148.8706 300.9253,-139.3656"/>
<polygon fill="#191970" stroke="#191970" points="303.6592,-141.5525 307.407,-131.6427 298.2974,-137.0524 303.6592,-141.5525"/>
</g>
<!-- Node5 -->
<g id="node5" class="node">
<title>Node5</title>
<g id="a_node5"><a xlink:title=" ">
<polygon fill="#ffffff" stroke="#bfbfbf" points="334.5,-.5 334.5,-19.5 390.5,-19.5 390.5,-.5 334.5,-.5"/>
<text text-anchor="middle" x="362.5" y="-7.5" font-family="Helvetica,sans-Serif" font-size="10.00" fill="#000000">stddef.h</text>
</a>
</g>
</g>
<!-- Node4&#45;&gt;Node5 -->
<g id="edge4" class="edge">
<title>Node4&#45;&gt;Node5</title>
<path fill="none" stroke="#191970" d="M362.5,-56.2455C362.5,-48.9382 362.5,-38.6944 362.5,-29.7046"/>
<polygon fill="#191970" stroke="#191970" points="366.0001,-29.6426 362.5,-19.6427 359.0001,-29.6427 366.0001,-29.6426"/>
</g>
<!-- Node6 -->
<g id="node6" class="node">
<title>Node6</title>
<g id="a_node6"><a xlink:href="tamtypes_8h.html" target="_top" xlink:title=" ">
<polygon fill="#ffffff" stroke="#000000" points="582.5,-.5 582.5,-19.5 654.5,-19.5 654.5,-.5 582.5,-.5"/>
<text text-anchor="middle" x="618.5" y="-7.5" font-family="Helvetica,sans-Serif" font-size="10.00" fill="#000000">tamtypes.h</text>
</a>
</g>
</g>
<!-- Node4&#45;&gt;Node6 -->
<g id="edge5" class="edge">
<title>Node4&#45;&gt;Node6</title>
<path fill="none" stroke="#191970" d="M389.4126,-60.1129C432.8288,-50.6156 518.8454,-31.7995 572.2389,-20.1196"/>
<polygon fill="#191970" stroke="#191970" points="573.1147,-23.5109 582.1357,-17.9547 571.6188,-16.6726 573.1147,-23.5109"/>
</g>
<!-- Node7&#45;&gt;Node4 -->
<g id="edge7" class="edge">
<title>Node7&#45;&gt;Node4</title>
<path fill="none" stroke="#191970" d="M323.6868,-112.2455C330.3589,-104.2958 339.9479,-92.8706 347.9253,-83.3656"/>
<polygon fill="#191970" stroke="#191970" points="350.6592,-85.5525 354.407,-75.6427 345.2974,-81.0524 350.6592,-85.5525"/>
</g>
<!-- Node9&#45;&gt;Node4 -->
<g id="edge10" class="edge">
<title>Node9&#45;&gt;Node4</title>
<path fill="none" stroke="#191970" d="M349.6936,-168.4509C351.977,-150.184 357.0056,-109.9553 360.0378,-85.6976"/>
<polygon fill="#191970" stroke="#191970" points="363.5419,-85.8818 361.3094,-75.5249 356.596,-85.0135 363.5419,-85.8818"/>
</g>
<!-- Node9&#45;&gt;Node7 -->
<g id="edge11" class="edge">
<title>Node9&#45;&gt;Node7</title>
<path fill="none" stroke="#191970" d="M342.7518,-168.2455C338.2565,-160.617 331.8752,-149.7881 326.4175,-140.5267"/>
<polygon fill="#191970" stroke="#191970" points="329.2747,-138.4811 321.1823,-131.6427 323.2439,-142.035 329.2747,-138.4811"/>
</g>
<!-- Node10&#45;&gt;Node4 -->
<g id="edge13" class="edge">
<title>Node10&#45;&gt;Node4</title>
<path fill="none" stroke="#191970" d="M420.1287,-168.4509C409.6675,-149.8533 386.4017,-108.4919 372.848,-84.3964"/>
<polygon fill="#191970" stroke="#191970" points="375.8109,-82.5247 367.8577,-75.5249 369.7099,-85.9566 375.8109,-82.5247"/>
</g>
<!-- Node10&#45;&gt;Node7 -->
<g id="edge14" class="edge">
<title>Node10&#45;&gt;Node7</title>
<path fill="none" stroke="#191970" d="M406.3395,-168.2455C388.9889,-159.4125 363.2099,-146.2887 343.5417,-136.2758"/>
<polygon fill="#191970" stroke="#191970" points="344.9405,-133.0605 334.441,-131.6427 341.7647,-139.2986 344.9405,-133.0605"/>
</g>
<!-- Node11&#45;&gt;Node4 -->
<g id="edge16" class="edge">
<title>Node11&#45;&gt;Node4</title>
<path fill="none" stroke="#191970" d="M560.9987,-168.4509C522.8039,-148.7375 435.0527,-103.4465 390.1178,-80.2543"/>
<polygon fill="#191970" stroke="#191970" points="391.446,-77.0012 380.9545,-75.5249 388.2354,-83.2215 391.446,-77.0012"/>
</g>
<!-- Node11&#45;&gt;Node7 -->
<g id="edge17" class="edge">
<title>Node11&#45;&gt;Node7</title>
<path fill="none" stroke="#191970" d="M549.7264,-170.2046C546.6161,-169.4385 543.4971,-168.6902 540.5,-168 470.4754,-151.8748 387.5301,-135.6552 344.563,-127.4663"/>
<polygon fill="#191970" stroke="#191970" points="345.01,-123.9887 334.5327,-125.5623 343.7045,-130.8659 345.01,-123.9887"/>
</g>
<!-- Node12 -->
<g id="node12" class="node">
<title>Node12</title>
<g id="a_node12"><a xlink:title=" ">
<polygon fill="#ffffff" stroke="#bfbfbf" points="504.5,-112.5 504.5,-131.5 560.5,-131.5 560.5,-112.5 504.5,-112.5"/>
<text text-anchor="middle" x="532.5" y="-119.5" font-family="Helvetica,sans-Serif" font-size="10.00" fill="#000000">stdarg.h</text>
</a>
</g>
</g>
<!-- Node11&#45;&gt;Node12 -->
<g id="edge18" class="edge">
<title>Node11&#45;&gt;Node12</title>
<path fill="none" stroke="#191970" d="M571.3132,-168.2455C564.6411,-160.2958 555.0521,-148.8706 547.0747,-139.3656"/>
<polygon fill="#191970" stroke="#191970" points="549.7026,-137.0524 540.593,-131.6427 544.3408,-141.5525 549.7026,-137.0524"/>
</g>
<!-- Node13 -->
<g id="node13" class="node">
<title>Node13</title>
<g id="a_node13"><a xlink:href="setjmp_8h.html" target="_top" xlink:title=" ">
<polygon fill="#ffffff" stroke="#000000" points="559,-56.5 559,-75.5 618,-75.5 618,-56.5 559,-56.5"/>
<text text-anchor="middle" x="588.5" y="-63.5" font-family="Helvetica,sans-Serif" font-size="10.00" fill="#000000">setjmp.h</text>
</a>
</g>
</g>
<!-- Node11&#45;&gt;Node13 -->
<g id="edge19" class="edge">
<title>Node11&#45;&gt;Node13</title>
<path fill="none" stroke="#191970" d="M580.2673,-168.4509C581.7352,-150.184 584.9679,-109.9553 586.9172,-85.6976"/>
<polygon fill="#191970" stroke="#191970" points="590.4223,-85.7731 587.7346,-75.5249 583.4448,-85.2124 590.4223,-85.7731"/>
</g>
<!-- Node13&#45;&gt;Node6 -->
<g id="edge20" class="edge">
<title>Node13&#45;&gt;Node6</title>
<path fill="none" stroke="#191970" d="M593.7256,-56.2455C597.8123,-48.617 603.6135,-37.7881 608.575,-28.5267"/>
<polygon fill="#191970" stroke="#191970" points="611.6972,-30.1103 613.3343,-19.6427 605.5268,-26.8047 611.6972,-30.1103"/>
</g>
<!-- Node14&#45;&gt;Node4 -->
<g id="edge22" class="edge">
<title>Node14&#45;&gt;Node4</title>
<path fill="none" stroke="#191970" d="M490.5637,-168.4509C466.4901,-149.1921 411.9023,-105.5218 382.3669,-81.8935"/>
<polygon fill="#191970" stroke="#191970" points="384.4013,-79.0388 374.4061,-75.5249 380.0284,-84.5049 384.4013,-79.0388"/>
</g>
<!-- Node14&#45;&gt;Node7 -->
<g id="edge23" class="edge">
<title>Node14&#45;&gt;Node7</title>
<path fill="none" stroke="#191970" d="M472.8693,-169.1266C437.6255,-158.5723 379.1901,-141.073 344.3107,-130.6278"/>
<polygon fill="#191970" stroke="#191970" points="345.299,-127.2702 334.7152,-127.7543 343.2908,-133.976 345.299,-127.2702"/>
</g>
<!-- Node15&#45;&gt;Node4 -->
<g id="edge25" class="edge">
<title>Node15&#45;&gt;Node4</title>
<path fill="none" stroke="#191970" d="M120.0633,-168.3841C147.2708,-155.1314 198.1907,-130.7635 242.5,-112 270.489,-100.1476 302.6714,-87.8833 326.6581,-79.0018"/>
<polygon fill="#191970" stroke="#191970" points="327.8997,-82.2744 336.0734,-75.5334 325.48,-75.7059 327.8997,-82.2744"/>
</g>
<!-- Node15&#45;&gt;Node7 -->
<g id="edge26" class="edge">
<title>Node15&#45;&gt;Node7</title>
<path fill="none" stroke="#191970" d="M132.224,-169.737C173.9163,-158.8776 246.5488,-139.9594 286.7209,-129.496"/>
<polygon fill="#191970" stroke="#191970" points="287.6371,-132.8742 296.432,-126.9666 285.8726,-126.1002 287.6371,-132.8742"/>
</g>
<!-- Node16&#45;&gt;Node4 -->
<g id="edge28" class="edge">
<title>Node16&#45;&gt;Node4</title>
<path fill="none" stroke="#191970" d="M196.1601,-168.3982C212.7668,-154.9487 244.4451,-130.1175 273.5,-112 292.5529,-100.1194 315.022,-88.5235 332.6169,-79.9464"/>
<polygon fill="#191970" stroke="#191970" points="334.3444,-82.9993 341.8377,-75.5092 331.309,-76.6916 334.3444,-82.9993"/>
</g>
<!-- Node16&#45;&gt;Node7 -->
<g id="edge29" class="edge">
<title>Node16&#45;&gt;Node7</title>
<path fill="none" stroke="#191970" d="M207.0197,-168.3733C229.1373,-158.9184 262.9613,-144.4593 286.9535,-134.2031"/>
<polygon fill="#191970" stroke="#191970" points="288.4348,-137.3763 296.2541,-130.2273 285.6832,-130.9398 288.4348,-137.3763"/>
</g>
<!-- Node17&#45;&gt;Node6 -->
<g id="edge31" class="edge">
<title>Node17&#45;&gt;Node6</title>
<path fill="none" stroke="#191970" d="M645.9422,-112.4509C641.0271,-94.1013 630.1761,-53.5908 623.6882,-29.3693"/>
<polygon fill="#191970" stroke="#191970" points="627.0196,-28.2788 621.0513,-19.5249 620.2579,-30.09 627.0196,-28.2788"/>
</g>
<!-- Node18&#45;&gt;Node6 -->
<g id="edge33" class="edge">
<title>Node18&#45;&gt;Node6</title>
<path fill="none" stroke="#191970" d="M705.7169,-168.2526C703.0775,-155.0572 697.4553,-130.979 688.5,-112 673.4786,-80.165 648.999,-47.2843 633.3292,-27.7458"/>
<polygon fill="#191970" stroke="#191970" points="635.8479,-25.2963 626.815,-19.7592 630.4234,-29.7207 635.8479,-25.2963"/>
</g>
<!-- Node18&#45;&gt;Node17 -->
<g id="edge34" class="edge">
<title>Node18&#45;&gt;Node17</title>
<path fill="none" stroke="#191970" d="M697.223,-168.2455C688.6782,-160.1352 676.3222,-148.4075 666.1915,-138.7919"/>
<polygon fill="#191970" stroke="#191970" points="668.3218,-135.9884 658.6592,-131.6427 663.5028,-141.0655 668.3218,-135.9884"/>
</g>
</g>
</svg>
