<?xml version="1.0" encoding="UTF-8" standalone="no"?>
<!DOCTYPE svg PUBLIC "-//W3C//DTD SVG 1.1//EN"
 "http://www.w3.org/Graphics/SVG/1.1/DTD/svg11.dtd">
<!-- Generated by graphviz version 2.40.1 (20161225.0304)
 -->
<!-- Title: iop/network/netman/src/irx_imports.h Pages: 1 -->
<!--zoomable 263 -->
<svg id="main" version="1.1" xmlns="http://www.w3.org/2000/svg" xmlns:xlink="http://www.w3.org/1999/xlink" xml:space="preserve" onload="init(evt)">
<style type="text/css"><![CDATA[
.edge:hover path { stroke: red; }
.edge:hover polygon { stroke: red; fill: red; }
]]></style>
<script type="text/javascript"><![CDATA[
var edges = document.getElementsByTagName('g');
if (edges && edges.length) {
  for (var i=0;i<edges.length;i++) {
    if (edges[i].id.substr(0,4)=='edge') {
      edges[i].setAttribute('class','edge');
    }
  }
}
]]></script>
        <defs>
                <circle id="rim" cx="0" cy="0" r="7"/>
                <circle id="rim2" cx="0" cy="0" r="3.5"/>
                <g id="zoomPlus">
                        <use xlink:href="#rim" fill="#404040">
                                <set attributeName="fill" to="#808080" begin="zoomplus.mouseover" end="zoomplus.mouseout"/>
                        </use>
                        <path d="M-4,0h8M0,-4v8" fill="none" stroke="white" stroke-width="1.5" pointer-events="none"/>
                </g>
                <g id="zoomMin">
                        <use xlink:href="#rim" fill="#404040">
                                <set attributeName="fill" to="#808080" begin="zoomminus.mouseover" end="zoomminus.mouseout"/>
                        </use>
                        <path d="M-4,0h8" fill="none" stroke="white" stroke-width="1.5" pointer-events="none"/>
                </g>
                <g id="dirArrow">
                        <path fill="none" stroke="white" stroke-width="1.5" d="M0,-3.0v7 M-2.5,-0.5L0,-3.0L2.5,-0.5"/>
                </g>
               <g id="resetDef">
                       <use xlink:href="#rim2" fill="#404040">
                               <set attributeName="fill" to="#808080" begin="reset.mouseover" end="reset.mouseout"/>
                       </use>
               </g>
        </defs>

<script type="text/javascript">
var viewWidth = 826;
var viewHeight = 263;
var sectionId = 'dynsection-0';
</script>
<script xlink:href="svgpan.js"/>
<svg id="graph" class="graph">
<g id="viewport">
<title>iop/network/netman/src/irx_imports.h</title>
<polygon fill="#ffffff" stroke="transparent" points="-4,4 -4,-259 822,-259 822,4 -4,4"/>
<!-- Node1 -->
<g id="node1" class="node">
<title>Node1</title>
<g id="a_node1"><a xlink:title=" ">
<polygon fill="#bfbfbf" stroke="#000000" points="351,-224.5 351,-254.5 466,-254.5 466,-224.5 351,-224.5"/>
<text text-anchor="start" x="359" y="-242.5" font-family="Helvetica,sans-Serif" font-size="10.00" fill="#000000">iop/network/netman</text>
<text text-anchor="middle" x="408.5" y="-231.5" font-family="Helvetica,sans-Serif" font-size="10.00" fill="#000000">/src/irx_imports.h</text>
</a>
</g>
</g>
<!-- Node2 -->
<g id="node2" class="node">
<title>Node2</title>
<g id="a_node2"><a xlink:href="irx_8h.html" target="_top" xlink:title=" ">
<polygon fill="#ffffff" stroke="#000000" points="389.5,-112.5 389.5,-131.5 427.5,-131.5 427.5,-112.5 389.5,-112.5"/>
<text text-anchor="middle" x="408.5" y="-119.5" font-family="Helvetica,sans-Serif" font-size="10.00" fill="#000000">irx.h</text>
</a>
</g>
</g>
<!-- Node1&#45;&gt;Node2 -->
<g id="edge1" class="edge">
<title>Node1&#45;&gt;Node2</title>
<path fill="none" stroke="#191970" d="M408.5,-224.1389C408.5,-202.9692 408.5,-164.8174 408.5,-141.6112"/>
<polygon fill="#191970" stroke="#191970" points="412.0001,-141.5594 408.5,-131.5595 405.0001,-141.5595 412.0001,-141.5594"/>
</g>
<!-- Node6 -->
<g id="node6" class="node">
<title>Node6</title>
<g id="a_node6"><a xlink:href="intrman_8h.html" target="_top" xlink:title=" ">
<polygon fill="#ffffff" stroke="#000000" points="436.5,-168.5 436.5,-187.5 500.5,-187.5 500.5,-168.5 436.5,-168.5"/>
<text text-anchor="middle" x="468.5" y="-175.5" font-family="Helvetica,sans-Serif" font-size="10.00" fill="#000000">intrman.h</text>
</a>
</g>
</g>
<!-- Node1&#45;&gt;Node6 -->
<g id="edge5" class="edge">
<title>Node1&#45;&gt;Node6</title>
<path fill="none" stroke="#191970" d="M423.3315,-224.2977C431.9204,-215.4941 442.7602,-204.3833 451.6679,-195.2529"/>
<polygon fill="#191970" stroke="#191970" points="454.4152,-197.4489 458.8932,-187.8469 449.4047,-192.5606 454.4152,-197.4489"/>
</g>
<!-- Node7 -->
<g id="node7" class="node">
<title>Node7</title>
<g id="a_node7"><a xlink:href="loadcore_8h.html" target="_top" xlink:title=" ">
<polygon fill="#ffffff" stroke="#000000" points="518.5,-168.5 518.5,-187.5 586.5,-187.5 586.5,-168.5 518.5,-168.5"/>
<text text-anchor="middle" x="552.5" y="-175.5" font-family="Helvetica,sans-Serif" font-size="10.00" fill="#000000">loadcore.h</text>
</a>
</g>
</g>
<!-- Node1&#45;&gt;Node7 -->
<g id="edge8" class="edge">
<title>Node1&#45;&gt;Node7</title>
<path fill="none" stroke="#191970" d="M443.7264,-224.4554C467.3316,-214.374 498.1454,-201.2139 520.9476,-191.4755"/>
<polygon fill="#191970" stroke="#191970" points="522.3634,-194.6767 530.1851,-187.5303 519.614,-188.2393 522.3634,-194.6767"/>
</g>
<!-- Node8 -->
<g id="node8" class="node">
<title>Node8</title>
<g id="a_node8"><a xlink:href="sifcmd_8h.html" target="_top" xlink:title=" ">
<polygon fill="#ffffff" stroke="#000000" points="0,-168.5 0,-187.5 59,-187.5 59,-168.5 0,-168.5"/>
<text text-anchor="middle" x="29.5" y="-175.5" font-family="Helvetica,sans-Serif" font-size="10.00" fill="#000000">sifcmd.h</text>
</a>
</g>
</g>
<!-- Node1&#45;&gt;Node8 -->
<g id="edge11" class="edge">
<title>Node1&#45;&gt;Node8</title>
<path fill="none" stroke="#191970" d="M350.848,-232.7129C284.8994,-224.5207 173.5337,-209.3834 69.3567,-188.2312"/>
<polygon fill="#191970" stroke="#191970" points="69.7989,-184.749 59.2992,-186.1654 68.3905,-191.6059 69.7989,-184.749"/>
</g>
<!-- Node9 -->
<g id="node9" class="node">
<title>Node9</title>
<g id="a_node9"><a xlink:href="sifman_8h.html" target="_top" xlink:title=" ">
<polygon fill="#ffffff" stroke="#000000" points="77,-168.5 77,-187.5 136,-187.5 136,-168.5 77,-168.5"/>
<text text-anchor="middle" x="106.5" y="-175.5" font-family="Helvetica,sans-Serif" font-size="10.00" fill="#000000">sifman.h</text>
</a>
</g>
</g>
<!-- Node1&#45;&gt;Node9 -->
<g id="edge14" class="edge">
<title>Node1&#45;&gt;Node9</title>
<path fill="none" stroke="#191970" d="M350.8529,-229.364C299.5227,-220.0876 222.1688,-205.495 146.5045,-188.366"/>
<polygon fill="#191970" stroke="#191970" points="146.8537,-184.8558 136.3257,-186.0437 145.2967,-191.6804 146.8537,-184.8558"/>
</g>
<!-- Node10 -->
<g id="node10" class="node">
<title>Node10</title>
<g id="a_node10"><a xlink:href="stdio_8h.html" target="_top" xlink:title=" ">
<polygon fill="#ffffff" stroke="#000000" points="604.5,-168.5 604.5,-187.5 654.5,-187.5 654.5,-168.5 604.5,-168.5"/>
<text text-anchor="middle" x="629.5" y="-175.5" font-family="Helvetica,sans-Serif" font-size="10.00" fill="#000000">stdio.h</text>
</a>
</g>
</g>
<!-- Node1&#45;&gt;Node10 -->
<g id="edge17" class="edge">
<title>Node1&#45;&gt;Node10</title>
<path fill="none" stroke="#191970" d="M464.2116,-224.428C499.1044,-214.9258 545.2512,-202.2462 594.3965,-188.2843"/>
<polygon fill="#191970" stroke="#191970" points="595.6036,-191.5798 604.2631,-185.4754 593.6869,-184.8473 595.6036,-191.5798"/>
</g>
<!-- Node12 -->
<g id="node12" class="node">
<title>Node12</title>
<g id="a_node12"><a xlink:href="sysclib_8h.html" target="_top" xlink:title=" ">
<polygon fill="#ffffff" stroke="#000000" points="759,-168.5 759,-187.5 818,-187.5 818,-168.5 759,-168.5"/>
<text text-anchor="middle" x="788.5" y="-175.5" font-family="Helvetica,sans-Serif" font-size="10.00" fill="#000000">sysclib.h</text>
</a>
</g>
</g>
<!-- Node1&#45;&gt;Node12 -->
<g id="edge20" class="edge">
<title>Node1&#45;&gt;Node12</title>
<path fill="none" stroke="#191970" d="M466.1296,-232.6034C532.124,-224.302 643.6281,-209.0465 748.9197,-187.9484"/>
<polygon fill="#191970" stroke="#191970" points="749.6548,-191.3707 758.7611,-185.9555 748.2653,-184.51 749.6548,-191.3707"/>
</g>
<!-- Node14 -->
<g id="node14" class="node">
<title>Node14</title>
<g id="a_node14"><a xlink:href="sysmem_8h.html" target="_top" xlink:title=" ">
<polygon fill="#ffffff" stroke="#000000" points="672.5,-168.5 672.5,-187.5 740.5,-187.5 740.5,-168.5 672.5,-168.5"/>
<text text-anchor="middle" x="706.5" y="-175.5" font-family="Helvetica,sans-Serif" font-size="10.00" fill="#000000">sysmem.h</text>
</a>
</g>
</g>
<!-- Node1&#45;&gt;Node14 -->
<g id="edge26" class="edge">
<title>Node1&#45;&gt;Node14</title>
<path fill="none" stroke="#191970" d="M466.0739,-228.3708C515.5992,-218.684 589.2044,-204.0186 662.3987,-188.1972"/>
<polygon fill="#191970" stroke="#191970" points="663.2221,-191.6 672.2528,-186.0595 661.7381,-184.7592 663.2221,-191.6"/>
</g>
<!-- Node15 -->
<g id="node15" class="node">
<title>Node15</title>
<g id="a_node15"><a xlink:href="thbase_8h.html" target="_top" xlink:title=" ">
<polygon fill="#ffffff" stroke="#000000" points="154,-168.5 154,-187.5 213,-187.5 213,-168.5 154,-168.5"/>
<text text-anchor="middle" x="183.5" y="-175.5" font-family="Helvetica,sans-Serif" font-size="10.00" fill="#000000">thbase.h</text>
</a>
</g>
</g>
<!-- Node1&#45;&gt;Node15 -->
<g id="edge30" class="edge">
<title>Node1&#45;&gt;Node15</title>
<path fill="none" stroke="#191970" d="M353.4588,-224.4554C313.0263,-213.4039 259.0584,-198.6526 222.884,-188.7649"/>
<polygon fill="#191970" stroke="#191970" points="223.7478,-185.3727 213.1788,-186.1122 221.9021,-192.125 223.7478,-185.3727"/>
</g>
<!-- Node16 -->
<g id="node16" class="node">
<title>Node16</title>
<g id="a_node16"><a xlink:href="thevent_8h.html" target="_top" xlink:title=" ">
<polygon fill="#ffffff" stroke="#000000" points="231,-168.5 231,-187.5 294,-187.5 294,-168.5 231,-168.5"/>
<text text-anchor="middle" x="262.5" y="-175.5" font-family="Helvetica,sans-Serif" font-size="10.00" fill="#000000">thevent.h</text>
</a>
</g>
</g>
<!-- Node1&#45;&gt;Node16 -->
<g id="edge33" class="edge">
<title>Node1&#45;&gt;Node16</title>
<path fill="none" stroke="#191970" d="M372.7844,-224.4554C348.8513,-214.374 317.6095,-201.2139 294.4906,-191.4755"/>
<polygon fill="#191970" stroke="#191970" points="295.6993,-188.1868 285.1248,-187.5303 292.9819,-194.6379 295.6993,-188.1868"/>
</g>
<!-- Node17 -->
<g id="node17" class="node">
<title>Node17</title>
<g id="a_node17"><a xlink:href="thsemap_8h.html" target="_top" xlink:title=" ">
<polygon fill="#ffffff" stroke="#000000" points="312.5,-168.5 312.5,-187.5 380.5,-187.5 380.5,-168.5 312.5,-168.5"/>
<text text-anchor="middle" x="346.5" y="-175.5" font-family="Helvetica,sans-Serif" font-size="10.00" fill="#000000">thsemap.h</text>
</a>
</g>
</g>
<!-- Node1&#45;&gt;Node17 -->
<g id="edge36" class="edge">
<title>Node1&#45;&gt;Node17</title>
<path fill="none" stroke="#191970" d="M393.1742,-224.2977C384.2093,-215.4052 372.8712,-204.1586 363.6149,-194.9769"/>
<polygon fill="#191970" stroke="#191970" points="365.9915,-192.4045 356.427,-187.8469 361.0618,-197.3742 365.9915,-192.4045"/>
</g>
<!-- Node3 -->
<g id="node3" class="node">
<title>Node3</title>
<g id="a_node3"><a xlink:href="types_8h.html" target="_top" xlink:title=" ">
<polygon fill="#ffffff" stroke="#000000" points="382,-56.5 382,-75.5 435,-75.5 435,-56.5 382,-56.5"/>
<text text-anchor="middle" x="408.5" y="-63.5" font-family="Helvetica,sans-Serif" font-size="10.00" fill="#000000">types.h</text>
</a>
</g>
</g>
<!-- Node2&#45;&gt;Node3 -->
<g id="edge2" class="edge">
<title>Node2&#45;&gt;Node3</title>
<path fill="none" stroke="#191970" d="M408.5,-112.2455C408.5,-104.9382 408.5,-94.6944 408.5,-85.7046"/>
<polygon fill="#191970" stroke="#191970" points="412.0001,-85.6426 408.5,-75.6427 405.0001,-85.6427 412.0001,-85.6426"/>
</g>
<!-- Node4 -->
<g id="node4" class="node">
<title>Node4</title>
<g id="a_node4"><a xlink:title=" ">
<polygon fill="#ffffff" stroke="#bfbfbf" points="380.5,-.5 380.5,-19.5 436.5,-19.5 436.5,-.5 380.5,-.5"/>
<text text-anchor="middle" x="408.5" y="-7.5" font-family="Helvetica,sans-Serif" font-size="10.00" fill="#000000">stddef.h</text>
</a>
</g>
</g>
<!-- Node3&#45;&gt;Node4 -->
<g id="edge3" class="edge">
<title>Node3&#45;&gt;Node4</title>
<path fill="none" stroke="#191970" d="M408.5,-56.2455C408.5,-48.9382 408.5,-38.6944 408.5,-29.7046"/>
<polygon fill="#191970" stroke="#191970" points="412.0001,-29.6426 408.5,-19.6427 405.0001,-29.6427 412.0001,-29.6426"/>
</g>
<!-- Node5 -->
<g id="node5" class="node">
<title>Node5</title>
<g id="a_node5"><a xlink:href="tamtypes_8h.html" target="_top" xlink:title=" ">
<polygon fill="#ffffff" stroke="#000000" points="603.5,-.5 603.5,-19.5 675.5,-19.5 675.5,-.5 603.5,-.5"/>
<text text-anchor="middle" x="639.5" y="-7.5" font-family="Helvetica,sans-Serif" font-size="10.00" fill="#000000">tamtypes.h</text>
</a>
</g>
</g>
<!-- Node3&#45;&gt;Node5 -->
<g id="edge4" class="edge">
<title>Node3&#45;&gt;Node5</title>
<path fill="none" stroke="#191970" d="M435.4507,-59.4665C474.1473,-50.0855 545.985,-32.6703 593.2661,-21.2082"/>
<polygon fill="#191970" stroke="#191970" points="594.3606,-24.5443 603.2545,-18.7868 592.7113,-17.7414 594.3606,-24.5443"/>
</g>
<!-- Node6&#45;&gt;Node2 -->
<g id="edge7" class="edge">
<title>Node6&#45;&gt;Node2</title>
<path fill="none" stroke="#191970" d="M458.0488,-168.2455C449.2731,-160.0549 436.5446,-148.1749 426.186,-138.5069"/>
<polygon fill="#191970" stroke="#191970" points="428.5301,-135.9072 418.8314,-131.6427 423.7539,-141.0246 428.5301,-135.9072"/>
</g>
<!-- Node6&#45;&gt;Node3 -->
<g id="edge6" class="edge">
<title>Node6&#45;&gt;Node3</title>
<path fill="none" stroke="#191970" d="M464.221,-168.4574C458.3298,-155.494 447.2276,-131.6778 436.5,-112 431.4278,-102.696 425.3583,-92.6134 420.1688,-84.2656"/>
<polygon fill="#191970" stroke="#191970" points="423.0734,-82.3096 414.7838,-75.7116 417.1495,-86.039 423.0734,-82.3096"/>
</g>
<!-- Node7&#45;&gt;Node2 -->
<g id="edge10" class="edge">
<title>Node7&#45;&gt;Node2</title>
<path fill="none" stroke="#191970" d="M527.7455,-168.3733C502.6464,-158.6125 463.8333,-143.5185 437.3544,-133.2212"/>
<polygon fill="#191970" stroke="#191970" points="438.453,-129.8931 427.8644,-129.5306 435.9159,-136.4171 438.453,-129.8931"/>
</g>
<!-- Node7&#45;&gt;Node3 -->
<g id="edge9" class="edge">
<title>Node7&#45;&gt;Node3</title>
<path fill="none" stroke="#191970" d="M540.2226,-168.4509C515.4613,-149.1921 459.3138,-105.5218 428.9345,-81.8935"/>
<polygon fill="#191970" stroke="#191970" points="430.7886,-78.9016 420.7463,-75.5249 426.491,-84.4271 430.7886,-78.9016"/>
</g>
<!-- Node8&#45;&gt;Node2 -->
<g id="edge13" class="edge">
<title>Node8&#45;&gt;Node2</title>
<path fill="none" stroke="#191970" d="M59.2901,-169.7894C62.0554,-169.1396 64.8234,-168.5306 67.5,-168 181.6891,-145.3628 319.6252,-130.5345 378.9885,-124.7437"/>
<polygon fill="#191970" stroke="#191970" points="379.5161,-128.2092 389.1351,-123.7678 378.8459,-121.2414 379.5161,-128.2092"/>
</g>
<!-- Node8&#45;&gt;Node3 -->
<g id="edge12" class="edge">
<title>Node8&#45;&gt;Node3</title>
<path fill="none" stroke="#191970" d="M55.3225,-168.4387C92.2915,-154.9283 162.5725,-129.9042 223.5,-112 274.5833,-96.9886 334.5215,-82.6783 372.0121,-74.116"/>
<polygon fill="#191970" stroke="#191970" points="372.9875,-77.4837 381.9651,-71.8576 371.4385,-70.6572 372.9875,-77.4837"/>
</g>
<!-- Node9&#45;&gt;Node2 -->
<g id="edge16" class="edge">
<title>Node9&#45;&gt;Node2</title>
<path fill="none" stroke="#191970" d="M136.3129,-169.899C139.0735,-169.2262 141.834,-168.5819 144.5,-168 229.0152,-149.5513 330.0307,-133.6351 378.9925,-126.305"/>
<polygon fill="#191970" stroke="#191970" points="379.8014,-129.7233 389.1786,-124.7918 378.7728,-122.7993 379.8014,-129.7233"/>
</g>
<!-- Node9&#45;&gt;Node3 -->
<g id="edge15" class="edge">
<title>Node9&#45;&gt;Node3</title>
<path fill="none" stroke="#191970" d="M131.074,-168.4304C164.5561,-155.4365 226.421,-131.5859 279.5,-112 310.6147,-100.5188 346.1197,-87.8928 371.9937,-78.7779"/>
<polygon fill="#191970" stroke="#191970" points="373.4832,-81.9642 381.7555,-75.3445 371.1607,-75.3607 373.4832,-81.9642"/>
</g>
<!-- Node10&#45;&gt;Node2 -->
<g id="edge19" class="edge">
<title>Node10&#45;&gt;Node2</title>
<path fill="none" stroke="#191970" d="M604.2846,-170.447C601.3287,-169.6021 598.3513,-168.7696 595.5,-168 539.9755,-153.0135 474.6365,-137.3975 437.7432,-128.7647"/>
<polygon fill="#191970" stroke="#191970" points="438.2195,-125.282 427.686,-126.4197 436.6299,-132.0991 438.2195,-125.282"/>
</g>
<!-- Node11 -->
<g id="node11" class="node">
<title>Node11</title>
<g id="a_node11"><a xlink:title=" ">
<polygon fill="#ffffff" stroke="#bfbfbf" points="666.5,-112.5 666.5,-131.5 722.5,-131.5 722.5,-112.5 666.5,-112.5"/>
<text text-anchor="middle" x="694.5" y="-119.5" font-family="Helvetica,sans-Serif" font-size="10.00" fill="#000000">stdarg.h</text>
</a>
</g>
</g>
<!-- Node10&#45;&gt;Node11 -->
<g id="edge18" class="edge">
<title>Node10&#45;&gt;Node11</title>
<path fill="none" stroke="#191970" d="M640.8221,-168.2455C650.4223,-159.9746 664.3892,-147.9416 675.6695,-138.2232"/>
<polygon fill="#191970" stroke="#191970" points="678.016,-140.8214 683.3076,-131.6427 673.447,-135.5182 678.016,-140.8214"/>
</g>
<!-- Node12&#45;&gt;Node2 -->
<g id="edge22" class="edge">
<title>Node12&#45;&gt;Node2</title>
<path fill="none" stroke="#191970" d="M758.7709,-169.9955C755.6518,-169.2702 752.5187,-168.5885 749.5,-168 635.2399,-145.7238 497.3409,-130.7069 437.9994,-124.8055"/>
<polygon fill="#191970" stroke="#191970" points="438.1508,-121.3036 427.8567,-123.8099 437.4669,-128.2701 438.1508,-121.3036"/>
</g>
<!-- Node12&#45;&gt;Node3 -->
<g id="edge21" class="edge">
<title>Node12&#45;&gt;Node3</title>
<path fill="none" stroke="#191970" d="M783.3115,-168.4436C774.6983,-153.6076 755.9481,-125.3545 731.5,-112 682.8177,-85.4078 519.5495,-72.5795 445.5342,-68.0201"/>
<polygon fill="#191970" stroke="#191970" points="445.477,-64.5105 435.2857,-67.4068 445.0588,-71.498 445.477,-64.5105"/>
</g>
<!-- Node12&#45;&gt;Node11 -->
<g id="edge23" class="edge">
<title>Node12&#45;&gt;Node11</title>
<path fill="none" stroke="#191970" d="M772.1264,-168.2455C757.5692,-159.5731 736.069,-146.7645 719.3848,-136.825"/>
<polygon fill="#191970" stroke="#191970" points="721.0683,-133.7539 710.6859,-131.6427 717.4856,-139.7676 721.0683,-133.7539"/>
</g>
<!-- Node13 -->
<g id="node13" class="node">
<title>Node13</title>
<g id="a_node13"><a xlink:href="setjmp_8h.html" target="_top" xlink:title=" ">
<polygon fill="#ffffff" stroke="#000000" points="684,-56.5 684,-75.5 743,-75.5 743,-56.5 684,-56.5"/>
<text text-anchor="middle" x="713.5" y="-63.5" font-family="Helvetica,sans-Serif" font-size="10.00" fill="#000000">setjmp.h</text>
</a>
</g>
</g>
<!-- Node12&#45;&gt;Node13 -->
<g id="edge24" class="edge">
<title>Node12&#45;&gt;Node13</title>
<path fill="none" stroke="#191970" d="M786.5506,-168.3653C783.492,-154.8766 776.6255,-129.9992 764.5,-112 756.7971,-100.5658 745.6486,-90.0765 735.7383,-82.0111"/>
<polygon fill="#191970" stroke="#191970" points="737.8489,-79.2187 727.8076,-75.8387 733.5495,-84.7427 737.8489,-79.2187"/>
</g>
<!-- Node13&#45;&gt;Node5 -->
<g id="edge25" class="edge">
<title>Node13&#45;&gt;Node5</title>
<path fill="none" stroke="#191970" d="M700.6102,-56.2455C689.5746,-47.8943 673.4708,-35.7076 660.5647,-25.9408"/>
<polygon fill="#191970" stroke="#191970" points="662.3283,-22.8862 652.2421,-19.6427 658.1041,-28.4681 662.3283,-22.8862"/>
</g>
<!-- Node14&#45;&gt;Node2 -->
<g id="edge28" class="edge">
<title>Node14&#45;&gt;Node2</title>
<path fill="none" stroke="#191970" d="M672.2664,-169.876C669.3055,-169.2227 666.3524,-168.5886 663.5,-168 581.9906,-151.1813 485.1123,-134.6472 437.6493,-126.7704"/>
<polygon fill="#191970" stroke="#191970" points="438.1933,-123.3129 427.7564,-125.1354 437.0518,-130.2192 438.1933,-123.3129"/>
</g>
<!-- Node14&#45;&gt;Node3 -->
<g id="edge27" class="edge">
<title>Node14&#45;&gt;Node3</title>
<path fill="none" stroke="#191970" d="M681.0927,-168.4509C627.7611,-148.4069 504.0733,-101.9202 443.3721,-79.1063"/>
<polygon fill="#191970" stroke="#191970" points="444.4351,-75.7668 433.843,-75.5249 441.9724,-82.3193 444.4351,-75.7668"/>
</g>
<!-- Node14&#45;&gt;Node11 -->
<g id="edge29" class="edge">
<title>Node14&#45;&gt;Node11</title>
<path fill="none" stroke="#191970" d="M704.4098,-168.2455C702.8439,-160.9382 700.6488,-150.6944 698.7224,-141.7046"/>
<polygon fill="#191970" stroke="#191970" points="702.084,-140.6873 696.5663,-131.6427 695.2393,-142.1541 702.084,-140.6873"/>
</g>
<!-- Node15&#45;&gt;Node2 -->
<g id="edge32" class="edge">
<title>Node15&#45;&gt;Node2</title>
<path fill="none" stroke="#191970" d="M213.359,-170.0938C216.1098,-169.3801 218.8556,-168.6731 221.5,-168 277.2341,-153.8126 342.5009,-137.9218 379.3245,-129.0227"/>
<polygon fill="#191970" stroke="#191970" points="380.4617,-132.3488 389.3613,-126.6001 378.8192,-125.5442 380.4617,-132.3488"/>
</g>
<!-- Node15&#45;&gt;Node3 -->
<g id="edge31" class="edge">
<title>Node15&#45;&gt;Node3</title>
<path fill="none" stroke="#191970" d="M202.6834,-168.4509C242.3693,-148.6961 333.6543,-103.2565 380.1565,-80.1088"/>
<polygon fill="#191970" stroke="#191970" points="381.9727,-83.1144 389.3652,-75.5249 378.8533,-76.8479 381.9727,-83.1144"/>
</g>
<!-- Node16&#45;&gt;Node2 -->
<g id="edge35" class="edge">
<title>Node16&#45;&gt;Node2</title>
<path fill="none" stroke="#191970" d="M287.5983,-168.3733C313.1906,-158.557 352.8459,-143.3468 379.7012,-133.0461"/>
<polygon fill="#191970" stroke="#191970" points="381.2277,-136.2093 389.3111,-129.3601 378.7209,-129.6736 381.2277,-136.2093"/>
</g>
<!-- Node16&#45;&gt;Node3 -->
<g id="edge34" class="edge">
<title>Node16&#45;&gt;Node3</title>
<path fill="none" stroke="#191970" d="M274.9479,-168.4509C300.0532,-149.1921 356.9805,-105.5218 387.7817,-81.8935"/>
<polygon fill="#191970" stroke="#191970" points="390.2796,-84.3885 396.0836,-75.5249 386.019,-78.8345 390.2796,-84.3885"/>
</g>
<!-- Node17&#45;&gt;Node2 -->
<g id="edge38" class="edge">
<title>Node17&#45;&gt;Node2</title>
<path fill="none" stroke="#191970" d="M357.2996,-168.2455C366.3678,-160.0549 379.5206,-148.1749 390.2245,-138.5069"/>
<polygon fill="#191970" stroke="#191970" points="392.7491,-140.9429 397.8242,-131.6427 388.0571,-135.7482 392.7491,-140.9429"/>
</g>
<!-- Node17&#45;&gt;Node3 -->
<g id="edge37" class="edge">
<title>Node17&#45;&gt;Node3</title>
<path fill="none" stroke="#191970" d="M351.1341,-168.4887C357.4928,-155.5608 369.401,-131.7847 380.5,-112 385.6846,-102.7581 391.767,-92.6827 396.9359,-84.3235"/>
<polygon fill="#191970" stroke="#191970" points="399.9609,-86.0871 402.287,-75.7508 394.0227,-82.3805 399.9609,-86.0871"/>
</g>
</g>
</svg>
        <g id="navigator" transform="translate(0 0)" fill="#404254">
                <rect fill="#f2f5e9" fill-opacity="0.5" stroke="#606060" stroke-width=".5" x="0" y="0" width="60" height="60"/>
                <use id="zoomplus" xlink:href="#zoomPlus" x="17" y="9" onmousedown="handleZoom(evt,'in')"/>
                <use id="zoomminus" xlink:href="#zoomMin" x="42" y="9" onmousedown="handleZoom(evt,'out')"/>
                <use id="reset" xlink:href="#resetDef" x="30" y="36" onmousedown="handleReset()"/>
                <g id="arrowUp" xlink:href="#dirArrow" transform="translate(30 24)" onmousedown="handlePan(0,-1)">
                  <use xlink:href="#rim" fill="#404040">
                        <set attributeName="fill" to="#808080" begin="arrowUp.mouseover" end="arrowUp.mouseout"/>
                  </use>
                  <path fill="none" stroke="white" stroke-width="1.5" d="M0,-3.0v7 M-2.5,-0.5L0,-3.0L2.5,-0.5"/>
                </g>
                <g id="arrowRight" xlink:href="#dirArrow" transform="rotate(90) translate(36 -43)" onmousedown="handlePan(1,0)">
                  <use xlink:href="#rim" fill="#404040">
                        <set attributeName="fill" to="#808080" begin="arrowRight.mouseover" end="arrowRight.mouseout"/>
                  </use>
                  <path fill="none" stroke="white" stroke-width="1.5" d="M0,-3.0v7 M-2.5,-0.5L0,-3.0L2.5,-0.5"/>
                </g>
                <g id="arrowDown" xlink:href="#dirArrow" transform="rotate(180) translate(-30 -48)" onmousedown="handlePan(0,1)">
                  <use xlink:href="#rim" fill="#404040">
                        <set attributeName="fill" to="#808080" begin="arrowDown.mouseover" end="arrowDown.mouseout"/>
                  </use>
                  <path fill="none" stroke="white" stroke-width="1.5" d="M0,-3.0v7 M-2.5,-0.5L0,-3.0L2.5,-0.5"/>
                </g>
                <g id="arrowLeft" xlink:href="#dirArrow" transform="rotate(270) translate(-36 17)" onmousedown="handlePan(-1,0)">
                  <use xlink:href="#rim" fill="#404040">
                        <set attributeName="fill" to="#808080" begin="arrowLeft.mouseover" end="arrowLeft.mouseout"/>
                  </use>
                  <path fill="none" stroke="white" stroke-width="1.5" d="M0,-3.0v7 M-2.5,-0.5L0,-3.0L2.5,-0.5"/>
                </g>
        </g>
        <svg viewBox="0 0 15 15" width="100%" height="30px" preserveAspectRatio="xMaxYMin meet">
         <g id="arrow_out" transform="scale(0.3 0.3)">
          <a xlink:href="network_2netman_2src_2irx__imports_8h__incl_org.svg" target="_base">
           <rect id="button" ry="5" rx="5" y="6" x="6" height="38" width="38"
                fill="#f2f5e9" fill-opacity="0.5" stroke="#606060" stroke-width="1.0"/>
           <path id="arrow"
             d="M 11.500037,31.436501 C 11.940474,20.09759 22.043105,11.32322 32.158766,21.979434 L 37.068811,17.246167 C 37.068811,17.246167 37.088388,32 37.088388,32 L 22.160133,31.978069 C 22.160133,31.978069 26.997745,27.140456 26.997745,27.140456 C 18.528582,18.264221 13.291696,25.230495 11.500037,31.436501 z"
             style="fill:#404040;"/>
          </a>
         </g>
        </svg>
</svg>
