<?xml version="1.0" encoding="UTF-8" standalone="no"?>
<!DOCTYPE svg PUBLIC "-//W3C//DTD SVG 1.1//EN"
 "http://www.w3.org/Graphics/SVG/1.1/DTD/svg11.dtd">
<!-- Generated by graphviz version 2.40.1 (20161225.0304)
 -->
<!-- Title: iop/network/smap/src/main.c Pages: 1 -->
<svg width="474pt" height="263pt"
 viewBox="0.00 0.00 473.50 263.00" xmlns="http://www.w3.org/2000/svg" xmlns:xlink="http://www.w3.org/1999/xlink">
<g id="graph0" class="graph" transform="scale(1 1) rotate(0) translate(4 259)">
<title>iop/network/smap/src/main.c</title>
<polygon fill="#ffffff" stroke="transparent" points="-4,4 -4,-259 469.5,-259 469.5,4 -4,4"/>
<!-- Node1 -->
<g id="node1" class="node">
<title>Node1</title>
<g id="a_node1"><a xlink:title=" ">
<polygon fill="#bfbfbf" stroke="#000000" points="189.5,-224.5 189.5,-254.5 311.5,-254.5 311.5,-224.5 189.5,-224.5"/>
<text text-anchor="start" x="197.5" y="-242.5" font-family="Helvetica,sans-Serif" font-size="10.00" fill="#000000">iop/network/smap/src</text>
<text text-anchor="middle" x="250.5" y="-231.5" font-family="Helvetica,sans-Serif" font-size="10.00" fill="#000000">/main.c</text>
</a>
</g>
</g>
<!-- Node2 -->
<g id="node2" class="node">
<title>Node2</title>
<g id="a_node2"><a xlink:href="errno_8h.html" target="_top" xlink:title=" ">
<polygon fill="#ffffff" stroke="#000000" points="0,-168.5 0,-187.5 51,-187.5 51,-168.5 0,-168.5"/>
<text text-anchor="middle" x="25.5" y="-175.5" font-family="Helvetica,sans-Serif" font-size="10.00" fill="#000000">errno.h</text>
</a>
</g>
</g>
<!-- Node1&#45;&gt;Node2 -->
<g id="edge1" class="edge">
<title>Node1&#45;&gt;Node2</title>
<path fill="none" stroke="#191970" d="M194.3275,-224.4892C158.7674,-214.9371 111.5735,-202.1695 60.9345,-188.0955"/>
<polygon fill="#191970" stroke="#191970" points="61.6752,-184.6687 51.1029,-185.3585 59.7979,-191.4122 61.6752,-184.6687"/>
</g>
<!-- Node3 -->
<g id="node3" class="node">
<title>Node3</title>
<g id="a_node3"><a xlink:href="stdio_8h.html" target="_top" xlink:title=" ">
<polygon fill="#ffffff" stroke="#000000" points="69.5,-168.5 69.5,-187.5 119.5,-187.5 119.5,-168.5 69.5,-168.5"/>
<text text-anchor="middle" x="94.5" y="-175.5" font-family="Helvetica,sans-Serif" font-size="10.00" fill="#000000">stdio.h</text>
</a>
</g>
</g>
<!-- Node1&#45;&gt;Node3 -->
<g id="edge2" class="edge">
<title>Node1&#45;&gt;Node3</title>
<path fill="none" stroke="#191970" d="M212.3381,-224.4554C186.5374,-214.284 152.7874,-200.9787 128.0222,-191.2155"/>
<polygon fill="#191970" stroke="#191970" points="129.2613,-187.9419 118.6745,-187.5303 126.694,-194.4541 129.2613,-187.9419"/>
</g>
<!-- Node5 -->
<g id="node5" class="node">
<title>Node5</title>
<g id="a_node5"><a xlink:href="irx_8h.html" target="_top" xlink:title=" ">
<polygon fill="#ffffff" stroke="#000000" points="187.5,-112.5 187.5,-131.5 225.5,-131.5 225.5,-112.5 187.5,-112.5"/>
<text text-anchor="middle" x="206.5" y="-119.5" font-family="Helvetica,sans-Serif" font-size="10.00" fill="#000000">irx.h</text>
</a>
</g>
</g>
<!-- Node1&#45;&gt;Node5 -->
<g id="edge14" class="edge">
<title>Node1&#45;&gt;Node5</title>
<path fill="none" stroke="#191970" d="M208.6687,-224.3747C192.4941,-216.2357 175.6924,-204.4184 166.5,-188 156.8904,-170.8364 171.4582,-151.6525 185.633,-138.4104"/>
<polygon fill="#191970" stroke="#191970" points="188.0743,-140.9254 193.3115,-131.7155 183.474,-135.6493 188.0743,-140.9254"/>
</g>
<!-- Node9 -->
<g id="node9" class="node">
<title>Node9</title>
<g id="a_node9"><a xlink:href="loadcore_8h.html" target="_top" xlink:title=" ">
<polygon fill="#ffffff" stroke="#000000" points="175.5,-168.5 175.5,-187.5 243.5,-187.5 243.5,-168.5 175.5,-168.5"/>
<text text-anchor="middle" x="209.5" y="-175.5" font-family="Helvetica,sans-Serif" font-size="10.00" fill="#000000">loadcore.h</text>
</a>
</g>
</g>
<!-- Node1&#45;&gt;Node9 -->
<g id="edge8" class="edge">
<title>Node1&#45;&gt;Node9</title>
<path fill="none" stroke="#191970" d="M240.3652,-224.2977C234.7332,-215.8498 227.6849,-205.2773 221.746,-196.369"/>
<polygon fill="#191970" stroke="#191970" points="224.5238,-194.226 216.0646,-187.8469 218.6995,-198.1089 224.5238,-194.226"/>
</g>
<!-- Node10 -->
<g id="node10" class="node">
<title>Node10</title>
<g id="a_node10"><a xlink:href="thbase_8h.html" target="_top" xlink:title=" ">
<polygon fill="#ffffff" stroke="#000000" points="262,-168.5 262,-187.5 321,-187.5 321,-168.5 262,-168.5"/>
<text text-anchor="middle" x="291.5" y="-175.5" font-family="Helvetica,sans-Serif" font-size="10.00" fill="#000000">thbase.h</text>
</a>
</g>
</g>
<!-- Node1&#45;&gt;Node10 -->
<g id="edge11" class="edge">
<title>Node1&#45;&gt;Node10</title>
<path fill="none" stroke="#191970" d="M260.6348,-224.2977C266.2668,-215.8498 273.3151,-205.2773 279.254,-196.369"/>
<polygon fill="#191970" stroke="#191970" points="282.3005,-198.1089 284.9354,-187.8469 276.4762,-194.226 282.3005,-198.1089"/>
</g>
<!-- Node11 -->
<g id="node11" class="node">
<title>Node11</title>
<g id="a_node11"><a xlink:href="netman_8h.html" target="_top" xlink:title=" ">
<polygon fill="#ffffff" stroke="#000000" points="316,-56.5 316,-75.5 379,-75.5 379,-56.5 316,-56.5"/>
<text text-anchor="middle" x="347.5" y="-63.5" font-family="Helvetica,sans-Serif" font-size="10.00" fill="#000000">netman.h</text>
</a>
</g>
</g>
<!-- Node1&#45;&gt;Node11 -->
<g id="edge15" class="edge">
<title>Node1&#45;&gt;Node11</title>
<path fill="none" stroke="#191970" d="M286.3463,-224.4873C302.0739,-216.0647 319.2548,-203.9914 329.5,-188 349.6215,-156.5928 350.6924,-111.4307 349.3232,-85.7811"/>
<polygon fill="#191970" stroke="#191970" points="352.8128,-85.5088 348.6088,-75.7837 345.8306,-86.0078 352.8128,-85.5088"/>
</g>
<!-- Node12 -->
<g id="node12" class="node">
<title>Node12</title>
<g id="a_node12"><a xlink:href="main_8h.html" target="_top" xlink:title=" ">
<polygon fill="#ffffff" stroke="#000000" points="415.5,-168.5 415.5,-187.5 465.5,-187.5 465.5,-168.5 415.5,-168.5"/>
<text text-anchor="middle" x="440.5" y="-175.5" font-family="Helvetica,sans-Serif" font-size="10.00" fill="#000000">main.h</text>
</a>
</g>
</g>
<!-- Node1&#45;&gt;Node12 -->
<g id="edge17" class="edge">
<title>Node1&#45;&gt;Node12</title>
<path fill="none" stroke="#191970" d="M296.9792,-224.4554C330.5386,-213.5928 375.1404,-199.1559 405.6629,-189.2762"/>
<polygon fill="#191970" stroke="#191970" points="407.0018,-192.5217 415.4379,-186.1122 404.846,-185.8619 407.0018,-192.5217"/>
</g>
<!-- Node13 -->
<g id="node13" class="node">
<title>Node13</title>
<g id="a_node13"><a xlink:href="xfer_8h.html" target="_top" xlink:title=" ">
<polygon fill="#ffffff" stroke="#000000" points="397.5,-112.5 397.5,-131.5 441.5,-131.5 441.5,-112.5 397.5,-112.5"/>
<text text-anchor="middle" x="419.5" y="-119.5" font-family="Helvetica,sans-Serif" font-size="10.00" fill="#000000">xfer.h</text>
</a>
</g>
</g>
<!-- Node1&#45;&gt;Node13 -->
<g id="edge19" class="edge">
<title>Node1&#45;&gt;Node13</title>
<path fill="none" stroke="#191970" d="M295.0919,-224.4418C316.9624,-215.7921 342.9497,-203.5385 363.5,-188 381.1987,-174.6177 397.1108,-154.716 407.4092,-140.2675"/>
<polygon fill="#191970" stroke="#191970" points="410.533,-141.9029 413.3285,-131.6835 404.7702,-137.929 410.533,-141.9029"/>
</g>
<!-- Node4 -->
<g id="node4" class="node">
<title>Node4</title>
<g id="a_node4"><a xlink:title=" ">
<polygon fill="#ffffff" stroke="#bfbfbf" points="66.5,-112.5 66.5,-131.5 122.5,-131.5 122.5,-112.5 66.5,-112.5"/>
<text text-anchor="middle" x="94.5" y="-119.5" font-family="Helvetica,sans-Serif" font-size="10.00" fill="#000000">stdarg.h</text>
</a>
</g>
</g>
<!-- Node3&#45;&gt;Node4 -->
<g id="edge3" class="edge">
<title>Node3&#45;&gt;Node4</title>
<path fill="none" stroke="#191970" d="M94.5,-168.2455C94.5,-160.9382 94.5,-150.6944 94.5,-141.7046"/>
<polygon fill="#191970" stroke="#191970" points="98.0001,-141.6426 94.5,-131.6427 91.0001,-141.6427 98.0001,-141.6426"/>
</g>
<!-- Node3&#45;&gt;Node5 -->
<g id="edge4" class="edge">
<title>Node3&#45;&gt;Node5</title>
<path fill="none" stroke="#191970" d="M113.7535,-168.3733C131.5712,-159.4644 158.2747,-146.1127 178.4594,-136.0203"/>
<polygon fill="#191970" stroke="#191970" points="180.1187,-139.1038 187.4978,-131.5011 176.9882,-132.8428 180.1187,-139.1038"/>
</g>
<!-- Node6 -->
<g id="node6" class="node">
<title>Node6</title>
<g id="a_node6"><a xlink:href="types_8h.html" target="_top" xlink:title=" ">
<polygon fill="#ffffff" stroke="#000000" points="230,-56.5 230,-75.5 283,-75.5 283,-56.5 230,-56.5"/>
<text text-anchor="middle" x="256.5" y="-63.5" font-family="Helvetica,sans-Serif" font-size="10.00" fill="#000000">types.h</text>
</a>
</g>
</g>
<!-- Node5&#45;&gt;Node6 -->
<g id="edge5" class="edge">
<title>Node5&#45;&gt;Node6</title>
<path fill="none" stroke="#191970" d="M215.2093,-112.2455C222.3073,-104.2958 232.5084,-92.8706 240.995,-83.3656"/>
<polygon fill="#191970" stroke="#191970" points="243.8411,-85.4331 247.8905,-75.6427 238.6195,-80.771 243.8411,-85.4331"/>
</g>
<!-- Node7 -->
<g id="node7" class="node">
<title>Node7</title>
<g id="a_node7"><a xlink:title=" ">
<polygon fill="#ffffff" stroke="#bfbfbf" points="228.5,-.5 228.5,-19.5 284.5,-19.5 284.5,-.5 228.5,-.5"/>
<text text-anchor="middle" x="256.5" y="-7.5" font-family="Helvetica,sans-Serif" font-size="10.00" fill="#000000">stddef.h</text>
</a>
</g>
</g>
<!-- Node6&#45;&gt;Node7 -->
<g id="edge6" class="edge">
<title>Node6&#45;&gt;Node7</title>
<path fill="none" stroke="#191970" d="M256.5,-56.2455C256.5,-48.9382 256.5,-38.6944 256.5,-29.7046"/>
<polygon fill="#191970" stroke="#191970" points="260.0001,-29.6426 256.5,-19.6427 253.0001,-29.6427 260.0001,-29.6426"/>
</g>
<!-- Node8 -->
<g id="node8" class="node">
<title>Node8</title>
<g id="a_node8"><a xlink:href="tamtypes_8h.html" target="_top" xlink:title=" ">
<polygon fill="#ffffff" stroke="#000000" points="309.5,-.5 309.5,-19.5 381.5,-19.5 381.5,-.5 309.5,-.5"/>
<text text-anchor="middle" x="345.5" y="-7.5" font-family="Helvetica,sans-Serif" font-size="10.00" fill="#000000">tamtypes.h</text>
</a>
</g>
</g>
<!-- Node6&#45;&gt;Node8 -->
<g id="edge7" class="edge">
<title>Node6&#45;&gt;Node8</title>
<path fill="none" stroke="#191970" d="M272.0026,-56.2455C285.658,-47.6534 305.7657,-35.0014 321.4989,-25.1018"/>
<polygon fill="#191970" stroke="#191970" points="323.5751,-27.9307 330.175,-19.6427 319.8471,-22.006 323.5751,-27.9307"/>
</g>
<!-- Node9&#45;&gt;Node5 -->
<g id="edge10" class="edge">
<title>Node9&#45;&gt;Node5</title>
<path fill="none" stroke="#191970" d="M208.9774,-168.2455C208.586,-160.9382 208.0372,-150.6944 207.5556,-141.7046"/>
<polygon fill="#191970" stroke="#191970" points="211.0466,-141.4411 207.0166,-131.6427 204.0566,-141.8156 211.0466,-141.4411"/>
</g>
<!-- Node9&#45;&gt;Node6 -->
<g id="edge9" class="edge">
<title>Node9&#45;&gt;Node6</title>
<path fill="none" stroke="#191970" d="M215.3778,-168.3799C220.8031,-159.242 228.8508,-145.0054 234.5,-132 241.1166,-116.7676 246.9723,-98.858 250.9756,-85.5415"/>
<polygon fill="#191970" stroke="#191970" points="254.4364,-86.1756 253.8787,-75.5954 247.7168,-84.2142 254.4364,-86.1756"/>
</g>
<!-- Node10&#45;&gt;Node5 -->
<g id="edge13" class="edge">
<title>Node10&#45;&gt;Node5</title>
<path fill="none" stroke="#191970" d="M276.6941,-168.2455C263.7744,-159.7337 244.8069,-147.2375 229.8448,-137.3801"/>
<polygon fill="#191970" stroke="#191970" points="231.4124,-134.2216 221.1362,-131.6427 227.5613,-140.067 231.4124,-134.2216"/>
</g>
<!-- Node10&#45;&gt;Node6 -->
<g id="edge12" class="edge">
<title>Node10&#45;&gt;Node6</title>
<path fill="none" stroke="#191970" d="M288.5159,-168.4509C282.7817,-150.1013 270.1221,-109.5908 262.5529,-85.3693"/>
<polygon fill="#191970" stroke="#191970" points="265.8,-84.0257 259.4765,-75.5249 259.1187,-86.1137 265.8,-84.0257"/>
</g>
<!-- Node11&#45;&gt;Node8 -->
<g id="edge16" class="edge">
<title>Node11&#45;&gt;Node8</title>
<path fill="none" stroke="#191970" d="M347.1516,-56.2455C346.8907,-48.9382 346.5248,-38.6944 346.2037,-29.7046"/>
<polygon fill="#191970" stroke="#191970" points="349.6992,-29.5113 345.8444,-19.6427 342.7036,-29.7613 349.6992,-29.5113"/>
</g>
<!-- Node12&#45;&gt;Node13 -->
<g id="edge18" class="edge">
<title>Node12&#45;&gt;Node13</title>
<path fill="none" stroke="#191970" d="M436.8421,-168.2455C434.0416,-160.7776 430.091,-150.2427 426.6676,-141.1137"/>
<polygon fill="#191970" stroke="#191970" points="429.9045,-139.777 423.116,-131.6427 423.3501,-142.2349 429.9045,-139.777"/>
</g>
</g>
</svg>
