<?xml version="1.0" encoding="UTF-8" standalone="no"?>
<!DOCTYPE svg PUBLIC "-//W3C//DTD SVG 1.1//EN"
 "http://www.w3.org/Graphics/SVG/1.1/DTD/svg11.dtd">
<!-- Generated by graphviz version 2.40.1 (20161225.0304)
 -->
<!-- Title: iop/network/udptty/src/irx_imports.h Pages: 1 -->
<!--zoomable 263 -->
<svg id="main" version="1.1" xmlns="http://www.w3.org/2000/svg" xmlns:xlink="http://www.w3.org/1999/xlink" xml:space="preserve" onload="init(evt)">
<style type="text/css"><![CDATA[
.edge:hover path { stroke: red; }
.edge:hover polygon { stroke: red; fill: red; }
]]></style>
<script type="text/javascript"><![CDATA[
var edges = document.getElementsByTagName('g');
if (edges && edges.length) {
  for (var i=0;i<edges.length;i++) {
    if (edges[i].id.substr(0,4)=='edge') {
      edges[i].setAttribute('class','edge');
    }
  }
}
]]></script>
        <defs>
                <circle id="rim" cx="0" cy="0" r="7"/>
                <circle id="rim2" cx="0" cy="0" r="3.5"/>
                <g id="zoomPlus">
                        <use xlink:href="#rim" fill="#404040">
                                <set attributeName="fill" to="#808080" begin="zoomplus.mouseover" end="zoomplus.mouseout"/>
                        </use>
                        <path d="M-4,0h8M0,-4v8" fill="none" stroke="white" stroke-width="1.5" pointer-events="none"/>
                </g>
                <g id="zoomMin">
                        <use xlink:href="#rim" fill="#404040">
                                <set attributeName="fill" to="#808080" begin="zoomminus.mouseover" end="zoomminus.mouseout"/>
                        </use>
                        <path d="M-4,0h8" fill="none" stroke="white" stroke-width="1.5" pointer-events="none"/>
                </g>
                <g id="dirArrow">
                        <path fill="none" stroke="white" stroke-width="1.5" d="M0,-3.0v7 M-2.5,-0.5L0,-3.0L2.5,-0.5"/>
                </g>
               <g id="resetDef">
                       <use xlink:href="#rim2" fill="#404040">
                               <set attributeName="fill" to="#808080" begin="reset.mouseover" end="reset.mouseout"/>
                       </use>
               </g>
        </defs>

<script type="text/javascript">
var viewWidth = 961;
var viewHeight = 263;
var sectionId = 'dynsection-0';
</script>
<script xlink:href="svgpan.js"/>
<svg id="graph" class="graph">
<g id="viewport">
<title>iop/network/udptty/src/irx_imports.h</title>
<polygon fill="#ffffff" stroke="transparent" points="-4,4 -4,-259 956.5,-259 956.5,4 -4,4"/>
<!-- Node1 -->
<g id="node1" class="node">
<title>Node1</title>
<g id="a_node1"><a xlink:title=" ">
<polygon fill="#bfbfbf" stroke="#000000" points="415,-224.5 415,-254.5 524,-254.5 524,-224.5 415,-224.5"/>
<text text-anchor="start" x="423" y="-242.5" font-family="Helvetica,sans-Serif" font-size="10.00" fill="#000000">iop/network/udptty</text>
<text text-anchor="middle" x="469.5" y="-231.5" font-family="Helvetica,sans-Serif" font-size="10.00" fill="#000000">/src/irx_imports.h</text>
</a>
</g>
</g>
<!-- Node2 -->
<g id="node2" class="node">
<title>Node2</title>
<g id="a_node2"><a xlink:href="irx_8h.html" target="_top" xlink:title=" ">
<polygon fill="#ffffff" stroke="#000000" points="443.5,-112.5 443.5,-131.5 481.5,-131.5 481.5,-112.5 443.5,-112.5"/>
<text text-anchor="middle" x="462.5" y="-119.5" font-family="Helvetica,sans-Serif" font-size="10.00" fill="#000000">irx.h</text>
</a>
</g>
</g>
<!-- Node1&#45;&gt;Node2 -->
<g id="edge1" class="edge">
<title>Node1&#45;&gt;Node2</title>
<path fill="none" stroke="#191970" d="M468.5849,-224.1389C467.3237,-202.9692 465.0508,-164.8174 463.6683,-141.6112"/>
<polygon fill="#191970" stroke="#191970" points="467.1581,-141.3336 463.0695,-131.5595 460.1705,-141.75 467.1581,-141.3336"/>
</g>
<!-- Node6 -->
<g id="node6" class="node">
<title>Node6</title>
<g id="a_node6"><a xlink:href="ioman_8h.html" target="_top" xlink:title=" ">
<polygon fill="#ffffff" stroke="#000000" points="49.5,-168.5 49.5,-187.5 105.5,-187.5 105.5,-168.5 49.5,-168.5"/>
<text text-anchor="middle" x="77.5" y="-175.5" font-family="Helvetica,sans-Serif" font-size="10.00" fill="#000000">ioman.h</text>
</a>
</g>
</g>
<!-- Node1&#45;&gt;Node6 -->
<g id="edge5" class="edge">
<title>Node1&#45;&gt;Node6</title>
<path fill="none" stroke="#191970" d="M414.7148,-233.6186C346.7256,-225.8616 227.1192,-210.7176 115.757,-188.0664"/>
<polygon fill="#191970" stroke="#191970" points="116.1985,-184.5839 105.698,-185.9949 114.7865,-191.44 116.1985,-184.5839"/>
</g>
<!-- Node10 -->
<g id="node10" class="node">
<title>Node10</title>
<g id="a_node10"><a xlink:href="intrman_8h.html" target="_top" xlink:title=" ">
<polygon fill="#ffffff" stroke="#000000" points="291.5,-168.5 291.5,-187.5 355.5,-187.5 355.5,-168.5 291.5,-168.5"/>
<text text-anchor="middle" x="323.5" y="-175.5" font-family="Helvetica,sans-Serif" font-size="10.00" fill="#000000">intrman.h</text>
</a>
</g>
</g>
<!-- Node1&#45;&gt;Node10 -->
<g id="edge11" class="edge">
<title>Node1&#45;&gt;Node10</title>
<path fill="none" stroke="#191970" d="M433.7844,-224.4554C409.8513,-214.374 378.6095,-201.2139 355.4906,-191.4755"/>
<polygon fill="#191970" stroke="#191970" points="356.6993,-188.1868 346.1248,-187.5303 353.9819,-194.6379 356.6993,-188.1868"/>
</g>
<!-- Node11 -->
<g id="node11" class="node">
<title>Node11</title>
<g id="a_node11"><a xlink:href="loadcore_8h.html" target="_top" xlink:title=" ">
<polygon fill="#ffffff" stroke="#000000" points="373.5,-168.5 373.5,-187.5 441.5,-187.5 441.5,-168.5 373.5,-168.5"/>
<text text-anchor="middle" x="407.5" y="-175.5" font-family="Helvetica,sans-Serif" font-size="10.00" fill="#000000">loadcore.h</text>
</a>
</g>
</g>
<!-- Node1&#45;&gt;Node11 -->
<g id="edge14" class="edge">
<title>Node1&#45;&gt;Node11</title>
<path fill="none" stroke="#191970" d="M454.1742,-224.2977C445.2093,-215.4052 433.8712,-204.1586 424.6149,-194.9769"/>
<polygon fill="#191970" stroke="#191970" points="426.9915,-192.4045 417.427,-187.8469 422.0618,-197.3742 426.9915,-192.4045"/>
</g>
<!-- Node12 -->
<g id="node12" class="node">
<title>Node12</title>
<g id="a_node12"><a xlink:href="ps2ip_8h.html" target="_top" xlink:title=" ">
<polygon fill="#ffffff" stroke="#000000" points="807.5,-168.5 807.5,-187.5 859.5,-187.5 859.5,-168.5 807.5,-168.5"/>
<text text-anchor="middle" x="833.5" y="-175.5" font-family="Helvetica,sans-Serif" font-size="10.00" fill="#000000">ps2ip.h</text>
</a>
</g>
</g>
<!-- Node1&#45;&gt;Node12 -->
<g id="edge17" class="edge">
<title>Node1&#45;&gt;Node12</title>
<path fill="none" stroke="#191970" d="M524.0238,-233.0535C587.5484,-225.0783 695.771,-210.0545 797.4022,-188.0376"/>
<polygon fill="#191970" stroke="#191970" points="798.1973,-191.4465 807.2152,-185.8851 796.6975,-184.6091 798.1973,-191.4465"/>
</g>
<!-- Node16 -->
<g id="node16" class="node">
<title>Node16</title>
<g id="a_node16"><a xlink:href="stdio_8h.html" target="_top" xlink:title=" ">
<polygon fill="#ffffff" stroke="#000000" points="575.5,-168.5 575.5,-187.5 625.5,-187.5 625.5,-168.5 575.5,-168.5"/>
<text text-anchor="middle" x="600.5" y="-175.5" font-family="Helvetica,sans-Serif" font-size="10.00" fill="#000000">stdio.h</text>
</a>
</g>
</g>
<!-- Node1&#45;&gt;Node16 -->
<g id="edge23" class="edge">
<title>Node1&#45;&gt;Node16</title>
<path fill="none" stroke="#191970" d="M501.5462,-224.4554C522.7328,-214.509 550.3028,-201.5659 570.9588,-191.8686"/>
<polygon fill="#191970" stroke="#191970" points="572.6349,-194.9483 580.1996,-187.5303 569.6601,-188.6118 572.6349,-194.9483"/>
</g>
<!-- Node18 -->
<g id="node18" class="node">
<title>Node18</title>
<g id="a_node18"><a xlink:href="sysclib_8h.html" target="_top" xlink:title=" ">
<polygon fill="#ffffff" stroke="#000000" points="730,-168.5 730,-187.5 789,-187.5 789,-168.5 730,-168.5"/>
<text text-anchor="middle" x="759.5" y="-175.5" font-family="Helvetica,sans-Serif" font-size="10.00" fill="#000000">sysclib.h</text>
</a>
</g>
</g>
<!-- Node1&#45;&gt;Node18 -->
<g id="edge26" class="edge">
<title>Node1&#45;&gt;Node18</title>
<path fill="none" stroke="#191970" d="M524.0139,-229.1087C572.7792,-219.6335 646.4328,-204.8819 719.8419,-188.0699"/>
<polygon fill="#191970" stroke="#191970" points="720.7667,-191.4486 729.7259,-185.7932 719.1954,-184.6272 720.7667,-191.4486"/>
</g>
<!-- Node20 -->
<g id="node20" class="node">
<title>Node20</title>
<g id="a_node20"><a xlink:href="sysmem_8h.html" target="_top" xlink:title=" ">
<polygon fill="#ffffff" stroke="#000000" points="643.5,-168.5 643.5,-187.5 711.5,-187.5 711.5,-168.5 643.5,-168.5"/>
<text text-anchor="middle" x="677.5" y="-175.5" font-family="Helvetica,sans-Serif" font-size="10.00" fill="#000000">sysmem.h</text>
</a>
</g>
</g>
<!-- Node1&#45;&gt;Node20 -->
<g id="edge32" class="edge">
<title>Node1&#45;&gt;Node20</title>
<path fill="none" stroke="#191970" d="M520.3825,-224.4554C555.6967,-214.0139 602.1803,-200.27 635.408,-190.4455"/>
<polygon fill="#191970" stroke="#191970" points="636.6702,-193.7221 645.2674,-187.5303 634.6854,-187.0094 636.6702,-193.7221"/>
</g>
<!-- Node21 -->
<g id="node21" class="node">
<title>Node21</title>
<g id="a_node21"><a xlink:href="thbase_8h.html" target="_top" xlink:title=" ">
<polygon fill="#ffffff" stroke="#000000" points="498,-168.5 498,-187.5 557,-187.5 557,-168.5 498,-168.5"/>
<text text-anchor="middle" x="527.5" y="-175.5" font-family="Helvetica,sans-Serif" font-size="10.00" fill="#000000">thbase.h</text>
</a>
</g>
</g>
<!-- Node1&#45;&gt;Node21 -->
<g id="edge36" class="edge">
<title>Node1&#45;&gt;Node21</title>
<path fill="none" stroke="#191970" d="M483.8371,-224.2977C492.1397,-215.4941 502.6182,-204.3833 511.2289,-195.2529"/>
<polygon fill="#191970" stroke="#191970" points="513.8987,-197.5234 518.2135,-187.8469 508.8061,-192.7206 513.8987,-197.5234"/>
</g>
<!-- Node22 -->
<g id="node22" class="node">
<title>Node22</title>
<g id="a_node22"><a xlink:href="thevent_8h.html" target="_top" xlink:title=" ">
<polygon fill="#ffffff" stroke="#000000" points="124,-168.5 124,-187.5 187,-187.5 187,-168.5 124,-168.5"/>
<text text-anchor="middle" x="155.5" y="-175.5" font-family="Helvetica,sans-Serif" font-size="10.00" fill="#000000">thevent.h</text>
</a>
</g>
</g>
<!-- Node1&#45;&gt;Node22 -->
<g id="edge39" class="edge">
<title>Node1&#45;&gt;Node22</title>
<path fill="none" stroke="#191970" d="M414.9429,-230.0823C361.8702,-220.7237 278.7379,-205.5452 197.1819,-188.0615"/>
<polygon fill="#191970" stroke="#191970" points="197.7592,-184.6056 187.2459,-185.9181 196.283,-191.4482 197.7592,-184.6056"/>
</g>
<!-- Node23 -->
<g id="node23" class="node">
<title>Node23</title>
<g id="a_node23"><a xlink:href="thsemap_8h.html" target="_top" xlink:title=" ">
<polygon fill="#ffffff" stroke="#000000" points="205.5,-168.5 205.5,-187.5 273.5,-187.5 273.5,-168.5 205.5,-168.5"/>
<text text-anchor="middle" x="239.5" y="-175.5" font-family="Helvetica,sans-Serif" font-size="10.00" fill="#000000">thsemap.h</text>
</a>
</g>
</g>
<!-- Node1&#45;&gt;Node23 -->
<g id="edge42" class="edge">
<title>Node1&#45;&gt;Node23</title>
<path fill="none" stroke="#191970" d="M414.9932,-224.9254C374.9232,-214.211 321.1555,-199.834 283.7376,-189.8287"/>
<polygon fill="#191970" stroke="#191970" points="284.2071,-186.3314 273.6424,-187.1294 282.3988,-193.0938 284.2071,-186.3314"/>
</g>
<!-- Node3 -->
<g id="node3" class="node">
<title>Node3</title>
<g id="a_node3"><a xlink:href="types_8h.html" target="_top" xlink:title=" ">
<polygon fill="#ffffff" stroke="#000000" points="412,-56.5 412,-75.5 465,-75.5 465,-56.5 412,-56.5"/>
<text text-anchor="middle" x="438.5" y="-63.5" font-family="Helvetica,sans-Serif" font-size="10.00" fill="#000000">types.h</text>
</a>
</g>
</g>
<!-- Node2&#45;&gt;Node3 -->
<g id="edge2" class="edge">
<title>Node2&#45;&gt;Node3</title>
<path fill="none" stroke="#191970" d="M458.3195,-112.2455C455.119,-104.7776 450.604,-94.2427 446.6916,-85.1137"/>
<polygon fill="#191970" stroke="#191970" points="449.7888,-83.4554 442.6326,-75.6427 443.3548,-86.2129 449.7888,-83.4554"/>
</g>
<!-- Node4 -->
<g id="node4" class="node">
<title>Node4</title>
<g id="a_node4"><a xlink:title=" ">
<polygon fill="#ffffff" stroke="#bfbfbf" points="410.5,-.5 410.5,-19.5 466.5,-19.5 466.5,-.5 410.5,-.5"/>
<text text-anchor="middle" x="438.5" y="-7.5" font-family="Helvetica,sans-Serif" font-size="10.00" fill="#000000">stddef.h</text>
</a>
</g>
</g>
<!-- Node3&#45;&gt;Node4 -->
<g id="edge3" class="edge">
<title>Node3&#45;&gt;Node4</title>
<path fill="none" stroke="#191970" d="M438.5,-56.2455C438.5,-48.9382 438.5,-38.6944 438.5,-29.7046"/>
<polygon fill="#191970" stroke="#191970" points="442.0001,-29.6426 438.5,-19.6427 435.0001,-29.6427 442.0001,-29.6426"/>
</g>
<!-- Node5 -->
<g id="node5" class="node">
<title>Node5</title>
<g id="a_node5"><a xlink:href="tamtypes_8h.html" target="_top" xlink:title=" ">
<polygon fill="#ffffff" stroke="#000000" points="675.5,-.5 675.5,-19.5 747.5,-19.5 747.5,-.5 675.5,-.5"/>
<text text-anchor="middle" x="711.5" y="-7.5" font-family="Helvetica,sans-Serif" font-size="10.00" fill="#000000">tamtypes.h</text>
</a>
</g>
</g>
<!-- Node3&#45;&gt;Node5 -->
<g id="edge4" class="edge">
<title>Node3&#45;&gt;Node5</title>
<path fill="none" stroke="#191970" d="M465.1735,-60.5285C511.6241,-51.0002 607.8861,-31.2541 665.3557,-19.4655"/>
<polygon fill="#191970" stroke="#191970" points="666.1759,-22.8702 675.2686,-17.4321 664.7693,-16.013 666.1759,-22.8702"/>
</g>
<!-- Node6&#45;&gt;Node2 -->
<g id="edge7" class="edge">
<title>Node6&#45;&gt;Node2</title>
<path fill="none" stroke="#191970" d="M105.6904,-169.9678C108.6523,-169.2478 111.6292,-168.575 114.5,-168 231.5081,-144.5622 373.1201,-130.0664 433.2404,-124.5458"/>
<polygon fill="#191970" stroke="#191970" points="433.8492,-128.0052 443.4936,-123.6193 433.2191,-121.0336 433.8492,-128.0052"/>
</g>
<!-- Node6&#45;&gt;Node3 -->
<g id="edge6" class="edge">
<title>Node6&#45;&gt;Node3</title>
<path fill="none" stroke="#191970" d="M104.9163,-168.4104C143.0136,-155.1881 214.1994,-130.8553 275.5,-112 318.7984,-98.6819 369.0162,-84.7338 402.1437,-75.7374"/>
<polygon fill="#191970" stroke="#191970" points="403.111,-79.1016 411.8493,-73.1105 401.2822,-72.3447 403.111,-79.1016"/>
</g>
<!-- Node7 -->
<g id="node7" class="node">
<title>Node7</title>
<g id="a_node7"><a xlink:href="io__common_8h.html" target="_top" xlink:title=" ">
<polygon fill="#ffffff" stroke="#000000" points="36,-112.5 36,-131.5 119,-131.5 119,-112.5 36,-112.5"/>
<text text-anchor="middle" x="77.5" y="-119.5" font-family="Helvetica,sans-Serif" font-size="10.00" fill="#000000">io_common.h</text>
</a>
</g>
</g>
<!-- Node6&#45;&gt;Node7 -->
<g id="edge8" class="edge">
<title>Node6&#45;&gt;Node7</title>
<path fill="none" stroke="#191970" d="M77.5,-168.2455C77.5,-160.9382 77.5,-150.6944 77.5,-141.7046"/>
<polygon fill="#191970" stroke="#191970" points="81.0001,-141.6426 77.5,-131.6427 74.0001,-141.6427 81.0001,-141.6426"/>
</g>
<!-- Node8 -->
<g id="node8" class="node">
<title>Node8</title>
<g id="a_node8"><a xlink:href="fcntl_8h.html" target="_top" xlink:title=" ">
<polygon fill="#ffffff" stroke="#000000" points="0,-56.5 0,-75.5 67,-75.5 67,-56.5 0,-56.5"/>
<text text-anchor="middle" x="33.5" y="-63.5" font-family="Helvetica,sans-Serif" font-size="10.00" fill="#000000">sys/fcntl.h</text>
</a>
</g>
</g>
<!-- Node7&#45;&gt;Node8 -->
<g id="edge9" class="edge">
<title>Node7&#45;&gt;Node8</title>
<path fill="none" stroke="#191970" d="M69.8358,-112.2455C63.6527,-104.3761 54.7937,-93.101 47.3711,-83.6542"/>
<polygon fill="#191970" stroke="#191970" points="50.0068,-81.3435 41.0764,-75.6427 44.5025,-85.6683 50.0068,-81.3435"/>
</g>
<!-- Node9 -->
<g id="node9" class="node">
<title>Node9</title>
<g id="a_node9"><a xlink:href="unistd_8h.html" target="_top" xlink:title=" ">
<polygon fill="#ffffff" stroke="#000000" points="85,-56.5 85,-75.5 160,-75.5 160,-56.5 85,-56.5"/>
<text text-anchor="middle" x="122.5" y="-63.5" font-family="Helvetica,sans-Serif" font-size="10.00" fill="#000000">sys/unistd.h</text>
</a>
</g>
</g>
<!-- Node7&#45;&gt;Node9 -->
<g id="edge10" class="edge">
<title>Node7&#45;&gt;Node9</title>
<path fill="none" stroke="#191970" d="M85.3384,-112.2455C91.662,-104.3761 100.7224,-93.101 108.3136,-83.6542"/>
<polygon fill="#191970" stroke="#191970" points="111.2158,-85.6302 114.7514,-75.6427 105.7592,-81.2454 111.2158,-85.6302"/>
</g>
<!-- Node10&#45;&gt;Node2 -->
<g id="edge13" class="edge">
<title>Node10&#45;&gt;Node2</title>
<path fill="none" stroke="#191970" d="M347.395,-168.3733C371.3787,-158.7107 408.3354,-143.8217 433.8723,-133.5335"/>
<polygon fill="#191970" stroke="#191970" points="435.4136,-136.686 443.3812,-129.7026 432.7977,-130.1931 435.4136,-136.686"/>
</g>
<!-- Node10&#45;&gt;Node3 -->
<g id="edge12" class="edge">
<title>Node10&#45;&gt;Node3</title>
<path fill="none" stroke="#191970" d="M333.3048,-168.4509C352.9098,-149.3574 397.1516,-106.2697 421.5515,-82.5063"/>
<polygon fill="#191970" stroke="#191970" points="423.998,-85.0093 428.72,-75.5249 419.1141,-79.9946 423.998,-85.0093"/>
</g>
<!-- Node11&#45;&gt;Node2 -->
<g id="edge16" class="edge">
<title>Node11&#45;&gt;Node2</title>
<path fill="none" stroke="#191970" d="M417.0803,-168.2455C425.0458,-160.1352 436.5641,-148.4075 446.0079,-138.7919"/>
<polygon fill="#191970" stroke="#191970" points="448.5195,-141.2297 453.0295,-131.6427 443.5253,-136.3247 448.5195,-141.2297"/>
</g>
<!-- Node11&#45;&gt;Node3 -->
<g id="edge15" class="edge">
<title>Node11&#45;&gt;Node3</title>
<path fill="none" stroke="#191970" d="M410.143,-168.4509C415.222,-150.1013 426.4347,-109.5908 433.1388,-85.3693"/>
<polygon fill="#191970" stroke="#191970" points="436.5692,-86.0962 435.8636,-75.5249 429.8228,-84.2289 436.5692,-86.0962"/>
</g>
<!-- Node12&#45;&gt;Node2 -->
<g id="edge19" class="edge">
<title>Node12&#45;&gt;Node2</title>
<path fill="none" stroke="#191970" d="M807.227,-170.0597C804.2974,-169.3039 801.3448,-168.598 798.5,-168 686.2185,-144.3989 550.183,-130.0742 491.6187,-124.5789"/>
<polygon fill="#191970" stroke="#191970" points="491.8875,-121.0889 481.6082,-123.6553 491.2444,-128.0593 491.8875,-121.0889"/>
</g>
<!-- Node13 -->
<g id="node13" class="node">
<title>Node13</title>
<g id="a_node13"><a xlink:title=" ">
<polygon fill="#ffffff" stroke="#bfbfbf" points="813,-112.5 813,-131.5 866,-131.5 866,-112.5 813,-112.5"/>
<text text-anchor="middle" x="839.5" y="-119.5" font-family="Helvetica,sans-Serif" font-size="10.00" fill="#000000">types.h</text>
</a>
</g>
</g>
<!-- Node12&#45;&gt;Node13 -->
<g id="edge18" class="edge">
<title>Node12&#45;&gt;Node13</title>
<path fill="none" stroke="#191970" d="M834.5451,-168.2455C835.328,-160.9382 836.4256,-150.6944 837.3888,-141.7046"/>
<polygon fill="#191970" stroke="#191970" points="840.8815,-141.9587 838.4669,-131.6427 833.9214,-141.2129 840.8815,-141.9587"/>
</g>
<!-- Node14 -->
<g id="node14" class="node">
<title>Node14</title>
<g id="a_node14"><a xlink:href="tcpip_8h.html" target="_top" xlink:title=" ">
<polygon fill="#ffffff" stroke="#000000" points="759.5,-56.5 759.5,-75.5 809.5,-75.5 809.5,-56.5 759.5,-56.5"/>
<text text-anchor="middle" x="784.5" y="-63.5" font-family="Helvetica,sans-Serif" font-size="10.00" fill="#000000">tcpip.h</text>
</a>
</g>
</g>
<!-- Node12&#45;&gt;Node14 -->
<g id="edge20" class="edge">
<title>Node12&#45;&gt;Node14</title>
<path fill="none" stroke="#191970" d="M826.2334,-168.2099C819.8069,-159.185 810.5391,-145.225 804.5,-132 797.6616,-117.0248 792.3994,-99.0961 788.993,-85.7068"/>
<polygon fill="#191970" stroke="#191970" points="792.3242,-84.5907 786.5743,-75.6919 785.5198,-86.2341 792.3242,-84.5907"/>
</g>
<!-- Node15 -->
<g id="node15" class="node">
<title>Node15</title>
<g id="a_node15"><a xlink:href="time_8h.html" target="_top" xlink:title=" ">
<polygon fill="#ffffff" stroke="#000000" points="884.5,-112.5 884.5,-131.5 952.5,-131.5 952.5,-112.5 884.5,-112.5"/>
<text text-anchor="middle" x="918.5" y="-119.5" font-family="Helvetica,sans-Serif" font-size="10.00" fill="#000000">sys/time.h</text>
</a>
</g>
</g>
<!-- Node12&#45;&gt;Node15 -->
<g id="edge22" class="edge">
<title>Node12&#45;&gt;Node15</title>
<path fill="none" stroke="#191970" d="M848.3059,-168.2455C861.2256,-159.7337 880.1931,-147.2375 895.1552,-137.3801"/>
<polygon fill="#191970" stroke="#191970" points="897.4387,-140.067 903.8638,-131.6427 893.5876,-134.2216 897.4387,-140.067"/>
</g>
<!-- Node14&#45;&gt;Node5 -->
<g id="edge21" class="edge">
<title>Node14&#45;&gt;Node5</title>
<path fill="none" stroke="#191970" d="M771.7844,-56.2455C760.898,-47.8943 745.0117,-35.7076 732.28,-25.9408"/>
<polygon fill="#191970" stroke="#191970" points="734.1346,-22.9523 724.0699,-19.6427 729.8739,-28.5063 734.1346,-22.9523"/>
</g>
<!-- Node16&#45;&gt;Node2 -->
<g id="edge25" class="edge">
<title>Node16&#45;&gt;Node2</title>
<path fill="none" stroke="#191970" d="M576.777,-168.3733C553.1018,-158.7659 516.6938,-143.9917 491.3575,-133.7103"/>
<polygon fill="#191970" stroke="#191970" points="492.4909,-130.3931 481.9087,-129.876 489.8588,-136.8794 492.4909,-130.3931"/>
</g>
<!-- Node17 -->
<g id="node17" class="node">
<title>Node17</title>
<g id="a_node17"><a xlink:title=" ">
<polygon fill="#ffffff" stroke="#bfbfbf" points="586.5,-112.5 586.5,-131.5 642.5,-131.5 642.5,-112.5 586.5,-112.5"/>
<text text-anchor="middle" x="614.5" y="-119.5" font-family="Helvetica,sans-Serif" font-size="10.00" fill="#000000">stdarg.h</text>
</a>
</g>
</g>
<!-- Node16&#45;&gt;Node17 -->
<g id="edge24" class="edge">
<title>Node16&#45;&gt;Node17</title>
<path fill="none" stroke="#191970" d="M602.9386,-168.2455C604.7855,-160.8579 607.3828,-150.4689 609.6478,-141.4087"/>
<polygon fill="#191970" stroke="#191970" points="613.0594,-142.193 612.0893,-131.6427 606.2684,-140.4952 613.0594,-142.193"/>
</g>
<!-- Node18&#45;&gt;Node2 -->
<g id="edge28" class="edge">
<title>Node18&#45;&gt;Node2</title>
<path fill="none" stroke="#191970" d="M729.7438,-170.1267C726.6301,-169.3758 723.5056,-168.6523 720.5,-168 638.0335,-150.1018 539.6362,-133.9926 491.6788,-126.475"/>
<polygon fill="#191970" stroke="#191970" points="492.1115,-123.0002 481.692,-124.9197 491.0343,-129.9169 492.1115,-123.0002"/>
</g>
<!-- Node18&#45;&gt;Node3 -->
<g id="edge27" class="edge">
<title>Node18&#45;&gt;Node3</title>
<path fill="none" stroke="#191970" d="M750.0341,-168.4235C735.0115,-153.8223 704.157,-126.1961 672.5,-112 606.998,-82.6267 522.8825,-71.9407 475.4144,-68.1027"/>
<polygon fill="#191970" stroke="#191970" points="475.5307,-64.6017 465.297,-67.3443 475.0074,-71.5821 475.5307,-64.6017"/>
</g>
<!-- Node18&#45;&gt;Node17 -->
<g id="edge29" class="edge">
<title>Node18&#45;&gt;Node17</title>
<path fill="none" stroke="#191970" d="M734.5736,-168.3733C710.8798,-159.2226 675.0489,-145.3844 648.6932,-135.2057"/>
<polygon fill="#191970" stroke="#191970" points="649.6906,-131.8389 639.1011,-131.5011 647.1686,-138.3689 649.6906,-131.8389"/>
</g>
<!-- Node19 -->
<g id="node19" class="node">
<title>Node19</title>
<g id="a_node19"><a xlink:href="setjmp_8h.html" target="_top" xlink:title=" ">
<polygon fill="#ffffff" stroke="#000000" points="682,-56.5 682,-75.5 741,-75.5 741,-56.5 682,-56.5"/>
<text text-anchor="middle" x="711.5" y="-63.5" font-family="Helvetica,sans-Serif" font-size="10.00" fill="#000000">setjmp.h</text>
</a>
</g>
</g>
<!-- Node18&#45;&gt;Node19 -->
<g id="edge30" class="edge">
<title>Node18&#45;&gt;Node19</title>
<path fill="none" stroke="#191970" d="M755.4075,-168.4509C747.4726,-149.936 729.8682,-108.8591 719.5223,-84.7187"/>
<polygon fill="#191970" stroke="#191970" points="722.7384,-83.3376 715.5821,-75.5249 716.3043,-86.0951 722.7384,-83.3376"/>
</g>
<!-- Node19&#45;&gt;Node5 -->
<g id="edge31" class="edge">
<title>Node19&#45;&gt;Node5</title>
<path fill="none" stroke="#191970" d="M711.5,-56.2455C711.5,-48.9382 711.5,-38.6944 711.5,-29.7046"/>
<polygon fill="#191970" stroke="#191970" points="715.0001,-29.6426 711.5,-19.6427 708.0001,-29.6427 715.0001,-29.6426"/>
</g>
<!-- Node20&#45;&gt;Node2 -->
<g id="edge34" class="edge">
<title>Node20&#45;&gt;Node2</title>
<path fill="none" stroke="#191970" d="M643.4326,-169.1266C601.4769,-158.1986 530.9354,-139.825 491.4691,-129.5454"/>
<polygon fill="#191970" stroke="#191970" points="492.2352,-126.1283 481.6758,-126.9946 490.4707,-132.9023 492.2352,-126.1283"/>
</g>
<!-- Node20&#45;&gt;Node3 -->
<g id="edge33" class="edge">
<title>Node20&#45;&gt;Node3</title>
<path fill="none" stroke="#191970" d="M676.5209,-168.2811C674.5177,-153.747 668.5837,-126.5098 651.5,-112 625.2783,-89.7289 528.8058,-75.8848 475.1368,-69.7349"/>
<polygon fill="#191970" stroke="#191970" points="475.3331,-66.2352 465.0072,-68.6073 474.5586,-73.1922 475.3331,-66.2352"/>
</g>
<!-- Node20&#45;&gt;Node17 -->
<g id="edge35" class="edge">
<title>Node20&#45;&gt;Node17</title>
<path fill="none" stroke="#191970" d="M666.5262,-168.2455C657.3118,-160.0549 643.9468,-148.1749 633.0703,-138.5069"/>
<polygon fill="#191970" stroke="#191970" points="635.1474,-135.6704 625.348,-131.6427 630.4968,-140.9023 635.1474,-135.6704"/>
</g>
<!-- Node21&#45;&gt;Node2 -->
<g id="edge38" class="edge">
<title>Node21&#45;&gt;Node2</title>
<path fill="none" stroke="#191970" d="M516.1779,-168.2455C506.5777,-159.9746 492.6108,-147.9416 481.3305,-138.2232"/>
<polygon fill="#191970" stroke="#191970" points="483.553,-135.5182 473.6924,-131.6427 478.984,-140.8214 483.553,-135.5182"/>
</g>
<!-- Node21&#45;&gt;Node3 -->
<g id="edge37" class="edge">
<title>Node21&#45;&gt;Node3</title>
<path fill="none" stroke="#191970" d="M523.3769,-168.4212C517.3335,-154.9988 505.1798,-130.1998 490.5,-112 481.5139,-100.8592 469.6756,-90.1562 459.5646,-81.882"/>
<polygon fill="#191970" stroke="#191970" points="461.5878,-79.0194 451.5783,-75.5466 457.2374,-84.5034 461.5878,-79.0194"/>
</g>
<!-- Node22&#45;&gt;Node2 -->
<g id="edge41" class="edge">
<title>Node22&#45;&gt;Node2</title>
<path fill="none" stroke="#191970" d="M187.2358,-170.0339C190.3597,-169.3176 193.4874,-168.6271 196.5,-168 282.2056,-150.159 384.4595,-133.863 433.4819,-126.3561"/>
<polygon fill="#191970" stroke="#191970" points="434.0263,-129.8136 443.3856,-124.8485 432.9727,-122.8934 434.0263,-129.8136"/>
</g>
<!-- Node22&#45;&gt;Node3 -->
<g id="edge40" class="edge">
<title>Node22&#45;&gt;Node3</title>
<path fill="none" stroke="#191970" d="M179.6284,-168.4509C230.1711,-148.4482 347.2534,-102.1117 405.0259,-79.2477"/>
<polygon fill="#191970" stroke="#191970" points="406.4223,-82.4592 414.4327,-75.5249 403.8464,-75.9504 406.4223,-82.4592"/>
</g>
<!-- Node23&#45;&gt;Node2 -->
<g id="edge44" class="edge">
<title>Node23&#45;&gt;Node2</title>
<path fill="none" stroke="#191970" d="M273.855,-169.3727C317.5751,-158.3937 392.3334,-139.6203 433.3861,-129.3111"/>
<polygon fill="#191970" stroke="#191970" points="434.4515,-132.6523 443.2979,-126.822 432.7466,-125.8631 434.4515,-132.6523"/>
</g>
<!-- Node23&#45;&gt;Node3 -->
<g id="edge43" class="edge">
<title>Node23&#45;&gt;Node3</title>
<path fill="none" stroke="#191970" d="M256.4666,-168.4509C291.3464,-148.8201 371.2915,-103.8259 412.6527,-80.5472"/>
<polygon fill="#191970" stroke="#191970" points="414.5784,-83.4797 421.5763,-75.5249 411.1451,-77.3795 414.5784,-83.4797"/>
</g>
</g>
</svg>
        <g id="navigator" transform="translate(0 0)" fill="#404254">
                <rect fill="#f2f5e9" fill-opacity="0.5" stroke="#606060" stroke-width=".5" x="0" y="0" width="60" height="60"/>
                <use id="zoomplus" xlink:href="#zoomPlus" x="17" y="9" onmousedown="handleZoom(evt,'in')"/>
                <use id="zoomminus" xlink:href="#zoomMin" x="42" y="9" onmousedown="handleZoom(evt,'out')"/>
                <use id="reset" xlink:href="#resetDef" x="30" y="36" onmousedown="handleReset()"/>
                <g id="arrowUp" xlink:href="#dirArrow" transform="translate(30 24)" onmousedown="handlePan(0,-1)">
                  <use xlink:href="#rim" fill="#404040">
                        <set attributeName="fill" to="#808080" begin="arrowUp.mouseover" end="arrowUp.mouseout"/>
                  </use>
                  <path fill="none" stroke="white" stroke-width="1.5" d="M0,-3.0v7 M-2.5,-0.5L0,-3.0L2.5,-0.5"/>
                </g>
                <g id="arrowRight" xlink:href="#dirArrow" transform="rotate(90) translate(36 -43)" onmousedown="handlePan(1,0)">
                  <use xlink:href="#rim" fill="#404040">
                        <set attributeName="fill" to="#808080" begin="arrowRight.mouseover" end="arrowRight.mouseout"/>
                  </use>
                  <path fill="none" stroke="white" stroke-width="1.5" d="M0,-3.0v7 M-2.5,-0.5L0,-3.0L2.5,-0.5"/>
                </g>
                <g id="arrowDown" xlink:href="#dirArrow" transform="rotate(180) translate(-30 -48)" onmousedown="handlePan(0,1)">
                  <use xlink:href="#rim" fill="#404040">
                        <set attributeName="fill" to="#808080" begin="arrowDown.mouseover" end="arrowDown.mouseout"/>
                  </use>
                  <path fill="none" stroke="white" stroke-width="1.5" d="M0,-3.0v7 M-2.5,-0.5L0,-3.0L2.5,-0.5"/>
                </g>
                <g id="arrowLeft" xlink:href="#dirArrow" transform="rotate(270) translate(-36 17)" onmousedown="handlePan(-1,0)">
                  <use xlink:href="#rim" fill="#404040">
                        <set attributeName="fill" to="#808080" begin="arrowLeft.mouseover" end="arrowLeft.mouseout"/>
                  </use>
                  <path fill="none" stroke="white" stroke-width="1.5" d="M0,-3.0v7 M-2.5,-0.5L0,-3.0L2.5,-0.5"/>
                </g>
        </g>
        <svg viewBox="0 0 15 15" width="100%" height="30px" preserveAspectRatio="xMaxYMin meet">
         <g id="arrow_out" transform="scale(0.3 0.3)">
          <a xlink:href="network_2udptty_2src_2irx__imports_8h__incl_org.svg" target="_base">
           <rect id="button" ry="5" rx="5" y="6" x="6" height="38" width="38"
                fill="#f2f5e9" fill-opacity="0.5" stroke="#606060" stroke-width="1.0"/>
           <path id="arrow"
             d="M 11.500037,31.436501 C 11.940474,20.09759 22.043105,11.32322 32.158766,21.979434 L 37.068811,17.246167 C 37.068811,17.246167 37.088388,32 37.088388,32 L 22.160133,31.978069 C 22.160133,31.978069 26.997745,27.140456 26.997745,27.140456 C 18.528582,18.264221 13.291696,25.230495 11.500037,31.436501 z"
             style="fill:#404040;"/>
          </a>
         </g>
        </svg>
</svg>
