<?xml version="1.0" encoding="UTF-8" standalone="no"?>
<!DOCTYPE svg PUBLIC "-//W3C//DTD SVG 1.1//EN"
 "http://www.w3.org/Graphics/SVG/1.1/DTD/svg11.dtd">
<!-- Generated by graphviz version 2.40.1 (20161225.0304)
 -->
<!-- Title: iop/hdd/pfs/src/pfs.h Pages: 1 -->
<svg width="370pt" height="95pt"
 viewBox="0.00 0.00 370.00 95.00" xmlns="http://www.w3.org/2000/svg" xmlns:xlink="http://www.w3.org/1999/xlink">
<g id="graph0" class="graph" transform="scale(1 1) rotate(0) translate(4 91)">
<title>iop/hdd/pfs/src/pfs.h</title>
<polygon fill="#ffffff" stroke="transparent" points="-4,4 -4,-91 366,-91 366,4 -4,4"/>
<!-- Node1 -->
<g id="node1" class="node">
<title>Node1</title>
<g id="a_node1"><a xlink:title=" ">
<polygon fill="#bfbfbf" stroke="#000000" points="127.5,-67.5 127.5,-86.5 242.5,-86.5 242.5,-67.5 127.5,-67.5"/>
<text text-anchor="middle" x="185" y="-74.5" font-family="Helvetica,sans-Serif" font-size="10.00" fill="#000000">iop/hdd/pfs/src/pfs.h</text>
</a>
</g>
</g>
<!-- Node2 -->
<g id="node2" class="node">
<title>Node2</title>
<g id="a_node2"><a xlink:href="pfs_8c.html" target="_top" xlink:title=" ">
<polygon fill="#ffffff" stroke="#000000" points="0,-6 0,-25 114,-25 114,-6 0,-6"/>
<text text-anchor="middle" x="57" y="-13" font-family="Helvetica,sans-Serif" font-size="10.00" fill="#000000">iop/hdd/pfs/src/pfs.c</text>
</a>
</g>
</g>
<!-- Node1&#45;&gt;Node2 -->
<g id="edge1" class="edge">
<title>Node1&#45;&gt;Node2</title>
<path fill="none" stroke="#191970" d="M155.9361,-63.0357C131.7739,-51.4265 98.033,-35.2151 76.8596,-25.0419"/>
<polygon fill="#191970" stroke="#191970" points="154.4706,-66.2146 165,-67.3906 157.5022,-59.9051 154.4706,-66.2146"/>
</g>
<!-- Node3 -->
<g id="node3" class="node">
<title>Node3</title>
<g id="a_node3"><a xlink:href="pfs__fio_8c.html" target="_top" xlink:title=" ">
<polygon fill="#ffffff" stroke="#000000" points="132,-.5 132,-30.5 238,-30.5 238,-.5 132,-.5"/>
<text text-anchor="start" x="140" y="-18.5" font-family="Helvetica,sans-Serif" font-size="10.00" fill="#000000">iop/hdd/pfs/src/pfs</text>
<text text-anchor="middle" x="185" y="-7.5" font-family="Helvetica,sans-Serif" font-size="10.00" fill="#000000">_fio.c</text>
</a>
</g>
</g>
<!-- Node1&#45;&gt;Node3 -->
<g id="edge2" class="edge">
<title>Node1&#45;&gt;Node3</title>
<path fill="none" stroke="#191970" d="M185,-57.3693C185,-48.681 185,-38.6241 185,-30.5446"/>
<polygon fill="#191970" stroke="#191970" points="181.5001,-57.3906 185,-67.3906 188.5001,-57.3907 181.5001,-57.3906"/>
</g>
<!-- Node4 -->
<g id="node4" class="node">
<title>Node4</title>
<g id="a_node4"><a xlink:href="pfs__fioctl_8c.html" target="_top" xlink:title=" ">
<polygon fill="#ffffff" stroke="#000000" points="256,-.5 256,-30.5 362,-30.5 362,-.5 256,-.5"/>
<text text-anchor="start" x="264" y="-18.5" font-family="Helvetica,sans-Serif" font-size="10.00" fill="#000000">iop/hdd/pfs/src/pfs</text>
<text text-anchor="middle" x="309" y="-7.5" font-family="Helvetica,sans-Serif" font-size="10.00" fill="#000000">_fioctl.c</text>
</a>
</g>
</g>
<!-- Node1&#45;&gt;Node4 -->
<g id="edge3" class="edge">
<title>Node1&#45;&gt;Node4</title>
<path fill="none" stroke="#191970" d="M213.3849,-62.922C232.8894,-53.2484 258.7557,-40.4196 278.6662,-30.5446"/>
<polygon fill="#191970" stroke="#191970" points="211.7785,-59.8118 204.375,-67.3906 214.8888,-66.0829 211.7785,-59.8118"/>
</g>
</g>
</svg>
