<?xml version="1.0" encoding="UTF-8" standalone="no"?>
<!DOCTYPE svg PUBLIC "-//W3C//DTD SVG 1.1//EN"
 "http://www.w3.org/Graphics/SVG/1.1/DTD/svg11.dtd">
<!-- Generated by graphviz version 2.40.1 (20161225.0304)
 -->
<!-- Title: iop/hdd/pfs/src/pfs_fio.c Pages: 1 -->
<!--zoomable 263 -->
<svg id="main" version="1.1" xmlns="http://www.w3.org/2000/svg" xmlns:xlink="http://www.w3.org/1999/xlink" xml:space="preserve" onload="init(evt)">
<style type="text/css"><![CDATA[
.edge:hover path { stroke: red; }
.edge:hover polygon { stroke: red; fill: red; }
]]></style>
<script type="text/javascript"><![CDATA[
var edges = document.getElementsByTagName('g');
if (edges && edges.length) {
  for (var i=0;i<edges.length;i++) {
    if (edges[i].id.substr(0,4)=='edge') {
      edges[i].setAttribute('class','edge');
    }
  }
}
]]></script>
        <defs>
                <circle id="rim" cx="0" cy="0" r="7"/>
                <circle id="rim2" cx="0" cy="0" r="3.5"/>
                <g id="zoomPlus">
                        <use xlink:href="#rim" fill="#404040">
                                <set attributeName="fill" to="#808080" begin="zoomplus.mouseover" end="zoomplus.mouseout"/>
                        </use>
                        <path d="M-4,0h8M0,-4v8" fill="none" stroke="white" stroke-width="1.5" pointer-events="none"/>
                </g>
                <g id="zoomMin">
                        <use xlink:href="#rim" fill="#404040">
                                <set attributeName="fill" to="#808080" begin="zoomminus.mouseover" end="zoomminus.mouseout"/>
                        </use>
                        <path d="M-4,0h8" fill="none" stroke="white" stroke-width="1.5" pointer-events="none"/>
                </g>
                <g id="dirArrow">
                        <path fill="none" stroke="white" stroke-width="1.5" d="M0,-3.0v7 M-2.5,-0.5L0,-3.0L2.5,-0.5"/>
                </g>
               <g id="resetDef">
                       <use xlink:href="#rim2" fill="#404040">
                               <set attributeName="fill" to="#808080" begin="reset.mouseover" end="reset.mouseout"/>
                       </use>
               </g>
        </defs>

<script type="text/javascript">
var viewWidth = 818;
var viewHeight = 263;
var sectionId = 'dynsection-0';
</script>
<script xlink:href="svgpan.js"/>
<svg id="graph" class="graph">
<g id="viewport">
<title>iop/hdd/pfs/src/pfs_fio.c</title>
<polygon fill="#ffffff" stroke="transparent" points="-4,4 -4,-259 814,-259 814,4 -4,4"/>
<!-- Node1 -->
<g id="node1" class="node">
<title>Node1</title>
<g id="a_node1"><a xlink:title=" ">
<polygon fill="#bfbfbf" stroke="#000000" points="358,-224.5 358,-254.5 464,-254.5 464,-224.5 358,-224.5"/>
<text text-anchor="start" x="366" y="-242.5" font-family="Helvetica,sans-Serif" font-size="10.00" fill="#000000">iop/hdd/pfs/src/pfs</text>
<text text-anchor="middle" x="411" y="-231.5" font-family="Helvetica,sans-Serif" font-size="10.00" fill="#000000">_fio.c</text>
</a>
</g>
</g>
<!-- Node2 -->
<g id="node2" class="node">
<title>Node2</title>
<g id="a_node2"><a xlink:href="stdio_8h.html" target="_top" xlink:title=" ">
<polygon fill="#ffffff" stroke="#000000" points="27,-168.5 27,-187.5 77,-187.5 77,-168.5 27,-168.5"/>
<text text-anchor="middle" x="52" y="-175.5" font-family="Helvetica,sans-Serif" font-size="10.00" fill="#000000">stdio.h</text>
</a>
</g>
</g>
<!-- Node1&#45;&gt;Node2 -->
<g id="edge1" class="edge">
<title>Node1&#45;&gt;Node2</title>
<path fill="none" stroke="#191970" d="M357.9713,-233.2317C295.3872,-225.3604 188.0778,-210.3825 87.2096,-188.0473"/>
<polygon fill="#191970" stroke="#191970" points="87.68,-184.5659 77.1563,-185.7916 86.1474,-191.3961 87.68,-184.5659"/>
</g>
<!-- Node8 -->
<g id="node8" class="node">
<title>Node8</title>
<g id="a_node8"><a xlink:href="sysclib_8h.html" target="_top" xlink:title=" ">
<polygon fill="#ffffff" stroke="#000000" points="95.5,-168.5 95.5,-187.5 154.5,-187.5 154.5,-168.5 95.5,-168.5"/>
<text text-anchor="middle" x="125" y="-175.5" font-family="Helvetica,sans-Serif" font-size="10.00" fill="#000000">sysclib.h</text>
</a>
</g>
</g>
<!-- Node1&#45;&gt;Node8 -->
<g id="edge7" class="edge">
<title>Node1&#45;&gt;Node8</title>
<path fill="none" stroke="#191970" d="M357.8452,-228.271C308.9947,-217.9204 234.5865,-202.0769 170,-188 168.2797,-187.6251 166.5228,-187.2407 164.7481,-186.8513"/>
<polygon fill="#191970" stroke="#191970" points="165.0428,-183.3323 154.5237,-184.5969 163.5355,-190.1681 165.0428,-183.3323"/>
</g>
<!-- Node10 -->
<g id="node10" class="node">
<title>Node10</title>
<g id="a_node10"><a xlink:href="errno_8h.html" target="_top" xlink:title=" ">
<polygon fill="#ffffff" stroke="#000000" points="385.5,-168.5 385.5,-187.5 436.5,-187.5 436.5,-168.5 385.5,-168.5"/>
<text text-anchor="middle" x="411" y="-175.5" font-family="Helvetica,sans-Serif" font-size="10.00" fill="#000000">errno.h</text>
</a>
</g>
</g>
<!-- Node1&#45;&gt;Node10 -->
<g id="edge13" class="edge">
<title>Node1&#45;&gt;Node10</title>
<path fill="none" stroke="#191970" d="M411,-224.2977C411,-216.3834 411,-206.6043 411,-198.0759"/>
<polygon fill="#191970" stroke="#191970" points="414.5001,-197.8469 411,-187.8469 407.5001,-197.847 414.5001,-197.8469"/>
</g>
<!-- Node11 -->
<g id="node11" class="node">
<title>Node11</title>
<g id="a_node11"><a xlink:href="iomanX_8h.html" target="_top" xlink:title=" ">
<polygon fill="#ffffff" stroke="#000000" points="265.5,-168.5 265.5,-187.5 328.5,-187.5 328.5,-168.5 265.5,-168.5"/>
<text text-anchor="middle" x="297" y="-175.5" font-family="Helvetica,sans-Serif" font-size="10.00" fill="#000000">iomanX.h</text>
</a>
</g>
</g>
<!-- Node1&#45;&gt;Node11 -->
<g id="edge14" class="edge">
<title>Node1&#45;&gt;Node11</title>
<path fill="none" stroke="#191970" d="M383.1125,-224.4554C365.0924,-214.734 341.7659,-202.15 323.9368,-192.5317"/>
<polygon fill="#191970" stroke="#191970" points="325.1287,-189.1979 314.666,-187.5303 321.8052,-195.3586 325.1287,-189.1979"/>
</g>
<!-- Node17 -->
<g id="node17" class="node">
<title>Node17</title>
<g id="a_node17"><a xlink:href="thsemap_8h.html" target="_top" xlink:title=" ">
<polygon fill="#ffffff" stroke="#000000" points="179,-168.5 179,-187.5 247,-187.5 247,-168.5 179,-168.5"/>
<text text-anchor="middle" x="213" y="-175.5" font-family="Helvetica,sans-Serif" font-size="10.00" fill="#000000">thsemap.h</text>
</a>
</g>
</g>
<!-- Node1&#45;&gt;Node17 -->
<g id="edge22" class="edge">
<title>Node1&#45;&gt;Node17</title>
<path fill="none" stroke="#191970" d="M362.5638,-224.4554C329.0922,-214.059 285.0798,-200.3884 253.4781,-190.5727"/>
<polygon fill="#191970" stroke="#191970" points="254.2711,-187.1542 243.683,-187.5303 252.1947,-193.8391 254.2711,-187.1542"/>
</g>
<!-- Node18 -->
<g id="node18" class="node">
<title>Node18</title>
<g id="a_node18"><a xlink:href="hdd-ioctl_8h.html" target="_top" xlink:title=" ">
<polygon fill="#ffffff" stroke="#000000" points="467,-112.5 467,-131.5 535,-131.5 535,-112.5 467,-112.5"/>
<text text-anchor="middle" x="501" y="-119.5" font-family="Helvetica,sans-Serif" font-size="10.00" fill="#000000">hdd&#45;ioctl.h</text>
</a>
</g>
</g>
<!-- Node1&#45;&gt;Node18 -->
<g id="edge25" class="edge">
<title>Node1&#45;&gt;Node18</title>
<path fill="none" stroke="#191970" d="M394.944,-224.4934C380.8622,-209.4701 364.4413,-186.0538 377,-168 386.5244,-154.3081 425.1723,-141.3422 456.8219,-132.6877"/>
<polygon fill="#191970" stroke="#191970" points="458.0407,-135.9853 466.806,-130.0338 456.2425,-129.2202 458.0407,-135.9853"/>
</g>
<!-- Node19 -->
<g id="node19" class="node">
<title>Node19</title>
<g id="a_node19"><a xlink:href="pfs-opt_8h.html" target="_top" xlink:title=" ">
<polygon fill="#ffffff" stroke="#000000" points="455,-168.5 455,-187.5 515,-187.5 515,-168.5 455,-168.5"/>
<text text-anchor="middle" x="485" y="-175.5" font-family="Helvetica,sans-Serif" font-size="10.00" fill="#000000">pfs&#45;opt.h</text>
</a>
</g>
</g>
<!-- Node1&#45;&gt;Node19 -->
<g id="edge27" class="edge">
<title>Node1&#45;&gt;Node19</title>
<path fill="none" stroke="#191970" d="M429.2921,-224.2977C440.2061,-215.2274 454.0671,-203.7077 465.2324,-194.4285"/>
<polygon fill="#191970" stroke="#191970" points="467.698,-196.9303 473.1517,-187.8469 463.2238,-191.5468 467.698,-196.9303"/>
</g>
<!-- Node20 -->
<g id="node20" class="node">
<title>Node20</title>
<g id="a_node20"><a xlink:href="libpfs_8h.html" target="_top" xlink:title=" ">
<polygon fill="#ffffff" stroke="#000000" points="533.5,-168.5 533.5,-187.5 586.5,-187.5 586.5,-168.5 533.5,-168.5"/>
<text text-anchor="middle" x="560" y="-175.5" font-family="Helvetica,sans-Serif" font-size="10.00" fill="#000000">libpfs.h</text>
</a>
</g>
</g>
<!-- Node1&#45;&gt;Node20 -->
<g id="edge28" class="edge">
<title>Node1&#45;&gt;Node20</title>
<path fill="none" stroke="#191970" d="M447.4495,-224.4554C471.8744,-214.374 503.7581,-201.2139 527.3521,-191.4755"/>
<polygon fill="#191970" stroke="#191970" points="529.0021,-194.5809 536.9103,-187.5303 526.3313,-188.1104 529.0021,-194.5809"/>
</g>
<!-- Node22 -->
<g id="node22" class="node">
<title>Node22</title>
<g id="a_node22"><a xlink:href="pfs_8h.html" target="_top" xlink:title=" ">
<polygon fill="#ffffff" stroke="#000000" points="604.5,-168.5 604.5,-187.5 645.5,-187.5 645.5,-168.5 604.5,-168.5"/>
<text text-anchor="middle" x="625" y="-175.5" font-family="Helvetica,sans-Serif" font-size="10.00" fill="#000000">pfs.h</text>
</a>
</g>
</g>
<!-- Node1&#45;&gt;Node22 -->
<g id="edge30" class="edge">
<title>Node1&#45;&gt;Node22</title>
<path fill="none" stroke="#191970" d="M464.2799,-225.5851C499.0606,-216.2919 545.6477,-203.452 594.63,-188.3141"/>
<polygon fill="#191970" stroke="#191970" points="595.9474,-191.5698 604.4556,-185.2563 593.8672,-184.886 595.9474,-191.5698"/>
</g>
<!-- Node23 -->
<g id="node23" class="node">
<title>Node23</title>
<g id="a_node23"><a xlink:href="pfs__fio_8h.html" target="_top" xlink:title=" ">
<polygon fill="#ffffff" stroke="#000000" points="664,-168.5 664,-187.5 722,-187.5 722,-168.5 664,-168.5"/>
<text text-anchor="middle" x="693" y="-175.5" font-family="Helvetica,sans-Serif" font-size="10.00" fill="#000000">pfs_fio.h</text>
</a>
</g>
</g>
<!-- Node1&#45;&gt;Node23 -->
<g id="edge31" class="edge">
<title>Node1&#45;&gt;Node23</title>
<path fill="none" stroke="#191970" d="M464.0004,-229.0977C511.3135,-219.6345 582.7207,-204.9188 653.9446,-188.1682"/>
<polygon fill="#191970" stroke="#191970" points="655.0653,-191.4997 663.9908,-185.7914 653.4536,-184.6878 655.0653,-191.4997"/>
</g>
<!-- Node24 -->
<g id="node24" class="node">
<title>Node24</title>
<g id="a_node24"><a xlink:href="pfs__fioctl_8h.html" target="_top" xlink:title=" ">
<polygon fill="#ffffff" stroke="#000000" points="740,-168.5 740,-187.5 810,-187.5 810,-168.5 740,-168.5"/>
<text text-anchor="middle" x="775" y="-175.5" font-family="Helvetica,sans-Serif" font-size="10.00" fill="#000000">pfs_fioctl.h</text>
</a>
</g>
</g>
<!-- Node1&#45;&gt;Node24 -->
<g id="edge32" class="edge">
<title>Node1&#45;&gt;Node24</title>
<path fill="none" stroke="#191970" d="M464.1249,-232.0119C525.7126,-223.094 630.4785,-207.1955 730.0501,-188.0907"/>
<polygon fill="#191970" stroke="#191970" points="730.8242,-191.506 739.9782,-186.1717 729.4957,-184.6332 730.8242,-191.506"/>
</g>
<!-- Node3 -->
<g id="node3" class="node">
<title>Node3</title>
<g id="a_node3"><a xlink:title=" ">
<polygon fill="#ffffff" stroke="#bfbfbf" points="0,-112.5 0,-131.5 56,-131.5 56,-112.5 0,-112.5"/>
<text text-anchor="middle" x="28" y="-119.5" font-family="Helvetica,sans-Serif" font-size="10.00" fill="#000000">stdarg.h</text>
</a>
</g>
</g>
<!-- Node2&#45;&gt;Node3 -->
<g id="edge2" class="edge">
<title>Node2&#45;&gt;Node3</title>
<path fill="none" stroke="#191970" d="M47.8195,-168.2455C44.619,-160.7776 40.104,-150.2427 36.1916,-141.1137"/>
<polygon fill="#191970" stroke="#191970" points="39.2888,-139.4554 32.1326,-131.6427 32.8548,-142.2129 39.2888,-139.4554"/>
</g>
<!-- Node4 -->
<g id="node4" class="node">
<title>Node4</title>
<g id="a_node4"><a xlink:href="irx_8h.html" target="_top" xlink:title=" ">
<polygon fill="#ffffff" stroke="#000000" points="150,-112.5 150,-131.5 188,-131.5 188,-112.5 150,-112.5"/>
<text text-anchor="middle" x="169" y="-119.5" font-family="Helvetica,sans-Serif" font-size="10.00" fill="#000000">irx.h</text>
</a>
</g>
</g>
<!-- Node2&#45;&gt;Node4 -->
<g id="edge3" class="edge">
<title>Node2&#45;&gt;Node4</title>
<path fill="none" stroke="#191970" d="M72.113,-168.3733C91.037,-159.3156 119.5561,-145.6655 140.7583,-135.5174"/>
<polygon fill="#191970" stroke="#191970" points="142.4152,-138.6047 149.9242,-131.1303 139.3931,-132.2906 142.4152,-138.6047"/>
</g>
<!-- Node5 -->
<g id="node5" class="node">
<title>Node5</title>
<g id="a_node5"><a xlink:href="types_8h.html" target="_top" xlink:title=" ">
<polygon fill="#ffffff" stroke="#000000" points="142.5,-56.5 142.5,-75.5 195.5,-75.5 195.5,-56.5 142.5,-56.5"/>
<text text-anchor="middle" x="169" y="-63.5" font-family="Helvetica,sans-Serif" font-size="10.00" fill="#000000">types.h</text>
</a>
</g>
</g>
<!-- Node4&#45;&gt;Node5 -->
<g id="edge4" class="edge">
<title>Node4&#45;&gt;Node5</title>
<path fill="none" stroke="#191970" d="M169,-112.2455C169,-104.9382 169,-94.6944 169,-85.7046"/>
<polygon fill="#191970" stroke="#191970" points="172.5001,-85.6426 169,-75.6427 165.5001,-85.6427 172.5001,-85.6426"/>
</g>
<!-- Node6 -->
<g id="node6" class="node">
<title>Node6</title>
<g id="a_node6"><a xlink:title=" ">
<polygon fill="#ffffff" stroke="#bfbfbf" points="100,-.5 100,-19.5 156,-19.5 156,-.5 100,-.5"/>
<text text-anchor="middle" x="128" y="-7.5" font-family="Helvetica,sans-Serif" font-size="10.00" fill="#000000">stddef.h</text>
</a>
</g>
</g>
<!-- Node5&#45;&gt;Node6 -->
<g id="edge5" class="edge">
<title>Node5&#45;&gt;Node6</title>
<path fill="none" stroke="#191970" d="M161.8583,-56.2455C156.1556,-48.4564 148.01,-37.3308 141.1375,-27.9439"/>
<polygon fill="#191970" stroke="#191970" points="143.7913,-25.6437 135.0598,-19.6427 138.1432,-29.7789 143.7913,-25.6437"/>
</g>
<!-- Node7 -->
<g id="node7" class="node">
<title>Node7</title>
<g id="a_node7"><a xlink:href="tamtypes_8h.html" target="_top" xlink:title=" ">
<polygon fill="#ffffff" stroke="#000000" points="174,-.5 174,-19.5 246,-19.5 246,-.5 174,-.5"/>
<text text-anchor="middle" x="210" y="-7.5" font-family="Helvetica,sans-Serif" font-size="10.00" fill="#000000">tamtypes.h</text>
</a>
</g>
</g>
<!-- Node5&#45;&gt;Node7 -->
<g id="edge6" class="edge">
<title>Node5&#45;&gt;Node7</title>
<path fill="none" stroke="#191970" d="M176.1417,-56.2455C181.8444,-48.4564 189.99,-37.3308 196.8625,-27.9439"/>
<polygon fill="#191970" stroke="#191970" points="199.8568,-29.7789 202.9402,-19.6427 194.2087,-25.6437 199.8568,-29.7789"/>
</g>
<!-- Node8&#45;&gt;Node3 -->
<g id="edge10" class="edge">
<title>Node8&#45;&gt;Node3</title>
<path fill="none" stroke="#191970" d="M108.1039,-168.2455C93.082,-159.5731 70.8957,-146.7645 53.679,-136.825"/>
<polygon fill="#191970" stroke="#191970" points="55.1128,-133.6114 44.7025,-131.6427 51.6129,-139.6737 55.1128,-133.6114"/>
</g>
<!-- Node8&#45;&gt;Node4 -->
<g id="edge9" class="edge">
<title>Node8&#45;&gt;Node4</title>
<path fill="none" stroke="#191970" d="M132.6642,-168.2455C138.8473,-160.3761 147.7063,-149.101 155.1289,-139.6542"/>
<polygon fill="#191970" stroke="#191970" points="157.9975,-141.6683 161.4236,-131.6427 152.4932,-137.3435 157.9975,-141.6683"/>
</g>
<!-- Node8&#45;&gt;Node5 -->
<g id="edge8" class="edge">
<title>Node8&#45;&gt;Node5</title>
<path fill="none" stroke="#191970" d="M126.3866,-168.3099C128.479,-155.1793 133.0664,-131.1743 141,-112 144.9995,-102.3338 150.8518,-92.3298 156.1732,-84.1298"/>
<polygon fill="#191970" stroke="#191970" points="159.1342,-85.999 161.8286,-75.7524 153.3325,-82.0823 159.1342,-85.999"/>
</g>
<!-- Node9 -->
<g id="node9" class="node">
<title>Node9</title>
<g id="a_node9"><a xlink:href="setjmp_8h.html" target="_top" xlink:title=" ">
<polygon fill="#ffffff" stroke="#000000" points="60.5,-56.5 60.5,-75.5 119.5,-75.5 119.5,-56.5 60.5,-56.5"/>
<text text-anchor="middle" x="90" y="-63.5" font-family="Helvetica,sans-Serif" font-size="10.00" fill="#000000">setjmp.h</text>
</a>
</g>
</g>
<!-- Node8&#45;&gt;Node9 -->
<g id="edge11" class="edge">
<title>Node8&#45;&gt;Node9</title>
<path fill="none" stroke="#191970" d="M121.1,-168.2164C117.4794,-158.963 112.0533,-144.6483 108,-132 103.0729,-116.6251 98.303,-98.9687 94.9127,-85.789"/>
<polygon fill="#191970" stroke="#191970" points="98.2616,-84.7556 92.4161,-75.9193 91.4753,-86.4723 98.2616,-84.7556"/>
</g>
<!-- Node9&#45;&gt;Node7 -->
<g id="edge12" class="edge">
<title>Node9&#45;&gt;Node7</title>
<path fill="none" stroke="#191970" d="M110.6287,-56.3733C129.8919,-47.3838 158.8486,-33.8706 180.5419,-23.7471"/>
<polygon fill="#191970" stroke="#191970" points="182.0587,-26.9017 189.6405,-19.5011 179.0985,-20.5584 182.0587,-26.9017"/>
</g>
<!-- Node11&#45;&gt;Node4 -->
<g id="edge16" class="edge">
<title>Node11&#45;&gt;Node4</title>
<path fill="none" stroke="#191970" d="M274.996,-168.3733C253.606,-159.0151 221.0106,-144.7547 197.6154,-134.5192"/>
<polygon fill="#191970" stroke="#191970" points="198.776,-131.2068 188.2116,-130.4051 195.9703,-137.6199 198.776,-131.2068"/>
</g>
<!-- Node11&#45;&gt;Node5 -->
<g id="edge15" class="edge">
<title>Node11&#45;&gt;Node5</title>
<path fill="none" stroke="#191970" d="M286.0868,-168.4509C264.1711,-149.2747 214.5957,-105.8962 187.5129,-82.1988"/>
<polygon fill="#191970" stroke="#191970" points="189.7162,-79.4759 179.8856,-75.5249 185.1066,-84.744 189.7162,-79.4759"/>
</g>
<!-- Node12 -->
<g id="node12" class="node">
<title>Node12</title>
<g id="a_node12"><a xlink:href="io__common_8h.html" target="_top" xlink:title=" ">
<polygon fill="#ffffff" stroke="#000000" points="282.5,-112.5 282.5,-131.5 365.5,-131.5 365.5,-112.5 282.5,-112.5"/>
<text text-anchor="middle" x="324" y="-119.5" font-family="Helvetica,sans-Serif" font-size="10.00" fill="#000000">io_common.h</text>
</a>
</g>
</g>
<!-- Node11&#45;&gt;Node12 -->
<g id="edge17" class="edge">
<title>Node11&#45;&gt;Node12</title>
<path fill="none" stroke="#191970" d="M301.703,-168.2455C305.3424,-160.6973 310.4924,-150.0158 314.9262,-140.8197"/>
<polygon fill="#191970" stroke="#191970" points="318.1605,-142.1704 319.3509,-131.6427 311.8551,-139.1303 318.1605,-142.1704"/>
</g>
<!-- Node15 -->
<g id="node15" class="node">
<title>Node15</title>
<g id="a_node15"><a xlink:href="iox__stat_8h.html" target="_top" xlink:title=" ">
<polygon fill="#ffffff" stroke="#000000" points="383.5,-112.5 383.5,-131.5 448.5,-131.5 448.5,-112.5 383.5,-112.5"/>
<text text-anchor="middle" x="416" y="-119.5" font-family="Helvetica,sans-Serif" font-size="10.00" fill="#000000">iox_stat.h</text>
</a>
</g>
</g>
<!-- Node11&#45;&gt;Node15 -->
<g id="edge20" class="edge">
<title>Node11&#45;&gt;Node15</title>
<path fill="none" stroke="#191970" d="M317.4568,-168.3733C336.4738,-159.4241 365.0175,-145.9917 386.4976,-135.8835"/>
<polygon fill="#191970" stroke="#191970" points="388.2522,-138.926 395.8101,-131.5011 385.2716,-132.5923 388.2522,-138.926"/>
</g>
<!-- Node13 -->
<g id="node13" class="node">
<title>Node13</title>
<g id="a_node13"><a xlink:href="fcntl_8h.html" target="_top" xlink:title=" ">
<polygon fill="#ffffff" stroke="#000000" points="306.5,-56.5 306.5,-75.5 373.5,-75.5 373.5,-56.5 306.5,-56.5"/>
<text text-anchor="middle" x="340" y="-63.5" font-family="Helvetica,sans-Serif" font-size="10.00" fill="#000000">sys/fcntl.h</text>
</a>
</g>
</g>
<!-- Node12&#45;&gt;Node13 -->
<g id="edge18" class="edge">
<title>Node12&#45;&gt;Node13</title>
<path fill="none" stroke="#191970" d="M326.787,-112.2455C328.8977,-104.8579 331.866,-94.4689 334.4547,-85.4087"/>
<polygon fill="#191970" stroke="#191970" points="337.863,-86.2195 337.245,-75.6427 331.1323,-84.2964 337.863,-86.2195"/>
</g>
<!-- Node14 -->
<g id="node14" class="node">
<title>Node14</title>
<g id="a_node14"><a xlink:href="unistd_8h.html" target="_top" xlink:title=" ">
<polygon fill="#ffffff" stroke="#000000" points="213.5,-56.5 213.5,-75.5 288.5,-75.5 288.5,-56.5 213.5,-56.5"/>
<text text-anchor="middle" x="251" y="-63.5" font-family="Helvetica,sans-Serif" font-size="10.00" fill="#000000">sys/unistd.h</text>
</a>
</g>
</g>
<!-- Node12&#45;&gt;Node14 -->
<g id="edge19" class="edge">
<title>Node12&#45;&gt;Node14</title>
<path fill="none" stroke="#191970" d="M311.2844,-112.2455C300.398,-103.8943 284.5117,-91.7076 271.78,-81.9408"/>
<polygon fill="#191970" stroke="#191970" points="273.6346,-78.9523 263.5699,-75.6427 269.3739,-84.5063 273.6346,-78.9523"/>
</g>
<!-- Node16 -->
<g id="node16" class="node">
<title>Node16</title>
<g id="a_node16"><a xlink:href="time_8h.html" target="_top" xlink:title=" ">
<polygon fill="#ffffff" stroke="#000000" points="392,-56.5 392,-75.5 460,-75.5 460,-56.5 392,-56.5"/>
<text text-anchor="middle" x="426" y="-63.5" font-family="Helvetica,sans-Serif" font-size="10.00" fill="#000000">sys/time.h</text>
</a>
</g>
</g>
<!-- Node15&#45;&gt;Node16 -->
<g id="edge21" class="edge">
<title>Node15&#45;&gt;Node16</title>
<path fill="none" stroke="#191970" d="M417.7419,-112.2455C419.0467,-104.9382 420.876,-94.6944 422.4813,-85.7046"/>
<polygon fill="#191970" stroke="#191970" points="425.9656,-86.1022 424.2781,-75.6427 419.0746,-84.8717 425.9656,-86.1022"/>
</g>
<!-- Node17&#45;&gt;Node4 -->
<g id="edge24" class="edge">
<title>Node17&#45;&gt;Node4</title>
<path fill="none" stroke="#191970" d="M205.3358,-168.2455C199.1527,-160.3761 190.2937,-149.101 182.8711,-139.6542"/>
<polygon fill="#191970" stroke="#191970" points="185.5068,-137.3435 176.5764,-131.6427 180.0025,-141.6683 185.5068,-137.3435"/>
</g>
<!-- Node17&#45;&gt;Node5 -->
<g id="edge23" class="edge">
<title>Node17&#45;&gt;Node5</title>
<path fill="none" stroke="#191970" d="M211.6134,-168.3099C209.521,-155.1793 204.9336,-131.1743 197,-112 193.0005,-102.3338 187.1482,-92.3298 181.8268,-84.1298"/>
<polygon fill="#191970" stroke="#191970" points="184.6675,-82.0823 176.1714,-75.7524 178.8658,-85.999 184.6675,-82.0823"/>
</g>
<!-- Node18&#45;&gt;Node7 -->
<g id="edge26" class="edge">
<title>Node18&#45;&gt;Node7</title>
<path fill="none" stroke="#191970" d="M499.1578,-112.1485C495.8601,-97.4411 487.4843,-69.9808 469,-56 436.2411,-31.2225 321.6472,-18.5539 256.3936,-13.2106"/>
<polygon fill="#191970" stroke="#191970" points="256.6099,-9.7169 246.3645,-12.4152 256.0564,-16.695 256.6099,-9.7169"/>
</g>
<!-- Node21 -->
<g id="node21" class="node">
<title>Node21</title>
<g id="a_node21"><a xlink:title=" ">
<polygon fill="#ffffff" stroke="#bfbfbf" points="553.5,-112.5 553.5,-131.5 606.5,-131.5 606.5,-112.5 553.5,-112.5"/>
<text text-anchor="middle" x="580" y="-119.5" font-family="Helvetica,sans-Serif" font-size="10.00" fill="#000000">types.h</text>
</a>
</g>
</g>
<!-- Node20&#45;&gt;Node21 -->
<g id="edge29" class="edge">
<title>Node20&#45;&gt;Node21</title>
<path fill="none" stroke="#191970" d="M563.4837,-168.2455C566.1508,-160.7776 569.9133,-150.2427 573.1737,-141.1137"/>
<polygon fill="#191970" stroke="#191970" points="576.4889,-142.2373 576.5562,-131.6427 569.8967,-139.8829 576.4889,-142.2373"/>
</g>
</g>
</svg>
        <g id="navigator" transform="translate(0 0)" fill="#404254">
                <rect fill="#f2f5e9" fill-opacity="0.5" stroke="#606060" stroke-width=".5" x="0" y="0" width="60" height="60"/>
                <use id="zoomplus" xlink:href="#zoomPlus" x="17" y="9" onmousedown="handleZoom(evt,'in')"/>
                <use id="zoomminus" xlink:href="#zoomMin" x="42" y="9" onmousedown="handleZoom(evt,'out')"/>
                <use id="reset" xlink:href="#resetDef" x="30" y="36" onmousedown="handleReset()"/>
                <g id="arrowUp" xlink:href="#dirArrow" transform="translate(30 24)" onmousedown="handlePan(0,-1)">
                  <use xlink:href="#rim" fill="#404040">
                        <set attributeName="fill" to="#808080" begin="arrowUp.mouseover" end="arrowUp.mouseout"/>
                  </use>
                  <path fill="none" stroke="white" stroke-width="1.5" d="M0,-3.0v7 M-2.5,-0.5L0,-3.0L2.5,-0.5"/>
                </g>
                <g id="arrowRight" xlink:href="#dirArrow" transform="rotate(90) translate(36 -43)" onmousedown="handlePan(1,0)">
                  <use xlink:href="#rim" fill="#404040">
                        <set attributeName="fill" to="#808080" begin="arrowRight.mouseover" end="arrowRight.mouseout"/>
                  </use>
                  <path fill="none" stroke="white" stroke-width="1.5" d="M0,-3.0v7 M-2.5,-0.5L0,-3.0L2.5,-0.5"/>
                </g>
                <g id="arrowDown" xlink:href="#dirArrow" transform="rotate(180) translate(-30 -48)" onmousedown="handlePan(0,1)">
                  <use xlink:href="#rim" fill="#404040">
                        <set attributeName="fill" to="#808080" begin="arrowDown.mouseover" end="arrowDown.mouseout"/>
                  </use>
                  <path fill="none" stroke="white" stroke-width="1.5" d="M0,-3.0v7 M-2.5,-0.5L0,-3.0L2.5,-0.5"/>
                </g>
                <g id="arrowLeft" xlink:href="#dirArrow" transform="rotate(270) translate(-36 17)" onmousedown="handlePan(-1,0)">
                  <use xlink:href="#rim" fill="#404040">
                        <set attributeName="fill" to="#808080" begin="arrowLeft.mouseover" end="arrowLeft.mouseout"/>
                  </use>
                  <path fill="none" stroke="white" stroke-width="1.5" d="M0,-3.0v7 M-2.5,-0.5L0,-3.0L2.5,-0.5"/>
                </g>
        </g>
        <svg viewBox="0 0 15 15" width="100%" height="30px" preserveAspectRatio="xMaxYMin meet">
         <g id="arrow_out" transform="scale(0.3 0.3)">
          <a xlink:href="pfs__fio_8c__incl_org.svg" target="_base">
           <rect id="button" ry="5" rx="5" y="6" x="6" height="38" width="38"
                fill="#f2f5e9" fill-opacity="0.5" stroke="#606060" stroke-width="1.0"/>
           <path id="arrow"
             d="M 11.500037,31.436501 C 11.940474,20.09759 22.043105,11.32322 32.158766,21.979434 L 37.068811,17.246167 C 37.068811,17.246167 37.088388,32 37.088388,32 L 22.160133,31.978069 C 22.160133,31.978069 26.997745,27.140456 26.997745,27.140456 C 18.528582,18.264221 13.291696,25.230495 11.500037,31.436501 z"
             style="fill:#404040;"/>
          </a>
         </g>
        </svg>
</svg>
