<?xml version="1.0" encoding="UTF-8" standalone="no"?>
<!DOCTYPE svg PUBLIC "-//W3C//DTD SVG 1.1//EN"
 "http://www.w3.org/Graphics/SVG/1.1/DTD/svg11.dtd">
<!-- Generated by graphviz version 2.40.1 (20161225.0304)
 -->
<!-- Title: iop/system/siftoo/src/pipe.c Pages: 1 -->
<svg width="222pt" height="263pt"
 viewBox="0.00 0.00 221.50 263.00" xmlns="http://www.w3.org/2000/svg" xmlns:xlink="http://www.w3.org/1999/xlink">
<g id="graph0" class="graph" transform="scale(1 1) rotate(0) translate(4 259)">
<title>iop/system/siftoo/src/pipe.c</title>
<polygon fill="#ffffff" stroke="transparent" points="-4,4 -4,-259 217.5,-259 217.5,4 -4,4"/>
<!-- Node1 -->
<g id="node1" class="node">
<title>Node1</title>
<g id="a_node1"><a xlink:title=" ">
<polygon fill="#bfbfbf" stroke="#000000" points="17,-224.5 17,-254.5 136,-254.5 136,-224.5 17,-224.5"/>
<text text-anchor="start" x="25" y="-242.5" font-family="Helvetica,sans-Serif" font-size="10.00" fill="#000000">iop/system/siftoo/src</text>
<text text-anchor="middle" x="76.5" y="-231.5" font-family="Helvetica,sans-Serif" font-size="10.00" fill="#000000">/pipe.c</text>
</a>
</g>
</g>
<!-- Node2 -->
<g id="node2" class="node">
<title>Node2</title>
<g id="a_node2"><a xlink:title=" ">
<polygon fill="#ffffff" stroke="#bfbfbf" points="71,-112.5 71,-131.5 124,-131.5 124,-112.5 71,-112.5"/>
<text text-anchor="middle" x="97.5" y="-119.5" font-family="Helvetica,sans-Serif" font-size="10.00" fill="#000000">types.h</text>
</a>
</g>
</g>
<!-- Node1&#45;&gt;Node2 -->
<g id="edge1" class="edge">
<title>Node1&#45;&gt;Node2</title>
<path fill="none" stroke="#191970" d="M71.8687,-224.4302C68.0927,-209.7633 64.1792,-186.9747 69.5,-168 72.2878,-158.0584 77.8812,-148.1336 83.3407,-140.0613"/>
<polygon fill="#191970" stroke="#191970" points="86.2676,-141.9866 89.2911,-131.8323 80.5952,-137.8849 86.2676,-141.9866"/>
</g>
<!-- Node3 -->
<g id="node3" class="node">
<title>Node3</title>
<g id="a_node3"><a xlink:href="defs_8h.html" target="_top" xlink:title=" ">
<polygon fill="#ffffff" stroke="#000000" points="0,-112.5 0,-131.5 47,-131.5 47,-112.5 0,-112.5"/>
<text text-anchor="middle" x="23.5" y="-119.5" font-family="Helvetica,sans-Serif" font-size="10.00" fill="#000000">defs.h</text>
</a>
</g>
</g>
<!-- Node1&#45;&gt;Node3 -->
<g id="edge2" class="edge">
<title>Node1&#45;&gt;Node3</title>
<path fill="none" stroke="#191970" d="M69.5712,-224.1389C59.9355,-202.7768 42.4999,-164.1224 32.0621,-140.982"/>
<polygon fill="#191970" stroke="#191970" points="35.1142,-139.236 27.8119,-131.5595 28.7332,-142.1142 35.1142,-139.236"/>
</g>
<!-- Node7 -->
<g id="node7" class="node">
<title>Node7</title>
<g id="a_node7"><a xlink:href="sbusintr_8h.html" target="_top" xlink:title=" ">
<polygon fill="#ffffff" stroke="#000000" points="149.5,-168.5 149.5,-187.5 213.5,-187.5 213.5,-168.5 149.5,-168.5"/>
<text text-anchor="middle" x="181.5" y="-175.5" font-family="Helvetica,sans-Serif" font-size="10.00" fill="#000000">sbusintr.h</text>
</a>
</g>
</g>
<!-- Node1&#45;&gt;Node7 -->
<g id="edge6" class="edge">
<title>Node1&#45;&gt;Node7</title>
<path fill="none" stroke="#191970" d="M102.1859,-224.4554C118.6297,-214.8241 139.8708,-202.3828 156.2323,-192.7996"/>
<polygon fill="#191970" stroke="#191970" points="158.3688,-195.6045 165.2287,-187.5303 154.831,-189.5643 158.3688,-195.6045"/>
</g>
<!-- Node9 -->
<g id="node9" class="node">
<title>Node9</title>
<g id="a_node9"><a xlink:href="siftoo_8h.html" target="_top" xlink:title=" ">
<polygon fill="#ffffff" stroke="#000000" points="78,-168.5 78,-187.5 131,-187.5 131,-168.5 78,-168.5"/>
<text text-anchor="middle" x="104.5" y="-175.5" font-family="Helvetica,sans-Serif" font-size="10.00" fill="#000000">siftoo.h</text>
</a>
</g>
</g>
<!-- Node1&#45;&gt;Node9 -->
<g id="edge10" class="edge">
<title>Node1&#45;&gt;Node9</title>
<path fill="none" stroke="#191970" d="M83.4214,-224.2977C87.1461,-216.1166 91.778,-205.943 95.7504,-197.2179"/>
<polygon fill="#191970" stroke="#191970" points="99.0586,-198.3983 100.0168,-187.8469 92.6878,-195.4978 99.0586,-198.3983"/>
</g>
<!-- Node4 -->
<g id="node4" class="node">
<title>Node4</title>
<g id="a_node4"><a xlink:href="types_8h.html" target="_top" xlink:title=" ">
<polygon fill="#ffffff" stroke="#000000" points="63,-56.5 63,-75.5 116,-75.5 116,-56.5 63,-56.5"/>
<text text-anchor="middle" x="89.5" y="-63.5" font-family="Helvetica,sans-Serif" font-size="10.00" fill="#000000">types.h</text>
</a>
</g>
</g>
<!-- Node3&#45;&gt;Node4 -->
<g id="edge3" class="edge">
<title>Node3&#45;&gt;Node4</title>
<path fill="none" stroke="#191970" d="M34.9963,-112.2455C44.7442,-103.9746 58.9259,-91.9416 70.3798,-82.2232"/>
<polygon fill="#191970" stroke="#191970" points="72.7747,-84.7813 78.1354,-75.6427 68.2459,-79.4437 72.7747,-84.7813"/>
</g>
<!-- Node5 -->
<g id="node5" class="node">
<title>Node5</title>
<g id="a_node5"><a xlink:title=" ">
<polygon fill="#ffffff" stroke="#bfbfbf" points="20.5,-.5 20.5,-19.5 76.5,-19.5 76.5,-.5 20.5,-.5"/>
<text text-anchor="middle" x="48.5" y="-7.5" font-family="Helvetica,sans-Serif" font-size="10.00" fill="#000000">stddef.h</text>
</a>
</g>
</g>
<!-- Node4&#45;&gt;Node5 -->
<g id="edge4" class="edge">
<title>Node4&#45;&gt;Node5</title>
<path fill="none" stroke="#191970" d="M82.3583,-56.2455C76.6556,-48.4564 68.51,-37.3308 61.6375,-27.9439"/>
<polygon fill="#191970" stroke="#191970" points="64.2913,-25.6437 55.5598,-19.6427 58.6432,-29.7789 64.2913,-25.6437"/>
</g>
<!-- Node6 -->
<g id="node6" class="node">
<title>Node6</title>
<g id="a_node6"><a xlink:href="tamtypes_8h.html" target="_top" xlink:title=" ">
<polygon fill="#ffffff" stroke="#000000" points="94.5,-.5 94.5,-19.5 166.5,-19.5 166.5,-.5 94.5,-.5"/>
<text text-anchor="middle" x="130.5" y="-7.5" font-family="Helvetica,sans-Serif" font-size="10.00" fill="#000000">tamtypes.h</text>
</a>
</g>
</g>
<!-- Node4&#45;&gt;Node6 -->
<g id="edge5" class="edge">
<title>Node4&#45;&gt;Node6</title>
<path fill="none" stroke="#191970" d="M96.6417,-56.2455C102.3444,-48.4564 110.49,-37.3308 117.3625,-27.9439"/>
<polygon fill="#191970" stroke="#191970" points="120.3568,-29.7789 123.4402,-19.6427 114.7087,-25.6437 120.3568,-29.7789"/>
</g>
<!-- Node7&#45;&gt;Node2 -->
<g id="edge7" class="edge">
<title>Node7&#45;&gt;Node2</title>
<path fill="none" stroke="#191970" d="M166.8683,-168.2455C154.1006,-159.7337 135.3562,-147.2375 120.5701,-137.3801"/>
<polygon fill="#191970" stroke="#191970" points="122.226,-134.2775 111.964,-131.6427 118.3431,-140.1019 122.226,-134.2775"/>
</g>
<!-- Node8 -->
<g id="node8" class="node">
<title>Node8</title>
<g id="a_node8"><a xlink:href="irx_8h.html" target="_top" xlink:title=" ">
<polygon fill="#ffffff" stroke="#000000" points="142.5,-112.5 142.5,-131.5 180.5,-131.5 180.5,-112.5 142.5,-112.5"/>
<text text-anchor="middle" x="161.5" y="-119.5" font-family="Helvetica,sans-Serif" font-size="10.00" fill="#000000">irx.h</text>
</a>
</g>
</g>
<!-- Node7&#45;&gt;Node8 -->
<g id="edge8" class="edge">
<title>Node7&#45;&gt;Node8</title>
<path fill="none" stroke="#191970" d="M178.0163,-168.2455C175.3492,-160.7776 171.5867,-150.2427 168.3263,-141.1137"/>
<polygon fill="#191970" stroke="#191970" points="171.6033,-139.8829 164.9438,-131.6427 165.0111,-142.2373 171.6033,-139.8829"/>
</g>
<!-- Node8&#45;&gt;Node4 -->
<g id="edge9" class="edge">
<title>Node8&#45;&gt;Node4</title>
<path fill="none" stroke="#191970" d="M148.9586,-112.2455C138.2213,-103.8943 122.5527,-91.7076 109.9953,-81.9408"/>
<polygon fill="#191970" stroke="#191970" points="111.9401,-79.0194 101.8977,-75.6427 107.6425,-84.5449 111.9401,-79.0194"/>
</g>
<!-- Node9&#45;&gt;Node2 -->
<g id="edge11" class="edge">
<title>Node9&#45;&gt;Node2</title>
<path fill="none" stroke="#191970" d="M103.2807,-168.2455C102.3673,-160.9382 101.0868,-150.6944 99.9631,-141.7046"/>
<polygon fill="#191970" stroke="#191970" points="103.4187,-141.1313 98.7053,-131.6427 96.4728,-141.9996 103.4187,-141.1313"/>
</g>
<!-- Node9&#45;&gt;Node8 -->
<g id="edge12" class="edge">
<title>Node9&#45;&gt;Node8</title>
<path fill="none" stroke="#191970" d="M114.4286,-168.2455C122.6838,-160.1352 134.6209,-148.4075 144.4082,-138.7919"/>
<polygon fill="#191970" stroke="#191970" points="147.0046,-141.1476 151.6851,-131.6427 142.0989,-136.1542 147.0046,-141.1476"/>
</g>
</g>
</svg>
