<?xml version="1.0" encoding="UTF-8" standalone="no"?>
<!DOCTYPE svg PUBLIC "-//W3C//DTD SVG 1.1//EN"
 "http://www.w3.org/Graphics/SVG/1.1/DTD/svg11.dtd">
<!-- Generated by graphviz version 2.40.1 (20161225.0304)
 -->
<!-- Title: iop/network/smbman/src/poll.c Pages: 1 -->
<svg width="453pt" height="263pt"
 viewBox="0.00 0.00 452.50 263.00" xmlns="http://www.w3.org/2000/svg" xmlns:xlink="http://www.w3.org/1999/xlink">
<g id="graph0" class="graph" transform="scale(1 1) rotate(0) translate(4 259)">
<title>iop/network/smbman/src/poll.c</title>
<polygon fill="#ffffff" stroke="transparent" points="-4,4 -4,-259 448.5,-259 448.5,4 -4,4"/>
<!-- Node1 -->
<g id="node1" class="node">
<title>Node1</title>
<g id="a_node1"><a xlink:title=" ">
<polygon fill="#bfbfbf" stroke="#000000" points="166.5,-224.5 166.5,-254.5 286.5,-254.5 286.5,-224.5 166.5,-224.5"/>
<text text-anchor="start" x="174.5" y="-242.5" font-family="Helvetica,sans-Serif" font-size="10.00" fill="#000000">iop/network/smbman</text>
<text text-anchor="middle" x="226.5" y="-231.5" font-family="Helvetica,sans-Serif" font-size="10.00" fill="#000000">/src/poll.c</text>
</a>
</g>
</g>
<!-- Node2 -->
<g id="node2" class="node">
<title>Node2</title>
<g id="a_node2"><a xlink:title=" ">
<polygon fill="#ffffff" stroke="#bfbfbf" points="65,-112.5 65,-131.5 118,-131.5 118,-112.5 65,-112.5"/>
<text text-anchor="middle" x="91.5" y="-119.5" font-family="Helvetica,sans-Serif" font-size="10.00" fill="#000000">types.h</text>
</a>
</g>
</g>
<!-- Node1&#45;&gt;Node2 -->
<g id="edge1" class="edge">
<title>Node1&#45;&gt;Node2</title>
<path fill="none" stroke="#191970" d="M192.9133,-224.4921C175.1873,-215.5317 153.7969,-202.9807 137.5,-188 122.6289,-174.33 109.8791,-155.041 101.6,-140.8447"/>
<polygon fill="#191970" stroke="#191970" points="104.5598,-138.9672 96.6115,-131.9618 98.4564,-142.3948 104.5598,-138.9672"/>
</g>
<!-- Node3 -->
<g id="node3" class="node">
<title>Node3</title>
<g id="a_node3"><a xlink:href="defs_8h.html" target="_top" xlink:title=" ">
<polygon fill="#ffffff" stroke="#000000" points="0,-112.5 0,-131.5 47,-131.5 47,-112.5 0,-112.5"/>
<text text-anchor="middle" x="23.5" y="-119.5" font-family="Helvetica,sans-Serif" font-size="10.00" fill="#000000">defs.h</text>
</a>
</g>
</g>
<!-- Node1&#45;&gt;Node3 -->
<g id="edge2" class="edge">
<title>Node1&#45;&gt;Node3</title>
<path fill="none" stroke="#191970" d="M189.6344,-224.4713C167.6025,-214.9851 139.3512,-201.9222 115.5,-188 89.3851,-172.7565 61.4361,-152.0017 43.2866,-137.863"/>
<polygon fill="#191970" stroke="#191970" points="45.2369,-134.9439 35.215,-131.5068 40.9061,-140.4434 45.2369,-134.9439"/>
</g>
<!-- Node7 -->
<g id="node7" class="node">
<title>Node7</title>
<g id="a_node7"><a xlink:href="irx_8h.html" target="_top" xlink:title=" ">
<polygon fill="#ffffff" stroke="#000000" points="260.5,-112.5 260.5,-131.5 298.5,-131.5 298.5,-112.5 260.5,-112.5"/>
<text text-anchor="middle" x="279.5" y="-119.5" font-family="Helvetica,sans-Serif" font-size="10.00" fill="#000000">irx.h</text>
</a>
</g>
</g>
<!-- Node1&#45;&gt;Node7 -->
<g id="edge6" class="edge">
<title>Node1&#45;&gt;Node7</title>
<path fill="none" stroke="#191970" d="M228.8053,-224.4108C231.4653,-209.5296 236.6517,-186.4056 245.5,-168 250.4179,-157.7701 257.7219,-147.5054 264.3009,-139.2762"/>
<polygon fill="#191970" stroke="#191970" points="267.0487,-141.4461 270.7642,-131.5241 261.6722,-136.9635 267.0487,-141.4461"/>
</g>
<!-- Node8 -->
<g id="node8" class="node">
<title>Node8</title>
<g id="a_node8"><a xlink:href="stdio_8h.html" target="_top" xlink:title=" ">
<polygon fill="#ffffff" stroke="#000000" points="254.5,-168.5 254.5,-187.5 304.5,-187.5 304.5,-168.5 254.5,-168.5"/>
<text text-anchor="middle" x="279.5" y="-175.5" font-family="Helvetica,sans-Serif" font-size="10.00" fill="#000000">stdio.h</text>
</a>
</g>
</g>
<!-- Node1&#45;&gt;Node8 -->
<g id="edge8" class="edge">
<title>Node1&#45;&gt;Node8</title>
<path fill="none" stroke="#191970" d="M239.6011,-224.2977C247.1113,-215.5831 256.57,-204.6075 264.3927,-195.5302"/>
<polygon fill="#191970" stroke="#191970" points="267.1371,-197.707 271.014,-187.8469 261.8345,-193.1372 267.1371,-197.707"/>
</g>
<!-- Node10 -->
<g id="node10" class="node">
<title>Node10</title>
<g id="a_node10"><a xlink:href="sysclib_8h.html" target="_top" xlink:title=" ">
<polygon fill="#ffffff" stroke="#000000" points="323,-168.5 323,-187.5 382,-187.5 382,-168.5 323,-168.5"/>
<text text-anchor="middle" x="352.5" y="-175.5" font-family="Helvetica,sans-Serif" font-size="10.00" fill="#000000">sysclib.h</text>
</a>
</g>
</g>
<!-- Node1&#45;&gt;Node10 -->
<g id="edge11" class="edge">
<title>Node1&#45;&gt;Node10</title>
<path fill="none" stroke="#191970" d="M257.3231,-224.4554C277.6088,-214.554 303.9788,-201.683 323.8162,-192.0004"/>
<polygon fill="#191970" stroke="#191970" points="325.523,-195.062 332.9745,-187.5303 322.4526,-188.7714 325.523,-195.062"/>
</g>
<!-- Node12 -->
<g id="node12" class="node">
<title>Node12</title>
<g id="a_node12"><a xlink:href="ps2ip_8h.html" target="_top" xlink:title=" ">
<polygon fill="#ffffff" stroke="#000000" points="146.5,-168.5 146.5,-187.5 198.5,-187.5 198.5,-168.5 146.5,-168.5"/>
<text text-anchor="middle" x="172.5" y="-175.5" font-family="Helvetica,sans-Serif" font-size="10.00" fill="#000000">ps2ip.h</text>
</a>
</g>
</g>
<!-- Node1&#45;&gt;Node12 -->
<g id="edge17" class="edge">
<title>Node1&#45;&gt;Node12</title>
<path fill="none" stroke="#191970" d="M213.1517,-224.2977C205.4998,-215.5831 195.8627,-204.6075 187.8924,-195.5302"/>
<polygon fill="#191970" stroke="#191970" points="190.3742,-193.052 181.1461,-187.8469 185.1141,-197.6707 190.3742,-193.052"/>
</g>
<!-- Node15 -->
<g id="node15" class="node">
<title>Node15</title>
<g id="a_node15"><a xlink:href="poll_8h.html" target="_top" xlink:title=" ">
<polygon fill="#ffffff" stroke="#000000" points="400.5,-168.5 400.5,-187.5 444.5,-187.5 444.5,-168.5 400.5,-168.5"/>
<text text-anchor="middle" x="422.5" y="-175.5" font-family="Helvetica,sans-Serif" font-size="10.00" fill="#000000">poll.h</text>
</a>
</g>
</g>
<!-- Node1&#45;&gt;Node15 -->
<g id="edge23" class="edge">
<title>Node1&#45;&gt;Node15</title>
<path fill="none" stroke="#191970" d="M275.2719,-224.4105C305.8924,-214.9064 346.4513,-202.2625 390.6963,-188.2366"/>
<polygon fill="#191970" stroke="#191970" points="392.0201,-191.4886 400.4928,-185.1276 389.9025,-184.8166 392.0201,-191.4886"/>
</g>
<!-- Node4 -->
<g id="node4" class="node">
<title>Node4</title>
<g id="a_node4"><a xlink:href="types_8h.html" target="_top" xlink:title=" ">
<polygon fill="#ffffff" stroke="#000000" points="276,-56.5 276,-75.5 329,-75.5 329,-56.5 276,-56.5"/>
<text text-anchor="middle" x="302.5" y="-63.5" font-family="Helvetica,sans-Serif" font-size="10.00" fill="#000000">types.h</text>
</a>
</g>
</g>
<!-- Node3&#45;&gt;Node4 -->
<g id="edge3" class="edge">
<title>Node3&#45;&gt;Node4</title>
<path fill="none" stroke="#191970" d="M47.1971,-114.4337C50.3101,-113.5533 53.4705,-112.7158 56.5,-112 145.5978,-90.9497 172.3323,-96.3001 265.952,-75.922"/>
<polygon fill="#191970" stroke="#191970" points="266.8345,-79.3114 275.8395,-73.7293 265.3189,-72.4774 266.8345,-79.3114"/>
</g>
<!-- Node5 -->
<g id="node5" class="node">
<title>Node5</title>
<g id="a_node5"><a xlink:title=" ">
<polygon fill="#ffffff" stroke="#bfbfbf" points="270.5,-.5 270.5,-19.5 326.5,-19.5 326.5,-.5 270.5,-.5"/>
<text text-anchor="middle" x="298.5" y="-7.5" font-family="Helvetica,sans-Serif" font-size="10.00" fill="#000000">stddef.h</text>
</a>
</g>
</g>
<!-- Node4&#45;&gt;Node5 -->
<g id="edge4" class="edge">
<title>Node4&#45;&gt;Node5</title>
<path fill="none" stroke="#191970" d="M301.8033,-56.2455C301.2813,-48.9382 300.5496,-38.6944 299.9075,-29.7046"/>
<polygon fill="#191970" stroke="#191970" points="303.3924,-29.3679 299.1888,-19.6427 296.4102,-29.8667 303.3924,-29.3679"/>
</g>
<!-- Node6 -->
<g id="node6" class="node">
<title>Node6</title>
<g id="a_node6"><a xlink:href="tamtypes_8h.html" target="_top" xlink:title=" ">
<polygon fill="#ffffff" stroke="#000000" points="344.5,-.5 344.5,-19.5 416.5,-19.5 416.5,-.5 344.5,-.5"/>
<text text-anchor="middle" x="380.5" y="-7.5" font-family="Helvetica,sans-Serif" font-size="10.00" fill="#000000">tamtypes.h</text>
</a>
</g>
</g>
<!-- Node4&#45;&gt;Node6 -->
<g id="edge5" class="edge">
<title>Node4&#45;&gt;Node6</title>
<path fill="none" stroke="#191970" d="M316.0866,-56.2455C327.8305,-47.814 345.0199,-35.4729 358.6882,-25.6598"/>
<polygon fill="#191970" stroke="#191970" points="360.9871,-28.3179 367.0691,-19.6427 356.9046,-22.6316 360.9871,-28.3179"/>
</g>
<!-- Node7&#45;&gt;Node4 -->
<g id="edge7" class="edge">
<title>Node7&#45;&gt;Node4</title>
<path fill="none" stroke="#191970" d="M283.5063,-112.2455C286.5735,-104.7776 290.9003,-94.2427 294.6497,-85.1137"/>
<polygon fill="#191970" stroke="#191970" points="297.9779,-86.2226 298.5396,-75.6427 291.5028,-83.5631 297.9779,-86.2226"/>
</g>
<!-- Node8&#45;&gt;Node7 -->
<g id="edge10" class="edge">
<title>Node8&#45;&gt;Node7</title>
<path fill="none" stroke="#191970" d="M279.5,-168.2455C279.5,-160.9382 279.5,-150.6944 279.5,-141.7046"/>
<polygon fill="#191970" stroke="#191970" points="283.0001,-141.6426 279.5,-131.6427 276.0001,-141.6427 283.0001,-141.6426"/>
</g>
<!-- Node9 -->
<g id="node9" class="node">
<title>Node9</title>
<g id="a_node9"><a xlink:title=" ">
<polygon fill="#ffffff" stroke="#bfbfbf" points="316.5,-112.5 316.5,-131.5 372.5,-131.5 372.5,-112.5 316.5,-112.5"/>
<text text-anchor="middle" x="344.5" y="-119.5" font-family="Helvetica,sans-Serif" font-size="10.00" fill="#000000">stdarg.h</text>
</a>
</g>
</g>
<!-- Node8&#45;&gt;Node9 -->
<g id="edge9" class="edge">
<title>Node8&#45;&gt;Node9</title>
<path fill="none" stroke="#191970" d="M290.8221,-168.2455C300.4223,-159.9746 314.3892,-147.9416 325.6695,-138.2232"/>
<polygon fill="#191970" stroke="#191970" points="328.016,-140.8214 333.3076,-131.6427 323.447,-135.5182 328.016,-140.8214"/>
</g>
<!-- Node10&#45;&gt;Node4 -->
<g id="edge12" class="edge">
<title>Node10&#45;&gt;Node4</title>
<path fill="none" stroke="#191970" d="M362.4425,-168.2871C374.6546,-155.1308 392.4786,-131.0967 381.5,-112 372.1766,-95.7824 354.6917,-84.7472 338.5371,-77.5602"/>
<polygon fill="#191970" stroke="#191970" points="339.8318,-74.3084 329.251,-73.7632 337.1825,-80.7877 339.8318,-74.3084"/>
</g>
<!-- Node10&#45;&gt;Node7 -->
<g id="edge13" class="edge">
<title>Node10&#45;&gt;Node7</title>
<path fill="none" stroke="#191970" d="M339.7844,-168.2455C328.898,-159.8943 313.0117,-147.7076 300.28,-137.9408"/>
<polygon fill="#191970" stroke="#191970" points="302.1346,-134.9523 292.0699,-131.6427 297.8739,-140.5063 302.1346,-134.9523"/>
</g>
<!-- Node10&#45;&gt;Node9 -->
<g id="edge14" class="edge">
<title>Node10&#45;&gt;Node9</title>
<path fill="none" stroke="#191970" d="M351.1065,-168.2455C350.0626,-160.9382 348.5992,-150.6944 347.3149,-141.7046"/>
<polygon fill="#191970" stroke="#191970" points="350.7566,-141.0472 345.8775,-131.6427 343.827,-142.0372 350.7566,-141.0472"/>
</g>
<!-- Node11 -->
<g id="node11" class="node">
<title>Node11</title>
<g id="a_node11"><a xlink:href="setjmp_8h.html" target="_top" xlink:title=" ">
<polygon fill="#ffffff" stroke="#000000" points="380,-56.5 380,-75.5 439,-75.5 439,-56.5 380,-56.5"/>
<text text-anchor="middle" x="409.5" y="-63.5" font-family="Helvetica,sans-Serif" font-size="10.00" fill="#000000">setjmp.h</text>
</a>
</g>
</g>
<!-- Node10&#45;&gt;Node11 -->
<g id="edge15" class="edge">
<title>Node10&#45;&gt;Node11</title>
<path fill="none" stroke="#191970" d="M364.9556,-168.4386C375.0689,-159.9767 388.8623,-146.7126 396.5,-132 403.9826,-117.5861 407.172,-99.3565 408.5244,-85.71"/>
<polygon fill="#191970" stroke="#191970" points="412.0316,-85.7411 409.2823,-75.5092 405.0509,-85.2223 412.0316,-85.7411"/>
</g>
<!-- Node11&#45;&gt;Node6 -->
<g id="edge16" class="edge">
<title>Node11&#45;&gt;Node6</title>
<path fill="none" stroke="#191970" d="M404.4486,-56.2455C400.4981,-48.617 394.8903,-37.7881 390.0942,-28.5267"/>
<polygon fill="#191970" stroke="#191970" points="393.2001,-26.9131 385.4935,-19.6427 386.9841,-30.1321 393.2001,-26.9131"/>
</g>
<!-- Node12&#45;&gt;Node2 -->
<g id="edge18" class="edge">
<title>Node12&#45;&gt;Node2</title>
<path fill="none" stroke="#191970" d="M158.3909,-168.2455C146.0791,-159.7337 128.0042,-147.2375 113.7462,-137.3801"/>
<polygon fill="#191970" stroke="#191970" points="115.6634,-134.4506 105.4474,-131.6427 111.6826,-140.2085 115.6634,-134.4506"/>
</g>
<!-- Node12&#45;&gt;Node7 -->
<g id="edge19" class="edge">
<title>Node12&#45;&gt;Node7</title>
<path fill="none" stroke="#191970" d="M191.138,-168.2455C207.9386,-159.4527 232.8634,-146.4079 251.9618,-136.4125"/>
<polygon fill="#191970" stroke="#191970" points="253.8386,-139.3807 261.0756,-131.6427 250.5927,-133.1787 253.8386,-139.3807"/>
</g>
<!-- Node13 -->
<g id="node13" class="node">
<title>Node13</title>
<g id="a_node13"><a xlink:href="tcpip_8h.html" target="_top" xlink:title=" ">
<polygon fill="#ffffff" stroke="#000000" points="207.5,-56.5 207.5,-75.5 257.5,-75.5 257.5,-56.5 207.5,-56.5"/>
<text text-anchor="middle" x="232.5" y="-63.5" font-family="Helvetica,sans-Serif" font-size="10.00" fill="#000000">tcpip.h</text>
</a>
</g>
</g>
<!-- Node12&#45;&gt;Node13 -->
<g id="edge20" class="edge">
<title>Node12&#45;&gt;Node13</title>
<path fill="none" stroke="#191970" d="M183.4128,-168.4423C192.6638,-159.785 205.6451,-146.2377 213.5,-132 221.4198,-117.6447 226.3132,-99.67 229.1465,-86.1053"/>
<polygon fill="#191970" stroke="#191970" points="232.6526,-86.3993 231.0632,-75.9244 225.7734,-85.1042 232.6526,-86.3993"/>
</g>
<!-- Node14 -->
<g id="node14" class="node">
<title>Node14</title>
<g id="a_node14"><a xlink:href="time_8h.html" target="_top" xlink:title=" ">
<polygon fill="#ffffff" stroke="#000000" points="136.5,-112.5 136.5,-131.5 204.5,-131.5 204.5,-112.5 136.5,-112.5"/>
<text text-anchor="middle" x="170.5" y="-119.5" font-family="Helvetica,sans-Serif" font-size="10.00" fill="#000000">sys/time.h</text>
</a>
</g>
</g>
<!-- Node12&#45;&gt;Node14 -->
<g id="edge22" class="edge">
<title>Node12&#45;&gt;Node14</title>
<path fill="none" stroke="#191970" d="M172.1516,-168.2455C171.8907,-160.9382 171.5248,-150.6944 171.2037,-141.7046"/>
<polygon fill="#191970" stroke="#191970" points="174.6992,-141.5113 170.8444,-131.6427 167.7036,-141.7613 174.6992,-141.5113"/>
</g>
<!-- Node13&#45;&gt;Node6 -->
<g id="edge21" class="edge">
<title>Node13&#45;&gt;Node6</title>
<path fill="none" stroke="#191970" d="M257.6062,-56.5004C281.8449,-47.329 318.7514,-33.3643 345.7951,-23.1316"/>
<polygon fill="#191970" stroke="#191970" points="347.1564,-26.3587 355.2707,-19.5462 344.6791,-19.8117 347.1564,-26.3587"/>
</g>
</g>
</svg>
