<?xml version="1.0" encoding="UTF-8" standalone="no"?>
<!DOCTYPE svg PUBLIC "-//W3C//DTD SVG 1.1//EN"
 "http://www.w3.org/Graphics/SVG/1.1/DTD/svg11.dtd">
<!-- Generated by graphviz version 2.40.1 (20161225.0304)
 -->
<!-- Title: iop/dev9/poweroff/include/poweroff.h Pages: 1 -->
<svg width="157pt" height="207pt"
 viewBox="0.00 0.00 156.50 207.00" xmlns="http://www.w3.org/2000/svg" xmlns:xlink="http://www.w3.org/1999/xlink">
<g id="graph0" class="graph" transform="scale(1 1) rotate(0) translate(4 203)">
<title>iop/dev9/poweroff/include/poweroff.h</title>
<polygon fill="#ffffff" stroke="transparent" points="-4,4 -4,-203 152.5,-203 152.5,4 -4,4"/>
<!-- Node1 -->
<g id="node1" class="node">
<title>Node1</title>
<g id="a_node1"><a xlink:title=" ">
<polygon fill="#bfbfbf" stroke="#000000" points="0,-168.5 0,-198.5 143,-198.5 143,-168.5 0,-168.5"/>
<text text-anchor="start" x="8" y="-186.5" font-family="Helvetica,sans-Serif" font-size="10.00" fill="#000000">iop/dev9/poweroff/include</text>
<text text-anchor="middle" x="71.5" y="-175.5" font-family="Helvetica,sans-Serif" font-size="10.00" fill="#000000">/poweroff.h</text>
</a>
</g>
</g>
<!-- Node2 -->
<g id="node2" class="node">
<title>Node2</title>
<g id="a_node2"><a xlink:href="irx_8h.html" target="_top" xlink:title=" ">
<polygon fill="#ffffff" stroke="#000000" points="52.5,-112.5 52.5,-131.5 90.5,-131.5 90.5,-112.5 52.5,-112.5"/>
<text text-anchor="middle" x="71.5" y="-119.5" font-family="Helvetica,sans-Serif" font-size="10.00" fill="#000000">irx.h</text>
</a>
</g>
</g>
<!-- Node1&#45;&gt;Node2 -->
<g id="edge1" class="edge">
<title>Node1&#45;&gt;Node2</title>
<path fill="none" stroke="#191970" d="M71.5,-168.2977C71.5,-160.3834 71.5,-150.6043 71.5,-142.0759"/>
<polygon fill="#191970" stroke="#191970" points="75.0001,-141.8469 71.5,-131.8469 68.0001,-141.847 75.0001,-141.8469"/>
</g>
<!-- Node3 -->
<g id="node3" class="node">
<title>Node3</title>
<g id="a_node3"><a xlink:href="types_8h.html" target="_top" xlink:title=" ">
<polygon fill="#ffffff" stroke="#000000" points="45,-56.5 45,-75.5 98,-75.5 98,-56.5 45,-56.5"/>
<text text-anchor="middle" x="71.5" y="-63.5" font-family="Helvetica,sans-Serif" font-size="10.00" fill="#000000">types.h</text>
</a>
</g>
</g>
<!-- Node2&#45;&gt;Node3 -->
<g id="edge2" class="edge">
<title>Node2&#45;&gt;Node3</title>
<path fill="none" stroke="#191970" d="M71.5,-112.2455C71.5,-104.9382 71.5,-94.6944 71.5,-85.7046"/>
<polygon fill="#191970" stroke="#191970" points="75.0001,-85.6426 71.5,-75.6427 68.0001,-85.6427 75.0001,-85.6426"/>
</g>
<!-- Node4 -->
<g id="node4" class="node">
<title>Node4</title>
<g id="a_node4"><a xlink:title=" ">
<polygon fill="#ffffff" stroke="#bfbfbf" points="2.5,-.5 2.5,-19.5 58.5,-19.5 58.5,-.5 2.5,-.5"/>
<text text-anchor="middle" x="30.5" y="-7.5" font-family="Helvetica,sans-Serif" font-size="10.00" fill="#000000">stddef.h</text>
</a>
</g>
</g>
<!-- Node3&#45;&gt;Node4 -->
<g id="edge3" class="edge">
<title>Node3&#45;&gt;Node4</title>
<path fill="none" stroke="#191970" d="M64.3583,-56.2455C58.6556,-48.4564 50.51,-37.3308 43.6375,-27.9439"/>
<polygon fill="#191970" stroke="#191970" points="46.2913,-25.6437 37.5598,-19.6427 40.6432,-29.7789 46.2913,-25.6437"/>
</g>
<!-- Node5 -->
<g id="node5" class="node">
<title>Node5</title>
<g id="a_node5"><a xlink:href="tamtypes_8h.html" target="_top" xlink:title=" ">
<polygon fill="#ffffff" stroke="#000000" points="76.5,-.5 76.5,-19.5 148.5,-19.5 148.5,-.5 76.5,-.5"/>
<text text-anchor="middle" x="112.5" y="-7.5" font-family="Helvetica,sans-Serif" font-size="10.00" fill="#000000">tamtypes.h</text>
</a>
</g>
</g>
<!-- Node3&#45;&gt;Node5 -->
<g id="edge4" class="edge">
<title>Node3&#45;&gt;Node5</title>
<path fill="none" stroke="#191970" d="M78.6417,-56.2455C84.3444,-48.4564 92.49,-37.3308 99.3625,-27.9439"/>
<polygon fill="#191970" stroke="#191970" points="102.3568,-29.7789 105.4402,-19.6427 96.7087,-25.6437 102.3568,-29.7789"/>
</g>
</g>
</svg>
