<?xml version="1.0" encoding="UTF-8" standalone="no"?>
<!DOCTYPE svg PUBLIC "-//W3C//DTD SVG 1.1//EN"
 "http://www.w3.org/Graphics/SVG/1.1/DTD/svg11.dtd">
<!-- Generated by graphviz version 2.40.1 (20161225.0304)
 -->
<!-- Title: iop/dev9/poweroff/src/poweroff.c Pages: 1 -->
<!--zoomable 263 -->
<svg id="main" version="1.1" xmlns="http://www.w3.org/2000/svg" xmlns:xlink="http://www.w3.org/1999/xlink" xml:space="preserve" onload="init(evt)">
<style type="text/css"><![CDATA[
.edge:hover path { stroke: red; }
.edge:hover polygon { stroke: red; fill: red; }
]]></style>
<script type="text/javascript"><![CDATA[
var edges = document.getElementsByTagName('g');
if (edges && edges.length) {
  for (var i=0;i<edges.length;i++) {
    if (edges[i].id.substr(0,4)=='edge') {
      edges[i].setAttribute('class','edge');
    }
  }
}
]]></script>
        <defs>
                <circle id="rim" cx="0" cy="0" r="7"/>
                <circle id="rim2" cx="0" cy="0" r="3.5"/>
                <g id="zoomPlus">
                        <use xlink:href="#rim" fill="#404040">
                                <set attributeName="fill" to="#808080" begin="zoomplus.mouseover" end="zoomplus.mouseout"/>
                        </use>
                        <path d="M-4,0h8M0,-4v8" fill="none" stroke="white" stroke-width="1.5" pointer-events="none"/>
                </g>
                <g id="zoomMin">
                        <use xlink:href="#rim" fill="#404040">
                                <set attributeName="fill" to="#808080" begin="zoomminus.mouseover" end="zoomminus.mouseout"/>
                        </use>
                        <path d="M-4,0h8" fill="none" stroke="white" stroke-width="1.5" pointer-events="none"/>
                </g>
                <g id="dirArrow">
                        <path fill="none" stroke="white" stroke-width="1.5" d="M0,-3.0v7 M-2.5,-0.5L0,-3.0L2.5,-0.5"/>
                </g>
               <g id="resetDef">
                       <use xlink:href="#rim2" fill="#404040">
                               <set attributeName="fill" to="#808080" begin="reset.mouseover" end="reset.mouseout"/>
                       </use>
               </g>
        </defs>

<script type="text/javascript">
var viewWidth = 960;
var viewHeight = 263;
var sectionId = 'dynsection-0';
</script>
<script xlink:href="svgpan.js"/>
<svg id="graph" class="graph">
<g id="viewport">
<title>iop/dev9/poweroff/src/poweroff.c</title>
<polygon fill="#ffffff" stroke="transparent" points="-4,4 -4,-259 956,-259 956,4 -4,4"/>
<!-- Node1 -->
<g id="node1" class="node">
<title>Node1</title>
<g id="a_node1"><a xlink:title=" ">
<polygon fill="#bfbfbf" stroke="#000000" points="415.5,-224.5 415.5,-254.5 537.5,-254.5 537.5,-224.5 415.5,-224.5"/>
<text text-anchor="start" x="423.5" y="-242.5" font-family="Helvetica,sans-Serif" font-size="10.00" fill="#000000">iop/dev9/poweroff/src</text>
<text text-anchor="middle" x="476.5" y="-231.5" font-family="Helvetica,sans-Serif" font-size="10.00" fill="#000000">/poweroff.c</text>
</a>
</g>
</g>
<!-- Node2 -->
<g id="node2" class="node">
<title>Node2</title>
<g id="a_node2"><a xlink:title=" ">
<polygon fill="#ffffff" stroke="#bfbfbf" points="0,-168.5 0,-187.5 53,-187.5 53,-168.5 0,-168.5"/>
<text text-anchor="middle" x="26.5" y="-175.5" font-family="Helvetica,sans-Serif" font-size="10.00" fill="#000000">types.h</text>
</a>
</g>
</g>
<!-- Node1&#45;&gt;Node2 -->
<g id="edge1" class="edge">
<title>Node1&#45;&gt;Node2</title>
<path fill="none" stroke="#191970" d="M415.1932,-234.88C335.8566,-228.2394 193.2906,-214.059 63.282,-188.1248"/>
<polygon fill="#191970" stroke="#191970" points="63.6435,-184.627 53.1479,-186.0738 62.2549,-191.4879 63.6435,-184.627"/>
</g>
<!-- Node3 -->
<g id="node3" class="node">
<title>Node3</title>
<g id="a_node3"><a xlink:href="defs_8h.html" target="_top" xlink:title=" ">
<polygon fill="#ffffff" stroke="#000000" points="797,-112.5 797,-131.5 844,-131.5 844,-112.5 797,-112.5"/>
<text text-anchor="middle" x="820.5" y="-119.5" font-family="Helvetica,sans-Serif" font-size="10.00" fill="#000000">defs.h</text>
</a>
</g>
</g>
<!-- Node1&#45;&gt;Node3 -->
<g id="edge2" class="edge">
<title>Node1&#45;&gt;Node3</title>
<path fill="none" stroke="#191970" d="M537.8357,-234.8193C633.3934,-226.8978 808.852,-209.5838 827.5,-188 838.4113,-175.371 834.7346,-155.9046 829.4845,-141.3808"/>
<polygon fill="#191970" stroke="#191970" points="832.606,-139.7682 825.5697,-131.8473 826.1307,-142.4272 832.606,-139.7682"/>
</g>
<!-- Node7 -->
<g id="node7" class="node">
<title>Node7</title>
<g id="a_node7"><a xlink:href="irx_8h.html" target="_top" xlink:title=" ">
<polygon fill="#ffffff" stroke="#000000" points="457.5,-112.5 457.5,-131.5 495.5,-131.5 495.5,-112.5 457.5,-112.5"/>
<text text-anchor="middle" x="476.5" y="-119.5" font-family="Helvetica,sans-Serif" font-size="10.00" fill="#000000">irx.h</text>
</a>
</g>
</g>
<!-- Node1&#45;&gt;Node7 -->
<g id="edge6" class="edge">
<title>Node1&#45;&gt;Node7</title>
<path fill="none" stroke="#191970" d="M476.5,-224.1389C476.5,-202.9692 476.5,-164.8174 476.5,-141.6112"/>
<polygon fill="#191970" stroke="#191970" points="480.0001,-141.5594 476.5,-131.5595 473.0001,-141.5595 480.0001,-141.5594"/>
</g>
<!-- Node8 -->
<g id="node8" class="node">
<title>Node8</title>
<g id="a_node8"><a xlink:href="loadcore_8h.html" target="_top" xlink:title=" ">
<polygon fill="#ffffff" stroke="#000000" points="750.5,-168.5 750.5,-187.5 818.5,-187.5 818.5,-168.5 750.5,-168.5"/>
<text text-anchor="middle" x="784.5" y="-175.5" font-family="Helvetica,sans-Serif" font-size="10.00" fill="#000000">loadcore.h</text>
</a>
</g>
</g>
<!-- Node1&#45;&gt;Node8 -->
<g id="edge8" class="edge">
<title>Node1&#45;&gt;Node8</title>
<path fill="none" stroke="#191970" d="M537.676,-228.2677C589.1584,-218.6654 664.9726,-204.1768 740.1393,-188.2376"/>
<polygon fill="#191970" stroke="#191970" points="741.2063,-191.5889 750.2577,-186.0822 739.7479,-184.7425 741.2063,-191.5889"/>
</g>
<!-- Node9 -->
<g id="node9" class="node">
<title>Node9</title>
<g id="a_node9"><a xlink:href="sysmem_8h.html" target="_top" xlink:title=" ">
<polygon fill="#ffffff" stroke="#000000" points="148.5,-168.5 148.5,-187.5 216.5,-187.5 216.5,-168.5 148.5,-168.5"/>
<text text-anchor="middle" x="182.5" y="-175.5" font-family="Helvetica,sans-Serif" font-size="10.00" fill="#000000">sysmem.h</text>
</a>
</g>
</g>
<!-- Node1&#45;&gt;Node9 -->
<g id="edge11" class="edge">
<title>Node1&#45;&gt;Node9</title>
<path fill="none" stroke="#191970" d="M415.286,-227.4048C366.6912,-217.6965 296.7657,-203.4915 226.643,-188.2126"/>
<polygon fill="#191970" stroke="#191970" points="227.2661,-184.7662 216.7493,-186.0499 225.7712,-191.6048 227.2661,-184.7662"/>
</g>
<!-- Node11 -->
<g id="node11" class="node">
<title>Node11</title>
<g id="a_node11"><a xlink:href="stdio_8h.html" target="_top" xlink:title=" ">
<polygon fill="#ffffff" stroke="#000000" points="234.5,-168.5 234.5,-187.5 284.5,-187.5 284.5,-168.5 234.5,-168.5"/>
<text text-anchor="middle" x="259.5" y="-175.5" font-family="Helvetica,sans-Serif" font-size="10.00" fill="#000000">stdio.h</text>
</a>
</g>
</g>
<!-- Node1&#45;&gt;Node11 -->
<g id="edge15" class="edge">
<title>Node1&#45;&gt;Node11</title>
<path fill="none" stroke="#191970" d="M423.1328,-224.4374C386.8534,-214.1882 337.7726,-200.3041 294.5,-188 294.4012,-187.9719 294.3023,-187.9438 294.2032,-187.9156"/>
<polygon fill="#191970" stroke="#191970" points="295.3092,-184.5915 284.7328,-185.2177 293.3912,-191.3236 295.3092,-184.5915"/>
</g>
<!-- Node12 -->
<g id="node12" class="node">
<title>Node12</title>
<g id="a_node12"><a xlink:href="sysclib_8h.html" target="_top" xlink:title=" ">
<polygon fill="#ffffff" stroke="#000000" points="71,-168.5 71,-187.5 130,-187.5 130,-168.5 71,-168.5"/>
<text text-anchor="middle" x="100.5" y="-175.5" font-family="Helvetica,sans-Serif" font-size="10.00" fill="#000000">sysclib.h</text>
</a>
</g>
</g>
<!-- Node1&#45;&gt;Node12 -->
<g id="edge18" class="edge">
<title>Node1&#45;&gt;Node12</title>
<path fill="none" stroke="#191970" d="M415.2973,-232.0067C349.6406,-223.5503 242.1624,-208.5057 140.0986,-187.9559"/>
<polygon fill="#191970" stroke="#191970" points="140.7371,-184.5141 130.24,-185.95 139.3414,-191.3736 140.7371,-184.5141"/>
</g>
<!-- Node14 -->
<g id="node14" class="node">
<title>Node14</title>
<g id="a_node14"><a xlink:href="sifcmd_8h.html" target="_top" xlink:title=" ">
<polygon fill="#ffffff" stroke="#000000" points="303,-168.5 303,-187.5 362,-187.5 362,-168.5 303,-168.5"/>
<text text-anchor="middle" x="332.5" y="-175.5" font-family="Helvetica,sans-Serif" font-size="10.00" fill="#000000">sifcmd.h</text>
</a>
</g>
</g>
<!-- Node1&#45;&gt;Node14 -->
<g id="edge24" class="edge">
<title>Node1&#45;&gt;Node14</title>
<path fill="none" stroke="#191970" d="M441.2736,-224.4554C417.6684,-214.374 386.8546,-201.2139 364.0524,-191.4755"/>
<polygon fill="#191970" stroke="#191970" points="365.386,-188.2393 354.8149,-187.5303 362.6366,-194.6767 365.386,-188.2393"/>
</g>
<!-- Node15 -->
<g id="node15" class="node">
<title>Node15</title>
<g id="a_node15"><a xlink:href="thbase_8h.html" target="_top" xlink:title=" ">
<polygon fill="#ffffff" stroke="#000000" points="505,-168.5 505,-187.5 564,-187.5 564,-168.5 505,-168.5"/>
<text text-anchor="middle" x="534.5" y="-175.5" font-family="Helvetica,sans-Serif" font-size="10.00" fill="#000000">thbase.h</text>
</a>
</g>
</g>
<!-- Node1&#45;&gt;Node15 -->
<g id="edge27" class="edge">
<title>Node1&#45;&gt;Node15</title>
<path fill="none" stroke="#191970" d="M490.8371,-224.2977C499.1397,-215.4941 509.6182,-204.3833 518.2289,-195.2529"/>
<polygon fill="#191970" stroke="#191970" points="520.8987,-197.5234 525.2135,-187.8469 515.8061,-192.7206 520.8987,-197.5234"/>
</g>
<!-- Node16 -->
<g id="node16" class="node">
<title>Node16</title>
<g id="a_node16"><a xlink:href="intrman_8h.html" target="_top" xlink:title=" ">
<polygon fill="#ffffff" stroke="#000000" points="582.5,-168.5 582.5,-187.5 646.5,-187.5 646.5,-168.5 582.5,-168.5"/>
<text text-anchor="middle" x="614.5" y="-175.5" font-family="Helvetica,sans-Serif" font-size="10.00" fill="#000000">intrman.h</text>
</a>
</g>
</g>
<!-- Node1&#45;&gt;Node16 -->
<g id="edge30" class="edge">
<title>Node1&#45;&gt;Node16</title>
<path fill="none" stroke="#191970" d="M510.2586,-224.4554C532.7793,-214.419 562.1467,-201.3314 583.9692,-191.6061"/>
<polygon fill="#191970" stroke="#191970" points="585.4056,-194.7979 593.1149,-187.5303 582.5561,-188.4041 585.4056,-194.7979"/>
</g>
<!-- Node17 -->
<g id="node17" class="node">
<title>Node17</title>
<g id="a_node17"><a xlink:href="thsemap_8h.html" target="_top" xlink:title=" ">
<polygon fill="#ffffff" stroke="#000000" points="664.5,-168.5 664.5,-187.5 732.5,-187.5 732.5,-168.5 664.5,-168.5"/>
<text text-anchor="middle" x="698.5" y="-175.5" font-family="Helvetica,sans-Serif" font-size="10.00" fill="#000000">thsemap.h</text>
</a>
</g>
</g>
<!-- Node1&#45;&gt;Node17 -->
<g id="edge33" class="edge">
<title>Node1&#45;&gt;Node17</title>
<path fill="none" stroke="#191970" d="M530.8073,-224.4554C568.7777,-213.9366 618.8467,-200.0661 654.3609,-190.2277"/>
<polygon fill="#191970" stroke="#191970" points="655.7243,-193.4819 664.4269,-187.4392 653.8554,-186.736 655.7243,-193.4819"/>
</g>
<!-- Node18 -->
<g id="node18" class="node">
<title>Node18</title>
<g id="a_node18"><a xlink:href="poweroff_8h.html" target="_top" xlink:title=" ">
<polygon fill="#ffffff" stroke="#000000" points="380.5,-168.5 380.5,-187.5 448.5,-187.5 448.5,-168.5 380.5,-168.5"/>
<text text-anchor="middle" x="414.5" y="-175.5" font-family="Helvetica,sans-Serif" font-size="10.00" fill="#000000">poweroff.h</text>
</a>
</g>
</g>
<!-- Node1&#45;&gt;Node18 -->
<g id="edge36" class="edge">
<title>Node1&#45;&gt;Node18</title>
<path fill="none" stroke="#191970" d="M461.1742,-224.2977C452.2093,-215.4052 440.8712,-204.1586 431.6149,-194.9769"/>
<polygon fill="#191970" stroke="#191970" points="433.9915,-192.4045 424.427,-187.8469 429.0618,-197.3742 433.9915,-192.4045"/>
</g>
<!-- Node19 -->
<g id="node19" class="node">
<title>Node19</title>
<g id="a_node19"><a xlink:href="pwroff__rpc_8h.html" target="_top" xlink:title=" ">
<polygon fill="#ffffff" stroke="#000000" points="875,-168.5 875,-187.5 952,-187.5 952,-168.5 875,-168.5"/>
<text text-anchor="middle" x="913.5" y="-175.5" font-family="Helvetica,sans-Serif" font-size="10.00" fill="#000000">pwroff_rpc.h</text>
</a>
</g>
</g>
<!-- Node1&#45;&gt;Node19 -->
<g id="edge38" class="edge">
<title>Node1&#45;&gt;Node19</title>
<path fill="none" stroke="#191970" d="M537.5009,-232.3346C613.37,-223.1891 746.7807,-206.3406 860.5,-188 861.9444,-187.767 863.41,-187.5253 864.8887,-187.2766"/>
<polygon fill="#191970" stroke="#191970" points="865.5042,-190.7222 874.7544,-185.5565 864.3018,-183.8262 865.5042,-190.7222"/>
</g>
<!-- Node4 -->
<g id="node4" class="node">
<title>Node4</title>
<g id="a_node4"><a xlink:href="types_8h.html" target="_top" xlink:title=" ">
<polygon fill="#ffffff" stroke="#000000" points="476,-56.5 476,-75.5 529,-75.5 529,-56.5 476,-56.5"/>
<text text-anchor="middle" x="502.5" y="-63.5" font-family="Helvetica,sans-Serif" font-size="10.00" fill="#000000">types.h</text>
</a>
</g>
</g>
<!-- Node3&#45;&gt;Node4 -->
<g id="edge3" class="edge">
<title>Node3&#45;&gt;Node4</title>
<path fill="none" stroke="#191970" d="M796.8581,-117.8366C741.9326,-108.1642 605.3763,-84.1166 539.3739,-72.4935"/>
<polygon fill="#191970" stroke="#191970" points="539.8656,-69.0263 529.4101,-70.7389 538.6515,-75.9202 539.8656,-69.0263"/>
</g>
<!-- Node5 -->
<g id="node5" class="node">
<title>Node5</title>
<g id="a_node5"><a xlink:title=" ">
<polygon fill="#ffffff" stroke="#bfbfbf" points="474.5,-.5 474.5,-19.5 530.5,-19.5 530.5,-.5 474.5,-.5"/>
<text text-anchor="middle" x="502.5" y="-7.5" font-family="Helvetica,sans-Serif" font-size="10.00" fill="#000000">stddef.h</text>
</a>
</g>
</g>
<!-- Node4&#45;&gt;Node5 -->
<g id="edge4" class="edge">
<title>Node4&#45;&gt;Node5</title>
<path fill="none" stroke="#191970" d="M502.5,-56.2455C502.5,-48.9382 502.5,-38.6944 502.5,-29.7046"/>
<polygon fill="#191970" stroke="#191970" points="506.0001,-29.6426 502.5,-19.6427 499.0001,-29.6427 506.0001,-29.6426"/>
</g>
<!-- Node6 -->
<g id="node6" class="node">
<title>Node6</title>
<g id="a_node6"><a xlink:href="tamtypes_8h.html" target="_top" xlink:title=" ">
<polygon fill="#ffffff" stroke="#000000" points="312.5,-.5 312.5,-19.5 384.5,-19.5 384.5,-.5 312.5,-.5"/>
<text text-anchor="middle" x="348.5" y="-7.5" font-family="Helvetica,sans-Serif" font-size="10.00" fill="#000000">tamtypes.h</text>
</a>
</g>
</g>
<!-- Node4&#45;&gt;Node6 -->
<g id="edge5" class="edge">
<title>Node4&#45;&gt;Node6</title>
<path fill="none" stroke="#191970" d="M476.0265,-56.3733C450.6403,-47.1419 412.1355,-33.1402 384.078,-22.9375"/>
<polygon fill="#191970" stroke="#191970" points="385.2222,-19.6293 374.6281,-19.5011 382.8299,-26.2079 385.2222,-19.6293"/>
</g>
<!-- Node7&#45;&gt;Node4 -->
<g id="edge7" class="edge">
<title>Node7&#45;&gt;Node4</title>
<path fill="none" stroke="#191970" d="M481.0289,-112.2455C484.5334,-104.6973 489.4927,-94.0158 493.7623,-84.8197"/>
<polygon fill="#191970" stroke="#191970" points="496.9864,-86.1867 498.023,-75.6427 490.6373,-83.2389 496.9864,-86.1867"/>
</g>
<!-- Node8&#45;&gt;Node4 -->
<g id="edge9" class="edge">
<title>Node8&#45;&gt;Node4</title>
<path fill="none" stroke="#191970" d="M760.4568,-168.4509C710.0927,-148.4482 593.4242,-102.1117 535.8558,-79.2477"/>
<polygon fill="#191970" stroke="#191970" points="537.0681,-75.9633 526.4823,-75.5249 534.4842,-82.469 537.0681,-75.9633"/>
</g>
<!-- Node8&#45;&gt;Node7 -->
<g id="edge10" class="edge">
<title>Node8&#45;&gt;Node7</title>
<path fill="none" stroke="#191970" d="M750.2706,-169.8555C747.3088,-169.2067 744.3543,-168.5792 741.5,-168 656.1978,-150.692 554.6209,-134.2008 505.6952,-126.5133"/>
<polygon fill="#191970" stroke="#191970" points="505.9483,-123.0105 495.5277,-124.9236 504.867,-129.9264 505.9483,-123.0105"/>
</g>
<!-- Node9&#45;&gt;Node4 -->
<g id="edge12" class="edge">
<title>Node9&#45;&gt;Node4</title>
<path fill="none" stroke="#191970" d="M182.2591,-168.2353C182.4736,-153.6413 185.2004,-126.3269 201.5,-112 240.1168,-78.0571 393.8263,-69.1381 465.4337,-66.8119"/>
<polygon fill="#191970" stroke="#191970" points="465.8946,-70.2998 475.7858,-66.5033 465.6859,-63.3029 465.8946,-70.2998"/>
</g>
<!-- Node9&#45;&gt;Node7 -->
<g id="edge13" class="edge">
<title>Node9&#45;&gt;Node7</title>
<path fill="none" stroke="#191970" d="M216.7353,-169.8846C219.6959,-169.2295 222.6484,-168.5925 225.5,-168 305.3785,-151.4019 400.2207,-134.8799 447.1631,-126.9136"/>
<polygon fill="#191970" stroke="#191970" points="447.9544,-130.3296 457.2311,-125.2118 446.7876,-123.4275 447.9544,-130.3296"/>
</g>
<!-- Node10 -->
<g id="node10" class="node">
<title>Node10</title>
<g id="a_node10"><a xlink:title=" ">
<polygon fill="#ffffff" stroke="#bfbfbf" points="210.5,-112.5 210.5,-131.5 266.5,-131.5 266.5,-112.5 210.5,-112.5"/>
<text text-anchor="middle" x="238.5" y="-119.5" font-family="Helvetica,sans-Serif" font-size="10.00" fill="#000000">stdarg.h</text>
</a>
</g>
</g>
<!-- Node9&#45;&gt;Node10 -->
<g id="edge14" class="edge">
<title>Node9&#45;&gt;Node10</title>
<path fill="none" stroke="#191970" d="M192.2545,-168.2455C200.3648,-160.1352 212.0925,-148.4075 221.7081,-138.7919"/>
<polygon fill="#191970" stroke="#191970" points="224.2611,-141.1887 228.8573,-131.6427 219.3113,-136.2389 224.2611,-141.1887"/>
</g>
<!-- Node11&#45;&gt;Node7 -->
<g id="edge17" class="edge">
<title>Node11&#45;&gt;Node7</title>
<path fill="none" stroke="#191970" d="M284.7093,-170.6973C287.9986,-169.7738 291.3268,-168.8541 294.5,-168 348.3494,-153.5058 411.5225,-137.8367 447.498,-129.0386"/>
<polygon fill="#191970" stroke="#191970" points="448.4361,-132.4124 457.3215,-126.6417 446.7768,-125.6119 448.4361,-132.4124"/>
</g>
<!-- Node11&#45;&gt;Node10 -->
<g id="edge16" class="edge">
<title>Node11&#45;&gt;Node10</title>
<path fill="none" stroke="#191970" d="M255.8421,-168.2455C253.0416,-160.7776 249.091,-150.2427 245.6676,-141.1137"/>
<polygon fill="#191970" stroke="#191970" points="248.9045,-139.777 242.116,-131.6427 242.3501,-142.2349 248.9045,-139.777"/>
</g>
<!-- Node12&#45;&gt;Node4 -->
<g id="edge19" class="edge">
<title>Node12&#45;&gt;Node4</title>
<path fill="none" stroke="#191970" d="M109.3819,-168.4676C123.7946,-153.6645 153.8657,-125.4556 185.5,-112 235.3729,-90.7866 393.0672,-75.2099 465.4847,-68.984"/>
<polygon fill="#191970" stroke="#191970" points="465.8584,-72.4649 475.5275,-68.1337 465.2678,-65.4899 465.8584,-72.4649"/>
</g>
<!-- Node12&#45;&gt;Node7 -->
<g id="edge20" class="edge">
<title>Node12&#45;&gt;Node7</title>
<path fill="none" stroke="#191970" d="M130.2301,-170.0004C133.3489,-169.2741 136.4818,-168.5909 139.5,-168 252.4266,-145.8916 388.7045,-130.7871 447.3478,-124.8342"/>
<polygon fill="#191970" stroke="#191970" points="447.7701,-128.3095 457.3712,-123.8295 447.0719,-121.3444 447.7701,-128.3095"/>
</g>
<!-- Node12&#45;&gt;Node10 -->
<g id="edge21" class="edge">
<title>Node12&#45;&gt;Node10</title>
<path fill="none" stroke="#191970" d="M124.223,-168.3733C146.6737,-159.2629 180.5739,-145.5062 205.6255,-135.3404"/>
<polygon fill="#191970" stroke="#191970" points="207.1365,-138.5045 215.0865,-131.5011 204.5043,-132.0182 207.1365,-138.5045"/>
</g>
<!-- Node13 -->
<g id="node13" class="node">
<title>Node13</title>
<g id="a_node13"><a xlink:href="setjmp_8h.html" target="_top" xlink:title=" ">
<polygon fill="#ffffff" stroke="#000000" points="175,-56.5 175,-75.5 234,-75.5 234,-56.5 175,-56.5"/>
<text text-anchor="middle" x="204.5" y="-63.5" font-family="Helvetica,sans-Serif" font-size="10.00" fill="#000000">setjmp.h</text>
</a>
</g>
</g>
<!-- Node12&#45;&gt;Node13 -->
<g id="edge22" class="edge">
<title>Node12&#45;&gt;Node13</title>
<path fill="none" stroke="#191970" d="M102.384,-168.4702C105.524,-154.6608 112.9693,-128.895 127.5,-112 139.2721,-98.3124 156.1743,-87.5878 171.1454,-79.9499"/>
<polygon fill="#191970" stroke="#191970" points="172.675,-83.098 180.1544,-75.5941 169.628,-76.796 172.675,-83.098"/>
</g>
<!-- Node13&#45;&gt;Node6 -->
<g id="edge23" class="edge">
<title>Node13&#45;&gt;Node6</title>
<path fill="none" stroke="#191970" d="M229.2545,-56.3733C252.7849,-47.2226 288.3687,-33.3844 314.5426,-23.2057"/>
<polygon fill="#191970" stroke="#191970" points="316.0171,-26.3877 324.0685,-19.5011 313.4799,-19.8636 316.0171,-26.3877"/>
</g>
<!-- Node14&#45;&gt;Node4 -->
<g id="edge25" class="edge">
<title>Node14&#45;&gt;Node4</title>
<path fill="none" stroke="#191970" d="M346.9941,-168.4509C376.4772,-149.0268 443.6522,-104.7703 479.2927,-81.2895"/>
<polygon fill="#191970" stroke="#191970" points="481.6175,-83.9492 488.0426,-75.5249 477.7664,-78.1038 481.6175,-83.9492"/>
</g>
<!-- Node14&#45;&gt;Node7 -->
<g id="edge26" class="edge">
<title>Node14&#45;&gt;Node7</title>
<path fill="none" stroke="#191970" d="M357.2545,-168.3733C382.3536,-158.6125 421.1667,-143.5185 447.6456,-133.2212"/>
<polygon fill="#191970" stroke="#191970" points="449.0841,-136.4171 457.1356,-129.5306 446.547,-129.8931 449.0841,-136.4171"/>
</g>
<!-- Node15&#45;&gt;Node4 -->
<g id="edge28" class="edge">
<title>Node15&#45;&gt;Node4</title>
<path fill="none" stroke="#191970" d="M531.7717,-168.4509C526.5289,-150.1013 514.9545,-109.5908 508.0341,-85.3693"/>
<polygon fill="#191970" stroke="#191970" points="511.334,-84.1786 505.2214,-75.5249 504.6033,-86.1017 511.334,-84.1786"/>
</g>
<!-- Node15&#45;&gt;Node7 -->
<g id="edge29" class="edge">
<title>Node15&#45;&gt;Node7</title>
<path fill="none" stroke="#191970" d="M524.3972,-168.2455C515.9972,-160.1352 503.8506,-148.4075 493.8916,-138.7919"/>
<polygon fill="#191970" stroke="#191970" points="496.1122,-136.0707 486.4871,-131.6427 491.25,-141.1066 496.1122,-136.0707"/>
</g>
<!-- Node16&#45;&gt;Node4 -->
<g id="edge31" class="edge">
<title>Node16&#45;&gt;Node4</title>
<path fill="none" stroke="#191970" d="M604.9509,-168.4509C585.9401,-149.4401 543.1423,-106.6423 519.316,-82.816"/>
<polygon fill="#191970" stroke="#191970" points="521.5709,-80.1211 512.0249,-75.5249 516.6211,-85.0709 521.5709,-80.1211"/>
</g>
<!-- Node16&#45;&gt;Node7 -->
<g id="edge32" class="edge">
<title>Node16&#45;&gt;Node7</title>
<path fill="none" stroke="#191970" d="M590.777,-168.3733C567.1018,-158.7659 530.6938,-143.9917 505.3575,-133.7103"/>
<polygon fill="#191970" stroke="#191970" points="506.4909,-130.3931 495.9087,-129.876 503.8588,-136.8794 506.4909,-130.3931"/>
</g>
<!-- Node17&#45;&gt;Node4 -->
<g id="edge34" class="edge">
<title>Node17&#45;&gt;Node4</title>
<path fill="none" stroke="#191970" d="M681.7892,-168.4509C647.4352,-148.8201 568.6953,-103.8259 527.9576,-80.5472"/>
<polygon fill="#191970" stroke="#191970" points="529.5875,-77.4475 519.1686,-75.5249 526.1145,-83.5252 529.5875,-77.4475"/>
</g>
<!-- Node17&#45;&gt;Node7 -->
<g id="edge35" class="edge">
<title>Node17&#45;&gt;Node7</title>
<path fill="none" stroke="#191970" d="M664.299,-169.3727C620.775,-158.3937 546.3519,-139.6203 505.4834,-129.3111"/>
<polygon fill="#191970" stroke="#191970" points="506.1683,-125.8743 495.616,-126.822 504.4562,-132.6617 506.1683,-125.8743"/>
</g>
<!-- Node18&#45;&gt;Node7 -->
<g id="edge37" class="edge">
<title>Node18&#45;&gt;Node7</title>
<path fill="none" stroke="#191970" d="M425.2996,-168.2455C434.3678,-160.0549 447.5206,-148.1749 458.2245,-138.5069"/>
<polygon fill="#191970" stroke="#191970" points="460.7491,-140.9429 465.8242,-131.6427 456.0571,-135.7482 460.7491,-140.9429"/>
</g>
</g>
</svg>
        <g id="navigator" transform="translate(0 0)" fill="#404254">
                <rect fill="#f2f5e9" fill-opacity="0.5" stroke="#606060" stroke-width=".5" x="0" y="0" width="60" height="60"/>
                <use id="zoomplus" xlink:href="#zoomPlus" x="17" y="9" onmousedown="handleZoom(evt,'in')"/>
                <use id="zoomminus" xlink:href="#zoomMin" x="42" y="9" onmousedown="handleZoom(evt,'out')"/>
                <use id="reset" xlink:href="#resetDef" x="30" y="36" onmousedown="handleReset()"/>
                <g id="arrowUp" xlink:href="#dirArrow" transform="translate(30 24)" onmousedown="handlePan(0,-1)">
                  <use xlink:href="#rim" fill="#404040">
                        <set attributeName="fill" to="#808080" begin="arrowUp.mouseover" end="arrowUp.mouseout"/>
                  </use>
                  <path fill="none" stroke="white" stroke-width="1.5" d="M0,-3.0v7 M-2.5,-0.5L0,-3.0L2.5,-0.5"/>
                </g>
                <g id="arrowRight" xlink:href="#dirArrow" transform="rotate(90) translate(36 -43)" onmousedown="handlePan(1,0)">
                  <use xlink:href="#rim" fill="#404040">
                        <set attributeName="fill" to="#808080" begin="arrowRight.mouseover" end="arrowRight.mouseout"/>
                  </use>
                  <path fill="none" stroke="white" stroke-width="1.5" d="M0,-3.0v7 M-2.5,-0.5L0,-3.0L2.5,-0.5"/>
                </g>
                <g id="arrowDown" xlink:href="#dirArrow" transform="rotate(180) translate(-30 -48)" onmousedown="handlePan(0,1)">
                  <use xlink:href="#rim" fill="#404040">
                        <set attributeName="fill" to="#808080" begin="arrowDown.mouseover" end="arrowDown.mouseout"/>
                  </use>
                  <path fill="none" stroke="white" stroke-width="1.5" d="M0,-3.0v7 M-2.5,-0.5L0,-3.0L2.5,-0.5"/>
                </g>
                <g id="arrowLeft" xlink:href="#dirArrow" transform="rotate(270) translate(-36 17)" onmousedown="handlePan(-1,0)">
                  <use xlink:href="#rim" fill="#404040">
                        <set attributeName="fill" to="#808080" begin="arrowLeft.mouseover" end="arrowLeft.mouseout"/>
                  </use>
                  <path fill="none" stroke="white" stroke-width="1.5" d="M0,-3.0v7 M-2.5,-0.5L0,-3.0L2.5,-0.5"/>
                </g>
        </g>
        <svg viewBox="0 0 15 15" width="100%" height="30px" preserveAspectRatio="xMaxYMin meet">
         <g id="arrow_out" transform="scale(0.3 0.3)">
          <a xlink:href="poweroff_8c__incl_org.svg" target="_base">
           <rect id="button" ry="5" rx="5" y="6" x="6" height="38" width="38"
                fill="#f2f5e9" fill-opacity="0.5" stroke="#606060" stroke-width="1.0"/>
           <path id="arrow"
             d="M 11.500037,31.436501 C 11.940474,20.09759 22.043105,11.32322 32.158766,21.979434 L 37.068811,17.246167 C 37.068811,17.246167 37.088388,32 37.088388,32 L 22.160133,31.978069 C 22.160133,31.978069 26.997745,27.140456 26.997745,27.140456 C 18.528582,18.264221 13.291696,25.230495 11.500037,31.436501 z"
             style="fill:#404040;"/>
          </a>
         </g>
        </svg>
</svg>
