<?xml version="1.0" encoding="UTF-8" standalone="no"?>
<!DOCTYPE svg PUBLIC "-//W3C//DTD SVG 1.1//EN"
 "http://www.w3.org/Graphics/SVG/1.1/DTD/svg11.dtd">
<!-- Generated by graphviz version 2.40.1 (20161225.0304)
 -->
<!-- Title: common/include/ps2_debug.h Pages: 1 -->
<svg width="837pt" height="173pt"
 viewBox="0.00 0.00 836.50 173.00" xmlns="http://www.w3.org/2000/svg" xmlns:xlink="http://www.w3.org/1999/xlink">
<g id="graph0" class="graph" transform="scale(1 1) rotate(0) translate(4 169)">
<title>common/include/ps2_debug.h</title>
<polygon fill="#ffffff" stroke="transparent" points="-4,4 -4,-169 832.5,-169 832.5,4 -4,4"/>
<!-- Node1 -->
<g id="node1" class="node">
<title>Node1</title>
<g id="a_node1"><a xlink:title=" ">
<polygon fill="#bfbfbf" stroke="#000000" points="181,-134.5 181,-164.5 299,-164.5 299,-134.5 181,-134.5"/>
<text text-anchor="start" x="189" y="-152.5" font-family="Helvetica,sans-Serif" font-size="10.00" fill="#000000">common/include/ps2</text>
<text text-anchor="middle" x="240" y="-141.5" font-family="Helvetica,sans-Serif" font-size="10.00" fill="#000000">_debug.h</text>
</a>
</g>
</g>
<!-- Node2 -->
<g id="node2" class="node">
<title>Node2</title>
<g id="a_node2"><a xlink:href="iop__sbusdbg_8h.html" target="_top" xlink:title=" ">
<polygon fill="#ffffff" stroke="#000000" points="46,-67.5 46,-97.5 174,-97.5 174,-67.5 46,-67.5"/>
<text text-anchor="start" x="54" y="-85.5" font-family="Helvetica,sans-Serif" font-size="10.00" fill="#000000">iop/debug/iop_sbusdbg</text>
<text text-anchor="middle" x="110" y="-74.5" font-family="Helvetica,sans-Serif" font-size="10.00" fill="#000000">/include/iop_sbusdbg.h</text>
</a>
</g>
</g>
<!-- Node1&#45;&gt;Node2 -->
<g id="edge1" class="edge">
<title>Node1&#45;&gt;Node2</title>
<path fill="none" stroke="#191970" d="M201.7262,-129.7743C181.856,-119.5335 157.9509,-107.2132 139.527,-97.7177"/>
<polygon fill="#191970" stroke="#191970" points="200.3331,-132.9938 210.8255,-134.4639 203.54,-126.7715 200.3331,-132.9938"/>
</g>
<!-- Node3 -->
<g id="node3" class="node">
<title>Node3</title>
<g id="a_node3"><a xlink:href="sbus__dbg_8c.html" target="_top" xlink:title=" ">
<polygon fill="#ffffff" stroke="#000000" points="0,-.5 0,-30.5 128,-30.5 128,-.5 0,-.5"/>
<text text-anchor="start" x="8" y="-18.5" font-family="Helvetica,sans-Serif" font-size="10.00" fill="#000000">iop/debug/iop_sbusdbg</text>
<text text-anchor="middle" x="64" y="-7.5" font-family="Helvetica,sans-Serif" font-size="10.00" fill="#000000">/src/sbus_dbg.c</text>
</a>
</g>
</g>
<!-- Node1&#45;&gt;Node3 -->
<g id="edge2" class="edge">
<title>Node1&#45;&gt;Node3</title>
<path fill="none" stroke="#191970" d="M227.8257,-124.8654C217.8681,-106.8325 202.3014,-82.8433 183,-67 163.2507,-50.7891 137.622,-38.8295 115.2092,-30.538"/>
<polygon fill="#191970" stroke="#191970" points="224.9899,-126.9883 232.7688,-134.1813 231.1734,-123.7073 224.9899,-126.9883"/>
</g>
<!-- Node4 -->
<g id="node4" class="node">
<title>Node4</title>
<g id="a_node4"><a xlink:href="sbus__tty_8c.html" target="_top" xlink:title=" ">
<polygon fill="#ffffff" stroke="#000000" points="146,-.5 146,-30.5 274,-30.5 274,-.5 146,-.5"/>
<text text-anchor="start" x="154" y="-18.5" font-family="Helvetica,sans-Serif" font-size="10.00" fill="#000000">iop/debug/iop_sbusdbg</text>
<text text-anchor="middle" x="210" y="-7.5" font-family="Helvetica,sans-Serif" font-size="10.00" fill="#000000">/src/sbus_tty.c</text>
</a>
</g>
</g>
<!-- Node1&#45;&gt;Node4 -->
<g id="edge3" class="edge">
<title>Node1&#45;&gt;Node4</title>
<path fill="none" stroke="#191970" d="M234.3675,-124.3415C228.2044,-96.8131 218.5234,-53.5714 213.4167,-30.7614"/>
<polygon fill="#191970" stroke="#191970" points="231.0167,-125.3952 236.6169,-134.389 237.8476,-123.8659 231.0167,-125.3952"/>
</g>
<!-- Node5 -->
<g id="node5" class="node">
<title>Node5</title>
<g id="a_node5"><a xlink:href="iopdebug_8h.html" target="_top" xlink:title=" ">
<polygon fill="#ffffff" stroke="#000000" points="299.5,-67.5 299.5,-97.5 412.5,-97.5 412.5,-67.5 299.5,-67.5"/>
<text text-anchor="start" x="307.5" y="-85.5" font-family="Helvetica,sans-Serif" font-size="10.00" fill="#000000">iop/debug/iopdebug</text>
<text text-anchor="middle" x="356" y="-74.5" font-family="Helvetica,sans-Serif" font-size="10.00" fill="#000000">/include/iopdebug.h</text>
</a>
</g>
</g>
<!-- Node1&#45;&gt;Node5 -->
<g id="edge4" class="edge">
<title>Node1&#45;&gt;Node5</title>
<path fill="none" stroke="#191970" d="M274.876,-129.3561C292.4605,-119.1995 313.4362,-107.0843 329.6529,-97.7177"/>
<polygon fill="#191970" stroke="#191970" points="272.9415,-126.4315 266.0327,-134.4639 276.4426,-132.4931 272.9415,-126.4315"/>
</g>
<!-- Node8 -->
<g id="node8" class="node">
<title>Node8</title>
<g id="a_node8"><a xlink:href="iop__debug_8c.html" target="_top" xlink:title=" ">
<polygon fill="#ffffff" stroke="#000000" points="715.5,-.5 715.5,-30.5 828.5,-30.5 828.5,-.5 715.5,-.5"/>
<text text-anchor="start" x="723.5" y="-18.5" font-family="Helvetica,sans-Serif" font-size="10.00" fill="#000000">iop/debug/iopdebug</text>
<text text-anchor="middle" x="772" y="-7.5" font-family="Helvetica,sans-Serif" font-size="10.00" fill="#000000">/src/iop_debug.c</text>
</a>
</g>
</g>
<!-- Node1&#45;&gt;Node8 -->
<g id="edge11" class="edge">
<title>Node1&#45;&gt;Node8</title>
<path fill="none" stroke="#191970" d="M309.2064,-132.0683C415.5168,-105.2909 616.9939,-54.5429 715.2533,-29.7933"/>
<polygon fill="#191970" stroke="#191970" points="308.0643,-128.7466 299.2221,-134.5832 309.7741,-135.5346 308.0643,-128.7466"/>
</g>
<!-- Node5&#45;&gt;Node3 -->
<g id="edge7" class="edge">
<title>Node5&#45;&gt;Node3</title>
<path fill="none" stroke="#191970" d="M289.5992,-67.2642C241.1928,-56.1573 175.9729,-41.1924 128.1089,-30.2099"/>
<polygon fill="#191970" stroke="#191970" points="288.8237,-70.6772 299.3532,-69.5023 290.3893,-63.8544 288.8237,-70.6772"/>
</g>
<!-- Node5&#45;&gt;Node4 -->
<g id="edge8" class="edge">
<title>Node5&#45;&gt;Node4</title>
<path fill="none" stroke="#191970" d="M313.8879,-63.1746C291.3118,-52.8143 263.9032,-40.2364 242.9082,-30.6017"/>
<polygon fill="#191970" stroke="#191970" points="312.6862,-66.474 323.2348,-67.4639 315.6059,-60.112 312.6862,-66.474"/>
</g>
<!-- Node6 -->
<g id="node6" class="node">
<title>Node6</title>
<g id="a_node6"><a xlink:href="debug_2iop__sbusdbg_2src_2irx__imports_8h.html" target="_top" xlink:title=" ">
<polygon fill="#ffffff" stroke="#000000" points="292,-.5 292,-30.5 420,-30.5 420,-.5 292,-.5"/>
<text text-anchor="start" x="300" y="-18.5" font-family="Helvetica,sans-Serif" font-size="10.00" fill="#000000">iop/debug/iop_sbusdbg</text>
<text text-anchor="middle" x="356" y="-7.5" font-family="Helvetica,sans-Serif" font-size="10.00" fill="#000000">/src/irx_imports.h</text>
</a>
</g>
</g>
<!-- Node5&#45;&gt;Node6 -->
<g id="edge5" class="edge">
<title>Node5&#45;&gt;Node6</title>
<path fill="none" stroke="#191970" d="M356,-57.0249C356,-48.128 356,-38.4287 356,-30.6432"/>
<polygon fill="#191970" stroke="#191970" points="352.5001,-57.2966 356,-67.2967 359.5001,-57.2967 352.5001,-57.2966"/>
</g>
<!-- Node7 -->
<g id="node7" class="node">
<title>Node7</title>
<g id="a_node7"><a xlink:href="debug_2iop__sbusdbg_2src_2main_8c.html" target="_top" xlink:title=" ">
<polygon fill="#ffffff" stroke="#000000" points="438,-.5 438,-30.5 566,-30.5 566,-.5 438,-.5"/>
<text text-anchor="start" x="446" y="-18.5" font-family="Helvetica,sans-Serif" font-size="10.00" fill="#000000">iop/debug/iop_sbusdbg</text>
<text text-anchor="middle" x="502" y="-7.5" font-family="Helvetica,sans-Serif" font-size="10.00" fill="#000000">/src/main.c</text>
</a>
</g>
</g>
<!-- Node5&#45;&gt;Node7 -->
<g id="edge6" class="edge">
<title>Node5&#45;&gt;Node7</title>
<path fill="none" stroke="#191970" d="M398.1121,-63.1746C420.6882,-52.8143 448.0968,-40.2364 469.0918,-30.6017"/>
<polygon fill="#191970" stroke="#191970" points="396.3941,-60.112 388.7652,-67.4639 399.3138,-66.474 396.3941,-60.112"/>
</g>
<!-- Node5&#45;&gt;Node8 -->
<g id="edge9" class="edge">
<title>Node5&#45;&gt;Node8</title>
<path fill="none" stroke="#191970" d="M422.9215,-74.4696C493.7675,-65.5512 608.7106,-49.8915 707,-31 709.7342,-30.4745 712.5271,-29.9113 715.3435,-29.322"/>
<polygon fill="#191970" stroke="#191970" points="422.2842,-71.022 412.796,-75.7361 423.1531,-77.9678 422.2842,-71.022"/>
</g>
<!-- Node9 -->
<g id="node9" class="node">
<title>Node9</title>
<g id="a_node9"><a xlink:href="debug_2iopdebug_2src_2main_8c.html" target="_top" xlink:title=" ">
<polygon fill="#ffffff" stroke="#000000" points="584.5,-.5 584.5,-30.5 697.5,-30.5 697.5,-.5 584.5,-.5"/>
<text text-anchor="start" x="592.5" y="-18.5" font-family="Helvetica,sans-Serif" font-size="10.00" fill="#000000">iop/debug/iopdebug</text>
<text text-anchor="middle" x="641" y="-7.5" font-family="Helvetica,sans-Serif" font-size="10.00" fill="#000000">/src/main.c</text>
</a>
</g>
</g>
<!-- Node5&#45;&gt;Node9 -->
<g id="edge10" class="edge">
<title>Node5&#45;&gt;Node9</title>
<path fill="none" stroke="#191970" d="M422.5503,-66.8548C471.6943,-55.3017 537.8655,-39.7457 584.4596,-28.7919"/>
<polygon fill="#191970" stroke="#191970" points="421.5812,-63.4872 412.6476,-69.1828 423.1832,-70.3014 421.5812,-63.4872"/>
</g>
</g>
</svg>
