<?xml version="1.0" encoding="UTF-8" standalone="no"?>
<!DOCTYPE svg PUBLIC "-//W3C//DTD SVG 1.1//EN"
 "http://www.w3.org/Graphics/SVG/1.1/DTD/svg11.dtd">
<!-- Generated by graphviz version 2.40.1 (20161225.0304)
 -->
<!-- Title: iop/fs/netfs/src/ps2_fio.c Pages: 1 -->
<svg width="1173pt" height="319pt"
 viewBox="0.00 0.00 1172.50 319.00" xmlns="http://www.w3.org/2000/svg" xmlns:xlink="http://www.w3.org/1999/xlink">
<g id="graph0" class="graph" transform="scale(1 1) rotate(0) translate(4 315)">
<title>iop/fs/netfs/src/ps2_fio.c</title>
<polygon fill="#ffffff" stroke="transparent" points="-4,4 -4,-315 1168.5,-315 1168.5,4 -4,4"/>
<!-- Node1 -->
<g id="node1" class="node">
<title>Node1</title>
<g id="a_node1"><a xlink:title=" ">
<polygon fill="#bfbfbf" stroke="#000000" points="562,-280.5 562,-310.5 671,-310.5 671,-280.5 562,-280.5"/>
<text text-anchor="start" x="570" y="-298.5" font-family="Helvetica,sans-Serif" font-size="10.00" fill="#000000">iop/fs/netfs/src/ps2</text>
<text text-anchor="middle" x="616.5" y="-287.5" font-family="Helvetica,sans-Serif" font-size="10.00" fill="#000000">_fio.c</text>
</a>
</g>
</g>
<!-- Node2 -->
<g id="node2" class="node">
<title>Node2</title>
<g id="a_node2"><a xlink:title=" ">
<polygon fill="#ffffff" stroke="#bfbfbf" points="552,-168.5 552,-187.5 605,-187.5 605,-168.5 552,-168.5"/>
<text text-anchor="middle" x="578.5" y="-175.5" font-family="Helvetica,sans-Serif" font-size="10.00" fill="#000000">types.h</text>
</a>
</g>
</g>
<!-- Node1&#45;&gt;Node2 -->
<g id="edge1" class="edge">
<title>Node1&#45;&gt;Node2</title>
<path fill="none" stroke="#191970" d="M611.5322,-280.1389C604.6547,-258.873 592.2351,-220.4702 584.7403,-197.2956"/>
<polygon fill="#191970" stroke="#191970" points="587.9989,-195.9973 581.5916,-187.5595 581.3386,-198.1513 587.9989,-195.9973"/>
</g>
<!-- Node3 -->
<g id="node3" class="node">
<title>Node3</title>
<g id="a_node3"><a xlink:href="defs_8h.html" target="_top" xlink:title=" ">
<polygon fill="#ffffff" stroke="#000000" points="0,-112.5 0,-131.5 47,-131.5 47,-112.5 0,-112.5"/>
<text text-anchor="middle" x="23.5" y="-119.5" font-family="Helvetica,sans-Serif" font-size="10.00" fill="#000000">defs.h</text>
</a>
</g>
</g>
<!-- Node1&#45;&gt;Node3 -->
<g id="edge2" class="edge">
<title>Node1&#45;&gt;Node3</title>
<path fill="none" stroke="#191970" d="M561.7945,-292.1029C482.162,-286.3884 330.0173,-272.5596 203.5,-244 126.3148,-226.5765 85.9569,-248.1109 34.5,-188 23.7707,-175.4662 21.5609,-156.5245 21.7198,-142.1432"/>
<polygon fill="#191970" stroke="#191970" points="25.2333,-141.9595 22.2376,-131.797 18.242,-141.6095 25.2333,-141.9595"/>
</g>
<!-- Node7 -->
<g id="node7" class="node">
<title>Node7</title>
<g id="a_node7"><a xlink:href="irx_8h.html" target="_top" xlink:title=" ">
<polygon fill="#ffffff" stroke="#000000" points="439.5,-112.5 439.5,-131.5 477.5,-131.5 477.5,-112.5 439.5,-112.5"/>
<text text-anchor="middle" x="458.5" y="-119.5" font-family="Helvetica,sans-Serif" font-size="10.00" fill="#000000">irx.h</text>
</a>
</g>
</g>
<!-- Node1&#45;&gt;Node7 -->
<g id="edge6" class="edge">
<title>Node1&#45;&gt;Node7</title>
<path fill="none" stroke="#191970" d="M621.3301,-280.2899C628.5522,-254.327 638.788,-201.0643 613.5,-168 598.1986,-147.9932 528.1776,-133.4308 487.6765,-126.5116"/>
<polygon fill="#191970" stroke="#191970" points="488.0234,-123.0215 477.5861,-124.8414 486.8802,-129.9275 488.0234,-123.0215"/>
</g>
<!-- Node8 -->
<g id="node8" class="node">
<title>Node8</title>
<g id="a_node8"><a xlink:href="loadcore_8h.html" target="_top" xlink:title=" ">
<polygon fill="#ffffff" stroke="#000000" points="207.5,-168.5 207.5,-187.5 275.5,-187.5 275.5,-168.5 207.5,-168.5"/>
<text text-anchor="middle" x="241.5" y="-175.5" font-family="Helvetica,sans-Serif" font-size="10.00" fill="#000000">loadcore.h</text>
</a>
</g>
</g>
<!-- Node1&#45;&gt;Node8 -->
<g id="edge8" class="edge">
<title>Node1&#45;&gt;Node8</title>
<path fill="none" stroke="#191970" d="M561.8642,-285.8913C516.0234,-277.1311 449.1456,-262.7104 392.5,-244 348.3758,-229.4255 299.4581,-206.7773 269.5913,-192.167"/>
<polygon fill="#191970" stroke="#191970" points="271.1103,-189.0137 260.594,-187.7263 268.0122,-195.2907 271.1103,-189.0137"/>
</g>
<!-- Node9 -->
<g id="node9" class="node">
<title>Node9</title>
<g id="a_node9"><a xlink:href="ioman__mod_8h.html" target="_top" xlink:title=" ">
<polygon fill="#ffffff" stroke="#000000" points="781,-168.5 781,-187.5 864,-187.5 864,-168.5 781,-168.5"/>
<text text-anchor="middle" x="822.5" y="-175.5" font-family="Helvetica,sans-Serif" font-size="10.00" fill="#000000">ioman_mod.h</text>
</a>
</g>
</g>
<!-- Node1&#45;&gt;Node9 -->
<g id="edge11" class="edge">
<title>Node1&#45;&gt;Node9</title>
<path fill="none" stroke="#191970" d="M652.0602,-280.3894C673.7141,-270.7762 701.6986,-257.6096 725.5,-244 752.7943,-228.3932 782.4396,-207.6117 801.6775,-193.5699"/>
<polygon fill="#191970" stroke="#191970" points="803.7604,-196.3827 809.7383,-187.6353 799.6103,-190.7456 803.7604,-196.3827"/>
</g>
<!-- Node15 -->
<g id="node15" class="node">
<title>Node15</title>
<g id="a_node15"><a xlink:href="iomanX_8h.html" target="_top" xlink:title=" ">
<polygon fill="#ffffff" stroke="#000000" points="700,-168.5 700,-187.5 763,-187.5 763,-168.5 700,-168.5"/>
<text text-anchor="middle" x="731.5" y="-175.5" font-family="Helvetica,sans-Serif" font-size="10.00" fill="#000000">iomanX.h</text>
</a>
</g>
</g>
<!-- Node1&#45;&gt;Node15 -->
<g id="edge19" class="edge">
<title>Node1&#45;&gt;Node15</title>
<path fill="none" stroke="#191970" d="M654.6704,-280.4391C672.1125,-271.947 691.8736,-259.8294 705.5,-244 717.0246,-230.6122 723.7971,-211.5069 727.5247,-197.2941"/>
<polygon fill="#191970" stroke="#191970" points="730.9329,-198.09 729.8099,-187.5548 724.118,-196.4908 730.9329,-198.09"/>
</g>
<!-- Node16 -->
<g id="node16" class="node">
<title>Node16</title>
<g id="a_node16"><a xlink:href="thbase_8h.html" target="_top" xlink:title=" ">
<polygon fill="#ffffff" stroke="#000000" points="44,-168.5 44,-187.5 103,-187.5 103,-168.5 44,-168.5"/>
<text text-anchor="middle" x="73.5" y="-175.5" font-family="Helvetica,sans-Serif" font-size="10.00" fill="#000000">thbase.h</text>
</a>
</g>
</g>
<!-- Node1&#45;&gt;Node16 -->
<g id="edge24" class="edge">
<title>Node1&#45;&gt;Node16</title>
<path fill="none" stroke="#191970" d="M561.8946,-290.1942C493.7553,-282.9134 373.9588,-267.9343 273.5,-244 213.9868,-229.8209 146.8314,-205.9823 107.4468,-191.1681"/>
<polygon fill="#191970" stroke="#191970" points="108.645,-187.8793 98.0537,-187.6076 106.1638,-194.4249 108.645,-187.8793"/>
</g>
<!-- Node17 -->
<g id="node17" class="node">
<title>Node17</title>
<g id="a_node17"><a xlink:href="thsemap_8h.html" target="_top" xlink:title=" ">
<polygon fill="#ffffff" stroke="#000000" points="121.5,-168.5 121.5,-187.5 189.5,-187.5 189.5,-168.5 121.5,-168.5"/>
<text text-anchor="middle" x="155.5" y="-175.5" font-family="Helvetica,sans-Serif" font-size="10.00" fill="#000000">thsemap.h</text>
</a>
</g>
</g>
<!-- Node1&#45;&gt;Node17 -->
<g id="edge27" class="edge">
<title>Node1&#45;&gt;Node17</title>
<path fill="none" stroke="#191970" d="M561.8377,-288.0662C505.3465,-279.7584 414.8939,-264.7037 338.5,-244 284.5681,-229.3838 223.9126,-206.0937 187.7495,-191.4457"/>
<polygon fill="#191970" stroke="#191970" points="188.8062,-188.0968 178.2251,-187.5578 186.1606,-194.5776 188.8062,-188.0968"/>
</g>
<!-- Node18 -->
<g id="node18" class="node">
<title>Node18</title>
<g id="a_node18"><a xlink:href="stdio_8h.html" target="_top" xlink:title=" ">
<polygon fill="#ffffff" stroke="#000000" points="293.5,-168.5 293.5,-187.5 343.5,-187.5 343.5,-168.5 293.5,-168.5"/>
<text text-anchor="middle" x="318.5" y="-175.5" font-family="Helvetica,sans-Serif" font-size="10.00" fill="#000000">stdio.h</text>
</a>
</g>
</g>
<!-- Node1&#45;&gt;Node18 -->
<g id="edge30" class="edge">
<title>Node1&#45;&gt;Node18</title>
<path fill="none" stroke="#191970" d="M561.8296,-283.3556C525.5629,-274.456 477.3129,-260.9828 436.5,-244 402.0626,-229.6702 364.912,-207.7002 341.6853,-193.0963"/>
<polygon fill="#191970" stroke="#191970" points="343.5268,-190.1196 333.2107,-187.7051 339.7694,-196.0258 343.5268,-190.1196"/>
</g>
<!-- Node20 -->
<g id="node20" class="node">
<title>Node20</title>
<g id="a_node20"><a xlink:href="sysclib_8h.html" target="_top" xlink:title=" ">
<polygon fill="#ffffff" stroke="#000000" points="362,-168.5 362,-187.5 421,-187.5 421,-168.5 362,-168.5"/>
<text text-anchor="middle" x="391.5" y="-175.5" font-family="Helvetica,sans-Serif" font-size="10.00" fill="#000000">sysclib.h</text>
</a>
</g>
</g>
<!-- Node1&#45;&gt;Node20 -->
<g id="edge33" class="edge">
<title>Node1&#45;&gt;Node20</title>
<path fill="none" stroke="#191970" d="M561.8889,-282.3224C532.4303,-273.8679 496.1425,-261.2166 466.5,-244 443.7212,-230.7699 421.5731,-210.0083 407.3245,-195.308"/>
<polygon fill="#191970" stroke="#191970" points="409.6832,-192.7084 400.2674,-187.851 404.599,-197.52 409.6832,-192.7084"/>
</g>
<!-- Node22 -->
<g id="node22" class="node">
<title>Node22</title>
<g id="a_node22"><a xlink:href="errno_8h.html" target="_top" xlink:title=" ">
<polygon fill="#ffffff" stroke="#000000" points="791,-224.5 791,-243.5 842,-243.5 842,-224.5 791,-224.5"/>
<text text-anchor="middle" x="816.5" y="-231.5" font-family="Helvetica,sans-Serif" font-size="10.00" fill="#000000">errno.h</text>
</a>
</g>
</g>
<!-- Node1&#45;&gt;Node22 -->
<g id="edge39" class="edge">
<title>Node1&#45;&gt;Node22</title>
<path fill="none" stroke="#191970" d="M665.4255,-280.4554C701.2178,-269.4493 748.9428,-254.7738 781.0948,-244.8871"/>
<polygon fill="#191970" stroke="#191970" points="782.422,-248.1408 790.9516,-241.8561 780.3646,-241.45 782.422,-248.1408"/>
</g>
<!-- Node23 -->
<g id="node23" class="node">
<title>Node23</title>
<g id="a_node23"><a xlink:href="ps2ip_8h.html" target="_top" xlink:title=" ">
<polygon fill="#ffffff" stroke="#000000" points="644.5,-224.5 644.5,-243.5 696.5,-243.5 696.5,-224.5 644.5,-224.5"/>
<text text-anchor="middle" x="670.5" y="-231.5" font-family="Helvetica,sans-Serif" font-size="10.00" fill="#000000">ps2ip.h</text>
</a>
</g>
</g>
<!-- Node1&#45;&gt;Node23 -->
<g id="edge40" class="edge">
<title>Node1&#45;&gt;Node23</title>
<path fill="none" stroke="#191970" d="M629.8483,-280.2977C637.5002,-271.5831 647.1373,-260.6075 655.1076,-251.5302"/>
<polygon fill="#191970" stroke="#191970" points="657.8859,-253.6707 661.8539,-243.8469 652.6258,-249.052 657.8859,-253.6707"/>
</g>
<!-- Node25 -->
<g id="node25" class="node">
<title>Node25</title>
<g id="a_node25"><a xlink:href="iopmgr_8h.html" target="_top" xlink:title=" ">
<polygon fill="#ffffff" stroke="#000000" points="476,-224.5 476,-243.5 535,-243.5 535,-224.5 476,-224.5"/>
<text text-anchor="middle" x="505.5" y="-231.5" font-family="Helvetica,sans-Serif" font-size="10.00" fill="#000000">iopmgr.h</text>
</a>
</g>
</g>
<!-- Node1&#45;&gt;Node25 -->
<g id="edge46" class="edge">
<title>Node1&#45;&gt;Node25</title>
<path fill="none" stroke="#191970" d="M589.3463,-280.4554C571.8005,-270.734 549.0878,-258.15 531.7279,-248.5317"/>
<polygon fill="#191970" stroke="#191970" points="533.1445,-245.3153 522.7011,-243.5303 529.752,-251.4383 533.1445,-245.3153"/>
</g>
<!-- Node27 -->
<g id="node27" class="node">
<title>Node27</title>
<g id="a_node27"><a xlink:href="ps2__fio_8h.html" target="_top" xlink:title=" ">
<polygon fill="#ffffff" stroke="#000000" points="860.5,-224.5 860.5,-243.5 920.5,-243.5 920.5,-224.5 860.5,-224.5"/>
<text text-anchor="middle" x="890.5" y="-231.5" font-family="Helvetica,sans-Serif" font-size="10.00" fill="#000000">ps2_fio.h</text>
</a>
</g>
</g>
<!-- Node1&#45;&gt;Node27 -->
<g id="edge54" class="edge">
<title>Node1&#45;&gt;Node27</title>
<path fill="none" stroke="#191970" d="M671.2312,-284.0766C716.702,-274.4563 783.3334,-260.0608 850.3971,-244.2069"/>
<polygon fill="#191970" stroke="#191970" points="851.3713,-247.5729 860.2924,-241.8576 849.7543,-240.7622 851.3713,-247.5729"/>
</g>
<!-- Node28 -->
<g id="node28" class="node">
<title>Node28</title>
<g id="a_node28"><a xlink:href="ps2fs_8h.html" target="_top" xlink:title=" ">
<polygon fill="#ffffff" stroke="#000000" points="938.5,-224.5 938.5,-243.5 990.5,-243.5 990.5,-224.5 938.5,-224.5"/>
<text text-anchor="middle" x="964.5" y="-231.5" font-family="Helvetica,sans-Serif" font-size="10.00" fill="#000000">ps2fs.h</text>
</a>
</g>
</g>
<!-- Node1&#45;&gt;Node28 -->
<g id="edge55" class="edge">
<title>Node1&#45;&gt;Node28</title>
<path fill="none" stroke="#191970" d="M671.1495,-288.4541C731.8225,-280.1975 832.7801,-265.172 928.3812,-244.0595"/>
<polygon fill="#191970" stroke="#191970" points="929.2144,-247.4597 938.2102,-241.8628 927.6875,-240.6283 929.2144,-247.4597"/>
</g>
<!-- Node29 -->
<g id="node29" class="node">
<title>Node29</title>
<g id="a_node29"><a xlink:href="byteorder_8h.html" target="_top" xlink:title=" ">
<polygon fill="#ffffff" stroke="#000000" points="1008.5,-224.5 1008.5,-243.5 1080.5,-243.5 1080.5,-224.5 1008.5,-224.5"/>
<text text-anchor="middle" x="1044.5" y="-231.5" font-family="Helvetica,sans-Serif" font-size="10.00" fill="#000000">byteorder.h</text>
</a>
</g>
</g>
<!-- Node1&#45;&gt;Node29 -->
<g id="edge56" class="edge">
<title>Node1&#45;&gt;Node29</title>
<path fill="none" stroke="#191970" d="M671.2719,-289.6182C743.8488,-281.4958 876.0429,-265.5631 998.295,-244.0995"/>
<polygon fill="#191970" stroke="#191970" points="998.968,-247.5349 1008.2039,-242.3436 997.7466,-240.6423 998.968,-247.5349"/>
</g>
<!-- Node30 -->
<g id="node30" class="node">
<title>Node30</title>
<g id="a_node30"><a xlink:href="devscan_8h.html" target="_top" xlink:title=" ">
<polygon fill="#ffffff" stroke="#000000" points="1098.5,-224.5 1098.5,-243.5 1164.5,-243.5 1164.5,-224.5 1098.5,-224.5"/>
<text text-anchor="middle" x="1131.5" y="-231.5" font-family="Helvetica,sans-Serif" font-size="10.00" fill="#000000">devscan.h</text>
</a>
</g>
</g>
<!-- Node1&#45;&gt;Node30 -->
<g id="edge57" class="edge">
<title>Node1&#45;&gt;Node30</title>
<path fill="none" stroke="#191970" d="M671.0771,-291.791C757.5445,-285.4258 931.4403,-270.6374 1087.8326,-244.1135"/>
<polygon fill="#191970" stroke="#191970" points="1088.8439,-247.4911 1098.1074,-242.3494 1087.6593,-240.5921 1088.8439,-247.4911"/>
</g>
<!-- Node4 -->
<g id="node4" class="node">
<title>Node4</title>
<g id="a_node4"><a xlink:href="types_8h.html" target="_top" xlink:title=" ">
<polygon fill="#ffffff" stroke="#000000" points="347,-56.5 347,-75.5 400,-75.5 400,-56.5 347,-56.5"/>
<text text-anchor="middle" x="373.5" y="-63.5" font-family="Helvetica,sans-Serif" font-size="10.00" fill="#000000">types.h</text>
</a>
</g>
</g>
<!-- Node3&#45;&gt;Node4 -->
<g id="edge3" class="edge">
<title>Node3&#45;&gt;Node4</title>
<path fill="none" stroke="#191970" d="M47.008,-118.2387C106.757,-108.6789 264.791,-83.3934 336.8082,-71.8707"/>
<polygon fill="#191970" stroke="#191970" points="337.4662,-75.31 346.7876,-70.274 336.3602,-68.3979 337.4662,-75.31"/>
</g>
<!-- Node5 -->
<g id="node5" class="node">
<title>Node5</title>
<g id="a_node5"><a xlink:title=" ">
<polygon fill="#ffffff" stroke="#bfbfbf" points="341.5,-.5 341.5,-19.5 397.5,-19.5 397.5,-.5 341.5,-.5"/>
<text text-anchor="middle" x="369.5" y="-7.5" font-family="Helvetica,sans-Serif" font-size="10.00" fill="#000000">stddef.h</text>
</a>
</g>
</g>
<!-- Node4&#45;&gt;Node5 -->
<g id="edge4" class="edge">
<title>Node4&#45;&gt;Node5</title>
<path fill="none" stroke="#191970" d="M372.8033,-56.2455C372.2813,-48.9382 371.5496,-38.6944 370.9075,-29.7046"/>
<polygon fill="#191970" stroke="#191970" points="374.3924,-29.3679 370.1888,-19.6427 367.4102,-29.8667 374.3924,-29.3679"/>
</g>
<!-- Node6 -->
<g id="node6" class="node">
<title>Node6</title>
<g id="a_node6"><a xlink:href="tamtypes_8h.html" target="_top" xlink:title=" ">
<polygon fill="#ffffff" stroke="#000000" points="415.5,-.5 415.5,-19.5 487.5,-19.5 487.5,-.5 415.5,-.5"/>
<text text-anchor="middle" x="451.5" y="-7.5" font-family="Helvetica,sans-Serif" font-size="10.00" fill="#000000">tamtypes.h</text>
</a>
</g>
</g>
<!-- Node4&#45;&gt;Node6 -->
<g id="edge5" class="edge">
<title>Node4&#45;&gt;Node6</title>
<path fill="none" stroke="#191970" d="M387.0866,-56.2455C398.8305,-47.814 416.0199,-35.4729 429.6882,-25.6598"/>
<polygon fill="#191970" stroke="#191970" points="431.9871,-28.3179 438.0691,-19.6427 427.9046,-22.6316 431.9871,-28.3179"/>
</g>
<!-- Node7&#45;&gt;Node4 -->
<g id="edge7" class="edge">
<title>Node7&#45;&gt;Node4</title>
<path fill="none" stroke="#191970" d="M443.6941,-112.2455C430.7744,-103.7337 411.8069,-91.2375 396.8448,-81.3801"/>
<polygon fill="#191970" stroke="#191970" points="398.4124,-78.2216 388.1362,-75.6427 394.5613,-84.067 398.4124,-78.2216"/>
</g>
<!-- Node8&#45;&gt;Node4 -->
<g id="edge9" class="edge">
<title>Node8&#45;&gt;Node4</title>
<path fill="none" stroke="#191970" d="M245.1285,-168.3125C250.7939,-154.3066 262.942,-128.2985 280.5,-112 296.6887,-96.9726 318.7069,-85.7871 337.2554,-78.2109"/>
<polygon fill="#191970" stroke="#191970" points="338.5408,-81.4665 346.5896,-74.5768 336.0011,-74.9434 338.5408,-81.4665"/>
</g>
<!-- Node8&#45;&gt;Node7 -->
<g id="edge10" class="edge">
<title>Node8&#45;&gt;Node7</title>
<path fill="none" stroke="#191970" d="M275.8843,-169.1266C318.34,-158.1703 389.7971,-139.7298 429.5704,-129.4657"/>
<polygon fill="#191970" stroke="#191970" points="430.6225,-132.8089 439.4307,-126.9211 428.8733,-126.031 430.6225,-132.8089"/>
</g>
<!-- Node9&#45;&gt;Node4 -->
<g id="edge12" class="edge">
<title>Node9&#45;&gt;Node4</title>
<path fill="none" stroke="#191970" d="M825.5139,-168.4217C829.3675,-154.0713 833.9453,-127.0707 819.5,-112 787.9323,-79.0656 455.4164,-83.9823 410.5,-76 410.2871,-75.9622 410.0736,-75.9237 409.8596,-75.8846"/>
<polygon fill="#191970" stroke="#191970" points="410.5626,-72.4558 400.0504,-73.7765 409.0918,-79.2995 410.5626,-72.4558"/>
</g>
<!-- Node9&#45;&gt;Node7 -->
<g id="edge13" class="edge">
<title>Node9&#45;&gt;Node7</title>
<path fill="none" stroke="#191970" d="M780.7884,-169.4893C777.9864,-168.9695 775.204,-168.4681 772.5,-168 668.1649,-149.9367 543.5152,-133.0692 487.8557,-125.7826"/>
<polygon fill="#191970" stroke="#191970" points="488.0385,-122.2769 477.6701,-124.4555 487.134,-129.2182 488.0385,-122.2769"/>
</g>
<!-- Node10 -->
<g id="node10" class="node">
<title>Node10</title>
<g id="a_node10"><a xlink:href="io__common_8h.html" target="_top" xlink:title=" ">
<polygon fill="#ffffff" stroke="#000000" points="644,-112.5 644,-131.5 727,-131.5 727,-112.5 644,-112.5"/>
<text text-anchor="middle" x="685.5" y="-119.5" font-family="Helvetica,sans-Serif" font-size="10.00" fill="#000000">io_common.h</text>
</a>
</g>
</g>
<!-- Node9&#45;&gt;Node10 -->
<g id="edge14" class="edge">
<title>Node9&#45;&gt;Node10</title>
<path fill="none" stroke="#191970" d="M798.9489,-168.3733C776.6609,-159.2629 743.0063,-145.5062 718.1363,-135.3404"/>
<polygon fill="#191970" stroke="#191970" points="719.3247,-132.0451 708.7438,-131.5011 716.6761,-138.5247 719.3247,-132.0451"/>
</g>
<!-- Node13 -->
<g id="node13" class="node">
<title>Node13</title>
<g id="a_node13"><a xlink:href="iox__stat_8h.html" target="_top" xlink:title=" ">
<polygon fill="#ffffff" stroke="#000000" points="745,-112.5 745,-131.5 810,-131.5 810,-112.5 745,-112.5"/>
<text text-anchor="middle" x="777.5" y="-119.5" font-family="Helvetica,sans-Serif" font-size="10.00" fill="#000000">iox_stat.h</text>
</a>
</g>
</g>
<!-- Node9&#45;&gt;Node13 -->
<g id="edge17" class="edge">
<title>Node9&#45;&gt;Node13</title>
<path fill="none" stroke="#191970" d="M814.6616,-168.2455C808.338,-160.3761 799.2776,-149.101 791.6864,-139.6542"/>
<polygon fill="#191970" stroke="#191970" points="794.2408,-137.2454 785.2486,-131.6427 788.7842,-141.6302 794.2408,-137.2454"/>
</g>
<!-- Node11 -->
<g id="node11" class="node">
<title>Node11</title>
<g id="a_node11"><a xlink:href="fcntl_8h.html" target="_top" xlink:title=" ">
<polygon fill="#ffffff" stroke="#000000" points="655,-56.5 655,-75.5 722,-75.5 722,-56.5 655,-56.5"/>
<text text-anchor="middle" x="688.5" y="-63.5" font-family="Helvetica,sans-Serif" font-size="10.00" fill="#000000">sys/fcntl.h</text>
</a>
</g>
</g>
<!-- Node10&#45;&gt;Node11 -->
<g id="edge15" class="edge">
<title>Node10&#45;&gt;Node11</title>
<path fill="none" stroke="#191970" d="M686.0226,-112.2455C686.414,-104.9382 686.9628,-94.6944 687.4444,-85.7046"/>
<polygon fill="#191970" stroke="#191970" points="690.9434,-85.8156 687.9834,-75.6427 683.9534,-85.4411 690.9434,-85.8156"/>
</g>
<!-- Node12 -->
<g id="node12" class="node">
<title>Node12</title>
<g id="a_node12"><a xlink:href="unistd_8h.html" target="_top" xlink:title=" ">
<polygon fill="#ffffff" stroke="#000000" points="562,-56.5 562,-75.5 637,-75.5 637,-56.5 562,-56.5"/>
<text text-anchor="middle" x="599.5" y="-63.5" font-family="Helvetica,sans-Serif" font-size="10.00" fill="#000000">sys/unistd.h</text>
</a>
</g>
</g>
<!-- Node10&#45;&gt;Node12 -->
<g id="edge16" class="edge">
<title>Node10&#45;&gt;Node12</title>
<path fill="none" stroke="#191970" d="M670.5199,-112.2455C657.3249,-103.6534 637.8949,-91.0014 622.6921,-81.1018"/>
<polygon fill="#191970" stroke="#191970" points="624.5983,-78.1665 614.3084,-75.6427 620.7785,-84.0325 624.5983,-78.1665"/>
</g>
<!-- Node14 -->
<g id="node14" class="node">
<title>Node14</title>
<g id="a_node14"><a xlink:href="time_8h.html" target="_top" xlink:title=" ">
<polygon fill="#ffffff" stroke="#000000" points="765.5,-56.5 765.5,-75.5 833.5,-75.5 833.5,-56.5 765.5,-56.5"/>
<text text-anchor="middle" x="799.5" y="-63.5" font-family="Helvetica,sans-Serif" font-size="10.00" fill="#000000">sys/time.h</text>
</a>
</g>
</g>
<!-- Node13&#45;&gt;Node14 -->
<g id="edge18" class="edge">
<title>Node13&#45;&gt;Node14</title>
<path fill="none" stroke="#191970" d="M781.3321,-112.2455C784.2659,-104.7776 788.4047,-94.2427 791.991,-85.1137"/>
<polygon fill="#191970" stroke="#191970" points="795.3129,-86.23 795.7118,-75.6427 788.7976,-83.6704 795.3129,-86.23"/>
</g>
<!-- Node15&#45;&gt;Node4 -->
<g id="edge20" class="edge">
<title>Node15&#45;&gt;Node4</title>
<path fill="none" stroke="#191970" d="M700.9771,-168.4509C635.222,-147.8795 480.4391,-99.4558 409.7977,-77.3557"/>
<polygon fill="#191970" stroke="#191970" points="410.5953,-73.938 400.0064,-74.2925 408.5052,-80.6187 410.5953,-73.938"/>
</g>
<!-- Node15&#45;&gt;Node7 -->
<g id="edge21" class="edge">
<title>Node15&#45;&gt;Node7</title>
<path fill="none" stroke="#191970" d="M699.8388,-171.0557C695.0371,-170.0203 690.1389,-168.9742 685.5,-168 614.4264,-153.0741 530.6526,-136.313 487.4743,-127.7353"/>
<polygon fill="#191970" stroke="#191970" points="488.1416,-124.2995 477.6516,-125.786 486.779,-131.1656 488.1416,-124.2995"/>
</g>
<!-- Node15&#45;&gt;Node10 -->
<g id="edge22" class="edge">
<title>Node15&#45;&gt;Node10</title>
<path fill="none" stroke="#191970" d="M723.4874,-168.2455C717.0232,-160.3761 707.7615,-149.101 700.0017,-139.6542"/>
<polygon fill="#191970" stroke="#191970" points="702.4727,-137.1484 693.4208,-131.6427 697.0636,-141.5916 702.4727,-137.1484"/>
</g>
<!-- Node15&#45;&gt;Node13 -->
<g id="edge23" class="edge">
<title>Node15&#45;&gt;Node13</title>
<path fill="none" stroke="#191970" d="M739.5126,-168.2455C745.9768,-160.3761 755.2385,-149.101 762.9983,-139.6542"/>
<polygon fill="#191970" stroke="#191970" points="765.9364,-141.5916 769.5792,-131.6427 760.5273,-137.1484 765.9364,-141.5916"/>
</g>
<!-- Node16&#45;&gt;Node4 -->
<g id="edge25" class="edge">
<title>Node16&#45;&gt;Node4</title>
<path fill="none" stroke="#191970" d="M93.7168,-168.2923C122.4078,-154.717 176.7629,-129.7373 224.5,-112 262.3483,-97.937 306.6678,-84.6473 337.0729,-76.0028"/>
<polygon fill="#191970" stroke="#191970" points="338.146,-79.3368 346.8213,-73.2549 336.2467,-72.5993 338.146,-79.3368"/>
</g>
<!-- Node16&#45;&gt;Node7 -->
<g id="edge26" class="edge">
<title>Node16&#45;&gt;Node7</title>
<path fill="none" stroke="#191970" d="M103.228,-169.9896C106.3472,-169.2654 109.4807,-168.5856 112.5,-168 228.7073,-145.4596 369.0287,-130.5347 429.0016,-124.7274"/>
<polygon fill="#191970" stroke="#191970" points="429.619,-128.1845 439.2409,-123.7494 428.9534,-121.2162 429.619,-128.1845"/>
</g>
<!-- Node17&#45;&gt;Node4 -->
<g id="edge28" class="edge">
<title>Node17&#45;&gt;Node4</title>
<path fill="none" stroke="#191970" d="M168.9758,-168.4525C188.5348,-154.848 226.206,-129.5878 260.5,-112 285.4549,-99.2018 314.8242,-87.337 337.366,-78.8636"/>
<polygon fill="#191970" stroke="#191970" points="338.7291,-82.0912 346.8884,-75.3327 336.2953,-75.5278 338.7291,-82.0912"/>
</g>
<!-- Node17&#45;&gt;Node7 -->
<g id="edge29" class="edge">
<title>Node17&#45;&gt;Node7</title>
<path fill="none" stroke="#191970" d="M189.7314,-169.8656C192.6928,-169.2146 195.6466,-168.5838 198.5,-168 281.7951,-150.9588 380.8702,-134.4648 429.1381,-126.6701"/>
<polygon fill="#191970" stroke="#191970" points="429.8713,-130.0973 439.189,-125.0544 428.7602,-123.186 429.8713,-130.0973"/>
</g>
<!-- Node18&#45;&gt;Node7 -->
<g id="edge32" class="edge">
<title>Node18&#45;&gt;Node7</title>
<path fill="none" stroke="#191970" d="M342.5669,-168.3733C366.7232,-158.7107 403.9457,-143.8217 429.6664,-133.5335"/>
<polygon fill="#191970" stroke="#191970" points="431.2587,-136.6662 439.2436,-129.7026 428.659,-130.1669 431.2587,-136.6662"/>
</g>
<!-- Node19 -->
<g id="node19" class="node">
<title>Node19</title>
<g id="a_node19"><a xlink:title=" ">
<polygon fill="#ffffff" stroke="#bfbfbf" points="289.5,-112.5 289.5,-131.5 345.5,-131.5 345.5,-112.5 289.5,-112.5"/>
<text text-anchor="middle" x="317.5" y="-119.5" font-family="Helvetica,sans-Serif" font-size="10.00" fill="#000000">stdarg.h</text>
</a>
</g>
</g>
<!-- Node18&#45;&gt;Node19 -->
<g id="edge31" class="edge">
<title>Node18&#45;&gt;Node19</title>
<path fill="none" stroke="#191970" d="M318.3258,-168.2455C318.1953,-160.9382 318.0124,-150.6944 317.8519,-141.7046"/>
<polygon fill="#191970" stroke="#191970" points="321.3503,-141.5786 317.6722,-131.6427 314.3514,-141.7036 321.3503,-141.5786"/>
</g>
<!-- Node20&#45;&gt;Node4 -->
<g id="edge34" class="edge">
<title>Node20&#45;&gt;Node4</title>
<path fill="none" stroke="#191970" d="M389.9653,-168.4509C387.0296,-150.184 380.5642,-109.9553 376.6657,-85.6976"/>
<polygon fill="#191970" stroke="#191970" points="380.0733,-84.8428 375.0308,-75.5249 373.162,-85.9536 380.0733,-84.8428"/>
</g>
<!-- Node20&#45;&gt;Node7 -->
<g id="edge35" class="edge">
<title>Node20&#45;&gt;Node7</title>
<path fill="none" stroke="#191970" d="M403.1705,-168.2455C413.0661,-159.9746 427.4627,-147.9416 439.0901,-138.2232"/>
<polygon fill="#191970" stroke="#191970" points="441.535,-140.7413 446.9632,-131.6427 437.0458,-135.3703 441.535,-140.7413"/>
</g>
<!-- Node20&#45;&gt;Node19 -->
<g id="edge36" class="edge">
<title>Node20&#45;&gt;Node19</title>
<path fill="none" stroke="#191970" d="M378.6102,-168.2455C367.5746,-159.8943 351.4708,-147.7076 338.5647,-137.9408"/>
<polygon fill="#191970" stroke="#191970" points="340.3283,-134.8862 330.2421,-131.6427 336.1041,-140.4681 340.3283,-134.8862"/>
</g>
<!-- Node21 -->
<g id="node21" class="node">
<title>Node21</title>
<g id="a_node21"><a xlink:href="setjmp_8h.html" target="_top" xlink:title=" ">
<polygon fill="#ffffff" stroke="#000000" points="420,-56.5 420,-75.5 479,-75.5 479,-56.5 420,-56.5"/>
<text text-anchor="middle" x="449.5" y="-63.5" font-family="Helvetica,sans-Serif" font-size="10.00" fill="#000000">setjmp.h</text>
</a>
</g>
</g>
<!-- Node20&#45;&gt;Node21 -->
<g id="edge37" class="edge">
<title>Node20&#45;&gt;Node21</title>
<path fill="none" stroke="#191970" d="M396.445,-168.4509C406.0331,-149.936 427.3051,-108.8591 439.8064,-84.7187"/>
<polygon fill="#191970" stroke="#191970" points="443.0769,-86.0144 444.5675,-75.5249 436.8609,-82.7953 443.0769,-86.0144"/>
</g>
<!-- Node21&#45;&gt;Node6 -->
<g id="edge38" class="edge">
<title>Node21&#45;&gt;Node6</title>
<path fill="none" stroke="#191970" d="M449.8484,-56.2455C450.1093,-48.9382 450.4752,-38.6944 450.7963,-29.7046"/>
<polygon fill="#191970" stroke="#191970" points="454.2964,-29.7613 451.1556,-19.6427 447.3008,-29.5113 454.2964,-29.7613"/>
</g>
<!-- Node23&#45;&gt;Node2 -->
<g id="edge41" class="edge">
<title>Node23&#45;&gt;Node2</title>
<path fill="none" stroke="#191970" d="M654.4748,-224.2455C640.3592,-215.6534 619.5737,-203.0014 603.3101,-193.1018"/>
<polygon fill="#191970" stroke="#191970" points="604.7034,-189.8525 594.3415,-187.6427 601.0637,-195.8319 604.7034,-189.8525"/>
</g>
<!-- Node23&#45;&gt;Node7 -->
<g id="edge42" class="edge">
<title>Node23&#45;&gt;Node7</title>
<path fill="none" stroke="#191970" d="M669.9445,-224.3648C668.5781,-209.9401 663.8515,-182.8439 647.5,-168 624.2448,-146.889 535.001,-132.1708 487.9414,-125.701"/>
<polygon fill="#191970" stroke="#191970" points="488.139,-122.1963 477.7634,-124.3401 487.2113,-129.1346 488.139,-122.1963"/>
</g>
<!-- Node23&#45;&gt;Node14 -->
<g id="edge45" class="edge">
<title>Node23&#45;&gt;Node14</title>
<path fill="none" stroke="#191970" d="M696.6039,-232.0319C746.3249,-227.683 851.6238,-215.388 873.5,-188 901.6222,-152.7923 852.4202,-106.0237 821.58,-81.8984"/>
<polygon fill="#191970" stroke="#191970" points="823.5286,-78.9833 813.4479,-75.7227 819.295,-84.558 823.5286,-78.9833"/>
</g>
<!-- Node24 -->
<g id="node24" class="node">
<title>Node24</title>
<g id="a_node24"><a xlink:href="tcpip_8h.html" target="_top" xlink:title=" ">
<polygon fill="#ffffff" stroke="#000000" points="920.5,-112.5 920.5,-131.5 970.5,-131.5 970.5,-112.5 920.5,-112.5"/>
<text text-anchor="middle" x="945.5" y="-119.5" font-family="Helvetica,sans-Serif" font-size="10.00" fill="#000000">tcpip.h</text>
</a>
</g>
</g>
<!-- Node23&#45;&gt;Node24 -->
<g id="edge43" class="edge">
<title>Node23&#45;&gt;Node24</title>
<path fill="none" stroke="#191970" d="M696.5638,-231.6163C750.6458,-226.2451 872.8265,-211.7762 906.5,-188 922.5774,-176.6481 933.0939,-156.3889 939.1094,-141.3005"/>
<polygon fill="#191970" stroke="#191970" points="942.4166,-142.4476 942.5679,-131.8538 935.8433,-140.041 942.4166,-142.4476"/>
</g>
<!-- Node24&#45;&gt;Node6 -->
<g id="edge44" class="edge">
<title>Node24&#45;&gt;Node6</title>
<path fill="none" stroke="#191970" d="M934.3723,-112.3976C916.4074,-97.4984 879.2954,-69.1604 842.5,-56 779.9745,-33.6369 587.1102,-18.721 497.7848,-12.8306"/>
<polygon fill="#191970" stroke="#191970" points="497.8821,-9.3296 487.6761,-12.1735 497.4279,-16.3149 497.8821,-9.3296"/>
</g>
<!-- Node25&#45;&gt;Node2 -->
<g id="edge47" class="edge">
<title>Node25&#45;&gt;Node2</title>
<path fill="none" stroke="#191970" d="M518.2156,-224.2455C529.102,-215.8943 544.9883,-203.7076 557.72,-193.9408"/>
<polygon fill="#191970" stroke="#191970" points="560.1261,-196.5063 565.9301,-187.6427 555.8654,-190.9523 560.1261,-196.5063"/>
</g>
<!-- Node25&#45;&gt;Node7 -->
<g id="edge48" class="edge">
<title>Node25&#45;&gt;Node7</title>
<path fill="none" stroke="#191970" d="M495.2441,-224.4548C486.6343,-215.8055 474.7651,-202.2631 468.5,-188 462.0915,-173.4104 459.6823,-155.4531 458.825,-141.9547"/>
<polygon fill="#191970" stroke="#191970" points="462.3171,-141.687 458.4162,-131.8365 455.3228,-141.9697 462.3171,-141.687"/>
</g>
<!-- Node25&#45;&gt;Node8 -->
<g id="edge53" class="edge">
<title>Node25&#45;&gt;Node8</title>
<path fill="none" stroke="#191970" d="M475.7838,-228.0434C435.1342,-219.8455 359.6635,-204.4486 285.7011,-188.2301"/>
<polygon fill="#191970" stroke="#191970" points="286.2697,-184.7715 275.7512,-186.0411 284.7657,-191.608 286.2697,-184.7715"/>
</g>
<!-- Node26 -->
<g id="node26" class="node">
<title>Node26</title>
<g id="a_node26"><a xlink:href="ioman_8h.html" target="_top" xlink:title=" ">
<polygon fill="#ffffff" stroke="#000000" points="477.5,-168.5 477.5,-187.5 533.5,-187.5 533.5,-168.5 477.5,-168.5"/>
<text text-anchor="middle" x="505.5" y="-175.5" font-family="Helvetica,sans-Serif" font-size="10.00" fill="#000000">ioman.h</text>
</a>
</g>
</g>
<!-- Node25&#45;&gt;Node26 -->
<g id="edge49" class="edge">
<title>Node25&#45;&gt;Node26</title>
<path fill="none" stroke="#191970" d="M505.5,-224.2455C505.5,-216.9382 505.5,-206.6944 505.5,-197.7046"/>
<polygon fill="#191970" stroke="#191970" points="509.0001,-197.6426 505.5,-187.6427 502.0001,-197.6427 509.0001,-197.6426"/>
</g>
<!-- Node26&#45;&gt;Node4 -->
<g id="edge50" class="edge">
<title>Node26&#45;&gt;Node4</title>
<path fill="none" stroke="#191970" d="M505.2645,-168.2233C504.4129,-154.1063 500.8487,-127.9611 486.5,-112 475.8596,-100.1639 438.7707,-86.3721 409.9526,-76.9996"/>
<polygon fill="#191970" stroke="#191970" points="410.7517,-73.5809 400.1611,-73.8792 408.6262,-80.2504 410.7517,-73.5809"/>
</g>
<!-- Node26&#45;&gt;Node7 -->
<g id="edge51" class="edge">
<title>Node26&#45;&gt;Node7</title>
<path fill="none" stroke="#191970" d="M497.3132,-168.2455C490.6411,-160.2958 481.0521,-148.8706 473.0747,-139.3656"/>
<polygon fill="#191970" stroke="#191970" points="475.7026,-137.0524 466.593,-131.6427 470.3408,-141.5525 475.7026,-137.0524"/>
</g>
<!-- Node26&#45;&gt;Node10 -->
<g id="edge52" class="edge">
<title>Node26&#45;&gt;Node10</title>
<path fill="none" stroke="#191970" d="M533.625,-169.25C563.5928,-159.9267 611.3003,-145.0843 645.2441,-134.5241"/>
<polygon fill="#191970" stroke="#191970" points="646.3547,-137.8441 654.8635,-131.5314 644.2752,-131.1601 646.3547,-137.8441"/>
</g>
</g>
</svg>
