<?xml version="1.0" encoding="UTF-8" standalone="no"?>
<!DOCTYPE svg PUBLIC "-//W3C//DTD SVG 1.1//EN"
 "http://www.w3.org/Graphics/SVG/1.1/DTD/svg11.dtd">
<!-- Generated by graphviz version 2.40.1 (20161225.0304)
 -->
<!-- Title: iop/tcpip/tcpips/src/ps2ips.c Pages: 1 -->
<svg width="755pt" height="263pt"
 viewBox="0.00 0.00 754.70 263.00" xmlns="http://www.w3.org/2000/svg" xmlns:xlink="http://www.w3.org/1999/xlink">
<g id="graph0" class="graph" transform="scale(1 1) rotate(0) translate(4 259)">
<title>iop/tcpip/tcpips/src/ps2ips.c</title>
<polygon fill="#ffffff" stroke="transparent" points="-4,4 -4,-259 750.6972,-259 750.6972,4 -4,4"/>
<!-- Node1 -->
<g id="node1" class="node">
<title>Node1</title>
<g id="a_node1"><a xlink:title=" ">
<polygon fill="#bfbfbf" stroke="#000000" points="332.5,-224.5 332.5,-254.5 440.5,-254.5 440.5,-224.5 332.5,-224.5"/>
<text text-anchor="start" x="340.5" y="-242.5" font-family="Helvetica,sans-Serif" font-size="10.00" fill="#000000">iop/tcpip/tcpips/src</text>
<text text-anchor="middle" x="386.5" y="-231.5" font-family="Helvetica,sans-Serif" font-size="10.00" fill="#000000">/ps2ips.c</text>
</a>
</g>
</g>
<!-- Node2 -->
<g id="node2" class="node">
<title>Node2</title>
<g id="a_node2"><a xlink:title=" ">
<polygon fill="#ffffff" stroke="#bfbfbf" points="527,-112.5 527,-131.5 580,-131.5 580,-112.5 527,-112.5"/>
<text text-anchor="middle" x="553.5" y="-119.5" font-family="Helvetica,sans-Serif" font-size="10.00" fill="#000000">types.h</text>
</a>
</g>
</g>
<!-- Node1&#45;&gt;Node2 -->
<g id="edge1" class="edge">
<title>Node1&#45;&gt;Node2</title>
<path fill="none" stroke="#191970" d="M440.5898,-226.9072C478.2766,-217.081 524.1001,-202.6762 537.5,-188 548.7912,-175.6334 552.4784,-156.6733 553.5237,-142.2426"/>
<polygon fill="#191970" stroke="#191970" points="557.0354,-141.9703 553.8903,-131.853 550.0397,-141.7233 557.0354,-141.9703"/>
</g>
<!-- Node3 -->
<g id="node3" class="node">
<title>Node3</title>
<g id="a_node3"><a xlink:href="loadcore_8h.html" target="_top" xlink:title=" ">
<polygon fill="#ffffff" stroke="#000000" points="314.5,-168.5 314.5,-187.5 382.5,-187.5 382.5,-168.5 314.5,-168.5"/>
<text text-anchor="middle" x="348.5" y="-175.5" font-family="Helvetica,sans-Serif" font-size="10.00" fill="#000000">loadcore.h</text>
</a>
</g>
</g>
<!-- Node1&#45;&gt;Node3 -->
<g id="edge2" class="edge">
<title>Node1&#45;&gt;Node3</title>
<path fill="none" stroke="#191970" d="M377.1067,-224.2977C371.8869,-215.8498 365.3543,-205.2773 359.85,-196.369"/>
<polygon fill="#191970" stroke="#191970" points="362.8182,-194.5143 354.5843,-187.8469 356.8632,-198.1938 362.8182,-194.5143"/>
</g>
<!-- Node8 -->
<g id="node8" class="node">
<title>Node8</title>
<g id="a_node8"><a xlink:href="stdio_8h.html" target="_top" xlink:title=" ">
<polygon fill="#ffffff" stroke="#000000" points="400.5,-168.5 400.5,-187.5 450.5,-187.5 450.5,-168.5 400.5,-168.5"/>
<text text-anchor="middle" x="425.5" y="-175.5" font-family="Helvetica,sans-Serif" font-size="10.00" fill="#000000">stdio.h</text>
</a>
</g>
</g>
<!-- Node1&#45;&gt;Node8 -->
<g id="edge8" class="edge">
<title>Node1&#45;&gt;Node8</title>
<path fill="none" stroke="#191970" d="M396.1405,-224.2977C401.4977,-215.8498 408.2022,-205.2773 413.8513,-196.369"/>
<polygon fill="#191970" stroke="#191970" points="416.8559,-198.1664 419.2556,-187.8469 410.9444,-194.4176 416.8559,-198.1664"/>
</g>
<!-- Node10 -->
<g id="node10" class="node">
<title>Node10</title>
<g id="a_node10"><a xlink:href="sifman_8h.html" target="_top" xlink:title=" ">
<polygon fill="#ffffff" stroke="#000000" points="160,-168.5 160,-187.5 219,-187.5 219,-168.5 160,-168.5"/>
<text text-anchor="middle" x="189.5" y="-175.5" font-family="Helvetica,sans-Serif" font-size="10.00" fill="#000000">sifman.h</text>
</a>
</g>
</g>
<!-- Node1&#45;&gt;Node10 -->
<g id="edge11" class="edge">
<title>Node1&#45;&gt;Node10</title>
<path fill="none" stroke="#191970" d="M338.3084,-224.4554C304.6976,-213.9627 260.4039,-200.135 228.9035,-190.3011"/>
<polygon fill="#191970" stroke="#191970" points="229.744,-186.897 219.1553,-187.2579 227.658,-193.5789 229.744,-186.897"/>
</g>
<!-- Node11 -->
<g id="node11" class="node">
<title>Node11</title>
<g id="a_node11"><a xlink:href="sifcmd_8h.html" target="_top" xlink:title=" ">
<polygon fill="#ffffff" stroke="#000000" points="237,-168.5 237,-187.5 296,-187.5 296,-168.5 237,-168.5"/>
<text text-anchor="middle" x="266.5" y="-175.5" font-family="Helvetica,sans-Serif" font-size="10.00" fill="#000000">sifcmd.h</text>
</a>
</g>
</g>
<!-- Node1&#45;&gt;Node11 -->
<g id="edge14" class="edge">
<title>Node1&#45;&gt;Node11</title>
<path fill="none" stroke="#191970" d="M357.1447,-224.4554C337.9127,-214.599 312.9388,-201.7999 294.0759,-192.1327"/>
<polygon fill="#191970" stroke="#191970" points="295.5914,-188.9765 285.0957,-187.5303 292.3987,-195.206 295.5914,-188.9765"/>
</g>
<!-- Node12 -->
<g id="node12" class="node">
<title>Node12</title>
<g id="a_node12"><a xlink:href="sysclib_8h.html" target="_top" xlink:title=" ">
<polygon fill="#ffffff" stroke="#000000" points="469,-168.5 469,-187.5 528,-187.5 528,-168.5 469,-168.5"/>
<text text-anchor="middle" x="498.5" y="-175.5" font-family="Helvetica,sans-Serif" font-size="10.00" fill="#000000">sysclib.h</text>
</a>
</g>
</g>
<!-- Node1&#45;&gt;Node12 -->
<g id="edge17" class="edge">
<title>Node1&#45;&gt;Node12</title>
<path fill="none" stroke="#191970" d="M413.8983,-224.4554C431.6022,-214.734 454.5195,-202.15 472.0358,-192.5317"/>
<polygon fill="#191970" stroke="#191970" points="474.0631,-195.4115 481.144,-187.5303 470.6939,-189.2756 474.0631,-195.4115"/>
</g>
<!-- Node14 -->
<g id="node14" class="node">
<title>Node14</title>
<g id="a_node14"><a xlink:href="thbase_8h.html" target="_top" xlink:title=" ">
<polygon fill="#ffffff" stroke="#000000" points="0,-168.5 0,-187.5 59,-187.5 59,-168.5 0,-168.5"/>
<text text-anchor="middle" x="29.5" y="-175.5" font-family="Helvetica,sans-Serif" font-size="10.00" fill="#000000">thbase.h</text>
</a>
</g>
</g>
<!-- Node1&#45;&gt;Node14 -->
<g id="edge23" class="edge">
<title>Node1&#45;&gt;Node14</title>
<path fill="none" stroke="#191970" d="M332.4932,-232.2726C271.0528,-223.7114 167.5527,-208.2635 69.066,-187.9662"/>
<polygon fill="#191970" stroke="#191970" points="69.7491,-184.5334 59.2457,-185.9224 68.3228,-191.3866 69.7491,-184.5334"/>
</g>
<!-- Node15 -->
<g id="node15" class="node">
<title>Node15</title>
<g id="a_node15"><a xlink:href="intrman_8h.html" target="_top" xlink:title=" ">
<polygon fill="#ffffff" stroke="#000000" points="77.5,-168.5 77.5,-187.5 141.5,-187.5 141.5,-168.5 77.5,-168.5"/>
<text text-anchor="middle" x="109.5" y="-175.5" font-family="Helvetica,sans-Serif" font-size="10.00" fill="#000000">intrman.h</text>
</a>
</g>
</g>
<!-- Node1&#45;&gt;Node15 -->
<g id="edge26" class="edge">
<title>Node1&#45;&gt;Node15</title>
<path fill="none" stroke="#191970" d="M332.3019,-227.9122C284.6315,-217.651 213.389,-202.148 151.5,-188 151.3995,-187.977 151.2989,-187.954 151.1982,-187.931"/>
<polygon fill="#191970" stroke="#191970" points="152.1219,-184.5524 141.5897,-185.7032 150.5408,-191.3715 152.1219,-184.5524"/>
</g>
<!-- Node16 -->
<g id="node16" class="node">
<title>Node16</title>
<g id="a_node16"><a xlink:href="ps2ip_8h.html" target="_top" xlink:title=" ">
<polygon fill="#ffffff" stroke="#000000" points="584.5,-168.5 584.5,-187.5 636.5,-187.5 636.5,-168.5 584.5,-168.5"/>
<text text-anchor="middle" x="610.5" y="-175.5" font-family="Helvetica,sans-Serif" font-size="10.00" fill="#000000">ps2ip.h</text>
</a>
</g>
</g>
<!-- Node1&#45;&gt;Node16 -->
<g id="edge29" class="edge">
<title>Node1&#45;&gt;Node16</title>
<path fill="none" stroke="#191970" d="M440.7242,-224.6126C482.2061,-213.2235 538.2491,-197.8368 574.3886,-187.9145"/>
<polygon fill="#191970" stroke="#191970" points="575.7593,-191.1678 584.4758,-185.145 573.906,-184.4176 575.7593,-191.1678"/>
</g>
<!-- Node19 -->
<g id="node19" class="node">
<title>Node19</title>
<g id="a_node19"><a xlink:href="ps2ip__rpc_8h.html" target="_top" xlink:title=" ">
<polygon fill="#ffffff" stroke="#000000" points="659.5,-168.5 659.5,-187.5 731.5,-187.5 731.5,-168.5 659.5,-168.5"/>
<text text-anchor="middle" x="695.5" y="-175.5" font-family="Helvetica,sans-Serif" font-size="10.00" fill="#000000">ps2ip_rpc.h</text>
</a>
</g>
</g>
<!-- Node1&#45;&gt;Node19 -->
<g id="edge35" class="edge">
<title>Node1&#45;&gt;Node19</title>
<path fill="none" stroke="#191970" d="M440.5739,-228.7661C492.9726,-218.3604 574.6875,-202.1215 645.5,-188 646.7697,-187.7468 648.0575,-187.4899 649.3572,-187.2305"/>
<polygon fill="#191970" stroke="#191970" points="650.33,-190.6054 659.4509,-185.2148 648.9591,-183.741 650.33,-190.6054"/>
</g>
<!-- Node4 -->
<g id="node4" class="node">
<title>Node4</title>
<g id="a_node4"><a xlink:href="types_8h.html" target="_top" xlink:title=" ">
<polygon fill="#ffffff" stroke="#000000" points="252,-56.5 252,-75.5 305,-75.5 305,-56.5 252,-56.5"/>
<text text-anchor="middle" x="278.5" y="-63.5" font-family="Helvetica,sans-Serif" font-size="10.00" fill="#000000">types.h</text>
</a>
</g>
</g>
<!-- Node3&#45;&gt;Node4 -->
<g id="edge3" class="edge">
<title>Node3&#45;&gt;Node4</title>
<path fill="none" stroke="#191970" d="M347.4161,-168.365C345.5405,-154.8759 340.7488,-129.998 329.5,-112 322.193,-100.3089 311.0828,-89.7947 301.0954,-81.7793"/>
<polygon fill="#191970" stroke="#191970" points="303.1517,-78.9458 293.0782,-75.6631 298.9059,-84.5112 303.1517,-78.9458"/>
</g>
<!-- Node7 -->
<g id="node7" class="node">
<title>Node7</title>
<g id="a_node7"><a xlink:href="irx_8h.html" target="_top" xlink:title=" ">
<polygon fill="#ffffff" stroke="#000000" points="282.5,-112.5 282.5,-131.5 320.5,-131.5 320.5,-112.5 282.5,-112.5"/>
<text text-anchor="middle" x="301.5" y="-119.5" font-family="Helvetica,sans-Serif" font-size="10.00" fill="#000000">irx.h</text>
</a>
</g>
</g>
<!-- Node3&#45;&gt;Node7 -->
<g id="edge6" class="edge">
<title>Node3&#45;&gt;Node7</title>
<path fill="none" stroke="#191970" d="M340.3132,-168.2455C333.6411,-160.2958 324.0521,-148.8706 316.0747,-139.3656"/>
<polygon fill="#191970" stroke="#191970" points="318.7026,-137.0524 309.593,-131.6427 313.3408,-141.5525 318.7026,-137.0524"/>
</g>
<!-- Node5 -->
<g id="node5" class="node">
<title>Node5</title>
<g id="a_node5"><a xlink:title=" ">
<polygon fill="#ffffff" stroke="#bfbfbf" points="250.5,-.5 250.5,-19.5 306.5,-19.5 306.5,-.5 250.5,-.5"/>
<text text-anchor="middle" x="278.5" y="-7.5" font-family="Helvetica,sans-Serif" font-size="10.00" fill="#000000">stddef.h</text>
</a>
</g>
</g>
<!-- Node4&#45;&gt;Node5 -->
<g id="edge4" class="edge">
<title>Node4&#45;&gt;Node5</title>
<path fill="none" stroke="#191970" d="M278.5,-56.2455C278.5,-48.9382 278.5,-38.6944 278.5,-29.7046"/>
<polygon fill="#191970" stroke="#191970" points="282.0001,-29.6426 278.5,-19.6427 275.0001,-29.6427 282.0001,-29.6426"/>
</g>
<!-- Node6 -->
<g id="node6" class="node">
<title>Node6</title>
<g id="a_node6"><a xlink:href="tamtypes_8h.html" target="_top" xlink:title=" ">
<polygon fill="#ffffff" stroke="#000000" points="540.5,-.5 540.5,-19.5 612.5,-19.5 612.5,-.5 540.5,-.5"/>
<text text-anchor="middle" x="576.5" y="-7.5" font-family="Helvetica,sans-Serif" font-size="10.00" fill="#000000">tamtypes.h</text>
</a>
</g>
</g>
<!-- Node4&#45;&gt;Node6 -->
<g id="edge5" class="edge">
<title>Node4&#45;&gt;Node6</title>
<path fill="none" stroke="#191970" d="M305.2078,-60.9811C355.9552,-51.4447 466.8738,-30.6009 530.0427,-18.7302"/>
<polygon fill="#191970" stroke="#191970" points="530.9484,-22.1214 540.13,-16.8346 529.6556,-15.2418 530.9484,-22.1214"/>
</g>
<!-- Node7&#45;&gt;Node4 -->
<g id="edge7" class="edge">
<title>Node7&#45;&gt;Node4</title>
<path fill="none" stroke="#191970" d="M297.4937,-112.2455C294.4265,-104.7776 290.0997,-94.2427 286.3503,-85.1137"/>
<polygon fill="#191970" stroke="#191970" points="289.4972,-83.5631 282.4604,-75.6427 283.0221,-86.2226 289.4972,-83.5631"/>
</g>
<!-- Node8&#45;&gt;Node7 -->
<g id="edge10" class="edge">
<title>Node8&#45;&gt;Node7</title>
<path fill="none" stroke="#191970" d="M404.1836,-168.3733C383.6752,-159.1114 352.5338,-145.0475 329.9233,-134.8363"/>
<polygon fill="#191970" stroke="#191970" points="331.0623,-131.5104 320.5081,-130.5843 328.1812,-137.89 331.0623,-131.5104"/>
</g>
<!-- Node9 -->
<g id="node9" class="node">
<title>Node9</title>
<g id="a_node9"><a xlink:title=" ">
<polygon fill="#ffffff" stroke="#bfbfbf" points="376.5,-112.5 376.5,-131.5 432.5,-131.5 432.5,-112.5 376.5,-112.5"/>
<text text-anchor="middle" x="404.5" y="-119.5" font-family="Helvetica,sans-Serif" font-size="10.00" fill="#000000">stdarg.h</text>
</a>
</g>
</g>
<!-- Node8&#45;&gt;Node9 -->
<g id="edge9" class="edge">
<title>Node8&#45;&gt;Node9</title>
<path fill="none" stroke="#191970" d="M421.8421,-168.2455C419.0416,-160.7776 415.091,-150.2427 411.6676,-141.1137"/>
<polygon fill="#191970" stroke="#191970" points="414.9045,-139.777 408.116,-131.6427 408.3501,-142.2349 414.9045,-139.777"/>
</g>
<!-- Node10&#45;&gt;Node4 -->
<g id="edge12" class="edge">
<title>Node10&#45;&gt;Node4</title>
<path fill="none" stroke="#191970" d="M197.0881,-168.4509C212.0636,-149.6054 245.6138,-107.3849 264.6399,-83.4419"/>
<polygon fill="#191970" stroke="#191970" points="267.4499,-85.5315 270.9311,-75.5249 261.9695,-81.1765 267.4499,-85.5315"/>
</g>
<!-- Node10&#45;&gt;Node7 -->
<g id="edge13" class="edge">
<title>Node10&#45;&gt;Node7</title>
<path fill="none" stroke="#191970" d="M208.7535,-168.3733C226.5712,-159.4644 253.2747,-146.1127 273.4594,-136.0203"/>
<polygon fill="#191970" stroke="#191970" points="275.1187,-139.1038 282.4978,-131.5011 271.9882,-132.8428 275.1187,-139.1038"/>
</g>
<!-- Node11&#45;&gt;Node4 -->
<g id="edge15" class="edge">
<title>Node11&#45;&gt;Node4</title>
<path fill="none" stroke="#191970" d="M267.5356,-168.1592C268.8949,-155.261 271.3594,-131.9347 273.5,-112 274.4316,-103.3239 275.4729,-93.7285 276.363,-85.5562"/>
<polygon fill="#191970" stroke="#191970" points="279.8533,-85.8346 277.4586,-75.514 272.8946,-85.0754 279.8533,-85.8346"/>
</g>
<!-- Node11&#45;&gt;Node7 -->
<g id="edge16" class="edge">
<title>Node11&#45;&gt;Node7</title>
<path fill="none" stroke="#191970" d="M272.5965,-168.2455C277.4145,-160.5367 284.2751,-149.5598 290.1032,-140.2348"/>
<polygon fill="#191970" stroke="#191970" points="293.1413,-141.9777 295.4733,-131.6427 287.2053,-138.2677 293.1413,-141.9777"/>
</g>
<!-- Node12&#45;&gt;Node4 -->
<g id="edge18" class="edge">
<title>Node12&#45;&gt;Node4</title>
<path fill="none" stroke="#191970" d="M492.7925,-168.3523C483.7491,-153.9113 464.7467,-126.794 441.5,-112 402.6078,-87.2494 350.217,-75.5616 315.4486,-70.2197"/>
<polygon fill="#191970" stroke="#191970" points="315.6542,-66.7135 305.2586,-68.7582 314.6603,-73.6426 315.6542,-66.7135"/>
</g>
<!-- Node12&#45;&gt;Node7 -->
<g id="edge19" class="edge">
<title>Node12&#45;&gt;Node7</title>
<path fill="none" stroke="#191970" d="M468.5799,-169.4948C431.0945,-158.8391 367.3024,-140.7053 330.3338,-130.1964"/>
<polygon fill="#191970" stroke="#191970" points="331.2381,-126.8149 320.6622,-127.4471 329.324,-133.5481 331.2381,-126.8149"/>
</g>
<!-- Node12&#45;&gt;Node9 -->
<g id="edge20" class="edge">
<title>Node12&#45;&gt;Node9</title>
<path fill="none" stroke="#191970" d="M482.1264,-168.2455C467.5692,-159.5731 446.069,-146.7645 429.3848,-136.825"/>
<polygon fill="#191970" stroke="#191970" points="431.0683,-133.7539 420.6859,-131.6427 427.4856,-139.7676 431.0683,-133.7539"/>
</g>
<!-- Node13 -->
<g id="node13" class="node">
<title>Node13</title>
<g id="a_node13"><a xlink:href="setjmp_8h.html" target="_top" xlink:title=" ">
<polygon fill="#ffffff" stroke="#000000" points="485,-56.5 485,-75.5 544,-75.5 544,-56.5 485,-56.5"/>
<text text-anchor="middle" x="514.5" y="-63.5" font-family="Helvetica,sans-Serif" font-size="10.00" fill="#000000">setjmp.h</text>
</a>
</g>
</g>
<!-- Node12&#45;&gt;Node13 -->
<g id="edge21" class="edge">
<title>Node12&#45;&gt;Node13</title>
<path fill="none" stroke="#191970" d="M499.8642,-168.4509C502.4737,-150.184 508.2207,-109.9553 511.6861,-85.6976"/>
<polygon fill="#191970" stroke="#191970" points="515.1898,-85.9194 513.1393,-75.5249 508.2602,-84.9294 515.1898,-85.9194"/>
</g>
<!-- Node13&#45;&gt;Node6 -->
<g id="edge22" class="edge">
<title>Node13&#45;&gt;Node6</title>
<path fill="none" stroke="#191970" d="M525.2996,-56.2455C534.3678,-48.0549 547.5206,-36.1749 558.2245,-26.5069"/>
<polygon fill="#191970" stroke="#191970" points="560.7491,-28.9429 565.8242,-19.6427 556.0571,-23.7482 560.7491,-28.9429"/>
</g>
<!-- Node14&#45;&gt;Node4 -->
<g id="edge24" class="edge">
<title>Node14&#45;&gt;Node4</title>
<path fill="none" stroke="#191970" d="M50.7296,-168.4509C94.9244,-148.5722 196.941,-102.6852 248.0963,-79.6756"/>
<polygon fill="#191970" stroke="#191970" points="249.64,-82.819 257.3241,-75.5249 246.7685,-76.4351 249.64,-82.819"/>
</g>
<!-- Node14&#45;&gt;Node7 -->
<g id="edge25" class="edge">
<title>Node14&#45;&gt;Node7</title>
<path fill="none" stroke="#191970" d="M59.2688,-170.1838C62.3801,-169.4218 65.5006,-168.6801 68.5,-168 141.497,-151.4494 228.1292,-135.2407 272.3533,-127.2112"/>
<polygon fill="#191970" stroke="#191970" points="273.178,-130.619 282.3962,-125.3963 271.9331,-123.7306 273.178,-130.619"/>
</g>
<!-- Node15&#45;&gt;Node4 -->
<g id="edge27" class="edge">
<title>Node15&#45;&gt;Node4</title>
<path fill="none" stroke="#191970" d="M123.9088,-168.4509C153.2185,-149.0268 219.9983,-104.7703 255.4292,-81.2895"/>
<polygon fill="#191970" stroke="#191970" points="257.7255,-83.9666 264.1276,-75.5249 253.8585,-78.1317 257.7255,-83.9666"/>
</g>
<!-- Node15&#45;&gt;Node7 -->
<g id="edge28" class="edge">
<title>Node15&#45;&gt;Node7</title>
<path fill="none" stroke="#191970" d="M141.6365,-168.6269C178.2666,-157.9431 237.5996,-140.6376 272.7539,-130.3843"/>
<polygon fill="#191970" stroke="#191970" points="273.7926,-133.7273 282.4125,-127.5672 271.8325,-127.0072 273.7926,-133.7273"/>
</g>
<!-- Node16&#45;&gt;Node2 -->
<g id="edge30" class="edge">
<title>Node16&#45;&gt;Node2</title>
<path fill="none" stroke="#191970" d="M600.5714,-168.2455C592.3162,-160.1352 580.3791,-148.4075 570.5918,-138.7919"/>
<polygon fill="#191970" stroke="#191970" points="572.9011,-136.1542 563.3149,-131.6427 567.9954,-141.1476 572.9011,-136.1542"/>
</g>
<!-- Node16&#45;&gt;Node7 -->
<g id="edge31" class="edge">
<title>Node16&#45;&gt;Node7</title>
<path fill="none" stroke="#191970" d="M584.4211,-173.2737C527.1844,-162.9007 390.8865,-138.1995 330.8042,-127.3108"/>
<polygon fill="#191970" stroke="#191970" points="331.3037,-123.8444 320.8398,-125.505 330.0554,-130.7322 331.3037,-123.8444"/>
</g>
<!-- Node17 -->
<g id="node17" class="node">
<title>Node17</title>
<g id="a_node17"><a xlink:href="tcpip_8h.html" target="_top" xlink:title=" ">
<polygon fill="#ffffff" stroke="#000000" points="598.5,-112.5 598.5,-131.5 648.5,-131.5 648.5,-112.5 598.5,-112.5"/>
<text text-anchor="middle" x="623.5" y="-119.5" font-family="Helvetica,sans-Serif" font-size="10.00" fill="#000000">tcpip.h</text>
</a>
</g>
</g>
<!-- Node16&#45;&gt;Node17 -->
<g id="edge32" class="edge">
<title>Node16&#45;&gt;Node17</title>
<path fill="none" stroke="#191970" d="M612.7644,-168.2455C614.4794,-160.8579 616.8912,-150.4689 618.9944,-141.4087"/>
<polygon fill="#191970" stroke="#191970" points="622.4095,-142.1751 621.2615,-131.6427 615.5908,-140.5922 622.4095,-142.1751"/>
</g>
<!-- Node18 -->
<g id="node18" class="node">
<title>Node18</title>
<g id="a_node18"><a xlink:href="time_8h.html" target="_top" xlink:title=" ">
<polygon fill="#ffffff" stroke="#000000" points="666.5,-112.5 666.5,-131.5 734.5,-131.5 734.5,-112.5 666.5,-112.5"/>
<text text-anchor="middle" x="700.5" y="-119.5" font-family="Helvetica,sans-Serif" font-size="10.00" fill="#000000">sys/time.h</text>
</a>
</g>
</g>
<!-- Node16&#45;&gt;Node18 -->
<g id="edge34" class="edge">
<title>Node16&#45;&gt;Node18</title>
<path fill="none" stroke="#191970" d="M626.1768,-168.2455C639.9856,-159.6534 660.3193,-147.0014 676.2292,-137.1018"/>
<polygon fill="#191970" stroke="#191970" points="678.3613,-139.8974 685.0028,-131.6427 674.6632,-133.954 678.3613,-139.8974"/>
</g>
<!-- Node17&#45;&gt;Node6 -->
<g id="edge33" class="edge">
<title>Node17&#45;&gt;Node6</title>
<path fill="none" stroke="#191970" d="M619.4928,-112.4509C611.7578,-94.0186 594.6392,-53.2254 584.4913,-29.043"/>
<polygon fill="#191970" stroke="#191970" points="587.594,-27.3915 580.4971,-19.5249 581.1393,-30.1002 587.594,-27.3915"/>
</g>
<!-- Node19&#45;&gt;Node6 -->
<g id="edge36" class="edge">
<title>Node19&#45;&gt;Node6</title>
<path fill="none" stroke="#191970" d="M711.147,-168.4267C729.3556,-156.0025 755.4923,-133.3769 743.5,-112 717.2417,-65.1932 659.7975,-37.3129 619.6554,-22.8243"/>
<polygon fill="#191970" stroke="#191970" points="620.7009,-19.4824 610.1061,-19.5105 618.4059,-26.0956 620.7009,-19.4824"/>
</g>
<!-- Node19&#45;&gt;Node17 -->
<g id="edge37" class="edge">
<title>Node19&#45;&gt;Node17</title>
<path fill="none" stroke="#191970" d="M682.9586,-168.2455C672.2213,-159.8943 656.5527,-147.7076 643.9953,-137.9408"/>
<polygon fill="#191970" stroke="#191970" points="645.9401,-135.0194 635.8977,-131.6427 641.6425,-140.5449 645.9401,-135.0194"/>
</g>
<!-- Node19&#45;&gt;Node18 -->
<g id="edge38" class="edge">
<title>Node19&#45;&gt;Node18</title>
<path fill="none" stroke="#191970" d="M696.3709,-168.2455C697.0234,-160.9382 697.938,-150.6944 698.7407,-141.7046"/>
<polygon fill="#191970" stroke="#191970" points="702.2358,-141.9143 699.639,-131.6427 695.2635,-141.2918 702.2358,-141.9143"/>
</g>
</g>
</svg>
