<?xml version="1.0" encoding="UTF-8" standalone="no"?>
<!DOCTYPE svg PUBLIC "-//W3C//DTD SVG 1.1//EN"
 "http://www.w3.org/Graphics/SVG/1.1/DTD/svg11.dtd">
<!-- Generated by graphviz version 2.40.1 (20161225.0304)
 -->
<!-- Title: common/include/ps2lib_err.h Pages: 1 -->
<svg width="138pt" height="106pt"
 viewBox="0.00 0.00 138.00 106.00" xmlns="http://www.w3.org/2000/svg" xmlns:xlink="http://www.w3.org/1999/xlink">
<g id="graph0" class="graph" transform="scale(1 1) rotate(0) translate(4 102)">
<title>common/include/ps2lib_err.h</title>
<polygon fill="#ffffff" stroke="transparent" points="-4,4 -4,-102 134,-102 134,4 -4,4"/>
<!-- Node1 -->
<g id="node1" class="node">
<title>Node1</title>
<g id="a_node1"><a xlink:title=" ">
<polygon fill="#bfbfbf" stroke="#000000" points="0,-67.5 0,-97.5 130,-97.5 130,-67.5 0,-67.5"/>
<text text-anchor="start" x="8" y="-85.5" font-family="Helvetica,sans-Serif" font-size="10.00" fill="#000000">common/include/ps2lib</text>
<text text-anchor="middle" x="65" y="-74.5" font-family="Helvetica,sans-Serif" font-size="10.00" fill="#000000">_err.h</text>
</a>
</g>
</g>
<!-- Node2 -->
<g id="node2" class="node">
<title>Node2</title>
<g id="a_node2"><a xlink:href="xprintf_8c.html" target="_top" xlink:title=" ">
<polygon fill="#ffffff" stroke="#000000" points="13.5,-.5 13.5,-30.5 116.5,-30.5 116.5,-.5 13.5,-.5"/>
<text text-anchor="start" x="21.5" y="-18.5" font-family="Helvetica,sans-Serif" font-size="10.00" fill="#000000">iop/debug/sior/src</text>
<text text-anchor="middle" x="65" y="-7.5" font-family="Helvetica,sans-Serif" font-size="10.00" fill="#000000">/xprintf.c</text>
</a>
</g>
</g>
<!-- Node1&#45;&gt;Node2 -->
<g id="edge1" class="edge">
<title>Node1&#45;&gt;Node2</title>
<path fill="none" stroke="#191970" d="M65,-57.0249C65,-48.128 65,-38.4287 65,-30.6432"/>
<polygon fill="#191970" stroke="#191970" points="61.5001,-57.2966 65,-67.2967 68.5001,-57.2967 61.5001,-57.2966"/>
</g>
</g>
</svg>
