<?xml version="1.0" encoding="UTF-8" standalone="no"?>
<!DOCTYPE svg PUBLIC "-//W3C//DTD SVG 1.1//EN"
 "http://www.w3.org/Graphics/SVG/1.1/DTD/svg11.dtd">
<!-- Generated by graphviz version 2.40.1 (20161225.0304)
 -->
<!-- Title: iop/usb/mouse/src/ps2mouse.c Pages: 1 -->
<svg width="1050pt" height="308pt"
 viewBox="0.00 0.00 1050.00 308.00" xmlns="http://www.w3.org/2000/svg" xmlns:xlink="http://www.w3.org/1999/xlink">
<g id="graph0" class="graph" transform="scale(1 1) rotate(0) translate(4 304)">
<title>iop/usb/mouse/src/ps2mouse.c</title>
<polygon fill="#ffffff" stroke="transparent" points="-4,4 -4,-304 1046,-304 1046,4 -4,4"/>
<!-- Node1 -->
<g id="node1" class="node">
<title>Node1</title>
<g id="a_node1"><a xlink:title=" ">
<polygon fill="#bfbfbf" stroke="#000000" points="478,-280.5 478,-299.5 645,-299.5 645,-280.5 478,-280.5"/>
<text text-anchor="middle" x="561.5" y="-287.5" font-family="Helvetica,sans-Serif" font-size="10.00" fill="#000000">iop/usb/mouse/src/ps2mouse.c</text>
</a>
</g>
</g>
<!-- Node2 -->
<g id="node2" class="node">
<title>Node2</title>
<g id="a_node2"><a xlink:title=" ">
<polygon fill="#ffffff" stroke="#bfbfbf" points="303,-112.5 303,-131.5 356,-131.5 356,-112.5 303,-112.5"/>
<text text-anchor="middle" x="329.5" y="-119.5" font-family="Helvetica,sans-Serif" font-size="10.00" fill="#000000">types.h</text>
</a>
</g>
</g>
<!-- Node1&#45;&gt;Node2 -->
<g id="edge1" class="edge">
<title>Node1&#45;&gt;Node2</title>
<path fill="none" stroke="#191970" d="M477.9996,-282.2826C424.7851,-275.5503 362.5567,-263.6913 344.5,-244 319.0078,-216.2001 321.5663,-168.6314 325.5935,-141.8438"/>
<polygon fill="#191970" stroke="#191970" points="329.0831,-142.2031 327.3318,-131.754 322.1847,-141.0145 329.0831,-142.2031"/>
</g>
<!-- Node3 -->
<g id="node3" class="node">
<title>Node3</title>
<g id="a_node3"><a xlink:href="iomanX_8h.html" target="_top" xlink:title=" ">
<polygon fill="#ffffff" stroke="#000000" points="182,-168.5 182,-187.5 245,-187.5 245,-168.5 182,-168.5"/>
<text text-anchor="middle" x="213.5" y="-175.5" font-family="Helvetica,sans-Serif" font-size="10.00" fill="#000000">iomanX.h</text>
</a>
</g>
</g>
<!-- Node1&#45;&gt;Node3 -->
<g id="edge2" class="edge">
<title>Node1&#45;&gt;Node3</title>
<path fill="none" stroke="#191970" d="M477.9382,-284.7299C380.0172,-277.6852 228.8275,-263.7539 211.5,-244 200.5507,-231.5174 202.6317,-212.0318 206.5033,-197.4637"/>
<polygon fill="#191970" stroke="#191970" points="209.8514,-198.4836 209.4781,-187.8954 203.167,-196.4054 209.8514,-198.4836"/>
</g>
<!-- Node13 -->
<g id="node13" class="node">
<title>Node13</title>
<g id="a_node13"><a xlink:href="loadcore_8h.html" target="_top" xlink:title=" ">
<polygon fill="#ffffff" stroke="#000000" points="506.5,-168.5 506.5,-187.5 574.5,-187.5 574.5,-168.5 506.5,-168.5"/>
<text text-anchor="middle" x="540.5" y="-175.5" font-family="Helvetica,sans-Serif" font-size="10.00" fill="#000000">loadcore.h</text>
</a>
</g>
</g>
<!-- Node1&#45;&gt;Node13 -->
<g id="edge13" class="edge">
<title>Node1&#45;&gt;Node13</title>
<path fill="none" stroke="#191970" d="M559.7096,-280.4509C556.269,-262.1013 548.6733,-221.5908 544.1317,-197.3693"/>
<polygon fill="#191970" stroke="#191970" points="547.5689,-196.7086 542.2859,-187.5249 540.6888,-197.9986 547.5689,-196.7086"/>
</g>
<!-- Node14 -->
<g id="node14" class="node">
<title>Node14</title>
<g id="a_node14"><a xlink:href="stdio_8h.html" target="_top" xlink:title=" ">
<polygon fill="#ffffff" stroke="#000000" points="828.5,-168.5 828.5,-187.5 878.5,-187.5 878.5,-168.5 828.5,-168.5"/>
<text text-anchor="middle" x="853.5" y="-175.5" font-family="Helvetica,sans-Serif" font-size="10.00" fill="#000000">stdio.h</text>
</a>
</g>
</g>
<!-- Node1&#45;&gt;Node14 -->
<g id="edge16" class="edge">
<title>Node1&#45;&gt;Node14</title>
<path fill="none" stroke="#191970" d="M601.6873,-280.499C634.2335,-272.3009 680.9998,-259.3719 720.5,-244 759.0104,-229.0133 801.4451,-206.9145 827.7871,-192.4882"/>
<polygon fill="#191970" stroke="#191970" points="829.6674,-195.448 836.7269,-187.5477 826.2816,-189.3213 829.6674,-195.448"/>
</g>
<!-- Node16 -->
<g id="node16" class="node">
<title>Node16</title>
<g id="a_node16"><a xlink:href="sifcmd_8h.html" target="_top" xlink:title=" ">
<polygon fill="#ffffff" stroke="#000000" points="593,-168.5 593,-187.5 652,-187.5 652,-168.5 593,-168.5"/>
<text text-anchor="middle" x="622.5" y="-175.5" font-family="Helvetica,sans-Serif" font-size="10.00" fill="#000000">sifcmd.h</text>
</a>
</g>
</g>
<!-- Node1&#45;&gt;Node16 -->
<g id="edge19" class="edge">
<title>Node1&#45;&gt;Node16</title>
<path fill="none" stroke="#191970" d="M566.7008,-280.4509C576.8299,-261.8533 599.3571,-220.4919 612.4805,-196.3964"/>
<polygon fill="#191970" stroke="#191970" points="615.6029,-197.9809 617.3123,-187.5249 609.4556,-194.6328 615.6029,-197.9809"/>
</g>
<!-- Node17 -->
<g id="node17" class="node">
<title>Node17</title>
<g id="a_node17"><a xlink:href="sifrpc_8h.html" target="_top" xlink:title=" ">
<polygon fill="#ffffff" stroke="#000000" points="609,-224.5 609,-243.5 662,-243.5 662,-224.5 609,-224.5"/>
<text text-anchor="middle" x="635.5" y="-231.5" font-family="Helvetica,sans-Serif" font-size="10.00" fill="#000000">sifrpc.h</text>
</a>
</g>
</g>
<!-- Node1&#45;&gt;Node17 -->
<g id="edge22" class="edge">
<title>Node1&#45;&gt;Node17</title>
<path fill="none" stroke="#191970" d="M574.3898,-280.2455C585.4254,-271.8943 601.5292,-259.7076 614.4353,-249.9408"/>
<polygon fill="#191970" stroke="#191970" points="616.8959,-252.4681 622.7579,-243.6427 612.6717,-246.8862 616.8959,-252.4681"/>
</g>
<!-- Node18 -->
<g id="node18" class="node">
<title>Node18</title>
<g id="a_node18"><a xlink:href="sysclib_8h.html" target="_top" xlink:title=" ">
<polygon fill="#ffffff" stroke="#000000" points="983,-168.5 983,-187.5 1042,-187.5 1042,-168.5 983,-168.5"/>
<text text-anchor="middle" x="1012.5" y="-175.5" font-family="Helvetica,sans-Serif" font-size="10.00" fill="#000000">sysclib.h</text>
</a>
</g>
</g>
<!-- Node1&#45;&gt;Node18 -->
<g id="edge24" class="edge">
<title>Node1&#45;&gt;Node18</title>
<path fill="none" stroke="#191970" d="M620.5792,-280.4358C668.9793,-272.1572 739.0861,-259.1498 799.5,-244 862.0753,-228.3082 933.438,-205.0795 975.6334,-190.7751"/>
<polygon fill="#191970" stroke="#191970" points="976.8631,-194.0537 985.1998,-187.5153 974.6053,-187.4279 976.8631,-194.0537"/>
</g>
<!-- Node20 -->
<g id="node20" class="node">
<title>Node20</title>
<g id="a_node20"><a xlink:href="sysmem_8h.html" target="_top" xlink:title=" ">
<polygon fill="#ffffff" stroke="#000000" points="896.5,-168.5 896.5,-187.5 964.5,-187.5 964.5,-168.5 896.5,-168.5"/>
<text text-anchor="middle" x="930.5" y="-175.5" font-family="Helvetica,sans-Serif" font-size="10.00" fill="#000000">sysmem.h</text>
</a>
</g>
</g>
<!-- Node1&#45;&gt;Node20 -->
<g id="edge30" class="edge">
<title>Node1&#45;&gt;Node20</title>
<path fill="none" stroke="#191970" d="M609.6498,-280.4775C649.4042,-272.1783 707.1097,-259.1216 756.5,-244 806.9708,-228.5476 863.8878,-205.9382 898.4683,-191.5999"/>
<polygon fill="#191970" stroke="#191970" points="900.1475,-194.6917 908.0282,-187.6104 897.4516,-188.2317 900.1475,-194.6917"/>
</g>
<!-- Node21 -->
<g id="node21" class="node">
<title>Node21</title>
<g id="a_node21"><a xlink:href="usbd_8h.html" target="_top" xlink:title=" ">
<polygon fill="#ffffff" stroke="#000000" points="353,-168.5 353,-187.5 402,-187.5 402,-168.5 353,-168.5"/>
<text text-anchor="middle" x="377.5" y="-175.5" font-family="Helvetica,sans-Serif" font-size="10.00" fill="#000000">usbd.h</text>
</a>
</g>
</g>
<!-- Node1&#45;&gt;Node21 -->
<g id="edge34" class="edge">
<title>Node1&#45;&gt;Node21</title>
<path fill="none" stroke="#191970" d="M545.8123,-280.4509C513.7653,-260.9441 440.5746,-216.3932 402.1279,-192.9909"/>
<polygon fill="#191970" stroke="#191970" points="403.5099,-189.7347 393.148,-187.5249 399.8702,-195.7141 403.5099,-189.7347"/>
</g>
<!-- Node22 -->
<g id="node22" class="node">
<title>Node22</title>
<g id="a_node22"><a xlink:href="usbd__macro_8h.html" target="_top" xlink:title=" ">
<polygon fill="#ffffff" stroke="#000000" points="353,-224.5 353,-243.5 438,-243.5 438,-224.5 353,-224.5"/>
<text text-anchor="middle" x="395.5" y="-231.5" font-family="Helvetica,sans-Serif" font-size="10.00" fill="#000000">usbd_macro.h</text>
</a>
</g>
</g>
<!-- Node1&#45;&gt;Node22 -->
<g id="edge37" class="edge">
<title>Node1&#45;&gt;Node22</title>
<path fill="none" stroke="#191970" d="M532.9636,-280.3733C505.4798,-271.1016 463.7314,-257.0178 433.4548,-246.804"/>
<polygon fill="#191970" stroke="#191970" points="434.2582,-243.3813 423.664,-243.5011 432.0206,-250.0141 434.2582,-243.3813"/>
</g>
<!-- Node23 -->
<g id="node23" class="node">
<title>Node23</title>
<g id="a_node23"><a xlink:href="thbase_8h.html" target="_top" xlink:title=" ">
<polygon fill="#ffffff" stroke="#000000" points="670,-168.5 670,-187.5 729,-187.5 729,-168.5 670,-168.5"/>
<text text-anchor="middle" x="699.5" y="-175.5" font-family="Helvetica,sans-Serif" font-size="10.00" fill="#000000">thbase.h</text>
</a>
</g>
</g>
<!-- Node1&#45;&gt;Node23 -->
<g id="edge39" class="edge">
<title>Node1&#45;&gt;Node23</title>
<path fill="none" stroke="#191970" d="M604.2933,-280.4446C626.7139,-273.5528 653.2301,-262.1761 671.5,-244 684.1567,-231.4082 691.4206,-212.2069 695.3614,-197.7557"/>
<polygon fill="#191970" stroke="#191970" points="698.8157,-198.3612 697.7614,-187.8189 692.0114,-196.7176 698.8157,-198.3612"/>
</g>
<!-- Node24 -->
<g id="node24" class="node">
<title>Node24</title>
<g id="a_node24"><a xlink:href="thevent_8h.html" target="_top" xlink:title=" ">
<polygon fill="#ffffff" stroke="#000000" points="747,-168.5 747,-187.5 810,-187.5 810,-168.5 747,-168.5"/>
<text text-anchor="middle" x="778.5" y="-175.5" font-family="Helvetica,sans-Serif" font-size="10.00" fill="#000000">thevent.h</text>
</a>
</g>
</g>
<!-- Node1&#45;&gt;Node24 -->
<g id="edge42" class="edge">
<title>Node1&#45;&gt;Node24</title>
<path fill="none" stroke="#191970" d="M597.7948,-280.4401C624.5933,-272.6111 661.4721,-260.1923 691.5,-244 717.0782,-230.2072 743.2164,-209.2699 760.074,-194.6886"/>
<polygon fill="#191970" stroke="#191970" points="762.801,-196.9507 767.9914,-187.7143 758.174,-191.698 762.801,-196.9507"/>
</g>
<!-- Node25 -->
<g id="node25" class="node">
<title>Node25</title>
<g id="a_node25"><a xlink:href="thsemap_8h.html" target="_top" xlink:title=" ">
<polygon fill="#ffffff" stroke="#000000" points="420.5,-168.5 420.5,-187.5 488.5,-187.5 488.5,-168.5 420.5,-168.5"/>
<text text-anchor="middle" x="454.5" y="-175.5" font-family="Helvetica,sans-Serif" font-size="10.00" fill="#000000">thsemap.h</text>
</a>
</g>
</g>
<!-- Node1&#45;&gt;Node25 -->
<g id="edge45" class="edge">
<title>Node1&#45;&gt;Node25</title>
<path fill="none" stroke="#191970" d="M552.3772,-280.4509C534.2151,-261.4401 493.328,-218.6423 470.5653,-194.816"/>
<polygon fill="#191970" stroke="#191970" points="473.0383,-192.3378 463.5997,-187.5249 467.9768,-197.1733 473.0383,-192.3378"/>
</g>
<!-- Node26 -->
<g id="node26" class="node">
<title>Node26</title>
<g id="a_node26"><a xlink:href="ps2mouse_8h.html" target="_top" xlink:title=" ">
<polygon fill="#ffffff" stroke="#000000" points="220.5,-224.5 220.5,-243.5 296.5,-243.5 296.5,-224.5 220.5,-224.5"/>
<text text-anchor="middle" x="258.5" y="-231.5" font-family="Helvetica,sans-Serif" font-size="10.00" fill="#000000">ps2mouse.h</text>
</a>
</g>
</g>
<!-- Node1&#45;&gt;Node26 -->
<g id="edge48" class="edge">
<title>Node1&#45;&gt;Node26</title>
<path fill="none" stroke="#191970" d="M508.5904,-280.4419C457.7764,-271.2297 378.8595,-256.8368 310.5,-244 309.2294,-243.7614 307.9415,-243.5188 306.642,-243.2735"/>
<polygon fill="#191970" stroke="#191970" points="307.0256,-239.7838 296.5481,-241.3566 305.7195,-246.6609 307.0256,-239.7838"/>
</g>
<!-- Node4 -->
<g id="node4" class="node">
<title>Node4</title>
<g id="a_node4"><a xlink:href="types_8h.html" target="_top" xlink:title=" ">
<polygon fill="#ffffff" stroke="#000000" points="666,-56.5 666,-75.5 719,-75.5 719,-56.5 666,-56.5"/>
<text text-anchor="middle" x="692.5" y="-63.5" font-family="Helvetica,sans-Serif" font-size="10.00" fill="#000000">types.h</text>
</a>
</g>
</g>
<!-- Node3&#45;&gt;Node4 -->
<g id="edge3" class="edge">
<title>Node3&#45;&gt;Node4</title>
<path fill="none" stroke="#191970" d="M221.8205,-168.3545C235.3583,-153.3963 263.7498,-124.9788 294.5,-112 359.3237,-84.6397 570.2577,-71.795 655.8807,-67.6108"/>
<polygon fill="#191970" stroke="#191970" points="656.0988,-71.1045 665.9207,-67.1321 655.7653,-64.1125 656.0988,-71.1045"/>
</g>
<!-- Node7 -->
<g id="node7" class="node">
<title>Node7</title>
<g id="a_node7"><a xlink:href="irx_8h.html" target="_top" xlink:title=" ">
<polygon fill="#ffffff" stroke="#000000" points="650.5,-112.5 650.5,-131.5 688.5,-131.5 688.5,-112.5 650.5,-112.5"/>
<text text-anchor="middle" x="669.5" y="-119.5" font-family="Helvetica,sans-Serif" font-size="10.00" fill="#000000">irx.h</text>
</a>
</g>
</g>
<!-- Node3&#45;&gt;Node7 -->
<g id="edge6" class="edge">
<title>Node3&#45;&gt;Node7</title>
<path fill="none" stroke="#191970" d="M245.203,-174.1066C329.4798,-163.7569 558.1994,-135.6685 639.9533,-125.6285"/>
<polygon fill="#191970" stroke="#191970" points="640.5511,-129.0815 650.0498,-124.3886 639.6978,-122.1337 640.5511,-129.0815"/>
</g>
<!-- Node8 -->
<g id="node8" class="node">
<title>Node8</title>
<g id="a_node8"><a xlink:href="io__common_8h.html" target="_top" xlink:title=" ">
<polygon fill="#ffffff" stroke="#000000" points="80,-112.5 80,-131.5 163,-131.5 163,-112.5 80,-112.5"/>
<text text-anchor="middle" x="121.5" y="-119.5" font-family="Helvetica,sans-Serif" font-size="10.00" fill="#000000">io_common.h</text>
</a>
</g>
</g>
<!-- Node3&#45;&gt;Node8 -->
<g id="edge8" class="edge">
<title>Node3&#45;&gt;Node8</title>
<path fill="none" stroke="#191970" d="M197.4748,-168.2455C183.3592,-159.6534 162.5737,-147.0014 146.3101,-137.1018"/>
<polygon fill="#191970" stroke="#191970" points="147.7034,-133.8525 137.3415,-131.6427 144.0637,-139.8319 147.7034,-133.8525"/>
</g>
<!-- Node11 -->
<g id="node11" class="node">
<title>Node11</title>
<g id="a_node11"><a xlink:href="iox__stat_8h.html" target="_top" xlink:title=" ">
<polygon fill="#ffffff" stroke="#000000" points="181,-112.5 181,-131.5 246,-131.5 246,-112.5 181,-112.5"/>
<text text-anchor="middle" x="213.5" y="-119.5" font-family="Helvetica,sans-Serif" font-size="10.00" fill="#000000">iox_stat.h</text>
</a>
</g>
</g>
<!-- Node3&#45;&gt;Node11 -->
<g id="edge11" class="edge">
<title>Node3&#45;&gt;Node11</title>
<path fill="none" stroke="#191970" d="M213.5,-168.2455C213.5,-160.9382 213.5,-150.6944 213.5,-141.7046"/>
<polygon fill="#191970" stroke="#191970" points="217.0001,-141.6426 213.5,-131.6427 210.0001,-141.6427 217.0001,-141.6426"/>
</g>
<!-- Node5 -->
<g id="node5" class="node">
<title>Node5</title>
<g id="a_node5"><a xlink:title=" ">
<polygon fill="#ffffff" stroke="#bfbfbf" points="664.5,-.5 664.5,-19.5 720.5,-19.5 720.5,-.5 664.5,-.5"/>
<text text-anchor="middle" x="692.5" y="-7.5" font-family="Helvetica,sans-Serif" font-size="10.00" fill="#000000">stddef.h</text>
</a>
</g>
</g>
<!-- Node4&#45;&gt;Node5 -->
<g id="edge4" class="edge">
<title>Node4&#45;&gt;Node5</title>
<path fill="none" stroke="#191970" d="M692.5,-56.2455C692.5,-48.9382 692.5,-38.6944 692.5,-29.7046"/>
<polygon fill="#191970" stroke="#191970" points="696.0001,-29.6426 692.5,-19.6427 689.0001,-29.6427 696.0001,-29.6426"/>
</g>
<!-- Node6 -->
<g id="node6" class="node">
<title>Node6</title>
<g id="a_node6"><a xlink:href="tamtypes_8h.html" target="_top" xlink:title=" ">
<polygon fill="#ffffff" stroke="#000000" points="867.5,-.5 867.5,-19.5 939.5,-19.5 939.5,-.5 867.5,-.5"/>
<text text-anchor="middle" x="903.5" y="-7.5" font-family="Helvetica,sans-Serif" font-size="10.00" fill="#000000">tamtypes.h</text>
</a>
</g>
</g>
<!-- Node4&#45;&gt;Node6 -->
<g id="edge5" class="edge">
<title>Node4&#45;&gt;Node6</title>
<path fill="none" stroke="#191970" d="M719.2233,-58.9076C754.0259,-49.6709 815.401,-33.3817 857.6961,-22.1565"/>
<polygon fill="#191970" stroke="#191970" points="858.7094,-25.5088 867.4769,-19.5606 856.9137,-18.743 858.7094,-25.5088"/>
</g>
<!-- Node7&#45;&gt;Node4 -->
<g id="edge7" class="edge">
<title>Node7&#45;&gt;Node4</title>
<path fill="none" stroke="#191970" d="M673.5063,-112.2455C676.5735,-104.7776 680.9003,-94.2427 684.6497,-85.1137"/>
<polygon fill="#191970" stroke="#191970" points="687.9779,-86.2226 688.5396,-75.6427 681.5028,-83.5631 687.9779,-86.2226"/>
</g>
<!-- Node9 -->
<g id="node9" class="node">
<title>Node9</title>
<g id="a_node9"><a xlink:href="fcntl_8h.html" target="_top" xlink:title=" ">
<polygon fill="#ffffff" stroke="#000000" points="0,-56.5 0,-75.5 67,-75.5 67,-56.5 0,-56.5"/>
<text text-anchor="middle" x="33.5" y="-63.5" font-family="Helvetica,sans-Serif" font-size="10.00" fill="#000000">sys/fcntl.h</text>
</a>
</g>
</g>
<!-- Node8&#45;&gt;Node9 -->
<g id="edge9" class="edge">
<title>Node8&#45;&gt;Node9</title>
<path fill="none" stroke="#191970" d="M106.1716,-112.2455C92.6697,-103.6534 72.7878,-91.0014 57.2314,-81.1018"/>
<polygon fill="#191970" stroke="#191970" points="58.9685,-78.0587 48.6528,-75.6427 55.2103,-83.9643 58.9685,-78.0587"/>
</g>
<!-- Node10 -->
<g id="node10" class="node">
<title>Node10</title>
<g id="a_node10"><a xlink:href="unistd_8h.html" target="_top" xlink:title=" ">
<polygon fill="#ffffff" stroke="#000000" points="85,-56.5 85,-75.5 160,-75.5 160,-56.5 85,-56.5"/>
<text text-anchor="middle" x="122.5" y="-63.5" font-family="Helvetica,sans-Serif" font-size="10.00" fill="#000000">sys/unistd.h</text>
</a>
</g>
</g>
<!-- Node8&#45;&gt;Node10 -->
<g id="edge10" class="edge">
<title>Node8&#45;&gt;Node10</title>
<path fill="none" stroke="#191970" d="M121.6742,-112.2455C121.8047,-104.9382 121.9876,-94.6944 122.1481,-85.7046"/>
<polygon fill="#191970" stroke="#191970" points="125.6486,-85.7036 122.3278,-75.6427 118.6497,-85.5786 125.6486,-85.7036"/>
</g>
<!-- Node12 -->
<g id="node12" class="node">
<title>Node12</title>
<g id="a_node12"><a xlink:href="time_8h.html" target="_top" xlink:title=" ">
<polygon fill="#ffffff" stroke="#000000" points="179.5,-56.5 179.5,-75.5 247.5,-75.5 247.5,-56.5 179.5,-56.5"/>
<text text-anchor="middle" x="213.5" y="-63.5" font-family="Helvetica,sans-Serif" font-size="10.00" fill="#000000">sys/time.h</text>
</a>
</g>
</g>
<!-- Node11&#45;&gt;Node12 -->
<g id="edge12" class="edge">
<title>Node11&#45;&gt;Node12</title>
<path fill="none" stroke="#191970" d="M213.5,-112.2455C213.5,-104.9382 213.5,-94.6944 213.5,-85.7046"/>
<polygon fill="#191970" stroke="#191970" points="217.0001,-85.6426 213.5,-75.6427 210.0001,-85.6427 217.0001,-85.6426"/>
</g>
<!-- Node13&#45;&gt;Node4 -->
<g id="edge14" class="edge">
<title>Node13&#45;&gt;Node4</title>
<path fill="none" stroke="#191970" d="M553.2642,-168.2995C570.3307,-155.3586 601.5617,-131.7797 628.5,-112 642.3454,-101.8339 658.0012,-90.5771 670.3628,-81.7438"/>
<polygon fill="#191970" stroke="#191970" points="672.6004,-84.4469 678.7088,-75.7903 668.5352,-78.7482 672.6004,-84.4469"/>
</g>
<!-- Node13&#45;&gt;Node7 -->
<g id="edge15" class="edge">
<title>Node13&#45;&gt;Node7</title>
<path fill="none" stroke="#191970" d="M562.6759,-168.3733C584.233,-159.0151 617.083,-144.7547 640.6611,-134.5192"/>
<polygon fill="#191970" stroke="#191970" points="642.3591,-137.5977 650.1383,-130.4051 639.5716,-131.1766 642.3591,-137.5977"/>
</g>
<!-- Node14&#45;&gt;Node7 -->
<g id="edge18" class="edge">
<title>Node14&#45;&gt;Node7</title>
<path fill="none" stroke="#191970" d="M828.3014,-170.3309C794.3502,-159.9979 734.0652,-141.6503 698.3408,-130.7776"/>
<polygon fill="#191970" stroke="#191970" points="699.1143,-127.3546 688.5284,-127.7913 697.0761,-134.0513 699.1143,-127.3546"/>
</g>
<!-- Node15 -->
<g id="node15" class="node">
<title>Node15</title>
<g id="a_node15"><a xlink:title=" ">
<polygon fill="#ffffff" stroke="#bfbfbf" points="846.5,-112.5 846.5,-131.5 902.5,-131.5 902.5,-112.5 846.5,-112.5"/>
<text text-anchor="middle" x="874.5" y="-119.5" font-family="Helvetica,sans-Serif" font-size="10.00" fill="#000000">stdarg.h</text>
</a>
</g>
</g>
<!-- Node14&#45;&gt;Node15 -->
<g id="edge17" class="edge">
<title>Node14&#45;&gt;Node15</title>
<path fill="none" stroke="#191970" d="M857.1579,-168.2455C859.9584,-160.7776 863.909,-150.2427 867.3324,-141.1137"/>
<polygon fill="#191970" stroke="#191970" points="870.6499,-142.2349 870.884,-131.6427 864.0955,-139.777 870.6499,-142.2349"/>
</g>
<!-- Node16&#45;&gt;Node4 -->
<g id="edge20" class="edge">
<title>Node16&#45;&gt;Node4</title>
<path fill="none" stroke="#191970" d="M623.5839,-168.365C625.4595,-154.8759 630.2512,-129.998 641.5,-112 648.807,-100.3089 659.9172,-89.7947 669.9046,-81.7793"/>
<polygon fill="#191970" stroke="#191970" points="672.0941,-84.5112 677.9218,-75.6631 667.8483,-78.9458 672.0941,-84.5112"/>
</g>
<!-- Node16&#45;&gt;Node7 -->
<g id="edge21" class="edge">
<title>Node16&#45;&gt;Node7</title>
<path fill="none" stroke="#191970" d="M630.6868,-168.2455C637.3589,-160.2958 646.9479,-148.8706 654.9253,-139.3656"/>
<polygon fill="#191970" stroke="#191970" points="657.6592,-141.5525 661.407,-131.6427 652.2974,-137.0524 657.6592,-141.5525"/>
</g>
<!-- Node17&#45;&gt;Node16 -->
<g id="edge23" class="edge">
<title>Node17&#45;&gt;Node16</title>
<path fill="none" stroke="#191970" d="M633.2356,-224.2455C631.5206,-216.8579 629.1088,-206.4689 627.0056,-197.4087"/>
<polygon fill="#191970" stroke="#191970" points="630.4092,-196.5922 624.7385,-187.6427 623.5905,-198.1751 630.4092,-196.5922"/>
</g>
<!-- Node18&#45;&gt;Node4 -->
<g id="edge25" class="edge">
<title>Node18&#45;&gt;Node4</title>
<path fill="none" stroke="#191970" d="M1003.6067,-168.1458C989.7333,-153.435 961.4127,-125.9702 931.5,-112 864.6227,-80.7662 777.7333,-70.7395 729.281,-67.5211"/>
<polygon fill="#191970" stroke="#191970" points="729.4519,-64.0251 719.2594,-66.9169 729.0306,-71.0124 729.4519,-64.0251"/>
</g>
<!-- Node18&#45;&gt;Node7 -->
<g id="edge26" class="edge">
<title>Node18&#45;&gt;Node7</title>
<path fill="none" stroke="#191970" d="M982.7609,-170.0454C979.6438,-169.3103 976.5139,-168.6128 973.5,-168 873.4604,-147.6596 753.2274,-132.0373 698.8062,-125.436"/>
<polygon fill="#191970" stroke="#191970" points="699.171,-121.9547 688.825,-124.2372 698.3363,-128.9048 699.171,-121.9547"/>
</g>
<!-- Node18&#45;&gt;Node15 -->
<g id="edge27" class="edge">
<title>Node18&#45;&gt;Node15</title>
<path fill="none" stroke="#191970" d="M988.777,-168.3733C966.3263,-159.2629 932.4261,-145.5062 907.3745,-135.3404"/>
<polygon fill="#191970" stroke="#191970" points="908.4957,-132.0182 897.9135,-131.5011 905.8635,-138.5045 908.4957,-132.0182"/>
</g>
<!-- Node19 -->
<g id="node19" class="node">
<title>Node19</title>
<g id="a_node19"><a xlink:href="setjmp_8h.html" target="_top" xlink:title=" ">
<polygon fill="#ffffff" stroke="#000000" points="927,-56.5 927,-75.5 986,-75.5 986,-56.5 927,-56.5"/>
<text text-anchor="middle" x="956.5" y="-63.5" font-family="Helvetica,sans-Serif" font-size="10.00" fill="#000000">setjmp.h</text>
</a>
</g>
</g>
<!-- Node18&#45;&gt;Node19 -->
<g id="edge28" class="edge">
<title>Node18&#45;&gt;Node19</title>
<path fill="none" stroke="#191970" d="M1009.1595,-168.368C1004.4947,-155.3032 995.4728,-131.3727 985.5,-112 980.6024,-102.4862 974.3568,-92.3796 968.917,-84.0701"/>
<polygon fill="#191970" stroke="#191970" points="971.7041,-81.9418 963.2324,-75.5794 965.8874,-85.8362 971.7041,-81.9418"/>
</g>
<!-- Node19&#45;&gt;Node6 -->
<g id="edge29" class="edge">
<title>Node19&#45;&gt;Node6</title>
<path fill="none" stroke="#191970" d="M947.2681,-56.2455C939.6683,-48.2155 928.7123,-36.6394 919.6632,-27.0781"/>
<polygon fill="#191970" stroke="#191970" points="922.042,-24.4998 912.6261,-19.6427 916.9579,-29.3115 922.042,-24.4998"/>
</g>
<!-- Node20&#45;&gt;Node4 -->
<g id="edge31" class="edge">
<title>Node20&#45;&gt;Node4</title>
<path fill="none" stroke="#191970" d="M930.6399,-168.347C930.2935,-153.899 927.3967,-126.7727 911.5,-112 885.4324,-87.7755 784.5267,-74.6653 729.2399,-69.1675"/>
<polygon fill="#191970" stroke="#191970" points="729.4399,-65.6707 719.151,-68.1985 728.7705,-72.6387 729.4399,-65.6707"/>
</g>
<!-- Node20&#45;&gt;Node7 -->
<g id="edge32" class="edge">
<title>Node20&#45;&gt;Node7</title>
<path fill="none" stroke="#191970" d="M896.2469,-169.9674C893.2902,-169.2943 890.3434,-168.6306 887.5,-168 820.1059,-153.0548 740.7311,-136.5916 698.8325,-127.9901"/>
<polygon fill="#191970" stroke="#191970" points="699.2745,-124.508 688.7754,-125.9287 697.8689,-131.3654 699.2745,-124.508"/>
</g>
<!-- Node20&#45;&gt;Node15 -->
<g id="edge33" class="edge">
<title>Node20&#45;&gt;Node15</title>
<path fill="none" stroke="#191970" d="M920.7455,-168.2455C912.6352,-160.1352 900.9075,-148.4075 891.2919,-138.7919"/>
<polygon fill="#191970" stroke="#191970" points="893.6887,-136.2389 884.1427,-131.6427 888.7389,-141.1887 893.6887,-136.2389"/>
</g>
<!-- Node21&#45;&gt;Node2 -->
<g id="edge35" class="edge">
<title>Node21&#45;&gt;Node2</title>
<path fill="none" stroke="#191970" d="M369.139,-168.2455C362.325,-160.2958 352.5319,-148.8706 344.3848,-139.3656"/>
<polygon fill="#191970" stroke="#191970" points="346.9305,-136.9575 337.7651,-131.6427 341.6157,-141.513 346.9305,-136.9575"/>
</g>
<!-- Node21&#45;&gt;Node7 -->
<g id="edge36" class="edge">
<title>Node21&#45;&gt;Node7</title>
<path fill="none" stroke="#191970" d="M402.2986,-170.3651C405.3837,-169.5162 408.5055,-168.7051 411.5,-168 493.6402,-148.6594 592.184,-133.1979 640.2469,-126.1465"/>
<polygon fill="#191970" stroke="#191970" points="640.8635,-129.5938 650.2567,-124.6929 639.8575,-122.6665 640.8635,-129.5938"/>
</g>
<!-- Node22&#45;&gt;Node21 -->
<g id="edge38" class="edge">
<title>Node22&#45;&gt;Node21</title>
<path fill="none" stroke="#191970" d="M392.3646,-224.2455C389.99,-216.8579 386.6507,-206.4689 383.7385,-197.4087"/>
<polygon fill="#191970" stroke="#191970" points="386.9917,-196.0919 380.5994,-187.6427 380.3275,-198.234 386.9917,-196.0919"/>
</g>
<!-- Node23&#45;&gt;Node4 -->
<g id="edge40" class="edge">
<title>Node23&#45;&gt;Node4</title>
<path fill="none" stroke="#191970" d="M699.4409,-168.1481C699.3086,-155.238 698.8808,-131.8988 697.5,-112 696.9036,-103.4051 695.9293,-93.9381 694.9985,-85.8383"/>
<polygon fill="#191970" stroke="#191970" points="698.4663,-85.3604 693.7956,-75.8507 691.5165,-86.1975 698.4663,-85.3604"/>
</g>
<!-- Node23&#45;&gt;Node7 -->
<g id="edge41" class="edge">
<title>Node23&#45;&gt;Node7</title>
<path fill="none" stroke="#191970" d="M694.2744,-168.2455C690.1877,-160.617 684.3865,-149.7881 679.425,-140.5267"/>
<polygon fill="#191970" stroke="#191970" points="682.4732,-138.8047 674.6657,-131.6427 676.3028,-142.1103 682.4732,-138.8047"/>
</g>
<!-- Node24&#45;&gt;Node4 -->
<g id="edge43" class="edge">
<title>Node24&#45;&gt;Node4</title>
<path fill="none" stroke="#191970" d="M771.1677,-168.4509C756.7604,-149.688 724.5617,-107.7548 706.1356,-83.758"/>
<polygon fill="#191970" stroke="#191970" points="708.6801,-81.3248 699.8138,-75.5249 703.128,-85.588 708.6801,-81.3248"/>
</g>
<!-- Node24&#45;&gt;Node7 -->
<g id="edge44" class="edge">
<title>Node24&#45;&gt;Node7</title>
<path fill="none" stroke="#191970" d="M759.5136,-168.2455C742.3208,-159.4125 716.7762,-146.2887 697.2868,-136.2758"/>
<polygon fill="#191970" stroke="#191970" points="698.763,-133.0993 688.2688,-131.6427 695.5641,-139.3257 698.763,-133.0993"/>
</g>
<!-- Node25&#45;&gt;Node4 -->
<g id="edge46" class="edge">
<title>Node25&#45;&gt;Node4</title>
<path fill="none" stroke="#191970" d="M474.7917,-168.4509C516.9463,-148.6135 614.1388,-102.8758 663.1338,-79.8194"/>
<polygon fill="#191970" stroke="#191970" points="664.7017,-82.9498 672.2596,-75.5249 661.7211,-76.616 664.7017,-82.9498"/>
</g>
<!-- Node25&#45;&gt;Node7 -->
<g id="edge47" class="edge">
<title>Node25&#45;&gt;Node7</title>
<path fill="none" stroke="#191970" d="M488.5674,-169.1266C530.5231,-158.1986 601.0646,-139.825 640.5309,-129.5454"/>
<polygon fill="#191970" stroke="#191970" points="641.5293,-132.9023 650.3242,-126.9946 639.7648,-126.1283 641.5293,-132.9023"/>
</g>
<!-- Node26&#45;&gt;Node2 -->
<g id="edge49" class="edge">
<title>Node26&#45;&gt;Node2</title>
<path fill="none" stroke="#191970" d="M264.5534,-224.4509C276.3954,-205.7707 302.7965,-164.1238 318.041,-140.0761"/>
<polygon fill="#191970" stroke="#191970" points="321.0638,-141.8448 323.4619,-131.5249 315.1517,-138.0969 321.0638,-141.8448"/>
</g>
</g>
</svg>
