<?xml version="1.0" encoding="UTF-8" standalone="no"?>
<!DOCTYPE svg PUBLIC "-//W3C//DTD SVG 1.1//EN"
 "http://www.w3.org/Graphics/SVG/1.1/DTD/svg11.dtd">
<!-- Generated by graphviz version 2.40.1 (20161225.0304)
 -->
<!-- Title: common/include/ps2snd.h Pages: 1 -->
<svg width="239pt" height="252pt"
 viewBox="0.00 0.00 239.00 252.00" xmlns="http://www.w3.org/2000/svg" xmlns:xlink="http://www.w3.org/1999/xlink">
<g id="graph0" class="graph" transform="scale(1 1) rotate(0) translate(4 248)">
<title>common/include/ps2snd.h</title>
<polygon fill="#ffffff" stroke="transparent" points="-4,4 -4,-248 235,-248 235,4 -4,4"/>
<!-- Node1 -->
<g id="node1" class="node">
<title>Node1</title>
<g id="a_node1"><a xlink:title=" ">
<polygon fill="#bfbfbf" stroke="#000000" points="0,-224.5 0,-243.5 144,-243.5 144,-224.5 0,-224.5"/>
<text text-anchor="middle" x="72" y="-231.5" font-family="Helvetica,sans-Serif" font-size="10.00" fill="#000000">common/include/ps2snd.h</text>
</a>
</g>
</g>
<!-- Node2 -->
<g id="node2" class="node">
<title>Node2</title>
<g id="a_node2"><a xlink:href="tamtypes_8h.html" target="_top" xlink:title=" ">
<polygon fill="#ffffff" stroke="#000000" points="75,-.5 75,-19.5 147,-19.5 147,-.5 75,-.5"/>
<text text-anchor="middle" x="111" y="-7.5" font-family="Helvetica,sans-Serif" font-size="10.00" fill="#000000">tamtypes.h</text>
</a>
</g>
</g>
<!-- Node1&#45;&gt;Node2 -->
<g id="edge1" class="edge">
<title>Node1&#45;&gt;Node2</title>
<path fill="none" stroke="#191970" d="M67.5716,-224.1262C55.7175,-196.1462 26.0039,-114.569 54,-56 60.1448,-43.1449 71.8299,-32.7306 83.0285,-25.0832"/>
<polygon fill="#191970" stroke="#191970" points="85.2041,-27.8488 91.79,-19.5495 81.4661,-21.9304 85.2041,-27.8488"/>
</g>
<!-- Node3 -->
<g id="node3" class="node">
<title>Node3</title>
<g id="a_node3"><a xlink:href="libsd_8h.html" target="_top" xlink:title=" ">
<polygon fill="#ffffff" stroke="#000000" points="108.5,-168.5 108.5,-187.5 157.5,-187.5 157.5,-168.5 108.5,-168.5"/>
<text text-anchor="middle" x="133" y="-175.5" font-family="Helvetica,sans-Serif" font-size="10.00" fill="#000000">libsd.h</text>
</a>
</g>
</g>
<!-- Node1&#45;&gt;Node3 -->
<g id="edge2" class="edge">
<title>Node1&#45;&gt;Node3</title>
<path fill="none" stroke="#191970" d="M82.6254,-224.2455C91.5473,-216.0549 104.488,-204.1749 115.0192,-194.5069"/>
<polygon fill="#191970" stroke="#191970" points="117.4968,-196.9837 122.4964,-187.6427 112.7629,-191.8271 117.4968,-196.9837"/>
</g>
<!-- Node4 -->
<g id="node4" class="node">
<title>Node4</title>
<g id="a_node4"><a xlink:href="types_8h.html" target="_top" xlink:title=" ">
<polygon fill="#ffffff" stroke="#000000" points="176.5,-56.5 176.5,-75.5 229.5,-75.5 229.5,-56.5 176.5,-56.5"/>
<text text-anchor="middle" x="203" y="-63.5" font-family="Helvetica,sans-Serif" font-size="10.00" fill="#000000">types.h</text>
</a>
</g>
</g>
<!-- Node3&#45;&gt;Node4 -->
<g id="edge3" class="edge">
<title>Node3&#45;&gt;Node4</title>
<path fill="none" stroke="#191970" d="M147.9255,-168.4348C159.671,-160.1556 175.5788,-147.1479 185,-132 193.7227,-117.9751 198.2803,-99.7119 200.624,-85.9535"/>
<polygon fill="#191970" stroke="#191970" points="204.1469,-86.046 202.1147,-75.6479 197.219,-85.0437 204.1469,-86.046"/>
</g>
<!-- Node6 -->
<g id="node6" class="node">
<title>Node6</title>
<g id="a_node6"><a xlink:href="irx_8h.html" target="_top" xlink:title=" ">
<polygon fill="#ffffff" stroke="#000000" points="138,-112.5 138,-131.5 176,-131.5 176,-112.5 138,-112.5"/>
<text text-anchor="middle" x="157" y="-119.5" font-family="Helvetica,sans-Serif" font-size="10.00" fill="#000000">irx.h</text>
</a>
</g>
</g>
<!-- Node3&#45;&gt;Node6 -->
<g id="edge6" class="edge">
<title>Node3&#45;&gt;Node6</title>
<path fill="none" stroke="#191970" d="M137.1805,-168.2455C140.381,-160.7776 144.896,-150.2427 148.8084,-141.1137"/>
<polygon fill="#191970" stroke="#191970" points="152.1452,-142.2129 152.8674,-131.6427 145.7112,-139.4554 152.1452,-142.2129"/>
</g>
<!-- Node7 -->
<g id="node7" class="node">
<title>Node7</title>
<g id="a_node7"><a xlink:href="libsd-common_8h.html" target="_top" xlink:title=" ">
<polygon fill="#ffffff" stroke="#000000" points="63.5,-56.5 63.5,-75.5 158.5,-75.5 158.5,-56.5 63.5,-56.5"/>
<text text-anchor="middle" x="111" y="-63.5" font-family="Helvetica,sans-Serif" font-size="10.00" fill="#000000">libsd&#45;common.h</text>
</a>
</g>
</g>
<!-- Node3&#45;&gt;Node7 -->
<g id="edge8" class="edge">
<title>Node3&#45;&gt;Node7</title>
<path fill="none" stroke="#191970" d="M131.1243,-168.4509C127.5199,-150.1013 119.5625,-109.5908 114.8047,-85.3693"/>
<polygon fill="#191970" stroke="#191970" points="118.2329,-84.6627 112.871,-75.5249 111.3641,-86.012 118.2329,-84.6627"/>
</g>
<!-- Node4&#45;&gt;Node2 -->
<g id="edge5" class="edge">
<title>Node4&#45;&gt;Node2</title>
<path fill="none" stroke="#191970" d="M186.9748,-56.2455C172.8592,-47.6534 152.0737,-35.0014 135.8101,-25.1018"/>
<polygon fill="#191970" stroke="#191970" points="137.2034,-21.8525 126.8415,-19.6427 133.5637,-27.8319 137.2034,-21.8525"/>
</g>
<!-- Node5 -->
<g id="node5" class="node">
<title>Node5</title>
<g id="a_node5"><a xlink:title=" ">
<polygon fill="#ffffff" stroke="#bfbfbf" points="175,-.5 175,-19.5 231,-19.5 231,-.5 175,-.5"/>
<text text-anchor="middle" x="203" y="-7.5" font-family="Helvetica,sans-Serif" font-size="10.00" fill="#000000">stddef.h</text>
</a>
</g>
</g>
<!-- Node4&#45;&gt;Node5 -->
<g id="edge4" class="edge">
<title>Node4&#45;&gt;Node5</title>
<path fill="none" stroke="#191970" d="M203,-56.2455C203,-48.9382 203,-38.6944 203,-29.7046"/>
<polygon fill="#191970" stroke="#191970" points="206.5001,-29.6426 203,-19.6427 199.5001,-29.6427 206.5001,-29.6426"/>
</g>
<!-- Node6&#45;&gt;Node4 -->
<g id="edge7" class="edge">
<title>Node6&#45;&gt;Node4</title>
<path fill="none" stroke="#191970" d="M165.0126,-112.2455C171.4768,-104.3761 180.7385,-93.101 188.4983,-83.6542"/>
<polygon fill="#191970" stroke="#191970" points="191.4364,-85.5916 195.0792,-75.6427 186.0273,-81.1484 191.4364,-85.5916"/>
</g>
<!-- Node7&#45;&gt;Node2 -->
<g id="edge9" class="edge">
<title>Node7&#45;&gt;Node2</title>
<path fill="none" stroke="#191970" d="M111,-56.2455C111,-48.9382 111,-38.6944 111,-29.7046"/>
<polygon fill="#191970" stroke="#191970" points="114.5001,-29.6426 111,-19.6427 107.5001,-29.6427 114.5001,-29.6426"/>
</g>
</g>
</svg>
