<?xml version="1.0" encoding="UTF-8" standalone="no"?>
<!DOCTYPE svg PUBLIC "-//W3C//DTD SVG 1.1//EN"
 "http://www.w3.org/Graphics/SVG/1.1/DTD/svg11.dtd">
<!-- Generated by graphviz version 2.40.1 (20161225.0304)
 -->
<!-- Title: iop/sound/ps2snd/src/ps2snd.c Pages: 1 -->
<!--zoomable 319 -->
<svg id="main" version="1.1" xmlns="http://www.w3.org/2000/svg" xmlns:xlink="http://www.w3.org/1999/xlink" xml:space="preserve" onload="init(evt)">
<style type="text/css"><![CDATA[
.edge:hover path { stroke: red; }
.edge:hover polygon { stroke: red; fill: red; }
]]></style>
<script type="text/javascript"><![CDATA[
var edges = document.getElementsByTagName('g');
if (edges && edges.length) {
  for (var i=0;i<edges.length;i++) {
    if (edges[i].id.substr(0,4)=='edge') {
      edges[i].setAttribute('class','edge');
    }
  }
}
]]></script>
        <defs>
                <circle id="rim" cx="0" cy="0" r="7"/>
                <circle id="rim2" cx="0" cy="0" r="3.5"/>
                <g id="zoomPlus">
                        <use xlink:href="#rim" fill="#404040">
                                <set attributeName="fill" to="#808080" begin="zoomplus.mouseover" end="zoomplus.mouseout"/>
                        </use>
                        <path d="M-4,0h8M0,-4v8" fill="none" stroke="white" stroke-width="1.5" pointer-events="none"/>
                </g>
                <g id="zoomMin">
                        <use xlink:href="#rim" fill="#404040">
                                <set attributeName="fill" to="#808080" begin="zoomminus.mouseover" end="zoomminus.mouseout"/>
                        </use>
                        <path d="M-4,0h8" fill="none" stroke="white" stroke-width="1.5" pointer-events="none"/>
                </g>
                <g id="dirArrow">
                        <path fill="none" stroke="white" stroke-width="1.5" d="M0,-3.0v7 M-2.5,-0.5L0,-3.0L2.5,-0.5"/>
                </g>
               <g id="resetDef">
                       <use xlink:href="#rim2" fill="#404040">
                               <set attributeName="fill" to="#808080" begin="reset.mouseover" end="reset.mouseout"/>
                       </use>
               </g>
        </defs>

<script type="text/javascript">
var viewWidth = 732;
var viewHeight = 319;
var sectionId = 'dynsection-0';
</script>
<script xlink:href="svgpan.js"/>
<svg id="graph" class="graph">
<g id="viewport">
<title>iop/sound/ps2snd/src/ps2snd.c</title>
<polygon fill="#ffffff" stroke="transparent" points="-4,4 -4,-315 728,-315 728,4 -4,4"/>
<!-- Node1 -->
<g id="node1" class="node">
<title>Node1</title>
<g id="a_node1"><a xlink:title=" ">
<polygon fill="#bfbfbf" stroke="#000000" points="318,-280.5 318,-310.5 437,-310.5 437,-280.5 318,-280.5"/>
<text text-anchor="start" x="326" y="-298.5" font-family="Helvetica,sans-Serif" font-size="10.00" fill="#000000">iop/sound/ps2snd/src</text>
<text text-anchor="middle" x="377.5" y="-287.5" font-family="Helvetica,sans-Serif" font-size="10.00" fill="#000000">/ps2snd.c</text>
</a>
</g>
</g>
<!-- Node2 -->
<g id="node2" class="node">
<title>Node2</title>
<g id="a_node2"><a xlink:title=" ">
<polygon fill="#ffffff" stroke="#bfbfbf" points="0,-224.5 0,-243.5 53,-243.5 53,-224.5 0,-224.5"/>
<text text-anchor="middle" x="26.5" y="-231.5" font-family="Helvetica,sans-Serif" font-size="10.00" fill="#000000">types.h</text>
</a>
</g>
</g>
<!-- Node1&#45;&gt;Node2 -->
<g id="edge1" class="edge">
<title>Node1&#45;&gt;Node2</title>
<path fill="none" stroke="#191970" d="M317.9159,-287.7303C256.4729,-279.2754 157.7497,-264.4596 63.1783,-243.9512"/>
<polygon fill="#191970" stroke="#191970" points="63.673,-240.4766 53.1553,-241.7525 62.1731,-247.314 63.673,-240.4766"/>
</g>
<!-- Node3 -->
<g id="node3" class="node">
<title>Node3</title>
<g id="a_node3"><a xlink:href="irx_8h.html" target="_top" xlink:title=" ">
<polygon fill="#ffffff" stroke="#000000" points="370.5,-112.5 370.5,-131.5 408.5,-131.5 408.5,-112.5 370.5,-112.5"/>
<text text-anchor="middle" x="389.5" y="-119.5" font-family="Helvetica,sans-Serif" font-size="10.00" fill="#000000">irx.h</text>
</a>
</g>
</g>
<!-- Node1&#45;&gt;Node3 -->
<g id="edge2" class="edge">
<title>Node1&#45;&gt;Node3</title>
<path fill="none" stroke="#191970" d="M378.5439,-280.4065C380.7059,-249.1485 385.6737,-177.3214 388.1064,-142.1492"/>
<polygon fill="#191970" stroke="#191970" points="391.6281,-141.9557 388.8265,-131.738 384.6447,-141.4726 391.6281,-141.9557"/>
</g>
<!-- Node7 -->
<g id="node7" class="node">
<title>Node7</title>
<g id="a_node7"><a xlink:href="sifrpc_8h.html" target="_top" xlink:title=" ">
<polygon fill="#ffffff" stroke="#000000" points="539,-224.5 539,-243.5 592,-243.5 592,-224.5 539,-224.5"/>
<text text-anchor="middle" x="565.5" y="-231.5" font-family="Helvetica,sans-Serif" font-size="10.00" fill="#000000">sifrpc.h</text>
</a>
</g>
</g>
<!-- Node1&#45;&gt;Node7 -->
<g id="edge6" class="edge">
<title>Node1&#45;&gt;Node7</title>
<path fill="none" stroke="#191970" d="M423.49,-280.4554C456.0124,-269.8164 499.0158,-255.7488 529.1467,-245.8922"/>
<polygon fill="#191970" stroke="#191970" points="530.4216,-249.1577 538.8378,-242.7219 528.2452,-242.5046 530.4216,-249.1577"/>
</g>
<!-- Node9 -->
<g id="node9" class="node">
<title>Node9</title>
<g id="a_node9"><a xlink:href="loadcore_8h.html" target="_top" xlink:title=" ">
<polygon fill="#ffffff" stroke="#000000" points="140.5,-168.5 140.5,-187.5 208.5,-187.5 208.5,-168.5 140.5,-168.5"/>
<text text-anchor="middle" x="174.5" y="-175.5" font-family="Helvetica,sans-Serif" font-size="10.00" fill="#000000">loadcore.h</text>
</a>
</g>
</g>
<!-- Node1&#45;&gt;Node9 -->
<g id="edge10" class="edge">
<title>Node1&#45;&gt;Node9</title>
<path fill="none" stroke="#191970" d="M351.3769,-280.3795C312.2845,-257.7521 239.0169,-215.3435 200.1829,-192.8657"/>
<polygon fill="#191970" stroke="#191970" points="201.5016,-189.585 191.0935,-187.6046 197.9949,-195.6433 201.5016,-189.585"/>
</g>
<!-- Node10 -->
<g id="node10" class="node">
<title>Node10</title>
<g id="a_node10"><a xlink:href="stdio_8h.html" target="_top" xlink:title=" ">
<polygon fill="#ffffff" stroke="#000000" points="510.5,-168.5 510.5,-187.5 560.5,-187.5 560.5,-168.5 510.5,-168.5"/>
<text text-anchor="middle" x="535.5" y="-175.5" font-family="Helvetica,sans-Serif" font-size="10.00" fill="#000000">stdio.h</text>
</a>
</g>
</g>
<!-- Node1&#45;&gt;Node10 -->
<g id="edge13" class="edge">
<title>Node1&#45;&gt;Node10</title>
<path fill="none" stroke="#191970" d="M397.8323,-280.3795C427.8721,-258.0397 483.8393,-216.4185 514.3448,-193.7325"/>
<polygon fill="#191970" stroke="#191970" points="516.6492,-196.3806 522.5849,-187.6046 512.4719,-190.7636 516.6492,-196.3806"/>
</g>
<!-- Node12 -->
<g id="node12" class="node">
<title>Node12</title>
<g id="a_node12"><a xlink:href="libsd_8h.html" target="_top" xlink:title=" ">
<polygon fill="#ffffff" stroke="#000000" points="73,-168.5 73,-187.5 122,-187.5 122,-168.5 73,-168.5"/>
<text text-anchor="middle" x="97.5" y="-175.5" font-family="Helvetica,sans-Serif" font-size="10.00" fill="#000000">libsd.h</text>
</a>
</g>
</g>
<!-- Node1&#45;&gt;Node12 -->
<g id="edge16" class="edge">
<title>Node1&#45;&gt;Node12</title>
<path fill="none" stroke="#191970" d="M341.4343,-280.4153C316.9163,-270.1565 283.7464,-256.2701 254.5,-244 211.1357,-225.8069 161.0542,-204.7447 129.34,-191.4007"/>
<polygon fill="#191970" stroke="#191970" points="130.6898,-188.1715 120.1151,-187.5189 127.9748,-194.6235 130.6898,-188.1715"/>
</g>
<!-- Node14 -->
<g id="node14" class="node">
<title>Node14</title>
<g id="a_node14"><a xlink:href="thbase_8h.html" target="_top" xlink:title=" ">
<polygon fill="#ffffff" stroke="#000000" points="227,-168.5 227,-187.5 286,-187.5 286,-168.5 227,-168.5"/>
<text text-anchor="middle" x="256.5" y="-175.5" font-family="Helvetica,sans-Serif" font-size="10.00" fill="#000000">thbase.h</text>
</a>
</g>
</g>
<!-- Node1&#45;&gt;Node14 -->
<g id="edge21" class="edge">
<title>Node1&#45;&gt;Node14</title>
<path fill="none" stroke="#191970" d="M361.6814,-280.1389C338.8902,-258.007 296.9851,-217.314 273.5351,-194.5423"/>
<polygon fill="#191970" stroke="#191970" points="275.9566,-192.0151 266.3442,-187.5595 271.08,-197.037 275.9566,-192.0151"/>
</g>
<!-- Node15 -->
<g id="node15" class="node">
<title>Node15</title>
<g id="a_node15"><a xlink:href="intrman_8h.html" target="_top" xlink:title=" ">
<polygon fill="#ffffff" stroke="#000000" points="304.5,-168.5 304.5,-187.5 368.5,-187.5 368.5,-168.5 304.5,-168.5"/>
<text text-anchor="middle" x="336.5" y="-175.5" font-family="Helvetica,sans-Serif" font-size="10.00" fill="#000000">intrman.h</text>
</a>
</g>
</g>
<!-- Node1&#45;&gt;Node15 -->
<g id="edge24" class="edge">
<title>Node1&#45;&gt;Node15</title>
<path fill="none" stroke="#191970" d="M372.14,-280.1389C364.7195,-258.873 351.3194,-220.4702 343.2329,-197.2956"/>
<polygon fill="#191970" stroke="#191970" points="346.4349,-195.8481 339.8356,-187.5595 339.8257,-198.1543 346.4349,-195.8481"/>
</g>
<!-- Node16 -->
<g id="node16" class="node">
<title>Node16</title>
<g id="a_node16"><a xlink:href="sysmem_8h.html" target="_top" xlink:title=" ">
<polygon fill="#ffffff" stroke="#000000" points="424.5,-168.5 424.5,-187.5 492.5,-187.5 492.5,-168.5 424.5,-168.5"/>
<text text-anchor="middle" x="458.5" y="-175.5" font-family="Helvetica,sans-Serif" font-size="10.00" fill="#000000">sysmem.h</text>
</a>
</g>
</g>
<!-- Node1&#45;&gt;Node16 -->
<g id="edge27" class="edge">
<title>Node1&#45;&gt;Node16</title>
<path fill="none" stroke="#191970" d="M388.0893,-280.1389C403.0146,-258.4881 430.1848,-219.0745 446.0553,-196.0525"/>
<polygon fill="#191970" stroke="#191970" points="449.116,-197.7793 451.9101,-187.5595 443.3527,-193.8062 449.116,-197.7793"/>
</g>
<!-- Node17 -->
<g id="node17" class="node">
<title>Node17</title>
<g id="a_node17"><a xlink:href="thsemap_8h.html" target="_top" xlink:title=" ">
<polygon fill="#ffffff" stroke="#000000" points="578.5,-168.5 578.5,-187.5 646.5,-187.5 646.5,-168.5 578.5,-168.5"/>
<text text-anchor="middle" x="612.5" y="-175.5" font-family="Helvetica,sans-Serif" font-size="10.00" fill="#000000">thsemap.h</text>
</a>
</g>
</g>
<!-- Node1&#45;&gt;Node17 -->
<g id="edge31" class="edge">
<title>Node1&#45;&gt;Node17</title>
<path fill="none" stroke="#191970" d="M407.741,-280.3795C453.4752,-257.5124 539.6143,-214.4428 584.1837,-192.1581"/>
<polygon fill="#191970" stroke="#191970" points="585.9118,-195.2073 593.2908,-187.6046 582.7812,-188.9463 585.9118,-195.2073"/>
</g>
<!-- Node18 -->
<g id="node18" class="node">
<title>Node18</title>
<g id="a_node18"><a xlink:href="ps2snd_8h.html" target="_top" xlink:title=" ">
<polygon fill="#ffffff" stroke="#000000" points="71.5,-224.5 71.5,-243.5 131.5,-243.5 131.5,-224.5 71.5,-224.5"/>
<text text-anchor="middle" x="101.5" y="-231.5" font-family="Helvetica,sans-Serif" font-size="10.00" fill="#000000">ps2snd.h</text>
</a>
</g>
</g>
<!-- Node1&#45;&gt;Node18 -->
<g id="edge34" class="edge">
<title>Node1&#45;&gt;Node18</title>
<path fill="none" stroke="#191970" d="M317.9519,-282.2311C264.6195,-270.3473 187.878,-253.2473 141.5451,-242.9231"/>
<polygon fill="#191970" stroke="#191970" points="142.0996,-239.4609 131.5777,-240.7021 140.5771,-246.2933 142.0996,-239.4609"/>
</g>
<!-- Node19 -->
<g id="node19" class="node">
<title>Node19</title>
<g id="a_node19"><a xlink:href="mod_8h.html" target="_top" xlink:title=" ">
<polygon fill="#ffffff" stroke="#000000" points="610,-224.5 610,-243.5 657,-243.5 657,-224.5 610,-224.5"/>
<text text-anchor="middle" x="633.5" y="-231.5" font-family="Helvetica,sans-Serif" font-size="10.00" fill="#000000">mod.h</text>
</a>
</g>
</g>
<!-- Node1&#45;&gt;Node19 -->
<g id="edge37" class="edge">
<title>Node1&#45;&gt;Node19</title>
<path fill="none" stroke="#191970" d="M437.3991,-282.8131C480.1625,-273.4926 539.2316,-260.0863 599.9968,-244.0055"/>
<polygon fill="#191970" stroke="#191970" points="601.0009,-247.3601 609.7616,-241.4018 599.1974,-240.5964 601.0009,-247.3601"/>
</g>
<!-- Node4 -->
<g id="node4" class="node">
<title>Node4</title>
<g id="a_node4"><a xlink:href="types_8h.html" target="_top" xlink:title=" ">
<polygon fill="#ffffff" stroke="#000000" points="310,-56.5 310,-75.5 363,-75.5 363,-56.5 310,-56.5"/>
<text text-anchor="middle" x="336.5" y="-63.5" font-family="Helvetica,sans-Serif" font-size="10.00" fill="#000000">types.h</text>
</a>
</g>
</g>
<!-- Node3&#45;&gt;Node4 -->
<g id="edge3" class="edge">
<title>Node3&#45;&gt;Node4</title>
<path fill="none" stroke="#191970" d="M380.2681,-112.2455C372.6683,-104.2155 361.7123,-92.6394 352.6632,-83.0781"/>
<polygon fill="#191970" stroke="#191970" points="355.042,-80.4998 345.6261,-75.6427 349.9579,-85.3115 355.042,-80.4998"/>
</g>
<!-- Node5 -->
<g id="node5" class="node">
<title>Node5</title>
<g id="a_node5"><a xlink:title=" ">
<polygon fill="#ffffff" stroke="#bfbfbf" points="308.5,-.5 308.5,-19.5 364.5,-19.5 364.5,-.5 308.5,-.5"/>
<text text-anchor="middle" x="336.5" y="-7.5" font-family="Helvetica,sans-Serif" font-size="10.00" fill="#000000">stddef.h</text>
</a>
</g>
</g>
<!-- Node4&#45;&gt;Node5 -->
<g id="edge4" class="edge">
<title>Node4&#45;&gt;Node5</title>
<path fill="none" stroke="#191970" d="M336.5,-56.2455C336.5,-48.9382 336.5,-38.6944 336.5,-29.7046"/>
<polygon fill="#191970" stroke="#191970" points="340.0001,-29.6426 336.5,-19.6427 333.0001,-29.6427 340.0001,-29.6426"/>
</g>
<!-- Node6 -->
<g id="node6" class="node">
<title>Node6</title>
<g id="a_node6"><a xlink:href="tamtypes_8h.html" target="_top" xlink:title=" ">
<polygon fill="#ffffff" stroke="#000000" points="84.5,-.5 84.5,-19.5 156.5,-19.5 156.5,-.5 84.5,-.5"/>
<text text-anchor="middle" x="120.5" y="-7.5" font-family="Helvetica,sans-Serif" font-size="10.00" fill="#000000">tamtypes.h</text>
</a>
</g>
</g>
<!-- Node4&#45;&gt;Node6 -->
<g id="edge5" class="edge">
<title>Node4&#45;&gt;Node6</title>
<path fill="none" stroke="#191970" d="M309.5802,-59.0208C273.803,-49.7452 210.0507,-33.2168 166.5532,-21.9397"/>
<polygon fill="#191970" stroke="#191970" points="167.3384,-18.5276 156.7801,-19.4059 165.5816,-25.3036 167.3384,-18.5276"/>
</g>
<!-- Node8 -->
<g id="node8" class="node">
<title>Node8</title>
<g id="a_node8"><a xlink:href="sifcmd_8h.html" target="_top" xlink:title=" ">
<polygon fill="#ffffff" stroke="#000000" points="665,-168.5 665,-187.5 724,-187.5 724,-168.5 665,-168.5"/>
<text text-anchor="middle" x="694.5" y="-175.5" font-family="Helvetica,sans-Serif" font-size="10.00" fill="#000000">sifcmd.h</text>
</a>
</g>
</g>
<!-- Node7&#45;&gt;Node8 -->
<g id="edge7" class="edge">
<title>Node7&#45;&gt;Node8</title>
<path fill="none" stroke="#191970" d="M587.6759,-224.3733C608.4766,-215.3435 639.7917,-201.7494 663.1458,-191.6111"/>
<polygon fill="#191970" stroke="#191970" points="664.8343,-194.6938 672.6135,-187.5011 662.0468,-188.2727 664.8343,-194.6938"/>
</g>
<!-- Node8&#45;&gt;Node3 -->
<g id="edge9" class="edge">
<title>Node8&#45;&gt;Node3</title>
<path fill="none" stroke="#191970" d="M664.7473,-170.1107C661.6329,-169.3629 658.5073,-168.6445 655.5,-168 569.9009,-149.6549 467.5981,-133.5905 418.5415,-126.2456"/>
<polygon fill="#191970" stroke="#191970" points="419.0365,-122.7808 408.6305,-124.7722 418.0071,-129.7047 419.0365,-122.7808"/>
</g>
<!-- Node8&#45;&gt;Node4 -->
<g id="edge8" class="edge">
<title>Node8&#45;&gt;Node4</title>
<path fill="none" stroke="#191970" d="M681.8065,-168.4974C661.7882,-153.9949 621.1737,-126.4986 582.5,-112 511.2434,-85.2861 422.3396,-73.5938 373.2908,-68.8729"/>
<polygon fill="#191970" stroke="#191970" points="373.4384,-65.3718 363.1603,-67.9432 372.7986,-72.3425 373.4384,-65.3718"/>
</g>
<!-- Node9&#45;&gt;Node3 -->
<g id="edge12" class="edge">
<title>Node9&#45;&gt;Node3</title>
<path fill="none" stroke="#191970" d="M208.5674,-169.1266C250.5231,-158.1986 321.0646,-139.825 360.5309,-129.5454"/>
<polygon fill="#191970" stroke="#191970" points="361.5293,-132.9023 370.3242,-126.9946 359.7648,-126.1283 361.5293,-132.9023"/>
</g>
<!-- Node9&#45;&gt;Node4 -->
<g id="edge11" class="edge">
<title>Node9&#45;&gt;Node4</title>
<path fill="none" stroke="#191970" d="M188.312,-168.4509C216.4077,-149.0268 280.4215,-104.7703 314.3848,-81.2895"/>
<polygon fill="#191970" stroke="#191970" points="316.4877,-84.0907 322.7229,-75.5249 312.5069,-78.3328 316.4877,-84.0907"/>
</g>
<!-- Node10&#45;&gt;Node3 -->
<g id="edge15" class="edge">
<title>Node10&#45;&gt;Node3</title>
<path fill="none" stroke="#191970" d="M510.4017,-168.3733C484.8094,-158.557 445.1541,-143.3468 418.2988,-133.0461"/>
<polygon fill="#191970" stroke="#191970" points="419.2791,-129.6736 408.6889,-129.3601 416.7723,-136.2093 419.2791,-129.6736"/>
</g>
<!-- Node11 -->
<g id="node11" class="node">
<title>Node11</title>
<g id="a_node11"><a xlink:title=" ">
<polygon fill="#ffffff" stroke="#bfbfbf" points="491.5,-112.5 491.5,-131.5 547.5,-131.5 547.5,-112.5 491.5,-112.5"/>
<text text-anchor="middle" x="519.5" y="-119.5" font-family="Helvetica,sans-Serif" font-size="10.00" fill="#000000">stdarg.h</text>
</a>
</g>
</g>
<!-- Node10&#45;&gt;Node11 -->
<g id="edge14" class="edge">
<title>Node10&#45;&gt;Node11</title>
<path fill="none" stroke="#191970" d="M532.713,-168.2455C530.6023,-160.8579 527.634,-150.4689 525.0453,-141.4087"/>
<polygon fill="#191970" stroke="#191970" points="528.3677,-140.2964 522.255,-131.6427 521.637,-142.2195 528.3677,-140.2964"/>
</g>
<!-- Node12&#45;&gt;Node3 -->
<g id="edge18" class="edge">
<title>Node12&#45;&gt;Node3</title>
<path fill="none" stroke="#191970" d="M122.2986,-170.3651C125.3837,-169.5162 128.5055,-168.7051 131.5,-168 213.6402,-148.6594 312.184,-133.1979 360.2469,-126.1465"/>
<polygon fill="#191970" stroke="#191970" points="360.8635,-129.5938 370.2567,-124.6929 359.8575,-122.6665 360.8635,-129.5938"/>
</g>
<!-- Node12&#45;&gt;Node4 -->
<g id="edge17" class="edge">
<title>Node12&#45;&gt;Node4</title>
<path fill="none" stroke="#191970" d="M117.877,-168.4509C160.2087,-148.6135 257.8096,-102.8758 307.0105,-79.8194"/>
<polygon fill="#191970" stroke="#191970" points="308.6047,-82.9376 316.1746,-75.5249 305.6343,-76.599 308.6047,-82.9376"/>
</g>
<!-- Node13 -->
<g id="node13" class="node">
<title>Node13</title>
<g id="a_node13"><a xlink:href="libsd-common_8h.html" target="_top" xlink:title=" ">
<polygon fill="#ffffff" stroke="#000000" points="73,-56.5 73,-75.5 168,-75.5 168,-56.5 73,-56.5"/>
<text text-anchor="middle" x="120.5" y="-63.5" font-family="Helvetica,sans-Serif" font-size="10.00" fill="#000000">libsd&#45;common.h</text>
</a>
</g>
</g>
<!-- Node12&#45;&gt;Node13 -->
<g id="edge19" class="edge">
<title>Node12&#45;&gt;Node13</title>
<path fill="none" stroke="#191970" d="M99.461,-168.4509C103.2292,-150.1013 111.5483,-109.5908 116.5224,-85.3693"/>
<polygon fill="#191970" stroke="#191970" points="119.9608,-86.0246 118.544,-75.5249 113.1039,-84.6164 119.9608,-86.0246"/>
</g>
<!-- Node13&#45;&gt;Node6 -->
<g id="edge20" class="edge">
<title>Node13&#45;&gt;Node6</title>
<path fill="none" stroke="#191970" d="M120.5,-56.2455C120.5,-48.9382 120.5,-38.6944 120.5,-29.7046"/>
<polygon fill="#191970" stroke="#191970" points="124.0001,-29.6426 120.5,-19.6427 117.0001,-29.6427 124.0001,-29.6426"/>
</g>
<!-- Node14&#45;&gt;Node3 -->
<g id="edge23" class="edge">
<title>Node14&#45;&gt;Node3</title>
<path fill="none" stroke="#191970" d="M279.3635,-168.3733C301.9494,-158.8634 336.5589,-144.291 360.9416,-134.0246"/>
<polygon fill="#191970" stroke="#191970" points="362.521,-137.1573 370.3791,-130.0509 359.8045,-130.7058 362.521,-137.1573"/>
</g>
<!-- Node14&#45;&gt;Node4 -->
<g id="edge22" class="edge">
<title>Node14&#45;&gt;Node4</title>
<path fill="none" stroke="#191970" d="M263.3208,-168.4509C276.7228,-149.688 306.6752,-107.7548 323.8157,-83.758"/>
<polygon fill="#191970" stroke="#191970" points="326.7322,-85.6966 329.6965,-75.5249 321.036,-81.6279 326.7322,-85.6966"/>
</g>
<!-- Node15&#45;&gt;Node3 -->
<g id="edge26" class="edge">
<title>Node15&#45;&gt;Node3</title>
<path fill="none" stroke="#191970" d="M345.7319,-168.2455C353.3317,-160.2155 364.2877,-148.6394 373.3368,-139.0781"/>
<polygon fill="#191970" stroke="#191970" points="376.0421,-141.3115 380.3739,-131.6427 370.958,-136.4998 376.0421,-141.3115"/>
</g>
<!-- Node15&#45;&gt;Node4 -->
<g id="edge25" class="edge">
<title>Node15&#45;&gt;Node4</title>
<path fill="none" stroke="#191970" d="M336.5,-168.4509C336.5,-150.184 336.5,-109.9553 336.5,-85.6976"/>
<polygon fill="#191970" stroke="#191970" points="340.0001,-85.5249 336.5,-75.5249 333.0001,-85.5249 340.0001,-85.5249"/>
</g>
<!-- Node16&#45;&gt;Node3 -->
<g id="edge29" class="edge">
<title>Node16&#45;&gt;Node3</title>
<path fill="none" stroke="#191970" d="M446.4811,-168.2455C436.2902,-159.9746 421.4638,-147.9416 409.4893,-138.2232"/>
<polygon fill="#191970" stroke="#191970" points="411.3514,-135.2268 401.3812,-131.6427 406.9402,-140.662 411.3514,-135.2268"/>
</g>
<!-- Node16&#45;&gt;Node4 -->
<g id="edge28" class="edge">
<title>Node16&#45;&gt;Node4</title>
<path fill="none" stroke="#191970" d="M454.433,-168.4524C448.1627,-154.6208 435.0038,-128.8276 417.5,-112 403.6941,-98.7274 385.3282,-87.8909 369.5753,-80.0768"/>
<polygon fill="#191970" stroke="#191970" points="370.7031,-76.7377 360.1688,-75.6073 367.6989,-83.0603 370.7031,-76.7377"/>
</g>
<!-- Node16&#45;&gt;Node11 -->
<g id="edge30" class="edge">
<title>Node16&#45;&gt;Node11</title>
<path fill="none" stroke="#191970" d="M469.1254,-168.2455C478.0473,-160.0549 490.988,-148.1749 501.5192,-138.5069"/>
<polygon fill="#191970" stroke="#191970" points="503.9968,-140.9837 508.9964,-131.6427 499.2629,-135.8271 503.9968,-140.9837"/>
</g>
<!-- Node17&#45;&gt;Node3 -->
<g id="edge33" class="edge">
<title>Node17&#45;&gt;Node3</title>
<path fill="none" stroke="#191970" d="M578.145,-169.3727C534.4249,-158.3937 459.6666,-139.6203 418.6139,-129.3111"/>
<polygon fill="#191970" stroke="#191970" points="419.2534,-125.8631 408.7021,-126.822 417.5485,-132.6523 419.2534,-125.8631"/>
</g>
<!-- Node17&#45;&gt;Node4 -->
<g id="edge32" class="edge">
<title>Node17&#45;&gt;Node4</title>
<path fill="none" stroke="#191970" d="M607.0595,-168.149C598.3929,-153.4423 580.0048,-125.9827 556.5,-112 526.004,-93.8583 427.7973,-78.2762 373.4825,-70.7735"/>
<polygon fill="#191970" stroke="#191970" points="373.6178,-67.2599 363.2378,-69.3823 372.6759,-74.1962 373.6178,-67.2599"/>
</g>
<!-- Node18&#45;&gt;Node6 -->
<g id="edge35" class="edge">
<title>Node18&#45;&gt;Node6</title>
<path fill="none" stroke="#191970" d="M90.0547,-224.3916C80.9007,-215.901 68.7581,-202.6212 63.5,-188 43.6468,-132.7947 38.1991,-108.9305 63.5,-56 69.6448,-43.1449 81.3299,-32.7306 92.5285,-25.0832"/>
<polygon fill="#191970" stroke="#191970" points="94.7041,-27.8488 101.29,-19.5495 90.9661,-21.9304 94.7041,-27.8488"/>
</g>
<!-- Node18&#45;&gt;Node12 -->
<g id="edge36" class="edge">
<title>Node18&#45;&gt;Node12</title>
<path fill="none" stroke="#191970" d="M100.8033,-224.2455C100.2813,-216.9382 99.5496,-206.6944 98.9075,-197.7046"/>
<polygon fill="#191970" stroke="#191970" points="102.3924,-197.3679 98.1888,-187.6427 95.4102,-197.8667 102.3924,-197.3679"/>
</g>
</g>
</svg>
        <g id="navigator" transform="translate(0 0)" fill="#404254">
                <rect fill="#f2f5e9" fill-opacity="0.5" stroke="#606060" stroke-width=".5" x="0" y="0" width="60" height="60"/>
                <use id="zoomplus" xlink:href="#zoomPlus" x="17" y="9" onmousedown="handleZoom(evt,'in')"/>
                <use id="zoomminus" xlink:href="#zoomMin" x="42" y="9" onmousedown="handleZoom(evt,'out')"/>
                <use id="reset" xlink:href="#resetDef" x="30" y="36" onmousedown="handleReset()"/>
                <g id="arrowUp" xlink:href="#dirArrow" transform="translate(30 24)" onmousedown="handlePan(0,-1)">
                  <use xlink:href="#rim" fill="#404040">
                        <set attributeName="fill" to="#808080" begin="arrowUp.mouseover" end="arrowUp.mouseout"/>
                  </use>
                  <path fill="none" stroke="white" stroke-width="1.5" d="M0,-3.0v7 M-2.5,-0.5L0,-3.0L2.5,-0.5"/>
                </g>
                <g id="arrowRight" xlink:href="#dirArrow" transform="rotate(90) translate(36 -43)" onmousedown="handlePan(1,0)">
                  <use xlink:href="#rim" fill="#404040">
                        <set attributeName="fill" to="#808080" begin="arrowRight.mouseover" end="arrowRight.mouseout"/>
                  </use>
                  <path fill="none" stroke="white" stroke-width="1.5" d="M0,-3.0v7 M-2.5,-0.5L0,-3.0L2.5,-0.5"/>
                </g>
                <g id="arrowDown" xlink:href="#dirArrow" transform="rotate(180) translate(-30 -48)" onmousedown="handlePan(0,1)">
                  <use xlink:href="#rim" fill="#404040">
                        <set attributeName="fill" to="#808080" begin="arrowDown.mouseover" end="arrowDown.mouseout"/>
                  </use>
                  <path fill="none" stroke="white" stroke-width="1.5" d="M0,-3.0v7 M-2.5,-0.5L0,-3.0L2.5,-0.5"/>
                </g>
                <g id="arrowLeft" xlink:href="#dirArrow" transform="rotate(270) translate(-36 17)" onmousedown="handlePan(-1,0)">
                  <use xlink:href="#rim" fill="#404040">
                        <set attributeName="fill" to="#808080" begin="arrowLeft.mouseover" end="arrowLeft.mouseout"/>
                  </use>
                  <path fill="none" stroke="white" stroke-width="1.5" d="M0,-3.0v7 M-2.5,-0.5L0,-3.0L2.5,-0.5"/>
                </g>
        </g>
        <svg viewBox="0 0 15 15" width="100%" height="30px" preserveAspectRatio="xMaxYMin meet">
         <g id="arrow_out" transform="scale(0.3 0.3)">
          <a xlink:href="ps2snd_8c__incl_org.svg" target="_base">
           <rect id="button" ry="5" rx="5" y="6" x="6" height="38" width="38"
                fill="#f2f5e9" fill-opacity="0.5" stroke="#606060" stroke-width="1.0"/>
           <path id="arrow"
             d="M 11.500037,31.436501 C 11.940474,20.09759 22.043105,11.32322 32.158766,21.979434 L 37.068811,17.246167 C 37.068811,17.246167 37.088388,32 37.088388,32 L 22.160133,31.978069 C 22.160133,31.978069 26.997745,27.140456 26.997745,27.140456 C 18.528582,18.264221 13.291696,25.230495 11.500037,31.436501 z"
             style="fill:#404040;"/>
          </a>
         </g>
        </svg>
</svg>
