<?xml version="1.0" encoding="UTF-8" standalone="no"?>
<!DOCTYPE svg PUBLIC "-//W3C//DTD SVG 1.1//EN"
 "http://www.w3.org/Graphics/SVG/1.1/DTD/svg11.dtd">
<!-- Generated by graphviz version 2.40.1 (20161225.0304)
 -->
<!-- Title: iop/system/rsio2man/include/rsio2man.h Pages: 1 -->
<svg width="177pt" height="319pt"
 viewBox="0.00 0.00 176.50 319.00" xmlns="http://www.w3.org/2000/svg" xmlns:xlink="http://www.w3.org/1999/xlink">
<g id="graph0" class="graph" transform="scale(1 1) rotate(0) translate(4 315)">
<title>iop/system/rsio2man/include/rsio2man.h</title>
<polygon fill="#ffffff" stroke="transparent" points="-4,4 -4,-315 172.5,-315 172.5,4 -4,4"/>
<!-- Node1 -->
<g id="node1" class="node">
<title>Node1</title>
<g id="a_node1"><a xlink:title=" ">
<polygon fill="#bfbfbf" stroke="#000000" points="0,-280.5 0,-310.5 119,-310.5 119,-280.5 0,-280.5"/>
<text text-anchor="start" x="8" y="-298.5" font-family="Helvetica,sans-Serif" font-size="10.00" fill="#000000">iop/system/rsio2man</text>
<text text-anchor="middle" x="59.5" y="-287.5" font-family="Helvetica,sans-Serif" font-size="10.00" fill="#000000">/include/rsio2man.h</text>
</a>
</g>
</g>
<!-- Node2 -->
<g id="node2" class="node">
<title>Node2</title>
<g id="a_node2"><a xlink:href="xsio2man_8h.html" target="_top" xlink:title=" ">
<polygon fill="#ffffff" stroke="#000000" points="22.5,-224.5 22.5,-243.5 96.5,-243.5 96.5,-224.5 22.5,-224.5"/>
<text text-anchor="middle" x="59.5" y="-231.5" font-family="Helvetica,sans-Serif" font-size="10.00" fill="#000000">xsio2man.h</text>
</a>
</g>
</g>
<!-- Node1&#45;&gt;Node2 -->
<g id="edge1" class="edge">
<title>Node1&#45;&gt;Node2</title>
<path fill="none" stroke="#191970" d="M59.5,-280.2977C59.5,-272.3834 59.5,-262.6043 59.5,-254.0759"/>
<polygon fill="#191970" stroke="#191970" points="63.0001,-253.8469 59.5,-243.8469 56.0001,-253.847 63.0001,-253.8469"/>
</g>
<!-- Node3 -->
<g id="node3" class="node">
<title>Node3</title>
<g id="a_node3"><a xlink:href="sio2man_8h.html" target="_top" xlink:title=" ">
<polygon fill="#ffffff" stroke="#000000" points="25.5,-168.5 25.5,-187.5 93.5,-187.5 93.5,-168.5 25.5,-168.5"/>
<text text-anchor="middle" x="59.5" y="-175.5" font-family="Helvetica,sans-Serif" font-size="10.00" fill="#000000">sio2man.h</text>
</a>
</g>
</g>
<!-- Node2&#45;&gt;Node3 -->
<g id="edge2" class="edge">
<title>Node2&#45;&gt;Node3</title>
<path fill="none" stroke="#191970" d="M59.5,-224.2455C59.5,-216.9382 59.5,-206.6944 59.5,-197.7046"/>
<polygon fill="#191970" stroke="#191970" points="63.0001,-197.6426 59.5,-187.6427 56.0001,-197.6427 63.0001,-197.6426"/>
</g>
<!-- Node4 -->
<g id="node4" class="node">
<title>Node4</title>
<g id="a_node4"><a xlink:title=" ">
<polygon fill="#ffffff" stroke="#bfbfbf" points="1,-112.5 1,-131.5 54,-131.5 54,-112.5 1,-112.5"/>
<text text-anchor="middle" x="27.5" y="-119.5" font-family="Helvetica,sans-Serif" font-size="10.00" fill="#000000">types.h</text>
</a>
</g>
</g>
<!-- Node3&#45;&gt;Node4 -->
<g id="edge3" class="edge">
<title>Node3&#45;&gt;Node4</title>
<path fill="none" stroke="#191970" d="M53.926,-168.2455C49.5669,-160.617 43.3789,-149.7881 38.0867,-140.5267"/>
<polygon fill="#191970" stroke="#191970" points="41.0104,-138.5886 33.0101,-131.6427 34.9327,-142.0616 41.0104,-138.5886"/>
</g>
<!-- Node5 -->
<g id="node5" class="node">
<title>Node5</title>
<g id="a_node5"><a xlink:href="irx_8h.html" target="_top" xlink:title=" ">
<polygon fill="#ffffff" stroke="#000000" points="72.5,-112.5 72.5,-131.5 110.5,-131.5 110.5,-112.5 72.5,-112.5"/>
<text text-anchor="middle" x="91.5" y="-119.5" font-family="Helvetica,sans-Serif" font-size="10.00" fill="#000000">irx.h</text>
</a>
</g>
</g>
<!-- Node3&#45;&gt;Node5 -->
<g id="edge4" class="edge">
<title>Node3&#45;&gt;Node5</title>
<path fill="none" stroke="#191970" d="M65.074,-168.2455C69.4331,-160.617 75.6211,-149.7881 80.9133,-140.5267"/>
<polygon fill="#191970" stroke="#191970" points="84.0673,-142.0616 85.9899,-131.6427 77.9896,-138.5886 84.0673,-142.0616"/>
</g>
<!-- Node6 -->
<g id="node6" class="node">
<title>Node6</title>
<g id="a_node6"><a xlink:href="types_8h.html" target="_top" xlink:title=" ">
<polygon fill="#ffffff" stroke="#000000" points="65,-56.5 65,-75.5 118,-75.5 118,-56.5 65,-56.5"/>
<text text-anchor="middle" x="91.5" y="-63.5" font-family="Helvetica,sans-Serif" font-size="10.00" fill="#000000">types.h</text>
</a>
</g>
</g>
<!-- Node5&#45;&gt;Node6 -->
<g id="edge5" class="edge">
<title>Node5&#45;&gt;Node6</title>
<path fill="none" stroke="#191970" d="M91.5,-112.2455C91.5,-104.9382 91.5,-94.6944 91.5,-85.7046"/>
<polygon fill="#191970" stroke="#191970" points="95.0001,-85.6426 91.5,-75.6427 88.0001,-85.6427 95.0001,-85.6426"/>
</g>
<!-- Node7 -->
<g id="node7" class="node">
<title>Node7</title>
<g id="a_node7"><a xlink:title=" ">
<polygon fill="#ffffff" stroke="#bfbfbf" points="22.5,-.5 22.5,-19.5 78.5,-19.5 78.5,-.5 22.5,-.5"/>
<text text-anchor="middle" x="50.5" y="-7.5" font-family="Helvetica,sans-Serif" font-size="10.00" fill="#000000">stddef.h</text>
</a>
</g>
</g>
<!-- Node6&#45;&gt;Node7 -->
<g id="edge6" class="edge">
<title>Node6&#45;&gt;Node7</title>
<path fill="none" stroke="#191970" d="M84.3583,-56.2455C78.6556,-48.4564 70.51,-37.3308 63.6375,-27.9439"/>
<polygon fill="#191970" stroke="#191970" points="66.2913,-25.6437 57.5598,-19.6427 60.6432,-29.7789 66.2913,-25.6437"/>
</g>
<!-- Node8 -->
<g id="node8" class="node">
<title>Node8</title>
<g id="a_node8"><a xlink:href="tamtypes_8h.html" target="_top" xlink:title=" ">
<polygon fill="#ffffff" stroke="#000000" points="96.5,-.5 96.5,-19.5 168.5,-19.5 168.5,-.5 96.5,-.5"/>
<text text-anchor="middle" x="132.5" y="-7.5" font-family="Helvetica,sans-Serif" font-size="10.00" fill="#000000">tamtypes.h</text>
</a>
</g>
</g>
<!-- Node6&#45;&gt;Node8 -->
<g id="edge7" class="edge">
<title>Node6&#45;&gt;Node8</title>
<path fill="none" stroke="#191970" d="M98.6417,-56.2455C104.3444,-48.4564 112.49,-37.3308 119.3625,-27.9439"/>
<polygon fill="#191970" stroke="#191970" points="122.3568,-29.7789 125.4402,-19.6427 116.7087,-25.6437 122.3568,-29.7789"/>
</g>
</g>
</svg>
