<?xml version="1.0" encoding="UTF-8" standalone="no"?>
<!DOCTYPE svg PUBLIC "-//W3C//DTD SVG 1.1//EN"
 "http://www.w3.org/Graphics/SVG/1.1/DTD/svg11.dtd">
<!-- Generated by graphviz version 2.40.1 (20161225.0304)
 -->
<!-- Title: iop/debug/iop_sbusdbg/src/sbus_tty.c Pages: 1 -->
<svg width="926pt" height="263pt"
 viewBox="0.00 0.00 926.19 263.00" xmlns="http://www.w3.org/2000/svg" xmlns:xlink="http://www.w3.org/1999/xlink">
<g id="graph0" class="graph" transform="scale(1 1) rotate(0) translate(4 259)">
<title>iop/debug/iop_sbusdbg/src/sbus_tty.c</title>
<polygon fill="#ffffff" stroke="transparent" points="-4,4 -4,-259 922.1887,-259 922.1887,4 -4,4"/>
<!-- Node1 -->
<g id="node1" class="node">
<title>Node1</title>
<g id="a_node1"><a xlink:title=" ">
<polygon fill="#bfbfbf" stroke="#000000" points="326.6887,-224.5 326.6887,-254.5 454.6887,-254.5 454.6887,-224.5 326.6887,-224.5"/>
<text text-anchor="start" x="334.6887" y="-242.5" font-family="Helvetica,sans-Serif" font-size="10.00" fill="#000000">iop/debug/iop_sbusdbg</text>
<text text-anchor="middle" x="390.6887" y="-231.5" font-family="Helvetica,sans-Serif" font-size="10.00" fill="#000000">/src/sbus_tty.c</text>
</a>
</g>
</g>
<!-- Node2 -->
<g id="node2" class="node">
<title>Node2</title>
<g id="a_node2"><a xlink:href="tamtypes_8h.html" target="_top" xlink:title=" ">
<polygon fill="#ffffff" stroke="#000000" points="138.6887,-.5 138.6887,-19.5 210.6887,-19.5 210.6887,-.5 138.6887,-.5"/>
<text text-anchor="middle" x="174.6887" y="-7.5" font-family="Helvetica,sans-Serif" font-size="10.00" fill="#000000">tamtypes.h</text>
</a>
</g>
</g>
<!-- Node1&#45;&gt;Node2 -->
<g id="edge1" class="edge">
<title>Node1&#45;&gt;Node2</title>
<path fill="none" stroke="#191970" d="M326.362,-235.3811C242.1912,-229.0195 100.1677,-214.657 55.6887,-188 29.0031,-172.0069 24.0521,-161.3343 13.6887,-132 2.4331,-100.1403 -8.7029,-82.9427 11.6887,-56 25.8167,-37.3331 85.4332,-24.091 128.4836,-16.7472"/>
<polygon fill="#191970" stroke="#191970" points="129.1902,-20.178 138.4861,-15.095 128.0493,-13.2716 129.1902,-20.178"/>
</g>
<!-- Node3 -->
<g id="node3" class="node">
<title>Node3</title>
<g id="a_node3"><a xlink:href="stdio_8h.html" target="_top" xlink:title=" ">
<polygon fill="#ffffff" stroke="#000000" points="254.6887,-168.5 254.6887,-187.5 304.6887,-187.5 304.6887,-168.5 254.6887,-168.5"/>
<text text-anchor="middle" x="279.6887" y="-175.5" font-family="Helvetica,sans-Serif" font-size="10.00" fill="#000000">stdio.h</text>
</a>
</g>
</g>
<!-- Node1&#45;&gt;Node3 -->
<g id="edge2" class="edge">
<title>Node1&#45;&gt;Node3</title>
<path fill="none" stroke="#191970" d="M363.535,-224.4554C345.9892,-214.734 323.2765,-202.15 305.9166,-192.5317"/>
<polygon fill="#191970" stroke="#191970" points="307.3332,-189.3153 296.8898,-187.5303 303.9407,-195.4383 307.3332,-189.3153"/>
</g>
<!-- Node4 -->
<g id="node4" class="node">
<title>Node4</title>
<g id="a_node4"><a xlink:title=" ">
<polygon fill="#ffffff" stroke="#bfbfbf" points="220.6887,-112.5 220.6887,-131.5 276.6887,-131.5 276.6887,-112.5 220.6887,-112.5"/>
<text text-anchor="middle" x="248.6887" y="-119.5" font-family="Helvetica,sans-Serif" font-size="10.00" fill="#000000">stdarg.h</text>
</a>
</g>
</g>
<!-- Node1&#45;&gt;Node4 -->
<g id="edge8" class="edge">
<title>Node1&#45;&gt;Node4</title>
<path fill="none" stroke="#191970" d="M326.3758,-224.4444C292.3677,-215.0429 255.6267,-202.076 245.6887,-188 236.1995,-174.5597 238.2858,-155.4607 241.955,-141.2636"/>
<polygon fill="#191970" stroke="#191970" points="245.3518,-142.1228 244.9039,-131.5374 238.6529,-140.0917 245.3518,-142.1228"/>
</g>
<!-- Node8 -->
<g id="node8" class="node">
<title>Node8</title>
<g id="a_node8"><a xlink:href="sysclib_8h.html" target="_top" xlink:title=" ">
<polygon fill="#ffffff" stroke="#000000" points="139.1887,-168.5 139.1887,-187.5 198.1887,-187.5 198.1887,-168.5 139.1887,-168.5"/>
<text text-anchor="middle" x="168.6887" y="-175.5" font-family="Helvetica,sans-Serif" font-size="10.00" fill="#000000">sysclib.h</text>
</a>
</g>
</g>
<!-- Node1&#45;&gt;Node8 -->
<g id="edge9" class="edge">
<title>Node1&#45;&gt;Node8</title>
<path fill="none" stroke="#191970" d="M336.3814,-224.4554C296.7753,-213.4835 244.006,-198.8649 208.3214,-188.9793"/>
<polygon fill="#191970" stroke="#191970" points="208.8539,-185.4951 198.2824,-186.1983 206.9851,-192.241 208.8539,-185.4951"/>
</g>
<!-- Node10 -->
<g id="node10" class="node">
<title>Node10</title>
<g id="a_node10"><a xlink:href="sysmem_8h.html" target="_top" xlink:title=" ">
<polygon fill="#ffffff" stroke="#000000" points="396.6887,-168.5 396.6887,-187.5 464.6887,-187.5 464.6887,-168.5 396.6887,-168.5"/>
<text text-anchor="middle" x="430.6887" y="-175.5" font-family="Helvetica,sans-Serif" font-size="10.00" fill="#000000">sysmem.h</text>
</a>
</g>
</g>
<!-- Node1&#45;&gt;Node10 -->
<g id="edge15" class="edge">
<title>Node1&#45;&gt;Node10</title>
<path fill="none" stroke="#191970" d="M400.5763,-224.2977C406.0709,-215.8498 412.9473,-205.2773 418.7414,-196.369"/>
<polygon fill="#191970" stroke="#191970" points="421.7659,-198.1381 424.2842,-187.8469 415.8979,-194.3215 421.7659,-198.1381"/>
</g>
<!-- Node11 -->
<g id="node11" class="node">
<title>Node11</title>
<g id="a_node11"><a xlink:href="excepman_8h.html" target="_top" xlink:title=" ">
<polygon fill="#ffffff" stroke="#000000" points="483.1887,-168.5 483.1887,-187.5 560.1887,-187.5 560.1887,-168.5 483.1887,-168.5"/>
<text text-anchor="middle" x="521.6887" y="-175.5" font-family="Helvetica,sans-Serif" font-size="10.00" fill="#000000">excepman.h</text>
</a>
</g>
</g>
<!-- Node1&#45;&gt;Node11 -->
<g id="edge19" class="edge">
<title>Node1&#45;&gt;Node11</title>
<path fill="none" stroke="#191970" d="M422.7349,-224.4554C443.9215,-214.509 471.4915,-201.5659 492.1475,-191.8686"/>
<polygon fill="#191970" stroke="#191970" points="493.8236,-194.9483 501.3884,-187.5303 490.8488,-188.6118 493.8236,-194.9483"/>
</g>
<!-- Node12 -->
<g id="node12" class="node">
<title>Node12</title>
<g id="a_node12"><a xlink:href="intrman_8h.html" target="_top" xlink:title=" ">
<polygon fill="#ffffff" stroke="#000000" points="578.6887,-168.5 578.6887,-187.5 642.6887,-187.5 642.6887,-168.5 578.6887,-168.5"/>
<text text-anchor="middle" x="610.6887" y="-175.5" font-family="Helvetica,sans-Serif" font-size="10.00" fill="#000000">intrman.h</text>
</a>
</g>
</g>
<!-- Node1&#45;&gt;Node12 -->
<g id="edge22" class="edge">
<title>Node1&#45;&gt;Node12</title>
<path fill="none" stroke="#191970" d="M444.5068,-224.4554C482.714,-213.7747 533.2825,-199.6386 568.5613,-189.7765"/>
<polygon fill="#191970" stroke="#191970" points="569.8466,-193.0515 578.5351,-186.9884 567.962,-186.3099 569.8466,-193.0515"/>
</g>
<!-- Node13 -->
<g id="node13" class="node">
<title>Node13</title>
<g id="a_node13"><a xlink:href="ioman_8h.html" target="_top" xlink:title=" ">
<polygon fill="#ffffff" stroke="#000000" points="322.6887,-168.5 322.6887,-187.5 378.6887,-187.5 378.6887,-168.5 322.6887,-168.5"/>
<text text-anchor="middle" x="350.6887" y="-175.5" font-family="Helvetica,sans-Serif" font-size="10.00" fill="#000000">ioman.h</text>
</a>
</g>
</g>
<!-- Node1&#45;&gt;Node13 -->
<g id="edge25" class="edge">
<title>Node1&#45;&gt;Node13</title>
<path fill="none" stroke="#191970" d="M380.8011,-224.2977C375.3065,-215.8498 368.4301,-205.2773 362.6361,-196.369"/>
<polygon fill="#191970" stroke="#191970" points="365.4795,-194.3215 357.0932,-187.8469 359.6115,-198.1381 365.4795,-194.3215"/>
</g>
<!-- Node17 -->
<g id="node17" class="node">
<title>Node17</title>
<g id="a_node17"><a xlink:href="fileXio_8h.html" target="_top" xlink:title=" ">
<polygon fill="#ffffff" stroke="#000000" points="64.6887,-168.5 64.6887,-187.5 120.6887,-187.5 120.6887,-168.5 64.6887,-168.5"/>
<text text-anchor="middle" x="92.6887" y="-175.5" font-family="Helvetica,sans-Serif" font-size="10.00" fill="#000000">fileXio.h</text>
</a>
</g>
</g>
<!-- Node1&#45;&gt;Node17 -->
<g id="edge31" class="edge">
<title>Node1&#45;&gt;Node17</title>
<path fill="none" stroke="#191970" d="M326.6113,-227.9492C273.8422,-218.1634 197.1658,-203.3154 130.6887,-188 130.589,-187.977 130.4891,-187.954 130.3892,-187.9309"/>
<polygon fill="#191970" stroke="#191970" points="131.4055,-184.576 120.8624,-185.6212 129.7562,-191.3789 131.4055,-184.576"/>
</g>
<!-- Node20 -->
<g id="node20" class="node">
<title>Node20</title>
<g id="a_node20"><a xlink:href="ps2__debug_8h.html" target="_top" xlink:title=" ">
<polygon fill="#ffffff" stroke="#000000" points="631.6887,-112.5 631.6887,-131.5 709.6887,-131.5 709.6887,-112.5 631.6887,-112.5"/>
<text text-anchor="middle" x="670.6887" y="-119.5" font-family="Helvetica,sans-Serif" font-size="10.00" fill="#000000">ps2_debug.h</text>
</a>
</g>
</g>
<!-- Node1&#45;&gt;Node20 -->
<g id="edge35" class="edge">
<title>Node1&#45;&gt;Node20</title>
<path fill="none" stroke="#191970" d="M454.9249,-234.4322C522.6993,-227.7976 623.5337,-213.8455 651.6887,-188 664.4281,-176.3056 668.8311,-156.6786 670.2547,-141.8605"/>
<polygon fill="#191970" stroke="#191970" points="673.7603,-141.865 670.8512,-131.6774 666.7723,-141.4556 673.7603,-141.865"/>
</g>
<!-- Node21 -->
<g id="node21" class="node">
<title>Node21</title>
<g id="a_node21"><a xlink:title=" ">
<polygon fill="#ffffff" stroke="#bfbfbf" points="699.1887,-168.5 699.1887,-187.5 770.1887,-187.5 770.1887,-168.5 699.1887,-168.5"/>
<text text-anchor="middle" x="734.6887" y="-175.5" font-family="Helvetica,sans-Serif" font-size="10.00" fill="#000000">ps2_sbus.h</text>
</a>
</g>
</g>
<!-- Node1&#45;&gt;Node21 -->
<g id="edge37" class="edge">
<title>Node1&#45;&gt;Node21</title>
<path fill="none" stroke="#191970" d="M454.7151,-228.7396C514.3258,-218.6134 605.6187,-202.8301 684.6887,-188 686.1298,-187.7297 687.5936,-187.4526 689.0714,-187.1705"/>
<polygon fill="#191970" stroke="#191970" points="689.7781,-190.5988 698.9296,-185.2601 688.4463,-183.7266 689.7781,-190.5988"/>
</g>
<!-- Node22 -->
<g id="node22" class="node">
<title>Node22</title>
<g id="a_node22"><a xlink:href="iopdebug_8h.html" target="_top" xlink:title=" ">
<polygon fill="#ffffff" stroke="#000000" points="788.1887,-168.5 788.1887,-187.5 859.1887,-187.5 859.1887,-168.5 788.1887,-168.5"/>
<text text-anchor="middle" x="823.6887" y="-175.5" font-family="Helvetica,sans-Serif" font-size="10.00" fill="#000000">iopdebug.h</text>
</a>
</g>
</g>
<!-- Node1&#45;&gt;Node22 -->
<g id="edge38" class="edge">
<title>Node1&#45;&gt;Node22</title>
<path fill="none" stroke="#191970" d="M454.9843,-232.8194C530.2341,-224.5904 658.7651,-209.2618 777.7173,-188.2426"/>
<polygon fill="#191970" stroke="#191970" points="778.4958,-191.659 787.7253,-186.4564 777.2659,-184.7679 778.4958,-191.659"/>
</g>
<!-- Node3&#45;&gt;Node4 -->
<g id="edge3" class="edge">
<title>Node3&#45;&gt;Node4</title>
<path fill="none" stroke="#191970" d="M274.2889,-168.2455C270.066,-160.617 264.0714,-149.7881 258.9446,-140.5267"/>
<polygon fill="#191970" stroke="#191970" points="261.932,-138.6965 254.0266,-131.6427 255.8077,-142.0867 261.932,-138.6965"/>
</g>
<!-- Node5 -->
<g id="node5" class="node">
<title>Node5</title>
<g id="a_node5"><a xlink:href="irx_8h.html" target="_top" xlink:title=" ">
<polygon fill="#ffffff" stroke="#000000" points="472.6887,-112.5 472.6887,-131.5 510.6887,-131.5 510.6887,-112.5 472.6887,-112.5"/>
<text text-anchor="middle" x="491.6887" y="-119.5" font-family="Helvetica,sans-Serif" font-size="10.00" fill="#000000">irx.h</text>
</a>
</g>
</g>
<!-- Node3&#45;&gt;Node5 -->
<g id="edge4" class="edge">
<title>Node3&#45;&gt;Node5</title>
<path fill="none" stroke="#191970" d="M304.9131,-170.48C307.8674,-169.6292 310.8419,-168.7862 313.6887,-168 365.9671,-153.5612 427.2673,-138.0237 462.5802,-129.2074"/>
<polygon fill="#191970" stroke="#191970" points="463.8085,-132.5086 472.6663,-126.6958 462.1169,-125.716 463.8085,-132.5086"/>
</g>
<!-- Node6 -->
<g id="node6" class="node">
<title>Node6</title>
<g id="a_node6"><a xlink:href="types_8h.html" target="_top" xlink:title=" ">
<polygon fill="#ffffff" stroke="#000000" points="418.1887,-56.5 418.1887,-75.5 471.1887,-75.5 471.1887,-56.5 418.1887,-56.5"/>
<text text-anchor="middle" x="444.6887" y="-63.5" font-family="Helvetica,sans-Serif" font-size="10.00" fill="#000000">types.h</text>
</a>
</g>
</g>
<!-- Node5&#45;&gt;Node6 -->
<g id="edge5" class="edge">
<title>Node5&#45;&gt;Node6</title>
<path fill="none" stroke="#191970" d="M483.5019,-112.2455C476.8298,-104.2958 467.2408,-92.8706 459.2634,-83.3656"/>
<polygon fill="#191970" stroke="#191970" points="461.8913,-81.0524 452.7817,-75.6427 456.5295,-85.5525 461.8913,-81.0524"/>
</g>
<!-- Node6&#45;&gt;Node2 -->
<g id="edge7" class="edge">
<title>Node6&#45;&gt;Node2</title>
<path fill="none" stroke="#191970" d="M418.1856,-59.8743C412.423,-58.571 406.3557,-57.2205 400.6887,-56 338.4605,-42.5974 266.3645,-28.1013 220.6545,-19.0384"/>
<polygon fill="#191970" stroke="#191970" points="221.2411,-15.5867 210.7518,-17.0782 219.8818,-22.4535 221.2411,-15.5867"/>
</g>
<!-- Node7 -->
<g id="node7" class="node">
<title>Node7</title>
<g id="a_node7"><a xlink:title=" ">
<polygon fill="#ffffff" stroke="#bfbfbf" points="416.6887,-.5 416.6887,-19.5 472.6887,-19.5 472.6887,-.5 416.6887,-.5"/>
<text text-anchor="middle" x="444.6887" y="-7.5" font-family="Helvetica,sans-Serif" font-size="10.00" fill="#000000">stddef.h</text>
</a>
</g>
</g>
<!-- Node6&#45;&gt;Node7 -->
<g id="edge6" class="edge">
<title>Node6&#45;&gt;Node7</title>
<path fill="none" stroke="#191970" d="M444.6887,-56.2455C444.6887,-48.9382 444.6887,-38.6944 444.6887,-29.7046"/>
<polygon fill="#191970" stroke="#191970" points="448.1888,-29.6426 444.6887,-19.6427 441.1888,-29.6427 448.1888,-29.6426"/>
</g>
<!-- Node8&#45;&gt;Node4 -->
<g id="edge12" class="edge">
<title>Node8&#45;&gt;Node4</title>
<path fill="none" stroke="#191970" d="M182.6236,-168.2455C194.7834,-159.7337 212.6352,-147.2375 226.7172,-137.3801"/>
<polygon fill="#191970" stroke="#191970" points="228.7283,-140.2447 234.9135,-131.6427 224.714,-134.51 228.7283,-140.2447"/>
</g>
<!-- Node8&#45;&gt;Node5 -->
<g id="edge11" class="edge">
<title>Node8&#45;&gt;Node5</title>
<path fill="none" stroke="#191970" d="M198.2091,-172.8819C259.766,-162.2095 401.1905,-137.6901 462.4783,-127.0643"/>
<polygon fill="#191970" stroke="#191970" points="463.3613,-130.4635 472.6164,-125.3066 462.1655,-123.5664 463.3613,-130.4635"/>
</g>
<!-- Node8&#45;&gt;Node6 -->
<g id="edge10" class="edge">
<title>Node8&#45;&gt;Node6</title>
<path fill="none" stroke="#191970" d="M172.2088,-168.1192C178.0047,-153.3736 191.0178,-125.864 211.6887,-112 282.7051,-64.3694 316.9838,-93.4782 400.6887,-76 403.018,-75.5136 405.4139,-75.0019 407.8279,-74.4777"/>
<polygon fill="#191970" stroke="#191970" points="408.7223,-77.8645 417.7291,-72.2852 407.2089,-71.03 408.7223,-77.8645"/>
</g>
<!-- Node9 -->
<g id="node9" class="node">
<title>Node9</title>
<g id="a_node9"><a xlink:href="setjmp_8h.html" target="_top" xlink:title=" ">
<polygon fill="#ffffff" stroke="#000000" points="145.1887,-56.5 145.1887,-75.5 204.1887,-75.5 204.1887,-56.5 145.1887,-56.5"/>
<text text-anchor="middle" x="174.6887" y="-63.5" font-family="Helvetica,sans-Serif" font-size="10.00" fill="#000000">setjmp.h</text>
</a>
</g>
</g>
<!-- Node8&#45;&gt;Node9 -->
<g id="edge13" class="edge">
<title>Node8&#45;&gt;Node9</title>
<path fill="none" stroke="#191970" d="M169.2003,-168.4509C170.1788,-150.184 172.334,-109.9553 173.6335,-85.6976"/>
<polygon fill="#191970" stroke="#191970" points="177.1384,-85.6978 174.1784,-75.5249 170.1484,-85.3233 177.1384,-85.6978"/>
</g>
<!-- Node9&#45;&gt;Node2 -->
<g id="edge14" class="edge">
<title>Node9&#45;&gt;Node2</title>
<path fill="none" stroke="#191970" d="M174.6887,-56.2455C174.6887,-48.9382 174.6887,-38.6944 174.6887,-29.7046"/>
<polygon fill="#191970" stroke="#191970" points="178.1888,-29.6426 174.6887,-19.6427 171.1888,-29.6427 178.1888,-29.6426"/>
</g>
<!-- Node10&#45;&gt;Node4 -->
<g id="edge18" class="edge">
<title>Node10&#45;&gt;Node4</title>
<path fill="none" stroke="#191970" d="M399.4018,-168.3733C368.178,-158.7659 320.1617,-143.9917 286.7471,-133.7103"/>
<polygon fill="#191970" stroke="#191970" points="287.4677,-130.2701 276.8806,-130.6744 285.409,-136.9606 287.4677,-130.2701"/>
</g>
<!-- Node10&#45;&gt;Node5 -->
<g id="edge17" class="edge">
<title>Node10&#45;&gt;Node5</title>
<path fill="none" stroke="#191970" d="M441.3141,-168.2455C450.236,-160.0549 463.1767,-148.1749 473.7079,-138.5069"/>
<polygon fill="#191970" stroke="#191970" points="476.1855,-140.9837 481.1851,-131.6427 471.4516,-135.8271 476.1855,-140.9837"/>
</g>
<!-- Node10&#45;&gt;Node6 -->
<g id="edge16" class="edge">
<title>Node10&#45;&gt;Node6</title>
<path fill="none" stroke="#191970" d="M431.8823,-168.4509C434.1657,-150.184 439.1943,-109.9553 442.2265,-85.6976"/>
<polygon fill="#191970" stroke="#191970" points="445.7306,-85.8818 443.4981,-75.5249 438.7847,-85.0135 445.7306,-85.8818"/>
</g>
<!-- Node11&#45;&gt;Node5 -->
<g id="edge21" class="edge">
<title>Node11&#45;&gt;Node5</title>
<path fill="none" stroke="#191970" d="M516.4631,-168.2455C512.3764,-160.617 506.5752,-149.7881 501.6137,-140.5267"/>
<polygon fill="#191970" stroke="#191970" points="504.6619,-138.8047 496.8544,-131.6427 498.4915,-142.1103 504.6619,-138.8047"/>
</g>
<!-- Node11&#45;&gt;Node6 -->
<g id="edge20" class="edge">
<title>Node11&#45;&gt;Node6</title>
<path fill="none" stroke="#191970" d="M524.0955,-168.2687C526.8929,-154.6652 529.9242,-129.6524 519.6887,-112 511.0779,-97.1496 495.5735,-86.4727 480.8875,-79.167"/>
<polygon fill="#191970" stroke="#191970" points="481.9852,-75.8204 471.4356,-74.8429 479.0731,-82.1859 481.9852,-75.8204"/>
</g>
<!-- Node12&#45;&gt;Node5 -->
<g id="edge24" class="edge">
<title>Node12&#45;&gt;Node5</title>
<path fill="none" stroke="#191970" d="M590.2319,-168.3733C570.8692,-159.2614 541.6301,-145.5018 520.0266,-135.3355"/>
<polygon fill="#191970" stroke="#191970" points="521.2394,-132.0381 510.7009,-130.9469 518.2588,-138.3718 521.2394,-132.0381"/>
</g>
<!-- Node12&#45;&gt;Node6 -->
<g id="edge23" class="edge">
<title>Node12&#45;&gt;Node6</title>
<path fill="none" stroke="#191970" d="M601.3284,-168.1427C587.918,-154.3896 562.048,-129.2001 536.6887,-112 518.109,-99.3982 495.5904,-88.0799 477.4824,-79.8236"/>
<polygon fill="#191970" stroke="#191970" points="478.4877,-76.4397 467.9292,-75.563 475.6365,-82.8327 478.4877,-76.4397"/>
</g>
<!-- Node13&#45;&gt;Node5 -->
<g id="edge27" class="edge">
<title>Node13&#45;&gt;Node5</title>
<path fill="none" stroke="#191970" d="M374.9275,-168.3733C399.364,-158.668 437.0768,-143.6898 462.9923,-133.3972"/>
<polygon fill="#191970" stroke="#191970" points="464.2929,-136.6466 472.2948,-129.7026 461.709,-130.1409 464.2929,-136.6466"/>
</g>
<!-- Node13&#45;&gt;Node6 -->
<g id="edge26" class="edge">
<title>Node13&#45;&gt;Node6</title>
<path fill="none" stroke="#191970" d="M358.7031,-168.4509C374.5199,-149.6054 409.955,-107.3849 430.05,-83.4419"/>
<polygon fill="#191970" stroke="#191970" points="432.9468,-85.4347 436.6946,-75.5249 427.5849,-80.9346 432.9468,-85.4347"/>
</g>
<!-- Node14 -->
<g id="node14" class="node">
<title>Node14</title>
<g id="a_node14"><a xlink:href="io__common_8h.html" target="_top" xlink:title=" ">
<polygon fill="#ffffff" stroke="#000000" points="295.1887,-112.5 295.1887,-131.5 378.1887,-131.5 378.1887,-112.5 295.1887,-112.5"/>
<text text-anchor="middle" x="336.6887" y="-119.5" font-family="Helvetica,sans-Serif" font-size="10.00" fill="#000000">io_common.h</text>
</a>
</g>
</g>
<!-- Node13&#45;&gt;Node14 -->
<g id="edge28" class="edge">
<title>Node13&#45;&gt;Node14</title>
<path fill="none" stroke="#191970" d="M348.2501,-168.2455C346.4032,-160.8579 343.8059,-150.4689 341.5409,-141.4087"/>
<polygon fill="#191970" stroke="#191970" points="344.9203,-140.4952 339.0994,-131.6427 338.1293,-142.193 344.9203,-140.4952"/>
</g>
<!-- Node15 -->
<g id="node15" class="node">
<title>Node15</title>
<g id="a_node15"><a xlink:href="fcntl_8h.html" target="_top" xlink:title=" ">
<polygon fill="#ffffff" stroke="#000000" points="231.1887,-56.5 231.1887,-75.5 298.1887,-75.5 298.1887,-56.5 231.1887,-56.5"/>
<text text-anchor="middle" x="264.6887" y="-63.5" font-family="Helvetica,sans-Serif" font-size="10.00" fill="#000000">sys/fcntl.h</text>
</a>
</g>
</g>
<!-- Node14&#45;&gt;Node15 -->
<g id="edge29" class="edge">
<title>Node14&#45;&gt;Node15</title>
<path fill="none" stroke="#191970" d="M324.1473,-112.2455C313.41,-103.8943 297.7414,-91.7076 285.184,-81.9408"/>
<polygon fill="#191970" stroke="#191970" points="287.1288,-79.0194 277.0864,-75.6427 282.8312,-84.5449 287.1288,-79.0194"/>
</g>
<!-- Node16 -->
<g id="node16" class="node">
<title>Node16</title>
<g id="a_node16"><a xlink:href="unistd_8h.html" target="_top" xlink:title=" ">
<polygon fill="#ffffff" stroke="#000000" points="316.1887,-56.5 316.1887,-75.5 391.1887,-75.5 391.1887,-56.5 316.1887,-56.5"/>
<text text-anchor="middle" x="353.6887" y="-63.5" font-family="Helvetica,sans-Serif" font-size="10.00" fill="#000000">sys/unistd.h</text>
</a>
</g>
</g>
<!-- Node14&#45;&gt;Node16 -->
<g id="edge30" class="edge">
<title>Node14&#45;&gt;Node16</title>
<path fill="none" stroke="#191970" d="M339.6499,-112.2455C341.8925,-104.8579 345.0464,-94.4689 347.7968,-85.4087"/>
<polygon fill="#191970" stroke="#191970" points="351.2057,-86.2282 350.7615,-75.6427 344.5075,-84.1948 351.2057,-86.2282"/>
</g>
<!-- Node17&#45;&gt;Node2 -->
<g id="edge32" class="edge">
<title>Node17&#45;&gt;Node2</title>
<path fill="none" stroke="#191970" d="M94.96,-168.3374C100.2165,-147.0526 114.4916,-94.9222 136.6887,-56 142.5388,-45.742 150.7141,-35.4981 157.9838,-27.2899"/>
<polygon fill="#191970" stroke="#191970" points="160.6443,-29.5674 164.8318,-19.8352 155.4892,-24.8318 160.6443,-29.5674"/>
</g>
<!-- Node18 -->
<g id="node18" class="node">
<title>Node18</title>
<g id="a_node18"><a xlink:href="iox__stat_8h.html" target="_top" xlink:title=" ">
<polygon fill="#ffffff" stroke="#000000" points="23.1887,-112.5 23.1887,-131.5 88.1887,-131.5 88.1887,-112.5 23.1887,-112.5"/>
<text text-anchor="middle" x="55.6887" y="-119.5" font-family="Helvetica,sans-Serif" font-size="10.00" fill="#000000">iox_stat.h</text>
</a>
</g>
</g>
<!-- Node17&#45;&gt;Node18 -->
<g id="edge33" class="edge">
<title>Node17&#45;&gt;Node18</title>
<path fill="none" stroke="#191970" d="M86.2438,-168.2455C81.1505,-160.5367 73.8979,-149.5598 67.7367,-140.2348"/>
<polygon fill="#191970" stroke="#191970" points="70.4926,-138.0566 62.0598,-131.6427 64.6522,-141.9155 70.4926,-138.0566"/>
</g>
<!-- Node19 -->
<g id="node19" class="node">
<title>Node19</title>
<g id="a_node19"><a xlink:href="time_8h.html" target="_top" xlink:title=" ">
<polygon fill="#ffffff" stroke="#000000" points="20.6887,-56.5 20.6887,-75.5 88.6887,-75.5 88.6887,-56.5 20.6887,-56.5"/>
<text text-anchor="middle" x="54.6887" y="-63.5" font-family="Helvetica,sans-Serif" font-size="10.00" fill="#000000">sys/time.h</text>
</a>
</g>
</g>
<!-- Node18&#45;&gt;Node19 -->
<g id="edge34" class="edge">
<title>Node18&#45;&gt;Node19</title>
<path fill="none" stroke="#191970" d="M55.5145,-112.2455C55.384,-104.9382 55.2011,-94.6944 55.0406,-85.7046"/>
<polygon fill="#191970" stroke="#191970" points="58.539,-85.5786 54.8609,-75.6427 51.5401,-85.7036 58.539,-85.5786"/>
</g>
<!-- Node20&#45;&gt;Node2 -->
<g id="edge36" class="edge">
<title>Node20&#45;&gt;Node2</title>
<path fill="none" stroke="#191970" d="M647.7071,-112.4581C612.3941,-98.1553 542.3939,-71.216 480.6887,-56 389.9638,-33.6279 281.2609,-20.4214 220.8927,-14.2534"/>
<polygon fill="#191970" stroke="#191970" points="221.2129,-10.768 210.9136,-13.2531 220.5147,-17.7331 221.2129,-10.768"/>
</g>
<!-- Node22&#45;&gt;Node5 -->
<g id="edge40" class="edge">
<title>Node22&#45;&gt;Node5</title>
<path fill="none" stroke="#191970" d="M787.7106,-169.6226C785.0003,-169.053 782.3038,-168.5055 779.6887,-168 685.7037,-149.8341 573.4675,-133.4121 521.1926,-126.0653"/>
<polygon fill="#191970" stroke="#191970" points="521.3641,-122.5553 510.976,-124.6379 520.3955,-129.488 521.3641,-122.5553"/>
</g>
<!-- Node22&#45;&gt;Node20 -->
<g id="edge42" class="edge">
<title>Node22&#45;&gt;Node20</title>
<path fill="none" stroke="#191970" d="M797.3871,-168.3733C772.2759,-159.1822 734.2449,-145.2624 706.4015,-135.0713"/>
<polygon fill="#191970" stroke="#191970" points="707.2409,-131.6516 696.6471,-131.5011 704.8349,-138.2251 707.2409,-131.6516"/>
</g>
<!-- Node23 -->
<g id="node23" class="node">
<title>Node23</title>
<g id="a_node23"><a xlink:title=" ">
<polygon fill="#ffffff" stroke="#bfbfbf" points="865.1887,-112.5 865.1887,-131.5 918.1887,-131.5 918.1887,-112.5 865.1887,-112.5"/>
<text text-anchor="middle" x="891.6887" y="-119.5" font-family="Helvetica,sans-Serif" font-size="10.00" fill="#000000">types.h</text>
</a>
</g>
</g>
<!-- Node22&#45;&gt;Node23 -->
<g id="edge39" class="edge">
<title>Node22&#45;&gt;Node23</title>
<path fill="none" stroke="#191970" d="M835.5334,-168.2455C845.5767,-159.9746 860.1882,-147.9416 871.9891,-138.2232"/>
<polygon fill="#191970" stroke="#191970" points="874.4854,-140.7015 879.9797,-131.6427 870.0354,-135.298 874.4854,-140.7015"/>
</g>
<!-- Node24 -->
<g id="node24" class="node">
<title>Node24</title>
<g id="a_node24"><a xlink:href="iop__cop0__defs_8h.html" target="_top" xlink:title=" ">
<polygon fill="#ffffff" stroke="#000000" points="752.1887,-112.5 752.1887,-131.5 847.1887,-131.5 847.1887,-112.5 752.1887,-112.5"/>
<text text-anchor="middle" x="799.6887" y="-119.5" font-family="Helvetica,sans-Serif" font-size="10.00" fill="#000000">iop_cop0_defs.h</text>
</a>
</g>
</g>
<!-- Node22&#45;&gt;Node24 -->
<g id="edge41" class="edge">
<title>Node22&#45;&gt;Node24</title>
<path fill="none" stroke="#191970" d="M819.5082,-168.2455C816.3077,-160.7776 811.7927,-150.2427 807.8803,-141.1137"/>
<polygon fill="#191970" stroke="#191970" points="810.9775,-139.4554 803.8213,-131.6427 804.5435,-142.2129 810.9775,-139.4554"/>
</g>
</g>
</svg>
