<?xml version="1.0" encoding="UTF-8" standalone="no"?>
<!DOCTYPE svg PUBLIC "-//W3C//DTD SVG 1.1//EN"
 "http://www.w3.org/Graphics/SVG/1.1/DTD/svg11.dtd">
<!-- Generated by graphviz version 2.40.1 (20161225.0304)
 -->
<!-- Title: iop/kernel/include/secrman.h Pages: 1 -->
<svg width="198pt" height="263pt"
 viewBox="0.00 0.00 197.71 263.00" xmlns="http://www.w3.org/2000/svg" xmlns:xlink="http://www.w3.org/1999/xlink">
<g id="graph0" class="graph" transform="scale(1 1) rotate(0) translate(4 259)">
<title>iop/kernel/include/secrman.h</title>
<polygon fill="#ffffff" stroke="transparent" points="-4,4 -4,-259 193.7126,-259 193.7126,4 -4,4"/>
<!-- Node1 -->
<g id="node1" class="node">
<title>Node1</title>
<g id="a_node1"><a xlink:title=" ">
<polygon fill="#bfbfbf" stroke="#000000" points="3.7126,-224.5 3.7126,-254.5 107.7126,-254.5 107.7126,-224.5 3.7126,-224.5"/>
<text text-anchor="start" x="11.7126" y="-242.5" font-family="Helvetica,sans-Serif" font-size="10.00" fill="#000000">iop/kernel/include</text>
<text text-anchor="middle" x="55.7126" y="-231.5" font-family="Helvetica,sans-Serif" font-size="10.00" fill="#000000">/secrman.h</text>
</a>
</g>
</g>
<!-- Node2 -->
<g id="node2" class="node">
<title>Node2</title>
<g id="a_node2"><a xlink:href="types_8h.html" target="_top" xlink:title=" ">
<polygon fill="#ffffff" stroke="#000000" points="3.2126,-56.5 3.2126,-75.5 56.2126,-75.5 56.2126,-56.5 3.2126,-56.5"/>
<text text-anchor="middle" x="29.7126" y="-63.5" font-family="Helvetica,sans-Serif" font-size="10.00" fill="#000000">types.h</text>
</a>
</g>
</g>
<!-- Node1&#45;&gt;Node2 -->
<g id="edge1" class="edge">
<title>Node1&#45;&gt;Node2</title>
<path fill="none" stroke="#191970" d="M45.2208,-224.3613C32.0291,-204.3154 10.0949,-167.3609 1.7126,-132 -.3377,-123.3508 -.6874,-120.5588 1.7126,-112 4.5004,-102.0584 10.0937,-92.1336 15.5533,-84.0613"/>
<polygon fill="#191970" stroke="#191970" points="18.4802,-85.9866 21.5037,-75.8323 12.8078,-81.8849 18.4802,-85.9866"/>
</g>
<!-- Node5 -->
<g id="node5" class="node">
<title>Node5</title>
<g id="a_node5"><a xlink:href="irx_8h.html" target="_top" xlink:title=" ">
<polygon fill="#ffffff" stroke="#000000" points="10.7126,-112.5 10.7126,-131.5 48.7126,-131.5 48.7126,-112.5 10.7126,-112.5"/>
<text text-anchor="middle" x="29.7126" y="-119.5" font-family="Helvetica,sans-Serif" font-size="10.00" fill="#000000">irx.h</text>
</a>
</g>
</g>
<!-- Node1&#45;&gt;Node5 -->
<g id="edge4" class="edge">
<title>Node1&#45;&gt;Node5</title>
<path fill="none" stroke="#191970" d="M52.0622,-224.1945C49.642,-213.9603 46.4248,-200.1873 43.7126,-188 40.2537,-172.4575 36.5207,-154.8115 33.7799,-141.6784"/>
<polygon fill="#191970" stroke="#191970" points="37.1997,-140.9323 31.7388,-131.8532 30.346,-142.3561 37.1997,-140.9323"/>
</g>
<!-- Node6 -->
<g id="node6" class="node">
<title>Node6</title>
<g id="a_node6"><a xlink:href="sio2man_8h.html" target="_top" xlink:title=" ">
<polygon fill="#ffffff" stroke="#000000" points="52.7126,-168.5 52.7126,-187.5 120.7126,-187.5 120.7126,-168.5 52.7126,-168.5"/>
<text text-anchor="middle" x="86.7126" y="-175.5" font-family="Helvetica,sans-Serif" font-size="10.00" fill="#000000">sio2man.h</text>
</a>
</g>
</g>
<!-- Node1&#45;&gt;Node6 -->
<g id="edge6" class="edge">
<title>Node1&#45;&gt;Node6</title>
<path fill="none" stroke="#191970" d="M63.3755,-224.2977C67.5441,-216.0277 72.7391,-205.7215 77.1687,-196.9339"/>
<polygon fill="#191970" stroke="#191970" points="80.3733,-198.3521 81.7491,-187.8469 74.1225,-195.2012 80.3733,-198.3521"/>
</g>
<!-- Node8 -->
<g id="node8" class="node">
<title>Node8</title>
<g id="a_node8"><a xlink:href="libsecr-common_8h.html" target="_top" xlink:title=" ">
<polygon fill="#ffffff" stroke="#000000" points="85.7126,-56.5 85.7126,-75.5 189.7126,-75.5 189.7126,-56.5 85.7126,-56.5"/>
<text text-anchor="middle" x="137.7126" y="-63.5" font-family="Helvetica,sans-Serif" font-size="10.00" fill="#000000">libsecr&#45;common.h</text>
</a>
</g>
</g>
<!-- Node1&#45;&gt;Node8 -->
<g id="edge9" class="edge">
<title>Node1&#45;&gt;Node8</title>
<path fill="none" stroke="#191970" d="M89.8891,-224.3238C104.7525,-215.8655 120.7835,-203.8092 129.7126,-188 147.8987,-155.8011 145.0371,-110.9248 141.3528,-85.5387"/>
<polygon fill="#191970" stroke="#191970" points="144.8036,-84.9535 139.7287,-75.6533 137.8963,-86.0884 144.8036,-84.9535"/>
</g>
<!-- Node3 -->
<g id="node3" class="node">
<title>Node3</title>
<g id="a_node3"><a xlink:title=" ">
<polygon fill="#ffffff" stroke="#bfbfbf" points="1.7126,-.5 1.7126,-19.5 57.7126,-19.5 57.7126,-.5 1.7126,-.5"/>
<text text-anchor="middle" x="29.7126" y="-7.5" font-family="Helvetica,sans-Serif" font-size="10.00" fill="#000000">stddef.h</text>
</a>
</g>
</g>
<!-- Node2&#45;&gt;Node3 -->
<g id="edge2" class="edge">
<title>Node2&#45;&gt;Node3</title>
<path fill="none" stroke="#191970" d="M29.7126,-56.2455C29.7126,-48.9382 29.7126,-38.6944 29.7126,-29.7046"/>
<polygon fill="#191970" stroke="#191970" points="33.2127,-29.6426 29.7126,-19.6427 26.2127,-29.6427 33.2127,-29.6426"/>
</g>
<!-- Node4 -->
<g id="node4" class="node">
<title>Node4</title>
<g id="a_node4"><a xlink:href="tamtypes_8h.html" target="_top" xlink:title=" ">
<polygon fill="#ffffff" stroke="#000000" points="82.7126,-.5 82.7126,-19.5 154.7126,-19.5 154.7126,-.5 82.7126,-.5"/>
<text text-anchor="middle" x="118.7126" y="-7.5" font-family="Helvetica,sans-Serif" font-size="10.00" fill="#000000">tamtypes.h</text>
</a>
</g>
</g>
<!-- Node2&#45;&gt;Node4 -->
<g id="edge3" class="edge">
<title>Node2&#45;&gt;Node4</title>
<path fill="none" stroke="#191970" d="M45.2152,-56.2455C58.8705,-47.6534 78.9783,-35.0014 94.7115,-25.1018"/>
<polygon fill="#191970" stroke="#191970" points="96.7877,-27.9307 103.3876,-19.6427 93.0597,-22.006 96.7877,-27.9307"/>
</g>
<!-- Node5&#45;&gt;Node2 -->
<g id="edge5" class="edge">
<title>Node5&#45;&gt;Node2</title>
<path fill="none" stroke="#191970" d="M29.7126,-112.2455C29.7126,-104.9382 29.7126,-94.6944 29.7126,-85.7046"/>
<polygon fill="#191970" stroke="#191970" points="33.2127,-85.6426 29.7126,-75.6427 26.2127,-85.6427 33.2127,-85.6426"/>
</g>
<!-- Node6&#45;&gt;Node5 -->
<g id="edge8" class="edge">
<title>Node6&#45;&gt;Node5</title>
<path fill="none" stroke="#191970" d="M76.7839,-168.2455C68.5288,-160.1352 56.5917,-148.4075 46.8043,-138.7919"/>
<polygon fill="#191970" stroke="#191970" points="49.1137,-136.1542 39.5274,-131.6427 44.2079,-141.1476 49.1137,-136.1542"/>
</g>
<!-- Node7 -->
<g id="node7" class="node">
<title>Node7</title>
<g id="a_node7"><a xlink:title=" ">
<polygon fill="#ffffff" stroke="#bfbfbf" points="67.2126,-112.5 67.2126,-131.5 120.2126,-131.5 120.2126,-112.5 67.2126,-112.5"/>
<text text-anchor="middle" x="93.7126" y="-119.5" font-family="Helvetica,sans-Serif" font-size="10.00" fill="#000000">types.h</text>
</a>
</g>
</g>
<!-- Node6&#45;&gt;Node7 -->
<g id="edge7" class="edge">
<title>Node6&#45;&gt;Node7</title>
<path fill="none" stroke="#191970" d="M87.9319,-168.2455C88.8453,-160.9382 90.1258,-150.6944 91.2495,-141.7046"/>
<polygon fill="#191970" stroke="#191970" points="94.7398,-141.9996 92.5072,-131.6427 87.7938,-141.1313 94.7398,-141.9996"/>
</g>
<!-- Node8&#45;&gt;Node4 -->
<g id="edge10" class="edge">
<title>Node8&#45;&gt;Node4</title>
<path fill="none" stroke="#191970" d="M134.403,-56.2455C131.8693,-48.7776 128.2949,-38.2427 125.1976,-29.1137"/>
<polygon fill="#191970" stroke="#191970" points="128.5117,-27.9879 121.9842,-19.6427 121.8828,-30.237 128.5117,-27.9879"/>
</g>
</g>
</svg>
