<?xml version="1.0" encoding="UTF-8" standalone="no"?>
<!DOCTYPE svg PUBLIC "-//W3C//DTD SVG 1.1//EN"
 "http://www.w3.org/Graphics/SVG/1.1/DTD/svg11.dtd">
<!-- Generated by graphviz version 2.40.1 (20161225.0304)
 -->
<!-- Title: iop/kernel/include/sifman.h Pages: 1 -->
<!--zoomable 173 -->
<svg id="main" version="1.1" xmlns="http://www.w3.org/2000/svg" xmlns:xlink="http://www.w3.org/1999/xlink" xml:space="preserve" onload="init(evt)">
<style type="text/css"><![CDATA[
.edge:hover path { stroke: red; }
.edge:hover polygon { stroke: red; fill: red; }
]]></style>
<script type="text/javascript"><![CDATA[
var edges = document.getElementsByTagName('g');
if (edges && edges.length) {
  for (var i=0;i<edges.length;i++) {
    if (edges[i].id.substr(0,4)=='edge') {
      edges[i].setAttribute('class','edge');
    }
  }
}
]]></script>
        <defs>
                <circle id="rim" cx="0" cy="0" r="7"/>
                <circle id="rim2" cx="0" cy="0" r="3.5"/>
                <g id="zoomPlus">
                        <use xlink:href="#rim" fill="#404040">
                                <set attributeName="fill" to="#808080" begin="zoomplus.mouseover" end="zoomplus.mouseout"/>
                        </use>
                        <path d="M-4,0h8M0,-4v8" fill="none" stroke="white" stroke-width="1.5" pointer-events="none"/>
                </g>
                <g id="zoomMin">
                        <use xlink:href="#rim" fill="#404040">
                                <set attributeName="fill" to="#808080" begin="zoomminus.mouseover" end="zoomminus.mouseout"/>
                        </use>
                        <path d="M-4,0h8" fill="none" stroke="white" stroke-width="1.5" pointer-events="none"/>
                </g>
                <g id="dirArrow">
                        <path fill="none" stroke="white" stroke-width="1.5" d="M0,-3.0v7 M-2.5,-0.5L0,-3.0L2.5,-0.5"/>
                </g>
               <g id="resetDef">
                       <use xlink:href="#rim2" fill="#404040">
                               <set attributeName="fill" to="#808080" begin="reset.mouseover" end="reset.mouseout"/>
                       </use>
               </g>
        </defs>

<script type="text/javascript">
var viewWidth = 4710;
var viewHeight = 173;
var sectionId = 'dynsection-1';
</script>
<script xlink:href="svgpan.js"/>
<svg id="graph" class="graph">
<g id="viewport">
<title>iop/kernel/include/sifman.h</title>
<polygon fill="#ffffff" stroke="transparent" points="-4,4 -4,-169 4706,-169 4706,4 -4,4"/>
<!-- Node1 -->
<g id="node1" class="node">
<title>Node1</title>
<g id="a_node1"><a xlink:title=" ">
<polygon fill="#bfbfbf" stroke="#000000" points="2263,-134.5 2263,-164.5 2367,-164.5 2367,-134.5 2263,-134.5"/>
<text text-anchor="start" x="2271" y="-152.5" font-family="Helvetica,sans-Serif" font-size="10.00" fill="#000000">iop/kernel/include</text>
<text text-anchor="middle" x="2315" y="-141.5" font-family="Helvetica,sans-Serif" font-size="10.00" fill="#000000">/sifman.h</text>
</a>
</g>
</g>
<!-- Node2 -->
<g id="node2" class="node">
<title>Node2</title>
<g id="a_node2"><a xlink:href="cdvd_2cdfs_2src_2irx__imports_8h.html" target="_top" xlink:title=" ">
<polygon fill="#ffffff" stroke="#000000" points="0,-67.5 0,-97.5 114,-97.5 114,-67.5 0,-67.5"/>
<text text-anchor="start" x="8" y="-85.5" font-family="Helvetica,sans-Serif" font-size="10.00" fill="#000000">iop/cdvd/cdfs/src/irx</text>
<text text-anchor="middle" x="57" y="-74.5" font-family="Helvetica,sans-Serif" font-size="10.00" fill="#000000">_imports.h</text>
</a>
</g>
</g>
<!-- Node1&#45;&gt;Node2 -->
<g id="edge1" class="edge">
<title>Node1&#45;&gt;Node2</title>
<path fill="none" stroke="#191970" d="M2252.3725,-148.8029C1916.8083,-144.9644 338.7748,-125.5691 123,-98 120.0812,-97.6271 117.1031,-97.1792 114.105,-96.6745"/>
<polygon fill="#191970" stroke="#191970" points="2252.8219,-152.3082 2262.8612,-148.9225 2252.9017,-145.3087 2252.8219,-152.3082"/>
</g>
<!-- Node3 -->
<g id="node3" class="node">
<title>Node3</title>
<g id="a_node3"><a xlink:href="debug_2iop__sbusdbg_2src_2irx__imports_8h.html" target="_top" xlink:title=" ">
<polygon fill="#ffffff" stroke="#000000" points="132,-67.5 132,-97.5 260,-97.5 260,-67.5 132,-67.5"/>
<text text-anchor="start" x="140" y="-85.5" font-family="Helvetica,sans-Serif" font-size="10.00" fill="#000000">iop/debug/iop_sbusdbg</text>
<text text-anchor="middle" x="196" y="-74.5" font-family="Helvetica,sans-Serif" font-size="10.00" fill="#000000">/src/irx_imports.h</text>
</a>
</g>
</g>
<!-- Node1&#45;&gt;Node3 -->
<g id="edge2" class="edge">
<title>Node1&#45;&gt;Node3</title>
<path fill="none" stroke="#191970" d="M2252.7152,-148.6047C1931.6491,-143.8993 470.7715,-121.3592 270,-98 266.7405,-97.6208 263.4119,-97.1678 260.0587,-96.6591"/>
<polygon fill="#191970" stroke="#191970" points="2252.718,-152.105 2262.7681,-148.7517 2252.8204,-145.1058 2252.718,-152.105"/>
</g>
<!-- Node4 -->
<g id="node4" class="node">
<title>Node4</title>
<g id="a_node4"><a xlink:href="debug_2iopdebug_2src_2irx__imports_8h.html" target="_top" xlink:title=" ">
<polygon fill="#ffffff" stroke="#000000" points="278.5,-67.5 278.5,-97.5 391.5,-97.5 391.5,-67.5 278.5,-67.5"/>
<text text-anchor="start" x="286.5" y="-85.5" font-family="Helvetica,sans-Serif" font-size="10.00" fill="#000000">iop/debug/iopdebug</text>
<text text-anchor="middle" x="335" y="-74.5" font-family="Helvetica,sans-Serif" font-size="10.00" fill="#000000">/src/irx_imports.h</text>
</a>
</g>
</g>
<!-- Node1&#45;&gt;Node4 -->
<g id="edge3" class="edge">
<title>Node1&#45;&gt;Node4</title>
<path fill="none" stroke="#191970" d="M2252.7638,-148.5799C1944.4192,-143.9197 587.8141,-122.1926 401,-98 397.9651,-97.607 394.8659,-97.1339 391.7468,-96.6011"/>
<polygon fill="#191970" stroke="#191970" points="2252.8098,-152.0809 2262.8615,-148.732 2252.9154,-145.0817 2252.8098,-152.0809"/>
</g>
<!-- Node5 -->
<g id="node5" class="node">
<title>Node5</title>
<g id="a_node5"><a xlink:href="ioptrap_8c.html" target="_top" xlink:title=" ">
<polygon fill="#ffffff" stroke="#000000" points="409.5,-67.5 409.5,-97.5 528.5,-97.5 528.5,-67.5 409.5,-67.5"/>
<text text-anchor="start" x="417.5" y="-85.5" font-family="Helvetica,sans-Serif" font-size="10.00" fill="#000000">iop/debug/ioptrap/src</text>
<text text-anchor="middle" x="469" y="-74.5" font-family="Helvetica,sans-Serif" font-size="10.00" fill="#000000">/ioptrap.c</text>
</a>
</g>
</g>
<!-- Node1&#45;&gt;Node5 -->
<g id="edge4" class="edge">
<title>Node1&#45;&gt;Node5</title>
<path fill="none" stroke="#191970" d="M2252.4481,-149.2975C1978.1355,-148.1616 880.0242,-140.9672 538,-98 534.9545,-97.6174 531.8458,-97.1617 528.7153,-96.6509"/>
<polygon fill="#191970" stroke="#191970" points="2252.6039,-152.798 2262.618,-149.3383 2252.6321,-145.7981 2252.6039,-152.798"/>
</g>
<!-- Node6 -->
<g id="node6" class="node">
<title>Node6</title>
<g id="a_node6"><a xlink:href="debug_2ioptrap_2src_2irx__imports_8h.html" target="_top" xlink:title=" ">
<polygon fill="#ffffff" stroke="#000000" points="546.5,-67.5 546.5,-97.5 665.5,-97.5 665.5,-67.5 546.5,-67.5"/>
<text text-anchor="start" x="554.5" y="-85.5" font-family="Helvetica,sans-Serif" font-size="10.00" fill="#000000">iop/debug/ioptrap/src</text>
<text text-anchor="middle" x="606" y="-74.5" font-family="Helvetica,sans-Serif" font-size="10.00" fill="#000000">/irx_imports.h</text>
</a>
</g>
</g>
<!-- Node1&#45;&gt;Node6 -->
<g id="edge5" class="edge">
<title>Node1&#45;&gt;Node6</title>
<path fill="none" stroke="#191970" d="M2252.6175,-149.1226C1991.9299,-147.3014 988.7312,-137.7983 675,-98 671.955,-97.6137 668.8467,-97.1551 665.7164,-96.6419"/>
<polygon fill="#191970" stroke="#191970" points="2252.6408,-152.6227 2262.6646,-149.1915 2252.6889,-145.6229 2252.6408,-152.6227"/>
</g>
<!-- Node7 -->
<g id="node7" class="node">
<title>Node7</title>
<g id="a_node7"><a xlink:href="fakehost_8c.html" target="_top" xlink:title=" ">
<polygon fill="#ffffff" stroke="#000000" points="683.5,-67.5 683.5,-97.5 790.5,-97.5 790.5,-67.5 683.5,-67.5"/>
<text text-anchor="start" x="691.5" y="-85.5" font-family="Helvetica,sans-Serif" font-size="10.00" fill="#000000">iop/fs/fakehost/src</text>
<text text-anchor="middle" x="737" y="-74.5" font-family="Helvetica,sans-Serif" font-size="10.00" fill="#000000">/fakehost.c</text>
</a>
</g>
</g>
<!-- Node1&#45;&gt;Node7 -->
<g id="edge6" class="edge">
<title>Node1&#45;&gt;Node7</title>
<path fill="none" stroke="#191970" d="M2252.5363,-149.1018C2004.3463,-147.2528 1087.5115,-137.8162 800,-98 796.9876,-97.5828 793.9098,-97.0812 790.8139,-96.5177"/>
<polygon fill="#191970" stroke="#191970" points="2252.788,-152.6037 2262.8133,-149.1769 2252.8392,-145.6039 2252.788,-152.6037"/>
</g>
<!-- Node8 -->
<g id="node8" class="node">
<title>Node8</title>
<g id="a_node8"><a xlink:href="nprintf_8c.html" target="_top" xlink:title=" ">
<polygon fill="#ffffff" stroke="#000000" points="808.5,-67.5 808.5,-97.5 915.5,-97.5 915.5,-67.5 808.5,-67.5"/>
<text text-anchor="start" x="816.5" y="-85.5" font-family="Helvetica,sans-Serif" font-size="10.00" fill="#000000">iop/fs/fakehost/src</text>
<text text-anchor="middle" x="862" y="-74.5" font-family="Helvetica,sans-Serif" font-size="10.00" fill="#000000">/nprintf.c</text>
</a>
</g>
</g>
<!-- Node1&#45;&gt;Node8 -->
<g id="edge7" class="edge">
<title>Node1&#45;&gt;Node8</title>
<path fill="none" stroke="#191970" d="M2252.6778,-148.8816C2017.8936,-146.2892 1186.864,-134.6719 925,-98 921.9882,-97.5782 918.9109,-97.073 915.8154,-96.5066"/>
<polygon fill="#191970" stroke="#191970" points="2252.7121,-152.3821 2262.7497,-148.9913 2252.7884,-145.3825 2252.7121,-152.3821"/>
</g>
<!-- Node9 -->
<g id="node9" class="node">
<title>Node9</title>
<g id="a_node9"><a xlink:href="fileXio__iop_8c.html" target="_top" xlink:title=" ">
<polygon fill="#ffffff" stroke="#000000" points="934,-67.5 934,-97.5 1028,-97.5 1028,-67.5 934,-67.5"/>
<text text-anchor="start" x="942" y="-85.5" font-family="Helvetica,sans-Serif" font-size="10.00" fill="#000000">iop/fs/filexio/src</text>
<text text-anchor="middle" x="981" y="-74.5" font-family="Helvetica,sans-Serif" font-size="10.00" fill="#000000">/fileXio_iop.c</text>
</a>
</g>
</g>
<!-- Node1&#45;&gt;Node9 -->
<g id="edge8" class="edge">
<title>Node1&#45;&gt;Node9</title>
<path fill="none" stroke="#191970" d="M2252.5565,-148.8811C2029.8843,-146.3783 1275.3657,-135.2822 1037,-98 1034.1097,-97.5479 1031.1556,-96.9994 1028.1892,-96.382"/>
<polygon fill="#191970" stroke="#191970" points="2252.7157,-152.383 2262.7538,-148.9939 2252.7931,-145.3834 2252.7157,-152.383"/>
</g>
<!-- Node10 -->
<g id="node10" class="node">
<title>Node10</title>
<g id="a_node10"><a xlink:href="fs_2filexio_2src_2irx__imports_8h.html" target="_top" xlink:title=" ">
<polygon fill="#ffffff" stroke="#000000" points="1046,-67.5 1046,-97.5 1140,-97.5 1140,-67.5 1046,-67.5"/>
<text text-anchor="start" x="1054" y="-85.5" font-family="Helvetica,sans-Serif" font-size="10.00" fill="#000000">iop/fs/filexio/src</text>
<text text-anchor="middle" x="1093" y="-74.5" font-family="Helvetica,sans-Serif" font-size="10.00" fill="#000000">/irx_imports.h</text>
</a>
</g>
</g>
<!-- Node1&#45;&gt;Node10 -->
<g id="edge9" class="edge">
<title>Node1&#45;&gt;Node10</title>
<path fill="none" stroke="#191970" d="M2252.5396,-148.5606C2042.8869,-145.122 1365.399,-131.6223 1150,-98 1146.7576,-97.4939 1143.4352,-96.8721 1140.1034,-96.1715"/>
<polygon fill="#191970" stroke="#191970" points="2252.6976,-152.0635 2262.7531,-148.7262 2252.8111,-145.0644 2252.6976,-152.0635"/>
</g>
<!-- Node11 -->
<g id="node11" class="node">
<title>Node11</title>
<g id="a_node11"><a xlink:href="fs_2http_2src_2irx__imports_8h.html" target="_top" xlink:title=" ">
<polygon fill="#ffffff" stroke="#000000" points="1158.5,-67.5 1158.5,-97.5 1257.5,-97.5 1257.5,-67.5 1158.5,-67.5"/>
<text text-anchor="start" x="1166.5" y="-85.5" font-family="Helvetica,sans-Serif" font-size="10.00" fill="#000000">iop/fs/http/src/irx</text>
<text text-anchor="middle" x="1208" y="-74.5" font-family="Helvetica,sans-Serif" font-size="10.00" fill="#000000">_imports.h</text>
</a>
</g>
</g>
<!-- Node1&#45;&gt;Node11 -->
<g id="edge10" class="edge">
<title>Node1&#45;&gt;Node11</title>
<path fill="none" stroke="#191970" d="M2252.6312,-148.1358C2057.2698,-143.5946 1458.7947,-127.5765 1267,-98 1263.9646,-97.5319 1260.8598,-96.971 1257.7402,-96.3442"/>
<polygon fill="#191970" stroke="#191970" points="2252.6479,-151.637 2262.726,-148.3685 2252.8093,-144.6389 2252.6479,-151.637"/>
</g>
<!-- Node12 -->
<g id="node12" class="node">
<title>Node12</title>
<g id="a_node12"><a xlink:href="memorycard_2mcserv_2src_2irx__imports_8h.html" target="_top" xlink:title=" ">
<polygon fill="#ffffff" stroke="#000000" points="1276,-67.5 1276,-97.5 1412,-97.5 1412,-67.5 1276,-67.5"/>
<text text-anchor="start" x="1284" y="-85.5" font-family="Helvetica,sans-Serif" font-size="10.00" fill="#000000">iop/memorycard/mcserv</text>
<text text-anchor="middle" x="1344" y="-74.5" font-family="Helvetica,sans-Serif" font-size="10.00" fill="#000000">/src/irx_imports.h</text>
</a>
</g>
</g>
<!-- Node1&#45;&gt;Node12 -->
<g id="edge11" class="edge">
<title>Node1&#45;&gt;Node12</title>
<path fill="none" stroke="#191970" d="M2252.7594,-148.9301C2106.8457,-146.9375 1731.5673,-138.0006 1421,-98 1418.1599,-97.6342 1415.2675,-97.2241 1412.3507,-96.7794"/>
<polygon fill="#191970" stroke="#191970" points="2252.8199,-152.431 2262.8647,-149.0619 2252.9113,-145.4316 2252.8199,-152.431"/>
</g>
<!-- Node13 -->
<g id="node13" class="node">
<title>Node13</title>
<g id="a_node13"><a xlink:href="mcserv_8h.html" target="_top" xlink:title=" ">
<polygon fill="#ffffff" stroke="#000000" points="1430,-67.5 1430,-97.5 1566,-97.5 1566,-67.5 1430,-67.5"/>
<text text-anchor="start" x="1438" y="-85.5" font-family="Helvetica,sans-Serif" font-size="10.00" fill="#000000">iop/memorycard/mcserv</text>
<text text-anchor="middle" x="1498" y="-74.5" font-family="Helvetica,sans-Serif" font-size="10.00" fill="#000000">/src/mcserv.h</text>
</a>
</g>
</g>
<!-- Node1&#45;&gt;Node13 -->
<g id="edge12" class="edge">
<title>Node1&#45;&gt;Node13</title>
<path fill="none" stroke="#191970" d="M2252.4512,-147.8119C2124.7864,-143.7789 1825.2209,-131.3101 1576,-98 1572.8525,-97.5793 1569.641,-97.1091 1566.4023,-96.6017"/>
<polygon fill="#191970" stroke="#191970" points="2252.7022,-151.3212 2262.8057,-148.1323 2252.9187,-144.3246 2252.7022,-151.3212"/>
</g>
<!-- Node15 -->
<g id="node15" class="node">
<title>Node15</title>
<g id="a_node15"><a xlink:href="network_2netman_2src_2irx__imports_8h.html" target="_top" xlink:title=" ">
<polygon fill="#ffffff" stroke="#000000" points="1584.5,-67.5 1584.5,-97.5 1699.5,-97.5 1699.5,-67.5 1584.5,-67.5"/>
<text text-anchor="start" x="1592.5" y="-85.5" font-family="Helvetica,sans-Serif" font-size="10.00" fill="#000000">iop/network/netman</text>
<text text-anchor="middle" x="1642" y="-74.5" font-family="Helvetica,sans-Serif" font-size="10.00" fill="#000000">/src/irx_imports.h</text>
</a>
</g>
</g>
<!-- Node1&#45;&gt;Node15 -->
<g id="edge14" class="edge">
<title>Node1&#45;&gt;Node15</title>
<path fill="none" stroke="#191970" d="M2252.5456,-147.1303C2142.2594,-142.2931 1906.0375,-129.0021 1709,-98 1705.9335,-97.5175 1702.7989,-96.9732 1699.6414,-96.3845"/>
<polygon fill="#191970" stroke="#191970" points="2252.6785,-150.6392 2262.8198,-147.5724 2252.9795,-143.6457 2252.6785,-150.6392"/>
</g>
<!-- Node16 -->
<g id="node16" class="node">
<title>Node16</title>
<g id="a_node16"><a xlink:href="netman_8c.html" target="_top" xlink:title=" ">
<polygon fill="#ffffff" stroke="#000000" points="1717.5,-67.5 1717.5,-97.5 1832.5,-97.5 1832.5,-67.5 1717.5,-67.5"/>
<text text-anchor="start" x="1725.5" y="-85.5" font-family="Helvetica,sans-Serif" font-size="10.00" fill="#000000">iop/network/netman</text>
<text text-anchor="middle" x="1775" y="-74.5" font-family="Helvetica,sans-Serif" font-size="10.00" fill="#000000">/src/netman.c</text>
</a>
</g>
</g>
<!-- Node1&#45;&gt;Node16 -->
<g id="edge15" class="edge">
<title>Node1&#45;&gt;Node16</title>
<path fill="none" stroke="#191970" d="M2252.8126,-145.099C2162.07,-138.1418 1988.2525,-122.7889 1842,-98 1838.9395,-97.4813 1835.8095,-96.908 1832.6558,-96.2967"/>
<polygon fill="#191970" stroke="#191970" points="2252.6916,-148.5998 2262.9276,-145.8661 2253.2209,-141.6199 2252.6916,-148.5998"/>
</g>
<!-- Node17 -->
<g id="node17" class="node">
<title>Node17</title>
<g id="a_node17"><a xlink:href="network_2netman_2src_2rpc__client_8c.html" target="_top" xlink:title=" ">
<polygon fill="#ffffff" stroke="#000000" points="1850.5,-67.5 1850.5,-97.5 1965.5,-97.5 1965.5,-67.5 1850.5,-67.5"/>
<text text-anchor="start" x="1858.5" y="-85.5" font-family="Helvetica,sans-Serif" font-size="10.00" fill="#000000">iop/network/netman</text>
<text text-anchor="middle" x="1908" y="-74.5" font-family="Helvetica,sans-Serif" font-size="10.00" fill="#000000">/src/rpc_client.c</text>
</a>
</g>
</g>
<!-- Node1&#45;&gt;Node17 -->
<g id="edge16" class="edge">
<title>Node1&#45;&gt;Node17</title>
<path fill="none" stroke="#191970" d="M2252.779,-141.5397C2184.4162,-132.4533 2071.4934,-116.4411 1975,-98 1971.951,-97.4173 1968.8302,-96.7931 1965.6837,-96.1418"/>
<polygon fill="#191970" stroke="#191970" points="2252.5742,-145.043 2262.9466,-142.8837 2253.4916,-138.1033 2252.5742,-145.043"/>
</g>
<!-- Node18 -->
<g id="node18" class="node">
<title>Node18</title>
<g id="a_node18"><a xlink:href="network_2netman_2src_2rpc__server_8c.html" target="_top" xlink:title=" ">
<polygon fill="#ffffff" stroke="#000000" points="1983.5,-67.5 1983.5,-97.5 2098.5,-97.5 2098.5,-67.5 1983.5,-67.5"/>
<text text-anchor="start" x="1991.5" y="-85.5" font-family="Helvetica,sans-Serif" font-size="10.00" fill="#000000">iop/network/netman</text>
<text text-anchor="middle" x="2041" y="-74.5" font-family="Helvetica,sans-Serif" font-size="10.00" fill="#000000">/src/rpc_server.c</text>
</a>
</g>
</g>
<!-- Node1&#45;&gt;Node18 -->
<g id="edge17" class="edge">
<title>Node1&#45;&gt;Node18</title>
<path fill="none" stroke="#191970" d="M2252.9083,-134.317C2206.6215,-122.9987 2143.8621,-107.6524 2098.6717,-96.6022"/>
<polygon fill="#191970" stroke="#191970" points="2252.2726,-137.7646 2262.8178,-136.7401 2253.9353,-130.9649 2252.2726,-137.7646"/>
</g>
<!-- Node19 -->
<g id="node19" class="node">
<title>Node19</title>
<g id="a_node19"><a xlink:href="network_2smbman_2src_2irx__imports_8h.html" target="_top" xlink:title=" ">
<polygon fill="#ffffff" stroke="#000000" points="2117,-67.5 2117,-97.5 2237,-97.5 2237,-67.5 2117,-67.5"/>
<text text-anchor="start" x="2125" y="-85.5" font-family="Helvetica,sans-Serif" font-size="10.00" fill="#000000">iop/network/smbman</text>
<text text-anchor="middle" x="2177" y="-74.5" font-family="Helvetica,sans-Serif" font-size="10.00" fill="#000000">/src/irx_imports.h</text>
</a>
</g>
</g>
<!-- Node1&#45;&gt;Node19 -->
<g id="edge18" class="edge">
<title>Node1&#45;&gt;Node19</title>
<path fill="none" stroke="#191970" d="M2274.9425,-130.0518C2253.7377,-119.7567 2228.0788,-107.2991 2208.344,-97.7177"/>
<polygon fill="#191970" stroke="#191970" points="2273.5056,-133.2448 2284.0301,-134.4639 2276.5629,-126.9478 2273.5056,-133.2448"/>
</g>
<!-- Node20 -->
<g id="node20" class="node">
<title>Node20</title>
<g id="a_node20"><a xlink:href="smb__fio_8c.html" target="_top" xlink:title=" ">
<polygon fill="#ffffff" stroke="#000000" points="2255,-67.5 2255,-97.5 2375,-97.5 2375,-67.5 2255,-67.5"/>
<text text-anchor="start" x="2263" y="-85.5" font-family="Helvetica,sans-Serif" font-size="10.00" fill="#000000">iop/network/smbman</text>
<text text-anchor="middle" x="2315" y="-74.5" font-family="Helvetica,sans-Serif" font-size="10.00" fill="#000000">/src/smb_fio.c</text>
</a>
</g>
</g>
<!-- Node1&#45;&gt;Node20 -->
<g id="edge19" class="edge">
<title>Node1&#45;&gt;Node20</title>
<path fill="none" stroke="#191970" d="M2315,-124.0249C2315,-115.128 2315,-105.4287 2315,-97.6432"/>
<polygon fill="#191970" stroke="#191970" points="2311.5001,-124.2966 2315,-134.2967 2318.5001,-124.2967 2311.5001,-124.2966"/>
</g>
<!-- Node21 -->
<g id="node21" class="node">
<title>Node21</title>
<g id="a_node21"><a xlink:href="batch_8c.html" target="_top" xlink:title=" ">
<polygon fill="#ffffff" stroke="#000000" points="2393.5,-67.5 2393.5,-97.5 2500.5,-97.5 2500.5,-67.5 2393.5,-67.5"/>
<text text-anchor="start" x="2401.5" y="-85.5" font-family="Helvetica,sans-Serif" font-size="10.00" fill="#000000">iop/sound/libsd/src</text>
<text text-anchor="middle" x="2447" y="-74.5" font-family="Helvetica,sans-Serif" font-size="10.00" fill="#000000">/batch.c</text>
</a>
</g>
</g>
<!-- Node1&#45;&gt;Node21 -->
<g id="edge20" class="edge">
<title>Node1&#45;&gt;Node21</title>
<path fill="none" stroke="#191970" d="M2353.589,-129.9132C2373.8187,-119.645 2398.2267,-107.2561 2417.0188,-97.7177"/>
<polygon fill="#191970" stroke="#191970" points="2351.9563,-126.8168 2344.6234,-134.4639 2355.1246,-133.0587 2351.9563,-126.8168"/>
</g>
<!-- Node22 -->
<g id="node22" class="node">
<title>Node22</title>
<g id="a_node22"><a xlink:href="sound_2libsd_2src_2irx__imports_8h.html" target="_top" xlink:title=" ">
<polygon fill="#ffffff" stroke="#000000" points="2518.5,-67.5 2518.5,-97.5 2625.5,-97.5 2625.5,-67.5 2518.5,-67.5"/>
<text text-anchor="start" x="2526.5" y="-85.5" font-family="Helvetica,sans-Serif" font-size="10.00" fill="#000000">iop/sound/libsd/src</text>
<text text-anchor="middle" x="2572" y="-74.5" font-family="Helvetica,sans-Serif" font-size="10.00" fill="#000000">/irx_imports.h</text>
</a>
</g>
</g>
<!-- Node1&#45;&gt;Node22 -->
<g id="edge21" class="edge">
<title>Node1&#45;&gt;Node22</title>
<path fill="none" stroke="#191970" d="M2376.8279,-133.3814C2419.9925,-122.1284 2477.0392,-107.2563 2518.3004,-96.4995"/>
<polygon fill="#191970" stroke="#191970" points="2375.8014,-130.032 2367.0078,-135.9416 2377.5673,-136.8056 2375.8014,-130.032"/>
</g>
<!-- Node23 -->
<g id="node23" class="node">
<title>Node23</title>
<g id="a_node23"><a xlink:href="voice_8c.html" target="_top" xlink:title=" ">
<polygon fill="#ffffff" stroke="#000000" points="2643.5,-67.5 2643.5,-97.5 2750.5,-97.5 2750.5,-67.5 2643.5,-67.5"/>
<text text-anchor="start" x="2651.5" y="-85.5" font-family="Helvetica,sans-Serif" font-size="10.00" fill="#000000">iop/sound/libsd/src</text>
<text text-anchor="middle" x="2697" y="-74.5" font-family="Helvetica,sans-Serif" font-size="10.00" fill="#000000">/voice.c</text>
</a>
</g>
</g>
<!-- Node1&#45;&gt;Node23 -->
<g id="edge22" class="edge">
<title>Node1&#45;&gt;Node23</title>
<path fill="none" stroke="#191970" d="M2377.1036,-141.1091C2441.7859,-131.9952 2545.9184,-116.2687 2635,-98 2637.7172,-97.4428 2640.495,-96.8465 2643.2957,-96.2242"/>
<polygon fill="#191970" stroke="#191970" points="2376.4875,-137.6611 2367.0696,-142.5144 2377.4584,-144.5935 2376.4875,-137.6611"/>
</g>
<!-- Node24 -->
<g id="node24" class="node">
<title>Node24</title>
<g id="a_node24"><a xlink:href="system_2mtapman_2src_2irx__imports_8h.html" target="_top" xlink:title=" ">
<polygon fill="#ffffff" stroke="#000000" points="2768.5,-67.5 2768.5,-97.5 2889.5,-97.5 2889.5,-67.5 2768.5,-67.5"/>
<text text-anchor="start" x="2776.5" y="-85.5" font-family="Helvetica,sans-Serif" font-size="10.00" fill="#000000">iop/system/mtapman</text>
<text text-anchor="middle" x="2829" y="-74.5" font-family="Helvetica,sans-Serif" font-size="10.00" fill="#000000">/src/irx_imports.h</text>
</a>
</g>
</g>
<!-- Node1&#45;&gt;Node24 -->
<g id="edge23" class="edge">
<title>Node1&#45;&gt;Node24</title>
<path fill="none" stroke="#191970" d="M2377.4788,-144.3694C2463.8486,-136.7999 2624.4265,-121.0061 2760,-98 2762.7841,-97.5276 2765.6248,-97.0149 2768.4896,-96.473"/>
<polygon fill="#191970" stroke="#191970" points="2376.9801,-140.8994 2367.3204,-145.2517 2377.5858,-147.8732 2376.9801,-140.8994"/>
</g>
<!-- Node25 -->
<g id="node25" class="node">
<title>Node25</title>
<g id="a_node25"><a xlink:href="rpcservers_8c.html" target="_top" xlink:title=" ">
<polygon fill="#ffffff" stroke="#000000" points="2907.5,-67.5 2907.5,-97.5 3028.5,-97.5 3028.5,-67.5 2907.5,-67.5"/>
<text text-anchor="start" x="2915.5" y="-85.5" font-family="Helvetica,sans-Serif" font-size="10.00" fill="#000000">iop/system/mtapman</text>
<text text-anchor="middle" x="2968" y="-74.5" font-family="Helvetica,sans-Serif" font-size="10.00" fill="#000000">/src/rpcservers.c</text>
</a>
</g>
</g>
<!-- Node1&#45;&gt;Node25 -->
<g id="edge24" class="edge">
<title>Node1&#45;&gt;Node25</title>
<path fill="none" stroke="#191970" d="M2377.2247,-146.7347C2484.3336,-141.3686 2710.2338,-127.3916 2899,-98 2901.6689,-97.5844 2904.3887,-97.1258 2907.1309,-96.6346"/>
<polygon fill="#191970" stroke="#191970" points="2377.0508,-143.239 2367.2354,-147.2274 2377.3957,-150.2305 2377.0508,-143.239"/>
</g>
<!-- Node26 -->
<g id="node26" class="node">
<title>Node26</title>
<g id="a_node26"><a xlink:href="system_2padman_2src_2irx__imports_8h.html" target="_top" xlink:title=" ">
<polygon fill="#ffffff" stroke="#000000" points="3046.5,-67.5 3046.5,-97.5 3177.5,-97.5 3177.5,-67.5 3046.5,-67.5"/>
<text text-anchor="start" x="3054.5" y="-85.5" font-family="Helvetica,sans-Serif" font-size="10.00" fill="#000000">iop/system/padman/src</text>
<text text-anchor="middle" x="3112" y="-74.5" font-family="Helvetica,sans-Serif" font-size="10.00" fill="#000000">/irx_imports.h</text>
</a>
</g>
</g>
<!-- Node1&#45;&gt;Node26 -->
<g id="edge25" class="edge">
<title>Node1&#45;&gt;Node26</title>
<path fill="none" stroke="#191970" d="M2377.6289,-147.8905C2503.3633,-144.0316 2795.255,-131.9092 3038,-98 3040.73,-97.6187 3043.51,-97.1956 3046.3135,-96.7402"/>
<polygon fill="#191970" stroke="#191970" points="2377.314,-144.3983 2367.4235,-148.1967 2377.524,-151.3951 2377.314,-144.3983"/>
</g>
<!-- Node27 -->
<g id="node27" class="node">
<title>Node27</title>
<g id="a_node27"><a xlink:href="padData_8c.html" target="_top" xlink:title=" ">
<polygon fill="#ffffff" stroke="#000000" points="3195.5,-67.5 3195.5,-97.5 3326.5,-97.5 3326.5,-67.5 3195.5,-67.5"/>
<text text-anchor="start" x="3203.5" y="-85.5" font-family="Helvetica,sans-Serif" font-size="10.00" fill="#000000">iop/system/padman/src</text>
<text text-anchor="middle" x="3261" y="-74.5" font-family="Helvetica,sans-Serif" font-size="10.00" fill="#000000">/padData.c</text>
</a>
</g>
</g>
<!-- Node1&#45;&gt;Node27 -->
<g id="edge26" class="edge">
<title>Node1&#45;&gt;Node27</title>
<path fill="none" stroke="#191970" d="M2377.7237,-148.9615C2521.4906,-147.0371 2885.6366,-138.2374 3187,-98 3189.7322,-97.6352 3192.5141,-97.2259 3195.3192,-96.782"/>
<polygon fill="#191970" stroke="#191970" points="2377.3035,-145.4664 2367.3488,-149.0934 2377.3926,-152.4659 2377.3035,-145.4664"/>
</g>
<!-- Node28 -->
<g id="node28" class="node">
<title>Node28</title>
<g id="a_node28"><a xlink:href="padInit_8c.html" target="_top" xlink:title=" ">
<polygon fill="#ffffff" stroke="#000000" points="3344.5,-67.5 3344.5,-97.5 3475.5,-97.5 3475.5,-67.5 3344.5,-67.5"/>
<text text-anchor="start" x="3352.5" y="-85.5" font-family="Helvetica,sans-Serif" font-size="10.00" fill="#000000">iop/system/padman/src</text>
<text text-anchor="middle" x="3410" y="-74.5" font-family="Helvetica,sans-Serif" font-size="10.00" fill="#000000">/padInit.c</text>
</a>
</g>
</g>
<!-- Node1&#45;&gt;Node28 -->
<g id="edge27" class="edge">
<title>Node1&#45;&gt;Node28</title>
<path fill="none" stroke="#191970" d="M2377.3133,-147.6337C2569.1288,-141.6871 3149.0083,-122.1494 3336,-98 3338.7338,-97.6469 3341.517,-97.2475 3344.3231,-96.8117"/>
<polygon fill="#191970" stroke="#191970" points="2377.012,-144.1412 2367.1248,-147.9481 2377.228,-151.1379 2377.012,-144.1412"/>
</g>
<!-- Node29 -->
<g id="node29" class="node">
<title>Node29</title>
<g id="a_node29"><a xlink:href="rpcserver_8c.html" target="_top" xlink:title=" ">
<polygon fill="#ffffff" stroke="#000000" points="3493.5,-67.5 3493.5,-97.5 3624.5,-97.5 3624.5,-67.5 3493.5,-67.5"/>
<text text-anchor="start" x="3501.5" y="-85.5" font-family="Helvetica,sans-Serif" font-size="10.00" fill="#000000">iop/system/padman/src</text>
<text text-anchor="middle" x="3559" y="-74.5" font-family="Helvetica,sans-Serif" font-size="10.00" fill="#000000">/rpcserver.c</text>
</a>
</g>
</g>
<!-- Node1&#45;&gt;Node29 -->
<g id="edge28" class="edge">
<title>Node1&#45;&gt;Node29</title>
<path fill="none" stroke="#191970" d="M2377.3005,-148.0947C2587.2181,-143.15 3267.6495,-125.3623 3485,-98 3487.7349,-97.6557 3490.519,-97.2636 3493.3259,-96.8338"/>
<polygon fill="#191970" stroke="#191970" points="2376.9912,-144.6009 2367.0759,-148.3341 2377.1552,-151.599 2376.9912,-144.6009"/>
</g>
<!-- Node30 -->
<g id="node30" class="node">
<title>Node30</title>
<g id="a_node30"><a xlink:href="system_2rmman_2src_2irx__imports_8h.html" target="_top" xlink:title=" ">
<polygon fill="#ffffff" stroke="#000000" points="3643,-67.5 3643,-97.5 3769,-97.5 3769,-67.5 3643,-67.5"/>
<text text-anchor="start" x="3651" y="-85.5" font-family="Helvetica,sans-Serif" font-size="10.00" fill="#000000">iop/system/rmman/src</text>
<text text-anchor="middle" x="3706" y="-74.5" font-family="Helvetica,sans-Serif" font-size="10.00" fill="#000000">/irx_imports.h</text>
</a>
</g>
</g>
<!-- Node1&#45;&gt;Node30 -->
<g id="edge29" class="edge">
<title>Node1&#45;&gt;Node30</title>
<path fill="none" stroke="#191970" d="M2377.1026,-148.5013C2603.769,-144.6338 3386.1456,-129.2785 3634,-98 3636.9177,-97.6318 3639.8923,-97.2046 3642.8901,-96.7321"/>
<polygon fill="#191970" stroke="#191970" points="2376.9885,-145.0026 2367.0492,-148.6715 2377.107,-152.0016 2376.9885,-145.0026"/>
</g>
<!-- Node31 -->
<g id="node31" class="node">
<title>Node31</title>
<g id="a_node31"><a xlink:href="rmman_8c.html" target="_top" xlink:title=" ">
<polygon fill="#ffffff" stroke="#000000" points="3787,-67.5 3787,-97.5 3913,-97.5 3913,-67.5 3787,-67.5"/>
<text text-anchor="start" x="3795" y="-85.5" font-family="Helvetica,sans-Serif" font-size="10.00" fill="#000000">iop/system/rmman/src</text>
<text text-anchor="middle" x="3850" y="-74.5" font-family="Helvetica,sans-Serif" font-size="10.00" fill="#000000">/rmman.c</text>
</a>
</g>
</g>
<!-- Node1&#45;&gt;Node31 -->
<g id="edge30" class="edge">
<title>Node1&#45;&gt;Node31</title>
<path fill="none" stroke="#191970" d="M2377.3122,-148.7747C2619.7857,-145.7247 3500.6113,-132.465 3778,-98 3780.9184,-97.6374 3783.8936,-97.2148 3786.8918,-96.746"/>
<polygon fill="#191970" stroke="#191970" points="2377.2183,-145.2755 2367.2627,-148.8998 2377.3055,-152.275 2377.2183,-145.2755"/>
</g>
<!-- Node32 -->
<g id="node32" class="node">
<title>Node32</title>
<g id="a_node32"><a xlink:href="system_2sbusintr_2src_2irx__imports_8h.html" target="_top" xlink:title=" ">
<polygon fill="#ffffff" stroke="#000000" points="3931.5,-67.5 3931.5,-97.5 4044.5,-97.5 4044.5,-67.5 3931.5,-67.5"/>
<text text-anchor="start" x="3939.5" y="-85.5" font-family="Helvetica,sans-Serif" font-size="10.00" fill="#000000">iop/system/sbusintr</text>
<text text-anchor="middle" x="3988" y="-74.5" font-family="Helvetica,sans-Serif" font-size="10.00" fill="#000000">/src/irx_imports.h</text>
</a>
</g>
</g>
<!-- Node1&#45;&gt;Node32 -->
<g id="edge31" class="edge">
<title>Node1&#45;&gt;Node32</title>
<path fill="none" stroke="#191970" d="M2377.3739,-149.1563C2634.7772,-147.4822 3615.2744,-138.5225 3922,-98 3925.0339,-97.5992 3928.1323,-97.1199 3931.2508,-96.5822"/>
<polygon fill="#191970" stroke="#191970" points="2377.068,-145.658 2367.0905,-149.2217 2377.1126,-152.6579 2377.068,-145.658"/>
</g>
<!-- Node33 -->
<g id="node33" class="node">
<title>Node33</title>
<g id="a_node33"><a xlink:href="sbusintr_8c.html" target="_top" xlink:title=" ">
<polygon fill="#ffffff" stroke="#000000" points="4062.5,-67.5 4062.5,-97.5 4175.5,-97.5 4175.5,-67.5 4062.5,-67.5"/>
<text text-anchor="start" x="4070.5" y="-85.5" font-family="Helvetica,sans-Serif" font-size="10.00" fill="#000000">iop/system/sbusintr</text>
<text text-anchor="middle" x="4119" y="-74.5" font-family="Helvetica,sans-Serif" font-size="10.00" fill="#000000">/src/sbusintr.c</text>
</a>
</g>
</g>
<!-- Node1&#45;&gt;Node33 -->
<g id="edge32" class="edge">
<title>Node1&#45;&gt;Node33</title>
<path fill="none" stroke="#191970" d="M2377.1214,-149.362C2647.1094,-148.5003 3719.9502,-142.3008 4054,-98 4056.7601,-97.634 4059.574,-97.2003 4062.4073,-96.715"/>
<polygon fill="#191970" stroke="#191970" points="2377.0972,-145.8619 2367.108,-149.3926 2377.1187,-152.8619 2377.0972,-145.8619"/>
</g>
<!-- Node34 -->
<g id="node34" class="node">
<title>Node34</title>
<g id="a_node34"><a xlink:href="system_2siftoo_2src_2irx__imports_8h.html" target="_top" xlink:title=" ">
<polygon fill="#ffffff" stroke="#000000" points="4193.5,-67.5 4193.5,-97.5 4312.5,-97.5 4312.5,-67.5 4193.5,-67.5"/>
<text text-anchor="start" x="4201.5" y="-85.5" font-family="Helvetica,sans-Serif" font-size="10.00" fill="#000000">iop/system/siftoo/src</text>
<text text-anchor="middle" x="4253" y="-74.5" font-family="Helvetica,sans-Serif" font-size="10.00" fill="#000000">/irx_imports.h</text>
</a>
</g>
</g>
<!-- Node1&#45;&gt;Node34 -->
<g id="edge33" class="edge">
<title>Node1&#45;&gt;Node34</title>
<path fill="none" stroke="#191970" d="M2377.7403,-148.5054C2682.6828,-143.5724 4002.7969,-121.047 4185,-98 4187.7629,-97.6505 4190.5782,-97.2387 4193.4143,-96.7786"/>
<polygon fill="#191970" stroke="#191970" points="2377.2666,-145.0125 2367.3244,-148.6734 2377.3796,-152.0116 2377.2666,-145.0125"/>
</g>
<!-- Node35 -->
<g id="node35" class="node">
<title>Node35</title>
<g id="a_node35"><a xlink:href="siftoo_8c.html" target="_top" xlink:title=" ">
<polygon fill="#ffffff" stroke="#000000" points="4330.5,-67.5 4330.5,-97.5 4449.5,-97.5 4449.5,-67.5 4330.5,-67.5"/>
<text text-anchor="start" x="4338.5" y="-85.5" font-family="Helvetica,sans-Serif" font-size="10.00" fill="#000000">iop/system/siftoo/src</text>
<text text-anchor="middle" x="4390" y="-74.5" font-family="Helvetica,sans-Serif" font-size="10.00" fill="#000000">/siftoo.c</text>
</a>
</g>
</g>
<!-- Node1&#45;&gt;Node35 -->
<g id="edge34" class="edge">
<title>Node1&#45;&gt;Node35</title>
<path fill="none" stroke="#191970" d="M2377.6368,-148.6331C2695.8011,-144.1304 4125.4834,-122.67 4322,-98 4324.7632,-97.6531 4327.5788,-97.2434 4330.4151,-96.7851"/>
<polygon fill="#191970" stroke="#191970" points="2377.1789,-145.1391 2367.2293,-148.78 2377.2777,-152.1384 2377.1789,-145.1391"/>
</g>
<!-- Node36 -->
<g id="node36" class="node">
<title>Node36</title>
<g id="a_node36"><a xlink:href="tcpip_2tcpips_2src_2irx__imports_8h.html" target="_top" xlink:title=" ">
<polygon fill="#ffffff" stroke="#000000" points="4468,-67.5 4468,-97.5 4576,-97.5 4576,-67.5 4468,-67.5"/>
<text text-anchor="start" x="4476" y="-85.5" font-family="Helvetica,sans-Serif" font-size="10.00" fill="#000000">iop/tcpip/tcpips/src</text>
<text text-anchor="middle" x="4522" y="-74.5" font-family="Helvetica,sans-Serif" font-size="10.00" fill="#000000">/irx_imports.h</text>
</a>
</g>
</g>
<!-- Node1&#45;&gt;Node36 -->
<g id="edge35" class="edge">
<title>Node1&#45;&gt;Node36</title>
<path fill="none" stroke="#191970" d="M2377.5997,-148.8072C2708.6772,-145.0347 4248.3857,-126.0983 4459,-98 4461.9028,-97.6127 4464.8659,-97.1442 4467.8469,-96.615"/>
<polygon fill="#191970" stroke="#191970" points="2377.2048,-145.3114 2367.2452,-148.9248 2377.2843,-152.3109 2377.2048,-145.3114"/>
</g>
<!-- Node37 -->
<g id="node37" class="node">
<title>Node37</title>
<g id="a_node37"><a xlink:href="ps2ips_8c.html" target="_top" xlink:title=" ">
<polygon fill="#ffffff" stroke="#000000" points="4594,-67.5 4594,-97.5 4702,-97.5 4702,-67.5 4594,-67.5"/>
<text text-anchor="start" x="4602" y="-85.5" font-family="Helvetica,sans-Serif" font-size="10.00" fill="#000000">iop/tcpip/tcpips/src</text>
<text text-anchor="middle" x="4648" y="-74.5" font-family="Helvetica,sans-Serif" font-size="10.00" fill="#000000">/ps2ips.c</text>
</a>
</g>
</g>
<!-- Node1&#45;&gt;Node37 -->
<g id="edge36" class="edge">
<title>Node1&#45;&gt;Node37</title>
<path fill="none" stroke="#191970" d="M2377.3935,-148.8988C2719.579,-145.4929 4361.1601,-127.711 4585,-98 4587.9031,-97.6147 4590.8663,-97.1477 4593.8476,-96.6197"/>
<polygon fill="#191970" stroke="#191970" points="2377.1444,-145.401 2367.1796,-149 2377.2138,-152.4007 2377.1444,-145.401"/>
</g>
<!-- Node14 -->
<g id="node14" class="node">
<title>Node14</title>
<g id="a_node14"><a xlink:href="mcserv_8c.html" target="_top" xlink:title=" ">
<polygon fill="#ffffff" stroke="#000000" points="1430,-.5 1430,-30.5 1566,-30.5 1566,-.5 1430,-.5"/>
<text text-anchor="start" x="1438" y="-18.5" font-family="Helvetica,sans-Serif" font-size="10.00" fill="#000000">iop/memorycard/mcserv</text>
<text text-anchor="middle" x="1498" y="-7.5" font-family="Helvetica,sans-Serif" font-size="10.00" fill="#000000">/src/mcserv.c</text>
</a>
</g>
</g>
<!-- Node13&#45;&gt;Node14 -->
<g id="edge13" class="edge">
<title>Node13&#45;&gt;Node14</title>
<path fill="none" stroke="#191970" d="M1498,-57.0249C1498,-48.128 1498,-38.4287 1498,-30.6432"/>
<polygon fill="#191970" stroke="#191970" points="1494.5001,-57.2966 1498,-67.2967 1501.5001,-57.2967 1494.5001,-57.2966"/>
</g>
</g>
</svg>
        <g id="navigator" transform="translate(0 0)" fill="#404254">
                <rect fill="#f2f5e9" fill-opacity="0.5" stroke="#606060" stroke-width=".5" x="0" y="0" width="60" height="60"/>
                <use id="zoomplus" xlink:href="#zoomPlus" x="17" y="9" onmousedown="handleZoom(evt,'in')"/>
                <use id="zoomminus" xlink:href="#zoomMin" x="42" y="9" onmousedown="handleZoom(evt,'out')"/>
                <use id="reset" xlink:href="#resetDef" x="30" y="36" onmousedown="handleReset()"/>
                <g id="arrowUp" xlink:href="#dirArrow" transform="translate(30 24)" onmousedown="handlePan(0,-1)">
                  <use xlink:href="#rim" fill="#404040">
                        <set attributeName="fill" to="#808080" begin="arrowUp.mouseover" end="arrowUp.mouseout"/>
                  </use>
                  <path fill="none" stroke="white" stroke-width="1.5" d="M0,-3.0v7 M-2.5,-0.5L0,-3.0L2.5,-0.5"/>
                </g>
                <g id="arrowRight" xlink:href="#dirArrow" transform="rotate(90) translate(36 -43)" onmousedown="handlePan(1,0)">
                  <use xlink:href="#rim" fill="#404040">
                        <set attributeName="fill" to="#808080" begin="arrowRight.mouseover" end="arrowRight.mouseout"/>
                  </use>
                  <path fill="none" stroke="white" stroke-width="1.5" d="M0,-3.0v7 M-2.5,-0.5L0,-3.0L2.5,-0.5"/>
                </g>
                <g id="arrowDown" xlink:href="#dirArrow" transform="rotate(180) translate(-30 -48)" onmousedown="handlePan(0,1)">
                  <use xlink:href="#rim" fill="#404040">
                        <set attributeName="fill" to="#808080" begin="arrowDown.mouseover" end="arrowDown.mouseout"/>
                  </use>
                  <path fill="none" stroke="white" stroke-width="1.5" d="M0,-3.0v7 M-2.5,-0.5L0,-3.0L2.5,-0.5"/>
                </g>
                <g id="arrowLeft" xlink:href="#dirArrow" transform="rotate(270) translate(-36 17)" onmousedown="handlePan(-1,0)">
                  <use xlink:href="#rim" fill="#404040">
                        <set attributeName="fill" to="#808080" begin="arrowLeft.mouseover" end="arrowLeft.mouseout"/>
                  </use>
                  <path fill="none" stroke="white" stroke-width="1.5" d="M0,-3.0v7 M-2.5,-0.5L0,-3.0L2.5,-0.5"/>
                </g>
        </g>
        <svg viewBox="0 0 15 15" width="100%" height="30px" preserveAspectRatio="xMaxYMin meet">
         <g id="arrow_out" transform="scale(0.3 0.3)">
          <a xlink:href="sifman_8h__dep__incl_org.svg" target="_base">
           <rect id="button" ry="5" rx="5" y="6" x="6" height="38" width="38"
                fill="#f2f5e9" fill-opacity="0.5" stroke="#606060" stroke-width="1.0"/>
           <path id="arrow"
             d="M 11.500037,31.436501 C 11.940474,20.09759 22.043105,11.32322 32.158766,21.979434 L 37.068811,17.246167 C 37.068811,17.246167 37.088388,32 37.088388,32 L 22.160133,31.978069 C 22.160133,31.978069 26.997745,27.140456 26.997745,27.140456 C 18.528582,18.264221 13.291696,25.230495 11.500037,31.436501 z"
             style="fill:#404040;"/>
          </a>
         </g>
        </svg>
</svg>
