<?xml version="1.0" encoding="UTF-8" standalone="no"?>
<!DOCTYPE svg PUBLIC "-//W3C//DTD SVG 1.1//EN"
 "http://www.w3.org/Graphics/SVG/1.1/DTD/svg11.dtd">
<!-- Generated by graphviz version 2.40.1 (20161225.0304)
 -->
<!-- Title: iop/system/siftoo/src/siftoo.c Pages: 1 -->
<svg width="561pt" height="263pt"
 viewBox="0.00 0.00 561.15 263.00" xmlns="http://www.w3.org/2000/svg" xmlns:xlink="http://www.w3.org/1999/xlink">
<g id="graph0" class="graph" transform="scale(1 1) rotate(0) translate(4 259)">
<title>iop/system/siftoo/src/siftoo.c</title>
<polygon fill="#ffffff" stroke="transparent" points="-4,4 -4,-259 557.153,-259 557.153,4 -4,4"/>
<!-- Node1 -->
<g id="node1" class="node">
<title>Node1</title>
<g id="a_node1"><a xlink:title=" ">
<polygon fill="#bfbfbf" stroke="#000000" points="204.153,-224.5 204.153,-254.5 323.153,-254.5 323.153,-224.5 204.153,-224.5"/>
<text text-anchor="start" x="212.153" y="-242.5" font-family="Helvetica,sans-Serif" font-size="10.00" fill="#000000">iop/system/siftoo/src</text>
<text text-anchor="middle" x="263.653" y="-231.5" font-family="Helvetica,sans-Serif" font-size="10.00" fill="#000000">/siftoo.c</text>
</a>
</g>
</g>
<!-- Node2 -->
<g id="node2" class="node">
<title>Node2</title>
<g id="a_node2"><a xlink:title=" ">
<polygon fill="#ffffff" stroke="#bfbfbf" points="19.153,-112.5 19.153,-131.5 72.153,-131.5 72.153,-112.5 19.153,-112.5"/>
<text text-anchor="middle" x="45.653" y="-119.5" font-family="Helvetica,sans-Serif" font-size="10.00" fill="#000000">types.h</text>
</a>
</g>
</g>
<!-- Node1&#45;&gt;Node2 -->
<g id="edge1" class="edge">
<title>Node1&#45;&gt;Node2</title>
<path fill="none" stroke="#191970" d="M203.9739,-236.1673C135.477,-230.9489 29.3755,-218.1224 4.653,-188 -8.2459,-172.2837 8.2572,-152.1948 24.0115,-138.3304"/>
<polygon fill="#191970" stroke="#191970" points="26.5477,-140.7747 32.022,-131.7038 22.0858,-135.3811 26.5477,-140.7747"/>
</g>
<!-- Node3 -->
<g id="node3" class="node">
<title>Node3</title>
<g id="a_node3"><a xlink:href="defs_8h.html" target="_top" xlink:title=" ">
<polygon fill="#ffffff" stroke="#000000" points="506.153,-112.5 506.153,-131.5 553.153,-131.5 553.153,-112.5 506.153,-112.5"/>
<text text-anchor="middle" x="529.653" y="-119.5" font-family="Helvetica,sans-Serif" font-size="10.00" fill="#000000">defs.h</text>
</a>
</g>
</g>
<!-- Node1&#45;&gt;Node3 -->
<g id="edge2" class="edge">
<title>Node1&#45;&gt;Node3</title>
<path fill="none" stroke="#191970" d="M323.3117,-234.1127C387.4789,-227.1287 483.9216,-212.8046 510.653,-188 523.3294,-176.2374 527.7408,-156.6195 529.1835,-141.822"/>
<polygon fill="#191970" stroke="#191970" points="532.6881,-141.8483 529.7957,-131.6559 525.7008,-141.4274 532.6881,-141.8483"/>
</g>
<!-- Node7 -->
<g id="node7" class="node">
<title>Node7</title>
<g id="a_node7"><a xlink:href="irx_8h.html" target="_top" xlink:title=" ">
<polygon fill="#ffffff" stroke="#000000" points="251.653,-112.5 251.653,-131.5 289.653,-131.5 289.653,-112.5 251.653,-112.5"/>
<text text-anchor="middle" x="270.653" y="-119.5" font-family="Helvetica,sans-Serif" font-size="10.00" fill="#000000">irx.h</text>
</a>
</g>
</g>
<!-- Node1&#45;&gt;Node7 -->
<g id="edge6" class="edge">
<title>Node1&#45;&gt;Node7</title>
<path fill="none" stroke="#191970" d="M264.5681,-224.1389C265.8293,-202.9692 268.1022,-164.8174 269.4847,-141.6112"/>
<polygon fill="#191970" stroke="#191970" points="272.9825,-141.75 270.0835,-131.5595 265.9949,-141.3336 272.9825,-141.75"/>
</g>
<!-- Node8 -->
<g id="node8" class="node">
<title>Node8</title>
<g id="a_node8"><a xlink:href="loadcore_8h.html" target="_top" xlink:title=" ">
<polygon fill="#ffffff" stroke="#000000" points="167.653,-168.5 167.653,-187.5 235.653,-187.5 235.653,-168.5 167.653,-168.5"/>
<text text-anchor="middle" x="201.653" y="-175.5" font-family="Helvetica,sans-Serif" font-size="10.00" fill="#000000">loadcore.h</text>
</a>
</g>
</g>
<!-- Node1&#45;&gt;Node8 -->
<g id="edge8" class="edge">
<title>Node1&#45;&gt;Node8</title>
<path fill="none" stroke="#191970" d="M248.3272,-224.2977C239.3623,-215.4052 228.0242,-204.1586 218.7679,-194.9769"/>
<polygon fill="#191970" stroke="#191970" points="221.1445,-192.4045 211.58,-187.8469 216.2148,-197.3742 221.1445,-192.4045"/>
</g>
<!-- Node9 -->
<g id="node9" class="node">
<title>Node9</title>
<g id="a_node9"><a xlink:href="intrman_8h.html" target="_top" xlink:title=" ">
<polygon fill="#ffffff" stroke="#000000" points="291.653,-168.5 291.653,-187.5 355.653,-187.5 355.653,-168.5 291.653,-168.5"/>
<text text-anchor="middle" x="323.653" y="-175.5" font-family="Helvetica,sans-Serif" font-size="10.00" fill="#000000">intrman.h</text>
</a>
</g>
</g>
<!-- Node1&#45;&gt;Node9 -->
<g id="edge11" class="edge">
<title>Node1&#45;&gt;Node9</title>
<path fill="none" stroke="#191970" d="M278.4845,-224.2977C287.0734,-215.4941 297.9133,-204.3833 306.8209,-195.2529"/>
<polygon fill="#191970" stroke="#191970" points="309.5682,-197.4489 314.0463,-187.8469 304.5577,-192.5606 309.5682,-197.4489"/>
</g>
<!-- Node10 -->
<g id="node10" class="node">
<title>Node10</title>
<g id="a_node10"><a xlink:href="sifman_8h.html" target="_top" xlink:title=" ">
<polygon fill="#ffffff" stroke="#000000" points="374.153,-168.5 374.153,-187.5 433.153,-187.5 433.153,-168.5 374.153,-168.5"/>
<text text-anchor="middle" x="403.653" y="-175.5" font-family="Helvetica,sans-Serif" font-size="10.00" fill="#000000">sifman.h</text>
</a>
</g>
</g>
<!-- Node1&#45;&gt;Node10 -->
<g id="edge14" class="edge">
<title>Node1&#45;&gt;Node10</title>
<path fill="none" stroke="#191970" d="M297.9009,-224.4554C320.748,-214.419 350.541,-201.3314 372.6797,-191.6061"/>
<polygon fill="#191970" stroke="#191970" points="374.2101,-194.7567 381.958,-187.5303 371.3947,-188.3478 374.2101,-194.7567"/>
</g>
<!-- Node11 -->
<g id="node11" class="node">
<title>Node11</title>
<g id="a_node11"><a xlink:href="sbusintr_8h.html" target="_top" xlink:title=" ">
<polygon fill="#ffffff" stroke="#000000" points="13.653,-168.5 13.653,-187.5 77.653,-187.5 77.653,-168.5 13.653,-168.5"/>
<text text-anchor="middle" x="45.653" y="-175.5" font-family="Helvetica,sans-Serif" font-size="10.00" fill="#000000">sbusintr.h</text>
</a>
</g>
</g>
<!-- Node1&#45;&gt;Node11 -->
<g id="edge17" class="edge">
<title>Node1&#45;&gt;Node11</title>
<path fill="none" stroke="#191970" d="M210.3242,-224.4554C172.579,-213.8071 122.6591,-199.7242 87.7157,-189.8663"/>
<polygon fill="#191970" stroke="#191970" points="88.4062,-186.4246 77.8316,-187.0779 86.5056,-193.1616 88.4062,-186.4246"/>
</g>
<!-- Node12 -->
<g id="node12" class="node">
<title>Node12</title>
<g id="a_node12"><a xlink:href="siftoo_8h.html" target="_top" xlink:title=" ">
<polygon fill="#ffffff" stroke="#000000" points="96.153,-168.5 96.153,-187.5 149.153,-187.5 149.153,-168.5 96.153,-168.5"/>
<text text-anchor="middle" x="122.653" y="-175.5" font-family="Helvetica,sans-Serif" font-size="10.00" fill="#000000">siftoo.h</text>
</a>
</g>
</g>
<!-- Node1&#45;&gt;Node12 -->
<g id="edge20" class="edge">
<title>Node1&#45;&gt;Node12</title>
<path fill="none" stroke="#191970" d="M229.1605,-224.4554C206.1502,-214.419 176.1444,-201.3314 153.8475,-191.6061"/>
<polygon fill="#191970" stroke="#191970" points="155.0684,-188.3202 144.503,-187.5303 152.2698,-194.7364 155.0684,-188.3202"/>
</g>
<!-- Node13 -->
<g id="node13" class="node">
<title>Node13</title>
<g id="a_node13"><a xlink:href="stdio_8h.html" target="_top" xlink:title=" ">
<polygon fill="#ffffff" stroke="#000000" points="451.653,-168.5 451.653,-187.5 501.653,-187.5 501.653,-168.5 451.653,-168.5"/>
<text text-anchor="middle" x="476.653" y="-175.5" font-family="Helvetica,sans-Serif" font-size="10.00" fill="#000000">stdio.h</text>
</a>
</g>
</g>
<!-- Node1&#45;&gt;Node13 -->
<g id="edge23" class="edge">
<title>Node1&#45;&gt;Node13</title>
<path fill="none" stroke="#191970" d="M316.1541,-224.4832C349.5413,-214.9132 393.9443,-202.1488 441.5293,-188.3167"/>
<polygon fill="#191970" stroke="#191970" points="442.7825,-191.5973 451.4069,-185.4433 440.8273,-184.8759 442.7825,-191.5973"/>
</g>
<!-- Node4 -->
<g id="node4" class="node">
<title>Node4</title>
<g id="a_node4"><a xlink:href="types_8h.html" target="_top" xlink:title=" ">
<polygon fill="#ffffff" stroke="#000000" points="297.153,-56.5 297.153,-75.5 350.153,-75.5 350.153,-56.5 297.153,-56.5"/>
<text text-anchor="middle" x="323.653" y="-63.5" font-family="Helvetica,sans-Serif" font-size="10.00" fill="#000000">types.h</text>
</a>
</g>
</g>
<!-- Node3&#45;&gt;Node4 -->
<g id="edge3" class="edge">
<title>Node3&#45;&gt;Node4</title>
<path fill="none" stroke="#191970" d="M505.8887,-114.6923C502.7866,-113.7696 499.6472,-112.8515 496.653,-112 449.7202,-98.6536 395.2848,-84.3759 360.2019,-75.3292"/>
<polygon fill="#191970" stroke="#191970" points="360.9607,-71.9105 350.404,-72.8089 359.2168,-78.6898 360.9607,-71.9105"/>
</g>
<!-- Node5 -->
<g id="node5" class="node">
<title>Node5</title>
<g id="a_node5"><a xlink:title=" ">
<polygon fill="#ffffff" stroke="#bfbfbf" points="254.653,-.5 254.653,-19.5 310.653,-19.5 310.653,-.5 254.653,-.5"/>
<text text-anchor="middle" x="282.653" y="-7.5" font-family="Helvetica,sans-Serif" font-size="10.00" fill="#000000">stddef.h</text>
</a>
</g>
</g>
<!-- Node4&#45;&gt;Node5 -->
<g id="edge4" class="edge">
<title>Node4&#45;&gt;Node5</title>
<path fill="none" stroke="#191970" d="M316.5114,-56.2455C310.8086,-48.4564 302.663,-37.3308 295.7905,-27.9439"/>
<polygon fill="#191970" stroke="#191970" points="298.4443,-25.6437 289.7128,-19.6427 292.7962,-29.7789 298.4443,-25.6437"/>
</g>
<!-- Node6 -->
<g id="node6" class="node">
<title>Node6</title>
<g id="a_node6"><a xlink:href="tamtypes_8h.html" target="_top" xlink:title=" ">
<polygon fill="#ffffff" stroke="#000000" points="328.653,-.5 328.653,-19.5 400.653,-19.5 400.653,-.5 328.653,-.5"/>
<text text-anchor="middle" x="364.653" y="-7.5" font-family="Helvetica,sans-Serif" font-size="10.00" fill="#000000">tamtypes.h</text>
</a>
</g>
</g>
<!-- Node4&#45;&gt;Node6 -->
<g id="edge5" class="edge">
<title>Node4&#45;&gt;Node6</title>
<path fill="none" stroke="#191970" d="M330.7947,-56.2455C336.4974,-48.4564 344.643,-37.3308 351.5155,-27.9439"/>
<polygon fill="#191970" stroke="#191970" points="354.5098,-29.7789 357.5932,-19.6427 348.8617,-25.6437 354.5098,-29.7789"/>
</g>
<!-- Node7&#45;&gt;Node4 -->
<g id="edge7" class="edge">
<title>Node7&#45;&gt;Node4</title>
<path fill="none" stroke="#191970" d="M279.8849,-112.2455C287.4847,-104.2155 298.4407,-92.6394 307.4898,-83.0781"/>
<polygon fill="#191970" stroke="#191970" points="310.1951,-85.3115 314.5269,-75.6427 305.111,-80.4998 310.1951,-85.3115"/>
</g>
<!-- Node8&#45;&gt;Node4 -->
<g id="edge9" class="edge">
<title>Node8&#45;&gt;Node4</title>
<path fill="none" stroke="#191970" d="M205.72,-168.4524C211.9904,-154.6208 225.1492,-128.8276 242.653,-112 256.459,-98.7274 274.8248,-87.8909 290.5777,-80.0768"/>
<polygon fill="#191970" stroke="#191970" points="292.4541,-83.0603 299.9843,-75.6073 289.4499,-76.7377 292.4541,-83.0603"/>
</g>
<!-- Node8&#45;&gt;Node7 -->
<g id="edge10" class="edge">
<title>Node8&#45;&gt;Node7</title>
<path fill="none" stroke="#191970" d="M213.6719,-168.2455C223.8629,-159.9746 238.6892,-147.9416 250.6637,-138.2232"/>
<polygon fill="#191970" stroke="#191970" points="253.2129,-140.662 258.7719,-131.6427 248.8017,-135.2268 253.2129,-140.662"/>
</g>
<!-- Node9&#45;&gt;Node4 -->
<g id="edge12" class="edge">
<title>Node9&#45;&gt;Node4</title>
<path fill="none" stroke="#191970" d="M323.653,-168.4509C323.653,-150.184 323.653,-109.9553 323.653,-85.6976"/>
<polygon fill="#191970" stroke="#191970" points="327.1531,-85.5249 323.653,-75.5249 320.1531,-85.5249 327.1531,-85.5249"/>
</g>
<!-- Node9&#45;&gt;Node7 -->
<g id="edge13" class="edge">
<title>Node9&#45;&gt;Node7</title>
<path fill="none" stroke="#191970" d="M314.4211,-168.2455C306.8213,-160.2155 295.8653,-148.6394 286.8163,-139.0781"/>
<polygon fill="#191970" stroke="#191970" points="289.195,-136.4998 279.7791,-131.6427 284.111,-141.3115 289.195,-136.4998"/>
</g>
<!-- Node10&#45;&gt;Node4 -->
<g id="edge15" class="edge">
<title>Node10&#45;&gt;Node4</title>
<path fill="none" stroke="#191970" d="M396.8323,-168.4509C383.4302,-149.688 353.4778,-107.7548 336.3373,-83.758"/>
<polygon fill="#191970" stroke="#191970" points="339.117,-81.6279 330.4565,-75.5249 333.4209,-85.6966 339.117,-81.6279"/>
</g>
<!-- Node10&#45;&gt;Node7 -->
<g id="edge16" class="edge">
<title>Node10&#45;&gt;Node7</title>
<path fill="none" stroke="#191970" d="M380.7895,-168.3733C358.2036,-158.8634 323.5941,-144.291 299.2115,-134.0246"/>
<polygon fill="#191970" stroke="#191970" points="300.3485,-130.7058 289.7739,-130.0509 297.6321,-137.1573 300.3485,-130.7058"/>
</g>
<!-- Node11&#45;&gt;Node2 -->
<g id="edge18" class="edge">
<title>Node11&#45;&gt;Node2</title>
<path fill="none" stroke="#191970" d="M45.653,-168.2455C45.653,-160.9382 45.653,-150.6944 45.653,-141.7046"/>
<polygon fill="#191970" stroke="#191970" points="49.1531,-141.6426 45.653,-131.6427 42.1531,-141.6427 49.1531,-141.6426"/>
</g>
<!-- Node11&#45;&gt;Node7 -->
<g id="edge19" class="edge">
<title>Node11&#45;&gt;Node7</title>
<path fill="none" stroke="#191970" d="M77.89,-169.9766C121.6897,-159.0753 199.3577,-139.7446 241.4983,-129.2563"/>
<polygon fill="#191970" stroke="#191970" points="242.5457,-132.6025 251.4043,-126.7908 240.855,-125.8097 242.5457,-132.6025"/>
</g>
<!-- Node12&#45;&gt;Node2 -->
<g id="edge21" class="edge">
<title>Node12&#45;&gt;Node2</title>
<path fill="none" stroke="#191970" d="M109.2406,-168.2455C97.6473,-159.814 80.6783,-147.4729 67.1852,-137.6598"/>
<polygon fill="#191970" stroke="#191970" points="69.0577,-134.6938 58.9117,-131.6427 64.9405,-140.355 69.0577,-134.6938"/>
</g>
<!-- Node12&#45;&gt;Node7 -->
<g id="edge22" class="edge">
<title>Node12&#45;&gt;Node7</title>
<path fill="none" stroke="#191970" d="M148.0951,-168.3733C174.2995,-158.4581 215.0483,-143.0396 242.279,-132.7361"/>
<polygon fill="#191970" stroke="#191970" points="243.5335,-136.0037 251.6477,-129.1912 241.0562,-129.4567 243.5335,-136.0037"/>
</g>
<!-- Node13&#45;&gt;Node7 -->
<g id="edge25" class="edge">
<title>Node13&#45;&gt;Node7</title>
<path fill="none" stroke="#191970" d="M451.422,-170.5037C448.4689,-169.6487 445.4964,-168.7982 442.653,-168 392.4886,-153.9172 333.8144,-138.4365 299.5858,-129.5045"/>
<polygon fill="#191970" stroke="#191970" points="300.3437,-126.0852 289.7844,-126.9515 298.5793,-132.8592 300.3437,-126.0852"/>
</g>
<!-- Node14 -->
<g id="node14" class="node">
<title>Node14</title>
<g id="a_node14"><a xlink:title=" ">
<polygon fill="#ffffff" stroke="#bfbfbf" points="431.653,-112.5 431.653,-131.5 487.653,-131.5 487.653,-112.5 431.653,-112.5"/>
<text text-anchor="middle" x="459.653" y="-119.5" font-family="Helvetica,sans-Serif" font-size="10.00" fill="#000000">stdarg.h</text>
</a>
</g>
</g>
<!-- Node13&#45;&gt;Node14 -->
<g id="edge24" class="edge">
<title>Node13&#45;&gt;Node14</title>
<path fill="none" stroke="#191970" d="M473.6918,-168.2455C471.4492,-160.8579 468.2954,-150.4689 465.5449,-141.4087"/>
<polygon fill="#191970" stroke="#191970" points="468.8342,-140.1948 462.5803,-131.6427 462.1361,-142.2282 468.8342,-140.1948"/>
</g>
</g>
</svg>
