<?xml version="1.0" encoding="UTF-8" standalone="no"?>
<!DOCTYPE svg PUBLIC "-//W3C//DTD SVG 1.1//EN"
 "http://www.w3.org/Graphics/SVG/1.1/DTD/svg11.dtd">
<!-- Generated by graphviz version 2.40.1 (20161225.0304)
 -->
<!-- Title: iop/network/smbman/src/smb_fio.c Pages: 1 -->
<svg width="1162pt" height="263pt"
 viewBox="0.00 0.00 1161.50 263.00" xmlns="http://www.w3.org/2000/svg" xmlns:xlink="http://www.w3.org/1999/xlink">
<g id="graph0" class="graph" transform="scale(1 1) rotate(0) translate(4 259)">
<title>iop/network/smbman/src/smb_fio.c</title>
<polygon fill="#ffffff" stroke="transparent" points="-4,4 -4,-259 1157.5,-259 1157.5,4 -4,4"/>
<!-- Node1 -->
<g id="node1" class="node">
<title>Node1</title>
<g id="a_node1"><a xlink:title=" ">
<polygon fill="#bfbfbf" stroke="#000000" points="557.5,-224.5 557.5,-254.5 677.5,-254.5 677.5,-224.5 557.5,-224.5"/>
<text text-anchor="start" x="565.5" y="-242.5" font-family="Helvetica,sans-Serif" font-size="10.00" fill="#000000">iop/network/smbman</text>
<text text-anchor="middle" x="617.5" y="-231.5" font-family="Helvetica,sans-Serif" font-size="10.00" fill="#000000">/src/smb_fio.c</text>
</a>
</g>
</g>
<!-- Node2 -->
<g id="node2" class="node">
<title>Node2</title>
<g id="a_node2"><a xlink:title=" ">
<polygon fill="#ffffff" stroke="#bfbfbf" points="40,-168.5 40,-187.5 93,-187.5 93,-168.5 40,-168.5"/>
<text text-anchor="middle" x="66.5" y="-175.5" font-family="Helvetica,sans-Serif" font-size="10.00" fill="#000000">types.h</text>
</a>
</g>
</g>
<!-- Node1&#45;&gt;Node2 -->
<g id="edge1" class="edge">
<title>Node1&#45;&gt;Node2</title>
<path fill="none" stroke="#191970" d="M557.4647,-236.1418C461.7467,-230.1819 268.8866,-215.6924 107.5,-188 106.0558,-187.7522 104.5869,-187.4821 103.1062,-187.1946"/>
<polygon fill="#191970" stroke="#191970" points="103.8054,-183.7651 93.2949,-185.0993 102.3433,-190.6107 103.8054,-183.7651"/>
</g>
<!-- Node3 -->
<g id="node3" class="node">
<title>Node3</title>
<g id="a_node3"><a xlink:href="defs_8h.html" target="_top" xlink:title=" ">
<polygon fill="#ffffff" stroke="#000000" points="702,-112.5 702,-131.5 749,-131.5 749,-112.5 702,-112.5"/>
<text text-anchor="middle" x="725.5" y="-119.5" font-family="Helvetica,sans-Serif" font-size="10.00" fill="#000000">defs.h</text>
</a>
</g>
</g>
<!-- Node1&#45;&gt;Node3 -->
<g id="edge2" class="edge">
<title>Node1&#45;&gt;Node3</title>
<path fill="none" stroke="#191970" d="M677.6021,-225.6129C697.2409,-217.9161 716.9541,-206.085 728.5,-188 737.2549,-174.2867 735.387,-155.5077 731.9803,-141.4867"/>
<polygon fill="#191970" stroke="#191970" points="735.3405,-140.5069 729.2256,-131.8548 728.6103,-142.4318 735.3405,-140.5069"/>
</g>
<!-- Node7 -->
<g id="node7" class="node">
<title>Node7</title>
<g id="a_node7"><a xlink:href="irx_8h.html" target="_top" xlink:title=" ">
<polygon fill="#ffffff" stroke="#000000" points="434.5,-112.5 434.5,-131.5 472.5,-131.5 472.5,-112.5 434.5,-112.5"/>
<text text-anchor="middle" x="453.5" y="-119.5" font-family="Helvetica,sans-Serif" font-size="10.00" fill="#000000">irx.h</text>
</a>
</g>
</g>
<!-- Node1&#45;&gt;Node7 -->
<g id="edge6" class="edge">
<title>Node1&#45;&gt;Node7</title>
<path fill="none" stroke="#191970" d="M557.0356,-231.0764C507.8789,-222.8435 444.1911,-208.5388 428.5,-188 417.5352,-173.6477 427.4864,-153.9412 437.9019,-139.805"/>
<polygon fill="#191970" stroke="#191970" points="440.7695,-141.8227 444.2642,-131.8208 435.295,-137.4603 440.7695,-141.8227"/>
</g>
<!-- Node8 -->
<g id="node8" class="node">
<title>Node8</title>
<g id="a_node8"><a xlink:href="intrman_8h.html" target="_top" xlink:title=" ">
<polygon fill="#ffffff" stroke="#000000" points="317.5,-168.5 317.5,-187.5 381.5,-187.5 381.5,-168.5 317.5,-168.5"/>
<text text-anchor="middle" x="349.5" y="-175.5" font-family="Helvetica,sans-Serif" font-size="10.00" fill="#000000">intrman.h</text>
</a>
</g>
</g>
<!-- Node1&#45;&gt;Node8 -->
<g id="edge8" class="edge">
<title>Node1&#45;&gt;Node8</title>
<path fill="none" stroke="#191970" d="M557.3556,-225.6982C506.9582,-214.1331 436.2916,-197.9167 391.714,-187.6872"/>
<polygon fill="#191970" stroke="#191970" points="392.3233,-184.2361 381.7937,-185.4107 390.7576,-191.0587 392.3233,-184.2361"/>
</g>
<!-- Node9 -->
<g id="node9" class="node">
<title>Node9</title>
<g id="a_node9"><a xlink:href="iomanX_8h.html" target="_top" xlink:title=" ">
<polygon fill="#ffffff" stroke="#000000" points="150,-168.5 150,-187.5 213,-187.5 213,-168.5 150,-168.5"/>
<text text-anchor="middle" x="181.5" y="-175.5" font-family="Helvetica,sans-Serif" font-size="10.00" fill="#000000">iomanX.h</text>
</a>
</g>
</g>
<!-- Node1&#45;&gt;Node9 -->
<g id="edge11" class="edge">
<title>Node1&#45;&gt;Node9</title>
<path fill="none" stroke="#191970" d="M557.2858,-233.7234C481.6042,-226.0017 347.5837,-210.8022 223.2855,-187.9695"/>
<polygon fill="#191970" stroke="#191970" points="223.6809,-184.4832 213.2098,-186.0977 222.4023,-191.3654 223.6809,-184.4832"/>
</g>
<!-- Node10 -->
<g id="node10" class="node">
<title>Node10</title>
<g id="a_node10"><a xlink:href="io__common_8h.html" target="_top" xlink:title=" ">
<polygon fill="#ffffff" stroke="#000000" points="80,-112.5 80,-131.5 163,-131.5 163,-112.5 80,-112.5"/>
<text text-anchor="middle" x="121.5" y="-119.5" font-family="Helvetica,sans-Serif" font-size="10.00" fill="#000000">io_common.h</text>
</a>
</g>
</g>
<!-- Node1&#45;&gt;Node10 -->
<g id="edge19" class="edge">
<title>Node1&#45;&gt;Node10</title>
<path fill="none" stroke="#191970" d="M557.2513,-236.7141C436.0967,-230.5817 171.8216,-214.3296 140.5,-188 127.2627,-176.8724 122.9258,-157.17 121.6533,-142.18"/>
<polygon fill="#191970" stroke="#191970" points="125.1344,-141.6852 121.1809,-131.8557 118.1418,-142.0053 125.1344,-141.6852"/>
</g>
<!-- Node15 -->
<g id="node15" class="node">
<title>Node15</title>
<g id="a_node15"><a xlink:href="sifman_8h.html" target="_top" xlink:title=" ">
<polygon fill="#ffffff" stroke="#000000" points="438,-168.5 438,-187.5 497,-187.5 497,-168.5 438,-168.5"/>
<text text-anchor="middle" x="467.5" y="-175.5" font-family="Helvetica,sans-Serif" font-size="10.00" fill="#000000">sifman.h</text>
</a>
</g>
</g>
<!-- Node1&#45;&gt;Node15 -->
<g id="edge20" class="edge">
<title>Node1&#45;&gt;Node15</title>
<path fill="none" stroke="#191970" d="M580.8059,-224.4554C556.1073,-214.329 523.8326,-201.0964 500.0494,-191.3453"/>
<polygon fill="#191970" stroke="#191970" points="501.325,-188.0855 490.7447,-187.5303 498.6694,-194.5623 501.325,-188.0855"/>
</g>
<!-- Node16 -->
<g id="node16" class="node">
<title>Node16</title>
<g id="a_node16"><a xlink:href="stdio_8h.html" target="_top" xlink:title=" ">
<polygon fill="#ffffff" stroke="#000000" points="592.5,-168.5 592.5,-187.5 642.5,-187.5 642.5,-168.5 592.5,-168.5"/>
<text text-anchor="middle" x="617.5" y="-175.5" font-family="Helvetica,sans-Serif" font-size="10.00" fill="#000000">stdio.h</text>
</a>
</g>
</g>
<!-- Node1&#45;&gt;Node16 -->
<g id="edge23" class="edge">
<title>Node1&#45;&gt;Node16</title>
<path fill="none" stroke="#191970" d="M617.5,-224.2977C617.5,-216.3834 617.5,-206.6043 617.5,-198.0759"/>
<polygon fill="#191970" stroke="#191970" points="621.0001,-197.8469 617.5,-187.8469 614.0001,-197.847 621.0001,-197.8469"/>
</g>
<!-- Node18 -->
<g id="node18" class="node">
<title>Node18</title>
<g id="a_node18"><a xlink:href="sysclib_8h.html" target="_top" xlink:title=" ">
<polygon fill="#ffffff" stroke="#000000" points="661,-168.5 661,-187.5 720,-187.5 720,-168.5 661,-168.5"/>
<text text-anchor="middle" x="690.5" y="-175.5" font-family="Helvetica,sans-Serif" font-size="10.00" fill="#000000">sysclib.h</text>
</a>
</g>
</g>
<!-- Node1&#45;&gt;Node18 -->
<g id="edge26" class="edge">
<title>Node1&#45;&gt;Node18</title>
<path fill="none" stroke="#191970" d="M635.5449,-224.2977C646.3114,-215.2274 659.9851,-203.7077 670.9995,-194.4285"/>
<polygon fill="#191970" stroke="#191970" points="673.4191,-196.9667 678.8118,-187.8469 668.9089,-191.6132 673.4191,-196.9667"/>
</g>
<!-- Node20 -->
<g id="node20" class="node">
<title>Node20</title>
<g id="a_node20"><a xlink:href="thbase_8h.html" target="_top" xlink:title=" ">
<polygon fill="#ffffff" stroke="#000000" points="515,-168.5 515,-187.5 574,-187.5 574,-168.5 515,-168.5"/>
<text text-anchor="middle" x="544.5" y="-175.5" font-family="Helvetica,sans-Serif" font-size="10.00" fill="#000000">thbase.h</text>
</a>
</g>
</g>
<!-- Node1&#45;&gt;Node20 -->
<g id="edge32" class="edge">
<title>Node1&#45;&gt;Node20</title>
<path fill="none" stroke="#191970" d="M599.4551,-224.2977C588.6886,-215.2274 575.0149,-203.7077 564.0005,-194.4285"/>
<polygon fill="#191970" stroke="#191970" points="566.0911,-191.6132 556.1882,-187.8469 561.5809,-196.9667 566.0911,-191.6132"/>
</g>
<!-- Node21 -->
<g id="node21" class="node">
<title>Node21</title>
<g id="a_node21"><a xlink:href="thsemap_8h.html" target="_top" xlink:title=" ">
<polygon fill="#ffffff" stroke="#000000" points="231.5,-168.5 231.5,-187.5 299.5,-187.5 299.5,-168.5 231.5,-168.5"/>
<text text-anchor="middle" x="265.5" y="-175.5" font-family="Helvetica,sans-Serif" font-size="10.00" fill="#000000">thsemap.h</text>
</a>
</g>
</g>
<!-- Node1&#45;&gt;Node21 -->
<g id="edge35" class="edge">
<title>Node1&#45;&gt;Node21</title>
<path fill="none" stroke="#191970" d="M557.4809,-230.6496C497.2646,-221.51 401.652,-206.2931 309.754,-188.1591"/>
<polygon fill="#191970" stroke="#191970" points="310.2157,-184.6824 299.7252,-186.1654 308.8508,-191.5481 310.2157,-184.6824"/>
</g>
<!-- Node22 -->
<g id="node22" class="node">
<title>Node22</title>
<g id="a_node22"><a xlink:href="errno_8h.html" target="_top" xlink:title=" ">
<polygon fill="#ffffff" stroke="#000000" points="777,-168.5 777,-187.5 828,-187.5 828,-168.5 777,-168.5"/>
<text text-anchor="middle" x="802.5" y="-175.5" font-family="Helvetica,sans-Serif" font-size="10.00" fill="#000000">errno.h</text>
</a>
</g>
</g>
<!-- Node1&#45;&gt;Node22 -->
<g id="edge38" class="edge">
<title>Node1&#45;&gt;Node22</title>
<path fill="none" stroke="#191970" d="M662.7561,-224.4554C694.9518,-213.7525 737.5854,-199.5797 767.2597,-189.715"/>
<polygon fill="#191970" stroke="#191970" points="768.4072,-193.0219 776.7925,-186.546 766.199,-186.3794 768.4072,-193.0219"/>
</g>
<!-- Node23 -->
<g id="node23" class="node">
<title>Node23</title>
<g id="a_node23"><a xlink:href="ps2smb_8h.html" target="_top" xlink:title=" ">
<polygon fill="#ffffff" stroke="#000000" points="824.5,-112.5 824.5,-131.5 888.5,-131.5 888.5,-112.5 824.5,-112.5"/>
<text text-anchor="middle" x="856.5" y="-119.5" font-family="Helvetica,sans-Serif" font-size="10.00" fill="#000000">ps2smb.h</text>
</a>
</g>
</g>
<!-- Node1&#45;&gt;Node23 -->
<g id="edge39" class="edge">
<title>Node1&#45;&gt;Node23</title>
<path fill="none" stroke="#191970" d="M677.7138,-232.1508C734.3649,-224.0633 813.7889,-209.3178 836.5,-188 849.1607,-176.116 853.8952,-156.5143 855.6208,-141.7536"/>
<polygon fill="#191970" stroke="#191970" points="859.123,-141.866 856.4354,-131.6178 852.1455,-141.3052 859.123,-141.866"/>
</g>
<!-- Node24 -->
<g id="node24" class="node">
<title>Node24</title>
<g id="a_node24"><a xlink:href="smb__fio_8h.html" target="_top" xlink:title=" ">
<polygon fill="#ffffff" stroke="#000000" points="884.5,-168.5 884.5,-187.5 948.5,-187.5 948.5,-168.5 884.5,-168.5"/>
<text text-anchor="middle" x="916.5" y="-175.5" font-family="Helvetica,sans-Serif" font-size="10.00" fill="#000000">smb_fio.h</text>
</a>
</g>
</g>
<!-- Node1&#45;&gt;Node24 -->
<g id="edge41" class="edge">
<title>Node1&#45;&gt;Node24</title>
<path fill="none" stroke="#191970" d="M677.6103,-227.4971C728.9009,-217.1996 804.5952,-201.8706 870.5,-188 871.7596,-187.7349 873.0383,-187.4646 874.329,-187.1907"/>
<polygon fill="#191970" stroke="#191970" points="875.295,-190.5633 884.341,-185.0479 873.8299,-183.7183 875.295,-190.5633"/>
</g>
<!-- Node25 -->
<g id="node25" class="node">
<title>Node25</title>
<g id="a_node25"><a xlink:href="smb_8h.html" target="_top" xlink:title=" ">
<polygon fill="#ffffff" stroke="#000000" points="967,-168.5 967,-187.5 1014,-187.5 1014,-168.5 967,-168.5"/>
<text text-anchor="middle" x="990.5" y="-175.5" font-family="Helvetica,sans-Serif" font-size="10.00" fill="#000000">smb.h</text>
</a>
</g>
</g>
<!-- Node1&#45;&gt;Node25 -->
<g id="edge42" class="edge">
<title>Node1&#45;&gt;Node25</title>
<path fill="none" stroke="#191970" d="M677.5617,-233.0527C743.7483,-225.3557 853.4223,-210.8563 956.83,-187.8732"/>
<polygon fill="#191970" stroke="#191970" points="957.8302,-191.2356 966.8159,-185.6225 956.2911,-184.4069 957.8302,-191.2356"/>
</g>
<!-- Node26 -->
<g id="node26" class="node">
<title>Node26</title>
<g id="a_node26"><a xlink:href="auth_8h.html" target="_top" xlink:title=" ">
<polygon fill="#ffffff" stroke="#000000" points="1032,-168.5 1032,-187.5 1079,-187.5 1079,-168.5 1032,-168.5"/>
<text text-anchor="middle" x="1055.5" y="-175.5" font-family="Helvetica,sans-Serif" font-size="10.00" fill="#000000">auth.h</text>
</a>
</g>
</g>
<!-- Node1&#45;&gt;Node26 -->
<g id="edge44" class="edge">
<title>Node1&#45;&gt;Node26</title>
<path fill="none" stroke="#191970" d="M677.5704,-235.2177C755.2863,-228.9392 894.8698,-215.1557 1021.9538,-188.0453"/>
<polygon fill="#191970" stroke="#191970" points="1022.8273,-191.4373 1031.8594,-185.8992 1021.345,-184.5961 1022.8273,-191.4373"/>
</g>
<!-- Node27 -->
<g id="node27" class="node">
<title>Node27</title>
<g id="a_node27"><a xlink:href="debug_8h.html" target="_top" xlink:title=" ">
<polygon fill="#ffffff" stroke="#000000" points="1097.5,-168.5 1097.5,-187.5 1153.5,-187.5 1153.5,-168.5 1097.5,-168.5"/>
<text text-anchor="middle" x="1125.5" y="-175.5" font-family="Helvetica,sans-Serif" font-size="10.00" fill="#000000">debug.h</text>
</a>
</g>
</g>
<!-- Node1&#45;&gt;Node27 -->
<g id="edge45" class="edge">
<title>Node1&#45;&gt;Node27</title>
<path fill="none" stroke="#191970" d="M677.7916,-235.9103C765.8725,-230.005 934.932,-216.1707 1087.3108,-187.9767"/>
<polygon fill="#191970" stroke="#191970" points="1088.1392,-191.3825 1097.3225,-186.0988 1086.8486,-184.5024 1088.1392,-191.3825"/>
</g>
<!-- Node4 -->
<g id="node4" class="node">
<title>Node4</title>
<g id="a_node4"><a xlink:href="types_8h.html" target="_top" xlink:title=" ">
<polygon fill="#ffffff" stroke="#000000" points="474,-56.5 474,-75.5 527,-75.5 527,-56.5 474,-56.5"/>
<text text-anchor="middle" x="500.5" y="-63.5" font-family="Helvetica,sans-Serif" font-size="10.00" fill="#000000">types.h</text>
</a>
</g>
</g>
<!-- Node3&#45;&gt;Node4 -->
<g id="edge3" class="edge">
<title>Node3&#45;&gt;Node4</title>
<path fill="none" stroke="#191970" d="M701.7986,-115.6997C697.0658,-114.4595 692.1277,-113.178 687.5,-112 635.3768,-98.7317 574.9159,-83.9737 537.1803,-74.838"/>
<polygon fill="#191970" stroke="#191970" points="537.7079,-71.3648 527.1654,-72.4163 536.0626,-78.1687 537.7079,-71.3648"/>
</g>
<!-- Node5 -->
<g id="node5" class="node">
<title>Node5</title>
<g id="a_node5"><a xlink:title=" ">
<polygon fill="#ffffff" stroke="#bfbfbf" points="472.5,-.5 472.5,-19.5 528.5,-19.5 528.5,-.5 472.5,-.5"/>
<text text-anchor="middle" x="500.5" y="-7.5" font-family="Helvetica,sans-Serif" font-size="10.00" fill="#000000">stddef.h</text>
</a>
</g>
</g>
<!-- Node4&#45;&gt;Node5 -->
<g id="edge4" class="edge">
<title>Node4&#45;&gt;Node5</title>
<path fill="none" stroke="#191970" d="M500.5,-56.2455C500.5,-48.9382 500.5,-38.6944 500.5,-29.7046"/>
<polygon fill="#191970" stroke="#191970" points="504.0001,-29.6426 500.5,-19.6427 497.0001,-29.6427 504.0001,-29.6426"/>
</g>
<!-- Node6 -->
<g id="node6" class="node">
<title>Node6</title>
<g id="a_node6"><a xlink:href="tamtypes_8h.html" target="_top" xlink:title=" ">
<polygon fill="#ffffff" stroke="#000000" points="741.5,-.5 741.5,-19.5 813.5,-19.5 813.5,-.5 741.5,-.5"/>
<text text-anchor="middle" x="777.5" y="-7.5" font-family="Helvetica,sans-Serif" font-size="10.00" fill="#000000">tamtypes.h</text>
</a>
</g>
</g>
<!-- Node4&#45;&gt;Node6 -->
<g id="edge5" class="edge">
<title>Node4&#45;&gt;Node6</title>
<path fill="none" stroke="#191970" d="M527.0599,-60.6305C574.1967,-51.101 673.0019,-31.126 731.4302,-19.3138"/>
<polygon fill="#191970" stroke="#191970" points="732.3898,-22.6906 741.4979,-17.2784 731.0027,-15.8294 732.3898,-22.6906"/>
</g>
<!-- Node7&#45;&gt;Node4 -->
<g id="edge7" class="edge">
<title>Node7&#45;&gt;Node4</title>
<path fill="none" stroke="#191970" d="M461.6868,-112.2455C468.3589,-104.2958 477.9479,-92.8706 485.9253,-83.3656"/>
<polygon fill="#191970" stroke="#191970" points="488.6592,-85.5525 492.407,-75.6427 483.2974,-81.0524 488.6592,-85.5525"/>
</g>
<!-- Node8&#45;&gt;Node4 -->
<g id="edge9" class="edge">
<title>Node8&#45;&gt;Node4</title>
<path fill="none" stroke="#191970" d="M359.3802,-168.4747C373.4701,-155.1159 400.4137,-130.392 425.5,-112 440.961,-100.6648 459.289,-89.3875 473.9566,-80.8359"/>
<polygon fill="#191970" stroke="#191970" points="476.075,-83.6553 482.9999,-75.6367 472.586,-77.5868 476.075,-83.6553"/>
</g>
<!-- Node8&#45;&gt;Node7 -->
<g id="edge10" class="edge">
<title>Node8&#45;&gt;Node7</title>
<path fill="none" stroke="#191970" d="M367.6154,-168.2455C383.945,-159.4527 408.171,-146.4079 426.7339,-136.4125"/>
<polygon fill="#191970" stroke="#191970" points="428.4468,-139.4654 435.5922,-131.6427 425.1281,-133.3021 428.4468,-139.4654"/>
</g>
<!-- Node9&#45;&gt;Node4 -->
<g id="edge12" class="edge">
<title>Node9&#45;&gt;Node4</title>
<path fill="none" stroke="#191970" d="M205.1228,-168.4777C238.2807,-155.2289 300.6094,-130.7509 354.5,-112 391.5464,-99.1099 434.4068,-85.7925 464.0622,-76.8253"/>
<polygon fill="#191970" stroke="#191970" points="465.4033,-80.0768 473.9699,-73.8427 463.3854,-73.3739 465.4033,-80.0768"/>
</g>
<!-- Node9&#45;&gt;Node7 -->
<g id="edge13" class="edge">
<title>Node9&#45;&gt;Node7</title>
<path fill="none" stroke="#191970" d="M213.2529,-170.1137C216.3733,-169.3813 219.4955,-168.6652 222.5,-168 294.7917,-151.9937 380.3838,-135.6171 424.2951,-127.4018"/>
<polygon fill="#191970" stroke="#191970" points="425.087,-130.8145 434.276,-125.5409 423.8039,-123.9331 425.087,-130.8145"/>
</g>
<!-- Node9&#45;&gt;Node10 -->
<g id="edge14" class="edge">
<title>Node9&#45;&gt;Node10</title>
<path fill="none" stroke="#191970" d="M171.0488,-168.2455C162.2731,-160.0549 149.5446,-148.1749 139.186,-138.5069"/>
<polygon fill="#191970" stroke="#191970" points="141.5301,-135.9072 131.8314,-131.6427 136.7539,-141.0246 141.5301,-135.9072"/>
</g>
<!-- Node13 -->
<g id="node13" class="node">
<title>Node13</title>
<g id="a_node13"><a xlink:href="iox__stat_8h.html" target="_top" xlink:title=" ">
<polygon fill="#ffffff" stroke="#000000" points="181,-112.5 181,-131.5 246,-131.5 246,-112.5 181,-112.5"/>
<text text-anchor="middle" x="213.5" y="-119.5" font-family="Helvetica,sans-Serif" font-size="10.00" fill="#000000">iox_stat.h</text>
</a>
</g>
</g>
<!-- Node9&#45;&gt;Node13 -->
<g id="edge17" class="edge">
<title>Node9&#45;&gt;Node13</title>
<path fill="none" stroke="#191970" d="M187.074,-168.2455C191.4331,-160.617 197.6211,-149.7881 202.9133,-140.5267"/>
<polygon fill="#191970" stroke="#191970" points="206.0673,-142.0616 207.9899,-131.6427 199.9896,-138.5886 206.0673,-142.0616"/>
</g>
<!-- Node11 -->
<g id="node11" class="node">
<title>Node11</title>
<g id="a_node11"><a xlink:href="fcntl_8h.html" target="_top" xlink:title=" ">
<polygon fill="#ffffff" stroke="#000000" points="0,-56.5 0,-75.5 67,-75.5 67,-56.5 0,-56.5"/>
<text text-anchor="middle" x="33.5" y="-63.5" font-family="Helvetica,sans-Serif" font-size="10.00" fill="#000000">sys/fcntl.h</text>
</a>
</g>
</g>
<!-- Node10&#45;&gt;Node11 -->
<g id="edge15" class="edge">
<title>Node10&#45;&gt;Node11</title>
<path fill="none" stroke="#191970" d="M106.1716,-112.2455C92.6697,-103.6534 72.7878,-91.0014 57.2314,-81.1018"/>
<polygon fill="#191970" stroke="#191970" points="58.9685,-78.0587 48.6528,-75.6427 55.2103,-83.9643 58.9685,-78.0587"/>
</g>
<!-- Node12 -->
<g id="node12" class="node">
<title>Node12</title>
<g id="a_node12"><a xlink:href="unistd_8h.html" target="_top" xlink:title=" ">
<polygon fill="#ffffff" stroke="#000000" points="85,-56.5 85,-75.5 160,-75.5 160,-56.5 85,-56.5"/>
<text text-anchor="middle" x="122.5" y="-63.5" font-family="Helvetica,sans-Serif" font-size="10.00" fill="#000000">sys/unistd.h</text>
</a>
</g>
</g>
<!-- Node10&#45;&gt;Node12 -->
<g id="edge16" class="edge">
<title>Node10&#45;&gt;Node12</title>
<path fill="none" stroke="#191970" d="M121.6742,-112.2455C121.8047,-104.9382 121.9876,-94.6944 122.1481,-85.7046"/>
<polygon fill="#191970" stroke="#191970" points="125.6486,-85.7036 122.3278,-75.6427 118.6497,-85.5786 125.6486,-85.7036"/>
</g>
<!-- Node14 -->
<g id="node14" class="node">
<title>Node14</title>
<g id="a_node14"><a xlink:href="time_8h.html" target="_top" xlink:title=" ">
<polygon fill="#ffffff" stroke="#000000" points="179.5,-56.5 179.5,-75.5 247.5,-75.5 247.5,-56.5 179.5,-56.5"/>
<text text-anchor="middle" x="213.5" y="-63.5" font-family="Helvetica,sans-Serif" font-size="10.00" fill="#000000">sys/time.h</text>
</a>
</g>
</g>
<!-- Node13&#45;&gt;Node14 -->
<g id="edge18" class="edge">
<title>Node13&#45;&gt;Node14</title>
<path fill="none" stroke="#191970" d="M213.5,-112.2455C213.5,-104.9382 213.5,-94.6944 213.5,-85.7046"/>
<polygon fill="#191970" stroke="#191970" points="217.0001,-85.6426 213.5,-75.6427 210.0001,-85.6427 217.0001,-85.6426"/>
</g>
<!-- Node15&#45;&gt;Node4 -->
<g id="edge21" class="edge">
<title>Node15&#45;&gt;Node4</title>
<path fill="none" stroke="#191970" d="M470.4378,-168.4979C473.3001,-159.205 477.7554,-144.6468 481.5,-132 486.1018,-116.4582 491.1738,-98.8122 494.9191,-85.6789"/>
<polygon fill="#191970" stroke="#191970" points="498.3444,-86.4296 497.7137,-75.8535 491.6114,-84.5145 498.3444,-86.4296"/>
</g>
<!-- Node15&#45;&gt;Node7 -->
<g id="edge22" class="edge">
<title>Node15&#45;&gt;Node7</title>
<path fill="none" stroke="#191970" d="M465.0614,-168.2455C463.2145,-160.8579 460.6172,-150.4689 458.3522,-141.4087"/>
<polygon fill="#191970" stroke="#191970" points="461.7316,-140.4952 455.9107,-131.6427 454.9406,-142.193 461.7316,-140.4952"/>
</g>
<!-- Node16&#45;&gt;Node7 -->
<g id="edge25" class="edge">
<title>Node16&#45;&gt;Node7</title>
<path fill="none" stroke="#191970" d="M592.2344,-169.3727C562.6891,-159.2841 513.8698,-142.6141 482.7203,-131.9777"/>
<polygon fill="#191970" stroke="#191970" points="483.4819,-128.5394 472.8874,-128.6201 481.2198,-135.1638 483.4819,-128.5394"/>
</g>
<!-- Node17 -->
<g id="node17" class="node">
<title>Node17</title>
<g id="a_node17"><a xlink:title=" ">
<polygon fill="#ffffff" stroke="#bfbfbf" points="589.5,-112.5 589.5,-131.5 645.5,-131.5 645.5,-112.5 589.5,-112.5"/>
<text text-anchor="middle" x="617.5" y="-119.5" font-family="Helvetica,sans-Serif" font-size="10.00" fill="#000000">stdarg.h</text>
</a>
</g>
</g>
<!-- Node16&#45;&gt;Node17 -->
<g id="edge24" class="edge">
<title>Node16&#45;&gt;Node17</title>
<path fill="none" stroke="#191970" d="M617.5,-168.2455C617.5,-160.9382 617.5,-150.6944 617.5,-141.7046"/>
<polygon fill="#191970" stroke="#191970" points="621.0001,-141.6426 617.5,-131.6427 614.0001,-141.6427 621.0001,-141.6426"/>
</g>
<!-- Node18&#45;&gt;Node4 -->
<g id="edge27" class="edge">
<title>Node18&#45;&gt;Node4</title>
<path fill="none" stroke="#191970" d="M687.8418,-168.3921C683.3667,-154.003 672.9582,-126.9526 654.5,-112 620.7513,-84.6608 571.1098,-73.5615 537.3786,-69.0607"/>
<polygon fill="#191970" stroke="#191970" points="537.372,-65.5349 527.0263,-67.8191 536.5383,-72.4851 537.372,-65.5349"/>
</g>
<!-- Node18&#45;&gt;Node7 -->
<g id="edge28" class="edge">
<title>Node18&#45;&gt;Node7</title>
<path fill="none" stroke="#191970" d="M660.707,-170.2865C657.6004,-169.5044 654.4877,-168.73 651.5,-168 591.6484,-153.3763 521.3434,-137.3044 482.6794,-128.561"/>
<polygon fill="#191970" stroke="#191970" points="483.1735,-125.0845 472.6482,-126.2965 481.632,-131.9127 483.1735,-125.0845"/>
</g>
<!-- Node18&#45;&gt;Node17 -->
<g id="edge29" class="edge">
<title>Node18&#45;&gt;Node17</title>
<path fill="none" stroke="#191970" d="M677.7844,-168.2455C666.898,-159.8943 651.0117,-147.7076 638.28,-137.9408"/>
<polygon fill="#191970" stroke="#191970" points="640.1346,-134.9523 630.0699,-131.6427 635.8739,-140.5063 640.1346,-134.9523"/>
</g>
<!-- Node19 -->
<g id="node19" class="node">
<title>Node19</title>
<g id="a_node19"><a xlink:href="setjmp_8h.html" target="_top" xlink:title=" ">
<polygon fill="#ffffff" stroke="#000000" points="748,-56.5 748,-75.5 807,-75.5 807,-56.5 748,-56.5"/>
<text text-anchor="middle" x="777.5" y="-63.5" font-family="Helvetica,sans-Serif" font-size="10.00" fill="#000000">setjmp.h</text>
</a>
</g>
</g>
<!-- Node18&#45;&gt;Node19 -->
<g id="edge30" class="edge">
<title>Node18&#45;&gt;Node19</title>
<path fill="none" stroke="#191970" d="M711.4873,-168.3777C726.3484,-160.554 745.6688,-148.1694 757.5,-132 767.4302,-118.4287 772.4843,-99.8823 775.0237,-85.9051"/>
<polygon fill="#191970" stroke="#191970" points="778.5082,-86.2728 776.5662,-75.8575 771.5892,-85.2105 778.5082,-86.2728"/>
</g>
<!-- Node19&#45;&gt;Node6 -->
<g id="edge31" class="edge">
<title>Node19&#45;&gt;Node6</title>
<path fill="none" stroke="#191970" d="M777.5,-56.2455C777.5,-48.9382 777.5,-38.6944 777.5,-29.7046"/>
<polygon fill="#191970" stroke="#191970" points="781.0001,-29.6426 777.5,-19.6427 774.0001,-29.6427 781.0001,-29.6426"/>
</g>
<!-- Node20&#45;&gt;Node4 -->
<g id="edge33" class="edge">
<title>Node20&#45;&gt;Node4</title>
<path fill="none" stroke="#191970" d="M540.7486,-168.4509C533.5073,-150.0186 517.4814,-109.2254 507.9812,-85.043"/>
<polygon fill="#191970" stroke="#191970" points="511.1561,-83.5526 504.2419,-75.5249 504.6409,-86.1122 511.1561,-83.5526"/>
</g>
<!-- Node20&#45;&gt;Node7 -->
<g id="edge34" class="edge">
<title>Node20&#45;&gt;Node7</title>
<path fill="none" stroke="#191970" d="M528.649,-168.2455C514.6868,-159.6534 494.1272,-147.0014 478.0404,-137.1018"/>
<polygon fill="#191970" stroke="#191970" points="479.5203,-133.9029 469.1693,-131.6427 475.8516,-139.8645 479.5203,-133.9029"/>
</g>
<!-- Node21&#45;&gt;Node4 -->
<g id="edge36" class="edge">
<title>Node21&#45;&gt;Node4</title>
<path fill="none" stroke="#191970" d="M284.3341,-168.3795C310.0088,-155.3279 357.4953,-131.4121 398.5,-112 422.0383,-100.8567 448.8962,-88.7693 469.1416,-79.7826"/>
<polygon fill="#191970" stroke="#191970" points="470.778,-82.8859 478.5056,-75.6378 467.9447,-76.4849 470.778,-82.8859"/>
</g>
<!-- Node21&#45;&gt;Node7 -->
<g id="edge37" class="edge">
<title>Node21&#45;&gt;Node7</title>
<path fill="none" stroke="#191970" d="M297.8184,-168.3733C333.4966,-157.7457 390.4007,-140.7955 424.6341,-130.5983"/>
<polygon fill="#191970" stroke="#191970" points="425.8972,-133.8742 434.4819,-127.665 423.8988,-127.1655 425.8972,-133.8742"/>
</g>
<!-- Node23&#45;&gt;Node6 -->
<g id="edge40" class="edge">
<title>Node23&#45;&gt;Node6</title>
<path fill="none" stroke="#191970" d="M851.0499,-112.3404C843.5385,-99.2445 829.3554,-75.2787 815.5,-56 808.427,-46.1584 799.8818,-35.7043 792.6875,-27.2532"/>
<polygon fill="#191970" stroke="#191970" points="795.2336,-24.8465 786.048,-19.5667 789.9362,-29.4223 795.2336,-24.8465"/>
</g>
<!-- Node25&#45;&gt;Node23 -->
<g id="edge43" class="edge">
<title>Node25&#45;&gt;Node23</title>
<path fill="none" stroke="#191970" d="M967.4646,-168.3733C945.7612,-159.3032 913.0382,-145.6279 888.745,-135.4755"/>
<polygon fill="#191970" stroke="#191970" points="889.8111,-132.1278 879.2348,-131.5011 887.1119,-138.5865 889.8111,-132.1278"/>
</g>
</g>
</svg>
