<?xml version="1.0" encoding="UTF-8" standalone="no"?>
<!DOCTYPE svg PUBLIC "-//W3C//DTD SVG 1.1//EN"
 "http://www.w3.org/Graphics/SVG/1.1/DTD/svg11.dtd">
<!-- Generated by graphviz version 2.40.1 (20161225.0304)
 -->
<!-- Title: iop/network/smbman/src/smbman.c Pages: 1 -->
<!--zoomable 263 -->
<svg id="main" version="1.1" xmlns="http://www.w3.org/2000/svg" xmlns:xlink="http://www.w3.org/1999/xlink" xml:space="preserve" onload="init(evt)">
<style type="text/css"><![CDATA[
.edge:hover path { stroke: red; }
.edge:hover polygon { stroke: red; fill: red; }
]]></style>
<script type="text/javascript"><![CDATA[
var edges = document.getElementsByTagName('g');
if (edges && edges.length) {
  for (var i=0;i<edges.length;i++) {
    if (edges[i].id.substr(0,4)=='edge') {
      edges[i].setAttribute('class','edge');
    }
  }
}
]]></script>
        <defs>
                <circle id="rim" cx="0" cy="0" r="7"/>
                <circle id="rim2" cx="0" cy="0" r="3.5"/>
                <g id="zoomPlus">
                        <use xlink:href="#rim" fill="#404040">
                                <set attributeName="fill" to="#808080" begin="zoomplus.mouseover" end="zoomplus.mouseout"/>
                        </use>
                        <path d="M-4,0h8M0,-4v8" fill="none" stroke="white" stroke-width="1.5" pointer-events="none"/>
                </g>
                <g id="zoomMin">
                        <use xlink:href="#rim" fill="#404040">
                                <set attributeName="fill" to="#808080" begin="zoomminus.mouseover" end="zoomminus.mouseout"/>
                        </use>
                        <path d="M-4,0h8" fill="none" stroke="white" stroke-width="1.5" pointer-events="none"/>
                </g>
                <g id="dirArrow">
                        <path fill="none" stroke="white" stroke-width="1.5" d="M0,-3.0v7 M-2.5,-0.5L0,-3.0L2.5,-0.5"/>
                </g>
               <g id="resetDef">
                       <use xlink:href="#rim2" fill="#404040">
                               <set attributeName="fill" to="#808080" begin="reset.mouseover" end="reset.mouseout"/>
                       </use>
               </g>
        </defs>

<script type="text/javascript">
var viewWidth = 717;
var viewHeight = 263;
var sectionId = 'dynsection-0';
</script>
<script xlink:href="svgpan.js"/>
<svg id="graph" class="graph">
<g id="viewport">
<title>iop/network/smbman/src/smbman.c</title>
<polygon fill="#ffffff" stroke="transparent" points="-4,4 -4,-259 713,-259 713,4 -4,4"/>
<!-- Node1 -->
<g id="node1" class="node">
<title>Node1</title>
<g id="a_node1"><a xlink:title=" ">
<polygon fill="#bfbfbf" stroke="#000000" points="325,-224.5 325,-254.5 445,-254.5 445,-224.5 325,-224.5"/>
<text text-anchor="start" x="333" y="-242.5" font-family="Helvetica,sans-Serif" font-size="10.00" fill="#000000">iop/network/smbman</text>
<text text-anchor="middle" x="385" y="-231.5" font-family="Helvetica,sans-Serif" font-size="10.00" fill="#000000">/src/smbman.c</text>
</a>
</g>
</g>
<!-- Node2 -->
<g id="node2" class="node">
<title>Node2</title>
<g id="a_node2"><a xlink:title=" ">
<polygon fill="#ffffff" stroke="#bfbfbf" points="72.5,-168.5 72.5,-187.5 125.5,-187.5 125.5,-168.5 72.5,-168.5"/>
<text text-anchor="middle" x="99" y="-175.5" font-family="Helvetica,sans-Serif" font-size="10.00" fill="#000000">types.h</text>
</a>
</g>
</g>
<!-- Node1&#45;&gt;Node2 -->
<g id="edge1" class="edge">
<title>Node1&#45;&gt;Node2</title>
<path fill="none" stroke="#191970" d="M324.8707,-228.4925C276.1357,-219.2679 205.5014,-205.2153 135.5595,-188.2645"/>
<polygon fill="#191970" stroke="#191970" points="136.2424,-184.8285 125.6973,-185.8536 134.5801,-191.6282 136.2424,-184.8285"/>
</g>
<!-- Node3 -->
<g id="node3" class="node">
<title>Node3</title>
<g id="a_node3"><a xlink:href="defs_8h.html" target="_top" xlink:title=" ">
<polygon fill="#ffffff" stroke="#000000" points="224.5,-112.5 224.5,-131.5 271.5,-131.5 271.5,-112.5 224.5,-112.5"/>
<text text-anchor="middle" x="248" y="-119.5" font-family="Helvetica,sans-Serif" font-size="10.00" fill="#000000">defs.h</text>
</a>
</g>
</g>
<!-- Node1&#45;&gt;Node3 -->
<g id="edge2" class="edge">
<title>Node1&#45;&gt;Node3</title>
<path fill="none" stroke="#191970" d="M324.9002,-230.3023C299.0084,-223.1594 270.8605,-210.4834 254,-188 244.1958,-174.9262 243.4237,-156.0436 244.6793,-141.8221"/>
<polygon fill="#191970" stroke="#191970" points="248.1876,-141.9799 245.9872,-131.6161 241.2444,-141.09 248.1876,-141.9799"/>
</g>
<!-- Node7 -->
<g id="node7" class="node">
<title>Node7</title>
<g id="a_node7"><a xlink:href="irx_8h.html" target="_top" xlink:title=" ">
<polygon fill="#ffffff" stroke="#000000" points="328,-112.5 328,-131.5 366,-131.5 366,-112.5 328,-112.5"/>
<text text-anchor="middle" x="347" y="-119.5" font-family="Helvetica,sans-Serif" font-size="10.00" fill="#000000">irx.h</text>
</a>
</g>
</g>
<!-- Node1&#45;&gt;Node7 -->
<g id="edge6" class="edge">
<title>Node1&#45;&gt;Node7</title>
<path fill="none" stroke="#191970" d="M380.0322,-224.1389C373.1547,-202.873 360.7351,-164.4702 353.2403,-141.2956"/>
<polygon fill="#191970" stroke="#191970" points="356.4989,-139.9973 350.0916,-131.5595 349.8386,-142.1513 356.4989,-139.9973"/>
</g>
<!-- Node8 -->
<g id="node8" class="node">
<title>Node8</title>
<g id="a_node8"><a xlink:href="iomanX_8h.html" target="_top" xlink:title=" ">
<polygon fill="#ffffff" stroke="#000000" points="143.5,-168.5 143.5,-187.5 206.5,-187.5 206.5,-168.5 143.5,-168.5"/>
<text text-anchor="middle" x="175" y="-175.5" font-family="Helvetica,sans-Serif" font-size="10.00" fill="#000000">iomanX.h</text>
</a>
</g>
</g>
<!-- Node1&#45;&gt;Node8 -->
<g id="edge8" class="edge">
<title>Node1&#45;&gt;Node8</title>
<path fill="none" stroke="#191970" d="M333.6282,-224.4554C297.6443,-213.9173 250.1738,-200.0152 216.5684,-190.1736"/>
<polygon fill="#191970" stroke="#191970" points="217.1929,-186.7095 206.6123,-187.2579 215.2255,-193.4274 217.1929,-186.7095"/>
</g>
<!-- Node14 -->
<g id="node14" class="node">
<title>Node14</title>
<g id="a_node14"><a xlink:href="loadcore_8h.html" target="_top" xlink:title=" ">
<polygon fill="#ffffff" stroke="#000000" points="263,-168.5 263,-187.5 331,-187.5 331,-168.5 263,-168.5"/>
<text text-anchor="middle" x="297" y="-175.5" font-family="Helvetica,sans-Serif" font-size="10.00" fill="#000000">loadcore.h</text>
</a>
</g>
</g>
<!-- Node1&#45;&gt;Node14 -->
<g id="edge16" class="edge">
<title>Node1&#45;&gt;Node14</title>
<path fill="none" stroke="#191970" d="M363.2472,-224.2977C349.8032,-214.9022 332.5989,-202.8787 319.0922,-193.4395"/>
<polygon fill="#191970" stroke="#191970" points="321.0288,-190.5228 310.8271,-187.6633 317.0189,-196.2605 321.0288,-190.5228"/>
</g>
<!-- Node15 -->
<g id="node15" class="node">
<title>Node15</title>
<g id="a_node15"><a xlink:href="stdio_8h.html" target="_top" xlink:title=" ">
<polygon fill="#ffffff" stroke="#000000" points="387,-168.5 387,-187.5 437,-187.5 437,-168.5 387,-168.5"/>
<text text-anchor="middle" x="412" y="-175.5" font-family="Helvetica,sans-Serif" font-size="10.00" fill="#000000">stdio.h</text>
</a>
</g>
</g>
<!-- Node1&#45;&gt;Node15 -->
<g id="edge19" class="edge">
<title>Node1&#45;&gt;Node15</title>
<path fill="none" stroke="#191970" d="M391.6742,-224.2977C395.2659,-216.1166 399.7324,-205.943 403.5629,-197.2179"/>
<polygon fill="#191970" stroke="#191970" points="406.8618,-198.4104 407.677,-187.8469 400.4522,-195.5964 406.8618,-198.4104"/>
</g>
<!-- Node17 -->
<g id="node17" class="node">
<title>Node17</title>
<g id="a_node17"><a xlink:href="sysclib_8h.html" target="_top" xlink:title=" ">
<polygon fill="#ffffff" stroke="#000000" points="455.5,-168.5 455.5,-187.5 514.5,-187.5 514.5,-168.5 455.5,-168.5"/>
<text text-anchor="middle" x="485" y="-175.5" font-family="Helvetica,sans-Serif" font-size="10.00" fill="#000000">sysclib.h</text>
</a>
</g>
</g>
<!-- Node1&#45;&gt;Node17 -->
<g id="edge22" class="edge">
<title>Node1&#45;&gt;Node17</title>
<path fill="none" stroke="#191970" d="M409.4628,-224.4554C425.1235,-214.8241 445.3532,-202.3828 460.9356,-192.7996"/>
<polygon fill="#191970" stroke="#191970" points="462.819,-195.7503 469.5035,-187.5303 459.152,-189.7876 462.819,-195.7503"/>
</g>
<!-- Node19 -->
<g id="node19" class="node">
<title>Node19</title>
<g id="a_node19"><a xlink:href="smb__fio_8h.html" target="_top" xlink:title=" ">
<polygon fill="#ffffff" stroke="#000000" points="571,-168.5 571,-187.5 635,-187.5 635,-168.5 571,-168.5"/>
<text text-anchor="middle" x="603" y="-175.5" font-family="Helvetica,sans-Serif" font-size="10.00" fill="#000000">smb_fio.h</text>
</a>
</g>
</g>
<!-- Node1&#45;&gt;Node19 -->
<g id="edge28" class="edge">
<title>Node1&#45;&gt;Node19</title>
<path fill="none" stroke="#191970" d="M438.3288,-224.4554C476.074,-213.8071 525.9939,-199.7242 560.9373,-189.8663"/>
<polygon fill="#191970" stroke="#191970" points="562.1474,-193.1616 570.8214,-187.0779 560.2468,-186.4246 562.1474,-193.1616"/>
</g>
<!-- Node20 -->
<g id="node20" class="node">
<title>Node20</title>
<g id="a_node20"><a xlink:href="smb_8h.html" target="_top" xlink:title=" ">
<polygon fill="#ffffff" stroke="#000000" points="534.5,-112.5 534.5,-131.5 581.5,-131.5 581.5,-112.5 534.5,-112.5"/>
<text text-anchor="middle" x="558" y="-119.5" font-family="Helvetica,sans-Serif" font-size="10.00" fill="#000000">smb.h</text>
</a>
</g>
</g>
<!-- Node1&#45;&gt;Node20 -->
<g id="edge29" class="edge">
<title>Node1&#45;&gt;Node20</title>
<path fill="none" stroke="#191970" d="M445.0485,-227.2893C471.3241,-219.5424 501.0867,-207.2269 523,-188 537.121,-175.6101 546.4672,-156.1123 551.9212,-141.5161"/>
<polygon fill="#191970" stroke="#191970" points="555.2769,-142.5205 555.2173,-131.9258 548.6569,-140.2452 555.2769,-142.5205"/>
</g>
<!-- Node22 -->
<g id="node22" class="node">
<title>Node22</title>
<g id="a_node22"><a xlink:href="debug_8h.html" target="_top" xlink:title=" ">
<polygon fill="#ffffff" stroke="#000000" points="653,-168.5 653,-187.5 709,-187.5 709,-168.5 653,-168.5"/>
<text text-anchor="middle" x="681" y="-175.5" font-family="Helvetica,sans-Serif" font-size="10.00" fill="#000000">debug.h</text>
</a>
</g>
</g>
<!-- Node1&#45;&gt;Node22 -->
<g id="edge32" class="edge">
<title>Node1&#45;&gt;Node22</title>
<path fill="none" stroke="#191970" d="M445.1721,-228.7293C495.5618,-219.4377 569.5701,-205.1609 642.8976,-188.1491"/>
<polygon fill="#191970" stroke="#191970" points="643.8275,-191.5261 652.7681,-185.8414 642.2339,-184.71 643.8275,-191.5261"/>
</g>
<!-- Node4 -->
<g id="node4" class="node">
<title>Node4</title>
<g id="a_node4"><a xlink:href="types_8h.html" target="_top" xlink:title=" ">
<polygon fill="#ffffff" stroke="#000000" points="296.5,-56.5 296.5,-75.5 349.5,-75.5 349.5,-56.5 296.5,-56.5"/>
<text text-anchor="middle" x="323" y="-63.5" font-family="Helvetica,sans-Serif" font-size="10.00" fill="#000000">types.h</text>
</a>
</g>
</g>
<!-- Node3&#45;&gt;Node4 -->
<g id="edge3" class="edge">
<title>Node3&#45;&gt;Node4</title>
<path fill="none" stroke="#191970" d="M261.064,-112.2455C272.3562,-103.814 288.8845,-91.4729 302.0271,-81.6598"/>
<polygon fill="#191970" stroke="#191970" points="304.1669,-84.4301 310.0857,-75.6427 299.9789,-78.8211 304.1669,-84.4301"/>
</g>
<!-- Node5 -->
<g id="node5" class="node">
<title>Node5</title>
<g id="a_node5"><a xlink:title=" ">
<polygon fill="#ffffff" stroke="#bfbfbf" points="295,-.5 295,-19.5 351,-19.5 351,-.5 295,-.5"/>
<text text-anchor="middle" x="323" y="-7.5" font-family="Helvetica,sans-Serif" font-size="10.00" fill="#000000">stddef.h</text>
</a>
</g>
</g>
<!-- Node4&#45;&gt;Node5 -->
<g id="edge4" class="edge">
<title>Node4&#45;&gt;Node5</title>
<path fill="none" stroke="#191970" d="M323,-56.2455C323,-48.9382 323,-38.6944 323,-29.7046"/>
<polygon fill="#191970" stroke="#191970" points="326.5001,-29.6426 323,-19.6427 319.5001,-29.6427 326.5001,-29.6426"/>
</g>
<!-- Node6 -->
<g id="node6" class="node">
<title>Node6</title>
<g id="a_node6"><a xlink:href="tamtypes_8h.html" target="_top" xlink:title=" ">
<polygon fill="#ffffff" stroke="#000000" points="442,-.5 442,-19.5 514,-19.5 514,-.5 442,-.5"/>
<text text-anchor="middle" x="478" y="-7.5" font-family="Helvetica,sans-Serif" font-size="10.00" fill="#000000">tamtypes.h</text>
</a>
</g>
</g>
<!-- Node4&#45;&gt;Node6 -->
<g id="edge5" class="edge">
<title>Node4&#45;&gt;Node6</title>
<path fill="none" stroke="#191970" d="M349.6454,-56.3733C375.1964,-47.1419 413.9512,-33.1402 442.1909,-22.9375"/>
<polygon fill="#191970" stroke="#191970" points="443.4865,-26.1909 451.7022,-19.5011 441.1079,-19.6074 443.4865,-26.1909"/>
</g>
<!-- Node7&#45;&gt;Node4 -->
<g id="edge7" class="edge">
<title>Node7&#45;&gt;Node4</title>
<path fill="none" stroke="#191970" d="M342.8195,-112.2455C339.619,-104.7776 335.104,-94.2427 331.1916,-85.1137"/>
<polygon fill="#191970" stroke="#191970" points="334.2888,-83.4554 327.1326,-75.6427 327.8548,-86.2129 334.2888,-83.4554"/>
</g>
<!-- Node8&#45;&gt;Node4 -->
<g id="edge9" class="edge">
<title>Node8&#45;&gt;Node4</title>
<path fill="none" stroke="#191970" d="M178.665,-168.1804C184.4053,-154.0099 196.7781,-127.7988 215,-112 235.4302,-94.2865 263.6936,-82.5779 286.1828,-75.4078"/>
<polygon fill="#191970" stroke="#191970" points="287.4978,-78.667 296.0605,-72.4275 285.4757,-71.9654 287.4978,-78.667"/>
</g>
<!-- Node8&#45;&gt;Node7 -->
<g id="edge10" class="edge">
<title>Node8&#45;&gt;Node7</title>
<path fill="none" stroke="#191970" d="M204.5679,-168.3733C236.4623,-157.989 286.897,-141.5684 318.4073,-131.3092"/>
<polygon fill="#191970" stroke="#191970" points="319.5003,-134.6343 327.9255,-128.2103 317.3332,-127.9782 319.5003,-134.6343"/>
</g>
<!-- Node9 -->
<g id="node9" class="node">
<title>Node9</title>
<g id="a_node9"><a xlink:href="io__common_8h.html" target="_top" xlink:title=" ">
<polygon fill="#ffffff" stroke="#000000" points="84.5,-112.5 84.5,-131.5 167.5,-131.5 167.5,-112.5 84.5,-112.5"/>
<text text-anchor="middle" x="126" y="-119.5" font-family="Helvetica,sans-Serif" font-size="10.00" fill="#000000">io_common.h</text>
</a>
</g>
</g>
<!-- Node8&#45;&gt;Node9 -->
<g id="edge11" class="edge">
<title>Node8&#45;&gt;Node9</title>
<path fill="none" stroke="#191970" d="M166.4649,-168.2455C159.5088,-160.2958 149.5117,-148.8706 141.1949,-139.3656"/>
<polygon fill="#191970" stroke="#191970" points="143.6564,-136.8637 134.4373,-131.6427 138.3884,-141.4732 143.6564,-136.8637"/>
</g>
<!-- Node12 -->
<g id="node12" class="node">
<title>Node12</title>
<g id="a_node12"><a xlink:href="iox__stat_8h.html" target="_top" xlink:title=" ">
<polygon fill="#ffffff" stroke="#000000" points="1.5,-112.5 1.5,-131.5 66.5,-131.5 66.5,-112.5 1.5,-112.5"/>
<text text-anchor="middle" x="34" y="-119.5" font-family="Helvetica,sans-Serif" font-size="10.00" fill="#000000">iox_stat.h</text>
</a>
</g>
</g>
<!-- Node8&#45;&gt;Node12 -->
<g id="edge14" class="edge">
<title>Node8&#45;&gt;Node12</title>
<path fill="none" stroke="#191970" d="M150.7612,-168.3733C127.7211,-159.2226 92.8786,-145.3844 67.2499,-135.2057"/>
<polygon fill="#191970" stroke="#191970" points="68.5082,-131.9395 57.9225,-131.5011 65.9244,-138.4452 68.5082,-131.9395"/>
</g>
<!-- Node10 -->
<g id="node10" class="node">
<title>Node10</title>
<g id="a_node10"><a xlink:href="fcntl_8h.html" target="_top" xlink:title=" ">
<polygon fill="#ffffff" stroke="#000000" points="180.5,-56.5 180.5,-75.5 247.5,-75.5 247.5,-56.5 180.5,-56.5"/>
<text text-anchor="middle" x="214" y="-63.5" font-family="Helvetica,sans-Serif" font-size="10.00" fill="#000000">sys/fcntl.h</text>
</a>
</g>
</g>
<!-- Node9&#45;&gt;Node10 -->
<g id="edge12" class="edge">
<title>Node9&#45;&gt;Node10</title>
<path fill="none" stroke="#191970" d="M141.3284,-112.2455C154.8303,-103.6534 174.7122,-91.0014 190.2686,-81.1018"/>
<polygon fill="#191970" stroke="#191970" points="192.2897,-83.9643 198.8472,-75.6427 188.5315,-78.0587 192.2897,-83.9643"/>
</g>
<!-- Node11 -->
<g id="node11" class="node">
<title>Node11</title>
<g id="a_node11"><a xlink:href="unistd_8h.html" target="_top" xlink:title=" ">
<polygon fill="#ffffff" stroke="#000000" points="87.5,-56.5 87.5,-75.5 162.5,-75.5 162.5,-56.5 87.5,-56.5"/>
<text text-anchor="middle" x="125" y="-63.5" font-family="Helvetica,sans-Serif" font-size="10.00" fill="#000000">sys/unistd.h</text>
</a>
</g>
</g>
<!-- Node9&#45;&gt;Node11 -->
<g id="edge13" class="edge">
<title>Node9&#45;&gt;Node11</title>
<path fill="none" stroke="#191970" d="M125.8258,-112.2455C125.6953,-104.9382 125.5124,-94.6944 125.3519,-85.7046"/>
<polygon fill="#191970" stroke="#191970" points="128.8503,-85.5786 125.1722,-75.6427 121.8514,-85.7036 128.8503,-85.5786"/>
</g>
<!-- Node13 -->
<g id="node13" class="node">
<title>Node13</title>
<g id="a_node13"><a xlink:href="time_8h.html" target="_top" xlink:title=" ">
<polygon fill="#ffffff" stroke="#000000" points="0,-56.5 0,-75.5 68,-75.5 68,-56.5 0,-56.5"/>
<text text-anchor="middle" x="34" y="-63.5" font-family="Helvetica,sans-Serif" font-size="10.00" fill="#000000">sys/time.h</text>
</a>
</g>
</g>
<!-- Node12&#45;&gt;Node13 -->
<g id="edge15" class="edge">
<title>Node12&#45;&gt;Node13</title>
<path fill="none" stroke="#191970" d="M34,-112.2455C34,-104.9382 34,-94.6944 34,-85.7046"/>
<polygon fill="#191970" stroke="#191970" points="37.5001,-85.6426 34,-75.6427 30.5001,-85.6427 37.5001,-85.6426"/>
</g>
<!-- Node14&#45;&gt;Node4 -->
<g id="edge17" class="edge">
<title>Node14&#45;&gt;Node4</title>
<path fill="none" stroke="#191970" d="M299.2167,-168.4509C303.4765,-150.1013 312.8807,-109.5908 318.5035,-85.3693"/>
<polygon fill="#191970" stroke="#191970" points="321.9368,-86.0573 320.7889,-75.5249 315.1182,-84.4744 321.9368,-86.0573"/>
</g>
<!-- Node14&#45;&gt;Node7 -->
<g id="edge18" class="edge">
<title>Node14&#45;&gt;Node7</title>
<path fill="none" stroke="#191970" d="M305.7093,-168.2455C312.8073,-160.2958 323.0084,-148.8706 331.495,-139.3656"/>
<polygon fill="#191970" stroke="#191970" points="334.3411,-141.4331 338.3905,-131.6427 329.1195,-136.771 334.3411,-141.4331"/>
</g>
<!-- Node15&#45;&gt;Node7 -->
<g id="edge21" class="edge">
<title>Node15&#45;&gt;Node7</title>
<path fill="none" stroke="#191970" d="M400.6779,-168.2455C391.0777,-159.9746 377.1108,-147.9416 365.8305,-138.2232"/>
<polygon fill="#191970" stroke="#191970" points="368.053,-135.5182 358.1924,-131.6427 363.484,-140.8214 368.053,-135.5182"/>
</g>
<!-- Node16 -->
<g id="node16" class="node">
<title>Node16</title>
<g id="a_node16"><a xlink:title=" ">
<polygon fill="#ffffff" stroke="#bfbfbf" points="384,-112.5 384,-131.5 440,-131.5 440,-112.5 384,-112.5"/>
<text text-anchor="middle" x="412" y="-119.5" font-family="Helvetica,sans-Serif" font-size="10.00" fill="#000000">stdarg.h</text>
</a>
</g>
</g>
<!-- Node15&#45;&gt;Node16 -->
<g id="edge20" class="edge">
<title>Node15&#45;&gt;Node16</title>
<path fill="none" stroke="#191970" d="M412,-168.2455C412,-160.9382 412,-150.6944 412,-141.7046"/>
<polygon fill="#191970" stroke="#191970" points="415.5001,-141.6426 412,-131.6427 408.5001,-141.6427 415.5001,-141.6426"/>
</g>
<!-- Node17&#45;&gt;Node4 -->
<g id="edge23" class="edge">
<title>Node17&#45;&gt;Node4</title>
<path fill="none" stroke="#191970" d="M482.0731,-168.0557C477.3697,-153.73 466.8053,-127.3273 449,-112 423.5696,-90.1087 386.8486,-78.2876 359.6036,-72.1358"/>
<polygon fill="#191970" stroke="#191970" points="360.1753,-68.6796 349.669,-70.0465 358.7346,-75.5297 360.1753,-68.6796"/>
</g>
<!-- Node17&#45;&gt;Node7 -->
<g id="edge24" class="edge">
<title>Node17&#45;&gt;Node7</title>
<path fill="none" stroke="#191970" d="M461.277,-168.3733C437.6018,-158.7659 401.1938,-143.9917 375.8575,-133.7103"/>
<polygon fill="#191970" stroke="#191970" points="376.9909,-130.3931 366.4087,-129.876 374.3588,-136.8794 376.9909,-130.3931"/>
</g>
<!-- Node17&#45;&gt;Node16 -->
<g id="edge25" class="edge">
<title>Node17&#45;&gt;Node16</title>
<path fill="none" stroke="#191970" d="M472.2844,-168.2455C461.398,-159.8943 445.5117,-147.7076 432.78,-137.9408"/>
<polygon fill="#191970" stroke="#191970" points="434.6346,-134.9523 424.5699,-131.6427 430.3739,-140.5063 434.6346,-134.9523"/>
</g>
<!-- Node18 -->
<g id="node18" class="node">
<title>Node18</title>
<g id="a_node18"><a xlink:href="setjmp_8h.html" target="_top" xlink:title=" ">
<polygon fill="#ffffff" stroke="#000000" points="448.5,-56.5 448.5,-75.5 507.5,-75.5 507.5,-56.5 448.5,-56.5"/>
<text text-anchor="middle" x="478" y="-63.5" font-family="Helvetica,sans-Serif" font-size="10.00" fill="#000000">setjmp.h</text>
</a>
</g>
</g>
<!-- Node17&#45;&gt;Node18 -->
<g id="edge26" class="edge">
<title>Node17&#45;&gt;Node18</title>
<path fill="none" stroke="#191970" d="M484.6794,-168.1529C484.2302,-155.2481 483.3179,-131.9145 482,-112 481.425,-103.3114 480.6178,-93.7141 479.879,-85.5437"/>
<polygon fill="#191970" stroke="#191970" points="483.3563,-85.1374 478.9421,-75.506 476.3866,-85.788 483.3563,-85.1374"/>
</g>
<!-- Node18&#45;&gt;Node6 -->
<g id="edge27" class="edge">
<title>Node18&#45;&gt;Node6</title>
<path fill="none" stroke="#191970" d="M478,-56.2455C478,-48.9382 478,-38.6944 478,-29.7046"/>
<polygon fill="#191970" stroke="#191970" points="481.5001,-29.6426 478,-19.6427 474.5001,-29.6427 481.5001,-29.6426"/>
</g>
<!-- Node21 -->
<g id="node21" class="node">
<title>Node21</title>
<g id="a_node21"><a xlink:href="ps2smb_8h.html" target="_top" xlink:title=" ">
<polygon fill="#ffffff" stroke="#000000" points="526,-56.5 526,-75.5 590,-75.5 590,-56.5 526,-56.5"/>
<text text-anchor="middle" x="558" y="-63.5" font-family="Helvetica,sans-Serif" font-size="10.00" fill="#000000">ps2smb.h</text>
</a>
</g>
</g>
<!-- Node20&#45;&gt;Node21 -->
<g id="edge30" class="edge">
<title>Node20&#45;&gt;Node21</title>
<path fill="none" stroke="#191970" d="M558,-112.2455C558,-104.9382 558,-94.6944 558,-85.7046"/>
<polygon fill="#191970" stroke="#191970" points="561.5001,-85.6426 558,-75.6427 554.5001,-85.6427 561.5001,-85.6426"/>
</g>
<!-- Node21&#45;&gt;Node6 -->
<g id="edge31" class="edge">
<title>Node21&#45;&gt;Node6</title>
<path fill="none" stroke="#191970" d="M544.0651,-56.2455C531.9053,-47.7337 514.0536,-35.2375 499.9715,-25.3801"/>
<polygon fill="#191970" stroke="#191970" points="501.9747,-22.51 491.7752,-19.6427 497.9605,-28.2447 501.9747,-22.51"/>
</g>
</g>
</svg>
        <g id="navigator" transform="translate(0 0)" fill="#404254">
                <rect fill="#f2f5e9" fill-opacity="0.5" stroke="#606060" stroke-width=".5" x="0" y="0" width="60" height="60"/>
                <use id="zoomplus" xlink:href="#zoomPlus" x="17" y="9" onmousedown="handleZoom(evt,'in')"/>
                <use id="zoomminus" xlink:href="#zoomMin" x="42" y="9" onmousedown="handleZoom(evt,'out')"/>
                <use id="reset" xlink:href="#resetDef" x="30" y="36" onmousedown="handleReset()"/>
                <g id="arrowUp" xlink:href="#dirArrow" transform="translate(30 24)" onmousedown="handlePan(0,-1)">
                  <use xlink:href="#rim" fill="#404040">
                        <set attributeName="fill" to="#808080" begin="arrowUp.mouseover" end="arrowUp.mouseout"/>
                  </use>
                  <path fill="none" stroke="white" stroke-width="1.5" d="M0,-3.0v7 M-2.5,-0.5L0,-3.0L2.5,-0.5"/>
                </g>
                <g id="arrowRight" xlink:href="#dirArrow" transform="rotate(90) translate(36 -43)" onmousedown="handlePan(1,0)">
                  <use xlink:href="#rim" fill="#404040">
                        <set attributeName="fill" to="#808080" begin="arrowRight.mouseover" end="arrowRight.mouseout"/>
                  </use>
                  <path fill="none" stroke="white" stroke-width="1.5" d="M0,-3.0v7 M-2.5,-0.5L0,-3.0L2.5,-0.5"/>
                </g>
                <g id="arrowDown" xlink:href="#dirArrow" transform="rotate(180) translate(-30 -48)" onmousedown="handlePan(0,1)">
                  <use xlink:href="#rim" fill="#404040">
                        <set attributeName="fill" to="#808080" begin="arrowDown.mouseover" end="arrowDown.mouseout"/>
                  </use>
                  <path fill="none" stroke="white" stroke-width="1.5" d="M0,-3.0v7 M-2.5,-0.5L0,-3.0L2.5,-0.5"/>
                </g>
                <g id="arrowLeft" xlink:href="#dirArrow" transform="rotate(270) translate(-36 17)" onmousedown="handlePan(-1,0)">
                  <use xlink:href="#rim" fill="#404040">
                        <set attributeName="fill" to="#808080" begin="arrowLeft.mouseover" end="arrowLeft.mouseout"/>
                  </use>
                  <path fill="none" stroke="white" stroke-width="1.5" d="M0,-3.0v7 M-2.5,-0.5L0,-3.0L2.5,-0.5"/>
                </g>
        </g>
        <svg viewBox="0 0 15 15" width="100%" height="30px" preserveAspectRatio="xMaxYMin meet">
         <g id="arrow_out" transform="scale(0.3 0.3)">
          <a xlink:href="smbman_8c__incl_org.svg" target="_base">
           <rect id="button" ry="5" rx="5" y="6" x="6" height="38" width="38"
                fill="#f2f5e9" fill-opacity="0.5" stroke="#606060" stroke-width="1.0"/>
           <path id="arrow"
             d="M 11.500037,31.436501 C 11.940474,20.09759 22.043105,11.32322 32.158766,21.979434 L 37.068811,17.246167 C 37.068811,17.246167 37.088388,32 37.088388,32 L 22.160133,31.978069 C 22.160133,31.978069 26.997745,27.140456 26.997745,27.140456 C 18.528582,18.264221 13.291696,25.230495 11.500037,31.436501 z"
             style="fill:#404040;"/>
          </a>
         </g>
        </svg>
</svg>
