<?xml version="1.0" encoding="UTF-8" standalone="no"?>
<!DOCTYPE svg PUBLIC "-//W3C//DTD SVG 1.1//EN"
 "http://www.w3.org/Graphics/SVG/1.1/DTD/svg11.dtd">
<!-- Generated by graphviz version 2.40.1 (20161225.0304)
 -->
<!-- Title: iop/sound/ps2snd/src/irx_imports.h Pages: 1 -->
<svg width="787pt" height="263pt"
 viewBox="0.00 0.00 786.50 263.00" xmlns="http://www.w3.org/2000/svg" xmlns:xlink="http://www.w3.org/1999/xlink">
<g id="graph0" class="graph" transform="scale(1 1) rotate(0) translate(4 259)">
<title>iop/sound/ps2snd/src/irx_imports.h</title>
<polygon fill="#ffffff" stroke="transparent" points="-4,4 -4,-259 782.5,-259 782.5,4 -4,4"/>
<!-- Node1 -->
<g id="node1" class="node">
<title>Node1</title>
<g id="a_node1"><a xlink:title=" ">
<polygon fill="#bfbfbf" stroke="#000000" points="345,-224.5 345,-254.5 464,-254.5 464,-224.5 345,-224.5"/>
<text text-anchor="start" x="353" y="-242.5" font-family="Helvetica,sans-Serif" font-size="10.00" fill="#000000">iop/sound/ps2snd/src</text>
<text text-anchor="middle" x="404.5" y="-231.5" font-family="Helvetica,sans-Serif" font-size="10.00" fill="#000000">/irx_imports.h</text>
</a>
</g>
</g>
<!-- Node2 -->
<g id="node2" class="node">
<title>Node2</title>
<g id="a_node2"><a xlink:href="irx_8h.html" target="_top" xlink:title=" ">
<polygon fill="#ffffff" stroke="#000000" points="354.5,-112.5 354.5,-131.5 392.5,-131.5 392.5,-112.5 354.5,-112.5"/>
<text text-anchor="middle" x="373.5" y="-119.5" font-family="Helvetica,sans-Serif" font-size="10.00" fill="#000000">irx.h</text>
</a>
</g>
</g>
<!-- Node1&#45;&gt;Node2 -->
<g id="edge1" class="edge">
<title>Node1&#45;&gt;Node2</title>
<path fill="none" stroke="#191970" d="M400.4473,-224.1389C394.8367,-202.873 384.7049,-164.4702 378.5908,-141.2956"/>
<polygon fill="#191970" stroke="#191970" points="381.9574,-140.3357 376.0221,-131.5595 375.189,-142.1215 381.9574,-140.3357"/>
</g>
<!-- Node6 -->
<g id="node6" class="node">
<title>Node6</title>
<g id="a_node6"><a xlink:href="stdio_8h.html" target="_top" xlink:title=" ">
<polygon fill="#ffffff" stroke="#000000" points="642.5,-168.5 642.5,-187.5 692.5,-187.5 692.5,-168.5 642.5,-168.5"/>
<text text-anchor="middle" x="667.5" y="-175.5" font-family="Helvetica,sans-Serif" font-size="10.00" fill="#000000">stdio.h</text>
</a>
</g>
</g>
<!-- Node1&#45;&gt;Node6 -->
<g id="edge5" class="edge">
<title>Node1&#45;&gt;Node6</title>
<path fill="none" stroke="#191970" d="M464.0638,-227.2119C508.0779,-217.8785 569.6633,-204.2921 632.2489,-188.2115"/>
<polygon fill="#191970" stroke="#191970" points="633.4959,-191.5041 642.2996,-185.6095 631.7415,-184.7275 633.4959,-191.5041"/>
</g>
<!-- Node8 -->
<g id="node8" class="node">
<title>Node8</title>
<g id="a_node8"><a xlink:href="libsd_8h.html" target="_top" xlink:title=" ">
<polygon fill="#ffffff" stroke="#000000" points="128,-168.5 128,-187.5 177,-187.5 177,-168.5 128,-168.5"/>
<text text-anchor="middle" x="152.5" y="-175.5" font-family="Helvetica,sans-Serif" font-size="10.00" fill="#000000">libsd.h</text>
</a>
</g>
</g>
<!-- Node1&#45;&gt;Node8 -->
<g id="edge8" class="edge">
<title>Node1&#45;&gt;Node8</title>
<path fill="none" stroke="#191970" d="M344.603,-226.2672C303.0005,-216.8653 246.0776,-203.585 187.1897,-188.0833"/>
<polygon fill="#191970" stroke="#191970" points="187.9017,-184.6512 177.3389,-185.4739 186.1093,-191.4179 187.9017,-184.6512"/>
</g>
<!-- Node10 -->
<g id="node10" class="node">
<title>Node10</title>
<g id="a_node10"><a xlink:href="sifcmd_8h.html" target="_top" xlink:title=" ">
<polygon fill="#ffffff" stroke="#000000" points="488,-168.5 488,-187.5 547,-187.5 547,-168.5 488,-168.5"/>
<text text-anchor="middle" x="517.5" y="-175.5" font-family="Helvetica,sans-Serif" font-size="10.00" fill="#000000">sifcmd.h</text>
</a>
</g>
</g>
<!-- Node1&#45;&gt;Node10 -->
<g id="edge13" class="edge">
<title>Node1&#45;&gt;Node10</title>
<path fill="none" stroke="#191970" d="M432.1429,-224.4554C450.0049,-214.734 473.1268,-202.15 490.7995,-192.5317"/>
<polygon fill="#191970" stroke="#191970" points="492.8787,-195.3849 499.989,-187.5303 489.5325,-189.2365 492.8787,-195.3849"/>
</g>
<!-- Node11 -->
<g id="node11" class="node">
<title>Node11</title>
<g id="a_node11"><a xlink:href="thbase_8h.html" target="_top" xlink:title=" ">
<polygon fill="#ffffff" stroke="#000000" points="565,-168.5 565,-187.5 624,-187.5 624,-168.5 565,-168.5"/>
<text text-anchor="middle" x="594.5" y="-175.5" font-family="Helvetica,sans-Serif" font-size="10.00" fill="#000000">thbase.h</text>
</a>
</g>
</g>
<!-- Node1&#45;&gt;Node11 -->
<g id="edge16" class="edge">
<title>Node1&#45;&gt;Node11</title>
<path fill="none" stroke="#191970" d="M450.9792,-224.4554C482.9593,-214.104 524.9671,-200.5067 555.2629,-190.7004"/>
<polygon fill="#191970" stroke="#191970" points="556.6206,-193.9398 565.0567,-187.5303 554.4649,-187.28 556.6206,-193.9398"/>
</g>
<!-- Node12 -->
<g id="node12" class="node">
<title>Node12</title>
<g id="a_node12"><a xlink:href="ioman_8h.html" target="_top" xlink:title=" ">
<polygon fill="#ffffff" stroke="#000000" points="53.5,-168.5 53.5,-187.5 109.5,-187.5 109.5,-168.5 53.5,-168.5"/>
<text text-anchor="middle" x="81.5" y="-175.5" font-family="Helvetica,sans-Serif" font-size="10.00" fill="#000000">ioman.h</text>
</a>
</g>
</g>
<!-- Node1&#45;&gt;Node12 -->
<g id="edge19" class="edge">
<title>Node1&#45;&gt;Node12</title>
<path fill="none" stroke="#191970" d="M344.769,-230.2768C288.913,-221.3054 203.0006,-206.6224 119.611,-188.1112"/>
<polygon fill="#191970" stroke="#191970" points="120.2431,-184.6661 109.7197,-185.8946 118.7122,-191.4967 120.2431,-184.6661"/>
</g>
<!-- Node16 -->
<g id="node16" class="node">
<title>Node16</title>
<g id="a_node16"><a xlink:href="thsemap_8h.html" target="_top" xlink:title=" ">
<polygon fill="#ffffff" stroke="#000000" points="195.5,-168.5 195.5,-187.5 263.5,-187.5 263.5,-168.5 195.5,-168.5"/>
<text text-anchor="middle" x="229.5" y="-175.5" font-family="Helvetica,sans-Serif" font-size="10.00" fill="#000000">thsemap.h</text>
</a>
</g>
</g>
<!-- Node1&#45;&gt;Node16 -->
<g id="edge25" class="edge">
<title>Node1&#45;&gt;Node16</title>
<path fill="none" stroke="#191970" d="M361.6902,-224.4554C332.491,-214.194 294.2157,-200.7429 266.3698,-190.9571"/>
<polygon fill="#191970" stroke="#191970" points="267.2136,-187.5439 256.6188,-187.5303 264.8927,-194.1479 267.2136,-187.5439"/>
</g>
<!-- Node17 -->
<g id="node17" class="node">
<title>Node17</title>
<g id="a_node17"><a xlink:href="intrman_8h.html" target="_top" xlink:title=" ">
<polygon fill="#ffffff" stroke="#000000" points="281.5,-168.5 281.5,-187.5 345.5,-187.5 345.5,-168.5 281.5,-168.5"/>
<text text-anchor="middle" x="313.5" y="-175.5" font-family="Helvetica,sans-Serif" font-size="10.00" fill="#000000">intrman.h</text>
</a>
</g>
</g>
<!-- Node1&#45;&gt;Node17 -->
<g id="edge28" class="edge">
<title>Node1&#45;&gt;Node17</title>
<path fill="none" stroke="#191970" d="M382.0056,-224.2977C368.1033,-214.9022 350.3124,-202.8787 336.3454,-193.4395"/>
<polygon fill="#191970" stroke="#191970" points="338.0436,-190.3629 327.7985,-187.6633 334.124,-196.1626 338.0436,-190.3629"/>
</g>
<!-- Node18 -->
<g id="node18" class="node">
<title>Node18</title>
<g id="a_node18"><a xlink:href="sysmem_8h.html" target="_top" xlink:title=" ">
<polygon fill="#ffffff" stroke="#000000" points="710.5,-168.5 710.5,-187.5 778.5,-187.5 778.5,-168.5 710.5,-168.5"/>
<text text-anchor="middle" x="744.5" y="-175.5" font-family="Helvetica,sans-Serif" font-size="10.00" fill="#000000">sysmem.h</text>
</a>
</g>
</g>
<!-- Node1&#45;&gt;Node18 -->
<g id="edge31" class="edge">
<title>Node1&#45;&gt;Node18</title>
<path fill="none" stroke="#191970" d="M464.1353,-230.181C522.0658,-220.8973 612.7246,-205.7598 700.4224,-188.1372"/>
<polygon fill="#191970" stroke="#191970" points="701.1632,-191.5583 710.2707,-186.145 699.7753,-184.6973 701.1632,-191.5583"/>
</g>
<!-- Node19 -->
<g id="node19" class="node">
<title>Node19</title>
<g id="a_node19"><a xlink:href="loadcore_8h.html" target="_top" xlink:title=" ">
<polygon fill="#ffffff" stroke="#000000" points="401.5,-168.5 401.5,-187.5 469.5,-187.5 469.5,-168.5 401.5,-168.5"/>
<text text-anchor="middle" x="435.5" y="-175.5" font-family="Helvetica,sans-Serif" font-size="10.00" fill="#000000">loadcore.h</text>
</a>
</g>
</g>
<!-- Node1&#45;&gt;Node19 -->
<g id="edge35" class="edge">
<title>Node1&#45;&gt;Node19</title>
<path fill="none" stroke="#191970" d="M412.1629,-224.2977C416.3316,-216.0277 421.5265,-205.7215 425.9561,-196.9339"/>
<polygon fill="#191970" stroke="#191970" points="429.1607,-198.3521 430.5365,-187.8469 422.9099,-195.2012 429.1607,-198.3521"/>
</g>
<!-- Node3 -->
<g id="node3" class="node">
<title>Node3</title>
<g id="a_node3"><a xlink:href="types_8h.html" target="_top" xlink:title=" ">
<polygon fill="#ffffff" stroke="#000000" points="333,-56.5 333,-75.5 386,-75.5 386,-56.5 333,-56.5"/>
<text text-anchor="middle" x="359.5" y="-63.5" font-family="Helvetica,sans-Serif" font-size="10.00" fill="#000000">types.h</text>
</a>
</g>
</g>
<!-- Node2&#45;&gt;Node3 -->
<g id="edge2" class="edge">
<title>Node2&#45;&gt;Node3</title>
<path fill="none" stroke="#191970" d="M371.0614,-112.2455C369.2145,-104.8579 366.6172,-94.4689 364.3522,-85.4087"/>
<polygon fill="#191970" stroke="#191970" points="367.7316,-84.4952 361.9107,-75.6427 360.9406,-86.193 367.7316,-84.4952"/>
</g>
<!-- Node4 -->
<g id="node4" class="node">
<title>Node4</title>
<g id="a_node4"><a xlink:title=" ">
<polygon fill="#ffffff" stroke="#bfbfbf" points="331.5,-.5 331.5,-19.5 387.5,-19.5 387.5,-.5 331.5,-.5"/>
<text text-anchor="middle" x="359.5" y="-7.5" font-family="Helvetica,sans-Serif" font-size="10.00" fill="#000000">stddef.h</text>
</a>
</g>
</g>
<!-- Node3&#45;&gt;Node4 -->
<g id="edge3" class="edge">
<title>Node3&#45;&gt;Node4</title>
<path fill="none" stroke="#191970" d="M359.5,-56.2455C359.5,-48.9382 359.5,-38.6944 359.5,-29.7046"/>
<polygon fill="#191970" stroke="#191970" points="363.0001,-29.6426 359.5,-19.6427 356.0001,-29.6427 363.0001,-29.6426"/>
</g>
<!-- Node5 -->
<g id="node5" class="node">
<title>Node5</title>
<g id="a_node5"><a xlink:href="tamtypes_8h.html" target="_top" xlink:title=" ">
<polygon fill="#ffffff" stroke="#000000" points="222.5,-.5 222.5,-19.5 294.5,-19.5 294.5,-.5 222.5,-.5"/>
<text text-anchor="middle" x="258.5" y="-7.5" font-family="Helvetica,sans-Serif" font-size="10.00" fill="#000000">tamtypes.h</text>
</a>
</g>
</g>
<!-- Node3&#45;&gt;Node5 -->
<g id="edge4" class="edge">
<title>Node3&#45;&gt;Node5</title>
<path fill="none" stroke="#191970" d="M341.9071,-56.2455C326.121,-47.4928 302.7361,-34.527 284.7413,-24.5496"/>
<polygon fill="#191970" stroke="#191970" points="286.3341,-21.4308 275.8913,-19.6427 282.9397,-27.5528 286.3341,-21.4308"/>
</g>
<!-- Node6&#45;&gt;Node2 -->
<g id="edge7" class="edge">
<title>Node6&#45;&gt;Node2</title>
<path fill="none" stroke="#191970" d="M642.3319,-170.2596C639.3675,-169.4484 636.3752,-168.675 633.5,-168 550.5222,-148.5204 450.921,-133.0708 402.6182,-126.0733"/>
<polygon fill="#191970" stroke="#191970" points="402.9639,-122.5872 392.5684,-124.6326 401.9705,-129.5164 402.9639,-122.5872"/>
</g>
<!-- Node7 -->
<g id="node7" class="node">
<title>Node7</title>
<g id="a_node7"><a xlink:title=" ">
<polygon fill="#ffffff" stroke="#bfbfbf" points="644.5,-112.5 644.5,-131.5 700.5,-131.5 700.5,-112.5 644.5,-112.5"/>
<text text-anchor="middle" x="672.5" y="-119.5" font-family="Helvetica,sans-Serif" font-size="10.00" fill="#000000">stdarg.h</text>
</a>
</g>
</g>
<!-- Node6&#45;&gt;Node7 -->
<g id="edge6" class="edge">
<title>Node6&#45;&gt;Node7</title>
<path fill="none" stroke="#191970" d="M668.3709,-168.2455C669.0234,-160.9382 669.938,-150.6944 670.7407,-141.7046"/>
<polygon fill="#191970" stroke="#191970" points="674.2358,-141.9143 671.639,-131.6427 667.2635,-141.2918 674.2358,-141.9143"/>
</g>
<!-- Node8&#45;&gt;Node2 -->
<g id="edge10" class="edge">
<title>Node8&#45;&gt;Node2</title>
<path fill="none" stroke="#191970" d="M177.346,-170.5527C180.423,-169.6716 183.5299,-168.8017 186.5,-168 242.0245,-153.0135 307.3635,-137.3975 344.2568,-128.7647"/>
<polygon fill="#191970" stroke="#191970" points="345.3701,-132.0991 354.314,-126.4197 343.7805,-125.282 345.3701,-132.0991"/>
</g>
<!-- Node8&#45;&gt;Node3 -->
<g id="edge9" class="edge">
<title>Node8&#45;&gt;Node3</title>
<path fill="none" stroke="#191970" d="M170.1487,-168.4509C206.507,-148.7788 289.94,-103.6363 332.8848,-80.4005"/>
<polygon fill="#191970" stroke="#191970" points="334.7664,-83.362 341.896,-75.5249 331.4352,-77.2054 334.7664,-83.362"/>
</g>
<!-- Node9 -->
<g id="node9" class="node">
<title>Node9</title>
<g id="a_node9"><a xlink:href="libsd-common_8h.html" target="_top" xlink:title=" ">
<polygon fill="#ffffff" stroke="#000000" points="192,-56.5 192,-75.5 287,-75.5 287,-56.5 192,-56.5"/>
<text text-anchor="middle" x="239.5" y="-63.5" font-family="Helvetica,sans-Serif" font-size="10.00" fill="#000000">libsd&#45;common.h</text>
</a>
</g>
</g>
<!-- Node8&#45;&gt;Node9 -->
<g id="edge11" class="edge">
<title>Node8&#45;&gt;Node9</title>
<path fill="none" stroke="#191970" d="M159.9176,-168.4509C174.5565,-149.6054 207.3528,-107.3849 225.9514,-83.4419"/>
<polygon fill="#191970" stroke="#191970" points="228.7307,-85.5693 232.1012,-75.5249 223.2026,-81.2751 228.7307,-85.5693"/>
</g>
<!-- Node9&#45;&gt;Node5 -->
<g id="edge12" class="edge">
<title>Node9&#45;&gt;Node5</title>
<path fill="none" stroke="#191970" d="M242.8095,-56.2455C245.3433,-48.7776 248.9177,-38.2427 252.015,-29.1137"/>
<polygon fill="#191970" stroke="#191970" points="255.3298,-30.237 255.2284,-19.6427 248.7009,-27.9879 255.3298,-30.237"/>
</g>
<!-- Node10&#45;&gt;Node2 -->
<g id="edge15" class="edge">
<title>Node10&#45;&gt;Node2</title>
<path fill="none" stroke="#191970" d="M492.7455,-168.3733C467.6464,-158.6125 428.8333,-143.5185 402.3544,-133.2212"/>
<polygon fill="#191970" stroke="#191970" points="403.453,-129.8931 392.8644,-129.5306 400.9159,-136.4171 403.453,-129.8931"/>
</g>
<!-- Node10&#45;&gt;Node3 -->
<g id="edge14" class="edge">
<title>Node10&#45;&gt;Node3</title>
<path fill="none" stroke="#191970" d="M504.029,-168.4509C476.7437,-149.1094 414.7246,-105.1465 381.4936,-81.5904"/>
<polygon fill="#191970" stroke="#191970" points="383.1192,-78.4526 372.9369,-75.5249 379.071,-84.1633 383.1192,-78.4526"/>
</g>
<!-- Node11&#45;&gt;Node2 -->
<g id="edge18" class="edge">
<title>Node11&#45;&gt;Node2</title>
<path fill="none" stroke="#191970" d="M564.6374,-170.1081C561.8873,-169.3914 559.1427,-168.6798 556.5,-168 502.2135,-154.0346 438.7409,-138.1874 402.6148,-129.213"/>
<polygon fill="#191970" stroke="#191970" points="403.2997,-125.7769 392.7511,-126.7647 401.6134,-132.5708 403.2997,-125.7769"/>
</g>
<!-- Node11&#45;&gt;Node3 -->
<g id="edge17" class="edge">
<title>Node11&#45;&gt;Node3</title>
<path fill="none" stroke="#191970" d="M574.464,-168.4509C532.9275,-148.6548 437.273,-103.0663 388.799,-79.9638"/>
<polygon fill="#191970" stroke="#191970" points="390.0183,-76.6677 379.4853,-75.5249 387.0066,-82.9868 390.0183,-76.6677"/>
</g>
<!-- Node12&#45;&gt;Node2 -->
<g id="edge21" class="edge">
<title>Node12&#45;&gt;Node2</title>
<path fill="none" stroke="#191970" d="M109.7199,-170.1064C112.676,-169.3594 115.6436,-168.6424 118.5,-168 199.6983,-149.7386 296.7152,-133.847 344.2789,-126.4375"/>
<polygon fill="#191970" stroke="#191970" points="344.8461,-129.8915 354.1938,-124.9045 343.7764,-122.9737 344.8461,-129.8915"/>
</g>
<!-- Node12&#45;&gt;Node3 -->
<g id="edge20" class="edge">
<title>Node12&#45;&gt;Node3</title>
<path fill="none" stroke="#191970" d="M104.0725,-168.4252C134.8304,-155.4252 191.6724,-131.5679 240.5,-112 268.7443,-100.681 300.9431,-88.2638 324.719,-79.1864"/>
<polygon fill="#191970" stroke="#191970" points="326.2588,-82.3452 334.3569,-75.5135 323.7661,-75.8041 326.2588,-82.3452"/>
</g>
<!-- Node13 -->
<g id="node13" class="node">
<title>Node13</title>
<g id="a_node13"><a xlink:href="io__common_8h.html" target="_top" xlink:title=" ">
<polygon fill="#ffffff" stroke="#000000" points="40,-112.5 40,-131.5 123,-131.5 123,-112.5 40,-112.5"/>
<text text-anchor="middle" x="81.5" y="-119.5" font-family="Helvetica,sans-Serif" font-size="10.00" fill="#000000">io_common.h</text>
</a>
</g>
</g>
<!-- Node12&#45;&gt;Node13 -->
<g id="edge22" class="edge">
<title>Node12&#45;&gt;Node13</title>
<path fill="none" stroke="#191970" d="M81.5,-168.2455C81.5,-160.9382 81.5,-150.6944 81.5,-141.7046"/>
<polygon fill="#191970" stroke="#191970" points="85.0001,-141.6426 81.5,-131.6427 78.0001,-141.6427 85.0001,-141.6426"/>
</g>
<!-- Node14 -->
<g id="node14" class="node">
<title>Node14</title>
<g id="a_node14"><a xlink:href="fcntl_8h.html" target="_top" xlink:title=" ">
<polygon fill="#ffffff" stroke="#000000" points="93,-56.5 93,-75.5 160,-75.5 160,-56.5 93,-56.5"/>
<text text-anchor="middle" x="126.5" y="-63.5" font-family="Helvetica,sans-Serif" font-size="10.00" fill="#000000">sys/fcntl.h</text>
</a>
</g>
</g>
<!-- Node13&#45;&gt;Node14 -->
<g id="edge23" class="edge">
<title>Node13&#45;&gt;Node14</title>
<path fill="none" stroke="#191970" d="M89.3384,-112.2455C95.662,-104.3761 104.7224,-93.101 112.3136,-83.6542"/>
<polygon fill="#191970" stroke="#191970" points="115.2158,-85.6302 118.7514,-75.6427 109.7592,-81.2454 115.2158,-85.6302"/>
</g>
<!-- Node15 -->
<g id="node15" class="node">
<title>Node15</title>
<g id="a_node15"><a xlink:href="unistd_8h.html" target="_top" xlink:title=" ">
<polygon fill="#ffffff" stroke="#000000" points="0,-56.5 0,-75.5 75,-75.5 75,-56.5 0,-56.5"/>
<text text-anchor="middle" x="37.5" y="-63.5" font-family="Helvetica,sans-Serif" font-size="10.00" fill="#000000">sys/unistd.h</text>
</a>
</g>
</g>
<!-- Node13&#45;&gt;Node15 -->
<g id="edge24" class="edge">
<title>Node13&#45;&gt;Node15</title>
<path fill="none" stroke="#191970" d="M73.8358,-112.2455C67.6527,-104.3761 58.7937,-93.101 51.3711,-83.6542"/>
<polygon fill="#191970" stroke="#191970" points="54.0068,-81.3435 45.0764,-75.6427 48.5025,-85.6683 54.0068,-81.3435"/>
</g>
<!-- Node16&#45;&gt;Node2 -->
<g id="edge27" class="edge">
<title>Node16&#45;&gt;Node2</title>
<path fill="none" stroke="#191970" d="M254.2545,-168.3733C279.3536,-158.6125 318.1667,-143.5185 344.6456,-133.2212"/>
<polygon fill="#191970" stroke="#191970" points="346.0841,-136.4171 354.1356,-129.5306 343.547,-129.8931 346.0841,-136.4171"/>
</g>
<!-- Node16&#45;&gt;Node3 -->
<g id="edge26" class="edge">
<title>Node16&#45;&gt;Node3</title>
<path fill="none" stroke="#191970" d="M240.5837,-168.4509C262.8418,-149.2747 313.1919,-105.8962 340.6978,-82.1988"/>
<polygon fill="#191970" stroke="#191970" points="343.1527,-84.7036 348.4443,-75.5249 338.5837,-79.4004 343.1527,-84.7036"/>
</g>
<!-- Node17&#45;&gt;Node2 -->
<g id="edge30" class="edge">
<title>Node17&#45;&gt;Node2</title>
<path fill="none" stroke="#191970" d="M323.9512,-168.2455C332.7269,-160.0549 345.4554,-148.1749 355.814,-138.5069"/>
<polygon fill="#191970" stroke="#191970" points="358.2461,-141.0246 363.1686,-131.6427 353.4699,-135.9072 358.2461,-141.0246"/>
</g>
<!-- Node17&#45;&gt;Node3 -->
<g id="edge29" class="edge">
<title>Node17&#45;&gt;Node3</title>
<path fill="none" stroke="#191970" d="M317.4219,-168.4509C324.9923,-150.0186 341.7467,-109.2254 351.6788,-85.043"/>
<polygon fill="#191970" stroke="#191970" points="355.0263,-86.1048 355.588,-75.5249 348.5512,-83.4454 355.0263,-86.1048"/>
</g>
<!-- Node18&#45;&gt;Node2 -->
<g id="edge33" class="edge">
<title>Node18&#45;&gt;Node2</title>
<path fill="none" stroke="#191970" d="M710.2903,-169.7543C707.3242,-169.1275 704.3634,-168.5326 701.5,-168 592.0952,-147.6487 460.656,-131.7789 403.0201,-125.2453"/>
<polygon fill="#191970" stroke="#191970" points="403.15,-121.738 392.8217,-124.0997 402.3685,-128.6942 403.15,-121.738"/>
</g>
<!-- Node18&#45;&gt;Node3 -->
<g id="edge32" class="edge">
<title>Node18&#45;&gt;Node3</title>
<path fill="none" stroke="#191970" d="M742.2775,-168.0188C738.3995,-153.142 728.8891,-125.4633 709.5,-112 659.3353,-77.1669 475.1452,-68.69 396.018,-66.6438"/>
<polygon fill="#191970" stroke="#191970" points="396.0977,-63.1448 386.0171,-66.4053 395.9308,-70.1428 396.0977,-63.1448"/>
</g>
<!-- Node18&#45;&gt;Node7 -->
<g id="edge34" class="edge">
<title>Node18&#45;&gt;Node7</title>
<path fill="none" stroke="#191970" d="M731.9586,-168.2455C721.2213,-159.8943 705.5527,-147.7076 692.9953,-137.9408"/>
<polygon fill="#191970" stroke="#191970" points="694.9401,-135.0194 684.8977,-131.6427 690.6425,-140.5449 694.9401,-135.0194"/>
</g>
<!-- Node19&#45;&gt;Node2 -->
<g id="edge37" class="edge">
<title>Node19&#45;&gt;Node2</title>
<path fill="none" stroke="#191970" d="M424.7004,-168.2455C415.6322,-160.0549 402.4794,-148.1749 391.7755,-138.5069"/>
<polygon fill="#191970" stroke="#191970" points="393.9429,-135.7482 384.1758,-131.6427 389.2509,-140.9429 393.9429,-135.7482"/>
</g>
<!-- Node19&#45;&gt;Node3 -->
<g id="edge36" class="edge">
<title>Node19&#45;&gt;Node3</title>
<path fill="none" stroke="#191970" d="M431.4098,-168.1481C425.6674,-154.8341 414.4554,-130.6221 401.5,-112 394.2925,-101.64 384.928,-91.166 376.871,-82.8349"/>
<polygon fill="#191970" stroke="#191970" points="379.1912,-80.2043 369.6599,-75.5777 374.2257,-85.1383 379.1912,-80.2043"/>
</g>
</g>
</svg>
