<?xml version="1.0" encoding="UTF-8" standalone="no"?>
<!DOCTYPE svg PUBLIC "-//W3C//DTD SVG 1.1//EN"
 "http://www.w3.org/Graphics/SVG/1.1/DTD/svg11.dtd">
<!-- Generated by graphviz version 2.40.1 (20161225.0304)
 -->
<!-- Title: iop/sound/audsrv/src/common.h Pages: 1 -->
<svg width="665pt" height="106pt"
 viewBox="0.00 0.00 665.00 106.00" xmlns="http://www.w3.org/2000/svg" xmlns:xlink="http://www.w3.org/1999/xlink">
<g id="graph0" class="graph" transform="scale(1 1) rotate(0) translate(4 102)">
<title>iop/sound/audsrv/src/common.h</title>
<polygon fill="#ffffff" stroke="transparent" points="-4,4 -4,-102 661,-102 661,4 -4,4"/>
<!-- Node1 -->
<g id="node1" class="node">
<title>Node1</title>
<g id="a_node1"><a xlink:title=" ">
<polygon fill="#bfbfbf" stroke="#000000" points="270,-67.5 270,-97.5 387,-97.5 387,-67.5 270,-67.5"/>
<text text-anchor="start" x="278" y="-85.5" font-family="Helvetica,sans-Serif" font-size="10.00" fill="#000000">iop/sound/audsrv/src</text>
<text text-anchor="middle" x="328.5" y="-74.5" font-family="Helvetica,sans-Serif" font-size="10.00" fill="#000000">/common.h</text>
</a>
</g>
</g>
<!-- Node2 -->
<g id="node2" class="node">
<title>Node2</title>
<g id="a_node2"><a xlink:href="adpcm_8c.html" target="_top" xlink:title=" ">
<polygon fill="#ffffff" stroke="#000000" points="0,-.5 0,-30.5 117,-30.5 117,-.5 0,-.5"/>
<text text-anchor="start" x="8" y="-18.5" font-family="Helvetica,sans-Serif" font-size="10.00" fill="#000000">iop/sound/audsrv/src</text>
<text text-anchor="middle" x="58.5" y="-7.5" font-family="Helvetica,sans-Serif" font-size="10.00" fill="#000000">/adpcm.c</text>
</a>
</g>
</g>
<!-- Node1&#45;&gt;Node2 -->
<g id="edge1" class="edge">
<title>Node1&#45;&gt;Node2</title>
<path fill="none" stroke="#191970" d="M260.1536,-65.54C216.1286,-54.6152 159.4784,-40.5576 117.4372,-30.1252"/>
<polygon fill="#191970" stroke="#191970" points="259.3654,-68.9505 269.914,-67.962 261.0514,-62.1565 259.3654,-68.9505"/>
</g>
<!-- Node3 -->
<g id="node3" class="node">
<title>Node3</title>
<g id="a_node3"><a xlink:href="audsrv_8c.html" target="_top" xlink:title=" ">
<polygon fill="#ffffff" stroke="#000000" points="135,-.5 135,-30.5 252,-30.5 252,-.5 135,-.5"/>
<text text-anchor="start" x="143" y="-18.5" font-family="Helvetica,sans-Serif" font-size="10.00" fill="#000000">iop/sound/audsrv/src</text>
<text text-anchor="middle" x="193.5" y="-7.5" font-family="Helvetica,sans-Serif" font-size="10.00" fill="#000000">/audsrv.c</text>
</a>
</g>
</g>
<!-- Node1&#45;&gt;Node3 -->
<g id="edge2" class="edge">
<title>Node1&#45;&gt;Node3</title>
<path fill="none" stroke="#191970" d="M289.034,-62.9132C268.3445,-52.645 243.3818,-40.2561 224.1626,-30.7177"/>
<polygon fill="#191970" stroke="#191970" points="287.6899,-66.1534 298.2034,-67.4639 290.8018,-59.8831 287.6899,-66.1534"/>
</g>
<!-- Node4 -->
<g id="node4" class="node">
<title>Node4</title>
<g id="a_node4"><a xlink:href="cdrom_8c.html" target="_top" xlink:title=" ">
<polygon fill="#ffffff" stroke="#000000" points="270,-.5 270,-30.5 387,-30.5 387,-.5 270,-.5"/>
<text text-anchor="start" x="278" y="-18.5" font-family="Helvetica,sans-Serif" font-size="10.00" fill="#000000">iop/sound/audsrv/src</text>
<text text-anchor="middle" x="328.5" y="-7.5" font-family="Helvetica,sans-Serif" font-size="10.00" fill="#000000">/cdrom.c</text>
</a>
</g>
</g>
<!-- Node1&#45;&gt;Node4 -->
<g id="edge3" class="edge">
<title>Node1&#45;&gt;Node4</title>
<path fill="none" stroke="#191970" d="M328.5,-57.0249C328.5,-48.128 328.5,-38.4287 328.5,-30.6432"/>
<polygon fill="#191970" stroke="#191970" points="325.0001,-57.2966 328.5,-67.2967 332.0001,-57.2967 325.0001,-57.2966"/>
</g>
<!-- Node5 -->
<g id="node5" class="node">
<title>Node5</title>
<g id="a_node5"><a xlink:href="common_8c.html" target="_top" xlink:title=" ">
<polygon fill="#ffffff" stroke="#000000" points="405,-.5 405,-30.5 522,-30.5 522,-.5 405,-.5"/>
<text text-anchor="start" x="413" y="-18.5" font-family="Helvetica,sans-Serif" font-size="10.00" fill="#000000">iop/sound/audsrv/src</text>
<text text-anchor="middle" x="463.5" y="-7.5" font-family="Helvetica,sans-Serif" font-size="10.00" fill="#000000">/common.c</text>
</a>
</g>
</g>
<!-- Node1&#45;&gt;Node5 -->
<g id="edge4" class="edge">
<title>Node1&#45;&gt;Node5</title>
<path fill="none" stroke="#191970" d="M367.966,-62.9132C388.6555,-52.645 413.6182,-40.2561 432.8374,-30.7177"/>
<polygon fill="#191970" stroke="#191970" points="366.1982,-59.8831 358.7966,-67.4639 369.3101,-66.1534 366.1982,-59.8831"/>
</g>
<!-- Node6 -->
<g id="node6" class="node">
<title>Node6</title>
<g id="a_node6"><a xlink:href="sound_2audsrv_2src_2rpc__server_8c.html" target="_top" xlink:title=" ">
<polygon fill="#ffffff" stroke="#000000" points="540,-.5 540,-30.5 657,-30.5 657,-.5 540,-.5"/>
<text text-anchor="start" x="548" y="-18.5" font-family="Helvetica,sans-Serif" font-size="10.00" fill="#000000">iop/sound/audsrv/src</text>
<text text-anchor="middle" x="598.5" y="-7.5" font-family="Helvetica,sans-Serif" font-size="10.00" fill="#000000">/rpc_server.c</text>
</a>
</g>
</g>
<!-- Node1&#45;&gt;Node6 -->
<g id="edge5" class="edge">
<title>Node1&#45;&gt;Node6</title>
<path fill="none" stroke="#191970" d="M396.8464,-65.54C440.8714,-54.6152 497.5216,-40.5576 539.5628,-30.1252"/>
<polygon fill="#191970" stroke="#191970" points="395.9486,-62.1565 387.086,-67.962 397.6346,-68.9505 395.9486,-62.1565"/>
</g>
</g>
</svg>
