<?xml version="1.0" encoding="UTF-8" standalone="no"?>
<!DOCTYPE svg PUBLIC "-//W3C//DTD SVG 1.1//EN"
 "http://www.w3.org/Graphics/SVG/1.1/DTD/svg11.dtd">
<!-- Generated by graphviz version 2.40.1 (20161225.0304)
 -->
<!-- Title: iop/sound/audsrv/src/rpc_client.c Pages: 1 -->
<!--zoomable 263 -->
<svg id="main" version="1.1" xmlns="http://www.w3.org/2000/svg" xmlns:xlink="http://www.w3.org/1999/xlink" xml:space="preserve" onload="init(evt)">
<style type="text/css"><![CDATA[
.edge:hover path { stroke: red; }
.edge:hover polygon { stroke: red; fill: red; }
]]></style>
<script type="text/javascript"><![CDATA[
var edges = document.getElementsByTagName('g');
if (edges && edges.length) {
  for (var i=0;i<edges.length;i++) {
    if (edges[i].id.substr(0,4)=='edge') {
      edges[i].setAttribute('class','edge');
    }
  }
}
]]></script>
        <defs>
                <circle id="rim" cx="0" cy="0" r="7"/>
                <circle id="rim2" cx="0" cy="0" r="3.5"/>
                <g id="zoomPlus">
                        <use xlink:href="#rim" fill="#404040">
                                <set attributeName="fill" to="#808080" begin="zoomplus.mouseover" end="zoomplus.mouseout"/>
                        </use>
                        <path d="M-4,0h8M0,-4v8" fill="none" stroke="white" stroke-width="1.5" pointer-events="none"/>
                </g>
                <g id="zoomMin">
                        <use xlink:href="#rim" fill="#404040">
                                <set attributeName="fill" to="#808080" begin="zoomminus.mouseover" end="zoomminus.mouseout"/>
                        </use>
                        <path d="M-4,0h8" fill="none" stroke="white" stroke-width="1.5" pointer-events="none"/>
                </g>
                <g id="dirArrow">
                        <path fill="none" stroke="white" stroke-width="1.5" d="M0,-3.0v7 M-2.5,-0.5L0,-3.0L2.5,-0.5"/>
                </g>
               <g id="resetDef">
                       <use xlink:href="#rim2" fill="#404040">
                               <set attributeName="fill" to="#808080" begin="reset.mouseover" end="reset.mouseout"/>
                       </use>
               </g>
        </defs>

<script type="text/javascript">
var viewWidth = 984;
var viewHeight = 263;
var sectionId = 'dynsection-0';
</script>
<script xlink:href="svgpan.js"/>
<svg id="graph" class="graph">
<g id="viewport">
<title>iop/sound/audsrv/src/rpc_client.c</title>
<polygon fill="#ffffff" stroke="transparent" points="-4,4 -4,-259 980,-259 980,4 -4,4"/>
<!-- Node1 -->
<g id="node1" class="node">
<title>Node1</title>
<g id="a_node1"><a xlink:title=" ">
<polygon fill="#bfbfbf" stroke="#000000" points="416,-224.5 416,-254.5 533,-254.5 533,-224.5 416,-224.5"/>
<text text-anchor="start" x="424" y="-242.5" font-family="Helvetica,sans-Serif" font-size="10.00" fill="#000000">iop/sound/audsrv/src</text>
<text text-anchor="middle" x="474.5" y="-231.5" font-family="Helvetica,sans-Serif" font-size="10.00" fill="#000000">/rpc_client.c</text>
</a>
</g>
</g>
<!-- Node2 -->
<g id="node2" class="node">
<title>Node2</title>
<g id="a_node2"><a xlink:href="stdio_8h.html" target="_top" xlink:title=" ">
<polygon fill="#ffffff" stroke="#000000" points="245.5,-168.5 245.5,-187.5 295.5,-187.5 295.5,-168.5 245.5,-168.5"/>
<text text-anchor="middle" x="270.5" y="-175.5" font-family="Helvetica,sans-Serif" font-size="10.00" fill="#000000">stdio.h</text>
</a>
</g>
</g>
<!-- Node1&#45;&gt;Node2 -->
<g id="edge1" class="edge">
<title>Node1&#45;&gt;Node2</title>
<path fill="none" stroke="#191970" d="M424.596,-224.4554C387.6091,-213.305 338.1295,-198.3883 305.3315,-188.5007"/>
<polygon fill="#191970" stroke="#191970" points="306.3053,-185.1387 295.7206,-185.6033 304.2847,-191.8408 306.3053,-185.1387"/>
</g>
<!-- Node8 -->
<g id="node8" class="node">
<title>Node8</title>
<g id="a_node8"><a xlink:href="thbase_8h.html" target="_top" xlink:title=" ">
<polygon fill="#ffffff" stroke="#000000" points="563,-168.5 563,-187.5 622,-187.5 622,-168.5 563,-168.5"/>
<text text-anchor="middle" x="592.5" y="-175.5" font-family="Helvetica,sans-Serif" font-size="10.00" fill="#000000">thbase.h</text>
</a>
</g>
</g>
<!-- Node1&#45;&gt;Node8 -->
<g id="edge7" class="edge">
<title>Node1&#45;&gt;Node8</title>
<path fill="none" stroke="#191970" d="M503.366,-224.4554C522.1911,-214.644 546.611,-201.9167 565.1292,-192.2653"/>
<polygon fill="#191970" stroke="#191970" points="566.964,-195.2559 574.2142,-187.5303 563.7287,-189.0484 566.964,-195.2559"/>
</g>
<!-- Node9 -->
<g id="node9" class="node">
<title>Node9</title>
<g id="a_node9"><a xlink:href="thsemap_8h.html" target="_top" xlink:title=" ">
<polygon fill="#ffffff" stroke="#000000" points="77.5,-168.5 77.5,-187.5 145.5,-187.5 145.5,-168.5 77.5,-168.5"/>
<text text-anchor="middle" x="111.5" y="-175.5" font-family="Helvetica,sans-Serif" font-size="10.00" fill="#000000">thsemap.h</text>
</a>
</g>
</g>
<!-- Node1&#45;&gt;Node9 -->
<g id="edge10" class="edge">
<title>Node1&#45;&gt;Node9</title>
<path fill="none" stroke="#191970" d="M415.8924,-231.3059C353.6939,-222.3315 252.336,-206.9147 155.6636,-188.1299"/>
<polygon fill="#191970" stroke="#191970" points="156.208,-184.6701 145.7217,-186.1827 154.8625,-191.5396 156.208,-184.6701"/>
</g>
<!-- Node10 -->
<g id="node10" class="node">
<title>Node10</title>
<g id="a_node10"><a xlink:href="loadcore_8h.html" target="_top" xlink:title=" ">
<polygon fill="#ffffff" stroke="#000000" points="313.5,-168.5 313.5,-187.5 381.5,-187.5 381.5,-168.5 313.5,-168.5"/>
<text text-anchor="middle" x="347.5" y="-175.5" font-family="Helvetica,sans-Serif" font-size="10.00" fill="#000000">loadcore.h</text>
</a>
</g>
</g>
<!-- Node1&#45;&gt;Node10 -->
<g id="edge13" class="edge">
<title>Node1&#45;&gt;Node10</title>
<path fill="none" stroke="#191970" d="M443.4323,-224.4554C422.9855,-214.554 396.4063,-201.683 376.4115,-192.0004"/>
<polygon fill="#191970" stroke="#191970" points="377.7062,-188.7387 367.1805,-187.5303 374.6553,-195.0388 377.7062,-188.7387"/>
</g>
<!-- Node11 -->
<g id="node11" class="node">
<title>Node11</title>
<g id="a_node11"><a xlink:href="sysmem_8h.html" target="_top" xlink:title=" ">
<polygon fill="#ffffff" stroke="#000000" points="399.5,-168.5 399.5,-187.5 467.5,-187.5 467.5,-168.5 399.5,-168.5"/>
<text text-anchor="middle" x="433.5" y="-175.5" font-family="Helvetica,sans-Serif" font-size="10.00" fill="#000000">sysmem.h</text>
</a>
</g>
</g>
<!-- Node1&#45;&gt;Node11 -->
<g id="edge16" class="edge">
<title>Node1&#45;&gt;Node11</title>
<path fill="none" stroke="#191970" d="M464.3652,-224.2977C458.7332,-215.8498 451.6849,-205.2773 445.746,-196.369"/>
<polygon fill="#191970" stroke="#191970" points="448.5238,-194.226 440.0646,-187.8469 442.6995,-198.1089 448.5238,-194.226"/>
</g>
<!-- Node12 -->
<g id="node12" class="node">
<title>Node12</title>
<g id="a_node12"><a xlink:href="intrman_8h.html" target="_top" xlink:title=" ">
<polygon fill="#ffffff" stroke="#000000" points="163.5,-168.5 163.5,-187.5 227.5,-187.5 227.5,-168.5 163.5,-168.5"/>
<text text-anchor="middle" x="195.5" y="-175.5" font-family="Helvetica,sans-Serif" font-size="10.00" fill="#000000">intrman.h</text>
</a>
</g>
</g>
<!-- Node1&#45;&gt;Node12 -->
<g id="edge20" class="edge">
<title>Node1&#45;&gt;Node12</title>
<path fill="none" stroke="#191970" d="M415.7202,-227.2274C369.7544,-217.528 303.9911,-203.428 237.5201,-188.1955"/>
<polygon fill="#191970" stroke="#191970" points="238.2401,-184.7698 227.7101,-185.9403 236.6717,-191.5919 238.2401,-184.7698"/>
</g>
<!-- Node13 -->
<g id="node13" class="node">
<title>Node13</title>
<g id="a_node13"><a xlink:href="sifcmd_8h.html" target="_top" xlink:title=" ">
<polygon fill="#ffffff" stroke="#000000" points="486,-168.5 486,-187.5 545,-187.5 545,-168.5 486,-168.5"/>
<text text-anchor="middle" x="515.5" y="-175.5" font-family="Helvetica,sans-Serif" font-size="10.00" fill="#000000">sifcmd.h</text>
</a>
</g>
</g>
<!-- Node1&#45;&gt;Node13 -->
<g id="edge23" class="edge">
<title>Node1&#45;&gt;Node13</title>
<path fill="none" stroke="#191970" d="M484.6348,-224.2977C490.2668,-215.8498 497.3151,-205.2773 503.254,-196.369"/>
<polygon fill="#191970" stroke="#191970" points="506.3005,-198.1089 508.9354,-187.8469 500.4762,-194.226 506.3005,-198.1089"/>
</g>
<!-- Node14 -->
<g id="node14" class="node">
<title>Node14</title>
<g id="a_node14"><a xlink:href="libsd_8h.html" target="_top" xlink:title=" ">
<polygon fill="#ffffff" stroke="#000000" points="640,-168.5 640,-187.5 689,-187.5 689,-168.5 640,-168.5"/>
<text text-anchor="middle" x="664.5" y="-175.5" font-family="Helvetica,sans-Serif" font-size="10.00" fill="#000000">libsd.h</text>
</a>
</g>
</g>
<!-- Node1&#45;&gt;Node14 -->
<g id="edge26" class="edge">
<title>Node1&#45;&gt;Node14</title>
<path fill="none" stroke="#191970" d="M520.9792,-224.4554C554.736,-213.5289 599.6655,-198.9859 630.2,-189.1024"/>
<polygon fill="#191970" stroke="#191970" points="631.5303,-192.3506 639.9664,-185.9411 629.3745,-185.6908 631.5303,-192.3506"/>
</g>
<!-- Node16 -->
<g id="node16" class="node">
<title>Node16</title>
<g id="a_node16"><a xlink:href="sysclib_8h.html" target="_top" xlink:title=" ">
<polygon fill="#ffffff" stroke="#000000" points="0,-168.5 0,-187.5 59,-187.5 59,-168.5 0,-168.5"/>
<text text-anchor="middle" x="29.5" y="-175.5" font-family="Helvetica,sans-Serif" font-size="10.00" fill="#000000">sysclib.h</text>
</a>
</g>
</g>
<!-- Node1&#45;&gt;Node16 -->
<g id="edge31" class="edge">
<title>Node1&#45;&gt;Node16</title>
<path fill="none" stroke="#191970" d="M415.9833,-234.3919C338.7661,-227.1386 198.5088,-212.1939 69.2991,-187.9434"/>
<polygon fill="#191970" stroke="#191970" points="69.702,-184.4574 59.2244,-186.0291 68.3952,-191.3343 69.702,-184.4574"/>
</g>
<!-- Node18 -->
<g id="node18" class="node">
<title>Node18</title>
<g id="a_node18"><a xlink:href="audsrv_8h.html" target="_top" xlink:title=" ">
<polygon fill="#ffffff" stroke="#000000" points="707.5,-168.5 707.5,-187.5 765.5,-187.5 765.5,-168.5 707.5,-168.5"/>
<text text-anchor="middle" x="736.5" y="-175.5" font-family="Helvetica,sans-Serif" font-size="10.00" fill="#000000">audsrv.h</text>
</a>
</g>
</g>
<!-- Node1&#45;&gt;Node18 -->
<g id="edge37" class="edge">
<title>Node1&#45;&gt;Node18</title>
<path fill="none" stroke="#191970" d="M533.1024,-226.5543C576.0653,-216.9424 636.0483,-203.2729 697.5897,-188.1728"/>
<polygon fill="#191970" stroke="#191970" points="698.605,-191.5275 707.4778,-185.7375 696.9309,-184.7306 698.605,-191.5275"/>
</g>
<!-- Node20 -->
<g id="node20" class="node">
<title>Node20</title>
<g id="a_node20"><a xlink:href="audsrv__internal_8h.html" target="_top" xlink:title=" ">
<polygon fill="#ffffff" stroke="#000000" points="784,-168.5 784,-187.5 885,-187.5 885,-168.5 784,-168.5"/>
<text text-anchor="middle" x="834.5" y="-175.5" font-family="Helvetica,sans-Serif" font-size="10.00" fill="#000000">audsrv_internal.h</text>
</a>
</g>
</g>
<!-- Node1&#45;&gt;Node20 -->
<g id="edge40" class="edge">
<title>Node1&#45;&gt;Node20</title>
<path fill="none" stroke="#191970" d="M533.1414,-229.4821C599.3753,-218.1671 706.6442,-199.842 773.7388,-188.38"/>
<polygon fill="#191970" stroke="#191970" points="774.4753,-191.805 783.7431,-186.671 773.2965,-184.905 774.4753,-191.805"/>
</g>
<!-- Node21 -->
<g id="node21" class="node">
<title>Node21</title>
<g id="a_node21"><a xlink:href="sound_2audsrv_2src_2rpc__client_8h.html" target="_top" xlink:title=" ">
<polygon fill="#ffffff" stroke="#000000" points="903,-168.5 903,-187.5 976,-187.5 976,-168.5 903,-168.5"/>
<text text-anchor="middle" x="939.5" y="-175.5" font-family="Helvetica,sans-Serif" font-size="10.00" fill="#000000">rpc_client.h</text>
</a>
</g>
</g>
<!-- Node1&#45;&gt;Node21 -->
<g id="edge41" class="edge">
<title>Node1&#45;&gt;Node21</title>
<path fill="none" stroke="#191970" d="M533.1941,-234.1111C612.643,-226.4159 758.9864,-210.8273 892.7063,-188.1898"/>
<polygon fill="#191970" stroke="#191970" points="893.4536,-191.6129 902.7204,-186.477 892.2734,-184.7131 893.4536,-191.6129"/>
</g>
<!-- Node3 -->
<g id="node3" class="node">
<title>Node3</title>
<g id="a_node3"><a xlink:title=" ">
<polygon fill="#ffffff" stroke="#bfbfbf" points="242.5,-112.5 242.5,-131.5 298.5,-131.5 298.5,-112.5 242.5,-112.5"/>
<text text-anchor="middle" x="270.5" y="-119.5" font-family="Helvetica,sans-Serif" font-size="10.00" fill="#000000">stdarg.h</text>
</a>
</g>
</g>
<!-- Node2&#45;&gt;Node3 -->
<g id="edge2" class="edge">
<title>Node2&#45;&gt;Node3</title>
<path fill="none" stroke="#191970" d="M270.5,-168.2455C270.5,-160.9382 270.5,-150.6944 270.5,-141.7046"/>
<polygon fill="#191970" stroke="#191970" points="274.0001,-141.6426 270.5,-131.6427 267.0001,-141.6427 274.0001,-141.6426"/>
</g>
<!-- Node4 -->
<g id="node4" class="node">
<title>Node4</title>
<g id="a_node4"><a xlink:href="irx_8h.html" target="_top" xlink:title=" ">
<polygon fill="#ffffff" stroke="#000000" points="371.5,-112.5 371.5,-131.5 409.5,-131.5 409.5,-112.5 371.5,-112.5"/>
<text text-anchor="middle" x="390.5" y="-119.5" font-family="Helvetica,sans-Serif" font-size="10.00" fill="#000000">irx.h</text>
</a>
</g>
</g>
<!-- Node2&#45;&gt;Node4 -->
<g id="edge3" class="edge">
<title>Node2&#45;&gt;Node4</title>
<path fill="none" stroke="#191970" d="M291.1287,-168.3733C310.7421,-159.2204 340.4048,-145.3778 362.2179,-135.1983"/>
<polygon fill="#191970" stroke="#191970" points="363.7463,-138.3475 371.328,-130.9469 360.7861,-132.0042 363.7463,-138.3475"/>
</g>
<!-- Node5 -->
<g id="node5" class="node">
<title>Node5</title>
<g id="a_node5"><a xlink:href="types_8h.html" target="_top" xlink:title=" ">
<polygon fill="#ffffff" stroke="#000000" points="364,-56.5 364,-75.5 417,-75.5 417,-56.5 364,-56.5"/>
<text text-anchor="middle" x="390.5" y="-63.5" font-family="Helvetica,sans-Serif" font-size="10.00" fill="#000000">types.h</text>
</a>
</g>
</g>
<!-- Node4&#45;&gt;Node5 -->
<g id="edge4" class="edge">
<title>Node4&#45;&gt;Node5</title>
<path fill="none" stroke="#191970" d="M390.5,-112.2455C390.5,-104.9382 390.5,-94.6944 390.5,-85.7046"/>
<polygon fill="#191970" stroke="#191970" points="394.0001,-85.6426 390.5,-75.6427 387.0001,-85.6427 394.0001,-85.6426"/>
</g>
<!-- Node6 -->
<g id="node6" class="node">
<title>Node6</title>
<g id="a_node6"><a xlink:title=" ">
<polygon fill="#ffffff" stroke="#bfbfbf" points="321.5,-.5 321.5,-19.5 377.5,-19.5 377.5,-.5 321.5,-.5"/>
<text text-anchor="middle" x="349.5" y="-7.5" font-family="Helvetica,sans-Serif" font-size="10.00" fill="#000000">stddef.h</text>
</a>
</g>
</g>
<!-- Node5&#45;&gt;Node6 -->
<g id="edge5" class="edge">
<title>Node5&#45;&gt;Node6</title>
<path fill="none" stroke="#191970" d="M383.3583,-56.2455C377.6556,-48.4564 369.51,-37.3308 362.6375,-27.9439"/>
<polygon fill="#191970" stroke="#191970" points="365.2913,-25.6437 356.5598,-19.6427 359.6432,-29.7789 365.2913,-25.6437"/>
</g>
<!-- Node7 -->
<g id="node7" class="node">
<title>Node7</title>
<g id="a_node7"><a xlink:href="tamtypes_8h.html" target="_top" xlink:title=" ">
<polygon fill="#ffffff" stroke="#000000" points="395.5,-.5 395.5,-19.5 467.5,-19.5 467.5,-.5 395.5,-.5"/>
<text text-anchor="middle" x="431.5" y="-7.5" font-family="Helvetica,sans-Serif" font-size="10.00" fill="#000000">tamtypes.h</text>
</a>
</g>
</g>
<!-- Node5&#45;&gt;Node7 -->
<g id="edge6" class="edge">
<title>Node5&#45;&gt;Node7</title>
<path fill="none" stroke="#191970" d="M397.6417,-56.2455C403.3444,-48.4564 411.49,-37.3308 418.3625,-27.9439"/>
<polygon fill="#191970" stroke="#191970" points="421.3568,-29.7789 424.4402,-19.6427 415.7087,-25.6437 421.3568,-29.7789"/>
</g>
<!-- Node8&#45;&gt;Node4 -->
<g id="edge9" class="edge">
<title>Node8&#45;&gt;Node4</title>
<path fill="none" stroke="#191970" d="M562.6942,-169.737C524.1735,-159.058 457.5414,-140.5857 419.445,-130.0244"/>
<polygon fill="#191970" stroke="#191970" points="420.0753,-126.5671 409.5037,-127.2683 418.2052,-133.3127 420.0753,-126.5671"/>
</g>
<!-- Node8&#45;&gt;Node5 -->
<g id="edge8" class="edge">
<title>Node8&#45;&gt;Node5</title>
<path fill="none" stroke="#191970" d="M575.2776,-168.4509C539.7975,-148.7788 458.3798,-103.6363 416.4723,-80.4005"/>
<polygon fill="#191970" stroke="#191970" points="418.1217,-77.313 407.6788,-75.5249 414.7273,-83.435 418.1217,-77.313"/>
</g>
<!-- Node9&#45;&gt;Node4 -->
<g id="edge12" class="edge">
<title>Node9&#45;&gt;Node4</title>
<path fill="none" stroke="#191970" d="M145.7427,-169.9195C148.7017,-169.2568 151.6518,-168.6086 154.5,-168 228.9505,-152.0926 317.1005,-135.5038 361.6439,-127.2782"/>
<polygon fill="#191970" stroke="#191970" points="362.2858,-130.7189 371.4866,-125.4657 361.0181,-123.8346 362.2858,-130.7189"/>
</g>
<!-- Node9&#45;&gt;Node5 -->
<g id="edge11" class="edge">
<title>Node9&#45;&gt;Node5</title>
<path fill="none" stroke="#191970" d="M123.6358,-168.2818C142.034,-153.9973 178.5528,-127.3675 213.5,-112 259.7925,-91.6437 316.9982,-78.811 353.6172,-72.02"/>
<polygon fill="#191970" stroke="#191970" points="354.6064,-75.3983 363.8293,-70.184 353.3678,-68.5087 354.6064,-75.3983"/>
</g>
<!-- Node10&#45;&gt;Node4 -->
<g id="edge15" class="edge">
<title>Node10&#45;&gt;Node4</title>
<path fill="none" stroke="#191970" d="M354.99,-168.2455C361.0326,-160.3761 369.6903,-149.101 376.9441,-139.6542"/>
<polygon fill="#191970" stroke="#191970" points="379.7815,-141.7058 383.0958,-131.6427 374.2295,-137.4426 379.7815,-141.7058"/>
</g>
<!-- Node10&#45;&gt;Node5 -->
<g id="edge14" class="edge">
<title>Node10&#45;&gt;Node5</title>
<path fill="none" stroke="#191970" d="M348.7028,-168.3074C350.5542,-155.1741 354.7305,-131.166 362.5,-112 366.43,-102.3053 372.2735,-92.2977 377.6071,-84.1027"/>
<polygon fill="#191970" stroke="#191970" points="380.5667,-85.9745 383.283,-75.7338 374.7733,-82.0454 380.5667,-85.9745"/>
</g>
<!-- Node11&#45;&gt;Node3 -->
<g id="edge19" class="edge">
<title>Node11&#45;&gt;Node3</title>
<path fill="none" stroke="#191970" d="M405.4793,-168.3733C378.4922,-159.1016 337.4983,-145.0178 307.7689,-134.804"/>
<polygon fill="#191970" stroke="#191970" points="308.7497,-131.4403 298.1551,-131.5011 306.4752,-138.0605 308.7497,-131.4403"/>
</g>
<!-- Node11&#45;&gt;Node4 -->
<g id="edge18" class="edge">
<title>Node11&#45;&gt;Node4</title>
<path fill="none" stroke="#191970" d="M426.01,-168.2455C419.9674,-160.3761 411.3097,-149.101 404.0559,-139.6542"/>
<polygon fill="#191970" stroke="#191970" points="406.7705,-137.4426 397.9042,-131.6427 401.2185,-141.7058 406.7705,-137.4426"/>
</g>
<!-- Node11&#45;&gt;Node5 -->
<g id="edge17" class="edge">
<title>Node11&#45;&gt;Node5</title>
<path fill="none" stroke="#191970" d="M432.2972,-168.3074C430.4458,-155.1741 426.2695,-131.166 418.5,-112 414.57,-102.3053 408.7265,-92.2977 403.3929,-84.1027"/>
<polygon fill="#191970" stroke="#191970" points="406.2267,-82.0454 397.717,-75.7338 400.4333,-85.9745 406.2267,-82.0454"/>
</g>
<!-- Node12&#45;&gt;Node4 -->
<g id="edge22" class="edge">
<title>Node12&#45;&gt;Node4</title>
<path fill="none" stroke="#191970" d="M227.7003,-168.7527C264.9166,-158.065 325.6249,-140.6308 361.4504,-130.3424"/>
<polygon fill="#191970" stroke="#191970" points="362.6403,-133.6423 371.2857,-127.5179 360.7081,-126.9142 362.6403,-133.6423"/>
</g>
<!-- Node12&#45;&gt;Node5 -->
<g id="edge21" class="edge">
<title>Node12&#45;&gt;Node5</title>
<path fill="none" stroke="#191970" d="M198.4495,-168.3742C203.3608,-153.9616 214.5892,-126.881 233.5,-112 268.4947,-84.4625 319.5115,-73.4013 353.8003,-68.9638"/>
<polygon fill="#191970" stroke="#191970" points="354.3417,-72.4245 363.8683,-67.7884 353.5299,-65.4717 354.3417,-72.4245"/>
</g>
<!-- Node13&#45;&gt;Node4 -->
<g id="edge25" class="edge">
<title>Node13&#45;&gt;Node4</title>
<path fill="none" stroke="#191970" d="M494.0117,-168.3733C473.2452,-159.0699 441.6636,-144.9213 418.8464,-134.6992"/>
<polygon fill="#191970" stroke="#191970" points="420.2184,-131.4787 409.6613,-130.5843 417.3564,-137.8669 420.2184,-131.4787"/>
</g>
<!-- Node13&#45;&gt;Node5 -->
<g id="edge24" class="edge">
<title>Node13&#45;&gt;Node5</title>
<path fill="none" stroke="#191970" d="M504.8426,-168.4509C483.4406,-149.2747 435.0271,-105.8962 408.579,-82.1988"/>
<polygon fill="#191970" stroke="#191970" points="410.9138,-79.5914 401.1305,-75.5249 406.2426,-84.8048 410.9138,-79.5914"/>
</g>
<!-- Node14&#45;&gt;Node4 -->
<g id="edge28" class="edge">
<title>Node14&#45;&gt;Node4</title>
<path fill="none" stroke="#191970" d="M639.7115,-170.1817C636.9524,-169.403 634.1739,-168.6584 631.5,-168 555.876,-149.3798 465.3387,-133.8922 419.7682,-126.5609"/>
<polygon fill="#191970" stroke="#191970" points="420.1323,-123.0749 409.7061,-124.9576 419.0307,-129.9877 420.1323,-123.0749"/>
</g>
<!-- Node14&#45;&gt;Node5 -->
<g id="edge27" class="edge">
<title>Node14&#45;&gt;Node5</title>
<path fill="none" stroke="#191970" d="M641.4713,-168.4354C610.4036,-155.547 553.3271,-131.9213 504.5,-112 477.4749,-100.9738 446.7895,-88.6003 424.0676,-79.4659"/>
<polygon fill="#191970" stroke="#191970" points="425.1251,-76.1189 414.5411,-75.6383 422.5153,-82.6142 425.1251,-76.1189"/>
</g>
<!-- Node15 -->
<g id="node15" class="node">
<title>Node15</title>
<g id="a_node15"><a xlink:href="libsd-common_8h.html" target="_top" xlink:title=" ">
<polygon fill="#ffffff" stroke="#000000" points="528,-56.5 528,-75.5 623,-75.5 623,-56.5 528,-56.5"/>
<text text-anchor="middle" x="575.5" y="-63.5" font-family="Helvetica,sans-Serif" font-size="10.00" fill="#000000">libsd&#45;common.h</text>
</a>
</g>
</g>
<!-- Node14&#45;&gt;Node15 -->
<g id="edge29" class="edge">
<title>Node14&#45;&gt;Node15</title>
<path fill="none" stroke="#191970" d="M656.9119,-168.4509C641.9364,-149.6054 608.3862,-107.3849 589.3601,-83.4419"/>
<polygon fill="#191970" stroke="#191970" points="592.0305,-81.1765 583.0689,-75.5249 586.5501,-85.5315 592.0305,-81.1765"/>
</g>
<!-- Node15&#45;&gt;Node7 -->
<g id="edge30" class="edge">
<title>Node15&#45;&gt;Node7</title>
<path fill="none" stroke="#191970" d="M550.7455,-56.3733C527.2151,-47.2226 491.6313,-33.3844 465.4574,-23.2057"/>
<polygon fill="#191970" stroke="#191970" points="466.5201,-19.8636 455.9315,-19.5011 463.9829,-26.3877 466.5201,-19.8636"/>
</g>
<!-- Node16&#45;&gt;Node3 -->
<g id="edge34" class="edge">
<title>Node16&#45;&gt;Node3</title>
<path fill="none" stroke="#191970" d="M59.2897,-170.2731C62.397,-169.4936 65.5108,-168.7235 68.5,-168 125.4208,-154.2241 191.6522,-139.3631 232.3233,-130.3703"/>
<polygon fill="#191970" stroke="#191970" points="233.3295,-133.7326 242.3404,-128.1599 231.8211,-126.897 233.3295,-133.7326"/>
</g>
<!-- Node16&#45;&gt;Node4 -->
<g id="edge33" class="edge">
<title>Node16&#45;&gt;Node4</title>
<path fill="none" stroke="#191970" d="M59.2339,-170.0197C62.352,-169.2897 65.4836,-168.6003 68.5,-168 124.4888,-156.8573 292.8881,-134.6226 361.2157,-125.7666"/>
<polygon fill="#191970" stroke="#191970" points="361.8216,-129.2175 371.2901,-124.4639 360.9238,-122.2753 361.8216,-129.2175"/>
</g>
<!-- Node16&#45;&gt;Node5 -->
<g id="edge32" class="edge">
<title>Node16&#45;&gt;Node5</title>
<path fill="none" stroke="#191970" d="M47.3017,-168.3612C74.1573,-154.1781 126.9554,-127.676 174.5,-112 235.8914,-91.7585 310.1071,-78.2267 353.6273,-71.3462"/>
<polygon fill="#191970" stroke="#191970" points="354.3953,-74.7691 363.7419,-69.7799 353.3241,-67.8515 354.3953,-74.7691"/>
</g>
<!-- Node17 -->
<g id="node17" class="node">
<title>Node17</title>
<g id="a_node17"><a xlink:href="setjmp_8h.html" target="_top" xlink:title=" ">
<polygon fill="#ffffff" stroke="#000000" points="181,-56.5 181,-75.5 240,-75.5 240,-56.5 181,-56.5"/>
<text text-anchor="middle" x="210.5" y="-63.5" font-family="Helvetica,sans-Serif" font-size="10.00" fill="#000000">setjmp.h</text>
</a>
</g>
</g>
<!-- Node16&#45;&gt;Node17 -->
<g id="edge35" class="edge">
<title>Node16&#45;&gt;Node17</title>
<path fill="none" stroke="#191970" d="M36.751,-168.2148C47.6631,-154.0871 69.5905,-127.9288 93.5,-112 117.3404,-96.1171 147.4893,-84.429 171.2114,-76.8093"/>
<polygon fill="#191970" stroke="#191970" points="172.4315,-80.0955 180.9474,-73.7924 170.3595,-73.4092 172.4315,-80.0955"/>
</g>
<!-- Node17&#45;&gt;Node7 -->
<g id="edge36" class="edge">
<title>Node17&#45;&gt;Node7</title>
<path fill="none" stroke="#191970" d="M240.305,-58.4476C277.5781,-49.0028 341.7851,-32.7332 385.4116,-21.6785"/>
<polygon fill="#191970" stroke="#191970" points="386.3755,-25.045 395.2094,-19.1958 384.656,-18.2594 386.3755,-25.045"/>
</g>
<!-- Node18&#45;&gt;Node4 -->
<g id="edge39" class="edge">
<title>Node18&#45;&gt;Node4</title>
<path fill="none" stroke="#191970" d="M707.1163,-169.9289C704.2149,-169.2339 701.3065,-168.5771 698.5,-168 596.9707,-147.124 474.7695,-131.7169 419.8018,-125.2957"/>
<polygon fill="#191970" stroke="#191970" points="420.0664,-121.8031 409.7308,-124.1323 419.263,-128.7568 420.0664,-121.8031"/>
</g>
<!-- Node19 -->
<g id="node19" class="node">
<title>Node19</title>
<g id="a_node19"><a xlink:title=" ">
<polygon fill="#ffffff" stroke="#bfbfbf" points="710,-112.5 710,-131.5 763,-131.5 763,-112.5 710,-112.5"/>
<text text-anchor="middle" x="736.5" y="-119.5" font-family="Helvetica,sans-Serif" font-size="10.00" fill="#000000">types.h</text>
</a>
</g>
</g>
<!-- Node18&#45;&gt;Node19 -->
<g id="edge38" class="edge">
<title>Node18&#45;&gt;Node19</title>
<path fill="none" stroke="#191970" d="M736.5,-168.2455C736.5,-160.9382 736.5,-150.6944 736.5,-141.7046"/>
<polygon fill="#191970" stroke="#191970" points="740.0001,-141.6426 736.5,-131.6427 733.0001,-141.6427 740.0001,-141.6426"/>
</g>
</g>
</svg>
        <g id="navigator" transform="translate(0 0)" fill="#404254">
                <rect fill="#f2f5e9" fill-opacity="0.5" stroke="#606060" stroke-width=".5" x="0" y="0" width="60" height="60"/>
                <use id="zoomplus" xlink:href="#zoomPlus" x="17" y="9" onmousedown="handleZoom(evt,'in')"/>
                <use id="zoomminus" xlink:href="#zoomMin" x="42" y="9" onmousedown="handleZoom(evt,'out')"/>
                <use id="reset" xlink:href="#resetDef" x="30" y="36" onmousedown="handleReset()"/>
                <g id="arrowUp" xlink:href="#dirArrow" transform="translate(30 24)" onmousedown="handlePan(0,-1)">
                  <use xlink:href="#rim" fill="#404040">
                        <set attributeName="fill" to="#808080" begin="arrowUp.mouseover" end="arrowUp.mouseout"/>
                  </use>
                  <path fill="none" stroke="white" stroke-width="1.5" d="M0,-3.0v7 M-2.5,-0.5L0,-3.0L2.5,-0.5"/>
                </g>
                <g id="arrowRight" xlink:href="#dirArrow" transform="rotate(90) translate(36 -43)" onmousedown="handlePan(1,0)">
                  <use xlink:href="#rim" fill="#404040">
                        <set attributeName="fill" to="#808080" begin="arrowRight.mouseover" end="arrowRight.mouseout"/>
                  </use>
                  <path fill="none" stroke="white" stroke-width="1.5" d="M0,-3.0v7 M-2.5,-0.5L0,-3.0L2.5,-0.5"/>
                </g>
                <g id="arrowDown" xlink:href="#dirArrow" transform="rotate(180) translate(-30 -48)" onmousedown="handlePan(0,1)">
                  <use xlink:href="#rim" fill="#404040">
                        <set attributeName="fill" to="#808080" begin="arrowDown.mouseover" end="arrowDown.mouseout"/>
                  </use>
                  <path fill="none" stroke="white" stroke-width="1.5" d="M0,-3.0v7 M-2.5,-0.5L0,-3.0L2.5,-0.5"/>
                </g>
                <g id="arrowLeft" xlink:href="#dirArrow" transform="rotate(270) translate(-36 17)" onmousedown="handlePan(-1,0)">
                  <use xlink:href="#rim" fill="#404040">
                        <set attributeName="fill" to="#808080" begin="arrowLeft.mouseover" end="arrowLeft.mouseout"/>
                  </use>
                  <path fill="none" stroke="white" stroke-width="1.5" d="M0,-3.0v7 M-2.5,-0.5L0,-3.0L2.5,-0.5"/>
                </g>
        </g>
        <svg viewBox="0 0 15 15" width="100%" height="30px" preserveAspectRatio="xMaxYMin meet">
         <g id="arrow_out" transform="scale(0.3 0.3)">
          <a xlink:href="sound_2audsrv_2src_2rpc__client_8c__incl_org.svg" target="_base">
           <rect id="button" ry="5" rx="5" y="6" x="6" height="38" width="38"
                fill="#f2f5e9" fill-opacity="0.5" stroke="#606060" stroke-width="1.0"/>
           <path id="arrow"
             d="M 11.500037,31.436501 C 11.940474,20.09759 22.043105,11.32322 32.158766,21.979434 L 37.068811,17.246167 C 37.068811,17.246167 37.088388,32 37.088388,32 L 22.160133,31.978069 C 22.160133,31.978069 26.997745,27.140456 26.997745,27.140456 C 18.528582,18.264221 13.291696,25.230495 11.500037,31.436501 z"
             style="fill:#404040;"/>
          </a>
         </g>
        </svg>
</svg>
