<?xml version="1.0" encoding="UTF-8" standalone="no"?>
<!DOCTYPE svg PUBLIC "-//W3C//DTD SVG 1.1//EN"
 "http://www.w3.org/Graphics/SVG/1.1/DTD/svg11.dtd">
<!-- Generated by graphviz version 2.40.1 (20161225.0304)
 -->
<!-- Title: iop/sound/libsd/src/irx_imports.h Pages: 1 -->
<svg width="420pt" height="263pt"
 viewBox="0.00 0.00 419.50 263.00" xmlns="http://www.w3.org/2000/svg" xmlns:xlink="http://www.w3.org/1999/xlink">
<g id="graph0" class="graph" transform="scale(1 1) rotate(0) translate(4 259)">
<title>iop/sound/libsd/src/irx_imports.h</title>
<polygon fill="#ffffff" stroke="transparent" points="-4,4 -4,-259 415.5,-259 415.5,4 -4,4"/>
<!-- Node1 -->
<g id="node1" class="node">
<title>Node1</title>
<g id="a_node1"><a xlink:title=" ">
<polygon fill="#bfbfbf" stroke="#000000" points="153.5,-224.5 153.5,-254.5 260.5,-254.5 260.5,-224.5 153.5,-224.5"/>
<text text-anchor="start" x="161.5" y="-242.5" font-family="Helvetica,sans-Serif" font-size="10.00" fill="#000000">iop/sound/libsd/src</text>
<text text-anchor="middle" x="207" y="-231.5" font-family="Helvetica,sans-Serif" font-size="10.00" fill="#000000">/irx_imports.h</text>
</a>
</g>
</g>
<!-- Node2 -->
<g id="node2" class="node">
<title>Node2</title>
<g id="a_node2"><a xlink:href="irx_8h.html" target="_top" xlink:title=" ">
<polygon fill="#ffffff" stroke="#000000" points="170,-112.5 170,-131.5 208,-131.5 208,-112.5 170,-112.5"/>
<text text-anchor="middle" x="189" y="-119.5" font-family="Helvetica,sans-Serif" font-size="10.00" fill="#000000">irx.h</text>
</a>
</g>
</g>
<!-- Node1&#45;&gt;Node2 -->
<g id="edge1" class="edge">
<title>Node1&#45;&gt;Node2</title>
<path fill="none" stroke="#191970" d="M204.1716,-224.2012C202.3182,-213.9697 199.8968,-200.1974 198,-188 195.6086,-172.6217 193.2443,-155.1725 191.5395,-142.0796"/>
<polygon fill="#191970" stroke="#191970" points="194.972,-141.3296 190.227,-131.8568 188.029,-142.2211 194.972,-141.3296"/>
</g>
<!-- Node6 -->
<g id="node6" class="node">
<title>Node6</title>
<g id="a_node6"><a xlink:href="intrman_8h.html" target="_top" xlink:title=" ">
<polygon fill="#ffffff" stroke="#000000" points="0,-168.5 0,-187.5 64,-187.5 64,-168.5 0,-168.5"/>
<text text-anchor="middle" x="32" y="-175.5" font-family="Helvetica,sans-Serif" font-size="10.00" fill="#000000">intrman.h</text>
</a>
</g>
</g>
<!-- Node1&#45;&gt;Node6 -->
<g id="edge5" class="edge">
<title>Node1&#45;&gt;Node6</title>
<path fill="none" stroke="#191970" d="M164.1902,-224.4554C134.991,-214.194 96.7157,-200.7429 68.8698,-190.9571"/>
<polygon fill="#191970" stroke="#191970" points="69.7136,-187.5439 59.1188,-187.5303 67.3927,-194.1479 69.7136,-187.5439"/>
</g>
<!-- Node7 -->
<g id="node7" class="node">
<title>Node7</title>
<g id="a_node7"><a xlink:href="loadcore_8h.html" target="_top" xlink:title=" ">
<polygon fill="#ffffff" stroke="#000000" points="82,-168.5 82,-187.5 150,-187.5 150,-168.5 82,-168.5"/>
<text text-anchor="middle" x="116" y="-175.5" font-family="Helvetica,sans-Serif" font-size="10.00" fill="#000000">loadcore.h</text>
</a>
</g>
</g>
<!-- Node1&#45;&gt;Node7 -->
<g id="edge8" class="edge">
<title>Node1&#45;&gt;Node7</title>
<path fill="none" stroke="#191970" d="M184.5056,-224.2977C170.6033,-214.9022 152.8124,-202.8787 138.8454,-193.4395"/>
<polygon fill="#191970" stroke="#191970" points="140.5436,-190.3629 130.2985,-187.6633 136.624,-196.1626 140.5436,-190.3629"/>
</g>
<!-- Node8 -->
<g id="node8" class="node">
<title>Node8</title>
<g id="a_node8"><a xlink:href="sifman_8h.html" target="_top" xlink:title=" ">
<polygon fill="#ffffff" stroke="#000000" points="206.5,-168.5 206.5,-187.5 265.5,-187.5 265.5,-168.5 206.5,-168.5"/>
<text text-anchor="middle" x="236" y="-175.5" font-family="Helvetica,sans-Serif" font-size="10.00" fill="#000000">sifman.h</text>
</a>
</g>
</g>
<!-- Node1&#45;&gt;Node8 -->
<g id="edge11" class="edge">
<title>Node1&#45;&gt;Node8</title>
<path fill="none" stroke="#191970" d="M214.1685,-224.2977C218.0682,-216.0277 222.928,-205.7215 227.0718,-196.9339"/>
<polygon fill="#191970" stroke="#191970" points="230.2573,-198.3846 231.3567,-187.8469 223.9259,-195.399 230.2573,-198.3846"/>
</g>
<!-- Node9 -->
<g id="node9" class="node">
<title>Node9</title>
<g id="a_node9"><a xlink:href="stdio_8h.html" target="_top" xlink:title=" ">
<polygon fill="#ffffff" stroke="#000000" points="284,-168.5 284,-187.5 334,-187.5 334,-168.5 284,-168.5"/>
<text text-anchor="middle" x="309" y="-175.5" font-family="Helvetica,sans-Serif" font-size="10.00" fill="#000000">stdio.h</text>
</a>
</g>
</g>
<!-- Node1&#45;&gt;Node9 -->
<g id="edge14" class="edge">
<title>Node1&#45;&gt;Node9</title>
<path fill="none" stroke="#191970" d="M231.952,-224.4554C247.9259,-214.8241 268.5602,-202.3828 284.4543,-192.7996"/>
<polygon fill="#191970" stroke="#191970" points="286.437,-195.6912 293.1936,-187.5303 282.8226,-189.6965 286.437,-195.6912"/>
</g>
<!-- Node11 -->
<g id="node11" class="node">
<title>Node11</title>
<g id="a_node11"><a xlink:href="sysclib_8h.html" target="_top" xlink:title=" ">
<polygon fill="#ffffff" stroke="#000000" points="352.5,-168.5 352.5,-187.5 411.5,-187.5 411.5,-168.5 352.5,-168.5"/>
<text text-anchor="middle" x="382" y="-175.5" font-family="Helvetica,sans-Serif" font-size="10.00" fill="#000000">sysclib.h</text>
</a>
</g>
</g>
<!-- Node1&#45;&gt;Node11 -->
<g id="edge17" class="edge">
<title>Node1&#45;&gt;Node11</title>
<path fill="none" stroke="#191970" d="M249.8098,-224.4554C279.009,-214.194 317.2843,-200.7429 345.1302,-190.9571"/>
<polygon fill="#191970" stroke="#191970" points="346.6073,-194.1479 354.8812,-187.5303 344.2864,-187.5439 346.6073,-194.1479"/>
</g>
<!-- Node3 -->
<g id="node3" class="node">
<title>Node3</title>
<g id="a_node3"><a xlink:href="types_8h.html" target="_top" xlink:title=" ">
<polygon fill="#ffffff" stroke="#000000" points="185.5,-56.5 185.5,-75.5 238.5,-75.5 238.5,-56.5 185.5,-56.5"/>
<text text-anchor="middle" x="212" y="-63.5" font-family="Helvetica,sans-Serif" font-size="10.00" fill="#000000">types.h</text>
</a>
</g>
</g>
<!-- Node2&#45;&gt;Node3 -->
<g id="edge2" class="edge">
<title>Node2&#45;&gt;Node3</title>
<path fill="none" stroke="#191970" d="M193.0063,-112.2455C196.0735,-104.7776 200.4003,-94.2427 204.1497,-85.1137"/>
<polygon fill="#191970" stroke="#191970" points="207.4779,-86.2226 208.0396,-75.6427 201.0028,-83.5631 207.4779,-86.2226"/>
</g>
<!-- Node4 -->
<g id="node4" class="node">
<title>Node4</title>
<g id="a_node4"><a xlink:title=" ">
<polygon fill="#ffffff" stroke="#bfbfbf" points="184,-.5 184,-19.5 240,-19.5 240,-.5 184,-.5"/>
<text text-anchor="middle" x="212" y="-7.5" font-family="Helvetica,sans-Serif" font-size="10.00" fill="#000000">stddef.h</text>
</a>
</g>
</g>
<!-- Node3&#45;&gt;Node4 -->
<g id="edge3" class="edge">
<title>Node3&#45;&gt;Node4</title>
<path fill="none" stroke="#191970" d="M212,-56.2455C212,-48.9382 212,-38.6944 212,-29.7046"/>
<polygon fill="#191970" stroke="#191970" points="215.5001,-29.6426 212,-19.6427 208.5001,-29.6427 215.5001,-29.6426"/>
</g>
<!-- Node5 -->
<g id="node5" class="node">
<title>Node5</title>
<g id="a_node5"><a xlink:href="tamtypes_8h.html" target="_top" xlink:title=" ">
<polygon fill="#ffffff" stroke="#000000" points="304,-.5 304,-19.5 376,-19.5 376,-.5 304,-.5"/>
<text text-anchor="middle" x="340" y="-7.5" font-family="Helvetica,sans-Serif" font-size="10.00" fill="#000000">tamtypes.h</text>
</a>
</g>
</g>
<!-- Node3&#45;&gt;Node5 -->
<g id="edge4" class="edge">
<title>Node3&#45;&gt;Node5</title>
<path fill="none" stroke="#191970" d="M234.004,-56.3733C254.6435,-47.3435 285.7158,-33.7494 308.8889,-23.6111"/>
<polygon fill="#191970" stroke="#191970" points="310.5245,-26.7159 318.2831,-19.5011 307.7187,-20.3028 310.5245,-26.7159"/>
</g>
<!-- Node6&#45;&gt;Node2 -->
<g id="edge7" class="edge">
<title>Node6&#45;&gt;Node2</title>
<path fill="none" stroke="#191970" d="M58.9893,-168.3733C87.2227,-158.3027 131.3726,-142.555 160.2479,-132.2555"/>
<polygon fill="#191970" stroke="#191970" points="161.5304,-135.5141 169.7733,-128.8579 159.1786,-128.921 161.5304,-135.5141"/>
</g>
<!-- Node6&#45;&gt;Node3 -->
<g id="edge6" class="edge">
<title>Node6&#45;&gt;Node3</title>
<path fill="none" stroke="#191970" d="M47.3467,-168.4509C78.697,-148.9441 150.2966,-104.3932 187.9075,-80.9909"/>
<polygon fill="#191970" stroke="#191970" points="190.0506,-83.7797 196.6921,-75.5249 186.3525,-77.8362 190.0506,-83.7797"/>
</g>
<!-- Node7&#45;&gt;Node2 -->
<g id="edge10" class="edge">
<title>Node7&#45;&gt;Node2</title>
<path fill="none" stroke="#191970" d="M128.7156,-168.2455C139.602,-159.8943 155.4883,-147.7076 168.22,-137.9408"/>
<polygon fill="#191970" stroke="#191970" points="170.6261,-140.5063 176.4301,-131.6427 166.3654,-134.9523 170.6261,-140.5063"/>
</g>
<!-- Node7&#45;&gt;Node3 -->
<g id="edge9" class="edge">
<title>Node7&#45;&gt;Node3</title>
<path fill="none" stroke="#191970" d="M121.7345,-168.0794C129.6984,-154.6877 144.9487,-130.3878 161,-112 170.434,-101.1927 182.2651,-90.3835 192.1565,-81.9612"/>
<polygon fill="#191970" stroke="#191970" points="194.4697,-84.5895 199.9138,-75.5003 189.9899,-79.2108 194.4697,-84.5895"/>
</g>
<!-- Node8&#45;&gt;Node2 -->
<g id="edge13" class="edge">
<title>Node8&#45;&gt;Node2</title>
<path fill="none" stroke="#191970" d="M227.8132,-168.2455C221.1411,-160.2958 211.5521,-148.8706 203.5747,-139.3656"/>
<polygon fill="#191970" stroke="#191970" points="206.2026,-137.0524 197.093,-131.6427 200.8408,-141.5525 206.2026,-137.0524"/>
</g>
<!-- Node8&#45;&gt;Node3 -->
<g id="edge12" class="edge">
<title>Node8&#45;&gt;Node3</title>
<path fill="none" stroke="#191970" d="M233.9538,-168.4509C230.0217,-150.1013 221.3409,-109.5908 216.1506,-85.3693"/>
<polygon fill="#191970" stroke="#191970" points="219.5587,-84.5695 214.041,-75.5249 212.7141,-86.0363 219.5587,-84.5695"/>
</g>
<!-- Node9&#45;&gt;Node2 -->
<g id="edge16" class="edge">
<title>Node9&#45;&gt;Node2</title>
<path fill="none" stroke="#191970" d="M288.3713,-168.3733C268.7579,-159.2204 239.0952,-145.3778 217.2821,-135.1983"/>
<polygon fill="#191970" stroke="#191970" points="218.7139,-132.0042 208.172,-130.9469 215.7537,-138.3475 218.7139,-132.0042"/>
</g>
<!-- Node10 -->
<g id="node10" class="node">
<title>Node10</title>
<g id="a_node10"><a xlink:title=" ">
<polygon fill="#ffffff" stroke="#bfbfbf" points="272,-112.5 272,-131.5 328,-131.5 328,-112.5 272,-112.5"/>
<text text-anchor="middle" x="300" y="-119.5" font-family="Helvetica,sans-Serif" font-size="10.00" fill="#000000">stdarg.h</text>
</a>
</g>
</g>
<!-- Node9&#45;&gt;Node10 -->
<g id="edge15" class="edge">
<title>Node9&#45;&gt;Node10</title>
<path fill="none" stroke="#191970" d="M307.4323,-168.2455C306.2579,-160.9382 304.6116,-150.6944 303.1668,-141.7046"/>
<polygon fill="#191970" stroke="#191970" points="306.5922,-140.9606 301.5497,-131.6427 299.6809,-142.0714 306.5922,-140.9606"/>
</g>
<!-- Node11&#45;&gt;Node2 -->
<g id="edge19" class="edge">
<title>Node11&#45;&gt;Node2</title>
<path fill="none" stroke="#191970" d="M352.2667,-169.3727C315.7923,-158.7895 254.3571,-140.9637 218.1509,-130.4583"/>
<polygon fill="#191970" stroke="#191970" points="218.7939,-127.0006 208.2146,-127.5752 216.8432,-133.7233 218.7939,-127.0006"/>
</g>
<!-- Node11&#45;&gt;Node3 -->
<g id="edge18" class="edge">
<title>Node11&#45;&gt;Node3</title>
<path fill="none" stroke="#191970" d="M377.6607,-168.0629C370.9336,-153.7461 356.6822,-127.3544 337,-112 311.0857,-91.7838 275.4152,-79.8363 248.8101,-73.2075"/>
<polygon fill="#191970" stroke="#191970" points="249.2738,-69.7212 238.7384,-70.8419 247.6732,-76.5358 249.2738,-69.7212"/>
</g>
<!-- Node11&#45;&gt;Node10 -->
<g id="edge20" class="edge">
<title>Node11&#45;&gt;Node10</title>
<path fill="none" stroke="#191970" d="M367.7167,-168.2455C355.253,-159.7337 336.9549,-147.2375 322.5208,-137.3801"/>
<polygon fill="#191970" stroke="#191970" points="324.3515,-134.392 314.1196,-131.6427 320.4038,-140.1726 324.3515,-134.392"/>
</g>
<!-- Node12 -->
<g id="node12" class="node">
<title>Node12</title>
<g id="a_node12"><a xlink:href="setjmp_8h.html" target="_top" xlink:title=" ">
<polygon fill="#ffffff" stroke="#000000" points="337.5,-56.5 337.5,-75.5 396.5,-75.5 396.5,-56.5 337.5,-56.5"/>
<text text-anchor="middle" x="367" y="-63.5" font-family="Helvetica,sans-Serif" font-size="10.00" fill="#000000">setjmp.h</text>
</a>
</g>
</g>
<!-- Node11&#45;&gt;Node12 -->
<g id="edge21" class="edge">
<title>Node11&#45;&gt;Node12</title>
<path fill="none" stroke="#191970" d="M380.7211,-168.4509C378.2746,-150.184 372.8869,-109.9553 369.6381,-85.6976"/>
<polygon fill="#191970" stroke="#191970" points="373.0722,-84.9718 368.2757,-75.5249 366.1341,-85.901 373.0722,-84.9718"/>
</g>
<!-- Node12&#45;&gt;Node5 -->
<g id="edge22" class="edge">
<title>Node12&#45;&gt;Node5</title>
<path fill="none" stroke="#191970" d="M362.297,-56.2455C358.6576,-48.6973 353.5076,-38.0158 349.0738,-28.8197"/>
<polygon fill="#191970" stroke="#191970" points="352.1449,-27.1303 344.6491,-19.6427 345.8395,-30.1704 352.1449,-27.1303"/>
</g>
</g>
</svg>
