<?xml version="1.0" encoding="UTF-8" standalone="no"?>
<!DOCTYPE svg PUBLIC "-//W3C//DTD SVG 1.1//EN"
 "http://www.w3.org/Graphics/SVG/1.1/DTD/svg11.dtd">
<!-- Generated by graphviz version 2.40.1 (20161225.0304)
 -->
<!-- Title: iop/sound/audsrv/src/rpc_client.h Pages: 1 -->
<svg width="530pt" height="106pt"
 viewBox="0.00 0.00 530.00 106.00" xmlns="http://www.w3.org/2000/svg" xmlns:xlink="http://www.w3.org/1999/xlink">
<g id="graph0" class="graph" transform="scale(1 1) rotate(0) translate(4 102)">
<title>iop/sound/audsrv/src/rpc_client.h</title>
<polygon fill="#ffffff" stroke="transparent" points="-4,4 -4,-102 526,-102 526,4 -4,4"/>
<!-- Node1 -->
<g id="node1" class="node">
<title>Node1</title>
<g id="a_node1"><a xlink:title=" ">
<polygon fill="#bfbfbf" stroke="#000000" points="202,-67.5 202,-97.5 319,-97.5 319,-67.5 202,-67.5"/>
<text text-anchor="start" x="210" y="-85.5" font-family="Helvetica,sans-Serif" font-size="10.00" fill="#000000">iop/sound/audsrv/src</text>
<text text-anchor="middle" x="260.5" y="-74.5" font-family="Helvetica,sans-Serif" font-size="10.00" fill="#000000">/rpc_client.h</text>
</a>
</g>
</g>
<!-- Node2 -->
<g id="node2" class="node">
<title>Node2</title>
<g id="a_node2"><a xlink:href="audsrv_8c.html" target="_top" xlink:title=" ">
<polygon fill="#ffffff" stroke="#000000" points="0,-.5 0,-30.5 117,-30.5 117,-.5 0,-.5"/>
<text text-anchor="start" x="8" y="-18.5" font-family="Helvetica,sans-Serif" font-size="10.00" fill="#000000">iop/sound/audsrv/src</text>
<text text-anchor="middle" x="58.5" y="-7.5" font-family="Helvetica,sans-Serif" font-size="10.00" fill="#000000">/audsrv.c</text>
</a>
</g>
</g>
<!-- Node1&#45;&gt;Node2 -->
<g id="edge1" class="edge">
<title>Node1&#45;&gt;Node2</title>
<path fill="none" stroke="#191970" d="M205.5557,-64.2759C173.72,-53.7165 134.1158,-40.5805 104.0305,-30.6017"/>
<polygon fill="#191970" stroke="#191970" points="204.5738,-67.6377 215.1673,-67.4639 206.7776,-60.9936 204.5738,-67.6377"/>
</g>
<!-- Node3 -->
<g id="node3" class="node">
<title>Node3</title>
<g id="a_node3"><a xlink:href="cdrom_8c.html" target="_top" xlink:title=" ">
<polygon fill="#ffffff" stroke="#000000" points="135,-.5 135,-30.5 252,-30.5 252,-.5 135,-.5"/>
<text text-anchor="start" x="143" y="-18.5" font-family="Helvetica,sans-Serif" font-size="10.00" fill="#000000">iop/sound/audsrv/src</text>
<text text-anchor="middle" x="193.5" y="-7.5" font-family="Helvetica,sans-Serif" font-size="10.00" fill="#000000">/cdrom.c</text>
</a>
</g>
</g>
<!-- Node1&#45;&gt;Node3 -->
<g id="edge2" class="edge">
<title>Node1&#45;&gt;Node3</title>
<path fill="none" stroke="#191970" d="M238.2113,-60.2113C228.5009,-50.5009 217.3698,-39.3698 208.6432,-30.6432"/>
<polygon fill="#191970" stroke="#191970" points="235.7507,-62.7004 245.2967,-67.2967 240.7004,-57.7507 235.7507,-62.7004"/>
</g>
<!-- Node4 -->
<g id="node4" class="node">
<title>Node4</title>
<g id="a_node4"><a xlink:href="sound_2audsrv_2src_2rpc__client_8c.html" target="_top" xlink:title=" ">
<polygon fill="#ffffff" stroke="#000000" points="270,-.5 270,-30.5 387,-30.5 387,-.5 270,-.5"/>
<text text-anchor="start" x="278" y="-18.5" font-family="Helvetica,sans-Serif" font-size="10.00" fill="#000000">iop/sound/audsrv/src</text>
<text text-anchor="middle" x="328.5" y="-7.5" font-family="Helvetica,sans-Serif" font-size="10.00" fill="#000000">/rpc_client.c</text>
</a>
</g>
</g>
<!-- Node1&#45;&gt;Node4 -->
<g id="edge3" class="edge">
<title>Node1&#45;&gt;Node4</title>
<path fill="none" stroke="#191970" d="M283.1214,-60.2113C292.9767,-50.5009 304.2739,-39.3698 313.1308,-30.6432"/>
<polygon fill="#191970" stroke="#191970" points="280.597,-57.785 275.9303,-67.2967 285.51,-62.7713 280.597,-57.785"/>
</g>
<!-- Node5 -->
<g id="node5" class="node">
<title>Node5</title>
<g id="a_node5"><a xlink:href="sound_2audsrv_2src_2rpc__server_8c.html" target="_top" xlink:title=" ">
<polygon fill="#ffffff" stroke="#000000" points="405,-.5 405,-30.5 522,-30.5 522,-.5 405,-.5"/>
<text text-anchor="start" x="413" y="-18.5" font-family="Helvetica,sans-Serif" font-size="10.00" fill="#000000">iop/sound/audsrv/src</text>
<text text-anchor="middle" x="463.5" y="-7.5" font-family="Helvetica,sans-Serif" font-size="10.00" fill="#000000">/rpc_server.c</text>
</a>
</g>
</g>
<!-- Node1&#45;&gt;Node5 -->
<g id="edge4" class="edge">
<title>Node1&#45;&gt;Node5</title>
<path fill="none" stroke="#191970" d="M315.7163,-64.2759C347.7096,-53.7165 387.5099,-40.5805 417.7441,-30.6017"/>
<polygon fill="#191970" stroke="#191970" points="314.4563,-61.006 306.0572,-67.4639 316.6503,-67.6533 314.4563,-61.006"/>
</g>
</g>
</svg>
