<?xml version="1.0" encoding="UTF-8" standalone="no"?>
<!DOCTYPE svg PUBLIC "-//W3C//DTD SVG 1.1//EN"
 "http://www.w3.org/Graphics/SVG/1.1/DTD/svg11.dtd">
<!-- Generated by graphviz version 2.40.1 (20161225.0304)
 -->
<!-- Title: common/include/speedregs.h Pages: 1 -->
<!--zoomable 162 -->
<svg id="main" version="1.1" xmlns="http://www.w3.org/2000/svg" xmlns:xlink="http://www.w3.org/1999/xlink" xml:space="preserve" onload="init(evt)">
<style type="text/css"><![CDATA[
.edge:hover path { stroke: red; }
.edge:hover polygon { stroke: red; fill: red; }
]]></style>
<script type="text/javascript"><![CDATA[
var edges = document.getElementsByTagName('g');
if (edges && edges.length) {
  for (var i=0;i<edges.length;i++) {
    if (edges[i].id.substr(0,4)=='edge') {
      edges[i].setAttribute('class','edge');
    }
  }
}
]]></script>
        <defs>
                <circle id="rim" cx="0" cy="0" r="7"/>
                <circle id="rim2" cx="0" cy="0" r="3.5"/>
                <g id="zoomPlus">
                        <use xlink:href="#rim" fill="#404040">
                                <set attributeName="fill" to="#808080" begin="zoomplus.mouseover" end="zoomplus.mouseout"/>
                        </use>
                        <path d="M-4,0h8M0,-4v8" fill="none" stroke="white" stroke-width="1.5" pointer-events="none"/>
                </g>
                <g id="zoomMin">
                        <use xlink:href="#rim" fill="#404040">
                                <set attributeName="fill" to="#808080" begin="zoomminus.mouseover" end="zoomminus.mouseout"/>
                        </use>
                        <path d="M-4,0h8" fill="none" stroke="white" stroke-width="1.5" pointer-events="none"/>
                </g>
                <g id="dirArrow">
                        <path fill="none" stroke="white" stroke-width="1.5" d="M0,-3.0v7 M-2.5,-0.5L0,-3.0L2.5,-0.5"/>
                </g>
               <g id="resetDef">
                       <use xlink:href="#rim2" fill="#404040">
                               <set attributeName="fill" to="#808080" begin="reset.mouseover" end="reset.mouseout"/>
                       </use>
               </g>
        </defs>

<script type="text/javascript">
var viewWidth = 797;
var viewHeight = 162;
var sectionId = 'dynsection-1';
</script>
<script xlink:href="svgpan.js"/>
<svg id="graph" class="graph">
<g id="viewport">
<title>common/include/speedregs.h</title>
<polygon fill="#ffffff" stroke="transparent" points="-4,4 -4,-158 792.5,-158 792.5,4 -4,4"/>
<!-- Node1 -->
<g id="node1" class="node">
<title>Node1</title>
<g id="a_node1"><a xlink:title=" ">
<polygon fill="#bfbfbf" stroke="#000000" points="348.5,-134.5 348.5,-153.5 508.5,-153.5 508.5,-134.5 348.5,-134.5"/>
<text text-anchor="middle" x="428.5" y="-141.5" font-family="Helvetica,sans-Serif" font-size="10.00" fill="#000000">common/include/speedregs.h</text>
</a>
</g>
</g>
<!-- Node2 -->
<g id="node2" class="node">
<title>Node2</title>
<g id="a_node2"><a xlink:href="ps2atad_8c.html" target="_top" xlink:title=" ">
<polygon fill="#ffffff" stroke="#000000" points="0,-6 0,-25 151,-25 151,-6 0,-6"/>
<text text-anchor="middle" x="75.5" y="-13" font-family="Helvetica,sans-Serif" font-size="10.00" fill="#000000">iop/dev9/atad/src/ps2atad.c</text>
</a>
</g>
</g>
<!-- Node1&#45;&gt;Node2 -->
<g id="edge1" class="edge">
<title>Node1&#45;&gt;Node2</title>
<path fill="none" stroke="#191970" d="M338.3789,-135.7894C269.2612,-128.2815 180.4561,-115.65 148.5,-98 116.3569,-80.2467 91.3659,-42.7171 80.8794,-25.0619"/>
<polygon fill="#191970" stroke="#191970" points="338.11,-139.2805 348.4247,-136.8599 338.8519,-132.3199 338.11,-139.2805"/>
</g>
<!-- Node3 -->
<g id="node3" class="node">
<title>Node3</title>
<g id="a_node3"><a xlink:href="ps2dev9_8c.html" target="_top" xlink:title=" ">
<polygon fill="#ffffff" stroke="#000000" points="304,-6 304,-25 459,-25 459,-6 304,-6"/>
<text text-anchor="middle" x="381.5" y="-13" font-family="Helvetica,sans-Serif" font-size="10.00" fill="#000000">iop/dev9/dev9/src/ps2dev9.c</text>
</a>
</g>
</g>
<!-- Node1&#45;&gt;Node3 -->
<g id="edge2" class="edge">
<title>Node1&#45;&gt;Node3</title>
<path fill="none" stroke="#191970" d="M421.5189,-124.9134C411.3508,-97.1134 392.8351,-46.4907 385.0736,-25.2705"/>
<polygon fill="#191970" stroke="#191970" points="418.2452,-126.1524 424.9674,-134.3416 424.8193,-123.7478 418.2452,-126.1524"/>
</g>
<!-- Node4 -->
<g id="node4" class="node">
<title>Node4</title>
<g id="a_node4"><a xlink:href="extflash_8c.html" target="_top" xlink:title=" ">
<polygon fill="#ffffff" stroke="#000000" points="670.5,-67.5 670.5,-97.5 788.5,-97.5 788.5,-67.5 670.5,-67.5"/>
<text text-anchor="start" x="678.5" y="-85.5" font-family="Helvetica,sans-Serif" font-size="10.00" fill="#000000">iop/dev9/extflash/src</text>
<text text-anchor="middle" x="729.5" y="-74.5" font-family="Helvetica,sans-Serif" font-size="10.00" fill="#000000">/extflash.c</text>
</a>
</g>
</g>
<!-- Node1&#45;&gt;Node4 -->
<g id="edge3" class="edge">
<title>Node1&#45;&gt;Node4</title>
<path fill="none" stroke="#191970" d="M486.3811,-132.4906C532.4862,-123.2822 598.6624,-109.9745 656.5,-98 660.9405,-97.0807 665.5313,-96.123 670.1483,-95.1546"/>
<polygon fill="#191970" stroke="#191970" points="485.6891,-129.0596 476.5676,-134.4493 487.0592,-135.9242 485.6891,-129.0596"/>
</g>
<!-- Node5 -->
<g id="node5" class="node">
<title>Node5</title>
<g id="a_node5"><a xlink:href="smap_8c.html" target="_top" xlink:title=" ">
<polygon fill="#ffffff" stroke="#000000" points="477.5,-.5 477.5,-30.5 599.5,-30.5 599.5,-.5 477.5,-.5"/>
<text text-anchor="start" x="485.5" y="-18.5" font-family="Helvetica,sans-Serif" font-size="10.00" fill="#000000">iop/network/smap/src</text>
<text text-anchor="middle" x="538.5" y="-7.5" font-family="Helvetica,sans-Serif" font-size="10.00" fill="#000000">/smap.c</text>
</a>
</g>
</g>
<!-- Node1&#45;&gt;Node5 -->
<g id="edge4" class="edge">
<title>Node1&#45;&gt;Node5</title>
<path fill="none" stroke="#191970" d="M429.1227,-124.1674C430.5762,-107.4181 434.9259,-83.5796 447.5,-67 459.7859,-50.8004 478.7396,-38.918 496.1752,-30.676"/>
<polygon fill="#191970" stroke="#191970" points="425.6109,-124.2647 428.5136,-134.4541 432.5987,-124.6785 425.6109,-124.2647"/>
</g>
<!-- Node6 -->
<g id="node6" class="node">
<title>Node6</title>
<g id="a_node6"><a xlink:href="xfer_8c.html" target="_top" xlink:title=" ">
<polygon fill="#ffffff" stroke="#000000" points="617.5,-.5 617.5,-30.5 739.5,-30.5 739.5,-.5 617.5,-.5"/>
<text text-anchor="start" x="625.5" y="-18.5" font-family="Helvetica,sans-Serif" font-size="10.00" fill="#000000">iop/network/smap/src</text>
<text text-anchor="middle" x="678.5" y="-7.5" font-family="Helvetica,sans-Serif" font-size="10.00" fill="#000000">/xfer.c</text>
</a>
</g>
</g>
<!-- Node1&#45;&gt;Node6 -->
<g id="edge5" class="edge">
<title>Node1&#45;&gt;Node6</title>
<path fill="none" stroke="#191970" d="M500.444,-132.7051C547.4044,-124.2717 603.5654,-111.8506 623.5,-98 647.9565,-81.0076 664.4759,-49.3054 672.6169,-30.5347"/>
<polygon fill="#191970" stroke="#191970" points="499.8202,-129.261 490.5792,-134.4432 501.0349,-136.1548 499.8202,-129.261"/>
</g>
<!-- Node7 -->
<g id="node7" class="node">
<title>Node7</title>
<g id="a_node7"><a xlink:href="atahw_8h.html" target="_top" xlink:title=" ">
<polygon fill="#ffffff" stroke="#000000" points="158,-73 158,-92 297,-92 297,-73 158,-73"/>
<text text-anchor="middle" x="227.5" y="-80" font-family="Helvetica,sans-Serif" font-size="10.00" fill="#000000">common/include/atahw.h</text>
</a>
</g>
</g>
<!-- Node1&#45;&gt;Node7 -->
<g id="edge6" class="edge">
<title>Node1&#45;&gt;Node7</title>
<path fill="none" stroke="#191970" d="M387.3197,-131.4001C349.1697,-119.7273 293.2588,-102.6202 258.6857,-92.0419"/>
<polygon fill="#191970" stroke="#191970" points="386.5073,-134.8116 397.0938,-134.3906 388.5554,-128.1179 386.5073,-134.8116"/>
</g>
<!-- Node9 -->
<g id="node9" class="node">
<title>Node9</title>
<g id="a_node9"><a xlink:href="smapregs_8h.html" target="_top" xlink:title=" ">
<polygon fill="#ffffff" stroke="#000000" points="456.5,-73 456.5,-92 614.5,-92 614.5,-73 456.5,-73"/>
<text text-anchor="middle" x="535.5" y="-80" font-family="Helvetica,sans-Serif" font-size="10.00" fill="#000000">common/include/smapregs.h</text>
</a>
</g>
</g>
<!-- Node1&#45;&gt;Node9 -->
<g id="edge9" class="edge">
<title>Node1&#45;&gt;Node9</title>
<path fill="none" stroke="#191970" d="M454.1478,-129.2585C474.2366,-117.7122 501.5905,-101.99 518.8987,-92.0419"/>
<polygon fill="#191970" stroke="#191970" points="452.1446,-126.3729 445.2188,-134.3906 455.6328,-132.4419 452.1446,-126.3729"/>
</g>
<!-- Node7&#45;&gt;Node2 -->
<g id="edge7" class="edge">
<title>Node7&#45;&gt;Node2</title>
<path fill="none" stroke="#191970" d="M196.2886,-68.7424C166.7508,-55.7224 123.1797,-36.5167 97.2375,-25.0817"/>
<polygon fill="#191970" stroke="#191970" points="195.1599,-72.0697 205.7221,-72.9005 197.9833,-65.6644 195.1599,-72.0697"/>
</g>
<!-- Node8 -->
<g id="node8" class="node">
<title>Node8</title>
<g id="a_node8"><a xlink:href="hdproatad_8c.html" target="_top" xlink:title=" ">
<polygon fill="#ffffff" stroke="#000000" points="169.5,-.5 169.5,-30.5 285.5,-30.5 285.5,-.5 169.5,-.5"/>
<text text-anchor="start" x="177.5" y="-18.5" font-family="Helvetica,sans-Serif" font-size="10.00" fill="#000000">iop/dev9/hdpro_atad</text>
<text text-anchor="middle" x="227.5" y="-7.5" font-family="Helvetica,sans-Serif" font-size="10.00" fill="#000000">/src/hdproatad.c</text>
</a>
</g>
</g>
<!-- Node7&#45;&gt;Node8 -->
<g id="edge8" class="edge">
<title>Node7&#45;&gt;Node8</title>
<path fill="none" stroke="#191970" d="M227.5,-62.7758C227.5,-52.4641 227.5,-40.0437 227.5,-30.5218"/>
<polygon fill="#191970" stroke="#191970" points="224.0001,-62.9005 227.5,-72.9005 231.0001,-62.9006 224.0001,-62.9005"/>
</g>
<!-- Node9&#45;&gt;Node3 -->
<g id="edge10" class="edge">
<title>Node9&#45;&gt;Node3</title>
<path fill="none" stroke="#191970" d="M503.878,-68.7424C473.9515,-55.7224 429.8071,-36.5167 403.5235,-25.0817"/>
<polygon fill="#191970" stroke="#191970" points="502.8695,-72.1205 513.4356,-72.9005 505.6621,-65.7016 502.8695,-72.1205"/>
</g>
<!-- Node9&#45;&gt;Node5 -->
<g id="edge11" class="edge">
<title>Node9&#45;&gt;Node5</title>
<path fill="none" stroke="#191970" d="M536.3832,-62.7758C536.8449,-52.4641 537.401,-40.0437 537.8274,-30.5218"/>
<polygon fill="#191970" stroke="#191970" points="532.8807,-62.754 535.9298,-72.9005 539.8737,-63.0671 532.8807,-62.754"/>
</g>
<!-- Node9&#45;&gt;Node6 -->
<g id="edge12" class="edge">
<title>Node9&#45;&gt;Node6</title>
<path fill="none" stroke="#191970" d="M565.2079,-68.5809C588.9324,-57.4653 622.116,-41.9177 646.4386,-30.5218"/>
<polygon fill="#191970" stroke="#191970" points="563.5588,-65.4884 555.9884,-72.9005 566.5287,-71.8271 563.5588,-65.4884"/>
</g>
</g>
</svg>
        <g id="navigator" transform="translate(0 0)" fill="#404254">
                <rect fill="#f2f5e9" fill-opacity="0.5" stroke="#606060" stroke-width=".5" x="0" y="0" width="60" height="60"/>
                <use id="zoomplus" xlink:href="#zoomPlus" x="17" y="9" onmousedown="handleZoom(evt,'in')"/>
                <use id="zoomminus" xlink:href="#zoomMin" x="42" y="9" onmousedown="handleZoom(evt,'out')"/>
                <use id="reset" xlink:href="#resetDef" x="30" y="36" onmousedown="handleReset()"/>
                <g id="arrowUp" xlink:href="#dirArrow" transform="translate(30 24)" onmousedown="handlePan(0,-1)">
                  <use xlink:href="#rim" fill="#404040">
                        <set attributeName="fill" to="#808080" begin="arrowUp.mouseover" end="arrowUp.mouseout"/>
                  </use>
                  <path fill="none" stroke="white" stroke-width="1.5" d="M0,-3.0v7 M-2.5,-0.5L0,-3.0L2.5,-0.5"/>
                </g>
                <g id="arrowRight" xlink:href="#dirArrow" transform="rotate(90) translate(36 -43)" onmousedown="handlePan(1,0)">
                  <use xlink:href="#rim" fill="#404040">
                        <set attributeName="fill" to="#808080" begin="arrowRight.mouseover" end="arrowRight.mouseout"/>
                  </use>
                  <path fill="none" stroke="white" stroke-width="1.5" d="M0,-3.0v7 M-2.5,-0.5L0,-3.0L2.5,-0.5"/>
                </g>
                <g id="arrowDown" xlink:href="#dirArrow" transform="rotate(180) translate(-30 -48)" onmousedown="handlePan(0,1)">
                  <use xlink:href="#rim" fill="#404040">
                        <set attributeName="fill" to="#808080" begin="arrowDown.mouseover" end="arrowDown.mouseout"/>
                  </use>
                  <path fill="none" stroke="white" stroke-width="1.5" d="M0,-3.0v7 M-2.5,-0.5L0,-3.0L2.5,-0.5"/>
                </g>
                <g id="arrowLeft" xlink:href="#dirArrow" transform="rotate(270) translate(-36 17)" onmousedown="handlePan(-1,0)">
                  <use xlink:href="#rim" fill="#404040">
                        <set attributeName="fill" to="#808080" begin="arrowLeft.mouseover" end="arrowLeft.mouseout"/>
                  </use>
                  <path fill="none" stroke="white" stroke-width="1.5" d="M0,-3.0v7 M-2.5,-0.5L0,-3.0L2.5,-0.5"/>
                </g>
        </g>
        <svg viewBox="0 0 15 15" width="100%" height="30px" preserveAspectRatio="xMaxYMin meet">
         <g id="arrow_out" transform="scale(0.3 0.3)">
          <a xlink:href="speedregs_8h__dep__incl_org.svg" target="_base">
           <rect id="button" ry="5" rx="5" y="6" x="6" height="38" width="38"
                fill="#f2f5e9" fill-opacity="0.5" stroke="#606060" stroke-width="1.0"/>
           <path id="arrow"
             d="M 11.500037,31.436501 C 11.940474,20.09759 22.043105,11.32322 32.158766,21.979434 L 37.068811,17.246167 C 37.068811,17.246167 37.088388,32 37.088388,32 L 22.160133,31.978069 C 22.160133,31.978069 26.997745,27.140456 26.997745,27.140456 C 18.528582,18.264221 13.291696,25.230495 11.500037,31.436501 z"
             style="fill:#404040;"/>
          </a>
         </g>
        </svg>
</svg>
