<?xml version="1.0" encoding="UTF-8" standalone="no"?>
<!DOCTYPE svg PUBLIC "-//W3C//DTD SVG 1.1//EN"
 "http://www.w3.org/Graphics/SVG/1.1/DTD/svg11.dtd">
<!-- Generated by graphviz version 2.40.1 (20161225.0304)
 -->
<!-- Title: MemoryPool Pages: 1 -->
<svg width="227pt" height="342pt"
 viewBox="0.00 0.00 226.50 342.00" xmlns="http://www.w3.org/2000/svg" xmlns:xlink="http://www.w3.org/1999/xlink">
<g id="graph0" class="graph" transform="scale(1 1) rotate(0) translate(4 338)">
<title>MemoryPool</title>
<polygon fill="#ffffff" stroke="transparent" points="-4,4 -4,-338 222.5,-338 222.5,4 -4,4"/>
<!-- Node1 -->
<g id="node1" class="node">
<title>Node1</title>
<g id="a_node1"><a xlink:title=" ">
<polygon fill="#bfbfbf" stroke="#000000" points="10,-.5 10,-19.5 87,-19.5 87,-.5 10,-.5"/>
<text text-anchor="middle" x="48.5" y="-7.5" font-family="Helvetica,sans-Serif" font-size="10.00" fill="#000000">MemoryPool</text>
</a>
</g>
</g>
<!-- Node2 -->
<g id="node2" class="node">
<title>Node2</title>
<g id="a_node2"><a xlink:href="structOhciRegs.html" target="_top" xlink:title=" ">
<polygon fill="#ffffff" stroke="#000000" points="93.5,-67.5 93.5,-86.5 155.5,-86.5 155.5,-67.5 93.5,-67.5"/>
<text text-anchor="middle" x="124.5" y="-74.5" font-family="Helvetica,sans-Serif" font-size="10.00" fill="#000000">OhciRegs</text>
</a>
</g>
</g>
<!-- Node2&#45;&gt;Node1 -->
<g id="edge1" class="edge">
<title>Node2&#45;&gt;Node1</title>
<path fill="none" stroke="#9a32cd" stroke-dasharray="5,2" d="M105.7156,-60.44C91.137,-47.5879 71.4375,-30.2212 59.3687,-19.5817"/>
<polygon fill="#9a32cd" stroke="#9a32cd" points="103.7952,-63.413 113.6111,-67.4005 108.4243,-58.1621 103.7952,-63.413"/>
<text text-anchor="middle" x="114" y="-41" font-family="Helvetica,sans-Serif" font-size="10.00" fill="#000000"> ohciRegs</text>
</g>
<!-- Node3 -->
<g id="node3" class="node">
<title>Node3</title>
<g id="a_node3"><a xlink:href="structHcCA.html" target="_top" xlink:title=" ">
<polygon fill="#ffffff" stroke="#000000" points="14,-152 14,-171 57,-171 57,-152 14,-152"/>
<text text-anchor="middle" x="35.5" y="-159" font-family="Helvetica,sans-Serif" font-size="10.00" fill="#000000">HcCA</text>
</a>
</g>
</g>
<!-- Node3&#45;&gt;Node1 -->
<g id="edge7" class="edge">
<title>Node3&#45;&gt;Node1</title>
<path fill="none" stroke="#9a32cd" stroke-dasharray="5,2" d="M36.4202,-141.6555C37.3879,-122.5152 39.1044,-92.7402 41.5,-67 43.0522,-50.3222 45.5818,-30.9861 47.1375,-19.6633"/>
<polygon fill="#9a32cd" stroke="#9a32cd" points="32.9155,-141.6685 35.9262,-151.8265 39.9073,-142.0081 32.9155,-141.6685"/>
<text text-anchor="middle" x="63" y="-74.5" font-family="Helvetica,sans-Serif" font-size="10.00" fill="#000000"> hcHCCA</text>
</g>
<!-- Node3&#45;&gt;Node2 -->
<g id="edge2" class="edge">
<title>Node3&#45;&gt;Node2</title>
<path fill="none" stroke="#9a32cd" stroke-dasharray="5,2" d="M42.4359,-142.422C47.5736,-130.4477 55.5794,-115.3664 66.5,-105 74.8529,-97.0711 85.8733,-90.9898 96.0627,-86.5529"/>
<polygon fill="#9a32cd" stroke="#9a32cd" points="39.091,-141.3624 38.6582,-151.9484 45.5981,-143.9428 39.091,-141.3624"/>
<text text-anchor="middle" x="88.5" y="-108" font-family="Helvetica,sans-Serif" font-size="10.00" fill="#000000"> HcHCCA</text>
</g>
<!-- Node4 -->
<g id="node4" class="node">
<title>Node4</title>
<g id="a_node4"><a xlink:href="structHcED.html" target="_top" xlink:title=" ">
<polygon fill="#ffffff" stroke="#000000" points="79,-236.5 79,-255.5 122,-255.5 122,-236.5 79,-236.5"/>
<text text-anchor="middle" x="100.5" y="-243.5" font-family="Helvetica,sans-Serif" font-size="10.00" fill="#000000">HcED</text>
</a>
</g>
</g>
<!-- Node4&#45;&gt;Node2 -->
<g id="edge6" class="edge">
<title>Node4&#45;&gt;Node2</title>
<path fill="none" stroke="#9a32cd" stroke-dasharray="5,2" d="M108.1044,-226.6262C109.0258,-223.7662 109.8643,-220.8298 110.5,-218 121.3923,-169.5174 123.8119,-109.757 124.348,-86.7029"/>
<polygon fill="#9a32cd" stroke="#9a32cd" points="104.707,-225.7306 104.6152,-236.325 111.2938,-228.1002 104.707,-225.7306"/>
<text text-anchor="middle" x="170" y="-181" font-family="Helvetica,sans-Serif" font-size="10.00" fill="#000000"> HcBulkCurrentEd</text>
<text text-anchor="middle" x="170" y="-170" font-family="Helvetica,sans-Serif" font-size="10.00" fill="#000000">HcBulkHeadEd</text>
<text text-anchor="middle" x="170" y="-159" font-family="Helvetica,sans-Serif" font-size="10.00" fill="#000000">HcControlCurrentEd</text>
<text text-anchor="middle" x="170" y="-148" font-family="Helvetica,sans-Serif" font-size="10.00" fill="#000000">HcControlHeadEd</text>
<text text-anchor="middle" x="170" y="-137" font-family="Helvetica,sans-Serif" font-size="10.00" fill="#000000">HcPeriodCurrentEd</text>
</g>
<!-- Node4&#45;&gt;Node3 -->
<g id="edge3" class="edge">
<title>Node4&#45;&gt;Node3</title>
<path fill="none" stroke="#9a32cd" stroke-dasharray="5,2" d="M69.4028,-235.1138C56.3838,-229.9002 43.3697,-223.5893 39.5,-218 29.8721,-204.0939 31.376,-183.3691 33.3996,-171.2657"/>
<polygon fill="#9a32cd" stroke="#9a32cd" points="68.1623,-238.3866 78.7528,-238.6902 70.6631,-231.8485 68.1623,-238.3866"/>
<text text-anchor="middle" x="75" y="-210" font-family="Helvetica,sans-Serif" font-size="10.00" fill="#000000"> InterruptTable</text>
</g>
<!-- Node5 -->
<g id="node5" class="node">
<title>Node5</title>
<g id="a_node5"><a xlink:href="structHcTD.html" target="_top" xlink:title=" ">
<polygon fill="#ffffff" stroke="#000000" points="0,-314.5 0,-333.5 43,-333.5 43,-314.5 0,-314.5"/>
<text text-anchor="middle" x="21.5" y="-321.5" font-family="Helvetica,sans-Serif" font-size="10.00" fill="#000000">HcTD</text>
</a>
</g>
</g>
<!-- Node5&#45;&gt;Node3 -->
<g id="edge5" class="edge">
<title>Node5&#45;&gt;Node3</title>
<path fill="none" stroke="#9a32cd" stroke-dasharray="5,2" d="M17.9397,-304.4016C15.2187,-286.5215 12.4138,-259.3995 15.5,-236 18.617,-212.3669 27.0686,-185.5809 31.9295,-171.4521"/>
<polygon fill="#9a32cd" stroke="#9a32cd" points="14.5184,-305.1642 19.6113,-314.4547 21.4236,-304.016 14.5184,-305.1642"/>
<text text-anchor="middle" x="43" y="-243.5" font-family="Helvetica,sans-Serif" font-size="10.00" fill="#000000"> DoneHead</text>
</g>
<!-- Node5&#45;&gt;Node4 -->
<g id="edge4" class="edge">
<title>Node5&#45;&gt;Node4</title>
<path fill="none" stroke="#9a32cd" stroke-dasharray="5,2" d="M38.337,-307.3762C54.2782,-291.6367 77.662,-268.5489 90.7338,-255.6426"/>
<polygon fill="#9a32cd" stroke="#9a32cd" points="35.8439,-304.9192 31.187,-314.4357 40.762,-309.9003 35.8439,-304.9192"/>
<text text-anchor="middle" x="89" y="-288" font-family="Helvetica,sans-Serif" font-size="10.00" fill="#000000"> tdHead</text>
<text text-anchor="middle" x="89" y="-277" font-family="Helvetica,sans-Serif" font-size="10.00" fill="#000000">tdTail</text>
</g>
</g>
</svg>
