<?xml version="1.0" encoding="UTF-8" standalone="no"?>
<!DOCTYPE svg PUBLIC "-//W3C//DTD SVG 1.1//EN"
 "http://www.w3.org/Graphics/SVG/1.1/DTD/svg11.dtd">
<!-- Generated by graphviz version 2.40.1 (20161225.0304)
 -->
<!-- Title: Device Pages: 1 -->
<svg width="311pt" height="162pt"
 viewBox="0.00 0.00 311.00 162.00" xmlns="http://www.w3.org/2000/svg" xmlns:xlink="http://www.w3.org/1999/xlink">
<g id="graph0" class="graph" transform="scale(1 1) rotate(0) translate(4 158)">
<title>Device</title>
<polygon fill="#ffffff" stroke="transparent" points="-4,4 -4,-158 307,-158 307,4 -4,4"/>
<!-- Node1 -->
<g id="node1" class="node">
<title>Node1</title>
<g id="a_node1"><a xlink:title=" ">
<polygon fill="#bfbfbf" stroke="#000000" points="130,-.5 130,-19.5 180,-19.5 180,-.5 130,-.5"/>
<text text-anchor="middle" x="155" y="-7.5" font-family="Helvetica,sans-Serif" font-size="10.00" fill="#000000">Device</text>
</a>
</g>
</g>
<!-- Node2 -->
<g id="node2" class="node">
<title>Node2</title>
<g id="a_node2"><a xlink:href="structsceUsbdLddOps.html" target="_top" xlink:title=" ">
<polygon fill="#ffffff" stroke="#000000" points="0,-67.5 0,-86.5 94,-86.5 94,-67.5 0,-67.5"/>
<text text-anchor="middle" x="47" y="-74.5" font-family="Helvetica,sans-Serif" font-size="10.00" fill="#000000">sceUsbdLddOps</text>
</a>
</g>
</g>
<!-- Node2&#45;&gt;Node1 -->
<g id="edge1" class="edge">
<title>Node2&#45;&gt;Node1</title>
<path fill="none" stroke="#9a32cd" stroke-dasharray="5,2" d="M66.5628,-61.0122C76.0683,-53.5907 87.8287,-44.9042 99,-38 110.0957,-31.1425 123.0938,-24.5616 133.7729,-19.5047"/>
<polygon fill="#9a32cd" stroke="#9a32cd" points="64.1975,-58.4214 58.5489,-67.3849 68.5543,-63.9003 64.1975,-58.4214"/>
<text text-anchor="middle" x="125" y="-41" font-family="Helvetica,sans-Serif" font-size="10.00" fill="#000000"> devDriver</text>
</g>
<!-- Node3 -->
<g id="node3" class="node">
<title>Node3</title>
<g id="a_node3"><a xlink:href="structTimerCbStruct.html" target="_top" xlink:title=" ">
<polygon fill="#ffffff" stroke="#000000" points="112,-67.5 112,-86.5 198,-86.5 198,-67.5 112,-67.5"/>
<text text-anchor="middle" x="155" y="-74.5" font-family="Helvetica,sans-Serif" font-size="10.00" fill="#000000">TimerCbStruct</text>
</a>
</g>
</g>
<!-- Node3&#45;&gt;Node1 -->
<g id="edge2" class="edge">
<title>Node3&#45;&gt;Node1</title>
<path fill="none" stroke="#9a32cd" stroke-dasharray="5,2" d="M155,-57.1079C155,-44.714 155,-29.3263 155,-19.5817"/>
<polygon fill="#9a32cd" stroke="#9a32cd" points="151.5001,-57.4005 155,-67.4005 158.5001,-57.4006 151.5001,-57.4005"/>
<text text-anchor="middle" x="170" y="-41" font-family="Helvetica,sans-Serif" font-size="10.00" fill="#000000"> timer</text>
</g>
<!-- Node4 -->
<g id="node4" class="node">
<title>Node4</title>
<g id="a_node4"><a xlink:href="structIoRequest.html" target="_top" xlink:title=" ">
<polygon fill="#ffffff" stroke="#000000" points="216.5,-67.5 216.5,-86.5 281.5,-86.5 281.5,-67.5 216.5,-67.5"/>
<text text-anchor="middle" x="249" y="-74.5" font-family="Helvetica,sans-Serif" font-size="10.00" fill="#000000">IoRequest</text>
</a>
</g>
</g>
<!-- Node4&#45;&gt;Node1 -->
<g id="edge3" class="edge">
<title>Node4&#45;&gt;Node1</title>
<path fill="none" stroke="#9a32cd" stroke-dasharray="5,2" d="M227.268,-61.5102C209.109,-48.567 183.7886,-30.5195 168.4429,-19.5817"/>
<polygon fill="#9a32cd" stroke="#9a32cd" points="225.3574,-64.4464 235.5321,-67.4005 229.4204,-58.7462 225.3574,-64.4464"/>
<text text-anchor="middle" x="233" y="-41" font-family="Helvetica,sans-Serif" font-size="10.00" fill="#000000"> ioRequest</text>
</g>
<!-- Node5 -->
<g id="node5" class="node">
<title>Node5</title>
<g id="a_node5"><a xlink:href="structUsbDeviceRequest.html" target="_top" xlink:title=" ">
<polygon fill="#ffffff" stroke="#000000" points="195,-134.5 195,-153.5 303,-153.5 303,-134.5 195,-134.5"/>
<text text-anchor="middle" x="249" y="-141.5" font-family="Helvetica,sans-Serif" font-size="10.00" fill="#000000">UsbDeviceRequest</text>
</a>
</g>
</g>
<!-- Node5&#45;&gt;Node4 -->
<g id="edge4" class="edge">
<title>Node5&#45;&gt;Node4</title>
<path fill="none" stroke="#9a32cd" stroke-dasharray="5,2" d="M249,-124.1079C249,-111.714 249,-96.3263 249,-86.5817"/>
<polygon fill="#9a32cd" stroke="#9a32cd" points="245.5001,-124.4005 249,-134.4005 252.5001,-124.4006 245.5001,-124.4005"/>
<text text-anchor="middle" x="269" y="-108" font-family="Helvetica,sans-Serif" font-size="10.00" fill="#000000"> devReq</text>
</g>
</g>
</svg>
