<?xml version="1.0" encoding="UTF-8" standalone="no"?>
<!DOCTYPE svg PUBLIC "-//W3C//DTD SVG 1.1//EN"
 "http://www.w3.org/Graphics/SVG/1.1/DTD/svg11.dtd">
<!-- Generated by graphviz version 2.40.1 (20161225.0304)
 -->
<!-- Title: devfs_node_t Pages: 1 -->
<svg width="90pt" height="184pt"
 viewBox="0.00 0.00 90.00 184.00" xmlns="http://www.w3.org/2000/svg" xmlns:xlink="http://www.w3.org/1999/xlink">
<g id="graph0" class="graph" transform="scale(1 1) rotate(0) translate(4 180)">
<title>devfs_node_t</title>
<polygon fill="#ffffff" stroke="transparent" points="-4,4 -4,-180 86,-180 86,4 -4,4"/>
<!-- Node1 -->
<g id="node1" class="node">
<title>Node1</title>
<g id="a_node1"><a xlink:title=" ">
<polygon fill="#bfbfbf" stroke="#000000" points="0,-.5 0,-19.5 82,-19.5 82,-.5 0,-.5"/>
<text text-anchor="middle" x="41" y="-7.5" font-family="Helvetica,sans-Serif" font-size="10.00" fill="#000000">devfs_node_t</text>
</a>
</g>
</g>
<!-- Node2 -->
<g id="node2" class="node">
<title>Node2</title>
<g id="a_node2"><a xlink:href="structdevfs__info__t.html" target="_top" xlink:title=" ">
<polygon fill="#ffffff" stroke="#000000" points="2.5,-89.5 2.5,-108.5 79.5,-108.5 79.5,-89.5 2.5,-89.5"/>
<text text-anchor="middle" x="41" y="-96.5" font-family="Helvetica,sans-Serif" font-size="10.00" fill="#000000">devfs_info_t</text>
</a>
</g>
</g>
<!-- Node2&#45;&gt;Node1 -->
<g id="edge1" class="edge">
<title>Node2&#45;&gt;Node1</title>
<path fill="none" stroke="#9a32cd" stroke-dasharray="5,2" d="M41,-79.2379C41,-60.7654 41,-33.957 41,-19.7259"/>
<polygon fill="#9a32cd" stroke="#9a32cd" points="37.5001,-79.4754 41,-89.4754 44.5001,-79.4755 37.5001,-79.4754"/>
<text text-anchor="middle" x="53.5" y="-63" font-family="Helvetica,sans-Serif" font-size="10.00" fill="#000000"> ioctl</text>
<text text-anchor="middle" x="53.5" y="-52" font-family="Helvetica,sans-Serif" font-size="10.00" fill="#000000">read</text>
<text text-anchor="middle" x="53.5" y="-41" font-family="Helvetica,sans-Serif" font-size="10.00" fill="#000000">write</text>
</g>
<!-- Node3 -->
<g id="node3" class="node">
<title>Node3</title>
<g id="a_node3"><a xlink:href="uniondevfs__loc__t.html" target="_top" xlink:title=" ">
<polygon fill="#ffffff" stroke="#000000" points="5,-156.5 5,-175.5 77,-175.5 77,-156.5 5,-156.5"/>
<text text-anchor="middle" x="41" y="-163.5" font-family="Helvetica,sans-Serif" font-size="10.00" fill="#000000">devfs_loc_t</text>
</a>
</g>
</g>
<!-- Node3&#45;&gt;Node2 -->
<g id="edge2" class="edge">
<title>Node3&#45;&gt;Node2</title>
<path fill="none" stroke="#9a32cd" stroke-dasharray="5,2" d="M41,-146.1079C41,-133.714 41,-118.3263 41,-108.5817"/>
<polygon fill="#9a32cd" stroke="#9a32cd" points="37.5001,-146.4005 41,-156.4005 44.5001,-146.4006 37.5001,-146.4005"/>
<text text-anchor="middle" x="50" y="-130" font-family="Helvetica,sans-Serif" font-size="10.00" fill="#000000"> loc</text>
</g>
</g>
</svg>
