<?xml version="1.0" encoding="UTF-8" standalone="no"?>
<!DOCTYPE svg PUBLIC "-//W3C//DTD SVG 1.1//EN"
 "http://www.w3.org/Graphics/SVG/1.1/DTD/svg11.dtd">
<!-- Generated by graphviz version 2.40.1 (20161225.0304)
 -->
<!-- Title: lc_internals_t Pages: 1 -->
<svg width="200pt" height="195pt"
 viewBox="0.00 0.00 199.50 195.00" xmlns="http://www.w3.org/2000/svg" xmlns:xlink="http://www.w3.org/1999/xlink">
<g id="graph0" class="graph" transform="scale(1 1) rotate(0) translate(4 191)">
<title>lc_internals_t</title>
<polygon fill="#ffffff" stroke="transparent" points="-4,4 -4,-191 195.5,-191 195.5,4 -4,4"/>
<!-- Node1 -->
<g id="node1" class="node">
<title>Node1</title>
<g id="a_node1"><a xlink:title=" ">
<polygon fill="#bfbfbf" stroke="#000000" points="56.5,-.5 56.5,-19.5 138.5,-19.5 138.5,-.5 56.5,-.5"/>
<text text-anchor="middle" x="97.5" y="-7.5" font-family="Helvetica,sans-Serif" font-size="10.00" fill="#000000">lc_internals_t</text>
</a>
</g>
</g>
<!-- Node2 -->
<g id="node2" class="node">
<title>Node2</title>
<g id="a_node2"><a xlink:href="structiop__library__t.html" target="_top" xlink:title=" ">
<polygon fill="#ffffff" stroke="#000000" points="10,-100.5 10,-119.5 87,-119.5 87,-100.5 10,-100.5"/>
<text text-anchor="middle" x="48.5" y="-107.5" font-family="Helvetica,sans-Serif" font-size="10.00" fill="#000000">iop_library_t</text>
</a>
</g>
</g>
<!-- Node2&#45;&gt;Node1 -->
<g id="edge1" class="edge">
<title>Node2&#45;&gt;Node1</title>
<path fill="none" stroke="#9a32cd" stroke-dasharray="5,2" d="M48.3341,-90.027C49.059,-74.7725 51.9624,-53.7609 61.5,-38 66.0092,-30.5485 73.2901,-24.3309 80.1281,-19.6627"/>
<polygon fill="#9a32cd" stroke="#9a32cd" points="44.8277,-90.3207 48.1305,-100.3876 51.8264,-90.4583 44.8277,-90.3207"/>
<text text-anchor="middle" x="86" y="-74" font-family="Helvetica,sans-Serif" font-size="10.00" fill="#000000"> let_next</text>
<text text-anchor="middle" x="86" y="-63" font-family="Helvetica,sans-Serif" font-size="10.00" fill="#000000">let_prev</text>
<text text-anchor="middle" x="86" y="-52" font-family="Helvetica,sans-Serif" font-size="10.00" fill="#000000">mda_next</text>
<text text-anchor="middle" x="86" y="-41" font-family="Helvetica,sans-Serif" font-size="10.00" fill="#000000">mda_prev</text>
</g>
<!-- Node3 -->
<g id="node3" class="node">
<title>Node3</title>
<g id="a_node3"><a xlink:href="structirx__import__table.html" target="_top" xlink:title=" ">
<polygon fill="#ffffff" stroke="#000000" points="0,-167.5 0,-186.5 97,-186.5 97,-167.5 0,-167.5"/>
<text text-anchor="middle" x="48.5" y="-174.5" font-family="Helvetica,sans-Serif" font-size="10.00" fill="#000000">irx_import_table</text>
</a>
</g>
</g>
<!-- Node3&#45;&gt;Node2 -->
<g id="edge2" class="edge">
<title>Node3&#45;&gt;Node2</title>
<path fill="none" stroke="#9a32cd" stroke-dasharray="5,2" d="M48.5,-157.1079C48.5,-144.714 48.5,-129.3263 48.5,-119.5817"/>
<polygon fill="#9a32cd" stroke="#9a32cd" points="45.0001,-157.4005 48.5,-167.4005 52.0001,-157.4006 45.0001,-157.4005"/>
<text text-anchor="middle" x="64" y="-141" font-family="Helvetica,sans-Serif" font-size="10.00" fill="#000000"> caller</text>
</g>
<!-- Node3&#45;&gt;Node3 -->
<g id="edge3" class="edge">
<title>Node3&#45;&gt;Node3</title>
<path fill="none" stroke="#9a32cd" stroke-dasharray="5,2" d="M107.3803,-181.5752C112.0867,-180.5758 115,-179.0508 115,-177 115,-173.7188 107.5419,-171.7833 97.2141,-171.1937"/>
<polygon fill="#9a32cd" stroke="#9a32cd" points="106.7208,-178.1294 97.2141,-182.8063 107.5624,-185.0786 106.7208,-178.1294"/>
<text text-anchor="middle" x="127.5" y="-174.5" font-family="Helvetica,sans-Serif" font-size="10.00" fill="#000000"> next</text>
</g>
<!-- Node4 -->
<g id="node4" class="node">
<title>Node4</title>
<g id="a_node4"><a xlink:href="structModuleInfo__t.html" target="_top" xlink:title=" ">
<polygon fill="#ffffff" stroke="#000000" points="105.5,-100.5 105.5,-119.5 185.5,-119.5 185.5,-100.5 105.5,-100.5"/>
<text text-anchor="middle" x="145.5" y="-107.5" font-family="Helvetica,sans-Serif" font-size="10.00" fill="#000000">ModuleInfo_t</text>
</a>
</g>
</g>
<!-- Node4&#45;&gt;Node1 -->
<g id="edge4" class="edge">
<title>Node4&#45;&gt;Node1</title>
<path fill="none" stroke="#9a32cd" stroke-dasharray="5,2" d="M138.1519,-90.9743C132.2697,-76.2635 123.5347,-55.52 114.5,-38 111.268,-31.7325 107.1785,-24.9673 103.8204,-19.657"/>
<polygon fill="#9a32cd" stroke="#9a32cd" points="134.9763,-92.4629 141.8943,-100.4874 141.4904,-89.9002 134.9763,-92.4629"/>
<text text-anchor="middle" x="162.5" y="-57.5" font-family="Helvetica,sans-Serif" font-size="10.00" fill="#000000"> image_info</text>
</g>
</g>
</svg>
