<?xml version="1.0" encoding="UTF-8" standalone="no"?>
<!DOCTYPE svg PUBLIC "-//W3C//DTD SVG 1.1//EN"
 "http://www.w3.org/Graphics/SVG/1.1/DTD/svg11.dtd">
<!-- Generated by graphviz version 2.40.1 (20161225.0304)
 -->
<!-- Title: fodtable Pages: 1 -->
<svg width="146pt" height="95pt"
 viewBox="0.00 0.00 145.50 95.00" xmlns="http://www.w3.org/2000/svg" xmlns:xlink="http://www.w3.org/1999/xlink">
<g id="graph0" class="graph" transform="scale(1 1) rotate(0) translate(4 91)">
<title>fodtable</title>
<polygon fill="#ffffff" stroke="transparent" points="-4,4 -4,-91 141.5,-91 141.5,4 -4,4"/>
<!-- Node1 -->
<g id="node1" class="node">
<title>Node1</title>
<g id="a_node1"><a xlink:title=" ">
<polygon fill="#bfbfbf" stroke="#000000" points="41,-.5 41,-19.5 98,-19.5 98,-.5 41,-.5"/>
<text text-anchor="middle" x="69.5" y="-7.5" font-family="Helvetica,sans-Serif" font-size="10.00" fill="#000000">fodtable</text>
</a>
</g>
</g>
<!-- Node2 -->
<g id="node2" class="node">
<title>Node2</title>
<g id="a_node2"><a xlink:href="structiop__file__t.html" target="_top" xlink:title=" ">
<polygon fill="#ffffff" stroke="#000000" points="0,-67.5 0,-86.5 61,-86.5 61,-67.5 0,-67.5"/>
<text text-anchor="middle" x="30.5" y="-74.5" font-family="Helvetica,sans-Serif" font-size="10.00" fill="#000000">iop_file_t</text>
</a>
</g>
</g>
<!-- Node2&#45;&gt;Node1 -->
<g id="edge1" class="edge">
<title>Node2&#45;&gt;Node1</title>
<path fill="none" stroke="#9a32cd" stroke-dasharray="5,2" d="M41.2047,-58.6099C48.5567,-45.9795 58.0188,-29.7241 63.9226,-19.5817"/>
<polygon fill="#9a32cd" stroke="#9a32cd" points="38.0936,-56.9973 36.0877,-67.4005 44.1434,-60.5188 38.0936,-56.9973"/>
<text text-anchor="middle" x="59" y="-41" font-family="Helvetica,sans-Serif" font-size="10.00" fill="#000000"> fd</text>
</g>
<!-- Node3 -->
<g id="node3" class="node">
<title>Node3</title>
<g id="a_node3"><a xlink:href="structTocEntry.html" target="_top" xlink:title=" ">
<polygon fill="#ffffff" stroke="#000000" points="79.5,-67.5 79.5,-86.5 137.5,-86.5 137.5,-67.5 79.5,-67.5"/>
<text text-anchor="middle" x="108.5" y="-74.5" font-family="Helvetica,sans-Serif" font-size="10.00" fill="#000000">TocEntry</text>
</a>
</g>
</g>
<!-- Node3&#45;&gt;Node1 -->
<g id="edge2" class="edge">
<title>Node3&#45;&gt;Node1</title>
<path fill="none" stroke="#9a32cd" stroke-dasharray="5,2" d="M97.7953,-58.6099C90.4433,-45.9795 80.9812,-29.7241 75.0774,-19.5817"/>
<polygon fill="#9a32cd" stroke="#9a32cd" points="94.8566,-60.5188 102.9123,-67.4005 100.9064,-56.9973 94.8566,-60.5188"/>
<text text-anchor="middle" x="109" y="-41" font-family="Helvetica,sans-Serif" font-size="10.00" fill="#000000"> entries</text>
</g>
</g>
</svg>
