<?xml version="1.0" encoding="UTF-8" standalone="no"?>
<!DOCTYPE svg PUBLIC "-//W3C//DTD SVG 1.1//EN"
 "http://www.w3.org/Graphics/SVG/1.1/DTD/svg11.dtd">
<!-- Generated by graphviz version 2.40.1 (20161225.0304)
 -->
<!-- Title: fxio_dread_packet Pages: 1 -->
<svg width="115pt" height="162pt"
 viewBox="0.00 0.00 115.00 162.00" xmlns="http://www.w3.org/2000/svg" xmlns:xlink="http://www.w3.org/1999/xlink">
<g id="graph0" class="graph" transform="scale(1 1) rotate(0) translate(4 158)">
<title>fxio_dread_packet</title>
<polygon fill="#ffffff" stroke="transparent" points="-4,4 -4,-158 111,-158 111,4 -4,4"/>
<!-- Node1 -->
<g id="node1" class="node">
<title>Node1</title>
<g id="a_node1"><a xlink:title=" ">
<polygon fill="#bfbfbf" stroke="#000000" points="0,-.5 0,-19.5 107,-19.5 107,-.5 0,-.5"/>
<text text-anchor="middle" x="53.5" y="-7.5" font-family="Helvetica,sans-Serif" font-size="10.00" fill="#000000">fxio_dread_packet</text>
</a>
</g>
</g>
<!-- Node2 -->
<g id="node2" class="node">
<title>Node2</title>
<g id="a_node2"><a xlink:href="structiox__dirent__t.html" target="_top" xlink:title=" ">
<polygon fill="#ffffff" stroke="#000000" points="16.5,-67.5 16.5,-86.5 90.5,-86.5 90.5,-67.5 16.5,-67.5"/>
<text text-anchor="middle" x="53.5" y="-74.5" font-family="Helvetica,sans-Serif" font-size="10.00" fill="#000000">iox_dirent_t</text>
</a>
</g>
</g>
<!-- Node2&#45;&gt;Node1 -->
<g id="edge1" class="edge">
<title>Node2&#45;&gt;Node1</title>
<path fill="none" stroke="#9a32cd" stroke-dasharray="5,2" d="M53.5,-57.1079C53.5,-44.714 53.5,-29.3263 53.5,-19.5817"/>
<polygon fill="#9a32cd" stroke="#9a32cd" points="50.0001,-57.4005 53.5,-67.4005 57.0001,-57.4006 50.0001,-57.4005"/>
<text text-anchor="middle" x="69.5" y="-41" font-family="Helvetica,sans-Serif" font-size="10.00" fill="#000000"> dirent</text>
</g>
<!-- Node3 -->
<g id="node3" class="node">
<title>Node3</title>
<g id="a_node3"><a xlink:href="structiox__stat__t.html" target="_top" xlink:title=" ">
<polygon fill="#ffffff" stroke="#000000" points="21,-134.5 21,-153.5 86,-153.5 86,-134.5 21,-134.5"/>
<text text-anchor="middle" x="53.5" y="-141.5" font-family="Helvetica,sans-Serif" font-size="10.00" fill="#000000">iox_stat_t</text>
</a>
</g>
</g>
<!-- Node3&#45;&gt;Node2 -->
<g id="edge2" class="edge">
<title>Node3&#45;&gt;Node2</title>
<path fill="none" stroke="#9a32cd" stroke-dasharray="5,2" d="M53.5,-124.1079C53.5,-111.714 53.5,-96.3263 53.5,-86.5817"/>
<polygon fill="#9a32cd" stroke="#9a32cd" points="50.0001,-124.4005 53.5,-134.4005 57.0001,-124.4006 50.0001,-124.4005"/>
<text text-anchor="middle" x="64.5" y="-108" font-family="Helvetica,sans-Serif" font-size="10.00" fill="#000000"> stat</text>
</g>
</g>
</svg>
