<?xml version="1.0" encoding="UTF-8" standalone="no"?>
<!DOCTYPE svg PUBLIC "-//W3C//DTD SVG 1.1//EN"
 "http://www.w3.org/Graphics/SVG/1.1/DTD/svg11.dtd">
<!-- Generated by graphviz version 2.40.1 (20161225.0304)
 -->
<!-- Title: SecrBitTable_t Pages: 1 -->
<svg width="258pt" height="95pt"
 viewBox="0.00 0.00 257.50 95.00" xmlns="http://www.w3.org/2000/svg" xmlns:xlink="http://www.w3.org/1999/xlink">
<g id="graph0" class="graph" transform="scale(1 1) rotate(0) translate(4 91)">
<title>SecrBitTable_t</title>
<polygon fill="#ffffff" stroke="transparent" points="-4,4 -4,-91 253.5,-91 253.5,4 -4,4"/>
<!-- Node1 -->
<g id="node1" class="node">
<title>Node1</title>
<g id="a_node1"><a xlink:title=" ">
<polygon fill="#bfbfbf" stroke="#000000" points="84.5,-.5 84.5,-19.5 170.5,-19.5 170.5,-.5 84.5,-.5"/>
<text text-anchor="middle" x="127.5" y="-7.5" font-family="Helvetica,sans-Serif" font-size="10.00" fill="#000000">SecrBitTable_t</text>
</a>
</g>
</g>
<!-- Node2 -->
<g id="node2" class="node">
<title>Node2</title>
<g id="a_node2"><a xlink:href="structSecrBitTableHeader__t.html" target="_top" xlink:title=" ">
<polygon fill="#ffffff" stroke="#000000" points="0,-67.5 0,-86.5 121,-86.5 121,-67.5 0,-67.5"/>
<text text-anchor="middle" x="60.5" y="-74.5" font-family="Helvetica,sans-Serif" font-size="10.00" fill="#000000">SecrBitTableHeader_t</text>
</a>
</g>
</g>
<!-- Node2&#45;&gt;Node1 -->
<g id="edge1" class="edge">
<title>Node2&#45;&gt;Node1</title>
<path fill="none" stroke="#9a32cd" stroke-dasharray="5,2" d="M77.4215,-60.0785C90.2361,-47.2639 107.3782,-30.1218 117.9183,-19.5817"/>
<polygon fill="#9a32cd" stroke="#9a32cd" points="74.6957,-57.8546 70.0995,-67.4005 79.6454,-62.8043 74.6957,-57.8546"/>
<text text-anchor="middle" x="117" y="-41" font-family="Helvetica,sans-Serif" font-size="10.00" fill="#000000"> header</text>
</g>
<!-- Node3 -->
<g id="node3" class="node">
<title>Node3</title>
<g id="a_node3"><a xlink:href="structSecrBitBlockData__t.html" target="_top" xlink:title=" ">
<polygon fill="#ffffff" stroke="#000000" points="139.5,-67.5 139.5,-86.5 249.5,-86.5 249.5,-67.5 139.5,-67.5"/>
<text text-anchor="middle" x="194.5" y="-74.5" font-family="Helvetica,sans-Serif" font-size="10.00" fill="#000000">SecrBitBlockData_t</text>
</a>
</g>
</g>
<!-- Node3&#45;&gt;Node1 -->
<g id="edge2" class="edge">
<title>Node3&#45;&gt;Node1</title>
<path fill="none" stroke="#9a32cd" stroke-dasharray="5,2" d="M177.5785,-60.0785C164.7639,-47.2639 147.6218,-30.1218 137.0817,-19.5817"/>
<polygon fill="#9a32cd" stroke="#9a32cd" points="175.3546,-62.8043 184.9005,-67.4005 180.3043,-57.8546 175.3546,-62.8043"/>
<text text-anchor="middle" x="182" y="-41" font-family="Helvetica,sans-Serif" font-size="10.00" fill="#000000"> blocks</text>
</g>
</g>
</svg>
