<?xml version="1.0" encoding="UTF-8" standalone="no"?>
<!DOCTYPE svg PUBLIC "-//W3C//DTD SVG 1.1//EN"
 "http://www.w3.org/Graphics/SVG/1.1/DTD/svg11.dtd">
<!-- Generated by graphviz version 2.40.1 (20161225.0304)
 -->
<!-- Title: pfs_blockpos_t Pages: 1 -->
<svg width="548pt" height="273pt"
 viewBox="0.00 0.00 547.50 273.00" xmlns="http://www.w3.org/2000/svg" xmlns:xlink="http://www.w3.org/1999/xlink">
<g id="graph0" class="graph" transform="scale(1 1) rotate(0) translate(4 269)">
<title>pfs_blockpos_t</title>
<polygon fill="#ffffff" stroke="transparent" points="-4,4 -4,-269 543.5,-269 543.5,4 -4,4"/>
<!-- Node1 -->
<g id="node1" class="node">
<title>Node1</title>
<g id="a_node1"><a xlink:title=" ">
<polygon fill="#bfbfbf" stroke="#000000" points="268.5,-.5 268.5,-19.5 357.5,-19.5 357.5,-.5 268.5,-.5"/>
<text text-anchor="middle" x="313" y="-7.5" font-family="Helvetica,sans-Serif" font-size="10.00" fill="#000000">pfs_blockpos_t</text>
</a>
</g>
</g>
<!-- Node2 -->
<g id="node2" class="node">
<title>Node2</title>
<g id="a_node2"><a xlink:href="structpfs__cache__t.html" target="_top" xlink:title=" ">
<polygon fill="#ffffff" stroke="#000000" points="276,-67.5 276,-86.5 350,-86.5 350,-67.5 276,-67.5"/>
<text text-anchor="middle" x="313" y="-74.5" font-family="Helvetica,sans-Serif" font-size="10.00" fill="#000000">pfs_cache_t</text>
</a>
</g>
</g>
<!-- Node2&#45;&gt;Node1 -->
<g id="edge1" class="edge">
<title>Node2&#45;&gt;Node1</title>
<path fill="none" stroke="#9a32cd" stroke-dasharray="5,2" d="M313,-57.1079C313,-44.714 313,-29.3263 313,-19.5817"/>
<polygon fill="#9a32cd" stroke="#9a32cd" points="309.5001,-57.4005 313,-67.4005 316.5001,-57.4006 309.5001,-57.4005"/>
<text text-anchor="middle" x="328.5" y="-41" font-family="Helvetica,sans-Serif" font-size="10.00" fill="#000000"> inode</text>
</g>
<!-- Node3 -->
<g id="node3" class="node">
<title>Node3</title>
<g id="a_node3"><a xlink:href="structpfs__mount__t.html" target="_top" xlink:title=" ">
<polygon fill="#ffffff" stroke="#000000" points="58.5,-134.5 58.5,-153.5 135.5,-153.5 135.5,-134.5 58.5,-134.5"/>
<text text-anchor="middle" x="97" y="-141.5" font-family="Helvetica,sans-Serif" font-size="10.00" fill="#000000">pfs_mount_t</text>
</a>
</g>
</g>
<!-- Node3&#45;&gt;Node2 -->
<g id="edge2" class="edge">
<title>Node3&#45;&gt;Node2</title>
<path fill="none" stroke="#9a32cd" stroke-dasharray="5,2" d="M124.4669,-129.9168C141.3042,-121.7337 163.4941,-111.7404 184,-105 214.2621,-95.0527 249.6926,-87.6527 275.7572,-82.9664"/>
<polygon fill="#9a32cd" stroke="#9a32cd" points="122.6372,-126.917 115.2251,-134.4874 125.7404,-133.1916 122.6372,-126.917"/>
<text text-anchor="middle" x="208.5" y="-108" font-family="Helvetica,sans-Serif" font-size="10.00" fill="#000000"> pfsMount</text>
</g>
<!-- Node4 -->
<g id="node4" class="node">
<title>Node4</title>
<g id="a_node4"><a xlink:href="structpfs__block__device__t.html" target="_top" xlink:title=" ">
<polygon fill="#ffffff" stroke="#000000" points="0,-245.5 0,-264.5 110,-264.5 110,-245.5 0,-245.5"/>
<text text-anchor="middle" x="55" y="-252.5" font-family="Helvetica,sans-Serif" font-size="10.00" fill="#000000">pfs_block_device_t</text>
</a>
</g>
</g>
<!-- Node4&#45;&gt;Node3 -->
<g id="edge3" class="edge">
<title>Node4&#45;&gt;Node3</title>
<path fill="none" stroke="#9a32cd" stroke-dasharray="5,2" d="M50.3661,-235.3315C47.2896,-217.668 45.5109,-191.5784 56,-172 60.2334,-164.0982 67.7937,-157.9955 75.2792,-153.5343"/>
<polygon fill="#9a32cd" stroke="#9a32cd" points="46.9789,-236.2385 52.4052,-245.3382 53.838,-234.8407 46.9789,-236.2385"/>
<text text-anchor="middle" x="80.5" y="-197" font-family="Helvetica,sans-Serif" font-size="10.00" fill="#000000"> blockDev</text>
</g>
<!-- Node5 -->
<g id="node5" class="node">
<title>Node5</title>
<g id="a_node5"><a xlink:href="structpfs__blockinfo__t.html" target="_top" xlink:title=" ">
<polygon fill="#ffffff" stroke="#000000" points="160.5,-245.5 160.5,-264.5 251.5,-264.5 251.5,-245.5 160.5,-245.5"/>
<text text-anchor="middle" x="206" y="-252.5" font-family="Helvetica,sans-Serif" font-size="10.00" fill="#000000">pfs_blockinfo_t</text>
</a>
</g>
</g>
<!-- Node5&#45;&gt;Node3 -->
<g id="edge4" class="edge">
<title>Node5&#45;&gt;Node3</title>
<path fill="none" stroke="#9a32cd" stroke-dasharray="5,2" d="M167.4502,-241.2137C159.8089,-237.3694 152.2327,-232.6575 146,-227 122.5825,-205.7436 107.0345,-170.6337 100.5001,-153.7118"/>
<polygon fill="#9a32cd" stroke="#9a32cd" points="166.1696,-244.4772 176.7171,-245.478 169.0958,-238.1182 166.1696,-244.4772"/>
<text text-anchor="middle" x="174" y="-208" font-family="Helvetica,sans-Serif" font-size="10.00" fill="#000000"> current_dir</text>
<text text-anchor="middle" x="174" y="-197" font-family="Helvetica,sans-Serif" font-size="10.00" fill="#000000">log</text>
<text text-anchor="middle" x="174" y="-186" font-family="Helvetica,sans-Serif" font-size="10.00" fill="#000000">root_dir</text>
</g>
<!-- Node6 -->
<g id="node6" class="node">
<title>Node6</title>
<g id="a_node6"><a xlink:href="structpfs__inode__t.html" target="_top" xlink:title=" ">
<polygon fill="#ffffff" stroke="#000000" points="276.5,-134.5 276.5,-153.5 349.5,-153.5 349.5,-134.5 276.5,-134.5"/>
<text text-anchor="middle" x="313" y="-141.5" font-family="Helvetica,sans-Serif" font-size="10.00" fill="#000000">pfs_inode_t</text>
</a>
</g>
</g>
<!-- Node5&#45;&gt;Node6 -->
<g id="edge6" class="edge">
<title>Node5&#45;&gt;Node6</title>
<path fill="none" stroke="#9a32cd" stroke-dasharray="5,2" d="M220.5535,-237.2957C222.8956,-233.9903 225.1533,-230.4784 227,-227 239.127,-204.1576 228.3001,-190.8561 246,-172 254.1105,-163.3598 265.2982,-157.2896 276.2098,-153.067"/>
<polygon fill="#9a32cd" stroke="#9a32cd" points="217.6566,-235.3227 214.3805,-245.3983 223.2248,-239.5648 217.6566,-235.3227"/>
<text text-anchor="middle" x="281" y="-219" font-family="Helvetica,sans-Serif" font-size="10.00" fill="#000000"> data</text>
<text text-anchor="middle" x="281" y="-208" font-family="Helvetica,sans-Serif" font-size="10.00" fill="#000000">inode_block</text>
<text text-anchor="middle" x="281" y="-197" font-family="Helvetica,sans-Serif" font-size="10.00" fill="#000000">last_segment</text>
<text text-anchor="middle" x="281" y="-186" font-family="Helvetica,sans-Serif" font-size="10.00" fill="#000000">next_segment</text>
<text text-anchor="middle" x="281" y="-175" font-family="Helvetica,sans-Serif" font-size="10.00" fill="#000000">unused</text>
</g>
<!-- Node10 -->
<g id="node10" class="node">
<title>Node10</title>
<g id="a_node10"><a xlink:href="structpfs__super__block__t.html" target="_top" xlink:title=" ">
<polygon fill="#ffffff" stroke="#000000" points="154,-134.5 154,-153.5 258,-153.5 258,-134.5 154,-134.5"/>
<text text-anchor="middle" x="206" y="-141.5" font-family="Helvetica,sans-Serif" font-size="10.00" fill="#000000">pfs_super_block_t</text>
</a>
</g>
</g>
<!-- Node5&#45;&gt;Node10 -->
<g id="edge11" class="edge">
<title>Node5&#45;&gt;Node10</title>
<path fill="none" stroke="#9a32cd" stroke-dasharray="5,2" d="M206,-235.0467C206,-211.0543 206,-171.7599 206,-153.6699"/>
<polygon fill="#9a32cd" stroke="#9a32cd" points="202.5001,-235.1495 206,-245.1495 209.5001,-235.1495 202.5001,-235.1495"/>
<text text-anchor="middle" x="216" y="-202.5" font-family="Helvetica,sans-Serif" font-size="10.00" fill="#000000"> log</text>
<text text-anchor="middle" x="216" y="-191.5" font-family="Helvetica,sans-Serif" font-size="10.00" fill="#000000">root</text>
</g>
<!-- Node6&#45;&gt;Node2 -->
<g id="edge5" class="edge">
<title>Node6&#45;&gt;Node2</title>
<path fill="none" stroke="#9a32cd" stroke-dasharray="5,2" d="M313,-124.1079C313,-111.714 313,-96.3263 313,-86.5817"/>
<polygon fill="#9a32cd" stroke="#9a32cd" points="309.5001,-124.4005 313,-134.4005 316.5001,-124.4006 309.5001,-124.4005"/>
<text text-anchor="middle" x="328.5" y="-108" font-family="Helvetica,sans-Serif" font-size="10.00" fill="#000000"> inode</text>
</g>
<!-- Node7 -->
<g id="node7" class="node">
<title>Node7</title>
<g id="a_node7"><a xlink:href="structpfs__datetime__t.html" target="_top" xlink:title=" ">
<polygon fill="#ffffff" stroke="#000000" points="297,-245.5 297,-264.5 387,-264.5 387,-245.5 297,-245.5"/>
<text text-anchor="middle" x="342" y="-252.5" font-family="Helvetica,sans-Serif" font-size="10.00" fill="#000000">pfs_datetime_t</text>
</a>
</g>
</g>
<!-- Node7&#45;&gt;Node6 -->
<g id="edge7" class="edge">
<title>Node7&#45;&gt;Node6</title>
<path fill="none" stroke="#9a32cd" stroke-dasharray="5,2" d="M336.8718,-235.3715C330.6117,-211.4103 320.274,-171.8417 315.5264,-153.6699"/>
<polygon fill="#9a32cd" stroke="#9a32cd" points="333.5123,-236.359 339.4264,-245.1495 340.2849,-234.5895 333.5123,-236.359"/>
<text text-anchor="middle" x="350.5" y="-208" font-family="Helvetica,sans-Serif" font-size="10.00" fill="#000000"> atime</text>
<text text-anchor="middle" x="350.5" y="-197" font-family="Helvetica,sans-Serif" font-size="10.00" fill="#000000">ctime</text>
<text text-anchor="middle" x="350.5" y="-186" font-family="Helvetica,sans-Serif" font-size="10.00" fill="#000000">mtime</text>
</g>
<!-- Node8 -->
<g id="node8" class="node">
<title>Node8</title>
<g id="a_node8"><a xlink:href="structpfs__aentry__t.html" target="_top" xlink:title=" ">
<polygon fill="#ffffff" stroke="#000000" points="367.5,-134.5 367.5,-153.5 444.5,-153.5 444.5,-134.5 367.5,-134.5"/>
<text text-anchor="middle" x="406" y="-141.5" font-family="Helvetica,sans-Serif" font-size="10.00" fill="#000000">pfs_aentry_t</text>
</a>
</g>
</g>
<!-- Node8&#45;&gt;Node2 -->
<g id="edge8" class="edge">
<title>Node8&#45;&gt;Node2</title>
<path fill="none" stroke="#9a32cd" stroke-dasharray="5,2" d="M384.4992,-128.5102C366.5333,-115.567 341.4824,-97.5195 326.2999,-86.5817"/>
<polygon fill="#9a32cd" stroke="#9a32cd" points="382.5158,-131.3949 392.6754,-134.4005 386.6075,-125.7153 382.5158,-131.3949"/>
<text text-anchor="middle" x="382.5" y="-108" font-family="Helvetica,sans-Serif" font-size="10.00" fill="#000000"> aentry</text>
</g>
<!-- Node9 -->
<g id="node9" class="node">
<title>Node9</title>
<g id="a_node9"><a xlink:href="structpfs__dentry__t.html" target="_top" xlink:title=" ">
<polygon fill="#ffffff" stroke="#000000" points="462.5,-134.5 462.5,-153.5 539.5,-153.5 539.5,-134.5 462.5,-134.5"/>
<text text-anchor="middle" x="501" y="-141.5" font-family="Helvetica,sans-Serif" font-size="10.00" fill="#000000">pfs_dentry_t</text>
</a>
</g>
</g>
<!-- Node9&#45;&gt;Node2 -->
<g id="edge9" class="edge">
<title>Node9&#45;&gt;Node2</title>
<path fill="none" stroke="#9a32cd" stroke-dasharray="5,2" d="M469.5552,-130.5797C450.6946,-122.7256 426.1455,-112.8434 404,-105 385.1468,-98.3226 363.786,-91.7022 346.4999,-86.5765"/>
<polygon fill="#9a32cd" stroke="#9a32cd" points="468.2812,-133.8407 478.8567,-134.4804 470.9884,-127.3853 468.2812,-133.8407"/>
<text text-anchor="middle" x="447.5" y="-108" font-family="Helvetica,sans-Serif" font-size="10.00" fill="#000000"> dentry</text>
</g>
<!-- Node10&#45;&gt;Node2 -->
<g id="edge10" class="edge">
<title>Node10&#45;&gt;Node2</title>
<path fill="none" stroke="#9a32cd" stroke-dasharray="5,2" d="M223.1395,-127.5199C231.4381,-120.0657 241.798,-111.4929 252,-105 263.3052,-97.805 276.763,-91.4239 288.1581,-86.5775"/>
<polygon fill="#9a32cd" stroke="#9a32cd" points="220.5757,-125.1236 215.6102,-134.4827 225.3284,-130.2629 220.5757,-125.1236"/>
<text text-anchor="middle" x="280.5" y="-108" font-family="Helvetica,sans-Serif" font-size="10.00" fill="#000000"> superblock</text>
</g>
</g>
</svg>
