<?xml version="1.0" encoding="UTF-8" standalone="no"?>
<!DOCTYPE svg PUBLIC "-//W3C//DTD SVG 1.1//EN"
 "http://www.w3.org/Graphics/SVG/1.1/DTD/svg11.dtd">
<!-- Generated by graphviz version 2.40.1 (20161225.0304)
 -->
<!-- Title: AHXInstrument Pages: 1 -->
<svg width="183pt" height="162pt"
 viewBox="0.00 0.00 182.50 162.00" xmlns="http://www.w3.org/2000/svg" xmlns:xlink="http://www.w3.org/1999/xlink">
<g id="graph0" class="graph" transform="scale(1 1) rotate(0) translate(4 158)">
<title>AHXInstrument</title>
<polygon fill="#ffffff" stroke="transparent" points="-4,4 -4,-158 178.5,-158 178.5,4 -4,4"/>
<!-- Node1 -->
<g id="node1" class="node">
<title>Node1</title>
<g id="a_node1"><a xlink:title=" ">
<polygon fill="#bfbfbf" stroke="#000000" points="36,-.5 36,-19.5 127,-19.5 127,-.5 36,-.5"/>
<text text-anchor="middle" x="81.5" y="-7.5" font-family="Helvetica,sans-Serif" font-size="10.00" fill="#000000">AHXInstrument</text>
</a>
</g>
</g>
<!-- Node2 -->
<g id="node2" class="node">
<title>Node2</title>
<g id="a_node2"><a xlink:href="structAHXEnvelope.html" target="_top" xlink:title=" ">
<polygon fill="#ffffff" stroke="#000000" points="0,-67.5 0,-86.5 83,-86.5 83,-67.5 0,-67.5"/>
<text text-anchor="middle" x="41.5" y="-74.5" font-family="Helvetica,sans-Serif" font-size="10.00" fill="#000000">AHXEnvelope</text>
</a>
</g>
</g>
<!-- Node2&#45;&gt;Node1 -->
<g id="edge1" class="edge">
<title>Node2&#45;&gt;Node1</title>
<path fill="none" stroke="#9a32cd" stroke-dasharray="5,2" d="M44.2602,-57.3778C45.7496,-50.897 48.0273,-43.8538 51.5,-38 55.7166,-30.8923 62.2715,-24.4769 68.18,-19.5858"/>
<polygon fill="#9a32cd" stroke="#9a32cd" points="40.7754,-56.9789 42.4263,-67.4443 47.662,-58.2336 40.7754,-56.9789"/>
<text text-anchor="middle" x="76" y="-41" font-family="Helvetica,sans-Serif" font-size="10.00" fill="#000000"> Envelope</text>
</g>
<!-- Node3 -->
<g id="node3" class="node">
<title>Node3</title>
<g id="a_node3"><a xlink:href="structAHXPList.html" target="_top" xlink:title=" ">
<polygon fill="#ffffff" stroke="#000000" points="101,-67.5 101,-86.5 162,-86.5 162,-67.5 101,-67.5"/>
<text text-anchor="middle" x="131.5" y="-74.5" font-family="Helvetica,sans-Serif" font-size="10.00" fill="#000000">AHXPList</text>
</a>
</g>
</g>
<!-- Node3&#45;&gt;Node1 -->
<g id="edge2" class="edge">
<title>Node3&#45;&gt;Node1</title>
<path fill="none" stroke="#9a32cd" stroke-dasharray="5,2" d="M118.3273,-59.3486C108.8279,-46.6194 96.3679,-29.9229 88.6505,-19.5817"/>
<polygon fill="#9a32cd" stroke="#9a32cd" points="115.5503,-61.4795 124.3362,-67.4005 121.1604,-57.2929 115.5503,-61.4795"/>
<text text-anchor="middle" x="122" y="-41" font-family="Helvetica,sans-Serif" font-size="10.00" fill="#000000"> PList</text>
</g>
<!-- Node4 -->
<g id="node4" class="node">
<title>Node4</title>
<g id="a_node4"><a xlink:href="structAHXPListEntry.html" target="_top" xlink:title=" ">
<polygon fill="#ffffff" stroke="#000000" points="88.5,-134.5 88.5,-153.5 174.5,-153.5 174.5,-134.5 88.5,-134.5"/>
<text text-anchor="middle" x="131.5" y="-141.5" font-family="Helvetica,sans-Serif" font-size="10.00" fill="#000000">AHXPListEntry</text>
</a>
</g>
</g>
<!-- Node4&#45;&gt;Node3 -->
<g id="edge3" class="edge">
<title>Node4&#45;&gt;Node3</title>
<path fill="none" stroke="#9a32cd" stroke-dasharray="5,2" d="M131.5,-124.1079C131.5,-111.714 131.5,-96.3263 131.5,-86.5817"/>
<polygon fill="#9a32cd" stroke="#9a32cd" points="128.0001,-124.4005 131.5,-134.4005 135.0001,-124.4006 128.0001,-124.4005"/>
<text text-anchor="middle" x="150" y="-108" font-family="Helvetica,sans-Serif" font-size="10.00" fill="#000000"> Entries</text>
</g>
</g>
</svg>
