<?xml version="1.0" encoding="UTF-8" standalone="no"?>
<!DOCTYPE svg PUBLIC "-//W3C//DTD SVG 1.1//EN"
 "http://www.w3.org/Graphics/SVG/1.1/DTD/svg11.dtd">
<!-- Generated by graphviz version 2.40.1 (20161225.0304)
 -->
<!-- Title: select_pkt Pages: 1 -->
<svg width="163pt" height="150pt"
 viewBox="0.00 0.00 163.00 150.00" xmlns="http://www.w3.org/2000/svg" xmlns:xlink="http://www.w3.org/1999/xlink">
<g id="graph0" class="graph" transform="scale(1 1) rotate(0) translate(4 146)">
<title>select_pkt</title>
<polygon fill="#ffffff" stroke="transparent" points="-4,4 -4,-146 159,-146 159,4 -4,4"/>
<!-- Node1 -->
<g id="node1" class="node">
<title>Node1</title>
<g id="a_node1"><a xlink:title=" ">
<polygon fill="#bfbfbf" stroke="#000000" points="29.5,-.5 29.5,-19.5 96.5,-19.5 96.5,-.5 29.5,-.5"/>
<text text-anchor="middle" x="63" y="-7.5" font-family="Helvetica,sans-Serif" font-size="10.00" fill="#000000">select_pkt</text>
</a>
</g>
</g>
<!-- Node2 -->
<g id="node2" class="node">
<title>Node2</title>
<g id="a_node2"><a xlink:href="structtimeval.html" target="_top" xlink:title=" ">
<polygon fill="#ffffff" stroke="#000000" points="0,-122.5 0,-141.5 54,-141.5 54,-122.5 0,-122.5"/>
<text text-anchor="middle" x="27" y="-129.5" font-family="Helvetica,sans-Serif" font-size="10.00" fill="#000000">timeval</text>
</a>
</g>
</g>
<!-- Node2&#45;&gt;Node1 -->
<g id="edge1" class="edge">
<title>Node2&#45;&gt;Node1</title>
<path fill="none" stroke="#9a32cd" stroke-dasharray="5,2" d="M22.5182,-112.3136C19.0446,-92.4831 16.534,-61.535 28,-38 31.6808,-30.4448 38.4852,-24.2809 45.1225,-19.6791"/>
<polygon fill="#9a32cd" stroke="#9a32cd" points="19.1258,-113.1984 24.5202,-122.3171 25.9897,-111.8247 19.1258,-113.1984"/>
<text text-anchor="middle" x="53" y="-74" font-family="Helvetica,sans-Serif" font-size="10.00" fill="#000000"> timeout</text>
<text text-anchor="middle" x="53" y="-63" font-family="Helvetica,sans-Serif" font-size="10.00" fill="#000000">timeout_p</text>
</g>
<!-- Node3 -->
<g id="node3" class="node">
<title>Node3</title>
<g id="a_node3"><a xlink:href="structfd__set.html" target="_top" xlink:title=" ">
<polygon fill="#ffffff" stroke="#000000" points="76.5,-122.5 76.5,-141.5 123.5,-141.5 123.5,-122.5 76.5,-122.5"/>
<text text-anchor="middle" x="100" y="-129.5" font-family="Helvetica,sans-Serif" font-size="10.00" fill="#000000">fd_set</text>
</a>
</g>
</g>
<!-- Node3&#45;&gt;Node1 -->
<g id="edge2" class="edge">
<title>Node3&#45;&gt;Node1</title>
<path fill="none" stroke="#9a32cd" stroke-dasharray="5,2" d="M96.9597,-112.4165C93.6036,-93.0902 87.399,-62.9058 78,-38 75.5856,-31.6022 71.9908,-24.8329 68.9257,-19.5531"/>
<polygon fill="#9a32cd" stroke="#9a32cd" points="93.5286,-113.1215 98.6092,-122.4188 100.4353,-111.9825 93.5286,-113.1215"/>
<text text-anchor="middle" x="125" y="-96" font-family="Helvetica,sans-Serif" font-size="10.00" fill="#000000"> exceptset</text>
<text text-anchor="middle" x="125" y="-85" font-family="Helvetica,sans-Serif" font-size="10.00" fill="#000000">exceptset_p</text>
<text text-anchor="middle" x="125" y="-74" font-family="Helvetica,sans-Serif" font-size="10.00" fill="#000000">readset</text>
<text text-anchor="middle" x="125" y="-63" font-family="Helvetica,sans-Serif" font-size="10.00" fill="#000000">readset_p</text>
<text text-anchor="middle" x="125" y="-52" font-family="Helvetica,sans-Serif" font-size="10.00" fill="#000000">writeset</text>
<text text-anchor="middle" x="125" y="-41" font-family="Helvetica,sans-Serif" font-size="10.00" fill="#000000">writeset_p</text>
</g>
</g>
</svg>
