<?xml version="1.0" encoding="UTF-8" standalone="no"?>
<!DOCTYPE svg PUBLIC "-//W3C//DTD SVG 1.1//EN"
 "http://www.w3.org/Graphics/SVG/1.1/DTD/svg11.dtd">
<!-- Generated by graphviz version 2.40.1 (20161225.0304)
 -->
<!-- Title: UsbHub Pages: 1 -->
<!--zoomable 331 -->
<svg id="main" version="1.1" xmlns="http://www.w3.org/2000/svg" xmlns:xlink="http://www.w3.org/1999/xlink" xml:space="preserve" onload="init(evt)">
<style type="text/css"><![CDATA[
.edge:hover path { stroke: red; }
.edge:hover polygon { stroke: red; fill: red; }
]]></style>
<script type="text/javascript"><![CDATA[
var edges = document.getElementsByTagName('g');
if (edges && edges.length) {
  for (var i=0;i<edges.length;i++) {
    if (edges[i].id.substr(0,4)=='edge') {
      edges[i].setAttribute('class','edge');
    }
  }
}
]]></script>
        <defs>
                <circle id="rim" cx="0" cy="0" r="7"/>
                <circle id="rim2" cx="0" cy="0" r="3.5"/>
                <g id="zoomPlus">
                        <use xlink:href="#rim" fill="#404040">
                                <set attributeName="fill" to="#808080" begin="zoomplus.mouseover" end="zoomplus.mouseout"/>
                        </use>
                        <path d="M-4,0h8M0,-4v8" fill="none" stroke="white" stroke-width="1.5" pointer-events="none"/>
                </g>
                <g id="zoomMin">
                        <use xlink:href="#rim" fill="#404040">
                                <set attributeName="fill" to="#808080" begin="zoomminus.mouseover" end="zoomminus.mouseout"/>
                        </use>
                        <path d="M-4,0h8" fill="none" stroke="white" stroke-width="1.5" pointer-events="none"/>
                </g>
                <g id="dirArrow">
                        <path fill="none" stroke="white" stroke-width="1.5" d="M0,-3.0v7 M-2.5,-0.5L0,-3.0L2.5,-0.5"/>
                </g>
               <g id="resetDef">
                       <use xlink:href="#rim2" fill="#404040">
                               <set attributeName="fill" to="#808080" begin="reset.mouseover" end="reset.mouseout"/>
                       </use>
               </g>
        </defs>

<script type="text/javascript">
var viewWidth = 505;
var viewHeight = 331;
var sectionId = 'dynsection-0';
</script>
<script xlink:href="svgpan.js"/>
<svg id="graph" class="graph">
<g id="viewport">
<title>UsbHub</title>
<polygon fill="#ffffff" stroke="transparent" points="-4,4 -4,-327 500.5,-327 500.5,4 -4,4"/>
<!-- Node1 -->
<g id="node1" class="node">
<title>Node1</title>
<g id="a_node1"><a xlink:title=" ">
<polygon fill="#bfbfbf" stroke="#000000" points="335.5,-.5 335.5,-19.5 390.5,-19.5 390.5,-.5 335.5,-.5"/>
<text text-anchor="middle" x="363" y="-7.5" font-family="Helvetica,sans-Serif" font-size="10.00" fill="#000000">UsbHub</text>
</a>
</g>
</g>
<!-- Node2 -->
<g id="node2" class="node">
<title>Node2</title>
<g id="a_node2"><a xlink:href="structEndpoint.html" target="_top" xlink:title=" ">
<polygon fill="#ffffff" stroke="#000000" points="237.5,-78.5 237.5,-97.5 296.5,-97.5 296.5,-78.5 237.5,-78.5"/>
<text text-anchor="middle" x="267" y="-85.5" font-family="Helvetica,sans-Serif" font-size="10.00" fill="#000000">Endpoint</text>
</a>
</g>
</g>
<!-- Node2&#45;&gt;Node1 -->
<g id="edge1" class="edge">
<title>Node2&#45;&gt;Node1</title>
<path fill="none" stroke="#9a32cd" stroke-dasharray="5,2" d="M263.2226,-68.4214C262.4075,-58.3323 263.3447,-46.4153 270,-38 278.1584,-27.684 310.9082,-19.5432 335.2491,-14.7573"/>
<polygon fill="#9a32cd" stroke="#9a32cd" points="259.7658,-68.9754 264.6072,-78.3994 266.6994,-68.0132 259.7658,-68.9754"/>
<text text-anchor="middle" x="309.5" y="-52" font-family="Helvetica,sans-Serif" font-size="10.00" fill="#000000"> controlEp</text>
<text text-anchor="middle" x="309.5" y="-41" font-family="Helvetica,sans-Serif" font-size="10.00" fill="#000000">statusChangeEp</text>
</g>
<!-- Node3 -->
<g id="node3" class="node">
<title>Node3</title>
<g id="a_node3"><a xlink:href="structDevice.html" target="_top" xlink:title=" ">
<polygon fill="#ffffff" stroke="#000000" points="68,-157.5 68,-176.5 118,-176.5 118,-157.5 68,-157.5"/>
<text text-anchor="middle" x="93" y="-164.5" font-family="Helvetica,sans-Serif" font-size="10.00" fill="#000000">Device</text>
</a>
</g>
</g>
<!-- Node3&#45;&gt;Node2 -->
<g id="edge2" class="edge">
<title>Node3&#45;&gt;Node2</title>
<path fill="none" stroke="#9a32cd" stroke-dasharray="5,2" d="M80.8507,-148.3002C75.6487,-137.7359 72.3294,-124.9046 80,-116 90.1232,-104.2481 187.225,-94.587 237.3582,-90.3349"/>
<polygon fill="#9a32cd" stroke="#9a32cd" points="77.9152,-150.2188 85.8961,-157.1869 84.0026,-146.7627 77.9152,-150.2188"/>
<text text-anchor="middle" x="116.5" y="-124.5" font-family="Helvetica,sans-Serif" font-size="10.00" fill="#000000"> correspDevice</text>
</g>
<!-- Node4 -->
<g id="node4" class="node">
<title>Node4</title>
<g id="a_node4"><a xlink:href="structsceUsbdLddOps.html" target="_top" xlink:title=" ">
<polygon fill="#ffffff" stroke="#000000" points="0,-236.5 0,-255.5 94,-255.5 94,-236.5 0,-236.5"/>
<text text-anchor="middle" x="47" y="-243.5" font-family="Helvetica,sans-Serif" font-size="10.00" fill="#000000">sceUsbdLddOps</text>
</a>
</g>
</g>
<!-- Node4&#45;&gt;Node3 -->
<g id="edge3" class="edge">
<title>Node4&#45;&gt;Node3</title>
<path fill="none" stroke="#9a32cd" stroke-dasharray="5,2" d="M43.2601,-226.5094C42.3789,-216.7695 42.8956,-205.1433 48,-196 52.7117,-187.5601 61.0219,-181.1915 69.2292,-176.6041"/>
<polygon fill="#9a32cd" stroke="#9a32cd" points="39.8039,-227.0653 44.6789,-236.4719 46.7339,-226.0783 39.8039,-227.0653"/>
<text text-anchor="middle" x="74" y="-204.5" font-family="Helvetica,sans-Serif" font-size="10.00" fill="#000000"> devDriver</text>
</g>
<!-- Node5 -->
<g id="node5" class="node">
<title>Node5</title>
<g id="a_node5"><a xlink:href="structTimerCbStruct.html" target="_top" xlink:title=" ">
<polygon fill="#ffffff" stroke="#000000" points="118,-236.5 118,-255.5 204,-255.5 204,-236.5 118,-236.5"/>
<text text-anchor="middle" x="161" y="-243.5" font-family="Helvetica,sans-Serif" font-size="10.00" fill="#000000">TimerCbStruct</text>
</a>
</g>
</g>
<!-- Node5&#45;&gt;Node2 -->
<g id="edge8" class="edge">
<title>Node5&#45;&gt;Node2</title>
<path fill="none" stroke="#9a32cd" stroke-dasharray="5,2" d="M167.236,-226.6695C170.6823,-217.1294 175.402,-205.6315 181,-196 204.0044,-156.4201 240.5544,-115.782 257.6318,-97.6971"/>
<polygon fill="#9a32cd" stroke="#9a32cd" points="163.8309,-225.8104 163.9073,-236.405 170.4544,-228.0752 163.8309,-225.8104"/>
<text text-anchor="middle" x="222" y="-164.5" font-family="Helvetica,sans-Serif" font-size="10.00" fill="#000000"> timer</text>
</g>
<!-- Node5&#45;&gt;Node3 -->
<g id="edge4" class="edge">
<title>Node5&#45;&gt;Node3</title>
<path fill="none" stroke="#9a32cd" stroke-dasharray="5,2" d="M136.9094,-230.5426C131.9905,-226.779 127.078,-222.5227 123,-218 111.5808,-205.3358 102.3568,-187.6515 97.2825,-176.7824"/>
<polygon fill="#9a32cd" stroke="#9a32cd" points="134.8795,-233.3938 145.0474,-236.3711 138.9554,-227.7028 134.8795,-233.3938"/>
<text text-anchor="middle" x="138" y="-204.5" font-family="Helvetica,sans-Serif" font-size="10.00" fill="#000000"> timer</text>
</g>
<!-- Node6 -->
<g id="node6" class="node">
<title>Node6</title>
<g id="a_node6"><a xlink:href="structIoRequest.html" target="_top" xlink:title=" ">
<polygon fill="#ffffff" stroke="#000000" points="234.5,-236.5 234.5,-255.5 299.5,-255.5 299.5,-236.5 234.5,-236.5"/>
<text text-anchor="middle" x="267" y="-243.5" font-family="Helvetica,sans-Serif" font-size="10.00" fill="#000000">IoRequest</text>
</a>
</g>
</g>
<!-- Node6&#45;&gt;Node1 -->
<g id="edge11" class="edge">
<title>Node6&#45;&gt;Node1</title>
<path fill="none" stroke="#9a32cd" stroke-dasharray="5,2" d="M290.8168,-230.1695C307.1677,-217.9442 327.857,-199.5123 339,-178 367.1864,-123.5842 365.4137,-46.6878 363.7579,-19.7647"/>
<polygon fill="#9a32cd" stroke="#9a32cd" points="288.3525,-227.6298 282.2674,-236.3029 292.433,-233.3175 288.3525,-227.6298"/>
<text text-anchor="middle" x="390" y="-130" font-family="Helvetica,sans-Serif" font-size="10.00" fill="#000000"> controlIoReq</text>
<text text-anchor="middle" x="390" y="-119" font-family="Helvetica,sans-Serif" font-size="10.00" fill="#000000">statusIoReq</text>
</g>
<!-- Node6&#45;&gt;Node2 -->
<g id="edge7" class="edge">
<title>Node6&#45;&gt;Node2</title>
<path fill="none" stroke="#9a32cd" stroke-dasharray="5,2" d="M267,-225.9386C267,-191.7366 267,-123.3685 267,-97.8799"/>
<polygon fill="#9a32cd" stroke="#9a32cd" points="263.5001,-226.1164 267,-236.1164 270.5001,-226.1164 263.5001,-226.1164"/>
<text text-anchor="middle" x="301" y="-170" font-family="Helvetica,sans-Serif" font-size="10.00" fill="#000000"> ioReqListEnd</text>
<text text-anchor="middle" x="301" y="-159" font-family="Helvetica,sans-Serif" font-size="10.00" fill="#000000">ioReqListStart</text>
</g>
<!-- Node6&#45;&gt;Node3 -->
<g id="edge5" class="edge">
<title>Node6&#45;&gt;Node3</title>
<path fill="none" stroke="#9a32cd" stroke-dasharray="5,2" d="M233.9808,-232.4682C223.3862,-227.9995 211.6424,-222.9123 201,-218 181.1489,-208.8372 176.7387,-205.4025 157,-196 143.0136,-189.3376 127.1533,-182.1484 114.7206,-176.5947"/>
<polygon fill="#9a32cd" stroke="#9a32cd" points="232.7469,-235.7458 243.323,-236.3754 235.4479,-229.2879 232.7469,-235.7458"/>
<text text-anchor="middle" x="227" y="-204.5" font-family="Helvetica,sans-Serif" font-size="10.00" fill="#000000"> ioRequest</text>
</g>
<!-- Node7 -->
<g id="node7" class="node">
<title>Node7</title>
<g id="a_node7"><a xlink:href="structUsbDeviceRequest.html" target="_top" xlink:title=" ">
<polygon fill="#ffffff" stroke="#000000" points="213,-303.5 213,-322.5 321,-322.5 321,-303.5 213,-303.5"/>
<text text-anchor="middle" x="267" y="-310.5" font-family="Helvetica,sans-Serif" font-size="10.00" fill="#000000">UsbDeviceRequest</text>
</a>
</g>
</g>
<!-- Node7&#45;&gt;Node6 -->
<g id="edge6" class="edge">
<title>Node7&#45;&gt;Node6</title>
<path fill="none" stroke="#9a32cd" stroke-dasharray="5,2" d="M267,-293.1079C267,-280.714 267,-265.3263 267,-255.5817"/>
<polygon fill="#9a32cd" stroke="#9a32cd" points="263.5001,-293.4005 267,-303.4005 270.5001,-293.4006 263.5001,-293.4005"/>
<text text-anchor="middle" x="287" y="-277" font-family="Helvetica,sans-Serif" font-size="10.00" fill="#000000"> devReq</text>
</g>
<!-- Node8 -->
<g id="node8" class="node">
<title>Node8</title>
<g id="a_node8"><a xlink:href="structHcED.html" target="_top" xlink:title=" ">
<polygon fill="#ffffff" stroke="#000000" points="428.5,-157.5 428.5,-176.5 471.5,-176.5 471.5,-157.5 428.5,-157.5"/>
<text text-anchor="middle" x="450" y="-164.5" font-family="Helvetica,sans-Serif" font-size="10.00" fill="#000000">HcED</text>
</a>
</g>
</g>
<!-- Node8&#45;&gt;Node2 -->
<g id="edge9" class="edge">
<title>Node8&#45;&gt;Node2</title>
<path fill="none" stroke="#9a32cd" stroke-dasharray="5,2" d="M446.3399,-147.4867C443.2766,-136.5936 437.7666,-123.7038 428,-116 408.0636,-100.2744 337.293,-92.8507 296.5237,-89.8075"/>
<polygon fill="#9a32cd" stroke="#9a32cd" points="442.982,-148.5 448.6546,-157.4483 449.8003,-146.9156 442.982,-148.5"/>
<text text-anchor="middle" x="456.5" y="-124.5" font-family="Helvetica,sans-Serif" font-size="10.00" fill="#000000"> hcEd</text>
</g>
<!-- Node9 -->
<g id="node9" class="node">
<title>Node9</title>
<g id="a_node9"><a xlink:href="structHcTD.html" target="_top" xlink:title=" ">
<polygon fill="#ffffff" stroke="#000000" points="428.5,-236.5 428.5,-255.5 471.5,-255.5 471.5,-236.5 428.5,-236.5"/>
<text text-anchor="middle" x="450" y="-243.5" font-family="Helvetica,sans-Serif" font-size="10.00" fill="#000000">HcTD</text>
</a>
</g>
</g>
<!-- Node9&#45;&gt;Node8 -->
<g id="edge10" class="edge">
<title>Node9&#45;&gt;Node8</title>
<path fill="none" stroke="#9a32cd" stroke-dasharray="5,2" d="M450,-226.0339C450,-210.2875 450,-189.0062 450,-176.7662"/>
<polygon fill="#9a32cd" stroke="#9a32cd" points="446.5001,-226.313 450,-236.313 453.5001,-226.3131 446.5001,-226.313"/>
<text text-anchor="middle" x="469.5" y="-210" font-family="Helvetica,sans-Serif" font-size="10.00" fill="#000000"> tdHead</text>
<text text-anchor="middle" x="469.5" y="-199" font-family="Helvetica,sans-Serif" font-size="10.00" fill="#000000">tdTail</text>
</g>
<!-- Node10 -->
<g id="node10" class="node">
<title>Node10</title>
<g id="a_node10"><a xlink:href="structUsbHubDescriptor.html" target="_top" xlink:title=" ">
<polygon fill="#ffffff" stroke="#000000" points="391.5,-78.5 391.5,-97.5 496.5,-97.5 496.5,-78.5 391.5,-78.5"/>
<text text-anchor="middle" x="444" y="-85.5" font-family="Helvetica,sans-Serif" font-size="10.00" fill="#000000">UsbHubDescriptor</text>
</a>
</g>
</g>
<!-- Node10&#45;&gt;Node1 -->
<g id="edge12" class="edge">
<title>Node10&#45;&gt;Node1</title>
<path fill="none" stroke="#9a32cd" stroke-dasharray="5,2" d="M426.7368,-71.3762C410.392,-55.6367 386.4162,-32.5489 373.0134,-19.6426"/>
<polygon fill="#9a32cd" stroke="#9a32cd" points="424.4368,-74.0204 434.0678,-78.4357 429.2923,-68.9781 424.4368,-74.0204"/>
<text text-anchor="middle" x="426" y="-46.5" font-family="Helvetica,sans-Serif" font-size="10.00" fill="#000000"> desc</text>
</g>
</g>
</svg>
        <g id="navigator" transform="translate(0 0)" fill="#404254">
                <rect fill="#f2f5e9" fill-opacity="0.5" stroke="#606060" stroke-width=".5" x="0" y="0" width="60" height="60"/>
                <use id="zoomplus" xlink:href="#zoomPlus" x="17" y="9" onmousedown="handleZoom(evt,'in')"/>
                <use id="zoomminus" xlink:href="#zoomMin" x="42" y="9" onmousedown="handleZoom(evt,'out')"/>
                <use id="reset" xlink:href="#resetDef" x="30" y="36" onmousedown="handleReset()"/>
                <g id="arrowUp" xlink:href="#dirArrow" transform="translate(30 24)" onmousedown="handlePan(0,-1)">
                  <use xlink:href="#rim" fill="#404040">
                        <set attributeName="fill" to="#808080" begin="arrowUp.mouseover" end="arrowUp.mouseout"/>
                  </use>
                  <path fill="none" stroke="white" stroke-width="1.5" d="M0,-3.0v7 M-2.5,-0.5L0,-3.0L2.5,-0.5"/>
                </g>
                <g id="arrowRight" xlink:href="#dirArrow" transform="rotate(90) translate(36 -43)" onmousedown="handlePan(1,0)">
                  <use xlink:href="#rim" fill="#404040">
                        <set attributeName="fill" to="#808080" begin="arrowRight.mouseover" end="arrowRight.mouseout"/>
                  </use>
                  <path fill="none" stroke="white" stroke-width="1.5" d="M0,-3.0v7 M-2.5,-0.5L0,-3.0L2.5,-0.5"/>
                </g>
                <g id="arrowDown" xlink:href="#dirArrow" transform="rotate(180) translate(-30 -48)" onmousedown="handlePan(0,1)">
                  <use xlink:href="#rim" fill="#404040">
                        <set attributeName="fill" to="#808080" begin="arrowDown.mouseover" end="arrowDown.mouseout"/>
                  </use>
                  <path fill="none" stroke="white" stroke-width="1.5" d="M0,-3.0v7 M-2.5,-0.5L0,-3.0L2.5,-0.5"/>
                </g>
                <g id="arrowLeft" xlink:href="#dirArrow" transform="rotate(270) translate(-36 17)" onmousedown="handlePan(-1,0)">
                  <use xlink:href="#rim" fill="#404040">
                        <set attributeName="fill" to="#808080" begin="arrowLeft.mouseover" end="arrowLeft.mouseout"/>
                  </use>
                  <path fill="none" stroke="white" stroke-width="1.5" d="M0,-3.0v7 M-2.5,-0.5L0,-3.0L2.5,-0.5"/>
                </g>
        </g>
        <svg viewBox="0 0 15 15" width="100%" height="30px" preserveAspectRatio="xMaxYMin meet">
         <g id="arrow_out" transform="scale(0.3 0.3)">
          <a xlink:href="structUsbHub__coll__graph_org.svg" target="_base">
           <rect id="button" ry="5" rx="5" y="6" x="6" height="38" width="38"
                fill="#f2f5e9" fill-opacity="0.5" stroke="#606060" stroke-width="1.0"/>
           <path id="arrow"
             d="M 11.500037,31.436501 C 11.940474,20.09759 22.043105,11.32322 32.158766,21.979434 L 37.068811,17.246167 C 37.068811,17.246167 37.088388,32 37.088388,32 L 22.160133,31.978069 C 22.160133,31.978069 26.997745,27.140456 26.997745,27.140456 C 18.528582,18.264221 13.291696,25.230495 11.500037,31.436501 z"
             style="fill:#404040;"/>
          </a>
         </g>
        </svg>
</svg>
