<?xml version="1.0" encoding="UTF-8" standalone="no"?>
<!DOCTYPE svg PUBLIC "-//W3C//DTD SVG 1.1//EN"
 "http://www.w3.org/Graphics/SVG/1.1/DTD/svg11.dtd">
<!-- Generated by graphviz version 2.40.1 (20161225.0304)
 -->
<!-- Title: HcCA Pages: 1 -->
<svg width="152pt" height="173pt"
 viewBox="0.00 0.00 151.50 173.00" xmlns="http://www.w3.org/2000/svg" xmlns:xlink="http://www.w3.org/1999/xlink">
<g id="graph0" class="graph" transform="scale(1 1) rotate(0) translate(4 169)">
<title>HcCA</title>
<polygon fill="#ffffff" stroke="transparent" points="-4,4 -4,-169 147.5,-169 147.5,4 -4,4"/>
<!-- Node1 -->
<g id="node1" class="node">
<title>Node1</title>
<g id="a_node1"><a xlink:title=" ">
<polygon fill="#bfbfbf" stroke="#000000" points="16,-.5 16,-19.5 59,-19.5 59,-.5 16,-.5"/>
<text text-anchor="middle" x="37.5" y="-7.5" font-family="Helvetica,sans-Serif" font-size="10.00" fill="#000000">HcCA</text>
</a>
</g>
</g>
<!-- Node2 -->
<g id="node2" class="node">
<title>Node2</title>
<g id="a_node2"><a xlink:href="structHcED.html" target="_top" xlink:title=" ">
<polygon fill="#ffffff" stroke="#000000" points="79,-67.5 79,-86.5 122,-86.5 122,-67.5 79,-67.5"/>
<text text-anchor="middle" x="100.5" y="-74.5" font-family="Helvetica,sans-Serif" font-size="10.00" fill="#000000">HcED</text>
</a>
</g>
</g>
<!-- Node2&#45;&gt;Node1 -->
<g id="edge1" class="edge">
<title>Node2&#45;&gt;Node1</title>
<path fill="none" stroke="#9a32cd" stroke-dasharray="5,2" d="M84.5888,-60.0785C72.5392,-47.2639 56.4205,-30.1218 46.5096,-19.5817"/>
<polygon fill="#9a32cd" stroke="#9a32cd" points="82.0735,-62.5129 91.4736,-67.4005 87.1732,-57.7177 82.0735,-62.5129"/>
<text text-anchor="middle" x="108" y="-41" font-family="Helvetica,sans-Serif" font-size="10.00" fill="#000000"> InterruptTable</text>
</g>
<!-- Node3 -->
<g id="node3" class="node">
<title>Node3</title>
<g id="a_node3"><a xlink:href="structHcTD.html" target="_top" xlink:title=" ">
<polygon fill="#ffffff" stroke="#000000" points="0,-145.5 0,-164.5 43,-164.5 43,-145.5 0,-145.5"/>
<text text-anchor="middle" x="21.5" y="-152.5" font-family="Helvetica,sans-Serif" font-size="10.00" fill="#000000">HcTD</text>
</a>
</g>
</g>
<!-- Node3&#45;&gt;Node1 -->
<g id="edge3" class="edge">
<title>Node3&#45;&gt;Node1</title>
<path fill="none" stroke="#9a32cd" stroke-dasharray="5,2" d="M17.3968,-135.5627C14.264,-117.6226 11.1571,-90.3129 15.5,-67 18.7247,-49.6896 27.0177,-30.8618 32.4502,-19.7629"/>
<polygon fill="#9a32cd" stroke="#9a32cd" points="13.963,-136.2412 19.2844,-145.4027 20.8377,-134.9224 13.963,-136.2412"/>
<text text-anchor="middle" x="43" y="-74.5" font-family="Helvetica,sans-Serif" font-size="10.00" fill="#000000"> DoneHead</text>
</g>
<!-- Node3&#45;&gt;Node2 -->
<g id="edge2" class="edge">
<title>Node3&#45;&gt;Node2</title>
<path fill="none" stroke="#9a32cd" stroke-dasharray="5,2" d="M38.337,-138.3762C54.2782,-122.6367 77.662,-99.5489 90.7338,-86.6426"/>
<polygon fill="#9a32cd" stroke="#9a32cd" points="35.8439,-135.9192 31.187,-145.4357 40.762,-140.9003 35.8439,-135.9192"/>
<text text-anchor="middle" x="89" y="-119" font-family="Helvetica,sans-Serif" font-size="10.00" fill="#000000"> tdHead</text>
<text text-anchor="middle" x="89" y="-108" font-family="Helvetica,sans-Serif" font-size="10.00" fill="#000000">tdTail</text>
</g>
</g>
</svg>
