<?xml version="1.0" encoding="UTF-8" standalone="no"?>
<!DOCTYPE svg PUBLIC "-//W3C//DTD SVG 1.1//EN"
 "http://www.w3.org/Graphics/SVG/1.1/DTD/svg11.dtd">
<!-- Generated by graphviz version 2.40.1 (20161225.0304)
 -->
<!-- Title: pfs_mount_t Pages: 1 -->
<svg width="228pt" height="117pt"
 viewBox="0.00 0.00 228.00 117.00" xmlns="http://www.w3.org/2000/svg" xmlns:xlink="http://www.w3.org/1999/xlink">
<g id="graph0" class="graph" transform="scale(1 1) rotate(0) translate(4 113)">
<title>pfs_mount_t</title>
<polygon fill="#ffffff" stroke="transparent" points="-4,4 -4,-113 224,-113 224,4 -4,4"/>
<!-- Node1 -->
<g id="node1" class="node">
<title>Node1</title>
<g id="a_node1"><a xlink:title=" ">
<polygon fill="#bfbfbf" stroke="#000000" points="75.5,-.5 75.5,-19.5 152.5,-19.5 152.5,-.5 75.5,-.5"/>
<text text-anchor="middle" x="114" y="-7.5" font-family="Helvetica,sans-Serif" font-size="10.00" fill="#000000">pfs_mount_t</text>
</a>
</g>
</g>
<!-- Node2 -->
<g id="node2" class="node">
<title>Node2</title>
<g id="a_node2"><a xlink:href="structpfs__block__device__t.html" target="_top" xlink:title=" ">
<polygon fill="#ffffff" stroke="#000000" points="0,-89.5 0,-108.5 110,-108.5 110,-89.5 0,-89.5"/>
<text text-anchor="middle" x="55" y="-96.5" font-family="Helvetica,sans-Serif" font-size="10.00" fill="#000000">pfs_block_device_t</text>
</a>
</g>
</g>
<!-- Node2&#45;&gt;Node1 -->
<g id="edge1" class="edge">
<title>Node2&#45;&gt;Node1</title>
<path fill="none" stroke="#9a32cd" stroke-dasharray="5,2" d="M66.9063,-81.0397C79.1639,-62.5494 97.8069,-34.4269 107.5525,-19.7259"/>
<polygon fill="#9a32cd" stroke="#9a32cd" points="63.9222,-79.2066 61.314,-89.4754 69.7567,-83.0744 63.9222,-79.2066"/>
<text text-anchor="middle" x="119.5" y="-52" font-family="Helvetica,sans-Serif" font-size="10.00" fill="#000000"> blockDev</text>
</g>
<!-- Node3 -->
<g id="node3" class="node">
<title>Node3</title>
<g id="a_node3"><a xlink:href="structpfs__blockinfo__t.html" target="_top" xlink:title=" ">
<polygon fill="#ffffff" stroke="#000000" points="128.5,-89.5 128.5,-108.5 219.5,-108.5 219.5,-89.5 128.5,-89.5"/>
<text text-anchor="middle" x="174" y="-96.5" font-family="Helvetica,sans-Serif" font-size="10.00" fill="#000000">pfs_blockinfo_t</text>
</a>
</g>
</g>
<!-- Node3&#45;&gt;Node1 -->
<g id="edge2" class="edge">
<title>Node3&#45;&gt;Node1</title>
<path fill="none" stroke="#9a32cd" stroke-dasharray="5,2" d="M168.3944,-79.6014C164.1254,-66.9529 157.3757,-50.5299 148,-38 142.6857,-30.8979 135.2065,-24.483 128.6156,-19.5909"/>
<polygon fill="#9a32cd" stroke="#9a32cd" points="165.0641,-80.6786 171.4,-89.1702 171.7424,-78.5809 165.0641,-80.6786"/>
<text text-anchor="middle" x="192" y="-63" font-family="Helvetica,sans-Serif" font-size="10.00" fill="#000000"> current_dir</text>
<text text-anchor="middle" x="192" y="-52" font-family="Helvetica,sans-Serif" font-size="10.00" fill="#000000">log</text>
<text text-anchor="middle" x="192" y="-41" font-family="Helvetica,sans-Serif" font-size="10.00" fill="#000000">root_dir</text>
</g>
</g>
</svg>
