<?xml version="1.0" encoding="UTF-8" standalone="no"?>
<!DOCTYPE svg PUBLIC "-//W3C//DTD SVG 1.1//EN"
 "http://www.w3.org/Graphics/SVG/1.1/DTD/svg11.dtd">
<!-- Generated by graphviz version 2.40.1 (20161225.0304)
 -->
<!-- Title: PBuf Pages: 1 -->
<svg width="90pt" height="95pt"
 viewBox="0.00 0.00 90.00 95.00" xmlns="http://www.w3.org/2000/svg" xmlns:xlink="http://www.w3.org/1999/xlink">
<g id="graph0" class="graph" transform="scale(1 1) rotate(0) translate(4 91)">
<title>PBuf</title>
<polygon fill="#ffffff" stroke="transparent" points="-4,4 -4,-91 86,-91 86,4 -4,4"/>
<!-- Node1 -->
<g id="node1" class="node">
<title>Node1</title>
<g id="a_node1"><a xlink:title=" ">
<polygon fill="#bfbfbf" stroke="#000000" points="0,-.5 0,-19.5 39,-19.5 39,-.5 0,-.5"/>
<text text-anchor="middle" x="19.5" y="-7.5" font-family="Helvetica,sans-Serif" font-size="10.00" fill="#000000">PBuf</text>
</a>
</g>
</g>
<!-- Node2 -->
<g id="node2" class="node">
<title>Node2</title>
<g id="a_node2"><a xlink:href="structpbuf.html" target="_top" xlink:title=" ">
<polygon fill="#ffffff" stroke="#000000" points="0,-67.5 0,-86.5 39,-86.5 39,-67.5 0,-67.5"/>
<text text-anchor="middle" x="19.5" y="-74.5" font-family="Helvetica,sans-Serif" font-size="10.00" fill="#000000">PBuf</text>
</a>
</g>
</g>
<!-- Node2&#45;&gt;Node1 -->
<g id="edge1" class="edge">
<title>Node2&#45;&gt;Node1</title>
<path fill="none" stroke="#9a32cd" stroke-dasharray="5,2" d="M19.5,-57.1079C19.5,-44.714 19.5,-29.3263 19.5,-19.5817"/>
<polygon fill="#9a32cd" stroke="#9a32cd" points="16.0001,-57.4005 19.5,-67.4005 23.0001,-57.4006 16.0001,-57.4005"/>
<text text-anchor="middle" x="32" y="-41" font-family="Helvetica,sans-Serif" font-size="10.00" fill="#000000"> next</text>
</g>
<!-- Node2&#45;&gt;Node2 -->
<g id="edge2" class="edge">
<title>Node2&#45;&gt;Node2</title>
<path fill="none" stroke="#9a32cd" stroke-dasharray="5,2" d="M49.3313,-82.4764C53.8972,-81.6438 57,-79.8184 57,-77 57,-72.375 48.6443,-70.4238 39.1788,-71.1465"/>
<polygon fill="#9a32cd" stroke="#9a32cd" points="49.042,-78.9846 39.1788,-82.8535 49.3019,-85.9798 49.042,-78.9846"/>
<text text-anchor="middle" x="69.5" y="-74.5" font-family="Helvetica,sans-Serif" font-size="10.00" fill="#000000"> next</text>
</g>
</g>
</svg>
