<?xml version="1.0" encoding="UTF-8" standalone="no"?>
<!DOCTYPE svg PUBLIC "-//W3C//DTD SVG 1.1//EN"
 "http://www.w3.org/Graphics/SVG/1.1/DTD/svg11.dtd">
<!-- Generated by graphviz version 2.40.1 (20161225.0304)
 -->
<!-- Title: hdd_file_slot_t Pages: 1 -->
<svg width="154pt" height="95pt"
 viewBox="0.00 0.00 153.50 95.00" xmlns="http://www.w3.org/2000/svg" xmlns:xlink="http://www.w3.org/1999/xlink">
<g id="graph0" class="graph" transform="scale(1 1) rotate(0) translate(4 91)">
<title>hdd_file_slot_t</title>
<polygon fill="#ffffff" stroke="transparent" points="-4,4 -4,-91 149.5,-91 149.5,4 -4,4"/>
<!-- Node1 -->
<g id="node1" class="node">
<title>Node1</title>
<g id="a_node1"><a xlink:title=" ">
<polygon fill="#bfbfbf" stroke="#000000" points="28,-.5 28,-19.5 115,-19.5 115,-.5 28,-.5"/>
<text text-anchor="middle" x="71.5" y="-7.5" font-family="Helvetica,sans-Serif" font-size="10.00" fill="#000000">hdd_file_slot_t</text>
</a>
</g>
</g>
<!-- Node2 -->
<g id="node2" class="node">
<title>Node2</title>
<g id="a_node2"><a xlink:href="structiop__file__t.html" target="_top" xlink:title=" ">
<polygon fill="#ffffff" stroke="#000000" points="0,-67.5 0,-86.5 61,-86.5 61,-67.5 0,-67.5"/>
<text text-anchor="middle" x="30.5" y="-74.5" font-family="Helvetica,sans-Serif" font-size="10.00" fill="#000000">iop_file_t</text>
</a>
</g>
</g>
<!-- Node2&#45;&gt;Node1 -->
<g id="edge1" class="edge">
<title>Node2&#45;&gt;Node1</title>
<path fill="none" stroke="#9a32cd" stroke-dasharray="5,2" d="M41.7536,-58.6099C49.4827,-45.9795 59.4301,-29.7241 65.6366,-19.5817"/>
<polygon fill="#9a32cd" stroke="#9a32cd" points="38.6086,-57.044 36.3743,-67.4005 44.5794,-60.6977 38.6086,-57.044"/>
<text text-anchor="middle" x="57" y="-41" font-family="Helvetica,sans-Serif" font-size="10.00" fill="#000000"> f</text>
</g>
<!-- Node3 -->
<g id="node3" class="node">
<title>Node3</title>
<g id="a_node3"><a xlink:href="structapa__sub__t.html" target="_top" xlink:title=" ">
<polygon fill="#ffffff" stroke="#000000" points="79.5,-67.5 79.5,-86.5 145.5,-86.5 145.5,-67.5 79.5,-67.5"/>
<text text-anchor="middle" x="112.5" y="-74.5" font-family="Helvetica,sans-Serif" font-size="10.00" fill="#000000">apa_sub_t</text>
</a>
</g>
</g>
<!-- Node3&#45;&gt;Node1 -->
<g id="edge2" class="edge">
<title>Node3&#45;&gt;Node1</title>
<path fill="none" stroke="#9a32cd" stroke-dasharray="5,2" d="M101.2464,-58.6099C93.5173,-45.9795 83.5699,-29.7241 77.3634,-19.5817"/>
<polygon fill="#9a32cd" stroke="#9a32cd" points="98.4206,-60.6977 106.6257,-67.4005 104.3914,-57.044 98.4206,-60.6977"/>
<text text-anchor="middle" x="107.5" y="-41" font-family="Helvetica,sans-Serif" font-size="10.00" fill="#000000"> parts</text>
</g>
</g>
</svg>
