<?xml version="1.0" encoding="UTF-8" standalone="no"?>
<!DOCTYPE svg PUBLIC "-//W3C//DTD SVG 1.1//EN"
 "http://www.w3.org/Graphics/SVG/1.1/DTD/svg11.dtd">
<!-- Generated by graphviz version 2.40.1 (20161225.0304)
 -->
<!-- Title: apa_header_t Pages: 1 -->
<svg width="182pt" height="95pt"
 viewBox="0.00 0.00 181.50 95.00" xmlns="http://www.w3.org/2000/svg" xmlns:xlink="http://www.w3.org/1999/xlink">
<g id="graph0" class="graph" transform="scale(1 1) rotate(0) translate(4 91)">
<title>apa_header_t</title>
<polygon fill="#ffffff" stroke="transparent" points="-4,4 -4,-91 177.5,-91 177.5,4 -4,4"/>
<!-- Node1 -->
<g id="node1" class="node">
<title>Node1</title>
<g id="a_node1"><a xlink:title=" ">
<polygon fill="#bfbfbf" stroke="#000000" points="51,-.5 51,-19.5 134,-19.5 134,-.5 51,-.5"/>
<text text-anchor="middle" x="92.5" y="-7.5" font-family="Helvetica,sans-Serif" font-size="10.00" fill="#000000">apa_header_t</text>
</a>
</g>
</g>
<!-- Node2 -->
<g id="node2" class="node">
<title>Node2</title>
<g id="a_node2"><a xlink:href="structapa__ps2time__t.html" target="_top" xlink:title=" ">
<polygon fill="#ffffff" stroke="#000000" points="0,-67.5 0,-86.5 89,-86.5 89,-67.5 0,-67.5"/>
<text text-anchor="middle" x="44.5" y="-74.5" font-family="Helvetica,sans-Serif" font-size="10.00" fill="#000000">apa_ps2time_t</text>
</a>
</g>
</g>
<!-- Node2&#45;&gt;Node1 -->
<g id="edge1" class="edge">
<title>Node2&#45;&gt;Node1</title>
<path fill="none" stroke="#9a32cd" stroke-dasharray="5,2" d="M57.4096,-58.9803C66.4948,-46.2989 78.2981,-29.8235 85.6355,-19.5817"/>
<polygon fill="#9a32cd" stroke="#9a32cd" points="54.3559,-57.233 51.3772,-67.4005 60.0463,-61.3097 54.3559,-57.233"/>
<text text-anchor="middle" x="91.5" y="-41" font-family="Helvetica,sans-Serif" font-size="10.00" fill="#000000"> created</text>
</g>
<!-- Node3 -->
<g id="node3" class="node">
<title>Node3</title>
<g id="a_node3"><a xlink:href="structapa__sub__t.html" target="_top" xlink:title=" ">
<polygon fill="#ffffff" stroke="#000000" points="107.5,-67.5 107.5,-86.5 173.5,-86.5 173.5,-67.5 107.5,-67.5"/>
<text text-anchor="middle" x="140.5" y="-74.5" font-family="Helvetica,sans-Serif" font-size="10.00" fill="#000000">apa_sub_t</text>
</a>
</g>
</g>
<!-- Node3&#45;&gt;Node1 -->
<g id="edge2" class="edge">
<title>Node3&#45;&gt;Node1</title>
<path fill="none" stroke="#9a32cd" stroke-dasharray="5,2" d="M129.3312,-58.603C125.1561,-51.9929 120.2677,-44.5548 115.5,-38 110.9115,-31.6916 105.3719,-24.9251 100.8791,-19.6244"/>
<polygon fill="#9a32cd" stroke="#9a32cd" points="126.5988,-60.8384 134.8408,-67.4958 132.5493,-57.1517 126.5988,-60.8384"/>
<text text-anchor="middle" x="135.5" y="-41" font-family="Helvetica,sans-Serif" font-size="10.00" fill="#000000"> subs</text>
</g>
</g>
</svg>
