<?xml version="1.0" encoding="UTF-8" standalone="no"?>
<!DOCTYPE svg PUBLIC "-//W3C//DTD SVG 1.1//EN"
 "http://www.w3.org/Graphics/SVG/1.1/DTD/svg11.dtd">
<!-- Generated by graphviz version 2.40.1 (20161225.0304)
 -->
<!-- Title: CommandDescriptorBlock Pages: 1 -->
<svg width="225pt" height="95pt"
 viewBox="0.00 0.00 225.00 95.00" xmlns="http://www.w3.org/2000/svg" xmlns:xlink="http://www.w3.org/1999/xlink">
<g id="graph0" class="graph" transform="scale(1 1) rotate(0) translate(4 91)">
<title>CommandDescriptorBlock</title>
<polygon fill="#ffffff" stroke="transparent" points="-4,4 -4,-91 221,-91 221,4 -4,4"/>
<!-- Node1 -->
<g id="node1" class="node">
<title>Node1</title>
<g id="a_node1"><a xlink:title=" ">
<polygon fill="#bfbfbf" stroke="#000000" points="36,-.5 36,-19.5 180,-19.5 180,-.5 36,-.5"/>
<text text-anchor="middle" x="108" y="-7.5" font-family="Helvetica,sans-Serif" font-size="10.00" fill="#000000">CommandDescriptorBlock</text>
</a>
</g>
</g>
<!-- Node2 -->
<g id="node2" class="node">
<title>Node2</title>
<g id="a_node2"><a xlink:href="structsbp2__ORB__pointer.html" target="_top" xlink:title=" ">
<polygon fill="#ffffff" stroke="#000000" points="0,-67.5 0,-86.5 106,-86.5 106,-67.5 0,-67.5"/>
<text text-anchor="middle" x="53" y="-74.5" font-family="Helvetica,sans-Serif" font-size="10.00" fill="#000000">sbp2_ORB_pointer</text>
</a>
</g>
</g>
<!-- Node2&#45;&gt;Node1 -->
<g id="edge1" class="edge">
<title>Node2&#45;&gt;Node1</title>
<path fill="none" stroke="#9a32cd" stroke-dasharray="5,2" d="M67.4899,-59.3486C77.9393,-46.6194 91.6454,-29.9229 100.1345,-19.5817"/>
<polygon fill="#9a32cd" stroke="#9a32cd" points="64.5199,-57.4505 60.8802,-67.4005 69.9304,-61.892 64.5199,-57.4505"/>
<text text-anchor="middle" x="106" y="-41" font-family="Helvetica,sans-Serif" font-size="10.00" fill="#000000"> NextOrb</text>
</g>
<!-- Node3 -->
<g id="node3" class="node">
<title>Node3</title>
<g id="a_node3"><a xlink:href="structsbp2__pointer.html" target="_top" xlink:title=" ">
<polygon fill="#ffffff" stroke="#000000" points="124,-67.5 124,-86.5 204,-86.5 204,-67.5 124,-67.5"/>
<text text-anchor="middle" x="164" y="-74.5" font-family="Helvetica,sans-Serif" font-size="10.00" fill="#000000">sbp2_pointer</text>
</a>
</g>
</g>
<!-- Node3&#45;&gt;Node1 -->
<g id="edge2" class="edge">
<title>Node3&#45;&gt;Node1</title>
<path fill="none" stroke="#9a32cd" stroke-dasharray="5,2" d="M149.7531,-59.4733C144.2395,-52.7336 137.8567,-44.9833 132,-38 126.8162,-31.8189 120.9212,-24.9394 116.2709,-19.5463"/>
<polygon fill="#9a32cd" stroke="#9a32cd" points="147.1338,-61.7995 156.1669,-67.3361 152.558,-57.3748 147.1338,-61.7995"/>
<text text-anchor="middle" x="178.5" y="-41" font-family="Helvetica,sans-Serif" font-size="10.00" fill="#000000"> DataDescriptor</text>
</g>
</g>
</svg>
