<?xml version="1.0" encoding="UTF-8" standalone="no"?>
<!DOCTYPE svg PUBLIC "-//W3C//DTD SVG 1.1//EN"
 "http://www.w3.org/Graphics/SVG/1.1/DTD/svg11.dtd">
<!-- Generated by graphviz version 2.40.1 (20161225.0304)
 -->
<!-- Title: fs_dir Pages: 1 -->
<svg width="284pt" height="229pt"
 viewBox="0.00 0.00 284.00 229.00" xmlns="http://www.w3.org/2000/svg" xmlns:xlink="http://www.w3.org/1999/xlink">
<g id="graph0" class="graph" transform="scale(1 1) rotate(0) translate(4 225)">
<title>fs_dir</title>
<polygon fill="#ffffff" stroke="transparent" points="-4,4 -4,-225 280,-225 280,4 -4,4"/>
<!-- Node1 -->
<g id="node1" class="node">
<title>Node1</title>
<g id="a_node1"><a xlink:title=" ">
<polygon fill="#bfbfbf" stroke="#000000" points="138,-.5 138,-19.5 182,-19.5 182,-.5 138,-.5"/>
<text text-anchor="middle" x="160" y="-7.5" font-family="Helvetica,sans-Serif" font-size="10.00" fill="#000000">fs_dir</text>
</a>
</g>
</g>
<!-- Node2 -->
<g id="node2" class="node">
<title>Node2</title>
<g id="a_node2"><a xlink:href="structfs__dirent.html" target="_top" xlink:title=" ">
<polygon fill="#ffffff" stroke="#000000" points="130.5,-67.5 130.5,-86.5 189.5,-86.5 189.5,-67.5 130.5,-67.5"/>
<text text-anchor="middle" x="160" y="-74.5" font-family="Helvetica,sans-Serif" font-size="10.00" fill="#000000">fs_dirent</text>
</a>
</g>
</g>
<!-- Node2&#45;&gt;Node1 -->
<g id="edge1" class="edge">
<title>Node2&#45;&gt;Node1</title>
<path fill="none" stroke="#9a32cd" stroke-dasharray="5,2" d="M160,-57.1079C160,-44.714 160,-29.3263 160,-19.5817"/>
<polygon fill="#9a32cd" stroke="#9a32cd" points="156.5001,-57.4005 160,-67.4005 163.5001,-57.4006 156.5001,-57.4005"/>
<text text-anchor="middle" x="176" y="-41" font-family="Helvetica,sans-Serif" font-size="10.00" fill="#000000"> dirent</text>
</g>
<!-- Node3 -->
<g id="node3" class="node">
<title>Node3</title>
<g id="a_node3"><a xlink:href="structfat__dir.html" target="_top" xlink:title=" ">
<polygon fill="#ffffff" stroke="#000000" points="34,-134.5 34,-153.5 82,-153.5 82,-134.5 34,-134.5"/>
<text text-anchor="middle" x="58" y="-141.5" font-family="Helvetica,sans-Serif" font-size="10.00" fill="#000000">fat_dir</text>
</a>
</g>
</g>
<!-- Node3&#45;&gt;Node1 -->
<g id="edge5" class="edge">
<title>Node3&#45;&gt;Node1</title>
<path fill="none" stroke="#9a32cd" stroke-dasharray="5,2" d="M50.128,-124.495C44.8195,-107.9925 40.5055,-84.3308 51,-67 69.8043,-35.9464 111.7008,-21 137.7279,-14.4625"/>
<polygon fill="#9a32cd" stroke="#9a32cd" points="46.9307,-125.9466 53.6144,-134.1672 53.516,-123.5728 46.9307,-125.9466"/>
<text text-anchor="middle" x="86" y="-74.5" font-family="Helvetica,sans-Serif" font-size="10.00" fill="#000000"> current_fatdir</text>
</g>
<!-- Node3&#45;&gt;Node2 -->
<g id="edge2" class="edge">
<title>Node3&#45;&gt;Node2</title>
<path fill="none" stroke="#9a32cd" stroke-dasharray="5,2" d="M81.0461,-128.8619C100.7856,-115.8957 128.6099,-97.619 145.413,-86.5817"/>
<polygon fill="#9a32cd" stroke="#9a32cd" points="79.0507,-125.985 72.6141,-134.4005 82.8938,-131.8357 79.0507,-125.985"/>
<text text-anchor="middle" x="131" y="-108" font-family="Helvetica,sans-Serif" font-size="10.00" fill="#000000"> fatdir</text>
</g>
<!-- Node4 -->
<g id="node4" class="node">
<title>Node4</title>
<g id="a_node4"><a xlink:href="structfat__dir__chain__record.html" target="_top" xlink:title=" ">
<polygon fill="#ffffff" stroke="#000000" points="0,-201.5 0,-220.5 116,-220.5 116,-201.5 0,-201.5"/>
<text text-anchor="middle" x="58" y="-208.5" font-family="Helvetica,sans-Serif" font-size="10.00" fill="#000000">fat_dir_chain_record</text>
</a>
</g>
</g>
<!-- Node4&#45;&gt;Node3 -->
<g id="edge3" class="edge">
<title>Node4&#45;&gt;Node3</title>
<path fill="none" stroke="#9a32cd" stroke-dasharray="5,2" d="M58,-191.1079C58,-178.714 58,-163.3263 58,-153.5817"/>
<polygon fill="#9a32cd" stroke="#9a32cd" points="54.5001,-191.4005 58,-201.4005 61.5001,-191.4006 54.5001,-191.4005"/>
<text text-anchor="middle" x="73" y="-175" font-family="Helvetica,sans-Serif" font-size="10.00" fill="#000000"> chain</text>
</g>
<!-- Node5 -->
<g id="node5" class="node">
<title>Node5</title>
<g id="a_node5"><a xlink:href="structfat__dir__list.html" target="_top" xlink:title=" ">
<polygon fill="#ffffff" stroke="#000000" points="208,-67.5 208,-86.5 276,-86.5 276,-67.5 208,-67.5"/>
<text text-anchor="middle" x="242" y="-74.5" font-family="Helvetica,sans-Serif" font-size="10.00" fill="#000000">fat_dir_list</text>
</a>
</g>
</g>
<!-- Node5&#45;&gt;Node1 -->
<g id="edge4" class="edge">
<title>Node5&#45;&gt;Node1</title>
<path fill="none" stroke="#9a32cd" stroke-dasharray="5,2" d="M223.1273,-60.6899C214.8674,-53.6322 205.0211,-45.327 196,-38 188.3789,-31.8101 179.6944,-25.0473 172.7648,-19.7189"/>
<polygon fill="#9a32cd" stroke="#9a32cd" points="220.9014,-63.3918 230.769,-67.2493 225.4607,-58.0802 220.9014,-63.3918"/>
<text text-anchor="middle" x="227" y="-41" font-family="Helvetica,sans-Serif" font-size="10.00" fill="#000000"> fatdlist</text>
</g>
</g>
</svg>
