<?xml version="1.0" encoding="UTF-8" standalone="no"?>
<!DOCTYPE svg PUBLIC "-//W3C//DTD SVG 1.1//EN"
 "http://www.w3.org/Graphics/SVG/1.1/DTD/svg11.dtd">
<!-- Generated by graphviz version 2.40.1 (20161225.0304)
 -->
<!-- Title: iop/hdd/libpfs/src/super.c Pages: 1 -->
<svg width="393pt" height="263pt"
 viewBox="0.00 0.00 393.00 263.00" xmlns="http://www.w3.org/2000/svg" xmlns:xlink="http://www.w3.org/1999/xlink">
<g id="graph0" class="graph" transform="scale(1 1) rotate(0) translate(4 259)">
<title>iop/hdd/libpfs/src/super.c</title>
<polygon fill="#ffffff" stroke="transparent" points="-4,4 -4,-259 389,-259 389,4 -4,4"/>
<!-- Node1 -->
<g id="node1" class="node">
<title>Node1</title>
<g id="a_node1"><a xlink:title=" ">
<polygon fill="#bfbfbf" stroke="#000000" points="146.5,-224.5 146.5,-254.5 246.5,-254.5 246.5,-224.5 146.5,-224.5"/>
<text text-anchor="start" x="154.5" y="-242.5" font-family="Helvetica,sans-Serif" font-size="10.00" fill="#000000">iop/hdd/libpfs/src</text>
<text text-anchor="middle" x="196.5" y="-231.5" font-family="Helvetica,sans-Serif" font-size="10.00" fill="#000000">/super.c</text>
</a>
</g>
</g>
<!-- Node2 -->
<g id="node2" class="node">
<title>Node2</title>
<g id="a_node2"><a xlink:href="errno_8h.html" target="_top" xlink:title=" ">
<polygon fill="#ffffff" stroke="#000000" points="0,-168.5 0,-187.5 51,-187.5 51,-168.5 0,-168.5"/>
<text text-anchor="middle" x="25.5" y="-175.5" font-family="Helvetica,sans-Serif" font-size="10.00" fill="#000000">errno.h</text>
</a>
</g>
</g>
<!-- Node1&#45;&gt;Node2 -->
<g id="edge1" class="edge">
<title>Node1&#45;&gt;Node2</title>
<path fill="none" stroke="#191970" d="M154.6687,-224.4554C125.8727,-214.099 88.0431,-200.4936 60.7739,-190.6862"/>
<polygon fill="#191970" stroke="#191970" points="61.8359,-187.3487 51.2414,-187.2579 59.4668,-193.9357 61.8359,-187.3487"/>
</g>
<!-- Node3 -->
<g id="node3" class="node">
<title>Node3</title>
<g id="a_node3"><a xlink:href="stdio_8h.html" target="_top" xlink:title=" ">
<polygon fill="#ffffff" stroke="#000000" points="69.5,-168.5 69.5,-187.5 119.5,-187.5 119.5,-168.5 69.5,-168.5"/>
<text text-anchor="middle" x="94.5" y="-175.5" font-family="Helvetica,sans-Serif" font-size="10.00" fill="#000000">stdio.h</text>
</a>
</g>
</g>
<!-- Node1&#45;&gt;Node3 -->
<g id="edge2" class="edge">
<title>Node1&#45;&gt;Node3</title>
<path fill="none" stroke="#191970" d="M171.548,-224.4554C155.5741,-214.8241 134.9398,-202.3828 119.0457,-192.7996"/>
<polygon fill="#191970" stroke="#191970" points="120.6774,-189.6965 110.3064,-187.5303 117.063,-195.6912 120.6774,-189.6965"/>
</g>
<!-- Node9 -->
<g id="node9" class="node">
<title>Node9</title>
<g id="a_node9"><a xlink:href="sysclib_8h.html" target="_top" xlink:title=" ">
<polygon fill="#ffffff" stroke="#000000" points="138,-168.5 138,-187.5 197,-187.5 197,-168.5 138,-168.5"/>
<text text-anchor="middle" x="167.5" y="-175.5" font-family="Helvetica,sans-Serif" font-size="10.00" fill="#000000">sysclib.h</text>
</a>
</g>
</g>
<!-- Node1&#45;&gt;Node9 -->
<g id="edge8" class="edge">
<title>Node1&#45;&gt;Node9</title>
<path fill="none" stroke="#191970" d="M189.3315,-224.2977C185.4318,-216.0277 180.572,-205.7215 176.4282,-196.9339"/>
<polygon fill="#191970" stroke="#191970" points="179.5741,-195.399 172.1433,-187.8469 173.2427,-198.3846 179.5741,-195.399"/>
</g>
<!-- Node11 -->
<g id="node11" class="node">
<title>Node11</title>
<g id="a_node11"><a xlink:href="hdd-ioctl_8h.html" target="_top" xlink:title=" ">
<polygon fill="#ffffff" stroke="#000000" points="231.5,-56.5 231.5,-75.5 299.5,-75.5 299.5,-56.5 231.5,-56.5"/>
<text text-anchor="middle" x="265.5" y="-63.5" font-family="Helvetica,sans-Serif" font-size="10.00" fill="#000000">hdd&#45;ioctl.h</text>
</a>
</g>
</g>
<!-- Node1&#45;&gt;Node11 -->
<g id="edge14" class="edge">
<title>Node1&#45;&gt;Node11</title>
<path fill="none" stroke="#191970" d="M202.5026,-224.4065C215.0418,-192.8767 243.997,-120.0692 257.8483,-85.24"/>
<polygon fill="#191970" stroke="#191970" points="261.184,-86.3236 261.6273,-75.738 254.6795,-83.7367 261.184,-86.3236"/>
</g>
<!-- Node12 -->
<g id="node12" class="node">
<title>Node12</title>
<g id="a_node12"><a xlink:href="pfs-opt_8h.html" target="_top" xlink:title=" ">
<polygon fill="#ffffff" stroke="#000000" points="253.5,-168.5 253.5,-187.5 313.5,-187.5 313.5,-168.5 253.5,-168.5"/>
<text text-anchor="middle" x="283.5" y="-175.5" font-family="Helvetica,sans-Serif" font-size="10.00" fill="#000000">pfs&#45;opt.h</text>
</a>
</g>
</g>
<!-- Node1&#45;&gt;Node12 -->
<g id="edge16" class="edge">
<title>Node1&#45;&gt;Node12</title>
<path fill="none" stroke="#191970" d="M218.0056,-224.2977C231.2968,-214.9022 248.3057,-202.8787 261.6588,-193.4395"/>
<polygon fill="#191970" stroke="#191970" points="263.6846,-196.2937 269.83,-187.6633 259.6439,-190.5776 263.6846,-196.2937"/>
</g>
<!-- Node13 -->
<g id="node13" class="node">
<title>Node13</title>
<g id="a_node13"><a xlink:href="libpfs_8h.html" target="_top" xlink:title=" ">
<polygon fill="#ffffff" stroke="#000000" points="332,-168.5 332,-187.5 385,-187.5 385,-168.5 332,-168.5"/>
<text text-anchor="middle" x="358.5" y="-175.5" font-family="Helvetica,sans-Serif" font-size="10.00" fill="#000000">libpfs.h</text>
</a>
</g>
</g>
<!-- Node1&#45;&gt;Node13 -->
<g id="edge17" class="edge">
<title>Node1&#45;&gt;Node13</title>
<path fill="none" stroke="#191970" d="M236.1297,-224.4554C263.0412,-214.239 298.2811,-200.8609 324.0294,-191.0861"/>
<polygon fill="#191970" stroke="#191970" points="325.289,-194.3517 333.3957,-187.5303 322.8045,-187.8074 325.289,-194.3517"/>
</g>
<!-- Node4 -->
<g id="node4" class="node">
<title>Node4</title>
<g id="a_node4"><a xlink:title=" ">
<polygon fill="#ffffff" stroke="#bfbfbf" points="9.5,-112.5 9.5,-131.5 65.5,-131.5 65.5,-112.5 9.5,-112.5"/>
<text text-anchor="middle" x="37.5" y="-119.5" font-family="Helvetica,sans-Serif" font-size="10.00" fill="#000000">stdarg.h</text>
</a>
</g>
</g>
<!-- Node3&#45;&gt;Node4 -->
<g id="edge3" class="edge">
<title>Node3&#45;&gt;Node4</title>
<path fill="none" stroke="#191970" d="M84.5714,-168.2455C76.3162,-160.1352 64.3791,-148.4075 54.5918,-138.7919"/>
<polygon fill="#191970" stroke="#191970" points="56.9011,-136.1542 47.3149,-131.6427 51.9954,-141.1476 56.9011,-136.1542"/>
</g>
<!-- Node5 -->
<g id="node5" class="node">
<title>Node5</title>
<g id="a_node5"><a xlink:href="irx_8h.html" target="_top" xlink:title=" ">
<polygon fill="#ffffff" stroke="#000000" points="83.5,-112.5 83.5,-131.5 121.5,-131.5 121.5,-112.5 83.5,-112.5"/>
<text text-anchor="middle" x="102.5" y="-119.5" font-family="Helvetica,sans-Serif" font-size="10.00" fill="#000000">irx.h</text>
</a>
</g>
</g>
<!-- Node3&#45;&gt;Node5 -->
<g id="edge4" class="edge">
<title>Node3&#45;&gt;Node5</title>
<path fill="none" stroke="#191970" d="M95.8935,-168.2455C96.9374,-160.9382 98.4008,-150.6944 99.6851,-141.7046"/>
<polygon fill="#191970" stroke="#191970" points="103.173,-142.0372 101.1225,-131.6427 96.2434,-141.0472 103.173,-142.0372"/>
</g>
<!-- Node6 -->
<g id="node6" class="node">
<title>Node6</title>
<g id="a_node6"><a xlink:href="types_8h.html" target="_top" xlink:title=" ">
<polygon fill="#ffffff" stroke="#000000" points="81,-56.5 81,-75.5 134,-75.5 134,-56.5 81,-56.5"/>
<text text-anchor="middle" x="107.5" y="-63.5" font-family="Helvetica,sans-Serif" font-size="10.00" fill="#000000">types.h</text>
</a>
</g>
</g>
<!-- Node5&#45;&gt;Node6 -->
<g id="edge5" class="edge">
<title>Node5&#45;&gt;Node6</title>
<path fill="none" stroke="#191970" d="M103.3709,-112.2455C104.0234,-104.9382 104.938,-94.6944 105.7407,-85.7046"/>
<polygon fill="#191970" stroke="#191970" points="109.2358,-85.9143 106.639,-75.6427 102.2635,-85.2918 109.2358,-85.9143"/>
</g>
<!-- Node7 -->
<g id="node7" class="node">
<title>Node7</title>
<g id="a_node7"><a xlink:title=" ">
<polygon fill="#ffffff" stroke="#bfbfbf" points="75.5,-.5 75.5,-19.5 131.5,-19.5 131.5,-.5 75.5,-.5"/>
<text text-anchor="middle" x="103.5" y="-7.5" font-family="Helvetica,sans-Serif" font-size="10.00" fill="#000000">stddef.h</text>
</a>
</g>
</g>
<!-- Node6&#45;&gt;Node7 -->
<g id="edge6" class="edge">
<title>Node6&#45;&gt;Node7</title>
<path fill="none" stroke="#191970" d="M106.8033,-56.2455C106.2813,-48.9382 105.5496,-38.6944 104.9075,-29.7046"/>
<polygon fill="#191970" stroke="#191970" points="108.3924,-29.3679 104.1888,-19.6427 101.4102,-29.8667 108.3924,-29.3679"/>
</g>
<!-- Node8 -->
<g id="node8" class="node">
<title>Node8</title>
<g id="a_node8"><a xlink:href="tamtypes_8h.html" target="_top" xlink:title=" ">
<polygon fill="#ffffff" stroke="#000000" points="149.5,-.5 149.5,-19.5 221.5,-19.5 221.5,-.5 149.5,-.5"/>
<text text-anchor="middle" x="185.5" y="-7.5" font-family="Helvetica,sans-Serif" font-size="10.00" fill="#000000">tamtypes.h</text>
</a>
</g>
</g>
<!-- Node6&#45;&gt;Node8 -->
<g id="edge7" class="edge">
<title>Node6&#45;&gt;Node8</title>
<path fill="none" stroke="#191970" d="M121.0866,-56.2455C132.8305,-47.814 150.0199,-35.4729 163.6882,-25.6598"/>
<polygon fill="#191970" stroke="#191970" points="165.9871,-28.3179 172.0691,-19.6427 161.9046,-22.6316 165.9871,-28.3179"/>
</g>
<!-- Node9&#45;&gt;Node4 -->
<g id="edge11" class="edge">
<title>Node9&#45;&gt;Node4</title>
<path fill="none" stroke="#191970" d="M145.1522,-168.3733C124.0967,-159.3032 92.3505,-145.6279 68.7825,-135.4755"/>
<polygon fill="#191970" stroke="#191970" points="70.125,-132.243 59.5562,-131.5011 67.3556,-138.6719 70.125,-132.243"/>
</g>
<!-- Node9&#45;&gt;Node5 -->
<g id="edge10" class="edge">
<title>Node9&#45;&gt;Node5</title>
<path fill="none" stroke="#191970" d="M156.1779,-168.2455C146.5777,-159.9746 132.6108,-147.9416 121.3305,-138.2232"/>
<polygon fill="#191970" stroke="#191970" points="123.553,-135.5182 113.6924,-131.6427 118.984,-140.8214 123.553,-135.5182"/>
</g>
<!-- Node9&#45;&gt;Node6 -->
<g id="edge9" class="edge">
<title>Node9&#45;&gt;Node6</title>
<path fill="none" stroke="#191970" d="M162.3844,-168.4509C152.4214,-149.8533 130.2635,-108.4919 117.3552,-84.3964"/>
<polygon fill="#191970" stroke="#191970" points="120.4101,-82.6869 112.6026,-75.5249 114.2397,-85.9925 120.4101,-82.6869"/>
</g>
<!-- Node10 -->
<g id="node10" class="node">
<title>Node10</title>
<g id="a_node10"><a xlink:href="setjmp_8h.html" target="_top" xlink:title=" ">
<polygon fill="#ffffff" stroke="#000000" points="154,-56.5 154,-75.5 213,-75.5 213,-56.5 154,-56.5"/>
<text text-anchor="middle" x="183.5" y="-63.5" font-family="Helvetica,sans-Serif" font-size="10.00" fill="#000000">setjmp.h</text>
</a>
</g>
</g>
<!-- Node9&#45;&gt;Node10 -->
<g id="edge12" class="edge">
<title>Node9&#45;&gt;Node10</title>
<path fill="none" stroke="#191970" d="M168.8642,-168.4509C171.4737,-150.184 177.2207,-109.9553 180.6861,-85.6976"/>
<polygon fill="#191970" stroke="#191970" points="184.1898,-85.9194 182.1393,-75.5249 177.2602,-84.9294 184.1898,-85.9194"/>
</g>
<!-- Node10&#45;&gt;Node8 -->
<g id="edge13" class="edge">
<title>Node10&#45;&gt;Node8</title>
<path fill="none" stroke="#191970" d="M183.8484,-56.2455C184.1093,-48.9382 184.4752,-38.6944 184.7963,-29.7046"/>
<polygon fill="#191970" stroke="#191970" points="188.2964,-29.7613 185.1556,-19.6427 181.3008,-29.5113 188.2964,-29.7613"/>
</g>
<!-- Node11&#45;&gt;Node8 -->
<g id="edge15" class="edge">
<title>Node11&#45;&gt;Node8</title>
<path fill="none" stroke="#191970" d="M251.5651,-56.2455C239.4053,-47.7337 221.5536,-35.2375 207.4715,-25.3801"/>
<polygon fill="#191970" stroke="#191970" points="209.4747,-22.51 199.2752,-19.6427 205.4605,-28.2447 209.4747,-22.51"/>
</g>
<!-- Node14 -->
<g id="node14" class="node">
<title>Node14</title>
<g id="a_node14"><a xlink:title=" ">
<polygon fill="#ffffff" stroke="#bfbfbf" points="332,-112.5 332,-131.5 385,-131.5 385,-112.5 332,-112.5"/>
<text text-anchor="middle" x="358.5" y="-119.5" font-family="Helvetica,sans-Serif" font-size="10.00" fill="#000000">types.h</text>
</a>
</g>
</g>
<!-- Node13&#45;&gt;Node14 -->
<g id="edge18" class="edge">
<title>Node13&#45;&gt;Node14</title>
<path fill="none" stroke="#191970" d="M358.5,-168.2455C358.5,-160.9382 358.5,-150.6944 358.5,-141.7046"/>
<polygon fill="#191970" stroke="#191970" points="362.0001,-141.6426 358.5,-131.6427 355.0001,-141.6427 362.0001,-141.6426"/>
</g>
</g>
</svg>
