<?xml version="1.0" encoding="UTF-8" standalone="no"?>
<!DOCTYPE svg PUBLIC "-//W3C//DTD SVG 1.1//EN"
 "http://www.w3.org/Graphics/SVG/1.1/DTD/svg11.dtd">
<!-- Generated by graphviz version 2.40.1 (20161225.0304)
 -->
<!-- Title: iop/system/iopmgr/src/irx_imports.h Pages: 1 -->
<svg width="283pt" height="263pt"
 viewBox="0.00 0.00 282.50 263.00" xmlns="http://www.w3.org/2000/svg" xmlns:xlink="http://www.w3.org/1999/xlink">
<g id="graph0" class="graph" transform="scale(1 1) rotate(0) translate(4 259)">
<title>iop/system/iopmgr/src/irx_imports.h</title>
<polygon fill="#ffffff" stroke="transparent" points="-4,4 -4,-259 278.5,-259 278.5,4 -4,4"/>
<!-- Node1 -->
<g id="node1" class="node">
<title>Node1</title>
<g id="a_node1"><a xlink:title=" ">
<polygon fill="#bfbfbf" stroke="#000000" points="59.5,-224.5 59.5,-254.5 184.5,-254.5 184.5,-224.5 59.5,-224.5"/>
<text text-anchor="start" x="67.5" y="-242.5" font-family="Helvetica,sans-Serif" font-size="10.00" fill="#000000">iop/system/iopmgr/src</text>
<text text-anchor="middle" x="122" y="-231.5" font-family="Helvetica,sans-Serif" font-size="10.00" fill="#000000">/irx_imports.h</text>
</a>
</g>
</g>
<!-- Node2 -->
<g id="node2" class="node">
<title>Node2</title>
<g id="a_node2"><a xlink:href="irx_8h.html" target="_top" xlink:title=" ">
<polygon fill="#ffffff" stroke="#000000" points="77,-112.5 77,-131.5 115,-131.5 115,-112.5 77,-112.5"/>
<text text-anchor="middle" x="96" y="-119.5" font-family="Helvetica,sans-Serif" font-size="10.00" fill="#000000">irx.h</text>
</a>
</g>
</g>
<!-- Node1&#45;&gt;Node2 -->
<g id="edge1" class="edge">
<title>Node1&#45;&gt;Node2</title>
<path fill="none" stroke="#191970" d="M118.601,-224.1389C113.9166,-202.9692 105.4745,-164.8174 100.3395,-141.6112"/>
<polygon fill="#191970" stroke="#191970" points="103.6932,-140.5671 98.1153,-131.5595 96.8585,-142.0795 103.6932,-140.5671"/>
</g>
<!-- Node6 -->
<g id="node6" class="node">
<title>Node6</title>
<g id="a_node6"><a xlink:href="loadcore_8h.html" target="_top" xlink:title=" ">
<polygon fill="#ffffff" stroke="#000000" points="0,-168.5 0,-187.5 68,-187.5 68,-168.5 0,-168.5"/>
<text text-anchor="middle" x="34" y="-175.5" font-family="Helvetica,sans-Serif" font-size="10.00" fill="#000000">loadcore.h</text>
</a>
</g>
</g>
<!-- Node1&#45;&gt;Node6 -->
<g id="edge5" class="edge">
<title>Node1&#45;&gt;Node6</title>
<path fill="none" stroke="#191970" d="M100.2472,-224.2977C86.8032,-214.9022 69.5989,-202.8787 56.0922,-193.4395"/>
<polygon fill="#191970" stroke="#191970" points="58.0288,-190.5228 47.8271,-187.6633 54.0189,-196.2605 58.0288,-190.5228"/>
</g>
<!-- Node7 -->
<g id="node7" class="node">
<title>Node7</title>
<g id="a_node7"><a xlink:href="stdio_8h.html" target="_top" xlink:title=" ">
<polygon fill="#ffffff" stroke="#000000" points="124,-168.5 124,-187.5 174,-187.5 174,-168.5 124,-168.5"/>
<text text-anchor="middle" x="149" y="-175.5" font-family="Helvetica,sans-Serif" font-size="10.00" fill="#000000">stdio.h</text>
</a>
</g>
</g>
<!-- Node1&#45;&gt;Node7 -->
<g id="edge8" class="edge">
<title>Node1&#45;&gt;Node7</title>
<path fill="none" stroke="#191970" d="M128.6742,-224.2977C132.2659,-216.1166 136.7324,-205.943 140.5629,-197.2179"/>
<polygon fill="#191970" stroke="#191970" points="143.8618,-198.4104 144.677,-187.8469 137.4522,-195.5964 143.8618,-198.4104"/>
</g>
<!-- Node9 -->
<g id="node9" class="node">
<title>Node9</title>
<g id="a_node9"><a xlink:href="sysclib_8h.html" target="_top" xlink:title=" ">
<polygon fill="#ffffff" stroke="#000000" points="192.5,-168.5 192.5,-187.5 251.5,-187.5 251.5,-168.5 192.5,-168.5"/>
<text text-anchor="middle" x="222" y="-175.5" font-family="Helvetica,sans-Serif" font-size="10.00" fill="#000000">sysclib.h</text>
</a>
</g>
</g>
<!-- Node1&#45;&gt;Node9 -->
<g id="edge11" class="edge">
<title>Node1&#45;&gt;Node9</title>
<path fill="none" stroke="#191970" d="M146.4628,-224.4554C162.1235,-214.8241 182.3532,-202.3828 197.9356,-192.7996"/>
<polygon fill="#191970" stroke="#191970" points="199.819,-195.7503 206.5035,-187.5303 196.152,-189.7876 199.819,-195.7503"/>
</g>
<!-- Node3 -->
<g id="node3" class="node">
<title>Node3</title>
<g id="a_node3"><a xlink:href="types_8h.html" target="_top" xlink:title=" ">
<polygon fill="#ffffff" stroke="#000000" points="107.5,-56.5 107.5,-75.5 160.5,-75.5 160.5,-56.5 107.5,-56.5"/>
<text text-anchor="middle" x="134" y="-63.5" font-family="Helvetica,sans-Serif" font-size="10.00" fill="#000000">types.h</text>
</a>
</g>
</g>
<!-- Node2&#45;&gt;Node3 -->
<g id="edge2" class="edge">
<title>Node2&#45;&gt;Node3</title>
<path fill="none" stroke="#191970" d="M102.6191,-112.2455C107.9046,-104.4564 115.4541,-93.3308 121.8238,-83.9439"/>
<polygon fill="#191970" stroke="#191970" points="124.7379,-85.8827 127.4568,-75.6427 118.9455,-81.9522 124.7379,-85.8827"/>
</g>
<!-- Node4 -->
<g id="node4" class="node">
<title>Node4</title>
<g id="a_node4"><a xlink:title=" ">
<polygon fill="#ffffff" stroke="#bfbfbf" points="106,-.5 106,-19.5 162,-19.5 162,-.5 106,-.5"/>
<text text-anchor="middle" x="134" y="-7.5" font-family="Helvetica,sans-Serif" font-size="10.00" fill="#000000">stddef.h</text>
</a>
</g>
</g>
<!-- Node3&#45;&gt;Node4 -->
<g id="edge3" class="edge">
<title>Node3&#45;&gt;Node4</title>
<path fill="none" stroke="#191970" d="M134,-56.2455C134,-48.9382 134,-38.6944 134,-29.7046"/>
<polygon fill="#191970" stroke="#191970" points="137.5001,-29.6426 134,-19.6427 130.5001,-29.6427 137.5001,-29.6426"/>
</g>
<!-- Node5 -->
<g id="node5" class="node">
<title>Node5</title>
<g id="a_node5"><a xlink:href="tamtypes_8h.html" target="_top" xlink:title=" ">
<polygon fill="#ffffff" stroke="#000000" points="199,-.5 199,-19.5 271,-19.5 271,-.5 199,-.5"/>
<text text-anchor="middle" x="235" y="-7.5" font-family="Helvetica,sans-Serif" font-size="10.00" fill="#000000">tamtypes.h</text>
</a>
</g>
</g>
<!-- Node3&#45;&gt;Node5 -->
<g id="edge4" class="edge">
<title>Node3&#45;&gt;Node5</title>
<path fill="none" stroke="#191970" d="M151.5929,-56.2455C167.379,-47.4928 190.7639,-34.527 208.7587,-24.5496"/>
<polygon fill="#191970" stroke="#191970" points="210.5603,-27.5528 217.6087,-19.6427 207.1659,-21.4308 210.5603,-27.5528"/>
</g>
<!-- Node6&#45;&gt;Node2 -->
<g id="edge7" class="edge">
<title>Node6&#45;&gt;Node2</title>
<path fill="none" stroke="#191970" d="M44.7996,-168.2455C53.8678,-160.0549 67.0206,-148.1749 77.7245,-138.5069"/>
<polygon fill="#191970" stroke="#191970" points="80.2491,-140.9429 85.3242,-131.6427 75.5571,-135.7482 80.2491,-140.9429"/>
</g>
<!-- Node6&#45;&gt;Node3 -->
<g id="edge6" class="edge">
<title>Node6&#45;&gt;Node3</title>
<path fill="none" stroke="#191970" d="M37.3377,-168.1609C42.3551,-154.4294 52.8906,-129.2654 68,-112 78.8802,-99.5673 93.797,-88.8028 106.6971,-80.8194"/>
<polygon fill="#191970" stroke="#191970" points="108.83,-83.6237 115.6473,-75.5136 105.2604,-77.6023 108.83,-83.6237"/>
</g>
<!-- Node7&#45;&gt;Node2 -->
<g id="edge10" class="edge">
<title>Node7&#45;&gt;Node2</title>
<path fill="none" stroke="#191970" d="M139.7681,-168.2455C132.1683,-160.2155 121.2123,-148.6394 112.1632,-139.0781"/>
<polygon fill="#191970" stroke="#191970" points="114.542,-136.4998 105.1261,-131.6427 109.4579,-141.3115 114.542,-136.4998"/>
</g>
<!-- Node8 -->
<g id="node8" class="node">
<title>Node8</title>
<g id="a_node8"><a xlink:title=" ">
<polygon fill="#ffffff" stroke="#bfbfbf" points="133,-112.5 133,-131.5 189,-131.5 189,-112.5 133,-112.5"/>
<text text-anchor="middle" x="161" y="-119.5" font-family="Helvetica,sans-Serif" font-size="10.00" fill="#000000">stdarg.h</text>
</a>
</g>
</g>
<!-- Node7&#45;&gt;Node8 -->
<g id="edge9" class="edge">
<title>Node7&#45;&gt;Node8</title>
<path fill="none" stroke="#191970" d="M151.0902,-168.2455C152.6561,-160.9382 154.8512,-150.6944 156.7776,-141.7046"/>
<polygon fill="#191970" stroke="#191970" points="160.2607,-142.1541 158.9337,-131.6427 153.416,-140.6873 160.2607,-142.1541"/>
</g>
<!-- Node9&#45;&gt;Node2 -->
<g id="edge13" class="edge">
<title>Node9&#45;&gt;Node2</title>
<path fill="none" stroke="#191970" d="M200.3398,-168.3733C179.4072,-159.0699 147.5729,-144.9213 124.5732,-134.6992"/>
<polygon fill="#191970" stroke="#191970" points="125.8743,-131.4474 115.3146,-130.5843 123.0313,-137.8441 125.8743,-131.4474"/>
</g>
<!-- Node9&#45;&gt;Node3 -->
<g id="edge12" class="edge">
<title>Node9&#45;&gt;Node3</title>
<path fill="none" stroke="#191970" d="M220.3228,-168.1708C217.5874,-154.451 211.1026,-129.3008 198,-112 188.3609,-99.2724 174.2133,-88.591 161.6694,-80.7344"/>
<polygon fill="#191970" stroke="#191970" points="163.2905,-77.6264 152.9063,-75.5241 159.713,-83.6432 163.2905,-77.6264"/>
</g>
<!-- Node9&#45;&gt;Node8 -->
<g id="edge14" class="edge">
<title>Node9&#45;&gt;Node8</title>
<path fill="none" stroke="#191970" d="M211.3746,-168.2455C202.4527,-160.0549 189.512,-148.1749 178.9808,-138.5069"/>
<polygon fill="#191970" stroke="#191970" points="181.2371,-135.8271 171.5036,-131.6427 176.5032,-140.9837 181.2371,-135.8271"/>
</g>
<!-- Node10 -->
<g id="node10" class="node">
<title>Node10</title>
<g id="a_node10"><a xlink:href="setjmp_8h.html" target="_top" xlink:title=" ">
<polygon fill="#ffffff" stroke="#000000" points="215.5,-56.5 215.5,-75.5 274.5,-75.5 274.5,-56.5 215.5,-56.5"/>
<text text-anchor="middle" x="245" y="-63.5" font-family="Helvetica,sans-Serif" font-size="10.00" fill="#000000">setjmp.h</text>
</a>
</g>
</g>
<!-- Node9&#45;&gt;Node10 -->
<g id="edge15" class="edge">
<title>Node9&#45;&gt;Node10</title>
<path fill="none" stroke="#191970" d="M223.961,-168.4509C227.7292,-150.1013 236.0483,-109.5908 241.0224,-85.3693"/>
<polygon fill="#191970" stroke="#191970" points="244.4608,-86.0246 243.044,-75.5249 237.6039,-84.6164 244.4608,-86.0246"/>
</g>
<!-- Node10&#45;&gt;Node5 -->
<g id="edge16" class="edge">
<title>Node10&#45;&gt;Node5</title>
<path fill="none" stroke="#191970" d="M243.2581,-56.2455C241.9533,-48.9382 240.124,-38.6944 238.5187,-29.7046"/>
<polygon fill="#191970" stroke="#191970" points="241.9254,-28.8717 236.7219,-19.6427 235.0344,-30.1022 241.9254,-28.8717"/>
</g>
</g>
</svg>
