<?xml version="1.0" encoding="UTF-8" standalone="no"?>
<!DOCTYPE svg PUBLIC "-//W3C//DTD SVG 1.1//EN"
 "http://www.w3.org/Graphics/SVG/1.1/DTD/svg11.dtd">
<!-- Generated by graphviz version 2.40.1 (20161225.0304)
 -->
<!-- Title: iop/system/iopmgr/src/main.c Pages: 1 -->
<!--zoomable 319 -->
<svg id="main" version="1.1" xmlns="http://www.w3.org/2000/svg" xmlns:xlink="http://www.w3.org/1999/xlink" xml:space="preserve" onload="init(evt)">
<style type="text/css"><![CDATA[
.edge:hover path { stroke: red; }
.edge:hover polygon { stroke: red; fill: red; }
]]></style>
<script type="text/javascript"><![CDATA[
var edges = document.getElementsByTagName('g');
if (edges && edges.length) {
  for (var i=0;i<edges.length;i++) {
    if (edges[i].id.substr(0,4)=='edge') {
      edges[i].setAttribute('class','edge');
    }
  }
}
]]></script>
        <defs>
                <circle id="rim" cx="0" cy="0" r="7"/>
                <circle id="rim2" cx="0" cy="0" r="3.5"/>
                <g id="zoomPlus">
                        <use xlink:href="#rim" fill="#404040">
                                <set attributeName="fill" to="#808080" begin="zoomplus.mouseover" end="zoomplus.mouseout"/>
                        </use>
                        <path d="M-4,0h8M0,-4v8" fill="none" stroke="white" stroke-width="1.5" pointer-events="none"/>
                </g>
                <g id="zoomMin">
                        <use xlink:href="#rim" fill="#404040">
                                <set attributeName="fill" to="#808080" begin="zoomminus.mouseover" end="zoomminus.mouseout"/>
                        </use>
                        <path d="M-4,0h8" fill="none" stroke="white" stroke-width="1.5" pointer-events="none"/>
                </g>
                <g id="dirArrow">
                        <path fill="none" stroke="white" stroke-width="1.5" d="M0,-3.0v7 M-2.5,-0.5L0,-3.0L2.5,-0.5"/>
                </g>
               <g id="resetDef">
                       <use xlink:href="#rim2" fill="#404040">
                               <set attributeName="fill" to="#808080" begin="reset.mouseover" end="reset.mouseout"/>
                       </use>
               </g>
        </defs>

<script type="text/javascript">
var viewWidth = 506;
var viewHeight = 319;
var sectionId = 'dynsection-0';
</script>
<script xlink:href="svgpan.js"/>
<svg id="graph" class="graph">
<g id="viewport">
<title>iop/system/iopmgr/src/main.c</title>
<polygon fill="#ffffff" stroke="transparent" points="-4,4 -4,-315 501.9502,-315 501.9502,4 -4,4"/>
<!-- Node1 -->
<g id="node1" class="node">
<title>Node1</title>
<g id="a_node1"><a xlink:title=" ">
<polygon fill="#bfbfbf" stroke="#000000" points="168.5,-280.5 168.5,-310.5 293.5,-310.5 293.5,-280.5 168.5,-280.5"/>
<text text-anchor="start" x="176.5" y="-298.5" font-family="Helvetica,sans-Serif" font-size="10.00" fill="#000000">iop/system/iopmgr/src</text>
<text text-anchor="middle" x="231" y="-287.5" font-family="Helvetica,sans-Serif" font-size="10.00" fill="#000000">/main.c</text>
</a>
</g>
</g>
<!-- Node2 -->
<g id="node2" class="node">
<title>Node2</title>
<g id="a_node2"><a xlink:title=" ">
<polygon fill="#ffffff" stroke="#bfbfbf" points="234.5,-168.5 234.5,-187.5 287.5,-187.5 287.5,-168.5 234.5,-168.5"/>
<text text-anchor="middle" x="261" y="-175.5" font-family="Helvetica,sans-Serif" font-size="10.00" fill="#000000">types.h</text>
</a>
</g>
</g>
<!-- Node1&#45;&gt;Node2 -->
<g id="edge1" class="edge">
<title>Node1&#45;&gt;Node2</title>
<path fill="none" stroke="#191970" d="M234.922,-280.1389C240.3516,-258.873 250.1565,-220.4702 256.0735,-197.2956"/>
<polygon fill="#191970" stroke="#191970" points="259.4766,-198.1145 258.5593,-187.5595 252.6942,-196.3828 259.4766,-198.1145"/>
</g>
<!-- Node3 -->
<g id="node3" class="node">
<title>Node3</title>
<g id="a_node3"><a xlink:href="defs_8h.html" target="_top" xlink:title=" ">
<polygon fill="#ffffff" stroke="#000000" points="426.5,-224.5 426.5,-243.5 473.5,-243.5 473.5,-224.5 426.5,-224.5"/>
<text text-anchor="middle" x="450" y="-231.5" font-family="Helvetica,sans-Serif" font-size="10.00" fill="#000000">defs.h</text>
</a>
</g>
</g>
<!-- Node1&#45;&gt;Node3 -->
<g id="edge2" class="edge">
<title>Node1&#45;&gt;Node3</title>
<path fill="none" stroke="#191970" d="M284.5734,-280.4554C325.8341,-268.8685 381.5765,-253.2148 416.6577,-243.3632"/>
<polygon fill="#191970" stroke="#191970" points="417.7275,-246.6983 426.4088,-240.6249 415.8349,-239.959 417.7275,-246.6983"/>
</g>
<!-- Node7 -->
<g id="node7" class="node">
<title>Node7</title>
<g id="a_node7"><a xlink:href="irx_8h.html" target="_top" xlink:title=" ">
<polygon fill="#ffffff" stroke="#000000" points="297,-112.5 297,-131.5 335,-131.5 335,-112.5 297,-112.5"/>
<text text-anchor="middle" x="316" y="-119.5" font-family="Helvetica,sans-Serif" font-size="10.00" fill="#000000">irx.h</text>
</a>
</g>
</g>
<!-- Node1&#45;&gt;Node7 -->
<g id="edge6" class="edge">
<title>Node1&#45;&gt;Node7</title>
<path fill="none" stroke="#191970" d="M198.5334,-280.4497C152.8355,-257.2382 78.7418,-210.8897 113,-168 123.8624,-154.4008 233.3449,-135.218 286.8598,-126.5575"/>
<polygon fill="#191970" stroke="#191970" points="287.45,-130.0076 296.7708,-124.9704 286.3431,-123.0957 287.45,-130.0076"/>
</g>
<!-- Node8 -->
<g id="node8" class="node">
<title>Node8</title>
<g id="a_node8"><a xlink:href="iomanX_8h.html" target="_top" xlink:title=" ">
<polygon fill="#ffffff" stroke="#000000" points="2.5,-168.5 2.5,-187.5 65.5,-187.5 65.5,-168.5 2.5,-168.5"/>
<text text-anchor="middle" x="34" y="-175.5" font-family="Helvetica,sans-Serif" font-size="10.00" fill="#000000">iomanX.h</text>
</a>
</g>
</g>
<!-- Node1&#45;&gt;Node8 -->
<g id="edge8" class="edge">
<title>Node1&#45;&gt;Node8</title>
<path fill="none" stroke="#191970" d="M168.316,-283.5798C139.3653,-275.8192 105.7778,-263.4099 80,-244 63.5008,-231.5766 50.7141,-211.4838 42.8562,-196.7271"/>
<polygon fill="#191970" stroke="#191970" points="45.8441,-194.8786 38.2185,-187.5232 39.5928,-198.0286 45.8441,-194.8786"/>
</g>
<!-- Node14 -->
<g id="node14" class="node">
<title>Node14</title>
<g id="a_node14"><a xlink:href="stdio_8h.html" target="_top" xlink:title=" ">
<polygon fill="#ffffff" stroke="#000000" points="180,-224.5 180,-243.5 230,-243.5 230,-224.5 180,-224.5"/>
<text text-anchor="middle" x="205" y="-231.5" font-family="Helvetica,sans-Serif" font-size="10.00" fill="#000000">stdio.h</text>
</a>
</g>
</g>
<!-- Node1&#45;&gt;Node14 -->
<g id="edge16" class="edge">
<title>Node1&#45;&gt;Node14</title>
<path fill="none" stroke="#191970" d="M224.573,-280.2977C221.1143,-272.1166 216.8133,-261.943 213.1246,-253.2179"/>
<polygon fill="#191970" stroke="#191970" points="216.2807,-251.6947 209.1629,-243.8469 209.8332,-254.4205 216.2807,-251.6947"/>
</g>
<!-- Node16 -->
<g id="node16" class="node">
<title>Node16</title>
<g id="a_node16"><a xlink:href="iopmgr_8h.html" target="_top" xlink:title=" ">
<polygon fill="#ffffff" stroke="#000000" points="286.5,-224.5 286.5,-243.5 345.5,-243.5 345.5,-224.5 286.5,-224.5"/>
<text text-anchor="middle" x="316" y="-231.5" font-family="Helvetica,sans-Serif" font-size="10.00" fill="#000000">iopmgr.h</text>
</a>
</g>
</g>
<!-- Node1&#45;&gt;Node16 -->
<g id="edge19" class="edge">
<title>Node1&#45;&gt;Node16</title>
<path fill="none" stroke="#191970" d="M252.0112,-280.2977C264.7934,-271.0495 281.0946,-259.2551 294.0448,-249.8853"/>
<polygon fill="#191970" stroke="#191970" points="296.3403,-252.5445 302.3904,-243.8469 292.237,-246.8732 296.3403,-252.5445"/>
</g>
<!-- Node4 -->
<g id="node4" class="node">
<title>Node4</title>
<g id="a_node4"><a xlink:href="types_8h.html" target="_top" xlink:title=" ">
<polygon fill="#ffffff" stroke="#000000" points="345.5,-56.5 345.5,-75.5 398.5,-75.5 398.5,-56.5 345.5,-56.5"/>
<text text-anchor="middle" x="372" y="-63.5" font-family="Helvetica,sans-Serif" font-size="10.00" fill="#000000">types.h</text>
</a>
</g>
</g>
<!-- Node3&#45;&gt;Node4 -->
<g id="edge3" class="edge">
<title>Node3&#45;&gt;Node4</title>
<path fill="none" stroke="#191970" d="M464.6317,-224.3187C481.343,-211.9614 505.1435,-189.5892 495,-168 475.8393,-127.2189 431.4796,-97.1267 401.6094,-80.576"/>
<polygon fill="#191970" stroke="#191970" points="402.9385,-77.3176 392.4707,-75.6819 399.6338,-83.4884 402.9385,-77.3176"/>
</g>
<!-- Node5 -->
<g id="node5" class="node">
<title>Node5</title>
<g id="a_node5"><a xlink:title=" ">
<polygon fill="#ffffff" stroke="#bfbfbf" points="303,-.5 303,-19.5 359,-19.5 359,-.5 303,-.5"/>
<text text-anchor="middle" x="331" y="-7.5" font-family="Helvetica,sans-Serif" font-size="10.00" fill="#000000">stddef.h</text>
</a>
</g>
</g>
<!-- Node4&#45;&gt;Node5 -->
<g id="edge4" class="edge">
<title>Node4&#45;&gt;Node5</title>
<path fill="none" stroke="#191970" d="M364.8583,-56.2455C359.1556,-48.4564 351.01,-37.3308 344.1375,-27.9439"/>
<polygon fill="#191970" stroke="#191970" points="346.7913,-25.6437 338.0598,-19.6427 341.1432,-29.7789 346.7913,-25.6437"/>
</g>
<!-- Node6 -->
<g id="node6" class="node">
<title>Node6</title>
<g id="a_node6"><a xlink:href="tamtypes_8h.html" target="_top" xlink:title=" ">
<polygon fill="#ffffff" stroke="#000000" points="377,-.5 377,-19.5 449,-19.5 449,-.5 377,-.5"/>
<text text-anchor="middle" x="413" y="-7.5" font-family="Helvetica,sans-Serif" font-size="10.00" fill="#000000">tamtypes.h</text>
</a>
</g>
</g>
<!-- Node4&#45;&gt;Node6 -->
<g id="edge5" class="edge">
<title>Node4&#45;&gt;Node6</title>
<path fill="none" stroke="#191970" d="M379.1417,-56.2455C384.8444,-48.4564 392.99,-37.3308 399.8625,-27.9439"/>
<polygon fill="#191970" stroke="#191970" points="402.8568,-29.7789 405.9402,-19.6427 397.2087,-25.6437 402.8568,-29.7789"/>
</g>
<!-- Node7&#45;&gt;Node4 -->
<g id="edge7" class="edge">
<title>Node7&#45;&gt;Node4</title>
<path fill="none" stroke="#191970" d="M325.7545,-112.2455C333.8648,-104.1352 345.5925,-92.4075 355.2081,-82.7919"/>
<polygon fill="#191970" stroke="#191970" points="357.7611,-85.1887 362.3573,-75.6427 352.8113,-80.2389 357.7611,-85.1887"/>
</g>
<!-- Node8&#45;&gt;Node4 -->
<g id="edge9" class="edge">
<title>Node8&#45;&gt;Node4</title>
<path fill="none" stroke="#191970" d="M65.591,-169.8532C98.4116,-161.1975 151.1457,-146.7508 196,-132 246.4381,-115.4129 303.856,-93.2502 339.0079,-79.2993"/>
<polygon fill="#191970" stroke="#191970" points="340.3136,-82.5467 348.3077,-75.5937 337.7225,-76.0439 340.3136,-82.5467"/>
</g>
<!-- Node8&#45;&gt;Node7 -->
<g id="edge10" class="edge">
<title>Node8&#45;&gt;Node7</title>
<path fill="none" stroke="#191970" d="M65.6545,-171.0234C70.4572,-169.9925 75.3573,-168.9562 80,-168 162.0424,-151.102 182.7892,-148.0588 265,-132 272.0207,-130.6286 279.5842,-129.1475 286.6811,-127.7563"/>
<polygon fill="#191970" stroke="#191970" points="287.4879,-131.1648 296.6272,-125.8053 286.1405,-124.2957 287.4879,-131.1648"/>
</g>
<!-- Node9 -->
<g id="node9" class="node">
<title>Node9</title>
<g id="a_node9"><a xlink:href="io__common_8h.html" target="_top" xlink:title=" ">
<polygon fill="#ffffff" stroke="#000000" points="103.5,-112.5 103.5,-131.5 186.5,-131.5 186.5,-112.5 103.5,-112.5"/>
<text text-anchor="middle" x="145" y="-119.5" font-family="Helvetica,sans-Serif" font-size="10.00" fill="#000000">io_common.h</text>
</a>
</g>
</g>
<!-- Node8&#45;&gt;Node9 -->
<g id="edge11" class="edge">
<title>Node8&#45;&gt;Node9</title>
<path fill="none" stroke="#191970" d="M53.0816,-168.3733C70.7402,-159.4644 97.2053,-146.1127 117.2098,-136.0203"/>
<polygon fill="#191970" stroke="#191970" points="118.8158,-139.1303 126.1674,-131.5011 115.6628,-132.8806 118.8158,-139.1303"/>
</g>
<!-- Node12 -->
<g id="node12" class="node">
<title>Node12</title>
<g id="a_node12"><a xlink:href="iox__stat_8h.html" target="_top" xlink:title=" ">
<polygon fill="#ffffff" stroke="#000000" points="1.5,-112.5 1.5,-131.5 66.5,-131.5 66.5,-112.5 1.5,-112.5"/>
<text text-anchor="middle" x="34" y="-119.5" font-family="Helvetica,sans-Serif" font-size="10.00" fill="#000000">iox_stat.h</text>
</a>
</g>
</g>
<!-- Node8&#45;&gt;Node12 -->
<g id="edge14" class="edge">
<title>Node8&#45;&gt;Node12</title>
<path fill="none" stroke="#191970" d="M34,-168.2455C34,-160.9382 34,-150.6944 34,-141.7046"/>
<polygon fill="#191970" stroke="#191970" points="37.5001,-141.6426 34,-131.6427 30.5001,-141.6427 37.5001,-141.6426"/>
</g>
<!-- Node10 -->
<g id="node10" class="node">
<title>Node10</title>
<g id="a_node10"><a xlink:href="fcntl_8h.html" target="_top" xlink:title=" ">
<polygon fill="#ffffff" stroke="#000000" points="190.5,-56.5 190.5,-75.5 257.5,-75.5 257.5,-56.5 190.5,-56.5"/>
<text text-anchor="middle" x="224" y="-63.5" font-family="Helvetica,sans-Serif" font-size="10.00" fill="#000000">sys/fcntl.h</text>
</a>
</g>
</g>
<!-- Node9&#45;&gt;Node10 -->
<g id="edge12" class="edge">
<title>Node9&#45;&gt;Node10</title>
<path fill="none" stroke="#191970" d="M158.7607,-112.2455C170.6552,-103.814 188.065,-91.4729 201.9085,-81.6598"/>
<polygon fill="#191970" stroke="#191970" points="204.2628,-84.2811 210.3969,-75.6427 200.2146,-78.5704 204.2628,-84.2811"/>
</g>
<!-- Node11 -->
<g id="node11" class="node">
<title>Node11</title>
<g id="a_node11"><a xlink:href="unistd_8h.html" target="_top" xlink:title=" ">
<polygon fill="#ffffff" stroke="#000000" points="97.5,-56.5 97.5,-75.5 172.5,-75.5 172.5,-56.5 97.5,-56.5"/>
<text text-anchor="middle" x="135" y="-63.5" font-family="Helvetica,sans-Serif" font-size="10.00" fill="#000000">sys/unistd.h</text>
</a>
</g>
</g>
<!-- Node9&#45;&gt;Node11 -->
<g id="edge13" class="edge">
<title>Node9&#45;&gt;Node11</title>
<path fill="none" stroke="#191970" d="M143.2581,-112.2455C141.9533,-104.9382 140.124,-94.6944 138.5187,-85.7046"/>
<polygon fill="#191970" stroke="#191970" points="141.9254,-84.8717 136.7219,-75.6427 135.0344,-86.1022 141.9254,-84.8717"/>
</g>
<!-- Node13 -->
<g id="node13" class="node">
<title>Node13</title>
<g id="a_node13"><a xlink:href="time_8h.html" target="_top" xlink:title=" ">
<polygon fill="#ffffff" stroke="#000000" points="0,-56.5 0,-75.5 68,-75.5 68,-56.5 0,-56.5"/>
<text text-anchor="middle" x="34" y="-63.5" font-family="Helvetica,sans-Serif" font-size="10.00" fill="#000000">sys/time.h</text>
</a>
</g>
</g>
<!-- Node12&#45;&gt;Node13 -->
<g id="edge15" class="edge">
<title>Node12&#45;&gt;Node13</title>
<path fill="none" stroke="#191970" d="M34,-112.2455C34,-104.9382 34,-94.6944 34,-85.7046"/>
<polygon fill="#191970" stroke="#191970" points="37.5001,-85.6426 34,-75.6427 30.5001,-85.6427 37.5001,-85.6426"/>
</g>
<!-- Node14&#45;&gt;Node7 -->
<g id="edge18" class="edge">
<title>Node14&#45;&gt;Node7</title>
<path fill="none" stroke="#191970" d="M205.753,-224.3684C207.3079,-210.4321 212.0041,-184.5098 226,-168 241.8469,-149.3068 267.1883,-137.3192 286.9489,-130.2842"/>
<polygon fill="#191970" stroke="#191970" points="288.307,-133.5212 296.694,-127.0475 286.1005,-126.8781 288.307,-133.5212"/>
</g>
<!-- Node15 -->
<g id="node15" class="node">
<title>Node15</title>
<g id="a_node15"><a xlink:title=" ">
<polygon fill="#ffffff" stroke="#bfbfbf" points="122,-168.5 122,-187.5 178,-187.5 178,-168.5 122,-168.5"/>
<text text-anchor="middle" x="150" y="-175.5" font-family="Helvetica,sans-Serif" font-size="10.00" fill="#000000">stdarg.h</text>
</a>
</g>
</g>
<!-- Node14&#45;&gt;Node15 -->
<g id="edge17" class="edge">
<title>Node14&#45;&gt;Node15</title>
<path fill="none" stroke="#191970" d="M195.4197,-224.2455C187.4542,-216.1352 175.9359,-204.4075 166.4921,-194.7919"/>
<polygon fill="#191970" stroke="#191970" points="168.9747,-192.3247 159.4705,-187.6427 163.9805,-197.2297 168.9747,-192.3247"/>
</g>
<!-- Node16&#45;&gt;Node2 -->
<g id="edge20" class="edge">
<title>Node16&#45;&gt;Node2</title>
<path fill="none" stroke="#191970" d="M306.4197,-224.2455C298.4542,-216.1352 286.9359,-204.4075 277.4921,-194.7919"/>
<polygon fill="#191970" stroke="#191970" points="279.9747,-192.3247 270.4705,-187.6427 274.9805,-197.2297 279.9747,-192.3247"/>
</g>
<!-- Node16&#45;&gt;Node7 -->
<g id="edge21" class="edge">
<title>Node16&#45;&gt;Node7</title>
<path fill="none" stroke="#191970" d="M316,-224.4509C316,-206.184 316,-165.9553 316,-141.6976"/>
<polygon fill="#191970" stroke="#191970" points="319.5001,-141.5249 316,-131.5249 312.5001,-141.5249 319.5001,-141.5249"/>
</g>
<!-- Node17 -->
<g id="node17" class="node">
<title>Node17</title>
<g id="a_node17"><a xlink:href="ioman_8h.html" target="_top" xlink:title=" ">
<polygon fill="#ffffff" stroke="#000000" points="344,-168.5 344,-187.5 400,-187.5 400,-168.5 344,-168.5"/>
<text text-anchor="middle" x="372" y="-175.5" font-family="Helvetica,sans-Serif" font-size="10.00" fill="#000000">ioman.h</text>
</a>
</g>
</g>
<!-- Node16&#45;&gt;Node17 -->
<g id="edge22" class="edge">
<title>Node16&#45;&gt;Node17</title>
<path fill="none" stroke="#191970" d="M325.7545,-224.2455C333.8648,-216.1352 345.5925,-204.4075 355.2081,-194.7919"/>
<polygon fill="#191970" stroke="#191970" points="357.7611,-197.1887 362.3573,-187.6427 352.8113,-192.2389 357.7611,-197.1887"/>
</g>
<!-- Node18 -->
<g id="node18" class="node">
<title>Node18</title>
<g id="a_node18"><a xlink:href="loadcore_8h.html" target="_top" xlink:title=" ">
<polygon fill="#ffffff" stroke="#000000" points="418,-168.5 418,-187.5 486,-187.5 486,-168.5 418,-168.5"/>
<text text-anchor="middle" x="452" y="-175.5" font-family="Helvetica,sans-Serif" font-size="10.00" fill="#000000">loadcore.h</text>
</a>
</g>
</g>
<!-- Node16&#45;&gt;Node18 -->
<g id="edge26" class="edge">
<title>Node16&#45;&gt;Node18</title>
<path fill="none" stroke="#191970" d="M339.3792,-224.3733C361.5045,-215.2629 394.9134,-201.5062 419.6019,-191.3404"/>
<polygon fill="#191970" stroke="#191970" points="421.0117,-194.5451 428.9258,-187.5011 418.3464,-188.0723 421.0117,-194.5451"/>
</g>
<!-- Node17&#45;&gt;Node4 -->
<g id="edge23" class="edge">
<title>Node17&#45;&gt;Node4</title>
<path fill="none" stroke="#191970" d="M372,-168.4509C372,-150.184 372,-109.9553 372,-85.6976"/>
<polygon fill="#191970" stroke="#191970" points="375.5001,-85.5249 372,-75.5249 368.5001,-85.5249 375.5001,-85.5249"/>
</g>
<!-- Node17&#45;&gt;Node7 -->
<g id="edge24" class="edge">
<title>Node17&#45;&gt;Node7</title>
<path fill="none" stroke="#191970" d="M362.2455,-168.2455C354.1352,-160.1352 342.4075,-148.4075 332.7919,-138.7919"/>
<polygon fill="#191970" stroke="#191970" points="335.1887,-136.2389 325.6427,-131.6427 330.2389,-141.1887 335.1887,-136.2389"/>
</g>
<!-- Node17&#45;&gt;Node9 -->
<g id="edge25" class="edge">
<title>Node17&#45;&gt;Node9</title>
<path fill="none" stroke="#191970" d="M343.7093,-171.0208C306.1414,-161.753 239.2228,-145.2444 193.5129,-133.9679"/>
<polygon fill="#191970" stroke="#191970" points="194.0748,-130.5017 183.5275,-131.5046 192.3981,-137.2979 194.0748,-130.5017"/>
</g>
<!-- Node18&#45;&gt;Node4 -->
<g id="edge27" class="edge">
<title>Node18&#45;&gt;Node4</title>
<path fill="none" stroke="#191970" d="M445.1792,-168.4509C431.7772,-149.688 401.8248,-107.7548 384.6843,-83.758"/>
<polygon fill="#191970" stroke="#191970" points="387.464,-81.6279 378.8035,-75.5249 381.7678,-85.6966 387.464,-81.6279"/>
</g>
<!-- Node18&#45;&gt;Node7 -->
<g id="edge28" class="edge">
<title>Node18&#45;&gt;Node7</title>
<path fill="none" stroke="#191970" d="M428.6208,-168.3733C405.2887,-158.7659 369.4084,-143.9917 344.4392,-133.7103"/>
<polygon fill="#191970" stroke="#191970" points="345.7069,-130.4472 335.1274,-129.876 343.0416,-136.9199 345.7069,-130.4472"/>
</g>
</g>
</svg>
        <g id="navigator" transform="translate(0 0)" fill="#404254">
                <rect fill="#f2f5e9" fill-opacity="0.5" stroke="#606060" stroke-width=".5" x="0" y="0" width="60" height="60"/>
                <use id="zoomplus" xlink:href="#zoomPlus" x="17" y="9" onmousedown="handleZoom(evt,'in')"/>
                <use id="zoomminus" xlink:href="#zoomMin" x="42" y="9" onmousedown="handleZoom(evt,'out')"/>
                <use id="reset" xlink:href="#resetDef" x="30" y="36" onmousedown="handleReset()"/>
                <g id="arrowUp" xlink:href="#dirArrow" transform="translate(30 24)" onmousedown="handlePan(0,-1)">
                  <use xlink:href="#rim" fill="#404040">
                        <set attributeName="fill" to="#808080" begin="arrowUp.mouseover" end="arrowUp.mouseout"/>
                  </use>
                  <path fill="none" stroke="white" stroke-width="1.5" d="M0,-3.0v7 M-2.5,-0.5L0,-3.0L2.5,-0.5"/>
                </g>
                <g id="arrowRight" xlink:href="#dirArrow" transform="rotate(90) translate(36 -43)" onmousedown="handlePan(1,0)">
                  <use xlink:href="#rim" fill="#404040">
                        <set attributeName="fill" to="#808080" begin="arrowRight.mouseover" end="arrowRight.mouseout"/>
                  </use>
                  <path fill="none" stroke="white" stroke-width="1.5" d="M0,-3.0v7 M-2.5,-0.5L0,-3.0L2.5,-0.5"/>
                </g>
                <g id="arrowDown" xlink:href="#dirArrow" transform="rotate(180) translate(-30 -48)" onmousedown="handlePan(0,1)">
                  <use xlink:href="#rim" fill="#404040">
                        <set attributeName="fill" to="#808080" begin="arrowDown.mouseover" end="arrowDown.mouseout"/>
                  </use>
                  <path fill="none" stroke="white" stroke-width="1.5" d="M0,-3.0v7 M-2.5,-0.5L0,-3.0L2.5,-0.5"/>
                </g>
                <g id="arrowLeft" xlink:href="#dirArrow" transform="rotate(270) translate(-36 17)" onmousedown="handlePan(-1,0)">
                  <use xlink:href="#rim" fill="#404040">
                        <set attributeName="fill" to="#808080" begin="arrowLeft.mouseover" end="arrowLeft.mouseout"/>
                  </use>
                  <path fill="none" stroke="white" stroke-width="1.5" d="M0,-3.0v7 M-2.5,-0.5L0,-3.0L2.5,-0.5"/>
                </g>
        </g>
        <svg viewBox="0 0 15 15" width="100%" height="30px" preserveAspectRatio="xMaxYMin meet">
         <g id="arrow_out" transform="scale(0.3 0.3)">
          <a xlink:href="system_2iopmgr_2src_2main_8c__incl_org.svg" target="_base">
           <rect id="button" ry="5" rx="5" y="6" x="6" height="38" width="38"
                fill="#f2f5e9" fill-opacity="0.5" stroke="#606060" stroke-width="1.0"/>
           <path id="arrow"
             d="M 11.500037,31.436501 C 11.940474,20.09759 22.043105,11.32322 32.158766,21.979434 L 37.068811,17.246167 C 37.068811,17.246167 37.088388,32 37.088388,32 L 22.160133,31.978069 C 22.160133,31.978069 26.997745,27.140456 26.997745,27.140456 C 18.528582,18.264221 13.291696,25.230495 11.500037,31.436501 z"
             style="fill:#404040;"/>
          </a>
         </g>
        </svg>
</svg>
