<?xml version="1.0" encoding="UTF-8" standalone="no"?>
<!DOCTYPE svg PUBLIC "-//W3C//DTD SVG 1.1//EN"
 "http://www.w3.org/Graphics/SVG/1.1/DTD/svg11.dtd">
<!-- Generated by graphviz version 2.40.1 (20161225.0304)
 -->
<!-- Title: iop/system/rmman/src/irx_imports.h Pages: 1 -->
<!--zoomable 375 -->
<svg id="main" version="1.1" xmlns="http://www.w3.org/2000/svg" xmlns:xlink="http://www.w3.org/1999/xlink" xml:space="preserve" onload="init(evt)">
<style type="text/css"><![CDATA[
.edge:hover path { stroke: red; }
.edge:hover polygon { stroke: red; fill: red; }
]]></style>
<script type="text/javascript"><![CDATA[
var edges = document.getElementsByTagName('g');
if (edges && edges.length) {
  for (var i=0;i<edges.length;i++) {
    if (edges[i].id.substr(0,4)=='edge') {
      edges[i].setAttribute('class','edge');
    }
  }
}
]]></script>
        <defs>
                <circle id="rim" cx="0" cy="0" r="7"/>
                <circle id="rim2" cx="0" cy="0" r="3.5"/>
                <g id="zoomPlus">
                        <use xlink:href="#rim" fill="#404040">
                                <set attributeName="fill" to="#808080" begin="zoomplus.mouseover" end="zoomplus.mouseout"/>
                        </use>
                        <path d="M-4,0h8M0,-4v8" fill="none" stroke="white" stroke-width="1.5" pointer-events="none"/>
                </g>
                <g id="zoomMin">
                        <use xlink:href="#rim" fill="#404040">
                                <set attributeName="fill" to="#808080" begin="zoomminus.mouseover" end="zoomminus.mouseout"/>
                        </use>
                        <path d="M-4,0h8" fill="none" stroke="white" stroke-width="1.5" pointer-events="none"/>
                </g>
                <g id="dirArrow">
                        <path fill="none" stroke="white" stroke-width="1.5" d="M0,-3.0v7 M-2.5,-0.5L0,-3.0L2.5,-0.5"/>
                </g>
               <g id="resetDef">
                       <use xlink:href="#rim2" fill="#404040">
                               <set attributeName="fill" to="#808080" begin="reset.mouseover" end="reset.mouseout"/>
                       </use>
               </g>
        </defs>

<script type="text/javascript">
var viewWidth = 672;
var viewHeight = 375;
var sectionId = 'dynsection-0';
</script>
<script xlink:href="svgpan.js"/>
<svg id="graph" class="graph">
<g id="viewport">
<title>iop/system/rmman/src/irx_imports.h</title>
<polygon fill="#ffffff" stroke="transparent" points="-4,4 -4,-371 668,-371 668,4 -4,4"/>
<!-- Node1 -->
<g id="node1" class="node">
<title>Node1</title>
<g id="a_node1"><a xlink:title=" ">
<polygon fill="#bfbfbf" stroke="#000000" points="285,-336.5 285,-366.5 411,-366.5 411,-336.5 285,-336.5"/>
<text text-anchor="start" x="293" y="-354.5" font-family="Helvetica,sans-Serif" font-size="10.00" fill="#000000">iop/system/rmman/src</text>
<text text-anchor="middle" x="348" y="-343.5" font-family="Helvetica,sans-Serif" font-size="10.00" fill="#000000">/irx_imports.h</text>
</a>
</g>
</g>
<!-- Node2 -->
<g id="node2" class="node">
<title>Node2</title>
<g id="a_node2"><a xlink:href="irx_8h.html" target="_top" xlink:title=" ">
<polygon fill="#ffffff" stroke="#000000" points="282,-112.5 282,-131.5 320,-131.5 320,-112.5 282,-112.5"/>
<text text-anchor="middle" x="301" y="-119.5" font-family="Helvetica,sans-Serif" font-size="10.00" fill="#000000">irx.h</text>
</a>
</g>
</g>
<!-- Node1&#45;&gt;Node2 -->
<g id="edge1" class="edge">
<title>Node1&#45;&gt;Node2</title>
<path fill="none" stroke="#191970" d="M349.8764,-336.3581C352.4215,-312.2464 355.7198,-263.7861 347,-224 340.2403,-193.1575 323.5208,-160.3616 312.2137,-140.526"/>
<polygon fill="#191970" stroke="#191970" points="315.0928,-138.5161 307.0203,-131.6541 309.0517,-142.0524 315.0928,-138.5161"/>
</g>
<!-- Node6 -->
<g id="node6" class="node">
<title>Node6</title>
<g id="a_node6"><a xlink:href="intrman_8h.html" target="_top" xlink:title=" ">
<polygon fill="#ffffff" stroke="#000000" points="514,-168.5 514,-187.5 578,-187.5 578,-168.5 514,-168.5"/>
<text text-anchor="middle" x="546" y="-175.5" font-family="Helvetica,sans-Serif" font-size="10.00" fill="#000000">intrman.h</text>
</a>
</g>
</g>
<!-- Node1&#45;&gt;Node6 -->
<g id="edge5" class="edge">
<title>Node1&#45;&gt;Node6</title>
<path fill="none" stroke="#191970" d="M370.3405,-336.4775C384.6272,-326.5862 403.3465,-313.0895 419,-300 460.9337,-264.9349 506.2398,-219.3422 529.7543,-195.03"/>
<polygon fill="#191970" stroke="#191970" points="532.4465,-197.2799 536.8571,-187.6467 527.4019,-192.4269 532.4465,-197.2799"/>
</g>
<!-- Node7 -->
<g id="node7" class="node">
<title>Node7</title>
<g id="a_node7"><a xlink:href="loadcore_8h.html" target="_top" xlink:title=" ">
<polygon fill="#ffffff" stroke="#000000" points="0,-168.5 0,-187.5 68,-187.5 68,-168.5 0,-168.5"/>
<text text-anchor="middle" x="34" y="-175.5" font-family="Helvetica,sans-Serif" font-size="10.00" fill="#000000">loadcore.h</text>
</a>
</g>
</g>
<!-- Node1&#45;&gt;Node7 -->
<g id="edge8" class="edge">
<title>Node1&#45;&gt;Node7</title>
<path fill="none" stroke="#191970" d="M284.992,-342.7611C246.4202,-335.4446 197.1278,-322.454 158,-300 110.2272,-272.5849 67.5867,-222.3102 47.0133,-195.6626"/>
<polygon fill="#191970" stroke="#191970" points="49.7339,-193.4577 40.9066,-187.5986 44.1534,-197.6837 49.7339,-193.4577"/>
</g>
<!-- Node8 -->
<g id="node8" class="node">
<title>Node8</title>
<g id="a_node8"><a xlink:href="sifcmd_8h.html" target="_top" xlink:title=" ">
<polygon fill="#ffffff" stroke="#000000" points="86.5,-168.5 86.5,-187.5 145.5,-187.5 145.5,-168.5 86.5,-168.5"/>
<text text-anchor="middle" x="116" y="-175.5" font-family="Helvetica,sans-Serif" font-size="10.00" fill="#000000">sifcmd.h</text>
</a>
</g>
</g>
<!-- Node1&#45;&gt;Node8 -->
<g id="edge11" class="edge">
<title>Node1&#45;&gt;Node8</title>
<path fill="none" stroke="#191970" d="M284.9169,-344.1335C250.7423,-337.4023 209.5823,-324.5431 180,-300 147.1575,-272.7521 129.0069,-224.2254 121.0221,-197.3154"/>
<polygon fill="#191970" stroke="#191970" points="124.3514,-196.2246 118.2887,-187.5359 117.6098,-198.1089 124.3514,-196.2246"/>
</g>
<!-- Node9 -->
<g id="node9" class="node">
<title>Node9</title>
<g id="a_node9"><a xlink:href="sifman_8h.html" target="_top" xlink:title=" ">
<polygon fill="#ffffff" stroke="#000000" points="163.5,-168.5 163.5,-187.5 222.5,-187.5 222.5,-168.5 163.5,-168.5"/>
<text text-anchor="middle" x="193" y="-175.5" font-family="Helvetica,sans-Serif" font-size="10.00" fill="#000000">sifman.h</text>
</a>
</g>
</g>
<!-- Node1&#45;&gt;Node9 -->
<g id="edge14" class="edge">
<title>Node1&#45;&gt;Node9</title>
<path fill="none" stroke="#191970" d="M284.5266,-337.0242C238.1658,-322.466 179.7654,-294.6672 158,-244 150.6236,-226.8286 162.6397,-208.0776 174.5545,-194.9654"/>
<polygon fill="#191970" stroke="#191970" points="177.2811,-197.184 181.7858,-187.5944 172.2842,-192.2818 177.2811,-197.184"/>
</g>
<!-- Node10 -->
<g id="node10" class="node">
<title>Node10</title>
<g id="a_node10"><a xlink:href="stdio_8h.html" target="_top" xlink:title=" ">
<polygon fill="#ffffff" stroke="#000000" points="226,-280.5 226,-299.5 276,-299.5 276,-280.5 226,-280.5"/>
<text text-anchor="middle" x="251" y="-287.5" font-family="Helvetica,sans-Serif" font-size="10.00" fill="#000000">stdio.h</text>
</a>
</g>
</g>
<!-- Node1&#45;&gt;Node10 -->
<g id="edge17" class="edge">
<title>Node1&#45;&gt;Node10</title>
<path fill="none" stroke="#191970" d="M324.0225,-336.2977C309.0624,-326.8127 289.878,-314.6495 274.9274,-305.1705"/>
<polygon fill="#191970" stroke="#191970" points="276.561,-302.062 266.2413,-299.6633 272.8127,-307.9739 276.561,-302.062"/>
</g>
<!-- Node12 -->
<g id="node12" class="node">
<title>Node12</title>
<g id="a_node12"><a xlink:href="thbase_8h.html" target="_top" xlink:title=" ">
<polygon fill="#ffffff" stroke="#000000" points="355.5,-168.5 355.5,-187.5 414.5,-187.5 414.5,-168.5 355.5,-168.5"/>
<text text-anchor="middle" x="385" y="-175.5" font-family="Helvetica,sans-Serif" font-size="10.00" fill="#000000">thbase.h</text>
</a>
</g>
</g>
<!-- Node1&#45;&gt;Node12 -->
<g id="edge20" class="edge">
<title>Node1&#45;&gt;Node12</title>
<path fill="none" stroke="#191970" d="M360.7988,-336.3782C368.1963,-326.6596 376.84,-313.3856 381,-300 391.7504,-265.4087 389.9281,-222.6207 387.5298,-198.0032"/>
<polygon fill="#191970" stroke="#191970" points="390.9769,-197.3317 386.3947,-187.779 384.0196,-198.1042 390.9769,-197.3317"/>
</g>
<!-- Node13 -->
<g id="node13" class="node">
<title>Node13</title>
<g id="a_node13"><a xlink:href="thevent_8h.html" target="_top" xlink:title=" ">
<polygon fill="#ffffff" stroke="#000000" points="432.5,-168.5 432.5,-187.5 495.5,-187.5 495.5,-168.5 432.5,-168.5"/>
<text text-anchor="middle" x="464" y="-175.5" font-family="Helvetica,sans-Serif" font-size="10.00" fill="#000000">thevent.h</text>
</a>
</g>
</g>
<!-- Node1&#45;&gt;Node13 -->
<g id="edge23" class="edge">
<title>Node1&#45;&gt;Node13</title>
<path fill="none" stroke="#191970" d="M364.9769,-336.2897C375.2764,-326.5378 388.2657,-313.2599 398,-300 422.814,-266.1988 444.4064,-221.9371 455.6798,-197.0827"/>
<polygon fill="#191970" stroke="#191970" points="458.9848,-198.2648 459.8588,-187.7061 452.5911,-195.4152 458.9848,-198.2648"/>
</g>
<!-- Node14 -->
<g id="node14" class="node">
<title>Node14</title>
<g id="a_node14"><a xlink:href="vblank_8h.html" target="_top" xlink:title=" ">
<polygon fill="#ffffff" stroke="#000000" points="279.5,-224.5 279.5,-243.5 338.5,-243.5 338.5,-224.5 279.5,-224.5"/>
<text text-anchor="middle" x="309" y="-231.5" font-family="Helvetica,sans-Serif" font-size="10.00" fill="#000000">vblank.h</text>
</a>
</g>
</g>
<!-- Node1&#45;&gt;Node14 -->
<g id="edge26" class="edge">
<title>Node1&#45;&gt;Node14</title>
<path fill="none" stroke="#191970" d="M342.9014,-336.1389C335.843,-314.873 323.0965,-276.4702 315.4045,-253.2956"/>
<polygon fill="#191970" stroke="#191970" points="318.645,-251.9478 312.1729,-243.5595 312.0014,-254.1529 318.645,-251.9478"/>
</g>
<!-- Node15 -->
<g id="node15" class="node">
<title>Node15</title>
<g id="a_node15"><a xlink:href="rsio2man_8h.html" target="_top" xlink:title=" ">
<polygon fill="#ffffff" stroke="#000000" points="546.5,-280.5 546.5,-299.5 617.5,-299.5 617.5,-280.5 546.5,-280.5"/>
<text text-anchor="middle" x="582" y="-287.5" font-family="Helvetica,sans-Serif" font-size="10.00" fill="#000000">rsio2man.h</text>
</a>
</g>
</g>
<!-- Node1&#45;&gt;Node15 -->
<g id="edge28" class="edge">
<title>Node1&#45;&gt;Node15</title>
<path fill="none" stroke="#191970" d="M405.2428,-336.4554C445.5612,-325.8589 498.8209,-311.8612 536.3015,-302.0105"/>
<polygon fill="#191970" stroke="#191970" points="537.6488,-305.2754 546.4306,-299.3484 535.8694,-298.5053 537.6488,-305.2754"/>
</g>
<!-- Node3 -->
<g id="node3" class="node">
<title>Node3</title>
<g id="a_node3"><a xlink:href="types_8h.html" target="_top" xlink:title=" ">
<polygon fill="#ffffff" stroke="#000000" points="274.5,-56.5 274.5,-75.5 327.5,-75.5 327.5,-56.5 274.5,-56.5"/>
<text text-anchor="middle" x="301" y="-63.5" font-family="Helvetica,sans-Serif" font-size="10.00" fill="#000000">types.h</text>
</a>
</g>
</g>
<!-- Node2&#45;&gt;Node3 -->
<g id="edge2" class="edge">
<title>Node2&#45;&gt;Node3</title>
<path fill="none" stroke="#191970" d="M301,-112.2455C301,-104.9382 301,-94.6944 301,-85.7046"/>
<polygon fill="#191970" stroke="#191970" points="304.5001,-85.6426 301,-75.6427 297.5001,-85.6427 304.5001,-85.6426"/>
</g>
<!-- Node4 -->
<g id="node4" class="node">
<title>Node4</title>
<g id="a_node4"><a xlink:title=" ">
<polygon fill="#ffffff" stroke="#bfbfbf" points="232,-.5 232,-19.5 288,-19.5 288,-.5 232,-.5"/>
<text text-anchor="middle" x="260" y="-7.5" font-family="Helvetica,sans-Serif" font-size="10.00" fill="#000000">stddef.h</text>
</a>
</g>
</g>
<!-- Node3&#45;&gt;Node4 -->
<g id="edge3" class="edge">
<title>Node3&#45;&gt;Node4</title>
<path fill="none" stroke="#191970" d="M293.8583,-56.2455C288.1556,-48.4564 280.01,-37.3308 273.1375,-27.9439"/>
<polygon fill="#191970" stroke="#191970" points="275.7913,-25.6437 267.0598,-19.6427 270.1432,-29.7789 275.7913,-25.6437"/>
</g>
<!-- Node5 -->
<g id="node5" class="node">
<title>Node5</title>
<g id="a_node5"><a xlink:href="tamtypes_8h.html" target="_top" xlink:title=" ">
<polygon fill="#ffffff" stroke="#000000" points="306,-.5 306,-19.5 378,-19.5 378,-.5 306,-.5"/>
<text text-anchor="middle" x="342" y="-7.5" font-family="Helvetica,sans-Serif" font-size="10.00" fill="#000000">tamtypes.h</text>
</a>
</g>
</g>
<!-- Node3&#45;&gt;Node5 -->
<g id="edge4" class="edge">
<title>Node3&#45;&gt;Node5</title>
<path fill="none" stroke="#191970" d="M308.1417,-56.2455C313.8444,-48.4564 321.99,-37.3308 328.8625,-27.9439"/>
<polygon fill="#191970" stroke="#191970" points="331.8568,-29.7789 334.9402,-19.6427 326.2087,-25.6437 331.8568,-29.7789"/>
</g>
<!-- Node6&#45;&gt;Node2 -->
<g id="edge7" class="edge">
<title>Node6&#45;&gt;Node2</title>
<path fill="none" stroke="#191970" d="M513.9049,-170.3203C510.5613,-169.5316 507.2125,-168.7464 504,-168 442.0938,-153.6167 369.4352,-137.2851 330.017,-128.4709"/>
<polygon fill="#191970" stroke="#191970" points="330.5697,-125.0081 320.0471,-126.2434 329.0433,-131.8397 330.5697,-125.0081"/>
</g>
<!-- Node6&#45;&gt;Node3 -->
<g id="edge6" class="edge">
<title>Node6&#45;&gt;Node3</title>
<path fill="none" stroke="#191970" d="M525.1114,-168.4509C481.717,-148.6135 381.6659,-102.8758 331.2299,-79.8194"/>
<polygon fill="#191970" stroke="#191970" points="332.3856,-76.4994 321.8357,-75.5249 329.4753,-82.8657 332.3856,-76.4994"/>
</g>
<!-- Node7&#45;&gt;Node2 -->
<g id="edge10" class="edge">
<title>Node7&#45;&gt;Node2</title>
<path fill="none" stroke="#191970" d="M68.2494,-169.9506C71.2069,-169.2811 74.1549,-168.6229 77,-168 146.7167,-152.7377 228.9759,-136.2275 271.7855,-127.7479"/>
<polygon fill="#191970" stroke="#191970" points="272.6563,-131.1435 281.7877,-125.7707 271.2988,-124.2764 272.6563,-131.1435"/>
</g>
<!-- Node7&#45;&gt;Node3 -->
<g id="edge9" class="edge">
<title>Node7&#45;&gt;Node3</title>
<path fill="none" stroke="#191970" d="M56.7643,-168.4509C104.2524,-148.5308 214.0003,-102.4942 268.7398,-79.5323"/>
<polygon fill="#191970" stroke="#191970" points="270.4257,-82.6207 278.2933,-75.5249 267.7179,-76.1656 270.4257,-82.6207"/>
</g>
<!-- Node8&#45;&gt;Node2 -->
<g id="edge13" class="edge">
<title>Node8&#45;&gt;Node2</title>
<path fill="none" stroke="#191970" d="M145.7235,-169.0026C180.4348,-158.4954 237.4771,-141.2286 271.9128,-130.8048"/>
<polygon fill="#191970" stroke="#191970" points="273.2671,-134.0517 281.8242,-127.8046 271.239,-127.352 273.2671,-134.0517"/>
</g>
<!-- Node8&#45;&gt;Node3 -->
<g id="edge12" class="edge">
<title>Node8&#45;&gt;Node3</title>
<path fill="none" stroke="#191970" d="M131.773,-168.4509C163.9941,-148.9441 237.5826,-104.3932 276.2383,-80.9909"/>
<polygon fill="#191970" stroke="#191970" points="278.5251,-83.6979 285.2669,-75.5249 274.8998,-77.7098 278.5251,-83.6979"/>
</g>
<!-- Node9&#45;&gt;Node2 -->
<g id="edge16" class="edge">
<title>Node9&#45;&gt;Node2</title>
<path fill="none" stroke="#191970" d="M211.8122,-168.2455C228.8473,-159.4125 254.1575,-146.2887 273.4681,-136.2758"/>
<polygon fill="#191970" stroke="#191970" points="275.137,-139.353 282.4034,-131.6427 271.9147,-133.1388 275.137,-139.353"/>
</g>
<!-- Node9&#45;&gt;Node3 -->
<g id="edge15" class="edge">
<title>Node9&#45;&gt;Node3</title>
<path fill="none" stroke="#191970" d="M202.208,-168.4509C220.5399,-149.4401 261.8092,-106.6423 284.7845,-82.816"/>
<polygon fill="#191970" stroke="#191970" points="287.3934,-85.1528 291.8153,-75.5249 282.3544,-80.2939 287.3934,-85.1528"/>
</g>
<!-- Node10&#45;&gt;Node2 -->
<g id="edge19" class="edge">
<title>Node10&#45;&gt;Node2</title>
<path fill="none" stroke="#191970" d="M253.7875,-280.1468C257.4515,-267.2354 264.1135,-243.8946 270,-224 278.5463,-195.1159 288.7553,-161.7323 295.0588,-141.2443"/>
<polygon fill="#191970" stroke="#191970" points="298.4465,-142.1357 298.0467,-131.5484 291.7569,-140.0742 298.4465,-142.1357"/>
</g>
<!-- Node11 -->
<g id="node11" class="node">
<title>Node11</title>
<g id="a_node11"><a xlink:title=" ">
<polygon fill="#ffffff" stroke="#bfbfbf" points="167,-224.5 167,-243.5 223,-243.5 223,-224.5 167,-224.5"/>
<text text-anchor="middle" x="195" y="-231.5" font-family="Helvetica,sans-Serif" font-size="10.00" fill="#000000">stdarg.h</text>
</a>
</g>
</g>
<!-- Node10&#45;&gt;Node11 -->
<g id="edge18" class="edge">
<title>Node10&#45;&gt;Node11</title>
<path fill="none" stroke="#191970" d="M241.2455,-280.2455C233.1352,-272.1352 221.4075,-260.4075 211.7919,-250.7919"/>
<polygon fill="#191970" stroke="#191970" points="214.1887,-248.2389 204.6427,-243.6427 209.2389,-253.1887 214.1887,-248.2389"/>
</g>
<!-- Node12&#45;&gt;Node2 -->
<g id="edge22" class="edge">
<title>Node12&#45;&gt;Node2</title>
<path fill="none" stroke="#191970" d="M370.3683,-168.2455C357.6006,-159.7337 338.8562,-147.2375 324.0701,-137.3801"/>
<polygon fill="#191970" stroke="#191970" points="325.726,-134.2775 315.464,-131.6427 321.8431,-140.1019 325.726,-134.2775"/>
</g>
<!-- Node12&#45;&gt;Node3 -->
<g id="edge21" class="edge">
<title>Node12&#45;&gt;Node3</title>
<path fill="none" stroke="#191970" d="M377.8382,-168.4509C363.766,-149.688 332.3161,-107.7548 314.3185,-83.758"/>
<polygon fill="#191970" stroke="#191970" points="316.9437,-81.4249 308.1437,-75.5249 311.3437,-85.6249 316.9437,-81.4249"/>
</g>
<!-- Node13&#45;&gt;Node2 -->
<g id="edge25" class="edge">
<title>Node13&#45;&gt;Node2</title>
<path fill="none" stroke="#191970" d="M435.9793,-168.3733C406.3411,-158.1908 359.8091,-142.2044 329.8576,-131.9143"/>
<polygon fill="#191970" stroke="#191970" points="330.6043,-128.4701 320.0097,-128.5309 328.3299,-135.0903 330.6043,-128.4701"/>
</g>
<!-- Node13&#45;&gt;Node3 -->
<g id="edge24" class="edge">
<title>Node13&#45;&gt;Node3</title>
<path fill="none" stroke="#191970" d="M450.1027,-168.4509C421.8336,-149.0268 357.4247,-104.7703 323.2517,-81.2895"/>
<polygon fill="#191970" stroke="#191970" points="325.0861,-78.3034 314.8621,-75.5249 321.1219,-84.0727 325.0861,-78.3034"/>
</g>
<!-- Node14&#45;&gt;Node2 -->
<g id="edge27" class="edge">
<title>Node14&#45;&gt;Node2</title>
<path fill="none" stroke="#191970" d="M308.3179,-224.4509C307.0131,-206.184 304.1397,-165.9553 302.407,-141.6976"/>
<polygon fill="#191970" stroke="#191970" points="305.884,-141.2501 301.6803,-131.5249 298.9018,-141.7489 305.884,-141.2501"/>
</g>
<!-- Node16 -->
<g id="node16" class="node">
<title>Node16</title>
<g id="a_node16"><a xlink:href="xsio2man_8h.html" target="_top" xlink:title=" ">
<polygon fill="#ffffff" stroke="#000000" points="569,-224.5 569,-243.5 643,-243.5 643,-224.5 569,-224.5"/>
<text text-anchor="middle" x="606" y="-231.5" font-family="Helvetica,sans-Serif" font-size="10.00" fill="#000000">xsio2man.h</text>
</a>
</g>
</g>
<!-- Node15&#45;&gt;Node16 -->
<g id="edge29" class="edge">
<title>Node15&#45;&gt;Node16</title>
<path fill="none" stroke="#191970" d="M586.1805,-280.2455C589.381,-272.7776 593.896,-262.2427 597.8084,-253.1137"/>
<polygon fill="#191970" stroke="#191970" points="601.1452,-254.2129 601.8674,-243.6427 594.7112,-251.4554 601.1452,-254.2129"/>
</g>
<!-- Node17 -->
<g id="node17" class="node">
<title>Node17</title>
<g id="a_node17"><a xlink:href="sio2man_8h.html" target="_top" xlink:title=" ">
<polygon fill="#ffffff" stroke="#000000" points="596,-168.5 596,-187.5 664,-187.5 664,-168.5 596,-168.5"/>
<text text-anchor="middle" x="630" y="-175.5" font-family="Helvetica,sans-Serif" font-size="10.00" fill="#000000">sio2man.h</text>
</a>
</g>
</g>
<!-- Node16&#45;&gt;Node17 -->
<g id="edge30" class="edge">
<title>Node16&#45;&gt;Node17</title>
<path fill="none" stroke="#191970" d="M610.1805,-224.2455C613.381,-216.7776 617.896,-206.2427 621.8084,-197.1137"/>
<polygon fill="#191970" stroke="#191970" points="625.1452,-198.2129 625.8674,-187.6427 618.7112,-195.4554 625.1452,-198.2129"/>
</g>
<!-- Node17&#45;&gt;Node2 -->
<g id="edge32" class="edge">
<title>Node17&#45;&gt;Node2</title>
<path fill="none" stroke="#191970" d="M595.7783,-169.817C592.8148,-169.1765 589.8579,-168.5614 587,-168 493.7069,-149.6721 382.2314,-133.3273 330.3071,-126.032"/>
<polygon fill="#191970" stroke="#191970" points="330.5468,-122.5316 320.1589,-124.6152 329.5788,-129.4644 330.5468,-122.5316"/>
</g>
<!-- Node18 -->
<g id="node18" class="node">
<title>Node18</title>
<g id="a_node18"><a xlink:title=" ">
<polygon fill="#ffffff" stroke="#bfbfbf" points="603.5,-112.5 603.5,-131.5 656.5,-131.5 656.5,-112.5 603.5,-112.5"/>
<text text-anchor="middle" x="630" y="-119.5" font-family="Helvetica,sans-Serif" font-size="10.00" fill="#000000">types.h</text>
</a>
</g>
</g>
<!-- Node17&#45;&gt;Node18 -->
<g id="edge31" class="edge">
<title>Node17&#45;&gt;Node18</title>
<path fill="none" stroke="#191970" d="M630,-168.2455C630,-160.9382 630,-150.6944 630,-141.7046"/>
<polygon fill="#191970" stroke="#191970" points="633.5001,-141.6426 630,-131.6427 626.5001,-141.6427 633.5001,-141.6426"/>
</g>
</g>
</svg>
        <g id="navigator" transform="translate(0 0)" fill="#404254">
                <rect fill="#f2f5e9" fill-opacity="0.5" stroke="#606060" stroke-width=".5" x="0" y="0" width="60" height="60"/>
                <use id="zoomplus" xlink:href="#zoomPlus" x="17" y="9" onmousedown="handleZoom(evt,'in')"/>
                <use id="zoomminus" xlink:href="#zoomMin" x="42" y="9" onmousedown="handleZoom(evt,'out')"/>
                <use id="reset" xlink:href="#resetDef" x="30" y="36" onmousedown="handleReset()"/>
                <g id="arrowUp" xlink:href="#dirArrow" transform="translate(30 24)" onmousedown="handlePan(0,-1)">
                  <use xlink:href="#rim" fill="#404040">
                        <set attributeName="fill" to="#808080" begin="arrowUp.mouseover" end="arrowUp.mouseout"/>
                  </use>
                  <path fill="none" stroke="white" stroke-width="1.5" d="M0,-3.0v7 M-2.5,-0.5L0,-3.0L2.5,-0.5"/>
                </g>
                <g id="arrowRight" xlink:href="#dirArrow" transform="rotate(90) translate(36 -43)" onmousedown="handlePan(1,0)">
                  <use xlink:href="#rim" fill="#404040">
                        <set attributeName="fill" to="#808080" begin="arrowRight.mouseover" end="arrowRight.mouseout"/>
                  </use>
                  <path fill="none" stroke="white" stroke-width="1.5" d="M0,-3.0v7 M-2.5,-0.5L0,-3.0L2.5,-0.5"/>
                </g>
                <g id="arrowDown" xlink:href="#dirArrow" transform="rotate(180) translate(-30 -48)" onmousedown="handlePan(0,1)">
                  <use xlink:href="#rim" fill="#404040">
                        <set attributeName="fill" to="#808080" begin="arrowDown.mouseover" end="arrowDown.mouseout"/>
                  </use>
                  <path fill="none" stroke="white" stroke-width="1.5" d="M0,-3.0v7 M-2.5,-0.5L0,-3.0L2.5,-0.5"/>
                </g>
                <g id="arrowLeft" xlink:href="#dirArrow" transform="rotate(270) translate(-36 17)" onmousedown="handlePan(-1,0)">
                  <use xlink:href="#rim" fill="#404040">
                        <set attributeName="fill" to="#808080" begin="arrowLeft.mouseover" end="arrowLeft.mouseout"/>
                  </use>
                  <path fill="none" stroke="white" stroke-width="1.5" d="M0,-3.0v7 M-2.5,-0.5L0,-3.0L2.5,-0.5"/>
                </g>
        </g>
        <svg viewBox="0 0 15 15" width="100%" height="30px" preserveAspectRatio="xMaxYMin meet">
         <g id="arrow_out" transform="scale(0.3 0.3)">
          <a xlink:href="system_2rmman_2src_2irx__imports_8h__incl_org.svg" target="_base">
           <rect id="button" ry="5" rx="5" y="6" x="6" height="38" width="38"
                fill="#f2f5e9" fill-opacity="0.5" stroke="#606060" stroke-width="1.0"/>
           <path id="arrow"
             d="M 11.500037,31.436501 C 11.940474,20.09759 22.043105,11.32322 32.158766,21.979434 L 37.068811,17.246167 C 37.068811,17.246167 37.088388,32 37.088388,32 L 22.160133,31.978069 C 22.160133,31.978069 26.997745,27.140456 26.997745,27.140456 C 18.528582,18.264221 13.291696,25.230495 11.500037,31.436501 z"
             style="fill:#404040;"/>
          </a>
         </g>
        </svg>
</svg>
