<?xml version="1.0" encoding="UTF-8" standalone="no"?>
<!DOCTYPE svg PUBLIC "-//W3C//DTD SVG 1.1//EN"
 "http://www.w3.org/Graphics/SVG/1.1/DTD/svg11.dtd">
<!-- Generated by graphviz version 2.40.1 (20161225.0304)
 -->
<!-- Title: iop/system/alloc/src/irx_imports.h Pages: 1 -->
<svg width="379pt" height="263pt"
 viewBox="0.00 0.00 378.50 263.00" xmlns="http://www.w3.org/2000/svg" xmlns:xlink="http://www.w3.org/1999/xlink">
<g id="graph0" class="graph" transform="scale(1 1) rotate(0) translate(4 259)">
<title>iop/system/alloc/src/irx_imports.h</title>
<polygon fill="#ffffff" stroke="transparent" points="-4,4 -4,-259 374.5,-259 374.5,4 -4,4"/>
<!-- Node1 -->
<g id="node1" class="node">
<title>Node1</title>
<g id="a_node1"><a xlink:title=" ">
<polygon fill="#bfbfbf" stroke="#000000" points="125,-224.5 125,-254.5 239,-254.5 239,-224.5 125,-224.5"/>
<text text-anchor="start" x="133" y="-242.5" font-family="Helvetica,sans-Serif" font-size="10.00" fill="#000000">iop/system/alloc/src</text>
<text text-anchor="middle" x="182" y="-231.5" font-family="Helvetica,sans-Serif" font-size="10.00" fill="#000000">/irx_imports.h</text>
</a>
</g>
</g>
<!-- Node2 -->
<g id="node2" class="node">
<title>Node2</title>
<g id="a_node2"><a xlink:href="irx_8h.html" target="_top" xlink:title=" ">
<polygon fill="#ffffff" stroke="#000000" points="148,-112.5 148,-131.5 186,-131.5 186,-112.5 148,-112.5"/>
<text text-anchor="middle" x="167" y="-119.5" font-family="Helvetica,sans-Serif" font-size="10.00" fill="#000000">irx.h</text>
</a>
</g>
</g>
<!-- Node1&#45;&gt;Node2 -->
<g id="edge1" class="edge">
<title>Node1&#45;&gt;Node2</title>
<path fill="none" stroke="#191970" d="M180.039,-224.1389C177.3365,-202.9692 172.4661,-164.8174 169.5036,-141.6112"/>
<polygon fill="#191970" stroke="#191970" points="172.9586,-141.0357 168.2204,-131.5595 166.0149,-141.9222 172.9586,-141.0357"/>
</g>
<!-- Node6 -->
<g id="node6" class="node">
<title>Node6</title>
<g id="a_node6"><a xlink:href="loadcore_8h.html" target="_top" xlink:title=" ">
<polygon fill="#ffffff" stroke="#000000" points="86,-168.5 86,-187.5 154,-187.5 154,-168.5 86,-168.5"/>
<text text-anchor="middle" x="120" y="-175.5" font-family="Helvetica,sans-Serif" font-size="10.00" fill="#000000">loadcore.h</text>
</a>
</g>
</g>
<!-- Node1&#45;&gt;Node6 -->
<g id="edge5" class="edge">
<title>Node1&#45;&gt;Node6</title>
<path fill="none" stroke="#191970" d="M166.6742,-224.2977C157.7093,-215.4052 146.3712,-204.1586 137.1149,-194.9769"/>
<polygon fill="#191970" stroke="#191970" points="139.4915,-192.4045 129.927,-187.8469 134.5618,-197.3742 139.4915,-192.4045"/>
</g>
<!-- Node7 -->
<g id="node7" class="node">
<title>Node7</title>
<g id="a_node7"><a xlink:href="sysmem_8h.html" target="_top" xlink:title=" ">
<polygon fill="#ffffff" stroke="#000000" points="210,-168.5 210,-187.5 278,-187.5 278,-168.5 210,-168.5"/>
<text text-anchor="middle" x="244" y="-175.5" font-family="Helvetica,sans-Serif" font-size="10.00" fill="#000000">sysmem.h</text>
</a>
</g>
</g>
<!-- Node1&#45;&gt;Node7 -->
<g id="edge8" class="edge">
<title>Node1&#45;&gt;Node7</title>
<path fill="none" stroke="#191970" d="M197.3258,-224.2977C206.2907,-215.4052 217.6288,-204.1586 226.8851,-194.9769"/>
<polygon fill="#191970" stroke="#191970" points="229.4382,-197.3742 234.073,-187.8469 224.5085,-192.4045 229.4382,-197.3742"/>
</g>
<!-- Node9 -->
<g id="node9" class="node">
<title>Node9</title>
<g id="a_node9"><a xlink:href="sysclib_8h.html" target="_top" xlink:title=" ">
<polygon fill="#ffffff" stroke="#000000" points="296.5,-168.5 296.5,-187.5 355.5,-187.5 355.5,-168.5 296.5,-168.5"/>
<text text-anchor="middle" x="326" y="-175.5" font-family="Helvetica,sans-Serif" font-size="10.00" fill="#000000">sysclib.h</text>
</a>
</g>
</g>
<!-- Node1&#45;&gt;Node9 -->
<g id="edge12" class="edge">
<title>Node1&#45;&gt;Node9</title>
<path fill="none" stroke="#191970" d="M217.2264,-224.4554C240.8316,-214.374 271.6454,-201.2139 294.4476,-191.4755"/>
<polygon fill="#191970" stroke="#191970" points="295.8634,-194.6767 303.6851,-187.5303 293.114,-188.2393 295.8634,-194.6767"/>
</g>
<!-- Node11 -->
<g id="node11" class="node">
<title>Node11</title>
<g id="a_node11"><a xlink:href="thsemap_8h.html" target="_top" xlink:title=" ">
<polygon fill="#ffffff" stroke="#000000" points="0,-168.5 0,-187.5 68,-187.5 68,-168.5 0,-168.5"/>
<text text-anchor="middle" x="34" y="-175.5" font-family="Helvetica,sans-Serif" font-size="10.00" fill="#000000">thsemap.h</text>
</a>
</g>
</g>
<!-- Node1&#45;&gt;Node11 -->
<g id="edge18" class="edge">
<title>Node1&#45;&gt;Node11</title>
<path fill="none" stroke="#191970" d="M145.7951,-224.4554C121.5342,-214.374 89.8644,-201.2139 66.4288,-191.4755"/>
<polygon fill="#191970" stroke="#191970" points="67.5123,-188.1356 56.9347,-187.5303 64.8261,-194.5997 67.5123,-188.1356"/>
</g>
<!-- Node3 -->
<g id="node3" class="node">
<title>Node3</title>
<g id="a_node3"><a xlink:href="types_8h.html" target="_top" xlink:title=" ">
<polygon fill="#ffffff" stroke="#000000" points="163.5,-56.5 163.5,-75.5 216.5,-75.5 216.5,-56.5 163.5,-56.5"/>
<text text-anchor="middle" x="190" y="-63.5" font-family="Helvetica,sans-Serif" font-size="10.00" fill="#000000">types.h</text>
</a>
</g>
</g>
<!-- Node2&#45;&gt;Node3 -->
<g id="edge2" class="edge">
<title>Node2&#45;&gt;Node3</title>
<path fill="none" stroke="#191970" d="M171.0063,-112.2455C174.0735,-104.7776 178.4003,-94.2427 182.1497,-85.1137"/>
<polygon fill="#191970" stroke="#191970" points="185.4779,-86.2226 186.0396,-75.6427 179.0028,-83.5631 185.4779,-86.2226"/>
</g>
<!-- Node4 -->
<g id="node4" class="node">
<title>Node4</title>
<g id="a_node4"><a xlink:title=" ">
<polygon fill="#ffffff" stroke="#bfbfbf" points="162,-.5 162,-19.5 218,-19.5 218,-.5 162,-.5"/>
<text text-anchor="middle" x="190" y="-7.5" font-family="Helvetica,sans-Serif" font-size="10.00" fill="#000000">stddef.h</text>
</a>
</g>
</g>
<!-- Node3&#45;&gt;Node4 -->
<g id="edge3" class="edge">
<title>Node3&#45;&gt;Node4</title>
<path fill="none" stroke="#191970" d="M190,-56.2455C190,-48.9382 190,-38.6944 190,-29.7046"/>
<polygon fill="#191970" stroke="#191970" points="193.5001,-29.6426 190,-19.6427 186.5001,-29.6427 193.5001,-29.6426"/>
</g>
<!-- Node5 -->
<g id="node5" class="node">
<title>Node5</title>
<g id="a_node5"><a xlink:href="tamtypes_8h.html" target="_top" xlink:title=" ">
<polygon fill="#ffffff" stroke="#000000" points="282,-.5 282,-19.5 354,-19.5 354,-.5 282,-.5"/>
<text text-anchor="middle" x="318" y="-7.5" font-family="Helvetica,sans-Serif" font-size="10.00" fill="#000000">tamtypes.h</text>
</a>
</g>
</g>
<!-- Node3&#45;&gt;Node5 -->
<g id="edge4" class="edge">
<title>Node3&#45;&gt;Node5</title>
<path fill="none" stroke="#191970" d="M212.004,-56.3733C232.6435,-47.3435 263.7158,-33.7494 286.8889,-23.6111"/>
<polygon fill="#191970" stroke="#191970" points="288.5245,-26.7159 296.2831,-19.5011 285.7187,-20.3028 288.5245,-26.7159"/>
</g>
<!-- Node6&#45;&gt;Node2 -->
<g id="edge7" class="edge">
<title>Node6&#45;&gt;Node2</title>
<path fill="none" stroke="#191970" d="M128.1868,-168.2455C134.8589,-160.2958 144.4479,-148.8706 152.4253,-139.3656"/>
<polygon fill="#191970" stroke="#191970" points="155.1592,-141.5525 158.907,-131.6427 149.7974,-137.0524 155.1592,-141.5525"/>
</g>
<!-- Node6&#45;&gt;Node3 -->
<g id="edge6" class="edge">
<title>Node6&#45;&gt;Node3</title>
<path fill="none" stroke="#191970" d="M121.0839,-168.365C122.9595,-154.8759 127.7512,-129.998 139,-112 146.307,-100.3089 157.4172,-89.7947 167.4046,-81.7793"/>
<polygon fill="#191970" stroke="#191970" points="169.5941,-84.5112 175.4218,-75.6631 165.3483,-78.9458 169.5941,-84.5112"/>
</g>
<!-- Node7&#45;&gt;Node2 -->
<g id="edge10" class="edge">
<title>Node7&#45;&gt;Node2</title>
<path fill="none" stroke="#191970" d="M230.5876,-168.2455C218.9943,-159.814 202.0252,-147.4729 188.5322,-137.6598"/>
<polygon fill="#191970" stroke="#191970" points="190.4047,-134.6938 180.2587,-131.6427 186.2874,-140.355 190.4047,-134.6938"/>
</g>
<!-- Node7&#45;&gt;Node3 -->
<g id="edge9" class="edge">
<title>Node7&#45;&gt;Node3</title>
<path fill="none" stroke="#191970" d="M239.396,-168.4509C230.4691,-149.936 210.6642,-108.8591 199.0251,-84.7187"/>
<polygon fill="#191970" stroke="#191970" points="202.0881,-83.0125 194.5924,-75.5249 195.7827,-86.0527 202.0881,-83.0125"/>
</g>
<!-- Node8 -->
<g id="node8" class="node">
<title>Node8</title>
<g id="a_node8"><a xlink:title=" ">
<polygon fill="#ffffff" stroke="#bfbfbf" points="242,-112.5 242,-131.5 298,-131.5 298,-112.5 242,-112.5"/>
<text text-anchor="middle" x="270" y="-119.5" font-family="Helvetica,sans-Serif" font-size="10.00" fill="#000000">stdarg.h</text>
</a>
</g>
</g>
<!-- Node7&#45;&gt;Node8 -->
<g id="edge11" class="edge">
<title>Node7&#45;&gt;Node8</title>
<path fill="none" stroke="#191970" d="M248.5289,-168.2455C252.0334,-160.6973 256.9927,-150.0158 261.2623,-140.8197"/>
<polygon fill="#191970" stroke="#191970" points="264.4864,-142.1867 265.523,-131.6427 258.1373,-139.2389 264.4864,-142.1867"/>
</g>
<!-- Node9&#45;&gt;Node2 -->
<g id="edge14" class="edge">
<title>Node9&#45;&gt;Node2</title>
<path fill="none" stroke="#191970" d="M298.6669,-168.3733C269.9149,-158.2468 224.8642,-142.3799 195.6324,-132.0844"/>
<polygon fill="#191970" stroke="#191970" points="196.6,-128.7145 186.0052,-128.6936 194.2745,-135.3169 196.6,-128.7145"/>
</g>
<!-- Node9&#45;&gt;Node3 -->
<g id="edge13" class="edge">
<title>Node9&#45;&gt;Node3</title>
<path fill="none" stroke="#191970" d="M325.7897,-168.2005C324.9696,-154.0551 321.4442,-127.8748 307,-112 286.1224,-89.0547 252.3618,-77.4084 226.4593,-71.5876"/>
<polygon fill="#191970" stroke="#191970" points="227.1077,-68.1478 216.6081,-69.5648 225.6996,-75.0048 227.1077,-68.1478"/>
</g>
<!-- Node9&#45;&gt;Node8 -->
<g id="edge15" class="edge">
<title>Node9&#45;&gt;Node8</title>
<path fill="none" stroke="#191970" d="M316.2455,-168.2455C308.1352,-160.1352 296.4075,-148.4075 286.7919,-138.7919"/>
<polygon fill="#191970" stroke="#191970" points="289.1887,-136.2389 279.6427,-131.6427 284.2389,-141.1887 289.1887,-136.2389"/>
</g>
<!-- Node10 -->
<g id="node10" class="node">
<title>Node10</title>
<g id="a_node10"><a xlink:href="setjmp_8h.html" target="_top" xlink:title=" ">
<polygon fill="#ffffff" stroke="#000000" points="311.5,-56.5 311.5,-75.5 370.5,-75.5 370.5,-56.5 311.5,-56.5"/>
<text text-anchor="middle" x="341" y="-63.5" font-family="Helvetica,sans-Serif" font-size="10.00" fill="#000000">setjmp.h</text>
</a>
</g>
</g>
<!-- Node9&#45;&gt;Node10 -->
<g id="edge16" class="edge">
<title>Node9&#45;&gt;Node10</title>
<path fill="none" stroke="#191970" d="M329.8177,-168.316C333.2277,-159.133 337.9858,-144.8658 340,-132 342.3854,-116.7634 342.5391,-99.3069 342.1484,-86.1753"/>
<polygon fill="#191970" stroke="#191970" points="345.6336,-85.7536 341.7072,-75.9131 338.64,-86.0543 345.6336,-85.7536"/>
</g>
<!-- Node10&#45;&gt;Node5 -->
<g id="edge17" class="edge">
<title>Node10&#45;&gt;Node5</title>
<path fill="none" stroke="#191970" d="M336.9937,-56.2455C333.9265,-48.7776 329.5997,-38.2427 325.8503,-29.1137"/>
<polygon fill="#191970" stroke="#191970" points="328.9972,-27.5631 321.9604,-19.6427 322.5221,-30.2226 328.9972,-27.5631"/>
</g>
<!-- Node11&#45;&gt;Node2 -->
<g id="edge20" class="edge">
<title>Node11&#45;&gt;Node2</title>
<path fill="none" stroke="#191970" d="M56.8635,-168.3733C79.4494,-158.8634 114.0589,-144.291 138.4416,-134.0246"/>
<polygon fill="#191970" stroke="#191970" points="140.021,-137.1573 147.8791,-130.0509 137.3045,-130.7058 140.021,-137.1573"/>
</g>
<!-- Node11&#45;&gt;Node3 -->
<g id="edge19" class="edge">
<title>Node11&#45;&gt;Node3</title>
<path fill="none" stroke="#191970" d="M47.3005,-168.4509C74.2404,-149.1094 135.4745,-105.1465 168.2848,-81.5904"/>
<polygon fill="#191970" stroke="#191970" points="170.6512,-84.2001 176.7332,-75.5249 166.5687,-78.5139 170.6512,-84.2001"/>
</g>
</g>
</svg>
