<?xml version="1.0" encoding="UTF-8" standalone="no"?>
<!DOCTYPE svg PUBLIC "-//W3C//DTD SVG 1.1//EN"
 "http://www.w3.org/Graphics/SVG/1.1/DTD/svg11.dtd">
<!-- Generated by graphviz version 2.40.1 (20161225.0304)
 -->
<!-- Title: iop/system/padman/src/irx_imports.h Pages: 1 -->
<svg width="865pt" height="319pt"
 viewBox="0.00 0.00 865.00 319.00" xmlns="http://www.w3.org/2000/svg" xmlns:xlink="http://www.w3.org/1999/xlink">
<g id="graph0" class="graph" transform="scale(1 1) rotate(0) translate(4 315)">
<title>iop/system/padman/src/irx_imports.h</title>
<polygon fill="#ffffff" stroke="transparent" points="-4,4 -4,-315 861,-315 861,4 -4,4"/>
<!-- Node1 -->
<g id="node1" class="node">
<title>Node1</title>
<g id="a_node1"><a xlink:title=" ">
<polygon fill="#bfbfbf" stroke="#000000" points="349,-280.5 349,-310.5 480,-310.5 480,-280.5 349,-280.5"/>
<text text-anchor="start" x="357" y="-298.5" font-family="Helvetica,sans-Serif" font-size="10.00" fill="#000000">iop/system/padman/src</text>
<text text-anchor="middle" x="414.5" y="-287.5" font-family="Helvetica,sans-Serif" font-size="10.00" fill="#000000">/irx_imports.h</text>
</a>
</g>
</g>
<!-- Node2 -->
<g id="node2" class="node">
<title>Node2</title>
<g id="a_node2"><a xlink:href="irx_8h.html" target="_top" xlink:title=" ">
<polygon fill="#ffffff" stroke="#000000" points="361.5,-112.5 361.5,-131.5 399.5,-131.5 399.5,-112.5 361.5,-112.5"/>
<text text-anchor="middle" x="380.5" y="-119.5" font-family="Helvetica,sans-Serif" font-size="10.00" fill="#000000">irx.h</text>
</a>
</g>
</g>
<!-- Node1&#45;&gt;Node2 -->
<g id="edge1" class="edge">
<title>Node1&#45;&gt;Node2</title>
<path fill="none" stroke="#191970" d="M383.3046,-280.3802C369.3335,-271.8126 354.2783,-259.6483 346.5,-244 329.23,-209.2567 351.9218,-164.4455 367.6905,-139.9528"/>
<polygon fill="#191970" stroke="#191970" points="370.6163,-141.874 373.2972,-131.624 364.8094,-137.965 370.6163,-141.874"/>
</g>
<!-- Node6 -->
<g id="node6" class="node">
<title>Node6</title>
<g id="a_node6"><a xlink:href="intrman_8h.html" target="_top" xlink:title=" ">
<polygon fill="#ffffff" stroke="#000000" points="235.5,-168.5 235.5,-187.5 299.5,-187.5 299.5,-168.5 235.5,-168.5"/>
<text text-anchor="middle" x="267.5" y="-175.5" font-family="Helvetica,sans-Serif" font-size="10.00" fill="#000000">intrman.h</text>
</a>
</g>
</g>
<!-- Node1&#45;&gt;Node6 -->
<g id="edge5" class="edge">
<title>Node1&#45;&gt;Node6</title>
<path fill="none" stroke="#191970" d="M374.3482,-280.4775C354.6117,-271.8034 331.3065,-259.5176 313.5,-244 298.1006,-230.58 285.2831,-210.9529 277.1235,-196.5907"/>
<polygon fill="#191970" stroke="#191970" points="280.1002,-194.7384 272.2441,-187.6298 273.9525,-198.086 280.1002,-194.7384"/>
</g>
<!-- Node7 -->
<g id="node7" class="node">
<title>Node7</title>
<g id="a_node7"><a xlink:href="loadcore_8h.html" target="_top" xlink:title=" ">
<polygon fill="#ffffff" stroke="#000000" points="393.5,-168.5 393.5,-187.5 461.5,-187.5 461.5,-168.5 393.5,-168.5"/>
<text text-anchor="middle" x="427.5" y="-175.5" font-family="Helvetica,sans-Serif" font-size="10.00" fill="#000000">loadcore.h</text>
</a>
</g>
</g>
<!-- Node1&#45;&gt;Node7 -->
<g id="edge8" class="edge">
<title>Node1&#45;&gt;Node7</title>
<path fill="none" stroke="#191970" d="M417.6307,-280.2424C419.6117,-270.0284 422.0619,-256.2599 423.5,-244 425.2999,-228.6565 426.3128,-211.2055 426.8688,-198.1031"/>
<polygon fill="#191970" stroke="#191970" points="430.3751,-197.9934 427.248,-187.8706 423.3799,-197.7341 430.3751,-197.9934"/>
</g>
<!-- Node8 -->
<g id="node8" class="node">
<title>Node8</title>
<g id="a_node8"><a xlink:href="sifcmd_8h.html" target="_top" xlink:title=" ">
<polygon fill="#ffffff" stroke="#000000" points="480,-168.5 480,-187.5 539,-187.5 539,-168.5 480,-168.5"/>
<text text-anchor="middle" x="509.5" y="-175.5" font-family="Helvetica,sans-Serif" font-size="10.00" fill="#000000">sifcmd.h</text>
</a>
</g>
</g>
<!-- Node1&#45;&gt;Node8 -->
<g id="edge11" class="edge">
<title>Node1&#45;&gt;Node8</title>
<path fill="none" stroke="#191970" d="M426.9196,-280.1389C444.5801,-258.2957 476.8585,-218.3724 495.3976,-195.4424"/>
<polygon fill="#191970" stroke="#191970" points="498.2055,-197.5363 501.7711,-187.5595 492.7621,-193.1353 498.2055,-197.5363"/>
</g>
<!-- Node9 -->
<g id="node9" class="node">
<title>Node9</title>
<g id="a_node9"><a xlink:href="sifman_8h.html" target="_top" xlink:title=" ">
<polygon fill="#ffffff" stroke="#000000" points="0,-168.5 0,-187.5 59,-187.5 59,-168.5 0,-168.5"/>
<text text-anchor="middle" x="29.5" y="-175.5" font-family="Helvetica,sans-Serif" font-size="10.00" fill="#000000">sifman.h</text>
</a>
</g>
</g>
<!-- Node1&#45;&gt;Node9 -->
<g id="edge14" class="edge">
<title>Node1&#45;&gt;Node9</title>
<path fill="none" stroke="#191970" d="M348.8622,-281.2716C307.6581,-271.8424 253.5932,-258.558 206.5,-244 155.0906,-228.1077 96.8727,-205.4757 61.6911,-191.2712"/>
<polygon fill="#191970" stroke="#191970" points="62.986,-188.0195 52.4038,-187.5009 60.3529,-194.5054 62.986,-188.0195"/>
</g>
<!-- Node10 -->
<g id="node10" class="node">
<title>Node10</title>
<g id="a_node10"><a xlink:href="stdio_8h.html" target="_top" xlink:title=" ">
<polygon fill="#ffffff" stroke="#000000" points="557.5,-168.5 557.5,-187.5 607.5,-187.5 607.5,-168.5 557.5,-168.5"/>
<text text-anchor="middle" x="582.5" y="-175.5" font-family="Helvetica,sans-Serif" font-size="10.00" fill="#000000">stdio.h</text>
</a>
</g>
</g>
<!-- Node1&#45;&gt;Node10 -->
<g id="edge17" class="edge">
<title>Node1&#45;&gt;Node10</title>
<path fill="none" stroke="#191970" d="M436.1191,-280.3795C468.1973,-257.9439 528.081,-216.0609 560.422,-193.4415"/>
<polygon fill="#191970" stroke="#191970" points="562.5788,-196.2041 568.7675,-187.6046 558.5668,-190.4679 562.5788,-196.2041"/>
</g>
<!-- Node12 -->
<g id="node12" class="node">
<title>Node12</title>
<g id="a_node12"><a xlink:href="sysclib_8h.html" target="_top" xlink:title=" ">
<polygon fill="#ffffff" stroke="#000000" points="798,-168.5 798,-187.5 857,-187.5 857,-168.5 798,-168.5"/>
<text text-anchor="middle" x="827.5" y="-175.5" font-family="Helvetica,sans-Serif" font-size="10.00" fill="#000000">sysclib.h</text>
</a>
</g>
</g>
<!-- Node1&#45;&gt;Node12 -->
<g id="edge20" class="edge">
<title>Node1&#45;&gt;Node12</title>
<path fill="none" stroke="#191970" d="M480.1277,-290.9485C567.3882,-284.0324 716.2215,-268.9733 764.5,-244 786.1409,-232.8057 804.5196,-211.2374 815.7438,-195.8022"/>
<polygon fill="#191970" stroke="#191970" points="818.6503,-197.7531 821.4963,-187.5476 812.9073,-193.7508 818.6503,-197.7531"/>
</g>
<!-- Node14 -->
<g id="node14" class="node">
<title>Node14</title>
<g id="a_node14"><a xlink:href="thbase_8h.html" target="_top" xlink:title=" ">
<polygon fill="#ffffff" stroke="#000000" points="77,-168.5 77,-187.5 136,-187.5 136,-168.5 77,-168.5"/>
<text text-anchor="middle" x="106.5" y="-175.5" font-family="Helvetica,sans-Serif" font-size="10.00" fill="#000000">thbase.h</text>
</a>
</g>
</g>
<!-- Node1&#45;&gt;Node14 -->
<g id="edge26" class="edge">
<title>Node1&#45;&gt;Node14</title>
<path fill="none" stroke="#191970" d="M363.5489,-280.4725C332.1201,-270.8398 291.1411,-257.6236 255.5,-244 213.2369,-227.8451 165.6306,-206.1179 135.8497,-192.0847"/>
<polygon fill="#191970" stroke="#191970" points="137.0026,-188.758 126.4669,-187.6398 134.0057,-195.0841 137.0026,-188.758"/>
</g>
<!-- Node15 -->
<g id="node15" class="node">
<title>Node15</title>
<g id="a_node15"><a xlink:href="thevent_8h.html" target="_top" xlink:title=" ">
<polygon fill="#ffffff" stroke="#000000" points="154,-168.5 154,-187.5 217,-187.5 217,-168.5 154,-168.5"/>
<text text-anchor="middle" x="185.5" y="-175.5" font-family="Helvetica,sans-Serif" font-size="10.00" fill="#000000">thevent.h</text>
</a>
</g>
</g>
<!-- Node1&#45;&gt;Node15 -->
<g id="edge29" class="edge">
<title>Node1&#45;&gt;Node15</title>
<path fill="none" stroke="#191970" d="M374.513,-280.4177C350.3485,-270.864 319.1663,-257.7497 292.5,-244 262.286,-228.4209 229.2304,-207.3686 207.9745,-193.2695"/>
<polygon fill="#191970" stroke="#191970" points="209.8881,-190.3387 199.63,-187.6889 205.9967,-196.1574 209.8881,-190.3387"/>
</g>
<!-- Node16 -->
<g id="node16" class="node">
<title>Node16</title>
<g id="a_node16"><a xlink:href="vblank_8h.html" target="_top" xlink:title=" ">
<polygon fill="#ffffff" stroke="#000000" points="356,-224.5 356,-243.5 415,-243.5 415,-224.5 356,-224.5"/>
<text text-anchor="middle" x="385.5" y="-231.5" font-family="Helvetica,sans-Serif" font-size="10.00" fill="#000000">vblank.h</text>
</a>
</g>
</g>
<!-- Node1&#45;&gt;Node16 -->
<g id="edge32" class="edge">
<title>Node1&#45;&gt;Node16</title>
<path fill="none" stroke="#191970" d="M407.3315,-280.2977C403.4318,-272.0277 398.572,-261.7215 394.4282,-252.9339"/>
<polygon fill="#191970" stroke="#191970" points="397.5741,-251.399 390.1433,-243.8469 391.2427,-254.3846 397.5741,-251.399"/>
</g>
<!-- Node17 -->
<g id="node17" class="node">
<title>Node17</title>
<g id="a_node17"><a xlink:href="xsio2man_8h.html" target="_top" xlink:title=" ">
<polygon fill="#ffffff" stroke="#000000" points="681.5,-224.5 681.5,-243.5 755.5,-243.5 755.5,-224.5 681.5,-224.5"/>
<text text-anchor="middle" x="718.5" y="-231.5" font-family="Helvetica,sans-Serif" font-size="10.00" fill="#000000">xsio2man.h</text>
</a>
</g>
</g>
<!-- Node1&#45;&gt;Node17 -->
<g id="edge34" class="edge">
<title>Node1&#45;&gt;Node17</title>
<path fill="none" stroke="#191970" d="M480.0892,-282.2311C537.6895,-270.5784 620.0801,-253.9106 671.3765,-243.5332"/>
<polygon fill="#191970" stroke="#191970" points="672.0972,-246.9584 681.2046,-241.545 670.7091,-240.0974 672.0972,-246.9584"/>
</g>
<!-- Node20 -->
<g id="node20" class="node">
<title>Node20</title>
<g id="a_node20"><a xlink:href="sysmem_8h.html" target="_top" xlink:title=" ">
<polygon fill="#ffffff" stroke="#000000" points="625.5,-168.5 625.5,-187.5 693.5,-187.5 693.5,-168.5 625.5,-168.5"/>
<text text-anchor="middle" x="659.5" y="-175.5" font-family="Helvetica,sans-Serif" font-size="10.00" fill="#000000">sysmem.h</text>
</a>
</g>
</g>
<!-- Node1&#45;&gt;Node20 -->
<g id="edge38" class="edge">
<title>Node1&#45;&gt;Node20</title>
<path fill="none" stroke="#191970" d="M446.0279,-280.3795C493.8081,-257.4645 583.8896,-214.2622 630.2704,-192.0183"/>
<polygon fill="#191970" stroke="#191970" points="631.9702,-195.0848 639.4734,-187.6046 628.9432,-188.7731 631.9702,-195.0848"/>
</g>
<!-- Node3 -->
<g id="node3" class="node">
<title>Node3</title>
<g id="a_node3"><a xlink:href="types_8h.html" target="_top" xlink:title=" ">
<polygon fill="#ffffff" stroke="#000000" points="377,-56.5 377,-75.5 430,-75.5 430,-56.5 377,-56.5"/>
<text text-anchor="middle" x="403.5" y="-63.5" font-family="Helvetica,sans-Serif" font-size="10.00" fill="#000000">types.h</text>
</a>
</g>
</g>
<!-- Node2&#45;&gt;Node3 -->
<g id="edge2" class="edge">
<title>Node2&#45;&gt;Node3</title>
<path fill="none" stroke="#191970" d="M384.5063,-112.2455C387.5735,-104.7776 391.9003,-94.2427 395.6497,-85.1137"/>
<polygon fill="#191970" stroke="#191970" points="398.9779,-86.2226 399.5396,-75.6427 392.5028,-83.5631 398.9779,-86.2226"/>
</g>
<!-- Node4 -->
<g id="node4" class="node">
<title>Node4</title>
<g id="a_node4"><a xlink:title=" ">
<polygon fill="#ffffff" stroke="#bfbfbf" points="375.5,-.5 375.5,-19.5 431.5,-19.5 431.5,-.5 375.5,-.5"/>
<text text-anchor="middle" x="403.5" y="-7.5" font-family="Helvetica,sans-Serif" font-size="10.00" fill="#000000">stddef.h</text>
</a>
</g>
</g>
<!-- Node3&#45;&gt;Node4 -->
<g id="edge3" class="edge">
<title>Node3&#45;&gt;Node4</title>
<path fill="none" stroke="#191970" d="M403.5,-56.2455C403.5,-48.9382 403.5,-38.6944 403.5,-29.7046"/>
<polygon fill="#191970" stroke="#191970" points="407.0001,-29.6426 403.5,-19.6427 400.0001,-29.6427 407.0001,-29.6426"/>
</g>
<!-- Node5 -->
<g id="node5" class="node">
<title>Node5</title>
<g id="a_node5"><a xlink:href="tamtypes_8h.html" target="_top" xlink:title=" ">
<polygon fill="#ffffff" stroke="#000000" points="620.5,-.5 620.5,-19.5 692.5,-19.5 692.5,-.5 620.5,-.5"/>
<text text-anchor="middle" x="656.5" y="-7.5" font-family="Helvetica,sans-Serif" font-size="10.00" fill="#000000">tamtypes.h</text>
</a>
</g>
</g>
<!-- Node3&#45;&gt;Node5 -->
<g id="edge4" class="edge">
<title>Node3&#45;&gt;Node5</title>
<path fill="none" stroke="#191970" d="M430.0972,-60.1129C472.8855,-50.642 557.5412,-31.9039 610.3405,-20.2171"/>
<polygon fill="#191970" stroke="#191970" points="611.1252,-23.6282 620.1324,-18.0497 609.6123,-16.7937 611.1252,-23.6282"/>
</g>
<!-- Node6&#45;&gt;Node2 -->
<g id="edge7" class="edge">
<title>Node6&#45;&gt;Node2</title>
<path fill="none" stroke="#191970" d="M286.9254,-168.3733C304.9021,-159.4644 331.8441,-146.1127 352.209,-136.0203"/>
<polygon fill="#191970" stroke="#191970" points="353.9222,-139.0776 361.3281,-131.5011 350.8139,-132.8055 353.9222,-139.0776"/>
</g>
<!-- Node6&#45;&gt;Node3 -->
<g id="edge6" class="edge">
<title>Node6&#45;&gt;Node3</title>
<path fill="none" stroke="#191970" d="M279.0953,-168.4509C302.481,-149.1921 355.5092,-105.5218 384.2008,-81.8935"/>
<polygon fill="#191970" stroke="#191970" points="386.4397,-84.5838 391.9341,-75.5249 381.9898,-79.1802 386.4397,-84.5838"/>
</g>
<!-- Node7&#45;&gt;Node2 -->
<g id="edge10" class="edge">
<title>Node7&#45;&gt;Node2</title>
<path fill="none" stroke="#191970" d="M419.3132,-168.2455C412.6411,-160.2958 403.0521,-148.8706 395.0747,-139.3656"/>
<polygon fill="#191970" stroke="#191970" points="397.7026,-137.0524 388.593,-131.6427 392.3408,-141.5525 397.7026,-137.0524"/>
</g>
<!-- Node7&#45;&gt;Node3 -->
<g id="edge9" class="edge">
<title>Node7&#45;&gt;Node3</title>
<path fill="none" stroke="#191970" d="M425.4538,-168.4509C421.5217,-150.1013 412.8409,-109.5908 407.6506,-85.3693"/>
<polygon fill="#191970" stroke="#191970" points="411.0587,-84.5695 405.541,-75.5249 404.2141,-86.0363 411.0587,-84.5695"/>
</g>
<!-- Node8&#45;&gt;Node2 -->
<g id="edge13" class="edge">
<title>Node8&#45;&gt;Node2</title>
<path fill="none" stroke="#191970" d="M487.3241,-168.3733C465.767,-159.0151 432.917,-144.7547 409.3389,-134.5192"/>
<polygon fill="#191970" stroke="#191970" points="410.4284,-131.1766 399.8617,-130.4051 407.6409,-137.5977 410.4284,-131.1766"/>
</g>
<!-- Node8&#45;&gt;Node3 -->
<g id="edge12" class="edge">
<title>Node8&#45;&gt;Node3</title>
<path fill="none" stroke="#191970" d="M500.4625,-168.4509C482.4701,-149.4401 441.9651,-106.6423 419.4152,-82.816"/>
<polygon fill="#191970" stroke="#191970" points="421.9305,-80.382 412.5146,-75.5249 416.8465,-85.1937 421.9305,-80.382"/>
</g>
<!-- Node9&#45;&gt;Node2 -->
<g id="edge16" class="edge">
<title>Node9&#45;&gt;Node2</title>
<path fill="none" stroke="#191970" d="M59.2969,-169.8232C62.0608,-169.1663 64.8265,-168.5465 67.5,-168 170.9188,-146.8613 295.4644,-131.536 351.129,-125.2093"/>
<polygon fill="#191970" stroke="#191970" points="351.77,-128.6594 361.3168,-124.0649 350.9886,-121.7032 351.77,-128.6594"/>
</g>
<!-- Node9&#45;&gt;Node3 -->
<g id="edge15" class="edge">
<title>Node9&#45;&gt;Node3</title>
<path fill="none" stroke="#191970" d="M55.197,-168.4722C91.9847,-155.002 161.9144,-130.026 222.5,-112 272.2098,-97.2099 330.4661,-82.9429 367.18,-74.3199"/>
<polygon fill="#191970" stroke="#191970" points="367.9965,-77.7235 376.939,-72.0417 366.4051,-70.9068 367.9965,-77.7235"/>
</g>
<!-- Node10&#45;&gt;Node2 -->
<g id="edge19" class="edge">
<title>Node10&#45;&gt;Node2</title>
<path fill="none" stroke="#191970" d="M557.2731,-170.7613C553.9867,-169.8274 550.664,-168.8877 547.5,-168 499.1648,-154.4384 442.8561,-139.0035 409.5255,-129.9051"/>
<polygon fill="#191970" stroke="#191970" points="410.1192,-126.4392 399.5505,-127.1841 408.2769,-133.1925 410.1192,-126.4392"/>
</g>
<!-- Node11 -->
<g id="node11" class="node">
<title>Node11</title>
<g id="a_node11"><a xlink:title=" ">
<polygon fill="#ffffff" stroke="#bfbfbf" points="575.5,-112.5 575.5,-131.5 631.5,-131.5 631.5,-112.5 575.5,-112.5"/>
<text text-anchor="middle" x="603.5" y="-119.5" font-family="Helvetica,sans-Serif" font-size="10.00" fill="#000000">stdarg.h</text>
</a>
</g>
</g>
<!-- Node10&#45;&gt;Node11 -->
<g id="edge18" class="edge">
<title>Node10&#45;&gt;Node11</title>
<path fill="none" stroke="#191970" d="M586.1579,-168.2455C588.9584,-160.7776 592.909,-150.2427 596.3324,-141.1137"/>
<polygon fill="#191970" stroke="#191970" points="599.6499,-142.2349 599.884,-131.6427 593.0955,-139.777 599.6499,-142.2349"/>
</g>
<!-- Node12&#45;&gt;Node2 -->
<g id="edge22" class="edge">
<title>Node12&#45;&gt;Node2</title>
<path fill="none" stroke="#191970" d="M797.7837,-169.9277C794.6622,-169.2156 791.5249,-168.5556 788.5,-168 648.038,-142.2026 477.5408,-128.6099 410.0484,-123.9191"/>
<polygon fill="#191970" stroke="#191970" points="409.972,-120.4059 399.7571,-123.2179 409.4961,-127.3897 409.972,-120.4059"/>
</g>
<!-- Node12&#45;&gt;Node3 -->
<g id="edge21" class="edge">
<title>Node12&#45;&gt;Node3</title>
<path fill="none" stroke="#191970" d="M822.3378,-168.3949C813.7608,-153.492 795.0592,-125.149 770.5,-112 713.8839,-81.6877 521.6963,-70.6614 440.3509,-67.2885"/>
<polygon fill="#191970" stroke="#191970" points="440.2182,-63.7805 430.0867,-66.8794 439.9394,-70.7749 440.2182,-63.7805"/>
</g>
<!-- Node12&#45;&gt;Node11 -->
<g id="edge23" class="edge">
<title>Node12&#45;&gt;Node11</title>
<path fill="none" stroke="#191970" d="M797.6952,-170.3339C794.5909,-169.5426 791.4819,-168.753 788.5,-168 737.7572,-155.1861 679.1139,-140.6509 641.692,-131.4101"/>
<polygon fill="#191970" stroke="#191970" points="642.2713,-127.9482 631.724,-128.95 640.594,-134.7442 642.2713,-127.9482"/>
</g>
<!-- Node13 -->
<g id="node13" class="node">
<title>Node13</title>
<g id="a_node13"><a xlink:href="setjmp_8h.html" target="_top" xlink:title=" ">
<polygon fill="#ffffff" stroke="#000000" points="712,-56.5 712,-75.5 771,-75.5 771,-56.5 712,-56.5"/>
<text text-anchor="middle" x="741.5" y="-63.5" font-family="Helvetica,sans-Serif" font-size="10.00" fill="#000000">setjmp.h</text>
</a>
</g>
</g>
<!-- Node12&#45;&gt;Node13 -->
<g id="edge24" class="edge">
<title>Node12&#45;&gt;Node13</title>
<path fill="none" stroke="#191970" d="M825.7862,-168.1982C823.0075,-154.5111 816.4715,-129.3994 803.5,-112 794.2437,-99.584 780.7124,-89.0048 768.6509,-81.1338"/>
<polygon fill="#191970" stroke="#191970" points="770.1534,-77.9475 759.8091,-75.6571 766.4674,-83.8984 770.1534,-77.9475"/>
</g>
<!-- Node13&#45;&gt;Node5 -->
<g id="edge25" class="edge">
<title>Node13&#45;&gt;Node5</title>
<path fill="none" stroke="#191970" d="M726.6941,-56.2455C713.7744,-47.7337 694.8069,-35.2375 679.8448,-25.3801"/>
<polygon fill="#191970" stroke="#191970" points="681.4124,-22.2216 671.1362,-19.6427 677.5613,-28.067 681.4124,-22.2216"/>
</g>
<!-- Node14&#45;&gt;Node2 -->
<g id="edge28" class="edge">
<title>Node14&#45;&gt;Node2</title>
<path fill="none" stroke="#191970" d="M136.3256,-169.9559C139.0835,-169.2711 141.84,-168.6086 144.5,-168 218.7135,-151.0212 306.9641,-134.8876 351.5851,-127.0123"/>
<polygon fill="#191970" stroke="#191970" points="352.2016,-130.4577 361.4458,-125.2813 350.9912,-123.5631 352.2016,-130.4577"/>
</g>
<!-- Node14&#45;&gt;Node3 -->
<g id="edge27" class="edge">
<title>Node14&#45;&gt;Node3</title>
<path fill="none" stroke="#191970" d="M130.7996,-168.4602C163.9055,-155.5001 225.0676,-131.6876 277.5,-112 307.7165,-100.6541 342.1479,-88.11 367.3729,-78.9909"/>
<polygon fill="#191970" stroke="#191970" points="368.6829,-82.2391 376.9002,-75.5512 366.3058,-75.655 368.6829,-82.2391"/>
</g>
<!-- Node15&#45;&gt;Node2 -->
<g id="edge31" class="edge">
<title>Node15&#45;&gt;Node2</title>
<path fill="none" stroke="#191970" d="M217.2641,-168.878C254.4914,-158.1871 315.651,-140.6233 351.5973,-130.3003"/>
<polygon fill="#191970" stroke="#191970" points="352.8126,-133.5928 361.458,-127.4685 350.8804,-126.8647 352.8126,-133.5928"/>
</g>
<!-- Node15&#45;&gt;Node3 -->
<g id="edge30" class="edge">
<title>Node15&#45;&gt;Node3</title>
<path fill="none" stroke="#191970" d="M204.0866,-168.4509C242.5379,-148.6961 330.9828,-103.2565 376.0383,-80.1088"/>
<polygon fill="#191970" stroke="#191970" points="377.6651,-83.2079 384.9605,-75.5249 374.4663,-76.9816 377.6651,-83.2079"/>
</g>
<!-- Node16&#45;&gt;Node2 -->
<g id="edge33" class="edge">
<title>Node16&#45;&gt;Node2</title>
<path fill="none" stroke="#191970" d="M385.0737,-224.4509C384.2582,-206.184 382.4623,-165.9553 381.3794,-141.6976"/>
<polygon fill="#191970" stroke="#191970" points="384.8678,-141.3588 380.9252,-131.5249 377.8748,-141.6711 384.8678,-141.3588"/>
</g>
<!-- Node18 -->
<g id="node18" class="node">
<title>Node18</title>
<g id="a_node18"><a xlink:href="sio2man_8h.html" target="_top" xlink:title=" ">
<polygon fill="#ffffff" stroke="#000000" points="711.5,-168.5 711.5,-187.5 779.5,-187.5 779.5,-168.5 711.5,-168.5"/>
<text text-anchor="middle" x="745.5" y="-175.5" font-family="Helvetica,sans-Serif" font-size="10.00" fill="#000000">sio2man.h</text>
</a>
</g>
</g>
<!-- Node17&#45;&gt;Node18 -->
<g id="edge35" class="edge">
<title>Node17&#45;&gt;Node18</title>
<path fill="none" stroke="#191970" d="M723.203,-224.2455C726.8424,-216.6973 731.9924,-206.0158 736.4262,-196.8197"/>
<polygon fill="#191970" stroke="#191970" points="739.6605,-198.1704 740.8509,-187.6427 733.3551,-195.1303 739.6605,-198.1704"/>
</g>
<!-- Node18&#45;&gt;Node2 -->
<g id="edge37" class="edge">
<title>Node18&#45;&gt;Node2</title>
<path fill="none" stroke="#191970" d="M711.2888,-169.7623C708.323,-169.1337 705.3627,-168.5363 702.5,-168 595.344,-147.925 466.6815,-131.9675 409.891,-125.3342"/>
<polygon fill="#191970" stroke="#191970" points="410.1676,-121.8429 399.8313,-124.1693 409.3623,-128.7965 410.1676,-121.8429"/>
</g>
<!-- Node19 -->
<g id="node19" class="node">
<title>Node19</title>
<g id="a_node19"><a xlink:title=" ">
<polygon fill="#ffffff" stroke="#bfbfbf" points="708,-112.5 708,-131.5 761,-131.5 761,-112.5 708,-112.5"/>
<text text-anchor="middle" x="734.5" y="-119.5" font-family="Helvetica,sans-Serif" font-size="10.00" fill="#000000">types.h</text>
</a>
</g>
</g>
<!-- Node18&#45;&gt;Node19 -->
<g id="edge36" class="edge">
<title>Node18&#45;&gt;Node19</title>
<path fill="none" stroke="#191970" d="M743.5839,-168.2455C742.1486,-160.9382 740.1364,-150.6944 738.3705,-141.7046"/>
<polygon fill="#191970" stroke="#191970" points="741.756,-140.7805 736.3941,-131.6427 734.8873,-142.1298 741.756,-140.7805"/>
</g>
<!-- Node20&#45;&gt;Node2 -->
<g id="edge40" class="edge">
<title>Node20&#45;&gt;Node2</title>
<path fill="none" stroke="#191970" d="M625.2573,-169.9195C622.2983,-169.2568 619.3482,-168.6086 616.5,-168 542.0495,-152.0926 453.8995,-135.5038 409.3561,-127.2782"/>
<polygon fill="#191970" stroke="#191970" points="409.9819,-123.8346 399.5134,-125.4657 408.7142,-130.7189 409.9819,-123.8346"/>
</g>
<!-- Node20&#45;&gt;Node3 -->
<g id="edge39" class="edge">
<title>Node20&#45;&gt;Node3</title>
<path fill="none" stroke="#191970" d="M659.6682,-168.3164C659.3587,-153.8283 656.5094,-126.6505 640.5,-112 611.6952,-85.6404 499.2852,-73.2841 440.2207,-68.5103"/>
<polygon fill="#191970" stroke="#191970" points="440.4294,-65.0161 430.1883,-67.7311 439.8872,-71.9951 440.4294,-65.0161"/>
</g>
<!-- Node20&#45;&gt;Node11 -->
<g id="edge41" class="edge">
<title>Node20&#45;&gt;Node11</title>
<path fill="none" stroke="#191970" d="M649.7455,-168.2455C641.6352,-160.1352 629.9075,-148.4075 620.2919,-138.7919"/>
<polygon fill="#191970" stroke="#191970" points="622.6887,-136.2389 613.1427,-131.6427 617.7389,-141.1887 622.6887,-136.2389"/>
</g>
</g>
</svg>
