<?xml version="1.0" encoding="UTF-8" standalone="no"?>
<!DOCTYPE svg PUBLIC "-//W3C//DTD SVG 1.1//EN"
 "http://www.w3.org/Graphics/SVG/1.1/DTD/svg11.dtd">
<!-- Generated by graphviz version 2.40.1 (20161225.0304)
 -->
<!-- Title: iop/tcpip/tcpip&#45;netman/src/ps2ip.c Pages: 1 -->
<svg width="1575pt" height="263pt"
 viewBox="0.00 0.00 1574.50 263.00" xmlns="http://www.w3.org/2000/svg" xmlns:xlink="http://www.w3.org/1999/xlink">
<g id="graph0" class="graph" transform="scale(1 1) rotate(0) translate(4 259)">
<title>iop/tcpip/tcpip&#45;netman/src/ps2ip.c</title>
<polygon fill="#ffffff" stroke="transparent" points="-4,4 -4,-259 1570.5,-259 1570.5,4 -4,4"/>
<!-- Node1 -->
<g id="node1" class="node">
<title>Node1</title>
<g id="a_node1"><a xlink:title=" ">
<polygon fill="#bfbfbf" stroke="#000000" points="612.5,-224.5 612.5,-254.5 739.5,-254.5 739.5,-224.5 612.5,-224.5"/>
<text text-anchor="start" x="620.5" y="-242.5" font-family="Helvetica,sans-Serif" font-size="10.00" fill="#000000">iop/tcpip/tcpip&#45;netman</text>
<text text-anchor="middle" x="676" y="-231.5" font-family="Helvetica,sans-Serif" font-size="10.00" fill="#000000">/src/ps2ip.c</text>
</a>
</g>
</g>
<!-- Node2 -->
<g id="node2" class="node">
<title>Node2</title>
<g id="a_node2"><a xlink:title=" ">
<polygon fill="#ffffff" stroke="#bfbfbf" points="1001.5,-112.5 1001.5,-131.5 1054.5,-131.5 1054.5,-112.5 1001.5,-112.5"/>
<text text-anchor="middle" x="1028" y="-119.5" font-family="Helvetica,sans-Serif" font-size="10.00" fill="#000000">types.h</text>
</a>
</g>
</g>
<!-- Node1&#45;&gt;Node2 -->
<g id="edge1" class="edge">
<title>Node1&#45;&gt;Node2</title>
<path fill="none" stroke="#191970" d="M653.7352,-224.4578C634.1212,-209.4067 610.9741,-185.9693 627,-168 651.0552,-141.0276 896.7517,-127.6544 991.2457,-123.4783"/>
<polygon fill="#191970" stroke="#191970" points="991.6364,-126.9648 1001.4759,-123.0362 991.3341,-119.9713 991.6364,-126.9648"/>
</g>
<!-- Node3 -->
<g id="node3" class="node">
<title>Node3</title>
<g id="a_node3"><a xlink:href="stdio_8h.html" target="_top" xlink:title=" ">
<polygon fill="#ffffff" stroke="#000000" points="328,-168.5 328,-187.5 378,-187.5 378,-168.5 328,-168.5"/>
<text text-anchor="middle" x="353" y="-175.5" font-family="Helvetica,sans-Serif" font-size="10.00" fill="#000000">stdio.h</text>
</a>
</g>
</g>
<!-- Node1&#45;&gt;Node3 -->
<g id="edge2" class="edge">
<title>Node1&#45;&gt;Node3</title>
<path fill="none" stroke="#191970" d="M612.4486,-230.2293C555.8587,-221.5078 470.6821,-207.2398 387.979,-188.0405"/>
<polygon fill="#191970" stroke="#191970" points="388.7043,-184.6157 378.1689,-185.7369 387.104,-191.4304 388.7043,-184.6157"/>
</g>
<!-- Node9 -->
<g id="node9" class="node">
<title>Node9</title>
<g id="a_node9"><a xlink:href="intrman_8h.html" target="_top" xlink:title=" ">
<polygon fill="#ffffff" stroke="#000000" points="0,-168.5 0,-187.5 64,-187.5 64,-168.5 0,-168.5"/>
<text text-anchor="middle" x="32" y="-175.5" font-family="Helvetica,sans-Serif" font-size="10.00" fill="#000000">intrman.h</text>
</a>
</g>
</g>
<!-- Node1&#45;&gt;Node9 -->
<g id="edge8" class="edge">
<title>Node1&#45;&gt;Node9</title>
<path fill="none" stroke="#191970" d="M612.2275,-237.2821C503.5415,-232.7957 275.4392,-220.3129 74.0074,-187.9396"/>
<polygon fill="#191970" stroke="#191970" points="74.5652,-184.4844 64.1329,-186.333 73.441,-191.3935 74.5652,-184.4844"/>
</g>
<!-- Node10 -->
<g id="node10" class="node">
<title>Node10</title>
<g id="a_node10"><a xlink:href="netman_8h.html" target="_top" xlink:title=" ">
<polygon fill="#ffffff" stroke="#000000" points="538.5,-56.5 538.5,-75.5 601.5,-75.5 601.5,-56.5 538.5,-56.5"/>
<text text-anchor="middle" x="570" y="-63.5" font-family="Helvetica,sans-Serif" font-size="10.00" fill="#000000">netman.h</text>
</a>
</g>
</g>
<!-- Node1&#45;&gt;Node10 -->
<g id="edge11" class="edge">
<title>Node1&#45;&gt;Node10</title>
<path fill="none" stroke="#191970" d="M653.9821,-224.4451C641.7262,-215.1352 626.9762,-202.2602 617,-188 594.332,-155.5979 580.7496,-110.795 574.3849,-85.4765"/>
<polygon fill="#191970" stroke="#191970" points="577.7577,-84.5313 572.0275,-75.6198 570.9497,-86.1596 577.7577,-84.5313"/>
</g>
<!-- Node11 -->
<g id="node11" class="node">
<title>Node11</title>
<g id="a_node11"><a xlink:href="loadcore_8h.html" target="_top" xlink:title=" ">
<polygon fill="#ffffff" stroke="#000000" points="164,-168.5 164,-187.5 232,-187.5 232,-168.5 164,-168.5"/>
<text text-anchor="middle" x="198" y="-175.5" font-family="Helvetica,sans-Serif" font-size="10.00" fill="#000000">loadcore.h</text>
</a>
</g>
</g>
<!-- Node1&#45;&gt;Node11 -->
<g id="edge13" class="edge">
<title>Node1&#45;&gt;Node11</title>
<path fill="none" stroke="#191970" d="M612.2837,-234.1823C529.227,-226.7553 379.3277,-211.6601 242.0581,-188.0289"/>
<polygon fill="#191970" stroke="#191970" points="242.6497,-184.5793 232.1976,-186.3127 241.4493,-191.4756 242.6497,-184.5793"/>
</g>
<!-- Node12 -->
<g id="node12" class="node">
<title>Node12</title>
<g id="a_node12"><a xlink:href="thbase_8h.html" target="_top" xlink:title=" ">
<polygon fill="#ffffff" stroke="#000000" points="250.5,-168.5 250.5,-187.5 309.5,-187.5 309.5,-168.5 250.5,-168.5"/>
<text text-anchor="middle" x="280" y="-175.5" font-family="Helvetica,sans-Serif" font-size="10.00" fill="#000000">thbase.h</text>
</a>
</g>
</g>
<!-- Node1&#45;&gt;Node12 -->
<g id="edge16" class="edge">
<title>Node1&#45;&gt;Node12</title>
<path fill="none" stroke="#191970" d="M612.4502,-232.4291C542.9523,-224.2259 428.1492,-209.2985 319.8564,-187.9903"/>
<polygon fill="#191970" stroke="#191970" points="320.2256,-184.4952 309.7348,-185.976 318.8593,-191.3606 320.2256,-184.4952"/>
</g>
<!-- Node13 -->
<g id="node13" class="node">
<title>Node13</title>
<g id="a_node13"><a xlink:href="sysclib_8h.html" target="_top" xlink:title=" ">
<polygon fill="#ffffff" stroke="#000000" points="482.5,-168.5 482.5,-187.5 541.5,-187.5 541.5,-168.5 482.5,-168.5"/>
<text text-anchor="middle" x="512" y="-175.5" font-family="Helvetica,sans-Serif" font-size="10.00" fill="#000000">sysclib.h</text>
</a>
</g>
</g>
<!-- Node1&#45;&gt;Node13 -->
<g id="edge19" class="edge">
<title>Node1&#45;&gt;Node13</title>
<path fill="none" stroke="#191970" d="M635.8811,-224.4554C608.6373,-214.239 572.9623,-200.8609 546.8962,-191.0861"/>
<polygon fill="#191970" stroke="#191970" points="548.0064,-187.7645 537.4142,-187.5303 545.5485,-194.3188 548.0064,-187.7645"/>
</g>
<!-- Node15 -->
<g id="node15" class="node">
<title>Node15</title>
<g id="a_node15"><a xlink:href="thevent_8h.html" target="_top" xlink:title=" ">
<polygon fill="#ffffff" stroke="#000000" points="82.5,-168.5 82.5,-187.5 145.5,-187.5 145.5,-168.5 82.5,-168.5"/>
<text text-anchor="middle" x="114" y="-175.5" font-family="Helvetica,sans-Serif" font-size="10.00" fill="#000000">thevent.h</text>
</a>
</g>
</g>
<!-- Node1&#45;&gt;Node15 -->
<g id="edge25" class="edge">
<title>Node1&#45;&gt;Node15</title>
<path fill="none" stroke="#191970" d="M612.2574,-236.0967C515.5517,-230.2951 325.9161,-216.4222 155.589,-187.8757"/>
<polygon fill="#191970" stroke="#191970" points="156.1367,-184.4187 145.6921,-186.1965 154.9658,-191.32 156.1367,-184.4187"/>
</g>
<!-- Node16 -->
<g id="node16" class="node">
<title>Node16</title>
<g id="a_node16"><a xlink:href="sysmem_8h.html" target="_top" xlink:title=" ">
<polygon fill="#ffffff" stroke="#000000" points="396,-168.5 396,-187.5 464,-187.5 464,-168.5 396,-168.5"/>
<text text-anchor="middle" x="430" y="-175.5" font-family="Helvetica,sans-Serif" font-size="10.00" fill="#000000">sysmem.h</text>
</a>
</g>
</g>
<!-- Node1&#45;&gt;Node16 -->
<g id="edge28" class="edge">
<title>Node1&#45;&gt;Node16</title>
<path fill="none" stroke="#191970" d="M615.8216,-224.4554C571.9863,-213.4966 513.5996,-198.8999 474.0594,-189.0148"/>
<polygon fill="#191970" stroke="#191970" points="474.7344,-185.5759 464.184,-186.546 473.0366,-192.3669 474.7344,-185.5759"/>
</g>
<!-- Node17 -->
<g id="node17" class="node">
<title>Node17</title>
<g id="a_node17"><a xlink:title=" ">
<polygon fill="#ffffff" stroke="#bfbfbf" points="636,-168.5 636,-187.5 716,-187.5 716,-168.5 636,-168.5"/>
<text text-anchor="middle" x="676" y="-175.5" font-family="Helvetica,sans-Serif" font-size="10.00" fill="#000000">lwip/memp.h</text>
</a>
</g>
</g>
<!-- Node1&#45;&gt;Node17 -->
<g id="edge32" class="edge">
<title>Node1&#45;&gt;Node17</title>
<path fill="none" stroke="#191970" d="M676,-224.2977C676,-216.3834 676,-206.6043 676,-198.0759"/>
<polygon fill="#191970" stroke="#191970" points="679.5001,-197.8469 676,-187.8469 672.5001,-197.847 679.5001,-197.8469"/>
</g>
<!-- Node18 -->
<g id="node18" class="node">
<title>Node18</title>
<g id="a_node18"><a xlink:title=" ">
<polygon fill="#ffffff" stroke="#bfbfbf" points="734.5,-168.5 734.5,-187.5 799.5,-187.5 799.5,-168.5 734.5,-168.5"/>
<text text-anchor="middle" x="767" y="-175.5" font-family="Helvetica,sans-Serif" font-size="10.00" fill="#000000">lwip/sys.h</text>
</a>
</g>
</g>
<!-- Node1&#45;&gt;Node18 -->
<g id="edge33" class="edge">
<title>Node1&#45;&gt;Node18</title>
<path fill="none" stroke="#191970" d="M698.4944,-224.2977C712.3967,-214.9022 730.1876,-202.8787 744.1546,-193.4395"/>
<polygon fill="#191970" stroke="#191970" points="746.376,-196.1626 752.7015,-187.6633 742.4564,-190.3629 746.376,-196.1626"/>
</g>
<!-- Node19 -->
<g id="node19" class="node">
<title>Node19</title>
<g id="a_node19"><a xlink:title=" ">
<polygon fill="#ffffff" stroke="#bfbfbf" points="818,-168.5 818,-187.5 882,-187.5 882,-168.5 818,-168.5"/>
<text text-anchor="middle" x="850" y="-175.5" font-family="Helvetica,sans-Serif" font-size="10.00" fill="#000000">lwip/tcp.h</text>
</a>
</g>
</g>
<!-- Node1&#45;&gt;Node19 -->
<g id="edge34" class="edge">
<title>Node1&#45;&gt;Node19</title>
<path fill="none" stroke="#191970" d="M718.5652,-224.4554C747.5975,-214.194 785.6541,-200.7429 813.3409,-190.9571"/>
<polygon fill="#191970" stroke="#191970" points="814.7741,-194.1628 823.0362,-187.5303 812.4414,-187.5629 814.7741,-194.1628"/>
</g>
<!-- Node20 -->
<g id="node20" class="node">
<title>Node20</title>
<g id="a_node20"><a xlink:title=" ">
<polygon fill="#ffffff" stroke="#bfbfbf" points="900.5,-168.5 900.5,-187.5 973.5,-187.5 973.5,-168.5 900.5,-168.5"/>
<text text-anchor="middle" x="937" y="-175.5" font-family="Helvetica,sans-Serif" font-size="10.00" fill="#000000">lwip/tcpip.h</text>
</a>
</g>
</g>
<!-- Node1&#45;&gt;Node20 -->
<g id="edge35" class="edge">
<title>Node1&#45;&gt;Node20</title>
<path fill="none" stroke="#191970" d="M739.514,-224.534C786.0731,-213.5632 848.2393,-198.9149 890.2915,-189.006"/>
<polygon fill="#191970" stroke="#191970" points="891.3325,-192.3567 900.2632,-186.6564 889.727,-185.5433 891.3325,-192.3567"/>
</g>
<!-- Node21 -->
<g id="node21" class="node">
<title>Node21</title>
<g id="a_node21"><a xlink:title=" ">
<polygon fill="#ffffff" stroke="#bfbfbf" points="991.5,-168.5 991.5,-187.5 1086.5,-187.5 1086.5,-168.5 991.5,-168.5"/>
<text text-anchor="middle" x="1039" y="-175.5" font-family="Helvetica,sans-Serif" font-size="10.00" fill="#000000">lwip/prot/dhcp.h</text>
</a>
</g>
</g>
<!-- Node1&#45;&gt;Node21 -->
<g id="edge36" class="edge">
<title>Node1&#45;&gt;Node21</title>
<path fill="none" stroke="#191970" d="M739.5338,-229.042C799.3964,-219.1427 891.8835,-203.732 981.3054,-188.282"/>
<polygon fill="#191970" stroke="#191970" points="982.0902,-191.6983 991.3471,-186.5446 980.8968,-184.8007 982.0902,-191.6983"/>
</g>
<!-- Node22 -->
<g id="node22" class="node">
<title>Node22</title>
<g id="a_node22"><a xlink:title=" ">
<polygon fill="#ffffff" stroke="#bfbfbf" points="1104.5,-168.5 1104.5,-187.5 1175.5,-187.5 1175.5,-168.5 1104.5,-168.5"/>
<text text-anchor="middle" x="1140" y="-175.5" font-family="Helvetica,sans-Serif" font-size="10.00" fill="#000000">lwip/netif.h</text>
</a>
</g>
</g>
<!-- Node1&#45;&gt;Node22 -->
<g id="edge37" class="edge">
<title>Node1&#45;&gt;Node22</title>
<path fill="none" stroke="#191970" d="M739.6231,-233.7275C820.0604,-225.9776 962.9514,-210.7088 1093.8378,-188.2544"/>
<polygon fill="#191970" stroke="#191970" points="1094.7868,-191.6422 1104.0416,-186.4848 1093.5906,-184.7451 1094.7868,-191.6422"/>
</g>
<!-- Node23 -->
<g id="node23" class="node">
<title>Node23</title>
<g id="a_node23"><a xlink:title=" ">
<polygon fill="#ffffff" stroke="#bfbfbf" points="1194,-168.5 1194,-187.5 1266,-187.5 1266,-168.5 1194,-168.5"/>
<text text-anchor="middle" x="1230" y="-175.5" font-family="Helvetica,sans-Serif" font-size="10.00" fill="#000000">lwip/dhcp.h</text>
</a>
</g>
</g>
<!-- Node1&#45;&gt;Node23 -->
<g id="edge38" class="edge">
<title>Node1&#45;&gt;Node23</title>
<path fill="none" stroke="#191970" d="M739.7957,-235.4693C834.5305,-228.9489 1018.1192,-214.2623 1183.3671,-188.105"/>
<polygon fill="#191970" stroke="#191970" points="1184.4007,-191.4842 1193.7214,-186.4469 1183.2938,-184.5723 1184.4007,-191.4842"/>
</g>
<!-- Node24 -->
<g id="node24" class="node">
<title>Node24</title>
<g id="a_node24"><a xlink:title=" ">
<polygon fill="#ffffff" stroke="#bfbfbf" points="1284,-168.5 1284,-187.5 1352,-187.5 1352,-168.5 1284,-168.5"/>
<text text-anchor="middle" x="1318" y="-175.5" font-family="Helvetica,sans-Serif" font-size="10.00" fill="#000000">lwip/inet.h</text>
</a>
</g>
</g>
<!-- Node1&#45;&gt;Node24 -->
<g id="edge39" class="edge">
<title>Node1&#45;&gt;Node24</title>
<path fill="none" stroke="#191970" d="M739.7521,-237.0093C847.787,-232.134 1073.7829,-219.1081 1273.7164,-188.0037"/>
<polygon fill="#191970" stroke="#191970" points="1274.4853,-191.4258 1283.8191,-186.4129 1273.3964,-184.511 1274.4853,-191.4258"/>
</g>
<!-- Node25 -->
<g id="node25" class="node">
<title>Node25</title>
<g id="a_node25"><a xlink:title=" ">
<polygon fill="#ffffff" stroke="#bfbfbf" points="1370.5,-168.5 1370.5,-187.5 1453.5,-187.5 1453.5,-168.5 1370.5,-168.5"/>
<text text-anchor="middle" x="1412" y="-175.5" font-family="Helvetica,sans-Serif" font-size="10.00" fill="#000000">netif/etharp.h</text>
</a>
</g>
</g>
<!-- Node1&#45;&gt;Node25 -->
<g id="edge40" class="edge">
<title>Node1&#45;&gt;Node25</title>
<path fill="none" stroke="#191970" d="M739.5366,-237.2412C859.0965,-232.4419 1125.8021,-219.1305 1360.237,-187.9456"/>
<polygon fill="#191970" stroke="#191970" points="1360.8738,-191.3916 1370.3184,-186.5908 1359.9413,-184.454 1360.8738,-191.3916"/>
</g>
<!-- Node26 -->
<g id="node26" class="node">
<title>Node26</title>
<g id="a_node26"><a xlink:href="ps2ip__internal_8h.html" target="_top" xlink:title=" ">
<polygon fill="#ffffff" stroke="#000000" points="1471.5,-168.5 1471.5,-187.5 1566.5,-187.5 1566.5,-168.5 1471.5,-168.5"/>
<text text-anchor="middle" x="1519" y="-175.5" font-family="Helvetica,sans-Serif" font-size="10.00" fill="#000000">ps2ip_internal.h</text>
</a>
</g>
</g>
<!-- Node1&#45;&gt;Node26 -->
<g id="edge41" class="edge">
<title>Node1&#45;&gt;Node26</title>
<path fill="none" stroke="#191970" d="M739.7256,-237.7358C872.3014,-233.5436 1187.5821,-220.8604 1461.2684,-188.0967"/>
<polygon fill="#191970" stroke="#191970" points="1461.8877,-191.5474 1471.3955,-186.8728 1461.0477,-184.598 1461.8877,-191.5474"/>
</g>
<!-- Node4 -->
<g id="node4" class="node">
<title>Node4</title>
<g id="a_node4"><a xlink:title=" ">
<polygon fill="#ffffff" stroke="#bfbfbf" points="390,-112.5 390,-131.5 446,-131.5 446,-112.5 390,-112.5"/>
<text text-anchor="middle" x="418" y="-119.5" font-family="Helvetica,sans-Serif" font-size="10.00" fill="#000000">stdarg.h</text>
</a>
</g>
</g>
<!-- Node3&#45;&gt;Node4 -->
<g id="edge3" class="edge">
<title>Node3&#45;&gt;Node4</title>
<path fill="none" stroke="#191970" d="M364.3221,-168.2455C373.9223,-159.9746 387.8892,-147.9416 399.1695,-138.2232"/>
<polygon fill="#191970" stroke="#191970" points="401.516,-140.8214 406.8076,-131.6427 396.947,-135.5182 401.516,-140.8214"/>
</g>
<!-- Node5 -->
<g id="node5" class="node">
<title>Node5</title>
<g id="a_node5"><a xlink:href="irx_8h.html" target="_top" xlink:title=" ">
<polygon fill="#ffffff" stroke="#000000" points="284,-112.5 284,-131.5 322,-131.5 322,-112.5 284,-112.5"/>
<text text-anchor="middle" x="303" y="-119.5" font-family="Helvetica,sans-Serif" font-size="10.00" fill="#000000">irx.h</text>
</a>
</g>
</g>
<!-- Node3&#45;&gt;Node5 -->
<g id="edge4" class="edge">
<title>Node3&#45;&gt;Node5</title>
<path fill="none" stroke="#191970" d="M344.2907,-168.2455C337.1927,-160.2958 326.9916,-148.8706 318.505,-139.3656"/>
<polygon fill="#191970" stroke="#191970" points="320.8805,-136.771 311.6095,-131.6427 315.6589,-141.4331 320.8805,-136.771"/>
</g>
<!-- Node6 -->
<g id="node6" class="node">
<title>Node6</title>
<g id="a_node6"><a xlink:href="types_8h.html" target="_top" xlink:title=" ">
<polygon fill="#ffffff" stroke="#000000" points="252.5,-56.5 252.5,-75.5 305.5,-75.5 305.5,-56.5 252.5,-56.5"/>
<text text-anchor="middle" x="279" y="-63.5" font-family="Helvetica,sans-Serif" font-size="10.00" fill="#000000">types.h</text>
</a>
</g>
</g>
<!-- Node5&#45;&gt;Node6 -->
<g id="edge5" class="edge">
<title>Node5&#45;&gt;Node6</title>
<path fill="none" stroke="#191970" d="M298.8195,-112.2455C295.619,-104.7776 291.104,-94.2427 287.1916,-85.1137"/>
<polygon fill="#191970" stroke="#191970" points="290.2888,-83.4554 283.1326,-75.6427 283.8548,-86.2129 290.2888,-83.4554"/>
</g>
<!-- Node7 -->
<g id="node7" class="node">
<title>Node7</title>
<g id="a_node7"><a xlink:title=" ">
<polygon fill="#ffffff" stroke="#bfbfbf" points="251,-.5 251,-19.5 307,-19.5 307,-.5 251,-.5"/>
<text text-anchor="middle" x="279" y="-7.5" font-family="Helvetica,sans-Serif" font-size="10.00" fill="#000000">stddef.h</text>
</a>
</g>
</g>
<!-- Node6&#45;&gt;Node7 -->
<g id="edge6" class="edge">
<title>Node6&#45;&gt;Node7</title>
<path fill="none" stroke="#191970" d="M279,-56.2455C279,-48.9382 279,-38.6944 279,-29.7046"/>
<polygon fill="#191970" stroke="#191970" points="282.5001,-29.6426 279,-19.6427 275.5001,-29.6427 282.5001,-29.6426"/>
</g>
<!-- Node8 -->
<g id="node8" class="node">
<title>Node8</title>
<g id="a_node8"><a xlink:href="tamtypes_8h.html" target="_top" xlink:title=" ">
<polygon fill="#ffffff" stroke="#000000" points="455,-.5 455,-19.5 527,-19.5 527,-.5 455,-.5"/>
<text text-anchor="middle" x="491" y="-7.5" font-family="Helvetica,sans-Serif" font-size="10.00" fill="#000000">tamtypes.h</text>
</a>
</g>
</g>
<!-- Node6&#45;&gt;Node8 -->
<g id="edge7" class="edge">
<title>Node6&#45;&gt;Node8</title>
<path fill="none" stroke="#191970" d="M305.8499,-58.9076C340.8175,-49.6709 402.4835,-33.3817 444.979,-22.1565"/>
<polygon fill="#191970" stroke="#191970" points="446.0317,-25.4985 454.8062,-19.5606 444.2439,-18.7307 446.0317,-25.4985"/>
</g>
<!-- Node9&#45;&gt;Node5 -->
<g id="edge10" class="edge">
<title>Node9&#45;&gt;Node5</title>
<path fill="none" stroke="#191970" d="M64.1993,-170.0118C67.1709,-169.3153 70.1389,-168.6347 73,-168 144.9841,-152.0304 230.2034,-135.6386 273.9229,-127.4112"/>
<polygon fill="#191970" stroke="#191970" points="274.6768,-130.8309 283.8602,-125.5474 273.3864,-123.9509 274.6768,-130.8309"/>
</g>
<!-- Node9&#45;&gt;Node6 -->
<g id="edge9" class="edge">
<title>Node9&#45;&gt;Node6</title>
<path fill="none" stroke="#191970" d="M53.0591,-168.4509C96.8989,-148.5722 198.0961,-102.6852 248.8405,-79.6756"/>
<polygon fill="#191970" stroke="#191970" points="250.3322,-82.8422 257.9942,-75.5249 247.4414,-76.467 250.3322,-82.8422"/>
</g>
<!-- Node10&#45;&gt;Node8 -->
<g id="edge12" class="edge">
<title>Node10&#45;&gt;Node8</title>
<path fill="none" stroke="#191970" d="M556.2393,-56.2455C544.3448,-47.814 526.935,-35.4729 513.0915,-25.6598"/>
<polygon fill="#191970" stroke="#191970" points="514.7854,-22.5704 504.6031,-19.6427 510.7372,-28.2811 514.7854,-22.5704"/>
</g>
<!-- Node11&#45;&gt;Node5 -->
<g id="edge15" class="edge">
<title>Node11&#45;&gt;Node5</title>
<path fill="none" stroke="#191970" d="M216.2896,-168.2455C232.7762,-159.4527 257.2352,-146.4079 275.9765,-136.4125"/>
<polygon fill="#191970" stroke="#191970" points="277.7435,-139.4368 284.92,-131.6427 274.4494,-133.2604 277.7435,-139.4368"/>
</g>
<!-- Node11&#45;&gt;Node6 -->
<g id="edge14" class="edge">
<title>Node11&#45;&gt;Node6</title>
<path fill="none" stroke="#191970" d="M204.906,-168.4509C218.4756,-149.688 248.8024,-107.7548 266.1572,-83.758"/>
<polygon fill="#191970" stroke="#191970" points="269.0873,-85.679 272.1115,-75.5249 263.4152,-81.5768 269.0873,-85.679"/>
</g>
<!-- Node12&#45;&gt;Node5 -->
<g id="edge18" class="edge">
<title>Node12&#45;&gt;Node5</title>
<path fill="none" stroke="#191970" d="M284.0063,-168.2455C287.0735,-160.7776 291.4003,-150.2427 295.1497,-141.1137"/>
<polygon fill="#191970" stroke="#191970" points="298.4779,-142.2226 299.0396,-131.6427 292.0028,-139.5631 298.4779,-142.2226"/>
</g>
<!-- Node12&#45;&gt;Node6 -->
<g id="edge17" class="edge">
<title>Node12&#45;&gt;Node6</title>
<path fill="none" stroke="#191970" d="M278.6176,-168.1547C277.3864,-158.8576 275.6781,-144.5134 275,-132 274.1641,-116.5739 275.3125,-99.1272 276.5899,-86.0474"/>
<polygon fill="#191970" stroke="#191970" points="280.0985,-86.1573 277.699,-75.8377 273.1394,-85.4012 280.0985,-86.1573"/>
</g>
<!-- Node13&#45;&gt;Node4 -->
<g id="edge22" class="edge">
<title>Node13&#45;&gt;Node4</title>
<path fill="none" stroke="#191970" d="M495.6264,-168.2455C481.0692,-159.5731 459.569,-146.7645 442.8848,-136.825"/>
<polygon fill="#191970" stroke="#191970" points="444.5683,-133.7539 434.1859,-131.6427 440.9856,-139.7676 444.5683,-133.7539"/>
</g>
<!-- Node13&#45;&gt;Node5 -->
<g id="edge21" class="edge">
<title>Node13&#45;&gt;Node5</title>
<path fill="none" stroke="#191970" d="M482.4987,-170.0953C442.525,-159.3847 371.6062,-140.3825 331.93,-129.7516"/>
<polygon fill="#191970" stroke="#191970" points="332.6513,-126.3215 322.0862,-127.114 330.8396,-133.0829 332.6513,-126.3215"/>
</g>
<!-- Node13&#45;&gt;Node6 -->
<g id="edge20" class="edge">
<title>Node13&#45;&gt;Node6</title>
<path fill="none" stroke="#191970" d="M506.3282,-168.2956C497.3315,-153.7804 478.3892,-126.5676 455,-112 411.7509,-85.0629 353.1138,-73.8083 315.6604,-69.1681"/>
<polygon fill="#191970" stroke="#191970" points="316.0219,-65.6867 305.6888,-68.0272 315.2261,-72.6414 316.0219,-65.6867"/>
</g>
<!-- Node14 -->
<g id="node14" class="node">
<title>Node14</title>
<g id="a_node14"><a xlink:href="setjmp_8h.html" target="_top" xlink:title=" ">
<polygon fill="#ffffff" stroke="#000000" points="461.5,-56.5 461.5,-75.5 520.5,-75.5 520.5,-56.5 461.5,-56.5"/>
<text text-anchor="middle" x="491" y="-63.5" font-family="Helvetica,sans-Serif" font-size="10.00" fill="#000000">setjmp.h</text>
</a>
</g>
</g>
<!-- Node13&#45;&gt;Node14 -->
<g id="edge23" class="edge">
<title>Node13&#45;&gt;Node14</title>
<path fill="none" stroke="#191970" d="M510.2096,-168.4509C506.769,-150.1013 499.1733,-109.5908 494.6317,-85.3693"/>
<polygon fill="#191970" stroke="#191970" points="498.0689,-84.7086 492.7859,-75.5249 491.1888,-85.9986 498.0689,-84.7086"/>
</g>
<!-- Node14&#45;&gt;Node8 -->
<g id="edge24" class="edge">
<title>Node14&#45;&gt;Node8</title>
<path fill="none" stroke="#191970" d="M491,-56.2455C491,-48.9382 491,-38.6944 491,-29.7046"/>
<polygon fill="#191970" stroke="#191970" points="494.5001,-29.6426 491,-19.6427 487.5001,-29.6427 494.5001,-29.6426"/>
</g>
<!-- Node15&#45;&gt;Node5 -->
<g id="edge27" class="edge">
<title>Node15&#45;&gt;Node5</title>
<path fill="none" stroke="#191970" d="M145.6344,-168.6269C181.4422,-158.0171 239.2893,-140.8773 273.9799,-130.5985"/>
<polygon fill="#191970" stroke="#191970" points="275.3589,-133.8404 283.9525,-127.6437 273.3702,-127.1289 275.3589,-133.8404"/>
</g>
<!-- Node15&#45;&gt;Node6 -->
<g id="edge26" class="edge">
<title>Node15&#45;&gt;Node6</title>
<path fill="none" stroke="#191970" d="M128.0678,-168.4509C156.6838,-149.0268 221.883,-104.7703 256.4753,-81.2895"/>
<polygon fill="#191970" stroke="#191970" points="258.6596,-84.037 264.9678,-75.5249 254.7282,-78.2453 258.6596,-84.037"/>
</g>
<!-- Node16&#45;&gt;Node4 -->
<g id="edge31" class="edge">
<title>Node16&#45;&gt;Node4</title>
<path fill="none" stroke="#191970" d="M427.9098,-168.2455C426.3439,-160.9382 424.1488,-150.6944 422.2224,-141.7046"/>
<polygon fill="#191970" stroke="#191970" points="425.584,-140.6873 420.0663,-131.6427 418.7393,-142.1541 425.584,-140.6873"/>
</g>
<!-- Node16&#45;&gt;Node5 -->
<g id="edge30" class="edge">
<title>Node16&#45;&gt;Node5</title>
<path fill="none" stroke="#191970" d="M408.1679,-168.3733C386.945,-159.0151 354.6043,-144.7547 331.3918,-134.5192"/>
<polygon fill="#191970" stroke="#191970" points="332.6236,-131.2373 322.0615,-130.4051 329.7993,-137.6422 332.6236,-131.2373"/>
</g>
<!-- Node16&#45;&gt;Node6 -->
<g id="edge29" class="edge">
<title>Node16&#45;&gt;Node6</title>
<path fill="none" stroke="#191970" d="M417.1258,-168.4509C391.0493,-149.1094 331.7779,-105.1465 300.0192,-81.5904"/>
<polygon fill="#191970" stroke="#191970" points="301.9585,-78.6712 291.8416,-75.5249 297.7883,-84.2934 301.9585,-78.6712"/>
</g>
<!-- Node26&#45;&gt;Node2 -->
<g id="edge42" class="edge">
<title>Node26&#45;&gt;Node2</title>
<path fill="none" stroke="#191970" d="M1471.3783,-169.2577C1468.5467,-168.812 1465.7378,-168.3887 1463,-168 1316.0899,-147.1425 1140.0305,-131.3268 1064.8993,-125.007"/>
<polygon fill="#191970" stroke="#191970" points="1064.8188,-121.4882 1054.5622,-124.144 1064.2363,-128.4639 1064.8188,-121.4882"/>
</g>
<!-- Node27 -->
<g id="node27" class="node">
<title>Node27</title>
<g id="a_node27"><a xlink:title=" ">
<polygon fill="#ffffff" stroke="#bfbfbf" points="1476,-112.5 1476,-131.5 1562,-131.5 1562,-112.5 1476,-112.5"/>
<text text-anchor="middle" x="1519" y="-119.5" font-family="Helvetica,sans-Serif" font-size="10.00" fill="#000000">lwip/sockets.h</text>
</a>
</g>
</g>
<!-- Node26&#45;&gt;Node27 -->
<g id="edge43" class="edge">
<title>Node26&#45;&gt;Node27</title>
<path fill="none" stroke="#191970" d="M1519,-168.2455C1519,-160.9382 1519,-150.6944 1519,-141.7046"/>
<polygon fill="#191970" stroke="#191970" points="1522.5001,-141.6426 1519,-131.6427 1515.5001,-141.6427 1522.5001,-141.6426"/>
</g>
</g>
</svg>
