<?xml version="1.0" encoding="UTF-8" standalone="no"?>
<!DOCTYPE svg PUBLIC "-//W3C//DTD SVG 1.1//EN"
 "http://www.w3.org/Graphics/SVG/1.1/DTD/svg11.dtd">
<!-- Generated by graphviz version 2.40.1 (20161225.0304)
 -->
<!-- Title: common/include/tcpip.h Pages: 1 -->
<!--zoomable 162 -->
<svg id="main" version="1.1" xmlns="http://www.w3.org/2000/svg" xmlns:xlink="http://www.w3.org/1999/xlink" xml:space="preserve" onload="init(evt)">
<style type="text/css"><![CDATA[
.edge:hover path { stroke: red; }
.edge:hover polygon { stroke: red; fill: red; }
]]></style>
<script type="text/javascript"><![CDATA[
var edges = document.getElementsByTagName('g');
if (edges && edges.length) {
  for (var i=0;i<edges.length;i++) {
    if (edges[i].id.substr(0,4)=='edge') {
      edges[i].setAttribute('class','edge');
    }
  }
}
]]></script>
        <defs>
                <circle id="rim" cx="0" cy="0" r="7"/>
                <circle id="rim2" cx="0" cy="0" r="3.5"/>
                <g id="zoomPlus">
                        <use xlink:href="#rim" fill="#404040">
                                <set attributeName="fill" to="#808080" begin="zoomplus.mouseover" end="zoomplus.mouseout"/>
                        </use>
                        <path d="M-4,0h8M0,-4v8" fill="none" stroke="white" stroke-width="1.5" pointer-events="none"/>
                </g>
                <g id="zoomMin">
                        <use xlink:href="#rim" fill="#404040">
                                <set attributeName="fill" to="#808080" begin="zoomminus.mouseover" end="zoomminus.mouseout"/>
                        </use>
                        <path d="M-4,0h8" fill="none" stroke="white" stroke-width="1.5" pointer-events="none"/>
                </g>
                <g id="dirArrow">
                        <path fill="none" stroke="white" stroke-width="1.5" d="M0,-3.0v7 M-2.5,-0.5L0,-3.0L2.5,-0.5"/>
                </g>
               <g id="resetDef">
                       <use xlink:href="#rim2" fill="#404040">
                               <set attributeName="fill" to="#808080" begin="reset.mouseover" end="reset.mouseout"/>
                       </use>
               </g>
        </defs>

<script type="text/javascript">
var viewWidth = 1428;
var viewHeight = 162;
var sectionId = 'dynsection-1';
</script>
<script xlink:href="svgpan.js"/>
<svg id="graph" class="graph">
<g id="viewport">
<title>common/include/tcpip.h</title>
<polygon fill="#ffffff" stroke="transparent" points="-4,4 -4,-158 1423.5,-158 1423.5,4 -4,4"/>
<!-- Node1 -->
<g id="node1" class="node">
<title>Node1</title>
<g id="a_node1"><a xlink:title=" ">
<polygon fill="#bfbfbf" stroke="#000000" points="788.5,-134.5 788.5,-153.5 922.5,-153.5 922.5,-134.5 788.5,-134.5"/>
<text text-anchor="middle" x="855.5" y="-141.5" font-family="Helvetica,sans-Serif" font-size="10.00" fill="#000000">common/include/tcpip.h</text>
</a>
</g>
</g>
<!-- Node2 -->
<g id="node2" class="node">
<title>Node2</title>
<g id="a_node2"><a xlink:href="ps2ip_8h.html" target="_top" xlink:title=" ">
<polygon fill="#ffffff" stroke="#000000" points="721.5,-67.5 721.5,-97.5 845.5,-97.5 845.5,-67.5 721.5,-67.5"/>
<text text-anchor="start" x="729.5" y="-85.5" font-family="Helvetica,sans-Serif" font-size="10.00" fill="#000000">iop/tcpip/tcpip/include</text>
<text text-anchor="middle" x="783.5" y="-74.5" font-family="Helvetica,sans-Serif" font-size="10.00" fill="#000000">/ps2ip.h</text>
</a>
</g>
</g>
<!-- Node1&#45;&gt;Node2 -->
<g id="edge1" class="edge">
<title>Node1&#45;&gt;Node2</title>
<path fill="none" stroke="#191970" d="M836.4916,-127.7637C825.5269,-118.398 811.8333,-106.7014 801.1132,-97.5446"/>
<polygon fill="#191970" stroke="#191970" points="834.373,-130.557 844.25,-134.3906 838.9195,-125.2344 834.373,-130.557"/>
</g>
<!-- Node14 -->
<g id="node14" class="node">
<title>Node14</title>
<g id="a_node14"><a xlink:href="ps2ip__rpc_8h.html" target="_top" xlink:title=" ">
<polygon fill="#ffffff" stroke="#000000" points="1083,-67.5 1083,-97.5 1210,-97.5 1210,-67.5 1083,-67.5"/>
<text text-anchor="start" x="1091" y="-85.5" font-family="Helvetica,sans-Serif" font-size="10.00" fill="#000000">common/include/ps2ip</text>
<text text-anchor="middle" x="1146.5" y="-74.5" font-family="Helvetica,sans-Serif" font-size="10.00" fill="#000000">_rpc.h</text>
</a>
</g>
</g>
<!-- Node1&#45;&gt;Node14 -->
<g id="edge13" class="edge">
<title>Node1&#45;&gt;Node14</title>
<path fill="none" stroke="#191970" d="M910.4478,-132.3873C959.4936,-122.022 1031.3248,-106.8411 1082.8538,-95.951"/>
<polygon fill="#191970" stroke="#191970" points="909.7096,-128.9659 900.6495,-134.4581 911.1571,-135.8147 909.7096,-128.9659"/>
</g>
<!-- Node3 -->
<g id="node3" class="node">
<title>Node3</title>
<g id="a_node3"><a xlink:href="fs_2http_2src_2irx__imports_8h.html" target="_top" xlink:title=" ">
<polygon fill="#ffffff" stroke="#000000" points="0,-.5 0,-30.5 99,-30.5 99,-.5 0,-.5"/>
<text text-anchor="start" x="8" y="-18.5" font-family="Helvetica,sans-Serif" font-size="10.00" fill="#000000">iop/fs/http/src/irx</text>
<text text-anchor="middle" x="49.5" y="-7.5" font-family="Helvetica,sans-Serif" font-size="10.00" fill="#000000">_imports.h</text>
</a>
</g>
</g>
<!-- Node2&#45;&gt;Node3 -->
<g id="edge2" class="edge">
<title>Node2&#45;&gt;Node3</title>
<path fill="none" stroke="#191970" d="M710.8909,-81.3642C586.5066,-78.4411 325.0372,-68.0255 107.5,-31 104.7257,-30.5278 101.8915,-29.9828 99.0408,-29.3856"/>
<polygon fill="#191970" stroke="#191970" points="710.9757,-84.8669 721.0521,-81.5933 711.1336,-77.8686 710.9757,-84.8669"/>
</g>
<!-- Node4 -->
<g id="node4" class="node">
<title>Node4</title>
<g id="a_node4"><a xlink:href="ps2http_8c.html" target="_top" xlink:title=" ">
<polygon fill="#ffffff" stroke="#000000" points="117,-6 117,-25 248,-25 248,-6 117,-6"/>
<text text-anchor="middle" x="182.5" y="-13" font-family="Helvetica,sans-Serif" font-size="10.00" fill="#000000">iop/fs/http/src/ps2http.c</text>
</a>
</g>
</g>
<!-- Node2&#45;&gt;Node4 -->
<g id="edge3" class="edge">
<title>Node2&#45;&gt;Node4</title>
<path fill="none" stroke="#191970" d="M711.133,-77.8575C609.4442,-70.7794 418.6563,-55.4714 257.5,-31 246.8523,-29.3832 235.4341,-27.2377 224.799,-25.0601"/>
<polygon fill="#191970" stroke="#191970" points="711.0729,-81.3615 721.29,-78.5576 711.5544,-74.3781 711.0729,-81.3615"/>
</g>
<!-- Node5 -->
<g id="node5" class="node">
<title>Node5</title>
<g id="a_node5"><a xlink:href="fs_2netfs_2src_2irx__imports_8h.html" target="_top" xlink:title=" ">
<polygon fill="#ffffff" stroke="#000000" points="266.5,-.5 266.5,-30.5 370.5,-30.5 370.5,-.5 266.5,-.5"/>
<text text-anchor="start" x="274.5" y="-18.5" font-family="Helvetica,sans-Serif" font-size="10.00" fill="#000000">iop/fs/netfs/src/irx</text>
<text text-anchor="middle" x="318.5" y="-7.5" font-family="Helvetica,sans-Serif" font-size="10.00" fill="#000000">_imports.h</text>
</a>
</g>
</g>
<!-- Node2&#45;&gt;Node5 -->
<g id="edge4" class="edge">
<title>Node2&#45;&gt;Node5</title>
<path fill="none" stroke="#191970" d="M711.0732,-75.9574C629.8987,-68.0017 494.5757,-52.8703 379.5,-31 376.6016,-30.4492 373.6361,-29.8421 370.6498,-29.1968"/>
<polygon fill="#191970" stroke="#191970" points="710.8943,-79.4564 721.1857,-76.9387 711.5705,-72.4891 710.8943,-79.4564"/>
</g>
<!-- Node6 -->
<g id="node6" class="node">
<title>Node6</title>
<g id="a_node6"><a xlink:href="ps2__fio_8c.html" target="_top" xlink:title=" ">
<polygon fill="#ffffff" stroke="#000000" points="389,-.5 389,-30.5 498,-30.5 498,-.5 389,-.5"/>
<text text-anchor="start" x="397" y="-18.5" font-family="Helvetica,sans-Serif" font-size="10.00" fill="#000000">iop/fs/netfs/src/ps2</text>
<text text-anchor="middle" x="443.5" y="-7.5" font-family="Helvetica,sans-Serif" font-size="10.00" fill="#000000">_fio.c</text>
</a>
</g>
</g>
<!-- Node2&#45;&gt;Node6 -->
<g id="edge5" class="edge">
<title>Node2&#45;&gt;Node6</title>
<path fill="none" stroke="#191970" d="M711.2378,-70.0995C655.4359,-60.2621 576.3747,-45.7552 507.5,-31 504.4818,-30.3534 501.3883,-29.6708 498.269,-28.9669"/>
<polygon fill="#191970" stroke="#191970" points="710.9241,-73.5979 721.3789,-71.881 712.1353,-66.7035 710.9241,-73.5979"/>
</g>
<!-- Node7 -->
<g id="node7" class="node">
<title>Node7</title>
<g id="a_node7"><a xlink:href="network_2smbman_2src_2irx__imports_8h.html" target="_top" xlink:title=" ">
<polygon fill="#ffffff" stroke="#000000" points="516.5,-.5 516.5,-30.5 636.5,-30.5 636.5,-.5 516.5,-.5"/>
<text text-anchor="start" x="524.5" y="-18.5" font-family="Helvetica,sans-Serif" font-size="10.00" fill="#000000">iop/network/smbman</text>
<text text-anchor="middle" x="576.5" y="-7.5" font-family="Helvetica,sans-Serif" font-size="10.00" fill="#000000">/src/irx_imports.h</text>
</a>
</g>
</g>
<!-- Node2&#45;&gt;Node7 -->
<g id="edge6" class="edge">
<title>Node2&#45;&gt;Node7</title>
<path fill="none" stroke="#191970" d="M727.1957,-64.2759C694.5719,-53.7165 653.9875,-40.5805 623.1575,-30.6017"/>
<polygon fill="#191970" stroke="#191970" points="726.4533,-67.7143 737.0452,-67.4639 728.6089,-61.0545 726.4533,-67.7143"/>
</g>
<!-- Node8 -->
<g id="node8" class="node">
<title>Node8</title>
<g id="a_node8"><a xlink:href="poll_8c.html" target="_top" xlink:title=" ">
<polygon fill="#ffffff" stroke="#000000" points="654.5,-.5 654.5,-30.5 774.5,-30.5 774.5,-.5 654.5,-.5"/>
<text text-anchor="start" x="662.5" y="-18.5" font-family="Helvetica,sans-Serif" font-size="10.00" fill="#000000">iop/network/smbman</text>
<text text-anchor="middle" x="714.5" y="-7.5" font-family="Helvetica,sans-Serif" font-size="10.00" fill="#000000">/src/poll.c</text>
</a>
</g>
</g>
<!-- Node2&#45;&gt;Node8 -->
<g id="edge7" class="edge">
<title>Node2&#45;&gt;Node8</title>
<path fill="none" stroke="#191970" d="M760.546,-60.2113C750.5457,-50.5009 739.0824,-39.3698 730.0952,-30.6432"/>
<polygon fill="#191970" stroke="#191970" points="758.2303,-62.8413 767.8428,-67.2967 763.1068,-57.8193 758.2303,-62.8413"/>
</g>
<!-- Node9 -->
<g id="node9" class="node">
<title>Node9</title>
<g id="a_node9"><a xlink:href="smb_8c.html" target="_top" xlink:title=" ">
<polygon fill="#ffffff" stroke="#000000" points="792.5,-.5 792.5,-30.5 912.5,-30.5 912.5,-.5 792.5,-.5"/>
<text text-anchor="start" x="800.5" y="-18.5" font-family="Helvetica,sans-Serif" font-size="10.00" fill="#000000">iop/network/smbman</text>
<text text-anchor="middle" x="852.5" y="-7.5" font-family="Helvetica,sans-Serif" font-size="10.00" fill="#000000">/src/smb.c</text>
</a>
</g>
</g>
<!-- Node2&#45;&gt;Node9 -->
<g id="edge8" class="edge">
<title>Node2&#45;&gt;Node9</title>
<path fill="none" stroke="#191970" d="M806.454,-60.2113C816.4543,-50.5009 827.9176,-39.3698 836.9048,-30.6432"/>
<polygon fill="#191970" stroke="#191970" points="803.8932,-57.8193 799.1572,-67.2967 808.7697,-62.8413 803.8932,-57.8193"/>
</g>
<!-- Node10 -->
<g id="node10" class="node">
<title>Node10</title>
<g id="a_node10"><a xlink:href="network_2udptty_2src_2irx__imports_8h.html" target="_top" xlink:title=" ">
<polygon fill="#ffffff" stroke="#000000" points="931,-.5 931,-30.5 1040,-30.5 1040,-.5 931,-.5"/>
<text text-anchor="start" x="939" y="-18.5" font-family="Helvetica,sans-Serif" font-size="10.00" fill="#000000">iop/network/udptty</text>
<text text-anchor="middle" x="985.5" y="-7.5" font-family="Helvetica,sans-Serif" font-size="10.00" fill="#000000">/src/irx_imports.h</text>
</a>
</g>
</g>
<!-- Node2&#45;&gt;Node10 -->
<g id="edge9" class="edge">
<title>Node2&#45;&gt;Node10</title>
<path fill="none" stroke="#191970" d="M838.4443,-64.2759C870.28,-53.7165 909.8842,-40.5805 939.9695,-30.6017"/>
<polygon fill="#191970" stroke="#191970" points="837.2224,-60.9936 828.8327,-67.4639 839.4262,-67.6377 837.2224,-60.9936"/>
</g>
<!-- Node11 -->
<g id="node11" class="node">
<title>Node11</title>
<g id="a_node11"><a xlink:href="udptty_8c.html" target="_top" xlink:title=" ">
<polygon fill="#ffffff" stroke="#000000" points="1058,-.5 1058,-30.5 1167,-30.5 1167,-.5 1058,-.5"/>
<text text-anchor="start" x="1066" y="-18.5" font-family="Helvetica,sans-Serif" font-size="10.00" fill="#000000">iop/network/udptty</text>
<text text-anchor="middle" x="1112.5" y="-7.5" font-family="Helvetica,sans-Serif" font-size="10.00" fill="#000000">/src/udptty.c</text>
</a>
</g>
</g>
<!-- Node2&#45;&gt;Node11 -->
<g id="edge10" class="edge">
<title>Node2&#45;&gt;Node11</title>
<path fill="none" stroke="#191970" d="M855.8512,-69.5029C909.4574,-59.6279 984.2191,-45.3407 1049.5,-31 1052.2503,-30.3958 1055.0643,-29.7618 1057.9033,-29.1096"/>
<polygon fill="#191970" stroke="#191970" points="854.9619,-66.1076 845.7584,-71.356 856.2261,-72.9925 854.9619,-66.1076"/>
</g>
<!-- Node12 -->
<g id="node12" class="node">
<title>Node12</title>
<g id="a_node12"><a xlink:href="tcpip_2tcpips_2src_2irx__imports_8h.html" target="_top" xlink:title=" ">
<polygon fill="#ffffff" stroke="#000000" points="1185.5,-.5 1185.5,-30.5 1293.5,-30.5 1293.5,-.5 1185.5,-.5"/>
<text text-anchor="start" x="1193.5" y="-18.5" font-family="Helvetica,sans-Serif" font-size="10.00" fill="#000000">iop/tcpip/tcpips/src</text>
<text text-anchor="middle" x="1239.5" y="-7.5" font-family="Helvetica,sans-Serif" font-size="10.00" fill="#000000">/irx_imports.h</text>
</a>
</g>
</g>
<!-- Node2&#45;&gt;Node12 -->
<g id="edge11" class="edge">
<title>Node2&#45;&gt;Node12</title>
<path fill="none" stroke="#191970" d="M856.1254,-75.4228C935.2879,-67.1418 1065.5007,-51.8609 1176.5,-31 1179.3782,-30.4591 1182.3215,-29.8682 1185.2872,-29.243"/>
<polygon fill="#191970" stroke="#191970" points="855.3635,-71.983 845.7778,-76.4958 856.0855,-78.9456 855.3635,-71.983"/>
</g>
<!-- Node13 -->
<g id="node13" class="node">
<title>Node13</title>
<g id="a_node13"><a xlink:href="ps2ips_8c.html" target="_top" xlink:title=" ">
<polygon fill="#ffffff" stroke="#000000" points="1311.5,-.5 1311.5,-30.5 1419.5,-30.5 1419.5,-.5 1311.5,-.5"/>
<text text-anchor="start" x="1319.5" y="-18.5" font-family="Helvetica,sans-Serif" font-size="10.00" fill="#000000">iop/tcpip/tcpips/src</text>
<text text-anchor="middle" x="1365.5" y="-7.5" font-family="Helvetica,sans-Serif" font-size="10.00" fill="#000000">/ps2ips.c</text>
</a>
</g>
</g>
<!-- Node2&#45;&gt;Node13 -->
<g id="edge12" class="edge">
<title>Node2&#45;&gt;Node13</title>
<path fill="none" stroke="#191970" d="M855.8603,-78.5809C956.5568,-72.3876 1144.3969,-58.1513 1302.5,-31 1305.3863,-30.5043 1308.3362,-29.9495 1311.3069,-29.3525"/>
<polygon fill="#191970" stroke="#191970" points="855.5685,-75.092 845.7986,-79.1907 855.9921,-82.0792 855.5685,-75.092"/>
</g>
<!-- Node14&#45;&gt;Node13 -->
<g id="edge14" class="edge">
<title>Node14&#45;&gt;Node13</title>
<path fill="none" stroke="#191970" d="M1205.6224,-64.4123C1240.213,-53.8298 1283.3799,-40.6235 1316.1378,-30.6017"/>
<polygon fill="#191970" stroke="#191970" points="1204.1864,-61.1914 1195.6479,-67.4639 1206.2343,-67.8852 1204.1864,-61.1914"/>
</g>
</g>
</svg>
        <g id="navigator" transform="translate(0 0)" fill="#404254">
                <rect fill="#f2f5e9" fill-opacity="0.5" stroke="#606060" stroke-width=".5" x="0" y="0" width="60" height="60"/>
                <use id="zoomplus" xlink:href="#zoomPlus" x="17" y="9" onmousedown="handleZoom(evt,'in')"/>
                <use id="zoomminus" xlink:href="#zoomMin" x="42" y="9" onmousedown="handleZoom(evt,'out')"/>
                <use id="reset" xlink:href="#resetDef" x="30" y="36" onmousedown="handleReset()"/>
                <g id="arrowUp" xlink:href="#dirArrow" transform="translate(30 24)" onmousedown="handlePan(0,-1)">
                  <use xlink:href="#rim" fill="#404040">
                        <set attributeName="fill" to="#808080" begin="arrowUp.mouseover" end="arrowUp.mouseout"/>
                  </use>
                  <path fill="none" stroke="white" stroke-width="1.5" d="M0,-3.0v7 M-2.5,-0.5L0,-3.0L2.5,-0.5"/>
                </g>
                <g id="arrowRight" xlink:href="#dirArrow" transform="rotate(90) translate(36 -43)" onmousedown="handlePan(1,0)">
                  <use xlink:href="#rim" fill="#404040">
                        <set attributeName="fill" to="#808080" begin="arrowRight.mouseover" end="arrowRight.mouseout"/>
                  </use>
                  <path fill="none" stroke="white" stroke-width="1.5" d="M0,-3.0v7 M-2.5,-0.5L0,-3.0L2.5,-0.5"/>
                </g>
                <g id="arrowDown" xlink:href="#dirArrow" transform="rotate(180) translate(-30 -48)" onmousedown="handlePan(0,1)">
                  <use xlink:href="#rim" fill="#404040">
                        <set attributeName="fill" to="#808080" begin="arrowDown.mouseover" end="arrowDown.mouseout"/>
                  </use>
                  <path fill="none" stroke="white" stroke-width="1.5" d="M0,-3.0v7 M-2.5,-0.5L0,-3.0L2.5,-0.5"/>
                </g>
                <g id="arrowLeft" xlink:href="#dirArrow" transform="rotate(270) translate(-36 17)" onmousedown="handlePan(-1,0)">
                  <use xlink:href="#rim" fill="#404040">
                        <set attributeName="fill" to="#808080" begin="arrowLeft.mouseover" end="arrowLeft.mouseout"/>
                  </use>
                  <path fill="none" stroke="white" stroke-width="1.5" d="M0,-3.0v7 M-2.5,-0.5L0,-3.0L2.5,-0.5"/>
                </g>
        </g>
        <svg viewBox="0 0 15 15" width="100%" height="30px" preserveAspectRatio="xMaxYMin meet">
         <g id="arrow_out" transform="scale(0.3 0.3)">
          <a xlink:href="tcpip_8h__dep__incl_org.svg" target="_base">
           <rect id="button" ry="5" rx="5" y="6" x="6" height="38" width="38"
                fill="#f2f5e9" fill-opacity="0.5" stroke="#606060" stroke-width="1.0"/>
           <path id="arrow"
             d="M 11.500037,31.436501 C 11.940474,20.09759 22.043105,11.32322 32.158766,21.979434 L 37.068811,17.246167 C 37.068811,17.246167 37.088388,32 37.088388,32 L 22.160133,31.978069 C 22.160133,31.978069 26.997745,27.140456 26.997745,27.140456 C 18.528582,18.264221 13.291696,25.230495 11.500037,31.436501 z"
             style="fill:#404040;"/>
          </a>
         </g>
        </svg>
</svg>
