<?xml version="1.0" encoding="UTF-8" standalone="no"?>
<!DOCTYPE svg PUBLIC "-//W3C//DTD SVG 1.1//EN"
 "http://www.w3.org/Graphics/SVG/1.1/DTD/svg11.dtd">
<!-- Generated by graphviz version 2.40.1 (20161225.0304)
 -->
<!-- Title: iop/kernel/include/thevent.h Pages: 1 -->
<svg width="6901pt" height="106pt"
 viewBox="0.00 0.00 6901.00 106.00" xmlns="http://www.w3.org/2000/svg" xmlns:xlink="http://www.w3.org/1999/xlink">
<g id="graph0" class="graph" transform="scale(1 1) rotate(0) translate(4 102)">
<title>iop/kernel/include/thevent.h</title>
<polygon fill="#ffffff" stroke="transparent" points="-4,4 -4,-102 6897,-102 6897,4 -4,4"/>
<!-- Node1 -->
<g id="node1" class="node">
<title>Node1</title>
<g id="a_node1"><a xlink:title=" ">
<polygon fill="#bfbfbf" stroke="#000000" points="3315,-67.5 3315,-97.5 3419,-97.5 3419,-67.5 3315,-67.5"/>
<text text-anchor="start" x="3323" y="-85.5" font-family="Helvetica,sans-Serif" font-size="10.00" fill="#000000">iop/kernel/include</text>
<text text-anchor="middle" x="3367" y="-74.5" font-family="Helvetica,sans-Serif" font-size="10.00" fill="#000000">/thevent.h</text>
</a>
</g>
</g>
<!-- Node2 -->
<g id="node2" class="node">
<title>Node2</title>
<g id="a_node2"><a xlink:href="dev9_2atad_2src_2irx__imports_8h.html" target="_top" xlink:title=" ">
<polygon fill="#ffffff" stroke="#000000" points="0,-.5 0,-30.5 116,-30.5 116,-.5 0,-.5"/>
<text text-anchor="start" x="8" y="-18.5" font-family="Helvetica,sans-Serif" font-size="10.00" fill="#000000">iop/dev9/atad/src/irx</text>
<text text-anchor="middle" x="58" y="-7.5" font-family="Helvetica,sans-Serif" font-size="10.00" fill="#000000">_imports.h</text>
</a>
</g>
</g>
<!-- Node1&#45;&gt;Node2 -->
<g id="edge1" class="edge">
<title>Node1&#45;&gt;Node2</title>
<path fill="none" stroke="#191970" d="M3304.749,-82.3034C2883.0154,-80.8669 451.4128,-70.8932 125,-31 122.1558,-30.6524 119.256,-30.2337 116.336,-29.7604"/>
<polygon fill="#191970" stroke="#191970" points="3304.9024,-85.8039 3314.9142,-82.3377 3304.9261,-78.8039 3304.9024,-85.8039"/>
</g>
<!-- Node3 -->
<g id="node3" class="node">
<title>Node3</title>
<g id="a_node3"><a xlink:href="ps2atad_8c.html" target="_top" xlink:title=" ">
<polygon fill="#ffffff" stroke="#000000" points="134.5,-6 134.5,-25 285.5,-25 285.5,-6 134.5,-6"/>
<text text-anchor="middle" x="210" y="-13" font-family="Helvetica,sans-Serif" font-size="10.00" fill="#000000">iop/dev9/atad/src/ps2atad.c</text>
</a>
</g>
</g>
<!-- Node1&#45;&gt;Node3 -->
<g id="edge2" class="edge">
<title>Node1&#45;&gt;Node3</title>
<path fill="none" stroke="#191970" d="M3304.8363,-82.07C2896.417,-79.1641 604.2737,-61.5833 295,-31 281.7145,-29.6862 267.3931,-27.4125 254.3618,-25.0052"/>
<polygon fill="#191970" stroke="#191970" points="3304.9495,-85.5708 3314.9741,-82.1419 3304.9992,-78.571 3304.9495,-85.5708"/>
</g>
<!-- Node4 -->
<g id="node4" class="node">
<title>Node4</title>
<g id="a_node4"><a xlink:href="dev9_2extflash_2src_2irx__imports_8h.html" target="_top" xlink:title=" ">
<polygon fill="#ffffff" stroke="#000000" points="304,-.5 304,-30.5 422,-30.5 422,-.5 304,-.5"/>
<text text-anchor="start" x="312" y="-18.5" font-family="Helvetica,sans-Serif" font-size="10.00" fill="#000000">iop/dev9/extflash/src</text>
<text text-anchor="middle" x="363" y="-7.5" font-family="Helvetica,sans-Serif" font-size="10.00" fill="#000000">/irx_imports.h</text>
</a>
</g>
</g>
<!-- Node1&#45;&gt;Node4 -->
<g id="edge3" class="edge">
<title>Node1&#45;&gt;Node4</title>
<path fill="none" stroke="#191970" d="M3304.7613,-82.1807C2906.7328,-80.0363 725.1624,-66.7163 431,-31 428.1152,-30.6497 425.1736,-30.2289 422.2113,-29.7538"/>
<polygon fill="#191970" stroke="#191970" points="3304.9073,-85.6814 3314.926,-82.2351 3304.9449,-78.6815 3304.9073,-85.6814"/>
</g>
<!-- Node5 -->
<g id="node5" class="node">
<title>Node5</title>
<g id="a_node5"><a xlink:href="hdproatad_8c.html" target="_top" xlink:title=" ">
<polygon fill="#ffffff" stroke="#000000" points="440,-.5 440,-30.5 556,-30.5 556,-.5 440,-.5"/>
<text text-anchor="start" x="448" y="-18.5" font-family="Helvetica,sans-Serif" font-size="10.00" fill="#000000">iop/dev9/hdpro_atad</text>
<text text-anchor="middle" x="498" y="-7.5" font-family="Helvetica,sans-Serif" font-size="10.00" fill="#000000">/src/hdproatad.c</text>
</a>
</g>
</g>
<!-- Node1&#45;&gt;Node5 -->
<g id="edge4" class="edge">
<title>Node1&#45;&gt;Node5</title>
<path fill="none" stroke="#191970" d="M3304.5516,-82.1353C2916.731,-79.7668 844.929,-65.5664 565,-31 562.1562,-30.6488 559.2567,-30.2273 556.3371,-29.7516"/>
<polygon fill="#191970" stroke="#191970" points="3304.7137,-85.6363 3314.7348,-82.1972 3304.7563,-78.6364 3304.7137,-85.6363"/>
</g>
<!-- Node6 -->
<g id="node6" class="node">
<title>Node6</title>
<g id="a_node6"><a xlink:href="dev9_2hdpro__atad_2src_2irx__imports_8h.html" target="_top" xlink:title=" ">
<polygon fill="#ffffff" stroke="#000000" points="574,-.5 574,-30.5 690,-30.5 690,-.5 574,-.5"/>
<text text-anchor="start" x="582" y="-18.5" font-family="Helvetica,sans-Serif" font-size="10.00" fill="#000000">iop/dev9/hdpro_atad</text>
<text text-anchor="middle" x="632" y="-7.5" font-family="Helvetica,sans-Serif" font-size="10.00" fill="#000000">/src/irx_imports.h</text>
</a>
</g>
</g>
<!-- Node1&#45;&gt;Node6 -->
<g id="edge5" class="edge">
<title>Node1&#45;&gt;Node6</title>
<path fill="none" stroke="#191970" d="M3304.5688,-82.0736C2927.8202,-79.3967 964.8252,-63.9493 699,-31 696.1564,-30.6475 693.257,-30.2249 690.3375,-29.7484"/>
<polygon fill="#191970" stroke="#191970" points="3304.7082,-85.5745 3314.7327,-82.1454 3304.7577,-78.5747 3304.7082,-85.5745"/>
</g>
<!-- Node7 -->
<g id="node7" class="node">
<title>Node7</title>
<g id="a_node7"><a xlink:href="bdm_8c.html" target="_top" xlink:title=" ">
<polygon fill="#ffffff" stroke="#000000" points="708.5,-6 708.5,-25 827.5,-25 827.5,-6 708.5,-6"/>
<text text-anchor="middle" x="768" y="-13" font-family="Helvetica,sans-Serif" font-size="10.00" fill="#000000">iop/fs/bdm/src/bdm.c</text>
</a>
</g>
</g>
<!-- Node1&#45;&gt;Node7 -->
<g id="edge6" class="edge">
<title>Node1&#45;&gt;Node7</title>
<path fill="none" stroke="#191970" d="M3304.8968,-81.9943C2940.5009,-78.9261 1087.5447,-61.9 836,-31 825.304,-29.6861 813.8262,-27.4124 803.403,-25.005"/>
<polygon fill="#191970" stroke="#191970" points="3304.9611,-85.4949 3314.9902,-82.0789 3305.0199,-78.4951 3304.9611,-85.4949"/>
</g>
<!-- Node8 -->
<g id="node8" class="node">
<title>Node8</title>
<g id="a_node8"><a xlink:href="fs_2bdm_2src_2irx__imports_8h.html" target="_top" xlink:title=" ">
<polygon fill="#ffffff" stroke="#000000" points="845.5,-.5 845.5,-30.5 946.5,-30.5 946.5,-.5 845.5,-.5"/>
<text text-anchor="start" x="853.5" y="-18.5" font-family="Helvetica,sans-Serif" font-size="10.00" fill="#000000">iop/fs/bdm/src/irx</text>
<text text-anchor="middle" x="896" y="-7.5" font-family="Helvetica,sans-Serif" font-size="10.00" fill="#000000">_imports.h</text>
</a>
</g>
</g>
<!-- Node1&#45;&gt;Node8 -->
<g id="edge7" class="edge">
<title>Node1&#45;&gt;Node8</title>
<path fill="none" stroke="#191970" d="M3304.7118,-82.0471C2950.1133,-79.3521 1193.4903,-64.3963 955,-31 952.273,-30.6181 949.4914,-30.154 946.6944,-29.6281"/>
<polygon fill="#191970" stroke="#191970" points="3304.7649,-85.5475 3314.791,-82.1233 3304.8178,-78.5477 3304.7649,-85.5475"/>
</g>
<!-- Node9 -->
<g id="node9" class="node">
<title>Node9</title>
<g id="a_node9"><a xlink:href="devfs_8c.html" target="_top" xlink:title=" ">
<polygon fill="#ffffff" stroke="#000000" points="964.5,-6 964.5,-25 1093.5,-25 1093.5,-6 964.5,-6"/>
<text text-anchor="middle" x="1029" y="-13" font-family="Helvetica,sans-Serif" font-size="10.00" fill="#000000">iop/fs/devfs/src/devfs.c</text>
</a>
</g>
</g>
<!-- Node1&#45;&gt;Node9 -->
<g id="edge8" class="edge">
<title>Node1&#45;&gt;Node9</title>
<path fill="none" stroke="#191970" d="M3304.7587,-81.7785C2963.4057,-77.7289 1325.7924,-57.0719 1102,-31 1090.6752,-29.6807 1078.5102,-27.4368 1067.4209,-25.06"/>
<polygon fill="#191970" stroke="#191970" points="3304.907,-85.2804 3314.9477,-81.899 3304.9898,-78.2809 3304.907,-85.2804"/>
</g>
<!-- Node10 -->
<g id="node10" class="node">
<title>Node10</title>
<g id="a_node10"><a xlink:href="iLink_2IEEE1394__bd_2src_2irx__imports_8h.html" target="_top" xlink:title=" ">
<polygon fill="#ffffff" stroke="#000000" points="1111.5,-.5 1111.5,-30.5 1230.5,-30.5 1230.5,-.5 1111.5,-.5"/>
<text text-anchor="start" x="1119.5" y="-18.5" font-family="Helvetica,sans-Serif" font-size="10.00" fill="#000000">iop/iLink/IEEE1394</text>
<text text-anchor="middle" x="1171" y="-7.5" font-family="Helvetica,sans-Serif" font-size="10.00" fill="#000000">_bd/src/irx_imports.h</text>
</a>
</g>
</g>
<!-- Node1&#45;&gt;Node10 -->
<g id="edge9" class="edge">
<title>Node1&#45;&gt;Node10</title>
<path fill="none" stroke="#191970" d="M3304.3405,-81.7307C2974.6553,-77.5831 1448.1589,-57.1022 1239,-31 1236.2365,-30.6551 1233.4207,-30.2471 1230.5843,-29.7901"/>
<polygon fill="#191970" stroke="#191970" points="3304.6108,-85.2343 3314.6539,-81.8601 3304.6986,-78.2349 3304.6108,-85.2343"/>
</g>
<!-- Node11 -->
<g id="node11" class="node">
<title>Node11</title>
<g id="a_node11"><a xlink:href="IEEE1394__bd_2src_2sbp2__driver_8c.html" target="_top" xlink:title=" ">
<polygon fill="#ffffff" stroke="#000000" points="1248.5,-.5 1248.5,-30.5 1367.5,-30.5 1367.5,-.5 1248.5,-.5"/>
<text text-anchor="start" x="1256.5" y="-18.5" font-family="Helvetica,sans-Serif" font-size="10.00" fill="#000000">iop/iLink/IEEE1394</text>
<text text-anchor="middle" x="1308" y="-7.5" font-family="Helvetica,sans-Serif" font-size="10.00" fill="#000000">_bd/src/sbp2_driver.c</text>
</a>
</g>
</g>
<!-- Node1&#45;&gt;Node11 -->
<g id="edge10" class="edge">
<title>Node1&#45;&gt;Node11</title>
<path fill="none" stroke="#191970" d="M3304.3466,-81.6191C2987.6922,-77.0673 1570.8424,-55.4803 1376,-31 1373.2368,-30.6528 1370.4212,-30.2429 1367.585,-29.7844"/>
<polygon fill="#191970" stroke="#191970" points="3304.6579,-85.1238 3314.7071,-81.7675 3304.7583,-78.1245 3304.6579,-85.1238"/>
</g>
<!-- Node12 -->
<g id="node12" class="node">
<title>Node12</title>
<g id="a_node12"><a xlink:href="iLink_2IEEE1394__disk_2src_2irx__imports_8h.html" target="_top" xlink:title=" ">
<polygon fill="#ffffff" stroke="#000000" points="1385.5,-.5 1385.5,-30.5 1512.5,-30.5 1512.5,-.5 1385.5,-.5"/>
<text text-anchor="start" x="1393.5" y="-18.5" font-family="Helvetica,sans-Serif" font-size="10.00" fill="#000000">iop/iLink/IEEE1394</text>
<text text-anchor="middle" x="1449" y="-7.5" font-family="Helvetica,sans-Serif" font-size="10.00" fill="#000000">_disk/src/irx_imports.h</text>
</a>
</g>
</g>
<!-- Node1&#45;&gt;Node12 -->
<g id="edge11" class="edge">
<title>Node1&#45;&gt;Node12</title>
<path fill="none" stroke="#191970" d="M3304.371,-82.3015C3023.4159,-81.173 1877.4949,-73.9737 1521,-31 1518.3342,-30.6786 1515.6212,-30.3057 1512.8868,-29.8918"/>
<polygon fill="#191970" stroke="#191970" points="3304.7629,-85.8029 3314.7765,-82.3421 3304.7903,-78.803 3304.7629,-85.8029"/>
</g>
<!-- Node13 -->
<g id="node13" class="node">
<title>Node13</title>
<g id="a_node13"><a xlink:href="IEEE1394__disk_2src_2sbp2__driver_8c.html" target="_top" xlink:title=" ">
<polygon fill="#ffffff" stroke="#000000" points="1530.5,-.5 1530.5,-30.5 1657.5,-30.5 1657.5,-.5 1530.5,-.5"/>
<text text-anchor="start" x="1538.5" y="-18.5" font-family="Helvetica,sans-Serif" font-size="10.00" fill="#000000">iop/iLink/IEEE1394</text>
<text text-anchor="middle" x="1594" y="-7.5" font-family="Helvetica,sans-Serif" font-size="10.00" fill="#000000">_disk/src/sbp2_driver.c</text>
</a>
</g>
</g>
<!-- Node1&#45;&gt;Node13 -->
<g id="edge12" class="edge">
<title>Node1&#45;&gt;Node13</title>
<path fill="none" stroke="#191970" d="M3304.5818,-82.1051C3037.9576,-80.1877 1993.3606,-70.2706 1667,-31 1663.9128,-30.6285 1660.7628,-30.1905 1657.589,-29.7016"/>
<polygon fill="#191970" stroke="#191970" points="3304.8232,-85.6068 3314.8478,-82.1777 3304.8728,-78.607 3304.8232,-85.6068"/>
</g>
<!-- Node14 -->
<g id="node14" class="node">
<title>Node14</title>
<g id="a_node14"><a xlink:href="iLink_8c.html" target="_top" xlink:title=" ">
<polygon fill="#ffffff" stroke="#000000" points="1676,-.5 1676,-30.5 1782,-30.5 1782,-.5 1676,-.5"/>
<text text-anchor="start" x="1684" y="-18.5" font-family="Helvetica,sans-Serif" font-size="10.00" fill="#000000">iop/iLink/iLinkman</text>
<text text-anchor="middle" x="1729" y="-7.5" font-family="Helvetica,sans-Serif" font-size="10.00" fill="#000000">/src/iLink.c</text>
</a>
</g>
</g>
<!-- Node1&#45;&gt;Node14 -->
<g id="edge13" class="edge">
<title>Node1&#45;&gt;Node14</title>
<path fill="none" stroke="#191970" d="M3304.5434,-82.2284C3050.1036,-80.8486 2091.0082,-72.9175 1791,-31 1788.143,-30.6008 1785.2268,-30.1228 1782.2929,-29.5862"/>
<polygon fill="#191970" stroke="#191970" points="3304.6959,-85.7291 3314.7143,-82.2821 3304.7329,-78.7292 3304.6959,-85.7291"/>
</g>
<!-- Node15 -->
<g id="node15" class="node">
<title>Node15</title>
<g id="a_node15"><a xlink:href="iLink__DMA_8c.html" target="_top" xlink:title=" ">
<polygon fill="#ffffff" stroke="#000000" points="1800,-.5 1800,-30.5 1906,-30.5 1906,-.5 1800,-.5"/>
<text text-anchor="start" x="1808" y="-18.5" font-family="Helvetica,sans-Serif" font-size="10.00" fill="#000000">iop/iLink/iLinkman</text>
<text text-anchor="middle" x="1853" y="-7.5" font-family="Helvetica,sans-Serif" font-size="10.00" fill="#000000">/src/iLink_DMA.c</text>
</a>
</g>
</g>
<!-- Node1&#45;&gt;Node15 -->
<g id="edge14" class="edge">
<title>Node1&#45;&gt;Node15</title>
<path fill="none" stroke="#191970" d="M3304.7151,-82.0272C3063.3563,-79.9257 2189.546,-69.75 1915,-31 1912.1436,-30.5968 1909.2278,-30.1157 1906.2943,-29.5765"/>
<polygon fill="#191970" stroke="#191970" points="3304.6907,-85.527 3314.7204,-82.1128 3304.7507,-78.5272 3304.6907,-85.527"/>
</g>
<!-- Node16 -->
<g id="node16" class="node">
<title>Node16</title>
<g id="a_node16"><a xlink:href="iLink__internal_8c.html" target="_top" xlink:title=" ">
<polygon fill="#ffffff" stroke="#000000" points="1924.5,-.5 1924.5,-30.5 2035.5,-30.5 2035.5,-.5 1924.5,-.5"/>
<text text-anchor="start" x="1932.5" y="-18.5" font-family="Helvetica,sans-Serif" font-size="10.00" fill="#000000">iop/iLink/iLinkman</text>
<text text-anchor="middle" x="1980" y="-7.5" font-family="Helvetica,sans-Serif" font-size="10.00" fill="#000000">/src/iLink_internal.c</text>
</a>
</g>
</g>
<!-- Node1&#45;&gt;Node16 -->
<g id="edge15" class="edge">
<title>Node1&#45;&gt;Node16</title>
<path fill="none" stroke="#191970" d="M3304.7324,-81.6859C3077.4674,-78.4636 2293.0581,-65.0751 2045,-31 2041.8968,-30.5737 2038.7252,-30.065 2035.5341,-29.4958"/>
<polygon fill="#191970" stroke="#191970" points="3304.7642,-85.1866 3314.8124,-81.8273 3304.8625,-78.1873 3304.7642,-85.1866"/>
</g>
<!-- Node17 -->
<g id="node17" class="node">
<title>Node17</title>
<g id="a_node17"><a xlink:href="iLink__intr_8c.html" target="_top" xlink:title=" ">
<polygon fill="#ffffff" stroke="#000000" points="2054,-.5 2054,-30.5 2160,-30.5 2160,-.5 2054,-.5"/>
<text text-anchor="start" x="2062" y="-18.5" font-family="Helvetica,sans-Serif" font-size="10.00" fill="#000000">iop/iLink/iLinkman</text>
<text text-anchor="middle" x="2107" y="-7.5" font-family="Helvetica,sans-Serif" font-size="10.00" fill="#000000">/src/iLink_intr.c</text>
</a>
</g>
</g>
<!-- Node1&#45;&gt;Node17 -->
<g id="edge16" class="edge">
<title>Node1&#45;&gt;Node17</title>
<path fill="none" stroke="#191970" d="M3304.5835,-81.4816C3091.1674,-77.7391 2391.4684,-63.252 2169,-31 2166.1451,-30.5861 2163.2306,-30.0964 2160.298,-29.5506"/>
<polygon fill="#191970" stroke="#191970" points="3304.6141,-84.9826 3314.6734,-81.6569 3304.7357,-77.9837 3304.6141,-84.9826"/>
</g>
<!-- Node18 -->
<g id="node18" class="node">
<title>Node18</title>
<g id="a_node18"><a xlink:href="iLink__TxRx_8c.html" target="_top" xlink:title=" ">
<polygon fill="#ffffff" stroke="#000000" points="2178,-.5 2178,-30.5 2284,-30.5 2284,-.5 2178,-.5"/>
<text text-anchor="start" x="2186" y="-18.5" font-family="Helvetica,sans-Serif" font-size="10.00" fill="#000000">iop/iLink/iLinkman</text>
<text text-anchor="middle" x="2231" y="-7.5" font-family="Helvetica,sans-Serif" font-size="10.00" fill="#000000">/src/iLink_TxRx.c</text>
</a>
</g>
</g>
<!-- Node1&#45;&gt;Node18 -->
<g id="edge17" class="edge">
<title>Node1&#45;&gt;Node18</title>
<path fill="none" stroke="#191970" d="M3304.4771,-81.1209C3105.7668,-76.4831 2490.1897,-60.086 2293,-31 2290.1461,-30.579 2287.2324,-30.0837 2284.3005,-29.5335"/>
<polygon fill="#191970" stroke="#191970" points="3304.6599,-84.626 3314.7383,-81.3586 3304.8221,-77.6279 3304.6599,-84.626"/>
</g>
<!-- Node19 -->
<g id="node19" class="node">
<title>Node19</title>
<g id="a_node19"><a xlink:href="iLink_2iLinkman_2src_2irx__imports_8h.html" target="_top" xlink:title=" ">
<polygon fill="#ffffff" stroke="#000000" points="2302,-.5 2302,-30.5 2408,-30.5 2408,-.5 2302,-.5"/>
<text text-anchor="start" x="2310" y="-18.5" font-family="Helvetica,sans-Serif" font-size="10.00" fill="#000000">iop/iLink/iLinkman</text>
<text text-anchor="middle" x="2355" y="-7.5" font-family="Helvetica,sans-Serif" font-size="10.00" fill="#000000">/src/irx_imports.h</text>
</a>
</g>
</g>
<!-- Node1&#45;&gt;Node19 -->
<g id="edge18" class="edge">
<title>Node1&#45;&gt;Node19</title>
<path fill="none" stroke="#191970" d="M3304.6672,-80.6753C3121.8515,-75.0773 2589.1346,-56.9396 2417,-31 2414.1475,-30.5701 2411.2348,-30.0677 2408.3037,-29.5119"/>
<polygon fill="#191970" stroke="#191970" points="3304.8113,-84.1812 3314.9132,-80.9871 3305.0243,-77.1845 3304.8113,-84.1812"/>
</g>
<!-- Node20 -->
<g id="node20" class="node">
<title>Node20</title>
<g id="a_node20"><a xlink:href="network_2netman_2src_2irx__imports_8h.html" target="_top" xlink:title=" ">
<polygon fill="#ffffff" stroke="#000000" points="2426.5,-.5 2426.5,-30.5 2541.5,-30.5 2541.5,-.5 2426.5,-.5"/>
<text text-anchor="start" x="2434.5" y="-18.5" font-family="Helvetica,sans-Serif" font-size="10.00" fill="#000000">iop/network/netman</text>
<text text-anchor="middle" x="2484" y="-7.5" font-family="Helvetica,sans-Serif" font-size="10.00" fill="#000000">/src/irx_imports.h</text>
</a>
</g>
</g>
<!-- Node1&#45;&gt;Node20 -->
<g id="edge19" class="edge">
<title>Node1&#45;&gt;Node20</title>
<path fill="none" stroke="#191970" d="M3304.5509,-79.9225C3139.6899,-72.9005 2695.4828,-52.5132 2550,-31 2547.322,-30.604 2544.5925,-30.154 2541.8423,-29.663"/>
<polygon fill="#191970" stroke="#191970" points="3304.8606,-83.4387 3314.9999,-80.3656 3305.1572,-76.445 3304.8606,-83.4387"/>
</g>
<!-- Node21 -->
<g id="node21" class="node">
<title>Node21</title>
<g id="a_node21"><a xlink:href="netman_8c.html" target="_top" xlink:title=" ">
<polygon fill="#ffffff" stroke="#000000" points="2559.5,-.5 2559.5,-30.5 2674.5,-30.5 2674.5,-.5 2559.5,-.5"/>
<text text-anchor="start" x="2567.5" y="-18.5" font-family="Helvetica,sans-Serif" font-size="10.00" fill="#000000">iop/network/netman</text>
<text text-anchor="middle" x="2617" y="-7.5" font-family="Helvetica,sans-Serif" font-size="10.00" fill="#000000">/src/netman.c</text>
</a>
</g>
</g>
<!-- Node1&#45;&gt;Node21 -->
<g id="edge20" class="edge">
<title>Node1&#45;&gt;Node21</title>
<path fill="none" stroke="#191970" d="M3304.6137,-81.0453C3183.9147,-77.5159 2910.2973,-66.0294 2683,-31 2680.3245,-30.5877 2677.597,-30.1243 2674.8484,-29.6224"/>
<polygon fill="#191970" stroke="#191970" points="3304.6772,-84.5484 3314.7726,-81.334 3304.8761,-77.5512 3304.6772,-84.5484"/>
</g>
<!-- Node22 -->
<g id="node22" class="node">
<title>Node22</title>
<g id="a_node22"><a xlink:href="network_2netman_2src_2rpc__client_8c.html" target="_top" xlink:title=" ">
<polygon fill="#ffffff" stroke="#000000" points="2692.5,-.5 2692.5,-30.5 2807.5,-30.5 2807.5,-.5 2692.5,-.5"/>
<text text-anchor="start" x="2700.5" y="-18.5" font-family="Helvetica,sans-Serif" font-size="10.00" fill="#000000">iop/network/netman</text>
<text text-anchor="middle" x="2750" y="-7.5" font-family="Helvetica,sans-Serif" font-size="10.00" fill="#000000">/src/rpc_client.c</text>
</a>
</g>
</g>
<!-- Node1&#45;&gt;Node22 -->
<g id="edge21" class="edge">
<title>Node1&#45;&gt;Node22</title>
<path fill="none" stroke="#191970" d="M3304.4775,-79.4609C3201.92,-73.8488 2991.78,-59.7158 2816,-31 2813.3283,-30.5635 2810.6039,-30.0804 2807.8579,-29.5625"/>
<polygon fill="#191970" stroke="#191970" points="3304.4838,-82.9662 3314.6576,-80.0092 3304.8604,-75.9763 3304.4838,-82.9662"/>
</g>
<!-- Node23 -->
<g id="node23" class="node">
<title>Node23</title>
<g id="a_node23"><a xlink:href="network_2netman_2src_2rpc__server_8c.html" target="_top" xlink:title=" ">
<polygon fill="#ffffff" stroke="#000000" points="2825.5,-.5 2825.5,-30.5 2940.5,-30.5 2940.5,-.5 2825.5,-.5"/>
<text text-anchor="start" x="2833.5" y="-18.5" font-family="Helvetica,sans-Serif" font-size="10.00" fill="#000000">iop/network/netman</text>
<text text-anchor="middle" x="2883" y="-7.5" font-family="Helvetica,sans-Serif" font-size="10.00" fill="#000000">/src/rpc_server.c</text>
</a>
</g>
</g>
<!-- Node1&#45;&gt;Node23 -->
<g id="edge22" class="edge">
<title>Node1&#45;&gt;Node23</title>
<path fill="none" stroke="#191970" d="M3304.6048,-76.8472C3222.8065,-68.9678 3075.0247,-53.1198 2950,-31 2946.9433,-30.4592 2943.8164,-29.8684 2940.665,-29.2432"/>
<polygon fill="#191970" stroke="#191970" points="3304.4437,-80.3476 3314.7312,-77.8143 3305.1093,-73.3793 3304.4437,-80.3476"/>
</g>
<!-- Node24 -->
<g id="node24" class="node">
<title>Node24</title>
<g id="a_node24"><a xlink:href="network_2smap_2src_2include_2irx__imports_8h.html" target="_top" xlink:title=" ">
<polygon fill="#ffffff" stroke="#000000" points="2959,-.5 2959,-30.5 3081,-30.5 3081,-.5 2959,-.5"/>
<text text-anchor="start" x="2967" y="-18.5" font-family="Helvetica,sans-Serif" font-size="10.00" fill="#000000">iop/network/smap/src</text>
<text text-anchor="middle" x="3020" y="-7.5" font-family="Helvetica,sans-Serif" font-size="10.00" fill="#000000">/include/irx_imports.h</text>
</a>
</g>
</g>
<!-- Node1&#45;&gt;Node24 -->
<g id="edge23" class="edge">
<title>Node1&#45;&gt;Node24</title>
<path fill="none" stroke="#191970" d="M3304.6689,-71.5378C3248.4506,-61.5018 3163.5496,-45.9756 3090,-31 3087.0727,-30.404 3084.0791,-29.7835 3081.0573,-29.1483"/>
<polygon fill="#191970" stroke="#191970" points="3304.3642,-75.0386 3314.823,-73.3465 3305.5918,-68.147 3304.3642,-75.0386"/>
</g>
<!-- Node25 -->
<g id="node25" class="node">
<title>Node25</title>
<g id="a_node25"><a xlink:href="smap_8c.html" target="_top" xlink:title=" ">
<polygon fill="#ffffff" stroke="#000000" points="3099,-.5 3099,-30.5 3221,-30.5 3221,-.5 3099,-.5"/>
<text text-anchor="start" x="3107" y="-18.5" font-family="Helvetica,sans-Serif" font-size="10.00" fill="#000000">iop/network/smap/src</text>
<text text-anchor="middle" x="3160" y="-7.5" font-family="Helvetica,sans-Serif" font-size="10.00" fill="#000000">/smap.c</text>
</a>
</g>
</g>
<!-- Node1&#45;&gt;Node25 -->
<g id="edge24" class="edge">
<title>Node1&#45;&gt;Node25</title>
<path fill="none" stroke="#191970" d="M3310.6957,-64.2759C3278.0719,-53.7165 3237.4875,-40.5805 3206.6575,-30.6017"/>
<polygon fill="#191970" stroke="#191970" points="3309.9533,-67.7143 3320.5452,-67.4639 3312.1089,-61.0545 3309.9533,-67.7143"/>
</g>
<!-- Node26 -->
<g id="node26" class="node">
<title>Node26</title>
<g id="a_node26"><a xlink:href="xfer_8c.html" target="_top" xlink:title=" ">
<polygon fill="#ffffff" stroke="#000000" points="3239,-.5 3239,-30.5 3361,-30.5 3361,-.5 3239,-.5"/>
<text text-anchor="start" x="3247" y="-18.5" font-family="Helvetica,sans-Serif" font-size="10.00" fill="#000000">iop/network/smap/src</text>
<text text-anchor="middle" x="3300" y="-7.5" font-family="Helvetica,sans-Serif" font-size="10.00" fill="#000000">/xfer.c</text>
</a>
</g>
</g>
<!-- Node1&#45;&gt;Node26 -->
<g id="edge25" class="edge">
<title>Node1&#45;&gt;Node26</title>
<path fill="none" stroke="#191970" d="M3344.7113,-60.2113C3335.0009,-50.5009 3323.8698,-39.3698 3315.1432,-30.6432"/>
<polygon fill="#191970" stroke="#191970" points="3342.2507,-62.7004 3351.7967,-67.2967 3347.2004,-57.7507 3342.2507,-62.7004"/>
</g>
<!-- Node27 -->
<g id="node27" class="node">
<title>Node27</title>
<g id="a_node27"><a xlink:href="network_2udptty_2src_2irx__imports_8h.html" target="_top" xlink:title=" ">
<polygon fill="#ffffff" stroke="#000000" points="3379.5,-.5 3379.5,-30.5 3488.5,-30.5 3488.5,-.5 3379.5,-.5"/>
<text text-anchor="start" x="3387.5" y="-18.5" font-family="Helvetica,sans-Serif" font-size="10.00" fill="#000000">iop/network/udptty</text>
<text text-anchor="middle" x="3434" y="-7.5" font-family="Helvetica,sans-Serif" font-size="10.00" fill="#000000">/src/irx_imports.h</text>
</a>
</g>
</g>
<!-- Node1&#45;&gt;Node27 -->
<g id="edge26" class="edge">
<title>Node1&#45;&gt;Node27</title>
<path fill="none" stroke="#191970" d="M3389.2887,-60.2113C3398.9991,-50.5009 3410.1302,-39.3698 3418.8568,-30.6432"/>
<polygon fill="#191970" stroke="#191970" points="3386.7996,-57.7507 3382.2033,-67.2967 3391.7493,-62.7004 3386.7996,-57.7507"/>
</g>
<!-- Node28 -->
<g id="node28" class="node">
<title>Node28</title>
<g id="a_node28"><a xlink:href="udptty_8c.html" target="_top" xlink:title=" ">
<polygon fill="#ffffff" stroke="#000000" points="3506.5,-.5 3506.5,-30.5 3615.5,-30.5 3615.5,-.5 3506.5,-.5"/>
<text text-anchor="start" x="3514.5" y="-18.5" font-family="Helvetica,sans-Serif" font-size="10.00" fill="#000000">iop/network/udptty</text>
<text text-anchor="middle" x="3561" y="-7.5" font-family="Helvetica,sans-Serif" font-size="10.00" fill="#000000">/src/udptty.c</text>
</a>
</g>
</g>
<!-- Node1&#45;&gt;Node28 -->
<g id="edge27" class="edge">
<title>Node1&#45;&gt;Node28</title>
<path fill="none" stroke="#191970" d="M3420.164,-64.1392C3450.6709,-53.6033 3488.5034,-40.5375 3517.2727,-30.6017"/>
<polygon fill="#191970" stroke="#191970" points="3418.847,-60.8912 3410.5374,-67.4639 3421.1321,-67.5077 3418.847,-60.8912"/>
</g>
<!-- Node29 -->
<g id="node29" class="node">
<title>Node29</title>
<g id="a_node29"><a xlink:href="freemtap_8c.html" target="_top" xlink:title=" ">
<polygon fill="#ffffff" stroke="#000000" points="3633.5,-.5 3633.5,-30.5 3754.5,-30.5 3754.5,-.5 3633.5,-.5"/>
<text text-anchor="start" x="3641.5" y="-18.5" font-family="Helvetica,sans-Serif" font-size="10.00" fill="#000000">iop/system/mtapman</text>
<text text-anchor="middle" x="3694" y="-7.5" font-family="Helvetica,sans-Serif" font-size="10.00" fill="#000000">/src/freemtap.c</text>
</a>
</g>
</g>
<!-- Node1&#45;&gt;Node29 -->
<g id="edge28" class="edge">
<title>Node1&#45;&gt;Node29</title>
<path fill="none" stroke="#191970" d="M3429.5812,-70.4432C3481.8829,-60.2624 3558.3968,-45.1261 3625,-31 3627.7624,-30.4141 3630.5854,-29.8084 3633.4358,-29.1911"/>
<polygon fill="#191970" stroke="#191970" points="3428.6024,-67.0678 3419.4539,-72.4115 3429.938,-73.9392 3428.6024,-67.0678"/>
</g>
<!-- Node30 -->
<g id="node30" class="node">
<title>Node30</title>
<g id="a_node30"><a xlink:href="system_2mtapman_2src_2irx__imports_8h.html" target="_top" xlink:title=" ">
<polygon fill="#ffffff" stroke="#000000" points="3772.5,-.5 3772.5,-30.5 3893.5,-30.5 3893.5,-.5 3772.5,-.5"/>
<text text-anchor="start" x="3780.5" y="-18.5" font-family="Helvetica,sans-Serif" font-size="10.00" fill="#000000">iop/system/mtapman</text>
<text text-anchor="middle" x="3833" y="-7.5" font-family="Helvetica,sans-Serif" font-size="10.00" fill="#000000">/src/irx_imports.h</text>
</a>
</g>
</g>
<!-- Node1&#45;&gt;Node30 -->
<g id="edge29" class="edge">
<title>Node1&#45;&gt;Node30</title>
<path fill="none" stroke="#191970" d="M3429.449,-76.1955C3507.8799,-67.8657 3646.4293,-51.7858 3764,-31 3766.7807,-30.5084 3769.6188,-29.98 3772.4814,-29.4254"/>
<polygon fill="#191970" stroke="#191970" points="3428.8336,-72.7409 3419.2558,-77.2704 3429.5677,-79.7023 3428.8336,-72.7409"/>
</g>
<!-- Node31 -->
<g id="node31" class="node">
<title>Node31</title>
<g id="a_node31"><a xlink:href="freepad_8c.html" target="_top" xlink:title=" ">
<polygon fill="#ffffff" stroke="#000000" points="3911.5,-.5 3911.5,-30.5 4042.5,-30.5 4042.5,-.5 3911.5,-.5"/>
<text text-anchor="start" x="3919.5" y="-18.5" font-family="Helvetica,sans-Serif" font-size="10.00" fill="#000000">iop/system/padman/src</text>
<text text-anchor="middle" x="3977" y="-7.5" font-family="Helvetica,sans-Serif" font-size="10.00" fill="#000000">/freepad.c</text>
</a>
</g>
</g>
<!-- Node1&#45;&gt;Node31 -->
<g id="edge30" class="edge">
<title>Node1&#45;&gt;Node31</title>
<path fill="none" stroke="#191970" d="M3429.6159,-78.7404C3529.9416,-72.2104 3732.7372,-56.9298 3903,-31 3905.725,-30.585 3908.501,-30.1338 3911.3011,-29.6551"/>
<polygon fill="#191970" stroke="#191970" points="3429.11,-75.2656 3419.3555,-79.4008 3429.5597,-82.2511 3429.11,-75.2656"/>
</g>
<!-- Node32 -->
<g id="node32" class="node">
<title>Node32</title>
<g id="a_node32"><a xlink:href="system_2padman_2src_2irx__imports_8h.html" target="_top" xlink:title=" ">
<polygon fill="#ffffff" stroke="#000000" points="4060.5,-.5 4060.5,-30.5 4191.5,-30.5 4191.5,-.5 4060.5,-.5"/>
<text text-anchor="start" x="4068.5" y="-18.5" font-family="Helvetica,sans-Serif" font-size="10.00" fill="#000000">iop/system/padman/src</text>
<text text-anchor="middle" x="4126" y="-7.5" font-family="Helvetica,sans-Serif" font-size="10.00" fill="#000000">/irx_imports.h</text>
</a>
</g>
</g>
<!-- Node1&#45;&gt;Node32 -->
<g id="edge31" class="edge">
<title>Node1&#45;&gt;Node32</title>
<path fill="none" stroke="#191970" d="M3429.4037,-80.5534C3550.1528,-76.1809 3823.9628,-63.3117 4052,-31 4054.7292,-30.6133 4057.5086,-30.1857 4060.3116,-29.7266"/>
<polygon fill="#191970" stroke="#191970" points="3429.1102,-77.0615 3419.2408,-80.9144 3429.3587,-84.0571 3429.1102,-77.0615"/>
</g>
<!-- Node33 -->
<g id="node33" class="node">
<title>Node33</title>
<g id="a_node33"><a xlink:href="padCmds_8c.html" target="_top" xlink:title=" ">
<polygon fill="#ffffff" stroke="#000000" points="4209.5,-.5 4209.5,-30.5 4340.5,-30.5 4340.5,-.5 4209.5,-.5"/>
<text text-anchor="start" x="4217.5" y="-18.5" font-family="Helvetica,sans-Serif" font-size="10.00" fill="#000000">iop/system/padman/src</text>
<text text-anchor="middle" x="4275" y="-7.5" font-family="Helvetica,sans-Serif" font-size="10.00" fill="#000000">/padCmds.c</text>
</a>
</g>
</g>
<!-- Node1&#45;&gt;Node33 -->
<g id="edge32" class="edge">
<title>Node1&#45;&gt;Node33</title>
<path fill="none" stroke="#191970" d="M3429.5236,-81.7263C3568.7292,-79.3294 3914.5278,-69.6401 4201,-31 4203.7317,-30.6315 4206.5132,-30.2192 4209.318,-29.7727"/>
<polygon fill="#191970" stroke="#191970" points="3429.4056,-78.2277 3419.465,-81.8929 3429.5216,-85.2267 3429.4056,-78.2277"/>
</g>
<!-- Node34 -->
<g id="node34" class="node">
<title>Node34</title>
<g id="a_node34"><a xlink:href="padInit_8c.html" target="_top" xlink:title=" ">
<polygon fill="#ffffff" stroke="#000000" points="4358.5,-.5 4358.5,-30.5 4489.5,-30.5 4489.5,-.5 4358.5,-.5"/>
<text text-anchor="start" x="4366.5" y="-18.5" font-family="Helvetica,sans-Serif" font-size="10.00" fill="#000000">iop/system/padman/src</text>
<text text-anchor="middle" x="4424" y="-7.5" font-family="Helvetica,sans-Serif" font-size="10.00" fill="#000000">/padInit.c</text>
</a>
</g>
</g>
<!-- Node1&#45;&gt;Node34 -->
<g id="edge33" class="edge">
<title>Node1&#45;&gt;Node34</title>
<path fill="none" stroke="#191970" d="M3429.207,-80.4976C3616.0898,-74.2831 4170.6858,-54.3352 4350,-31 4352.7334,-30.6443 4355.5163,-30.2426 4358.3222,-29.805"/>
<polygon fill="#191970" stroke="#191970" points="3428.8857,-77.0062 3419.007,-80.8353 3429.1174,-84.0024 3428.8857,-77.0062"/>
</g>
<!-- Node35 -->
<g id="node35" class="node">
<title>Node35</title>
<g id="a_node35"><a xlink:href="padMiscFuncs_8c.html" target="_top" xlink:title=" ">
<polygon fill="#ffffff" stroke="#000000" points="4507.5,-.5 4507.5,-30.5 4638.5,-30.5 4638.5,-.5 4507.5,-.5"/>
<text text-anchor="start" x="4515.5" y="-18.5" font-family="Helvetica,sans-Serif" font-size="10.00" fill="#000000">iop/system/padman/src</text>
<text text-anchor="middle" x="4573" y="-7.5" font-family="Helvetica,sans-Serif" font-size="10.00" fill="#000000">/padMiscFuncs.c</text>
</a>
</g>
</g>
<!-- Node1&#45;&gt;Node35 -->
<g id="edge34" class="edge">
<title>Node1&#45;&gt;Node35</title>
<path fill="none" stroke="#191970" d="M3429.0265,-80.9956C3634.1304,-75.814 4289.3142,-57.5545 4499,-31 4501.7346,-30.6537 4504.5186,-30.2599 4507.3253,-29.8287"/>
<polygon fill="#191970" stroke="#191970" points="3428.9369,-77.4966 3419.028,-81.2468 3429.1128,-84.4944 3428.9369,-77.4966"/>
</g>
<!-- Node36 -->
<g id="node36" class="node">
<title>Node36</title>
<g id="a_node36"><a xlink:href="padPortOpen_8c.html" target="_top" xlink:title=" ">
<polygon fill="#ffffff" stroke="#000000" points="4656.5,-.5 4656.5,-30.5 4787.5,-30.5 4787.5,-.5 4656.5,-.5"/>
<text text-anchor="start" x="4664.5" y="-18.5" font-family="Helvetica,sans-Serif" font-size="10.00" fill="#000000">iop/system/padman/src</text>
<text text-anchor="middle" x="4722" y="-7.5" font-family="Helvetica,sans-Serif" font-size="10.00" fill="#000000">/padPortOpen.c</text>
</a>
</g>
</g>
<!-- Node1&#45;&gt;Node36 -->
<g id="edge35" class="edge">
<title>Node1&#45;&gt;Node36</title>
<path fill="none" stroke="#191970" d="M3429.5169,-81.3646C3652.4624,-77.1007 4408.0076,-60.7487 4648,-31 4650.7355,-30.6609 4653.5202,-30.2732 4656.3276,-29.847"/>
<polygon fill="#191970" stroke="#191970" points="3429.2389,-77.8692 3419.3072,-81.5585 3429.3719,-84.8679 3429.2389,-77.8692"/>
</g>
<!-- Node37 -->
<g id="node37" class="node">
<title>Node37</title>
<g id="a_node37"><a xlink:href="system_2rmman_2src_2irx__imports_8h.html" target="_top" xlink:title=" ">
<polygon fill="#ffffff" stroke="#000000" points="4806,-.5 4806,-30.5 4932,-30.5 4932,-.5 4806,-.5"/>
<text text-anchor="start" x="4814" y="-18.5" font-family="Helvetica,sans-Serif" font-size="10.00" fill="#000000">iop/system/rmman/src</text>
<text text-anchor="middle" x="4869" y="-7.5" font-family="Helvetica,sans-Serif" font-size="10.00" fill="#000000">/irx_imports.h</text>
</a>
</g>
</g>
<!-- Node1&#45;&gt;Node37 -->
<g id="edge36" class="edge">
<title>Node1&#45;&gt;Node37</title>
<path fill="none" stroke="#191970" d="M3429.4624,-81.7141C3668.6552,-78.4772 4526.4638,-64.725 4797,-31 4799.9183,-30.6362 4802.8934,-30.2127 4805.8915,-29.7431"/>
<polygon fill="#191970" stroke="#191970" points="3429.1611,-78.2177 3419.2089,-81.8515 3429.2549,-85.2171 3429.1611,-78.2177"/>
</g>
<!-- Node38 -->
<g id="node38" class="node">
<title>Node38</title>
<g id="a_node38"><a xlink:href="rmman_8c.html" target="_top" xlink:title=" ">
<polygon fill="#ffffff" stroke="#000000" points="4950,-.5 4950,-30.5 5076,-30.5 5076,-.5 4950,-.5"/>
<text text-anchor="start" x="4958" y="-18.5" font-family="Helvetica,sans-Serif" font-size="10.00" fill="#000000">iop/system/rmman/src</text>
<text text-anchor="middle" x="5013" y="-7.5" font-family="Helvetica,sans-Serif" font-size="10.00" fill="#000000">/rmman.c</text>
</a>
</g>
</g>
<!-- Node1&#45;&gt;Node38 -->
<g id="edge37" class="edge">
<title>Node1&#45;&gt;Node38</title>
<path fill="none" stroke="#191970" d="M3429.3416,-81.9536C3683.3185,-79.497 4640.7241,-67.9307 4941,-31 4943.9189,-30.641 4946.8944,-30.2214 4949.8929,-29.755"/>
<polygon fill="#191970" stroke="#191970" points="3429.1554,-78.4552 3419.1893,-82.0506 3429.2223,-85.4548 3429.1554,-78.4552"/>
</g>
<!-- Node39 -->
<g id="node39" class="node">
<title>Node39</title>
<g id="a_node39"><a xlink:href="system_2sio2man_2src_2irx__imports_8h.html" target="_top" xlink:title=" ">
<polygon fill="#ffffff" stroke="#000000" points="5094,-.5 5094,-30.5 5210,-30.5 5210,-.5 5094,-.5"/>
<text text-anchor="start" x="5102" y="-18.5" font-family="Helvetica,sans-Serif" font-size="10.00" fill="#000000">iop/system/sio2man</text>
<text text-anchor="middle" x="5152" y="-7.5" font-family="Helvetica,sans-Serif" font-size="10.00" fill="#000000">/src/irx_imports.h</text>
</a>
</g>
</g>
<!-- Node1&#45;&gt;Node39 -->
<g id="edge38" class="edge">
<title>Node1&#45;&gt;Node39</title>
<path fill="none" stroke="#191970" d="M3429.6506,-82.2777C3698.4524,-81.0688 4755.3709,-73.6442 5085,-31 5087.8417,-30.6324 5090.7395,-30.1974 5093.6578,-29.7111"/>
<polygon fill="#191970" stroke="#191970" points="3429.2875,-78.7791 3419.3029,-82.3229 3429.3181,-85.779 3429.2875,-78.7791"/>
</g>
<!-- Node40 -->
<g id="node40" class="node">
<title>Node40</title>
<g id="a_node40"><a xlink:href="sio2man_8c.html" target="_top" xlink:title=" ">
<polygon fill="#ffffff" stroke="#000000" points="5228,-.5 5228,-30.5 5344,-30.5 5344,-.5 5228,-.5"/>
<text text-anchor="start" x="5236" y="-18.5" font-family="Helvetica,sans-Serif" font-size="10.00" fill="#000000">iop/system/sio2man</text>
<text text-anchor="middle" x="5286" y="-7.5" font-family="Helvetica,sans-Serif" font-size="10.00" fill="#000000">/src/sio2man.c</text>
</a>
</g>
</g>
<!-- Node1&#45;&gt;Node40 -->
<g id="edge39" class="edge">
<title>Node1&#45;&gt;Node40</title>
<path fill="none" stroke="#191970" d="M3429.6337,-81.5011C3732.5804,-76.5698 5038.6881,-54.1284 5219,-31 5221.8421,-30.6354 5224.7402,-30.203 5227.6588,-29.7186"/>
<polygon fill="#191970" stroke="#191970" points="3429.2255,-78.0072 3419.2837,-81.6691 3429.3392,-85.0063 3429.2255,-78.0072"/>
</g>
<!-- Node41 -->
<g id="node41" class="node">
<title>Node41</title>
<g id="a_node41"><a xlink:href="tcpip_2src_2ps2ip_8c.html" target="_top" xlink:title=" ">
<polygon fill="#ffffff" stroke="#000000" points="5362.5,-.5 5362.5,-30.5 5465.5,-30.5 5465.5,-.5 5362.5,-.5"/>
<text text-anchor="start" x="5370.5" y="-18.5" font-family="Helvetica,sans-Serif" font-size="10.00" fill="#000000">iop/tcpip/tcpip/src</text>
<text text-anchor="middle" x="5414" y="-7.5" font-family="Helvetica,sans-Serif" font-size="10.00" fill="#000000">/ps2ip.c</text>
</a>
</g>
</g>
<!-- Node1&#45;&gt;Node41 -->
<g id="edge40" class="edge">
<title>Node1&#45;&gt;Node41</title>
<path fill="none" stroke="#191970" d="M3429.5081,-81.7083C3745.4267,-77.5956 5158.9641,-57.8254 5353,-31 5356.0307,-30.581 5359.1281,-30.0682 5362.2415,-29.4872"/>
<polygon fill="#191970" stroke="#191970" points="3429.1254,-78.2129 3419.1717,-81.8424 3429.2163,-85.2123 3429.1254,-78.2129"/>
</g>
<!-- Node42 -->
<g id="node42" class="node">
<title>Node42</title>
<g id="a_node42"><a xlink:href="tcpip-netman_2src_2ps2ip_8c.html" target="_top" xlink:title=" ">
<polygon fill="#ffffff" stroke="#000000" points="5483.5,-.5 5483.5,-30.5 5610.5,-30.5 5610.5,-.5 5483.5,-.5"/>
<text text-anchor="start" x="5491.5" y="-18.5" font-family="Helvetica,sans-Serif" font-size="10.00" fill="#000000">iop/tcpip/tcpip&#45;netman</text>
<text text-anchor="middle" x="5547" y="-7.5" font-family="Helvetica,sans-Serif" font-size="10.00" fill="#000000">/src/ps2ip.c</text>
</a>
</g>
</g>
<!-- Node1&#45;&gt;Node42 -->
<g id="edge41" class="edge">
<title>Node1&#45;&gt;Node42</title>
<path fill="none" stroke="#191970" d="M3429.5973,-81.6713C3757.2632,-77.2393 5267.7686,-55.6166 5475,-31 5477.6664,-30.6833 5480.3798,-30.3142 5483.1146,-29.9035"/>
<polygon fill="#191970" stroke="#191970" points="3429.2965,-78.1749 3419.3447,-81.8095 3429.391,-85.1743 3429.2965,-78.1749"/>
</g>
<!-- Node43 -->
<g id="node43" class="node">
<title>Node43</title>
<g id="a_node43"><a xlink:href="usb_2camera_2src_2irx__imports_8h.html" target="_top" xlink:title=" ">
<polygon fill="#ffffff" stroke="#000000" points="5628.5,-.5 5628.5,-30.5 5737.5,-30.5 5737.5,-.5 5628.5,-.5"/>
<text text-anchor="start" x="5636.5" y="-18.5" font-family="Helvetica,sans-Serif" font-size="10.00" fill="#000000">iop/usb/camera/src</text>
<text text-anchor="middle" x="5683" y="-7.5" font-family="Helvetica,sans-Serif" font-size="10.00" fill="#000000">/irx_imports.h</text>
</a>
</g>
</g>
<!-- Node1&#45;&gt;Node43 -->
<g id="edge42" class="edge">
<title>Node1&#45;&gt;Node43</title>
<path fill="none" stroke="#191970" d="M3429.2016,-81.8893C3769.4291,-78.4405 5397.8981,-60.4996 5620,-31 5622.6797,-30.6441 5625.4108,-30.2187 5628.1599,-29.7399"/>
<polygon fill="#191970" stroke="#191970" points="3429.0091,-78.391 3419.045,-81.9918 3429.0798,-85.3906 3429.0091,-78.391"/>
</g>
<!-- Node44 -->
<g id="node44" class="node">
<title>Node44</title>
<g id="a_node44"><a xlink:href="usb_2keyboard_2src_2irx__imports_8h.html" target="_top" xlink:title=" ">
<polygon fill="#ffffff" stroke="#000000" points="5756,-.5 5756,-30.5 5874,-30.5 5874,-.5 5756,-.5"/>
<text text-anchor="start" x="5764" y="-18.5" font-family="Helvetica,sans-Serif" font-size="10.00" fill="#000000">iop/usb/keyboard/src</text>
<text text-anchor="middle" x="5815" y="-7.5" font-family="Helvetica,sans-Serif" font-size="10.00" fill="#000000">/irx_imports.h</text>
</a>
</g>
</g>
<!-- Node1&#45;&gt;Node44 -->
<g id="edge43" class="edge">
<title>Node1&#45;&gt;Node44</title>
<path fill="none" stroke="#191970" d="M3429.2721,-81.9067C3780.9715,-78.4549 5511.3528,-60.1014 5747,-31 5749.8841,-30.6438 5752.8251,-30.2182 5755.7869,-29.7393"/>
<polygon fill="#191970" stroke="#191970" points="3428.9951,-78.4091 3419.0298,-82.0068 3429.0636,-85.4088 3428.9951,-78.4091"/>
</g>
<!-- Node45 -->
<g id="node45" class="node">
<title>Node45</title>
<g id="a_node45"><a xlink:href="ps2kbd_8c.html" target="_top" xlink:title=" ">
<polygon fill="#ffffff" stroke="#000000" points="5892,-.5 5892,-30.5 6010,-30.5 6010,-.5 5892,-.5"/>
<text text-anchor="start" x="5900" y="-18.5" font-family="Helvetica,sans-Serif" font-size="10.00" fill="#000000">iop/usb/keyboard/src</text>
<text text-anchor="middle" x="5951" y="-7.5" font-family="Helvetica,sans-Serif" font-size="10.00" fill="#000000">/ps2kbd.c</text>
</a>
</g>
</g>
<!-- Node1&#45;&gt;Node45 -->
<g id="edge44" class="edge">
<title>Node1&#45;&gt;Node45</title>
<path fill="none" stroke="#191970" d="M3429.3198,-81.9844C3792.9487,-78.8745 5633.0815,-61.7156 5883,-31 5885.8843,-30.6455 5888.8255,-30.2213 5891.7875,-29.7434"/>
<polygon fill="#191970" stroke="#191970" points="3429.215,-78.485 3419.2452,-82.0702 3429.2746,-85.4848 3429.215,-78.485"/>
</g>
<!-- Node46 -->
<g id="node46" class="node">
<title>Node46</title>
<g id="a_node46"><a xlink:href="usb_2mouse_2src_2irx__imports_8h.html" target="_top" xlink:title=" ">
<polygon fill="#ffffff" stroke="#000000" points="6028.5,-.5 6028.5,-30.5 6149.5,-30.5 6149.5,-.5 6028.5,-.5"/>
<text text-anchor="start" x="6036.5" y="-18.5" font-family="Helvetica,sans-Serif" font-size="10.00" fill="#000000">iop/usb/mouse/src/irx</text>
<text text-anchor="middle" x="6089" y="-7.5" font-family="Helvetica,sans-Serif" font-size="10.00" fill="#000000">_imports.h</text>
</a>
</g>
</g>
<!-- Node1&#45;&gt;Node46 -->
<g id="edge45" class="edge">
<title>Node1&#45;&gt;Node46</title>
<path fill="none" stroke="#191970" d="M3429.3537,-82.0312C3804.5616,-79.1119 5754.6895,-62.5124 6019,-31 6022.0899,-30.6316 6025.2439,-30.1873 6028.42,-29.6855"/>
<polygon fill="#191970" stroke="#191970" points="3429.2027,-78.5322 3419.2301,-82.1097 3429.2569,-85.532 3429.2027,-78.5322"/>
</g>
<!-- Node47 -->
<g id="node47" class="node">
<title>Node47</title>
<g id="a_node47"><a xlink:href="ps2mouse_8c.html" target="_top" xlink:title=" ">
<polygon fill="#ffffff" stroke="#000000" points="6167.5,-6 6167.5,-25 6334.5,-25 6334.5,-6 6167.5,-6"/>
<text text-anchor="middle" x="6251" y="-13" font-family="Helvetica,sans-Serif" font-size="10.00" fill="#000000">iop/usb/mouse/src/ps2mouse.c</text>
</a>
</g>
</g>
<!-- Node1&#45;&gt;Node47 -->
<g id="edge46" class="edge">
<title>Node1&#45;&gt;Node47</title>
<path fill="none" stroke="#191970" d="M3429.2012,-81.9076C3815.4901,-78.1548 5879.1573,-57.0095 6159,-31 6173.1925,-29.6809 6188.4987,-27.4371 6202.476,-25.0603"/>
<polygon fill="#191970" stroke="#191970" points="3429.0238,-78.409 3419.0582,-82.0059 3429.0917,-85.4087 3429.0238,-78.409"/>
</g>
<!-- Node48 -->
<g id="node48" class="node">
<title>Node48</title>
<g id="a_node48"><a xlink:href="driver_8c.html" target="_top" xlink:title=" ">
<polygon fill="#ffffff" stroke="#000000" points="6353,-6 6353,-25 6487,-25 6487,-6 6353,-6"/>
<text text-anchor="middle" x="6420" y="-13" font-family="Helvetica,sans-Serif" font-size="10.00" fill="#000000">iop/usb/usbd/src/driver.c</text>
</a>
</g>
</g>
<!-- Node1&#45;&gt;Node48 -->
<g id="edge47" class="edge">
<title>Node1&#45;&gt;Node48</title>
<path fill="none" stroke="#191970" d="M3429.4542,-82.1101C3831.2637,-79.5099 6045.1724,-63.7753 6344,-31 6355.9133,-29.6933 6368.7289,-27.4218 6380.3795,-25.0142"/>
<polygon fill="#191970" stroke="#191970" points="3429.1729,-78.6117 3419.1957,-82.1761 3429.2181,-85.6116 3429.1729,-78.6117"/>
</g>
<!-- Node49 -->
<g id="node49" class="node">
<title>Node49</title>
<g id="a_node49"><a xlink:href="hcd_8c.html" target="_top" xlink:title=" ">
<polygon fill="#ffffff" stroke="#000000" points="6505,-6 6505,-25 6629,-25 6629,-6 6505,-6"/>
<text text-anchor="middle" x="6567" y="-13" font-family="Helvetica,sans-Serif" font-size="10.00" fill="#000000">iop/usb/usbd/src/hcd.c</text>
</a>
</g>
</g>
<!-- Node1&#45;&gt;Node49 -->
<g id="edge48" class="edge">
<title>Node1&#45;&gt;Node49</title>
<path fill="none" stroke="#191970" d="M3429.3391,-82.2184C3842.6922,-80.2525 6181.3184,-67.5712 6496,-31 6507.1538,-29.7037 6519.1336,-27.4354 6530.017,-25.0275"/>
<polygon fill="#191970" stroke="#191970" points="3429.0664,-78.7195 3419.0831,-82.2668 3429.0996,-85.7194 3429.0664,-78.7195"/>
</g>
<!-- Node50 -->
<g id="node50" class="node">
<title>Node50</title>
<g id="a_node50"><a xlink:href="usb_2usbd_2src_2irx__imports_8h.html" target="_top" xlink:title=" ">
<polygon fill="#ffffff" stroke="#000000" points="6647.5,-.5 6647.5,-30.5 6758.5,-30.5 6758.5,-.5 6647.5,-.5"/>
<text text-anchor="start" x="6655.5" y="-18.5" font-family="Helvetica,sans-Serif" font-size="10.00" fill="#000000">iop/usb/usbd/src/irx</text>
<text text-anchor="middle" x="6703" y="-7.5" font-family="Helvetica,sans-Serif" font-size="10.00" fill="#000000">_imports.h</text>
</a>
</g>
</g>
<!-- Node1&#45;&gt;Node50 -->
<g id="edge49" class="edge">
<title>Node1&#45;&gt;Node50</title>
<path fill="none" stroke="#191970" d="M3429.4728,-82.3373C3854.0358,-81.1236 6308.7156,-72.3483 6638,-31 6641.1079,-30.6097 6644.2833,-30.1294 6647.4773,-29.5823"/>
<polygon fill="#191970" stroke="#191970" points="3429.2308,-78.8379 3419.2408,-82.3663 3429.2507,-85.8379 3429.2308,-78.8379"/>
</g>
<!-- Node51 -->
<g id="node51" class="node">
<title>Node51</title>
<g id="a_node51"><a xlink:href="usb_2usbhdfsd_2src_2irx__imports_8h.html" target="_top" xlink:title=" ">
<polygon fill="#ffffff" stroke="#000000" points="6777,-.5 6777,-30.5 6893,-30.5 6893,-.5 6777,-.5"/>
<text text-anchor="start" x="6785" y="-18.5" font-family="Helvetica,sans-Serif" font-size="10.00" fill="#000000">iop/usb/usbhdfsd/src</text>
<text text-anchor="middle" x="6835" y="-7.5" font-family="Helvetica,sans-Serif" font-size="10.00" fill="#000000">/irx_imports.h</text>
</a>
</g>
</g>
<!-- Node1&#45;&gt;Node51 -->
<g id="edge50" class="edge">
<title>Node1&#45;&gt;Node51</title>
<path fill="none" stroke="#191970" d="M3429.1954,-82.3533C3862.6221,-81.2259 6424.756,-72.8209 6768,-31 6770.8444,-30.6534 6773.7443,-30.2356 6776.6643,-29.763"/>
<polygon fill="#191970" stroke="#191970" points="3429.049,-78.8535 3419.0581,-82.3793 3429.0671,-85.8535 3429.049,-78.8535"/>
</g>
</g>
</svg>
