<?xml version="1.0" encoding="UTF-8" standalone="no"?>
<!DOCTYPE svg PUBLIC "-//W3C//DTD SVG 1.1//EN"
 "http://www.w3.org/Graphics/SVG/1.1/DTD/svg11.dtd">
<!-- Generated by graphviz version 2.40.1 (20161225.0304)
 -->
<!-- Title: fat_direntry Pages: 1 -->
<svg width="212pt" height="95pt"
 viewBox="0.00 0.00 212.00 95.00" xmlns="http://www.w3.org/2000/svg" xmlns:xlink="http://www.w3.org/1999/xlink">
<g id="graph0" class="graph" transform="scale(1 1) rotate(0) translate(4 91)">
<title>fat_direntry</title>
<polygon fill="#ffffff" stroke="transparent" points="-4,4 -4,-91 208,-91 208,4 -4,4"/>
<!-- Node1 -->
<g id="node1" class="node">
<title>Node1</title>
<g id="a_node1"><a xlink:title=" ">
<polygon fill="#bfbfbf" stroke="#000000" points="65,-.5 65,-19.5 139,-19.5 139,-.5 65,-.5"/>
<text text-anchor="middle" x="102" y="-7.5" font-family="Helvetica,sans-Serif" font-size="10.00" fill="#000000">fat_direntry</text>
</a>
</g>
</g>
<!-- Node2 -->
<g id="node2" class="node">
<title>Node2</title>
<g id="a_node2"><a xlink:href="structfat__direntry__sfn.html" target="_top" xlink:title=" ">
<polygon fill="#ffffff" stroke="#000000" points="0,-67.5 0,-86.5 94,-86.5 94,-67.5 0,-67.5"/>
<text text-anchor="middle" x="47" y="-74.5" font-family="Helvetica,sans-Serif" font-size="10.00" fill="#000000">fat_direntry_sfn</text>
</a>
</g>
</g>
<!-- Node2&#45;&gt;Node1 -->
<g id="edge1" class="edge">
<title>Node2&#45;&gt;Node1</title>
<path fill="none" stroke="#9a32cd" stroke-dasharray="5,2" d="M61.4899,-59.3486C71.9393,-46.6194 85.6454,-29.9229 94.1345,-19.5817"/>
<polygon fill="#9a32cd" stroke="#9a32cd" points="58.5199,-57.4505 54.8802,-67.4005 63.9304,-61.892 58.5199,-57.4505"/>
<text text-anchor="middle" x="87.5" y="-41" font-family="Helvetica,sans-Serif" font-size="10.00" fill="#000000"> sfn</text>
</g>
<!-- Node3 -->
<g id="node3" class="node">
<title>Node3</title>
<g id="a_node3"><a xlink:href="structfat__direntry__lfn.html" target="_top" xlink:title=" ">
<polygon fill="#ffffff" stroke="#000000" points="112,-67.5 112,-86.5 204,-86.5 204,-67.5 112,-67.5"/>
<text text-anchor="middle" x="158" y="-74.5" font-family="Helvetica,sans-Serif" font-size="10.00" fill="#000000">fat_direntry_lfn</text>
</a>
</g>
</g>
<!-- Node3&#45;&gt;Node1 -->
<g id="edge2" class="edge">
<title>Node3&#45;&gt;Node1</title>
<path fill="none" stroke="#9a32cd" stroke-dasharray="5,2" d="M143.5526,-59.7147C132.8761,-46.941 118.7351,-30.0224 110.0086,-19.5817"/>
<polygon fill="#9a32cd" stroke="#9a32cd" points="140.8779,-61.9723 149.9766,-67.4005 146.2489,-57.4831 140.8779,-61.9723"/>
<text text-anchor="middle" x="141" y="-41" font-family="Helvetica,sans-Serif" font-size="10.00" fill="#000000"> lfn</text>
</g>
</g>
</svg>
