<?xml version="1.0" encoding="UTF-8" standalone="no"?>
<!DOCTYPE svg PUBLIC "-//W3C//DTD SVG 1.1//EN"
 "http://www.w3.org/Graphics/SVG/1.1/DTD/svg11.dtd">
<!-- Generated by graphviz version 2.40.1 (20161225.0304)
 -->
<!-- Title: siorCommsData Pages: 1 -->
<svg width="278pt" height="95pt"
 viewBox="0.00 0.00 278.00 95.00" xmlns="http://www.w3.org/2000/svg" xmlns:xlink="http://www.w3.org/1999/xlink">
<g id="graph0" class="graph" transform="scale(1 1) rotate(0) translate(4 91)">
<title>siorCommsData</title>
<polygon fill="#ffffff" stroke="transparent" points="-4,4 -4,-91 274,-91 274,4 -4,4"/>
<!-- Node1 -->
<g id="node1" class="node">
<title>Node1</title>
<g id="a_node1"><a xlink:title=" ">
<polygon fill="#bfbfbf" stroke="#000000" points="82.5,-.5 82.5,-19.5 177.5,-19.5 177.5,-.5 82.5,-.5"/>
<text text-anchor="middle" x="130" y="-7.5" font-family="Helvetica,sans-Serif" font-size="10.00" fill="#000000">siorCommsData</text>
</a>
</g>
</g>
<!-- Node2 -->
<g id="node2" class="node">
<title>Node2</title>
<g id="a_node2"><a xlink:href="structsiorInitArgs.html" target="_top" xlink:title=" ">
<polygon fill="#ffffff" stroke="#000000" points="0,-67.5 0,-86.5 72,-86.5 72,-67.5 0,-67.5"/>
<text text-anchor="middle" x="36" y="-74.5" font-family="Helvetica,sans-Serif" font-size="10.00" fill="#000000">siorInitArgs</text>
</a>
</g>
</g>
<!-- Node2&#45;&gt;Node1 -->
<g id="edge1" class="edge">
<title>Node2&#45;&gt;Node1</title>
<path fill="none" stroke="#9a32cd" stroke-dasharray="5,2" d="M57.732,-61.5102C75.891,-48.567 101.2114,-30.5195 116.5571,-19.5817"/>
<polygon fill="#9a32cd" stroke="#9a32cd" points="55.5796,-58.7462 49.4679,-67.4005 59.6426,-64.4464 55.5796,-58.7462"/>
<text text-anchor="middle" x="98.5" y="-41" font-family="Helvetica,sans-Serif" font-size="10.00" fill="#000000"> init</text>
</g>
<!-- Node3 -->
<g id="node3" class="node">
<title>Node3</title>
<g id="a_node3"><a xlink:href="structsiorReadArgs.html" target="_top" xlink:title=" ">
<polygon fill="#ffffff" stroke="#000000" points="90,-67.5 90,-86.5 170,-86.5 170,-67.5 90,-67.5"/>
<text text-anchor="middle" x="130" y="-74.5" font-family="Helvetica,sans-Serif" font-size="10.00" fill="#000000">siorReadArgs</text>
</a>
</g>
</g>
<!-- Node3&#45;&gt;Node1 -->
<g id="edge2" class="edge">
<title>Node3&#45;&gt;Node1</title>
<path fill="none" stroke="#9a32cd" stroke-dasharray="5,2" d="M130,-57.1079C130,-44.714 130,-29.3263 130,-19.5817"/>
<polygon fill="#9a32cd" stroke="#9a32cd" points="126.5001,-57.4005 130,-67.4005 133.5001,-57.4006 126.5001,-57.4005"/>
<text text-anchor="middle" x="142.5" y="-41" font-family="Helvetica,sans-Serif" font-size="10.00" fill="#000000"> read</text>
</g>
<!-- Node4 -->
<g id="node4" class="node">
<title>Node4</title>
<g id="a_node4"><a xlink:href="structsiorWriteArgs.html" target="_top" xlink:title=" ">
<polygon fill="#ffffff" stroke="#000000" points="188,-67.5 188,-86.5 270,-86.5 270,-67.5 188,-67.5"/>
<text text-anchor="middle" x="229" y="-74.5" font-family="Helvetica,sans-Serif" font-size="10.00" fill="#000000">siorWriteArgs</text>
</a>
</g>
</g>
<!-- Node4&#45;&gt;Node1 -->
<g id="edge3" class="edge">
<title>Node4&#45;&gt;Node1</title>
<path fill="none" stroke="#9a32cd" stroke-dasharray="5,2" d="M206.3724,-61.6864C187.2297,-48.7312 160.3934,-30.5693 144.158,-19.5817"/>
<polygon fill="#9a32cd" stroke="#9a32cd" points="204.5723,-64.6943 214.8157,-67.4005 208.4957,-58.8971 204.5723,-64.6943"/>
<text text-anchor="middle" x="199" y="-41" font-family="Helvetica,sans-Serif" font-size="10.00" fill="#000000"> write</text>
</g>
</g>
</svg>
