<?xml version="1.0" encoding="UTF-8" standalone="no"?>
<!DOCTYPE svg PUBLIC "-//W3C//DTD SVG 1.1//EN"
 "http://www.w3.org/Graphics/SVG/1.1/DTD/svg11.dtd">
<!-- Generated by graphviz version 2.40.1 (20161225.0304)
 -->
<!-- Title: iop/sound/audsrv/src/upsamplers.c Pages: 1 -->
<svg width="195pt" height="263pt"
 viewBox="0.00 0.00 194.50 263.00" xmlns="http://www.w3.org/2000/svg" xmlns:xlink="http://www.w3.org/1999/xlink">
<g id="graph0" class="graph" transform="scale(1 1) rotate(0) translate(4 259)">
<title>iop/sound/audsrv/src/upsamplers.c</title>
<polygon fill="#ffffff" stroke="transparent" points="-4,4 -4,-259 190.5,-259 190.5,4 -4,4"/>
<!-- Node1 -->
<g id="node1" class="node">
<title>Node1</title>
<g id="a_node1"><a xlink:title=" ">
<polygon fill="#bfbfbf" stroke="#000000" points="43.5,-224.5 43.5,-254.5 160.5,-254.5 160.5,-224.5 43.5,-224.5"/>
<text text-anchor="start" x="51.5" y="-242.5" font-family="Helvetica,sans-Serif" font-size="10.00" fill="#000000">iop/sound/audsrv/src</text>
<text text-anchor="middle" x="102" y="-231.5" font-family="Helvetica,sans-Serif" font-size="10.00" fill="#000000">/upsamplers.c</text>
</a>
</g>
</g>
<!-- Node2 -->
<g id="node2" class="node">
<title>Node2</title>
<g id="a_node2"><a xlink:href="stdio_8h.html" target="_top" xlink:title=" ">
<polygon fill="#ffffff" stroke="#000000" points="35,-168.5 35,-187.5 85,-187.5 85,-168.5 35,-168.5"/>
<text text-anchor="middle" x="60" y="-175.5" font-family="Helvetica,sans-Serif" font-size="10.00" fill="#000000">stdio.h</text>
</a>
</g>
</g>
<!-- Node1&#45;&gt;Node2 -->
<g id="edge1" class="edge">
<title>Node1&#45;&gt;Node2</title>
<path fill="none" stroke="#191970" d="M91.618,-224.2977C85.8487,-215.8498 78.6284,-205.2773 72.5447,-196.369"/>
<polygon fill="#191970" stroke="#191970" points="75.2547,-194.1311 66.7247,-187.8469 69.4741,-198.0788 75.2547,-194.1311"/>
</g>
<!-- Node8 -->
<g id="node8" class="node">
<title>Node8</title>
<g id="a_node8"><a xlink:href="upsamplers_8h.html" target="_top" xlink:title=" ">
<polygon fill="#ffffff" stroke="#000000" points="103.5,-168.5 103.5,-187.5 186.5,-187.5 186.5,-168.5 103.5,-168.5"/>
<text text-anchor="middle" x="145" y="-175.5" font-family="Helvetica,sans-Serif" font-size="10.00" fill="#000000">upsamplers.h</text>
</a>
</g>
</g>
<!-- Node1&#45;&gt;Node8 -->
<g id="edge7" class="edge">
<title>Node1&#45;&gt;Node8</title>
<path fill="none" stroke="#191970" d="M112.6292,-224.2977C118.5981,-215.7609 126.0838,-205.0545 132.3529,-196.0883"/>
<polygon fill="#191970" stroke="#191970" points="135.2534,-198.048 138.1152,-187.8469 129.5165,-194.0368 135.2534,-198.048"/>
</g>
<!-- Node3 -->
<g id="node3" class="node">
<title>Node3</title>
<g id="a_node3"><a xlink:title=" ">
<polygon fill="#ffffff" stroke="#bfbfbf" points="0,-112.5 0,-131.5 56,-131.5 56,-112.5 0,-112.5"/>
<text text-anchor="middle" x="28" y="-119.5" font-family="Helvetica,sans-Serif" font-size="10.00" fill="#000000">stdarg.h</text>
</a>
</g>
</g>
<!-- Node2&#45;&gt;Node3 -->
<g id="edge2" class="edge">
<title>Node2&#45;&gt;Node3</title>
<path fill="none" stroke="#191970" d="M54.426,-168.2455C50.0669,-160.617 43.8789,-149.7881 38.5867,-140.5267"/>
<polygon fill="#191970" stroke="#191970" points="41.5104,-138.5886 33.5101,-131.6427 35.4327,-142.0616 41.5104,-138.5886"/>
</g>
<!-- Node4 -->
<g id="node4" class="node">
<title>Node4</title>
<g id="a_node4"><a xlink:href="irx_8h.html" target="_top" xlink:title=" ">
<polygon fill="#ffffff" stroke="#000000" points="74,-112.5 74,-131.5 112,-131.5 112,-112.5 74,-112.5"/>
<text text-anchor="middle" x="93" y="-119.5" font-family="Helvetica,sans-Serif" font-size="10.00" fill="#000000">irx.h</text>
</a>
</g>
</g>
<!-- Node2&#45;&gt;Node4 -->
<g id="edge3" class="edge">
<title>Node2&#45;&gt;Node4</title>
<path fill="none" stroke="#191970" d="M65.7482,-168.2455C70.2435,-160.617 76.6248,-149.7881 82.0825,-140.5267"/>
<polygon fill="#191970" stroke="#191970" points="85.2561,-142.035 87.3177,-131.6427 79.2253,-138.4811 85.2561,-142.035"/>
</g>
<!-- Node5 -->
<g id="node5" class="node">
<title>Node5</title>
<g id="a_node5"><a xlink:href="types_8h.html" target="_top" xlink:title=" ">
<polygon fill="#ffffff" stroke="#000000" points="66.5,-56.5 66.5,-75.5 119.5,-75.5 119.5,-56.5 66.5,-56.5"/>
<text text-anchor="middle" x="93" y="-63.5" font-family="Helvetica,sans-Serif" font-size="10.00" fill="#000000">types.h</text>
</a>
</g>
</g>
<!-- Node4&#45;&gt;Node5 -->
<g id="edge4" class="edge">
<title>Node4&#45;&gt;Node5</title>
<path fill="none" stroke="#191970" d="M93,-112.2455C93,-104.9382 93,-94.6944 93,-85.7046"/>
<polygon fill="#191970" stroke="#191970" points="96.5001,-85.6426 93,-75.6427 89.5001,-85.6427 96.5001,-85.6426"/>
</g>
<!-- Node6 -->
<g id="node6" class="node">
<title>Node6</title>
<g id="a_node6"><a xlink:title=" ">
<polygon fill="#ffffff" stroke="#bfbfbf" points="24,-.5 24,-19.5 80,-19.5 80,-.5 24,-.5"/>
<text text-anchor="middle" x="52" y="-7.5" font-family="Helvetica,sans-Serif" font-size="10.00" fill="#000000">stddef.h</text>
</a>
</g>
</g>
<!-- Node5&#45;&gt;Node6 -->
<g id="edge5" class="edge">
<title>Node5&#45;&gt;Node6</title>
<path fill="none" stroke="#191970" d="M85.8583,-56.2455C80.1556,-48.4564 72.01,-37.3308 65.1375,-27.9439"/>
<polygon fill="#191970" stroke="#191970" points="67.7913,-25.6437 59.0598,-19.6427 62.1432,-29.7789 67.7913,-25.6437"/>
</g>
<!-- Node7 -->
<g id="node7" class="node">
<title>Node7</title>
<g id="a_node7"><a xlink:href="tamtypes_8h.html" target="_top" xlink:title=" ">
<polygon fill="#ffffff" stroke="#000000" points="98,-.5 98,-19.5 170,-19.5 170,-.5 98,-.5"/>
<text text-anchor="middle" x="134" y="-7.5" font-family="Helvetica,sans-Serif" font-size="10.00" fill="#000000">tamtypes.h</text>
</a>
</g>
</g>
<!-- Node5&#45;&gt;Node7 -->
<g id="edge6" class="edge">
<title>Node5&#45;&gt;Node7</title>
<path fill="none" stroke="#191970" d="M100.1417,-56.2455C105.8444,-48.4564 113.99,-37.3308 120.8625,-27.9439"/>
<polygon fill="#191970" stroke="#191970" points="123.8568,-29.7789 126.9402,-19.6427 118.2087,-25.6437 123.8568,-29.7789"/>
</g>
</g>
</svg>
