<?xml version="1.0" encoding="UTF-8" standalone="no"?>
<!DOCTYPE svg PUBLIC "-//W3C//DTD SVG 1.1//EN"
 "http://www.w3.org/Graphics/SVG/1.1/DTD/svg11.dtd">
<!-- Generated by graphviz version 2.40.1 (20161225.0304)
 -->
<!-- Title: iop/usb/keyboard/src/irx_imports.h Pages: 1 -->
<svg width="961pt" height="263pt"
 viewBox="0.00 0.00 961.00 263.00" xmlns="http://www.w3.org/2000/svg" xmlns:xlink="http://www.w3.org/1999/xlink">
<g id="graph0" class="graph" transform="scale(1 1) rotate(0) translate(4 259)">
<title>iop/usb/keyboard/src/irx_imports.h</title>
<polygon fill="#ffffff" stroke="transparent" points="-4,4 -4,-259 957,-259 957,4 -4,4"/>
<!-- Node1 -->
<g id="node1" class="node">
<title>Node1</title>
<g id="a_node1"><a xlink:title=" ">
<polygon fill="#bfbfbf" stroke="#000000" points="453.5,-224.5 453.5,-254.5 571.5,-254.5 571.5,-224.5 453.5,-224.5"/>
<text text-anchor="start" x="461.5" y="-242.5" font-family="Helvetica,sans-Serif" font-size="10.00" fill="#000000">iop/usb/keyboard/src</text>
<text text-anchor="middle" x="512.5" y="-231.5" font-family="Helvetica,sans-Serif" font-size="10.00" fill="#000000">/irx_imports.h</text>
</a>
</g>
</g>
<!-- Node2 -->
<g id="node2" class="node">
<title>Node2</title>
<g id="a_node2"><a xlink:href="irx_8h.html" target="_top" xlink:title=" ">
<polygon fill="#ffffff" stroke="#000000" points="467.5,-112.5 467.5,-131.5 505.5,-131.5 505.5,-112.5 467.5,-112.5"/>
<text text-anchor="middle" x="486.5" y="-119.5" font-family="Helvetica,sans-Serif" font-size="10.00" fill="#000000">irx.h</text>
</a>
</g>
</g>
<!-- Node1&#45;&gt;Node2 -->
<g id="edge1" class="edge">
<title>Node1&#45;&gt;Node2</title>
<path fill="none" stroke="#191970" d="M509.101,-224.1389C504.4166,-202.9692 495.9745,-164.8174 490.8395,-141.6112"/>
<polygon fill="#191970" stroke="#191970" points="494.1932,-140.5671 488.6153,-131.5595 487.3585,-142.0795 494.1932,-140.5671"/>
</g>
<!-- Node6 -->
<g id="node6" class="node">
<title>Node6</title>
<g id="a_node6"><a xlink:href="dmacman_8h.html" target="_top" xlink:title=" ">
<polygon fill="#ffffff" stroke="#000000" points="127.5,-168.5 127.5,-187.5 201.5,-187.5 201.5,-168.5 127.5,-168.5"/>
<text text-anchor="middle" x="164.5" y="-175.5" font-family="Helvetica,sans-Serif" font-size="10.00" fill="#000000">dmacman.h</text>
</a>
</g>
</g>
<!-- Node1&#45;&gt;Node6 -->
<g id="edge5" class="edge">
<title>Node1&#45;&gt;Node6</title>
<path fill="none" stroke="#191970" d="M453.3314,-230.2202C394.4854,-220.8078 301.396,-205.4259 211.4457,-188.1209"/>
<polygon fill="#191970" stroke="#191970" points="212.1101,-184.6846 201.6274,-186.2218 210.7808,-191.5572 212.1101,-184.6846"/>
</g>
<!-- Node7 -->
<g id="node7" class="node">
<title>Node7</title>
<g id="a_node7"><a xlink:href="intrman_8h.html" target="_top" xlink:title=" ">
<polygon fill="#ffffff" stroke="#000000" points="391.5,-168.5 391.5,-187.5 455.5,-187.5 455.5,-168.5 391.5,-168.5"/>
<text text-anchor="middle" x="423.5" y="-175.5" font-family="Helvetica,sans-Serif" font-size="10.00" fill="#000000">intrman.h</text>
</a>
</g>
</g>
<!-- Node1&#45;&gt;Node7 -->
<g id="edge8" class="edge">
<title>Node1&#45;&gt;Node7</title>
<path fill="none" stroke="#191970" d="M490.5,-224.2977C476.9032,-214.9022 459.5034,-202.8787 445.8433,-193.4395"/>
<polygon fill="#191970" stroke="#191970" points="447.7009,-190.4688 437.4842,-187.6633 443.7215,-196.2276 447.7009,-190.4688"/>
</g>
<!-- Node8 -->
<g id="node8" class="node">
<title>Node8</title>
<g id="a_node8"><a xlink:href="ioman_8h.html" target="_top" xlink:title=" ">
<polygon fill="#ffffff" stroke="#000000" points="53.5,-168.5 53.5,-187.5 109.5,-187.5 109.5,-168.5 53.5,-168.5"/>
<text text-anchor="middle" x="81.5" y="-175.5" font-family="Helvetica,sans-Serif" font-size="10.00" fill="#000000">ioman.h</text>
</a>
</g>
</g>
<!-- Node1&#45;&gt;Node8 -->
<g id="edge11" class="edge">
<title>Node1&#45;&gt;Node8</title>
<path fill="none" stroke="#191970" d="M453.3555,-234.2636C377.9692,-227.0359 243.5368,-212.2942 119.7239,-188.0289"/>
<polygon fill="#191970" stroke="#191970" points="120.1798,-184.5512 109.6896,-186.0365 118.8164,-191.4171 120.1798,-184.5512"/>
</g>
<!-- Node12 -->
<g id="node12" class="node">
<title>Node12</title>
<g id="a_node12"><a xlink:href="stdio_8h.html" target="_top" xlink:title=" ">
<polygon fill="#ffffff" stroke="#000000" points="756.5,-168.5 756.5,-187.5 806.5,-187.5 806.5,-168.5 756.5,-168.5"/>
<text text-anchor="middle" x="781.5" y="-175.5" font-family="Helvetica,sans-Serif" font-size="10.00" fill="#000000">stdio.h</text>
</a>
</g>
</g>
<!-- Node1&#45;&gt;Node12 -->
<g id="edge17" class="edge">
<title>Node1&#45;&gt;Node12</title>
<path fill="none" stroke="#191970" d="M571.6835,-227.7316C617.0392,-218.4385 681.3702,-204.6687 746.3016,-188.1848"/>
<polygon fill="#191970" stroke="#191970" points="747.4836,-191.4952 756.3036,-185.625 745.748,-184.7138 747.4836,-191.4952"/>
</g>
<!-- Node14 -->
<g id="node14" class="node">
<title>Node14</title>
<g id="a_node14"><a xlink:href="sysclib_8h.html" target="_top" xlink:title=" ">
<polygon fill="#ffffff" stroke="#000000" points="825,-168.5 825,-187.5 884,-187.5 884,-168.5 825,-168.5"/>
<text text-anchor="middle" x="854.5" y="-175.5" font-family="Helvetica,sans-Serif" font-size="10.00" fill="#000000">sysclib.h</text>
</a>
</g>
</g>
<!-- Node1&#45;&gt;Node14 -->
<g id="edge20" class="edge">
<title>Node1&#45;&gt;Node14</title>
<path fill="none" stroke="#191970" d="M571.7112,-230.9177C630.8344,-222.0141 724.474,-207.0106 814.8813,-187.993"/>
<polygon fill="#191970" stroke="#191970" points="815.694,-191.3986 824.7492,-185.8983 814.2404,-184.5511 815.694,-191.3986"/>
</g>
<!-- Node16 -->
<g id="node16" class="node">
<title>Node16</title>
<g id="a_node16"><a xlink:href="sysmem_8h.html" target="_top" xlink:title=" ">
<polygon fill="#ffffff" stroke="#000000" points="670.5,-168.5 670.5,-187.5 738.5,-187.5 738.5,-168.5 670.5,-168.5"/>
<text text-anchor="middle" x="704.5" y="-175.5" font-family="Helvetica,sans-Serif" font-size="10.00" fill="#000000">sysmem.h</text>
</a>
</g>
</g>
<!-- Node1&#45;&gt;Node16 -->
<g id="edge26" class="edge">
<title>Node1&#45;&gt;Node16</title>
<path fill="none" stroke="#191970" d="M559.4685,-224.4554C591.7852,-214.104 634.2351,-200.5067 664.8499,-190.7004"/>
<polygon fill="#191970" stroke="#191970" points="666.2911,-193.914 674.7468,-187.5303 664.1557,-187.2477 666.2911,-193.914"/>
</g>
<!-- Node17 -->
<g id="node17" class="node">
<title>Node17</title>
<g id="a_node17"><a xlink:href="thbase_8h.html" target="_top" xlink:title=" ">
<polygon fill="#ffffff" stroke="#000000" points="512,-168.5 512,-187.5 571,-187.5 571,-168.5 512,-168.5"/>
<text text-anchor="middle" x="541.5" y="-175.5" font-family="Helvetica,sans-Serif" font-size="10.00" fill="#000000">thbase.h</text>
</a>
</g>
</g>
<!-- Node1&#45;&gt;Node17 -->
<g id="edge30" class="edge">
<title>Node1&#45;&gt;Node17</title>
<path fill="none" stroke="#191970" d="M519.6685,-224.2977C523.5682,-216.0277 528.428,-205.7215 532.5718,-196.9339"/>
<polygon fill="#191970" stroke="#191970" points="535.7573,-198.3846 536.8567,-187.8469 529.4259,-195.399 535.7573,-198.3846"/>
</g>
<!-- Node18 -->
<g id="node18" class="node">
<title>Node18</title>
<g id="a_node18"><a xlink:href="thevent_8h.html" target="_top" xlink:title=" ">
<polygon fill="#ffffff" stroke="#000000" points="589,-168.5 589,-187.5 652,-187.5 652,-168.5 589,-168.5"/>
<text text-anchor="middle" x="620.5" y="-175.5" font-family="Helvetica,sans-Serif" font-size="10.00" fill="#000000">thevent.h</text>
</a>
</g>
</g>
<!-- Node1&#45;&gt;Node18 -->
<g id="edge33" class="edge">
<title>Node1&#45;&gt;Node18</title>
<path fill="none" stroke="#191970" d="M538.9198,-224.4554C555.9914,-214.734 578.0902,-202.15 594.9809,-192.5317"/>
<polygon fill="#191970" stroke="#191970" points="596.8059,-195.5202 603.7638,-187.5303 593.342,-189.4373 596.8059,-195.5202"/>
</g>
<!-- Node19 -->
<g id="node19" class="node">
<title>Node19</title>
<g id="a_node19"><a xlink:href="thmsgbx_8h.html" target="_top" xlink:title=" ">
<polygon fill="#ffffff" stroke="#000000" points="219.5,-168.5 219.5,-187.5 287.5,-187.5 287.5,-168.5 219.5,-168.5"/>
<text text-anchor="middle" x="253.5" y="-175.5" font-family="Helvetica,sans-Serif" font-size="10.00" fill="#000000">thmsgbx.h</text>
</a>
</g>
</g>
<!-- Node1&#45;&gt;Node19 -->
<g id="edge36" class="edge">
<title>Node1&#45;&gt;Node19</title>
<path fill="none" stroke="#191970" d="M453.4048,-225.4677C405.9958,-214.2104 340.4998,-198.6583 297.5878,-188.4687"/>
<polygon fill="#191970" stroke="#191970" points="298.2616,-185.0315 287.7235,-186.1264 296.6444,-191.8421 298.2616,-185.0315"/>
</g>
<!-- Node20 -->
<g id="node20" class="node">
<title>Node20</title>
<g id="a_node20"><a xlink:href="thsemap_8h.html" target="_top" xlink:title=" ">
<polygon fill="#ffffff" stroke="#000000" points="305.5,-168.5 305.5,-187.5 373.5,-187.5 373.5,-168.5 305.5,-168.5"/>
<text text-anchor="middle" x="339.5" y="-175.5" font-family="Helvetica,sans-Serif" font-size="10.00" fill="#000000">thsemap.h</text>
</a>
</g>
</g>
<!-- Node1&#45;&gt;Node20 -->
<g id="edge39" class="edge">
<title>Node1&#45;&gt;Node20</title>
<path fill="none" stroke="#191970" d="M470.1794,-224.4554C441.3139,-214.194 403.4761,-200.7429 375.9484,-190.9571"/>
<polygon fill="#191970" stroke="#191970" points="376.9036,-187.5821 366.3089,-187.5303 374.5588,-194.1778 376.9036,-187.5821"/>
</g>
<!-- Node21 -->
<g id="node21" class="node">
<title>Node21</title>
<g id="a_node21"><a xlink:href="usbd_8h.html" target="_top" xlink:title=" ">
<polygon fill="#ffffff" stroke="#000000" points="902,-168.5 902,-187.5 951,-187.5 951,-168.5 902,-168.5"/>
<text text-anchor="middle" x="926.5" y="-175.5" font-family="Helvetica,sans-Serif" font-size="10.00" fill="#000000">usbd.h</text>
</a>
</g>
</g>
<!-- Node1&#45;&gt;Node21 -->
<g id="edge42" class="edge">
<title>Node1&#45;&gt;Node21</title>
<path fill="none" stroke="#191970" d="M571.7518,-234.4521C645.056,-227.5502 773.7167,-213.2928 891.8122,-188.1146"/>
<polygon fill="#191970" stroke="#191970" points="892.712,-191.501 901.7455,-185.9652 891.2315,-184.6594 892.712,-191.501"/>
</g>
<!-- Node3 -->
<g id="node3" class="node">
<title>Node3</title>
<g id="a_node3"><a xlink:href="types_8h.html" target="_top" xlink:title=" ">
<polygon fill="#ffffff" stroke="#000000" points="460,-56.5 460,-75.5 513,-75.5 513,-56.5 460,-56.5"/>
<text text-anchor="middle" x="486.5" y="-63.5" font-family="Helvetica,sans-Serif" font-size="10.00" fill="#000000">types.h</text>
</a>
</g>
</g>
<!-- Node2&#45;&gt;Node3 -->
<g id="edge2" class="edge">
<title>Node2&#45;&gt;Node3</title>
<path fill="none" stroke="#191970" d="M486.5,-112.2455C486.5,-104.9382 486.5,-94.6944 486.5,-85.7046"/>
<polygon fill="#191970" stroke="#191970" points="490.0001,-85.6426 486.5,-75.6427 483.0001,-85.6427 490.0001,-85.6426"/>
</g>
<!-- Node4 -->
<g id="node4" class="node">
<title>Node4</title>
<g id="a_node4"><a xlink:title=" ">
<polygon fill="#ffffff" stroke="#bfbfbf" points="458.5,-.5 458.5,-19.5 514.5,-19.5 514.5,-.5 458.5,-.5"/>
<text text-anchor="middle" x="486.5" y="-7.5" font-family="Helvetica,sans-Serif" font-size="10.00" fill="#000000">stddef.h</text>
</a>
</g>
</g>
<!-- Node3&#45;&gt;Node4 -->
<g id="edge3" class="edge">
<title>Node3&#45;&gt;Node4</title>
<path fill="none" stroke="#191970" d="M486.5,-56.2455C486.5,-48.9382 486.5,-38.6944 486.5,-29.7046"/>
<polygon fill="#191970" stroke="#191970" points="490.0001,-29.6426 486.5,-19.6427 483.0001,-29.6427 490.0001,-29.6426"/>
</g>
<!-- Node5 -->
<g id="node5" class="node">
<title>Node5</title>
<g id="a_node5"><a xlink:href="tamtypes_8h.html" target="_top" xlink:title=" ">
<polygon fill="#ffffff" stroke="#000000" points="676.5,-.5 676.5,-19.5 748.5,-19.5 748.5,-.5 676.5,-.5"/>
<text text-anchor="middle" x="712.5" y="-7.5" font-family="Helvetica,sans-Serif" font-size="10.00" fill="#000000">tamtypes.h</text>
</a>
</g>
</g>
<!-- Node3&#45;&gt;Node5 -->
<g id="edge4" class="edge">
<title>Node3&#45;&gt;Node5</title>
<path fill="none" stroke="#191970" d="M513.3127,-59.3562C551.1117,-49.99 620.5882,-32.7746 666.6701,-21.3561"/>
<polygon fill="#191970" stroke="#191970" points="667.5497,-24.7441 676.4143,-18.9416 665.866,-17.9495 667.5497,-24.7441"/>
</g>
<!-- Node6&#45;&gt;Node2 -->
<g id="edge7" class="edge">
<title>Node6&#45;&gt;Node2</title>
<path fill="none" stroke="#191970" d="M201.6251,-169.7662C204.6241,-169.1508 207.6106,-168.5545 210.5,-168 300.0583,-150.8129 406.6843,-134.0968 457.1879,-126.403"/>
<polygon fill="#191970" stroke="#191970" points="458.0077,-129.8187 467.3696,-124.8585 456.9578,-122.8979 458.0077,-129.8187"/>
</g>
<!-- Node6&#45;&gt;Node3 -->
<g id="edge6" class="edge">
<title>Node6&#45;&gt;Node3</title>
<path fill="none" stroke="#191970" d="M191.565,-168.4322C228.0766,-155.5401 295.1493,-131.9104 352.5,-112 385.4661,-100.5552 423.049,-87.6675 450.0063,-78.4513"/>
<polygon fill="#191970" stroke="#191970" points="451.4548,-81.6551 459.7859,-75.1096 449.1913,-75.0312 451.4548,-81.6551"/>
</g>
<!-- Node7&#45;&gt;Node2 -->
<g id="edge10" class="edge">
<title>Node7&#45;&gt;Node2</title>
<path fill="none" stroke="#191970" d="M434.4738,-168.2455C443.6882,-160.0549 457.0532,-148.1749 467.9297,-138.5069"/>
<polygon fill="#191970" stroke="#191970" points="470.5032,-140.9023 475.652,-131.6427 465.8526,-135.6704 470.5032,-140.9023"/>
</g>
<!-- Node7&#45;&gt;Node3 -->
<g id="edge9" class="edge">
<title>Node7&#45;&gt;Node3</title>
<path fill="none" stroke="#191970" d="M428.538,-168.061C435.1826,-155.0568 447.3417,-131.6159 458.5,-112 463.7395,-102.7892 469.8282,-92.7173 474.987,-84.3524"/>
<polygon fill="#191970" stroke="#191970" points="478.0149,-86.111 480.3216,-75.7703 472.0698,-82.4155 478.0149,-86.111"/>
</g>
<!-- Node8&#45;&gt;Node2 -->
<g id="edge13" class="edge">
<title>Node8&#45;&gt;Node2</title>
<path fill="none" stroke="#191970" d="M109.6863,-169.9469C112.6489,-169.231 115.6272,-168.5649 118.5,-168 243.0597,-143.507 394.0369,-129.4562 456.857,-124.2913"/>
<polygon fill="#191970" stroke="#191970" points="457.5083,-127.7502 467.1942,-123.4568 456.9449,-120.7729 457.5083,-127.7502"/>
</g>
<!-- Node8&#45;&gt;Node3 -->
<g id="edge12" class="edge">
<title>Node8&#45;&gt;Node3</title>
<path fill="none" stroke="#191970" d="M109.6402,-168.5038C149.9148,-155.0718 226.4332,-130.1412 292.5,-112 347.0406,-97.0237 410.9921,-82.4252 450.1213,-73.8235"/>
<polygon fill="#191970" stroke="#191970" points="450.9707,-77.2206 459.9922,-71.6652 449.4754,-70.3822 450.9707,-77.2206"/>
</g>
<!-- Node9 -->
<g id="node9" class="node">
<title>Node9</title>
<g id="a_node9"><a xlink:href="io__common_8h.html" target="_top" xlink:title=" ">
<polygon fill="#ffffff" stroke="#000000" points="40,-112.5 40,-131.5 123,-131.5 123,-112.5 40,-112.5"/>
<text text-anchor="middle" x="81.5" y="-119.5" font-family="Helvetica,sans-Serif" font-size="10.00" fill="#000000">io_common.h</text>
</a>
</g>
</g>
<!-- Node8&#45;&gt;Node9 -->
<g id="edge14" class="edge">
<title>Node8&#45;&gt;Node9</title>
<path fill="none" stroke="#191970" d="M81.5,-168.2455C81.5,-160.9382 81.5,-150.6944 81.5,-141.7046"/>
<polygon fill="#191970" stroke="#191970" points="85.0001,-141.6426 81.5,-131.6427 78.0001,-141.6427 85.0001,-141.6426"/>
</g>
<!-- Node10 -->
<g id="node10" class="node">
<title>Node10</title>
<g id="a_node10"><a xlink:href="fcntl_8h.html" target="_top" xlink:title=" ">
<polygon fill="#ffffff" stroke="#000000" points="93,-56.5 93,-75.5 160,-75.5 160,-56.5 93,-56.5"/>
<text text-anchor="middle" x="126.5" y="-63.5" font-family="Helvetica,sans-Serif" font-size="10.00" fill="#000000">sys/fcntl.h</text>
</a>
</g>
</g>
<!-- Node9&#45;&gt;Node10 -->
<g id="edge15" class="edge">
<title>Node9&#45;&gt;Node10</title>
<path fill="none" stroke="#191970" d="M89.3384,-112.2455C95.662,-104.3761 104.7224,-93.101 112.3136,-83.6542"/>
<polygon fill="#191970" stroke="#191970" points="115.2158,-85.6302 118.7514,-75.6427 109.7592,-81.2454 115.2158,-85.6302"/>
</g>
<!-- Node11 -->
<g id="node11" class="node">
<title>Node11</title>
<g id="a_node11"><a xlink:href="unistd_8h.html" target="_top" xlink:title=" ">
<polygon fill="#ffffff" stroke="#000000" points="0,-56.5 0,-75.5 75,-75.5 75,-56.5 0,-56.5"/>
<text text-anchor="middle" x="37.5" y="-63.5" font-family="Helvetica,sans-Serif" font-size="10.00" fill="#000000">sys/unistd.h</text>
</a>
</g>
</g>
<!-- Node9&#45;&gt;Node11 -->
<g id="edge16" class="edge">
<title>Node9&#45;&gt;Node11</title>
<path fill="none" stroke="#191970" d="M73.8358,-112.2455C67.6527,-104.3761 58.7937,-93.101 51.3711,-83.6542"/>
<polygon fill="#191970" stroke="#191970" points="54.0068,-81.3435 45.0764,-75.6427 48.5025,-85.6683 54.0068,-81.3435"/>
</g>
<!-- Node12&#45;&gt;Node2 -->
<g id="edge19" class="edge">
<title>Node12&#45;&gt;Node2</title>
<path fill="none" stroke="#191970" d="M756.3323,-170.2577C753.3678,-169.4468 750.3754,-168.674 747.5,-168 664.2063,-148.4752 564.2206,-133.0461 515.7309,-126.0632"/>
<polygon fill="#191970" stroke="#191970" points="516.036,-122.5714 505.6422,-124.6256 515.0485,-129.5014 516.036,-122.5714"/>
</g>
<!-- Node13 -->
<g id="node13" class="node">
<title>Node13</title>
<g id="a_node13"><a xlink:title=" ">
<polygon fill="#ffffff" stroke="#bfbfbf" points="732.5,-112.5 732.5,-131.5 788.5,-131.5 788.5,-112.5 732.5,-112.5"/>
<text text-anchor="middle" x="760.5" y="-119.5" font-family="Helvetica,sans-Serif" font-size="10.00" fill="#000000">stdarg.h</text>
</a>
</g>
</g>
<!-- Node12&#45;&gt;Node13 -->
<g id="edge18" class="edge">
<title>Node12&#45;&gt;Node13</title>
<path fill="none" stroke="#191970" d="M777.8421,-168.2455C775.0416,-160.7776 771.091,-150.2427 767.6676,-141.1137"/>
<polygon fill="#191970" stroke="#191970" points="770.9045,-139.777 764.116,-131.6427 764.3501,-142.2349 770.9045,-139.777"/>
</g>
<!-- Node14&#45;&gt;Node2 -->
<g id="edge22" class="edge">
<title>Node14&#45;&gt;Node2</title>
<path fill="none" stroke="#191970" d="M824.7679,-170.0105C821.6495,-169.2822 818.5173,-168.5958 815.5,-168 705.7344,-146.3248 573.3974,-131.0845 515.7326,-124.9736"/>
<polygon fill="#191970" stroke="#191970" points="515.8498,-121.4668 505.5398,-123.9066 515.121,-128.4288 515.8498,-121.4668"/>
</g>
<!-- Node14&#45;&gt;Node3 -->
<g id="edge21" class="edge">
<title>Node14&#45;&gt;Node3</title>
<path fill="none" stroke="#191970" d="M849.3029,-168.4592C840.6781,-153.6446 821.912,-125.4202 797.5,-112 750.9822,-86.4274 595.6051,-73.1589 523.6524,-68.2604"/>
<polygon fill="#191970" stroke="#191970" points="523.4665,-64.7405 513.257,-67.5717 523.0037,-71.7252 523.4665,-64.7405"/>
</g>
<!-- Node14&#45;&gt;Node13 -->
<g id="edge23" class="edge">
<title>Node14&#45;&gt;Node13</title>
<path fill="none" stroke="#191970" d="M838.1264,-168.2455C823.5692,-159.5731 802.069,-146.7645 785.3848,-136.825"/>
<polygon fill="#191970" stroke="#191970" points="787.0683,-133.7539 776.6859,-131.6427 783.4856,-139.7676 787.0683,-133.7539"/>
</g>
<!-- Node15 -->
<g id="node15" class="node">
<title>Node15</title>
<g id="a_node15"><a xlink:href="setjmp_8h.html" target="_top" xlink:title=" ">
<polygon fill="#ffffff" stroke="#000000" points="754,-56.5 754,-75.5 813,-75.5 813,-56.5 754,-56.5"/>
<text text-anchor="middle" x="783.5" y="-63.5" font-family="Helvetica,sans-Serif" font-size="10.00" fill="#000000">setjmp.h</text>
</a>
</g>
</g>
<!-- Node14&#45;&gt;Node15 -->
<g id="edge24" class="edge">
<title>Node14&#45;&gt;Node15</title>
<path fill="none" stroke="#191970" d="M852.4478,-168.433C849.267,-155.0248 842.2563,-130.2425 830.5,-112 823.3246,-100.8657 813,-90.3759 803.8543,-82.2331"/>
<polygon fill="#191970" stroke="#191970" points="806.1075,-79.5548 796.2293,-75.7243 801.5628,-84.8788 806.1075,-79.5548"/>
</g>
<!-- Node15&#45;&gt;Node5 -->
<g id="edge25" class="edge">
<title>Node15&#45;&gt;Node5</title>
<path fill="none" stroke="#191970" d="M771.1327,-56.2455C760.5446,-47.8943 745.0936,-35.7076 732.7107,-25.9408"/>
<polygon fill="#191970" stroke="#191970" points="734.7447,-23.0875 724.7255,-19.6427 730.4097,-28.5837 734.7447,-23.0875"/>
</g>
<!-- Node16&#45;&gt;Node2 -->
<g id="edge28" class="edge">
<title>Node16&#45;&gt;Node2</title>
<path fill="none" stroke="#191970" d="M670.4375,-169.25C627.805,-158.2985 555.5287,-139.7322 515.4454,-129.4355"/>
<polygon fill="#191970" stroke="#191970" points="516.3068,-126.0432 505.7504,-126.9451 514.5651,-132.8231 516.3068,-126.0432"/>
</g>
<!-- Node16&#45;&gt;Node3 -->
<g id="edge27" class="edge">
<title>Node16&#45;&gt;Node3</title>
<path fill="none" stroke="#191970" d="M685.9134,-168.4509C647.4621,-148.6961 559.0172,-103.2565 513.9617,-80.1088"/>
<polygon fill="#191970" stroke="#191970" points="515.5337,-76.9816 505.0395,-75.5249 512.3349,-83.2079 515.5337,-76.9816"/>
</g>
<!-- Node16&#45;&gt;Node13 -->
<g id="edge29" class="edge">
<title>Node16&#45;&gt;Node13</title>
<path fill="none" stroke="#191970" d="M714.2545,-168.2455C722.3648,-160.1352 734.0925,-148.4075 743.7081,-138.7919"/>
<polygon fill="#191970" stroke="#191970" points="746.2611,-141.1887 750.8573,-131.6427 741.3113,-136.2389 746.2611,-141.1887"/>
</g>
<!-- Node17&#45;&gt;Node2 -->
<g id="edge32" class="edge">
<title>Node17&#45;&gt;Node2</title>
<path fill="none" stroke="#191970" d="M531.9197,-168.2455C523.9542,-160.1352 512.4359,-148.4075 502.9921,-138.7919"/>
<polygon fill="#191970" stroke="#191970" points="505.4747,-136.3247 495.9705,-131.6427 500.4805,-141.2297 505.4747,-136.3247"/>
</g>
<!-- Node17&#45;&gt;Node3 -->
<g id="edge31" class="edge">
<title>Node17&#45;&gt;Node3</title>
<path fill="none" stroke="#191970" d="M538.1148,-168.3907C533.3994,-155.3518 524.3204,-131.4504 514.5,-112 509.724,-102.5405 503.6884,-92.4402 498.4448,-84.1207"/>
<polygon fill="#191970" stroke="#191970" points="501.3252,-82.129 492.9704,-75.6137 495.4386,-85.917 501.3252,-82.129"/>
</g>
<!-- Node18&#45;&gt;Node2 -->
<g id="edge35" class="edge">
<title>Node18&#45;&gt;Node2</title>
<path fill="none" stroke="#191970" d="M597.4646,-168.3733C574.7089,-158.8634 539.8391,-144.291 515.2732,-134.0246"/>
<polygon fill="#191970" stroke="#191970" points="516.341,-130.6775 505.7647,-130.0509 513.6418,-137.1362 516.341,-130.6775"/>
</g>
<!-- Node18&#45;&gt;Node3 -->
<g id="edge34" class="edge">
<title>Node18&#45;&gt;Node3</title>
<path fill="none" stroke="#191970" d="M609.0752,-168.4509C586.1323,-149.2747 534.233,-105.8962 505.8807,-82.1988"/>
<polygon fill="#191970" stroke="#191970" points="507.8133,-79.2525 497.8958,-75.5249 503.3241,-84.6235 507.8133,-79.2525"/>
</g>
<!-- Node19&#45;&gt;Node2 -->
<g id="edge38" class="edge">
<title>Node19&#45;&gt;Node2</title>
<path fill="none" stroke="#191970" d="M287.88,-169.737C333.8394,-158.691 414.4918,-139.3067 457.5248,-128.964"/>
<polygon fill="#191970" stroke="#191970" points="458.4563,-132.3399 467.3615,-126.5998 456.8204,-125.5337 458.4563,-132.3399"/>
</g>
<!-- Node19&#45;&gt;Node3 -->
<g id="edge37" class="edge">
<title>Node19&#45;&gt;Node3</title>
<path fill="none" stroke="#191970" d="M273.3654,-168.4509C314.5485,-148.6548 409.3889,-103.0663 457.4504,-79.9638"/>
<polygon fill="#191970" stroke="#191970" points="459.1883,-83.0118 466.6848,-75.5249 456.1557,-76.7028 459.1883,-83.0118"/>
</g>
<!-- Node20&#45;&gt;Node2 -->
<g id="edge41" class="edge">
<title>Node20&#45;&gt;Node2</title>
<path fill="none" stroke="#191970" d="M364.7702,-168.3733C390.5377,-158.557 430.4647,-143.3468 457.504,-133.0461"/>
<polygon fill="#191970" stroke="#191970" points="459.0807,-136.1909 467.1796,-129.3601 456.5887,-129.6494 459.0807,-136.1909"/>
</g>
<!-- Node20&#45;&gt;Node3 -->
<g id="edge40" class="edge">
<title>Node20&#45;&gt;Node3</title>
<path fill="none" stroke="#191970" d="M352.0331,-168.4509C377.4189,-149.1094 435.1202,-105.1465 466.0376,-81.5904"/>
<polygon fill="#191970" stroke="#191970" points="468.1654,-84.3694 473.9986,-75.5249 463.9231,-78.8013 468.1654,-84.3694"/>
</g>
<!-- Node21&#45;&gt;Node2 -->
<g id="edge44" class="edge">
<title>Node21&#45;&gt;Node2</title>
<path fill="none" stroke="#191970" d="M901.7581,-169.9755C898.9903,-169.2354 896.197,-168.5562 893.5,-168 753.9709,-139.2233 583.5589,-127.3146 516.0595,-123.4967"/>
<polygon fill="#191970" stroke="#191970" points="515.9428,-119.9852 505.7663,-122.9328 515.5598,-126.9747 515.9428,-119.9852"/>
</g>
<!-- Node22 -->
<g id="node22" class="node">
<title>Node22</title>
<g id="a_node22"><a xlink:title=" ">
<polygon fill="#ffffff" stroke="#bfbfbf" points="900,-112.5 900,-131.5 953,-131.5 953,-112.5 900,-112.5"/>
<text text-anchor="middle" x="926.5" y="-119.5" font-family="Helvetica,sans-Serif" font-size="10.00" fill="#000000">types.h</text>
</a>
</g>
</g>
<!-- Node21&#45;&gt;Node22 -->
<g id="edge43" class="edge">
<title>Node21&#45;&gt;Node22</title>
<path fill="none" stroke="#191970" d="M926.5,-168.2455C926.5,-160.9382 926.5,-150.6944 926.5,-141.7046"/>
<polygon fill="#191970" stroke="#191970" points="930.0001,-141.6426 926.5,-131.6427 923.0001,-141.6427 930.0001,-141.6426"/>
</g>
</g>
</svg>
