<?xml version="1.0" encoding="UTF-8" standalone="no"?>
<!DOCTYPE svg PUBLIC "-//W3C//DTD SVG 1.1//EN"
 "http://www.w3.org/Graphics/SVG/1.1/DTD/svg11.dtd">
<!-- Generated by graphviz version 2.40.1 (20161225.0304)
 -->
<!-- Title: iop/usb/usbhdfsd/src/fat_write.c Pages: 1 -->
<svg width="947pt" height="263pt"
 viewBox="0.00 0.00 947.00 263.00" xmlns="http://www.w3.org/2000/svg" xmlns:xlink="http://www.w3.org/1999/xlink">
<g id="graph0" class="graph" transform="scale(1 1) rotate(0) translate(4 259)">
<title>iop/usb/usbhdfsd/src/fat_write.c</title>
<polygon fill="#ffffff" stroke="transparent" points="-4,4 -4,-259 943,-259 943,4 -4,4"/>
<!-- Node1 -->
<g id="node1" class="node">
<title>Node1</title>
<g id="a_node1"><a xlink:title=" ">
<polygon fill="#bfbfbf" stroke="#000000" points="406.5,-224.5 406.5,-254.5 522.5,-254.5 522.5,-224.5 406.5,-224.5"/>
<text text-anchor="start" x="414.5" y="-242.5" font-family="Helvetica,sans-Serif" font-size="10.00" fill="#000000">iop/usb/usbhdfsd/src</text>
<text text-anchor="middle" x="464.5" y="-231.5" font-family="Helvetica,sans-Serif" font-size="10.00" fill="#000000">/fat_write.c</text>
</a>
</g>
</g>
<!-- Node2 -->
<g id="node2" class="node">
<title>Node2</title>
<g id="a_node2"><a xlink:href="stdio_8h.html" target="_top" xlink:title=" ">
<polygon fill="#ffffff" stroke="#000000" points="97.5,-168.5 97.5,-187.5 147.5,-187.5 147.5,-168.5 97.5,-168.5"/>
<text text-anchor="middle" x="122.5" y="-175.5" font-family="Helvetica,sans-Serif" font-size="10.00" fill="#000000">stdio.h</text>
</a>
</g>
</g>
<!-- Node1&#45;&gt;Node2 -->
<g id="edge1" class="edge">
<title>Node1&#45;&gt;Node2</title>
<path fill="none" stroke="#191970" d="M406.4747,-231.9233C346.3794,-223.5995 249.6496,-208.871 157.4335,-188.0056"/>
<polygon fill="#191970" stroke="#191970" points="158.1909,-184.5885 147.6619,-185.7673 156.6279,-191.4118 158.1909,-184.5885"/>
</g>
<!-- Node8 -->
<g id="node8" class="node">
<title>Node8</title>
<g id="a_node8"><a xlink:href="errno_8h.html" target="_top" xlink:title=" ">
<polygon fill="#ffffff" stroke="#000000" points="344,-168.5 344,-187.5 395,-187.5 395,-168.5 344,-168.5"/>
<text text-anchor="middle" x="369.5" y="-175.5" font-family="Helvetica,sans-Serif" font-size="10.00" fill="#000000">errno.h</text>
</a>
</g>
</g>
<!-- Node1&#45;&gt;Node8 -->
<g id="edge7" class="edge">
<title>Node1&#45;&gt;Node8</title>
<path fill="none" stroke="#191970" d="M441.0168,-224.2977C426.3652,-214.8127 407.5764,-202.6495 392.9341,-193.1705"/>
<polygon fill="#191970" stroke="#191970" points="394.7236,-190.1596 384.427,-187.6633 390.9195,-196.0357 394.7236,-190.1596"/>
</g>
<!-- Node9 -->
<g id="node9" class="node">
<title>Node9</title>
<g id="a_node9"><a xlink:href="cdvdman_8h.html" target="_top" xlink:title=" ">
<polygon fill="#ffffff" stroke="#000000" points="166,-168.5 166,-187.5 237,-187.5 237,-168.5 166,-168.5"/>
<text text-anchor="middle" x="201.5" y="-175.5" font-family="Helvetica,sans-Serif" font-size="10.00" fill="#000000">cdvdman.h</text>
</a>
</g>
</g>
<!-- Node1&#45;&gt;Node9 -->
<g id="edge8" class="edge">
<title>Node1&#45;&gt;Node9</title>
<path fill="none" stroke="#191970" d="M406.458,-225.9274C358.4619,-214.704 291.243,-198.9855 247.0575,-188.6532"/>
<polygon fill="#191970" stroke="#191970" points="247.7056,-185.2104 237.1713,-186.3414 246.1117,-192.0265 247.7056,-185.2104"/>
</g>
<!-- Node11 -->
<g id="node11" class="node">
<title>Node11</title>
<g id="a_node11"><a xlink:href="sysclib_8h.html" target="_top" xlink:title=" ">
<polygon fill="#ffffff" stroke="#000000" points="20,-168.5 20,-187.5 79,-187.5 79,-168.5 20,-168.5"/>
<text text-anchor="middle" x="49.5" y="-175.5" font-family="Helvetica,sans-Serif" font-size="10.00" fill="#000000">sysclib.h</text>
</a>
</g>
</g>
<!-- Node1&#45;&gt;Node11 -->
<g id="edge13" class="edge">
<title>Node1&#45;&gt;Node11</title>
<path fill="none" stroke="#191970" d="M406.1866,-233.6149C334.0077,-225.8629 207.2056,-210.7195 89.1635,-187.9377"/>
<polygon fill="#191970" stroke="#191970" points="89.7158,-184.4795 79.2304,-185.9982 88.3743,-191.3497 89.7158,-184.4795"/>
</g>
<!-- Node13 -->
<g id="node13" class="node">
<title>Node13</title>
<g id="a_node13"><a xlink:href="usbhdfsd_8h.html" target="_top" xlink:title=" ">
<polygon fill="#ffffff" stroke="#000000" points="255.5,-168.5 255.5,-187.5 325.5,-187.5 325.5,-168.5 255.5,-168.5"/>
<text text-anchor="middle" x="290.5" y="-175.5" font-family="Helvetica,sans-Serif" font-size="10.00" fill="#000000">usbhdfsd.h</text>
</a>
</g>
</g>
<!-- Node1&#45;&gt;Node13 -->
<g id="edge19" class="edge">
<title>Node1&#45;&gt;Node13</title>
<path fill="none" stroke="#191970" d="M421.9348,-224.4554C392.9025,-214.194 354.8459,-200.7429 327.1591,-190.9571"/>
<polygon fill="#191970" stroke="#191970" points="328.0586,-187.5629 317.4638,-187.5303 325.7259,-194.1628 328.0586,-187.5629"/>
</g>
<!-- Node16 -->
<g id="node16" class="node">
<title>Node16</title>
<g id="a_node16"><a xlink:title=" ">
<polygon fill="#ffffff" stroke="#bfbfbf" points="413,-168.5 413,-187.5 516,-187.5 516,-168.5 413,-168.5"/>
<text text-anchor="middle" x="464.5" y="-175.5" font-family="Helvetica,sans-Serif" font-size="10.00" fill="#000000">usbhd_common.h</text>
</a>
</g>
</g>
<!-- Node1&#45;&gt;Node16 -->
<g id="edge23" class="edge">
<title>Node1&#45;&gt;Node16</title>
<path fill="none" stroke="#191970" d="M464.5,-224.2977C464.5,-216.3834 464.5,-206.6043 464.5,-198.0759"/>
<polygon fill="#191970" stroke="#191970" points="468.0001,-197.8469 464.5,-187.8469 461.0001,-197.847 468.0001,-197.8469"/>
</g>
<!-- Node17 -->
<g id="node17" class="node">
<title>Node17</title>
<g id="a_node17"><a xlink:title=" ">
<polygon fill="#ffffff" stroke="#bfbfbf" points="534.5,-168.5 534.5,-187.5 606.5,-187.5 606.5,-168.5 534.5,-168.5"/>
<text text-anchor="middle" x="570.5" y="-175.5" font-family="Helvetica,sans-Serif" font-size="10.00" fill="#000000">fat_driver.h</text>
</a>
</g>
</g>
<!-- Node1&#45;&gt;Node17 -->
<g id="edge24" class="edge">
<title>Node1&#45;&gt;Node17</title>
<path fill="none" stroke="#191970" d="M490.4305,-224.4554C507.0309,-214.8241 528.4744,-202.3828 544.9917,-192.7996"/>
<polygon fill="#191970" stroke="#191970" points="547.1806,-195.5761 554.0738,-187.5303 543.6677,-189.5214 547.1806,-195.5761"/>
</g>
<!-- Node18 -->
<g id="node18" class="node">
<title>Node18</title>
<g id="a_node18"><a xlink:title=" ">
<polygon fill="#ffffff" stroke="#bfbfbf" points="625,-168.5 625,-187.5 664,-187.5 664,-168.5 625,-168.5"/>
<text text-anchor="middle" x="644.5" y="-175.5" font-family="Helvetica,sans-Serif" font-size="10.00" fill="#000000">fat.h</text>
</a>
</g>
</g>
<!-- Node1&#45;&gt;Node18 -->
<g id="edge25" class="edge">
<title>Node1&#45;&gt;Node18</title>
<path fill="none" stroke="#191970" d="M508.7822,-224.4409C536.7678,-214.9139 573.9318,-202.2441 615.3736,-188.0361"/>
<polygon fill="#191970" stroke="#191970" points="616.5241,-191.3417 624.8477,-184.7867 614.253,-184.7203 616.5241,-191.3417"/>
</g>
<!-- Node19 -->
<g id="node19" class="node">
<title>Node19</title>
<g id="a_node19"><a xlink:title=" ">
<polygon fill="#ffffff" stroke="#bfbfbf" points="682,-168.5 682,-187.5 741,-187.5 741,-168.5 682,-168.5"/>
<text text-anchor="middle" x="711.5" y="-175.5" font-family="Helvetica,sans-Serif" font-size="10.00" fill="#000000">scache.h</text>
</a>
</g>
</g>
<!-- Node1&#45;&gt;Node19 -->
<g id="edge26" class="edge">
<title>Node1&#45;&gt;Node19</title>
<path fill="none" stroke="#191970" d="M522.6704,-225.4258C562.2587,-215.7878 616.1031,-202.5635 671.6246,-188.4553"/>
<polygon fill="#191970" stroke="#191970" points="672.8135,-191.7643 681.6408,-185.9051 671.0863,-184.9807 672.8135,-191.7643"/>
</g>
<!-- Node20 -->
<g id="node20" class="node">
<title>Node20</title>
<g id="a_node20"><a xlink:href="mass__stor_8h.html" target="_top" xlink:title=" ">
<polygon fill="#ffffff" stroke="#000000" points="759,-168.5 759,-187.5 834,-187.5 834,-168.5 759,-168.5"/>
<text text-anchor="middle" x="796.5" y="-175.5" font-family="Helvetica,sans-Serif" font-size="10.00" fill="#000000">mass_stor.h</text>
</a>
</g>
</g>
<!-- Node1&#45;&gt;Node20 -->
<g id="edge27" class="edge">
<title>Node1&#45;&gt;Node20</title>
<path fill="none" stroke="#191970" d="M522.6782,-229.654C578.3446,-220.0905 664.9161,-204.8469 748.9052,-188.2711"/>
<polygon fill="#191970" stroke="#191970" points="749.7389,-191.674 758.8674,-186.2962 748.3776,-184.8076 749.7389,-191.674"/>
</g>
<!-- Node21 -->
<g id="node21" class="node">
<title>Node21</title>
<g id="a_node21"><a xlink:title=" ">
<polygon fill="#ffffff" stroke="#bfbfbf" points="852,-168.5 852,-187.5 939,-187.5 939,-168.5 852,-168.5"/>
<text text-anchor="middle" x="895.5" y="-175.5" font-family="Helvetica,sans-Serif" font-size="10.00" fill="#000000">mass_debug.h</text>
</a>
</g>
</g>
<!-- Node1&#45;&gt;Node21 -->
<g id="edge28" class="edge">
<title>Node1&#45;&gt;Node21</title>
<path fill="none" stroke="#191970" d="M522.759,-232.5922C595.2557,-223.7712 723.0699,-207.483 841.8441,-188.2093"/>
<polygon fill="#191970" stroke="#191970" points="842.5333,-191.6432 851.8383,-186.5768 841.4048,-184.7347 842.5333,-191.6432"/>
</g>
<!-- Node3 -->
<g id="node3" class="node">
<title>Node3</title>
<g id="a_node3"><a xlink:title=" ">
<polygon fill="#ffffff" stroke="#bfbfbf" points="59.5,-112.5 59.5,-131.5 115.5,-131.5 115.5,-112.5 59.5,-112.5"/>
<text text-anchor="middle" x="87.5" y="-119.5" font-family="Helvetica,sans-Serif" font-size="10.00" fill="#000000">stdarg.h</text>
</a>
</g>
</g>
<!-- Node2&#45;&gt;Node3 -->
<g id="edge2" class="edge">
<title>Node2&#45;&gt;Node3</title>
<path fill="none" stroke="#191970" d="M116.4035,-168.2455C111.5855,-160.5367 104.7249,-149.5598 98.8968,-140.2348"/>
<polygon fill="#191970" stroke="#191970" points="101.7947,-138.2677 93.5267,-131.6427 95.8587,-141.9777 101.7947,-138.2677"/>
</g>
<!-- Node4 -->
<g id="node4" class="node">
<title>Node4</title>
<g id="a_node4"><a xlink:href="irx_8h.html" target="_top" xlink:title=" ">
<polygon fill="#ffffff" stroke="#000000" points="133.5,-112.5 133.5,-131.5 171.5,-131.5 171.5,-112.5 133.5,-112.5"/>
<text text-anchor="middle" x="152.5" y="-119.5" font-family="Helvetica,sans-Serif" font-size="10.00" fill="#000000">irx.h</text>
</a>
</g>
</g>
<!-- Node2&#45;&gt;Node4 -->
<g id="edge3" class="edge">
<title>Node2&#45;&gt;Node4</title>
<path fill="none" stroke="#191970" d="M127.7256,-168.2455C131.8123,-160.617 137.6135,-149.7881 142.575,-140.5267"/>
<polygon fill="#191970" stroke="#191970" points="145.6972,-142.1103 147.3343,-131.6427 139.5268,-138.8047 145.6972,-142.1103"/>
</g>
<!-- Node5 -->
<g id="node5" class="node">
<title>Node5</title>
<g id="a_node5"><a xlink:href="types_8h.html" target="_top" xlink:title=" ">
<polygon fill="#ffffff" stroke="#000000" points="113,-56.5 113,-75.5 166,-75.5 166,-56.5 113,-56.5"/>
<text text-anchor="middle" x="139.5" y="-63.5" font-family="Helvetica,sans-Serif" font-size="10.00" fill="#000000">types.h</text>
</a>
</g>
</g>
<!-- Node4&#45;&gt;Node5 -->
<g id="edge4" class="edge">
<title>Node4&#45;&gt;Node5</title>
<path fill="none" stroke="#191970" d="M150.2356,-112.2455C148.5206,-104.8579 146.1088,-94.4689 144.0056,-85.4087"/>
<polygon fill="#191970" stroke="#191970" points="147.4092,-84.5922 141.7385,-75.6427 140.5905,-86.1751 147.4092,-84.5922"/>
</g>
<!-- Node6 -->
<g id="node6" class="node">
<title>Node6</title>
<g id="a_node6"><a xlink:title=" ">
<polygon fill="#ffffff" stroke="#bfbfbf" points="70.5,-.5 70.5,-19.5 126.5,-19.5 126.5,-.5 70.5,-.5"/>
<text text-anchor="middle" x="98.5" y="-7.5" font-family="Helvetica,sans-Serif" font-size="10.00" fill="#000000">stddef.h</text>
</a>
</g>
</g>
<!-- Node5&#45;&gt;Node6 -->
<g id="edge5" class="edge">
<title>Node5&#45;&gt;Node6</title>
<path fill="none" stroke="#191970" d="M132.3583,-56.2455C126.6556,-48.4564 118.51,-37.3308 111.6375,-27.9439"/>
<polygon fill="#191970" stroke="#191970" points="114.2913,-25.6437 105.5598,-19.6427 108.6432,-29.7789 114.2913,-25.6437"/>
</g>
<!-- Node7 -->
<g id="node7" class="node">
<title>Node7</title>
<g id="a_node7"><a xlink:href="tamtypes_8h.html" target="_top" xlink:title=" ">
<polygon fill="#ffffff" stroke="#000000" points="144.5,-.5 144.5,-19.5 216.5,-19.5 216.5,-.5 144.5,-.5"/>
<text text-anchor="middle" x="180.5" y="-7.5" font-family="Helvetica,sans-Serif" font-size="10.00" fill="#000000">tamtypes.h</text>
</a>
</g>
</g>
<!-- Node5&#45;&gt;Node7 -->
<g id="edge6" class="edge">
<title>Node5&#45;&gt;Node7</title>
<path fill="none" stroke="#191970" d="M146.6417,-56.2455C152.3444,-48.4564 160.49,-37.3308 167.3625,-27.9439"/>
<polygon fill="#191970" stroke="#191970" points="170.3568,-29.7789 173.4402,-19.6427 164.7087,-25.6437 170.3568,-29.7789"/>
</g>
<!-- Node9&#45;&gt;Node4 -->
<g id="edge10" class="edge">
<title>Node9&#45;&gt;Node4</title>
<path fill="none" stroke="#191970" d="M192.9649,-168.2455C186.0088,-160.2958 176.0117,-148.8706 167.6949,-139.3656"/>
<polygon fill="#191970" stroke="#191970" points="170.1564,-136.8637 160.9373,-131.6427 164.8884,-141.4732 170.1564,-136.8637"/>
</g>
<!-- Node9&#45;&gt;Node5 -->
<g id="edge9" class="edge">
<title>Node9&#45;&gt;Node5</title>
<path fill="none" stroke="#191970" d="M199.6994,-168.079C196.9752,-154.6868 190.9791,-130.3863 180.5,-112 174.3983,-101.2941 165.4868,-90.9095 157.5295,-82.7245"/>
<polygon fill="#191970" stroke="#191970" points="159.8938,-80.1405 150.3154,-75.6123 154.9794,-85.1254 159.8938,-80.1405"/>
</g>
<!-- Node10 -->
<g id="node10" class="node">
<title>Node10</title>
<g id="a_node10"><a xlink:href="libcdvd-common_8h.html" target="_top" xlink:title=" ">
<polygon fill="#ffffff" stroke="#000000" points="184,-56.5 184,-75.5 291,-75.5 291,-56.5 184,-56.5"/>
<text text-anchor="middle" x="237.5" y="-63.5" font-family="Helvetica,sans-Serif" font-size="10.00" fill="#000000">libcdvd&#45;common.h</text>
</a>
</g>
</g>
<!-- Node9&#45;&gt;Node10 -->
<g id="edge11" class="edge">
<title>Node9&#45;&gt;Node10</title>
<path fill="none" stroke="#191970" d="M204.5693,-168.4509C210.4674,-150.1013 223.4887,-109.5908 231.2741,-85.3693"/>
<polygon fill="#191970" stroke="#191970" points="234.7104,-86.1162 234.4384,-75.5249 228.0462,-83.9741 234.7104,-86.1162"/>
</g>
<!-- Node10&#45;&gt;Node7 -->
<g id="edge12" class="edge">
<title>Node10&#45;&gt;Node7</title>
<path fill="none" stroke="#191970" d="M227.5714,-56.2455C219.3162,-48.1352 207.3791,-36.4075 197.5918,-26.7919"/>
<polygon fill="#191970" stroke="#191970" points="199.9011,-24.1542 190.3149,-19.6427 194.9954,-29.1476 199.9011,-24.1542"/>
</g>
<!-- Node11&#45;&gt;Node3 -->
<g id="edge16" class="edge">
<title>Node11&#45;&gt;Node3</title>
<path fill="none" stroke="#191970" d="M56.1191,-168.2455C61.4046,-160.4564 68.9541,-149.3308 75.3238,-139.9439"/>
<polygon fill="#191970" stroke="#191970" points="78.2379,-141.8827 80.9568,-131.6427 72.4455,-137.9522 78.2379,-141.8827"/>
</g>
<!-- Node11&#45;&gt;Node4 -->
<g id="edge15" class="edge">
<title>Node11&#45;&gt;Node4</title>
<path fill="none" stroke="#191970" d="M67.4412,-168.2455C83.54,-159.4928 107.3879,-146.527 125.7391,-136.5496"/>
<polygon fill="#191970" stroke="#191970" points="127.6507,-139.4942 134.7644,-131.6427 124.3071,-133.3444 127.6507,-139.4942"/>
</g>
<!-- Node11&#45;&gt;Node5 -->
<g id="edge14" class="edge">
<title>Node11&#45;&gt;Node5</title>
<path fill="none" stroke="#191970" d="M46.731,-168.1823C43.4723,-154.4763 39.7608,-129.3423 50.5,-112 62.0409,-93.3631 83.7892,-81.9275 102.8974,-75.1197"/>
<polygon fill="#191970" stroke="#191970" points="104.1553,-78.391 112.581,-71.9678 101.9887,-71.7347 104.1553,-78.391"/>
</g>
<!-- Node12 -->
<g id="node12" class="node">
<title>Node12</title>
<g id="a_node12"><a xlink:href="setjmp_8h.html" target="_top" xlink:title=" ">
<polygon fill="#ffffff" stroke="#000000" points="0,-56.5 0,-75.5 59,-75.5 59,-56.5 0,-56.5"/>
<text text-anchor="middle" x="29.5" y="-63.5" font-family="Helvetica,sans-Serif" font-size="10.00" fill="#000000">setjmp.h</text>
</a>
</g>
</g>
<!-- Node11&#45;&gt;Node12 -->
<g id="edge17" class="edge">
<title>Node11&#45;&gt;Node12</title>
<path fill="none" stroke="#191970" d="M40.1382,-168.3788C32.3766,-159.6808 21.925,-146.1096 17.5,-132 12.6601,-116.5675 16.6027,-98.4558 21.2235,-85.1134"/>
<polygon fill="#191970" stroke="#191970" points="24.5689,-86.1668 24.9198,-75.5777 18.0421,-83.6367 24.5689,-86.1668"/>
</g>
<!-- Node12&#45;&gt;Node7 -->
<g id="edge18" class="edge">
<title>Node12&#45;&gt;Node7</title>
<path fill="none" stroke="#191970" d="M55.4578,-56.3733C80.2407,-47.1822 117.7746,-33.2624 145.254,-23.0713"/>
<polygon fill="#191970" stroke="#191970" points="146.7219,-26.26 154.8809,-19.5011 144.2879,-19.6968 146.7219,-26.26"/>
</g>
<!-- Node13&#45;&gt;Node4 -->
<g id="edge21" class="edge">
<title>Node13&#45;&gt;Node4</title>
<path fill="none" stroke="#191970" d="M266.777,-168.3733C243.1018,-158.7659 206.6938,-143.9917 181.3575,-133.7103"/>
<polygon fill="#191970" stroke="#191970" points="182.4909,-130.3931 171.9087,-129.876 179.8588,-136.8794 182.4909,-130.3931"/>
</g>
<!-- Node14 -->
<g id="node14" class="node">
<title>Node14</title>
<g id="a_node14"><a xlink:title=" ">
<polygon fill="#ffffff" stroke="#bfbfbf" points="266,-112.5 266,-131.5 319,-131.5 319,-112.5 266,-112.5"/>
<text text-anchor="middle" x="292.5" y="-119.5" font-family="Helvetica,sans-Serif" font-size="10.00" fill="#000000">types.h</text>
</a>
</g>
</g>
<!-- Node13&#45;&gt;Node14 -->
<g id="edge20" class="edge">
<title>Node13&#45;&gt;Node14</title>
<path fill="none" stroke="#191970" d="M290.8484,-168.2455C291.1093,-160.9382 291.4752,-150.6944 291.7963,-141.7046"/>
<polygon fill="#191970" stroke="#191970" points="295.2964,-141.7613 292.1556,-131.6427 288.3008,-141.5113 295.2964,-141.7613"/>
</g>
<!-- Node15 -->
<g id="node15" class="node">
<title>Node15</title>
<g id="a_node15"><a xlink:href="usbhdfsd-common_8h.html" target="_top" xlink:title=" ">
<polygon fill="#ffffff" stroke="#000000" points="337.5,-112.5 337.5,-131.5 453.5,-131.5 453.5,-112.5 337.5,-112.5"/>
<text text-anchor="middle" x="395.5" y="-119.5" font-family="Helvetica,sans-Serif" font-size="10.00" fill="#000000">usbhdfsd&#45;common.h</text>
</a>
</g>
</g>
<!-- Node13&#45;&gt;Node15 -->
<g id="edge22" class="edge">
<title>Node13&#45;&gt;Node15</title>
<path fill="none" stroke="#191970" d="M308.7896,-168.2455C325.2762,-159.4527 349.7352,-146.4079 368.4765,-136.4125"/>
<polygon fill="#191970" stroke="#191970" points="370.2435,-139.4368 377.42,-131.6427 366.9494,-133.2604 370.2435,-139.4368"/>
</g>
</g>
</svg>
