<?xml version="1.0" encoding="UTF-8" standalone="no"?>
<!DOCTYPE svg PUBLIC "-//W3C//DTD SVG 1.1//EN"
 "http://www.w3.org/Graphics/SVG/1.1/DTD/svg11.dtd">
<!-- Generated by graphviz version 2.40.1 (20161225.0304)
 -->
<!-- Title: iop/usb/usbd/src/irx_imports.h Pages: 1 -->
<!--zoomable 263 -->
<svg id="main" version="1.1" xmlns="http://www.w3.org/2000/svg" xmlns:xlink="http://www.w3.org/1999/xlink" xml:space="preserve" onload="init(evt)">
<style type="text/css"><![CDATA[
.edge:hover path { stroke: red; }
.edge:hover polygon { stroke: red; fill: red; }
]]></style>
<script type="text/javascript"><![CDATA[
var edges = document.getElementsByTagName('g');
if (edges && edges.length) {
  for (var i=0;i<edges.length;i++) {
    if (edges[i].id.substr(0,4)=='edge') {
      edges[i].setAttribute('class','edge');
    }
  }
}
]]></script>
        <defs>
                <circle id="rim" cx="0" cy="0" r="7"/>
                <circle id="rim2" cx="0" cy="0" r="3.5"/>
                <g id="zoomPlus">
                        <use xlink:href="#rim" fill="#404040">
                                <set attributeName="fill" to="#808080" begin="zoomplus.mouseover" end="zoomplus.mouseout"/>
                        </use>
                        <path d="M-4,0h8M0,-4v8" fill="none" stroke="white" stroke-width="1.5" pointer-events="none"/>
                </g>
                <g id="zoomMin">
                        <use xlink:href="#rim" fill="#404040">
                                <set attributeName="fill" to="#808080" begin="zoomminus.mouseover" end="zoomminus.mouseout"/>
                        </use>
                        <path d="M-4,0h8" fill="none" stroke="white" stroke-width="1.5" pointer-events="none"/>
                </g>
                <g id="dirArrow">
                        <path fill="none" stroke="white" stroke-width="1.5" d="M0,-3.0v7 M-2.5,-0.5L0,-3.0L2.5,-0.5"/>
                </g>
               <g id="resetDef">
                       <use xlink:href="#rim2" fill="#404040">
                               <set attributeName="fill" to="#808080" begin="reset.mouseover" end="reset.mouseout"/>
                       </use>
               </g>
        </defs>

<script type="text/javascript">
var viewWidth = 836;
var viewHeight = 263;
var sectionId = 'dynsection-0';
</script>
<script xlink:href="svgpan.js"/>
<svg id="graph" class="graph">
<g id="viewport">
<title>iop/usb/usbd/src/irx_imports.h</title>
<polygon fill="#ffffff" stroke="transparent" points="-4,4 -4,-259 832,-259 832,4 -4,4"/>
<!-- Node1 -->
<g id="node1" class="node">
<title>Node1</title>
<g id="a_node1"><a xlink:title=" ">
<polygon fill="#bfbfbf" stroke="#000000" points="363,-224.5 363,-254.5 474,-254.5 474,-224.5 363,-224.5"/>
<text text-anchor="start" x="371" y="-242.5" font-family="Helvetica,sans-Serif" font-size="10.00" fill="#000000">iop/usb/usbd/src/irx</text>
<text text-anchor="middle" x="418.5" y="-231.5" font-family="Helvetica,sans-Serif" font-size="10.00" fill="#000000">_imports.h</text>
</a>
</g>
</g>
<!-- Node2 -->
<g id="node2" class="node">
<title>Node2</title>
<g id="a_node2"><a xlink:href="irx_8h.html" target="_top" xlink:title=" ">
<polygon fill="#ffffff" stroke="#000000" points="402.5,-112.5 402.5,-131.5 440.5,-131.5 440.5,-112.5 402.5,-112.5"/>
<text text-anchor="middle" x="421.5" y="-119.5" font-family="Helvetica,sans-Serif" font-size="10.00" fill="#000000">irx.h</text>
</a>
</g>
</g>
<!-- Node1&#45;&gt;Node2 -->
<g id="edge1" class="edge">
<title>Node1&#45;&gt;Node2</title>
<path fill="none" stroke="#191970" d="M418.8922,-224.1389C419.4327,-202.9692 420.4068,-164.8174 420.9993,-141.6112"/>
<polygon fill="#191970" stroke="#191970" points="424.4995,-141.6456 421.2559,-131.5595 417.5017,-141.4669 424.4995,-141.6456"/>
</g>
<!-- Node6 -->
<g id="node6" class="node">
<title>Node6</title>
<g id="a_node6"><a xlink:href="intrman_8h.html" target="_top" xlink:title=" ">
<polygon fill="#ffffff" stroke="#000000" points="446.5,-168.5 446.5,-187.5 510.5,-187.5 510.5,-168.5 446.5,-168.5"/>
<text text-anchor="middle" x="478.5" y="-175.5" font-family="Helvetica,sans-Serif" font-size="10.00" fill="#000000">intrman.h</text>
</a>
</g>
</g>
<!-- Node1&#45;&gt;Node6 -->
<g id="edge5" class="edge">
<title>Node1&#45;&gt;Node6</title>
<path fill="none" stroke="#191970" d="M433.3315,-224.2977C441.9204,-215.4941 452.7602,-204.3833 461.6679,-195.2529"/>
<polygon fill="#191970" stroke="#191970" points="464.4152,-197.4489 468.8932,-187.8469 459.4047,-192.5606 464.4152,-197.4489"/>
</g>
<!-- Node7 -->
<g id="node7" class="node">
<title>Node7</title>
<g id="a_node7"><a xlink:href="loadcore_8h.html" target="_top" xlink:title=" ">
<polygon fill="#ffffff" stroke="#000000" points="528.5,-168.5 528.5,-187.5 596.5,-187.5 596.5,-168.5 528.5,-168.5"/>
<text text-anchor="middle" x="562.5" y="-175.5" font-family="Helvetica,sans-Serif" font-size="10.00" fill="#000000">loadcore.h</text>
</a>
</g>
</g>
<!-- Node1&#45;&gt;Node7 -->
<g id="edge8" class="edge">
<title>Node1&#45;&gt;Node7</title>
<path fill="none" stroke="#191970" d="M453.7264,-224.4554C477.3316,-214.374 508.1454,-201.2139 530.9476,-191.4755"/>
<polygon fill="#191970" stroke="#191970" points="532.3634,-194.6767 540.1851,-187.5303 529.614,-188.2393 532.3634,-194.6767"/>
</g>
<!-- Node8 -->
<g id="node8" class="node">
<title>Node8</title>
<g id="a_node8"><a xlink:href="stdio_8h.html" target="_top" xlink:title=" ">
<polygon fill="#ffffff" stroke="#000000" points="700.5,-168.5 700.5,-187.5 750.5,-187.5 750.5,-168.5 700.5,-168.5"/>
<text text-anchor="middle" x="725.5" y="-175.5" font-family="Helvetica,sans-Serif" font-size="10.00" fill="#000000">stdio.h</text>
</a>
</g>
</g>
<!-- Node1&#45;&gt;Node8 -->
<g id="edge11" class="edge">
<title>Node1&#45;&gt;Node8</title>
<path fill="none" stroke="#191970" d="M474.0075,-230.696C527.2483,-221.8764 610.0443,-207.1824 690.5233,-188.0618"/>
<polygon fill="#191970" stroke="#191970" points="691.418,-191.4465 700.3242,-185.7081 689.7834,-184.64 691.418,-191.4465"/>
</g>
<!-- Node10 -->
<g id="node10" class="node">
<title>Node10</title>
<g id="a_node10"><a xlink:href="sysclib_8h.html" target="_top" xlink:title=" ">
<polygon fill="#ffffff" stroke="#000000" points="769,-168.5 769,-187.5 828,-187.5 828,-168.5 769,-168.5"/>
<text text-anchor="middle" x="798.5" y="-175.5" font-family="Helvetica,sans-Serif" font-size="10.00" fill="#000000">sysclib.h</text>
</a>
</g>
</g>
<!-- Node1&#45;&gt;Node10 -->
<g id="edge14" class="edge">
<title>Node1&#45;&gt;Node10</title>
<path fill="none" stroke="#191970" d="M474.0249,-232.8677C539.7128,-224.631 652.5184,-209.2623 758.8255,-187.9672"/>
<polygon fill="#191970" stroke="#191970" points="759.6546,-191.3704 768.7611,-185.9555 758.2654,-184.5096 759.6546,-191.3704"/>
</g>
<!-- Node12 -->
<g id="node12" class="node">
<title>Node12</title>
<g id="a_node12"><a xlink:href="sysmem_8h.html" target="_top" xlink:title=" ">
<polygon fill="#ffffff" stroke="#000000" points="614.5,-168.5 614.5,-187.5 682.5,-187.5 682.5,-168.5 614.5,-168.5"/>
<text text-anchor="middle" x="648.5" y="-175.5" font-family="Helvetica,sans-Serif" font-size="10.00" fill="#000000">sysmem.h</text>
</a>
</g>
</g>
<!-- Node1&#45;&gt;Node12 -->
<g id="edge20" class="edge">
<title>Node1&#45;&gt;Node12</title>
<path fill="none" stroke="#191970" d="M474.1766,-224.6126C514.1574,-213.922 567.3117,-199.709 604.3715,-189.7996"/>
<polygon fill="#191970" stroke="#191970" points="605.6167,-193.0897 614.3731,-187.1252 603.8084,-186.3272 605.6167,-193.0897"/>
</g>
<!-- Node13 -->
<g id="node13" class="node">
<title>Node13</title>
<g id="a_node13"><a xlink:href="thbase_8h.html" target="_top" xlink:title=" ">
<polygon fill="#ffffff" stroke="#000000" points="0,-168.5 0,-187.5 59,-187.5 59,-168.5 0,-168.5"/>
<text text-anchor="middle" x="29.5" y="-175.5" font-family="Helvetica,sans-Serif" font-size="10.00" fill="#000000">thbase.h</text>
</a>
</g>
</g>
<!-- Node1&#45;&gt;Node13 -->
<g id="edge24" class="edge">
<title>Node1&#45;&gt;Node13</title>
<path fill="none" stroke="#191970" d="M362.8457,-233.281C295.3825,-225.3096 178.1135,-210.0671 69.1394,-188.1776"/>
<polygon fill="#191970" stroke="#191970" points="69.7935,-184.739 59.2968,-186.1775 68.3995,-191.5988 69.7935,-184.739"/>
</g>
<!-- Node14 -->
<g id="node14" class="node">
<title>Node14</title>
<g id="a_node14"><a xlink:href="thevent_8h.html" target="_top" xlink:title=" ">
<polygon fill="#ffffff" stroke="#000000" points="77,-168.5 77,-187.5 140,-187.5 140,-168.5 77,-168.5"/>
<text text-anchor="middle" x="108.5" y="-175.5" font-family="Helvetica,sans-Serif" font-size="10.00" fill="#000000">thevent.h</text>
</a>
</g>
</g>
<!-- Node1&#45;&gt;Node14 -->
<g id="edge27" class="edge">
<title>Node1&#45;&gt;Node14</title>
<path fill="none" stroke="#191970" d="M362.9522,-229.7043C310.6788,-220.2966 229.9823,-205.2887 150.4446,-188.1236"/>
<polygon fill="#191970" stroke="#191970" points="150.7628,-184.6112 140.2478,-185.9096 149.2774,-191.4518 150.7628,-184.6112"/>
</g>
<!-- Node15 -->
<g id="node15" class="node">
<title>Node15</title>
<g id="a_node15"><a xlink:href="thmsgbx_8h.html" target="_top" xlink:title=" ">
<polygon fill="#ffffff" stroke="#000000" points="158.5,-168.5 158.5,-187.5 226.5,-187.5 226.5,-168.5 158.5,-168.5"/>
<text text-anchor="middle" x="192.5" y="-175.5" font-family="Helvetica,sans-Serif" font-size="10.00" fill="#000000">thmsgbx.h</text>
</a>
</g>
</g>
<!-- Node1&#45;&gt;Node15 -->
<g id="edge30" class="edge">
<title>Node1&#45;&gt;Node15</title>
<path fill="none" stroke="#191970" d="M363.2142,-224.4554C324.1548,-213.8264 272.5196,-199.7753 236.3035,-189.92"/>
<polygon fill="#191970" stroke="#191970" points="237.089,-186.5065 226.5208,-187.2579 235.2509,-193.2609 237.089,-186.5065"/>
</g>
<!-- Node16 -->
<g id="node16" class="node">
<title>Node16</title>
<g id="a_node16"><a xlink:href="thsemap_8h.html" target="_top" xlink:title=" ">
<polygon fill="#ffffff" stroke="#000000" points="244.5,-168.5 244.5,-187.5 312.5,-187.5 312.5,-168.5 244.5,-168.5"/>
<text text-anchor="middle" x="278.5" y="-175.5" font-family="Helvetica,sans-Serif" font-size="10.00" fill="#000000">thsemap.h</text>
</a>
</g>
</g>
<!-- Node1&#45;&gt;Node16 -->
<g id="edge33" class="edge">
<title>Node1&#45;&gt;Node16</title>
<path fill="none" stroke="#191970" d="M384.2521,-224.4554C361.4051,-214.419 331.6121,-201.3314 309.4733,-191.6061"/>
<polygon fill="#191970" stroke="#191970" points="310.7583,-188.3478 300.195,-187.5303 307.9429,-194.7567 310.7583,-188.3478"/>
</g>
<!-- Node17 -->
<g id="node17" class="node">
<title>Node17</title>
<g id="a_node17"><a xlink:href="vblank_8h.html" target="_top" xlink:title=" ">
<polygon fill="#ffffff" stroke="#000000" points="331,-168.5 331,-187.5 390,-187.5 390,-168.5 331,-168.5"/>
<text text-anchor="middle" x="360.5" y="-175.5" font-family="Helvetica,sans-Serif" font-size="10.00" fill="#000000">vblank.h</text>
</a>
</g>
</g>
<!-- Node1&#45;&gt;Node17 -->
<g id="edge36" class="edge">
<title>Node1&#45;&gt;Node17</title>
<path fill="none" stroke="#191970" d="M404.1629,-224.2977C395.8603,-215.4941 385.3818,-204.3833 376.7711,-195.2529"/>
<polygon fill="#191970" stroke="#191970" points="379.1939,-192.7206 369.7865,-187.8469 374.1013,-197.5234 379.1939,-192.7206"/>
</g>
<!-- Node3 -->
<g id="node3" class="node">
<title>Node3</title>
<g id="a_node3"><a xlink:href="types_8h.html" target="_top" xlink:title=" ">
<polygon fill="#ffffff" stroke="#000000" points="425,-56.5 425,-75.5 478,-75.5 478,-56.5 425,-56.5"/>
<text text-anchor="middle" x="451.5" y="-63.5" font-family="Helvetica,sans-Serif" font-size="10.00" fill="#000000">types.h</text>
</a>
</g>
</g>
<!-- Node2&#45;&gt;Node3 -->
<g id="edge2" class="edge">
<title>Node2&#45;&gt;Node3</title>
<path fill="none" stroke="#191970" d="M426.7256,-112.2455C430.8123,-104.617 436.6135,-93.7881 441.575,-84.5267"/>
<polygon fill="#191970" stroke="#191970" points="444.6972,-86.1103 446.3343,-75.6427 438.5268,-82.8047 444.6972,-86.1103"/>
</g>
<!-- Node4 -->
<g id="node4" class="node">
<title>Node4</title>
<g id="a_node4"><a xlink:title=" ">
<polygon fill="#ffffff" stroke="#bfbfbf" points="423.5,-.5 423.5,-19.5 479.5,-19.5 479.5,-.5 423.5,-.5"/>
<text text-anchor="middle" x="451.5" y="-7.5" font-family="Helvetica,sans-Serif" font-size="10.00" fill="#000000">stddef.h</text>
</a>
</g>
</g>
<!-- Node3&#45;&gt;Node4 -->
<g id="edge3" class="edge">
<title>Node3&#45;&gt;Node4</title>
<path fill="none" stroke="#191970" d="M451.5,-56.2455C451.5,-48.9382 451.5,-38.6944 451.5,-29.7046"/>
<polygon fill="#191970" stroke="#191970" points="455.0001,-29.6426 451.5,-19.6427 448.0001,-29.6427 455.0001,-29.6426"/>
</g>
<!-- Node5 -->
<g id="node5" class="node">
<title>Node5</title>
<g id="a_node5"><a xlink:href="tamtypes_8h.html" target="_top" xlink:title=" ">
<polygon fill="#ffffff" stroke="#000000" points="631.5,-.5 631.5,-19.5 703.5,-19.5 703.5,-.5 631.5,-.5"/>
<text text-anchor="middle" x="667.5" y="-7.5" font-family="Helvetica,sans-Serif" font-size="10.00" fill="#000000">tamtypes.h</text>
</a>
</g>
</g>
<!-- Node3&#45;&gt;Node5 -->
<g id="edge4" class="edge">
<title>Node3&#45;&gt;Node5</title>
<path fill="none" stroke="#191970" d="M478.4198,-59.0208C514.197,-49.7452 577.9493,-33.2168 621.4468,-21.9397"/>
<polygon fill="#191970" stroke="#191970" points="622.4184,-25.3036 631.2199,-19.4059 620.6616,-18.5276 622.4184,-25.3036"/>
</g>
<!-- Node6&#45;&gt;Node2 -->
<g id="edge7" class="edge">
<title>Node6&#45;&gt;Node2</title>
<path fill="none" stroke="#191970" d="M468.5714,-168.2455C460.3162,-160.1352 448.3791,-148.4075 438.5918,-138.7919"/>
<polygon fill="#191970" stroke="#191970" points="440.9011,-136.1542 431.3149,-131.6427 435.9954,-141.1476 440.9011,-136.1542"/>
</g>
<!-- Node6&#45;&gt;Node3 -->
<g id="edge6" class="edge">
<title>Node6&#45;&gt;Node3</title>
<path fill="none" stroke="#191970" d="M476.198,-168.4509C471.7744,-150.1013 462.0085,-109.5908 456.1694,-85.3693"/>
<polygon fill="#191970" stroke="#191970" points="459.5424,-84.4261 453.7962,-75.5249 452.7373,-86.0667 459.5424,-84.4261"/>
</g>
<!-- Node7&#45;&gt;Node2 -->
<g id="edge10" class="edge">
<title>Node7&#45;&gt;Node2</title>
<path fill="none" stroke="#191970" d="M538.2612,-168.3733C513.8247,-158.668 476.1119,-143.6898 450.1964,-133.3972"/>
<polygon fill="#191970" stroke="#191970" points="451.4797,-130.1409 440.8939,-129.7026 448.8958,-136.6466 451.4797,-130.1409"/>
</g>
<!-- Node7&#45;&gt;Node3 -->
<g id="edge9" class="edge">
<title>Node7&#45;&gt;Node3</title>
<path fill="none" stroke="#191970" d="M553.0362,-168.4509C534.1951,-149.4401 491.7795,-106.6423 468.1659,-82.816"/>
<polygon fill="#191970" stroke="#191970" points="470.4651,-80.1639 460.9398,-75.5249 465.4932,-85.0914 470.4651,-80.1639"/>
</g>
<!-- Node8&#45;&gt;Node2 -->
<g id="edge13" class="edge">
<title>Node8&#45;&gt;Node2</title>
<path fill="none" stroke="#191970" d="M700.3361,-170.2415C697.3709,-169.4335 694.3773,-168.6658 691.5,-168 604.7495,-147.9257 500.4437,-132.6063 450.6829,-125.8267"/>
<polygon fill="#191970" stroke="#191970" points="451.0165,-122.3401 440.6387,-124.4737 450.082,-129.2774 451.0165,-122.3401"/>
</g>
<!-- Node9 -->
<g id="node9" class="node">
<title>Node9</title>
<g id="a_node9"><a xlink:title=" ">
<polygon fill="#ffffff" stroke="#bfbfbf" points="676.5,-112.5 676.5,-131.5 732.5,-131.5 732.5,-112.5 676.5,-112.5"/>
<text text-anchor="middle" x="704.5" y="-119.5" font-family="Helvetica,sans-Serif" font-size="10.00" fill="#000000">stdarg.h</text>
</a>
</g>
</g>
<!-- Node8&#45;&gt;Node9 -->
<g id="edge12" class="edge">
<title>Node8&#45;&gt;Node9</title>
<path fill="none" stroke="#191970" d="M721.8421,-168.2455C719.0416,-160.7776 715.091,-150.2427 711.6676,-141.1137"/>
<polygon fill="#191970" stroke="#191970" points="714.9045,-139.777 708.116,-131.6427 708.3501,-142.2349 714.9045,-139.777"/>
</g>
<!-- Node10&#45;&gt;Node2 -->
<g id="edge16" class="edge">
<title>Node10&#45;&gt;Node2</title>
<path fill="none" stroke="#191970" d="M768.7702,-169.9992C765.6513,-169.2731 762.5184,-168.5903 759.5,-168 646.2401,-145.8497 509.5569,-130.767 450.739,-124.827"/>
<polygon fill="#191970" stroke="#191970" points="450.9837,-121.3341 440.6858,-123.8246 450.2892,-128.2996 450.9837,-121.3341"/>
</g>
<!-- Node10&#45;&gt;Node3 -->
<g id="edge15" class="edge">
<title>Node10&#45;&gt;Node3</title>
<path fill="none" stroke="#191970" d="M793.2862,-168.4895C784.6384,-153.7163 765.8415,-125.5478 741.5,-112 698.691,-88.1737 556.6744,-74.1938 488.5641,-68.7065"/>
<polygon fill="#191970" stroke="#191970" points="488.5376,-65.1937 478.2939,-67.8986 487.9886,-72.1721 488.5376,-65.1937"/>
</g>
<!-- Node10&#45;&gt;Node9 -->
<g id="edge17" class="edge">
<title>Node10&#45;&gt;Node9</title>
<path fill="none" stroke="#191970" d="M782.1264,-168.2455C767.5692,-159.5731 746.069,-146.7645 729.3848,-136.825"/>
<polygon fill="#191970" stroke="#191970" points="731.0683,-133.7539 720.6859,-131.6427 727.4856,-139.7676 731.0683,-133.7539"/>
</g>
<!-- Node11 -->
<g id="node11" class="node">
<title>Node11</title>
<g id="a_node11"><a xlink:href="setjmp_8h.html" target="_top" xlink:title=" ">
<polygon fill="#ffffff" stroke="#000000" points="703,-56.5 703,-75.5 762,-75.5 762,-56.5 703,-56.5"/>
<text text-anchor="middle" x="732.5" y="-63.5" font-family="Helvetica,sans-Serif" font-size="10.00" fill="#000000">setjmp.h</text>
</a>
</g>
</g>
<!-- Node10&#45;&gt;Node11 -->
<g id="edge18" class="edge">
<title>Node10&#45;&gt;Node11</title>
<path fill="none" stroke="#191970" d="M796.1894,-168.0704C792.7894,-154.6683 785.613,-130.3568 774.5,-112 768.049,-101.344 758.9001,-90.9644 750.7872,-82.7698"/>
<polygon fill="#191970" stroke="#191970" points="753.0612,-80.0993 743.4482,-75.6449 748.1852,-85.1218 753.0612,-80.0993"/>
</g>
<!-- Node11&#45;&gt;Node5 -->
<g id="edge19" class="edge">
<title>Node11&#45;&gt;Node5</title>
<path fill="none" stroke="#191970" d="M721.1779,-56.2455C711.5777,-47.9746 697.6108,-35.9416 686.3305,-26.2232"/>
<polygon fill="#191970" stroke="#191970" points="688.553,-23.5182 678.6924,-19.6427 683.984,-28.8214 688.553,-23.5182"/>
</g>
<!-- Node12&#45;&gt;Node2 -->
<g id="edge22" class="edge">
<title>Node12&#45;&gt;Node2</title>
<path fill="none" stroke="#191970" d="M614.0236,-169.4948C569.3172,-158.4659 492.1378,-139.4261 450.3659,-129.1211"/>
<polygon fill="#191970" stroke="#191970" points="451.0974,-125.6967 440.5501,-126.6996 449.4207,-132.4929 451.0974,-125.6967"/>
</g>
<!-- Node12&#45;&gt;Node3 -->
<g id="edge21" class="edge">
<title>Node12&#45;&gt;Node3</title>
<path fill="none" stroke="#191970" d="M631.7039,-168.4509C597.1747,-148.8201 518.033,-103.8259 477.0875,-80.5472"/>
<polygon fill="#191970" stroke="#191970" points="478.6767,-77.4247 468.2536,-75.5249 475.217,-83.51 478.6767,-77.4247"/>
</g>
<!-- Node12&#45;&gt;Node9 -->
<g id="edge23" class="edge">
<title>Node12&#45;&gt;Node9</title>
<path fill="none" stroke="#191970" d="M658.2545,-168.2455C666.3648,-160.1352 678.0925,-148.4075 687.7081,-138.7919"/>
<polygon fill="#191970" stroke="#191970" points="690.2611,-141.1887 694.8573,-131.6427 685.3113,-136.2389 690.2611,-141.1887"/>
</g>
<!-- Node13&#45;&gt;Node2 -->
<g id="edge26" class="edge">
<title>Node13&#45;&gt;Node2</title>
<path fill="none" stroke="#191970" d="M59.2874,-169.7755C62.0533,-169.1286 64.8221,-168.5241 67.5,-168 186.8425,-144.6429 331.2096,-130.0667 392.127,-124.5327"/>
<polygon fill="#191970" stroke="#191970" points="392.5254,-128.0111 402.1737,-123.6338 391.9015,-121.039 392.5254,-128.0111"/>
</g>
<!-- Node13&#45;&gt;Node3 -->
<g id="edge25" class="edge">
<title>Node13&#45;&gt;Node3</title>
<path fill="none" stroke="#191970" d="M57.2585,-168.453C97.3883,-154.8491 174.0857,-129.5896 240.5,-112 301.1026,-95.9496 372.5576,-81.2413 414.8326,-72.9696"/>
<polygon fill="#191970" stroke="#191970" points="415.5233,-76.4009 424.672,-71.0576 414.188,-69.5294 415.5233,-76.4009"/>
</g>
<!-- Node14&#45;&gt;Node2 -->
<g id="edge29" class="edge">
<title>Node14&#45;&gt;Node2</title>
<path fill="none" stroke="#191970" d="M140.2333,-170.0222C143.3577,-169.3083 146.4862,-168.6215 149.5,-168 237.3354,-149.8854 342.209,-133.6587 392.1966,-126.2506"/>
<polygon fill="#191970" stroke="#191970" points="392.9018,-129.6845 402.2852,-124.765 391.882,-122.7592 392.9018,-129.6845"/>
</g>
<!-- Node14&#45;&gt;Node3 -->
<g id="edge28" class="edge">
<title>Node14&#45;&gt;Node3</title>
<path fill="none" stroke="#191970" d="M135.7271,-168.4639C173.1862,-155.4067 242.7719,-131.3754 302.5,-112 340.7906,-99.5788 384.8673,-86.0682 415.091,-76.9241"/>
<polygon fill="#191970" stroke="#191970" points="416.2198,-80.2394 424.7813,-73.9984 414.1965,-73.5382 416.2198,-80.2394"/>
</g>
<!-- Node15&#45;&gt;Node2 -->
<g id="edge32" class="edge">
<title>Node15&#45;&gt;Node2</title>
<path fill="none" stroke="#191970" d="M226.7836,-169.6162C271.8731,-158.59 350.3149,-139.4077 392.566,-129.0756"/>
<polygon fill="#191970" stroke="#191970" points="393.6034,-132.4251 402.4858,-126.6498 391.9406,-125.6254 393.6034,-132.4251"/>
</g>
<!-- Node15&#45;&gt;Node3 -->
<g id="edge31" class="edge">
<title>Node15&#45;&gt;Node3</title>
<path fill="none" stroke="#191970" d="M214.5822,-168.4509C260.6474,-148.5308 367.1071,-102.4942 420.2064,-79.5323"/>
<polygon fill="#191970" stroke="#191970" points="421.6843,-82.7066 429.4737,-75.5249 418.9059,-76.2816 421.6843,-82.7066"/>
</g>
<!-- Node16&#45;&gt;Node2 -->
<g id="edge35" class="edge">
<title>Node16&#45;&gt;Node2</title>
<path fill="none" stroke="#191970" d="M303.0826,-168.3733C328.0073,-158.6125 366.551,-143.5185 392.8459,-133.2212"/>
<polygon fill="#191970" stroke="#191970" points="394.2349,-136.4361 402.2701,-129.5306 391.6823,-129.9181 394.2349,-136.4361"/>
</g>
<!-- Node16&#45;&gt;Node3 -->
<g id="edge34" class="edge">
<title>Node16&#45;&gt;Node3</title>
<path fill="none" stroke="#191970" d="M293.2499,-168.4509C323.381,-148.9441 392.1962,-104.3932 428.3445,-80.9909"/>
<polygon fill="#191970" stroke="#191970" points="430.2951,-83.8975 436.7875,-75.5249 426.4909,-78.0214 430.2951,-83.8975"/>
</g>
<!-- Node17&#45;&gt;Node2 -->
<g id="edge37" class="edge">
<title>Node17&#45;&gt;Node2</title>
<path fill="none" stroke="#191970" d="M371.1254,-168.2455C380.0473,-160.0549 392.988,-148.1749 403.5192,-138.5069"/>
<polygon fill="#191970" stroke="#191970" points="405.9968,-140.9837 410.9964,-131.6427 401.2629,-135.8271 405.9968,-140.9837"/>
</g>
</g>
</svg>
        <g id="navigator" transform="translate(0 0)" fill="#404254">
                <rect fill="#f2f5e9" fill-opacity="0.5" stroke="#606060" stroke-width=".5" x="0" y="0" width="60" height="60"/>
                <use id="zoomplus" xlink:href="#zoomPlus" x="17" y="9" onmousedown="handleZoom(evt,'in')"/>
                <use id="zoomminus" xlink:href="#zoomMin" x="42" y="9" onmousedown="handleZoom(evt,'out')"/>
                <use id="reset" xlink:href="#resetDef" x="30" y="36" onmousedown="handleReset()"/>
                <g id="arrowUp" xlink:href="#dirArrow" transform="translate(30 24)" onmousedown="handlePan(0,-1)">
                  <use xlink:href="#rim" fill="#404040">
                        <set attributeName="fill" to="#808080" begin="arrowUp.mouseover" end="arrowUp.mouseout"/>
                  </use>
                  <path fill="none" stroke="white" stroke-width="1.5" d="M0,-3.0v7 M-2.5,-0.5L0,-3.0L2.5,-0.5"/>
                </g>
                <g id="arrowRight" xlink:href="#dirArrow" transform="rotate(90) translate(36 -43)" onmousedown="handlePan(1,0)">
                  <use xlink:href="#rim" fill="#404040">
                        <set attributeName="fill" to="#808080" begin="arrowRight.mouseover" end="arrowRight.mouseout"/>
                  </use>
                  <path fill="none" stroke="white" stroke-width="1.5" d="M0,-3.0v7 M-2.5,-0.5L0,-3.0L2.5,-0.5"/>
                </g>
                <g id="arrowDown" xlink:href="#dirArrow" transform="rotate(180) translate(-30 -48)" onmousedown="handlePan(0,1)">
                  <use xlink:href="#rim" fill="#404040">
                        <set attributeName="fill" to="#808080" begin="arrowDown.mouseover" end="arrowDown.mouseout"/>
                  </use>
                  <path fill="none" stroke="white" stroke-width="1.5" d="M0,-3.0v7 M-2.5,-0.5L0,-3.0L2.5,-0.5"/>
                </g>
                <g id="arrowLeft" xlink:href="#dirArrow" transform="rotate(270) translate(-36 17)" onmousedown="handlePan(-1,0)">
                  <use xlink:href="#rim" fill="#404040">
                        <set attributeName="fill" to="#808080" begin="arrowLeft.mouseover" end="arrowLeft.mouseout"/>
                  </use>
                  <path fill="none" stroke="white" stroke-width="1.5" d="M0,-3.0v7 M-2.5,-0.5L0,-3.0L2.5,-0.5"/>
                </g>
        </g>
        <svg viewBox="0 0 15 15" width="100%" height="30px" preserveAspectRatio="xMaxYMin meet">
         <g id="arrow_out" transform="scale(0.3 0.3)">
          <a xlink:href="usb_2usbd_2src_2irx__imports_8h__incl_org.svg" target="_base">
           <rect id="button" ry="5" rx="5" y="6" x="6" height="38" width="38"
                fill="#f2f5e9" fill-opacity="0.5" stroke="#606060" stroke-width="1.0"/>
           <path id="arrow"
             d="M 11.500037,31.436501 C 11.940474,20.09759 22.043105,11.32322 32.158766,21.979434 L 37.068811,17.246167 C 37.068811,17.246167 37.088388,32 37.088388,32 L 22.160133,31.978069 C 22.160133,31.978069 26.997745,27.140456 26.997745,27.140456 C 18.528582,18.264221 13.291696,25.230495 11.500037,31.436501 z"
             style="fill:#404040;"/>
          </a>
         </g>
        </svg>
</svg>
