<?xml version="1.0" encoding="UTF-8" standalone="no"?>
<!DOCTYPE svg PUBLIC "-//W3C//DTD SVG 1.1//EN"
 "http://www.w3.org/Graphics/SVG/1.1/DTD/svg11.dtd">
<!-- Generated by graphviz version 2.40.1 (20161225.0304)
 -->
<!-- Title: iop/usb/mouse/src/irx_imports.h Pages: 1 -->
<!--zoomable 263 -->
<svg id="main" version="1.1" xmlns="http://www.w3.org/2000/svg" xmlns:xlink="http://www.w3.org/1999/xlink" xml:space="preserve" onload="init(evt)">
<style type="text/css"><![CDATA[
.edge:hover path { stroke: red; }
.edge:hover polygon { stroke: red; fill: red; }
]]></style>
<script type="text/javascript"><![CDATA[
var edges = document.getElementsByTagName('g');
if (edges && edges.length) {
  for (var i=0;i<edges.length;i++) {
    if (edges[i].id.substr(0,4)=='edge') {
      edges[i].setAttribute('class','edge');
    }
  }
}
]]></script>
        <defs>
                <circle id="rim" cx="0" cy="0" r="7"/>
                <circle id="rim2" cx="0" cy="0" r="3.5"/>
                <g id="zoomPlus">
                        <use xlink:href="#rim" fill="#404040">
                                <set attributeName="fill" to="#808080" begin="zoomplus.mouseover" end="zoomplus.mouseout"/>
                        </use>
                        <path d="M-4,0h8M0,-4v8" fill="none" stroke="white" stroke-width="1.5" pointer-events="none"/>
                </g>
                <g id="zoomMin">
                        <use xlink:href="#rim" fill="#404040">
                                <set attributeName="fill" to="#808080" begin="zoomminus.mouseover" end="zoomminus.mouseout"/>
                        </use>
                        <path d="M-4,0h8" fill="none" stroke="white" stroke-width="1.5" pointer-events="none"/>
                </g>
                <g id="dirArrow">
                        <path fill="none" stroke="white" stroke-width="1.5" d="M0,-3.0v7 M-2.5,-0.5L0,-3.0L2.5,-0.5"/>
                </g>
               <g id="resetDef">
                       <use xlink:href="#rim2" fill="#404040">
                               <set attributeName="fill" to="#808080" begin="reset.mouseover" end="reset.mouseout"/>
                       </use>
               </g>
        </defs>

<script type="text/javascript">
var viewWidth = 1051;
var viewHeight = 263;
var sectionId = 'dynsection-0';
</script>
<script xlink:href="svgpan.js"/>
<svg id="graph" class="graph">
<g id="viewport">
<title>iop/usb/mouse/src/irx_imports.h</title>
<polygon fill="#ffffff" stroke="transparent" points="-4,4 -4,-259 1046.5,-259 1046.5,4 -4,4"/>
<!-- Node1 -->
<g id="node1" class="node">
<title>Node1</title>
<g id="a_node1"><a xlink:title=" ">
<polygon fill="#bfbfbf" stroke="#000000" points="439.5,-224.5 439.5,-254.5 560.5,-254.5 560.5,-224.5 439.5,-224.5"/>
<text text-anchor="start" x="447.5" y="-242.5" font-family="Helvetica,sans-Serif" font-size="10.00" fill="#000000">iop/usb/mouse/src/irx</text>
<text text-anchor="middle" x="500" y="-231.5" font-family="Helvetica,sans-Serif" font-size="10.00" fill="#000000">_imports.h</text>
</a>
</g>
</g>
<!-- Node2 -->
<g id="node2" class="node">
<title>Node2</title>
<g id="a_node2"><a xlink:href="irx_8h.html" target="_top" xlink:title=" ">
<polygon fill="#ffffff" stroke="#000000" points="474,-112.5 474,-131.5 512,-131.5 512,-112.5 474,-112.5"/>
<text text-anchor="middle" x="493" y="-119.5" font-family="Helvetica,sans-Serif" font-size="10.00" fill="#000000">irx.h</text>
</a>
</g>
</g>
<!-- Node1&#45;&gt;Node2 -->
<g id="edge1" class="edge">
<title>Node1&#45;&gt;Node2</title>
<path fill="none" stroke="#191970" d="M499.0849,-224.1389C497.8237,-202.9692 495.5508,-164.8174 494.1683,-141.6112"/>
<polygon fill="#191970" stroke="#191970" points="497.6581,-141.3336 493.5695,-131.5595 490.6705,-141.75 497.6581,-141.3336"/>
</g>
<!-- Node6 -->
<g id="node6" class="node">
<title>Node6</title>
<g id="a_node6"><a xlink:href="intrman_8h.html" target="_top" xlink:title=" ">
<polygon fill="#ffffff" stroke="#000000" points="0,-168.5 0,-187.5 64,-187.5 64,-168.5 0,-168.5"/>
<text text-anchor="middle" x="32" y="-175.5" font-family="Helvetica,sans-Serif" font-size="10.00" fill="#000000">intrman.h</text>
</a>
</g>
</g>
<!-- Node1&#45;&gt;Node6 -->
<g id="edge5" class="edge">
<title>Node1&#45;&gt;Node6</title>
<path fill="none" stroke="#191970" d="M439.2003,-234.4658C358.1038,-227.2416 209.9443,-212.2675 74.3094,-188.0603"/>
<polygon fill="#191970" stroke="#191970" points="74.6143,-184.5588 64.1514,-186.2256 73.37,-191.4473 74.6143,-184.5588"/>
</g>
<!-- Node7 -->
<g id="node7" class="node">
<title>Node7</title>
<g id="a_node7"><a xlink:href="iomanX_8h.html" target="_top" xlink:title=" ">
<polygon fill="#ffffff" stroke="#000000" points="845.5,-168.5 845.5,-187.5 908.5,-187.5 908.5,-168.5 845.5,-168.5"/>
<text text-anchor="middle" x="877" y="-175.5" font-family="Helvetica,sans-Serif" font-size="10.00" fill="#000000">iomanX.h</text>
</a>
</g>
</g>
<!-- Node1&#45;&gt;Node7 -->
<g id="edge8" class="edge">
<title>Node1&#45;&gt;Node7</title>
<path fill="none" stroke="#191970" d="M560.5659,-231.9775C626.0736,-223.4523 733.7488,-208.3138 835.0836,-188.2584"/>
<polygon fill="#191970" stroke="#191970" points="836.0644,-191.6316 845.1839,-186.2386 834.6917,-184.7675 836.0644,-191.6316"/>
</g>
<!-- Node13 -->
<g id="node13" class="node">
<title>Node13</title>
<g id="a_node13"><a xlink:href="loadcore_8h.html" target="_top" xlink:title=" ">
<polygon fill="#ffffff" stroke="#000000" points="82,-168.5 82,-187.5 150,-187.5 150,-168.5 82,-168.5"/>
<text text-anchor="middle" x="116" y="-175.5" font-family="Helvetica,sans-Serif" font-size="10.00" fill="#000000">loadcore.h</text>
</a>
</g>
</g>
<!-- Node1&#45;&gt;Node13 -->
<g id="edge16" class="edge">
<title>Node1&#45;&gt;Node13</title>
<path fill="none" stroke="#191970" d="M439.3898,-231.8107C373.1531,-223.0787 263.7204,-207.6915 160.2126,-188.1198"/>
<polygon fill="#191970" stroke="#191970" points="160.6946,-184.6487 150.2159,-186.2128 159.3829,-191.5247 160.6946,-184.6487"/>
</g>
<!-- Node14 -->
<g id="node14" class="node">
<title>Node14</title>
<g id="a_node14"><a xlink:href="sifcmd_8h.html" target="_top" xlink:title=" ">
<polygon fill="#ffffff" stroke="#000000" points="168.5,-168.5 168.5,-187.5 227.5,-187.5 227.5,-168.5 168.5,-168.5"/>
<text text-anchor="middle" x="198" y="-175.5" font-family="Helvetica,sans-Serif" font-size="10.00" fill="#000000">sifcmd.h</text>
</a>
</g>
</g>
<!-- Node1&#45;&gt;Node14 -->
<g id="edge19" class="edge">
<title>Node1&#45;&gt;Node14</title>
<path fill="none" stroke="#191970" d="M439.4762,-228.8435C388.1208,-219.5396 312.2782,-205.1865 237.8411,-188.3292"/>
<polygon fill="#191970" stroke="#191970" points="238.3538,-184.8563 227.8257,-186.0437 236.7964,-191.6808 238.3538,-184.8563"/>
</g>
<!-- Node15 -->
<g id="node15" class="node">
<title>Node15</title>
<g id="a_node15"><a xlink:href="stdio_8h.html" target="_top" xlink:title=" ">
<polygon fill="#ffffff" stroke="#000000" points="614,-168.5 614,-187.5 664,-187.5 664,-168.5 614,-168.5"/>
<text text-anchor="middle" x="639" y="-175.5" font-family="Helvetica,sans-Serif" font-size="10.00" fill="#000000">stdio.h</text>
</a>
</g>
</g>
<!-- Node1&#45;&gt;Node15 -->
<g id="edge22" class="edge">
<title>Node1&#45;&gt;Node15</title>
<path fill="none" stroke="#191970" d="M534.0032,-224.4554C556.6871,-214.419 586.2673,-201.3314 608.2479,-191.6061"/>
<polygon fill="#191970" stroke="#191970" points="609.7312,-194.7772 617.4599,-187.5303 606.8989,-188.3758 609.7312,-194.7772"/>
</g>
<!-- Node17 -->
<g id="node17" class="node">
<title>Node17</title>
<g id="a_node17"><a xlink:href="sysclib_8h.html" target="_top" xlink:title=" ">
<polygon fill="#ffffff" stroke="#000000" points="768.5,-168.5 768.5,-187.5 827.5,-187.5 827.5,-168.5 768.5,-168.5"/>
<text text-anchor="middle" x="798" y="-175.5" font-family="Helvetica,sans-Serif" font-size="10.00" fill="#000000">sysclib.h</text>
</a>
</g>
</g>
<!-- Node1&#45;&gt;Node17 -->
<g id="edge25" class="edge">
<title>Node1&#45;&gt;Node17</title>
<path fill="none" stroke="#191970" d="M560.6426,-228.4132C610.9974,-218.9856 684.7185,-204.6737 758.3195,-188.063"/>
<polygon fill="#191970" stroke="#191970" points="759.2538,-191.44 768.2302,-185.812 757.7034,-184.6139 759.2538,-191.44"/>
</g>
<!-- Node19 -->
<g id="node19" class="node">
<title>Node19</title>
<g id="a_node19"><a xlink:href="sysmem_8h.html" target="_top" xlink:title=" ">
<polygon fill="#ffffff" stroke="#000000" points="682,-168.5 682,-187.5 750,-187.5 750,-168.5 682,-168.5"/>
<text text-anchor="middle" x="716" y="-175.5" font-family="Helvetica,sans-Serif" font-size="10.00" fill="#000000">sysmem.h</text>
</a>
</g>
</g>
<!-- Node1&#45;&gt;Node19 -->
<g id="edge31" class="edge">
<title>Node1&#45;&gt;Node19</title>
<path fill="none" stroke="#191970" d="M552.8395,-224.4554C589.6701,-213.9689 638.1998,-200.1515 672.7345,-190.3187"/>
<polygon fill="#191970" stroke="#191970" points="673.8684,-193.635 682.5277,-187.5303 671.9514,-186.9026 673.8684,-193.635"/>
</g>
<!-- Node20 -->
<g id="node20" class="node">
<title>Node20</title>
<g id="a_node20"><a xlink:href="thbase_8h.html" target="_top" xlink:title=" ">
<polygon fill="#ffffff" stroke="#000000" points="245.5,-168.5 245.5,-187.5 304.5,-187.5 304.5,-168.5 245.5,-168.5"/>
<text text-anchor="middle" x="275" y="-175.5" font-family="Helvetica,sans-Serif" font-size="10.00" fill="#000000">thbase.h</text>
</a>
</g>
</g>
<!-- Node1&#45;&gt;Node20 -->
<g id="edge35" class="edge">
<title>Node1&#45;&gt;Node20</title>
<path fill="none" stroke="#191970" d="M444.9588,-224.4554C404.5263,-213.4039 350.5584,-198.6526 314.384,-188.7649"/>
<polygon fill="#191970" stroke="#191970" points="315.2478,-185.3727 304.6788,-186.1122 313.4021,-192.125 315.2478,-185.3727"/>
</g>
<!-- Node21 -->
<g id="node21" class="node">
<title>Node21</title>
<g id="a_node21"><a xlink:href="thevent_8h.html" target="_top" xlink:title=" ">
<polygon fill="#ffffff" stroke="#000000" points="322.5,-168.5 322.5,-187.5 385.5,-187.5 385.5,-168.5 322.5,-168.5"/>
<text text-anchor="middle" x="354" y="-175.5" font-family="Helvetica,sans-Serif" font-size="10.00" fill="#000000">thevent.h</text>
</a>
</g>
</g>
<!-- Node1&#45;&gt;Node21 -->
<g id="edge38" class="edge">
<title>Node1&#45;&gt;Node21</title>
<path fill="none" stroke="#191970" d="M464.2844,-224.4554C440.3513,-214.374 409.1095,-201.2139 385.9906,-191.4755"/>
<polygon fill="#191970" stroke="#191970" points="387.1993,-188.1868 376.6248,-187.5303 384.4819,-194.6379 387.1993,-188.1868"/>
</g>
<!-- Node22 -->
<g id="node22" class="node">
<title>Node22</title>
<g id="a_node22"><a xlink:href="thmsgbx_8h.html" target="_top" xlink:title=" ">
<polygon fill="#ffffff" stroke="#000000" points="404,-168.5 404,-187.5 472,-187.5 472,-168.5 404,-168.5"/>
<text text-anchor="middle" x="438" y="-175.5" font-family="Helvetica,sans-Serif" font-size="10.00" fill="#000000">thmsgbx.h</text>
</a>
</g>
</g>
<!-- Node1&#45;&gt;Node22 -->
<g id="edge41" class="edge">
<title>Node1&#45;&gt;Node22</title>
<path fill="none" stroke="#191970" d="M484.6742,-224.2977C475.7093,-215.4052 464.3712,-204.1586 455.1149,-194.9769"/>
<polygon fill="#191970" stroke="#191970" points="457.4915,-192.4045 447.927,-187.8469 452.5618,-197.3742 457.4915,-192.4045"/>
</g>
<!-- Node23 -->
<g id="node23" class="node">
<title>Node23</title>
<g id="a_node23"><a xlink:href="thsemap_8h.html" target="_top" xlink:title=" ">
<polygon fill="#ffffff" stroke="#000000" points="528,-168.5 528,-187.5 596,-187.5 596,-168.5 528,-168.5"/>
<text text-anchor="middle" x="562" y="-175.5" font-family="Helvetica,sans-Serif" font-size="10.00" fill="#000000">thsemap.h</text>
</a>
</g>
</g>
<!-- Node1&#45;&gt;Node23 -->
<g id="edge44" class="edge">
<title>Node1&#45;&gt;Node23</title>
<path fill="none" stroke="#191970" d="M515.3258,-224.2977C524.2907,-215.4052 535.6288,-204.1586 544.8851,-194.9769"/>
<polygon fill="#191970" stroke="#191970" points="547.4382,-197.3742 552.073,-187.8469 542.5085,-192.4045 547.4382,-197.3742"/>
</g>
<!-- Node24 -->
<g id="node24" class="node">
<title>Node24</title>
<g id="a_node24"><a xlink:href="usbd_8h.html" target="_top" xlink:title=" ">
<polygon fill="#ffffff" stroke="#000000" points="926.5,-168.5 926.5,-187.5 975.5,-187.5 975.5,-168.5 926.5,-168.5"/>
<text text-anchor="middle" x="951" y="-175.5" font-family="Helvetica,sans-Serif" font-size="10.00" fill="#000000">usbd.h</text>
</a>
</g>
</g>
<!-- Node1&#45;&gt;Node24 -->
<g id="edge47" class="edge">
<title>Node1&#45;&gt;Node24</title>
<path fill="none" stroke="#191970" d="M560.7603,-235.3016C640.5963,-229.0578 785.1776,-215.2466 916.4252,-188.0632"/>
<polygon fill="#191970" stroke="#191970" points="917.1864,-191.4798 926.2524,-185.9972 915.7462,-184.6295 917.1864,-191.4798"/>
</g>
<!-- Node3 -->
<g id="node3" class="node">
<title>Node3</title>
<g id="a_node3"><a xlink:href="types_8h.html" target="_top" xlink:title=" ">
<polygon fill="#ffffff" stroke="#000000" points="439.5,-56.5 439.5,-75.5 492.5,-75.5 492.5,-56.5 439.5,-56.5"/>
<text text-anchor="middle" x="466" y="-63.5" font-family="Helvetica,sans-Serif" font-size="10.00" fill="#000000">types.h</text>
</a>
</g>
</g>
<!-- Node2&#45;&gt;Node3 -->
<g id="edge2" class="edge">
<title>Node2&#45;&gt;Node3</title>
<path fill="none" stroke="#191970" d="M488.297,-112.2455C484.6576,-104.6973 479.5076,-94.0158 475.0738,-84.8197"/>
<polygon fill="#191970" stroke="#191970" points="478.1449,-83.1303 470.6491,-75.6427 471.8395,-86.1704 478.1449,-83.1303"/>
</g>
<!-- Node4 -->
<g id="node4" class="node">
<title>Node4</title>
<g id="a_node4"><a xlink:title=" ">
<polygon fill="#ffffff" stroke="#bfbfbf" points="438,-.5 438,-19.5 494,-19.5 494,-.5 438,-.5"/>
<text text-anchor="middle" x="466" y="-7.5" font-family="Helvetica,sans-Serif" font-size="10.00" fill="#000000">stddef.h</text>
</a>
</g>
</g>
<!-- Node3&#45;&gt;Node4 -->
<g id="edge3" class="edge">
<title>Node3&#45;&gt;Node4</title>
<path fill="none" stroke="#191970" d="M466,-56.2455C466,-48.9382 466,-38.6944 466,-29.7046"/>
<polygon fill="#191970" stroke="#191970" points="469.5001,-29.6426 466,-19.6427 462.5001,-29.6427 469.5001,-29.6426"/>
</g>
<!-- Node5 -->
<g id="node5" class="node">
<title>Node5</title>
<g id="a_node5"><a xlink:href="tamtypes_8h.html" target="_top" xlink:title=" ">
<polygon fill="#ffffff" stroke="#000000" points="547,-.5 547,-19.5 619,-19.5 619,-.5 547,-.5"/>
<text text-anchor="middle" x="583" y="-7.5" font-family="Helvetica,sans-Serif" font-size="10.00" fill="#000000">tamtypes.h</text>
</a>
</g>
</g>
<!-- Node3&#45;&gt;Node5 -->
<g id="edge4" class="edge">
<title>Node3&#45;&gt;Node5</title>
<path fill="none" stroke="#191970" d="M486.113,-56.3733C504.8103,-47.4241 532.8744,-33.9917 553.9934,-23.8835"/>
<polygon fill="#191970" stroke="#191970" points="555.6405,-26.9755 563.1494,-19.5011 552.6183,-20.6614 555.6405,-26.9755"/>
</g>
<!-- Node6&#45;&gt;Node2 -->
<g id="edge7" class="edge">
<title>Node6&#45;&gt;Node2</title>
<path fill="none" stroke="#191970" d="M64.1454,-169.7407C67.1283,-169.1011 70.1136,-168.5078 73,-168 218.3778,-142.4218 394.7226,-128.6324 463.5195,-123.9031"/>
<polygon fill="#191970" stroke="#191970" points="463.8749,-127.3872 473.6164,-123.2215 463.4033,-120.4031 463.8749,-127.3872"/>
</g>
<!-- Node6&#45;&gt;Node3 -->
<g id="edge6" class="edge">
<title>Node6&#45;&gt;Node3</title>
<path fill="none" stroke="#191970" d="M60.5599,-168.4504C101.8456,-154.8434 180.7417,-129.58 249,-112 311.8767,-95.806 386.055,-80.9904 429.3766,-72.7615"/>
<polygon fill="#191970" stroke="#191970" points="430.2616,-76.1564 439.4395,-70.8633 428.964,-69.2777 430.2616,-76.1564"/>
</g>
<!-- Node7&#45;&gt;Node2 -->
<g id="edge10" class="edge">
<title>Node7&#45;&gt;Node2</title>
<path fill="none" stroke="#191970" d="M845.1946,-169.7071C842.4316,-169.0905 839.6717,-168.5109 837,-168 721.3941,-145.8919 581.9208,-130.7396 522.3161,-124.8002"/>
<polygon fill="#191970" stroke="#191970" points="522.4345,-121.2951 512.1398,-123.7989 521.7489,-128.2614 522.4345,-121.2951"/>
</g>
<!-- Node7&#45;&gt;Node3 -->
<g id="edge9" class="edge">
<title>Node7&#45;&gt;Node3</title>
<path fill="none" stroke="#191970" d="M856.8742,-168.4531C826.2373,-154.2665 765.7748,-127.6194 712,-112 639.1152,-90.8299 551.1575,-77.1329 502.6328,-70.5673"/>
<polygon fill="#191970" stroke="#191970" points="502.9832,-67.0832 492.6096,-69.2371 502.0622,-74.0224 502.9832,-67.0832"/>
</g>
<!-- Node8 -->
<g id="node8" class="node">
<title>Node8</title>
<g id="a_node8"><a xlink:href="io__common_8h.html" target="_top" xlink:title=" ">
<polygon fill="#ffffff" stroke="#000000" points="805.5,-112.5 805.5,-131.5 888.5,-131.5 888.5,-112.5 805.5,-112.5"/>
<text text-anchor="middle" x="847" y="-119.5" font-family="Helvetica,sans-Serif" font-size="10.00" fill="#000000">io_common.h</text>
</a>
</g>
</g>
<!-- Node7&#45;&gt;Node8 -->
<g id="edge11" class="edge">
<title>Node7&#45;&gt;Node8</title>
<path fill="none" stroke="#191970" d="M871.7744,-168.2455C867.6877,-160.617 861.8865,-149.7881 856.925,-140.5267"/>
<polygon fill="#191970" stroke="#191970" points="859.9732,-138.8047 852.1657,-131.6427 853.8028,-142.1103 859.9732,-138.8047"/>
</g>
<!-- Node11 -->
<g id="node11" class="node">
<title>Node11</title>
<g id="a_node11"><a xlink:href="iox__stat_8h.html" target="_top" xlink:title=" ">
<polygon fill="#ffffff" stroke="#000000" points="906.5,-112.5 906.5,-131.5 971.5,-131.5 971.5,-112.5 906.5,-112.5"/>
<text text-anchor="middle" x="939" y="-119.5" font-family="Helvetica,sans-Serif" font-size="10.00" fill="#000000">iox_stat.h</text>
</a>
</g>
</g>
<!-- Node7&#45;&gt;Node11 -->
<g id="edge14" class="edge">
<title>Node7&#45;&gt;Node11</title>
<path fill="none" stroke="#191970" d="M887.7996,-168.2455C896.8678,-160.0549 910.0206,-148.1749 920.7245,-138.5069"/>
<polygon fill="#191970" stroke="#191970" points="923.2491,-140.9429 928.3242,-131.6427 918.5571,-135.7482 923.2491,-140.9429"/>
</g>
<!-- Node9 -->
<g id="node9" class="node">
<title>Node9</title>
<g id="a_node9"><a xlink:href="fcntl_8h.html" target="_top" xlink:title=" ">
<polygon fill="#ffffff" stroke="#000000" points="725.5,-56.5 725.5,-75.5 792.5,-75.5 792.5,-56.5 725.5,-56.5"/>
<text text-anchor="middle" x="759" y="-63.5" font-family="Helvetica,sans-Serif" font-size="10.00" fill="#000000">sys/fcntl.h</text>
</a>
</g>
</g>
<!-- Node8&#45;&gt;Node9 -->
<g id="edge12" class="edge">
<title>Node8&#45;&gt;Node9</title>
<path fill="none" stroke="#191970" d="M831.6716,-112.2455C818.1697,-103.6534 798.2878,-91.0014 782.7314,-81.1018"/>
<polygon fill="#191970" stroke="#191970" points="784.4685,-78.0587 774.1528,-75.6427 780.7103,-83.9643 784.4685,-78.0587"/>
</g>
<!-- Node10 -->
<g id="node10" class="node">
<title>Node10</title>
<g id="a_node10"><a xlink:href="unistd_8h.html" target="_top" xlink:title=" ">
<polygon fill="#ffffff" stroke="#000000" points="810.5,-56.5 810.5,-75.5 885.5,-75.5 885.5,-56.5 810.5,-56.5"/>
<text text-anchor="middle" x="848" y="-63.5" font-family="Helvetica,sans-Serif" font-size="10.00" fill="#000000">sys/unistd.h</text>
</a>
</g>
</g>
<!-- Node8&#45;&gt;Node10 -->
<g id="edge13" class="edge">
<title>Node8&#45;&gt;Node10</title>
<path fill="none" stroke="#191970" d="M847.1742,-112.2455C847.3047,-104.9382 847.4876,-94.6944 847.6481,-85.7046"/>
<polygon fill="#191970" stroke="#191970" points="851.1486,-85.7036 847.8278,-75.6427 844.1497,-85.5786 851.1486,-85.7036"/>
</g>
<!-- Node12 -->
<g id="node12" class="node">
<title>Node12</title>
<g id="a_node12"><a xlink:href="time_8h.html" target="_top" xlink:title=" ">
<polygon fill="#ffffff" stroke="#000000" points="905,-56.5 905,-75.5 973,-75.5 973,-56.5 905,-56.5"/>
<text text-anchor="middle" x="939" y="-63.5" font-family="Helvetica,sans-Serif" font-size="10.00" fill="#000000">sys/time.h</text>
</a>
</g>
</g>
<!-- Node11&#45;&gt;Node12 -->
<g id="edge15" class="edge">
<title>Node11&#45;&gt;Node12</title>
<path fill="none" stroke="#191970" d="M939,-112.2455C939,-104.9382 939,-94.6944 939,-85.7046"/>
<polygon fill="#191970" stroke="#191970" points="942.5001,-85.6426 939,-75.6427 935.5001,-85.6427 942.5001,-85.6426"/>
</g>
<!-- Node13&#45;&gt;Node2 -->
<g id="edge18" class="edge">
<title>Node13&#45;&gt;Node2</title>
<path fill="none" stroke="#191970" d="M150.2083,-169.7466C153.1747,-169.1215 156.136,-168.5291 159,-168 270.8959,-147.3284 405.4516,-131.5258 463.7273,-125.1178"/>
<polygon fill="#191970" stroke="#191970" points="464.1362,-128.594 473.6983,-124.0315 463.3781,-121.6352 464.1362,-128.594"/>
</g>
<!-- Node13&#45;&gt;Node3 -->
<g id="edge17" class="edge">
<title>Node13&#45;&gt;Node3</title>
<path fill="none" stroke="#191970" d="M143.4917,-168.4084C181.3186,-155.2877 251.6006,-131.1837 312,-112 352.0211,-99.2887 398.2063,-85.6261 429.4788,-76.5232"/>
<polygon fill="#191970" stroke="#191970" points="430.8545,-79.7684 439.4821,-73.6189 428.9027,-73.046 430.8545,-79.7684"/>
</g>
<!-- Node14&#45;&gt;Node2 -->
<g id="edge21" class="edge">
<title>Node14&#45;&gt;Node2</title>
<path fill="none" stroke="#191970" d="M227.8158,-169.9121C230.5757,-169.2365 233.3354,-168.5881 236,-168 318.0939,-149.8819 416.1336,-133.8714 463.9222,-126.4249"/>
<polygon fill="#191970" stroke="#191970" points="464.5268,-129.8731 473.874,-124.8851 463.4564,-122.9554 464.5268,-129.8731"/>
</g>
<!-- Node14&#45;&gt;Node3 -->
<g id="edge20" class="edge">
<title>Node14&#45;&gt;Node3</title>
<path fill="none" stroke="#191970" d="M220.8495,-168.4509C268.6144,-148.4895 379.1319,-102.3031 433.9603,-79.3897"/>
<polygon fill="#191970" stroke="#191970" points="435.3312,-82.6102 443.2083,-75.5249 432.632,-76.1515 435.3312,-82.6102"/>
</g>
<!-- Node15&#45;&gt;Node2 -->
<g id="edge24" class="edge">
<title>Node15&#45;&gt;Node2</title>
<path fill="none" stroke="#191970" d="M613.9017,-168.3733C588.3094,-158.557 548.6541,-143.3468 521.7988,-133.0461"/>
<polygon fill="#191970" stroke="#191970" points="522.7791,-129.6736 512.1889,-129.3601 520.2723,-136.2093 522.7791,-129.6736"/>
</g>
<!-- Node16 -->
<g id="node16" class="node">
<title>Node16</title>
<g id="a_node16"><a xlink:title=" ">
<polygon fill="#ffffff" stroke="#bfbfbf" points="617,-112.5 617,-131.5 673,-131.5 673,-112.5 617,-112.5"/>
<text text-anchor="middle" x="645" y="-119.5" font-family="Helvetica,sans-Serif" font-size="10.00" fill="#000000">stdarg.h</text>
</a>
</g>
</g>
<!-- Node15&#45;&gt;Node16 -->
<g id="edge23" class="edge">
<title>Node15&#45;&gt;Node16</title>
<path fill="none" stroke="#191970" d="M640.0451,-168.2455C640.828,-160.9382 641.9256,-150.6944 642.8888,-141.7046"/>
<polygon fill="#191970" stroke="#191970" points="646.3815,-141.9587 643.9669,-131.6427 639.4214,-141.2129 646.3815,-141.9587"/>
</g>
<!-- Node17&#45;&gt;Node2 -->
<g id="edge27" class="edge">
<title>Node17&#45;&gt;Node2</title>
<path fill="none" stroke="#191970" d="M768.2473,-170.1107C765.1329,-169.3629 762.0073,-168.6445 759,-168 673.4009,-149.6549 571.0981,-133.5905 522.0415,-126.2456"/>
<polygon fill="#191970" stroke="#191970" points="522.5365,-122.7808 512.1305,-124.7722 521.5071,-129.7047 522.5365,-122.7808"/>
</g>
<!-- Node17&#45;&gt;Node3 -->
<g id="edge26" class="edge">
<title>Node17&#45;&gt;Node3</title>
<path fill="none" stroke="#191970" d="M780.0776,-168.328C763.1908,-159.1534 737.2333,-144.8919 715,-132 700.1637,-123.3972 697.9435,-118.319 682,-112 621.6135,-88.0665 546.5529,-75.6645 502.6876,-70.0132"/>
<polygon fill="#191970" stroke="#191970" points="503.1178,-66.5398 492.7629,-68.7817 502.2558,-73.4865 503.1178,-66.5398"/>
</g>
<!-- Node17&#45;&gt;Node16 -->
<g id="edge28" class="edge">
<title>Node17&#45;&gt;Node16</title>
<path fill="none" stroke="#191970" d="M771.6984,-168.3733C746.5872,-159.1822 708.5562,-145.2624 680.7128,-135.0713"/>
<polygon fill="#191970" stroke="#191970" points="681.5522,-131.6516 670.9584,-131.5011 679.1462,-138.2251 681.5522,-131.6516"/>
</g>
<!-- Node18 -->
<g id="node18" class="node">
<title>Node18</title>
<g id="a_node18"><a xlink:href="setjmp_8h.html" target="_top" xlink:title=" ">
<polygon fill="#ffffff" stroke="#000000" points="585.5,-56.5 585.5,-75.5 644.5,-75.5 644.5,-56.5 585.5,-56.5"/>
<text text-anchor="middle" x="615" y="-63.5" font-family="Helvetica,sans-Serif" font-size="10.00" fill="#000000">setjmp.h</text>
</a>
</g>
</g>
<!-- Node17&#45;&gt;Node18 -->
<g id="edge29" class="edge">
<title>Node17&#45;&gt;Node18</title>
<path fill="none" stroke="#191970" d="M787.6084,-168.3651C772.4645,-154.6544 743.0689,-129.2659 715,-112 694.1579,-99.1795 669.1472,-87.6758 649.3524,-79.379"/>
<polygon fill="#191970" stroke="#191970" points="650.6747,-76.1385 640.0951,-75.572 648.0123,-82.6124 650.6747,-76.1385"/>
</g>
<!-- Node18&#45;&gt;Node5 -->
<g id="edge30" class="edge">
<title>Node18&#45;&gt;Node5</title>
<path fill="none" stroke="#191970" d="M609.426,-56.2455C605.0669,-48.617 598.8789,-37.7881 593.5867,-28.5267"/>
<polygon fill="#191970" stroke="#191970" points="596.5104,-26.5886 588.5101,-19.6427 590.4327,-30.0616 596.5104,-26.5886"/>
</g>
<!-- Node19&#45;&gt;Node2 -->
<g id="edge33" class="edge">
<title>Node19&#45;&gt;Node2</title>
<path fill="none" stroke="#191970" d="M681.645,-169.3727C637.9249,-158.3937 563.1666,-139.6203 522.1139,-129.3111"/>
<polygon fill="#191970" stroke="#191970" points="522.7534,-125.8631 512.2021,-126.822 521.0485,-132.6523 522.7534,-125.8631"/>
</g>
<!-- Node19&#45;&gt;Node3 -->
<g id="edge32" class="edge">
<title>Node19&#45;&gt;Node3</title>
<path fill="none" stroke="#191970" d="M692.7315,-168.3458C670.7952,-159.1839 637.0442,-144.931 608,-132 568.7291,-114.5159 523.7953,-93.4503 495.177,-79.8982"/>
<polygon fill="#191970" stroke="#191970" points="496.664,-76.7298 486.1289,-75.6063 493.6639,-83.0543 496.664,-76.7298"/>
</g>
<!-- Node19&#45;&gt;Node16 -->
<g id="edge34" class="edge">
<title>Node19&#45;&gt;Node16</title>
<path fill="none" stroke="#191970" d="M703.6327,-168.2455C693.0446,-159.8943 677.5936,-147.7076 665.2107,-137.9408"/>
<polygon fill="#191970" stroke="#191970" points="667.2447,-135.0875 657.2255,-131.6427 662.9097,-140.5837 667.2447,-135.0875"/>
</g>
<!-- Node20&#45;&gt;Node2 -->
<g id="edge37" class="edge">
<title>Node20&#45;&gt;Node2</title>
<path fill="none" stroke="#191970" d="M304.8655,-170.1192C307.615,-169.4001 310.3587,-168.685 313,-168 366.2806,-154.1815 428.5139,-138.3449 464.0871,-129.3214"/>
<polygon fill="#191970" stroke="#191970" points="464.9748,-132.7071 473.808,-126.8569 463.2545,-125.9218 464.9748,-132.7071"/>
</g>
<!-- Node20&#45;&gt;Node3 -->
<g id="edge36" class="edge">
<title>Node20&#45;&gt;Node3</title>
<path fill="none" stroke="#191970" d="M291.2846,-168.4509C324.6916,-148.8615 401.1705,-104.0152 440.9406,-80.6945"/>
<polygon fill="#191970" stroke="#191970" points="442.9008,-83.6025 449.7567,-75.5249 439.3599,-77.5641 442.9008,-83.6025"/>
</g>
<!-- Node21&#45;&gt;Node2 -->
<g id="edge40" class="edge">
<title>Node21&#45;&gt;Node2</title>
<path fill="none" stroke="#191970" d="M377.895,-168.3733C401.8787,-158.7107 438.8354,-143.8217 464.3723,-133.5335"/>
<polygon fill="#191970" stroke="#191970" points="465.9136,-136.686 473.8812,-129.7026 463.2977,-130.1931 465.9136,-136.686"/>
</g>
<!-- Node21&#45;&gt;Node3 -->
<g id="edge39" class="edge">
<title>Node21&#45;&gt;Node3</title>
<path fill="none" stroke="#191970" d="M363.5491,-168.4509C382.5599,-149.4401 425.3577,-106.6423 449.184,-82.816"/>
<polygon fill="#191970" stroke="#191970" points="451.8789,-85.0709 456.4751,-75.5249 446.9291,-80.1211 451.8789,-85.0709"/>
</g>
<!-- Node22&#45;&gt;Node2 -->
<g id="edge43" class="edge">
<title>Node22&#45;&gt;Node2</title>
<path fill="none" stroke="#191970" d="M447.5803,-168.2455C455.5458,-160.1352 467.0641,-148.4075 476.5079,-138.7919"/>
<polygon fill="#191970" stroke="#191970" points="479.0195,-141.2297 483.5295,-131.6427 474.0253,-136.3247 479.0195,-141.2297"/>
</g>
<!-- Node22&#45;&gt;Node3 -->
<g id="edge42" class="edge">
<title>Node22&#45;&gt;Node3</title>
<path fill="none" stroke="#191970" d="M440.3873,-168.4509C444.9747,-150.1013 455.1023,-109.5908 461.1577,-85.3693"/>
<polygon fill="#191970" stroke="#191970" points="464.5888,-86.0752 463.6188,-75.5249 457.7978,-84.3774 464.5888,-86.0752"/>
</g>
<!-- Node23&#45;&gt;Node2 -->
<g id="edge46" class="edge">
<title>Node23&#45;&gt;Node2</title>
<path fill="none" stroke="#191970" d="M549.9811,-168.2455C539.7902,-159.9746 524.9638,-147.9416 512.9893,-138.2232"/>
<polygon fill="#191970" stroke="#191970" points="514.8514,-135.2268 504.8812,-131.6427 510.4402,-140.662 514.8514,-135.2268"/>
</g>
<!-- Node23&#45;&gt;Node3 -->
<g id="edge45" class="edge">
<title>Node23&#45;&gt;Node3</title>
<path fill="none" stroke="#191970" d="M557.2853,-168.4015C550.4154,-154.9559 536.7432,-130.1293 521,-112 511.2109,-100.7272 498.5219,-89.9203 487.799,-81.617"/>
<polygon fill="#191970" stroke="#191970" points="489.8089,-78.7493 479.7138,-75.5337 485.6003,-84.3428 489.8089,-78.7493"/>
</g>
<!-- Node24&#45;&gt;Node2 -->
<g id="edge49" class="edge">
<title>Node24&#45;&gt;Node2</title>
<path fill="none" stroke="#191970" d="M926.2607,-169.9626C923.4924,-169.225 920.6983,-168.5499 918,-168 841.7142,-152.4547 605.0143,-131.4934 522.0715,-124.4345"/>
<polygon fill="#191970" stroke="#191970" points="522.3371,-120.9446 512.0773,-123.5881 521.7462,-127.9196 522.3371,-120.9446"/>
</g>
<!-- Node25 -->
<g id="node25" class="node">
<title>Node25</title>
<g id="a_node25"><a xlink:title=" ">
<polygon fill="#ffffff" stroke="#bfbfbf" points="989.5,-112.5 989.5,-131.5 1042.5,-131.5 1042.5,-112.5 989.5,-112.5"/>
<text text-anchor="middle" x="1016" y="-119.5" font-family="Helvetica,sans-Serif" font-size="10.00" fill="#000000">types.h</text>
</a>
</g>
</g>
<!-- Node24&#45;&gt;Node25 -->
<g id="edge48" class="edge">
<title>Node24&#45;&gt;Node25</title>
<path fill="none" stroke="#191970" d="M962.3221,-168.2455C971.9223,-159.9746 985.8892,-147.9416 997.1695,-138.2232"/>
<polygon fill="#191970" stroke="#191970" points="999.516,-140.8214 1004.8076,-131.6427 994.947,-135.5182 999.516,-140.8214"/>
</g>
</g>
</svg>
        <g id="navigator" transform="translate(0 0)" fill="#404254">
                <rect fill="#f2f5e9" fill-opacity="0.5" stroke="#606060" stroke-width=".5" x="0" y="0" width="60" height="60"/>
                <use id="zoomplus" xlink:href="#zoomPlus" x="17" y="9" onmousedown="handleZoom(evt,'in')"/>
                <use id="zoomminus" xlink:href="#zoomMin" x="42" y="9" onmousedown="handleZoom(evt,'out')"/>
                <use id="reset" xlink:href="#resetDef" x="30" y="36" onmousedown="handleReset()"/>
                <g id="arrowUp" xlink:href="#dirArrow" transform="translate(30 24)" onmousedown="handlePan(0,-1)">
                  <use xlink:href="#rim" fill="#404040">
                        <set attributeName="fill" to="#808080" begin="arrowUp.mouseover" end="arrowUp.mouseout"/>
                  </use>
                  <path fill="none" stroke="white" stroke-width="1.5" d="M0,-3.0v7 M-2.5,-0.5L0,-3.0L2.5,-0.5"/>
                </g>
                <g id="arrowRight" xlink:href="#dirArrow" transform="rotate(90) translate(36 -43)" onmousedown="handlePan(1,0)">
                  <use xlink:href="#rim" fill="#404040">
                        <set attributeName="fill" to="#808080" begin="arrowRight.mouseover" end="arrowRight.mouseout"/>
                  </use>
                  <path fill="none" stroke="white" stroke-width="1.5" d="M0,-3.0v7 M-2.5,-0.5L0,-3.0L2.5,-0.5"/>
                </g>
                <g id="arrowDown" xlink:href="#dirArrow" transform="rotate(180) translate(-30 -48)" onmousedown="handlePan(0,1)">
                  <use xlink:href="#rim" fill="#404040">
                        <set attributeName="fill" to="#808080" begin="arrowDown.mouseover" end="arrowDown.mouseout"/>
                  </use>
                  <path fill="none" stroke="white" stroke-width="1.5" d="M0,-3.0v7 M-2.5,-0.5L0,-3.0L2.5,-0.5"/>
                </g>
                <g id="arrowLeft" xlink:href="#dirArrow" transform="rotate(270) translate(-36 17)" onmousedown="handlePan(-1,0)">
                  <use xlink:href="#rim" fill="#404040">
                        <set attributeName="fill" to="#808080" begin="arrowLeft.mouseover" end="arrowLeft.mouseout"/>
                  </use>
                  <path fill="none" stroke="white" stroke-width="1.5" d="M0,-3.0v7 M-2.5,-0.5L0,-3.0L2.5,-0.5"/>
                </g>
        </g>
        <svg viewBox="0 0 15 15" width="100%" height="30px" preserveAspectRatio="xMaxYMin meet">
         <g id="arrow_out" transform="scale(0.3 0.3)">
          <a xlink:href="usb_2mouse_2src_2irx__imports_8h__incl_org.svg" target="_base">
           <rect id="button" ry="5" rx="5" y="6" x="6" height="38" width="38"
                fill="#f2f5e9" fill-opacity="0.5" stroke="#606060" stroke-width="1.0"/>
           <path id="arrow"
             d="M 11.500037,31.436501 C 11.940474,20.09759 22.043105,11.32322 32.158766,21.979434 L 37.068811,17.246167 C 37.068811,17.246167 37.088388,32 37.088388,32 L 22.160133,31.978069 C 22.160133,31.978069 26.997745,27.140456 26.997745,27.140456 C 18.528582,18.264221 13.291696,25.230495 11.500037,31.436501 z"
             style="fill:#404040;"/>
          </a>
         </g>
        </svg>
</svg>
