<?xml version="1.0" encoding="UTF-8" standalone="no"?>
<!DOCTYPE svg PUBLIC "-//W3C//DTD SVG 1.1//EN"
 "http://www.w3.org/Graphics/SVG/1.1/DTD/svg11.dtd">
<!-- Generated by graphviz version 2.40.1 (20161225.0304)
 -->
<!-- Title: iop/usb/camera/src/irx_imports.h Pages: 1 -->
<svg width="1184pt" height="263pt"
 viewBox="0.00 0.00 1184.00 263.00" xmlns="http://www.w3.org/2000/svg" xmlns:xlink="http://www.w3.org/1999/xlink">
<g id="graph0" class="graph" transform="scale(1 1) rotate(0) translate(4 259)">
<title>iop/usb/camera/src/irx_imports.h</title>
<polygon fill="#ffffff" stroke="transparent" points="-4,4 -4,-259 1180,-259 1180,4 -4,4"/>
<!-- Node1 -->
<g id="node1" class="node">
<title>Node1</title>
<g id="a_node1"><a xlink:title=" ">
<polygon fill="#bfbfbf" stroke="#000000" points="574,-224.5 574,-254.5 683,-254.5 683,-224.5 574,-224.5"/>
<text text-anchor="start" x="582" y="-242.5" font-family="Helvetica,sans-Serif" font-size="10.00" fill="#000000">iop/usb/camera/src</text>
<text text-anchor="middle" x="628.5" y="-231.5" font-family="Helvetica,sans-Serif" font-size="10.00" fill="#000000">/irx_imports.h</text>
</a>
</g>
</g>
<!-- Node2 -->
<g id="node2" class="node">
<title>Node2</title>
<g id="a_node2"><a xlink:href="irx_8h.html" target="_top" xlink:title=" ">
<polygon fill="#ffffff" stroke="#000000" points="569.5,-112.5 569.5,-131.5 607.5,-131.5 607.5,-112.5 569.5,-112.5"/>
<text text-anchor="middle" x="588.5" y="-119.5" font-family="Helvetica,sans-Serif" font-size="10.00" fill="#000000">irx.h</text>
</a>
</g>
</g>
<!-- Node1&#45;&gt;Node2 -->
<g id="edge1" class="edge">
<title>Node1&#45;&gt;Node2</title>
<path fill="none" stroke="#191970" d="M624.8804,-224.2467C621.2632,-209.6405 615.2761,-187.0686 608.5,-168 605.2661,-158.8995 601.0805,-149.0506 597.3748,-140.8098"/>
<polygon fill="#191970" stroke="#191970" points="600.5489,-139.3348 593.1888,-131.7138 594.1899,-142.2612 600.5489,-139.3348"/>
</g>
<!-- Node6 -->
<g id="node6" class="node">
<title>Node6</title>
<g id="a_node6"><a xlink:href="dmacman_8h.html" target="_top" xlink:title=" ">
<polygon fill="#ffffff" stroke="#000000" points="448.5,-168.5 448.5,-187.5 522.5,-187.5 522.5,-168.5 448.5,-168.5"/>
<text text-anchor="middle" x="485.5" y="-175.5" font-family="Helvetica,sans-Serif" font-size="10.00" fill="#000000">dmacman.h</text>
</a>
</g>
</g>
<!-- Node1&#45;&gt;Node6 -->
<g id="edge5" class="edge">
<title>Node1&#45;&gt;Node6</title>
<path fill="none" stroke="#191970" d="M593.5183,-224.4554C570.1816,-214.419 539.7502,-201.3314 517.137,-191.6061"/>
<polygon fill="#191970" stroke="#191970" points="518.2292,-188.2659 507.6599,-187.5303 515.4636,-194.6965 518.2292,-188.2659"/>
</g>
<!-- Node7 -->
<g id="node7" class="node">
<title>Node7</title>
<g id="a_node7"><a xlink:href="intrman_8h.html" target="_top" xlink:title=" ">
<polygon fill="#ffffff" stroke="#000000" points="656.5,-168.5 656.5,-187.5 720.5,-187.5 720.5,-168.5 656.5,-168.5"/>
<text text-anchor="middle" x="688.5" y="-175.5" font-family="Helvetica,sans-Serif" font-size="10.00" fill="#000000">intrman.h</text>
</a>
</g>
</g>
<!-- Node1&#45;&gt;Node7 -->
<g id="edge8" class="edge">
<title>Node1&#45;&gt;Node7</title>
<path fill="none" stroke="#191970" d="M643.3315,-224.2977C651.9204,-215.4941 662.7602,-204.3833 671.6679,-195.2529"/>
<polygon fill="#191970" stroke="#191970" points="674.4152,-197.4489 678.8932,-187.8469 669.4047,-192.5606 674.4152,-197.4489"/>
</g>
<!-- Node8 -->
<g id="node8" class="node">
<title>Node8</title>
<g id="a_node8"><a xlink:href="ioman_8h.html" target="_top" xlink:title=" ">
<polygon fill="#ffffff" stroke="#000000" points="53.5,-168.5 53.5,-187.5 109.5,-187.5 109.5,-168.5 53.5,-168.5"/>
<text text-anchor="middle" x="81.5" y="-175.5" font-family="Helvetica,sans-Serif" font-size="10.00" fill="#000000">ioman.h</text>
</a>
</g>
</g>
<!-- Node1&#45;&gt;Node8 -->
<g id="edge11" class="edge">
<title>Node1&#45;&gt;Node8</title>
<path fill="none" stroke="#191970" d="M573.7428,-236.909C481.6887,-231.9125 290.072,-218.7642 119.5774,-187.9386"/>
<polygon fill="#191970" stroke="#191970" points="120.1401,-184.4835 109.6729,-186.1233 118.8781,-191.3688 120.1401,-184.4835"/>
</g>
<!-- Node12 -->
<g id="node12" class="node">
<title>Node12</title>
<g id="a_node12"><a xlink:href="libsd_8h.html" target="_top" xlink:title=" ">
<polygon fill="#ffffff" stroke="#000000" points="128,-168.5 128,-187.5 177,-187.5 177,-168.5 128,-168.5"/>
<text text-anchor="middle" x="152.5" y="-175.5" font-family="Helvetica,sans-Serif" font-size="10.00" fill="#000000">libsd.h</text>
</a>
</g>
</g>
<!-- Node1&#45;&gt;Node12 -->
<g id="edge17" class="edge">
<title>Node1&#45;&gt;Node12</title>
<path fill="none" stroke="#191970" d="M573.7838,-236.2918C491.5148,-230.7777 331.0719,-217.345 187.1379,-188.0597"/>
<polygon fill="#191970" stroke="#191970" points="187.745,-184.6113 177.2437,-186.0158 186.3289,-191.4666 187.745,-184.6113"/>
</g>
<!-- Node14 -->
<g id="node14" class="node">
<title>Node14</title>
<g id="a_node14"><a xlink:href="sifcmd_8h.html" target="_top" xlink:title=" ">
<polygon fill="#ffffff" stroke="#000000" points="739,-168.5 739,-187.5 798,-187.5 798,-168.5 739,-168.5"/>
<text text-anchor="middle" x="768.5" y="-175.5" font-family="Helvetica,sans-Serif" font-size="10.00" fill="#000000">sifcmd.h</text>
</a>
</g>
</g>
<!-- Node1&#45;&gt;Node14 -->
<g id="edge22" class="edge">
<title>Node1&#45;&gt;Node14</title>
<path fill="none" stroke="#191970" d="M662.7479,-224.4554C685.5949,-214.419 715.3879,-201.3314 737.5267,-191.6061"/>
<polygon fill="#191970" stroke="#191970" points="739.0571,-194.7567 746.805,-187.5303 736.2417,-188.3478 739.0571,-194.7567"/>
</g>
<!-- Node15 -->
<g id="node15" class="node">
<title>Node15</title>
<g id="a_node15"><a xlink:href="stdio_8h.html" target="_top" xlink:title=" ">
<polygon fill="#ffffff" stroke="#000000" points="893.5,-168.5 893.5,-187.5 943.5,-187.5 943.5,-168.5 893.5,-168.5"/>
<text text-anchor="middle" x="918.5" y="-175.5" font-family="Helvetica,sans-Serif" font-size="10.00" fill="#000000">stdio.h</text>
</a>
</g>
</g>
<!-- Node1&#45;&gt;Node15 -->
<g id="edge25" class="edge">
<title>Node1&#45;&gt;Node15</title>
<path fill="none" stroke="#191970" d="M683.4939,-229.6931C735.3263,-220.1434 815.0423,-204.665 883.5,-188 883.5998,-187.9757 883.6997,-187.9513 883.7998,-187.9268"/>
<polygon fill="#191970" stroke="#191970" points="884.5309,-191.3532 893.3282,-185.4491 882.7692,-184.5785 884.5309,-191.3532"/>
</g>
<!-- Node17 -->
<g id="node17" class="node">
<title>Node17</title>
<g id="a_node17"><a xlink:href="sysclib_8h.html" target="_top" xlink:title=" ">
<polygon fill="#ffffff" stroke="#000000" points="1048,-168.5 1048,-187.5 1107,-187.5 1107,-168.5 1048,-168.5"/>
<text text-anchor="middle" x="1077.5" y="-175.5" font-family="Helvetica,sans-Serif" font-size="10.00" fill="#000000">sysclib.h</text>
</a>
</g>
</g>
<!-- Node1&#45;&gt;Node17 -->
<g id="edge28" class="edge">
<title>Node1&#45;&gt;Node17</title>
<path fill="none" stroke="#191970" d="M683.2252,-234.8383C760.2326,-227.7909 905.0568,-212.7549 1037.8321,-187.9161"/>
<polygon fill="#191970" stroke="#191970" points="1038.6022,-191.3325 1047.7763,-186.0329 1037.2997,-184.4548 1038.6022,-191.3325"/>
</g>
<!-- Node19 -->
<g id="node19" class="node">
<title>Node19</title>
<g id="a_node19"><a xlink:href="sysmem_8h.html" target="_top" xlink:title=" ">
<polygon fill="#ffffff" stroke="#000000" points="961.5,-168.5 961.5,-187.5 1029.5,-187.5 1029.5,-168.5 961.5,-168.5"/>
<text text-anchor="middle" x="995.5" y="-175.5" font-family="Helvetica,sans-Serif" font-size="10.00" fill="#000000">sysmem.h</text>
</a>
</g>
</g>
<!-- Node1&#45;&gt;Node19 -->
<g id="edge34" class="edge">
<title>Node1&#45;&gt;Node19</title>
<path fill="none" stroke="#191970" d="M683.1685,-232.0169C745.6655,-223.1927 851.2334,-207.4686 951.3027,-188.1323"/>
<polygon fill="#191970" stroke="#191970" points="952.1332,-191.5364 961.2794,-186.1887 950.7947,-184.6655 952.1332,-191.5364"/>
</g>
<!-- Node20 -->
<g id="node20" class="node">
<title>Node20</title>
<g id="a_node20"><a xlink:href="thbase_8h.html" target="_top" xlink:title=" ">
<polygon fill="#ffffff" stroke="#000000" points="816,-168.5 816,-187.5 875,-187.5 875,-168.5 816,-168.5"/>
<text text-anchor="middle" x="845.5" y="-175.5" font-family="Helvetica,sans-Serif" font-size="10.00" fill="#000000">thbase.h</text>
</a>
</g>
</g>
<!-- Node1&#45;&gt;Node20 -->
<g id="edge38" class="edge">
<title>Node1&#45;&gt;Node20</title>
<path fill="none" stroke="#191970" d="M681.5842,-224.4554C720.0698,-213.5482 771.2709,-199.0373 806.1408,-189.1548"/>
<polygon fill="#191970" stroke="#191970" points="807.295,-192.4656 815.9617,-186.3714 805.3863,-185.7308 807.295,-192.4656"/>
</g>
<!-- Node21 -->
<g id="node21" class="node">
<title>Node21</title>
<g id="a_node21"><a xlink:href="thevent_8h.html" target="_top" xlink:title=" ">
<polygon fill="#ffffff" stroke="#000000" points="195,-168.5 195,-187.5 258,-187.5 258,-168.5 195,-168.5"/>
<text text-anchor="middle" x="226.5" y="-175.5" font-family="Helvetica,sans-Serif" font-size="10.00" fill="#000000">thevent.h</text>
</a>
</g>
</g>
<!-- Node1&#45;&gt;Node21 -->
<g id="edge41" class="edge">
<title>Node1&#45;&gt;Node21</title>
<path fill="none" stroke="#191970" d="M573.7928,-233.3806C504.8404,-225.2937 382.5284,-209.7094 268.1924,-187.9755"/>
<polygon fill="#191970" stroke="#191970" points="268.6977,-184.5087 258.217,-186.0595 267.3773,-191.383 268.6977,-184.5087"/>
</g>
<!-- Node22 -->
<g id="node22" class="node">
<title>Node22</title>
<g id="a_node22"><a xlink:href="thmsgbx_8h.html" target="_top" xlink:title=" ">
<polygon fill="#ffffff" stroke="#000000" points="276.5,-168.5 276.5,-187.5 344.5,-187.5 344.5,-168.5 276.5,-168.5"/>
<text text-anchor="middle" x="310.5" y="-175.5" font-family="Helvetica,sans-Serif" font-size="10.00" fill="#000000">thmsgbx.h</text>
</a>
</g>
</g>
<!-- Node1&#45;&gt;Node22 -->
<g id="edge44" class="edge">
<title>Node1&#45;&gt;Node22</title>
<path fill="none" stroke="#191970" d="M573.8368,-229.9837C520.4153,-220.5211 436.5484,-205.2358 354.7064,-188.1905"/>
<polygon fill="#191970" stroke="#191970" points="355.2429,-184.727 344.7379,-186.1033 353.8083,-191.5784 355.2429,-184.727"/>
</g>
<!-- Node23 -->
<g id="node23" class="node">
<title>Node23</title>
<g id="a_node23"><a xlink:href="thsemap_8h.html" target="_top" xlink:title=" ">
<polygon fill="#ffffff" stroke="#000000" points="362.5,-168.5 362.5,-187.5 430.5,-187.5 430.5,-168.5 362.5,-168.5"/>
<text text-anchor="middle" x="396.5" y="-175.5" font-family="Helvetica,sans-Serif" font-size="10.00" fill="#000000">thsemap.h</text>
</a>
</g>
</g>
<!-- Node1&#45;&gt;Node23 -->
<g id="edge47" class="edge">
<title>Node1&#45;&gt;Node23</title>
<path fill="none" stroke="#191970" d="M573.813,-225.0032C533.1085,-214.213 478.2692,-199.6759 440.4074,-189.6392"/>
<polygon fill="#191970" stroke="#191970" points="441.2491,-186.2416 430.6861,-187.0623 439.4554,-193.0079 441.2491,-186.2416"/>
</g>
<!-- Node24 -->
<g id="node24" class="node">
<title>Node24</title>
<g id="a_node24"><a xlink:href="usbd_8h.html" target="_top" xlink:title=" ">
<polygon fill="#ffffff" stroke="#000000" points="1125,-168.5 1125,-187.5 1174,-187.5 1174,-168.5 1125,-168.5"/>
<text text-anchor="middle" x="1149.5" y="-175.5" font-family="Helvetica,sans-Serif" font-size="10.00" fill="#000000">usbd.h</text>
</a>
</g>
</g>
<!-- Node1&#45;&gt;Node24 -->
<g id="edge50" class="edge">
<title>Node1&#45;&gt;Node24</title>
<path fill="none" stroke="#191970" d="M683.1701,-237.1046C772.0915,-232.4731 953.5513,-219.96 1114.6699,-188.0731"/>
<polygon fill="#191970" stroke="#191970" points="1115.648,-191.4466 1124.7622,-186.0447 1114.2686,-184.5839 1115.648,-191.4466"/>
</g>
<!-- Node26 -->
<g id="node26" class="node">
<title>Node26</title>
<g id="a_node26"><a xlink:href="vblank_8h.html" target="_top" xlink:title=" ">
<polygon fill="#ffffff" stroke="#000000" points="541,-168.5 541,-187.5 600,-187.5 600,-168.5 541,-168.5"/>
<text text-anchor="middle" x="570.5" y="-175.5" font-family="Helvetica,sans-Serif" font-size="10.00" fill="#000000">vblank.h</text>
</a>
</g>
</g>
<!-- Node1&#45;&gt;Node26 -->
<g id="edge53" class="edge">
<title>Node1&#45;&gt;Node26</title>
<path fill="none" stroke="#191970" d="M614.1629,-224.2977C605.8603,-215.4941 595.3818,-204.3833 586.7711,-195.2529"/>
<polygon fill="#191970" stroke="#191970" points="589.1939,-192.7206 579.7865,-187.8469 584.1013,-197.5234 589.1939,-192.7206"/>
</g>
<!-- Node3 -->
<g id="node3" class="node">
<title>Node3</title>
<g id="a_node3"><a xlink:href="types_8h.html" target="_top" xlink:title=" ">
<polygon fill="#ffffff" stroke="#000000" points="536,-56.5 536,-75.5 589,-75.5 589,-56.5 536,-56.5"/>
<text text-anchor="middle" x="562.5" y="-63.5" font-family="Helvetica,sans-Serif" font-size="10.00" fill="#000000">types.h</text>
</a>
</g>
</g>
<!-- Node2&#45;&gt;Node3 -->
<g id="edge2" class="edge">
<title>Node2&#45;&gt;Node3</title>
<path fill="none" stroke="#191970" d="M583.9711,-112.2455C580.4666,-104.6973 575.5073,-94.0158 571.2377,-84.8197"/>
<polygon fill="#191970" stroke="#191970" points="574.3627,-83.2389 566.977,-75.6427 568.0136,-86.1867 574.3627,-83.2389"/>
</g>
<!-- Node4 -->
<g id="node4" class="node">
<title>Node4</title>
<g id="a_node4"><a xlink:title=" ">
<polygon fill="#ffffff" stroke="#bfbfbf" points="493.5,-.5 493.5,-19.5 549.5,-19.5 549.5,-.5 493.5,-.5"/>
<text text-anchor="middle" x="521.5" y="-7.5" font-family="Helvetica,sans-Serif" font-size="10.00" fill="#000000">stddef.h</text>
</a>
</g>
</g>
<!-- Node3&#45;&gt;Node4 -->
<g id="edge3" class="edge">
<title>Node3&#45;&gt;Node4</title>
<path fill="none" stroke="#191970" d="M555.3583,-56.2455C549.6556,-48.4564 541.51,-37.3308 534.6375,-27.9439"/>
<polygon fill="#191970" stroke="#191970" points="537.2913,-25.6437 528.5598,-19.6427 531.6432,-29.7789 537.2913,-25.6437"/>
</g>
<!-- Node5 -->
<g id="node5" class="node">
<title>Node5</title>
<g id="a_node5"><a xlink:href="tamtypes_8h.html" target="_top" xlink:title=" ">
<polygon fill="#ffffff" stroke="#000000" points="567.5,-.5 567.5,-19.5 639.5,-19.5 639.5,-.5 567.5,-.5"/>
<text text-anchor="middle" x="603.5" y="-7.5" font-family="Helvetica,sans-Serif" font-size="10.00" fill="#000000">tamtypes.h</text>
</a>
</g>
</g>
<!-- Node3&#45;&gt;Node5 -->
<g id="edge4" class="edge">
<title>Node3&#45;&gt;Node5</title>
<path fill="none" stroke="#191970" d="M569.6417,-56.2455C575.3444,-48.4564 583.49,-37.3308 590.3625,-27.9439"/>
<polygon fill="#191970" stroke="#191970" points="593.3568,-29.7789 596.4402,-19.6427 587.7087,-25.6437 593.3568,-29.7789"/>
</g>
<!-- Node6&#45;&gt;Node2 -->
<g id="edge7" class="edge">
<title>Node6&#45;&gt;Node2</title>
<path fill="none" stroke="#191970" d="M503.4412,-168.2455C519.54,-159.4928 543.3879,-146.527 561.7391,-136.5496"/>
<polygon fill="#191970" stroke="#191970" points="563.6507,-139.4942 570.7644,-131.6427 560.3071,-133.3444 563.6507,-139.4942"/>
</g>
<!-- Node6&#45;&gt;Node3 -->
<g id="edge6" class="edge">
<title>Node6&#45;&gt;Node3</title>
<path fill="none" stroke="#191970" d="M492.065,-168.4509C504.9077,-149.7707 533.5399,-108.1238 550.0726,-84.0761"/>
<polygon fill="#191970" stroke="#191970" points="553.1705,-85.7482 555.9516,-75.5249 547.4022,-81.7825 553.1705,-85.7482"/>
</g>
<!-- Node7&#45;&gt;Node2 -->
<g id="edge10" class="edge">
<title>Node7&#45;&gt;Node2</title>
<path fill="none" stroke="#191970" d="M671.0813,-168.2455C655.4515,-159.4928 632.2981,-146.527 614.4815,-136.5496"/>
<polygon fill="#191970" stroke="#191970" points="616.1543,-133.475 605.7191,-131.6427 612.734,-139.5825 616.1543,-133.475"/>
</g>
<!-- Node7&#45;&gt;Node3 -->
<g id="edge9" class="edge">
<title>Node7&#45;&gt;Node3</title>
<path fill="none" stroke="#191970" d="M678.3525,-168.4824C664.5082,-155.5473 638.8632,-131.7632 616.5,-112 605.1407,-101.9613 592.2203,-90.9412 581.8665,-82.2045"/>
<polygon fill="#191970" stroke="#191970" points="584.0979,-79.5079 574.192,-75.7497 579.5922,-84.865 584.0979,-79.5079"/>
</g>
<!-- Node8&#45;&gt;Node2 -->
<g id="edge13" class="edge">
<title>Node8&#45;&gt;Node2</title>
<path fill="none" stroke="#191970" d="M109.6712,-169.8676C112.6368,-169.1672 115.6199,-168.5264 118.5,-168 283.3877,-137.8655 484.671,-126.5246 559.0549,-123.1789"/>
<polygon fill="#191970" stroke="#191970" points="559.2511,-126.6738 569.0893,-122.742 558.9465,-119.6804 559.2511,-126.6738"/>
</g>
<!-- Node8&#45;&gt;Node3 -->
<g id="edge12" class="edge">
<title>Node8&#45;&gt;Node3</title>
<path fill="none" stroke="#191970" d="M107.5654,-168.4834C146.7928,-154.4562 223.5482,-128.1506 290.5,-112 373.693,-91.9315 473.2693,-77.4671 525.825,-70.561"/>
<polygon fill="#191970" stroke="#191970" points="526.5301,-73.999 535.9969,-69.242 525.6298,-67.0571 526.5301,-73.999"/>
</g>
<!-- Node9 -->
<g id="node9" class="node">
<title>Node9</title>
<g id="a_node9"><a xlink:href="io__common_8h.html" target="_top" xlink:title=" ">
<polygon fill="#ffffff" stroke="#000000" points="40,-112.5 40,-131.5 123,-131.5 123,-112.5 40,-112.5"/>
<text text-anchor="middle" x="81.5" y="-119.5" font-family="Helvetica,sans-Serif" font-size="10.00" fill="#000000">io_common.h</text>
</a>
</g>
</g>
<!-- Node8&#45;&gt;Node9 -->
<g id="edge14" class="edge">
<title>Node8&#45;&gt;Node9</title>
<path fill="none" stroke="#191970" d="M81.5,-168.2455C81.5,-160.9382 81.5,-150.6944 81.5,-141.7046"/>
<polygon fill="#191970" stroke="#191970" points="85.0001,-141.6426 81.5,-131.6427 78.0001,-141.6427 85.0001,-141.6426"/>
</g>
<!-- Node10 -->
<g id="node10" class="node">
<title>Node10</title>
<g id="a_node10"><a xlink:href="fcntl_8h.html" target="_top" xlink:title=" ">
<polygon fill="#ffffff" stroke="#000000" points="93,-56.5 93,-75.5 160,-75.5 160,-56.5 93,-56.5"/>
<text text-anchor="middle" x="126.5" y="-63.5" font-family="Helvetica,sans-Serif" font-size="10.00" fill="#000000">sys/fcntl.h</text>
</a>
</g>
</g>
<!-- Node9&#45;&gt;Node10 -->
<g id="edge15" class="edge">
<title>Node9&#45;&gt;Node10</title>
<path fill="none" stroke="#191970" d="M89.3384,-112.2455C95.662,-104.3761 104.7224,-93.101 112.3136,-83.6542"/>
<polygon fill="#191970" stroke="#191970" points="115.2158,-85.6302 118.7514,-75.6427 109.7592,-81.2454 115.2158,-85.6302"/>
</g>
<!-- Node11 -->
<g id="node11" class="node">
<title>Node11</title>
<g id="a_node11"><a xlink:href="unistd_8h.html" target="_top" xlink:title=" ">
<polygon fill="#ffffff" stroke="#000000" points="0,-56.5 0,-75.5 75,-75.5 75,-56.5 0,-56.5"/>
<text text-anchor="middle" x="37.5" y="-63.5" font-family="Helvetica,sans-Serif" font-size="10.00" fill="#000000">sys/unistd.h</text>
</a>
</g>
</g>
<!-- Node9&#45;&gt;Node11 -->
<g id="edge16" class="edge">
<title>Node9&#45;&gt;Node11</title>
<path fill="none" stroke="#191970" d="M73.8358,-112.2455C67.6527,-104.3761 58.7937,-93.101 51.3711,-83.6542"/>
<polygon fill="#191970" stroke="#191970" points="54.0068,-81.3435 45.0764,-75.6427 48.5025,-85.6683 54.0068,-81.3435"/>
</g>
<!-- Node12&#45;&gt;Node2 -->
<g id="edge19" class="edge">
<title>Node12&#45;&gt;Node2</title>
<path fill="none" stroke="#191970" d="M177.2425,-169.9785C180.0103,-169.2379 182.8033,-168.5577 185.5,-168 323.6594,-139.426 492.3957,-127.4027 559.2313,-123.5255"/>
<polygon fill="#191970" stroke="#191970" points="559.6356,-127.0084 569.4232,-122.9522 559.2424,-120.0194 559.6356,-127.0084"/>
</g>
<!-- Node12&#45;&gt;Node3 -->
<g id="edge18" class="edge">
<title>Node12&#45;&gt;Node3</title>
<path fill="none" stroke="#191970" d="M177.0846,-169.2236C215.1906,-155.8078 290.9606,-129.8777 356.5,-112 415.3269,-95.9533 484.7129,-81.3325 526.0774,-73.0635"/>
<polygon fill="#191970" stroke="#191970" points="526.8392,-76.4807 535.9666,-71.1011 525.4766,-69.6146 526.8392,-76.4807"/>
</g>
<!-- Node13 -->
<g id="node13" class="node">
<title>Node13</title>
<g id="a_node13"><a xlink:href="libsd-common_8h.html" target="_top" xlink:title=" ">
<polygon fill="#ffffff" stroke="#000000" points="349,-56.5 349,-75.5 444,-75.5 444,-56.5 349,-56.5"/>
<text text-anchor="middle" x="396.5" y="-63.5" font-family="Helvetica,sans-Serif" font-size="10.00" fill="#000000">libsd&#45;common.h</text>
</a>
</g>
</g>
<!-- Node12&#45;&gt;Node13 -->
<g id="edge20" class="edge">
<title>Node12&#45;&gt;Node13</title>
<path fill="none" stroke="#191970" d="M173.3033,-168.4509C216.5206,-148.6135 316.1634,-102.8758 366.3935,-79.8194"/>
<polygon fill="#191970" stroke="#191970" points="368.1212,-82.8775 375.7494,-75.5249 365.2009,-76.5157 368.1212,-82.8775"/>
</g>
<!-- Node13&#45;&gt;Node5 -->
<g id="edge21" class="edge">
<title>Node13&#45;&gt;Node5</title>
<path fill="none" stroke="#191970" d="M432.0846,-56.3733C467.1016,-46.9001 520.6881,-32.4032 558.6125,-22.1435"/>
<polygon fill="#191970" stroke="#191970" points="559.6408,-25.4912 568.3798,-19.5011 557.8127,-18.7341 559.6408,-25.4912"/>
</g>
<!-- Node14&#45;&gt;Node2 -->
<g id="edge24" class="edge">
<title>Node14&#45;&gt;Node2</title>
<path fill="none" stroke="#191970" d="M738.7767,-168.7527C705.1135,-158.2798 650.6283,-141.3288 617.3363,-130.9713"/>
<polygon fill="#191970" stroke="#191970" points="618.3195,-127.6118 607.7312,-127.983 616.24,-134.2958 618.3195,-127.6118"/>
</g>
<!-- Node14&#45;&gt;Node3 -->
<g id="edge23" class="edge">
<title>Node14&#45;&gt;Node3</title>
<path fill="none" stroke="#191970" d="M750.9366,-168.4509C714.7539,-148.7788 631.724,-103.6363 588.9866,-80.4005"/>
<polygon fill="#191970" stroke="#191970" points="590.4763,-77.2266 580.019,-75.5249 587.1327,-83.3764 590.4763,-77.2266"/>
</g>
<!-- Node15&#45;&gt;Node2 -->
<g id="edge27" class="edge">
<title>Node15&#45;&gt;Node2</title>
<path fill="none" stroke="#191970" d="M893.3597,-170.4149C890.0592,-169.5376 886.7095,-168.7059 883.5,-168 787.1197,-146.8021 670.9373,-131.6922 617.7109,-125.3391"/>
<polygon fill="#191970" stroke="#191970" points="617.9745,-121.846 607.6336,-124.1516 617.1552,-128.7979 617.9745,-121.846"/>
</g>
<!-- Node16 -->
<g id="node16" class="node">
<title>Node16</title>
<g id="a_node16"><a xlink:title=" ">
<polygon fill="#ffffff" stroke="#bfbfbf" points="911.5,-112.5 911.5,-131.5 967.5,-131.5 967.5,-112.5 911.5,-112.5"/>
<text text-anchor="middle" x="939.5" y="-119.5" font-family="Helvetica,sans-Serif" font-size="10.00" fill="#000000">stdarg.h</text>
</a>
</g>
</g>
<!-- Node15&#45;&gt;Node16 -->
<g id="edge26" class="edge">
<title>Node15&#45;&gt;Node16</title>
<path fill="none" stroke="#191970" d="M922.1579,-168.2455C924.9584,-160.7776 928.909,-150.2427 932.3324,-141.1137"/>
<polygon fill="#191970" stroke="#191970" points="935.6499,-142.2349 935.884,-131.6427 929.0955,-139.777 935.6499,-142.2349"/>
</g>
<!-- Node17&#45;&gt;Node2 -->
<g id="edge30" class="edge">
<title>Node17&#45;&gt;Node2</title>
<path fill="none" stroke="#191970" d="M1047.7896,-169.8953C1044.6669,-169.1895 1041.5278,-168.5398 1038.5,-168 881.1289,-139.9424 689.5184,-127.4212 617.6099,-123.4682"/>
<polygon fill="#191970" stroke="#191970" points="617.676,-119.9668 607.5029,-122.9263 617.3011,-126.9568 617.676,-119.9668"/>
</g>
<!-- Node17&#45;&gt;Node3 -->
<g id="edge29" class="edge">
<title>Node17&#45;&gt;Node3</title>
<path fill="none" stroke="#191970" d="M1069.194,-168.3199C1055.6761,-153.3143 1027.3113,-124.833 996.5,-112 924.9299,-82.1907 690.4408,-70.6446 599.2452,-67.2119"/>
<polygon fill="#191970" stroke="#191970" points="599.2268,-63.709 589.1057,-66.8417 598.9713,-70.7043 599.2268,-63.709"/>
</g>
<!-- Node17&#45;&gt;Node16 -->
<g id="edge31" class="edge">
<title>Node17&#45;&gt;Node16</title>
<path fill="none" stroke="#191970" d="M1053.777,-168.3733C1031.3263,-159.2629 997.4261,-145.5062 972.3745,-135.3404"/>
<polygon fill="#191970" stroke="#191970" points="973.4957,-132.0182 962.9135,-131.5011 970.8635,-138.5045 973.4957,-132.0182"/>
</g>
<!-- Node18 -->
<g id="node18" class="node">
<title>Node18</title>
<g id="a_node18"><a xlink:href="setjmp_8h.html" target="_top" xlink:title=" ">
<polygon fill="#ffffff" stroke="#000000" points="864,-56.5 864,-75.5 923,-75.5 923,-56.5 864,-56.5"/>
<text text-anchor="middle" x="893.5" y="-63.5" font-family="Helvetica,sans-Serif" font-size="10.00" fill="#000000">setjmp.h</text>
</a>
</g>
</g>
<!-- Node17&#45;&gt;Node18 -->
<g id="edge32" class="edge">
<title>Node17&#45;&gt;Node18</title>
<path fill="none" stroke="#191970" d="M1076.0722,-168.4229C1073.4273,-154.0741 1066.4084,-127.0756 1049.5,-112 1032.2567,-96.6258 973.3208,-82.1117 933.0364,-73.6396"/>
<polygon fill="#191970" stroke="#191970" points="933.7339,-70.2098 923.2332,-71.6189 932.3207,-77.0657 933.7339,-70.2098"/>
</g>
<!-- Node18&#45;&gt;Node5 -->
<g id="edge33" class="edge">
<title>Node18&#45;&gt;Node5</title>
<path fill="none" stroke="#191970" d="M863.8278,-60.2702C813.1999,-50.4938 709.7844,-30.5239 649.6531,-18.9123"/>
<polygon fill="#191970" stroke="#191970" points="650.1526,-15.4442 639.6703,-16.9846 648.8253,-22.3172 650.1526,-15.4442"/>
</g>
<!-- Node19&#45;&gt;Node2 -->
<g id="edge36" class="edge">
<title>Node19&#45;&gt;Node2</title>
<path fill="none" stroke="#191970" d="M961.2981,-169.7119C958.3302,-169.0942 955.367,-168.5131 952.5,-168 828.8779,-145.8745 679.7667,-130.5445 617.7548,-124.6665"/>
<polygon fill="#191970" stroke="#191970" points="617.8343,-121.1587 607.5513,-123.7105 617.1812,-128.1282 617.8343,-121.1587"/>
</g>
<!-- Node19&#45;&gt;Node3 -->
<g id="edge35" class="edge">
<title>Node19&#45;&gt;Node3</title>
<path fill="none" stroke="#191970" d="M995.8137,-168.1508C995.6942,-153.4464 993.0899,-125.9898 976.5,-112 947.9249,-87.9033 695.4768,-72.7252 599.4001,-67.777"/>
<polygon fill="#191970" stroke="#191970" points="599.4388,-64.2745 589.2744,-67.2637 599.0844,-71.2655 599.4388,-64.2745"/>
</g>
<!-- Node19&#45;&gt;Node16 -->
<g id="edge37" class="edge">
<title>Node19&#45;&gt;Node16</title>
<path fill="none" stroke="#191970" d="M985.7455,-168.2455C977.6352,-160.1352 965.9075,-148.4075 956.2919,-138.7919"/>
<polygon fill="#191970" stroke="#191970" points="958.6887,-136.2389 949.1427,-131.6427 953.7389,-141.1887 958.6887,-136.2389"/>
</g>
<!-- Node20&#45;&gt;Node2 -->
<g id="edge40" class="edge">
<title>Node20&#45;&gt;Node2</title>
<path fill="none" stroke="#191970" d="M815.7219,-170.224C812.6124,-169.4541 809.4949,-168.6996 806.5,-168 739.1051,-152.2569 659.426,-136.0494 617.5563,-127.7172"/>
<polygon fill="#191970" stroke="#191970" points="618.0046,-124.238 607.5147,-125.7258 616.6428,-131.1043 618.0046,-124.238"/>
</g>
<!-- Node20&#45;&gt;Node3 -->
<g id="edge39" class="edge">
<title>Node20&#45;&gt;Node3</title>
<path fill="none" stroke="#191970" d="M821.5954,-168.4625C789.3488,-155.6043 730.1165,-132.0125 679.5,-112 651.6168,-100.9757 619.9674,-88.5369 596.6232,-79.3762"/>
<polygon fill="#191970" stroke="#191970" points="597.7498,-76.0585 587.1622,-75.6646 595.1933,-82.575 597.7498,-76.0585"/>
</g>
<!-- Node21&#45;&gt;Node2 -->
<g id="edge43" class="edge">
<title>Node21&#45;&gt;Node2</title>
<path fill="none" stroke="#191970" d="M258.2174,-169.9425C261.345,-169.2447 264.4786,-168.5835 267.5,-168 374.2165,-147.3897 502.5337,-131.7043 559.1809,-125.2371"/>
<polygon fill="#191970" stroke="#191970" points="559.6719,-128.704 569.2154,-124.1027 558.8855,-121.7483 559.6719,-128.704"/>
</g>
<!-- Node21&#45;&gt;Node3 -->
<g id="edge42" class="edge">
<title>Node21&#45;&gt;Node3</title>
<path fill="none" stroke="#191970" d="M253.3131,-168.493C290.2011,-155.4692 358.7199,-131.4759 417.5,-112 454.3902,-99.777 496.7793,-86.4072 526.1571,-77.2475"/>
<polygon fill="#191970" stroke="#191970" points="527.4671,-80.5054 535.9754,-74.1919 525.387,-73.8216 527.4671,-80.5054"/>
</g>
<!-- Node22&#45;&gt;Node2 -->
<g id="edge46" class="edge">
<title>Node22&#45;&gt;Node2</title>
<path fill="none" stroke="#191970" d="M344.7432,-169.922C347.7021,-169.2587 350.652,-168.6097 353.5,-168 427.4521,-152.1682 514.969,-135.6084 559.4289,-127.3498"/>
<polygon fill="#191970" stroke="#191970" points="560.0672,-130.7912 569.2624,-125.5283 558.7922,-123.9083 560.0672,-130.7912"/>
</g>
<!-- Node22&#45;&gt;Node3 -->
<g id="edge45" class="edge">
<title>Node22&#45;&gt;Node3</title>
<path fill="none" stroke="#191970" d="M331.9854,-168.4509C376.7126,-148.5722 479.9584,-102.6852 531.73,-79.6756"/>
<polygon fill="#191970" stroke="#191970" points="533.3524,-82.7847 541.069,-75.5249 530.5094,-76.388 533.3524,-82.7847"/>
</g>
<!-- Node23&#45;&gt;Node2 -->
<g id="edge49" class="edge">
<title>Node23&#45;&gt;Node2</title>
<path fill="none" stroke="#191970" d="M429.506,-168.3733C466.0405,-157.7173 524.3683,-140.7051 559.2992,-130.5169"/>
<polygon fill="#191970" stroke="#191970" points="560.7186,-133.7488 569.3386,-127.5887 558.7586,-127.0288 560.7186,-133.7488"/>
</g>
<!-- Node23&#45;&gt;Node3 -->
<g id="edge48" class="edge">
<title>Node23&#45;&gt;Node3</title>
<path fill="none" stroke="#191970" d="M410.6531,-168.4509C439.4425,-149.0268 505.0368,-104.7703 539.8388,-81.2895"/>
<polygon fill="#191970" stroke="#191970" points="542.0507,-84.0193 548.3828,-75.5249 538.1355,-78.2166 542.0507,-84.0193"/>
</g>
<!-- Node24&#45;&gt;Node2 -->
<g id="edge52" class="edge">
<title>Node24&#45;&gt;Node2</title>
<path fill="none" stroke="#191970" d="M1124.772,-169.9056C1122.0016,-169.1786 1119.2039,-168.5216 1116.5,-168 929.2517,-131.8781 699.1277,-124.094 618.2761,-122.4393"/>
<polygon fill="#191970" stroke="#191970" points="617.9422,-118.9325 607.8782,-122.2442 617.8108,-125.9313 617.9422,-118.9325"/>
</g>
<!-- Node25 -->
<g id="node25" class="node">
<title>Node25</title>
<g id="a_node25"><a xlink:title=" ">
<polygon fill="#ffffff" stroke="#bfbfbf" points="1123,-112.5 1123,-131.5 1176,-131.5 1176,-112.5 1123,-112.5"/>
<text text-anchor="middle" x="1149.5" y="-119.5" font-family="Helvetica,sans-Serif" font-size="10.00" fill="#000000">types.h</text>
</a>
</g>
</g>
<!-- Node24&#45;&gt;Node25 -->
<g id="edge51" class="edge">
<title>Node24&#45;&gt;Node25</title>
<path fill="none" stroke="#191970" d="M1149.5,-168.2455C1149.5,-160.9382 1149.5,-150.6944 1149.5,-141.7046"/>
<polygon fill="#191970" stroke="#191970" points="1153.0001,-141.6426 1149.5,-131.6427 1146.0001,-141.6427 1153.0001,-141.6426"/>
</g>
<!-- Node26&#45;&gt;Node2 -->
<g id="edge54" class="edge">
<title>Node26&#45;&gt;Node2</title>
<path fill="none" stroke="#191970" d="M573.6354,-168.2455C576.01,-160.8579 579.3493,-150.4689 582.2615,-141.4087"/>
<polygon fill="#191970" stroke="#191970" points="585.6725,-142.234 585.4006,-131.6427 579.0083,-140.0919 585.6725,-142.234"/>
</g>
</g>
</svg>
