<?xml version="1.0" encoding="UTF-8" standalone="no"?>
<!DOCTYPE svg PUBLIC "-//W3C//DTD SVG 1.1//EN"
 "http://www.w3.org/Graphics/SVG/1.1/DTD/svg11.dtd">
<!-- Generated by graphviz version 2.40.1 (20161225.0304)
 -->
<!-- Title: iop/usb/usbmass_bd/src/irx_imports.h Pages: 1 -->
<svg width="470pt" height="263pt"
 viewBox="0.00 0.00 470.00 263.00" xmlns="http://www.w3.org/2000/svg" xmlns:xlink="http://www.w3.org/1999/xlink">
<g id="graph0" class="graph" transform="scale(1 1) rotate(0) translate(4 259)">
<title>iop/usb/usbmass_bd/src/irx_imports.h</title>
<polygon fill="#ffffff" stroke="transparent" points="-4,4 -4,-259 466,-259 466,4 -4,4"/>
<!-- Node1 -->
<g id="node1" class="node">
<title>Node1</title>
<g id="a_node1"><a xlink:title=" ">
<polygon fill="#bfbfbf" stroke="#000000" points="175.5,-224.5 175.5,-254.5 291.5,-254.5 291.5,-224.5 175.5,-224.5"/>
<text text-anchor="start" x="183.5" y="-242.5" font-family="Helvetica,sans-Serif" font-size="10.00" fill="#000000">iop/usb/usbmass_bd</text>
<text text-anchor="middle" x="233.5" y="-231.5" font-family="Helvetica,sans-Serif" font-size="10.00" fill="#000000">/src/irx_imports.h</text>
</a>
</g>
</g>
<!-- Node2 -->
<g id="node2" class="node">
<title>Node2</title>
<g id="a_node2"><a xlink:href="irx_8h.html" target="_top" xlink:title=" ">
<polygon fill="#ffffff" stroke="#000000" points="209.5,-112.5 209.5,-131.5 247.5,-131.5 247.5,-112.5 209.5,-112.5"/>
<text text-anchor="middle" x="228.5" y="-119.5" font-family="Helvetica,sans-Serif" font-size="10.00" fill="#000000">irx.h</text>
</a>
</g>
</g>
<!-- Node1&#45;&gt;Node2 -->
<g id="edge1" class="edge">
<title>Node1&#45;&gt;Node2</title>
<path fill="none" stroke="#191970" d="M232.8463,-224.1389C231.9455,-202.9692 230.322,-164.8174 229.3345,-141.6112"/>
<polygon fill="#191970" stroke="#191970" points="232.8289,-141.4016 228.9068,-131.5595 225.8352,-141.6993 232.8289,-141.4016"/>
</g>
<!-- Node6 -->
<g id="node6" class="node">
<title>Node6</title>
<g id="a_node6"><a xlink:href="bdm_8h.html" target="_top" xlink:title=" ">
<polygon fill="#ffffff" stroke="#000000" points="348,-168.5 348,-187.5 395,-187.5 395,-168.5 348,-168.5"/>
<text text-anchor="middle" x="371.5" y="-175.5" font-family="Helvetica,sans-Serif" font-size="10.00" fill="#000000">bdm.h</text>
</a>
</g>
</g>
<!-- Node1&#45;&gt;Node6 -->
<g id="edge5" class="edge">
<title>Node1&#45;&gt;Node6</title>
<path fill="none" stroke="#191970" d="M267.2586,-224.4554C289.7793,-214.419 319.1467,-201.3314 340.9692,-191.6061"/>
<polygon fill="#191970" stroke="#191970" points="342.4056,-194.7979 350.1149,-187.5303 339.5561,-188.4041 342.4056,-194.7979"/>
</g>
<!-- Node8 -->
<g id="node8" class="node">
<title>Node8</title>
<g id="a_node8"><a xlink:href="stdio_8h.html" target="_top" xlink:title=" ">
<polygon fill="#ffffff" stroke="#000000" points="77.5,-168.5 77.5,-187.5 127.5,-187.5 127.5,-168.5 77.5,-168.5"/>
<text text-anchor="middle" x="102.5" y="-175.5" font-family="Helvetica,sans-Serif" font-size="10.00" fill="#000000">stdio.h</text>
</a>
</g>
</g>
<!-- Node1&#45;&gt;Node8 -->
<g id="edge8" class="edge">
<title>Node1&#45;&gt;Node8</title>
<path fill="none" stroke="#191970" d="M201.4538,-224.4554C180.2672,-214.509 152.6972,-201.5659 132.0412,-191.8686"/>
<polygon fill="#191970" stroke="#191970" points="133.3399,-188.6118 122.8004,-187.5303 130.3651,-194.9483 133.3399,-188.6118"/>
</g>
<!-- Node10 -->
<g id="node10" class="node">
<title>Node10</title>
<g id="a_node10"><a xlink:href="sysclib_8h.html" target="_top" xlink:title=" ">
<polygon fill="#ffffff" stroke="#000000" points="0,-168.5 0,-187.5 59,-187.5 59,-168.5 0,-168.5"/>
<text text-anchor="middle" x="29.5" y="-175.5" font-family="Helvetica,sans-Serif" font-size="10.00" fill="#000000">sysclib.h</text>
</a>
</g>
</g>
<!-- Node1&#45;&gt;Node10 -->
<g id="edge11" class="edge">
<title>Node1&#45;&gt;Node10</title>
<path fill="none" stroke="#191970" d="M183.596,-224.4554C148.2126,-213.7884 101.3962,-199.6746 68.6888,-189.8143"/>
<polygon fill="#191970" stroke="#191970" points="69.6041,-186.4347 59.0195,-186.8992 67.5836,-193.1367 69.6041,-186.4347"/>
</g>
<!-- Node12 -->
<g id="node12" class="node">
<title>Node12</title>
<g id="a_node12"><a xlink:href="thbase_8h.html" target="_top" xlink:title=" ">
<polygon fill="#ffffff" stroke="#000000" points="146,-168.5 146,-187.5 205,-187.5 205,-168.5 146,-168.5"/>
<text text-anchor="middle" x="175.5" y="-175.5" font-family="Helvetica,sans-Serif" font-size="10.00" fill="#000000">thbase.h</text>
</a>
</g>
</g>
<!-- Node1&#45;&gt;Node12 -->
<g id="edge17" class="edge">
<title>Node1&#45;&gt;Node12</title>
<path fill="none" stroke="#191970" d="M219.1629,-224.2977C210.8603,-215.4941 200.3818,-204.3833 191.7711,-195.2529"/>
<polygon fill="#191970" stroke="#191970" points="194.1939,-192.7206 184.7865,-187.8469 189.1013,-197.5234 194.1939,-192.7206"/>
</g>
<!-- Node13 -->
<g id="node13" class="node">
<title>Node13</title>
<g id="a_node13"><a xlink:href="thsemap_8h.html" target="_top" xlink:title=" ">
<polygon fill="#ffffff" stroke="#000000" points="261.5,-168.5 261.5,-187.5 329.5,-187.5 329.5,-168.5 261.5,-168.5"/>
<text text-anchor="middle" x="295.5" y="-175.5" font-family="Helvetica,sans-Serif" font-size="10.00" fill="#000000">thsemap.h</text>
</a>
</g>
</g>
<!-- Node1&#45;&gt;Node13 -->
<g id="edge20" class="edge">
<title>Node1&#45;&gt;Node13</title>
<path fill="none" stroke="#191970" d="M248.8258,-224.2977C257.7907,-215.4052 269.1288,-204.1586 278.3851,-194.9769"/>
<polygon fill="#191970" stroke="#191970" points="280.9382,-197.3742 285.573,-187.8469 276.0085,-192.4045 280.9382,-197.3742"/>
</g>
<!-- Node14 -->
<g id="node14" class="node">
<title>Node14</title>
<g id="a_node14"><a xlink:href="usbd_8h.html" target="_top" xlink:title=" ">
<polygon fill="#ffffff" stroke="#000000" points="413,-168.5 413,-187.5 462,-187.5 462,-168.5 413,-168.5"/>
<text text-anchor="middle" x="437.5" y="-175.5" font-family="Helvetica,sans-Serif" font-size="10.00" fill="#000000">usbd.h</text>
</a>
</g>
</g>
<!-- Node1&#45;&gt;Node14 -->
<g id="edge23" class="edge">
<title>Node1&#45;&gt;Node14</title>
<path fill="none" stroke="#191970" d="M283.639,-224.4242C315.461,-214.8503 357.7671,-202.112 403.2435,-188.3767"/>
<polygon fill="#191970" stroke="#191970" points="404.4325,-191.6738 412.9931,-185.4314 402.4082,-184.9729 404.4325,-191.6738"/>
</g>
<!-- Node3 -->
<g id="node3" class="node">
<title>Node3</title>
<g id="a_node3"><a xlink:href="types_8h.html" target="_top" xlink:title=" ">
<polygon fill="#ffffff" stroke="#000000" points="149,-56.5 149,-75.5 202,-75.5 202,-56.5 149,-56.5"/>
<text text-anchor="middle" x="175.5" y="-63.5" font-family="Helvetica,sans-Serif" font-size="10.00" fill="#000000">types.h</text>
</a>
</g>
</g>
<!-- Node2&#45;&gt;Node3 -->
<g id="edge2" class="edge">
<title>Node2&#45;&gt;Node3</title>
<path fill="none" stroke="#191970" d="M219.2681,-112.2455C211.6683,-104.2155 200.7123,-92.6394 191.6632,-83.0781"/>
<polygon fill="#191970" stroke="#191970" points="194.042,-80.4998 184.6261,-75.6427 188.9579,-85.3115 194.042,-80.4998"/>
</g>
<!-- Node4 -->
<g id="node4" class="node">
<title>Node4</title>
<g id="a_node4"><a xlink:title=" ">
<polygon fill="#ffffff" stroke="#bfbfbf" points="147.5,-.5 147.5,-19.5 203.5,-19.5 203.5,-.5 147.5,-.5"/>
<text text-anchor="middle" x="175.5" y="-7.5" font-family="Helvetica,sans-Serif" font-size="10.00" fill="#000000">stddef.h</text>
</a>
</g>
</g>
<!-- Node3&#45;&gt;Node4 -->
<g id="edge3" class="edge">
<title>Node3&#45;&gt;Node4</title>
<path fill="none" stroke="#191970" d="M175.5,-56.2455C175.5,-48.9382 175.5,-38.6944 175.5,-29.7046"/>
<polygon fill="#191970" stroke="#191970" points="179.0001,-29.6426 175.5,-19.6427 172.0001,-29.6427 179.0001,-29.6426"/>
</g>
<!-- Node5 -->
<g id="node5" class="node">
<title>Node5</title>
<g id="a_node5"><a xlink:href="tamtypes_8h.html" target="_top" xlink:title=" ">
<polygon fill="#ffffff" stroke="#000000" points="40.5,-.5 40.5,-19.5 112.5,-19.5 112.5,-.5 40.5,-.5"/>
<text text-anchor="middle" x="76.5" y="-7.5" font-family="Helvetica,sans-Serif" font-size="10.00" fill="#000000">tamtypes.h</text>
</a>
</g>
</g>
<!-- Node3&#45;&gt;Node5 -->
<g id="edge4" class="edge">
<title>Node3&#45;&gt;Node5</title>
<path fill="none" stroke="#191970" d="M158.2555,-56.2455C142.9239,-47.5731 120.2801,-34.7645 102.7084,-24.825"/>
<polygon fill="#191970" stroke="#191970" points="103.9741,-21.5198 93.5469,-19.6427 100.5276,-27.6126 103.9741,-21.5198"/>
</g>
<!-- Node6&#45;&gt;Node2 -->
<g id="edge6" class="edge">
<title>Node6&#45;&gt;Node2</title>
<path fill="none" stroke="#191970" d="M347.8865,-168.7527C322.9855,-159.0013 283.7434,-143.6338 257.1043,-133.2017"/>
<polygon fill="#191970" stroke="#191970" points="258.1556,-129.8546 247.5678,-129.4671 255.603,-136.3726 258.1556,-129.8546"/>
</g>
<!-- Node7 -->
<g id="node7" class="node">
<title>Node7</title>
<g id="a_node7"><a xlink:title=" ">
<polygon fill="#ffffff" stroke="#bfbfbf" points="378,-112.5 378,-131.5 431,-131.5 431,-112.5 378,-112.5"/>
<text text-anchor="middle" x="404.5" y="-119.5" font-family="Helvetica,sans-Serif" font-size="10.00" fill="#000000">types.h</text>
</a>
</g>
</g>
<!-- Node6&#45;&gt;Node7 -->
<g id="edge7" class="edge">
<title>Node6&#45;&gt;Node7</title>
<path fill="none" stroke="#191970" d="M377.2482,-168.2455C381.7435,-160.617 388.1248,-149.7881 393.5825,-140.5267"/>
<polygon fill="#191970" stroke="#191970" points="396.7561,-142.035 398.8177,-131.6427 390.7253,-138.4811 396.7561,-142.035"/>
</g>
<!-- Node8&#45;&gt;Node2 -->
<g id="edge10" class="edge">
<title>Node8&#45;&gt;Node2</title>
<path fill="none" stroke="#191970" d="M124.1602,-168.3733C145.0928,-159.0699 176.9271,-144.9213 199.9268,-134.6992"/>
<polygon fill="#191970" stroke="#191970" points="201.4687,-137.8441 209.1854,-130.5843 198.6257,-131.4474 201.4687,-137.8441"/>
</g>
<!-- Node9 -->
<g id="node9" class="node">
<title>Node9</title>
<g id="a_node9"><a xlink:title=" ">
<polygon fill="#ffffff" stroke="#bfbfbf" points="83.5,-112.5 83.5,-131.5 139.5,-131.5 139.5,-112.5 83.5,-112.5"/>
<text text-anchor="middle" x="111.5" y="-119.5" font-family="Helvetica,sans-Serif" font-size="10.00" fill="#000000">stdarg.h</text>
</a>
</g>
</g>
<!-- Node8&#45;&gt;Node9 -->
<g id="edge9" class="edge">
<title>Node8&#45;&gt;Node9</title>
<path fill="none" stroke="#191970" d="M104.0677,-168.2455C105.2421,-160.9382 106.8884,-150.6944 108.3332,-141.7046"/>
<polygon fill="#191970" stroke="#191970" points="111.8191,-142.0714 109.9503,-131.6427 104.9078,-140.9606 111.8191,-142.0714"/>
</g>
<!-- Node10&#45;&gt;Node2 -->
<g id="edge13" class="edge">
<title>Node10&#45;&gt;Node2</title>
<path fill="none" stroke="#191970" d="M59.2923,-169.6162C97.1518,-158.9623 162.0698,-140.6939 199.5317,-130.1519"/>
<polygon fill="#191970" stroke="#191970" points="200.6465,-133.4742 209.3245,-127.3961 198.7502,-126.7359 200.6465,-133.4742"/>
</g>
<!-- Node10&#45;&gt;Node3 -->
<g id="edge12" class="edge">
<title>Node10&#45;&gt;Node3</title>
<path fill="none" stroke="#191970" d="M33.9946,-168.2545C40.9152,-154.1764 55.4053,-128.0791 74.5,-112 93.3719,-96.1084 118.6335,-84.6058 139.1713,-77.0774"/>
<polygon fill="#191970" stroke="#191970" points="140.5427,-80.3057 148.8254,-73.6991 138.2305,-73.6986 140.5427,-80.3057"/>
</g>
<!-- Node10&#45;&gt;Node9 -->
<g id="edge14" class="edge">
<title>Node10&#45;&gt;Node9</title>
<path fill="none" stroke="#191970" d="M43.7833,-168.2455C56.247,-159.7337 74.5451,-147.2375 88.9792,-137.3801"/>
<polygon fill="#191970" stroke="#191970" points="91.0962,-140.1726 97.3804,-131.6427 87.1485,-134.392 91.0962,-140.1726"/>
</g>
<!-- Node11 -->
<g id="node11" class="node">
<title>Node11</title>
<g id="a_node11"><a xlink:href="setjmp_8h.html" target="_top" xlink:title=" ">
<polygon fill="#ffffff" stroke="#000000" points="13,-56.5 13,-75.5 72,-75.5 72,-56.5 13,-56.5"/>
<text text-anchor="middle" x="42.5" y="-63.5" font-family="Helvetica,sans-Serif" font-size="10.00" fill="#000000">setjmp.h</text>
</a>
</g>
</g>
<!-- Node10&#45;&gt;Node11 -->
<g id="edge15" class="edge">
<title>Node10&#45;&gt;Node11</title>
<path fill="none" stroke="#191970" d="M30.6084,-168.4509C32.7286,-150.184 37.398,-109.9553 40.2137,-85.6976"/>
<polygon fill="#191970" stroke="#191970" points="43.718,-85.8618 41.3944,-75.5249 36.7647,-85.0546 43.718,-85.8618"/>
</g>
<!-- Node11&#45;&gt;Node5 -->
<g id="edge16" class="edge">
<title>Node11&#45;&gt;Node5</title>
<path fill="none" stroke="#191970" d="M48.4223,-56.2455C53.1027,-48.5367 59.7673,-37.5598 65.4289,-28.2348"/>
<polygon fill="#191970" stroke="#191970" points="68.4475,-30.007 70.6455,-19.6427 62.4639,-26.3741 68.4475,-30.007"/>
</g>
<!-- Node12&#45;&gt;Node2 -->
<g id="edge19" class="edge">
<title>Node12&#45;&gt;Node2</title>
<path fill="none" stroke="#191970" d="M184.7319,-168.2455C192.3317,-160.2155 203.2877,-148.6394 212.3368,-139.0781"/>
<polygon fill="#191970" stroke="#191970" points="215.0421,-141.3115 219.3739,-131.6427 209.958,-136.4998 215.0421,-141.3115"/>
</g>
<!-- Node12&#45;&gt;Node3 -->
<g id="edge18" class="edge">
<title>Node12&#45;&gt;Node3</title>
<path fill="none" stroke="#191970" d="M175.5,-168.4509C175.5,-150.184 175.5,-109.9553 175.5,-85.6976"/>
<polygon fill="#191970" stroke="#191970" points="179.0001,-85.5249 175.5,-75.5249 172.0001,-85.5249 179.0001,-85.5249"/>
</g>
<!-- Node13&#45;&gt;Node2 -->
<g id="edge22" class="edge">
<title>Node13&#45;&gt;Node2</title>
<path fill="none" stroke="#191970" d="M283.8295,-168.2455C273.9339,-159.9746 259.5373,-147.9416 247.9099,-138.2232"/>
<polygon fill="#191970" stroke="#191970" points="249.9542,-135.3703 240.0368,-131.6427 245.465,-140.7413 249.9542,-135.3703"/>
</g>
<!-- Node13&#45;&gt;Node3 -->
<g id="edge21" class="edge">
<title>Node13&#45;&gt;Node3</title>
<path fill="none" stroke="#191970" d="M291.7465,-168.4434C285.9254,-154.6005 273.5852,-128.7935 256.5,-112 242.9375,-98.6691 224.7436,-87.8792 209.035,-80.1087"/>
<polygon fill="#191970" stroke="#191970" points="210.1753,-76.7764 199.6389,-75.665 207.1825,-83.1044 210.1753,-76.7764"/>
</g>
<!-- Node14&#45;&gt;Node2 -->
<g id="edge25" class="edge">
<title>Node14&#45;&gt;Node2</title>
<path fill="none" stroke="#191970" d="M412.6639,-170.3618C409.9137,-169.5494 407.1503,-168.7476 404.5,-168 352.9886,-153.4695 292.549,-138.0186 257.5756,-129.2335"/>
<polygon fill="#191970" stroke="#191970" points="258.1282,-125.7638 247.5775,-126.7295 256.4275,-132.5541 258.1282,-125.7638"/>
</g>
<!-- Node14&#45;&gt;Node7 -->
<g id="edge24" class="edge">
<title>Node14&#45;&gt;Node7</title>
<path fill="none" stroke="#191970" d="M431.7518,-168.2455C427.2565,-160.617 420.8752,-149.7881 415.4175,-140.5267"/>
<polygon fill="#191970" stroke="#191970" points="418.2747,-138.4811 410.1823,-131.6427 412.2439,-142.035 418.2747,-138.4811"/>
</g>
</g>
</svg>
