<?xml version="1.0" encoding="UTF-8" standalone="no"?>
<!DOCTYPE svg PUBLIC "-//W3C//DTD SVG 1.1//EN"
 "http://www.w3.org/Graphics/SVG/1.1/DTD/svg11.dtd">
<!-- Generated by graphviz version 2.40.1 (20161225.0304)
 -->
<!-- Title: iop/usb/usbd/src/usbd.c Pages: 1 -->
<svg width="473pt" height="364pt"
 viewBox="0.00 0.00 473.00 364.00" xmlns="http://www.w3.org/2000/svg" xmlns:xlink="http://www.w3.org/1999/xlink">
<g id="graph0" class="graph" transform="scale(1 1) rotate(0) translate(4 360)">
<title>iop/usb/usbd/src/usbd.c</title>
<polygon fill="#ffffff" stroke="transparent" points="-4,4 -4,-360 469,-360 469,4 -4,4"/>
<!-- Node1 -->
<g id="node1" class="node">
<title>Node1</title>
<g id="a_node1"><a xlink:title=" ">
<polygon fill="#bfbfbf" stroke="#000000" points="176,-336.5 176,-355.5 306,-355.5 306,-336.5 176,-336.5"/>
<text text-anchor="middle" x="241" y="-343.5" font-family="Helvetica,sans-Serif" font-size="10.00" fill="#000000">iop/usb/usbd/src/usbd.c</text>
</a>
</g>
</g>
<!-- Node2 -->
<g id="node2" class="node">
<title>Node2</title>
<g id="a_node2"><a xlink:href="usbdpriv_8h.html" target="_top" xlink:title=" ">
<polygon fill="#ffffff" stroke="#000000" points="55.5,-224.5 55.5,-243.5 122.5,-243.5 122.5,-224.5 55.5,-224.5"/>
<text text-anchor="middle" x="89" y="-231.5" font-family="Helvetica,sans-Serif" font-size="10.00" fill="#000000">usbdpriv.h</text>
</a>
</g>
</g>
<!-- Node1&#45;&gt;Node2 -->
<g id="edge1" class="edge">
<title>Node1&#45;&gt;Node2</title>
<path fill="none" stroke="#191970" d="M188.0036,-336.493C149.8317,-328.4597 103.0203,-315.7541 91,-300 81.0258,-286.9275 81.6009,-267.7841 84.0349,-253.4769"/>
<polygon fill="#191970" stroke="#191970" points="87.4662,-254.1677 86.1147,-243.6594 80.6182,-252.7169 87.4662,-254.1677"/>
</g>
<!-- Node9 -->
<g id="node9" class="node">
<title>Node9</title>
<g id="a_node9"><a xlink:href="mem_8h.html" target="_top" xlink:title=" ">
<polygon fill="#ffffff" stroke="#000000" points="100.5,-280.5 100.5,-299.5 151.5,-299.5 151.5,-280.5 100.5,-280.5"/>
<text text-anchor="middle" x="126" y="-287.5" font-family="Helvetica,sans-Serif" font-size="10.00" fill="#000000">mem.h</text>
</a>
</g>
</g>
<!-- Node1&#45;&gt;Node9 -->
<g id="edge9" class="edge">
<title>Node1&#45;&gt;Node9</title>
<path fill="none" stroke="#191970" d="M221.2308,-336.3733C202.8531,-327.4241 175.2688,-313.9917 154.5107,-303.8835"/>
<polygon fill="#191970" stroke="#191970" points="156.0343,-300.7325 145.5112,-299.5011 152.9696,-307.026 156.0343,-300.7325"/>
</g>
<!-- Node10 -->
<g id="node10" class="node">
<title>Node10</title>
<g id="a_node10"><a xlink:href="hcd_8h.html" target="_top" xlink:title=" ">
<polygon fill="#ffffff" stroke="#000000" points="169.5,-280.5 169.5,-299.5 212.5,-299.5 212.5,-280.5 169.5,-280.5"/>
<text text-anchor="middle" x="191" y="-287.5" font-family="Helvetica,sans-Serif" font-size="10.00" fill="#000000">hcd.h</text>
</a>
</g>
</g>
<!-- Node1&#45;&gt;Node10 -->
<g id="edge11" class="edge">
<title>Node1&#45;&gt;Node10</title>
<path fill="none" stroke="#191970" d="M232.2907,-336.2455C225.1927,-328.2958 214.9916,-316.8706 206.505,-307.3656"/>
<polygon fill="#191970" stroke="#191970" points="208.8805,-304.771 199.6095,-299.6427 203.6589,-309.4331 208.8805,-304.771"/>
</g>
<!-- Node11 -->
<g id="node11" class="node">
<title>Node11</title>
<g id="a_node11"><a xlink:href="hub_8h.html" target="_top" xlink:title=" ">
<polygon fill="#ffffff" stroke="#000000" points="0,-280.5 0,-299.5 44,-299.5 44,-280.5 0,-280.5"/>
<text text-anchor="middle" x="22" y="-287.5" font-family="Helvetica,sans-Serif" font-size="10.00" fill="#000000">hub.h</text>
</a>
</g>
</g>
<!-- Node1&#45;&gt;Node11 -->
<g id="edge13" class="edge">
<title>Node1&#45;&gt;Node11</title>
<path fill="none" stroke="#191970" d="M202.0165,-336.4965C164.9189,-327.3829 107.5633,-313.1109 58,-300 56.7301,-299.6641 55.4359,-299.3187 54.1291,-298.9676"/>
<polygon fill="#191970" stroke="#191970" points="54.63,-295.4763 44.0613,-296.2209 52.7875,-302.2295 54.63,-295.4763"/>
</g>
<!-- Node12 -->
<g id="node12" class="node">
<title>Node12</title>
<g id="a_node12"><a xlink:href="usbio_8h.html" target="_top" xlink:title=" ">
<polygon fill="#ffffff" stroke="#000000" points="383,-280.5 383,-299.5 435,-299.5 435,-280.5 383,-280.5"/>
<text text-anchor="middle" x="409" y="-287.5" font-family="Helvetica,sans-Serif" font-size="10.00" fill="#000000">usbio.h</text>
</a>
</g>
</g>
<!-- Node1&#45;&gt;Node12 -->
<g id="edge15" class="edge">
<title>Node1&#45;&gt;Node12</title>
<path fill="none" stroke="#191970" d="M269.8802,-336.3733C298.578,-326.8073 342.6431,-312.119 373.4696,-301.8435"/>
<polygon fill="#191970" stroke="#191970" points="374.5967,-305.1572 382.9767,-298.6744 372.3831,-298.5164 374.5967,-305.1572"/>
</g>
<!-- Node13 -->
<g id="node13" class="node">
<title>Node13</title>
<g id="a_node13"><a xlink:href="stdio_8h.html" target="_top" xlink:title=" ">
<polygon fill="#ffffff" stroke="#000000" points="165,-168.5 165,-187.5 215,-187.5 215,-168.5 165,-168.5"/>
<text text-anchor="middle" x="190" y="-175.5" font-family="Helvetica,sans-Serif" font-size="10.00" fill="#000000">stdio.h</text>
</a>
</g>
</g>
<!-- Node1&#45;&gt;Node13 -->
<g id="edge16" class="edge">
<title>Node1&#45;&gt;Node13</title>
<path fill="none" stroke="#191970" d="M238.2399,-336.1386C234.6055,-323.2183 227.9754,-299.8681 222,-280 213.3005,-251.0746 202.7289,-217.7022 196.1816,-197.2279"/>
<polygon fill="#191970" stroke="#191970" points="199.4614,-195.9934 193.0757,-187.5392 192.7955,-198.1304 199.4614,-195.9934"/>
</g>
<!-- Node15 -->
<g id="node15" class="node">
<title>Node15</title>
<g id="a_node15"><a xlink:href="sysclib_8h.html" target="_top" xlink:title=" ">
<polygon fill="#ffffff" stroke="#000000" points="233.5,-168.5 233.5,-187.5 292.5,-187.5 292.5,-168.5 233.5,-168.5"/>
<text text-anchor="middle" x="263" y="-175.5" font-family="Helvetica,sans-Serif" font-size="10.00" fill="#000000">sysclib.h</text>
</a>
</g>
</g>
<!-- Node1&#45;&gt;Node15 -->
<g id="edge19" class="edge">
<title>Node1&#45;&gt;Node15</title>
<path fill="none" stroke="#191970" d="M244.6698,-336.2909C247.9752,-327.0902 252.6627,-312.8111 255,-300 261.5119,-264.3076 262.8944,-221.8889 263.0942,-197.6384"/>
<polygon fill="#191970" stroke="#191970" points="266.5942,-197.5901 263.1157,-187.5826 259.5942,-197.575 266.5942,-197.5901"/>
</g>
<!-- Node17 -->
<g id="node17" class="node">
<title>Node17</title>
<g id="a_node17"><a xlink:href="thsemap_8h.html" target="_top" xlink:title=" ">
<polygon fill="#ffffff" stroke="#000000" points="397,-168.5 397,-187.5 465,-187.5 465,-168.5 397,-168.5"/>
<text text-anchor="middle" x="431" y="-175.5" font-family="Helvetica,sans-Serif" font-size="10.00" fill="#000000">thsemap.h</text>
</a>
</g>
</g>
<!-- Node1&#45;&gt;Node17 -->
<g id="edge25" class="edge">
<title>Node1&#45;&gt;Node17</title>
<path fill="none" stroke="#191970" d="M251.7596,-336.4862C282.8344,-309.0096 372.9973,-229.2866 412.3081,-194.5276"/>
<polygon fill="#191970" stroke="#191970" points="414.7121,-197.074 419.8851,-187.8279 410.0752,-191.8299 414.7121,-197.074"/>
</g>
<!-- Node18 -->
<g id="node18" class="node">
<title>Node18</title>
<g id="a_node18"><a xlink:href="loadcore_8h.html" target="_top" xlink:title=" ">
<polygon fill="#ffffff" stroke="#000000" points="311,-168.5 311,-187.5 379,-187.5 379,-168.5 311,-168.5"/>
<text text-anchor="middle" x="345" y="-175.5" font-family="Helvetica,sans-Serif" font-size="10.00" fill="#000000">loadcore.h</text>
</a>
</g>
</g>
<!-- Node1&#45;&gt;Node18 -->
<g id="edge28" class="edge">
<title>Node1&#45;&gt;Node18</title>
<path fill="none" stroke="#191970" d="M247.255,-336.1497C253.1502,-326.8491 262.2164,-312.5025 270,-300 292.8672,-263.2695 319.3026,-220.1001 333.8881,-196.219"/>
<polygon fill="#191970" stroke="#191970" points="336.979,-197.873 339.2016,-187.5139 331.0041,-194.2259 336.979,-197.873"/>
</g>
<!-- Node3 -->
<g id="node3" class="node">
<title>Node3</title>
<g id="a_node3"><a xlink:href="usbd_8h.html" target="_top" xlink:title=" ">
<polygon fill="#ffffff" stroke="#000000" points="97.5,-168.5 97.5,-187.5 146.5,-187.5 146.5,-168.5 97.5,-168.5"/>
<text text-anchor="middle" x="122" y="-175.5" font-family="Helvetica,sans-Serif" font-size="10.00" fill="#000000">usbd.h</text>
</a>
</g>
</g>
<!-- Node2&#45;&gt;Node3 -->
<g id="edge2" class="edge">
<title>Node2&#45;&gt;Node3</title>
<path fill="none" stroke="#191970" d="M94.7482,-224.2455C99.2435,-216.617 105.6248,-205.7881 111.0825,-196.5267"/>
<polygon fill="#191970" stroke="#191970" points="114.2561,-198.035 116.3177,-187.6427 108.2253,-194.4811 114.2561,-198.035"/>
</g>
<!-- Node4 -->
<g id="node4" class="node">
<title>Node4</title>
<g id="a_node4"><a xlink:title=" ">
<polygon fill="#ffffff" stroke="#bfbfbf" points="66.5,-112.5 66.5,-131.5 119.5,-131.5 119.5,-112.5 66.5,-112.5"/>
<text text-anchor="middle" x="93" y="-119.5" font-family="Helvetica,sans-Serif" font-size="10.00" fill="#000000">types.h</text>
</a>
</g>
</g>
<!-- Node2&#45;&gt;Node4 -->
<g id="edge8" class="edge">
<title>Node2&#45;&gt;Node4</title>
<path fill="none" stroke="#191970" d="M88.4258,-224.1517C87.7708,-211.2456 86.9211,-187.9106 88,-168 88.4662,-159.3971 89.4193,-149.9288 90.3696,-141.8301"/>
<polygon fill="#191970" stroke="#191970" points="93.8502,-142.2023 91.6176,-131.8453 86.9043,-141.334 93.8502,-142.2023"/>
</g>
<!-- Node3&#45;&gt;Node4 -->
<g id="edge3" class="edge">
<title>Node3&#45;&gt;Node4</title>
<path fill="none" stroke="#191970" d="M116.9486,-168.2455C112.9981,-160.617 107.3903,-149.7881 102.5942,-140.5267"/>
<polygon fill="#191970" stroke="#191970" points="105.7001,-138.9131 97.9935,-131.6427 99.4841,-142.1321 105.7001,-138.9131"/>
</g>
<!-- Node5 -->
<g id="node5" class="node">
<title>Node5</title>
<g id="a_node5"><a xlink:href="irx_8h.html" target="_top" xlink:title=" ">
<polygon fill="#ffffff" stroke="#000000" points="274,-112.5 274,-131.5 312,-131.5 312,-112.5 274,-112.5"/>
<text text-anchor="middle" x="293" y="-119.5" font-family="Helvetica,sans-Serif" font-size="10.00" fill="#000000">irx.h</text>
</a>
</g>
</g>
<!-- Node3&#45;&gt;Node5 -->
<g id="edge4" class="edge">
<title>Node3&#45;&gt;Node5</title>
<path fill="none" stroke="#191970" d="M146.5001,-169.9766C177.6335,-159.7808 231.2829,-142.2114 264.2992,-131.3991"/>
<polygon fill="#191970" stroke="#191970" points="265.4214,-134.7146 273.8354,-128.2761 263.2428,-128.0622 265.4214,-134.7146"/>
</g>
<!-- Node6 -->
<g id="node6" class="node">
<title>Node6</title>
<g id="a_node6"><a xlink:href="types_8h.html" target="_top" xlink:title=" ">
<polygon fill="#ffffff" stroke="#000000" points="313.5,-56.5 313.5,-75.5 366.5,-75.5 366.5,-56.5 313.5,-56.5"/>
<text text-anchor="middle" x="340" y="-63.5" font-family="Helvetica,sans-Serif" font-size="10.00" fill="#000000">types.h</text>
</a>
</g>
</g>
<!-- Node5&#45;&gt;Node6 -->
<g id="edge5" class="edge">
<title>Node5&#45;&gt;Node6</title>
<path fill="none" stroke="#191970" d="M301.1868,-112.2455C307.8589,-104.2958 317.4479,-92.8706 325.4253,-83.3656"/>
<polygon fill="#191970" stroke="#191970" points="328.1592,-85.5525 331.907,-75.6427 322.7974,-81.0524 328.1592,-85.5525"/>
</g>
<!-- Node7 -->
<g id="node7" class="node">
<title>Node7</title>
<g id="a_node7"><a xlink:title=" ">
<polygon fill="#ffffff" stroke="#bfbfbf" points="312,-.5 312,-19.5 368,-19.5 368,-.5 312,-.5"/>
<text text-anchor="middle" x="340" y="-7.5" font-family="Helvetica,sans-Serif" font-size="10.00" fill="#000000">stddef.h</text>
</a>
</g>
</g>
<!-- Node6&#45;&gt;Node7 -->
<g id="edge6" class="edge">
<title>Node6&#45;&gt;Node7</title>
<path fill="none" stroke="#191970" d="M340,-56.2455C340,-48.9382 340,-38.6944 340,-29.7046"/>
<polygon fill="#191970" stroke="#191970" points="343.5001,-29.6426 340,-19.6427 336.5001,-29.6427 343.5001,-29.6426"/>
</g>
<!-- Node8 -->
<g id="node8" class="node">
<title>Node8</title>
<g id="a_node8"><a xlink:href="tamtypes_8h.html" target="_top" xlink:title=" ">
<polygon fill="#ffffff" stroke="#000000" points="219,-.5 219,-19.5 291,-19.5 291,-.5 219,-.5"/>
<text text-anchor="middle" x="255" y="-7.5" font-family="Helvetica,sans-Serif" font-size="10.00" fill="#000000">tamtypes.h</text>
</a>
</g>
</g>
<!-- Node6&#45;&gt;Node8 -->
<g id="edge7" class="edge">
<title>Node6&#45;&gt;Node8</title>
<path fill="none" stroke="#191970" d="M325.1941,-56.2455C312.2744,-47.7337 293.3069,-35.2375 278.3448,-25.3801"/>
<polygon fill="#191970" stroke="#191970" points="279.9124,-22.2216 269.6362,-19.6427 276.0613,-28.067 279.9124,-22.2216"/>
</g>
<!-- Node9&#45;&gt;Node2 -->
<g id="edge10" class="edge">
<title>Node9&#45;&gt;Node2</title>
<path fill="none" stroke="#191970" d="M119.5551,-280.2455C114.4618,-272.5367 107.2092,-261.5598 101.048,-252.2348"/>
<polygon fill="#191970" stroke="#191970" points="103.8038,-250.0566 95.3711,-243.6427 97.9635,-253.9155 103.8038,-250.0566"/>
</g>
<!-- Node10&#45;&gt;Node2 -->
<g id="edge12" class="edge">
<title>Node10&#45;&gt;Node2</title>
<path fill="none" stroke="#191970" d="M173.233,-280.2455C157.2905,-271.4928 133.6741,-258.527 115.5011,-248.5496"/>
<polygon fill="#191970" stroke="#191970" points="117.0137,-245.3873 106.5634,-243.6427 113.6448,-251.5233 117.0137,-245.3873"/>
</g>
<!-- Node11&#45;&gt;Node2 -->
<g id="edge14" class="edge">
<title>Node11&#45;&gt;Node2</title>
<path fill="none" stroke="#191970" d="M33.6705,-280.2455C43.5661,-271.9746 57.9627,-259.9416 69.5901,-250.2232"/>
<polygon fill="#191970" stroke="#191970" points="72.035,-252.7413 77.4632,-243.6427 67.5458,-247.3703 72.035,-252.7413"/>
</g>
<!-- Node13&#45;&gt;Node5 -->
<g id="edge18" class="edge">
<title>Node13&#45;&gt;Node5</title>
<path fill="none" stroke="#191970" d="M207.9412,-168.2455C224.04,-159.4928 247.8879,-146.527 266.2391,-136.5496"/>
<polygon fill="#191970" stroke="#191970" points="268.1507,-139.4942 275.2644,-131.6427 264.8071,-133.3444 268.1507,-139.4942"/>
</g>
<!-- Node14 -->
<g id="node14" class="node">
<title>Node14</title>
<g id="a_node14"><a xlink:title=" ">
<polygon fill="#ffffff" stroke="#bfbfbf" points="162,-112.5 162,-131.5 218,-131.5 218,-112.5 162,-112.5"/>
<text text-anchor="middle" x="190" y="-119.5" font-family="Helvetica,sans-Serif" font-size="10.00" fill="#000000">stdarg.h</text>
</a>
</g>
</g>
<!-- Node13&#45;&gt;Node14 -->
<g id="edge17" class="edge">
<title>Node13&#45;&gt;Node14</title>
<path fill="none" stroke="#191970" d="M190,-168.2455C190,-160.9382 190,-150.6944 190,-141.7046"/>
<polygon fill="#191970" stroke="#191970" points="193.5001,-141.6426 190,-131.6427 186.5001,-141.6427 193.5001,-141.6426"/>
</g>
<!-- Node15&#45;&gt;Node5 -->
<g id="edge21" class="edge">
<title>Node15&#45;&gt;Node5</title>
<path fill="none" stroke="#191970" d="M268.2256,-168.2455C272.3123,-160.617 278.1135,-149.7881 283.075,-140.5267"/>
<polygon fill="#191970" stroke="#191970" points="286.1972,-142.1103 287.8343,-131.6427 280.0268,-138.8047 286.1972,-142.1103"/>
</g>
<!-- Node15&#45;&gt;Node6 -->
<g id="edge20" class="edge">
<title>Node15&#45;&gt;Node6</title>
<path fill="none" stroke="#191970" d="M280.1383,-168.454C293.1599,-160.3582 310.5561,-147.5886 321,-132 330.3215,-118.0868 335.1338,-99.5736 337.579,-85.6961"/>
<polygon fill="#191970" stroke="#191970" points="341.0506,-86.1455 339.0733,-75.7368 334.1281,-85.1067 341.0506,-86.1455"/>
</g>
<!-- Node15&#45;&gt;Node14 -->
<g id="edge22" class="edge">
<title>Node15&#45;&gt;Node14</title>
<path fill="none" stroke="#191970" d="M250.2844,-168.2455C239.398,-159.8943 223.5117,-147.7076 210.78,-137.9408"/>
<polygon fill="#191970" stroke="#191970" points="212.6346,-134.9523 202.5699,-131.6427 208.3739,-140.5063 212.6346,-134.9523"/>
</g>
<!-- Node16 -->
<g id="node16" class="node">
<title>Node16</title>
<g id="a_node16"><a xlink:href="setjmp_8h.html" target="_top" xlink:title=" ">
<polygon fill="#ffffff" stroke="#000000" points="219.5,-56.5 219.5,-75.5 278.5,-75.5 278.5,-56.5 219.5,-56.5"/>
<text text-anchor="middle" x="249" y="-63.5" font-family="Helvetica,sans-Serif" font-size="10.00" fill="#000000">setjmp.h</text>
</a>
</g>
</g>
<!-- Node15&#45;&gt;Node16 -->
<g id="edge23" class="edge">
<title>Node15&#45;&gt;Node16</title>
<path fill="none" stroke="#191970" d="M261.8064,-168.4509C259.523,-150.184 254.4944,-109.9553 251.4622,-85.6976"/>
<polygon fill="#191970" stroke="#191970" points="254.904,-85.0135 250.1906,-75.5249 247.9581,-85.8818 254.904,-85.0135"/>
</g>
<!-- Node16&#45;&gt;Node8 -->
<g id="edge24" class="edge">
<title>Node16&#45;&gt;Node8</title>
<path fill="none" stroke="#191970" d="M250.0451,-56.2455C250.828,-48.9382 251.9256,-38.6944 252.8888,-29.7046"/>
<polygon fill="#191970" stroke="#191970" points="256.3815,-29.9587 253.9669,-19.6427 249.4214,-29.2129 256.3815,-29.9587"/>
</g>
<!-- Node17&#45;&gt;Node5 -->
<g id="edge27" class="edge">
<title>Node17&#45;&gt;Node5</title>
<path fill="none" stroke="#191970" d="M407.277,-168.3733C383.6018,-158.7659 347.1938,-143.9917 321.8575,-133.7103"/>
<polygon fill="#191970" stroke="#191970" points="322.9909,-130.3931 312.4087,-129.876 320.3588,-136.8794 322.9909,-130.3931"/>
</g>
<!-- Node17&#45;&gt;Node6 -->
<g id="edge26" class="edge">
<title>Node17&#45;&gt;Node6</title>
<path fill="none" stroke="#191970" d="M423.2414,-168.4509C407.9294,-149.6054 373.6252,-107.3849 354.1715,-83.4419"/>
<polygon fill="#191970" stroke="#191970" points="356.7613,-81.079 347.739,-75.5249 351.3285,-85.4931 356.7613,-81.079"/>
</g>
<!-- Node18&#45;&gt;Node5 -->
<g id="edge30" class="edge">
<title>Node18&#45;&gt;Node5</title>
<path fill="none" stroke="#191970" d="M335.9423,-168.2455C328.4858,-160.2155 317.7366,-148.6394 308.8583,-139.0781"/>
<polygon fill="#191970" stroke="#191970" points="311.3232,-136.589 301.9539,-131.6427 306.1937,-141.3522 311.3232,-136.589"/>
</g>
<!-- Node18&#45;&gt;Node6 -->
<g id="edge29" class="edge">
<title>Node18&#45;&gt;Node6</title>
<path fill="none" stroke="#191970" d="M348.0902,-168.1494C351.7395,-155.2406 356.9616,-131.9029 354,-112 352.6673,-103.0439 349.9506,-93.419 347.2619,-85.3"/>
<polygon fill="#191970" stroke="#191970" points="350.4936,-83.9402 343.8624,-75.6772 343.8933,-86.272 350.4936,-83.9402"/>
</g>
</g>
</svg>
