<?xml version="1.0" encoding="UTF-8" standalone="no"?>
<!DOCTYPE svg PUBLIC "-//W3C//DTD SVG 1.1//EN"
 "http://www.w3.org/Graphics/SVG/1.1/DTD/svg11.dtd">
<!-- Generated by graphviz version 2.40.1 (20161225.0304)
 -->
<!-- Title: iop/usb/usbd/src/usbdpriv.h Pages: 1 -->
<svg width="198pt" height="252pt"
 viewBox="0.00 0.00 197.50 252.00" xmlns="http://www.w3.org/2000/svg" xmlns:xlink="http://www.w3.org/1999/xlink">
<g id="graph0" class="graph" transform="scale(1 1) rotate(0) translate(4 248)">
<title>iop/usb/usbd/src/usbdpriv.h</title>
<polygon fill="#ffffff" stroke="transparent" points="-4,4 -4,-248 193.5,-248 193.5,4 -4,4"/>
<!-- Node1 -->
<g id="node1" class="node">
<title>Node1</title>
<g id="a_node1"><a xlink:title=" ">
<polygon fill="#bfbfbf" stroke="#000000" points="0,-224.5 0,-243.5 149,-243.5 149,-224.5 0,-224.5"/>
<text text-anchor="middle" x="74.5" y="-231.5" font-family="Helvetica,sans-Serif" font-size="10.00" fill="#000000">iop/usb/usbd/src/usbdpriv.h</text>
</a>
</g>
</g>
<!-- Node2 -->
<g id="node2" class="node">
<title>Node2</title>
<g id="a_node2"><a xlink:href="usbd_8h.html" target="_top" xlink:title=" ">
<polygon fill="#ffffff" stroke="#000000" points="77,-168.5 77,-187.5 126,-187.5 126,-168.5 77,-168.5"/>
<text text-anchor="middle" x="101.5" y="-175.5" font-family="Helvetica,sans-Serif" font-size="10.00" fill="#000000">usbd.h</text>
</a>
</g>
</g>
<!-- Node1&#45;&gt;Node2 -->
<g id="edge1" class="edge">
<title>Node1&#45;&gt;Node2</title>
<path fill="none" stroke="#191970" d="M79.203,-224.2455C82.8424,-216.6973 87.9924,-206.0158 92.4262,-196.8197"/>
<polygon fill="#191970" stroke="#191970" points="95.6605,-198.1704 96.8509,-187.6427 89.3551,-195.1303 95.6605,-198.1704"/>
</g>
<!-- Node3 -->
<g id="node3" class="node">
<title>Node3</title>
<g id="a_node3"><a xlink:title=" ">
<polygon fill="#ffffff" stroke="#bfbfbf" points="22,-112.5 22,-131.5 75,-131.5 75,-112.5 22,-112.5"/>
<text text-anchor="middle" x="48.5" y="-119.5" font-family="Helvetica,sans-Serif" font-size="10.00" fill="#000000">types.h</text>
</a>
</g>
</g>
<!-- Node1&#45;&gt;Node3 -->
<g id="edge7" class="edge">
<title>Node1&#45;&gt;Node3</title>
<path fill="none" stroke="#191970" d="M72.2833,-224.4509C68.0235,-206.1013 58.6193,-165.5908 52.9965,-141.3693"/>
<polygon fill="#191970" stroke="#191970" points="56.3818,-140.4744 50.7111,-131.5249 49.5632,-142.0573 56.3818,-140.4744"/>
</g>
<!-- Node2&#45;&gt;Node3 -->
<g id="edge2" class="edge">
<title>Node2&#45;&gt;Node3</title>
<path fill="none" stroke="#191970" d="M92.2681,-168.2455C84.6683,-160.2155 73.7123,-148.6394 64.6632,-139.0781"/>
<polygon fill="#191970" stroke="#191970" points="67.042,-136.4998 57.6261,-131.6427 61.9579,-141.3115 67.042,-136.4998"/>
</g>
<!-- Node4 -->
<g id="node4" class="node">
<title>Node4</title>
<g id="a_node4"><a xlink:href="irx_8h.html" target="_top" xlink:title=" ">
<polygon fill="#ffffff" stroke="#000000" points="93.5,-112.5 93.5,-131.5 131.5,-131.5 131.5,-112.5 93.5,-112.5"/>
<text text-anchor="middle" x="112.5" y="-119.5" font-family="Helvetica,sans-Serif" font-size="10.00" fill="#000000">irx.h</text>
</a>
</g>
</g>
<!-- Node2&#45;&gt;Node4 -->
<g id="edge3" class="edge">
<title>Node2&#45;&gt;Node4</title>
<path fill="none" stroke="#191970" d="M103.4161,-168.2455C104.8514,-160.9382 106.8636,-150.6944 108.6295,-141.7046"/>
<polygon fill="#191970" stroke="#191970" points="112.1127,-142.1298 110.6059,-131.6427 105.244,-140.7805 112.1127,-142.1298"/>
</g>
<!-- Node5 -->
<g id="node5" class="node">
<title>Node5</title>
<g id="a_node5"><a xlink:href="types_8h.html" target="_top" xlink:title=" ">
<polygon fill="#ffffff" stroke="#000000" points="86,-56.5 86,-75.5 139,-75.5 139,-56.5 86,-56.5"/>
<text text-anchor="middle" x="112.5" y="-63.5" font-family="Helvetica,sans-Serif" font-size="10.00" fill="#000000">types.h</text>
</a>
</g>
</g>
<!-- Node4&#45;&gt;Node5 -->
<g id="edge4" class="edge">
<title>Node4&#45;&gt;Node5</title>
<path fill="none" stroke="#191970" d="M112.5,-112.2455C112.5,-104.9382 112.5,-94.6944 112.5,-85.7046"/>
<polygon fill="#191970" stroke="#191970" points="116.0001,-85.6426 112.5,-75.6427 109.0001,-85.6427 116.0001,-85.6426"/>
</g>
<!-- Node6 -->
<g id="node6" class="node">
<title>Node6</title>
<g id="a_node6"><a xlink:title=" ">
<polygon fill="#ffffff" stroke="#bfbfbf" points="43.5,-.5 43.5,-19.5 99.5,-19.5 99.5,-.5 43.5,-.5"/>
<text text-anchor="middle" x="71.5" y="-7.5" font-family="Helvetica,sans-Serif" font-size="10.00" fill="#000000">stddef.h</text>
</a>
</g>
</g>
<!-- Node5&#45;&gt;Node6 -->
<g id="edge5" class="edge">
<title>Node5&#45;&gt;Node6</title>
<path fill="none" stroke="#191970" d="M105.3583,-56.2455C99.6556,-48.4564 91.51,-37.3308 84.6375,-27.9439"/>
<polygon fill="#191970" stroke="#191970" points="87.2913,-25.6437 78.5598,-19.6427 81.6432,-29.7789 87.2913,-25.6437"/>
</g>
<!-- Node7 -->
<g id="node7" class="node">
<title>Node7</title>
<g id="a_node7"><a xlink:href="tamtypes_8h.html" target="_top" xlink:title=" ">
<polygon fill="#ffffff" stroke="#000000" points="117.5,-.5 117.5,-19.5 189.5,-19.5 189.5,-.5 117.5,-.5"/>
<text text-anchor="middle" x="153.5" y="-7.5" font-family="Helvetica,sans-Serif" font-size="10.00" fill="#000000">tamtypes.h</text>
</a>
</g>
</g>
<!-- Node5&#45;&gt;Node7 -->
<g id="edge6" class="edge">
<title>Node5&#45;&gt;Node7</title>
<path fill="none" stroke="#191970" d="M119.6417,-56.2455C125.3444,-48.4564 133.49,-37.3308 140.3625,-27.9439"/>
<polygon fill="#191970" stroke="#191970" points="143.3568,-29.7789 146.4402,-19.6427 137.7087,-25.6437 143.3568,-29.7789"/>
</g>
</g>
</svg>
