<?xml version="1.0" encoding="UTF-8" standalone="no"?>
<!DOCTYPE svg PUBLIC "-//W3C//DTD SVG 1.1//EN"
 "http://www.w3.org/Graphics/SVG/1.1/DTD/svg11.dtd">
<!-- Generated by graphviz version 2.40.1 (20161225.0304)
 -->
<!-- Title: iop/usb/usbd/include/usbd_macro.h Pages: 1 -->
<svg width="176pt" height="263pt"
 viewBox="0.00 0.00 175.50 263.00" xmlns="http://www.w3.org/2000/svg" xmlns:xlink="http://www.w3.org/1999/xlink">
<g id="graph0" class="graph" transform="scale(1 1) rotate(0) translate(4 259)">
<title>iop/usb/usbd/include/usbd_macro.h</title>
<polygon fill="#ffffff" stroke="transparent" points="-4,4 -4,-259 171.5,-259 171.5,4 -4,4"/>
<!-- Node1 -->
<g id="node1" class="node">
<title>Node1</title>
<g id="a_node1"><a xlink:title=" ">
<polygon fill="#bfbfbf" stroke="#000000" points=".5,-224.5 .5,-254.5 116.5,-254.5 116.5,-224.5 .5,-224.5"/>
<text text-anchor="start" x="8.5" y="-242.5" font-family="Helvetica,sans-Serif" font-size="10.00" fill="#000000">iop/usb/usbd/include</text>
<text text-anchor="middle" x="58.5" y="-231.5" font-family="Helvetica,sans-Serif" font-size="10.00" fill="#000000">/usbd_macro.h</text>
</a>
</g>
</g>
<!-- Node2 -->
<g id="node2" class="node">
<title>Node2</title>
<g id="a_node2"><a xlink:href="usbd_8h.html" target="_top" xlink:title=" ">
<polygon fill="#ffffff" stroke="#000000" points="34,-168.5 34,-187.5 83,-187.5 83,-168.5 34,-168.5"/>
<text text-anchor="middle" x="58.5" y="-175.5" font-family="Helvetica,sans-Serif" font-size="10.00" fill="#000000">usbd.h</text>
</a>
</g>
</g>
<!-- Node1&#45;&gt;Node2 -->
<g id="edge1" class="edge">
<title>Node1&#45;&gt;Node2</title>
<path fill="none" stroke="#191970" d="M58.5,-224.2977C58.5,-216.3834 58.5,-206.6043 58.5,-198.0759"/>
<polygon fill="#191970" stroke="#191970" points="62.0001,-197.8469 58.5,-187.8469 55.0001,-197.847 62.0001,-197.8469"/>
</g>
<!-- Node3 -->
<g id="node3" class="node">
<title>Node3</title>
<g id="a_node3"><a xlink:title=" ">
<polygon fill="#ffffff" stroke="#bfbfbf" points="0,-112.5 0,-131.5 53,-131.5 53,-112.5 0,-112.5"/>
<text text-anchor="middle" x="26.5" y="-119.5" font-family="Helvetica,sans-Serif" font-size="10.00" fill="#000000">types.h</text>
</a>
</g>
</g>
<!-- Node2&#45;&gt;Node3 -->
<g id="edge2" class="edge">
<title>Node2&#45;&gt;Node3</title>
<path fill="none" stroke="#191970" d="M52.926,-168.2455C48.5669,-160.617 42.3789,-149.7881 37.0867,-140.5267"/>
<polygon fill="#191970" stroke="#191970" points="40.0104,-138.5886 32.0101,-131.6427 33.9327,-142.0616 40.0104,-138.5886"/>
</g>
<!-- Node4 -->
<g id="node4" class="node">
<title>Node4</title>
<g id="a_node4"><a xlink:href="irx_8h.html" target="_top" xlink:title=" ">
<polygon fill="#ffffff" stroke="#000000" points="71.5,-112.5 71.5,-131.5 109.5,-131.5 109.5,-112.5 71.5,-112.5"/>
<text text-anchor="middle" x="90.5" y="-119.5" font-family="Helvetica,sans-Serif" font-size="10.00" fill="#000000">irx.h</text>
</a>
</g>
</g>
<!-- Node2&#45;&gt;Node4 -->
<g id="edge3" class="edge">
<title>Node2&#45;&gt;Node4</title>
<path fill="none" stroke="#191970" d="M64.074,-168.2455C68.4331,-160.617 74.6211,-149.7881 79.9133,-140.5267"/>
<polygon fill="#191970" stroke="#191970" points="83.0673,-142.0616 84.9899,-131.6427 76.9896,-138.5886 83.0673,-142.0616"/>
</g>
<!-- Node5 -->
<g id="node5" class="node">
<title>Node5</title>
<g id="a_node5"><a xlink:href="types_8h.html" target="_top" xlink:title=" ">
<polygon fill="#ffffff" stroke="#000000" points="64,-56.5 64,-75.5 117,-75.5 117,-56.5 64,-56.5"/>
<text text-anchor="middle" x="90.5" y="-63.5" font-family="Helvetica,sans-Serif" font-size="10.00" fill="#000000">types.h</text>
</a>
</g>
</g>
<!-- Node4&#45;&gt;Node5 -->
<g id="edge4" class="edge">
<title>Node4&#45;&gt;Node5</title>
<path fill="none" stroke="#191970" d="M90.5,-112.2455C90.5,-104.9382 90.5,-94.6944 90.5,-85.7046"/>
<polygon fill="#191970" stroke="#191970" points="94.0001,-85.6426 90.5,-75.6427 87.0001,-85.6427 94.0001,-85.6426"/>
</g>
<!-- Node6 -->
<g id="node6" class="node">
<title>Node6</title>
<g id="a_node6"><a xlink:title=" ">
<polygon fill="#ffffff" stroke="#bfbfbf" points="21.5,-.5 21.5,-19.5 77.5,-19.5 77.5,-.5 21.5,-.5"/>
<text text-anchor="middle" x="49.5" y="-7.5" font-family="Helvetica,sans-Serif" font-size="10.00" fill="#000000">stddef.h</text>
</a>
</g>
</g>
<!-- Node5&#45;&gt;Node6 -->
<g id="edge5" class="edge">
<title>Node5&#45;&gt;Node6</title>
<path fill="none" stroke="#191970" d="M83.3583,-56.2455C77.6556,-48.4564 69.51,-37.3308 62.6375,-27.9439"/>
<polygon fill="#191970" stroke="#191970" points="65.2913,-25.6437 56.5598,-19.6427 59.6432,-29.7789 65.2913,-25.6437"/>
</g>
<!-- Node7 -->
<g id="node7" class="node">
<title>Node7</title>
<g id="a_node7"><a xlink:href="tamtypes_8h.html" target="_top" xlink:title=" ">
<polygon fill="#ffffff" stroke="#000000" points="95.5,-.5 95.5,-19.5 167.5,-19.5 167.5,-.5 95.5,-.5"/>
<text text-anchor="middle" x="131.5" y="-7.5" font-family="Helvetica,sans-Serif" font-size="10.00" fill="#000000">tamtypes.h</text>
</a>
</g>
</g>
<!-- Node5&#45;&gt;Node7 -->
<g id="edge6" class="edge">
<title>Node5&#45;&gt;Node7</title>
<path fill="none" stroke="#191970" d="M97.6417,-56.2455C103.3444,-48.4564 111.49,-37.3308 118.3625,-27.9439"/>
<polygon fill="#191970" stroke="#191970" points="121.3568,-29.7789 124.4402,-19.6427 115.7087,-25.6437 121.3568,-29.7789"/>
</g>
</g>
</svg>
