<?xml version="1.0" encoding="UTF-8" standalone="no"?>
<!DOCTYPE svg PUBLIC "-//W3C//DTD SVG 1.1//EN"
 "http://www.w3.org/Graphics/SVG/1.1/DTD/svg11.dtd">
<!-- Generated by graphviz version 2.40.1 (20161225.0304)
 -->
<!-- Title: iop/usb/usbd/src/usbdpriv.h Pages: 1 -->
<!--zoomable 140 -->
<svg id="main" version="1.1" xmlns="http://www.w3.org/2000/svg" xmlns:xlink="http://www.w3.org/1999/xlink" xml:space="preserve" onload="init(evt)">
<style type="text/css"><![CDATA[
.edge:hover path { stroke: red; }
.edge:hover polygon { stroke: red; fill: red; }
]]></style>
<script type="text/javascript"><![CDATA[
var edges = document.getElementsByTagName('g');
if (edges && edges.length) {
  for (var i=0;i<edges.length;i++) {
    if (edges[i].id.substr(0,4)=='edge') {
      edges[i].setAttribute('class','edge');
    }
  }
}
]]></script>
        <defs>
                <circle id="rim" cx="0" cy="0" r="7"/>
                <circle id="rim2" cx="0" cy="0" r="3.5"/>
                <g id="zoomPlus">
                        <use xlink:href="#rim" fill="#404040">
                                <set attributeName="fill" to="#808080" begin="zoomplus.mouseover" end="zoomplus.mouseout"/>
                        </use>
                        <path d="M-4,0h8M0,-4v8" fill="none" stroke="white" stroke-width="1.5" pointer-events="none"/>
                </g>
                <g id="zoomMin">
                        <use xlink:href="#rim" fill="#404040">
                                <set attributeName="fill" to="#808080" begin="zoomminus.mouseover" end="zoomminus.mouseout"/>
                        </use>
                        <path d="M-4,0h8" fill="none" stroke="white" stroke-width="1.5" pointer-events="none"/>
                </g>
                <g id="dirArrow">
                        <path fill="none" stroke="white" stroke-width="1.5" d="M0,-3.0v7 M-2.5,-0.5L0,-3.0L2.5,-0.5"/>
                </g>
               <g id="resetDef">
                       <use xlink:href="#rim2" fill="#404040">
                               <set attributeName="fill" to="#808080" begin="reset.mouseover" end="reset.mouseout"/>
                       </use>
               </g>
        </defs>

<script type="text/javascript">
var viewWidth = 1046;
var viewHeight = 140;
var sectionId = 'dynsection-1';
</script>
<script xlink:href="svgpan.js"/>
<svg id="graph" class="graph">
<g id="viewport">
<title>iop/usb/usbd/src/usbdpriv.h</title>
<polygon fill="#ffffff" stroke="transparent" points="-4,4 -4,-136 1041.5,-136 1041.5,4 -4,4"/>
<!-- Node1 -->
<g id="node1" class="node">
<title>Node1</title>
<g id="a_node1"><a xlink:title=" ">
<polygon fill="#bfbfbf" stroke="#000000" points="356.5,-112.5 356.5,-131.5 505.5,-131.5 505.5,-112.5 356.5,-112.5"/>
<text text-anchor="middle" x="431" y="-119.5" font-family="Helvetica,sans-Serif" font-size="10.00" fill="#000000">iop/usb/usbd/src/usbdpriv.h</text>
</a>
</g>
</g>
<!-- Node2 -->
<g id="node2" class="node">
<title>Node2</title>
<g id="a_node2"><a xlink:href="driver_8c.html" target="_top" xlink:title=" ">
<polygon fill="#ffffff" stroke="#000000" points="142,-.5 142,-19.5 276,-19.5 276,-.5 142,-.5"/>
<text text-anchor="middle" x="209" y="-7.5" font-family="Helvetica,sans-Serif" font-size="10.00" fill="#000000">iop/usb/usbd/src/driver.c</text>
</a>
</g>
</g>
<!-- Node1&#45;&gt;Node2 -->
<g id="edge1" class="edge">
<title>Node1&#45;&gt;Node2</title>
<path fill="none" stroke="#191970" d="M346.3662,-113.2447C295.5712,-106.2038 237.5072,-94.396 220,-76 205.425,-60.6851 206.0141,-33.7875 207.5725,-19.5171"/>
<polygon fill="#191970" stroke="#191970" points="346.038,-116.7319 356.4141,-114.5898 346.9669,-109.7938 346.038,-116.7319"/>
</g>
<!-- Node3 -->
<g id="node3" class="node">
<title>Node3</title>
<g id="a_node3"><a xlink:href="driver_8h.html" target="_top" xlink:title=" ">
<polygon fill="#ffffff" stroke="#000000" points="229.5,-56.5 229.5,-75.5 364.5,-75.5 364.5,-56.5 229.5,-56.5"/>
<text text-anchor="middle" x="297" y="-63.5" font-family="Helvetica,sans-Serif" font-size="10.00" fill="#000000">iop/usb/usbd/src/driver.h</text>
</a>
</g>
</g>
<!-- Node1&#45;&gt;Node3 -->
<g id="edge2" class="edge">
<title>Node1&#45;&gt;Node3</title>
<path fill="none" stroke="#191970" d="M398.4172,-108.3833C374.0464,-98.1985 341.3358,-84.5284 319.7348,-75.5011"/>
<polygon fill="#191970" stroke="#191970" points="397.3883,-111.7466 407.9646,-112.3733 400.0875,-105.2879 397.3883,-111.7466"/>
</g>
<!-- Node4 -->
<g id="node4" class="node">
<title>Node4</title>
<g id="a_node4"><a xlink:href="hcd_8c.html" target="_top" xlink:title=" ">
<polygon fill="#ffffff" stroke="#000000" points="0,-.5 0,-19.5 124,-19.5 124,-.5 0,-.5"/>
<text text-anchor="middle" x="62" y="-7.5" font-family="Helvetica,sans-Serif" font-size="10.00" fill="#000000">iop/usb/usbd/src/hcd.c</text>
</a>
</g>
</g>
<!-- Node1&#45;&gt;Node4 -->
<g id="edge7" class="edge">
<title>Node1&#45;&gt;Node4</title>
<path fill="none" stroke="#191970" d="M346.1983,-117.9723C236.8137,-111.8927 58.1204,-98.6128 38,-76 23.4115,-59.6044 41.2033,-33.6357 53.053,-19.6618"/>
<polygon fill="#191970" stroke="#191970" points="346.057,-121.4697 356.2332,-118.5207 346.4391,-114.4801 346.057,-121.4697"/>
</g>
<!-- Node5 -->
<g id="node5" class="node">
<title>Node5</title>
<g id="a_node5"><a xlink:href="hub_8c.html" target="_top" xlink:title=" ">
<polygon fill="#ffffff" stroke="#000000" points="442.5,-.5 442.5,-19.5 567.5,-19.5 567.5,-.5 442.5,-.5"/>
<text text-anchor="middle" x="505" y="-7.5" font-family="Helvetica,sans-Serif" font-size="10.00" fill="#000000">iop/usb/usbd/src/hub.c</text>
</a>
</g>
</g>
<!-- Node1&#45;&gt;Node5 -->
<g id="edge12" class="edge">
<title>Node1&#45;&gt;Node5</title>
<path fill="none" stroke="#191970" d="M433.5321,-102.3773C436.0302,-88.5347 440.8602,-70.0333 450,-56 459.9865,-40.6667 476.6391,-27.7753 489.0094,-19.5772"/>
<polygon fill="#191970" stroke="#191970" points="430.0663,-101.887 431.9908,-112.3056 436.9835,-102.9609 430.0663,-101.887"/>
</g>
<!-- Node6 -->
<g id="node6" class="node">
<title>Node6</title>
<g id="a_node6"><a xlink:href="interface_8c.html" target="_top" xlink:title=" ">
<polygon fill="#ffffff" stroke="#000000" points="586,-.5 586,-19.5 736,-19.5 736,-.5 586,-.5"/>
<text text-anchor="middle" x="661" y="-7.5" font-family="Helvetica,sans-Serif" font-size="10.00" fill="#000000">iop/usb/usbd/src/interface.c</text>
</a>
</g>
</g>
<!-- Node1&#45;&gt;Node6 -->
<g id="edge17" class="edge">
<title>Node1&#45;&gt;Node6</title>
<path fill="none" stroke="#191970" d="M515.969,-115.1898C603.4928,-107.2933 729.193,-93.1422 744,-76 764.3381,-52.4545 721.6516,-31.2332 690.2892,-19.5287"/>
<polygon fill="#191970" stroke="#191970" points="515.412,-111.7254 505.7616,-116.0981 516.0325,-118.6978 515.412,-111.7254"/>
</g>
<!-- Node7 -->
<g id="node7" class="node">
<title>Node7</title>
<g id="a_node7"><a xlink:href="hcd_8h.html" target="_top" xlink:title=" ">
<polygon fill="#ffffff" stroke="#000000" points="459.5,-56.5 459.5,-75.5 584.5,-75.5 584.5,-56.5 459.5,-56.5"/>
<text text-anchor="middle" x="522" y="-63.5" font-family="Helvetica,sans-Serif" font-size="10.00" fill="#000000">iop/usb/usbd/src/hcd.h</text>
</a>
</g>
</g>
<!-- Node1&#45;&gt;Node7 -->
<g id="edge8" class="edge">
<title>Node1&#45;&gt;Node7</title>
<path fill="none" stroke="#191970" d="M455.7504,-106.769C471.8758,-96.8456 492.426,-84.1994 506.3307,-75.6427"/>
<polygon fill="#191970" stroke="#191970" points="453.5332,-104.0237 446.851,-112.2455 457.2019,-109.9853 453.5332,-104.0237"/>
</g>
<!-- Node8 -->
<g id="node8" class="node">
<title>Node8</title>
<g id="a_node8"><a xlink:href="usbd_8c.html" target="_top" xlink:title=" ">
<polygon fill="#ffffff" stroke="#000000" points="294,-.5 294,-19.5 424,-19.5 424,-.5 294,-.5"/>
<text text-anchor="middle" x="359" y="-7.5" font-family="Helvetica,sans-Serif" font-size="10.00" fill="#000000">iop/usb/usbd/src/usbd.c</text>
</a>
</g>
</g>
<!-- Node1&#45;&gt;Node8 -->
<g id="edge27" class="edge">
<title>Node1&#45;&gt;Node8</title>
<path fill="none" stroke="#191970" d="M419.3596,-103.8927C403.8907,-79.8299 377.1191,-38.1853 365.1231,-19.5249"/>
<polygon fill="#191970" stroke="#191970" points="416.5096,-105.9318 424.8613,-112.4509 422.3978,-102.1465 416.5096,-105.9318"/>
</g>
<!-- Node9 -->
<g id="node9" class="node">
<title>Node9</title>
<g id="a_node9"><a xlink:href="hub_8h.html" target="_top" xlink:title=" ">
<polygon fill="#ffffff" stroke="#000000" points="47.5,-56.5 47.5,-75.5 172.5,-75.5 172.5,-56.5 47.5,-56.5"/>
<text text-anchor="middle" x="110" y="-63.5" font-family="Helvetica,sans-Serif" font-size="10.00" fill="#000000">iop/usb/usbd/src/hub.h</text>
</a>
</g>
</g>
<!-- Node1&#45;&gt;Node9 -->
<g id="edge13" class="edge">
<title>Node1&#45;&gt;Node9</title>
<path fill="none" stroke="#191970" d="M366.1907,-110.6937C306.9683,-100.3621 220.3679,-85.2542 164.591,-75.5237"/>
<polygon fill="#191970" stroke="#191970" points="365.7301,-114.1661 376.1829,-112.4369 366.9332,-107.2703 365.7301,-114.1661"/>
</g>
<!-- Node10 -->
<g id="node10" class="node">
<title>Node10</title>
<g id="a_node10"><a xlink:href="mem_8c.html" target="_top" xlink:title=" ">
<polygon fill="#ffffff" stroke="#000000" points="754,-.5 754,-19.5 886,-19.5 886,-.5 754,-.5"/>
<text text-anchor="middle" x="820" y="-7.5" font-family="Helvetica,sans-Serif" font-size="10.00" fill="#000000">iop/usb/usbd/src/mem.c</text>
</a>
</g>
</g>
<!-- Node1&#45;&gt;Node10 -->
<g id="edge18" class="edge">
<title>Node1&#45;&gt;Node10</title>
<path fill="none" stroke="#191970" d="M515.5796,-116.8291C598.9712,-110.5621 719.7388,-98.004 761,-76 785.9529,-62.693 805.5155,-34.4191 814.5456,-19.5676"/>
<polygon fill="#191970" stroke="#191970" points="515.3196,-113.3386 505.6031,-117.5623 515.8328,-120.3198 515.3196,-113.3386"/>
</g>
<!-- Node11 -->
<g id="node11" class="node">
<title>Node11</title>
<g id="a_node11"><a xlink:href="mem_8h.html" target="_top" xlink:title=" ">
<polygon fill="#ffffff" stroke="#000000" points="602.5,-56.5 602.5,-75.5 735.5,-75.5 735.5,-56.5 602.5,-56.5"/>
<text text-anchor="middle" x="669" y="-63.5" font-family="Helvetica,sans-Serif" font-size="10.00" fill="#000000">iop/usb/usbd/src/mem.h</text>
</a>
</g>
</g>
<!-- Node1&#45;&gt;Node11 -->
<g id="edge19" class="edge">
<title>Node1&#45;&gt;Node11</title>
<path fill="none" stroke="#191970" d="M481.522,-110.1125C525.3412,-99.8021 587.9386,-85.0733 628.5244,-75.5237"/>
<polygon fill="#191970" stroke="#191970" points="480.5757,-106.7395 471.6432,-112.4369 482.1791,-113.5534 480.5757,-106.7395"/>
</g>
<!-- Node12 -->
<g id="node12" class="node">
<title>Node12</title>
<g id="a_node12"><a xlink:href="usbio_8c.html" target="_top" xlink:title=" ">
<polygon fill="#ffffff" stroke="#000000" points="904.5,-.5 904.5,-19.5 1037.5,-19.5 1037.5,-.5 904.5,-.5"/>
<text text-anchor="middle" x="971" y="-7.5" font-family="Helvetica,sans-Serif" font-size="10.00" fill="#000000">iop/usb/usbd/src/usbio.c</text>
</a>
</g>
</g>
<!-- Node1&#45;&gt;Node12 -->
<g id="edge28" class="edge">
<title>Node1&#45;&gt;Node12</title>
<path fill="none" stroke="#191970" d="M515.7577,-116.3084C588.6932,-110.1732 696.3379,-98.1537 788,-76 847.9124,-61.5199 915.4058,-34.1432 949.2231,-19.6166"/>
<polygon fill="#191970" stroke="#191970" points="515.3812,-112.8275 505.7018,-117.1355 515.9551,-119.8039 515.3812,-112.8275"/>
</g>
<!-- Node3&#45;&gt;Node2 -->
<g id="edge3" class="edge">
<title>Node3&#45;&gt;Node2</title>
<path fill="none" stroke="#191970" d="M273.0655,-50.769C257.4717,-40.8456 237.599,-28.1994 224.1528,-19.6427"/>
<polygon fill="#191970" stroke="#191970" points="271.3559,-53.8296 281.6716,-56.2455 275.114,-47.9239 271.3559,-53.8296"/>
</g>
<!-- Node3&#45;&gt;Node4 -->
<g id="edge4" class="edge">
<title>Node3&#45;&gt;Node4</title>
<path fill="none" stroke="#191970" d="M247.1148,-54.1125C203.848,-43.8021 142.0396,-29.0733 101.9654,-19.5237"/>
<polygon fill="#191970" stroke="#191970" points="246.3301,-57.5234 256.8691,-56.4369 247.9528,-50.7141 246.3301,-57.5234"/>
</g>
<!-- Node3&#45;&gt;Node5 -->
<g id="edge5" class="edge">
<title>Node3&#45;&gt;Node5</title>
<path fill="none" stroke="#191970" d="M342.6118,-53.7199C380.8582,-43.4228 434.69,-28.9296 469.7101,-19.5011"/>
<polygon fill="#191970" stroke="#191970" points="341.5027,-50.3938 332.7565,-56.3733 343.3226,-57.1531 341.5027,-50.3938"/>
</g>
<!-- Node3&#45;&gt;Node6 -->
<g id="edge6" class="edge">
<title>Node3&#45;&gt;Node6</title>
<path fill="none" stroke="#191970" d="M369.2457,-54.8853C436.4278,-44.5496 535.4556,-29.3145 599.0961,-19.5237"/>
<polygon fill="#191970" stroke="#191970" points="368.5117,-51.4569 359.1602,-56.4369 369.5762,-58.3755 368.5117,-51.4569"/>
</g>
<!-- Node7&#45;&gt;Node5 -->
<g id="edge9" class="edge">
<title>Node7&#45;&gt;Node5</title>
<path fill="none" stroke="#191970" d="M516.0663,-46.4538C513.3119,-37.3803 510.1607,-26.9998 507.9272,-19.6427"/>
<polygon fill="#191970" stroke="#191970" points="512.7849,-47.6934 519.0388,-56.2455 519.483,-45.66 512.7849,-47.6934"/>
</g>
<!-- Node7&#45;&gt;Node6 -->
<g id="edge10" class="edge">
<title>Node7&#45;&gt;Node6</title>
<path fill="none" stroke="#191970" d="M555.4621,-52.5189C580.7769,-42.3201 614.9103,-28.5685 637.4169,-19.5011"/>
<polygon fill="#191970" stroke="#191970" points="553.8626,-49.3899 545.895,-56.3733 556.4784,-55.8827 553.8626,-49.3899"/>
</g>
<!-- Node7&#45;&gt;Node8 -->
<g id="edge11" class="edge">
<title>Node7&#45;&gt;Node8</title>
<path fill="none" stroke="#191970" d="M484.3267,-53.057C454.4958,-42.8084 413.5148,-28.729 386.6551,-19.5011"/>
<polygon fill="#191970" stroke="#191970" points="483.3846,-56.4341 493.9793,-56.3733 485.6591,-49.8139 483.3846,-56.4341"/>
</g>
<!-- Node9&#45;&gt;Node2 -->
<g id="edge14" class="edge">
<title>Node9&#45;&gt;Node2</title>
<path fill="none" stroke="#191970" d="M136.4357,-51.0465C154.0508,-41.0824 176.6847,-28.2794 191.9531,-19.6427"/>
<polygon fill="#191970" stroke="#191970" points="134.2253,-48.2756 127.2445,-56.2455 137.6717,-54.3684 134.2253,-48.2756"/>
</g>
<!-- Node9&#45;&gt;Node4 -->
<g id="edge15" class="edge">
<title>Node9&#45;&gt;Node4</title>
<path fill="none" stroke="#191970" d="M95.0003,-48.5004C86.8378,-38.9775 77.0511,-27.5596 70.2651,-19.6427"/>
<polygon fill="#191970" stroke="#191970" points="92.4737,-50.9307 101.639,-56.2455 97.7885,-46.3752 92.4737,-50.9307"/>
</g>
<!-- Node9&#45;&gt;Node8 -->
<g id="edge16" class="edge">
<title>Node9&#45;&gt;Node8</title>
<path fill="none" stroke="#191970" d="M162.279,-54.2425C208.1496,-43.9262 274.0133,-29.1135 316.6537,-19.5237"/>
<polygon fill="#191970" stroke="#191970" points="161.51,-50.8279 152.5217,-56.4369 163.046,-57.6573 161.51,-50.8279"/>
</g>
<!-- Node11&#45;&gt;Node2 -->
<g id="edge20" class="edge">
<title>Node11&#45;&gt;Node2</title>
<path fill="none" stroke="#191970" d="M592.191,-55.915C454.5589,-38.907 418.564,-36.5919 285,-20 282.0945,-19.6391 279.1272,-19.2663 276.13,-18.8865"/>
<polygon fill="#191970" stroke="#191970" points="591.9243,-59.4087 602.2789,-57.1654 592.7854,-52.4618 591.9243,-59.4087"/>
</g>
<!-- Node11&#45;&gt;Node4 -->
<g id="edge21" class="edge">
<title>Node11&#45;&gt;Node4</title>
<path fill="none" stroke="#191970" d="M592.1113,-55.961C387.3269,-34.8566 333.5675,-41.9515 133,-20 130.1539,-19.6885 127.2462,-19.3523 124.3108,-18.9982"/>
<polygon fill="#191970" stroke="#191970" points="591.9869,-59.4669 602.2954,-57.0208 592.7115,-52.5045 591.9869,-59.4669"/>
</g>
<!-- Node11&#45;&gt;Node5 -->
<g id="edge22" class="edge">
<title>Node11&#45;&gt;Node5</title>
<path fill="none" stroke="#191970" d="M631.0956,-53.057C601.0816,-42.8084 559.8493,-28.729 532.8247,-19.5011"/>
<polygon fill="#191970" stroke="#191970" points="630.2129,-56.454 640.8074,-56.3733 632.4749,-49.8295 630.2129,-56.454"/>
</g>
<!-- Node11&#45;&gt;Node6 -->
<g id="edge23" class="edge">
<title>Node11&#45;&gt;Node6</title>
<path fill="none" stroke="#191970" d="M666.1654,-46.1575C664.8793,-37.155 663.4171,-26.9199 662.3775,-19.6427"/>
<polygon fill="#191970" stroke="#191970" points="662.7274,-46.8411 667.6065,-56.2455 669.657,-45.851 662.7274,-46.8411"/>
</g>
<!-- Node11&#45;&gt;Node8 -->
<g id="edge25" class="edge">
<title>Node11&#45;&gt;Node8</title>
<path fill="none" stroke="#191970" d="M606.0568,-54.6296C548.8731,-44.2997 465.4745,-29.2341 411.7203,-19.5237"/>
<polygon fill="#191970" stroke="#191970" points="605.5984,-58.1034 616.0613,-56.4369 606.8428,-51.2149 605.5984,-58.1034"/>
</g>
<!-- Node11&#45;&gt;Node10 -->
<g id="edge24" class="edge">
<title>Node11&#45;&gt;Node10</title>
<path fill="none" stroke="#191970" d="M704.623,-52.7888C732.1938,-42.5639 769.7149,-28.6488 794.3809,-19.5011"/>
<polygon fill="#191970" stroke="#191970" points="703.1168,-49.6144 694.9578,-56.3733 705.5509,-56.1776 703.1168,-49.6144"/>
</g>
<!-- Node11&#45;&gt;Node12 -->
<g id="edge26" class="edge">
<title>Node11&#45;&gt;Node12</title>
<path fill="none" stroke="#191970" d="M730.6652,-54.5654C786.3631,-44.2373 867.3816,-29.214 919.6402,-19.5237"/>
<polygon fill="#191970" stroke="#191970" points="729.7667,-51.1722 720.5725,-56.4369 731.0431,-58.0549 729.7667,-51.1722"/>
</g>
</g>
</svg>
        <g id="navigator" transform="translate(0 0)" fill="#404254">
                <rect fill="#f2f5e9" fill-opacity="0.5" stroke="#606060" stroke-width=".5" x="0" y="0" width="60" height="60"/>
                <use id="zoomplus" xlink:href="#zoomPlus" x="17" y="9" onmousedown="handleZoom(evt,'in')"/>
                <use id="zoomminus" xlink:href="#zoomMin" x="42" y="9" onmousedown="handleZoom(evt,'out')"/>
                <use id="reset" xlink:href="#resetDef" x="30" y="36" onmousedown="handleReset()"/>
                <g id="arrowUp" xlink:href="#dirArrow" transform="translate(30 24)" onmousedown="handlePan(0,-1)">
                  <use xlink:href="#rim" fill="#404040">
                        <set attributeName="fill" to="#808080" begin="arrowUp.mouseover" end="arrowUp.mouseout"/>
                  </use>
                  <path fill="none" stroke="white" stroke-width="1.5" d="M0,-3.0v7 M-2.5,-0.5L0,-3.0L2.5,-0.5"/>
                </g>
                <g id="arrowRight" xlink:href="#dirArrow" transform="rotate(90) translate(36 -43)" onmousedown="handlePan(1,0)">
                  <use xlink:href="#rim" fill="#404040">
                        <set attributeName="fill" to="#808080" begin="arrowRight.mouseover" end="arrowRight.mouseout"/>
                  </use>
                  <path fill="none" stroke="white" stroke-width="1.5" d="M0,-3.0v7 M-2.5,-0.5L0,-3.0L2.5,-0.5"/>
                </g>
                <g id="arrowDown" xlink:href="#dirArrow" transform="rotate(180) translate(-30 -48)" onmousedown="handlePan(0,1)">
                  <use xlink:href="#rim" fill="#404040">
                        <set attributeName="fill" to="#808080" begin="arrowDown.mouseover" end="arrowDown.mouseout"/>
                  </use>
                  <path fill="none" stroke="white" stroke-width="1.5" d="M0,-3.0v7 M-2.5,-0.5L0,-3.0L2.5,-0.5"/>
                </g>
                <g id="arrowLeft" xlink:href="#dirArrow" transform="rotate(270) translate(-36 17)" onmousedown="handlePan(-1,0)">
                  <use xlink:href="#rim" fill="#404040">
                        <set attributeName="fill" to="#808080" begin="arrowLeft.mouseover" end="arrowLeft.mouseout"/>
                  </use>
                  <path fill="none" stroke="white" stroke-width="1.5" d="M0,-3.0v7 M-2.5,-0.5L0,-3.0L2.5,-0.5"/>
                </g>
        </g>
        <svg viewBox="0 0 15 15" width="100%" height="30px" preserveAspectRatio="xMaxYMin meet">
         <g id="arrow_out" transform="scale(0.3 0.3)">
          <a xlink:href="usbdpriv_8h__dep__incl_org.svg" target="_base">
           <rect id="button" ry="5" rx="5" y="6" x="6" height="38" width="38"
                fill="#f2f5e9" fill-opacity="0.5" stroke="#606060" stroke-width="1.0"/>
           <path id="arrow"
             d="M 11.500037,31.436501 C 11.940474,20.09759 22.043105,11.32322 32.158766,21.979434 L 37.068811,17.246167 C 37.068811,17.246167 37.088388,32 37.088388,32 L 22.160133,31.978069 C 22.160133,31.978069 26.997745,27.140456 26.997745,27.140456 C 18.528582,18.264221 13.291696,25.230495 11.500037,31.436501 z"
             style="fill:#404040;"/>
          </a>
         </g>
        </svg>
</svg>
