<?xml version="1.0" encoding="UTF-8" standalone="no"?>
<!DOCTYPE svg PUBLIC "-//W3C//DTD SVG 1.1//EN"
 "http://www.w3.org/Graphics/SVG/1.1/DTD/svg11.dtd">
<!-- Generated by graphviz version 2.40.1 (20161225.0304)
 -->
<!-- Title: iop/usb/usbhdfsd/include/usbhdfsd.h Pages: 1 -->
<svg width="1062pt" height="106pt"
 viewBox="0.00 0.00 1062.00 106.00" xmlns="http://www.w3.org/2000/svg" xmlns:xlink="http://www.w3.org/1999/xlink">
<g id="graph0" class="graph" transform="scale(1 1) rotate(0) translate(4 102)">
<title>iop/usb/usbhdfsd/include/usbhdfsd.h</title>
<polygon fill="#ffffff" stroke="transparent" points="-4,4 -4,-102 1058,-102 1058,4 -4,4"/>
<!-- Node1 -->
<g id="node1" class="node">
<title>Node1</title>
<g id="a_node1"><a xlink:title=" ">
<polygon fill="#bfbfbf" stroke="#000000" points="458.5,-67.5 458.5,-97.5 595.5,-97.5 595.5,-67.5 458.5,-67.5"/>
<text text-anchor="start" x="466.5" y="-85.5" font-family="Helvetica,sans-Serif" font-size="10.00" fill="#000000">iop/usb/usbhdfsd/include</text>
<text text-anchor="middle" x="527" y="-74.5" font-family="Helvetica,sans-Serif" font-size="10.00" fill="#000000">/usbhdfsd.h</text>
</a>
</g>
</g>
<!-- Node2 -->
<g id="node2" class="node">
<title>Node2</title>
<g id="a_node2"><a xlink:href="api_8c.html" target="_top" xlink:title=" ">
<polygon fill="#ffffff" stroke="#000000" points="0,-.5 0,-30.5 116,-30.5 116,-.5 0,-.5"/>
<text text-anchor="start" x="8" y="-18.5" font-family="Helvetica,sans-Serif" font-size="10.00" fill="#000000">iop/usb/usbhdfsd/src</text>
<text text-anchor="middle" x="58" y="-7.5" font-family="Helvetica,sans-Serif" font-size="10.00" fill="#000000">/api.c</text>
</a>
</g>
</g>
<!-- Node1&#45;&gt;Node2 -->
<g id="edge1" class="edge">
<title>Node1&#45;&gt;Node2</title>
<path fill="none" stroke="#191970" d="M448.2404,-74.7628C366.9352,-66.2256 236.5812,-51.0025 125,-31 122.062,-30.4733 119.0589,-29.9017 116.0314,-29.2989"/>
<polygon fill="#191970" stroke="#191970" points="448.0892,-78.2659 458.3981,-75.8214 448.8148,-71.3036 448.0892,-78.2659"/>
</g>
<!-- Node3 -->
<g id="node3" class="node">
<title>Node3</title>
<g id="a_node3"><a xlink:href="usb_2usbhdfsd_2src_2fat__driver_8c.html" target="_top" xlink:title=" ">
<polygon fill="#ffffff" stroke="#000000" points="134,-.5 134,-30.5 250,-30.5 250,-.5 134,-.5"/>
<text text-anchor="start" x="142" y="-18.5" font-family="Helvetica,sans-Serif" font-size="10.00" fill="#000000">iop/usb/usbhdfsd/src</text>
<text text-anchor="middle" x="192" y="-7.5" font-family="Helvetica,sans-Serif" font-size="10.00" fill="#000000">/fat_driver.c</text>
</a>
</g>
</g>
<!-- Node1&#45;&gt;Node3 -->
<g id="edge2" class="edge">
<title>Node1&#45;&gt;Node3</title>
<path fill="none" stroke="#191970" d="M448.1866,-68.1587C394.7115,-58.2309 322.4676,-44.4346 259,-31 256.0799,-30.3819 253.0912,-29.7367 250.0751,-29.0756"/>
<polygon fill="#191970" stroke="#191970" points="447.8145,-71.6492 458.2847,-70.0288 449.0893,-64.7662 447.8145,-71.6492"/>
</g>
<!-- Node4 -->
<g id="node4" class="node">
<title>Node4</title>
<g id="a_node4"><a xlink:href="usb_2usbhdfsd_2src_2fat__write_8c.html" target="_top" xlink:title=" ">
<polygon fill="#ffffff" stroke="#000000" points="268,-.5 268,-30.5 384,-30.5 384,-.5 268,-.5"/>
<text text-anchor="start" x="276" y="-18.5" font-family="Helvetica,sans-Serif" font-size="10.00" fill="#000000">iop/usb/usbhdfsd/src</text>
<text text-anchor="middle" x="326" y="-7.5" font-family="Helvetica,sans-Serif" font-size="10.00" fill="#000000">/fat_write.c</text>
</a>
</g>
</g>
<!-- Node1&#45;&gt;Node4 -->
<g id="edge3" class="edge">
<title>Node1&#45;&gt;Node4</title>
<path fill="none" stroke="#191970" d="M472.3277,-64.2759C440.6496,-53.7165 401.2415,-40.5805 371.3051,-30.6017"/>
<polygon fill="#191970" stroke="#191970" points="471.298,-67.6219 481.8917,-67.4639 473.5117,-60.9812 471.298,-67.6219"/>
</g>
<!-- Node5 -->
<g id="node5" class="node">
<title>Node5</title>
<g id="a_node5"><a xlink:href="usb_2usbhdfsd_2src_2fs__driver_8c.html" target="_top" xlink:title=" ">
<polygon fill="#ffffff" stroke="#000000" points="402,-.5 402,-30.5 518,-30.5 518,-.5 402,-.5"/>
<text text-anchor="start" x="410" y="-18.5" font-family="Helvetica,sans-Serif" font-size="10.00" fill="#000000">iop/usb/usbhdfsd/src</text>
<text text-anchor="middle" x="460" y="-7.5" font-family="Helvetica,sans-Serif" font-size="10.00" fill="#000000">/fs_driver.c</text>
</a>
</g>
</g>
<!-- Node1&#45;&gt;Node5 -->
<g id="edge4" class="edge">
<title>Node1&#45;&gt;Node5</title>
<path fill="none" stroke="#191970" d="M504.7113,-60.2113C495.0009,-50.5009 483.8698,-39.3698 475.1432,-30.6432"/>
<polygon fill="#191970" stroke="#191970" points="502.2507,-62.7004 511.7967,-67.2967 507.2004,-57.7507 502.2507,-62.7004"/>
</g>
<!-- Node6 -->
<g id="node6" class="node">
<title>Node6</title>
<g id="a_node6"><a xlink:href="usb_2usbhdfsd_2src_2part__driver_8c.html" target="_top" xlink:title=" ">
<polygon fill="#ffffff" stroke="#000000" points="536,-.5 536,-30.5 652,-30.5 652,-.5 536,-.5"/>
<text text-anchor="start" x="544" y="-18.5" font-family="Helvetica,sans-Serif" font-size="10.00" fill="#000000">iop/usb/usbhdfsd/src</text>
<text text-anchor="middle" x="594" y="-7.5" font-family="Helvetica,sans-Serif" font-size="10.00" fill="#000000">/part_driver.c</text>
</a>
</g>
</g>
<!-- Node1&#45;&gt;Node6 -->
<g id="edge5" class="edge">
<title>Node1&#45;&gt;Node6</title>
<path fill="none" stroke="#191970" d="M549.2887,-60.2113C558.9991,-50.5009 570.1302,-39.3698 578.8568,-30.6432"/>
<polygon fill="#191970" stroke="#191970" points="546.7996,-57.7507 542.2033,-67.2967 551.7493,-62.7004 546.7996,-57.7507"/>
</g>
<!-- Node7 -->
<g id="node7" class="node">
<title>Node7</title>
<g id="a_node7"><a xlink:href="usb_2usbhdfsd_2src_2scache_8c.html" target="_top" xlink:title=" ">
<polygon fill="#ffffff" stroke="#000000" points="670,-.5 670,-30.5 786,-30.5 786,-.5 670,-.5"/>
<text text-anchor="start" x="678" y="-18.5" font-family="Helvetica,sans-Serif" font-size="10.00" fill="#000000">iop/usb/usbhdfsd/src</text>
<text text-anchor="middle" x="728" y="-7.5" font-family="Helvetica,sans-Serif" font-size="10.00" fill="#000000">/scache.c</text>
</a>
</g>
</g>
<!-- Node1&#45;&gt;Node7 -->
<g id="edge6" class="edge">
<title>Node1&#45;&gt;Node7</title>
<path fill="none" stroke="#191970" d="M581.6723,-64.2759C613.3504,-53.7165 652.7585,-40.5805 682.6949,-30.6017"/>
<polygon fill="#191970" stroke="#191970" points="580.4883,-60.9812 572.1083,-67.4639 582.702,-67.6219 580.4883,-60.9812"/>
</g>
<!-- Node8 -->
<g id="node8" class="node">
<title>Node8</title>
<g id="a_node8"><a xlink:href="usb__driver_8c.html" target="_top" xlink:title=" ">
<polygon fill="#ffffff" stroke="#000000" points="804,-.5 804,-30.5 920,-30.5 920,-.5 804,-.5"/>
<text text-anchor="start" x="812" y="-18.5" font-family="Helvetica,sans-Serif" font-size="10.00" fill="#000000">iop/usb/usbhdfsd/src</text>
<text text-anchor="middle" x="862" y="-7.5" font-family="Helvetica,sans-Serif" font-size="10.00" fill="#000000">/usb_driver.c</text>
</a>
</g>
</g>
<!-- Node1&#45;&gt;Node8 -->
<g id="edge7" class="edge">
<title>Node1&#45;&gt;Node8</title>
<path fill="none" stroke="#191970" d="M605.8134,-68.1587C659.2885,-58.2309 731.5324,-44.4346 795,-31 797.9201,-30.3819 800.9088,-29.7367 803.9249,-29.0756"/>
<polygon fill="#191970" stroke="#191970" points="604.9107,-64.7662 595.7153,-70.0288 606.1855,-71.6492 604.9107,-64.7662"/>
</g>
<!-- Node9 -->
<g id="node9" class="node">
<title>Node9</title>
<g id="a_node9"><a xlink:href="usbhdfsd_8c.html" target="_top" xlink:title=" ">
<polygon fill="#ffffff" stroke="#000000" points="938,-.5 938,-30.5 1054,-30.5 1054,-.5 938,-.5"/>
<text text-anchor="start" x="946" y="-18.5" font-family="Helvetica,sans-Serif" font-size="10.00" fill="#000000">iop/usb/usbhdfsd/src</text>
<text text-anchor="middle" x="996" y="-7.5" font-family="Helvetica,sans-Serif" font-size="10.00" fill="#000000">/usbhdfsd.c</text>
</a>
</g>
</g>
<!-- Node1&#45;&gt;Node9 -->
<g id="edge8" class="edge">
<title>Node1&#45;&gt;Node9</title>
<path fill="none" stroke="#191970" d="M605.7596,-74.7628C687.0648,-66.2256 817.4188,-51.0025 929,-31 931.938,-30.4733 934.9411,-29.9017 937.9686,-29.2989"/>
<polygon fill="#191970" stroke="#191970" points="605.1852,-71.3036 595.6019,-75.8214 605.9108,-78.2659 605.1852,-71.3036"/>
</g>
</g>
</svg>
