<?xml version="1.0" encoding="UTF-8" standalone="no"?>
<!DOCTYPE svg PUBLIC "-//W3C//DTD SVG 1.1//EN"
 "http://www.w3.org/Graphics/SVG/1.1/DTD/svg11.dtd">
<!-- Generated by graphviz version 2.40.1 (20161225.0304)
 -->
<!-- Title: iop/usb/usbhdfsd/src/usbhdfsd.c Pages: 1 -->
<svg width="526pt" height="263pt"
 viewBox="0.00 0.00 525.50 263.00" xmlns="http://www.w3.org/2000/svg" xmlns:xlink="http://www.w3.org/1999/xlink">
<g id="graph0" class="graph" transform="scale(1 1) rotate(0) translate(4 259)">
<title>iop/usb/usbhdfsd/src/usbhdfsd.c</title>
<polygon fill="#ffffff" stroke="transparent" points="-4,4 -4,-259 521.5,-259 521.5,4 -4,4"/>
<!-- Node1 -->
<g id="node1" class="node">
<title>Node1</title>
<g id="a_node1"><a xlink:title=" ">
<polygon fill="#bfbfbf" stroke="#000000" points="161,-224.5 161,-254.5 277,-254.5 277,-224.5 161,-224.5"/>
<text text-anchor="start" x="169" y="-242.5" font-family="Helvetica,sans-Serif" font-size="10.00" fill="#000000">iop/usb/usbhdfsd/src</text>
<text text-anchor="middle" x="219" y="-231.5" font-family="Helvetica,sans-Serif" font-size="10.00" fill="#000000">/usbhdfsd.c</text>
</a>
</g>
</g>
<!-- Node2 -->
<g id="node2" class="node">
<title>Node2</title>
<g id="a_node2"><a xlink:href="loadcore_8h.html" target="_top" xlink:title=" ">
<polygon fill="#ffffff" stroke="#000000" points="274,-168.5 274,-187.5 342,-187.5 342,-168.5 274,-168.5"/>
<text text-anchor="middle" x="308" y="-175.5" font-family="Helvetica,sans-Serif" font-size="10.00" fill="#000000">loadcore.h</text>
</a>
</g>
</g>
<!-- Node1&#45;&gt;Node2 -->
<g id="edge1" class="edge">
<title>Node1&#45;&gt;Node2</title>
<path fill="none" stroke="#191970" d="M241,-224.2977C254.5968,-214.9022 271.9966,-202.8787 285.6567,-193.4395"/>
<polygon fill="#191970" stroke="#191970" points="287.7785,-196.2276 294.0158,-187.6633 283.7991,-190.4688 287.7785,-196.2276"/>
</g>
<!-- Node6 -->
<g id="node6" class="node">
<title>Node6</title>
<g id="a_node6"><a xlink:href="irx_8h.html" target="_top" xlink:title=" ">
<polygon fill="#ffffff" stroke="#000000" points="218,-112.5 218,-131.5 256,-131.5 256,-112.5 218,-112.5"/>
<text text-anchor="middle" x="237" y="-119.5" font-family="Helvetica,sans-Serif" font-size="10.00" fill="#000000">irx.h</text>
</a>
</g>
</g>
<!-- Node1&#45;&gt;Node6 -->
<g id="edge21" class="edge">
<title>Node1&#45;&gt;Node6</title>
<path fill="none" stroke="#191970" d="M221.3953,-224.1787C222.9927,-213.9377 225.1338,-200.1632 227,-188 229.3652,-172.584 232.0072,-155.1367 233.9814,-142.0542"/>
<polygon fill="#191970" stroke="#191970" points="237.4911,-142.2517 235.5206,-131.8417 230.5692,-141.2084 237.4911,-142.2517"/>
</g>
<!-- Node7 -->
<g id="node7" class="node">
<title>Node7</title>
<g id="a_node7"><a xlink:href="intrman_8h.html" target="_top" xlink:title=" ">
<polygon fill="#ffffff" stroke="#000000" points="0,-168.5 0,-187.5 64,-187.5 64,-168.5 0,-168.5"/>
<text text-anchor="middle" x="32" y="-175.5" font-family="Helvetica,sans-Serif" font-size="10.00" fill="#000000">intrman.h</text>
</a>
</g>
</g>
<!-- Node1&#45;&gt;Node7 -->
<g id="edge7" class="edge">
<title>Node1&#45;&gt;Node7</title>
<path fill="none" stroke="#191970" d="M173.2547,-224.4554C141.7795,-214.104 100.4351,-200.5067 70.6176,-190.7004"/>
<polygon fill="#191970" stroke="#191970" points="71.5713,-187.3297 60.9784,-187.5303 69.3843,-193.9793 71.5713,-187.3297"/>
</g>
<!-- Node8 -->
<g id="node8" class="node">
<title>Node8</title>
<g id="a_node8"><a xlink:href="stdio_8h.html" target="_top" xlink:title=" ">
<polygon fill="#ffffff" stroke="#000000" points="168,-168.5 168,-187.5 218,-187.5 218,-168.5 168,-168.5"/>
<text text-anchor="middle" x="193" y="-175.5" font-family="Helvetica,sans-Serif" font-size="10.00" fill="#000000">stdio.h</text>
</a>
</g>
</g>
<!-- Node1&#45;&gt;Node8 -->
<g id="edge10" class="edge">
<title>Node1&#45;&gt;Node8</title>
<path fill="none" stroke="#191970" d="M212.573,-224.2977C209.1143,-216.1166 204.8133,-205.943 201.1246,-197.2179"/>
<polygon fill="#191970" stroke="#191970" points="204.2807,-195.6947 197.1629,-187.8469 197.8332,-198.4205 204.2807,-195.6947"/>
</g>
<!-- Node10 -->
<g id="node10" class="node">
<title>Node10</title>
<g id="a_node10"><a xlink:href="sysmem_8h.html" target="_top" xlink:title=" ">
<polygon fill="#ffffff" stroke="#000000" points="82,-168.5 82,-187.5 150,-187.5 150,-168.5 82,-168.5"/>
<text text-anchor="middle" x="116" y="-175.5" font-family="Helvetica,sans-Serif" font-size="10.00" fill="#000000">sysmem.h</text>
</a>
</g>
</g>
<!-- Node1&#45;&gt;Node10 -->
<g id="edge13" class="edge">
<title>Node1&#45;&gt;Node10</title>
<path fill="none" stroke="#191970" d="M193.8034,-224.4554C177.6728,-214.8241 156.8362,-202.3828 140.7864,-192.7996"/>
<polygon fill="#191970" stroke="#191970" points="142.3416,-189.6518 131.9613,-187.5303 138.753,-195.662 142.3416,-189.6518"/>
</g>
<!-- Node11 -->
<g id="node11" class="node">
<title>Node11</title>
<g id="a_node11"><a xlink:href="usbhdfsd_8h.html" target="_top" xlink:title=" ">
<polygon fill="#ffffff" stroke="#000000" points="360,-168.5 360,-187.5 430,-187.5 430,-168.5 360,-168.5"/>
<text text-anchor="middle" x="395" y="-175.5" font-family="Helvetica,sans-Serif" font-size="10.00" fill="#000000">usbhdfsd.h</text>
</a>
</g>
</g>
<!-- Node1&#45;&gt;Node11 -->
<g id="edge17" class="edge">
<title>Node1&#45;&gt;Node11</title>
<path fill="none" stroke="#191970" d="M262.0544,-224.4554C291.4205,-214.194 329.9145,-200.7429 357.9195,-190.9571"/>
<polygon fill="#191970" stroke="#191970" points="359.4406,-194.1332 367.7262,-187.5303 357.1314,-187.525 359.4406,-194.1332"/>
</g>
<!-- Node3 -->
<g id="node3" class="node">
<title>Node3</title>
<g id="a_node3"><a xlink:href="types_8h.html" target="_top" xlink:title=" ">
<polygon fill="#ffffff" stroke="#000000" points="149.5,-56.5 149.5,-75.5 202.5,-75.5 202.5,-56.5 149.5,-56.5"/>
<text text-anchor="middle" x="176" y="-63.5" font-family="Helvetica,sans-Serif" font-size="10.00" fill="#000000">types.h</text>
</a>
</g>
</g>
<!-- Node2&#45;&gt;Node3 -->
<g id="edge2" class="edge">
<title>Node2&#45;&gt;Node3</title>
<path fill="none" stroke="#191970" d="M303.7082,-168.3687C297.0991,-154.4328 283.2578,-128.5109 265,-112 249.6524,-98.1209 229.3486,-87.2071 212.0096,-79.5001"/>
<polygon fill="#191970" stroke="#191970" points="213.304,-76.2472 202.7321,-75.5498 210.5616,-82.6877 213.304,-76.2472"/>
</g>
<!-- Node2&#45;&gt;Node6 -->
<g id="edge5" class="edge">
<title>Node2&#45;&gt;Node6</title>
<path fill="none" stroke="#191970" d="M295.6327,-168.2455C285.0446,-159.8943 269.5936,-147.7076 257.2107,-137.9408"/>
<polygon fill="#191970" stroke="#191970" points="259.2447,-135.0875 249.2255,-131.6427 254.9097,-140.5837 259.2447,-135.0875"/>
</g>
<!-- Node4 -->
<g id="node4" class="node">
<title>Node4</title>
<g id="a_node4"><a xlink:title=" ">
<polygon fill="#ffffff" stroke="#bfbfbf" points="107,-.5 107,-19.5 163,-19.5 163,-.5 107,-.5"/>
<text text-anchor="middle" x="135" y="-7.5" font-family="Helvetica,sans-Serif" font-size="10.00" fill="#000000">stddef.h</text>
</a>
</g>
</g>
<!-- Node3&#45;&gt;Node4 -->
<g id="edge3" class="edge">
<title>Node3&#45;&gt;Node4</title>
<path fill="none" stroke="#191970" d="M168.8583,-56.2455C163.1556,-48.4564 155.01,-37.3308 148.1375,-27.9439"/>
<polygon fill="#191970" stroke="#191970" points="150.7913,-25.6437 142.0598,-19.6427 145.1432,-29.7789 150.7913,-25.6437"/>
</g>
<!-- Node5 -->
<g id="node5" class="node">
<title>Node5</title>
<g id="a_node5"><a xlink:href="tamtypes_8h.html" target="_top" xlink:title=" ">
<polygon fill="#ffffff" stroke="#000000" points="181,-.5 181,-19.5 253,-19.5 253,-.5 181,-.5"/>
<text text-anchor="middle" x="217" y="-7.5" font-family="Helvetica,sans-Serif" font-size="10.00" fill="#000000">tamtypes.h</text>
</a>
</g>
</g>
<!-- Node3&#45;&gt;Node5 -->
<g id="edge4" class="edge">
<title>Node3&#45;&gt;Node5</title>
<path fill="none" stroke="#191970" d="M183.1417,-56.2455C188.8444,-48.4564 196.99,-37.3308 203.8625,-27.9439"/>
<polygon fill="#191970" stroke="#191970" points="206.8568,-29.7789 209.9402,-19.6427 201.2087,-25.6437 206.8568,-29.7789"/>
</g>
<!-- Node6&#45;&gt;Node3 -->
<g id="edge6" class="edge">
<title>Node6&#45;&gt;Node3</title>
<path fill="none" stroke="#191970" d="M226.3746,-112.2455C217.4527,-104.0549 204.512,-92.1749 193.9808,-82.5069"/>
<polygon fill="#191970" stroke="#191970" points="196.2371,-79.8271 186.5036,-75.6427 191.5032,-84.9837 196.2371,-79.8271"/>
</g>
<!-- Node7&#45;&gt;Node3 -->
<g id="edge8" class="edge">
<title>Node7&#45;&gt;Node3</title>
<path fill="none" stroke="#191970" d="M44.2774,-168.4509C69.0387,-149.1921 125.1862,-105.5218 155.5655,-81.8935"/>
<polygon fill="#191970" stroke="#191970" points="158.009,-84.4271 163.7537,-75.5249 153.7114,-78.9016 158.009,-84.4271"/>
</g>
<!-- Node7&#45;&gt;Node6 -->
<g id="edge9" class="edge">
<title>Node7&#45;&gt;Node6</title>
<path fill="none" stroke="#191970" d="M64.1255,-170.0154C103.6734,-160.1284 169.4659,-143.4807 207.7665,-132.1551"/>
<polygon fill="#191970" stroke="#191970" points="209.2427,-135.3648 217.7955,-129.1119 207.2101,-128.6664 209.2427,-135.3648"/>
</g>
<!-- Node8&#45;&gt;Node6 -->
<g id="edge12" class="edge">
<title>Node8&#45;&gt;Node6</title>
<path fill="none" stroke="#191970" d="M200.6642,-168.2455C206.8473,-160.3761 215.7063,-149.101 223.1289,-139.6542"/>
<polygon fill="#191970" stroke="#191970" points="225.9975,-141.6683 229.4236,-131.6427 220.4932,-137.3435 225.9975,-141.6683"/>
</g>
<!-- Node9 -->
<g id="node9" class="node">
<title>Node9</title>
<g id="a_node9"><a xlink:title=" ">
<polygon fill="#ffffff" stroke="#bfbfbf" points="144,-112.5 144,-131.5 200,-131.5 200,-112.5 144,-112.5"/>
<text text-anchor="middle" x="172" y="-119.5" font-family="Helvetica,sans-Serif" font-size="10.00" fill="#000000">stdarg.h</text>
</a>
</g>
</g>
<!-- Node8&#45;&gt;Node9 -->
<g id="edge11" class="edge">
<title>Node8&#45;&gt;Node9</title>
<path fill="none" stroke="#191970" d="M189.3421,-168.2455C186.5416,-160.7776 182.591,-150.2427 179.1676,-141.1137"/>
<polygon fill="#191970" stroke="#191970" points="182.4045,-139.777 175.616,-131.6427 175.8501,-142.2349 182.4045,-139.777"/>
</g>
<!-- Node10&#45;&gt;Node3 -->
<g id="edge14" class="edge">
<title>Node10&#45;&gt;Node3</title>
<path fill="none" stroke="#191970" d="M117.4368,-168.0756C119.6837,-154.6796 124.8627,-130.3748 135,-112 140.8912,-101.3217 149.666,-91.0318 157.5879,-82.9019"/>
<polygon fill="#191970" stroke="#191970" points="160.3915,-85.0552 165.0872,-75.5577 155.4937,-80.054 160.3915,-85.0552"/>
</g>
<!-- Node10&#45;&gt;Node6 -->
<g id="edge15" class="edge">
<title>Node10&#45;&gt;Node6</title>
<path fill="none" stroke="#191970" d="M136.8006,-168.3733C156.5774,-159.2204 186.4873,-145.3778 208.4822,-135.1983"/>
<polygon fill="#191970" stroke="#191970" points="210.0631,-138.3234 217.6683,-130.9469 207.123,-131.9707 210.0631,-138.3234"/>
</g>
<!-- Node10&#45;&gt;Node9 -->
<g id="edge16" class="edge">
<title>Node10&#45;&gt;Node9</title>
<path fill="none" stroke="#191970" d="M125.7545,-168.2455C133.8648,-160.1352 145.5925,-148.4075 155.2081,-138.7919"/>
<polygon fill="#191970" stroke="#191970" points="157.7611,-141.1887 162.3573,-131.6427 152.8113,-136.2389 157.7611,-141.1887"/>
</g>
<!-- Node11&#45;&gt;Node6 -->
<g id="edge19" class="edge">
<title>Node11&#45;&gt;Node6</title>
<path fill="none" stroke="#191970" d="M367.8388,-168.3733C339.4255,-158.3027 294.9945,-142.555 265.9353,-132.2555"/>
<polygon fill="#191970" stroke="#191970" points="266.9439,-128.8998 256.3492,-128.8579 264.6054,-135.4976 266.9439,-128.8998"/>
</g>
<!-- Node12 -->
<g id="node12" class="node">
<title>Node12</title>
<g id="a_node12"><a xlink:title=" ">
<polygon fill="#ffffff" stroke="#bfbfbf" points="464.5,-112.5 464.5,-131.5 517.5,-131.5 517.5,-112.5 464.5,-112.5"/>
<text text-anchor="middle" x="491" y="-119.5" font-family="Helvetica,sans-Serif" font-size="10.00" fill="#000000">types.h</text>
</a>
</g>
</g>
<!-- Node11&#45;&gt;Node12 -->
<g id="edge18" class="edge">
<title>Node11&#45;&gt;Node12</title>
<path fill="none" stroke="#191970" d="M411.7219,-168.2455C426.5889,-159.5731 448.5466,-146.7645 465.5858,-136.825"/>
<polygon fill="#191970" stroke="#191970" points="467.5955,-139.7047 474.4697,-131.6427 464.0683,-133.6582 467.5955,-139.7047"/>
</g>
<!-- Node13 -->
<g id="node13" class="node">
<title>Node13</title>
<g id="a_node13"><a xlink:href="usbhdfsd-common_8h.html" target="_top" xlink:title=" ">
<polygon fill="#ffffff" stroke="#000000" points="330,-112.5 330,-131.5 446,-131.5 446,-112.5 330,-112.5"/>
<text text-anchor="middle" x="388" y="-119.5" font-family="Helvetica,sans-Serif" font-size="10.00" fill="#000000">usbhdfsd&#45;common.h</text>
</a>
</g>
</g>
<!-- Node11&#45;&gt;Node13 -->
<g id="edge20" class="edge">
<title>Node11&#45;&gt;Node13</title>
<path fill="none" stroke="#191970" d="M393.7807,-168.2455C392.8673,-160.9382 391.5868,-150.6944 390.4631,-141.7046"/>
<polygon fill="#191970" stroke="#191970" points="393.9187,-141.1313 389.2053,-131.6427 386.9728,-141.9996 393.9187,-141.1313"/>
</g>
</g>
</svg>
