<?xml version="1.0" encoding="UTF-8" standalone="no"?>
<!DOCTYPE svg PUBLIC "-//W3C//DTD SVG 1.1//EN"
 "http://www.w3.org/Graphics/SVG/1.1/DTD/svg11.dtd">
<!-- Generated by graphviz version 2.40.1 (20161225.0304)
 -->
<!-- Title: iop/usb/usbd/src/usbio.h Pages: 1 -->
<svg width="744pt" height="84pt"
 viewBox="0.00 0.00 743.50 84.00" xmlns="http://www.w3.org/2000/svg" xmlns:xlink="http://www.w3.org/1999/xlink">
<g id="graph0" class="graph" transform="scale(1 1) rotate(0) translate(4 80)">
<title>iop/usb/usbd/src/usbio.h</title>
<polygon fill="#ffffff" stroke="transparent" points="-4,4 -4,-80 739.5,-80 739.5,4 -4,4"/>
<!-- Node1 -->
<g id="node1" class="node">
<title>Node1</title>
<g id="a_node1"><a xlink:title=" ">
<polygon fill="#bfbfbf" stroke="#000000" points="294,-56.5 294,-75.5 428,-75.5 428,-56.5 294,-56.5"/>
<text text-anchor="middle" x="361" y="-63.5" font-family="Helvetica,sans-Serif" font-size="10.00" fill="#000000">iop/usb/usbd/src/usbio.h</text>
</a>
</g>
</g>
<!-- Node2 -->
<g id="node2" class="node">
<title>Node2</title>
<g id="a_node2"><a xlink:href="hcd_8c.html" target="_top" xlink:title=" ">
<polygon fill="#ffffff" stroke="#000000" points="0,-.5 0,-19.5 124,-19.5 124,-.5 0,-.5"/>
<text text-anchor="middle" x="62" y="-7.5" font-family="Helvetica,sans-Serif" font-size="10.00" fill="#000000">iop/usb/usbd/src/hcd.c</text>
</a>
</g>
</g>
<!-- Node1&#45;&gt;Node2 -->
<g id="edge1" class="edge">
<title>Node1&#45;&gt;Node2</title>
<path fill="none" stroke="#191970" d="M299.9473,-54.5654C244.8027,-44.2373 164.589,-29.214 112.8496,-19.5237"/>
<polygon fill="#191970" stroke="#191970" points="299.4664,-58.0361 309.9398,-56.4369 300.7551,-51.1557 299.4664,-58.0361"/>
</g>
<!-- Node3 -->
<g id="node3" class="node">
<title>Node3</title>
<g id="a_node3"><a xlink:href="hub_8c.html" target="_top" xlink:title=" ">
<polygon fill="#ffffff" stroke="#000000" points="142.5,-.5 142.5,-19.5 267.5,-19.5 267.5,-.5 142.5,-.5"/>
<text text-anchor="middle" x="205" y="-7.5" font-family="Helvetica,sans-Serif" font-size="10.00" fill="#000000">iop/usb/usbd/src/hub.c</text>
</a>
</g>
</g>
<!-- Node1&#45;&gt;Node3 -->
<g id="edge2" class="edge">
<title>Node1&#45;&gt;Node3</title>
<path fill="none" stroke="#191970" d="M324.5716,-52.9231C296.0539,-42.686 257.0619,-28.6889 231.4674,-19.5011"/>
<polygon fill="#191970" stroke="#191970" points="323.5881,-56.2887 334.1826,-56.3733 325.9532,-49.7004 323.5881,-56.2887"/>
</g>
<!-- Node4 -->
<g id="node4" class="node">
<title>Node4</title>
<g id="a_node4"><a xlink:href="interface_8c.html" target="_top" xlink:title=" ">
<polygon fill="#ffffff" stroke="#000000" points="286,-.5 286,-19.5 436,-19.5 436,-.5 286,-.5"/>
<text text-anchor="middle" x="361" y="-7.5" font-family="Helvetica,sans-Serif" font-size="10.00" fill="#000000">iop/usb/usbd/src/interface.c</text>
</a>
</g>
</g>
<!-- Node1&#45;&gt;Node4 -->
<g id="edge3" class="edge">
<title>Node1&#45;&gt;Node4</title>
<path fill="none" stroke="#191970" d="M361,-46.1575C361,-37.155 361,-26.9199 361,-19.6427"/>
<polygon fill="#191970" stroke="#191970" points="357.5001,-46.2455 361,-56.2455 364.5001,-46.2456 357.5001,-46.2455"/>
</g>
<!-- Node5 -->
<g id="node5" class="node">
<title>Node5</title>
<g id="a_node5"><a xlink:href="usbd_8c.html" target="_top" xlink:title=" ">
<polygon fill="#ffffff" stroke="#000000" points="454,-.5 454,-19.5 584,-19.5 584,-.5 454,-.5"/>
<text text-anchor="middle" x="519" y="-7.5" font-family="Helvetica,sans-Serif" font-size="10.00" fill="#000000">iop/usb/usbd/src/usbd.c</text>
</a>
</g>
</g>
<!-- Node1&#45;&gt;Node5 -->
<g id="edge4" class="edge">
<title>Node1&#45;&gt;Node5</title>
<path fill="none" stroke="#191970" d="M397.8955,-52.9231C426.7787,-42.686 466.2706,-28.6889 492.1933,-19.5011"/>
<polygon fill="#191970" stroke="#191970" points="396.4174,-49.7336 388.1612,-56.3733 398.7559,-56.3314 396.4174,-49.7336"/>
</g>
<!-- Node6 -->
<g id="node6" class="node">
<title>Node6</title>
<g id="a_node6"><a xlink:href="usbio_8c.html" target="_top" xlink:title=" ">
<polygon fill="#ffffff" stroke="#000000" points="602.5,-.5 602.5,-19.5 735.5,-19.5 735.5,-.5 602.5,-.5"/>
<text text-anchor="middle" x="669" y="-7.5" font-family="Helvetica,sans-Serif" font-size="10.00" fill="#000000">iop/usb/usbd/src/usbio.c</text>
</a>
</g>
</g>
<!-- Node1&#45;&gt;Node6 -->
<g id="edge5" class="edge">
<title>Node1&#45;&gt;Node6</title>
<path fill="none" stroke="#191970" d="M423.5371,-54.6296C480.3519,-44.2997 563.2124,-29.2341 616.6198,-19.5237"/>
<polygon fill="#191970" stroke="#191970" points="422.8097,-51.2044 413.5971,-56.4369 424.062,-58.0915 422.8097,-51.2044"/>
</g>
</g>
</svg>
