<?xml version="1.0" encoding="UTF-8" standalone="no"?>
<!DOCTYPE svg PUBLIC "-//W3C//DTD SVG 1.1//EN"
 "http://www.w3.org/Graphics/SVG/1.1/DTD/svg11.dtd">
<!-- Generated by graphviz version 2.40.1 (20161225.0304)
 -->
<!-- Title: iop/network/smap/src/xfer.c Pages: 1 -->
<!--zoomable 263 -->
<svg id="main" version="1.1" xmlns="http://www.w3.org/2000/svg" xmlns:xlink="http://www.w3.org/1999/xlink" xml:space="preserve" onload="init(evt)">
<style type="text/css"><![CDATA[
.edge:hover path { stroke: red; }
.edge:hover polygon { stroke: red; fill: red; }
]]></style>
<script type="text/javascript"><![CDATA[
var edges = document.getElementsByTagName('g');
if (edges && edges.length) {
  for (var i=0;i<edges.length;i++) {
    if (edges[i].id.substr(0,4)=='edge') {
      edges[i].setAttribute('class','edge');
    }
  }
}
]]></script>
        <defs>
                <circle id="rim" cx="0" cy="0" r="7"/>
                <circle id="rim2" cx="0" cy="0" r="3.5"/>
                <g id="zoomPlus">
                        <use xlink:href="#rim" fill="#404040">
                                <set attributeName="fill" to="#808080" begin="zoomplus.mouseover" end="zoomplus.mouseout"/>
                        </use>
                        <path d="M-4,0h8M0,-4v8" fill="none" stroke="white" stroke-width="1.5" pointer-events="none"/>
                </g>
                <g id="zoomMin">
                        <use xlink:href="#rim" fill="#404040">
                                <set attributeName="fill" to="#808080" begin="zoomminus.mouseover" end="zoomminus.mouseout"/>
                        </use>
                        <path d="M-4,0h8" fill="none" stroke="white" stroke-width="1.5" pointer-events="none"/>
                </g>
                <g id="dirArrow">
                        <path fill="none" stroke="white" stroke-width="1.5" d="M0,-3.0v7 M-2.5,-0.5L0,-3.0L2.5,-0.5"/>
                </g>
               <g id="resetDef">
                       <use xlink:href="#rim2" fill="#404040">
                               <set attributeName="fill" to="#808080" begin="reset.mouseover" end="reset.mouseout"/>
                       </use>
               </g>
        </defs>

<script type="text/javascript">
var viewWidth = 1188;
var viewHeight = 263;
var sectionId = 'dynsection-0';
</script>
<script xlink:href="svgpan.js"/>
<svg id="graph" class="graph">
<g id="viewport">
<title>iop/network/smap/src/xfer.c</title>
<polygon fill="#ffffff" stroke="transparent" points="-4,4 -4,-259 1183.5,-259 1183.5,4 -4,4"/>
<!-- Node1 -->
<g id="node1" class="node">
<title>Node1</title>
<g id="a_node1"><a xlink:title=" ">
<polygon fill="#bfbfbf" stroke="#000000" points="581.5,-224.5 581.5,-254.5 703.5,-254.5 703.5,-224.5 581.5,-224.5"/>
<text text-anchor="start" x="589.5" y="-242.5" font-family="Helvetica,sans-Serif" font-size="10.00" fill="#000000">iop/network/smap/src</text>
<text text-anchor="middle" x="642.5" y="-231.5" font-family="Helvetica,sans-Serif" font-size="10.00" fill="#000000">/xfer.c</text>
</a>
</g>
</g>
<!-- Node2 -->
<g id="node2" class="node">
<title>Node2</title>
<g id="a_node2"><a xlink:href="errno_8h.html" target="_top" xlink:title=" ">
<polygon fill="#ffffff" stroke="#000000" points="0,-168.5 0,-187.5 51,-187.5 51,-168.5 0,-168.5"/>
<text text-anchor="middle" x="25.5" y="-175.5" font-family="Helvetica,sans-Serif" font-size="10.00" fill="#000000">errno.h</text>
</a>
</g>
</g>
<!-- Node1&#45;&gt;Node2 -->
<g id="edge1" class="edge">
<title>Node1&#45;&gt;Node2</title>
<path fill="none" stroke="#191970" d="M581.1045,-238.0633C476.0562,-234.7364 255.1587,-223.9534 61.4387,-188.0738"/>
<polygon fill="#191970" stroke="#191970" points="61.8339,-184.5868 51.3595,-186.1794 60.5409,-191.4664 61.8339,-184.5868"/>
</g>
<!-- Node3 -->
<g id="node3" class="node">
<title>Node3</title>
<g id="a_node3"><a xlink:href="stdio_8h.html" target="_top" xlink:title=" ">
<polygon fill="#ffffff" stroke="#000000" points="697.5,-168.5 697.5,-187.5 747.5,-187.5 747.5,-168.5 697.5,-168.5"/>
<text text-anchor="middle" x="722.5" y="-175.5" font-family="Helvetica,sans-Serif" font-size="10.00" fill="#000000">stdio.h</text>
</a>
</g>
</g>
<!-- Node1&#45;&gt;Node3 -->
<g id="edge2" class="edge">
<title>Node1&#45;&gt;Node3</title>
<path fill="none" stroke="#191970" d="M662.2753,-224.2977C674.1898,-215.1384 689.3532,-203.4816 701.4838,-194.1562"/>
<polygon fill="#191970" stroke="#191970" points="703.896,-196.7165 709.691,-187.8469 699.6297,-191.1668 703.896,-196.7165"/>
</g>
<!-- Node5 -->
<g id="node5" class="node">
<title>Node5</title>
<g id="a_node5"><a xlink:href="irx_8h.html" target="_top" xlink:title=" ">
<polygon fill="#ffffff" stroke="#000000" points="469.5,-112.5 469.5,-131.5 507.5,-131.5 507.5,-112.5 469.5,-112.5"/>
<text text-anchor="middle" x="488.5" y="-119.5" font-family="Helvetica,sans-Serif" font-size="10.00" fill="#000000">irx.h</text>
</a>
</g>
</g>
<!-- Node1&#45;&gt;Node5 -->
<g id="edge40" class="edge">
<title>Node1&#45;&gt;Node5</title>
<path fill="none" stroke="#191970" d="M581.2021,-227.5907C556.3861,-219.9854 529.2318,-207.6972 510.5,-188 498.5612,-175.4459 493.0944,-156.24 490.5951,-141.7776"/>
<polygon fill="#191970" stroke="#191970" points="494.0556,-141.2503 489.2043,-131.8314 487.123,-142.2198 494.0556,-141.2503"/>
</g>
<!-- Node9 -->
<g id="node9" class="node">
<title>Node9</title>
<g id="a_node9"><a xlink:href="dmacman_8h.html" target="_top" xlink:title=" ">
<polygon fill="#ffffff" stroke="#000000" points="605.5,-168.5 605.5,-187.5 679.5,-187.5 679.5,-168.5 605.5,-168.5"/>
<text text-anchor="middle" x="642.5" y="-175.5" font-family="Helvetica,sans-Serif" font-size="10.00" fill="#000000">dmacman.h</text>
</a>
</g>
</g>
<!-- Node1&#45;&gt;Node9 -->
<g id="edge8" class="edge">
<title>Node1&#45;&gt;Node9</title>
<path fill="none" stroke="#191970" d="M642.5,-224.2977C642.5,-216.3834 642.5,-206.6043 642.5,-198.0759"/>
<polygon fill="#191970" stroke="#191970" points="646.0001,-197.8469 642.5,-187.8469 639.0001,-197.847 646.0001,-197.8469"/>
</g>
<!-- Node10 -->
<g id="node10" class="node">
<title>Node10</title>
<g id="a_node10"><a xlink:href="dev9_8h.html" target="_top" xlink:title=" ">
<polygon fill="#ffffff" stroke="#000000" points="843.5,-168.5 843.5,-187.5 893.5,-187.5 893.5,-168.5 843.5,-168.5"/>
<text text-anchor="middle" x="868.5" y="-175.5" font-family="Helvetica,sans-Serif" font-size="10.00" fill="#000000">dev9.h</text>
</a>
</g>
</g>
<!-- Node1&#45;&gt;Node10 -->
<g id="edge11" class="edge">
<title>Node1&#45;&gt;Node10</title>
<path fill="none" stroke="#191970" d="M699.392,-224.398C737.4024,-214.2497 788.4948,-200.496 833.5,-188 833.5989,-187.9725 833.6981,-187.945 833.7973,-187.9174"/>
<polygon fill="#191970" stroke="#191970" points="834.5964,-191.3285 843.2776,-185.255 832.7038,-184.5892 834.5964,-191.3285"/>
</g>
<!-- Node13 -->
<g id="node13" class="node">
<title>Node13</title>
<g id="a_node13"><a xlink:href="intrman_8h.html" target="_top" xlink:title=" ">
<polygon fill="#ffffff" stroke="#000000" points="313.5,-168.5 313.5,-187.5 377.5,-187.5 377.5,-168.5 313.5,-168.5"/>
<text text-anchor="middle" x="345.5" y="-175.5" font-family="Helvetica,sans-Serif" font-size="10.00" fill="#000000">intrman.h</text>
</a>
</g>
</g>
<!-- Node1&#45;&gt;Node13 -->
<g id="edge16" class="edge">
<title>Node1&#45;&gt;Node13</title>
<path fill="none" stroke="#191970" d="M581.3171,-227.9179C531.6954,-218.3585 459.7018,-204.1157 387.8372,-188.236"/>
<polygon fill="#191970" stroke="#191970" points="388.221,-184.7361 377.7,-185.9848 386.7034,-191.5696 388.221,-184.7361"/>
</g>
<!-- Node14 -->
<g id="node14" class="node">
<title>Node14</title>
<g id="a_node14"><a xlink:href="loadcore_8h.html" target="_top" xlink:title=" ">
<polygon fill="#ffffff" stroke="#000000" points="395.5,-168.5 395.5,-187.5 463.5,-187.5 463.5,-168.5 395.5,-168.5"/>
<text text-anchor="middle" x="429.5" y="-175.5" font-family="Helvetica,sans-Serif" font-size="10.00" fill="#000000">loadcore.h</text>
</a>
</g>
</g>
<!-- Node1&#45;&gt;Node14 -->
<g id="edge19" class="edge">
<title>Node1&#45;&gt;Node14</title>
<path fill="none" stroke="#191970" d="M590.3943,-224.4554C554.0754,-213.9689 506.2197,-200.1515 472.1646,-190.3187"/>
<polygon fill="#191970" stroke="#191970" points="473.0859,-186.9418 462.5074,-187.5303 471.1441,-193.667 473.0859,-186.9418"/>
</g>
<!-- Node15 -->
<g id="node15" class="node">
<title>Node15</title>
<g id="a_node15"><a xlink:href="modload_8h.html" target="_top" xlink:title=" ">
<polygon fill="#ffffff" stroke="#000000" points="519.5,-168.5 519.5,-187.5 587.5,-187.5 587.5,-168.5 519.5,-168.5"/>
<text text-anchor="middle" x="553.5" y="-175.5" font-family="Helvetica,sans-Serif" font-size="10.00" fill="#000000">modload.h</text>
</a>
</g>
</g>
<!-- Node1&#45;&gt;Node15 -->
<g id="edge22" class="edge">
<title>Node1&#45;&gt;Node15</title>
<path fill="none" stroke="#191970" d="M620.5,-224.2977C606.9032,-214.9022 589.5034,-202.8787 575.8433,-193.4395"/>
<polygon fill="#191970" stroke="#191970" points="577.7009,-190.4688 567.4842,-187.6633 573.7215,-196.2276 577.7009,-190.4688"/>
</g>
<!-- Node16 -->
<g id="node16" class="node">
<title>Node16</title>
<g id="a_node16"><a xlink:href="sysclib_8h.html" target="_top" xlink:title=" ">
<polygon fill="#ffffff" stroke="#000000" points="766,-168.5 766,-187.5 825,-187.5 825,-168.5 766,-168.5"/>
<text text-anchor="middle" x="795.5" y="-175.5" font-family="Helvetica,sans-Serif" font-size="10.00" fill="#000000">sysclib.h</text>
</a>
</g>
</g>
<!-- Node1&#45;&gt;Node16 -->
<g id="edge25" class="edge">
<title>Node1&#45;&gt;Node16</title>
<path fill="none" stroke="#191970" d="M679.928,-224.4554C705.1206,-214.329 738.0407,-201.0964 762.2996,-191.3453"/>
<polygon fill="#191970" stroke="#191970" points="763.8173,-194.5074 771.7904,-187.5303 761.2066,-188.0125 763.8173,-194.5074"/>
</g>
<!-- Node18 -->
<g id="node18" class="node">
<title>Node18</title>
<g id="a_node18"><a xlink:href="thbase_8h.html" target="_top" xlink:title=" ">
<polygon fill="#ffffff" stroke="#000000" points="69,-168.5 69,-187.5 128,-187.5 128,-168.5 69,-168.5"/>
<text text-anchor="middle" x="98.5" y="-175.5" font-family="Helvetica,sans-Serif" font-size="10.00" fill="#000000">thbase.h</text>
</a>
</g>
</g>
<!-- Node1&#45;&gt;Node18 -->
<g id="edge31" class="edge">
<title>Node1&#45;&gt;Node18</title>
<path fill="none" stroke="#191970" d="M581.3171,-236.3582C487.7054,-230.8738 303.2615,-217.3982 138.5887,-188.1613"/>
<polygon fill="#191970" stroke="#191970" points="138.7343,-184.6313 128.2723,-186.3041 137.494,-191.5206 138.7343,-184.6313"/>
</g>
<!-- Node19 -->
<g id="node19" class="node">
<title>Node19</title>
<g id="a_node19"><a xlink:href="thevent_8h.html" target="_top" xlink:title=" ">
<polygon fill="#ffffff" stroke="#000000" points="146,-168.5 146,-187.5 209,-187.5 209,-168.5 146,-168.5"/>
<text text-anchor="middle" x="177.5" y="-175.5" font-family="Helvetica,sans-Serif" font-size="10.00" fill="#000000">thevent.h</text>
</a>
</g>
</g>
<!-- Node1&#45;&gt;Node19 -->
<g id="edge34" class="edge">
<title>Node1&#45;&gt;Node19</title>
<path fill="none" stroke="#191970" d="M581.4243,-234.3707C500.7416,-227.0869 354.0965,-212.0933 219.301,-187.955"/>
<polygon fill="#191970" stroke="#191970" points="219.6685,-184.4646 209.2047,-186.1256 218.4204,-191.3525 219.6685,-184.4646"/>
</g>
<!-- Node20 -->
<g id="node20" class="node">
<title>Node20</title>
<g id="a_node20"><a xlink:href="thsemap_8h.html" target="_top" xlink:title=" ">
<polygon fill="#ffffff" stroke="#000000" points="227.5,-168.5 227.5,-187.5 295.5,-187.5 295.5,-168.5 227.5,-168.5"/>
<text text-anchor="middle" x="261.5" y="-175.5" font-family="Helvetica,sans-Serif" font-size="10.00" fill="#000000">thsemap.h</text>
</a>
</g>
</g>
<!-- Node1&#45;&gt;Node20 -->
<g id="edge37" class="edge">
<title>Node1&#45;&gt;Node20</title>
<path fill="none" stroke="#191970" d="M581.196,-231.6103C515.4126,-222.8177 407.6751,-207.4789 305.5779,-188.0969"/>
<polygon fill="#191970" stroke="#191970" points="306.1965,-184.6519 295.7167,-186.2087 304.88,-191.527 306.1965,-184.6519"/>
</g>
<!-- Node21 -->
<g id="node21" class="node">
<title>Node21</title>
<g id="a_node21"><a xlink:href="smapregs_8h.html" target="_top" xlink:title=" ">
<polygon fill="#ffffff" stroke="#000000" points="911.5,-168.5 911.5,-187.5 985.5,-187.5 985.5,-168.5 911.5,-168.5"/>
<text text-anchor="middle" x="948.5" y="-175.5" font-family="Helvetica,sans-Serif" font-size="10.00" fill="#000000">smapregs.h</text>
</a>
</g>
</g>
<!-- Node1&#45;&gt;Node21 -->
<g id="edge41" class="edge">
<title>Node1&#45;&gt;Node21</title>
<path fill="none" stroke="#191970" d="M703.5034,-227.7476C753.9688,-217.9496 827.7921,-203.4434 901.4389,-188.1947"/>
<polygon fill="#191970" stroke="#191970" points="902.2754,-191.5958 911.3555,-186.1366 900.8529,-184.7418 902.2754,-191.5958"/>
</g>
<!-- Node22 -->
<g id="node22" class="node">
<title>Node22</title>
<g id="a_node22"><a xlink:href="speedregs_8h.html" target="_top" xlink:title=" ">
<polygon fill="#ffffff" stroke="#000000" points="959.5,-112.5 959.5,-131.5 1035.5,-131.5 1035.5,-112.5 959.5,-112.5"/>
<text text-anchor="middle" x="997.5" y="-119.5" font-family="Helvetica,sans-Serif" font-size="10.00" fill="#000000">speedregs.h</text>
</a>
</g>
</g>
<!-- Node1&#45;&gt;Node22 -->
<g id="edge45" class="edge">
<title>Node1&#45;&gt;Node22</title>
<path fill="none" stroke="#191970" d="M703.5113,-234.7661C799.095,-226.7383 975.283,-209.2384 994.5,-188 1005.5386,-175.8002 1005.1491,-156.5516 1002.6724,-141.9831"/>
<polygon fill="#191970" stroke="#191970" points="1006.0405,-140.9958 1000.5264,-131.949 999.1953,-142.4599 1006.0405,-140.9958"/>
</g>
<!-- Node23 -->
<g id="node23" class="node">
<title>Node23</title>
<g id="a_node23"><a xlink:href="netman_8h.html" target="_top" xlink:title=" ">
<polygon fill="#ffffff" stroke="#000000" points="1022,-56.5 1022,-75.5 1085,-75.5 1085,-56.5 1022,-56.5"/>
<text text-anchor="middle" x="1053.5" y="-63.5" font-family="Helvetica,sans-Serif" font-size="10.00" fill="#000000">netman.h</text>
</a>
</g>
</g>
<!-- Node1&#45;&gt;Node23 -->
<g id="edge46" class="edge">
<title>Node1&#45;&gt;Node23</title>
<path fill="none" stroke="#191970" d="M703.8312,-237.5396C795.942,-233.521 964.4455,-221.6735 1013.5,-188 1046.6106,-165.2712 1052.928,-114.1032 1053.7655,-85.7864"/>
<polygon fill="#191970" stroke="#191970" points="1057.2677,-85.5479 1053.8554,-75.5176 1050.2679,-85.4865 1057.2677,-85.5479"/>
</g>
<!-- Node24 -->
<g id="node24" class="node">
<title>Node24</title>
<g id="a_node24"><a xlink:href="main_8h.html" target="_top" xlink:title=" ">
<polygon fill="#ffffff" stroke="#000000" points="1129.5,-168.5 1129.5,-187.5 1179.5,-187.5 1179.5,-168.5 1129.5,-168.5"/>
<text text-anchor="middle" x="1154.5" y="-175.5" font-family="Helvetica,sans-Serif" font-size="10.00" fill="#000000">main.h</text>
</a>
</g>
</g>
<!-- Node1&#45;&gt;Node24 -->
<g id="edge48" class="edge">
<title>Node1&#45;&gt;Node24</title>
<path fill="none" stroke="#191970" d="M703.7539,-235.6323C794.3111,-229.283 969.0057,-214.6163 1115.5,-188 1116.7766,-187.7681 1118.0731,-187.5172 1119.3799,-187.2513"/>
<polygon fill="#191970" stroke="#191970" points="1120.454,-190.5972 1129.4409,-184.9859 1118.9163,-183.7682 1120.454,-190.5972"/>
</g>
<!-- Node25 -->
<g id="node25" class="node">
<title>Node25</title>
<g id="a_node25"><a xlink:href="xfer_8h.html" target="_top" xlink:title=" ">
<polygon fill="#ffffff" stroke="#000000" points="1111.5,-112.5 1111.5,-131.5 1155.5,-131.5 1155.5,-112.5 1111.5,-112.5"/>
<text text-anchor="middle" x="1133.5" y="-119.5" font-family="Helvetica,sans-Serif" font-size="10.00" fill="#000000">xfer.h</text>
</a>
</g>
</g>
<!-- Node1&#45;&gt;Node25 -->
<g id="edge50" class="edge">
<title>Node1&#45;&gt;Node25</title>
<path fill="none" stroke="#191970" d="M703.6925,-237.731C807.8001,-233.826 1014.2596,-221.9361 1077.5,-188 1097.6762,-177.1731 1113.6738,-155.8523 1123.319,-140.3657"/>
<polygon fill="#191970" stroke="#191970" points="1126.411,-142.0129 1128.4843,-131.6229 1120.3842,-138.4523 1126.411,-142.0129"/>
</g>
<!-- Node4 -->
<g id="node4" class="node">
<title>Node4</title>
<g id="a_node4"><a xlink:title=" ">
<polygon fill="#ffffff" stroke="#bfbfbf" points="661.5,-112.5 661.5,-131.5 717.5,-131.5 717.5,-112.5 661.5,-112.5"/>
<text text-anchor="middle" x="689.5" y="-119.5" font-family="Helvetica,sans-Serif" font-size="10.00" fill="#000000">stdarg.h</text>
</a>
</g>
</g>
<!-- Node3&#45;&gt;Node4 -->
<g id="edge3" class="edge">
<title>Node3&#45;&gt;Node4</title>
<path fill="none" stroke="#191970" d="M716.7518,-168.2455C712.2565,-160.617 705.8752,-149.7881 700.4175,-140.5267"/>
<polygon fill="#191970" stroke="#191970" points="703.2747,-138.4811 695.1823,-131.6427 697.2439,-142.035 703.2747,-138.4811"/>
</g>
<!-- Node3&#45;&gt;Node5 -->
<g id="edge4" class="edge">
<title>Node3&#45;&gt;Node5</title>
<path fill="none" stroke="#191970" d="M697.296,-170.4042C694.338,-169.5671 691.357,-168.748 688.5,-168 628.1677,-152.2046 556.8352,-136.5034 517.7527,-128.1524"/>
<polygon fill="#191970" stroke="#191970" points="518.1299,-124.6544 507.6206,-125.9979 516.6739,-131.5013 518.1299,-124.6544"/>
</g>
<!-- Node6 -->
<g id="node6" class="node">
<title>Node6</title>
<g id="a_node6"><a xlink:href="types_8h.html" target="_top" xlink:title=" ">
<polygon fill="#ffffff" stroke="#000000" points="439,-56.5 439,-75.5 492,-75.5 492,-56.5 439,-56.5"/>
<text text-anchor="middle" x="465.5" y="-63.5" font-family="Helvetica,sans-Serif" font-size="10.00" fill="#000000">types.h</text>
</a>
</g>
</g>
<!-- Node5&#45;&gt;Node6 -->
<g id="edge5" class="edge">
<title>Node5&#45;&gt;Node6</title>
<path fill="none" stroke="#191970" d="M484.4937,-112.2455C481.4265,-104.7776 477.0997,-94.2427 473.3503,-85.1137"/>
<polygon fill="#191970" stroke="#191970" points="476.4972,-83.5631 469.4604,-75.6427 470.0221,-86.2226 476.4972,-83.5631"/>
</g>
<!-- Node7 -->
<g id="node7" class="node">
<title>Node7</title>
<g id="a_node7"><a xlink:title=" ">
<polygon fill="#ffffff" stroke="#bfbfbf" points="437.5,-.5 437.5,-19.5 493.5,-19.5 493.5,-.5 437.5,-.5"/>
<text text-anchor="middle" x="465.5" y="-7.5" font-family="Helvetica,sans-Serif" font-size="10.00" fill="#000000">stddef.h</text>
</a>
</g>
</g>
<!-- Node6&#45;&gt;Node7 -->
<g id="edge6" class="edge">
<title>Node6&#45;&gt;Node7</title>
<path fill="none" stroke="#191970" d="M465.5,-56.2455C465.5,-48.9382 465.5,-38.6944 465.5,-29.7046"/>
<polygon fill="#191970" stroke="#191970" points="469.0001,-29.6426 465.5,-19.6427 462.0001,-29.6427 469.0001,-29.6426"/>
</g>
<!-- Node8 -->
<g id="node8" class="node">
<title>Node8</title>
<g id="a_node8"><a xlink:href="tamtypes_8h.html" target="_top" xlink:title=" ">
<polygon fill="#ffffff" stroke="#000000" points="864.5,-.5 864.5,-19.5 936.5,-19.5 936.5,-.5 864.5,-.5"/>
<text text-anchor="middle" x="900.5" y="-7.5" font-family="Helvetica,sans-Serif" font-size="10.00" fill="#000000">tamtypes.h</text>
</a>
</g>
</g>
<!-- Node6&#45;&gt;Node8 -->
<g id="edge7" class="edge">
<title>Node6&#45;&gt;Node8</title>
<path fill="none" stroke="#191970" d="M492.0564,-62.5812C563.9914,-53.3206 763.2959,-27.6631 854.2134,-15.9587"/>
<polygon fill="#191970" stroke="#191970" points="854.7575,-19.4177 864.2287,-14.6694 853.8636,-12.475 854.7575,-19.4177"/>
</g>
<!-- Node9&#45;&gt;Node5 -->
<g id="edge10" class="edge">
<title>Node9&#45;&gt;Node5</title>
<path fill="none" stroke="#191970" d="M616.0265,-168.3733C588.6066,-158.4024 545.882,-142.8662 517.5481,-132.563"/>
<polygon fill="#191970" stroke="#191970" points="518.4095,-129.152 507.8154,-129.0238 516.0173,-135.7306 518.4095,-129.152"/>
</g>
<!-- Node9&#45;&gt;Node6 -->
<g id="edge9" class="edge">
<title>Node9&#45;&gt;Node6</title>
<path fill="none" stroke="#191970" d="M627.4091,-168.4509C596.5813,-148.9441 526.175,-104.3932 489.1909,-80.9909"/>
<polygon fill="#191970" stroke="#191970" points="490.8746,-77.9144 480.5527,-75.5249 487.1316,-83.8297 490.8746,-77.9144"/>
</g>
<!-- Node10&#45;&gt;Node5 -->
<g id="edge13" class="edge">
<title>Node10&#45;&gt;Node5</title>
<path fill="none" stroke="#191970" d="M843.3742,-170.3472C840.0713,-169.4809 836.7171,-168.6703 833.5,-168 717.9448,-143.9224 577.8626,-129.8062 517.9664,-124.4685"/>
<polygon fill="#191970" stroke="#191970" points="518.0067,-120.9588 507.7396,-123.5736 517.3964,-127.9321 518.0067,-120.9588"/>
</g>
<!-- Node11 -->
<g id="node11" class="node">
<title>Node11</title>
<g id="a_node11"><a xlink:title=" ">
<polygon fill="#ffffff" stroke="#bfbfbf" points="812,-112.5 812,-131.5 865,-131.5 865,-112.5 812,-112.5"/>
<text text-anchor="middle" x="838.5" y="-119.5" font-family="Helvetica,sans-Serif" font-size="10.00" fill="#000000">types.h</text>
</a>
</g>
</g>
<!-- Node10&#45;&gt;Node11 -->
<g id="edge12" class="edge">
<title>Node10&#45;&gt;Node11</title>
<path fill="none" stroke="#191970" d="M863.2744,-168.2455C859.1877,-160.617 853.3865,-149.7881 848.425,-140.5267"/>
<polygon fill="#191970" stroke="#191970" points="851.4732,-138.8047 843.6657,-131.6427 845.3028,-142.1103 851.4732,-138.8047"/>
</g>
<!-- Node12 -->
<g id="node12" class="node">
<title>Node12</title>
<g id="a_node12"><a xlink:href="hdd-ioctl_8h.html" target="_top" xlink:title=" ">
<polygon fill="#ffffff" stroke="#000000" points="835.5,-56.5 835.5,-75.5 903.5,-75.5 903.5,-56.5 835.5,-56.5"/>
<text text-anchor="middle" x="869.5" y="-63.5" font-family="Helvetica,sans-Serif" font-size="10.00" fill="#000000">hdd&#45;ioctl.h</text>
</a>
</g>
</g>
<!-- Node10&#45;&gt;Node12 -->
<g id="edge14" class="edge">
<title>Node10&#45;&gt;Node12</title>
<path fill="none" stroke="#191970" d="M869.8824,-168.1547C871.1136,-158.8576 872.8219,-144.5134 873.5,-132 874.3359,-116.5739 873.1875,-99.1272 871.9101,-86.0474"/>
<polygon fill="#191970" stroke="#191970" points="875.3606,-85.4012 870.801,-75.8377 868.4015,-86.1573 875.3606,-85.4012"/>
</g>
<!-- Node12&#45;&gt;Node8 -->
<g id="edge15" class="edge">
<title>Node12&#45;&gt;Node8</title>
<path fill="none" stroke="#191970" d="M874.8998,-56.2455C879.1227,-48.617 885.1173,-37.7881 890.2441,-28.5267"/>
<polygon fill="#191970" stroke="#191970" points="893.381,-30.0867 895.1621,-19.6427 887.2568,-26.6965 893.381,-30.0867"/>
</g>
<!-- Node13&#45;&gt;Node5 -->
<g id="edge18" class="edge">
<title>Node13&#45;&gt;Node5</title>
<path fill="none" stroke="#191970" d="M370.0826,-168.3733C395.0073,-158.6125 433.551,-143.5185 459.8459,-133.2212"/>
<polygon fill="#191970" stroke="#191970" points="461.2349,-136.4361 469.2701,-129.5306 458.6823,-129.9181 461.2349,-136.4361"/>
</g>
<!-- Node13&#45;&gt;Node6 -->
<g id="edge17" class="edge">
<title>Node13&#45;&gt;Node6</title>
<path fill="none" stroke="#191970" d="M355.7311,-168.4509C376.1885,-149.3574 422.3538,-106.2697 447.8146,-82.5063"/>
<polygon fill="#191970" stroke="#191970" points="450.3723,-84.9068 455.2948,-75.5249 445.5961,-79.7894 450.3723,-84.9068"/>
</g>
<!-- Node14&#45;&gt;Node5 -->
<g id="edge21" class="edge">
<title>Node14&#45;&gt;Node5</title>
<path fill="none" stroke="#191970" d="M439.777,-168.2455C448.3218,-160.1352 460.6778,-148.4075 470.8085,-138.7919"/>
<polygon fill="#191970" stroke="#191970" points="473.4972,-141.0655 478.3408,-131.6427 468.6782,-135.9884 473.4972,-141.0655"/>
</g>
<!-- Node14&#45;&gt;Node6 -->
<g id="edge20" class="edge">
<title>Node14&#45;&gt;Node6</title>
<path fill="none" stroke="#191970" d="M432.5693,-168.4509C438.4674,-150.1013 451.4887,-109.5908 459.2741,-85.3693"/>
<polygon fill="#191970" stroke="#191970" points="462.7104,-86.1162 462.4384,-75.5249 456.0462,-83.9741 462.7104,-86.1162"/>
</g>
<!-- Node15&#45;&gt;Node5 -->
<g id="edge24" class="edge">
<title>Node15&#45;&gt;Node5</title>
<path fill="none" stroke="#191970" d="M542.1779,-168.2455C532.5777,-159.9746 518.6108,-147.9416 507.3305,-138.2232"/>
<polygon fill="#191970" stroke="#191970" points="509.553,-135.5182 499.6924,-131.6427 504.984,-140.8214 509.553,-135.5182"/>
</g>
<!-- Node15&#45;&gt;Node6 -->
<g id="edge23" class="edge">
<title>Node15&#45;&gt;Node6</title>
<path fill="none" stroke="#191970" d="M549.3524,-168.4408C543.2799,-155.0418 531.0918,-130.2703 516.5,-112 507.6637,-100.9362 496.0514,-90.2387 486.1397,-81.9483"/>
<polygon fill="#191970" stroke="#191970" points="488.2823,-79.1796 478.3122,-75.5954 483.8711,-84.6148 488.2823,-79.1796"/>
</g>
<!-- Node16&#45;&gt;Node4 -->
<g id="edge28" class="edge">
<title>Node16&#45;&gt;Node4</title>
<path fill="none" stroke="#191970" d="M777.0362,-168.2455C760.3926,-159.4527 735.7007,-146.4079 716.7808,-136.4125"/>
<polygon fill="#191970" stroke="#191970" points="718.2291,-133.2193 707.7522,-131.6427 714.9592,-139.4086 718.2291,-133.2193"/>
</g>
<!-- Node16&#45;&gt;Node5 -->
<g id="edge27" class="edge">
<title>Node16&#45;&gt;Node5</title>
<path fill="none" stroke="#191970" d="M765.7481,-170.1068C762.6335,-169.3597 759.5077,-168.6426 756.5,-168 670.2644,-149.575 567.1891,-133.5473 517.7614,-126.2281"/>
<polygon fill="#191970" stroke="#191970" points="518.1782,-122.7518 507.7754,-124.7601 517.16,-129.6774 518.1782,-122.7518"/>
</g>
<!-- Node16&#45;&gt;Node6 -->
<g id="edge26" class="edge">
<title>Node16&#45;&gt;Node6</title>
<path fill="none" stroke="#191970" d="M788.2836,-168.061C776.9349,-153.2394 753.4147,-125.6317 726.5,-112 687.7953,-92.3969 564.4728,-76.7122 502.2097,-69.8112"/>
<polygon fill="#191970" stroke="#191970" points="502.3655,-66.3075 492.045,-68.7026 501.6066,-73.2662 502.3655,-66.3075"/>
</g>
<!-- Node17 -->
<g id="node17" class="node">
<title>Node17</title>
<g id="a_node17"><a xlink:href="setjmp_8h.html" target="_top" xlink:title=" ">
<polygon fill="#ffffff" stroke="#000000" points="756,-56.5 756,-75.5 815,-75.5 815,-56.5 756,-56.5"/>
<text text-anchor="middle" x="785.5" y="-63.5" font-family="Helvetica,sans-Serif" font-size="10.00" fill="#000000">setjmp.h</text>
</a>
</g>
</g>
<!-- Node16&#45;&gt;Node17 -->
<g id="edge29" class="edge">
<title>Node16&#45;&gt;Node17</title>
<path fill="none" stroke="#191970" d="M794.6474,-168.4509C793.0164,-150.184 789.4246,-109.9553 787.2587,-85.6976"/>
<polygon fill="#191970" stroke="#191970" points="790.726,-85.174 786.3504,-75.5249 783.7537,-85.7966 790.726,-85.174"/>
</g>
<!-- Node17&#45;&gt;Node8 -->
<g id="edge30" class="edge">
<title>Node17&#45;&gt;Node8</title>
<path fill="none" stroke="#191970" d="M805.2692,-56.3733C823.6469,-47.4241 851.2312,-33.9917 871.9893,-23.8835"/>
<polygon fill="#191970" stroke="#191970" points="873.5304,-27.026 880.9888,-19.5011 870.4657,-20.7325 873.5304,-27.026"/>
</g>
<!-- Node18&#45;&gt;Node5 -->
<g id="edge33" class="edge">
<title>Node18&#45;&gt;Node5</title>
<path fill="none" stroke="#191970" d="M128.2878,-169.7776C131.0536,-169.1302 133.8223,-168.5251 136.5,-168 255.171,-144.7296 398.721,-130.1072 459.2934,-124.5469"/>
<polygon fill="#191970" stroke="#191970" points="459.6391,-128.03 469.2832,-123.6435 459.0086,-121.0585 459.6391,-128.03"/>
</g>
<!-- Node18&#45;&gt;Node6 -->
<g id="edge32" class="edge">
<title>Node18&#45;&gt;Node6</title>
<path fill="none" stroke="#191970" d="M126.4804,-168.427C165.3592,-155.224 237.9968,-130.9135 300.5,-112 344.4807,-98.6914 395.4802,-84.6903 429.0034,-75.681"/>
<polygon fill="#191970" stroke="#191970" points="430.0652,-79.0201 438.819,-73.0516 428.2539,-72.2585 430.0652,-79.0201"/>
</g>
<!-- Node19&#45;&gt;Node5 -->
<g id="edge36" class="edge">
<title>Node19&#45;&gt;Node5</title>
<path fill="none" stroke="#191970" d="M209.2341,-170.026C212.3584,-169.3114 215.4866,-168.6234 218.5,-168 305.6966,-149.9618 409.7958,-133.6998 459.4136,-126.2671"/>
<polygon fill="#191970" stroke="#191970" points="460.0519,-129.7107 469.4276,-124.7764 459.0212,-122.787 460.0519,-129.7107"/>
</g>
<!-- Node19&#45;&gt;Node6 -->
<g id="edge35" class="edge">
<title>Node19&#45;&gt;Node6</title>
<path fill="none" stroke="#191970" d="M202.0547,-168.4509C253.4904,-148.4482 372.6412,-102.1117 431.4345,-79.2477"/>
<polygon fill="#191970" stroke="#191970" points="432.956,-82.4114 441.0074,-75.5249 430.4188,-75.8874 432.956,-82.4114"/>
</g>
<!-- Node20&#45;&gt;Node5 -->
<g id="edge39" class="edge">
<title>Node20&#45;&gt;Node5</title>
<path fill="none" stroke="#191970" d="M295.9764,-169.4948C340.6828,-158.4659 417.8622,-139.4261 459.6341,-129.1211"/>
<polygon fill="#191970" stroke="#191970" points="460.5793,-132.4929 469.4499,-126.6996 458.9026,-125.6967 460.5793,-132.4929"/>
</g>
<!-- Node20&#45;&gt;Node6 -->
<g id="edge38" class="edge">
<title>Node20&#45;&gt;Node6</title>
<path fill="none" stroke="#191970" d="M278.8929,-168.4509C314.7243,-148.7788 396.9481,-103.6363 439.2706,-80.4005"/>
<polygon fill="#191970" stroke="#191970" points="441.0697,-83.4056 448.1511,-75.5249 437.7009,-77.2695 441.0697,-83.4056"/>
</g>
<!-- Node21&#45;&gt;Node8 -->
<g id="edge42" class="edge">
<title>Node21&#45;&gt;Node8</title>
<path fill="none" stroke="#191970" d="M945.7818,-168.4862C938.1613,-141.8144 916.4748,-65.9117 906.1271,-29.695"/>
<polygon fill="#191970" stroke="#191970" points="909.4206,-28.4816 903.308,-19.8279 902.6899,-30.4047 909.4206,-28.4816"/>
</g>
<!-- Node21&#45;&gt;Node22 -->
<g id="edge43" class="edge">
<title>Node21&#45;&gt;Node22</title>
<path fill="none" stroke="#191970" d="M957.0351,-168.2455C963.9912,-160.2958 973.9883,-148.8706 982.3051,-139.3656"/>
<polygon fill="#191970" stroke="#191970" points="985.1116,-141.4732 989.0627,-131.6427 979.8436,-136.8637 985.1116,-141.4732"/>
</g>
<!-- Node22&#45;&gt;Node8 -->
<g id="edge44" class="edge">
<title>Node22&#45;&gt;Node8</title>
<path fill="none" stroke="#191970" d="M990.404,-112.343C980.6691,-99.2499 962.4456,-75.2873 945.5,-56 936.6929,-45.9758 926.3085,-35.2924 917.7357,-26.7468"/>
<polygon fill="#191970" stroke="#191970" points="920.0467,-24.1102 910.4692,-19.5801 915.1313,-29.0941 920.0467,-24.1102"/>
</g>
<!-- Node23&#45;&gt;Node8 -->
<g id="edge47" class="edge">
<title>Node23&#45;&gt;Node8</title>
<path fill="none" stroke="#191970" d="M1027.1984,-56.3733C1002.0872,-47.1822 964.0562,-33.2624 936.2128,-23.0713"/>
<polygon fill="#191970" stroke="#191970" points="937.0522,-19.6516 926.4584,-19.5011 934.6462,-26.2251 937.0522,-19.6516"/>
</g>
<!-- Node24&#45;&gt;Node25 -->
<g id="edge49" class="edge">
<title>Node24&#45;&gt;Node25</title>
<path fill="none" stroke="#191970" d="M1150.8421,-168.2455C1148.0416,-160.7776 1144.091,-150.2427 1140.6676,-141.1137"/>
<polygon fill="#191970" stroke="#191970" points="1143.9045,-139.777 1137.116,-131.6427 1137.3501,-142.2349 1143.9045,-139.777"/>
</g>
</g>
</svg>
        <g id="navigator" transform="translate(0 0)" fill="#404254">
                <rect fill="#f2f5e9" fill-opacity="0.5" stroke="#606060" stroke-width=".5" x="0" y="0" width="60" height="60"/>
                <use id="zoomplus" xlink:href="#zoomPlus" x="17" y="9" onmousedown="handleZoom(evt,'in')"/>
                <use id="zoomminus" xlink:href="#zoomMin" x="42" y="9" onmousedown="handleZoom(evt,'out')"/>
                <use id="reset" xlink:href="#resetDef" x="30" y="36" onmousedown="handleReset()"/>
                <g id="arrowUp" xlink:href="#dirArrow" transform="translate(30 24)" onmousedown="handlePan(0,-1)">
                  <use xlink:href="#rim" fill="#404040">
                        <set attributeName="fill" to="#808080" begin="arrowUp.mouseover" end="arrowUp.mouseout"/>
                  </use>
                  <path fill="none" stroke="white" stroke-width="1.5" d="M0,-3.0v7 M-2.5,-0.5L0,-3.0L2.5,-0.5"/>
                </g>
                <g id="arrowRight" xlink:href="#dirArrow" transform="rotate(90) translate(36 -43)" onmousedown="handlePan(1,0)">
                  <use xlink:href="#rim" fill="#404040">
                        <set attributeName="fill" to="#808080" begin="arrowRight.mouseover" end="arrowRight.mouseout"/>
                  </use>
                  <path fill="none" stroke="white" stroke-width="1.5" d="M0,-3.0v7 M-2.5,-0.5L0,-3.0L2.5,-0.5"/>
                </g>
                <g id="arrowDown" xlink:href="#dirArrow" transform="rotate(180) translate(-30 -48)" onmousedown="handlePan(0,1)">
                  <use xlink:href="#rim" fill="#404040">
                        <set attributeName="fill" to="#808080" begin="arrowDown.mouseover" end="arrowDown.mouseout"/>
                  </use>
                  <path fill="none" stroke="white" stroke-width="1.5" d="M0,-3.0v7 M-2.5,-0.5L0,-3.0L2.5,-0.5"/>
                </g>
                <g id="arrowLeft" xlink:href="#dirArrow" transform="rotate(270) translate(-36 17)" onmousedown="handlePan(-1,0)">
                  <use xlink:href="#rim" fill="#404040">
                        <set attributeName="fill" to="#808080" begin="arrowLeft.mouseover" end="arrowLeft.mouseout"/>
                  </use>
                  <path fill="none" stroke="white" stroke-width="1.5" d="M0,-3.0v7 M-2.5,-0.5L0,-3.0L2.5,-0.5"/>
                </g>
        </g>
        <svg viewBox="0 0 15 15" width="100%" height="30px" preserveAspectRatio="xMaxYMin meet">
         <g id="arrow_out" transform="scale(0.3 0.3)">
          <a xlink:href="xfer_8c__incl_org.svg" target="_base">
           <rect id="button" ry="5" rx="5" y="6" x="6" height="38" width="38"
                fill="#f2f5e9" fill-opacity="0.5" stroke="#606060" stroke-width="1.0"/>
           <path id="arrow"
             d="M 11.500037,31.436501 C 11.940474,20.09759 22.043105,11.32322 32.158766,21.979434 L 37.068811,17.246167 C 37.068811,17.246167 37.088388,32 37.088388,32 L 22.160133,31.978069 C 22.160133,31.978069 26.997745,27.140456 26.997745,27.140456 C 18.528582,18.264221 13.291696,25.230495 11.500037,31.436501 z"
             style="fill:#404040;"/>
          </a>
         </g>
        </svg>
</svg>
