<?xml version="1.0" encoding="UTF-8" standalone="no"?>
<!DOCTYPE svg PUBLIC "-//W3C//DTD SVG 1.1//EN"
 "http://www.w3.org/Graphics/SVG/1.1/DTD/svg11.dtd">
<!-- Generated by graphviz version 2.40.1 (20161225.0304)
 -->
<!-- Title: iop/kernel/include/xmodload.h Pages: 1 -->
<svg width="154pt" height="263pt"
 viewBox="0.00 0.00 154.00 263.00" xmlns="http://www.w3.org/2000/svg" xmlns:xlink="http://www.w3.org/1999/xlink">
<g id="graph0" class="graph" transform="scale(1 1) rotate(0) translate(4 259)">
<title>iop/kernel/include/xmodload.h</title>
<polygon fill="#ffffff" stroke="transparent" points="-4,4 -4,-259 150,-259 150,4 -4,4"/>
<!-- Node1 -->
<g id="node1" class="node">
<title>Node1</title>
<g id="a_node1"><a xlink:title=" ">
<polygon fill="#bfbfbf" stroke="#000000" points="17,-224.5 17,-254.5 121,-254.5 121,-224.5 17,-224.5"/>
<text text-anchor="start" x="25" y="-242.5" font-family="Helvetica,sans-Serif" font-size="10.00" fill="#000000">iop/kernel/include</text>
<text text-anchor="middle" x="69" y="-231.5" font-family="Helvetica,sans-Serif" font-size="10.00" fill="#000000">/xmodload.h</text>
</a>
</g>
</g>
<!-- Node2 -->
<g id="node2" class="node">
<title>Node2</title>
<g id="a_node2"><a xlink:href="modload_8h.html" target="_top" xlink:title=" ">
<polygon fill="#ffffff" stroke="#000000" points="35,-168.5 35,-187.5 103,-187.5 103,-168.5 35,-168.5"/>
<text text-anchor="middle" x="69" y="-175.5" font-family="Helvetica,sans-Serif" font-size="10.00" fill="#000000">modload.h</text>
</a>
</g>
</g>
<!-- Node1&#45;&gt;Node2 -->
<g id="edge1" class="edge">
<title>Node1&#45;&gt;Node2</title>
<path fill="none" stroke="#191970" d="M69,-224.2977C69,-216.3834 69,-206.6043 69,-198.0759"/>
<polygon fill="#191970" stroke="#191970" points="72.5001,-197.8469 69,-187.8469 65.5001,-197.847 72.5001,-197.8469"/>
</g>
<!-- Node3 -->
<g id="node3" class="node">
<title>Node3</title>
<g id="a_node3"><a xlink:href="types_8h.html" target="_top" xlink:title=" ">
<polygon fill="#ffffff" stroke="#000000" points="42.5,-56.5 42.5,-75.5 95.5,-75.5 95.5,-56.5 42.5,-56.5"/>
<text text-anchor="middle" x="69" y="-63.5" font-family="Helvetica,sans-Serif" font-size="10.00" fill="#000000">types.h</text>
</a>
</g>
</g>
<!-- Node2&#45;&gt;Node3 -->
<g id="edge2" class="edge">
<title>Node2&#45;&gt;Node3</title>
<path fill="none" stroke="#191970" d="M67.894,-168.1456C66.9089,-158.8422 65.5422,-144.4936 65,-132 64.3302,-116.5658 65.4701,-99.1195 66.702,-86.0419"/>
<polygon fill="#191970" stroke="#191970" points="70.2103,-86.1433 67.7652,-75.8345 63.248,-85.4181 70.2103,-86.1433"/>
</g>
<!-- Node6 -->
<g id="node6" class="node">
<title>Node6</title>
<g id="a_node6"><a xlink:href="irx_8h.html" target="_top" xlink:title=" ">
<polygon fill="#ffffff" stroke="#000000" points="74,-112.5 74,-131.5 112,-131.5 112,-112.5 74,-112.5"/>
<text text-anchor="middle" x="93" y="-119.5" font-family="Helvetica,sans-Serif" font-size="10.00" fill="#000000">irx.h</text>
</a>
</g>
</g>
<!-- Node2&#45;&gt;Node6 -->
<g id="edge5" class="edge">
<title>Node2&#45;&gt;Node6</title>
<path fill="none" stroke="#191970" d="M73.1805,-168.2455C76.381,-160.7776 80.896,-150.2427 84.8084,-141.1137"/>
<polygon fill="#191970" stroke="#191970" points="88.1452,-142.2129 88.8674,-131.6427 81.7112,-139.4554 88.1452,-142.2129"/>
</g>
<!-- Node4 -->
<g id="node4" class="node">
<title>Node4</title>
<g id="a_node4"><a xlink:title=" ">
<polygon fill="#ffffff" stroke="#bfbfbf" points="0,-.5 0,-19.5 56,-19.5 56,-.5 0,-.5"/>
<text text-anchor="middle" x="28" y="-7.5" font-family="Helvetica,sans-Serif" font-size="10.00" fill="#000000">stddef.h</text>
</a>
</g>
</g>
<!-- Node3&#45;&gt;Node4 -->
<g id="edge3" class="edge">
<title>Node3&#45;&gt;Node4</title>
<path fill="none" stroke="#191970" d="M61.8583,-56.2455C56.1556,-48.4564 48.01,-37.3308 41.1375,-27.9439"/>
<polygon fill="#191970" stroke="#191970" points="43.7913,-25.6437 35.0598,-19.6427 38.1432,-29.7789 43.7913,-25.6437"/>
</g>
<!-- Node5 -->
<g id="node5" class="node">
<title>Node5</title>
<g id="a_node5"><a xlink:href="tamtypes_8h.html" target="_top" xlink:title=" ">
<polygon fill="#ffffff" stroke="#000000" points="74,-.5 74,-19.5 146,-19.5 146,-.5 74,-.5"/>
<text text-anchor="middle" x="110" y="-7.5" font-family="Helvetica,sans-Serif" font-size="10.00" fill="#000000">tamtypes.h</text>
</a>
</g>
</g>
<!-- Node3&#45;&gt;Node5 -->
<g id="edge4" class="edge">
<title>Node3&#45;&gt;Node5</title>
<path fill="none" stroke="#191970" d="M76.1417,-56.2455C81.8444,-48.4564 89.99,-37.3308 96.8625,-27.9439"/>
<polygon fill="#191970" stroke="#191970" points="99.8568,-29.7789 102.9402,-19.6427 94.2087,-25.6437 99.8568,-29.7789"/>
</g>
<!-- Node6&#45;&gt;Node3 -->
<g id="edge6" class="edge">
<title>Node6&#45;&gt;Node3</title>
<path fill="none" stroke="#191970" d="M88.8195,-112.2455C85.619,-104.7776 81.104,-94.2427 77.1916,-85.1137"/>
<polygon fill="#191970" stroke="#191970" points="80.2888,-83.4554 73.1326,-75.6427 73.8548,-86.2129 80.2888,-83.4554"/>
</g>
</g>
</svg>
